<?xml version="1.0" encoding="UTF-8" standalone="no"?><svg xmlns="http://www.w3.org/2000/svg" xmlns:xlink="http://www.w3.org/1999/xlink" contentScriptType="application/ecmascript" contentStyleType="text/css" height="409px" preserveAspectRatio="none" style="width:553px;height:409px;background:#FFFFFF;" version="1.1" viewBox="0 0 553 409" width="553px" zoomAndPan="magnify"><defs><filter height="300%" id="f1gal51yn0r580" width="300%" x="-1" y="-1"><feGaussianBlur result="blurOut" stdDeviation="2.0"/><feColorMatrix in="blurOut" result="blurOut2" type="matrix" values="0 0 0 0 0 0 0 0 0 0 0 0 0 0 0 0 0 0 .4 0"/><feOffset dx="4.0" dy="4.0" in="blurOut2" result="blurOut3"/><feBlend in="SourceGraphic" in2="blurOut3" mode="normal"/></filter></defs><g><!--MD5=[62e81ff6d8c508371a161574ed6ef67d]
class DltPcapTraceDecoder--><rect codeLine="2" fill="#FEFECE" filter="url(#f1gal51yn0r580)" height="48" id="DltPcapTraceDecoder" style="stroke:#A80036;stroke-width:1.5;" width="153" x="131" y="7"/><ellipse cx="146" cy="23" fill="#ADD1B2" rx="11" ry="11" style="stroke:#A80036;stroke-width:1.0;"/><path d="M148.7656,18.875 Q148.9219,18.6563 149.1094,18.5469 Q149.2969,18.4375 149.5156,18.4375 Q149.8906,18.4375 150.125,18.6953 Q150.3594,18.9531 150.3594,19.5625 L150.3594,21.0156 Q150.3594,21.625 150.125,21.8906 Q149.8906,22.1563 149.5156,22.1563 Q149.1719,22.1563 148.9688,21.9531 Q148.7656,21.7656 148.6563,21.25 Q148.6094,20.8906 148.4219,20.7031 Q148.0938,20.3281 147.4844,20.1094 Q146.875,19.8906 146.25,19.8906 Q145.4844,19.8906 144.8516,20.2188 Q144.2188,20.5469 143.7266,21.2969 Q143.2344,22.0469 143.2344,23.0781 L143.2344,24.1719 Q143.2344,25.4063 144.125,26.2266 Q145.0156,27.0469 146.6094,27.0469 Q147.5469,27.0469 148.2031,26.7969 Q148.5938,26.6406 149.0156,26.2031 Q149.2813,25.9375 149.4297,25.8594 Q149.5781,25.7813 149.7813,25.7813 Q150.1094,25.7813 150.3672,26.0391 Q150.625,26.2969 150.625,26.6406 Q150.625,26.9844 150.2813,27.3906 Q149.7813,27.9688 148.9844,28.2969 Q147.9063,28.75 146.6094,28.75 Q145.0938,28.75 143.8906,28.125 Q142.9063,27.625 142.2188,26.5547 Q141.5313,25.4844 141.5313,24.2031 L141.5313,23.0469 Q141.5313,21.7188 142.1484,20.5703 Q142.7656,19.4219 143.8594,18.8047 Q144.9531,18.1875 146.1875,18.1875 Q146.9219,18.1875 147.5703,18.3516 Q148.2188,18.5156 148.7656,18.875 Z " fill="#000000"/><text fill="#000000" font-family="sans-serif" font-size="12" lengthAdjust="spacing" textLength="121" x="160" y="27.9102">DltPcapTraceDecoder</text><line style="stroke:#A80036;stroke-width:1.5;" x1="132" x2="283" y1="39" y2="39"/><line style="stroke:#A80036;stroke-width:1.5;" x1="132" x2="283" y1="47" y2="47"/><!--MD5=[683e311af8c495ff0d47c1addeddd006]
class DltPcapLegacyDecoder--><rect codeLine="3" fill="#FEFECE" filter="url(#f1gal51yn0r580)" height="48" id="DltPcapLegacyDecoder" style="stroke:#A80036;stroke-width:1.5;" width="161" x="19" y="116"/><ellipse cx="34" cy="132" fill="#ADD1B2" rx="11" ry="11" style="stroke:#A80036;stroke-width:1.0;"/><path d="M36.7656,127.875 Q36.9219,127.6563 37.1094,127.5469 Q37.2969,127.4375 37.5156,127.4375 Q37.8906,127.4375 38.125,127.6953 Q38.3594,127.9531 38.3594,128.5625 L38.3594,130.0156 Q38.3594,130.625 38.125,130.8906 Q37.8906,131.1563 37.5156,131.1563 Q37.1719,131.1563 36.9688,130.9531 Q36.7656,130.7656 36.6563,130.25 Q36.6094,129.8906 36.4219,129.7031 Q36.0938,129.3281 35.4844,129.1094 Q34.875,128.8906 34.25,128.8906 Q33.4844,128.8906 32.8516,129.2188 Q32.2188,129.5469 31.7266,130.2969 Q31.2344,131.0469 31.2344,132.0781 L31.2344,133.1719 Q31.2344,134.4063 32.125,135.2266 Q33.0156,136.0469 34.6094,136.0469 Q35.5469,136.0469 36.2031,135.7969 Q36.5938,135.6406 37.0156,135.2031 Q37.2813,134.9375 37.4297,134.8594 Q37.5781,134.7813 37.7813,134.7813 Q38.1094,134.7813 38.3672,135.0391 Q38.625,135.2969 38.625,135.6406 Q38.625,135.9844 38.2813,136.3906 Q37.7813,136.9688 36.9844,137.2969 Q35.9063,137.75 34.6094,137.75 Q33.0938,137.75 31.8906,137.125 Q30.9063,136.625 30.2188,135.5547 Q29.5313,134.4844 29.5313,133.2031 L29.5313,132.0469 Q29.5313,130.7188 30.1484,129.5703 Q30.7656,128.4219 31.8594,127.8047 Q32.9531,127.1875 34.1875,127.1875 Q34.9219,127.1875 35.5703,127.3516 Q36.2188,127.5156 36.7656,127.875 Z " fill="#000000"/><text fill="#000000" font-family="sans-serif" font-size="12" lengthAdjust="spacing" textLength="129" x="48" y="136.9102">DltPcapLegacyDecoder</text><line style="stroke:#A80036;stroke-width:1.5;" x1="20" x2="179" y1="148" y2="148"/><line style="stroke:#A80036;stroke-width:1.5;" x1="20" x2="179" y1="156" y2="156"/><!--MD5=[00add8ed846e2c7ba81e668223418f3a]
class DltPcapNgDecoder--><rect codeLine="4" fill="#FEFECE" filter="url(#f1gal51yn0r580)" height="48" id="DltPcapNgDecoder" style="stroke:#A80036;stroke-width:1.5;" width="138" x="248.5" y="116"/><ellipse cx="263.5" cy="132" fill="#ADD1B2" rx="11" ry="11" style="stroke:#A80036;stroke-width:1.0;"/><path d="M266.2656,127.875 Q266.4219,127.6563 266.6094,127.5469 Q266.7969,127.4375 267.0156,127.4375 Q267.3906,127.4375 267.625,127.6953 Q267.8594,127.9531 267.8594,128.5625 L267.8594,130.0156 Q267.8594,130.625 267.625,130.8906 Q267.3906,131.1563 267.0156,131.1563 Q266.6719,131.1563 266.4688,130.9531 Q266.2656,130.7656 266.1563,130.25 Q266.1094,129.8906 265.9219,129.7031 Q265.5938,129.3281 264.9844,129.1094 Q264.375,128.8906 263.75,128.8906 Q262.9844,128.8906 262.3516,129.2188 Q261.7188,129.5469 261.2266,130.2969 Q260.7344,131.0469 260.7344,132.0781 L260.7344,133.1719 Q260.7344,134.4063 261.625,135.2266 Q262.5156,136.0469 264.1094,136.0469 Q265.0469,136.0469 265.7031,135.7969 Q266.0938,135.6406 266.5156,135.2031 Q266.7813,134.9375 266.9297,134.8594 Q267.0781,134.7813 267.2813,134.7813 Q267.6094,134.7813 267.8672,135.0391 Q268.125,135.2969 268.125,135.6406 Q268.125,135.9844 267.7813,136.3906 Q267.2813,136.9688 266.4844,137.2969 Q265.4063,137.75 264.1094,137.75 Q262.5938,137.75 261.3906,137.125 Q260.4063,136.625 259.7188,135.5547 Q259.0313,134.4844 259.0313,133.2031 L259.0313,132.0469 Q259.0313,130.7188 259.6484,129.5703 Q260.2656,128.4219 261.3594,127.8047 Q262.4531,127.1875 263.6875,127.1875 Q264.4219,127.1875 265.0703,127.3516 Q265.7188,127.5156 266.2656,127.875 Z " fill="#000000"/><text fill="#000000" font-family="sans-serif" font-size="12" lengthAdjust="spacing" textLength="106" x="277.5" y="136.9102">DltPcapNgDecoder</text><line style="stroke:#A80036;stroke-width:1.5;" x1="249.5" x2="385.5" y1="148" y2="148"/><line style="stroke:#A80036;stroke-width:1.5;" x1="249.5" x2="385.5" y1="156" y2="156"/><!--MD5=[0ef794116927e12860bf84edfd9f03ba]
class PcapFormat--><rect codeLine="12" fill="#FEFECE" filter="url(#f1gal51yn0r580)" height="48" id="PcapFormat" style="stroke:#A80036;stroke-width:1.5;" width="99" x="50" y="225"/><ellipse cx="65" cy="241" fill="#ADD1B2" rx="11" ry="11" style="stroke:#A80036;stroke-width:1.0;"/><path d="M67.7656,236.875 Q67.9219,236.6563 68.1094,236.5469 Q68.2969,236.4375 68.5156,236.4375 Q68.8906,236.4375 69.125,236.6953 Q69.3594,236.9531 69.3594,237.5625 L69.3594,239.0156 Q69.3594,239.625 69.125,239.8906 Q68.8906,240.1563 68.5156,240.1563 Q68.1719,240.1563 67.9688,239.9531 Q67.7656,239.7656 67.6563,239.25 Q67.6094,238.8906 67.4219,238.7031 Q67.0938,238.3281 66.4844,238.1094 Q65.875,237.8906 65.25,237.8906 Q64.4844,237.8906 63.8516,238.2188 Q63.2188,238.5469 62.7266,239.2969 Q62.2344,240.0469 62.2344,241.0781 L62.2344,242.1719 Q62.2344,243.4063 63.125,244.2266 Q64.0156,245.0469 65.6094,245.0469 Q66.5469,245.0469 67.2031,244.7969 Q67.5938,244.6406 68.0156,244.2031 Q68.2813,243.9375 68.4297,243.8594 Q68.5781,243.7813 68.7813,243.7813 Q69.1094,243.7813 69.3672,244.0391 Q69.625,244.2969 69.625,244.6406 Q69.625,244.9844 69.2813,245.3906 Q68.7813,245.9688 67.9844,246.2969 Q66.9063,246.75 65.6094,246.75 Q64.0938,246.75 62.8906,246.125 Q61.9063,245.625 61.2188,244.5547 Q60.5313,243.4844 60.5313,242.2031 L60.5313,241.0469 Q60.5313,239.7188 61.1484,238.5703 Q61.7656,237.4219 62.8594,236.8047 Q63.9531,236.1875 65.1875,236.1875 Q65.9219,236.1875 66.5703,236.3516 Q67.2188,236.5156 67.7656,236.875 Z " fill="#000000"/><text fill="#000000" font-family="sans-serif" font-size="12" lengthAdjust="spacing" textLength="67" x="79" y="245.9102">PcapFormat</text><line style="stroke:#A80036;stroke-width:1.5;" x1="51" x2="148" y1="257" y2="257"/><line style="stroke:#A80036;stroke-width:1.5;" x1="51" x2="148" y1="265" y2="265"/><!--MD5=[7b682d4fb164593493a4c0dbc33aac53]
class PacketDecoder--><rect fill="#FEFECE" filter="url(#f1gal51yn0r580)" height="48" id="PacketDecoder" style="stroke:#A80036;stroke-width:1.5;" width="116" x="221.5" y="225"/><ellipse cx="236.5" cy="241" fill="#ADD1B2" rx="11" ry="11" style="stroke:#A80036;stroke-width:1.0;"/><path d="M239.2656,236.875 Q239.4219,236.6563 239.6094,236.5469 Q239.7969,236.4375 240.0156,236.4375 Q240.3906,236.4375 240.625,236.6953 Q240.8594,236.9531 240.8594,237.5625 L240.8594,239.0156 Q240.8594,239.625 240.625,239.8906 Q240.3906,240.1563 240.0156,240.1563 Q239.6719,240.1563 239.4688,239.9531 Q239.2656,239.7656 239.1563,239.25 Q239.1094,238.8906 238.9219,238.7031 Q238.5938,238.3281 237.9844,238.1094 Q237.375,237.8906 236.75,237.8906 Q235.9844,237.8906 235.3516,238.2188 Q234.7188,238.5469 234.2266,239.2969 Q233.7344,240.0469 233.7344,241.0781 L233.7344,242.1719 Q233.7344,243.4063 234.625,244.2266 Q235.5156,245.0469 237.1094,245.0469 Q238.0469,245.0469 238.7031,244.7969 Q239.0938,244.6406 239.5156,244.2031 Q239.7813,243.9375 239.9297,243.8594 Q240.0781,243.7813 240.2813,243.7813 Q240.6094,243.7813 240.8672,244.0391 Q241.125,244.2969 241.125,244.6406 Q241.125,244.9844 240.7813,245.3906 Q240.2813,245.9688 239.4844,246.2969 Q238.4063,246.75 237.1094,246.75 Q235.5938,246.75 234.3906,246.125 Q233.4063,245.625 232.7188,244.5547 Q232.0313,243.4844 232.0313,242.2031 L232.0313,241.0469 Q232.0313,239.7188 232.6484,238.5703 Q233.2656,237.4219 234.3594,236.8047 Q235.4531,236.1875 236.6875,236.1875 Q237.4219,236.1875 238.0703,236.3516 Q238.7188,236.5156 239.2656,236.875 Z " fill="#000000"/><text fill="#000000" font-family="sans-serif" font-size="12" lengthAdjust="spacing" textLength="84" x="250.5" y="245.9102">PacketDecoder</text><line style="stroke:#A80036;stroke-width:1.5;" x1="222.5" x2="336.5" y1="257" y2="257"/><line style="stroke:#A80036;stroke-width:1.5;" x1="222.5" x2="336.5" y1="265" y2="265"/><!--MD5=[e6dc855584b63987c6ebb47217afddd6]
class DltPcapNetworkTraceFilterDecoder--><rect codeLine="18" fill="#FEFECE" filter="url(#f1gal51yn0r580)" height="61.8359" id="DltPcapNetworkTraceFilterDecoder" style="stroke:#A80036;stroke-width:1.5;" width="225" x="167" y="334"/><ellipse cx="182" cy="350" fill="#ADD1B2" rx="11" ry="11" style="stroke:#A80036;stroke-width:1.0;"/><path d="M184.7656,345.875 Q184.9219,345.6563 185.1094,345.5469 Q185.2969,345.4375 185.5156,345.4375 Q185.8906,345.4375 186.125,345.6953 Q186.3594,345.9531 186.3594,346.5625 L186.3594,348.0156 Q186.3594,348.625 186.125,348.8906 Q185.8906,349.1563 185.5156,349.1563 Q185.1719,349.1563 184.9688,348.9531 Q184.7656,348.7656 184.6563,348.25 Q184.6094,347.8906 184.4219,347.7031 Q184.0938,347.3281 183.4844,347.1094 Q182.875,346.8906 182.25,346.8906 Q181.4844,346.8906 180.8516,347.2188 Q180.2188,347.5469 179.7266,348.2969 Q179.2344,349.0469 179.2344,350.0781 L179.2344,351.1719 Q179.2344,352.4063 180.125,353.2266 Q181.0156,354.0469 182.6094,354.0469 Q183.5469,354.0469 184.2031,353.7969 Q184.5938,353.6406 185.0156,353.2031 Q185.2813,352.9375 185.4297,352.8594 Q185.5781,352.7813 185.7813,352.7813 Q186.1094,352.7813 186.3672,353.0391 Q186.625,353.2969 186.625,353.6406 Q186.625,353.9844 186.2813,354.3906 Q185.7813,354.9688 184.9844,355.2969 Q183.9063,355.75 182.6094,355.75 Q181.0938,355.75 179.8906,355.125 Q178.9063,354.625 178.2188,353.5547 Q177.5313,352.4844 177.5313,351.2031 L177.5313,350.0469 Q177.5313,348.7188 178.1484,347.5703 Q178.7656,346.4219 179.8594,345.8047 Q180.9531,345.1875 182.1875,345.1875 Q182.9219,345.1875 183.5703,345.3516 Q184.2188,345.5156 184.7656,345.875 Z " fill="#000000"/><text fill="#000000" font-family="sans-serif" font-size="12" lengthAdjust="spacing" textLength="193" x="196" y="354.9102">DltPcapNetworkTraceFilterDecoder</text><line style="stroke:#A80036;stroke-width:1.5;" x1="168" x2="391" y1="366" y2="366"/><text fill="#000000" font-family="sans-serif" font-size="11" lengthAdjust="spacing" textLength="134" x="173" y="381.4189">PacketTimeStamp: DateTime</text><line style="stroke:#A80036;stroke-width:1.5;" x1="168" x2="391" y1="387.8359" y2="387.8359"/><!--MD5=[ffb2fd249efbe4af1286e8136fa09e1b]
class DltTraceDecoder--><rect codeLine="23" fill="#FEFECE" filter="url(#f1gal51yn0r580)" height="48" id="DltTraceDecoder" style="stroke:#A80036;stroke-width:1.5;" width="125" x="7" y="341"/><ellipse cx="22" cy="357" fill="#ADD1B2" rx="11" ry="11" style="stroke:#A80036;stroke-width:1.0;"/><path d="M24.7656,352.875 Q24.9219,352.6563 25.1094,352.5469 Q25.2969,352.4375 25.5156,352.4375 Q25.8906,352.4375 26.125,352.6953 Q26.3594,352.9531 26.3594,353.5625 L26.3594,355.0156 Q26.3594,355.625 26.125,355.8906 Q25.8906,356.1563 25.5156,356.1563 Q25.1719,356.1563 24.9688,355.9531 Q24.7656,355.7656 24.6563,355.25 Q24.6094,354.8906 24.4219,354.7031 Q24.0938,354.3281 23.4844,354.1094 Q22.875,353.8906 22.25,353.8906 Q21.4844,353.8906 20.8516,354.2188 Q20.2188,354.5469 19.7266,355.2969 Q19.2344,356.0469 19.2344,357.0781 L19.2344,358.1719 Q19.2344,359.4063 20.125,360.2266 Q21.0156,361.0469 22.6094,361.0469 Q23.5469,361.0469 24.2031,360.7969 Q24.5938,360.6406 25.0156,360.2031 Q25.2813,359.9375 25.4297,359.8594 Q25.5781,359.7813 25.7813,359.7813 Q26.1094,359.7813 26.3672,360.0391 Q26.625,360.2969 26.625,360.6406 Q26.625,360.9844 26.2813,361.3906 Q25.7813,361.9688 24.9844,362.2969 Q23.9063,362.75 22.6094,362.75 Q21.0938,362.75 19.8906,362.125 Q18.9063,361.625 18.2188,360.5547 Q17.5313,359.4844 17.5313,358.2031 L17.5313,357.0469 Q17.5313,355.7188 18.1484,354.5703 Q18.7656,353.4219 19.8594,352.8047 Q20.9531,352.1875 22.1875,352.1875 Q22.9219,352.1875 23.5703,352.3516 Q24.2188,352.5156 24.7656,352.875 Z " fill="#000000"/><text fill="#000000" font-family="sans-serif" font-size="12" lengthAdjust="spacing" textLength="93" x="36" y="361.9102">DltTraceDecoder</text><line style="stroke:#A80036;stroke-width:1.5;" x1="8" x2="131" y1="373" y2="373"/><line style="stroke:#A80036;stroke-width:1.5;" x1="8" x2="131" y1="381" y2="381"/><!--MD5=[52a3332067f4ff29b03ab00f619de69b]
class IOutputStream--><rect codeLine="26" fill="#FEFECE" filter="url(#f1gal51yn0r580)" height="48" id="IOutputStream" style="stroke:#A80036;stroke-width:1.5;" width="112" x="427.5" y="341"/><ellipse cx="442.5" cy="357" fill="#B4A7E5" rx="11" ry="11" style="stroke:#A80036;stroke-width:1.0;"/><path d="M443.4531,353.6406 L443.4531,360.2969 L445.1719,360.2969 Q445.7813,360.2969 446.0469,360.5313 Q446.3125,360.7656 446.3125,361.1563 Q446.3125,361.5313 446.0469,361.7656 Q445.7813,362 445.1719,362 L440.0313,362 Q439.4219,362 439.1563,361.7656 Q438.8906,361.5313 438.8906,361.1406 Q438.8906,360.7656 439.1563,360.5313 Q439.4219,360.2969 440.0313,360.2969 L441.75,360.2969 L441.75,353.6406 L440.0313,353.6406 Q439.4219,353.6406 439.1563,353.4063 Q438.8906,353.1719 438.8906,352.7813 Q438.8906,352.4063 439.1563,352.1719 Q439.4219,351.9375 440.0313,351.9375 L445.1719,351.9375 Q445.7813,351.9375 446.0469,352.1719 Q446.3125,352.4063 446.3125,352.7813 Q446.3125,353.1719 446.0469,353.4063 Q445.7813,353.6406 445.1719,353.6406 L443.4531,353.6406 Z " fill="#000000"/><text fill="#000000" font-family="sans-serif" font-size="12" font-style="italic" lengthAdjust="spacing" textLength="80" x="456.5" y="361.9102">IOutputStream</text><line style="stroke:#A80036;stroke-width:1.5;" x1="428.5" x2="538.5" y1="373" y2="373"/><line style="stroke:#A80036;stroke-width:1.5;" x1="428.5" x2="538.5" y1="381" y2="381"/><!--MD5=[de0c9125b175363ba854e97573600601]
reverse link DltPcapTraceDecoder to DltPcapLegacyDecoder--><path codeLine="8" d="M174.66,64.54 C157.95,81.1 138.02,100.83 122.89,115.83 " fill="none" id="DltPcapTraceDecoder-backto-DltPcapLegacyDecoder" style="stroke:#A80036;stroke-width:1.0;"/><polygon fill="#A80036" points="184.07,55.22,176.9913,56.5957,175.5387,63.659,182.6173,62.2833,184.07,55.22" style="stroke:#A80036;stroke-width:1.0;"/><!--MD5=[fb1de3d8f4589d245fc12ef9bfffe795]
reverse link DltPcapTraceDecoder to DltPcapNgDecoder--><path codeLine="9" d="M240.95,64.54 C257.97,81.1 278.26,100.83 293.68,115.83 " fill="none" id="DltPcapTraceDecoder-backto-DltPcapNgDecoder" style="stroke:#A80036;stroke-width:1.0;"/><polygon fill="#A80036" points="231.37,55.22,232.8775,62.2718,239.9666,63.5925,238.4591,56.5407,231.37,55.22" style="stroke:#A80036;stroke-width:1.0;"/><!--MD5=[ad3bfdac85b247efbb804d8a29648f03]
link DltPcapLegacyDecoder to DltPcapNgDecoder--><path codeLine="10" d="M180.06,140 C202.49,140 226.66,140 248.38,140 " fill="none" id="DltPcapLegacyDecoder-DltPcapNgDecoder" style="stroke:#A80036;stroke-width:1.0;"/><text fill="#000000" font-family="sans-serif" font-size="13" lengthAdjust="spacing" textLength="32" x="198.25" y="133.4951">«xor»</text><!--MD5=[fa1838e33224615530b97ede2e5db39a]
reverse link DltPcapLegacyDecoder to PcapFormat--><path codeLine="13" d="M99.5,177.3 C99.5,193.02 99.5,210.96 99.5,224.83 " fill="none" id="DltPcapLegacyDecoder-backto-PcapFormat" style="stroke:#A80036;stroke-width:1.0;"/><polygon fill="#A80036" points="99.5,164.22,95.5,170.22,99.5,176.22,103.5,170.22,99.5,164.22" style="stroke:#A80036;stroke-width:1.0;"/><!--MD5=[da6cf38e0656f789619f1def49403469]
reverse link DltPcapLegacyDecoder to PacketDecoder--><path codeLine="14" d="M149.99,171.01 C178.66,188.05 214,209.06 240.52,224.83 " fill="none" id="DltPcapLegacyDecoder-backto-PacketDecoder" style="stroke:#A80036;stroke-width:1.0;"/><polygon fill="#A80036" points="138.56,164.22,141.6727,170.7247,148.8743,170.3532,145.7615,163.8485,138.56,164.22" style="stroke:#A80036;stroke-width:1.0;"/><!--MD5=[16155ceebbb64cf6c59d9a5d7d3956bf]
reverse link DltPcapNgDecoder to PacketDecoder--><path codeLine="16" d="M304.78,176.83 C299.15,192.66 292.71,210.82 287.73,224.83 " fill="none" id="DltPcapNgDecoder-backto-PacketDecoder" style="stroke:#A80036;stroke-width:1.0;"/><polygon fill="#A80036" points="309.25,164.22,303.4743,168.5375,305.2382,175.5295,311.014,171.212,309.25,164.22" style="stroke:#A80036;stroke-width:1.0;"/><!--MD5=[d3281d1974f8e4c4ba3d180c4474f712]
reverse link PacketDecoder to DltPcapNetworkTraceFilterDecoder--><path codeLine="21" d="M279.5,286.28 C279.5,301.52 279.5,319.06 279.5,333.61 " fill="none" id="PacketDecoder-backto-DltPcapNetworkTraceFilterDecoder" style="stroke:#A80036;stroke-width:1.0;"/><polygon fill="#A80036" points="279.5,273.07,275.5,279.07,279.5,285.07,283.5,279.07,279.5,273.07" style="stroke:#A80036;stroke-width:1.0;"/><!--MD5=[acfa5c5d2eaac380bad75020fd8a66ee]
reverse link DltTraceDecoder to DltPcapNetworkTraceFilterDecoder--><path codeLine="24" d="M152.48,365 C157.24,365 162,365 166.76,365 " fill="none" id="DltTraceDecoder-backto-DltPcapNetworkTraceFilterDecoder" style="stroke:#A80036;stroke-width:1.0;"/><polygon fill="none" points="152.25,372,132.25,365,152.25,358,152.25,372" style="stroke:#A80036;stroke-width:1.0;"/><!--MD5=[0a7f40891f7918e3a196c05ec2dd840e]
reverse link DltPcapNetworkTraceFilterDecoder to IOutputStream--><path codeLine="27" d="M405.36,365 C412.63,365 419.91,365 427.19,365 " fill="none" id="DltPcapNetworkTraceFilterDecoder-backto-IOutputStream" style="stroke:#A80036;stroke-width:1.0;"/><polygon fill="#FFFFFF" points="392.26,365,398.26,369,404.26,365,398.26,361,392.26,365" style="stroke:#A80036;stroke-width:1.0;"/><!--MD5=[d26bc0434e7ba7ed363b714bf1759639]
@startuml DltPcapTraceDecoder

class DltPcapTraceDecoder
class DltPcapLegacyDecoder
class DltPcapNgDecoder
'class DltLineBuilder
'interface ITraceDecoder<DltTraceLineBase>

DltPcapTraceDecoder *-d- DltPcapLegacyDecoder
DltPcapTraceDecoder *-d- DltPcapNgDecoder
DltPcapLegacyDecoder -r- DltPcapNgDecoder : <<xor>>

class PcapFormat
DltPcapLegacyDecoder *-d- PcapFormat
DltPcapLegacyDecoder *-d- PacketDecoder

DltPcapNgDecoder *-d- PacketDecoder

class DltPcapNetworkTraceFilterDecoder {
    PacketTimeStamp: DateTime
}
PacketDecoder *-d- DltPcapNetworkTraceFilterDecoder

class DltTraceDecoder
DltPcapNetworkTraceFilterDecoder -l-|> DltTraceDecoder

interface IOutputStream
DltPcapNetworkTraceFilterDecoder o-r- IOutputStream
@enduml

@startuml DltPcapTraceDecoder

class DltPcapTraceDecoder
class DltPcapLegacyDecoder
class DltPcapNgDecoder

DltPcapTraceDecoder *-d- DltPcapLegacyDecoder
DltPcapTraceDecoder *-d- DltPcapNgDecoder
DltPcapLegacyDecoder -r- DltPcapNgDecoder : <<xor>>

class PcapFormat
DltPcapLegacyDecoder *-d- PcapFormat
DltPcapLegacyDecoder *-d- PacketDecoder

DltPcapNgDecoder *-d- PacketDecoder

class DltPcapNetworkTraceFilterDecoder {
    PacketTimeStamp: DateTime
}
PacketDecoder *-d- DltPcapNetworkTraceFilterDecoder

class DltTraceDecoder
DltPcapNetworkTraceFilterDecoder -l-|> DltTraceDecoder

interface IOutputStream
DltPcapNetworkTraceFilterDecoder o-r- IOutputStream
@enduml

PlantUML version 1.2022.0(Tue Jan 11 17:16:42 CET 2022)
(GPL source distribution)
Java Runtime: Java(TM) SE Runtime Environment
JVM: Java HotSpot(TM) Client VM
Default Encoding: Cp1252
Language: en
Country: US
--></g></svg>