<?xml version="1.0" encoding="us-ascii" standalone="no"?><svg xmlns="http://www.w3.org/2000/svg" xmlns:xlink="http://www.w3.org/1999/xlink" contentStyleType="text/css" height="426px" preserveAspectRatio="none" style="width:681px;height:426px;background:#FFFFFF;" version="1.1" viewBox="0 0 681 426" width="681px" zoomAndPan="magnify"><defs/><g><!--class DltPcapTraceDecoder--><g id="elem_DltPcapTraceDecoder"><rect codeLine="2" fill="#F1F1F1" height="48" id="DltPcapTraceDecoder" rx="2.5" ry="2.5" style="stroke:#181818;stroke-width:0.5;" width="184" x="374.5" y="7"/><ellipse cx="389.5" cy="23" fill="#ADD1B2" rx="11" ry="11" style="stroke:#181818;stroke-width:1.0;"/><path d="M392.4688,28.6406 Q391.8906,28.9375 391.25,29.0781 Q390.6094,29.2344 389.9063,29.2344 Q387.4063,29.2344 386.0781,27.5938 Q384.7656,25.9375 384.7656,22.8125 Q384.7656,19.6875 386.0781,18.0313 Q387.4063,16.375 389.9063,16.375 Q390.6094,16.375 391.25,16.5313 Q391.9063,16.6875 392.4688,16.9844 L392.4688,19.7031 Q391.8438,19.125 391.25,18.8594 Q390.6563,18.5781 390.0313,18.5781 Q388.6875,18.5781 388,19.6563 Q387.3125,20.7188 387.3125,22.8125 Q387.3125,24.9063 388,25.9844 Q388.6875,27.0469 390.0313,27.0469 Q390.6563,27.0469 391.25,26.7813 Q391.8438,26.5 392.4688,25.9219 L392.4688,28.6406 Z " fill="#000000"/><text fill="#000000" font-family="sans-serif" font-size="14" lengthAdjust="spacing" textLength="152" x="403.5" y="27.8467">DltPcapTraceDecoder</text><line style="stroke:#181818;stroke-width:0.5;" x1="375.5" x2="557.5" y1="39" y2="39"/><line style="stroke:#181818;stroke-width:0.5;" x1="375.5" x2="557.5" y1="47" y2="47"/></g><!--class DltPcapLegacyDecoder--><g id="elem_DltPcapLegacyDecoder"><rect codeLine="3" fill="#F1F1F1" height="48" id="DltPcapLegacyDecoder" rx="2.5" ry="2.5" style="stroke:#181818;stroke-width:0.5;" width="193" x="245" y="173.04"/><ellipse cx="260" cy="189.04" fill="#ADD1B2" rx="11" ry="11" style="stroke:#181818;stroke-width:1.0;"/><path d="M262.9688,194.6806 Q262.3906,194.9775 261.75,195.1181 Q261.1094,195.2744 260.4063,195.2744 Q257.9063,195.2744 256.5781,193.6338 Q255.2656,191.9775 255.2656,188.8525 Q255.2656,185.7275 256.5781,184.0713 Q257.9063,182.415 260.4063,182.415 Q261.1094,182.415 261.75,182.5713 Q262.4063,182.7275 262.9688,183.0244 L262.9688,185.7431 Q262.3438,185.165 261.75,184.8994 Q261.1563,184.6181 260.5313,184.6181 Q259.1875,184.6181 258.5,185.6963 Q257.8125,186.7588 257.8125,188.8525 Q257.8125,190.9463 258.5,192.0244 Q259.1875,193.0869 260.5313,193.0869 Q261.1563,193.0869 261.75,192.8213 Q262.3438,192.54 262.9688,191.9619 L262.9688,194.6806 Z " fill="#000000"/><text fill="#000000" font-family="sans-serif" font-size="14" lengthAdjust="spacing" textLength="161" x="274" y="193.8867">DltPcapLegacyDecoder</text><line style="stroke:#181818;stroke-width:0.5;" x1="246" x2="437" y1="205.04" y2="205.04"/><line style="stroke:#181818;stroke-width:0.5;" x1="246" x2="437" y1="213.04" y2="213.04"/></g><!--class DltPcapNgDecoder--><g id="elem_DltPcapNgDecoder"><rect codeLine="4" fill="#F1F1F1" height="48" id="DltPcapNgDecoder" rx="2.5" ry="2.5" style="stroke:#181818;stroke-width:0.5;" width="164" x="510.5" y="173.04"/><ellipse cx="525.5" cy="189.04" fill="#ADD1B2" rx="11" ry="11" style="stroke:#181818;stroke-width:1.0;"/><path d="M528.4688,194.6806 Q527.8906,194.9775 527.25,195.1181 Q526.6094,195.2744 525.9063,195.2744 Q523.4063,195.2744 522.0781,193.6338 Q520.7656,191.9775 520.7656,188.8525 Q520.7656,185.7275 522.0781,184.0713 Q523.4063,182.415 525.9063,182.415 Q526.6094,182.415 527.25,182.5713 Q527.9063,182.7275 528.4688,183.0244 L528.4688,185.7431 Q527.8438,185.165 527.25,184.8994 Q526.6563,184.6181 526.0313,184.6181 Q524.6875,184.6181 524,185.6963 Q523.3125,186.7588 523.3125,188.8525 Q523.3125,190.9463 524,192.0244 Q524.6875,193.0869 526.0313,193.0869 Q526.6563,193.0869 527.25,192.8213 Q527.8438,192.54 528.4688,191.9619 L528.4688,194.6806 Z " fill="#000000"/><text fill="#000000" font-family="sans-serif" font-size="14" lengthAdjust="spacing" textLength="132" x="539.5" y="193.8867">DltPcapNgDecoder</text><line style="stroke:#181818;stroke-width:0.5;" x1="511.5" x2="673.5" y1="205.04" y2="205.04"/><line style="stroke:#181818;stroke-width:0.5;" x1="511.5" x2="673.5" y1="213.04" y2="213.04"/></g><!--class TimeResolution--><g id="elem_TimeResolution"><rect codeLine="10" fill="#F1F1F1" height="80.5938" id="TimeResolution" rx="2.5" ry="2.5" style="stroke:#181818;stroke-width:0.5;" width="140" x="38.5" y="339.08"/><ellipse cx="53.5" cy="355.08" fill="#EB937F" rx="11" ry="11" style="stroke:#181818;stroke-width:1.0;"/><path d="M57.6094,361.08 L49.8906,361.08 L49.8906,348.6894 L57.6094,348.6894 L57.6094,350.8456 L52.3438,350.8456 L52.3438,353.5175 L57.1094,353.5175 L57.1094,355.6738 L52.3438,355.6738 L52.3438,358.9238 L57.6094,358.9238 L57.6094,361.08 Z " fill="#000000"/><text fill="#000000" font-family="sans-serif" font-size="14" lengthAdjust="spacing" textLength="108" x="67.5" y="359.9267">TimeResolution</text><line style="stroke:#181818;stroke-width:0.5;" x1="39.5" x2="177.5" y1="371.08" y2="371.08"/><text fill="#000000" font-family="sans-serif" font-size="14" lengthAdjust="spacing" textLength="97" x="44.5" y="388.0751">Microseconds</text><text fill="#000000" font-family="sans-serif" font-size="14" lengthAdjust="spacing" textLength="96" x="44.5" y="404.372">Nanoseconds</text><line style="stroke:#181818;stroke-width:0.5;" x1="39.5" x2="177.5" y1="411.6738" y2="411.6738"/></g><!--class PcapFormat--><g id="elem_PcapFormat"><rect codeLine="15" fill="#F1F1F1" height="162.0781" id="PcapFormat" rx="2.5" ry="2.5" style="stroke:#181818;stroke-width:0.5;" width="203" x="7" y="116"/><ellipse cx="63.25" cy="132" fill="#ADD1B2" rx="11" ry="11" style="stroke:#181818;stroke-width:1.0;"/><path d="M66.2188,137.6406 Q65.6406,137.9375 65,138.0781 Q64.3594,138.2344 63.6563,138.2344 Q61.1563,138.2344 59.8281,136.5938 Q58.5156,134.9375 58.5156,131.8125 Q58.5156,128.6875 59.8281,127.0313 Q61.1563,125.375 63.6563,125.375 Q64.3594,125.375 65,125.5313 Q65.6563,125.6875 66.2188,125.9844 L66.2188,128.7031 Q65.5938,128.125 65,127.8594 Q64.4063,127.5781 63.7813,127.5781 Q62.4375,127.5781 61.75,128.6563 Q61.0625,129.7188 61.0625,131.8125 Q61.0625,133.9063 61.75,134.9844 Q62.4375,136.0469 63.7813,136.0469 Q64.4063,136.0469 65,135.7813 Q65.5938,135.5 66.2188,134.9219 L66.2188,137.6406 Z " fill="#000000"/><text fill="#000000" font-family="sans-serif" font-size="14" lengthAdjust="spacing" textLength="82" x="83.75" y="136.8467">PcapFormat</text><line style="stroke:#181818;stroke-width:0.5;" x1="8" x2="209" y1="148" y2="148"/><text fill="#000000" font-family="sans-serif" font-size="14" lengthAdjust="spacing" textLength="129" x="13" y="164.9951">IsLittleEndian: bool</text><text fill="#000000" font-family="sans-serif" font-size="14" lengthAdjust="spacing" textLength="115" x="13" y="181.292">MajorVersion: int</text><text fill="#000000" font-family="sans-serif" font-size="14" lengthAdjust="spacing" textLength="116" x="13" y="197.5889">MinorVersion: int</text><text fill="#000000" font-family="sans-serif" font-size="14" lengthAdjust="spacing" textLength="86" x="13" y="213.8857">SnapLen: int</text><text fill="#000000" font-family="sans-serif" font-size="14" lengthAdjust="spacing" textLength="75" x="13" y="230.1826">FcsLen: int</text><text fill="#000000" font-family="sans-serif" font-size="14" lengthAdjust="spacing" textLength="87" x="13" y="246.4795">LinkType: int</text><text fill="#000000" font-family="sans-serif" font-size="14" lengthAdjust="spacing" textLength="191" x="13" y="262.7764">Resolution: TimeResolution</text><line style="stroke:#181818;stroke-width:0.5;" x1="8" x2="209" y1="270.0781" y2="270.0781"/></g><!--class PacketDecoder--><g id="elem_PacketDecoder"><rect fill="#F1F1F1" height="48" id="PacketDecoder" rx="2.5" ry="2.5" style="stroke:#181818;stroke-width:0.5;" width="139" x="397" y="355.37"/><ellipse cx="412" cy="371.37" fill="#ADD1B2" rx="11" ry="11" style="stroke:#181818;stroke-width:1.0;"/><path d="M414.9688,377.0106 Q414.3906,377.3075 413.75,377.4481 Q413.1094,377.6044 412.4063,377.6044 Q409.9063,377.6044 408.5781,375.9638 Q407.2656,374.3075 407.2656,371.1825 Q407.2656,368.0575 408.5781,366.4013 Q409.9063,364.745 412.4063,364.745 Q413.1094,364.745 413.75,364.9013 Q414.4063,365.0575 414.9688,365.3544 L414.9688,368.0731 Q414.3438,367.495 413.75,367.2294 Q413.1563,366.9481 412.5313,366.9481 Q411.1875,366.9481 410.5,368.0263 Q409.8125,369.0888 409.8125,371.1825 Q409.8125,373.2763 410.5,374.3544 Q411.1875,375.4169 412.5313,375.4169 Q413.1563,375.4169 413.75,375.1513 Q414.3438,374.87 414.9688,374.2919 L414.9688,377.0106 Z " fill="#000000"/><text fill="#000000" font-family="sans-serif" font-size="14" lengthAdjust="spacing" textLength="107" x="426" y="376.2167">PacketDecoder</text><line style="stroke:#181818;stroke-width:0.5;" x1="398" x2="535" y1="387.37" y2="387.37"/><line style="stroke:#181818;stroke-width:0.5;" x1="398" x2="535" y1="395.37" y2="395.37"/></g><!--reverse link DltPcapTraceDecoder to DltPcapLegacyDecoder--><g id="link_DltPcapTraceDecoder_DltPcapLegacyDecoder"><path codeLine="6" d="M440.45,66.18 C416.12,98.11 380.47,144.9 359.26,172.74 " fill="none" id="DltPcapTraceDecoder-backto-DltPcapLegacyDecoder" style="stroke:#181818;stroke-width:1.0;"/><polygon fill="#181818" points="448.86,56.15,442.0433,58.5021,441.5926,65.6991,448.4094,63.347,448.86,56.15" style="stroke:#181818;stroke-width:1.0;"/></g><!--reverse link DltPcapTraceDecoder to DltPcapNgDecoder--><g id="link_DltPcapTraceDecoder_DltPcapNgDecoder"><path codeLine="7" d="M492.76,66.18 C517.28,98.11 553.22,144.9 574.6,172.74 " fill="none" id="DltPcapTraceDecoder-backto-DltPcapNgDecoder" style="stroke:#181818;stroke-width:1.0;"/><polygon fill="#181818" points="484.29,56.15,484.7739,63.3448,491.6014,65.6654,491.1175,58.4706,484.29,56.15" style="stroke:#181818;stroke-width:1.0;"/></g><!--link DltPcapLegacyDecoder to DltPcapNgDecoder--><g id="link_DltPcapLegacyDecoder_DltPcapNgDecoder"><path codeLine="8" d="M438.18,197.04 C461.94,197.04 487.15,197.04 510.15,197.04 " fill="none" id="DltPcapLegacyDecoder-DltPcapNgDecoder" style="stroke:#181818;stroke-width:1.0;"/><text fill="#000000" font-family="sans-serif" font-size="13" lengthAdjust="spacing" textLength="36" x="456.25" y="190.1069">&#171;xor&#187;</text></g><!--reverse link PcapFormat to TimeResolution--><g id="link_PcapFormat_TimeResolution"><path codeLine="24" d="M108.5,292.19 C108.5,308.55 108.5,324.73 108.5,338.58 " fill="none" id="PcapFormat-backto-TimeResolution" style="stroke:#181818;stroke-width:1.0;"/><polygon fill="#181818" points="108.5,279.45,104.5,285.45,108.5,291.45,112.5,285.45,108.5,279.45" style="stroke:#181818;stroke-width:1.0;"/></g><!--link PcapFormat to DltPcapLegacyDecoder--><g id="link_PcapFormat_DltPcapLegacyDecoder"><path codeLine="26" d="M210.44,197.04 C217.23,197.04 224.02,197.04 230.8,197.04 " fill="none" id="PcapFormat-to-DltPcapLegacyDecoder" style="stroke:#181818;stroke-width:1.0;"/><polygon fill="#181818" points="243.74,197.04,237.74,193.04,231.74,197.04,237.74,201.04,243.74,197.04" style="stroke:#181818;stroke-width:1.0;"/></g><!--reverse link DltPcapLegacyDecoder to PacketDecoder--><g id="link_DltPcapLegacyDecoder_PacketDecoder"><path codeLine="27" d="M365.48,232.63 C390.4,268.58 428.7,323.84 450.28,354.97 " fill="none" id="DltPcapLegacyDecoder-backto-PacketDecoder" style="stroke:#181818;stroke-width:1.0;"/><polygon fill="#181818" points="357.59,222.24,357.7175,229.45,364.4219,232.1054,364.2944,224.8954,357.59,222.24" style="stroke:#181818;stroke-width:1.0;"/></g><!--reverse link DltPcapNgDecoder to PacketDecoder--><g id="link_DltPcapNgDecoder_PacketDecoder"><path codeLine="29" d="M568.33,232.63 C543.21,268.58 504.6,323.84 482.85,354.97 " fill="none" id="DltPcapNgDecoder-backto-PacketDecoder" style="stroke:#181818;stroke-width:1.0;"/><polygon fill="#181818" points="576.29,222.24,569.5728,224.8628,569.4102,232.072,576.1275,229.4493,576.29,222.24" style="stroke:#181818;stroke-width:1.0;"/></g><!--SRC=[XL71Ri8m3BtdAtn6oWzKY1D3GkeGOjNkdckXZDH6IP26fltx0XJQTPcMcv-Vdzzpo6ECiFHfItXi0X8lcRJbO6ZSgNcFT2wsDlixR0eoCBEjBQlynnw4I-DWmsycL32VVsXOB8nXENNGk8vt7DMVabE1JmFvFJiA6lE4jF4AR50UzPVfurs4LnewJFtOEjOk9SzFqZgK2jvK_KqFtpMySeXvHGLEKhz52kYBN7ACW1N57tNjvD2SZpmWW_zgaYUR7Rcytcv2A9zkPhqTvVkBbEMsI0TEqmyUxbqWVGC0]--></g></svg>