<?xml version="1.0" encoding="UTF-8" standalone="no"?><svg xmlns="http://www.w3.org/2000/svg" xmlns:xlink="http://www.w3.org/1999/xlink" contentScriptType="application/ecmascript" contentStyleType="text/css" height="411px" preserveAspectRatio="none" style="width:564px;height:411px;background:#FFFFFF;" version="1.1" viewBox="0 0 564 411" width="564px" zoomAndPan="magnify"><defs><filter height="300%" id="fd7k2xsklwrdl" width="300%" x="-1" y="-1"><feGaussianBlur result="blurOut" stdDeviation="2.0"/><feColorMatrix in="blurOut" result="blurOut2" type="matrix" values="0 0 0 0 0 0 0 0 0 0 0 0 0 0 0 0 0 0 .4 0"/><feOffset dx="4.0" dy="4.0" in="blurOut2" result="blurOut3"/><feBlend in="SourceGraphic" in2="blurOut3" mode="normal"/></filter></defs><g><!--MD5=[62e81ff6d8c508371a161574ed6ef67d]
class DltPcapTraceDecoder--><rect codeLine="2" fill="#FEFECE" filter="url(#fd7k2xsklwrdl)" height="48" id="DltPcapTraceDecoder" style="stroke:#A80036;stroke-width:1.5;" width="153" x="294.5" y="7"/><ellipse cx="309.5" cy="23" fill="#ADD1B2" rx="11" ry="11" style="stroke:#A80036;stroke-width:1.0;"/><path d="M312.2656,18.875 Q312.4219,18.6563 312.6094,18.5469 Q312.7969,18.4375 313.0156,18.4375 Q313.3906,18.4375 313.625,18.6953 Q313.8594,18.9531 313.8594,19.5625 L313.8594,21.0156 Q313.8594,21.625 313.625,21.8906 Q313.3906,22.1563 313.0156,22.1563 Q312.6719,22.1563 312.4688,21.9531 Q312.2656,21.7656 312.1563,21.25 Q312.1094,20.8906 311.9219,20.7031 Q311.5938,20.3281 310.9844,20.1094 Q310.375,19.8906 309.75,19.8906 Q308.9844,19.8906 308.3516,20.2188 Q307.7188,20.5469 307.2266,21.2969 Q306.7344,22.0469 306.7344,23.0781 L306.7344,24.1719 Q306.7344,25.4063 307.625,26.2266 Q308.5156,27.0469 310.1094,27.0469 Q311.0469,27.0469 311.7031,26.7969 Q312.0938,26.6406 312.5156,26.2031 Q312.7813,25.9375 312.9297,25.8594 Q313.0781,25.7813 313.2813,25.7813 Q313.6094,25.7813 313.8672,26.0391 Q314.125,26.2969 314.125,26.6406 Q314.125,26.9844 313.7813,27.3906 Q313.2813,27.9688 312.4844,28.2969 Q311.4063,28.75 310.1094,28.75 Q308.5938,28.75 307.3906,28.125 Q306.4063,27.625 305.7188,26.5547 Q305.0313,25.4844 305.0313,24.2031 L305.0313,23.0469 Q305.0313,21.7188 305.6484,20.5703 Q306.2656,19.4219 307.3594,18.8047 Q308.4531,18.1875 309.6875,18.1875 Q310.4219,18.1875 311.0703,18.3516 Q311.7188,18.5156 312.2656,18.875 Z " fill="#000000"/><text fill="#000000" font-family="sans-serif" font-size="12" lengthAdjust="spacing" textLength="121" x="323.5" y="27.9102">DltPcapTraceDecoder</text><line style="stroke:#A80036;stroke-width:1.5;" x1="295.5" x2="446.5" y1="39" y2="39"/><line style="stroke:#A80036;stroke-width:1.5;" x1="295.5" x2="446.5" y1="47" y2="47"/><!--MD5=[683e311af8c495ff0d47c1addeddd006]
class DltPcapLegacyDecoder--><rect codeLine="3" fill="#FEFECE" filter="url(#fd7k2xsklwrdl)" height="48" id="DltPcapLegacyDecoder" style="stroke:#A80036;stroke-width:1.5;" width="161" x="182.5" y="164.5"/><ellipse cx="197.5" cy="180.5" fill="#ADD1B2" rx="11" ry="11" style="stroke:#A80036;stroke-width:1.0;"/><path d="M200.2656,176.375 Q200.4219,176.1563 200.6094,176.0469 Q200.7969,175.9375 201.0156,175.9375 Q201.3906,175.9375 201.625,176.1953 Q201.8594,176.4531 201.8594,177.0625 L201.8594,178.5156 Q201.8594,179.125 201.625,179.3906 Q201.3906,179.6563 201.0156,179.6563 Q200.6719,179.6563 200.4688,179.4531 Q200.2656,179.2656 200.1563,178.75 Q200.1094,178.3906 199.9219,178.2031 Q199.5938,177.8281 198.9844,177.6094 Q198.375,177.3906 197.75,177.3906 Q196.9844,177.3906 196.3516,177.7188 Q195.7188,178.0469 195.2266,178.7969 Q194.7344,179.5469 194.7344,180.5781 L194.7344,181.6719 Q194.7344,182.9063 195.625,183.7266 Q196.5156,184.5469 198.1094,184.5469 Q199.0469,184.5469 199.7031,184.2969 Q200.0938,184.1406 200.5156,183.7031 Q200.7813,183.4375 200.9297,183.3594 Q201.0781,183.2813 201.2813,183.2813 Q201.6094,183.2813 201.8672,183.5391 Q202.125,183.7969 202.125,184.1406 Q202.125,184.4844 201.7813,184.8906 Q201.2813,185.4688 200.4844,185.7969 Q199.4063,186.25 198.1094,186.25 Q196.5938,186.25 195.3906,185.625 Q194.4063,185.125 193.7188,184.0547 Q193.0313,182.9844 193.0313,181.7031 L193.0313,180.5469 Q193.0313,179.2188 193.6484,178.0703 Q194.2656,176.9219 195.3594,176.3047 Q196.4531,175.6875 197.6875,175.6875 Q198.4219,175.6875 199.0703,175.8516 Q199.7188,176.0156 200.2656,176.375 Z " fill="#000000"/><text fill="#000000" font-family="sans-serif" font-size="12" lengthAdjust="spacing" textLength="129" x="211.5" y="185.4102">DltPcapLegacyDecoder</text><line style="stroke:#A80036;stroke-width:1.5;" x1="183.5" x2="342.5" y1="196.5" y2="196.5"/><line style="stroke:#A80036;stroke-width:1.5;" x1="183.5" x2="342.5" y1="204.5" y2="204.5"/><!--MD5=[00add8ed846e2c7ba81e668223418f3a]
class DltPcapNgDecoder--><rect codeLine="4" fill="#FEFECE" filter="url(#fd7k2xsklwrdl)" height="48" id="DltPcapNgDecoder" style="stroke:#A80036;stroke-width:1.5;" width="138" x="412" y="164.5"/><ellipse cx="427" cy="180.5" fill="#ADD1B2" rx="11" ry="11" style="stroke:#A80036;stroke-width:1.0;"/><path d="M429.7656,176.375 Q429.9219,176.1563 430.1094,176.0469 Q430.2969,175.9375 430.5156,175.9375 Q430.8906,175.9375 431.125,176.1953 Q431.3594,176.4531 431.3594,177.0625 L431.3594,178.5156 Q431.3594,179.125 431.125,179.3906 Q430.8906,179.6563 430.5156,179.6563 Q430.1719,179.6563 429.9688,179.4531 Q429.7656,179.2656 429.6563,178.75 Q429.6094,178.3906 429.4219,178.2031 Q429.0938,177.8281 428.4844,177.6094 Q427.875,177.3906 427.25,177.3906 Q426.4844,177.3906 425.8516,177.7188 Q425.2188,178.0469 424.7266,178.7969 Q424.2344,179.5469 424.2344,180.5781 L424.2344,181.6719 Q424.2344,182.9063 425.125,183.7266 Q426.0156,184.5469 427.6094,184.5469 Q428.5469,184.5469 429.2031,184.2969 Q429.5938,184.1406 430.0156,183.7031 Q430.2813,183.4375 430.4297,183.3594 Q430.5781,183.2813 430.7813,183.2813 Q431.1094,183.2813 431.3672,183.5391 Q431.625,183.7969 431.625,184.1406 Q431.625,184.4844 431.2813,184.8906 Q430.7813,185.4688 429.9844,185.7969 Q428.9063,186.25 427.6094,186.25 Q426.0938,186.25 424.8906,185.625 Q423.9063,185.125 423.2188,184.0547 Q422.5313,182.9844 422.5313,181.7031 L422.5313,180.5469 Q422.5313,179.2188 423.1484,178.0703 Q423.7656,176.9219 424.8594,176.3047 Q425.9531,175.6875 427.1875,175.6875 Q427.9219,175.6875 428.5703,175.8516 Q429.2188,176.0156 429.7656,176.375 Z " fill="#000000"/><text fill="#000000" font-family="sans-serif" font-size="12" lengthAdjust="spacing" textLength="106" x="441" y="185.4102">DltPcapNgDecoder</text><line style="stroke:#A80036;stroke-width:1.5;" x1="413" x2="549" y1="196.5" y2="196.5"/><line style="stroke:#A80036;stroke-width:1.5;" x1="413" x2="549" y1="204.5" y2="204.5"/><!--MD5=[36c16281d18be32c55eb7b4802d8bdda]
class TimeResolution--><rect codeLine="10" fill="#FEFECE" filter="url(#fd7k2xsklwrdl)" height="75.6719" id="TimeResolution" style="stroke:#A80036;stroke-width:1.5;" width="120" x="17" y="322"/><ellipse cx="32" cy="338" fill="#EB937F" rx="11" ry="11" style="stroke:#A80036;stroke-width:1.0;"/><path d="M30.8594,338.7969 L30.8594,341.2969 L35.1875,341.2969 L35.1875,340.375 Q35.1875,339.7656 35.4297,339.5 Q35.6719,339.2344 36.0469,339.2344 Q36.4219,339.2344 36.6563,339.5 Q36.8906,339.7656 36.8906,340.375 L36.8906,343 L28.8906,343 Q28.2656,343 28.0078,342.7656 Q27.75,342.5313 27.75,342.1406 Q27.75,341.7656 28.0156,341.5313 Q28.2813,341.2969 28.8906,341.2969 L29.1563,341.2969 L29.1563,334.6406 L28.8906,334.6406 Q28.2656,334.6406 28.0078,334.4063 Q27.75,334.1719 27.75,333.7813 Q27.75,333.4063 28.0078,333.1719 Q28.2656,332.9375 28.8906,332.9375 L36.5156,332.9375 L36.5156,335.5313 Q36.5156,336.1406 36.2891,336.3984 Q36.0625,336.6563 35.6719,336.6563 Q35.2969,336.6563 35.0625,336.3984 Q34.8281,336.1406 34.8281,335.5313 L34.8281,334.6406 L30.8594,334.6406 L30.8594,337.0938 L32.3438,337.0938 Q32.3438,336.4375 32.4688,336.25 Q32.7344,335.8438 33.2031,335.8438 Q33.5781,335.8438 33.8125,336.1016 Q34.0469,336.3594 34.0469,336.9688 L34.0469,338.9375 Q34.0469,339.4844 33.9219,339.6719 Q33.6563,340.0625 33.2031,340.0625 Q32.7344,340.0625 32.4688,339.6563 Q32.3438,339.4688 32.3438,338.7969 L30.8594,338.7969 Z " fill="#000000"/><text fill="#000000" font-family="sans-serif" font-size="12" lengthAdjust="spacing" textLength="88" x="46" y="342.9102">TimeResolution</text><line style="stroke:#A80036;stroke-width:1.5;" x1="18" x2="136" y1="354" y2="354"/><text fill="#000000" font-family="sans-serif" font-size="11" lengthAdjust="spacing" textLength="68" x="23" y="369.4189">Microseconds</text><text fill="#000000" font-family="sans-serif" font-size="11" lengthAdjust="spacing" textLength="67" x="23" y="383.2549">Nanoseconds</text><line style="stroke:#A80036;stroke-width:1.5;" x1="18" x2="136" y1="389.6719" y2="389.6719"/><!--MD5=[0ef794116927e12860bf84edfd9f03ba]
class PcapFormat--><rect codeLine="15" fill="#FEFECE" filter="url(#fd7k2xsklwrdl)" height="144.8516" id="PcapFormat" style="stroke:#A80036;stroke-width:1.5;" width="140" x="7" y="116"/><ellipse cx="40.45" cy="132" fill="#ADD1B2" rx="11" ry="11" style="stroke:#A80036;stroke-width:1.0;"/><path d="M43.2156,127.875 Q43.3719,127.6563 43.5594,127.5469 Q43.7469,127.4375 43.9656,127.4375 Q44.3406,127.4375 44.575,127.6953 Q44.8094,127.9531 44.8094,128.5625 L44.8094,130.0156 Q44.8094,130.625 44.575,130.8906 Q44.3406,131.1563 43.9656,131.1563 Q43.6219,131.1563 43.4188,130.9531 Q43.2156,130.7656 43.1063,130.25 Q43.0594,129.8906 42.8719,129.7031 Q42.5438,129.3281 41.9344,129.1094 Q41.325,128.8906 40.7,128.8906 Q39.9344,128.8906 39.3016,129.2188 Q38.6688,129.5469 38.1766,130.2969 Q37.6844,131.0469 37.6844,132.0781 L37.6844,133.1719 Q37.6844,134.4063 38.575,135.2266 Q39.4656,136.0469 41.0594,136.0469 Q41.9969,136.0469 42.6531,135.7969 Q43.0438,135.6406 43.4656,135.2031 Q43.7313,134.9375 43.8797,134.8594 Q44.0281,134.7813 44.2313,134.7813 Q44.5594,134.7813 44.8172,135.0391 Q45.075,135.2969 45.075,135.6406 Q45.075,135.9844 44.7313,136.3906 Q44.2313,136.9688 43.4344,137.2969 Q42.3563,137.75 41.0594,137.75 Q39.5438,137.75 38.3406,137.125 Q37.3563,136.625 36.6688,135.5547 Q35.9813,134.4844 35.9813,133.2031 L35.9813,132.0469 Q35.9813,130.7188 36.5984,129.5703 Q37.2156,128.4219 38.3094,127.8047 Q39.4031,127.1875 40.6375,127.1875 Q41.3719,127.1875 42.0203,127.3516 Q42.6688,127.5156 43.2156,127.875 Z " fill="#000000"/><text fill="#000000" font-family="sans-serif" font-size="12" lengthAdjust="spacing" textLength="67" x="58.55" y="136.9102">PcapFormat</text><line style="stroke:#A80036;stroke-width:1.5;" x1="8" x2="146" y1="148" y2="148"/><text fill="#000000" font-family="sans-serif" font-size="11" lengthAdjust="spacing" textLength="88" x="13" y="163.4189">IsLittleEndian: bool</text><text fill="#000000" font-family="sans-serif" font-size="11" lengthAdjust="spacing" textLength="81" x="13" y="177.2549">MajorVersion: int</text><text fill="#000000" font-family="sans-serif" font-size="11" lengthAdjust="spacing" textLength="81" x="13" y="191.0908">MinorVersion: int</text><text fill="#000000" font-family="sans-serif" font-size="11" lengthAdjust="spacing" textLength="60" x="13" y="204.9268">SnapLen: int</text><text fill="#000000" font-family="sans-serif" font-size="11" lengthAdjust="spacing" textLength="53" x="13" y="218.7627">FcsLen: int</text><text fill="#000000" font-family="sans-serif" font-size="11" lengthAdjust="spacing" textLength="60" x="13" y="232.5986">LinkType: int</text><text fill="#000000" font-family="sans-serif" font-size="11" lengthAdjust="spacing" textLength="128" x="13" y="246.4346">Resolution: TimeResolution</text><line style="stroke:#A80036;stroke-width:1.5;" x1="8" x2="146" y1="252.8516" y2="252.8516"/><!--MD5=[7b682d4fb164593493a4c0dbc33aac53]
class PacketDecoder--><rect fill="#FEFECE" filter="url(#fd7k2xsklwrdl)" height="48" id="PacketDecoder" style="stroke:#A80036;stroke-width:1.5;" width="116" x="314" y="336"/><ellipse cx="329" cy="352" fill="#ADD1B2" rx="11" ry="11" style="stroke:#A80036;stroke-width:1.0;"/><path d="M331.7656,347.875 Q331.9219,347.6563 332.1094,347.5469 Q332.2969,347.4375 332.5156,347.4375 Q332.8906,347.4375 333.125,347.6953 Q333.3594,347.9531 333.3594,348.5625 L333.3594,350.0156 Q333.3594,350.625 333.125,350.8906 Q332.8906,351.1563 332.5156,351.1563 Q332.1719,351.1563 331.9688,350.9531 Q331.7656,350.7656 331.6563,350.25 Q331.6094,349.8906 331.4219,349.7031 Q331.0938,349.3281 330.4844,349.1094 Q329.875,348.8906 329.25,348.8906 Q328.4844,348.8906 327.8516,349.2188 Q327.2188,349.5469 326.7266,350.2969 Q326.2344,351.0469 326.2344,352.0781 L326.2344,353.1719 Q326.2344,354.4063 327.125,355.2266 Q328.0156,356.0469 329.6094,356.0469 Q330.5469,356.0469 331.2031,355.7969 Q331.5938,355.6406 332.0156,355.2031 Q332.2813,354.9375 332.4297,354.8594 Q332.5781,354.7813 332.7813,354.7813 Q333.1094,354.7813 333.3672,355.0391 Q333.625,355.2969 333.625,355.6406 Q333.625,355.9844 333.2813,356.3906 Q332.7813,356.9688 331.9844,357.2969 Q330.9063,357.75 329.6094,357.75 Q328.0938,357.75 326.8906,357.125 Q325.9063,356.625 325.2188,355.5547 Q324.5313,354.4844 324.5313,353.2031 L324.5313,352.0469 Q324.5313,350.7188 325.1484,349.5703 Q325.7656,348.4219 326.8594,347.8047 Q327.9531,347.1875 329.1875,347.1875 Q329.9219,347.1875 330.5703,347.3516 Q331.2188,347.5156 331.7656,347.875 Z " fill="#000000"/><text fill="#000000" font-family="sans-serif" font-size="12" lengthAdjust="spacing" textLength="84" x="343" y="356.9102">PacketDecoder</text><line style="stroke:#A80036;stroke-width:1.5;" x1="315" x2="429" y1="368" y2="368"/><line style="stroke:#A80036;stroke-width:1.5;" x1="315" x2="429" y1="376" y2="376"/><!--MD5=[de0c9125b175363ba854e97573600601]
reverse link DltPcapTraceDecoder to DltPcapLegacyDecoder--><path codeLine="6" d="M347.38,66.01 C326.69,95.8 297.18,138.29 279.1,164.32 " fill="none" id="DltPcapTraceDecoder-backto-DltPcapLegacyDecoder" style="stroke:#A80036;stroke-width:1.0;"/><polygon fill="#A80036" points="354.83,55.28,348.1215,57.9251,347.983,65.1349,354.6915,62.4898,354.83,55.28" style="stroke:#A80036;stroke-width:1.0;"/><!--MD5=[fb1de3d8f4589d245fc12ef9bfffe795]
reverse link DltPcapTraceDecoder to DltPcapNgDecoder--><path codeLine="7" d="M395.06,66.01 C416.13,95.8 446.19,138.29 464.6,164.32 " fill="none" id="DltPcapTraceDecoder-backto-DltPcapNgDecoder" style="stroke:#A80036;stroke-width:1.0;"/><polygon fill="#A80036" points="387.47,55.28,387.6657,62.4884,394.3949,65.0803,394.1992,57.8719,387.47,55.28" style="stroke:#A80036;stroke-width:1.0;"/><!--MD5=[ad3bfdac85b247efbb804d8a29648f03]
link DltPcapLegacyDecoder to DltPcapNgDecoder--><path codeLine="8" d="M343.56,188.5 C365.99,188.5 390.16,188.5 411.88,188.5 " fill="none" id="DltPcapLegacyDecoder-DltPcapNgDecoder" style="stroke:#A80036;stroke-width:1.0;"/><text fill="#000000" font-family="sans-serif" font-size="13" lengthAdjust="spacing" textLength="32" x="361.75" y="181.9951">«xor»</text><!--MD5=[4fe6092cd43fdbeaf588d9a393637cd0]
reverse link PcapFormat to TimeResolution--><path codeLine="24" d="M77,274.61 C77,291.15 77,307.68 77,321.67 " fill="none" id="PcapFormat-backto-TimeResolution" style="stroke:#A80036;stroke-width:1.0;"/><polygon fill="#A80036" points="77,261.38,73,267.38,77,273.38,81,267.38,77,261.38" style="stroke:#A80036;stroke-width:1.0;"/><!--MD5=[9451c6394318cfa66a2fc0379c0a1c14]
link PcapFormat to DltPcapLegacyDecoder--><path codeLine="26" d="M147.11,188.5 C154.47,188.5 161.83,188.5 169.18,188.5 " fill="none" id="PcapFormat-to-DltPcapLegacyDecoder" style="stroke:#A80036;stroke-width:1.0;"/><polygon fill="#A80036" points="182.42,188.5,176.42,184.5,170.42,188.5,176.42,192.5,182.42,188.5" style="stroke:#A80036;stroke-width:1.0;"/><!--MD5=[da6cf38e0656f789619f1def49403469]
reverse link DltPcapLegacyDecoder to PacketDecoder--><path codeLine="27" d="M285.03,223.76 C306.47,257.1 338.46,306.85 357.08,335.8 " fill="none" id="DltPcapLegacyDecoder-backto-PacketDecoder" style="stroke:#A80036;stroke-width:1.0;"/><polygon fill="#A80036" points="277.93,212.71,277.807,219.9201,284.4151,222.8067,284.5381,215.5967,277.93,212.71" style="stroke:#A80036;stroke-width:1.0;"/><!--MD5=[16155ceebbb64cf6c59d9a5d7d3956bf]
reverse link DltPcapNgDecoder to PacketDecoder--><path codeLine="29" d="M458.97,223.76 C437.53,257.1 405.54,306.85 386.92,335.8 " fill="none" id="DltPcapNgDecoder-backto-PacketDecoder" style="stroke:#A80036;stroke-width:1.0;"/><polygon fill="#A80036" points="466.07,212.71,459.4619,215.5967,459.5849,222.8067,466.193,219.9201,466.07,212.71" style="stroke:#A80036;stroke-width:1.0;"/><!--MD5=[a9b5adb19be28b8fbaf1366a3b2fecf6]
@startuml DltPcapTraceDecoder

class DltPcapTraceDecoder
class DltPcapLegacyDecoder
class DltPcapNgDecoder

DltPcapTraceDecoder *-d- DltPcapLegacyDecoder
DltPcapTraceDecoder *-d- DltPcapNgDecoder
DltPcapLegacyDecoder -r- DltPcapNgDecoder : <<xor>>

enum TimeResolution {
    Microseconds
    Nanoseconds
}

class PcapFormat {
    IsLittleEndian: bool
    MajorVersion: int
    MinorVersion: int
    SnapLen: int
    FcsLen: int
    LinkType: int
    Resolution: TimeResolution
}
PcapFormat *-d- TimeResolution

DltPcapLegacyDecoder *-l- PcapFormat
DltPcapLegacyDecoder *-d- PacketDecoder

DltPcapNgDecoder *-d- PacketDecoder

@enduml

PlantUML version 1.2022.0(Tue Jan 11 17:16:42 CET 2022)
(GPL source distribution)
Java Runtime: Java(TM) SE Runtime Environment
JVM: Java HotSpot(TM) 64-Bit Server VM
Default Encoding: Cp1252
Language: en
Country: US
--></g></svg>