<?xml version="1.0" encoding="us-ascii" standalone="no"?><svg xmlns="http://www.w3.org/2000/svg" xmlns:xlink="http://www.w3.org/1999/xlink" contentStyleType="text/css" height="456px" preserveAspectRatio="none" style="width:2091px;height:456px;background:#FFFFFF;" version="1.1" viewBox="0 0 2091 456" width="2091px" zoomAndPan="magnify"><defs/><g><!--cluster View--><g id="cluster_View"><path d="M8.5,6 L48.5,6 A3.75,3.75 0 0 1 51,8.5 L58,28.2969 L320.5,28.2969 A2.5,2.5 0 0 1 323,30.7969 L323,446.5 A2.5,2.5 0 0 1 320.5,449 L8.5,449 A2.5,2.5 0 0 1 6,446.5 L6,8.5 A2.5,2.5 0 0 1 8.5,6 " fill="none" style="stroke:#000000;stroke-width:1.5;"/><line style="stroke:#000000;stroke-width:1.5;" x1="6" x2="58" y1="28.2969" y2="28.2969"/><text fill="#000000" font-family="sans-serif" font-size="14" font-weight="bold" lengthAdjust="spacing" textLength="39" x="10" y="20.9951">View</text></g><!--cluster Application--><g id="cluster_Application"><path d="M32.5,326 L120.5,326 A3.75,3.75 0 0 1 123,328.5 L130,348.2969 L296.5,348.2969 A2.5,2.5 0 0 1 299,350.7969 L299,422.5 A2.5,2.5 0 0 1 296.5,425 L32.5,425 A2.5,2.5 0 0 1 30,422.5 L30,328.5 A2.5,2.5 0 0 1 32.5,326 " fill="none" style="stroke:#000000;stroke-width:1.5;"/><line style="stroke:#000000;stroke-width:1.5;" x1="30" x2="130" y1="348.2969" y2="348.2969"/><text fill="#000000" font-family="sans-serif" font-size="14" font-weight="bold" lengthAdjust="spacing" textLength="87" x="34" y="340.9951">Application</text></g><!--cluster Application--><g id="cluster_Application"><path d="M349.5,6 L437.5,6 A3.75,3.75 0 0 1 440,8.5 L447,28.2969 L1178.5,28.2969 A2.5,2.5 0 0 1 1181,30.7969 L1181,274.5 A2.5,2.5 0 0 1 1178.5,277 L349.5,277 A2.5,2.5 0 0 1 347,274.5 L347,8.5 A2.5,2.5 0 0 1 349.5,6 " fill="none" style="stroke:#000000;stroke-width:1.5;"/><line style="stroke:#000000;stroke-width:1.5;" x1="347" x2="447" y1="28.2969" y2="28.2969"/><text fill="#000000" font-family="sans-serif" font-size="14" font-weight="bold" lengthAdjust="spacing" textLength="87" x="351" y="20.9951">Application</text></g><!--cluster Domain--><g id="cluster_Domain"><path d="M373.5,154 L432.5,154 A3.75,3.75 0 0 1 435,156.5 L442,176.2969 L1154.5,176.2969 A2.5,2.5 0 0 1 1157,178.7969 L1157,250.5 A2.5,2.5 0 0 1 1154.5,253 L373.5,253 A2.5,2.5 0 0 1 371,250.5 L371,156.5 A2.5,2.5 0 0 1 373.5,154 " fill="none" style="stroke:#000000;stroke-width:1.5;"/><line style="stroke:#000000;stroke-width:1.5;" x1="371" x2="442" y1="176.2969" y2="176.2969"/><text fill="#000000" font-family="sans-serif" font-size="14" font-weight="bold" lengthAdjust="spacing" textLength="58" x="375" y="168.9951">Domain</text></g><!--cluster Domain--><g id="cluster_Domain"><path d="M1207.5,6 L1266.5,6 A3.75,3.75 0 0 1 1269,8.5 L1276,28.2969 L2081.5,28.2969 A2.5,2.5 0 0 1 2084,30.7969 L2084,102.5 A2.5,2.5 0 0 1 2081.5,105 L1207.5,105 A2.5,2.5 0 0 1 1205,102.5 L1205,8.5 A2.5,2.5 0 0 1 1207.5,6 " fill="none" style="stroke:#000000;stroke-width:1.5;"/><line style="stroke:#000000;stroke-width:1.5;" x1="1205" x2="1276" y1="28.2969" y2="28.2969"/><text fill="#000000" font-family="sans-serif" font-size="14" font-weight="bold" lengthAdjust="spacing" textLength="58" x="1209" y="20.9951">Domain</text></g><!--class CommandFactory--><g id="elem_CommandFactory"><rect codeLine="3" fill="#F1F1F1" height="48" id="CommandFactory" rx="2.5" ry="2.5" style="stroke:#181818;stroke-width:0.5;" width="153" x="22.5" y="41"/><ellipse cx="37.5" cy="57" fill="#ADD1B2" rx="11" ry="11" style="stroke:#181818;stroke-width:1.0;"/><path d="M40.4688,62.6406 Q39.8906,62.9375 39.25,63.0781 Q38.6094,63.2344 37.9063,63.2344 Q35.4063,63.2344 34.0781,61.5938 Q32.7656,59.9375 32.7656,56.8125 Q32.7656,53.6875 34.0781,52.0313 Q35.4063,50.375 37.9063,50.375 Q38.6094,50.375 39.25,50.5313 Q39.9063,50.6875 40.4688,50.9844 L40.4688,53.7031 Q39.8438,53.125 39.25,52.8594 Q38.6563,52.5781 38.0313,52.5781 Q36.6875,52.5781 36,53.6563 Q35.3125,54.7188 35.3125,56.8125 Q35.3125,58.9063 36,59.9844 Q36.6875,61.0469 38.0313,61.0469 Q38.6563,61.0469 39.25,60.7813 Q39.8438,60.5 40.4688,59.9219 L40.4688,62.6406 Z " fill="#000000"/><text fill="#000000" font-family="sans-serif" font-size="14" lengthAdjust="spacing" textLength="121" x="51.5" y="61.8467">CommandFactory</text><line style="stroke:#181818;stroke-width:0.5;" x1="23.5" x2="174.5" y1="73" y2="73"/><line style="stroke:#181818;stroke-width:0.5;" x1="23.5" x2="174.5" y1="81" y2="81"/></g><!--class ICommand--><g id="elem_ICommand"><rect codeLine="5" fill="#F1F1F1" height="48" id="ICommand" rx="2.5" ry="2.5" style="stroke:#181818;stroke-width:0.5;" width="106" x="201" y="189"/><ellipse cx="216" cy="205" fill="#B4A7E5" rx="11" ry="11" style="stroke:#181818;stroke-width:1.0;"/><path d="M211.9219,200.7656 L211.9219,198.6094 L219.3125,198.6094 L219.3125,200.7656 L216.8438,200.7656 L216.8438,208.8438 L219.3125,208.8438 L219.3125,211 L211.9219,211 L211.9219,208.8438 L214.3906,208.8438 L214.3906,200.7656 L211.9219,200.7656 Z " fill="#000000"/><text fill="#000000" font-family="sans-serif" font-size="14" font-style="italic" lengthAdjust="spacing" textLength="74" x="230" y="209.8467">ICommand</text><line style="stroke:#181818;stroke-width:0.5;" x1="202" x2="306" y1="221" y2="221"/><line style="stroke:#181818;stroke-width:0.5;" x1="202" x2="306" y1="229" y2="229"/></g><!--class FilterCommand--><g id="elem_FilterCommand"><rect codeLine="6" fill="#F1F1F1" height="48" id="FilterCommand" rx="2.5" ry="2.5" style="stroke:#181818;stroke-width:0.5;" width="136" x="30" y="189"/><ellipse cx="45" cy="205" fill="#ADD1B2" rx="11" ry="11" style="stroke:#181818;stroke-width:1.0;"/><path d="M47.9688,210.6406 Q47.3906,210.9375 46.75,211.0781 Q46.1094,211.2344 45.4063,211.2344 Q42.9063,211.2344 41.5781,209.5938 Q40.2656,207.9375 40.2656,204.8125 Q40.2656,201.6875 41.5781,200.0313 Q42.9063,198.375 45.4063,198.375 Q46.1094,198.375 46.75,198.5313 Q47.4063,198.6875 47.9688,198.9844 L47.9688,201.7031 Q47.3438,201.125 46.75,200.8594 Q46.1563,200.5781 45.5313,200.5781 Q44.1875,200.5781 43.5,201.6563 Q42.8125,202.7188 42.8125,204.8125 Q42.8125,206.9063 43.5,207.9844 Q44.1875,209.0469 45.5313,209.0469 Q46.1563,209.0469 46.75,208.7813 Q47.3438,208.5 47.9688,207.9219 L47.9688,210.6406 Z " fill="#000000"/><text fill="#000000" font-family="sans-serif" font-size="14" lengthAdjust="spacing" textLength="104" x="59" y="209.8467">FilterCommand</text><line style="stroke:#181818;stroke-width:0.5;" x1="31" x2="165" y1="221" y2="221"/><line style="stroke:#181818;stroke-width:0.5;" x1="31" x2="165" y1="229" y2="229"/></g><!--class FilterApp--><g id="elem_FilterApp"><rect fill="#F1F1F1" height="48" id="FilterApp" rx="2.5" ry="2.5" style="stroke:#181818;stroke-width:0.5;" width="92" x="46" y="361"/><ellipse cx="61" cy="377" fill="#ADD1B2" rx="11" ry="11" style="stroke:#181818;stroke-width:1.0;"/><path d="M63.9688,382.6406 Q63.3906,382.9375 62.75,383.0781 Q62.1094,383.2344 61.4063,383.2344 Q58.9063,383.2344 57.5781,381.5938 Q56.2656,379.9375 56.2656,376.8125 Q56.2656,373.6875 57.5781,372.0313 Q58.9063,370.375 61.4063,370.375 Q62.1094,370.375 62.75,370.5313 Q63.4063,370.6875 63.9688,370.9844 L63.9688,373.7031 Q63.3438,373.125 62.75,372.8594 Q62.1563,372.5781 61.5313,372.5781 Q60.1875,372.5781 59.5,373.6563 Q58.8125,374.7188 58.8125,376.8125 Q58.8125,378.9063 59.5,379.9844 Q60.1875,381.0469 61.5313,381.0469 Q62.1563,381.0469 62.75,380.7813 Q63.3438,380.5 63.9688,379.9219 L63.9688,382.6406 Z " fill="#000000"/><text fill="#000000" font-family="sans-serif" font-size="14" lengthAdjust="spacing" textLength="60" x="75" y="381.8467">FilterApp</text><line style="stroke:#181818;stroke-width:0.5;" x1="47" x2="137" y1="393" y2="393"/><line style="stroke:#181818;stroke-width:0.5;" x1="47" x2="137" y1="401" y2="401"/></g><!--class FilterConfig--><g id="elem_FilterConfig"><rect fill="#F1F1F1" height="48" id="FilterConfig" rx="2.5" ry="2.5" style="stroke:#181818;stroke-width:0.5;" width="109" x="173.5" y="361"/><ellipse cx="188.5" cy="377" fill="#ADD1B2" rx="11" ry="11" style="stroke:#181818;stroke-width:1.0;"/><path d="M191.4688,382.6406 Q190.8906,382.9375 190.25,383.0781 Q189.6094,383.2344 188.9063,383.2344 Q186.4063,383.2344 185.0781,381.5938 Q183.7656,379.9375 183.7656,376.8125 Q183.7656,373.6875 185.0781,372.0313 Q186.4063,370.375 188.9063,370.375 Q189.6094,370.375 190.25,370.5313 Q190.9063,370.6875 191.4688,370.9844 L191.4688,373.7031 Q190.8438,373.125 190.25,372.8594 Q189.6563,372.5781 189.0313,372.5781 Q187.6875,372.5781 187,373.6563 Q186.3125,374.7188 186.3125,376.8125 Q186.3125,378.9063 187,379.9844 Q187.6875,381.0469 189.0313,381.0469 Q189.6563,381.0469 190.25,380.7813 Q190.8438,380.5 191.4688,379.9219 L191.4688,382.6406 Z " fill="#000000"/><text fill="#000000" font-family="sans-serif" font-size="14" lengthAdjust="spacing" textLength="77" x="202.5" y="381.8467">FilterConfig</text><line style="stroke:#181818;stroke-width:0.5;" x1="174.5" x2="281.5" y1="393" y2="393"/><line style="stroke:#181818;stroke-width:0.5;" x1="174.5" x2="281.5" y1="401" y2="401"/></g><!--class FilterApp--><g id="elem_FilterApp"><rect codeLine="19" fill="#F1F1F1" height="48" id="FilterApp" rx="2.5" ry="2.5" style="stroke:#181818;stroke-width:0.5;" width="92" x="764" y="41"/><ellipse cx="779" cy="57" fill="#ADD1B2" rx="11" ry="11" style="stroke:#181818;stroke-width:1.0;"/><path d="M781.9688,62.6406 Q781.3906,62.9375 780.75,63.0781 Q780.1094,63.2344 779.4063,63.2344 Q776.9063,63.2344 775.5781,61.5938 Q774.2656,59.9375 774.2656,56.8125 Q774.2656,53.6875 775.5781,52.0313 Q776.9063,50.375 779.4063,50.375 Q780.1094,50.375 780.75,50.5313 Q781.4063,50.6875 781.9688,50.9844 L781.9688,53.7031 Q781.3438,53.125 780.75,52.8594 Q780.1563,52.5781 779.5313,52.5781 Q778.1875,52.5781 777.5,53.6563 Q776.8125,54.7188 776.8125,56.8125 Q776.8125,58.9063 777.5,59.9844 Q778.1875,61.0469 779.5313,61.0469 Q780.1563,61.0469 780.75,60.7813 Q781.3438,60.5 781.9688,59.9219 L781.9688,62.6406 Z " fill="#000000"/><text fill="#000000" font-family="sans-serif" font-size="14" lengthAdjust="spacing" textLength="60" x="793" y="61.8467">FilterApp</text><line style="stroke:#181818;stroke-width:0.5;" x1="765" x2="855" y1="73" y2="73"/><line style="stroke:#181818;stroke-width:0.5;" x1="765" x2="855" y1="81" y2="81"/></g><!--class FilterConfig--><g id="elem_FilterConfig"><rect codeLine="20" fill="#F1F1F1" height="48" id="FilterConfig" rx="2.5" ry="2.5" style="stroke:#181818;stroke-width:0.5;" width="109" x="619.5" y="41"/><ellipse cx="634.5" cy="57" fill="#ADD1B2" rx="11" ry="11" style="stroke:#181818;stroke-width:1.0;"/><path d="M637.4688,62.6406 Q636.8906,62.9375 636.25,63.0781 Q635.6094,63.2344 634.9063,63.2344 Q632.4063,63.2344 631.0781,61.5938 Q629.7656,59.9375 629.7656,56.8125 Q629.7656,53.6875 631.0781,52.0313 Q632.4063,50.375 634.9063,50.375 Q635.6094,50.375 636.25,50.5313 Q636.9063,50.6875 637.4688,50.9844 L637.4688,53.7031 Q636.8438,53.125 636.25,52.8594 Q635.6563,52.5781 635.0313,52.5781 Q633.6875,52.5781 633,53.6563 Q632.3125,54.7188 632.3125,56.8125 Q632.3125,58.9063 633,59.9844 Q633.6875,61.0469 635.0313,61.0469 Q635.6563,61.0469 636.25,60.7813 Q636.8438,60.5 637.4688,59.9219 L637.4688,62.6406 Z " fill="#000000"/><text fill="#000000" font-family="sans-serif" font-size="14" lengthAdjust="spacing" textLength="77" x="648.5" y="61.8467">FilterConfig</text><line style="stroke:#181818;stroke-width:0.5;" x1="620.5" x2="727.5" y1="73" y2="73"/><line style="stroke:#181818;stroke-width:0.5;" x1="620.5" x2="727.5" y1="81" y2="81"/></g><!--class InputStreamFactory--><g id="elem_InputStreamFactory"><rect fill="#F1F1F1" height="48" id="InputStreamFactory" rx="2.5" ry="2.5" style="stroke:#181818;stroke-width:0.5;" width="166" x="387" y="189"/><ellipse cx="402" cy="205" fill="#ADD1B2" rx="11" ry="11" style="stroke:#181818;stroke-width:1.0;"/><path d="M404.9688,210.6406 Q404.3906,210.9375 403.75,211.0781 Q403.1094,211.2344 402.4063,211.2344 Q399.9063,211.2344 398.5781,209.5938 Q397.2656,207.9375 397.2656,204.8125 Q397.2656,201.6875 398.5781,200.0313 Q399.9063,198.375 402.4063,198.375 Q403.1094,198.375 403.75,198.5313 Q404.4063,198.6875 404.9688,198.9844 L404.9688,201.7031 Q404.3438,201.125 403.75,200.8594 Q403.1563,200.5781 402.5313,200.5781 Q401.1875,200.5781 400.5,201.6563 Q399.8125,202.7188 399.8125,204.8125 Q399.8125,206.9063 400.5,207.9844 Q401.1875,209.0469 402.5313,209.0469 Q403.1563,209.0469 403.75,208.7813 Q404.3438,208.5 404.9688,207.9219 L404.9688,210.6406 Z " fill="#000000"/><text fill="#000000" font-family="sans-serif" font-size="14" lengthAdjust="spacing" textLength="134" x="416" y="209.8467">InputStreamFactory</text><line style="stroke:#181818;stroke-width:0.5;" x1="388" x2="552" y1="221" y2="221"/><line style="stroke:#181818;stroke-width:0.5;" x1="388" x2="552" y1="229" y2="229"/></g><!--class DltDumpTraceReaderFactory--><g id="elem_DltDumpTraceReaderFactory"><rect fill="#F1F1F1" height="48" id="DltDumpTraceReaderFactory" rx="2.5" ry="2.5" style="stroke:#181818;stroke-width:0.5;" width="232" x="588" y="189"/><ellipse cx="603" cy="205" fill="#ADD1B2" rx="11" ry="11" style="stroke:#181818;stroke-width:1.0;"/><path d="M605.9688,210.6406 Q605.3906,210.9375 604.75,211.0781 Q604.1094,211.2344 603.4063,211.2344 Q600.9063,211.2344 599.5781,209.5938 Q598.2656,207.9375 598.2656,204.8125 Q598.2656,201.6875 599.5781,200.0313 Q600.9063,198.375 603.4063,198.375 Q604.1094,198.375 604.75,198.5313 Q605.4063,198.6875 605.9688,198.9844 L605.9688,201.7031 Q605.3438,201.125 604.75,200.8594 Q604.1563,200.5781 603.5313,200.5781 Q602.1875,200.5781 601.5,201.6563 Q600.8125,202.7188 600.8125,204.8125 Q600.8125,206.9063 601.5,207.9844 Q602.1875,209.0469 603.5313,209.0469 Q604.1563,209.0469 604.75,208.7813 Q605.3438,208.5 605.9688,207.9219 L605.9688,210.6406 Z " fill="#000000"/><text fill="#000000" font-family="sans-serif" font-size="14" lengthAdjust="spacing" textLength="200" x="617" y="209.8467">DltDumpTraceReaderFactory</text><line style="stroke:#181818;stroke-width:0.5;" x1="589" x2="819" y1="221" y2="221"/><line style="stroke:#181818;stroke-width:0.5;" x1="589" x2="819" y1="229" y2="229"/></g><!--class IInputStream--><g id="elem_IInputStream"><rect fill="#F1F1F1" height="48" id="IInputStream" rx="2.5" ry="2.5" style="stroke:#181818;stroke-width:0.5;" width="119" x="855.5" y="189"/><ellipse cx="870.5" cy="205" fill="#ADD1B2" rx="11" ry="11" style="stroke:#181818;stroke-width:1.0;"/><path d="M873.4688,210.6406 Q872.8906,210.9375 872.25,211.0781 Q871.6094,211.2344 870.9063,211.2344 Q868.4063,211.2344 867.0781,209.5938 Q865.7656,207.9375 865.7656,204.8125 Q865.7656,201.6875 867.0781,200.0313 Q868.4063,198.375 870.9063,198.375 Q871.6094,198.375 872.25,198.5313 Q872.9063,198.6875 873.4688,198.9844 L873.4688,201.7031 Q872.8438,201.125 872.25,200.8594 Q871.6563,200.5781 871.0313,200.5781 Q869.6875,200.5781 869,201.6563 Q868.3125,202.7188 868.3125,204.8125 Q868.3125,206.9063 869,207.9844 Q869.6875,209.0469 871.0313,209.0469 Q871.6563,209.0469 872.25,208.7813 Q872.8438,208.5 873.4688,207.9219 L873.4688,210.6406 Z " fill="#000000"/><text fill="#000000" font-family="sans-serif" font-size="14" lengthAdjust="spacing" textLength="87" x="884.5" y="209.8467">IInputStream</text><line style="stroke:#181818;stroke-width:0.5;" x1="856.5" x2="973.5" y1="221" y2="221"/><line style="stroke:#181818;stroke-width:0.5;" x1="856.5" x2="973.5" y1="229" y2="229"/></g><!--class IOutputStream--><g id="elem_IOutputStream"><rect fill="#F1F1F1" height="48" id="IOutputStream" rx="2.5" ry="2.5" style="stroke:#181818;stroke-width:0.5;" width="132" x="1009" y="189"/><ellipse cx="1024" cy="205" fill="#ADD1B2" rx="11" ry="11" style="stroke:#181818;stroke-width:1.0;"/><path d="M1026.9688,210.6406 Q1026.3906,210.9375 1025.75,211.0781 Q1025.1094,211.2344 1024.4063,211.2344 Q1021.9063,211.2344 1020.5781,209.5938 Q1019.2656,207.9375 1019.2656,204.8125 Q1019.2656,201.6875 1020.5781,200.0313 Q1021.9063,198.375 1024.4063,198.375 Q1025.1094,198.375 1025.75,198.5313 Q1026.4063,198.6875 1026.9688,198.9844 L1026.9688,201.7031 Q1026.3438,201.125 1025.75,200.8594 Q1025.1563,200.5781 1024.5313,200.5781 Q1023.1875,200.5781 1022.5,201.6563 Q1021.8125,202.7188 1021.8125,204.8125 Q1021.8125,206.9063 1022.5,207.9844 Q1023.1875,209.0469 1024.5313,209.0469 Q1025.1563,209.0469 1025.75,208.7813 Q1026.3438,208.5 1026.9688,207.9219 L1026.9688,210.6406 Z " fill="#000000"/><text fill="#000000" font-family="sans-serif" font-size="14" lengthAdjust="spacing" textLength="100" x="1038" y="209.8467">IOutputStream</text><line style="stroke:#181818;stroke-width:0.5;" x1="1010" x2="1140" y1="221" y2="221"/><line style="stroke:#181818;stroke-width:0.5;" x1="1010" x2="1140" y1="229" y2="229"/></g><!--class InputStreamFactory--><g id="elem_InputStreamFactory"><rect codeLine="31" fill="#F1F1F1" height="48" id="InputStreamFactory" rx="2.5" ry="2.5" style="stroke:#181818;stroke-width:0.5;" width="166" x="1655" y="41"/><ellipse cx="1670" cy="57" fill="#ADD1B2" rx="11" ry="11" style="stroke:#181818;stroke-width:1.0;"/><path d="M1672.9688,62.6406 Q1672.3906,62.9375 1671.75,63.0781 Q1671.1094,63.2344 1670.4063,63.2344 Q1667.9063,63.2344 1666.5781,61.5938 Q1665.2656,59.9375 1665.2656,56.8125 Q1665.2656,53.6875 1666.5781,52.0313 Q1667.9063,50.375 1670.4063,50.375 Q1671.1094,50.375 1671.75,50.5313 Q1672.4063,50.6875 1672.9688,50.9844 L1672.9688,53.7031 Q1672.3438,53.125 1671.75,52.8594 Q1671.1563,52.5781 1670.5313,52.5781 Q1669.1875,52.5781 1668.5,53.6563 Q1667.8125,54.7188 1667.8125,56.8125 Q1667.8125,58.9063 1668.5,59.9844 Q1669.1875,61.0469 1670.5313,61.0469 Q1671.1563,61.0469 1671.75,60.7813 Q1672.3438,60.5 1672.9688,59.9219 L1672.9688,62.6406 Z " fill="#000000"/><text fill="#000000" font-family="sans-serif" font-size="14" lengthAdjust="spacing" textLength="134" x="1684" y="61.8467">InputStreamFactory</text><line style="stroke:#181818;stroke-width:0.5;" x1="1656" x2="1820" y1="73" y2="73"/><line style="stroke:#181818;stroke-width:0.5;" x1="1656" x2="1820" y1="81" y2="81"/></g><!--class IInputStream--><g id="elem_IInputStream"><rect codeLine="32" fill="#F1F1F1" height="48" id="IInputStream" rx="2.5" ry="2.5" style="stroke:#181818;stroke-width:0.5;" width="119" x="1948.5" y="41"/><ellipse cx="1963.5" cy="57" fill="#B4A7E5" rx="11" ry="11" style="stroke:#181818;stroke-width:1.0;"/><path d="M1959.4219,52.7656 L1959.4219,50.6094 L1966.8125,50.6094 L1966.8125,52.7656 L1964.3438,52.7656 L1964.3438,60.8438 L1966.8125,60.8438 L1966.8125,63 L1959.4219,63 L1959.4219,60.8438 L1961.8906,60.8438 L1961.8906,52.7656 L1959.4219,52.7656 Z " fill="#000000"/><text fill="#000000" font-family="sans-serif" font-size="14" font-style="italic" lengthAdjust="spacing" textLength="87" x="1977.5" y="61.8467">IInputStream</text><line style="stroke:#181818;stroke-width:0.5;" x1="1949.5" x2="2066.5" y1="73" y2="73"/><line style="stroke:#181818;stroke-width:0.5;" x1="1949.5" x2="2066.5" y1="81" y2="81"/></g><!--class DltDumpTraceReaderFactory--><g id="elem_DltDumpTraceReaderFactory"><rect codeLine="33" fill="#F1F1F1" height="48" id="DltDumpTraceReaderFactory" rx="2.5" ry="2.5" style="stroke:#181818;stroke-width:0.5;" width="232" x="1388" y="41"/><ellipse cx="1403" cy="57" fill="#ADD1B2" rx="11" ry="11" style="stroke:#181818;stroke-width:1.0;"/><path d="M1405.9688,62.6406 Q1405.3906,62.9375 1404.75,63.0781 Q1404.1094,63.2344 1403.4063,63.2344 Q1400.9063,63.2344 1399.5781,61.5938 Q1398.2656,59.9375 1398.2656,56.8125 Q1398.2656,53.6875 1399.5781,52.0313 Q1400.9063,50.375 1403.4063,50.375 Q1404.1094,50.375 1404.75,50.5313 Q1405.4063,50.6875 1405.9688,50.9844 L1405.9688,53.7031 Q1405.3438,53.125 1404.75,52.8594 Q1404.1563,52.5781 1403.5313,52.5781 Q1402.1875,52.5781 1401.5,53.6563 Q1400.8125,54.7188 1400.8125,56.8125 Q1400.8125,58.9063 1401.5,59.9844 Q1402.1875,61.0469 1403.5313,61.0469 Q1404.1563,61.0469 1404.75,60.7813 Q1405.3438,60.5 1405.9688,59.9219 L1405.9688,62.6406 Z " fill="#000000"/><text fill="#000000" font-family="sans-serif" font-size="14" lengthAdjust="spacing" textLength="200" x="1417" y="61.8467">DltDumpTraceReaderFactory</text><line style="stroke:#181818;stroke-width:0.5;" x1="1389" x2="1619" y1="73" y2="73"/><line style="stroke:#181818;stroke-width:0.5;" x1="1389" x2="1619" y1="81" y2="81"/></g><!--class IOutputStream--><g id="elem_IOutputStream"><rect codeLine="34" fill="#F1F1F1" height="48" id="IOutputStream" rx="2.5" ry="2.5" style="stroke:#181818;stroke-width:0.5;" width="132" x="1221" y="41"/><ellipse cx="1236" cy="57" fill="#B4A7E5" rx="11" ry="11" style="stroke:#181818;stroke-width:1.0;"/><path d="M1231.9219,52.7656 L1231.9219,50.6094 L1239.3125,50.6094 L1239.3125,52.7656 L1236.8438,52.7656 L1236.8438,60.8438 L1239.3125,60.8438 L1239.3125,63 L1231.9219,63 L1231.9219,60.8438 L1234.3906,60.8438 L1234.3906,52.7656 L1231.9219,52.7656 Z " fill="#000000"/><text fill="#000000" font-family="sans-serif" font-size="14" font-style="italic" lengthAdjust="spacing" textLength="100" x="1250" y="61.8467">IOutputStream</text><line style="stroke:#181818;stroke-width:0.5;" x1="1222" x2="1352" y1="73" y2="73"/><line style="stroke:#181818;stroke-width:0.5;" x1="1222" x2="1352" y1="81" y2="81"/></g><!--link FilterCommand to ICommand--><g id="link_FilterCommand_ICommand"><path codeLine="8" d="M166.25,213 C170.71,213 175.18,213 179.64,213 " fill="none" id="FilterCommand-to-ICommand" style="stroke:#181818;stroke-width:1.0;stroke-dasharray:7.0,7.0;"/><polygon fill="none" points="179.53,206,199.53,213,179.53,220,179.53,206" style="stroke:#181818;stroke-width:1.0;"/></g><!--link CommandFactory to FilterCommand--><g id="link_CommandFactory_FilterCommand"><path codeLine="10" d="M98.84,89.46 C98.67,114.79 98.39,155.18 98.2,182.61 " fill="none" id="CommandFactory-to-FilterCommand" style="stroke:#181818;stroke-width:1.0;"/><polygon fill="#181818" points="98.16,187.6,102.2114,178.623,98.1886,182.6001,94.2115,178.5773,98.16,187.6" style="stroke:#181818;stroke-width:1.0;"/><text fill="#000000" font-family="sans-serif" font-size="13" lengthAdjust="spacing" textLength="91" x="99" y="134.0669">&#171;instantiates&#187;</text></g><!--link FilterCommand to FilterApp--><g id="link_FilterCommand_FilterApp"><path codeLine="12" d="M97.18,237.28 C96.1,267.84 94.21,321.5 93.03,354.76 " fill="none" id="FilterCommand-to-FilterApp" style="stroke:#181818;stroke-width:1.0;"/><polygon fill="#181818" points="92.82,359.73,97.126,350.8723,92.9913,354.7329,89.1307,350.5982,92.82,359.73" style="stroke:#181818;stroke-width:1.0;"/></g><!--link FilterCommand to FilterConfig--><g id="link_FilterCommand_FilterConfig"><path codeLine="13" d="M115.8,237.28 C139.46,268.22 181.23,322.84 206.59,356 " fill="none" id="FilterCommand-to-FilterConfig" style="stroke:#181818;stroke-width:1.0;"/><polygon fill="#181818" points="210.2,359.73,207.9014,350.1531,207.159,355.761,201.5511,355.0187,210.2,359.73" style="stroke:#181818;stroke-width:1.0;"/><text fill="#000000" font-family="sans-serif" font-size="13" lengthAdjust="spacing" textLength="91" x="171" y="306.0669">&#171;instantiates&#187;</text></g><!--reverse link FilterConfig to FilterApp--><g id="link_FilterConfig_FilterApp"><path codeLine="22" d="M742.85,65 C749.83,65 756.82,65 763.8,65 " fill="none" id="FilterConfig-backto-FilterApp" style="stroke:#181818;stroke-width:1.0;"/><polygon fill="none" points="729.98,65,735.98,69,741.98,65,735.98,61,729.98,65" style="stroke:#181818;stroke-width:1.0;"/></g><!--reverse link FilterApp to InputStreamFactory--><g id="link_FilterApp_InputStreamFactory"><path codeLine="24" d="M772.99,97.43 C764.54,103.36 755.3,108.96 746,113 C673.41,144.54 644.43,116.45 571,146 C544.77,156.56 518.11,174.33 498.78,188.78 " fill="none" id="FilterApp-backto-InputStreamFactory" style="stroke:#181818;stroke-width:1.0;"/><polygon fill="#181818" points="782.94,89.26,775.7388,89.6379,773.3179,96.4304,780.5191,96.0526,782.94,89.26" style="stroke:#181818;stroke-width:1.0;"/></g><!--reverse link FilterApp to DltDumpTraceReaderFactory--><g id="link_FilterApp_DltDumpTraceReaderFactory"><path codeLine="25" d="M785.01,100.42 C765.28,127.6 738.28,164.78 720.99,188.6 " fill="none" id="FilterApp-backto-DltDumpTraceReaderFactory" style="stroke:#181818;stroke-width:1.0;"/><polygon fill="#181818" points="792.97,90.46,786.2066,92.9614,785.9143,100.1665,792.6777,97.6652,792.97,90.46" style="stroke:#181818;stroke-width:1.0;"/></g><!--reverse link FilterApp to IInputStream--><g id="link_FilterApp_IInputStream"><path codeLine="26" d="M835.02,100.79 C854.54,127.93 881.12,164.89 898.17,188.6 " fill="none" id="FilterApp-backto-IInputStream" style="stroke:#181818;stroke-width:1.0;"/><polygon fill="none" points="826.87,90.46,827.1338,97.6663,833.8872,100.1944,833.6234,92.9881,826.87,90.46" style="stroke:#181818;stroke-width:1.0;"/></g><!--reverse link FilterApp to IOutputStream--><g id="link_FilterApp_IOutputStream"><path codeLine="27" d="M869.44,87.62 C905.96,101.98 953.05,122.49 992,146 C1012.49,158.37 1033.57,175.19 1049.36,188.76 " fill="none" id="FilterApp-backto-IOutputStream" style="stroke:#181818;stroke-width:1.0;"/><polygon fill="#181818" points="857.49,82.61,861.6369,88.5094,868.6775,86.9504,864.5306,81.051,857.49,82.61" style="stroke:#181818;stroke-width:1.0;"/></g><!--link InputStreamFactory to IInputStream--><g id="link_InputStreamFactory_IInputStream"><path codeLine="36" d="M1821.21,65 C1860.19,65 1905.95,65 1942.43,65 " fill="none" id="InputStreamFactory-to-IInputStream" style="stroke:#181818;stroke-width:1.0;"/><polygon fill="#181818" points="1947.2,65,1938.2,61,1942.2,65,1938.2,69,1947.2,65" style="stroke:#181818;stroke-width:1.0;"/><text fill="#000000" font-family="sans-serif" font-size="13" lengthAdjust="spacing" textLength="91" x="1839.25" y="58.0669">&#171;instantiates&#187;</text></g><!--SRC=[ZLBBQiCm4BphA_PMA4WVK8oXn9Zc56XAxukj556zaDQ4qERVAzjnAxLEg6xIpkpCZjQYaT5Z9-5LoIDyC4YdqnWZR9mnQFiMEtBXnAQAiYJ3OOHlB-MCq2gTgilxL5XGK7qABLO0fGXmNfTju06gIjb8Q4aXoLZNCx54ZRn7xxNga9Ip5wNqyc_injc3UbkJEpDsDuOZdgJsUPCsfF2EBhoB_IcID2BrY4vBnkntgfbG4MvfiCnlD58EELbpFF2Cbm7I5Uvvpw5n1fKLM-i7sbEGQ9RVkmvkD3M3yIyXsNsMsCkmpd6vGAPmoyTke1_SESzbHXIHN76ThTnlrPbtUu2CNhYPr_EF9AIGwq9fVIM-0000]--></g></svg>