<?xml version="1.0" encoding="UTF-8" standalone="no"?><svg xmlns="http://www.w3.org/2000/svg" xmlns:xlink="http://www.w3.org/1999/xlink" contentScriptType="application/ecmascript" contentStyleType="text/css" height="740px" preserveAspectRatio="none" style="width:687px;height:740px;background:#FFFFFF;" version="1.1" viewBox="0 0 687 740" width="687px" zoomAndPan="magnify"><defs><filter height="300%" id="fqbh06namrbe2" width="300%" x="-1" y="-1"><feGaussianBlur result="blurOut" stdDeviation="2.0"/><feColorMatrix in="blurOut" result="blurOut2" type="matrix" values="0 0 0 0 0 0 0 0 0 0 0 0 0 0 0 0 0 0 .4 0"/><feOffset dx="4.0" dy="4.0" in="blurOut2" result="blurOut3"/><feBlend in="SourceGraphic" in2="blurOut3" mode="normal"/></filter></defs><g><!--MD5=[e320b41f2d43b11d6de1346cab4ea5fc]
cluster View--><polygon fill="#FFFFFF" filter="url(#fqbh06namrbe2)" points="206,6,245,6,252,29.6094,487,29.6094,487,232,206,232,206,6" style="stroke:#000000;stroke-width:1.5;"/><line style="stroke:#000000;stroke-width:1.5;" x1="206" x2="252" y1="29.6094" y2="29.6094"/><text fill="#000000" font-family="sans-serif" font-size="14" font-weight="bold" lengthAdjust="spacing" textLength="33" x="210" y="22.5332">View</text><!--MD5=[d64883541e3d62e3241c4d12decf100d]
cluster Application--><polygon fill="#FFFFFF" filter="url(#fqbh06namrbe2)" points="161,282,245,282,252,305.6094,383,305.6094,383,382,161,382,161,282" style="stroke:#000000;stroke-width:1.5;"/><line style="stroke:#000000;stroke-width:1.5;" x1="161" x2="252" y1="305.6094" y2="305.6094"/><text fill="#000000" font-family="sans-serif" font-size="14" font-weight="bold" lengthAdjust="spacing" textLength="78" x="165" y="298.5332">Application</text><!--MD5=[121a8bf1197281ab89ed693fab589f94]
cluster Domain--><polygon fill="#FFFFFF" filter="url(#fqbh06namrbe2)" points="16,415,74,415,81,438.6094,602,438.6094,602,515,16,515,16,415" style="stroke:#000000;stroke-width:1.5;"/><line style="stroke:#000000;stroke-width:1.5;" x1="16" x2="81" y1="438.6094" y2="438.6094"/><text fill="#000000" font-family="sans-serif" font-size="14" font-weight="bold" lengthAdjust="spacing" textLength="52" x="20" y="431.5332">Domain</text><!--MD5=[a3db38b29c3436960cdd3b658ea5cf84]
cluster Framework--><polygon fill="#FFFFFF" filter="url(#fqbh06namrbe2)" points="261,565,345,565,352,588.6094,670,588.6094,670,733,261,733,261,565" style="stroke:#000000;stroke-width:1.5;"/><line style="stroke:#000000;stroke-width:1.5;" x1="261" x2="352" y1="588.6094" y2="588.6094"/><text fill="#000000" font-family="sans-serif" font-size="14" font-weight="bold" lengthAdjust="spacing" textLength="78" x="265" y="581.5332">Framework</text><!--MD5=[d9ea02e02d5504d0b2c661147963476c]
cluster System.IO--><polygon fill="#FFFFFF" filter="url(#fqbh06namrbe2)" points="285,609,360,609,367,632.6094,389,632.6094,389,709,285,709,285,609" style="stroke:#000000;stroke-width:1.5;"/><line style="stroke:#000000;stroke-width:1.5;" x1="285" x2="367" y1="632.6094" y2="632.6094"/><text fill="#000000" font-family="sans-serif" font-size="14" font-weight="bold" lengthAdjust="spacing" textLength="69" x="289" y="625.5332">System.IO</text><!--MD5=[cdc60274d58b480fe3b1301cbded6bed]
cluster RJCP.Diagnostics.Log.Decoder--><polygon fill="#FFFFFF" filter="url(#fqbh06namrbe2)" points="413,609,636,609,643,632.6094,646,632.6094,646,709,413,709,413,609" style="stroke:#000000;stroke-width:1.5;"/><line style="stroke:#000000;stroke-width:1.5;" x1="413" x2="643" y1="632.6094" y2="632.6094"/><text fill="#000000" font-family="sans-serif" font-size="14" font-weight="bold" lengthAdjust="spacing" textLength="217" x="417" y="625.5332">RJCP.Diagnostics.Log.Decoder</text><!--MD5=[5cbf0e0c9e584acdcd75316a3ed38df0]
class View.CommandFactory--><rect codeLine="3" fill="#FEFECE" filter="url(#fqbh06namrbe2)" height="48" id="View.CommandFactory" style="stroke:#A80036;stroke-width:1.5;" width="130" x="222" y="42"/><ellipse cx="237" cy="58" fill="#ADD1B2" rx="11" ry="11" style="stroke:#A80036;stroke-width:1.0;"/><path d="M239.7656,53.875 Q239.9219,53.6563 240.1094,53.5469 Q240.2969,53.4375 240.5156,53.4375 Q240.8906,53.4375 241.125,53.6953 Q241.3594,53.9531 241.3594,54.5625 L241.3594,56.0156 Q241.3594,56.625 241.125,56.8906 Q240.8906,57.1563 240.5156,57.1563 Q240.1719,57.1563 239.9688,56.9531 Q239.7656,56.7656 239.6563,56.25 Q239.6094,55.8906 239.4219,55.7031 Q239.0938,55.3281 238.4844,55.1094 Q237.875,54.8906 237.25,54.8906 Q236.4844,54.8906 235.8516,55.2188 Q235.2188,55.5469 234.7266,56.2969 Q234.2344,57.0469 234.2344,58.0781 L234.2344,59.1719 Q234.2344,60.4063 235.125,61.2266 Q236.0156,62.0469 237.6094,62.0469 Q238.5469,62.0469 239.2031,61.7969 Q239.5938,61.6406 240.0156,61.2031 Q240.2813,60.9375 240.4297,60.8594 Q240.5781,60.7813 240.7813,60.7813 Q241.1094,60.7813 241.3672,61.0391 Q241.625,61.2969 241.625,61.6406 Q241.625,61.9844 241.2813,62.3906 Q240.7813,62.9688 239.9844,63.2969 Q238.9063,63.75 237.6094,63.75 Q236.0938,63.75 234.8906,63.125 Q233.9063,62.625 233.2188,61.5547 Q232.5313,60.4844 232.5313,59.2031 L232.5313,58.0469 Q232.5313,56.7188 233.1484,55.5703 Q233.7656,54.4219 234.8594,53.8047 Q235.9531,53.1875 237.1875,53.1875 Q237.9219,53.1875 238.5703,53.3516 Q239.2188,53.5156 239.7656,53.875 Z " fill="#000000"/><text fill="#000000" font-family="sans-serif" font-size="12" lengthAdjust="spacing" textLength="98" x="251" y="62.9102">CommandFactory</text><line style="stroke:#A80036;stroke-width:1.5;" x1="223" x2="351" y1="74" y2="74"/><line style="stroke:#A80036;stroke-width:1.5;" x1="223" x2="351" y1="82" y2="82"/><!--MD5=[2092deacab3d021e8fbebc0eebd009ce]
class View.ICommand--><rect codeLine="5" fill="#FEFECE" filter="url(#fqbh06namrbe2)" height="48" id="View.ICommand" style="stroke:#A80036;stroke-width:1.5;" width="95" x="375.5" y="168"/><ellipse cx="390.5" cy="184" fill="#B4A7E5" rx="11" ry="11" style="stroke:#A80036;stroke-width:1.0;"/><path d="M391.4531,180.6406 L391.4531,187.2969 L393.1719,187.2969 Q393.7813,187.2969 394.0469,187.5313 Q394.3125,187.7656 394.3125,188.1563 Q394.3125,188.5313 394.0469,188.7656 Q393.7813,189 393.1719,189 L388.0313,189 Q387.4219,189 387.1563,188.7656 Q386.8906,188.5313 386.8906,188.1406 Q386.8906,187.7656 387.1563,187.5313 Q387.4219,187.2969 388.0313,187.2969 L389.75,187.2969 L389.75,180.6406 L388.0313,180.6406 Q387.4219,180.6406 387.1563,180.4063 Q386.8906,180.1719 386.8906,179.7813 Q386.8906,179.4063 387.1563,179.1719 Q387.4219,178.9375 388.0313,178.9375 L393.1719,178.9375 Q393.7813,178.9375 394.0469,179.1719 Q394.3125,179.4063 394.3125,179.7813 Q394.3125,180.1719 394.0469,180.4063 Q393.7813,180.6406 393.1719,180.6406 L391.4531,180.6406 Z " fill="#000000"/><text fill="#000000" font-family="sans-serif" font-size="12" font-style="italic" lengthAdjust="spacing" textLength="63" x="404.5" y="188.9102">ICommand</text><line style="stroke:#A80036;stroke-width:1.5;" x1="376.5" x2="469.5" y1="200" y2="200"/><line style="stroke:#A80036;stroke-width:1.5;" x1="376.5" x2="469.5" y1="208" y2="208"/><!--MD5=[b5e12acb1e3b04f2e012989d3d66eeca]
class View.FilterCommand--><rect codeLine="6" fill="#FEFECE" filter="url(#fqbh06namrbe2)" height="48" id="View.FilterCommand" style="stroke:#A80036;stroke-width:1.5;" width="118" x="222" y="168"/><ellipse cx="237" cy="184" fill="#ADD1B2" rx="11" ry="11" style="stroke:#A80036;stroke-width:1.0;"/><path d="M239.7656,179.875 Q239.9219,179.6563 240.1094,179.5469 Q240.2969,179.4375 240.5156,179.4375 Q240.8906,179.4375 241.125,179.6953 Q241.3594,179.9531 241.3594,180.5625 L241.3594,182.0156 Q241.3594,182.625 241.125,182.8906 Q240.8906,183.1563 240.5156,183.1563 Q240.1719,183.1563 239.9688,182.9531 Q239.7656,182.7656 239.6563,182.25 Q239.6094,181.8906 239.4219,181.7031 Q239.0938,181.3281 238.4844,181.1094 Q237.875,180.8906 237.25,180.8906 Q236.4844,180.8906 235.8516,181.2188 Q235.2188,181.5469 234.7266,182.2969 Q234.2344,183.0469 234.2344,184.0781 L234.2344,185.1719 Q234.2344,186.4063 235.125,187.2266 Q236.0156,188.0469 237.6094,188.0469 Q238.5469,188.0469 239.2031,187.7969 Q239.5938,187.6406 240.0156,187.2031 Q240.2813,186.9375 240.4297,186.8594 Q240.5781,186.7813 240.7813,186.7813 Q241.1094,186.7813 241.3672,187.0391 Q241.625,187.2969 241.625,187.6406 Q241.625,187.9844 241.2813,188.3906 Q240.7813,188.9688 239.9844,189.2969 Q238.9063,189.75 237.6094,189.75 Q236.0938,189.75 234.8906,189.125 Q233.9063,188.625 233.2188,187.5547 Q232.5313,186.4844 232.5313,185.2031 L232.5313,184.0469 Q232.5313,182.7188 233.1484,181.5703 Q233.7656,180.4219 234.8594,179.8047 Q235.9531,179.1875 237.1875,179.1875 Q237.9219,179.1875 238.5703,179.3516 Q239.2188,179.5156 239.7656,179.875 Z " fill="#000000"/><text fill="#000000" font-family="sans-serif" font-size="12" lengthAdjust="spacing" textLength="86" x="251" y="188.9102">FilterCommand</text><line style="stroke:#A80036;stroke-width:1.5;" x1="223" x2="339" y1="200" y2="200"/><line style="stroke:#A80036;stroke-width:1.5;" x1="223" x2="339" y1="208" y2="208"/><!--MD5=[8f889e6ae6fe1df54f67b253b3946401]
class Application.Filter--><rect codeLine="19" fill="#FEFECE" filter="url(#fqbh06namrbe2)" height="48" id="Application.Filter" style="stroke:#A80036;stroke-width:1.5;" width="59" x="307.5" y="318"/><ellipse cx="322.5" cy="334" fill="#ADD1B2" rx="11" ry="11" style="stroke:#A80036;stroke-width:1.0;"/><path d="M325.2656,329.875 Q325.4219,329.6563 325.6094,329.5469 Q325.7969,329.4375 326.0156,329.4375 Q326.3906,329.4375 326.625,329.6953 Q326.8594,329.9531 326.8594,330.5625 L326.8594,332.0156 Q326.8594,332.625 326.625,332.8906 Q326.3906,333.1563 326.0156,333.1563 Q325.6719,333.1563 325.4688,332.9531 Q325.2656,332.7656 325.1563,332.25 Q325.1094,331.8906 324.9219,331.7031 Q324.5938,331.3281 323.9844,331.1094 Q323.375,330.8906 322.75,330.8906 Q321.9844,330.8906 321.3516,331.2188 Q320.7188,331.5469 320.2266,332.2969 Q319.7344,333.0469 319.7344,334.0781 L319.7344,335.1719 Q319.7344,336.4063 320.625,337.2266 Q321.5156,338.0469 323.1094,338.0469 Q324.0469,338.0469 324.7031,337.7969 Q325.0938,337.6406 325.5156,337.2031 Q325.7813,336.9375 325.9297,336.8594 Q326.0781,336.7813 326.2813,336.7813 Q326.6094,336.7813 326.8672,337.0391 Q327.125,337.2969 327.125,337.6406 Q327.125,337.9844 326.7813,338.3906 Q326.2813,338.9688 325.4844,339.2969 Q324.4063,339.75 323.1094,339.75 Q321.5938,339.75 320.3906,339.125 Q319.4063,338.625 318.7188,337.5547 Q318.0313,336.4844 318.0313,335.2031 L318.0313,334.0469 Q318.0313,332.7188 318.6484,331.5703 Q319.2656,330.4219 320.3594,329.8047 Q321.4531,329.1875 322.6875,329.1875 Q323.4219,329.1875 324.0703,329.3516 Q324.7188,329.5156 325.2656,329.875 Z " fill="#000000"/><text fill="#000000" font-family="sans-serif" font-size="12" lengthAdjust="spacing" textLength="27" x="336.5" y="338.9102">Filter</text><line style="stroke:#A80036;stroke-width:1.5;" x1="308.5" x2="365.5" y1="350" y2="350"/><line style="stroke:#A80036;stroke-width:1.5;" x1="308.5" x2="365.5" y1="358" y2="358"/><!--MD5=[280da483ebb0501053878a915c36130b]
class Application.FilterConfig--><rect codeLine="20" fill="#FEFECE" filter="url(#fqbh06namrbe2)" height="48" id="Application.FilterConfig" style="stroke:#A80036;stroke-width:1.5;" width="95" x="177.5" y="318"/><ellipse cx="192.5" cy="334" fill="#ADD1B2" rx="11" ry="11" style="stroke:#A80036;stroke-width:1.0;"/><path d="M195.2656,329.875 Q195.4219,329.6563 195.6094,329.5469 Q195.7969,329.4375 196.0156,329.4375 Q196.3906,329.4375 196.625,329.6953 Q196.8594,329.9531 196.8594,330.5625 L196.8594,332.0156 Q196.8594,332.625 196.625,332.8906 Q196.3906,333.1563 196.0156,333.1563 Q195.6719,333.1563 195.4688,332.9531 Q195.2656,332.7656 195.1563,332.25 Q195.1094,331.8906 194.9219,331.7031 Q194.5938,331.3281 193.9844,331.1094 Q193.375,330.8906 192.75,330.8906 Q191.9844,330.8906 191.3516,331.2188 Q190.7188,331.5469 190.2266,332.2969 Q189.7344,333.0469 189.7344,334.0781 L189.7344,335.1719 Q189.7344,336.4063 190.625,337.2266 Q191.5156,338.0469 193.1094,338.0469 Q194.0469,338.0469 194.7031,337.7969 Q195.0938,337.6406 195.5156,337.2031 Q195.7813,336.9375 195.9297,336.8594 Q196.0781,336.7813 196.2813,336.7813 Q196.6094,336.7813 196.8672,337.0391 Q197.125,337.2969 197.125,337.6406 Q197.125,337.9844 196.7813,338.3906 Q196.2813,338.9688 195.4844,339.2969 Q194.4063,339.75 193.1094,339.75 Q191.5938,339.75 190.3906,339.125 Q189.4063,338.625 188.7188,337.5547 Q188.0313,336.4844 188.0313,335.2031 L188.0313,334.0469 Q188.0313,332.7188 188.6484,331.5703 Q189.2656,330.4219 190.3594,329.8047 Q191.4531,329.1875 192.6875,329.1875 Q193.4219,329.1875 194.0703,329.3516 Q194.7188,329.5156 195.2656,329.875 Z " fill="#000000"/><text fill="#000000" font-family="sans-serif" font-size="12" lengthAdjust="spacing" textLength="63" x="206.5" y="338.9102">FilterConfig</text><line style="stroke:#A80036;stroke-width:1.5;" x1="178.5" x2="271.5" y1="350" y2="350"/><line style="stroke:#A80036;stroke-width:1.5;" x1="178.5" x2="271.5" y1="358" y2="358"/><!--MD5=[a1b4cfca9be193a170fc56f1bb06f3d9]
class Domain.InputStreamFactory--><rect codeLine="30" fill="#FEFECE" filter="url(#fqbh06namrbe2)" height="48" id="Domain.InputStreamFactory" style="stroke:#A80036;stroke-width:1.5;" width="138" x="32" y="451"/><ellipse cx="47" cy="467" fill="#ADD1B2" rx="11" ry="11" style="stroke:#A80036;stroke-width:1.0;"/><path d="M49.7656,462.875 Q49.9219,462.6563 50.1094,462.5469 Q50.2969,462.4375 50.5156,462.4375 Q50.8906,462.4375 51.125,462.6953 Q51.3594,462.9531 51.3594,463.5625 L51.3594,465.0156 Q51.3594,465.625 51.125,465.8906 Q50.8906,466.1563 50.5156,466.1563 Q50.1719,466.1563 49.9688,465.9531 Q49.7656,465.7656 49.6563,465.25 Q49.6094,464.8906 49.4219,464.7031 Q49.0938,464.3281 48.4844,464.1094 Q47.875,463.8906 47.25,463.8906 Q46.4844,463.8906 45.8516,464.2188 Q45.2188,464.5469 44.7266,465.2969 Q44.2344,466.0469 44.2344,467.0781 L44.2344,468.1719 Q44.2344,469.4063 45.125,470.2266 Q46.0156,471.0469 47.6094,471.0469 Q48.5469,471.0469 49.2031,470.7969 Q49.5938,470.6406 50.0156,470.2031 Q50.2813,469.9375 50.4297,469.8594 Q50.5781,469.7813 50.7813,469.7813 Q51.1094,469.7813 51.3672,470.0391 Q51.625,470.2969 51.625,470.6406 Q51.625,470.9844 51.2813,471.3906 Q50.7813,471.9688 49.9844,472.2969 Q48.9063,472.75 47.6094,472.75 Q46.0938,472.75 44.8906,472.125 Q43.9063,471.625 43.2188,470.5547 Q42.5313,469.4844 42.5313,468.2031 L42.5313,467.0469 Q42.5313,465.7188 43.1484,464.5703 Q43.7656,463.4219 44.8594,462.8047 Q45.9531,462.1875 47.1875,462.1875 Q47.9219,462.1875 48.5703,462.3516 Q49.2188,462.5156 49.7656,462.875 Z " fill="#000000"/><text fill="#000000" font-family="sans-serif" font-size="12" lengthAdjust="spacing" textLength="106" x="61" y="471.9102">InputStreamFactory</text><line style="stroke:#A80036;stroke-width:1.5;" x1="33" x2="169" y1="483" y2="483"/><line style="stroke:#A80036;stroke-width:1.5;" x1="33" x2="169" y1="491" y2="491"/><!--MD5=[d218c6afc6f8c372ae5afb36c62493b8]
class Domain.DltTraceDecoderFactory--><rect codeLine="32" fill="#FEFECE" filter="url(#fqbh06namrbe2)" height="48" id="Domain.DltTraceDecoderFactory" style="stroke:#A80036;stroke-width:1.5;" width="164" x="422" y="451"/><ellipse cx="437" cy="467" fill="#ADD1B2" rx="11" ry="11" style="stroke:#A80036;stroke-width:1.0;"/><path d="M439.7656,462.875 Q439.9219,462.6563 440.1094,462.5469 Q440.2969,462.4375 440.5156,462.4375 Q440.8906,462.4375 441.125,462.6953 Q441.3594,462.9531 441.3594,463.5625 L441.3594,465.0156 Q441.3594,465.625 441.125,465.8906 Q440.8906,466.1563 440.5156,466.1563 Q440.1719,466.1563 439.9688,465.9531 Q439.7656,465.7656 439.6563,465.25 Q439.6094,464.8906 439.4219,464.7031 Q439.0938,464.3281 438.4844,464.1094 Q437.875,463.8906 437.25,463.8906 Q436.4844,463.8906 435.8516,464.2188 Q435.2188,464.5469 434.7266,465.2969 Q434.2344,466.0469 434.2344,467.0781 L434.2344,468.1719 Q434.2344,469.4063 435.125,470.2266 Q436.0156,471.0469 437.6094,471.0469 Q438.5469,471.0469 439.2031,470.7969 Q439.5938,470.6406 440.0156,470.2031 Q440.2813,469.9375 440.4297,469.8594 Q440.5781,469.7813 440.7813,469.7813 Q441.1094,469.7813 441.3672,470.0391 Q441.625,470.2969 441.625,470.6406 Q441.625,470.9844 441.2813,471.3906 Q440.7813,471.9688 439.9844,472.2969 Q438.9063,472.75 437.6094,472.75 Q436.0938,472.75 434.8906,472.125 Q433.9063,471.625 433.2188,470.5547 Q432.5313,469.4844 432.5313,468.2031 L432.5313,467.0469 Q432.5313,465.7188 433.1484,464.5703 Q433.7656,463.4219 434.8594,462.8047 Q435.9531,462.1875 437.1875,462.1875 Q437.9219,462.1875 438.5703,462.3516 Q439.2188,462.5156 439.7656,462.875 Z " fill="#000000"/><text fill="#000000" font-family="sans-serif" font-size="12" lengthAdjust="spacing" textLength="132" x="451" y="471.9102">DltTraceDecoderFactory</text><line style="stroke:#A80036;stroke-width:1.5;" x1="423" x2="585" y1="483" y2="483"/><line style="stroke:#A80036;stroke-width:1.5;" x1="423" x2="585" y1="491" y2="491"/><!--MD5=[fe9a527f99e8486a85807f131833a233]
class Domain.InputStream--><rect codeLine="31" fill="#FEFECE" filter="url(#fqbh06namrbe2)" height="48" id="Domain.InputStream" style="stroke:#A80036;stroke-width:1.5;" width="99" x="287.5" y="451"/><ellipse cx="302.5" cy="467" fill="#ADD1B2" rx="11" ry="11" style="stroke:#A80036;stroke-width:1.0;"/><path d="M305.2656,462.875 Q305.4219,462.6563 305.6094,462.5469 Q305.7969,462.4375 306.0156,462.4375 Q306.3906,462.4375 306.625,462.6953 Q306.8594,462.9531 306.8594,463.5625 L306.8594,465.0156 Q306.8594,465.625 306.625,465.8906 Q306.3906,466.1563 306.0156,466.1563 Q305.6719,466.1563 305.4688,465.9531 Q305.2656,465.7656 305.1563,465.25 Q305.1094,464.8906 304.9219,464.7031 Q304.5938,464.3281 303.9844,464.1094 Q303.375,463.8906 302.75,463.8906 Q301.9844,463.8906 301.3516,464.2188 Q300.7188,464.5469 300.2266,465.2969 Q299.7344,466.0469 299.7344,467.0781 L299.7344,468.1719 Q299.7344,469.4063 300.625,470.2266 Q301.5156,471.0469 303.1094,471.0469 Q304.0469,471.0469 304.7031,470.7969 Q305.0938,470.6406 305.5156,470.2031 Q305.7813,469.9375 305.9297,469.8594 Q306.0781,469.7813 306.2813,469.7813 Q306.6094,469.7813 306.8672,470.0391 Q307.125,470.2969 307.125,470.6406 Q307.125,470.9844 306.7813,471.3906 Q306.2813,471.9688 305.4844,472.2969 Q304.4063,472.75 303.1094,472.75 Q301.5938,472.75 300.3906,472.125 Q299.4063,471.625 298.7188,470.5547 Q298.0313,469.4844 298.0313,468.2031 L298.0313,467.0469 Q298.0313,465.7188 298.6484,464.5703 Q299.2656,463.4219 300.3594,462.8047 Q301.4531,462.1875 302.6875,462.1875 Q303.4219,462.1875 304.0703,462.3516 Q304.7188,462.5156 305.2656,462.875 Z " fill="#000000"/><text fill="#000000" font-family="sans-serif" font-size="12" lengthAdjust="spacing" textLength="67" x="316.5" y="471.9102">InputStream</text><line style="stroke:#A80036;stroke-width:1.5;" x1="288.5" x2="385.5" y1="483" y2="483"/><line style="stroke:#A80036;stroke-width:1.5;" x1="288.5" x2="385.5" y1="491" y2="491"/><!--MD5=[e69c4169d9a44b556d1c3eb801b8f02a]
class System.IO.Stream--><rect codeLine="39" fill="#FEFECE" filter="url(#fqbh06namrbe2)" height="48" id="System.IO.Stream" style="stroke:#A80036;stroke-width:1.5;" width="72" x="301" y="645"/><ellipse cx="316" cy="661" fill="#ADD1B2" rx="11" ry="11" style="stroke:#A80036;stroke-width:1.0;"/><path d="M318.7656,656.875 Q318.9219,656.6563 319.1094,656.5469 Q319.2969,656.4375 319.5156,656.4375 Q319.8906,656.4375 320.125,656.6953 Q320.3594,656.9531 320.3594,657.5625 L320.3594,659.0156 Q320.3594,659.625 320.125,659.8906 Q319.8906,660.1563 319.5156,660.1563 Q319.1719,660.1563 318.9688,659.9531 Q318.7656,659.7656 318.6563,659.25 Q318.6094,658.8906 318.4219,658.7031 Q318.0938,658.3281 317.4844,658.1094 Q316.875,657.8906 316.25,657.8906 Q315.4844,657.8906 314.8516,658.2188 Q314.2188,658.5469 313.7266,659.2969 Q313.2344,660.0469 313.2344,661.0781 L313.2344,662.1719 Q313.2344,663.4063 314.125,664.2266 Q315.0156,665.0469 316.6094,665.0469 Q317.5469,665.0469 318.2031,664.7969 Q318.5938,664.6406 319.0156,664.2031 Q319.2813,663.9375 319.4297,663.8594 Q319.5781,663.7813 319.7813,663.7813 Q320.1094,663.7813 320.3672,664.0391 Q320.625,664.2969 320.625,664.6406 Q320.625,664.9844 320.2813,665.3906 Q319.7813,665.9688 318.9844,666.2969 Q317.9063,666.75 316.6094,666.75 Q315.0938,666.75 313.8906,666.125 Q312.9063,665.625 312.2188,664.5547 Q311.5313,663.4844 311.5313,662.2031 L311.5313,661.0469 Q311.5313,659.7188 312.1484,658.5703 Q312.7656,657.4219 313.8594,656.8047 Q314.9531,656.1875 316.1875,656.1875 Q316.9219,656.1875 317.5703,656.3516 Q318.2188,656.5156 318.7656,656.875 Z " fill="#000000"/><text fill="#000000" font-family="sans-serif" font-size="12" lengthAdjust="spacing" textLength="40" x="330" y="665.9102">Stream</text><line style="stroke:#A80036;stroke-width:1.5;" x1="302" x2="372" y1="677" y2="677"/><line style="stroke:#A80036;stroke-width:1.5;" x1="302" x2="372" y1="685" y2="685"/><!--MD5=[bd0aa9b8a552675fa90a55280af24b13]
class RJCP.Diagnostics.Log.Decoder.DltTraceDecoderBase--><rect codeLine="43" fill="#FEFECE" filter="url(#fqbh06namrbe2)" height="48" id="RJCP.Diagnostics.Log.Decoder.DltTraceDecoderBase" style="stroke:#A80036;stroke-width:1.5;" width="154" x="429" y="645"/><ellipse cx="444" cy="661" fill="#ADD1B2" rx="11" ry="11" style="stroke:#A80036;stroke-width:1.0;"/><path d="M446.7656,656.875 Q446.9219,656.6563 447.1094,656.5469 Q447.2969,656.4375 447.5156,656.4375 Q447.8906,656.4375 448.125,656.6953 Q448.3594,656.9531 448.3594,657.5625 L448.3594,659.0156 Q448.3594,659.625 448.125,659.8906 Q447.8906,660.1563 447.5156,660.1563 Q447.1719,660.1563 446.9688,659.9531 Q446.7656,659.7656 446.6563,659.25 Q446.6094,658.8906 446.4219,658.7031 Q446.0938,658.3281 445.4844,658.1094 Q444.875,657.8906 444.25,657.8906 Q443.4844,657.8906 442.8516,658.2188 Q442.2188,658.5469 441.7266,659.2969 Q441.2344,660.0469 441.2344,661.0781 L441.2344,662.1719 Q441.2344,663.4063 442.125,664.2266 Q443.0156,665.0469 444.6094,665.0469 Q445.5469,665.0469 446.2031,664.7969 Q446.5938,664.6406 447.0156,664.2031 Q447.2813,663.9375 447.4297,663.8594 Q447.5781,663.7813 447.7813,663.7813 Q448.1094,663.7813 448.3672,664.0391 Q448.625,664.2969 448.625,664.6406 Q448.625,664.9844 448.2813,665.3906 Q447.7813,665.9688 446.9844,666.2969 Q445.9063,666.75 444.6094,666.75 Q443.0938,666.75 441.8906,666.125 Q440.9063,665.625 440.2188,664.5547 Q439.5313,663.4844 439.5313,662.2031 L439.5313,661.0469 Q439.5313,659.7188 440.1484,658.5703 Q440.7656,657.4219 441.8594,656.8047 Q442.9531,656.1875 444.1875,656.1875 Q444.9219,656.1875 445.5703,656.3516 Q446.2188,656.5156 446.7656,656.875 Z " fill="#000000"/><text fill="#000000" font-family="sans-serif" font-size="12" lengthAdjust="spacing" textLength="122" x="458" y="665.9102">DltTraceDecoderBase</text><line style="stroke:#A80036;stroke-width:1.5;" x1="430" x2="582" y1="677" y2="677"/><line style="stroke:#A80036;stroke-width:1.5;" x1="430" x2="582" y1="685" y2="685"/><!--MD5=[5fb0df66d7e2645df075a57177980da2]
link View.FilterCommand to View.ICommand--><path codeLine="8" d="M340.07,192 C345.13,192 350.19,192 355.25,192 " fill="none" id="View.FilterCommand-to-View.ICommand" style="stroke:#A80036;stroke-width:1.0;stroke-dasharray:7.0,7.0;"/><polygon fill="none" points="355.38,185,375.38,192,355.38,199,355.38,185" style="stroke:#A80036;stroke-width:1.0;"/><!--MD5=[c302b4bd5becef95b9e60e19bee84d3a]
link View.CommandFactory to View.FilterCommand--><path codeLine="10" d="M285.89,90.03 C284.89,110.52 283.44,140.56 282.38,162.55 " fill="none" id="View.CommandFactory-to-View.FilterCommand" style="stroke:#A80036;stroke-width:1.0;"/><polygon fill="#A80036" points="282.13,167.67,286.5619,158.8747,282.3726,162.6759,278.5713,158.4865,282.13,167.67" style="stroke:#A80036;stroke-width:1.0;"/><text fill="#000000" font-family="sans-serif" font-size="13" lengthAdjust="spacing" textLength="81" x="285" y="134.4951">«instantiates»</text><!--MD5=[d461bb840918275f5d4306b568f22697]
link View.FilterCommand to Application.Filter--><path codeLine="12" d="M296.34,216.09 C302.18,225.66 308.51,237.07 313,248 C321.63,269.01 327.87,293.98 331.82,312.76 " fill="none" id="View.FilterCommand-to-Application.Filter" style="stroke:#A80036;stroke-width:1.0;"/><polygon fill="#A80036" points="332.87,317.89,334.9896,308.2719,331.8702,312.991,327.1511,309.8716,332.87,317.89" style="stroke:#A80036;stroke-width:1.0;"/><!--MD5=[7b1efb3cd862e90840330d69a5f2a2d6]
link View.FilterCommand to Application.FilterConfig--><path codeLine="13" d="M246.95,216.15 C237,224.86 227.36,235.67 222,248 C213.17,268.31 214.66,293.54 217.94,312.6 " fill="none" id="View.FilterCommand-to-Application.FilterConfig" style="stroke:#A80036;stroke-width:1.0;"/><polygon fill="#A80036" points="218.91,317.8,221.1963,308.2202,217.9955,312.8843,213.3313,309.6835,218.91,317.8" style="stroke:#A80036;stroke-width:1.0;"/><text fill="#000000" font-family="sans-serif" font-size="13" lengthAdjust="spacing" textLength="81" x="223" y="262.4951">«instantiates»</text><!--MD5=[c56ec30ce892f79d9ca5a841c30f6d9b]
reverse link Application.FilterConfig to Application.Filter--><path codeLine="22" d="M285.69,342 C292.91,342 300.13,342 307.36,342 " fill="none" id="Application.FilterConfig-backto-Application.Filter" style="stroke:#A80036;stroke-width:1.0;"/><polygon fill="#FFFFFF" points="272.69,342,278.69,346,284.69,342,278.69,338,272.69,342" style="stroke:#A80036;stroke-width:1.0;"/><!--MD5=[79d9d62f1f4d411ca05ce3eb55f80262]
reverse link Application.Filter to Domain.InputStreamFactory--><path codeLine="24" d="M307.55,375.66 C302.02,380.83 296.06,385.84 290,390 C252.71,415.61 206.34,436.36 168.86,450.83 " fill="none" id="Application.Filter-backto-Domain.InputStreamFactory" style="stroke:#A80036;stroke-width:1.0;"/><polygon fill="#A80036" points="316.97,366.33,309.8935,367.7167,308.4518,374.7823,315.5283,373.3955,316.97,366.33" style="stroke:#A80036;stroke-width:1.0;"/><!--MD5=[a2a6739b1169faa20e68662426a42883]
reverse link Application.Filter to Domain.DltTraceDecoderFactory--><path codeLine="25" d="M377.02,374.39 C407.03,397.93 447.44,429.64 474.54,450.89 " fill="none" id="Application.Filter-backto-Domain.DltTraceDecoderFactory" style="stroke:#A80036;stroke-width:1.0;"/><polygon fill="#A80036" points="366.47,366.12,368.72,372.9711,375.9095,373.5292,373.6595,366.6781,366.47,366.12" style="stroke:#A80036;stroke-width:1.0;"/><!--MD5=[f84e447838f60eafd2029552a770f6e9]
reverse link Application.Filter to Domain.InputStream--><path codeLine="26" d="M337,379.42 C337,402.21 337,430.9 337,450.67 " fill="none" id="Application.Filter-backto-Domain.InputStream" style="stroke:#A80036;stroke-width:1.0;"/><polygon fill="#FFFFFF" points="337,366.12,333,372.12,337,378.12,341,372.12,337,366.12" style="stroke:#A80036;stroke-width:1.0;"/><!--MD5=[9f0f3e5dcc27f077016b7266db0fc07f]
link Domain.InputStreamFactory to Domain.InputStream--><path codeLine="34" d="M170.21,475 C205.85,475 248.68,475 282.02,475 " fill="none" id="Domain.InputStreamFactory-to-Domain.InputStream" style="stroke:#A80036;stroke-width:1.0;"/><polygon fill="#A80036" points="287.29,475,278.29,471,282.29,475,278.29,479,287.29,475" style="stroke:#A80036;stroke-width:1.0;"/><text fill="#000000" font-family="sans-serif" font-size="13" lengthAdjust="spacing" textLength="81" x="188.25" y="468.4951">«instantiates»</text><!--MD5=[7f31d750ca3b59f9869da2361d35221c]
reverse link Domain.InputStream to System.IO.Stream--><path codeLine="46" d="M337,512.17 C337,551.07 337,611.77 337,644.76 " fill="none" id="Domain.InputStream-backto-System.IO.Stream" style="stroke:#A80036;stroke-width:1.0;"/><polygon fill="#A80036" points="337,499.16,333,505.16,337,511.16,341,505.16,337,499.16" style="stroke:#A80036;stroke-width:1.0;"/><text fill="#000000" font-family="sans-serif" font-size="13" lengthAdjust="spacing" textLength="81" x="338" y="545.4951">«instantiates»</text><!--MD5=[266e22e6b7bd1210277f4fdad7bb5732]
link Domain.DltTraceDecoderFactory to RJCP.Diagnostics.Log.Decoder.DltTraceDecoderBase--><path codeLine="47" d="M504.24,499.16 C504.61,534.33 505.3,601.15 505.7,639.34 " fill="none" id="Domain.DltTraceDecoderFactory-to-RJCP.Diagnostics.Log.Decoder.DltTraceDecoderBase" style="stroke:#A80036;stroke-width:1.0;"/><polygon fill="#A80036" points="505.76,644.76,509.6569,635.7149,505.7029,639.7603,501.6574,635.8063,505.76,644.76" style="stroke:#A80036;stroke-width:1.0;"/><text fill="#000000" font-family="sans-serif" font-size="13" lengthAdjust="spacing" textLength="81" x="505" y="545.4951">«instantiates»</text><!--MD5=[07eb4ee47c3699c0c7aeafc66b5c775f]
reverse link Domain.DltTraceDecoderFactory to System.IO.Stream--><path codeLine="48" d="M470.41,508.18 C456.38,521.21 439.71,536.19 424,549 C419.32,552.82 417.21,552.67 413,557 C386.79,583.96 363.49,620.92 349.8,644.63 " fill="none" id="Domain.DltTraceDecoderFactory-backto-System.IO.Stream" style="stroke:#A80036;stroke-width:1.0;"/><polygon fill="#FFFFFF" points="480.11,499.09,472.9965,500.2726,471.3523,507.2938,478.4657,506.1111,480.11,499.09" style="stroke:#A80036;stroke-width:1.0;"/><!--MD5=[bc97277ec114a299cb2858df9c517dde]
@startuml App.Filter.Initialization

namespace View {
    class CommandFactory

    interface ICommand
    class FilterCommand

    ICommand <|.l.FilterCommand

    CommandFactory - -> FilterCommand : <<instantiates>>

    FilterCommand - -> Application.Filter
    FilterCommand - -> Application.FilterConfig : <<instantiates>>
}

'View.HelpCommand - -> Framework.System.Console

namespace Application {
    class Filter
    class FilterConfig

    FilterConfig o-r- Filter

    Filter *-d- Domain.InputStreamFactory
    Filter *-d- Domain.DltTraceDecoderFactory
    Filter o-d- Domain.InputStream
}

namespace Domain {
    class InputStreamFactory
    class InputStream
    class DltTraceDecoderFactory

    InputStreamFactory -r-> InputStream : <<instantiates>>
}

namespace Framework {
    namespace System.IO {
        class Stream
    }

    namespace RJCP.Diagnostics.Log.Decoder {
        class DltTraceDecoderBase
    }

    Domain.InputStream *-d- System.IO.Stream : <<instantiates>>
    Domain.DltTraceDecoderFactory - -> RJCP.Diagnostics.Log.Decoder.DltTraceDecoderBase : <<instantiates>>
    Domain.DltTraceDecoderFactory o-d- System.IO.Stream
}

@enduml

@startuml App.Filter.Initialization

namespace View {
    class CommandFactory

    interface ICommand
    class FilterCommand

    ICommand <|.l.FilterCommand

    CommandFactory - -> FilterCommand : <<instantiates>>

    FilterCommand - -> Application.Filter
    FilterCommand - -> Application.FilterConfig : <<instantiates>>
}


namespace Application {
    class Filter
    class FilterConfig

    FilterConfig o-r- Filter

    Filter *-d- Domain.InputStreamFactory
    Filter *-d- Domain.DltTraceDecoderFactory
    Filter o-d- Domain.InputStream
}

namespace Domain {
    class InputStreamFactory
    class InputStream
    class DltTraceDecoderFactory

    InputStreamFactory -r-> InputStream : <<instantiates>>
}

namespace Framework {
    namespace System.IO {
        class Stream
    }

    namespace RJCP.Diagnostics.Log.Decoder {
        class DltTraceDecoderBase
    }

    Domain.InputStream *-d- System.IO.Stream : <<instantiates>>
    Domain.DltTraceDecoderFactory - -> RJCP.Diagnostics.Log.Decoder.DltTraceDecoderBase : <<instantiates>>
    Domain.DltTraceDecoderFactory o-d- System.IO.Stream
}

@enduml

PlantUML version 1.2022.0(Tue Jan 11 17:16:42 CET 2022)
(GPL source distribution)
Java Runtime: Java(TM) SE Runtime Environment
JVM: Java HotSpot(TM) Client VM
Default Encoding: Cp1252
Language: en
Country: US
--></g></svg>