<?xml version="1.0" encoding="UTF-8" standalone="no"?><svg xmlns="http://www.w3.org/2000/svg" xmlns:xlink="http://www.w3.org/1999/xlink" contentScriptType="application/ecmascript" contentStyleType="text/css" height="740px" preserveAspectRatio="none" style="width:771px;height:740px;background:#FFFFFF;" version="1.1" viewBox="0 0 771 740" width="771px" zoomAndPan="magnify"><defs><filter height="300%" id="fuzzceyd7qoh" width="300%" x="-1" y="-1"><feGaussianBlur result="blurOut" stdDeviation="2.0"/><feColorMatrix in="blurOut" result="blurOut2" type="matrix" values="0 0 0 0 0 0 0 0 0 0 0 0 0 0 0 0 0 0 .4 0"/><feOffset dx="4.0" dy="4.0" in="blurOut2" result="blurOut3"/><feBlend in="SourceGraphic" in2="blurOut3" mode="normal"/></filter></defs><g><!--MD5=[e320b41f2d43b11d6de1346cab4ea5fc]
cluster View--><polygon fill="#FFFFFF" filter="url(#fuzzceyd7qoh)" points="288,6,327,6,334,29.6094,569,29.6094,569,232,288,232,288,6" style="stroke:#000000;stroke-width:1.5;"/><line style="stroke:#000000;stroke-width:1.5;" x1="288" x2="334" y1="29.6094" y2="29.6094"/><text fill="#000000" font-family="sans-serif" font-size="14" font-weight="bold" lengthAdjust="spacing" textLength="33" x="292" y="22.5332">View</text><!--MD5=[d64883541e3d62e3241c4d12decf100d]
cluster Application--><polygon fill="#FFFFFF" filter="url(#fuzzceyd7qoh)" points="238,282,322,282,329,305.6094,481,305.6094,481,382,238,382,238,282" style="stroke:#000000;stroke-width:1.5;"/><line style="stroke:#000000;stroke-width:1.5;" x1="238" x2="329" y1="305.6094" y2="305.6094"/><text fill="#000000" font-family="sans-serif" font-size="14" font-weight="bold" lengthAdjust="spacing" textLength="78" x="242" y="298.5332">Application</text><!--MD5=[121a8bf1197281ab89ed693fab589f94]
cluster Domain--><polygon fill="#FFFFFF" filter="url(#fuzzceyd7qoh)" points="16,415,74,415,81,438.6094,754,438.6094,754,515,16,515,16,415" style="stroke:#000000;stroke-width:1.5;"/><line style="stroke:#000000;stroke-width:1.5;" x1="16" x2="81" y1="438.6094" y2="438.6094"/><text fill="#000000" font-family="sans-serif" font-size="14" font-weight="bold" lengthAdjust="spacing" textLength="52" x="20" y="431.5332">Domain</text><!--MD5=[a3db38b29c3436960cdd3b658ea5cf84]
cluster Framework--><polygon fill="#FFFFFF" filter="url(#fuzzceyd7qoh)" points="264,565,348,565,355,588.6094,673,588.6094,673,733,264,733,264,565" style="stroke:#000000;stroke-width:1.5;"/><line style="stroke:#000000;stroke-width:1.5;" x1="264" x2="355" y1="588.6094" y2="588.6094"/><text fill="#000000" font-family="sans-serif" font-size="14" font-weight="bold" lengthAdjust="spacing" textLength="78" x="268" y="581.5332">Framework</text><!--MD5=[d9ea02e02d5504d0b2c661147963476c]
cluster System.IO--><polygon fill="#FFFFFF" filter="url(#fuzzceyd7qoh)" points="288,609,363,609,370,632.6094,392,632.6094,392,709,288,709,288,609" style="stroke:#000000;stroke-width:1.5;"/><line style="stroke:#000000;stroke-width:1.5;" x1="288" x2="370" y1="632.6094" y2="632.6094"/><text fill="#000000" font-family="sans-serif" font-size="14" font-weight="bold" lengthAdjust="spacing" textLength="69" x="292" y="625.5332">System.IO</text><!--MD5=[cdc60274d58b480fe3b1301cbded6bed]
cluster RJCP.Diagnostics.Log.Decoder--><polygon fill="#FFFFFF" filter="url(#fuzzceyd7qoh)" points="416,609,639,609,646,632.6094,649,632.6094,649,709,416,709,416,609" style="stroke:#000000;stroke-width:1.5;"/><line style="stroke:#000000;stroke-width:1.5;" x1="416" x2="646" y1="632.6094" y2="632.6094"/><text fill="#000000" font-family="sans-serif" font-size="14" font-weight="bold" lengthAdjust="spacing" textLength="217" x="420" y="625.5332">RJCP.Diagnostics.Log.Decoder</text><!--MD5=[5cbf0e0c9e584acdcd75316a3ed38df0]
class View.CommandFactory--><rect codeLine="3" fill="#FEFECE" filter="url(#fuzzceyd7qoh)" height="48" id="View.CommandFactory" style="stroke:#A80036;stroke-width:1.5;" width="130" x="304" y="42"/><ellipse cx="319" cy="58" fill="#ADD1B2" rx="11" ry="11" style="stroke:#A80036;stroke-width:1.0;"/><path d="M321.7656,53.875 Q321.9219,53.6563 322.1094,53.5469 Q322.2969,53.4375 322.5156,53.4375 Q322.8906,53.4375 323.125,53.6953 Q323.3594,53.9531 323.3594,54.5625 L323.3594,56.0156 Q323.3594,56.625 323.125,56.8906 Q322.8906,57.1563 322.5156,57.1563 Q322.1719,57.1563 321.9688,56.9531 Q321.7656,56.7656 321.6563,56.25 Q321.6094,55.8906 321.4219,55.7031 Q321.0938,55.3281 320.4844,55.1094 Q319.875,54.8906 319.25,54.8906 Q318.4844,54.8906 317.8516,55.2188 Q317.2188,55.5469 316.7266,56.2969 Q316.2344,57.0469 316.2344,58.0781 L316.2344,59.1719 Q316.2344,60.4063 317.125,61.2266 Q318.0156,62.0469 319.6094,62.0469 Q320.5469,62.0469 321.2031,61.7969 Q321.5938,61.6406 322.0156,61.2031 Q322.2813,60.9375 322.4297,60.8594 Q322.5781,60.7813 322.7813,60.7813 Q323.1094,60.7813 323.3672,61.0391 Q323.625,61.2969 323.625,61.6406 Q323.625,61.9844 323.2813,62.3906 Q322.7813,62.9688 321.9844,63.2969 Q320.9063,63.75 319.6094,63.75 Q318.0938,63.75 316.8906,63.125 Q315.9063,62.625 315.2188,61.5547 Q314.5313,60.4844 314.5313,59.2031 L314.5313,58.0469 Q314.5313,56.7188 315.1484,55.5703 Q315.7656,54.4219 316.8594,53.8047 Q317.9531,53.1875 319.1875,53.1875 Q319.9219,53.1875 320.5703,53.3516 Q321.2188,53.5156 321.7656,53.875 Z " fill="#000000"/><text fill="#000000" font-family="sans-serif" font-size="12" lengthAdjust="spacing" textLength="98" x="333" y="62.9102">CommandFactory</text><line style="stroke:#A80036;stroke-width:1.5;" x1="305" x2="433" y1="74" y2="74"/><line style="stroke:#A80036;stroke-width:1.5;" x1="305" x2="433" y1="82" y2="82"/><!--MD5=[2092deacab3d021e8fbebc0eebd009ce]
class View.ICommand--><rect codeLine="5" fill="#FEFECE" filter="url(#fuzzceyd7qoh)" height="48" id="View.ICommand" style="stroke:#A80036;stroke-width:1.5;" width="95" x="457.5" y="168"/><ellipse cx="472.5" cy="184" fill="#B4A7E5" rx="11" ry="11" style="stroke:#A80036;stroke-width:1.0;"/><path d="M473.4531,180.6406 L473.4531,187.2969 L475.1719,187.2969 Q475.7813,187.2969 476.0469,187.5313 Q476.3125,187.7656 476.3125,188.1563 Q476.3125,188.5313 476.0469,188.7656 Q475.7813,189 475.1719,189 L470.0313,189 Q469.4219,189 469.1563,188.7656 Q468.8906,188.5313 468.8906,188.1406 Q468.8906,187.7656 469.1563,187.5313 Q469.4219,187.2969 470.0313,187.2969 L471.75,187.2969 L471.75,180.6406 L470.0313,180.6406 Q469.4219,180.6406 469.1563,180.4063 Q468.8906,180.1719 468.8906,179.7813 Q468.8906,179.4063 469.1563,179.1719 Q469.4219,178.9375 470.0313,178.9375 L475.1719,178.9375 Q475.7813,178.9375 476.0469,179.1719 Q476.3125,179.4063 476.3125,179.7813 Q476.3125,180.1719 476.0469,180.4063 Q475.7813,180.6406 475.1719,180.6406 L473.4531,180.6406 Z " fill="#000000"/><text fill="#000000" font-family="sans-serif" font-size="12" font-style="italic" lengthAdjust="spacing" textLength="63" x="486.5" y="188.9102">ICommand</text><line style="stroke:#A80036;stroke-width:1.5;" x1="458.5" x2="551.5" y1="200" y2="200"/><line style="stroke:#A80036;stroke-width:1.5;" x1="458.5" x2="551.5" y1="208" y2="208"/><!--MD5=[b5e12acb1e3b04f2e012989d3d66eeca]
class View.FilterCommand--><rect codeLine="6" fill="#FEFECE" filter="url(#fuzzceyd7qoh)" height="48" id="View.FilterCommand" style="stroke:#A80036;stroke-width:1.5;" width="118" x="304" y="168"/><ellipse cx="319" cy="184" fill="#ADD1B2" rx="11" ry="11" style="stroke:#A80036;stroke-width:1.0;"/><path d="M321.7656,179.875 Q321.9219,179.6563 322.1094,179.5469 Q322.2969,179.4375 322.5156,179.4375 Q322.8906,179.4375 323.125,179.6953 Q323.3594,179.9531 323.3594,180.5625 L323.3594,182.0156 Q323.3594,182.625 323.125,182.8906 Q322.8906,183.1563 322.5156,183.1563 Q322.1719,183.1563 321.9688,182.9531 Q321.7656,182.7656 321.6563,182.25 Q321.6094,181.8906 321.4219,181.7031 Q321.0938,181.3281 320.4844,181.1094 Q319.875,180.8906 319.25,180.8906 Q318.4844,180.8906 317.8516,181.2188 Q317.2188,181.5469 316.7266,182.2969 Q316.2344,183.0469 316.2344,184.0781 L316.2344,185.1719 Q316.2344,186.4063 317.125,187.2266 Q318.0156,188.0469 319.6094,188.0469 Q320.5469,188.0469 321.2031,187.7969 Q321.5938,187.6406 322.0156,187.2031 Q322.2813,186.9375 322.4297,186.8594 Q322.5781,186.7813 322.7813,186.7813 Q323.1094,186.7813 323.3672,187.0391 Q323.625,187.2969 323.625,187.6406 Q323.625,187.9844 323.2813,188.3906 Q322.7813,188.9688 321.9844,189.2969 Q320.9063,189.75 319.6094,189.75 Q318.0938,189.75 316.8906,189.125 Q315.9063,188.625 315.2188,187.5547 Q314.5313,186.4844 314.5313,185.2031 L314.5313,184.0469 Q314.5313,182.7188 315.1484,181.5703 Q315.7656,180.4219 316.8594,179.8047 Q317.9531,179.1875 319.1875,179.1875 Q319.9219,179.1875 320.5703,179.3516 Q321.2188,179.5156 321.7656,179.875 Z " fill="#000000"/><text fill="#000000" font-family="sans-serif" font-size="12" lengthAdjust="spacing" textLength="86" x="333" y="188.9102">FilterCommand</text><line style="stroke:#A80036;stroke-width:1.5;" x1="305" x2="421" y1="200" y2="200"/><line style="stroke:#A80036;stroke-width:1.5;" x1="305" x2="421" y1="208" y2="208"/><!--MD5=[07ba3457c8428d9f947b9b0f8ed8530c]
class Application.FilterApp--><rect codeLine="19" fill="#FEFECE" filter="url(#fuzzceyd7qoh)" height="48" id="Application.FilterApp" style="stroke:#A80036;stroke-width:1.5;" width="80" x="385" y="318"/><ellipse cx="400" cy="334" fill="#ADD1B2" rx="11" ry="11" style="stroke:#A80036;stroke-width:1.0;"/><path d="M402.7656,329.875 Q402.9219,329.6563 403.1094,329.5469 Q403.2969,329.4375 403.5156,329.4375 Q403.8906,329.4375 404.125,329.6953 Q404.3594,329.9531 404.3594,330.5625 L404.3594,332.0156 Q404.3594,332.625 404.125,332.8906 Q403.8906,333.1563 403.5156,333.1563 Q403.1719,333.1563 402.9688,332.9531 Q402.7656,332.7656 402.6563,332.25 Q402.6094,331.8906 402.4219,331.7031 Q402.0938,331.3281 401.4844,331.1094 Q400.875,330.8906 400.25,330.8906 Q399.4844,330.8906 398.8516,331.2188 Q398.2188,331.5469 397.7266,332.2969 Q397.2344,333.0469 397.2344,334.0781 L397.2344,335.1719 Q397.2344,336.4063 398.125,337.2266 Q399.0156,338.0469 400.6094,338.0469 Q401.5469,338.0469 402.2031,337.7969 Q402.5938,337.6406 403.0156,337.2031 Q403.2813,336.9375 403.4297,336.8594 Q403.5781,336.7813 403.7813,336.7813 Q404.1094,336.7813 404.3672,337.0391 Q404.625,337.2969 404.625,337.6406 Q404.625,337.9844 404.2813,338.3906 Q403.7813,338.9688 402.9844,339.2969 Q401.9063,339.75 400.6094,339.75 Q399.0938,339.75 397.8906,339.125 Q396.9063,338.625 396.2188,337.5547 Q395.5313,336.4844 395.5313,335.2031 L395.5313,334.0469 Q395.5313,332.7188 396.1484,331.5703 Q396.7656,330.4219 397.8594,329.8047 Q398.9531,329.1875 400.1875,329.1875 Q400.9219,329.1875 401.5703,329.3516 Q402.2188,329.5156 402.7656,329.875 Z " fill="#000000"/><text fill="#000000" font-family="sans-serif" font-size="12" lengthAdjust="spacing" textLength="48" x="414" y="338.9102">FilterApp</text><line style="stroke:#A80036;stroke-width:1.5;" x1="386" x2="464" y1="350" y2="350"/><line style="stroke:#A80036;stroke-width:1.5;" x1="386" x2="464" y1="358" y2="358"/><!--MD5=[280da483ebb0501053878a915c36130b]
class Application.FilterConfig--><rect codeLine="20" fill="#FEFECE" filter="url(#fuzzceyd7qoh)" height="48" id="Application.FilterConfig" style="stroke:#A80036;stroke-width:1.5;" width="95" x="254.5" y="318"/><ellipse cx="269.5" cy="334" fill="#ADD1B2" rx="11" ry="11" style="stroke:#A80036;stroke-width:1.0;"/><path d="M272.2656,329.875 Q272.4219,329.6563 272.6094,329.5469 Q272.7969,329.4375 273.0156,329.4375 Q273.3906,329.4375 273.625,329.6953 Q273.8594,329.9531 273.8594,330.5625 L273.8594,332.0156 Q273.8594,332.625 273.625,332.8906 Q273.3906,333.1563 273.0156,333.1563 Q272.6719,333.1563 272.4688,332.9531 Q272.2656,332.7656 272.1563,332.25 Q272.1094,331.8906 271.9219,331.7031 Q271.5938,331.3281 270.9844,331.1094 Q270.375,330.8906 269.75,330.8906 Q268.9844,330.8906 268.3516,331.2188 Q267.7188,331.5469 267.2266,332.2969 Q266.7344,333.0469 266.7344,334.0781 L266.7344,335.1719 Q266.7344,336.4063 267.625,337.2266 Q268.5156,338.0469 270.1094,338.0469 Q271.0469,338.0469 271.7031,337.7969 Q272.0938,337.6406 272.5156,337.2031 Q272.7813,336.9375 272.9297,336.8594 Q273.0781,336.7813 273.2813,336.7813 Q273.6094,336.7813 273.8672,337.0391 Q274.125,337.2969 274.125,337.6406 Q274.125,337.9844 273.7813,338.3906 Q273.2813,338.9688 272.4844,339.2969 Q271.4063,339.75 270.1094,339.75 Q268.5938,339.75 267.3906,339.125 Q266.4063,338.625 265.7188,337.5547 Q265.0313,336.4844 265.0313,335.2031 L265.0313,334.0469 Q265.0313,332.7188 265.6484,331.5703 Q266.2656,330.4219 267.3594,329.8047 Q268.4531,329.1875 269.6875,329.1875 Q270.4219,329.1875 271.0703,329.3516 Q271.7188,329.5156 272.2656,329.875 Z " fill="#000000"/><text fill="#000000" font-family="sans-serif" font-size="12" lengthAdjust="spacing" textLength="63" x="283.5" y="338.9102">FilterConfig</text><line style="stroke:#A80036;stroke-width:1.5;" x1="255.5" x2="348.5" y1="350" y2="350"/><line style="stroke:#A80036;stroke-width:1.5;" x1="255.5" x2="348.5" y1="358" y2="358"/><!--MD5=[a1b4cfca9be193a170fc56f1bb06f3d9]
class Domain.InputStreamFactory--><rect codeLine="31" fill="#FEFECE" filter="url(#fuzzceyd7qoh)" height="48" id="Domain.InputStreamFactory" style="stroke:#A80036;stroke-width:1.5;" width="138" x="32" y="451"/><ellipse cx="47" cy="467" fill="#ADD1B2" rx="11" ry="11" style="stroke:#A80036;stroke-width:1.0;"/><path d="M49.7656,462.875 Q49.9219,462.6563 50.1094,462.5469 Q50.2969,462.4375 50.5156,462.4375 Q50.8906,462.4375 51.125,462.6953 Q51.3594,462.9531 51.3594,463.5625 L51.3594,465.0156 Q51.3594,465.625 51.125,465.8906 Q50.8906,466.1563 50.5156,466.1563 Q50.1719,466.1563 49.9688,465.9531 Q49.7656,465.7656 49.6563,465.25 Q49.6094,464.8906 49.4219,464.7031 Q49.0938,464.3281 48.4844,464.1094 Q47.875,463.8906 47.25,463.8906 Q46.4844,463.8906 45.8516,464.2188 Q45.2188,464.5469 44.7266,465.2969 Q44.2344,466.0469 44.2344,467.0781 L44.2344,468.1719 Q44.2344,469.4063 45.125,470.2266 Q46.0156,471.0469 47.6094,471.0469 Q48.5469,471.0469 49.2031,470.7969 Q49.5938,470.6406 50.0156,470.2031 Q50.2813,469.9375 50.4297,469.8594 Q50.5781,469.7813 50.7813,469.7813 Q51.1094,469.7813 51.3672,470.0391 Q51.625,470.2969 51.625,470.6406 Q51.625,470.9844 51.2813,471.3906 Q50.7813,471.9688 49.9844,472.2969 Q48.9063,472.75 47.6094,472.75 Q46.0938,472.75 44.8906,472.125 Q43.9063,471.625 43.2188,470.5547 Q42.5313,469.4844 42.5313,468.2031 L42.5313,467.0469 Q42.5313,465.7188 43.1484,464.5703 Q43.7656,463.4219 44.8594,462.8047 Q45.9531,462.1875 47.1875,462.1875 Q47.9219,462.1875 48.5703,462.3516 Q49.2188,462.5156 49.7656,462.875 Z " fill="#000000"/><text fill="#000000" font-family="sans-serif" font-size="12" lengthAdjust="spacing" textLength="106" x="61" y="471.9102">InputStreamFactory</text><line style="stroke:#A80036;stroke-width:1.5;" x1="33" x2="169" y1="483" y2="483"/><line style="stroke:#A80036;stroke-width:1.5;" x1="33" x2="169" y1="491" y2="491"/><!--MD5=[d218c6afc6f8c372ae5afb36c62493b8]
class Domain.DltTraceDecoderFactory--><rect codeLine="33" fill="#FEFECE" filter="url(#fuzzceyd7qoh)" height="48" id="Domain.DltTraceDecoderFactory" style="stroke:#A80036;stroke-width:1.5;" width="164" x="427" y="451"/><ellipse cx="442" cy="467" fill="#ADD1B2" rx="11" ry="11" style="stroke:#A80036;stroke-width:1.0;"/><path d="M444.7656,462.875 Q444.9219,462.6563 445.1094,462.5469 Q445.2969,462.4375 445.5156,462.4375 Q445.8906,462.4375 446.125,462.6953 Q446.3594,462.9531 446.3594,463.5625 L446.3594,465.0156 Q446.3594,465.625 446.125,465.8906 Q445.8906,466.1563 445.5156,466.1563 Q445.1719,466.1563 444.9688,465.9531 Q444.7656,465.7656 444.6563,465.25 Q444.6094,464.8906 444.4219,464.7031 Q444.0938,464.3281 443.4844,464.1094 Q442.875,463.8906 442.25,463.8906 Q441.4844,463.8906 440.8516,464.2188 Q440.2188,464.5469 439.7266,465.2969 Q439.2344,466.0469 439.2344,467.0781 L439.2344,468.1719 Q439.2344,469.4063 440.125,470.2266 Q441.0156,471.0469 442.6094,471.0469 Q443.5469,471.0469 444.2031,470.7969 Q444.5938,470.6406 445.0156,470.2031 Q445.2813,469.9375 445.4297,469.8594 Q445.5781,469.7813 445.7813,469.7813 Q446.1094,469.7813 446.3672,470.0391 Q446.625,470.2969 446.625,470.6406 Q446.625,470.9844 446.2813,471.3906 Q445.7813,471.9688 444.9844,472.2969 Q443.9063,472.75 442.6094,472.75 Q441.0938,472.75 439.8906,472.125 Q438.9063,471.625 438.2188,470.5547 Q437.5313,469.4844 437.5313,468.2031 L437.5313,467.0469 Q437.5313,465.7188 438.1484,464.5703 Q438.7656,463.4219 439.8594,462.8047 Q440.9531,462.1875 442.1875,462.1875 Q442.9219,462.1875 443.5703,462.3516 Q444.2188,462.5156 444.7656,462.875 Z " fill="#000000"/><text fill="#000000" font-family="sans-serif" font-size="12" lengthAdjust="spacing" textLength="132" x="456" y="471.9102">DltTraceDecoderFactory</text><line style="stroke:#A80036;stroke-width:1.5;" x1="428" x2="590" y1="483" y2="483"/><line style="stroke:#A80036;stroke-width:1.5;" x1="428" x2="590" y1="491" y2="491"/><!--MD5=[367a658869742881ac8a4a0b22d6209d]
class Domain.IInputStream--><rect codeLine="32" fill="#FEFECE" filter="url(#fuzzceyd7qoh)" height="48" id="Domain.IInputStream" style="stroke:#A80036;stroke-width:1.5;" width="104" x="288" y="451"/><ellipse cx="303" cy="467" fill="#B4A7E5" rx="11" ry="11" style="stroke:#A80036;stroke-width:1.0;"/><path d="M303.9531,463.6406 L303.9531,470.2969 L305.6719,470.2969 Q306.2813,470.2969 306.5469,470.5313 Q306.8125,470.7656 306.8125,471.1563 Q306.8125,471.5313 306.5469,471.7656 Q306.2813,472 305.6719,472 L300.5313,472 Q299.9219,472 299.6563,471.7656 Q299.3906,471.5313 299.3906,471.1406 Q299.3906,470.7656 299.6563,470.5313 Q299.9219,470.2969 300.5313,470.2969 L302.25,470.2969 L302.25,463.6406 L300.5313,463.6406 Q299.9219,463.6406 299.6563,463.4063 Q299.3906,463.1719 299.3906,462.7813 Q299.3906,462.4063 299.6563,462.1719 Q299.9219,461.9375 300.5313,461.9375 L305.6719,461.9375 Q306.2813,461.9375 306.5469,462.1719 Q306.8125,462.4063 306.8125,462.7813 Q306.8125,463.1719 306.5469,463.4063 Q306.2813,463.6406 305.6719,463.6406 L303.9531,463.6406 Z " fill="#000000"/><text fill="#000000" font-family="sans-serif" font-size="12" font-style="italic" lengthAdjust="spacing" textLength="72" x="317" y="471.9102">IInputStream</text><line style="stroke:#A80036;stroke-width:1.5;" x1="289" x2="391" y1="483" y2="483"/><line style="stroke:#A80036;stroke-width:1.5;" x1="289" x2="391" y1="491" y2="491"/><!--MD5=[0b3fba00a99536d1f05fca5c65117de9]
class Domain.IOutputStream--><rect codeLine="34" fill="#FEFECE" filter="url(#fuzzceyd7qoh)" height="48" id="Domain.IOutputStream" style="stroke:#A80036;stroke-width:1.5;" width="112" x="626" y="451"/><ellipse cx="641" cy="467" fill="#B4A7E5" rx="11" ry="11" style="stroke:#A80036;stroke-width:1.0;"/><path d="M641.9531,463.6406 L641.9531,470.2969 L643.6719,470.2969 Q644.2813,470.2969 644.5469,470.5313 Q644.8125,470.7656 644.8125,471.1563 Q644.8125,471.5313 644.5469,471.7656 Q644.2813,472 643.6719,472 L638.5313,472 Q637.9219,472 637.6563,471.7656 Q637.3906,471.5313 637.3906,471.1406 Q637.3906,470.7656 637.6563,470.5313 Q637.9219,470.2969 638.5313,470.2969 L640.25,470.2969 L640.25,463.6406 L638.5313,463.6406 Q637.9219,463.6406 637.6563,463.4063 Q637.3906,463.1719 637.3906,462.7813 Q637.3906,462.4063 637.6563,462.1719 Q637.9219,461.9375 638.5313,461.9375 L643.6719,461.9375 Q644.2813,461.9375 644.5469,462.1719 Q644.8125,462.4063 644.8125,462.7813 Q644.8125,463.1719 644.5469,463.4063 Q644.2813,463.6406 643.6719,463.6406 L641.9531,463.6406 Z " fill="#000000"/><text fill="#000000" font-family="sans-serif" font-size="12" font-style="italic" lengthAdjust="spacing" textLength="80" x="655" y="471.9102">IOutputStream</text><line style="stroke:#A80036;stroke-width:1.5;" x1="627" x2="737" y1="483" y2="483"/><line style="stroke:#A80036;stroke-width:1.5;" x1="627" x2="737" y1="491" y2="491"/><!--MD5=[e69c4169d9a44b556d1c3eb801b8f02a]
class System.IO.Stream--><rect codeLine="41" fill="#FEFECE" filter="url(#fuzzceyd7qoh)" height="48" id="System.IO.Stream" style="stroke:#A80036;stroke-width:1.5;" width="72" x="304" y="645"/><ellipse cx="319" cy="661" fill="#ADD1B2" rx="11" ry="11" style="stroke:#A80036;stroke-width:1.0;"/><path d="M321.7656,656.875 Q321.9219,656.6563 322.1094,656.5469 Q322.2969,656.4375 322.5156,656.4375 Q322.8906,656.4375 323.125,656.6953 Q323.3594,656.9531 323.3594,657.5625 L323.3594,659.0156 Q323.3594,659.625 323.125,659.8906 Q322.8906,660.1563 322.5156,660.1563 Q322.1719,660.1563 321.9688,659.9531 Q321.7656,659.7656 321.6563,659.25 Q321.6094,658.8906 321.4219,658.7031 Q321.0938,658.3281 320.4844,658.1094 Q319.875,657.8906 319.25,657.8906 Q318.4844,657.8906 317.8516,658.2188 Q317.2188,658.5469 316.7266,659.2969 Q316.2344,660.0469 316.2344,661.0781 L316.2344,662.1719 Q316.2344,663.4063 317.125,664.2266 Q318.0156,665.0469 319.6094,665.0469 Q320.5469,665.0469 321.2031,664.7969 Q321.5938,664.6406 322.0156,664.2031 Q322.2813,663.9375 322.4297,663.8594 Q322.5781,663.7813 322.7813,663.7813 Q323.1094,663.7813 323.3672,664.0391 Q323.625,664.2969 323.625,664.6406 Q323.625,664.9844 323.2813,665.3906 Q322.7813,665.9688 321.9844,666.2969 Q320.9063,666.75 319.6094,666.75 Q318.0938,666.75 316.8906,666.125 Q315.9063,665.625 315.2188,664.5547 Q314.5313,663.4844 314.5313,662.2031 L314.5313,661.0469 Q314.5313,659.7188 315.1484,658.5703 Q315.7656,657.4219 316.8594,656.8047 Q317.9531,656.1875 319.1875,656.1875 Q319.9219,656.1875 320.5703,656.3516 Q321.2188,656.5156 321.7656,656.875 Z " fill="#000000"/><text fill="#000000" font-family="sans-serif" font-size="12" lengthAdjust="spacing" textLength="40" x="333" y="665.9102">Stream</text><line style="stroke:#A80036;stroke-width:1.5;" x1="305" x2="375" y1="677" y2="677"/><line style="stroke:#A80036;stroke-width:1.5;" x1="305" x2="375" y1="685" y2="685"/><!--MD5=[bd0aa9b8a552675fa90a55280af24b13]
class RJCP.Diagnostics.Log.Decoder.DltTraceDecoderBase--><rect codeLine="45" fill="#FEFECE" filter="url(#fuzzceyd7qoh)" height="48" id="RJCP.Diagnostics.Log.Decoder.DltTraceDecoderBase" style="stroke:#A80036;stroke-width:1.5;" width="154" x="432" y="645"/><ellipse cx="447" cy="661" fill="#ADD1B2" rx="11" ry="11" style="stroke:#A80036;stroke-width:1.0;"/><path d="M449.7656,656.875 Q449.9219,656.6563 450.1094,656.5469 Q450.2969,656.4375 450.5156,656.4375 Q450.8906,656.4375 451.125,656.6953 Q451.3594,656.9531 451.3594,657.5625 L451.3594,659.0156 Q451.3594,659.625 451.125,659.8906 Q450.8906,660.1563 450.5156,660.1563 Q450.1719,660.1563 449.9688,659.9531 Q449.7656,659.7656 449.6563,659.25 Q449.6094,658.8906 449.4219,658.7031 Q449.0938,658.3281 448.4844,658.1094 Q447.875,657.8906 447.25,657.8906 Q446.4844,657.8906 445.8516,658.2188 Q445.2188,658.5469 444.7266,659.2969 Q444.2344,660.0469 444.2344,661.0781 L444.2344,662.1719 Q444.2344,663.4063 445.125,664.2266 Q446.0156,665.0469 447.6094,665.0469 Q448.5469,665.0469 449.2031,664.7969 Q449.5938,664.6406 450.0156,664.2031 Q450.2813,663.9375 450.4297,663.8594 Q450.5781,663.7813 450.7813,663.7813 Q451.1094,663.7813 451.3672,664.0391 Q451.625,664.2969 451.625,664.6406 Q451.625,664.9844 451.2813,665.3906 Q450.7813,665.9688 449.9844,666.2969 Q448.9063,666.75 447.6094,666.75 Q446.0938,666.75 444.8906,666.125 Q443.9063,665.625 443.2188,664.5547 Q442.5313,663.4844 442.5313,662.2031 L442.5313,661.0469 Q442.5313,659.7188 443.1484,658.5703 Q443.7656,657.4219 444.8594,656.8047 Q445.9531,656.1875 447.1875,656.1875 Q447.9219,656.1875 448.5703,656.3516 Q449.2188,656.5156 449.7656,656.875 Z " fill="#000000"/><text fill="#000000" font-family="sans-serif" font-size="12" lengthAdjust="spacing" textLength="122" x="461" y="665.9102">DltTraceDecoderBase</text><line style="stroke:#A80036;stroke-width:1.5;" x1="433" x2="585" y1="677" y2="677"/><line style="stroke:#A80036;stroke-width:1.5;" x1="433" x2="585" y1="685" y2="685"/><!--MD5=[5fb0df66d7e2645df075a57177980da2]
link View.FilterCommand to View.ICommand--><path codeLine="8" d="M422.07,192 C427.13,192 432.19,192 437.25,192 " fill="none" id="View.FilterCommand-to-View.ICommand" style="stroke:#A80036;stroke-width:1.0;stroke-dasharray:7.0,7.0;"/><polygon fill="none" points="437.38,185,457.38,192,437.38,199,437.38,185" style="stroke:#A80036;stroke-width:1.0;"/><!--MD5=[c302b4bd5becef95b9e60e19bee84d3a]
link View.CommandFactory to View.FilterCommand--><path codeLine="10" d="M367.89,90.03 C366.89,110.52 365.44,140.56 364.38,162.55 " fill="none" id="View.CommandFactory-to-View.FilterCommand" style="stroke:#A80036;stroke-width:1.0;"/><polygon fill="#A80036" points="364.13,167.67,368.5619,158.8747,364.3726,162.6759,360.5713,158.4865,364.13,167.67" style="stroke:#A80036;stroke-width:1.0;"/><text fill="#000000" font-family="sans-serif" font-size="13" lengthAdjust="spacing" textLength="81" x="367" y="134.4951">«instantiates»</text><!--MD5=[51640305ef3558bfabf58fc19d424563]
link View.FilterCommand to Application.FilterApp--><path codeLine="12" d="M379.88,216.26 C386.21,225.76 393.06,237.07 398,248 C407.43,268.86 414.47,293.85 418.99,312.67 " fill="none" id="View.FilterCommand-to-Application.FilterApp" style="stroke:#A80036;stroke-width:1.0;"/><polygon fill="#A80036" points="420.2,317.8,422.0386,308.1243,419.058,312.9322,414.2501,309.9515,420.2,317.8" style="stroke:#A80036;stroke-width:1.0;"/><!--MD5=[7b1efb3cd862e90840330d69a5f2a2d6]
link View.FilterCommand to Application.FilterConfig--><path codeLine="13" d="M334.67,216.05 C325.57,225.03 316.44,236.04 311,248 C301.79,268.24 299.86,293.48 300.06,312.55 " fill="none" id="View.FilterCommand-to-Application.FilterConfig" style="stroke:#A80036;stroke-width:1.0;"/><polygon fill="#A80036" points="300.17,317.76,303.9892,308.6818,300.07,312.761,295.9908,308.8418,300.17,317.76" style="stroke:#A80036;stroke-width:1.0;"/><text fill="#000000" font-family="sans-serif" font-size="13" lengthAdjust="spacing" textLength="81" x="312" y="262.4951">«instantiates»</text><!--MD5=[3c807a1f97ab3c7fb51e3fb480f9b2c3]
reverse link Application.FilterConfig to Application.FilterApp--><path codeLine="22" d="M362.83,342 C370.19,342 377.56,342 384.93,342 " fill="none" id="Application.FilterConfig-backto-Application.FilterApp" style="stroke:#A80036;stroke-width:1.0;"/><polygon fill="#FFFFFF" points="349.57,342,355.57,346,361.57,342,355.57,338,349.57,342" style="stroke:#A80036;stroke-width:1.0;"/><!--MD5=[4c03ab4938583df0e480eb3637b0d53f]
reverse link Application.FilterApp to Domain.InputStreamFactory--><path codeLine="24" d="M391.78,374.59 C384.12,380.5 375.66,386.05 367,390 C327.58,407.99 312.7,395.22 271,407 C229.94,418.6 185.1,436.51 151.78,450.89 " fill="none" id="Application.FilterApp-backto-Domain.InputStreamFactory" style="stroke:#A80036;stroke-width:1.0;"/><polygon fill="#A80036" points="402.03,366.14,394.8568,366.878,392.779,373.7833,399.9523,373.0453,402.03,366.14" style="stroke:#A80036;stroke-width:1.0;"/><!--MD5=[75bc09e5632cefbd9098f309a2ac4a44]
reverse link Application.FilterApp to Domain.DltTraceDecoderFactory--><path codeLine="25" d="M446.92,377.18 C461.75,400.31 480.95,430.25 494.04,450.67 " fill="none" id="Application.FilterApp-backto-Domain.DltTraceDecoderFactory" style="stroke:#A80036;stroke-width:1.0;"/><polygon fill="#A80036" points="439.82,366.12,439.6903,373.3299,446.2958,376.2227,446.4254,369.0128,439.82,366.12" style="stroke:#A80036;stroke-width:1.0;"/><!--MD5=[7d003d0561f7e0546c399501860e8221]
reverse link Application.FilterApp to Domain.IInputStream--><path codeLine="26" d="M402.82,377.18 C387.82,400.31 368.39,430.25 355.14,450.67 " fill="none" id="Application.FilterApp-backto-Domain.IInputStream" style="stroke:#A80036;stroke-width:1.0;"/><polygon fill="#FFFFFF" points="410,366.12,403.3788,368.9765,403.469,376.187,410.0902,373.3305,410,366.12" style="stroke:#A80036;stroke-width:1.0;"/><!--MD5=[50feda42f812c79c8421870506cefa3f]
reverse link Application.FilterApp to Domain.IOutputStream--><path codeLine="27" d="M477.98,355.26 C516.16,365.53 567.97,382.48 609,407 C628.79,418.82 647.86,436.63 661.55,450.91 " fill="none" id="Application.FilterApp-backto-Domain.IOutputStream" style="stroke:#A80036;stroke-width:1.0;"/><polygon fill="#A80036" points="465.08,351.9,469.8807,357.2808,476.6941,354.9189,471.8933,349.5381,465.08,351.9" style="stroke:#A80036;stroke-width:1.0;"/><!--MD5=[746d1266ae1189726748cc18760c83b5]
link Domain.InputStreamFactory to Domain.IInputStream--><path codeLine="36" d="M170.13,475 C205.72,475 248.62,475 282.39,475 " fill="none" id="Domain.InputStreamFactory-to-Domain.IInputStream" style="stroke:#A80036;stroke-width:1.0;"/><polygon fill="#A80036" points="287.74,475,278.74,471,282.74,475,278.74,479,287.74,475" style="stroke:#A80036;stroke-width:1.0;"/><text fill="#000000" font-family="sans-serif" font-size="13" lengthAdjust="spacing" textLength="81" x="188.5" y="468.4951">«instantiates»</text><!--MD5=[4fc516642ff9e3204f8aef02f9952664]
reverse link Domain.IInputStream to System.IO.Stream--><path codeLine="48" d="M340,512.17 C340,551.07 340,611.77 340,644.76 " fill="none" id="Domain.IInputStream-backto-System.IO.Stream" style="stroke:#A80036;stroke-width:1.0;"/><polygon fill="#A80036" points="340,499.16,336,505.16,340,511.16,344,505.16,340,499.16" style="stroke:#A80036;stroke-width:1.0;"/><text fill="#000000" font-family="sans-serif" font-size="13" lengthAdjust="spacing" textLength="81" x="341" y="545.4951">«instantiates»</text><!--MD5=[266e22e6b7bd1210277f4fdad7bb5732]
link Domain.DltTraceDecoderFactory to RJCP.Diagnostics.Log.Decoder.DltTraceDecoderBase--><path codeLine="49" d="M509,499.16 C509,534.33 509,601.15 509,639.34 " fill="none" id="Domain.DltTraceDecoderFactory-to-RJCP.Diagnostics.Log.Decoder.DltTraceDecoderBase" style="stroke:#A80036;stroke-width:1.0;"/><polygon fill="#A80036" points="509,644.76,513,635.76,509,639.76,505,635.76,509,644.76" style="stroke:#A80036;stroke-width:1.0;"/><text fill="#000000" font-family="sans-serif" font-size="13" lengthAdjust="spacing" textLength="81" x="510" y="545.4951">«instantiates»</text><!--MD5=[07eb4ee47c3699c0c7aeafc66b5c775f]
reverse link Domain.DltTraceDecoderFactory to System.IO.Stream--><path codeLine="50" d="M474.47,508.1 C460.08,521.12 443.01,536.11 427,549 C422.29,552.79 420.21,552.67 416,557 C389.79,583.96 366.49,620.92 352.8,644.63 " fill="none" id="Domain.DltTraceDecoderFactory-backto-System.IO.Stream" style="stroke:#A80036;stroke-width:1.0;"/><polygon fill="#FFFFFF" points="484.43,499.02,477.3015,500.1084,475.5645,507.1072,482.693,506.0188,484.43,499.02" style="stroke:#A80036;stroke-width:1.0;"/><!--MD5=[02b4fe38d0926d7482235997385c7bbc]
@startuml App.Filter.Initialization

namespace View {
    class CommandFactory

    interface ICommand
    class FilterCommand

    ICommand <|.l.FilterCommand

    CommandFactory - -> FilterCommand : <<instantiates>>

    FilterCommand - -> Application.FilterApp
    FilterCommand - -> Application.FilterConfig : <<instantiates>>
}

'View.HelpCommand - -> Framework.System.Console

namespace Application {
    class FilterApp
    class FilterConfig

    FilterConfig o-r- FilterApp

    FilterApp *-d- Domain.InputStreamFactory
    FilterApp *-d- Domain.DltTraceDecoderFactory
    FilterApp o-d- Domain.IInputStream
    FilterApp *-d- Domain.IOutputStream
}

namespace Domain {
    class InputStreamFactory
    interface IInputStream
    class DltTraceDecoderFactory
    interface IOutputStream

    InputStreamFactory -r-> IInputStream : <<instantiates>>
}

namespace Framework {
    namespace System.IO {
        class Stream
    }

    namespace RJCP.Diagnostics.Log.Decoder {
        class DltTraceDecoderBase
    }

    Domain.IInputStream *-d- System.IO.Stream : <<instantiates>>
    Domain.DltTraceDecoderFactory - -> RJCP.Diagnostics.Log.Decoder.DltTraceDecoderBase : <<instantiates>>
    Domain.DltTraceDecoderFactory o-d- System.IO.Stream
}

@enduml

@startuml App.Filter.Initialization

namespace View {
    class CommandFactory

    interface ICommand
    class FilterCommand

    ICommand <|.l.FilterCommand

    CommandFactory - -> FilterCommand : <<instantiates>>

    FilterCommand - -> Application.FilterApp
    FilterCommand - -> Application.FilterConfig : <<instantiates>>
}


namespace Application {
    class FilterApp
    class FilterConfig

    FilterConfig o-r- FilterApp

    FilterApp *-d- Domain.InputStreamFactory
    FilterApp *-d- Domain.DltTraceDecoderFactory
    FilterApp o-d- Domain.IInputStream
    FilterApp *-d- Domain.IOutputStream
}

namespace Domain {
    class InputStreamFactory
    interface IInputStream
    class DltTraceDecoderFactory
    interface IOutputStream

    InputStreamFactory -r-> IInputStream : <<instantiates>>
}

namespace Framework {
    namespace System.IO {
        class Stream
    }

    namespace RJCP.Diagnostics.Log.Decoder {
        class DltTraceDecoderBase
    }

    Domain.IInputStream *-d- System.IO.Stream : <<instantiates>>
    Domain.DltTraceDecoderFactory - -> RJCP.Diagnostics.Log.Decoder.DltTraceDecoderBase : <<instantiates>>
    Domain.DltTraceDecoderFactory o-d- System.IO.Stream
}

@enduml

PlantUML version 1.2022.0(Tue Jan 11 17:16:42 CET 2022)
(GPL source distribution)
Java Runtime: Java(TM) SE Runtime Environment
JVM: Java HotSpot(TM) Client VM
Default Encoding: Cp1252
Language: en
Country: US
--></g></svg>