<?xml version="1.0" encoding="UTF-8" standalone="no"?><svg xmlns="http://www.w3.org/2000/svg" xmlns:xlink="http://www.w3.org/1999/xlink" contentScriptType="application/ecmascript" contentStyleType="text/css" height="740px" preserveAspectRatio="none" style="width:690px;height:740px;background:#FFFFFF;" version="1.1" viewBox="0 0 690 740" width="690px" zoomAndPan="magnify"><defs><filter height="300%" id="f1cqq2lmt9nbk1" width="300%" x="-1" y="-1"><feGaussianBlur result="blurOut" stdDeviation="2.0"/><feColorMatrix in="blurOut" result="blurOut2" type="matrix" values="0 0 0 0 0 0 0 0 0 0 0 0 0 0 0 0 0 0 .4 0"/><feOffset dx="4.0" dy="4.0" in="blurOut2" result="blurOut3"/><feBlend in="SourceGraphic" in2="blurOut3" mode="normal"/></filter></defs><g><!--MD5=[e320b41f2d43b11d6de1346cab4ea5fc]
cluster View--><polygon fill="#FFFFFF" filter="url(#f1cqq2lmt9nbk1)" points="203,6,242,6,249,29.6094,484,29.6094,484,232,203,232,203,6" style="stroke:#000000;stroke-width:1.5;"/><line style="stroke:#000000;stroke-width:1.5;" x1="203" x2="249" y1="29.6094" y2="29.6094"/><text fill="#000000" font-family="sans-serif" font-size="14" font-weight="bold" lengthAdjust="spacing" textLength="33" x="207" y="22.5332">View</text><!--MD5=[d64883541e3d62e3241c4d12decf100d]
cluster Application--><polygon fill="#FFFFFF" filter="url(#f1cqq2lmt9nbk1)" points="153,282,237,282,244,305.6094,396,305.6094,396,382,153,382,153,282" style="stroke:#000000;stroke-width:1.5;"/><line style="stroke:#000000;stroke-width:1.5;" x1="153" x2="244" y1="305.6094" y2="305.6094"/><text fill="#000000" font-family="sans-serif" font-size="14" font-weight="bold" lengthAdjust="spacing" textLength="78" x="157" y="298.5332">Application</text><!--MD5=[121a8bf1197281ab89ed693fab589f94]
cluster Domain--><polygon fill="#FFFFFF" filter="url(#f1cqq2lmt9nbk1)" points="16,415,74,415,81,438.6094,607,438.6094,607,515,16,515,16,415" style="stroke:#000000;stroke-width:1.5;"/><line style="stroke:#000000;stroke-width:1.5;" x1="16" x2="81" y1="438.6094" y2="438.6094"/><text fill="#000000" font-family="sans-serif" font-size="14" font-weight="bold" lengthAdjust="spacing" textLength="52" x="20" y="431.5332">Domain</text><!--MD5=[a3db38b29c3436960cdd3b658ea5cf84]
cluster Framework--><polygon fill="#FFFFFF" filter="url(#f1cqq2lmt9nbk1)" points="264,565,348,565,355,588.6094,673,588.6094,673,733,264,733,264,565" style="stroke:#000000;stroke-width:1.5;"/><line style="stroke:#000000;stroke-width:1.5;" x1="264" x2="355" y1="588.6094" y2="588.6094"/><text fill="#000000" font-family="sans-serif" font-size="14" font-weight="bold" lengthAdjust="spacing" textLength="78" x="268" y="581.5332">Framework</text><!--MD5=[d9ea02e02d5504d0b2c661147963476c]
cluster System.IO--><polygon fill="#FFFFFF" filter="url(#f1cqq2lmt9nbk1)" points="288,609,363,609,370,632.6094,392,632.6094,392,709,288,709,288,609" style="stroke:#000000;stroke-width:1.5;"/><line style="stroke:#000000;stroke-width:1.5;" x1="288" x2="370" y1="632.6094" y2="632.6094"/><text fill="#000000" font-family="sans-serif" font-size="14" font-weight="bold" lengthAdjust="spacing" textLength="69" x="292" y="625.5332">System.IO</text><!--MD5=[cdc60274d58b480fe3b1301cbded6bed]
cluster RJCP.Diagnostics.Log.Decoder--><polygon fill="#FFFFFF" filter="url(#f1cqq2lmt9nbk1)" points="416,609,639,609,646,632.6094,649,632.6094,649,709,416,709,416,609" style="stroke:#000000;stroke-width:1.5;"/><line style="stroke:#000000;stroke-width:1.5;" x1="416" x2="646" y1="632.6094" y2="632.6094"/><text fill="#000000" font-family="sans-serif" font-size="14" font-weight="bold" lengthAdjust="spacing" textLength="217" x="420" y="625.5332">RJCP.Diagnostics.Log.Decoder</text><!--MD5=[5cbf0e0c9e584acdcd75316a3ed38df0]
class View.CommandFactory--><rect codeLine="3" fill="#FEFECE" filter="url(#f1cqq2lmt9nbk1)" height="48" id="View.CommandFactory" style="stroke:#A80036;stroke-width:1.5;" width="130" x="219" y="42"/><ellipse cx="234" cy="58" fill="#ADD1B2" rx="11" ry="11" style="stroke:#A80036;stroke-width:1.0;"/><path d="M236.7656,53.875 Q236.9219,53.6563 237.1094,53.5469 Q237.2969,53.4375 237.5156,53.4375 Q237.8906,53.4375 238.125,53.6953 Q238.3594,53.9531 238.3594,54.5625 L238.3594,56.0156 Q238.3594,56.625 238.125,56.8906 Q237.8906,57.1563 237.5156,57.1563 Q237.1719,57.1563 236.9688,56.9531 Q236.7656,56.7656 236.6563,56.25 Q236.6094,55.8906 236.4219,55.7031 Q236.0938,55.3281 235.4844,55.1094 Q234.875,54.8906 234.25,54.8906 Q233.4844,54.8906 232.8516,55.2188 Q232.2188,55.5469 231.7266,56.2969 Q231.2344,57.0469 231.2344,58.0781 L231.2344,59.1719 Q231.2344,60.4063 232.125,61.2266 Q233.0156,62.0469 234.6094,62.0469 Q235.5469,62.0469 236.2031,61.7969 Q236.5938,61.6406 237.0156,61.2031 Q237.2813,60.9375 237.4297,60.8594 Q237.5781,60.7813 237.7813,60.7813 Q238.1094,60.7813 238.3672,61.0391 Q238.625,61.2969 238.625,61.6406 Q238.625,61.9844 238.2813,62.3906 Q237.7813,62.9688 236.9844,63.2969 Q235.9063,63.75 234.6094,63.75 Q233.0938,63.75 231.8906,63.125 Q230.9063,62.625 230.2188,61.5547 Q229.5313,60.4844 229.5313,59.2031 L229.5313,58.0469 Q229.5313,56.7188 230.1484,55.5703 Q230.7656,54.4219 231.8594,53.8047 Q232.9531,53.1875 234.1875,53.1875 Q234.9219,53.1875 235.5703,53.3516 Q236.2188,53.5156 236.7656,53.875 Z " fill="#000000"/><text fill="#000000" font-family="sans-serif" font-size="12" lengthAdjust="spacing" textLength="98" x="248" y="62.9102">CommandFactory</text><line style="stroke:#A80036;stroke-width:1.5;" x1="220" x2="348" y1="74" y2="74"/><line style="stroke:#A80036;stroke-width:1.5;" x1="220" x2="348" y1="82" y2="82"/><!--MD5=[2092deacab3d021e8fbebc0eebd009ce]
class View.ICommand--><rect codeLine="5" fill="#FEFECE" filter="url(#f1cqq2lmt9nbk1)" height="48" id="View.ICommand" style="stroke:#A80036;stroke-width:1.5;" width="95" x="372.5" y="168"/><ellipse cx="387.5" cy="184" fill="#B4A7E5" rx="11" ry="11" style="stroke:#A80036;stroke-width:1.0;"/><path d="M388.4531,180.6406 L388.4531,187.2969 L390.1719,187.2969 Q390.7813,187.2969 391.0469,187.5313 Q391.3125,187.7656 391.3125,188.1563 Q391.3125,188.5313 391.0469,188.7656 Q390.7813,189 390.1719,189 L385.0313,189 Q384.4219,189 384.1563,188.7656 Q383.8906,188.5313 383.8906,188.1406 Q383.8906,187.7656 384.1563,187.5313 Q384.4219,187.2969 385.0313,187.2969 L386.75,187.2969 L386.75,180.6406 L385.0313,180.6406 Q384.4219,180.6406 384.1563,180.4063 Q383.8906,180.1719 383.8906,179.7813 Q383.8906,179.4063 384.1563,179.1719 Q384.4219,178.9375 385.0313,178.9375 L390.1719,178.9375 Q390.7813,178.9375 391.0469,179.1719 Q391.3125,179.4063 391.3125,179.7813 Q391.3125,180.1719 391.0469,180.4063 Q390.7813,180.6406 390.1719,180.6406 L388.4531,180.6406 Z " fill="#000000"/><text fill="#000000" font-family="sans-serif" font-size="12" font-style="italic" lengthAdjust="spacing" textLength="63" x="401.5" y="188.9102">ICommand</text><line style="stroke:#A80036;stroke-width:1.5;" x1="373.5" x2="466.5" y1="200" y2="200"/><line style="stroke:#A80036;stroke-width:1.5;" x1="373.5" x2="466.5" y1="208" y2="208"/><!--MD5=[b5e12acb1e3b04f2e012989d3d66eeca]
class View.FilterCommand--><rect codeLine="6" fill="#FEFECE" filter="url(#f1cqq2lmt9nbk1)" height="48" id="View.FilterCommand" style="stroke:#A80036;stroke-width:1.5;" width="118" x="219" y="168"/><ellipse cx="234" cy="184" fill="#ADD1B2" rx="11" ry="11" style="stroke:#A80036;stroke-width:1.0;"/><path d="M236.7656,179.875 Q236.9219,179.6563 237.1094,179.5469 Q237.2969,179.4375 237.5156,179.4375 Q237.8906,179.4375 238.125,179.6953 Q238.3594,179.9531 238.3594,180.5625 L238.3594,182.0156 Q238.3594,182.625 238.125,182.8906 Q237.8906,183.1563 237.5156,183.1563 Q237.1719,183.1563 236.9688,182.9531 Q236.7656,182.7656 236.6563,182.25 Q236.6094,181.8906 236.4219,181.7031 Q236.0938,181.3281 235.4844,181.1094 Q234.875,180.8906 234.25,180.8906 Q233.4844,180.8906 232.8516,181.2188 Q232.2188,181.5469 231.7266,182.2969 Q231.2344,183.0469 231.2344,184.0781 L231.2344,185.1719 Q231.2344,186.4063 232.125,187.2266 Q233.0156,188.0469 234.6094,188.0469 Q235.5469,188.0469 236.2031,187.7969 Q236.5938,187.6406 237.0156,187.2031 Q237.2813,186.9375 237.4297,186.8594 Q237.5781,186.7813 237.7813,186.7813 Q238.1094,186.7813 238.3672,187.0391 Q238.625,187.2969 238.625,187.6406 Q238.625,187.9844 238.2813,188.3906 Q237.7813,188.9688 236.9844,189.2969 Q235.9063,189.75 234.6094,189.75 Q233.0938,189.75 231.8906,189.125 Q230.9063,188.625 230.2188,187.5547 Q229.5313,186.4844 229.5313,185.2031 L229.5313,184.0469 Q229.5313,182.7188 230.1484,181.5703 Q230.7656,180.4219 231.8594,179.8047 Q232.9531,179.1875 234.1875,179.1875 Q234.9219,179.1875 235.5703,179.3516 Q236.2188,179.5156 236.7656,179.875 Z " fill="#000000"/><text fill="#000000" font-family="sans-serif" font-size="12" lengthAdjust="spacing" textLength="86" x="248" y="188.9102">FilterCommand</text><line style="stroke:#A80036;stroke-width:1.5;" x1="220" x2="336" y1="200" y2="200"/><line style="stroke:#A80036;stroke-width:1.5;" x1="220" x2="336" y1="208" y2="208"/><!--MD5=[07ba3457c8428d9f947b9b0f8ed8530c]
class Application.FilterApp--><rect codeLine="19" fill="#FEFECE" filter="url(#f1cqq2lmt9nbk1)" height="48" id="Application.FilterApp" style="stroke:#A80036;stroke-width:1.5;" width="80" x="300" y="318"/><ellipse cx="315" cy="334" fill="#ADD1B2" rx="11" ry="11" style="stroke:#A80036;stroke-width:1.0;"/><path d="M317.7656,329.875 Q317.9219,329.6563 318.1094,329.5469 Q318.2969,329.4375 318.5156,329.4375 Q318.8906,329.4375 319.125,329.6953 Q319.3594,329.9531 319.3594,330.5625 L319.3594,332.0156 Q319.3594,332.625 319.125,332.8906 Q318.8906,333.1563 318.5156,333.1563 Q318.1719,333.1563 317.9688,332.9531 Q317.7656,332.7656 317.6563,332.25 Q317.6094,331.8906 317.4219,331.7031 Q317.0938,331.3281 316.4844,331.1094 Q315.875,330.8906 315.25,330.8906 Q314.4844,330.8906 313.8516,331.2188 Q313.2188,331.5469 312.7266,332.2969 Q312.2344,333.0469 312.2344,334.0781 L312.2344,335.1719 Q312.2344,336.4063 313.125,337.2266 Q314.0156,338.0469 315.6094,338.0469 Q316.5469,338.0469 317.2031,337.7969 Q317.5938,337.6406 318.0156,337.2031 Q318.2813,336.9375 318.4297,336.8594 Q318.5781,336.7813 318.7813,336.7813 Q319.1094,336.7813 319.3672,337.0391 Q319.625,337.2969 319.625,337.6406 Q319.625,337.9844 319.2813,338.3906 Q318.7813,338.9688 317.9844,339.2969 Q316.9063,339.75 315.6094,339.75 Q314.0938,339.75 312.8906,339.125 Q311.9063,338.625 311.2188,337.5547 Q310.5313,336.4844 310.5313,335.2031 L310.5313,334.0469 Q310.5313,332.7188 311.1484,331.5703 Q311.7656,330.4219 312.8594,329.8047 Q313.9531,329.1875 315.1875,329.1875 Q315.9219,329.1875 316.5703,329.3516 Q317.2188,329.5156 317.7656,329.875 Z " fill="#000000"/><text fill="#000000" font-family="sans-serif" font-size="12" lengthAdjust="spacing" textLength="48" x="329" y="338.9102">FilterApp</text><line style="stroke:#A80036;stroke-width:1.5;" x1="301" x2="379" y1="350" y2="350"/><line style="stroke:#A80036;stroke-width:1.5;" x1="301" x2="379" y1="358" y2="358"/><!--MD5=[280da483ebb0501053878a915c36130b]
class Application.FilterConfig--><rect codeLine="20" fill="#FEFECE" filter="url(#f1cqq2lmt9nbk1)" height="48" id="Application.FilterConfig" style="stroke:#A80036;stroke-width:1.5;" width="95" x="169.5" y="318"/><ellipse cx="184.5" cy="334" fill="#ADD1B2" rx="11" ry="11" style="stroke:#A80036;stroke-width:1.0;"/><path d="M187.2656,329.875 Q187.4219,329.6563 187.6094,329.5469 Q187.7969,329.4375 188.0156,329.4375 Q188.3906,329.4375 188.625,329.6953 Q188.8594,329.9531 188.8594,330.5625 L188.8594,332.0156 Q188.8594,332.625 188.625,332.8906 Q188.3906,333.1563 188.0156,333.1563 Q187.6719,333.1563 187.4688,332.9531 Q187.2656,332.7656 187.1563,332.25 Q187.1094,331.8906 186.9219,331.7031 Q186.5938,331.3281 185.9844,331.1094 Q185.375,330.8906 184.75,330.8906 Q183.9844,330.8906 183.3516,331.2188 Q182.7188,331.5469 182.2266,332.2969 Q181.7344,333.0469 181.7344,334.0781 L181.7344,335.1719 Q181.7344,336.4063 182.625,337.2266 Q183.5156,338.0469 185.1094,338.0469 Q186.0469,338.0469 186.7031,337.7969 Q187.0938,337.6406 187.5156,337.2031 Q187.7813,336.9375 187.9297,336.8594 Q188.0781,336.7813 188.2813,336.7813 Q188.6094,336.7813 188.8672,337.0391 Q189.125,337.2969 189.125,337.6406 Q189.125,337.9844 188.7813,338.3906 Q188.2813,338.9688 187.4844,339.2969 Q186.4063,339.75 185.1094,339.75 Q183.5938,339.75 182.3906,339.125 Q181.4063,338.625 180.7188,337.5547 Q180.0313,336.4844 180.0313,335.2031 L180.0313,334.0469 Q180.0313,332.7188 180.6484,331.5703 Q181.2656,330.4219 182.3594,329.8047 Q183.4531,329.1875 184.6875,329.1875 Q185.4219,329.1875 186.0703,329.3516 Q186.7188,329.5156 187.2656,329.875 Z " fill="#000000"/><text fill="#000000" font-family="sans-serif" font-size="12" lengthAdjust="spacing" textLength="63" x="198.5" y="338.9102">FilterConfig</text><line style="stroke:#A80036;stroke-width:1.5;" x1="170.5" x2="263.5" y1="350" y2="350"/><line style="stroke:#A80036;stroke-width:1.5;" x1="170.5" x2="263.5" y1="358" y2="358"/><!--MD5=[a1b4cfca9be193a170fc56f1bb06f3d9]
class Domain.InputStreamFactory--><rect codeLine="30" fill="#FEFECE" filter="url(#f1cqq2lmt9nbk1)" height="48" id="Domain.InputStreamFactory" style="stroke:#A80036;stroke-width:1.5;" width="138" x="32" y="451"/><ellipse cx="47" cy="467" fill="#ADD1B2" rx="11" ry="11" style="stroke:#A80036;stroke-width:1.0;"/><path d="M49.7656,462.875 Q49.9219,462.6563 50.1094,462.5469 Q50.2969,462.4375 50.5156,462.4375 Q50.8906,462.4375 51.125,462.6953 Q51.3594,462.9531 51.3594,463.5625 L51.3594,465.0156 Q51.3594,465.625 51.125,465.8906 Q50.8906,466.1563 50.5156,466.1563 Q50.1719,466.1563 49.9688,465.9531 Q49.7656,465.7656 49.6563,465.25 Q49.6094,464.8906 49.4219,464.7031 Q49.0938,464.3281 48.4844,464.1094 Q47.875,463.8906 47.25,463.8906 Q46.4844,463.8906 45.8516,464.2188 Q45.2188,464.5469 44.7266,465.2969 Q44.2344,466.0469 44.2344,467.0781 L44.2344,468.1719 Q44.2344,469.4063 45.125,470.2266 Q46.0156,471.0469 47.6094,471.0469 Q48.5469,471.0469 49.2031,470.7969 Q49.5938,470.6406 50.0156,470.2031 Q50.2813,469.9375 50.4297,469.8594 Q50.5781,469.7813 50.7813,469.7813 Q51.1094,469.7813 51.3672,470.0391 Q51.625,470.2969 51.625,470.6406 Q51.625,470.9844 51.2813,471.3906 Q50.7813,471.9688 49.9844,472.2969 Q48.9063,472.75 47.6094,472.75 Q46.0938,472.75 44.8906,472.125 Q43.9063,471.625 43.2188,470.5547 Q42.5313,469.4844 42.5313,468.2031 L42.5313,467.0469 Q42.5313,465.7188 43.1484,464.5703 Q43.7656,463.4219 44.8594,462.8047 Q45.9531,462.1875 47.1875,462.1875 Q47.9219,462.1875 48.5703,462.3516 Q49.2188,462.5156 49.7656,462.875 Z " fill="#000000"/><text fill="#000000" font-family="sans-serif" font-size="12" lengthAdjust="spacing" textLength="106" x="61" y="471.9102">InputStreamFactory</text><line style="stroke:#A80036;stroke-width:1.5;" x1="33" x2="169" y1="483" y2="483"/><line style="stroke:#A80036;stroke-width:1.5;" x1="33" x2="169" y1="491" y2="491"/><!--MD5=[d218c6afc6f8c372ae5afb36c62493b8]
class Domain.DltTraceDecoderFactory--><rect codeLine="32" fill="#FEFECE" filter="url(#f1cqq2lmt9nbk1)" height="48" id="Domain.DltTraceDecoderFactory" style="stroke:#A80036;stroke-width:1.5;" width="164" x="427" y="451"/><ellipse cx="442" cy="467" fill="#ADD1B2" rx="11" ry="11" style="stroke:#A80036;stroke-width:1.0;"/><path d="M444.7656,462.875 Q444.9219,462.6563 445.1094,462.5469 Q445.2969,462.4375 445.5156,462.4375 Q445.8906,462.4375 446.125,462.6953 Q446.3594,462.9531 446.3594,463.5625 L446.3594,465.0156 Q446.3594,465.625 446.125,465.8906 Q445.8906,466.1563 445.5156,466.1563 Q445.1719,466.1563 444.9688,465.9531 Q444.7656,465.7656 444.6563,465.25 Q444.6094,464.8906 444.4219,464.7031 Q444.0938,464.3281 443.4844,464.1094 Q442.875,463.8906 442.25,463.8906 Q441.4844,463.8906 440.8516,464.2188 Q440.2188,464.5469 439.7266,465.2969 Q439.2344,466.0469 439.2344,467.0781 L439.2344,468.1719 Q439.2344,469.4063 440.125,470.2266 Q441.0156,471.0469 442.6094,471.0469 Q443.5469,471.0469 444.2031,470.7969 Q444.5938,470.6406 445.0156,470.2031 Q445.2813,469.9375 445.4297,469.8594 Q445.5781,469.7813 445.7813,469.7813 Q446.1094,469.7813 446.3672,470.0391 Q446.625,470.2969 446.625,470.6406 Q446.625,470.9844 446.2813,471.3906 Q445.7813,471.9688 444.9844,472.2969 Q443.9063,472.75 442.6094,472.75 Q441.0938,472.75 439.8906,472.125 Q438.9063,471.625 438.2188,470.5547 Q437.5313,469.4844 437.5313,468.2031 L437.5313,467.0469 Q437.5313,465.7188 438.1484,464.5703 Q438.7656,463.4219 439.8594,462.8047 Q440.9531,462.1875 442.1875,462.1875 Q442.9219,462.1875 443.5703,462.3516 Q444.2188,462.5156 444.7656,462.875 Z " fill="#000000"/><text fill="#000000" font-family="sans-serif" font-size="12" lengthAdjust="spacing" textLength="132" x="456" y="471.9102">DltTraceDecoderFactory</text><line style="stroke:#A80036;stroke-width:1.5;" x1="428" x2="590" y1="483" y2="483"/><line style="stroke:#A80036;stroke-width:1.5;" x1="428" x2="590" y1="491" y2="491"/><!--MD5=[367a658869742881ac8a4a0b22d6209d]
class Domain.IInputStream--><rect codeLine="31" fill="#FEFECE" filter="url(#f1cqq2lmt9nbk1)" height="48" id="Domain.IInputStream" style="stroke:#A80036;stroke-width:1.5;" width="104" x="288" y="451"/><ellipse cx="303" cy="467" fill="#B4A7E5" rx="11" ry="11" style="stroke:#A80036;stroke-width:1.0;"/><path d="M303.9531,463.6406 L303.9531,470.2969 L305.6719,470.2969 Q306.2813,470.2969 306.5469,470.5313 Q306.8125,470.7656 306.8125,471.1563 Q306.8125,471.5313 306.5469,471.7656 Q306.2813,472 305.6719,472 L300.5313,472 Q299.9219,472 299.6563,471.7656 Q299.3906,471.5313 299.3906,471.1406 Q299.3906,470.7656 299.6563,470.5313 Q299.9219,470.2969 300.5313,470.2969 L302.25,470.2969 L302.25,463.6406 L300.5313,463.6406 Q299.9219,463.6406 299.6563,463.4063 Q299.3906,463.1719 299.3906,462.7813 Q299.3906,462.4063 299.6563,462.1719 Q299.9219,461.9375 300.5313,461.9375 L305.6719,461.9375 Q306.2813,461.9375 306.5469,462.1719 Q306.8125,462.4063 306.8125,462.7813 Q306.8125,463.1719 306.5469,463.4063 Q306.2813,463.6406 305.6719,463.6406 L303.9531,463.6406 Z " fill="#000000"/><text fill="#000000" font-family="sans-serif" font-size="12" font-style="italic" lengthAdjust="spacing" textLength="72" x="317" y="471.9102">IInputStream</text><line style="stroke:#A80036;stroke-width:1.5;" x1="289" x2="391" y1="483" y2="483"/><line style="stroke:#A80036;stroke-width:1.5;" x1="289" x2="391" y1="491" y2="491"/><!--MD5=[e69c4169d9a44b556d1c3eb801b8f02a]
class System.IO.Stream--><rect codeLine="39" fill="#FEFECE" filter="url(#f1cqq2lmt9nbk1)" height="48" id="System.IO.Stream" style="stroke:#A80036;stroke-width:1.5;" width="72" x="304" y="645"/><ellipse cx="319" cy="661" fill="#ADD1B2" rx="11" ry="11" style="stroke:#A80036;stroke-width:1.0;"/><path d="M321.7656,656.875 Q321.9219,656.6563 322.1094,656.5469 Q322.2969,656.4375 322.5156,656.4375 Q322.8906,656.4375 323.125,656.6953 Q323.3594,656.9531 323.3594,657.5625 L323.3594,659.0156 Q323.3594,659.625 323.125,659.8906 Q322.8906,660.1563 322.5156,660.1563 Q322.1719,660.1563 321.9688,659.9531 Q321.7656,659.7656 321.6563,659.25 Q321.6094,658.8906 321.4219,658.7031 Q321.0938,658.3281 320.4844,658.1094 Q319.875,657.8906 319.25,657.8906 Q318.4844,657.8906 317.8516,658.2188 Q317.2188,658.5469 316.7266,659.2969 Q316.2344,660.0469 316.2344,661.0781 L316.2344,662.1719 Q316.2344,663.4063 317.125,664.2266 Q318.0156,665.0469 319.6094,665.0469 Q320.5469,665.0469 321.2031,664.7969 Q321.5938,664.6406 322.0156,664.2031 Q322.2813,663.9375 322.4297,663.8594 Q322.5781,663.7813 322.7813,663.7813 Q323.1094,663.7813 323.3672,664.0391 Q323.625,664.2969 323.625,664.6406 Q323.625,664.9844 323.2813,665.3906 Q322.7813,665.9688 321.9844,666.2969 Q320.9063,666.75 319.6094,666.75 Q318.0938,666.75 316.8906,666.125 Q315.9063,665.625 315.2188,664.5547 Q314.5313,663.4844 314.5313,662.2031 L314.5313,661.0469 Q314.5313,659.7188 315.1484,658.5703 Q315.7656,657.4219 316.8594,656.8047 Q317.9531,656.1875 319.1875,656.1875 Q319.9219,656.1875 320.5703,656.3516 Q321.2188,656.5156 321.7656,656.875 Z " fill="#000000"/><text fill="#000000" font-family="sans-serif" font-size="12" lengthAdjust="spacing" textLength="40" x="333" y="665.9102">Stream</text><line style="stroke:#A80036;stroke-width:1.5;" x1="305" x2="375" y1="677" y2="677"/><line style="stroke:#A80036;stroke-width:1.5;" x1="305" x2="375" y1="685" y2="685"/><!--MD5=[bd0aa9b8a552675fa90a55280af24b13]
class RJCP.Diagnostics.Log.Decoder.DltTraceDecoderBase--><rect codeLine="43" fill="#FEFECE" filter="url(#f1cqq2lmt9nbk1)" height="48" id="RJCP.Diagnostics.Log.Decoder.DltTraceDecoderBase" style="stroke:#A80036;stroke-width:1.5;" width="154" x="432" y="645"/><ellipse cx="447" cy="661" fill="#ADD1B2" rx="11" ry="11" style="stroke:#A80036;stroke-width:1.0;"/><path d="M449.7656,656.875 Q449.9219,656.6563 450.1094,656.5469 Q450.2969,656.4375 450.5156,656.4375 Q450.8906,656.4375 451.125,656.6953 Q451.3594,656.9531 451.3594,657.5625 L451.3594,659.0156 Q451.3594,659.625 451.125,659.8906 Q450.8906,660.1563 450.5156,660.1563 Q450.1719,660.1563 449.9688,659.9531 Q449.7656,659.7656 449.6563,659.25 Q449.6094,658.8906 449.4219,658.7031 Q449.0938,658.3281 448.4844,658.1094 Q447.875,657.8906 447.25,657.8906 Q446.4844,657.8906 445.8516,658.2188 Q445.2188,658.5469 444.7266,659.2969 Q444.2344,660.0469 444.2344,661.0781 L444.2344,662.1719 Q444.2344,663.4063 445.125,664.2266 Q446.0156,665.0469 447.6094,665.0469 Q448.5469,665.0469 449.2031,664.7969 Q449.5938,664.6406 450.0156,664.2031 Q450.2813,663.9375 450.4297,663.8594 Q450.5781,663.7813 450.7813,663.7813 Q451.1094,663.7813 451.3672,664.0391 Q451.625,664.2969 451.625,664.6406 Q451.625,664.9844 451.2813,665.3906 Q450.7813,665.9688 449.9844,666.2969 Q448.9063,666.75 447.6094,666.75 Q446.0938,666.75 444.8906,666.125 Q443.9063,665.625 443.2188,664.5547 Q442.5313,663.4844 442.5313,662.2031 L442.5313,661.0469 Q442.5313,659.7188 443.1484,658.5703 Q443.7656,657.4219 444.8594,656.8047 Q445.9531,656.1875 447.1875,656.1875 Q447.9219,656.1875 448.5703,656.3516 Q449.2188,656.5156 449.7656,656.875 Z " fill="#000000"/><text fill="#000000" font-family="sans-serif" font-size="12" lengthAdjust="spacing" textLength="122" x="461" y="665.9102">DltTraceDecoderBase</text><line style="stroke:#A80036;stroke-width:1.5;" x1="433" x2="585" y1="677" y2="677"/><line style="stroke:#A80036;stroke-width:1.5;" x1="433" x2="585" y1="685" y2="685"/><!--MD5=[5fb0df66d7e2645df075a57177980da2]
link View.FilterCommand to View.ICommand--><path codeLine="8" d="M337.07,192 C342.13,192 347.19,192 352.25,192 " fill="none" id="View.FilterCommand-to-View.ICommand" style="stroke:#A80036;stroke-width:1.0;stroke-dasharray:7.0,7.0;"/><polygon fill="none" points="352.38,185,372.38,192,352.38,199,352.38,185" style="stroke:#A80036;stroke-width:1.0;"/><!--MD5=[c302b4bd5becef95b9e60e19bee84d3a]
link View.CommandFactory to View.FilterCommand--><path codeLine="10" d="M282.89,90.03 C281.89,110.52 280.44,140.56 279.38,162.55 " fill="none" id="View.CommandFactory-to-View.FilterCommand" style="stroke:#A80036;stroke-width:1.0;"/><polygon fill="#A80036" points="279.13,167.67,283.5619,158.8747,279.3726,162.6759,275.5713,158.4865,279.13,167.67" style="stroke:#A80036;stroke-width:1.0;"/><text fill="#000000" font-family="sans-serif" font-size="13" lengthAdjust="spacing" textLength="81" x="282" y="134.4951">«instantiates»</text><!--MD5=[51640305ef3558bfabf58fc19d424563]
link View.FilterCommand to Application.FilterApp--><path codeLine="12" d="M294.88,216.26 C301.21,225.76 308.06,237.07 313,248 C322.43,268.86 329.47,293.85 333.99,312.67 " fill="none" id="View.FilterCommand-to-Application.FilterApp" style="stroke:#A80036;stroke-width:1.0;"/><polygon fill="#A80036" points="335.2,317.8,337.0386,308.1243,334.058,312.9322,329.2501,309.9515,335.2,317.8" style="stroke:#A80036;stroke-width:1.0;"/><!--MD5=[7b1efb3cd862e90840330d69a5f2a2d6]
link View.FilterCommand to Application.FilterConfig--><path codeLine="13" d="M249.67,216.05 C240.57,225.03 231.44,236.04 226,248 C216.79,268.24 214.86,293.48 215.06,312.55 " fill="none" id="View.FilterCommand-to-Application.FilterConfig" style="stroke:#A80036;stroke-width:1.0;"/><polygon fill="#A80036" points="215.17,317.76,218.9892,308.6818,215.07,312.761,210.9908,308.8418,215.17,317.76" style="stroke:#A80036;stroke-width:1.0;"/><text fill="#000000" font-family="sans-serif" font-size="13" lengthAdjust="spacing" textLength="81" x="227" y="262.4951">«instantiates»</text><!--MD5=[3c807a1f97ab3c7fb51e3fb480f9b2c3]
reverse link Application.FilterConfig to Application.FilterApp--><path codeLine="22" d="M277.83,342 C285.19,342 292.56,342 299.93,342 " fill="none" id="Application.FilterConfig-backto-Application.FilterApp" style="stroke:#A80036;stroke-width:1.0;"/><polygon fill="#FFFFFF" points="264.57,342,270.57,346,276.57,342,270.57,338,264.57,342" style="stroke:#A80036;stroke-width:1.0;"/><!--MD5=[4c03ab4938583df0e480eb3637b0d53f]
reverse link Application.FilterApp to Domain.InputStreamFactory--><path codeLine="24" d="M303.66,374.69 C296.69,380.11 289.29,385.45 282,390 C243.35,414.11 196.65,435.62 160.36,450.83 " fill="none" id="Application.FilterApp-backto-Domain.InputStreamFactory" style="stroke:#A80036;stroke-width:1.0;"/><polygon fill="#A80036" points="314.17,366.21,306.9885,366.8631,304.8293,373.7433,312.0107,373.0902,314.17,366.21" style="stroke:#A80036;stroke-width:1.0;"/><!--MD5=[75bc09e5632cefbd9098f309a2ac4a44]
reverse link Application.FilterApp to Domain.DltTraceDecoderFactory--><path codeLine="25" d="M380.49,374.39 C410.87,397.93 451.77,429.64 479.19,450.89 " fill="none" id="Application.FilterApp-backto-Domain.DltTraceDecoderFactory" style="stroke:#A80036;stroke-width:1.0;"/><polygon fill="#A80036" points="369.82,366.12,372.1076,372.9586,379.3,373.4772,377.0124,366.6386,369.82,366.12" style="stroke:#A80036;stroke-width:1.0;"/><!--MD5=[7d003d0561f7e0546c399501860e8221]
reverse link Application.FilterApp to Domain.IInputStream--><path codeLine="26" d="M340,379.42 C340,402.21 340,430.9 340,450.67 " fill="none" id="Application.FilterApp-backto-Domain.IInputStream" style="stroke:#A80036;stroke-width:1.0;"/><polygon fill="#FFFFFF" points="340,366.12,336,372.12,340,378.12,344,372.12,340,366.12" style="stroke:#A80036;stroke-width:1.0;"/><!--MD5=[746d1266ae1189726748cc18760c83b5]
link Domain.InputStreamFactory to Domain.IInputStream--><path codeLine="34" d="M170.13,475 C205.72,475 248.62,475 282.39,475 " fill="none" id="Domain.InputStreamFactory-to-Domain.IInputStream" style="stroke:#A80036;stroke-width:1.0;"/><polygon fill="#A80036" points="287.74,475,278.74,471,282.74,475,278.74,479,287.74,475" style="stroke:#A80036;stroke-width:1.0;"/><text fill="#000000" font-family="sans-serif" font-size="13" lengthAdjust="spacing" textLength="81" x="188.5" y="468.4951">«instantiates»</text><!--MD5=[4fc516642ff9e3204f8aef02f9952664]
reverse link Domain.IInputStream to System.IO.Stream--><path codeLine="46" d="M340,512.17 C340,551.07 340,611.77 340,644.76 " fill="none" id="Domain.IInputStream-backto-System.IO.Stream" style="stroke:#A80036;stroke-width:1.0;"/><polygon fill="#A80036" points="340,499.16,336,505.16,340,511.16,344,505.16,340,499.16" style="stroke:#A80036;stroke-width:1.0;"/><text fill="#000000" font-family="sans-serif" font-size="13" lengthAdjust="spacing" textLength="81" x="341" y="545.4951">«instantiates»</text><!--MD5=[266e22e6b7bd1210277f4fdad7bb5732]
link Domain.DltTraceDecoderFactory to RJCP.Diagnostics.Log.Decoder.DltTraceDecoderBase--><path codeLine="47" d="M509,499.16 C509,534.33 509,601.15 509,639.34 " fill="none" id="Domain.DltTraceDecoderFactory-to-RJCP.Diagnostics.Log.Decoder.DltTraceDecoderBase" style="stroke:#A80036;stroke-width:1.0;"/><polygon fill="#A80036" points="509,644.76,513,635.76,509,639.76,505,635.76,509,644.76" style="stroke:#A80036;stroke-width:1.0;"/><text fill="#000000" font-family="sans-serif" font-size="13" lengthAdjust="spacing" textLength="81" x="510" y="545.4951">«instantiates»</text><!--MD5=[07eb4ee47c3699c0c7aeafc66b5c775f]
reverse link Domain.DltTraceDecoderFactory to System.IO.Stream--><path codeLine="48" d="M474.47,508.1 C460.08,521.12 443.01,536.11 427,549 C422.29,552.79 420.21,552.67 416,557 C389.79,583.96 366.49,620.92 352.8,644.63 " fill="none" id="Domain.DltTraceDecoderFactory-backto-System.IO.Stream" style="stroke:#A80036;stroke-width:1.0;"/><polygon fill="#FFFFFF" points="484.43,499.02,477.3015,500.1084,475.5645,507.1072,482.693,506.0188,484.43,499.02" style="stroke:#A80036;stroke-width:1.0;"/><!--MD5=[8c7a53d43c69a2601fc27ae266ba1065]
@startuml App.Filter.Initialization

namespace View {
    class CommandFactory

    interface ICommand
    class FilterCommand

    ICommand <|.l.FilterCommand

    CommandFactory - -> FilterCommand : <<instantiates>>

    FilterCommand - -> Application.FilterApp
    FilterCommand - -> Application.FilterConfig : <<instantiates>>
}

'View.HelpCommand - -> Framework.System.Console

namespace Application {
    class FilterApp
    class FilterConfig

    FilterConfig o-r- FilterApp

    FilterApp *-d- Domain.InputStreamFactory
    FilterApp *-d- Domain.DltTraceDecoderFactory
    FilterApp o-d- Domain.IInputStream
}

namespace Domain {
    class InputStreamFactory
    interface IInputStream
    class DltTraceDecoderFactory

    InputStreamFactory -r-> IInputStream : <<instantiates>>
}

namespace Framework {
    namespace System.IO {
        class Stream
    }

    namespace RJCP.Diagnostics.Log.Decoder {
        class DltTraceDecoderBase
    }

    Domain.IInputStream *-d- System.IO.Stream : <<instantiates>>
    Domain.DltTraceDecoderFactory - -> RJCP.Diagnostics.Log.Decoder.DltTraceDecoderBase : <<instantiates>>
    Domain.DltTraceDecoderFactory o-d- System.IO.Stream
}

@enduml

@startuml App.Filter.Initialization

namespace View {
    class CommandFactory

    interface ICommand
    class FilterCommand

    ICommand <|.l.FilterCommand

    CommandFactory - -> FilterCommand : <<instantiates>>

    FilterCommand - -> Application.FilterApp
    FilterCommand - -> Application.FilterConfig : <<instantiates>>
}


namespace Application {
    class FilterApp
    class FilterConfig

    FilterConfig o-r- FilterApp

    FilterApp *-d- Domain.InputStreamFactory
    FilterApp *-d- Domain.DltTraceDecoderFactory
    FilterApp o-d- Domain.IInputStream
}

namespace Domain {
    class InputStreamFactory
    interface IInputStream
    class DltTraceDecoderFactory

    InputStreamFactory -r-> IInputStream : <<instantiates>>
}

namespace Framework {
    namespace System.IO {
        class Stream
    }

    namespace RJCP.Diagnostics.Log.Decoder {
        class DltTraceDecoderBase
    }

    Domain.IInputStream *-d- System.IO.Stream : <<instantiates>>
    Domain.DltTraceDecoderFactory - -> RJCP.Diagnostics.Log.Decoder.DltTraceDecoderBase : <<instantiates>>
    Domain.DltTraceDecoderFactory o-d- System.IO.Stream
}

@enduml

PlantUML version 1.2022.0(Tue Jan 11 17:16:42 CET 2022)
(GPL source distribution)
Java Runtime: Java(TM) SE Runtime Environment
JVM: Java HotSpot(TM) Client VM
Default Encoding: Cp1252
Language: en
Country: US
--></g></svg>