<?xml version="1.0" encoding="UTF-8" standalone="no"?><svg xmlns="http://www.w3.org/2000/svg" xmlns:xlink="http://www.w3.org/1999/xlink" contentScriptType="application/ecmascript" contentStyleType="text/css" height="522px" preserveAspectRatio="none" style="width:799px;height:522px;background:#FFFFFF;" version="1.1" viewBox="0 0 799 522" width="799px" zoomAndPan="magnify"><defs><filter height="300%" id="f18y6bsurxosnl" width="300%" x="-1" y="-1"><feGaussianBlur result="blurOut" stdDeviation="2.0"/><feColorMatrix in="blurOut" result="blurOut2" type="matrix" values="0 0 0 0 0 0 0 0 0 0 0 0 0 0 0 0 0 0 .4 0"/><feOffset dx="4.0" dy="4.0" in="blurOut2" result="blurOut3"/><feBlend in="SourceGraphic" in2="blurOut3" mode="normal"/></filter></defs><g><!--MD5=[e320b41f2d43b11d6de1346cab4ea5fc]
cluster View--><polygon fill="#FFFFFF" filter="url(#f18y6bsurxosnl)" points="294,6,333,6,340,29.6094,575,29.6094,575,232,294,232,294,6" style="stroke:#000000;stroke-width:1.5;"/><line style="stroke:#000000;stroke-width:1.5;" x1="294" x2="340" y1="29.6094" y2="29.6094"/><text fill="#000000" font-family="sans-serif" font-size="14" font-weight="bold" lengthAdjust="spacing" textLength="33" x="298" y="22.5332">View</text><!--MD5=[d64883541e3d62e3241c4d12decf100d]
cluster Application--><polygon fill="#FFFFFF" filter="url(#f18y6bsurxosnl)" points="244,282,328,282,335,305.6094,487,305.6094,487,382,244,382,244,282" style="stroke:#000000;stroke-width:1.5;"/><line style="stroke:#000000;stroke-width:1.5;" x1="244" x2="335" y1="305.6094" y2="305.6094"/><text fill="#000000" font-family="sans-serif" font-size="14" font-weight="bold" lengthAdjust="spacing" textLength="78" x="248" y="298.5332">Application</text><!--MD5=[121a8bf1197281ab89ed693fab589f94]
cluster Domain--><polygon fill="#FFFFFF" filter="url(#f18y6bsurxosnl)" points="16,415,74,415,81,438.6094,782,438.6094,782,515,16,515,16,415" style="stroke:#000000;stroke-width:1.5;"/><line style="stroke:#000000;stroke-width:1.5;" x1="16" x2="81" y1="438.6094" y2="438.6094"/><text fill="#000000" font-family="sans-serif" font-size="14" font-weight="bold" lengthAdjust="spacing" textLength="52" x="20" y="431.5332">Domain</text><!--MD5=[5cbf0e0c9e584acdcd75316a3ed38df0]
class View.CommandFactory--><rect codeLine="3" fill="#FEFECE" filter="url(#f18y6bsurxosnl)" height="48" id="View.CommandFactory" style="stroke:#A80036;stroke-width:1.5;" width="130" x="310" y="42"/><ellipse cx="325" cy="58" fill="#ADD1B2" rx="11" ry="11" style="stroke:#A80036;stroke-width:1.0;"/><path d="M327.7656,53.875 Q327.9219,53.6563 328.1094,53.5469 Q328.2969,53.4375 328.5156,53.4375 Q328.8906,53.4375 329.125,53.6953 Q329.3594,53.9531 329.3594,54.5625 L329.3594,56.0156 Q329.3594,56.625 329.125,56.8906 Q328.8906,57.1563 328.5156,57.1563 Q328.1719,57.1563 327.9688,56.9531 Q327.7656,56.7656 327.6563,56.25 Q327.6094,55.8906 327.4219,55.7031 Q327.0938,55.3281 326.4844,55.1094 Q325.875,54.8906 325.25,54.8906 Q324.4844,54.8906 323.8516,55.2188 Q323.2188,55.5469 322.7266,56.2969 Q322.2344,57.0469 322.2344,58.0781 L322.2344,59.1719 Q322.2344,60.4063 323.125,61.2266 Q324.0156,62.0469 325.6094,62.0469 Q326.5469,62.0469 327.2031,61.7969 Q327.5938,61.6406 328.0156,61.2031 Q328.2813,60.9375 328.4297,60.8594 Q328.5781,60.7813 328.7813,60.7813 Q329.1094,60.7813 329.3672,61.0391 Q329.625,61.2969 329.625,61.6406 Q329.625,61.9844 329.2813,62.3906 Q328.7813,62.9688 327.9844,63.2969 Q326.9063,63.75 325.6094,63.75 Q324.0938,63.75 322.8906,63.125 Q321.9063,62.625 321.2188,61.5547 Q320.5313,60.4844 320.5313,59.2031 L320.5313,58.0469 Q320.5313,56.7188 321.1484,55.5703 Q321.7656,54.4219 322.8594,53.8047 Q323.9531,53.1875 325.1875,53.1875 Q325.9219,53.1875 326.5703,53.3516 Q327.2188,53.5156 327.7656,53.875 Z " fill="#000000"/><text fill="#000000" font-family="sans-serif" font-size="12" lengthAdjust="spacing" textLength="98" x="339" y="62.9102">CommandFactory</text><line style="stroke:#A80036;stroke-width:1.5;" x1="311" x2="439" y1="74" y2="74"/><line style="stroke:#A80036;stroke-width:1.5;" x1="311" x2="439" y1="82" y2="82"/><!--MD5=[2092deacab3d021e8fbebc0eebd009ce]
class View.ICommand--><rect codeLine="5" fill="#FEFECE" filter="url(#f18y6bsurxosnl)" height="48" id="View.ICommand" style="stroke:#A80036;stroke-width:1.5;" width="95" x="463.5" y="168"/><ellipse cx="478.5" cy="184" fill="#B4A7E5" rx="11" ry="11" style="stroke:#A80036;stroke-width:1.0;"/><path d="M479.4531,180.6406 L479.4531,187.2969 L481.1719,187.2969 Q481.7813,187.2969 482.0469,187.5313 Q482.3125,187.7656 482.3125,188.1563 Q482.3125,188.5313 482.0469,188.7656 Q481.7813,189 481.1719,189 L476.0313,189 Q475.4219,189 475.1563,188.7656 Q474.8906,188.5313 474.8906,188.1406 Q474.8906,187.7656 475.1563,187.5313 Q475.4219,187.2969 476.0313,187.2969 L477.75,187.2969 L477.75,180.6406 L476.0313,180.6406 Q475.4219,180.6406 475.1563,180.4063 Q474.8906,180.1719 474.8906,179.7813 Q474.8906,179.4063 475.1563,179.1719 Q475.4219,178.9375 476.0313,178.9375 L481.1719,178.9375 Q481.7813,178.9375 482.0469,179.1719 Q482.3125,179.4063 482.3125,179.7813 Q482.3125,180.1719 482.0469,180.4063 Q481.7813,180.6406 481.1719,180.6406 L479.4531,180.6406 Z " fill="#000000"/><text fill="#000000" font-family="sans-serif" font-size="12" font-style="italic" lengthAdjust="spacing" textLength="63" x="492.5" y="188.9102">ICommand</text><line style="stroke:#A80036;stroke-width:1.5;" x1="464.5" x2="557.5" y1="200" y2="200"/><line style="stroke:#A80036;stroke-width:1.5;" x1="464.5" x2="557.5" y1="208" y2="208"/><!--MD5=[b5e12acb1e3b04f2e012989d3d66eeca]
class View.FilterCommand--><rect codeLine="6" fill="#FEFECE" filter="url(#f18y6bsurxosnl)" height="48" id="View.FilterCommand" style="stroke:#A80036;stroke-width:1.5;" width="118" x="310" y="168"/><ellipse cx="325" cy="184" fill="#ADD1B2" rx="11" ry="11" style="stroke:#A80036;stroke-width:1.0;"/><path d="M327.7656,179.875 Q327.9219,179.6563 328.1094,179.5469 Q328.2969,179.4375 328.5156,179.4375 Q328.8906,179.4375 329.125,179.6953 Q329.3594,179.9531 329.3594,180.5625 L329.3594,182.0156 Q329.3594,182.625 329.125,182.8906 Q328.8906,183.1563 328.5156,183.1563 Q328.1719,183.1563 327.9688,182.9531 Q327.7656,182.7656 327.6563,182.25 Q327.6094,181.8906 327.4219,181.7031 Q327.0938,181.3281 326.4844,181.1094 Q325.875,180.8906 325.25,180.8906 Q324.4844,180.8906 323.8516,181.2188 Q323.2188,181.5469 322.7266,182.2969 Q322.2344,183.0469 322.2344,184.0781 L322.2344,185.1719 Q322.2344,186.4063 323.125,187.2266 Q324.0156,188.0469 325.6094,188.0469 Q326.5469,188.0469 327.2031,187.7969 Q327.5938,187.6406 328.0156,187.2031 Q328.2813,186.9375 328.4297,186.8594 Q328.5781,186.7813 328.7813,186.7813 Q329.1094,186.7813 329.3672,187.0391 Q329.625,187.2969 329.625,187.6406 Q329.625,187.9844 329.2813,188.3906 Q328.7813,188.9688 327.9844,189.2969 Q326.9063,189.75 325.6094,189.75 Q324.0938,189.75 322.8906,189.125 Q321.9063,188.625 321.2188,187.5547 Q320.5313,186.4844 320.5313,185.2031 L320.5313,184.0469 Q320.5313,182.7188 321.1484,181.5703 Q321.7656,180.4219 322.8594,179.8047 Q323.9531,179.1875 325.1875,179.1875 Q325.9219,179.1875 326.5703,179.3516 Q327.2188,179.5156 327.7656,179.875 Z " fill="#000000"/><text fill="#000000" font-family="sans-serif" font-size="12" lengthAdjust="spacing" textLength="86" x="339" y="188.9102">FilterCommand</text><line style="stroke:#A80036;stroke-width:1.5;" x1="311" x2="427" y1="200" y2="200"/><line style="stroke:#A80036;stroke-width:1.5;" x1="311" x2="427" y1="208" y2="208"/><!--MD5=[07ba3457c8428d9f947b9b0f8ed8530c]
class Application.FilterApp--><rect codeLine="19" fill="#FEFECE" filter="url(#f18y6bsurxosnl)" height="48" id="Application.FilterApp" style="stroke:#A80036;stroke-width:1.5;" width="80" x="391" y="318"/><ellipse cx="406" cy="334" fill="#ADD1B2" rx="11" ry="11" style="stroke:#A80036;stroke-width:1.0;"/><path d="M408.7656,329.875 Q408.9219,329.6563 409.1094,329.5469 Q409.2969,329.4375 409.5156,329.4375 Q409.8906,329.4375 410.125,329.6953 Q410.3594,329.9531 410.3594,330.5625 L410.3594,332.0156 Q410.3594,332.625 410.125,332.8906 Q409.8906,333.1563 409.5156,333.1563 Q409.1719,333.1563 408.9688,332.9531 Q408.7656,332.7656 408.6563,332.25 Q408.6094,331.8906 408.4219,331.7031 Q408.0938,331.3281 407.4844,331.1094 Q406.875,330.8906 406.25,330.8906 Q405.4844,330.8906 404.8516,331.2188 Q404.2188,331.5469 403.7266,332.2969 Q403.2344,333.0469 403.2344,334.0781 L403.2344,335.1719 Q403.2344,336.4063 404.125,337.2266 Q405.0156,338.0469 406.6094,338.0469 Q407.5469,338.0469 408.2031,337.7969 Q408.5938,337.6406 409.0156,337.2031 Q409.2813,336.9375 409.4297,336.8594 Q409.5781,336.7813 409.7813,336.7813 Q410.1094,336.7813 410.3672,337.0391 Q410.625,337.2969 410.625,337.6406 Q410.625,337.9844 410.2813,338.3906 Q409.7813,338.9688 408.9844,339.2969 Q407.9063,339.75 406.6094,339.75 Q405.0938,339.75 403.8906,339.125 Q402.9063,338.625 402.2188,337.5547 Q401.5313,336.4844 401.5313,335.2031 L401.5313,334.0469 Q401.5313,332.7188 402.1484,331.5703 Q402.7656,330.4219 403.8594,329.8047 Q404.9531,329.1875 406.1875,329.1875 Q406.9219,329.1875 407.5703,329.3516 Q408.2188,329.5156 408.7656,329.875 Z " fill="#000000"/><text fill="#000000" font-family="sans-serif" font-size="12" lengthAdjust="spacing" textLength="48" x="420" y="338.9102">FilterApp</text><line style="stroke:#A80036;stroke-width:1.5;" x1="392" x2="470" y1="350" y2="350"/><line style="stroke:#A80036;stroke-width:1.5;" x1="392" x2="470" y1="358" y2="358"/><!--MD5=[280da483ebb0501053878a915c36130b]
class Application.FilterConfig--><rect codeLine="20" fill="#FEFECE" filter="url(#f18y6bsurxosnl)" height="48" id="Application.FilterConfig" style="stroke:#A80036;stroke-width:1.5;" width="95" x="260.5" y="318"/><ellipse cx="275.5" cy="334" fill="#ADD1B2" rx="11" ry="11" style="stroke:#A80036;stroke-width:1.0;"/><path d="M278.2656,329.875 Q278.4219,329.6563 278.6094,329.5469 Q278.7969,329.4375 279.0156,329.4375 Q279.3906,329.4375 279.625,329.6953 Q279.8594,329.9531 279.8594,330.5625 L279.8594,332.0156 Q279.8594,332.625 279.625,332.8906 Q279.3906,333.1563 279.0156,333.1563 Q278.6719,333.1563 278.4688,332.9531 Q278.2656,332.7656 278.1563,332.25 Q278.1094,331.8906 277.9219,331.7031 Q277.5938,331.3281 276.9844,331.1094 Q276.375,330.8906 275.75,330.8906 Q274.9844,330.8906 274.3516,331.2188 Q273.7188,331.5469 273.2266,332.2969 Q272.7344,333.0469 272.7344,334.0781 L272.7344,335.1719 Q272.7344,336.4063 273.625,337.2266 Q274.5156,338.0469 276.1094,338.0469 Q277.0469,338.0469 277.7031,337.7969 Q278.0938,337.6406 278.5156,337.2031 Q278.7813,336.9375 278.9297,336.8594 Q279.0781,336.7813 279.2813,336.7813 Q279.6094,336.7813 279.8672,337.0391 Q280.125,337.2969 280.125,337.6406 Q280.125,337.9844 279.7813,338.3906 Q279.2813,338.9688 278.4844,339.2969 Q277.4063,339.75 276.1094,339.75 Q274.5938,339.75 273.3906,339.125 Q272.4063,338.625 271.7188,337.5547 Q271.0313,336.4844 271.0313,335.2031 L271.0313,334.0469 Q271.0313,332.7188 271.6484,331.5703 Q272.2656,330.4219 273.3594,329.8047 Q274.4531,329.1875 275.6875,329.1875 Q276.4219,329.1875 277.0703,329.3516 Q277.7188,329.5156 278.2656,329.875 Z " fill="#000000"/><text fill="#000000" font-family="sans-serif" font-size="12" lengthAdjust="spacing" textLength="63" x="289.5" y="338.9102">FilterConfig</text><line style="stroke:#A80036;stroke-width:1.5;" x1="261.5" x2="354.5" y1="350" y2="350"/><line style="stroke:#A80036;stroke-width:1.5;" x1="261.5" x2="354.5" y1="358" y2="358"/><!--MD5=[a1b4cfca9be193a170fc56f1bb06f3d9]
class Domain.InputStreamFactory--><rect codeLine="31" fill="#FEFECE" filter="url(#f18y6bsurxosnl)" height="48" id="Domain.InputStreamFactory" style="stroke:#A80036;stroke-width:1.5;" width="138" x="32" y="451"/><ellipse cx="47" cy="467" fill="#ADD1B2" rx="11" ry="11" style="stroke:#A80036;stroke-width:1.0;"/><path d="M49.7656,462.875 Q49.9219,462.6563 50.1094,462.5469 Q50.2969,462.4375 50.5156,462.4375 Q50.8906,462.4375 51.125,462.6953 Q51.3594,462.9531 51.3594,463.5625 L51.3594,465.0156 Q51.3594,465.625 51.125,465.8906 Q50.8906,466.1563 50.5156,466.1563 Q50.1719,466.1563 49.9688,465.9531 Q49.7656,465.7656 49.6563,465.25 Q49.6094,464.8906 49.4219,464.7031 Q49.0938,464.3281 48.4844,464.1094 Q47.875,463.8906 47.25,463.8906 Q46.4844,463.8906 45.8516,464.2188 Q45.2188,464.5469 44.7266,465.2969 Q44.2344,466.0469 44.2344,467.0781 L44.2344,468.1719 Q44.2344,469.4063 45.125,470.2266 Q46.0156,471.0469 47.6094,471.0469 Q48.5469,471.0469 49.2031,470.7969 Q49.5938,470.6406 50.0156,470.2031 Q50.2813,469.9375 50.4297,469.8594 Q50.5781,469.7813 50.7813,469.7813 Q51.1094,469.7813 51.3672,470.0391 Q51.625,470.2969 51.625,470.6406 Q51.625,470.9844 51.2813,471.3906 Q50.7813,471.9688 49.9844,472.2969 Q48.9063,472.75 47.6094,472.75 Q46.0938,472.75 44.8906,472.125 Q43.9063,471.625 43.2188,470.5547 Q42.5313,469.4844 42.5313,468.2031 L42.5313,467.0469 Q42.5313,465.7188 43.1484,464.5703 Q43.7656,463.4219 44.8594,462.8047 Q45.9531,462.1875 47.1875,462.1875 Q47.9219,462.1875 48.5703,462.3516 Q49.2188,462.5156 49.7656,462.875 Z " fill="#000000"/><text fill="#000000" font-family="sans-serif" font-size="12" lengthAdjust="spacing" textLength="106" x="61" y="471.9102">InputStreamFactory</text><line style="stroke:#A80036;stroke-width:1.5;" x1="33" x2="169" y1="483" y2="483"/><line style="stroke:#A80036;stroke-width:1.5;" x1="33" x2="169" y1="491" y2="491"/><!--MD5=[ccde436fe312cdd23555f656c707ab67]
class Domain.DltDumpTraceReaderFactory--><rect codeLine="33" fill="#FEFECE" filter="url(#f18y6bsurxosnl)" height="48" id="Domain.DltDumpTraceReaderFactory" style="stroke:#A80036;stroke-width:1.5;" width="192" x="427" y="451"/><ellipse cx="442" cy="467" fill="#ADD1B2" rx="11" ry="11" style="stroke:#A80036;stroke-width:1.0;"/><path d="M444.7656,462.875 Q444.9219,462.6563 445.1094,462.5469 Q445.2969,462.4375 445.5156,462.4375 Q445.8906,462.4375 446.125,462.6953 Q446.3594,462.9531 446.3594,463.5625 L446.3594,465.0156 Q446.3594,465.625 446.125,465.8906 Q445.8906,466.1563 445.5156,466.1563 Q445.1719,466.1563 444.9688,465.9531 Q444.7656,465.7656 444.6563,465.25 Q444.6094,464.8906 444.4219,464.7031 Q444.0938,464.3281 443.4844,464.1094 Q442.875,463.8906 442.25,463.8906 Q441.4844,463.8906 440.8516,464.2188 Q440.2188,464.5469 439.7266,465.2969 Q439.2344,466.0469 439.2344,467.0781 L439.2344,468.1719 Q439.2344,469.4063 440.125,470.2266 Q441.0156,471.0469 442.6094,471.0469 Q443.5469,471.0469 444.2031,470.7969 Q444.5938,470.6406 445.0156,470.2031 Q445.2813,469.9375 445.4297,469.8594 Q445.5781,469.7813 445.7813,469.7813 Q446.1094,469.7813 446.3672,470.0391 Q446.625,470.2969 446.625,470.6406 Q446.625,470.9844 446.2813,471.3906 Q445.7813,471.9688 444.9844,472.2969 Q443.9063,472.75 442.6094,472.75 Q441.0938,472.75 439.8906,472.125 Q438.9063,471.625 438.2188,470.5547 Q437.5313,469.4844 437.5313,468.2031 L437.5313,467.0469 Q437.5313,465.7188 438.1484,464.5703 Q438.7656,463.4219 439.8594,462.8047 Q440.9531,462.1875 442.1875,462.1875 Q442.9219,462.1875 443.5703,462.3516 Q444.2188,462.5156 444.7656,462.875 Z " fill="#000000"/><text fill="#000000" font-family="sans-serif" font-size="12" lengthAdjust="spacing" textLength="160" x="456" y="471.9102">DltDumpTraceReaderFactory</text><line style="stroke:#A80036;stroke-width:1.5;" x1="428" x2="618" y1="483" y2="483"/><line style="stroke:#A80036;stroke-width:1.5;" x1="428" x2="618" y1="491" y2="491"/><!--MD5=[367a658869742881ac8a4a0b22d6209d]
class Domain.IInputStream--><rect codeLine="32" fill="#FEFECE" filter="url(#f18y6bsurxosnl)" height="48" id="Domain.IInputStream" style="stroke:#A80036;stroke-width:1.5;" width="104" x="288" y="451"/><ellipse cx="303" cy="467" fill="#B4A7E5" rx="11" ry="11" style="stroke:#A80036;stroke-width:1.0;"/><path d="M303.9531,463.6406 L303.9531,470.2969 L305.6719,470.2969 Q306.2813,470.2969 306.5469,470.5313 Q306.8125,470.7656 306.8125,471.1563 Q306.8125,471.5313 306.5469,471.7656 Q306.2813,472 305.6719,472 L300.5313,472 Q299.9219,472 299.6563,471.7656 Q299.3906,471.5313 299.3906,471.1406 Q299.3906,470.7656 299.6563,470.5313 Q299.9219,470.2969 300.5313,470.2969 L302.25,470.2969 L302.25,463.6406 L300.5313,463.6406 Q299.9219,463.6406 299.6563,463.4063 Q299.3906,463.1719 299.3906,462.7813 Q299.3906,462.4063 299.6563,462.1719 Q299.9219,461.9375 300.5313,461.9375 L305.6719,461.9375 Q306.2813,461.9375 306.5469,462.1719 Q306.8125,462.4063 306.8125,462.7813 Q306.8125,463.1719 306.5469,463.4063 Q306.2813,463.6406 305.6719,463.6406 L303.9531,463.6406 Z " fill="#000000"/><text fill="#000000" font-family="sans-serif" font-size="12" font-style="italic" lengthAdjust="spacing" textLength="72" x="317" y="471.9102">IInputStream</text><line style="stroke:#A80036;stroke-width:1.5;" x1="289" x2="391" y1="483" y2="483"/><line style="stroke:#A80036;stroke-width:1.5;" x1="289" x2="391" y1="491" y2="491"/><!--MD5=[0b3fba00a99536d1f05fca5c65117de9]
class Domain.IOutputStream--><rect codeLine="34" fill="#FEFECE" filter="url(#f18y6bsurxosnl)" height="48" id="Domain.IOutputStream" style="stroke:#A80036;stroke-width:1.5;" width="112" x="654" y="451"/><ellipse cx="669" cy="467" fill="#B4A7E5" rx="11" ry="11" style="stroke:#A80036;stroke-width:1.0;"/><path d="M669.9531,463.6406 L669.9531,470.2969 L671.6719,470.2969 Q672.2813,470.2969 672.5469,470.5313 Q672.8125,470.7656 672.8125,471.1563 Q672.8125,471.5313 672.5469,471.7656 Q672.2813,472 671.6719,472 L666.5313,472 Q665.9219,472 665.6563,471.7656 Q665.3906,471.5313 665.3906,471.1406 Q665.3906,470.7656 665.6563,470.5313 Q665.9219,470.2969 666.5313,470.2969 L668.25,470.2969 L668.25,463.6406 L666.5313,463.6406 Q665.9219,463.6406 665.6563,463.4063 Q665.3906,463.1719 665.3906,462.7813 Q665.3906,462.4063 665.6563,462.1719 Q665.9219,461.9375 666.5313,461.9375 L671.6719,461.9375 Q672.2813,461.9375 672.5469,462.1719 Q672.8125,462.4063 672.8125,462.7813 Q672.8125,463.1719 672.5469,463.4063 Q672.2813,463.6406 671.6719,463.6406 L669.9531,463.6406 Z " fill="#000000"/><text fill="#000000" font-family="sans-serif" font-size="12" font-style="italic" lengthAdjust="spacing" textLength="80" x="683" y="471.9102">IOutputStream</text><line style="stroke:#A80036;stroke-width:1.5;" x1="655" x2="765" y1="483" y2="483"/><line style="stroke:#A80036;stroke-width:1.5;" x1="655" x2="765" y1="491" y2="491"/><!--MD5=[5fb0df66d7e2645df075a57177980da2]
link View.FilterCommand to View.ICommand--><path codeLine="8" d="M428.07,192 C433.13,192 438.19,192 443.25,192 " fill="none" id="View.FilterCommand-to-View.ICommand" style="stroke:#A80036;stroke-width:1.0;stroke-dasharray:7.0,7.0;"/><polygon fill="none" points="443.38,185,463.38,192,443.38,199,443.38,185" style="stroke:#A80036;stroke-width:1.0;"/><!--MD5=[c302b4bd5becef95b9e60e19bee84d3a]
link View.CommandFactory to View.FilterCommand--><path codeLine="10" d="M373.89,90.03 C372.89,110.52 371.44,140.56 370.38,162.55 " fill="none" id="View.CommandFactory-to-View.FilterCommand" style="stroke:#A80036;stroke-width:1.0;"/><polygon fill="#A80036" points="370.13,167.67,374.5619,158.8747,370.3726,162.6759,366.5713,158.4865,370.13,167.67" style="stroke:#A80036;stroke-width:1.0;"/><text fill="#000000" font-family="sans-serif" font-size="13" lengthAdjust="spacing" textLength="81" x="373" y="134.4951">«instantiates»</text><!--MD5=[51640305ef3558bfabf58fc19d424563]
link View.FilterCommand to Application.FilterApp--><path codeLine="12" d="M385.88,216.26 C392.21,225.76 399.06,237.07 404,248 C413.43,268.86 420.47,293.85 424.99,312.67 " fill="none" id="View.FilterCommand-to-Application.FilterApp" style="stroke:#A80036;stroke-width:1.0;"/><polygon fill="#A80036" points="426.2,317.8,428.0386,308.1243,425.058,312.9322,420.2501,309.9515,426.2,317.8" style="stroke:#A80036;stroke-width:1.0;"/><!--MD5=[7b1efb3cd862e90840330d69a5f2a2d6]
link View.FilterCommand to Application.FilterConfig--><path codeLine="13" d="M340.67,216.05 C331.57,225.03 322.44,236.04 317,248 C307.79,268.24 305.86,293.48 306.06,312.55 " fill="none" id="View.FilterCommand-to-Application.FilterConfig" style="stroke:#A80036;stroke-width:1.0;"/><polygon fill="#A80036" points="306.17,317.76,309.9892,308.6818,306.07,312.761,301.9908,308.8418,306.17,317.76" style="stroke:#A80036;stroke-width:1.0;"/><text fill="#000000" font-family="sans-serif" font-size="13" lengthAdjust="spacing" textLength="81" x="318" y="262.4951">«instantiates»</text><!--MD5=[3c807a1f97ab3c7fb51e3fb480f9b2c3]
reverse link Application.FilterConfig to Application.FilterApp--><path codeLine="22" d="M368.83,342 C376.19,342 383.56,342 390.93,342 " fill="none" id="Application.FilterConfig-backto-Application.FilterApp" style="stroke:#A80036;stroke-width:1.0;"/><polygon fill="#FFFFFF" points="355.57,342,361.57,346,367.57,342,361.57,338,355.57,342" style="stroke:#A80036;stroke-width:1.0;"/><!--MD5=[4c03ab4938583df0e480eb3637b0d53f]
reverse link Application.FilterApp to Domain.InputStreamFactory--><path codeLine="24" d="M397.81,374.66 C390.14,380.56 381.67,386.09 373,390 C331.09,408.87 315.29,394.73 271,407 C229.73,418.44 184.71,436.44 151.37,450.91 " fill="none" id="Application.FilterApp-backto-Domain.InputStreamFactory" style="stroke:#A80036;stroke-width:1.0;"/><polygon fill="#A80036" points="408.06,366.2,400.8868,366.938,398.809,373.8433,405.9823,373.1053,408.06,366.2" style="stroke:#A80036;stroke-width:1.0;"/><!--MD5=[6eb56aca8c83801eb226728d4aabc991]
reverse link Application.FilterApp to Domain.DltDumpTraceReaderFactory--><path codeLine="25" d="M454.78,376.86 C471.05,400.03 492.21,430.15 506.62,450.67 " fill="none" id="Application.FilterApp-backto-Domain.DltDumpTraceReaderFactory" style="stroke:#A80036;stroke-width:1.0;"/><polygon fill="#A80036" points="447.24,366.12,447.4136,373.329,454.1348,375.9415,453.9612,368.7325,447.24,366.12" style="stroke:#A80036;stroke-width:1.0;"/><!--MD5=[7d003d0561f7e0546c399501860e8221]
reverse link Application.FilterApp to Domain.IInputStream--><path codeLine="26" d="M407.48,376.86 C391.38,400.03 370.46,430.15 356.21,450.67 " fill="none" id="Application.FilterApp-backto-Domain.IInputStream" style="stroke:#A80036;stroke-width:1.0;"/><polygon fill="#FFFFFF" points="414.94,366.12,408.2315,368.7651,408.093,375.9749,414.8015,373.3298,414.94,366.12" style="stroke:#A80036;stroke-width:1.0;"/><!--MD5=[50feda42f812c79c8421870506cefa3f]
reverse link Application.FilterApp to Domain.IOutputStream--><path codeLine="27" d="M483.86,352.69 C527.09,362.15 588.75,379.25 637,407 C656.98,418.49 676.05,436.31 689.68,450.68 " fill="none" id="Application.FilterApp-backto-Domain.IOutputStream" style="stroke:#A80036;stroke-width:1.0;"/><polygon fill="#A80036" points="471.06,349.99,476.1105,355.1371,482.8041,352.4548,477.7537,347.3077,471.06,349.99" style="stroke:#A80036;stroke-width:1.0;"/><!--MD5=[746d1266ae1189726748cc18760c83b5]
link Domain.InputStreamFactory to Domain.IInputStream--><path codeLine="36" d="M170.13,475 C205.72,475 248.62,475 282.39,475 " fill="none" id="Domain.InputStreamFactory-to-Domain.IInputStream" style="stroke:#A80036;stroke-width:1.0;"/><polygon fill="#A80036" points="287.74,475,278.74,471,282.74,475,278.74,479,287.74,475" style="stroke:#A80036;stroke-width:1.0;"/><text fill="#000000" font-family="sans-serif" font-size="13" lengthAdjust="spacing" textLength="81" x="188.5" y="468.4951">«instantiates»</text><!--MD5=[1a5e6cad0e4ab2022386c12e68ee0aa7]
@startuml App.Filter.Initialization

namespace View {
    class CommandFactory

    interface ICommand
    class FilterCommand

    ICommand <|.l.FilterCommand

    CommandFactory - -> FilterCommand : <<instantiates>>

    FilterCommand - -> Application.FilterApp
    FilterCommand - -> Application.FilterConfig : <<instantiates>>
}

'View.HelpCommand - -> Framework.System.Console

namespace Application {
    class FilterApp
    class FilterConfig

    FilterConfig o-r- FilterApp

    FilterApp *-d- Domain.InputStreamFactory
    FilterApp *-d- Domain.DltDumpTraceReaderFactory
    FilterApp o-d- Domain.IInputStream
    FilterApp *-d- Domain.IOutputStream
}

namespace Domain {
    class InputStreamFactory
    interface IInputStream
    class DltDumpTraceReaderFactory
    interface IOutputStream

    InputStreamFactory -r-> IInputStream : <<instantiates>>
}

@enduml

@startuml App.Filter.Initialization

namespace View {
    class CommandFactory

    interface ICommand
    class FilterCommand

    ICommand <|.l.FilterCommand

    CommandFactory - -> FilterCommand : <<instantiates>>

    FilterCommand - -> Application.FilterApp
    FilterCommand - -> Application.FilterConfig : <<instantiates>>
}


namespace Application {
    class FilterApp
    class FilterConfig

    FilterConfig o-r- FilterApp

    FilterApp *-d- Domain.InputStreamFactory
    FilterApp *-d- Domain.DltDumpTraceReaderFactory
    FilterApp o-d- Domain.IInputStream
    FilterApp *-d- Domain.IOutputStream
}

namespace Domain {
    class InputStreamFactory
    interface IInputStream
    class DltDumpTraceReaderFactory
    interface IOutputStream

    InputStreamFactory -r-> IInputStream : <<instantiates>>
}

@enduml

PlantUML version 1.2022.0(Tue Jan 11 17:16:42 CET 2022)
(GPL source distribution)
Java Runtime: Java(TM) SE Runtime Environment
JVM: Java HotSpot(TM) Client VM
Default Encoding: Cp1252
Language: en
Country: US
--></g></svg>