<?xml version="1.0" encoding="us-ascii" standalone="no"?><svg xmlns="http://www.w3.org/2000/svg" xmlns:xlink="http://www.w3.org/1999/xlink" contentStyleType="text/css" height="521px" preserveAspectRatio="none" style="width:1159px;height:521px;background:#FFFFFF;" version="1.1" viewBox="0 0 1159 521" width="1159px" zoomAndPan="magnify"><defs/><g><!--class IDisposable--><g id="elem_IDisposable"><rect codeLine="1" fill="#F1F1F1" height="48" id="IDisposable" rx="2.5" ry="2.5" style="stroke:#181818;stroke-width:0.5;" width="112" x="96" y="183.89"/><ellipse cx="111" cy="199.89" fill="#B4A7E5" rx="11" ry="11" style="stroke:#181818;stroke-width:1.0;"/><path d="M106.9219,195.6556 L106.9219,193.4994 L114.3125,193.4994 L114.3125,195.6556 L111.8438,195.6556 L111.8438,203.7338 L114.3125,203.7338 L114.3125,205.89 L106.9219,205.89 L106.9219,203.7338 L109.3906,203.7338 L109.3906,195.6556 L106.9219,195.6556 Z " fill="#000000"/><text fill="#000000" font-family="sans-serif" font-size="14" font-style="italic" lengthAdjust="spacing" textLength="80" x="125" y="204.7367">IDisposable</text><line style="stroke:#181818;stroke-width:0.5;" x1="97" x2="207" y1="215.89" y2="215.89"/><line style="stroke:#181818;stroke-width:0.5;" x1="97" x2="207" y1="223.89" y2="223.89"/></g><!--class ITraceWriter--><g id="elem_ITraceWriter"><rect codeLine="3" fill="#F1F1F1" height="64.2969" id="ITraceWriter" rx="2.5" ry="2.5" style="stroke:#181818;stroke-width:0.5;" width="306" x="7" y="309.19"/><ellipse cx="63.25" cy="325.19" fill="#B4A7E5" rx="11" ry="11" style="stroke:#181818;stroke-width:1.0;"/><path d="M59.1719,320.9556 L59.1719,318.7994 L66.5625,318.7994 L66.5625,320.9556 L64.0938,320.9556 L64.0938,329.0337 L66.5625,329.0337 L66.5625,331.19 L59.1719,331.19 L59.1719,329.0337 L61.6406,329.0337 L61.6406,320.9556 L59.1719,320.9556 Z " fill="#000000"/><text fill="#000000" font-family="sans-serif" font-size="14" font-style="italic" lengthAdjust="spacing" textLength="82" x="83.75" y="330.0367">ITraceWriter</text><rect fill="#FFFFFF" height="15.9688" style="stroke:#181818;stroke-width:1.0;stroke-dasharray:2.0,2.0;" width="101" x="215" y="306.19"/><text fill="#000000" font-family="sans-serif" font-size="12" font-style="italic" lengthAdjust="spacing" textLength="99" x="216" y="318.3287">TLine:ITraceLine</text><line style="stroke:#181818;stroke-width:0.5;" x1="8" x2="312" y1="341.19" y2="341.19"/><line style="stroke:#181818;stroke-width:0.5;" x1="8" x2="312" y1="349.19" y2="349.19"/><ellipse cx="18" cy="362.8384" fill="#84BE84" rx="3" ry="3" style="stroke:#038048;stroke-width:1.0;"/><text fill="#000000" font-family="sans-serif" font-size="14" lengthAdjust="spacing" textLength="280" x="27" y="366.1851">WriteLineAsync(line: TLine): Task&lt;bool&gt;</text></g><!--class ITraceWriterFactory--><g id="elem_ITraceWriterFactory"><rect codeLine="8" fill="#F1F1F1" height="80.5938" id="ITraceWriterFactory" rx="2.5" ry="2.5" style="stroke:#181818;stroke-width:0.5;" width="439" x="285.5" y="10"/><ellipse cx="383.25" cy="26" fill="#B4A7E5" rx="11" ry="11" style="stroke:#181818;stroke-width:1.0;"/><path d="M379.1719,21.7656 L379.1719,19.6094 L386.5625,19.6094 L386.5625,21.7656 L384.0938,21.7656 L384.0938,29.8438 L386.5625,29.8438 L386.5625,32 L379.1719,32 L379.1719,29.8438 L381.6406,29.8438 L381.6406,21.7656 L379.1719,21.7656 Z " fill="#000000"/><text fill="#000000" font-family="sans-serif" font-size="14" font-style="italic" lengthAdjust="spacing" textLength="132" x="403.75" y="30.8467">ITraceWriterFactory</text><rect fill="#FFFFFF" height="15.9688" style="stroke:#181818;stroke-width:1.0;stroke-dasharray:2.0,2.0;" width="101" x="626.5" y="7"/><text fill="#000000" font-family="sans-serif" font-size="12" font-style="italic" lengthAdjust="spacing" textLength="99" x="627.5" y="19.1387">TLine:ITraceLine</text><line style="stroke:#181818;stroke-width:0.5;" x1="286.5" x2="723.5" y1="42" y2="42"/><line style="stroke:#181818;stroke-width:0.5;" x1="286.5" x2="723.5" y1="50" y2="50"/><ellipse cx="296.5" cy="63.6484" fill="#84BE84" rx="3" ry="3" style="stroke:#038048;stroke-width:1.0;"/><text fill="#000000" font-family="sans-serif" font-size="14" lengthAdjust="spacing" textLength="412" x="305.5" y="66.9951">CreateAsync(stream: Stream): Task&lt;ITraceWriter&lt;TLine&gt;&gt;</text><ellipse cx="296.5" cy="79.9453" fill="#84BE84" rx="3" ry="3" style="stroke:#038048;stroke-width:1.0;"/><text fill="#000000" font-family="sans-serif" font-size="14" lengthAdjust="spacing" textLength="413" x="305.5" y="83.292">CreateAsync(fileName: string): Task&lt;ITraceWriter&lt;TLine&gt;&gt;</text></g><!--class ITraceEncoderFactory--><g id="elem_ITraceEncoderFactory"><rect codeLine="13" fill="#F1F1F1" height="64.2969" id="ITraceEncoderFactory" rx="2.5" ry="2.5" style="stroke:#181818;stroke-width:0.5;" width="285" x="832.5" y="18.15"/><ellipse cx="847.5" cy="34.15" fill="#B4A7E5" rx="11" ry="11" style="stroke:#181818;stroke-width:1.0;"/><path d="M843.4219,29.9156 L843.4219,27.7594 L850.8125,27.7594 L850.8125,29.9156 L848.3438,29.9156 L848.3438,37.9937 L850.8125,37.9937 L850.8125,40.15 L843.4219,40.15 L843.4219,37.9937 L845.8906,37.9937 L845.8906,29.9156 L843.4219,29.9156 Z " fill="#000000"/><text fill="#000000" font-family="sans-serif" font-size="14" font-style="italic" lengthAdjust="spacing" textLength="150" x="861.5" y="38.9967">ITraceEncoderFactory</text><rect fill="#FFFFFF" height="15.9688" style="stroke:#181818;stroke-width:1.0;stroke-dasharray:2.0,2.0;" width="101" x="1019.5" y="15.15"/><text fill="#000000" font-family="sans-serif" font-size="12" font-style="italic" lengthAdjust="spacing" textLength="99" x="1020.5" y="27.2887">TLine:ITraceLine</text><line style="stroke:#181818;stroke-width:0.5;" x1="833.5" x2="1116.5" y1="50.15" y2="50.15"/><line style="stroke:#181818;stroke-width:0.5;" x1="833.5" x2="1116.5" y1="58.15" y2="58.15"/><ellipse cx="843.5" cy="71.7984" fill="#84BE84" rx="3" ry="3" style="stroke:#038048;stroke-width:1.0;"/><text fill="#000000" font-family="sans-serif" font-size="14" lengthAdjust="spacing" textLength="226" x="852.5" y="75.1451">Create(): ITraceEncoder&lt;TLine&gt;</text></g><!--class ITraceEncoder--><g id="elem_ITraceEncoder"><rect codeLine="17" fill="#F1F1F1" height="64.2969" id="ITraceEncoder" rx="2.5" ry="2.5" style="stroke:#181818;stroke-width:0.5;" width="399" x="505.5" y="309.19"/><ellipse cx="599.25" cy="325.19" fill="#B4A7E5" rx="11" ry="11" style="stroke:#181818;stroke-width:1.0;"/><path d="M595.1719,320.9556 L595.1719,318.7994 L602.5625,318.7994 L602.5625,320.9556 L600.0938,320.9556 L600.0938,329.0337 L602.5625,329.0337 L602.5625,331.19 L595.1719,331.19 L595.1719,329.0337 L597.6406,329.0337 L597.6406,320.9556 L595.1719,320.9556 Z " fill="#000000"/><text fill="#000000" font-family="sans-serif" font-size="14" font-style="italic" lengthAdjust="spacing" textLength="100" x="619.75" y="330.0367">ITraceEncoder</text><rect fill="#FFFFFF" height="15.9688" style="stroke:#181818;stroke-width:1.0;stroke-dasharray:2.0,2.0;" width="101" x="806.5" y="306.19"/><text fill="#000000" font-family="sans-serif" font-size="12" font-style="italic" lengthAdjust="spacing" textLength="99" x="807.5" y="318.3287">TLine:ITraceLine</text><line style="stroke:#181818;stroke-width:0.5;" x1="506.5" x2="903.5" y1="341.19" y2="341.19"/><line style="stroke:#181818;stroke-width:0.5;" x1="506.5" x2="903.5" y1="349.19" y2="349.19"/><ellipse cx="516.5" cy="362.8384" fill="#84BE84" rx="3" ry="3" style="stroke:#038048;stroke-width:1.0;"/><text fill="#000000" font-family="sans-serif" font-size="14" lengthAdjust="spacing" textLength="373" x="525.5" y="366.1851">Encode(buffer: Span&lt;byte&gt;, line: TLine): Result&lt;int&gt;</text></g><!--class DltTraceWriterFactory--><g id="elem_DltTraceWriterFactory"><rect codeLine="21" fill="#F1F1F1" height="80.5938" id="DltTraceWriterFactory" rx="2.5" ry="2.5" style="stroke:#181818;stroke-width:0.5;" width="523" x="243.5" y="167.59"/><ellipse cx="352.75" cy="183.59" fill="#ADD1B2" rx="11" ry="11" style="stroke:#181818;stroke-width:1.0;"/><path d="M355.7188,189.2306 Q355.1406,189.5275 354.5,189.6681 Q353.8594,189.8244 353.1563,189.8244 Q350.6563,189.8244 349.3281,188.1837 Q348.0156,186.5275 348.0156,183.4025 Q348.0156,180.2775 349.3281,178.6212 Q350.6563,176.965 353.1563,176.965 Q353.8594,176.965 354.5,177.1212 Q355.1563,177.2775 355.7188,177.5744 L355.7188,180.2931 Q355.0938,179.715 354.5,179.4494 Q353.9063,179.1681 353.2813,179.1681 Q351.9375,179.1681 351.25,180.2462 Q350.5625,181.3087 350.5625,183.4025 Q350.5625,185.4962 351.25,186.5744 Q351.9375,187.6369 353.2813,187.6369 Q353.9063,187.6369 354.5,187.3712 Q355.0938,187.09 355.7188,186.5119 L355.7188,189.2306 Z " fill="#000000"/><text fill="#000000" font-family="sans-serif" font-size="14" lengthAdjust="spacing" textLength="148" x="373.25" y="188.4367">DltTraceWriterFactory</text><rect fill="#FFFFFF" height="15.9688" style="stroke:#181818;stroke-width:1.0;stroke-dasharray:2.0,2.0;" width="146" x="623.5" y="164.59"/><text fill="#000000" font-family="sans-serif" font-size="12" font-style="italic" lengthAdjust="spacing" textLength="144" x="624.5" y="176.7287">TLine:DltTraceLineBase</text><line style="stroke:#181818;stroke-width:0.5;" x1="244.5" x2="765.5" y1="199.59" y2="199.59"/><line style="stroke:#181818;stroke-width:0.5;" x1="244.5" x2="765.5" y1="207.59" y2="207.59"/><ellipse cx="254.5" cy="221.2384" fill="#84BE84" rx="3" ry="3" style="stroke:#038048;stroke-width:1.0;"/><text fill="#000000" font-family="sans-serif" font-size="14" lengthAdjust="spacing" textLength="496" x="263.5" y="224.5851">CreateAsync(stream: Stream): Task&lt;ITraceWriter&lt;DltTraceLineBase&gt;&gt;</text><ellipse cx="254.5" cy="237.5353" fill="#84BE84" rx="3" ry="3" style="stroke:#038048;stroke-width:1.0;"/><text fill="#000000" font-family="sans-serif" font-size="14" lengthAdjust="spacing" textLength="497" x="263.5" y="240.882">CreateAsync(fileName: string): Task&lt;ITraceWriter&lt;DltTraceLineBase&gt;&gt;</text></g><!--class DltTraceWriter--><g id="elem_DltTraceWriter"><rect codeLine="35" fill="#F1F1F1" height="64.2969" id="DltTraceWriter" rx="2.5" ry="2.5" style="stroke:#181818;stroke-width:0.5;" width="390" x="117" y="450.48"/><ellipse cx="184.75" cy="466.48" fill="#ADD1B2" rx="11" ry="11" style="stroke:#181818;stroke-width:1.0;"/><path d="M187.7188,472.1206 Q187.1406,472.4175 186.5,472.5581 Q185.8594,472.7144 185.1563,472.7144 Q182.6563,472.7144 181.3281,471.0737 Q180.0156,469.4175 180.0156,466.2925 Q180.0156,463.1675 181.3281,461.5112 Q182.6563,459.855 185.1563,459.855 Q185.8594,459.855 186.5,460.0112 Q187.1563,460.1675 187.7188,460.4644 L187.7188,463.1831 Q187.0938,462.605 186.5,462.3394 Q185.9063,462.0581 185.2813,462.0581 Q183.9375,462.0581 183.25,463.1362 Q182.5625,464.1987 182.5625,466.2925 Q182.5625,468.3862 183.25,469.4644 Q183.9375,470.5269 185.2813,470.5269 Q185.9063,470.5269 186.5,470.2612 Q187.0938,469.98 187.7188,469.4019 L187.7188,472.1206 Z " fill="#000000"/><text fill="#000000" font-family="sans-serif" font-size="14" lengthAdjust="spacing" textLength="98" x="205.25" y="471.3267">DltTraceWriter</text><rect fill="#FFFFFF" height="15.9688" style="stroke:#181818;stroke-width:1.0;stroke-dasharray:2.0,2.0;" width="146" x="364" y="447.48"/><text fill="#000000" font-family="sans-serif" font-size="12" font-style="italic" lengthAdjust="spacing" textLength="144" x="365" y="459.6187">TLine:DltTraceLineBase</text><line style="stroke:#181818;stroke-width:0.5;" x1="118" x2="506" y1="482.48" y2="482.48"/><line style="stroke:#181818;stroke-width:0.5;" x1="118" x2="506" y1="490.48" y2="490.48"/><ellipse cx="128" cy="504.1284" fill="#84BE84" rx="3" ry="3" style="stroke:#038048;stroke-width:1.0;"/><text fill="#000000" font-family="sans-serif" font-size="14" lengthAdjust="spacing" textLength="364" x="137" y="507.4751">WriteLineAsync(line: DltTraceLineBase): Task&lt;bool&gt;</text></g><!--class DltTraceEncoderFactory--><g id="elem_DltTraceEncoderFactory"><rect codeLine="28" fill="#F1F1F1" height="64.2969" id="DltTraceEncoderFactory" rx="2.5" ry="2.5" style="stroke:#181818;stroke-width:0.5;" width="346" x="802" y="175.74"/><ellipse cx="817" cy="191.74" fill="#ADD1B2" rx="11" ry="11" style="stroke:#181818;stroke-width:1.0;"/><path d="M819.9688,197.3806 Q819.3906,197.6775 818.75,197.8181 Q818.1094,197.9744 817.4063,197.9744 Q814.9063,197.9744 813.5781,196.3337 Q812.2656,194.6775 812.2656,191.5525 Q812.2656,188.4275 813.5781,186.7712 Q814.9063,185.115 817.4063,185.115 Q818.1094,185.115 818.75,185.2712 Q819.4063,185.4275 819.9688,185.7244 L819.9688,188.4431 Q819.3438,187.865 818.75,187.5994 Q818.1563,187.3181 817.5313,187.3181 Q816.1875,187.3181 815.5,188.3962 Q814.8125,189.4587 814.8125,191.5525 Q814.8125,193.6462 815.5,194.7244 Q816.1875,195.7869 817.5313,195.7869 Q818.1563,195.7869 818.75,195.5212 Q819.3438,195.24 819.9688,194.6619 L819.9688,197.3806 Z " fill="#000000"/><text fill="#000000" font-family="sans-serif" font-size="14" lengthAdjust="spacing" textLength="166" x="831" y="196.5867">DltTraceEncoderFactory</text><rect fill="#FFFFFF" height="15.9688" style="stroke:#181818;stroke-width:1.0;stroke-dasharray:2.0,2.0;" width="146" x="1005" y="172.74"/><text fill="#000000" font-family="sans-serif" font-size="12" font-style="italic" lengthAdjust="spacing" textLength="144" x="1006" y="184.8787">TLine:DltTraceLineBase</text><line style="stroke:#181818;stroke-width:0.5;" x1="803" x2="1147" y1="207.74" y2="207.74"/><line style="stroke:#181818;stroke-width:0.5;" x1="803" x2="1147" y1="215.74" y2="215.74"/><ellipse cx="813" cy="229.3884" fill="#84BE84" rx="3" ry="3" style="stroke:#038048;stroke-width:1.0;"/><text fill="#000000" font-family="sans-serif" font-size="14" lengthAdjust="spacing" textLength="314" x="822" y="232.7351">Create() : ITraceEncoder&lt;DltTraceLineBase&gt;</text></g><!--class DltTraceEncoder--><g id="elem_DltTraceEncoder"><rect codeLine="40" fill="#F1F1F1" height="64.2969" id="DltTraceEncoder" rx="2.5" ry="2.5" style="stroke:#181818;stroke-width:0.5;" width="483" x="542.5" y="450.48"/><ellipse cx="647.75" cy="466.48" fill="#ADD1B2" rx="11" ry="11" style="stroke:#181818;stroke-width:1.0;"/><path d="M650.7188,472.1206 Q650.1406,472.4175 649.5,472.5581 Q648.8594,472.7144 648.1563,472.7144 Q645.6563,472.7144 644.3281,471.0737 Q643.0156,469.4175 643.0156,466.2925 Q643.0156,463.1675 644.3281,461.5112 Q645.6563,459.855 648.1563,459.855 Q648.8594,459.855 649.5,460.0112 Q650.1563,460.1675 650.7188,460.4644 L650.7188,463.1831 Q650.0938,462.605 649.5,462.3394 Q648.9063,462.0581 648.2813,462.0581 Q646.9375,462.0581 646.25,463.1362 Q645.5625,464.1987 645.5625,466.2925 Q645.5625,468.3862 646.25,469.4644 Q646.9375,470.5269 648.2813,470.5269 Q648.9063,470.5269 649.5,470.2612 Q650.0938,469.98 650.7188,469.4019 L650.7188,472.1206 Z " fill="#000000"/><text fill="#000000" font-family="sans-serif" font-size="14" lengthAdjust="spacing" textLength="116" x="668.25" y="471.3267">DltTraceEncoder</text><rect fill="#FFFFFF" height="15.9688" style="stroke:#181818;stroke-width:1.0;stroke-dasharray:2.0,2.0;" width="146" x="882.5" y="447.48"/><text fill="#000000" font-family="sans-serif" font-size="12" font-style="italic" lengthAdjust="spacing" textLength="144" x="883.5" y="459.6187">TLine:DltTraceLineBase</text><line style="stroke:#181818;stroke-width:0.5;" x1="543.5" x2="1024.5" y1="482.48" y2="482.48"/><line style="stroke:#181818;stroke-width:0.5;" x1="543.5" x2="1024.5" y1="490.48" y2="490.48"/><ellipse cx="553.5" cy="504.1284" fill="#84BE84" rx="3" ry="3" style="stroke:#038048;stroke-width:1.0;"/><text fill="#000000" font-family="sans-serif" font-size="14" lengthAdjust="spacing" textLength="457" x="562.5" y="507.4751">Encode(buffer: Span&lt;byte&gt;, line: DltTraceLineBase): Result&lt;int&gt;</text></g><!--reverse link IDisposable to ITraceWriter--><g id="link_IDisposable_ITraceWriter"><path codeLine="6" d="M154.69,253.11 C155.81,271.49 157.08,292.39 158.1,309.13 " fill="none" id="IDisposable-backto-ITraceWriter" style="stroke:#181818;stroke-width:1.0;stroke-dasharray:7.0,7.0;"/><polygon fill="none" points="147.66,253.78,153.43,233.39,161.63,252.93,147.66,253.78" style="stroke:#181818;stroke-width:1.0;"/></g><!--reverse link ITraceWriterFactory to DltTraceWriterFactory--><g id="link_ITraceWriterFactory_DltTraceWriterFactory"><path codeLine="25" d="M505,111.89 C505,130.5 505,150.48 505,167.3 " fill="none" id="ITraceWriterFactory-backto-DltTraceWriterFactory" style="stroke:#181818;stroke-width:1.0;stroke-dasharray:7.0,7.0;"/><polygon fill="none" points="498,111.96,505,91.96,512,111.96,498,111.96" style="stroke:#181818;stroke-width:1.0;"/><text fill="#000000" font-family="sans-serif" font-size="13" lengthAdjust="spacing" textLength="168" x="506" y="133.6569">TLine -&gt; DltTraceLineBase</text></g><!--link DltTraceWriterFactory to DltTraceWriter--><g id="link_DltTraceWriterFactory_DltTraceWriter"><path codeLine="26" d="M467.81,248.33 C452.35,266.03 435.02,287.74 422,309.19 C394.14,355.09 405.32,376.16 375,420.48 C368.79,429.56 361.07,438.39 353.19,446.37 " fill="none" id="DltTraceWriterFactory-to-DltTraceWriter" style="stroke:#181818;stroke-width:1.0;"/><polygon fill="#181818" points="350.31,449.22,359.5166,445.7217,353.8598,445.6988,353.8827,440.042,350.31,449.22" style="stroke:#181818;stroke-width:1.0;"/><text fill="#000000" font-family="sans-serif" font-size="13" lengthAdjust="spacing" textLength="64" x="423" y="345.8969">&#171;creates&#187;</text></g><!--reverse link ITraceEncoderFactory to DltTraceEncoderFactory--><g id="link_ITraceEncoderFactory_DltTraceEncoderFactory"><path codeLine="31" d="M975,103.76 C975,127.55 975,154.9 975,175.45 " fill="none" id="ITraceEncoderFactory-backto-DltTraceEncoderFactory" style="stroke:#181818;stroke-width:1.0;stroke-dasharray:7.0,7.0;"/><polygon fill="none" points="968,103.78,975,83.78,982,103.78,968,103.78" style="stroke:#181818;stroke-width:1.0;"/><text fill="#000000" font-family="sans-serif" font-size="13" lengthAdjust="spacing" textLength="168" x="976" y="133.6569">TLine -&gt; DltTraceLineBase</text></g><!--reverse link DltTraceWriterFactory to DltTraceEncoderFactory--><g id="link_DltTraceWriterFactory_DltTraceEncoderFactory"><path codeLine="32" d="M780.57,207.89 C787.59,207.89 794.6,207.89 801.62,207.89 " fill="none" id="DltTraceWriterFactory-backto-DltTraceEncoderFactory" style="stroke:#181818;stroke-width:1.0;"/><polygon fill="none" points="767.62,207.89,773.62,211.89,779.62,207.89,773.62,203.89,767.62,207.89" style="stroke:#181818;stroke-width:1.0;"/></g><!--link DltTraceEncoderFactory to DltTraceEncoder--><g id="link_DltTraceEncoderFactory_DltTraceEncoder"><path codeLine="33" d="M976.3,240.37 C976.47,285.41 970.29,368.55 927,420.48 C918.23,431.01 907.31,439.76 895.45,447.04 " fill="none" id="DltTraceEncoderFactory-to-DltTraceEncoder" style="stroke:#181818;stroke-width:1.0;"/><polygon fill="#181818" points="891.31,450.07,901.0929,448.9319,895.6138,447.5249,897.0207,442.0458,891.31,450.07" style="stroke:#181818;stroke-width:1.0;"/><text fill="#000000" font-family="sans-serif" font-size="13" lengthAdjust="spacing" textLength="64" x="972" y="345.8969">&#171;creates&#187;</text></g><!--reverse link ITraceWriter to DltTraceWriter--><g id="link_ITraceWriter_DltTraceWriter"><path codeLine="38" d="M180.87,392.75 C186.45,402.67 193.16,412.48 201,420.48 C212.24,431.96 226.1,441.86 240.16,450.15 " fill="none" id="ITraceWriter-backto-DltTraceWriter" style="stroke:#181818;stroke-width:1.0;stroke-dasharray:7.0,7.0;"/><polygon fill="none" points="174.16,395.97,171.52,374.95,186.7,389.74,174.16,395.97" style="stroke:#181818;stroke-width:1.0;"/><text fill="#000000" font-family="sans-serif" font-size="13" lengthAdjust="spacing" textLength="168" x="202" y="416.5469">TLine -&gt; DltTraceLineBase</text></g><!--reverse link ITraceEncoder to DltTraceEncoder--><g id="link_ITraceEncoder_DltTraceEncoder"><path codeLine="43" d="M733.15,391.96 C744.14,411.34 756.41,432.98 766.14,450.15 " fill="none" id="ITraceEncoder-backto-DltTraceEncoder" style="stroke:#181818;stroke-width:1.0;stroke-dasharray:7.0,7.0;"/><polygon fill="none" points="726.7,395.79,722.93,374.94,738.88,388.89,726.7,395.79" style="stroke:#181818;stroke-width:1.0;"/><text fill="#000000" font-family="sans-serif" font-size="13" lengthAdjust="spacing" textLength="168" x="750" y="416.5469">TLine -&gt; DltTraceLineBase</text></g><!--reverse link DltTraceWriter to DltTraceEncoder--><g id="link_DltTraceWriter_DltTraceEncoder"><path codeLine="44" d="M521.21,482.63 C528.14,482.63 535.08,482.63 542.01,482.63 " fill="none" id="DltTraceWriter-backto-DltTraceEncoder" style="stroke:#181818;stroke-width:1.0;"/><polygon fill="none" points="508.44,482.63,514.44,486.63,520.44,482.63,514.44,478.63,508.44,482.63" style="stroke:#181818;stroke-width:1.0;"/></g><!--SRC=[dLJ9JiCm4BtxAtnC1Ua7L9Obe20X8GvGYRFZECZ2JIhRFKJGVsUo5E8jNN9nx9bvy-RDsBAsGbUC2_oybcRN65OeWP3yFzveM3wqX0EoUP6rM0r7tI_5tmZ3TzFRkvCxqzOyKvqRxhqNi3BpHOgcKHGTq2GD9Z_BSkbaI6L-OjmskaqJUD22sJ6xiR3Phl1xlnu9X8LG6iPMKebNjWNsW2BhpzdeGqZtiUPDUJRV3E2Tk15w1ZaDEJXanRwgX8RgTwmcHMi5lSLkFzw4sIjB846VY2jc35uhczJxQEiszynShNg0Ssq38a0mMI7_SSAYjU5H49nJxEEXU4HUvXFdmGOmXF2-00CqF3MZut12pco1_Qa88lxATHDuzNh6omjkSfqdq50YYQlHQ9mNoNbSak94dnZVEtXjffsA3SEiAF5cdY9wyXv6IBjNqcbjlASND3FQnLy0]--></g></svg>