<?xml version="1.0" encoding="UTF-8" standalone="no"?><svg xmlns="http://www.w3.org/2000/svg" xmlns:xlink="http://www.w3.org/1999/xlink" contentScriptType="application/ecmascript" contentStyleType="text/css" height="516px" preserveAspectRatio="none" style="width:898px;height:516px;background:#FFFFFF;" version="1.1" viewBox="0 0 898 516" width="898px" zoomAndPan="magnify"><defs><filter height="300%" id="f1m2c2dle0f3a5" width="300%" x="-1" y="-1"><feGaussianBlur result="blurOut" stdDeviation="2.0"/><feColorMatrix in="blurOut" result="blurOut2" type="matrix" values="0 0 0 0 0 0 0 0 0 0 0 0 0 0 0 0 0 0 .4 0"/><feOffset dx="4.0" dy="4.0" in="blurOut2" result="blurOut3"/><feBlend in="SourceGraphic" in2="blurOut3" mode="normal"/></filter></defs><g><!--MD5=[fe50a4f6767356ff4dcdadb85ef8cbdd]
class IDisposable--><rect codeLine="1" fill="#FEFECE" filter="url(#f1m2c2dle0f3a5)" height="48" id="IDisposable" style="stroke:#A80036;stroke-width:1.5;" width="99" x="47.5" y="178"/><ellipse cx="62.5" cy="194" fill="#B4A7E5" rx="11" ry="11" style="stroke:#A80036;stroke-width:1.0;"/><path d="M63.4531,190.6406 L63.4531,197.2969 L65.1719,197.2969 Q65.7813,197.2969 66.0469,197.5313 Q66.3125,197.7656 66.3125,198.1563 Q66.3125,198.5313 66.0469,198.7656 Q65.7813,199 65.1719,199 L60.0313,199 Q59.4219,199 59.1563,198.7656 Q58.8906,198.5313 58.8906,198.1406 Q58.8906,197.7656 59.1563,197.5313 Q59.4219,197.2969 60.0313,197.2969 L61.75,197.2969 L61.75,190.6406 L60.0313,190.6406 Q59.4219,190.6406 59.1563,190.4063 Q58.8906,190.1719 58.8906,189.7813 Q58.8906,189.4063 59.1563,189.1719 Q59.4219,188.9375 60.0313,188.9375 L65.1719,188.9375 Q65.7813,188.9375 66.0469,189.1719 Q66.3125,189.4063 66.3125,189.7813 Q66.3125,190.1719 66.0469,190.4063 Q65.7813,190.6406 65.1719,190.6406 L63.4531,190.6406 Z " fill="#000000"/><text fill="#000000" font-family="sans-serif" font-size="12" font-style="italic" lengthAdjust="spacing" textLength="67" x="76.5" y="198.9102">IDisposable</text><line style="stroke:#A80036;stroke-width:1.5;" x1="48.5" x2="145.5" y1="210" y2="210"/><line style="stroke:#A80036;stroke-width:1.5;" x1="48.5" x2="145.5" y1="218" y2="218"/><!--MD5=[21bd5291c9d33bd8ac5dbc523f6b6348]
class ITraceWriter--><rect codeLine="3" fill="#FEFECE" filter="url(#f1m2c2dle0f3a5)" height="61.8359" id="ITraceWriter" style="stroke:#A80036;stroke-width:1.5;" width="196" x="7" y="301"/><ellipse cx="22" cy="317" fill="#B4A7E5" rx="11" ry="11" style="stroke:#A80036;stroke-width:1.0;"/><path d="M22.9531,313.6406 L22.9531,320.2969 L24.6719,320.2969 Q25.2813,320.2969 25.5469,320.5313 Q25.8125,320.7656 25.8125,321.1563 Q25.8125,321.5313 25.5469,321.7656 Q25.2813,322 24.6719,322 L19.5313,322 Q18.9219,322 18.6563,321.7656 Q18.3906,321.5313 18.3906,321.1406 Q18.3906,320.7656 18.6563,320.5313 Q18.9219,320.2969 19.5313,320.2969 L21.25,320.2969 L21.25,313.6406 L19.5313,313.6406 Q18.9219,313.6406 18.6563,313.4063 Q18.3906,313.1719 18.3906,312.7813 Q18.3906,312.4063 18.6563,312.1719 Q18.9219,311.9375 19.5313,311.9375 L24.6719,311.9375 Q25.2813,311.9375 25.5469,312.1719 Q25.8125,312.4063 25.8125,312.7813 Q25.8125,313.1719 25.5469,313.4063 Q25.2813,313.6406 24.6719,313.6406 L22.9531,313.6406 Z " fill="#000000"/><text fill="#000000" font-family="sans-serif" font-size="12" font-style="italic" lengthAdjust="spacing" textLength="67" x="36" y="321.9102">ITraceWriter</text><rect fill="#FFFFFF" height="17.0938" style="stroke:#000000;stroke-width:1.0;stroke-dasharray:2.0,2.0;" width="95" x="111" y="298"/><text fill="#000000" font-family="sans-serif" font-size="12" font-style="italic" lengthAdjust="spacing" textLength="93" x="112" y="311.457">TLine:ITraceLine</text><line style="stroke:#A80036;stroke-width:1.5;" x1="8" x2="202" y1="333" y2="333"/><line style="stroke:#A80036;stroke-width:1.5;" x1="8" x2="202" y1="341" y2="341"/><ellipse cx="18" cy="352" fill="#84BE84" rx="3" ry="3" style="stroke:#038048;stroke-width:1.0;"/><text fill="#000000" font-family="sans-serif" font-size="11" lengthAdjust="spacing" textLength="162" x="27" y="356.4189">WriteLineAsync(line: TLine): Task</text><!--MD5=[cabab2f1e47c9036d3f8c125841e7330]
class ITraceWriterFactory--><rect codeLine="8" fill="#FEFECE" filter="url(#f1m2c2dle0f3a5)" height="75.6719" id="ITraceWriterFactory" style="stroke:#A80036;stroke-width:1.5;" width="310" x="211" y="10"/><ellipse cx="259.75" cy="26" fill="#B4A7E5" rx="11" ry="11" style="stroke:#A80036;stroke-width:1.0;"/><path d="M260.7031,22.6406 L260.7031,29.2969 L262.4219,29.2969 Q263.0313,29.2969 263.2969,29.5313 Q263.5625,29.7656 263.5625,30.1563 Q263.5625,30.5313 263.2969,30.7656 Q263.0313,31 262.4219,31 L257.2813,31 Q256.6719,31 256.4063,30.7656 Q256.1406,30.5313 256.1406,30.1406 Q256.1406,29.7656 256.4063,29.5313 Q256.6719,29.2969 257.2813,29.2969 L259,29.2969 L259,22.6406 L257.2813,22.6406 Q256.6719,22.6406 256.4063,22.4063 Q256.1406,22.1719 256.1406,21.7813 Q256.1406,21.4063 256.4063,21.1719 Q256.6719,20.9375 257.2813,20.9375 L262.4219,20.9375 Q263.0313,20.9375 263.2969,21.1719 Q263.5625,21.4063 263.5625,21.7813 Q263.5625,22.1719 263.2969,22.4063 Q263.0313,22.6406 262.4219,22.6406 L260.7031,22.6406 Z " fill="#000000"/><text fill="#000000" font-family="sans-serif" font-size="12" font-style="italic" lengthAdjust="spacing" textLength="107" x="280.25" y="30.9102">ITraceWriterFactory</text><rect fill="#FFFFFF" height="17.0938" style="stroke:#000000;stroke-width:1.0;stroke-dasharray:2.0,2.0;" width="95" x="429" y="7"/><text fill="#000000" font-family="sans-serif" font-size="12" font-style="italic" lengthAdjust="spacing" textLength="93" x="430" y="20.457">TLine:ITraceLine</text><line style="stroke:#A80036;stroke-width:1.5;" x1="212" x2="520" y1="42" y2="42"/><line style="stroke:#A80036;stroke-width:1.5;" x1="212" x2="520" y1="50" y2="50"/><ellipse cx="222" cy="61" fill="#84BE84" rx="3" ry="3" style="stroke:#038048;stroke-width:1.0;"/><text fill="#000000" font-family="sans-serif" font-size="11" lengthAdjust="spacing" textLength="283" x="231" y="65.4189">CreateAsync(stream: Stream): Task&lt;ITraceWriter&lt;TLine&gt;&gt;</text><ellipse cx="222" cy="74.8359" fill="#84BE84" rx="3" ry="3" style="stroke:#038048;stroke-width:1.0;"/><text fill="#000000" font-family="sans-serif" font-size="11" lengthAdjust="spacing" textLength="284" x="231" y="79.2549">CreateAsync(fileName: string): Task&lt;ITraceWriter&lt;TLine&gt;&gt;</text><!--MD5=[3d4b20d523844a7742bcfaf38f4a7853]
class ITraceEncoderFactory--><rect codeLine="13" fill="#FEFECE" filter="url(#f1m2c2dle0f3a5)" height="61.8359" id="ITraceEncoderFactory" style="stroke:#A80036;stroke-width:1.5;" width="250" x="610" y="17"/><ellipse cx="625" cy="33" fill="#B4A7E5" rx="11" ry="11" style="stroke:#A80036;stroke-width:1.0;"/><path d="M625.9531,29.6406 L625.9531,36.2969 L627.6719,36.2969 Q628.2813,36.2969 628.5469,36.5313 Q628.8125,36.7656 628.8125,37.1563 Q628.8125,37.5313 628.5469,37.7656 Q628.2813,38 627.6719,38 L622.5313,38 Q621.9219,38 621.6563,37.7656 Q621.3906,37.5313 621.3906,37.1406 Q621.3906,36.7656 621.6563,36.5313 Q621.9219,36.2969 622.5313,36.2969 L624.25,36.2969 L624.25,29.6406 L622.5313,29.6406 Q621.9219,29.6406 621.6563,29.4063 Q621.3906,29.1719 621.3906,28.7813 Q621.3906,28.4063 621.6563,28.1719 Q621.9219,27.9375 622.5313,27.9375 L627.6719,27.9375 Q628.2813,27.9375 628.5469,28.1719 Q628.8125,28.4063 628.8125,28.7813 Q628.8125,29.1719 628.5469,29.4063 Q628.2813,29.6406 627.6719,29.6406 L625.9531,29.6406 Z " fill="#000000"/><text fill="#000000" font-family="sans-serif" font-size="12" font-style="italic" lengthAdjust="spacing" textLength="121" x="639" y="37.9102">ITraceEncoderFactory</text><rect fill="#FFFFFF" height="17.0938" style="stroke:#000000;stroke-width:1.0;stroke-dasharray:2.0,2.0;" width="95" x="768" y="14"/><text fill="#000000" font-family="sans-serif" font-size="12" font-style="italic" lengthAdjust="spacing" textLength="93" x="769" y="27.457">TLine:ITraceLine</text><line style="stroke:#A80036;stroke-width:1.5;" x1="611" x2="859" y1="49" y2="49"/><line style="stroke:#A80036;stroke-width:1.5;" x1="611" x2="859" y1="57" y2="57"/><ellipse cx="621" cy="68" fill="#84BE84" rx="3" ry="3" style="stroke:#038048;stroke-width:1.0;"/><text fill="#000000" font-family="sans-serif" font-size="11" lengthAdjust="spacing" textLength="154" x="630" y="72.4189">Create(): ITraceEncoder&lt;TLine&gt;</text><!--MD5=[6f6d608e6fcd45a869ad33795209fe26]
class ITraceEncoder--><rect codeLine="17" fill="#FEFECE" filter="url(#f1m2c2dle0f3a5)" height="61.8359" id="ITraceEncoder" style="stroke:#A80036;stroke-width:1.5;" width="235" x="429.5" y="301"/><ellipse cx="455.75" cy="317" fill="#B4A7E5" rx="11" ry="11" style="stroke:#A80036;stroke-width:1.0;"/><path d="M456.7031,313.6406 L456.7031,320.2969 L458.4219,320.2969 Q459.0313,320.2969 459.2969,320.5313 Q459.5625,320.7656 459.5625,321.1563 Q459.5625,321.5313 459.2969,321.7656 Q459.0313,322 458.4219,322 L453.2813,322 Q452.6719,322 452.4063,321.7656 Q452.1406,321.5313 452.1406,321.1406 Q452.1406,320.7656 452.4063,320.5313 Q452.6719,320.2969 453.2813,320.2969 L455,320.2969 L455,313.6406 L453.2813,313.6406 Q452.6719,313.6406 452.4063,313.4063 Q452.1406,313.1719 452.1406,312.7813 Q452.1406,312.4063 452.4063,312.1719 Q452.6719,311.9375 453.2813,311.9375 L458.4219,311.9375 Q459.0313,311.9375 459.2969,312.1719 Q459.5625,312.4063 459.5625,312.7813 Q459.5625,313.1719 459.2969,313.4063 Q459.0313,313.6406 458.4219,313.6406 L456.7031,313.6406 Z " fill="#000000"/><text fill="#000000" font-family="sans-serif" font-size="12" font-style="italic" lengthAdjust="spacing" textLength="81" x="472.25" y="321.9102">ITraceEncoder</text><rect fill="#FFFFFF" height="17.0938" style="stroke:#000000;stroke-width:1.0;stroke-dasharray:2.0,2.0;" width="95" x="572.5" y="298"/><text fill="#000000" font-family="sans-serif" font-size="12" font-style="italic" lengthAdjust="spacing" textLength="93" x="573.5" y="311.457">TLine:ITraceLine</text><line style="stroke:#A80036;stroke-width:1.5;" x1="430.5" x2="663.5" y1="333" y2="333"/><line style="stroke:#A80036;stroke-width:1.5;" x1="430.5" x2="663.5" y1="341" y2="341"/><ellipse cx="440.5" cy="352" fill="#84BE84" rx="3" ry="3" style="stroke:#038048;stroke-width:1.0;"/><text fill="#000000" font-family="sans-serif" font-size="11" lengthAdjust="spacing" textLength="209" x="449.5" y="356.4189">Encode(buffer: Span&lt;byte&gt;, line: TLine): int</text><!--MD5=[ace027bf483721c23d5316e550f7b06b]
class DltTraceWriterFactory--><rect codeLine="21" fill="#FEFECE" filter="url(#f1m2c2dle0f3a5)" height="75.6719" id="DltTraceWriterFactory" style="stroke:#A80036;stroke-width:1.5;" width="369" x="181.5" y="164"/><ellipse cx="235.25" cy="180" fill="#ADD1B2" rx="11" ry="11" style="stroke:#A80036;stroke-width:1.0;"/><path d="M238.0156,175.875 Q238.1719,175.6563 238.3594,175.5469 Q238.5469,175.4375 238.7656,175.4375 Q239.1406,175.4375 239.375,175.6953 Q239.6094,175.9531 239.6094,176.5625 L239.6094,178.0156 Q239.6094,178.625 239.375,178.8906 Q239.1406,179.1563 238.7656,179.1563 Q238.4219,179.1563 238.2188,178.9531 Q238.0156,178.7656 237.9063,178.25 Q237.8594,177.8906 237.6719,177.7031 Q237.3438,177.3281 236.7344,177.1094 Q236.125,176.8906 235.5,176.8906 Q234.7344,176.8906 234.1016,177.2188 Q233.4688,177.5469 232.9766,178.2969 Q232.4844,179.0469 232.4844,180.0781 L232.4844,181.1719 Q232.4844,182.4063 233.375,183.2266 Q234.2656,184.0469 235.8594,184.0469 Q236.7969,184.0469 237.4531,183.7969 Q237.8438,183.6406 238.2656,183.2031 Q238.5313,182.9375 238.6797,182.8594 Q238.8281,182.7813 239.0313,182.7813 Q239.3594,182.7813 239.6172,183.0391 Q239.875,183.2969 239.875,183.6406 Q239.875,183.9844 239.5313,184.3906 Q239.0313,184.9688 238.2344,185.2969 Q237.1563,185.75 235.8594,185.75 Q234.3438,185.75 233.1406,185.125 Q232.1563,184.625 231.4688,183.5547 Q230.7813,182.4844 230.7813,181.2031 L230.7813,180.0469 Q230.7813,178.7188 231.3984,177.5703 Q232.0156,176.4219 233.1094,175.8047 Q234.2031,175.1875 235.4375,175.1875 Q236.1719,175.1875 236.8203,175.3516 Q237.4688,175.5156 238.0156,175.875 Z " fill="#000000"/><text fill="#000000" font-family="sans-serif" font-size="12" lengthAdjust="spacing" textLength="117" x="255.75" y="184.9102">DltTraceWriterFactory</text><rect fill="#FFFFFF" height="17.0938" style="stroke:#000000;stroke-width:1.0;stroke-dasharray:2.0,2.0;" width="134" x="419.5" y="161"/><text fill="#000000" font-family="sans-serif" font-size="12" font-style="italic" lengthAdjust="spacing" textLength="132" x="420.5" y="174.457">TLine:DltTraceLineBase</text><line style="stroke:#A80036;stroke-width:1.5;" x1="182.5" x2="549.5" y1="196" y2="196"/><line style="stroke:#A80036;stroke-width:1.5;" x1="182.5" x2="549.5" y1="204" y2="204"/><ellipse cx="192.5" cy="215" fill="#84BE84" rx="3" ry="3" style="stroke:#038048;stroke-width:1.0;"/><text fill="#000000" font-family="sans-serif" font-size="11" lengthAdjust="spacing" textLength="342" x="201.5" y="219.4189">CreateAsync(stream: Stream): Task&lt;ITraceWriter&lt;DltTraceLineBase&gt;&gt;</text><ellipse cx="192.5" cy="228.8359" fill="#84BE84" rx="3" ry="3" style="stroke:#038048;stroke-width:1.0;"/><text fill="#000000" font-family="sans-serif" font-size="11" lengthAdjust="spacing" textLength="343" x="201.5" y="233.2549">CreateAsync(fileName: string): Task&lt;ITraceWriter&lt;DltTraceLineBase&gt;&gt;</text><!--MD5=[693760e5828a0c053fd123ee51f17a2a]
class DltTraceWriter--><rect codeLine="35" fill="#FEFECE" filter="url(#f1m2c2dle0f3a5)" height="61.8359" id="DltTraceWriter" style="stroke:#A80036;stroke-width:1.5;" width="247" x="164.5" y="441"/><ellipse cx="179.95" cy="457" fill="#ADD1B2" rx="11" ry="11" style="stroke:#A80036;stroke-width:1.0;"/><path d="M182.7156,452.875 Q182.8719,452.6563 183.0594,452.5469 Q183.2469,452.4375 183.4656,452.4375 Q183.8406,452.4375 184.075,452.6953 Q184.3094,452.9531 184.3094,453.5625 L184.3094,455.0156 Q184.3094,455.625 184.075,455.8906 Q183.8406,456.1563 183.4656,456.1563 Q183.1219,456.1563 182.9188,455.9531 Q182.7156,455.7656 182.6063,455.25 Q182.5594,454.8906 182.3719,454.7031 Q182.0438,454.3281 181.4344,454.1094 Q180.825,453.8906 180.2,453.8906 Q179.4344,453.8906 178.8016,454.2188 Q178.1688,454.5469 177.6766,455.2969 Q177.1844,456.0469 177.1844,457.0781 L177.1844,458.1719 Q177.1844,459.4063 178.075,460.2266 Q178.9656,461.0469 180.5594,461.0469 Q181.4969,461.0469 182.1531,460.7969 Q182.5438,460.6406 182.9656,460.2031 Q183.2313,459.9375 183.3797,459.8594 Q183.5281,459.7813 183.7313,459.7813 Q184.0594,459.7813 184.3172,460.0391 Q184.575,460.2969 184.575,460.6406 Q184.575,460.9844 184.2313,461.3906 Q183.7313,461.9688 182.9344,462.2969 Q181.8563,462.75 180.5594,462.75 Q179.0438,462.75 177.8406,462.125 Q176.8563,461.625 176.1688,460.5547 Q175.4813,459.4844 175.4813,458.2031 L175.4813,457.0469 Q175.4813,455.7188 176.0984,454.5703 Q176.7156,453.4219 177.8094,452.8047 Q178.9031,452.1875 180.1375,452.1875 Q180.8719,452.1875 181.5203,452.3516 Q182.1688,452.5156 182.7156,452.875 Z " fill="#000000"/><text fill="#000000" font-family="sans-serif" font-size="12" lengthAdjust="spacing" textLength="78" x="194.05" y="461.9102">DltTraceWriter</text><rect fill="#FFFFFF" height="17.0938" style="stroke:#000000;stroke-width:1.0;stroke-dasharray:2.0,2.0;" width="134" x="280.5" y="438"/><text fill="#000000" font-family="sans-serif" font-size="12" font-style="italic" lengthAdjust="spacing" textLength="132" x="281.5" y="451.457">TLine:DltTraceLineBase</text><line style="stroke:#A80036;stroke-width:1.5;" x1="165.5" x2="410.5" y1="473" y2="473"/><line style="stroke:#A80036;stroke-width:1.5;" x1="165.5" x2="410.5" y1="481" y2="481"/><ellipse cx="175.5" cy="492" fill="#84BE84" rx="3" ry="3" style="stroke:#038048;stroke-width:1.0;"/><text fill="#000000" font-family="sans-serif" font-size="11" lengthAdjust="spacing" textLength="221" x="184.5" y="496.4189">WriteLineAsync(line: DltTraceLineBase): Task</text><!--MD5=[4aada09f93d0b6e7ebd03dfdc6a2603a]
class DltTraceEncoderFactory--><rect codeLine="28" fill="#FEFECE" filter="url(#f1m2c2dle0f3a5)" height="61.8359" id="DltTraceEncoderFactory" style="stroke:#A80036;stroke-width:1.5;" width="299" x="585.5" y="171"/><ellipse cx="600.5" cy="187" fill="#ADD1B2" rx="11" ry="11" style="stroke:#A80036;stroke-width:1.0;"/><path d="M603.2656,182.875 Q603.4219,182.6563 603.6094,182.5469 Q603.7969,182.4375 604.0156,182.4375 Q604.3906,182.4375 604.625,182.6953 Q604.8594,182.9531 604.8594,183.5625 L604.8594,185.0156 Q604.8594,185.625 604.625,185.8906 Q604.3906,186.1563 604.0156,186.1563 Q603.6719,186.1563 603.4688,185.9531 Q603.2656,185.7656 603.1563,185.25 Q603.1094,184.8906 602.9219,184.7031 Q602.5938,184.3281 601.9844,184.1094 Q601.375,183.8906 600.75,183.8906 Q599.9844,183.8906 599.3516,184.2188 Q598.7188,184.5469 598.2266,185.2969 Q597.7344,186.0469 597.7344,187.0781 L597.7344,188.1719 Q597.7344,189.4063 598.625,190.2266 Q599.5156,191.0469 601.1094,191.0469 Q602.0469,191.0469 602.7031,190.7969 Q603.0938,190.6406 603.5156,190.2031 Q603.7813,189.9375 603.9297,189.8594 Q604.0781,189.7813 604.2813,189.7813 Q604.6094,189.7813 604.8672,190.0391 Q605.125,190.2969 605.125,190.6406 Q605.125,190.9844 604.7813,191.3906 Q604.2813,191.9688 603.4844,192.2969 Q602.4063,192.75 601.1094,192.75 Q599.5938,192.75 598.3906,192.125 Q597.4063,191.625 596.7188,190.5547 Q596.0313,189.4844 596.0313,188.2031 L596.0313,187.0469 Q596.0313,185.7188 596.6484,184.5703 Q597.2656,183.4219 598.3594,182.8047 Q599.4531,182.1875 600.6875,182.1875 Q601.4219,182.1875 602.0703,182.3516 Q602.7188,182.5156 603.2656,182.875 Z " fill="#000000"/><text fill="#000000" font-family="sans-serif" font-size="12" lengthAdjust="spacing" textLength="131" x="614.5" y="191.9102">DltTraceEncoderFactory</text><rect fill="#FFFFFF" height="17.0938" style="stroke:#000000;stroke-width:1.0;stroke-dasharray:2.0,2.0;" width="134" x="753.5" y="168"/><text fill="#000000" font-family="sans-serif" font-size="12" font-style="italic" lengthAdjust="spacing" textLength="132" x="754.5" y="181.457">TLine:DltTraceLineBase</text><line style="stroke:#A80036;stroke-width:1.5;" x1="586.5" x2="883.5" y1="203" y2="203"/><line style="stroke:#A80036;stroke-width:1.5;" x1="586.5" x2="883.5" y1="211" y2="211"/><ellipse cx="596.5" cy="222" fill="#84BE84" rx="3" ry="3" style="stroke:#038048;stroke-width:1.0;"/><text fill="#000000" font-family="sans-serif" font-size="11" lengthAdjust="spacing" textLength="216" x="605.5" y="226.4189">Create() : ITraceEncoder&lt;DltTraceLineBase&gt;</text><!--MD5=[11363600cc92b2fece27b28de66320bf]
class DltTraceEncoder--><rect codeLine="40" fill="#FEFECE" filter="url(#f1m2c2dle0f3a5)" height="61.8359" id="DltTraceEncoder" style="stroke:#A80036;stroke-width:1.5;" width="294" x="447" y="441"/><ellipse cx="477.3" cy="457" fill="#ADD1B2" rx="11" ry="11" style="stroke:#A80036;stroke-width:1.0;"/><path d="M480.0656,452.875 Q480.2219,452.6563 480.4094,452.5469 Q480.5969,452.4375 480.8156,452.4375 Q481.1906,452.4375 481.425,452.6953 Q481.6594,452.9531 481.6594,453.5625 L481.6594,455.0156 Q481.6594,455.625 481.425,455.8906 Q481.1906,456.1563 480.8156,456.1563 Q480.4719,456.1563 480.2688,455.9531 Q480.0656,455.7656 479.9563,455.25 Q479.9094,454.8906 479.7219,454.7031 Q479.3938,454.3281 478.7844,454.1094 Q478.175,453.8906 477.55,453.8906 Q476.7844,453.8906 476.1516,454.2188 Q475.5188,454.5469 475.0266,455.2969 Q474.5344,456.0469 474.5344,457.0781 L474.5344,458.1719 Q474.5344,459.4063 475.425,460.2266 Q476.3156,461.0469 477.9094,461.0469 Q478.8469,461.0469 479.5031,460.7969 Q479.8938,460.6406 480.3156,460.2031 Q480.5813,459.9375 480.7297,459.8594 Q480.8781,459.7813 481.0813,459.7813 Q481.4094,459.7813 481.6672,460.0391 Q481.925,460.2969 481.925,460.6406 Q481.925,460.9844 481.5813,461.3906 Q481.0813,461.9688 480.2844,462.2969 Q479.2063,462.75 477.9094,462.75 Q476.3938,462.75 475.1906,462.125 Q474.2063,461.625 473.5188,460.5547 Q472.8313,459.4844 472.8313,458.2031 L472.8313,457.0469 Q472.8313,455.7188 473.4484,454.5703 Q474.0656,453.4219 475.1594,452.8047 Q476.2531,452.1875 477.4875,452.1875 Q478.2219,452.1875 478.8703,452.3516 Q479.5188,452.5156 480.0656,452.875 Z " fill="#000000"/><text fill="#000000" font-family="sans-serif" font-size="12" lengthAdjust="spacing" textLength="92" x="494.7" y="461.9102">DltTraceEncoder</text><rect fill="#FFFFFF" height="17.0938" style="stroke:#000000;stroke-width:1.0;stroke-dasharray:2.0,2.0;" width="134" x="610" y="438"/><text fill="#000000" font-family="sans-serif" font-size="12" font-style="italic" lengthAdjust="spacing" textLength="132" x="611" y="451.457">TLine:DltTraceLineBase</text><line style="stroke:#A80036;stroke-width:1.5;" x1="448" x2="740" y1="473" y2="473"/><line style="stroke:#A80036;stroke-width:1.5;" x1="448" x2="740" y1="481" y2="481"/><ellipse cx="458" cy="492" fill="#84BE84" rx="3" ry="3" style="stroke:#038048;stroke-width:1.0;"/><text fill="#000000" font-family="sans-serif" font-size="11" lengthAdjust="spacing" textLength="268" x="467" y="496.4189">Encode(buffer: Span&lt;byte&gt;, line: DltTraceLineBase): int</text><!--MD5=[e837c6ae25177b1b05c25d8f06c8a808]
reverse link IDisposable to ITraceWriter--><path codeLine="6" d="M99.71,246.36 C100.83,264.24 102.1,284.52 103.11,300.75 " fill="none" id="IDisposable-backto-ITraceWriter" style="stroke:#A80036;stroke-width:1.0;stroke-dasharray:7.0,7.0;"/><polygon fill="none" points="92.71,246.58,98.45,226.18,106.68,245.7,92.71,246.58" style="stroke:#A80036;stroke-width:1.0;"/><!--MD5=[69cd178d38187af2f1c41eb097fd1569]
reverse link ITraceWriterFactory to DltTraceWriterFactory--><path codeLine="25" d="M366,106.22 C366,125.54 366,146.59 366,163.94 " fill="none" id="ITraceWriterFactory-backto-DltTraceWriterFactory" style="stroke:#A80036;stroke-width:1.0;stroke-dasharray:7.0,7.0;"/><polygon fill="none" points="359,106.18,366,86.18,373,106.18,359,106.18" style="stroke:#A80036;stroke-width:1.0;"/><text fill="#000000" font-family="sans-serif" font-size="13" lengthAdjust="spacing" textLength="153" x="367" y="130.4951">TLine -&gt; DltTraceLineBase</text><!--MD5=[f6abb9af0c72eccf2f520bf872a97810]
link DltTraceWriterFactory to DltTraceWriter--><path codeLine="26" d="M355.39,240.23 C343.49,281.88 323.56,351.33 306,411 C303.64,419.04 301.07,427.67 298.63,435.81 " fill="none" id="DltTraceWriterFactory-to-DltTraceWriter" style="stroke:#A80036;stroke-width:1.0;"/><polygon fill="#A80036" points="297.13,440.8,303.5577,433.3377,298.5733,436.0128,295.8982,431.0285,297.13,440.8" style="stroke:#A80036;stroke-width:1.0;"/><text fill="#000000" font-family="sans-serif" font-size="13" lengthAdjust="spacing" textLength="57" x="338" y="337.4951">«creates»</text><!--MD5=[743f4453b45b18e879bfa4d4b4711942]
reverse link ITraceEncoderFactory to DltTraceEncoderFactory--><path codeLine="31" d="M735,99.38 C735,123.01 735,150.39 735,170.77 " fill="none" id="ITraceEncoderFactory-backto-DltTraceEncoderFactory" style="stroke:#A80036;stroke-width:1.0;stroke-dasharray:7.0,7.0;"/><polygon fill="none" points="728,99.03,735,79.03,742,99.03,728,99.03" style="stroke:#A80036;stroke-width:1.0;"/><text fill="#000000" font-family="sans-serif" font-size="13" lengthAdjust="spacing" textLength="153" x="736" y="130.4951">TLine -&gt; DltTraceLineBase</text><!--MD5=[2a3711c6def2097e49888f30cbc18b00]
reverse link DltTraceWriterFactory to DltTraceEncoderFactory--><path codeLine="32" d="M564.08,202 C571.18,202 578.28,202 585.39,202 " fill="none" id="DltTraceWriterFactory-backto-DltTraceEncoderFactory" style="stroke:#A80036;stroke-width:1.0;"/><polygon fill="none" points="550.86,202,556.86,206,562.86,202,556.86,198,550.86,202" style="stroke:#A80036;stroke-width:1.0;"/><!--MD5=[5520f4b9bfd96b2e3a03ee9f851472ca]
link DltTraceEncoderFactory to DltTraceEncoder--><path codeLine="33" d="M740.21,233.25 C745.96,276.69 750.05,357.37 713,411 C705.57,421.76 695.62,430.69 684.63,438.07 " fill="none" id="DltTraceEncoderFactory-to-DltTraceEncoder" style="stroke:#A80036;stroke-width:1.0;"/><polygon fill="#A80036" points="680.2,440.93,689.93,439.4045,684.3994,438.2161,685.5878,432.6855,680.2,440.93" style="stroke:#A80036;stroke-width:1.0;"/><text fill="#000000" font-family="sans-serif" font-size="13" lengthAdjust="spacing" textLength="57" x="744" y="337.4951">«creates»</text><!--MD5=[c7f8317ed6f025d759ad249b011acfe9]
reverse link ITraceWriter to DltTraceWriter--><path codeLine="38" d="M124.57,381.52 C130.57,392.22 138.01,402.8 147,411 C160.17,423.01 176.1,432.85 192.45,440.82 " fill="none" id="ITraceWriter-backto-DltTraceWriter" style="stroke:#A80036;stroke-width:1.0;stroke-dasharray:7.0,7.0;"/><polygon fill="none" points="118.11,384.23,115.58,363.19,130.68,378.06,118.11,384.23" style="stroke:#A80036;stroke-width:1.0;"/><text fill="#000000" font-family="sans-serif" font-size="13" lengthAdjust="spacing" textLength="153" x="148" y="407.4951">TLine -&gt; DltTraceLineBase</text><!--MD5=[f059986529b2b4c81376e873afa2327e]
reverse link ITraceEncoder to DltTraceEncoder--><path codeLine="43" d="M547.85,383.6 C549.03,392.89 550.96,402.37 554,411 C557.66,421.39 563.53,431.73 569.66,440.82 " fill="none" id="ITraceEncoder-backto-DltTraceEncoder" style="stroke:#A80036;stroke-width:1.0;stroke-dasharray:7.0,7.0;"/><polygon fill="none" points="540.85,383.86,546.26,363.37,554.8,382.76,540.85,383.86" style="stroke:#A80036;stroke-width:1.0;"/><text fill="#000000" font-family="sans-serif" font-size="13" lengthAdjust="spacing" textLength="153" x="555" y="407.4951">TLine -&gt; DltTraceLineBase</text><!--MD5=[53676bf06b75dffe3a1662ef5583c8d3]
reverse link DltTraceWriter to DltTraceEncoder--><path codeLine="44" d="M424.93,472 C432.28,472 439.62,472 446.96,472 " fill="none" id="DltTraceWriter-backto-DltTraceEncoder" style="stroke:#A80036;stroke-width:1.0;"/><polygon fill="none" points="411.71,472,417.71,476,423.71,472,417.71,468,411.71,472" style="stroke:#A80036;stroke-width:1.0;"/><!--MD5=[e3d5125e3c42b30467214b002ccec122]
@startuml DLT.Writer
interface IDisposable

interface ITraceWriter<TLine:ITraceLine> {
    +WriteLineAsync(line: TLine): Task
}
IDisposable <|.d. ITraceWriter

interface ITraceWriterFactory<TLine:ITraceLine> {
    +CreateAsync(stream: Stream): Task<ITraceWriter<TLine>>
    +CreateAsync(fileName: string): Task<ITraceWriter<TLine>>
}

interface ITraceEncoderFactory<TLine:ITraceLine> {
    +Create(): ITraceEncoder<TLine>
}

interface ITraceEncoder<TLine:ITraceLine> {
    +Encode(buffer: Span<byte>, line: TLine): int
}

class DltTraceWriterFactory<TLine:DltTraceLineBase> {
    +CreateAsync(stream: Stream): Task<ITraceWriter<DltTraceLineBase>>
    +CreateAsync(fileName: string): Task<ITraceWriter<DltTraceLineBase>>
}
ITraceWriterFactory <|.d. DltTraceWriterFactory : TLine -> DltTraceLineBase
DltTraceWriterFactory -d- -> DltTraceWriter : <<creates>>

class DltTraceEncoderFactory<TLine:DltTraceLineBase> {
    +Create() : ITraceEncoder<DltTraceLineBase>
}
ITraceEncoderFactory <|.d. DltTraceEncoderFactory : TLine -> DltTraceLineBase
DltTraceWriterFactory o-r- DltTraceEncoderFactory
DltTraceEncoderFactory -d- -> DltTraceEncoder : <<creates>>

class DltTraceWriter<TLine:DltTraceLineBase> {
    +WriteLineAsync(line: DltTraceLineBase): Task
}
ITraceWriter <|.d. DltTraceWriter : TLine -> DltTraceLineBase

class DltTraceEncoder<TLine:DltTraceLineBase> {
    +Encode(buffer: Span<byte>, line: DltTraceLineBase): int
}
ITraceEncoder <|.d. DltTraceEncoder : TLine -> DltTraceLineBase
DltTraceWriter o-r- DltTraceEncoder
@enduml

PlantUML version 1.2022.1(Tue Feb 01 19:19:58 CET 2022)
(GPL source distribution)
Java Runtime: Java(TM) SE Runtime Environment
JVM: Java HotSpot(TM) Client VM
Default Encoding: Cp1252
Language: en
Country: US
--></g></svg>