<?xml version="1.0" encoding="UTF-8" standalone="no"?><svg xmlns="http://www.w3.org/2000/svg" xmlns:xlink="http://www.w3.org/1999/xlink" contentScriptType="application/ecmascript" contentStyleType="text/css" height="516px" preserveAspectRatio="none" style="width:903px;height:516px;background:#FFFFFF;" version="1.1" viewBox="0 0 903 516" width="903px" zoomAndPan="magnify"><defs><filter height="300%" id="f1fojsyomjk0el" width="300%" x="-1" y="-1"><feGaussianBlur result="blurOut" stdDeviation="2.0"/><feColorMatrix in="blurOut" result="blurOut2" type="matrix" values="0 0 0 0 0 0 0 0 0 0 0 0 0 0 0 0 0 0 .4 0"/><feOffset dx="4.0" dy="4.0" in="blurOut2" result="blurOut3"/><feBlend in="SourceGraphic" in2="blurOut3" mode="normal"/></filter></defs><g><!--MD5=[fe50a4f6767356ff4dcdadb85ef8cbdd]
class IDisposable--><rect codeLine="1" fill="#FEFECE" filter="url(#f1fojsyomjk0el)" height="48" id="IDisposable" style="stroke:#A80036;stroke-width:1.5;" width="99" x="52.5" y="178"/><ellipse cx="67.5" cy="194" fill="#B4A7E5" rx="11" ry="11" style="stroke:#A80036;stroke-width:1.0;"/><path d="M68.4531,190.6406 L68.4531,197.2969 L70.1719,197.2969 Q70.7813,197.2969 71.0469,197.5313 Q71.3125,197.7656 71.3125,198.1563 Q71.3125,198.5313 71.0469,198.7656 Q70.7813,199 70.1719,199 L65.0313,199 Q64.4219,199 64.1563,198.7656 Q63.8906,198.5313 63.8906,198.1406 Q63.8906,197.7656 64.1563,197.5313 Q64.4219,197.2969 65.0313,197.2969 L66.75,197.2969 L66.75,190.6406 L65.0313,190.6406 Q64.4219,190.6406 64.1563,190.4063 Q63.8906,190.1719 63.8906,189.7813 Q63.8906,189.4063 64.1563,189.1719 Q64.4219,188.9375 65.0313,188.9375 L70.1719,188.9375 Q70.7813,188.9375 71.0469,189.1719 Q71.3125,189.4063 71.3125,189.7813 Q71.3125,190.1719 71.0469,190.4063 Q70.7813,190.6406 70.1719,190.6406 L68.4531,190.6406 Z " fill="#000000"/><text fill="#000000" font-family="sans-serif" font-size="12" font-style="italic" lengthAdjust="spacing" textLength="67" x="81.5" y="198.9102">IDisposable</text><line style="stroke:#A80036;stroke-width:1.5;" x1="53.5" x2="150.5" y1="210" y2="210"/><line style="stroke:#A80036;stroke-width:1.5;" x1="53.5" x2="150.5" y1="218" y2="218"/><!--MD5=[21bd5291c9d33bd8ac5dbc523f6b6348]
class ITraceWriter--><rect codeLine="3" fill="#FEFECE" filter="url(#f1fojsyomjk0el)" height="61.8359" id="ITraceWriter" style="stroke:#A80036;stroke-width:1.5;" width="220" x="7" y="301"/><ellipse cx="32.8" cy="317" fill="#B4A7E5" rx="11" ry="11" style="stroke:#A80036;stroke-width:1.0;"/><path d="M33.7531,313.6406 L33.7531,320.2969 L35.4719,320.2969 Q36.0813,320.2969 36.3469,320.5313 Q36.6125,320.7656 36.6125,321.1563 Q36.6125,321.5313 36.3469,321.7656 Q36.0813,322 35.4719,322 L30.3312,322 Q29.7219,322 29.4562,321.7656 Q29.1906,321.5313 29.1906,321.1406 Q29.1906,320.7656 29.4562,320.5313 Q29.7219,320.2969 30.3312,320.2969 L32.05,320.2969 L32.05,313.6406 L30.3312,313.6406 Q29.7219,313.6406 29.4562,313.4063 Q29.1906,313.1719 29.1906,312.7813 Q29.1906,312.4063 29.4562,312.1719 Q29.7219,311.9375 30.3312,311.9375 L35.4719,311.9375 Q36.0813,311.9375 36.3469,312.1719 Q36.6125,312.4063 36.6125,312.7813 Q36.6125,313.1719 36.3469,313.4063 Q36.0813,313.6406 35.4719,313.6406 L33.7531,313.6406 Z " fill="#000000"/><text fill="#000000" font-family="sans-serif" font-size="12" font-style="italic" lengthAdjust="spacing" textLength="67" x="49.2" y="321.9102">ITraceWriter</text><rect fill="#FFFFFF" height="17.0938" style="stroke:#000000;stroke-width:1.0;stroke-dasharray:2.0,2.0;" width="95" x="135" y="298"/><text fill="#000000" font-family="sans-serif" font-size="12" font-style="italic" lengthAdjust="spacing" textLength="93" x="136" y="311.457">TLine:ITraceLine</text><line style="stroke:#A80036;stroke-width:1.5;" x1="8" x2="226" y1="333" y2="333"/><line style="stroke:#A80036;stroke-width:1.5;" x1="8" x2="226" y1="341" y2="341"/><ellipse cx="18" cy="352" fill="#84BE84" rx="3" ry="3" style="stroke:#038048;stroke-width:1.0;"/><text fill="#000000" font-family="sans-serif" font-size="11" lengthAdjust="spacing" textLength="194" x="27" y="356.4189">WriteLineAsync(line: TLine): Task&lt;bool&gt;</text><!--MD5=[cabab2f1e47c9036d3f8c125841e7330]
class ITraceWriterFactory--><rect codeLine="8" fill="#FEFECE" filter="url(#f1fojsyomjk0el)" height="75.6719" id="ITraceWriterFactory" style="stroke:#A80036;stroke-width:1.5;" width="310" x="216" y="10"/><ellipse cx="264.75" cy="26" fill="#B4A7E5" rx="11" ry="11" style="stroke:#A80036;stroke-width:1.0;"/><path d="M265.7031,22.6406 L265.7031,29.2969 L267.4219,29.2969 Q268.0313,29.2969 268.2969,29.5313 Q268.5625,29.7656 268.5625,30.1563 Q268.5625,30.5313 268.2969,30.7656 Q268.0313,31 267.4219,31 L262.2813,31 Q261.6719,31 261.4063,30.7656 Q261.1406,30.5313 261.1406,30.1406 Q261.1406,29.7656 261.4063,29.5313 Q261.6719,29.2969 262.2813,29.2969 L264,29.2969 L264,22.6406 L262.2813,22.6406 Q261.6719,22.6406 261.4063,22.4063 Q261.1406,22.1719 261.1406,21.7813 Q261.1406,21.4063 261.4063,21.1719 Q261.6719,20.9375 262.2813,20.9375 L267.4219,20.9375 Q268.0313,20.9375 268.2969,21.1719 Q268.5625,21.4063 268.5625,21.7813 Q268.5625,22.1719 268.2969,22.4063 Q268.0313,22.6406 267.4219,22.6406 L265.7031,22.6406 Z " fill="#000000"/><text fill="#000000" font-family="sans-serif" font-size="12" font-style="italic" lengthAdjust="spacing" textLength="107" x="285.25" y="30.9102">ITraceWriterFactory</text><rect fill="#FFFFFF" height="17.0938" style="stroke:#000000;stroke-width:1.0;stroke-dasharray:2.0,2.0;" width="95" x="434" y="7"/><text fill="#000000" font-family="sans-serif" font-size="12" font-style="italic" lengthAdjust="spacing" textLength="93" x="435" y="20.457">TLine:ITraceLine</text><line style="stroke:#A80036;stroke-width:1.5;" x1="217" x2="525" y1="42" y2="42"/><line style="stroke:#A80036;stroke-width:1.5;" x1="217" x2="525" y1="50" y2="50"/><ellipse cx="227" cy="61" fill="#84BE84" rx="3" ry="3" style="stroke:#038048;stroke-width:1.0;"/><text fill="#000000" font-family="sans-serif" font-size="11" lengthAdjust="spacing" textLength="283" x="236" y="65.4189">CreateAsync(stream: Stream): Task&lt;ITraceWriter&lt;TLine&gt;&gt;</text><ellipse cx="227" cy="74.8359" fill="#84BE84" rx="3" ry="3" style="stroke:#038048;stroke-width:1.0;"/><text fill="#000000" font-family="sans-serif" font-size="11" lengthAdjust="spacing" textLength="284" x="236" y="79.2549">CreateAsync(fileName: string): Task&lt;ITraceWriter&lt;TLine&gt;&gt;</text><!--MD5=[3d4b20d523844a7742bcfaf38f4a7853]
class ITraceEncoderFactory--><rect codeLine="13" fill="#FEFECE" filter="url(#f1fojsyomjk0el)" height="61.8359" id="ITraceEncoderFactory" style="stroke:#A80036;stroke-width:1.5;" width="250" x="615" y="17"/><ellipse cx="630" cy="33" fill="#B4A7E5" rx="11" ry="11" style="stroke:#A80036;stroke-width:1.0;"/><path d="M630.9531,29.6406 L630.9531,36.2969 L632.6719,36.2969 Q633.2813,36.2969 633.5469,36.5313 Q633.8125,36.7656 633.8125,37.1563 Q633.8125,37.5313 633.5469,37.7656 Q633.2813,38 632.6719,38 L627.5313,38 Q626.9219,38 626.6563,37.7656 Q626.3906,37.5313 626.3906,37.1406 Q626.3906,36.7656 626.6563,36.5313 Q626.9219,36.2969 627.5313,36.2969 L629.25,36.2969 L629.25,29.6406 L627.5313,29.6406 Q626.9219,29.6406 626.6563,29.4063 Q626.3906,29.1719 626.3906,28.7813 Q626.3906,28.4063 626.6563,28.1719 Q626.9219,27.9375 627.5313,27.9375 L632.6719,27.9375 Q633.2813,27.9375 633.5469,28.1719 Q633.8125,28.4063 633.8125,28.7813 Q633.8125,29.1719 633.5469,29.4063 Q633.2813,29.6406 632.6719,29.6406 L630.9531,29.6406 Z " fill="#000000"/><text fill="#000000" font-family="sans-serif" font-size="12" font-style="italic" lengthAdjust="spacing" textLength="121" x="644" y="37.9102">ITraceEncoderFactory</text><rect fill="#FFFFFF" height="17.0938" style="stroke:#000000;stroke-width:1.0;stroke-dasharray:2.0,2.0;" width="95" x="773" y="14"/><text fill="#000000" font-family="sans-serif" font-size="12" font-style="italic" lengthAdjust="spacing" textLength="93" x="774" y="27.457">TLine:ITraceLine</text><line style="stroke:#A80036;stroke-width:1.5;" x1="616" x2="864" y1="49" y2="49"/><line style="stroke:#A80036;stroke-width:1.5;" x1="616" x2="864" y1="57" y2="57"/><ellipse cx="626" cy="68" fill="#84BE84" rx="3" ry="3" style="stroke:#038048;stroke-width:1.0;"/><text fill="#000000" font-family="sans-serif" font-size="11" lengthAdjust="spacing" textLength="154" x="635" y="72.4189">Create(): ITraceEncoder&lt;TLine&gt;</text><!--MD5=[6f6d608e6fcd45a869ad33795209fe26]
class ITraceEncoder--><rect codeLine="17" fill="#FEFECE" filter="url(#f1fojsyomjk0el)" height="61.8359" id="ITraceEncoder" style="stroke:#A80036;stroke-width:1.5;" width="235" x="434.5" y="301"/><ellipse cx="460.75" cy="317" fill="#B4A7E5" rx="11" ry="11" style="stroke:#A80036;stroke-width:1.0;"/><path d="M461.7031,313.6406 L461.7031,320.2969 L463.4219,320.2969 Q464.0313,320.2969 464.2969,320.5313 Q464.5625,320.7656 464.5625,321.1563 Q464.5625,321.5313 464.2969,321.7656 Q464.0313,322 463.4219,322 L458.2813,322 Q457.6719,322 457.4063,321.7656 Q457.1406,321.5313 457.1406,321.1406 Q457.1406,320.7656 457.4063,320.5313 Q457.6719,320.2969 458.2813,320.2969 L460,320.2969 L460,313.6406 L458.2813,313.6406 Q457.6719,313.6406 457.4063,313.4063 Q457.1406,313.1719 457.1406,312.7813 Q457.1406,312.4063 457.4063,312.1719 Q457.6719,311.9375 458.2813,311.9375 L463.4219,311.9375 Q464.0313,311.9375 464.2969,312.1719 Q464.5625,312.4063 464.5625,312.7813 Q464.5625,313.1719 464.2969,313.4063 Q464.0313,313.6406 463.4219,313.6406 L461.7031,313.6406 Z " fill="#000000"/><text fill="#000000" font-family="sans-serif" font-size="12" font-style="italic" lengthAdjust="spacing" textLength="81" x="477.25" y="321.9102">ITraceEncoder</text><rect fill="#FFFFFF" height="17.0938" style="stroke:#000000;stroke-width:1.0;stroke-dasharray:2.0,2.0;" width="95" x="577.5" y="298"/><text fill="#000000" font-family="sans-serif" font-size="12" font-style="italic" lengthAdjust="spacing" textLength="93" x="578.5" y="311.457">TLine:ITraceLine</text><line style="stroke:#A80036;stroke-width:1.5;" x1="435.5" x2="668.5" y1="333" y2="333"/><line style="stroke:#A80036;stroke-width:1.5;" x1="435.5" x2="668.5" y1="341" y2="341"/><ellipse cx="445.5" cy="352" fill="#84BE84" rx="3" ry="3" style="stroke:#038048;stroke-width:1.0;"/><text fill="#000000" font-family="sans-serif" font-size="11" lengthAdjust="spacing" textLength="209" x="454.5" y="356.4189">Encode(buffer: Span&lt;byte&gt;, line: TLine): int</text><!--MD5=[ace027bf483721c23d5316e550f7b06b]
class DltTraceWriterFactory--><rect codeLine="21" fill="#FEFECE" filter="url(#f1fojsyomjk0el)" height="75.6719" id="DltTraceWriterFactory" style="stroke:#A80036;stroke-width:1.5;" width="369" x="186.5" y="164"/><ellipse cx="240.25" cy="180" fill="#ADD1B2" rx="11" ry="11" style="stroke:#A80036;stroke-width:1.0;"/><path d="M243.0156,175.875 Q243.1719,175.6563 243.3594,175.5469 Q243.5469,175.4375 243.7656,175.4375 Q244.1406,175.4375 244.375,175.6953 Q244.6094,175.9531 244.6094,176.5625 L244.6094,178.0156 Q244.6094,178.625 244.375,178.8906 Q244.1406,179.1563 243.7656,179.1563 Q243.4219,179.1563 243.2188,178.9531 Q243.0156,178.7656 242.9063,178.25 Q242.8594,177.8906 242.6719,177.7031 Q242.3438,177.3281 241.7344,177.1094 Q241.125,176.8906 240.5,176.8906 Q239.7344,176.8906 239.1016,177.2188 Q238.4688,177.5469 237.9766,178.2969 Q237.4844,179.0469 237.4844,180.0781 L237.4844,181.1719 Q237.4844,182.4063 238.375,183.2266 Q239.2656,184.0469 240.8594,184.0469 Q241.7969,184.0469 242.4531,183.7969 Q242.8438,183.6406 243.2656,183.2031 Q243.5313,182.9375 243.6797,182.8594 Q243.8281,182.7813 244.0313,182.7813 Q244.3594,182.7813 244.6172,183.0391 Q244.875,183.2969 244.875,183.6406 Q244.875,183.9844 244.5313,184.3906 Q244.0313,184.9688 243.2344,185.2969 Q242.1563,185.75 240.8594,185.75 Q239.3438,185.75 238.1406,185.125 Q237.1563,184.625 236.4688,183.5547 Q235.7813,182.4844 235.7813,181.2031 L235.7813,180.0469 Q235.7813,178.7188 236.3984,177.5703 Q237.0156,176.4219 238.1094,175.8047 Q239.2031,175.1875 240.4375,175.1875 Q241.1719,175.1875 241.8203,175.3516 Q242.4688,175.5156 243.0156,175.875 Z " fill="#000000"/><text fill="#000000" font-family="sans-serif" font-size="12" lengthAdjust="spacing" textLength="117" x="260.75" y="184.9102">DltTraceWriterFactory</text><rect fill="#FFFFFF" height="17.0938" style="stroke:#000000;stroke-width:1.0;stroke-dasharray:2.0,2.0;" width="134" x="424.5" y="161"/><text fill="#000000" font-family="sans-serif" font-size="12" font-style="italic" lengthAdjust="spacing" textLength="132" x="425.5" y="174.457">TLine:DltTraceLineBase</text><line style="stroke:#A80036;stroke-width:1.5;" x1="187.5" x2="554.5" y1="196" y2="196"/><line style="stroke:#A80036;stroke-width:1.5;" x1="187.5" x2="554.5" y1="204" y2="204"/><ellipse cx="197.5" cy="215" fill="#84BE84" rx="3" ry="3" style="stroke:#038048;stroke-width:1.0;"/><text fill="#000000" font-family="sans-serif" font-size="11" lengthAdjust="spacing" textLength="342" x="206.5" y="219.4189">CreateAsync(stream: Stream): Task&lt;ITraceWriter&lt;DltTraceLineBase&gt;&gt;</text><ellipse cx="197.5" cy="228.8359" fill="#84BE84" rx="3" ry="3" style="stroke:#038048;stroke-width:1.0;"/><text fill="#000000" font-family="sans-serif" font-size="11" lengthAdjust="spacing" textLength="343" x="206.5" y="233.2549">CreateAsync(fileName: string): Task&lt;ITraceWriter&lt;DltTraceLineBase&gt;&gt;</text><!--MD5=[693760e5828a0c053fd123ee51f17a2a]
class DltTraceWriter--><rect codeLine="35" fill="#FEFECE" filter="url(#f1fojsyomjk0el)" height="61.8359" id="DltTraceWriter" style="stroke:#A80036;stroke-width:1.5;" width="279" x="145.5" y="441"/><ellipse cx="175.35" cy="457" fill="#ADD1B2" rx="11" ry="11" style="stroke:#A80036;stroke-width:1.0;"/><path d="M178.1156,452.875 Q178.2719,452.6563 178.4594,452.5469 Q178.6469,452.4375 178.8656,452.4375 Q179.2406,452.4375 179.475,452.6953 Q179.7094,452.9531 179.7094,453.5625 L179.7094,455.0156 Q179.7094,455.625 179.475,455.8906 Q179.2406,456.1563 178.8656,456.1563 Q178.5219,456.1563 178.3188,455.9531 Q178.1156,455.7656 178.0063,455.25 Q177.9594,454.8906 177.7719,454.7031 Q177.4438,454.3281 176.8344,454.1094 Q176.225,453.8906 175.6,453.8906 Q174.8344,453.8906 174.2016,454.2188 Q173.5688,454.5469 173.0766,455.2969 Q172.5844,456.0469 172.5844,457.0781 L172.5844,458.1719 Q172.5844,459.4063 173.475,460.2266 Q174.3656,461.0469 175.9594,461.0469 Q176.8969,461.0469 177.5531,460.7969 Q177.9438,460.6406 178.3656,460.2031 Q178.6313,459.9375 178.7797,459.8594 Q178.9281,459.7813 179.1313,459.7813 Q179.4594,459.7813 179.7172,460.0391 Q179.975,460.2969 179.975,460.6406 Q179.975,460.9844 179.6313,461.3906 Q179.1313,461.9688 178.3344,462.2969 Q177.2563,462.75 175.9594,462.75 Q174.4438,462.75 173.2406,462.125 Q172.2563,461.625 171.5688,460.5547 Q170.8813,459.4844 170.8813,458.2031 L170.8813,457.0469 Q170.8813,455.7188 171.4984,454.5703 Q172.1156,453.4219 173.2094,452.8047 Q174.3031,452.1875 175.5375,452.1875 Q176.2719,452.1875 176.9203,452.3516 Q177.5688,452.5156 178.1156,452.875 Z " fill="#000000"/><text fill="#000000" font-family="sans-serif" font-size="12" lengthAdjust="spacing" textLength="78" x="192.65" y="461.9102">DltTraceWriter</text><rect fill="#FFFFFF" height="17.0938" style="stroke:#000000;stroke-width:1.0;stroke-dasharray:2.0,2.0;" width="134" x="293.5" y="438"/><text fill="#000000" font-family="sans-serif" font-size="12" font-style="italic" lengthAdjust="spacing" textLength="132" x="294.5" y="451.457">TLine:DltTraceLineBase</text><line style="stroke:#A80036;stroke-width:1.5;" x1="146.5" x2="423.5" y1="473" y2="473"/><line style="stroke:#A80036;stroke-width:1.5;" x1="146.5" x2="423.5" y1="481" y2="481"/><ellipse cx="156.5" cy="492" fill="#84BE84" rx="3" ry="3" style="stroke:#038048;stroke-width:1.0;"/><text fill="#000000" font-family="sans-serif" font-size="11" lengthAdjust="spacing" textLength="253" x="165.5" y="496.4189">WriteLineAsync(line: DltTraceLineBase): Task&lt;bool&gt;</text><!--MD5=[4aada09f93d0b6e7ebd03dfdc6a2603a]
class DltTraceEncoderFactory--><rect codeLine="28" fill="#FEFECE" filter="url(#f1fojsyomjk0el)" height="61.8359" id="DltTraceEncoderFactory" style="stroke:#A80036;stroke-width:1.5;" width="299" x="590.5" y="171"/><ellipse cx="605.5" cy="187" fill="#ADD1B2" rx="11" ry="11" style="stroke:#A80036;stroke-width:1.0;"/><path d="M608.2656,182.875 Q608.4219,182.6563 608.6094,182.5469 Q608.7969,182.4375 609.0156,182.4375 Q609.3906,182.4375 609.625,182.6953 Q609.8594,182.9531 609.8594,183.5625 L609.8594,185.0156 Q609.8594,185.625 609.625,185.8906 Q609.3906,186.1563 609.0156,186.1563 Q608.6719,186.1563 608.4688,185.9531 Q608.2656,185.7656 608.1563,185.25 Q608.1094,184.8906 607.9219,184.7031 Q607.5938,184.3281 606.9844,184.1094 Q606.375,183.8906 605.75,183.8906 Q604.9844,183.8906 604.3516,184.2188 Q603.7188,184.5469 603.2266,185.2969 Q602.7344,186.0469 602.7344,187.0781 L602.7344,188.1719 Q602.7344,189.4063 603.625,190.2266 Q604.5156,191.0469 606.1094,191.0469 Q607.0469,191.0469 607.7031,190.7969 Q608.0938,190.6406 608.5156,190.2031 Q608.7813,189.9375 608.9297,189.8594 Q609.0781,189.7813 609.2813,189.7813 Q609.6094,189.7813 609.8672,190.0391 Q610.125,190.2969 610.125,190.6406 Q610.125,190.9844 609.7813,191.3906 Q609.2813,191.9688 608.4844,192.2969 Q607.4063,192.75 606.1094,192.75 Q604.5938,192.75 603.3906,192.125 Q602.4063,191.625 601.7188,190.5547 Q601.0313,189.4844 601.0313,188.2031 L601.0313,187.0469 Q601.0313,185.7188 601.6484,184.5703 Q602.2656,183.4219 603.3594,182.8047 Q604.4531,182.1875 605.6875,182.1875 Q606.4219,182.1875 607.0703,182.3516 Q607.7188,182.5156 608.2656,182.875 Z " fill="#000000"/><text fill="#000000" font-family="sans-serif" font-size="12" lengthAdjust="spacing" textLength="131" x="619.5" y="191.9102">DltTraceEncoderFactory</text><rect fill="#FFFFFF" height="17.0938" style="stroke:#000000;stroke-width:1.0;stroke-dasharray:2.0,2.0;" width="134" x="758.5" y="168"/><text fill="#000000" font-family="sans-serif" font-size="12" font-style="italic" lengthAdjust="spacing" textLength="132" x="759.5" y="181.457">TLine:DltTraceLineBase</text><line style="stroke:#A80036;stroke-width:1.5;" x1="591.5" x2="888.5" y1="203" y2="203"/><line style="stroke:#A80036;stroke-width:1.5;" x1="591.5" x2="888.5" y1="211" y2="211"/><ellipse cx="601.5" cy="222" fill="#84BE84" rx="3" ry="3" style="stroke:#038048;stroke-width:1.0;"/><text fill="#000000" font-family="sans-serif" font-size="11" lengthAdjust="spacing" textLength="216" x="610.5" y="226.4189">Create() : ITraceEncoder&lt;DltTraceLineBase&gt;</text><!--MD5=[11363600cc92b2fece27b28de66320bf]
class DltTraceEncoder--><rect codeLine="40" fill="#FEFECE" filter="url(#f1fojsyomjk0el)" height="61.8359" id="DltTraceEncoder" style="stroke:#A80036;stroke-width:1.5;" width="294" x="460" y="441"/><ellipse cx="490.3" cy="457" fill="#ADD1B2" rx="11" ry="11" style="stroke:#A80036;stroke-width:1.0;"/><path d="M493.0656,452.875 Q493.2219,452.6563 493.4094,452.5469 Q493.5969,452.4375 493.8156,452.4375 Q494.1906,452.4375 494.425,452.6953 Q494.6594,452.9531 494.6594,453.5625 L494.6594,455.0156 Q494.6594,455.625 494.425,455.8906 Q494.1906,456.1563 493.8156,456.1563 Q493.4719,456.1563 493.2688,455.9531 Q493.0656,455.7656 492.9563,455.25 Q492.9094,454.8906 492.7219,454.7031 Q492.3938,454.3281 491.7844,454.1094 Q491.175,453.8906 490.55,453.8906 Q489.7844,453.8906 489.1516,454.2188 Q488.5188,454.5469 488.0266,455.2969 Q487.5344,456.0469 487.5344,457.0781 L487.5344,458.1719 Q487.5344,459.4063 488.425,460.2266 Q489.3156,461.0469 490.9094,461.0469 Q491.8469,461.0469 492.5031,460.7969 Q492.8938,460.6406 493.3156,460.2031 Q493.5813,459.9375 493.7297,459.8594 Q493.8781,459.7813 494.0813,459.7813 Q494.4094,459.7813 494.6672,460.0391 Q494.925,460.2969 494.925,460.6406 Q494.925,460.9844 494.5813,461.3906 Q494.0813,461.9688 493.2844,462.2969 Q492.2063,462.75 490.9094,462.75 Q489.3938,462.75 488.1906,462.125 Q487.2063,461.625 486.5188,460.5547 Q485.8313,459.4844 485.8313,458.2031 L485.8313,457.0469 Q485.8313,455.7188 486.4484,454.5703 Q487.0656,453.4219 488.1594,452.8047 Q489.2531,452.1875 490.4875,452.1875 Q491.2219,452.1875 491.8703,452.3516 Q492.5188,452.5156 493.0656,452.875 Z " fill="#000000"/><text fill="#000000" font-family="sans-serif" font-size="12" lengthAdjust="spacing" textLength="92" x="507.7" y="461.9102">DltTraceEncoder</text><rect fill="#FFFFFF" height="17.0938" style="stroke:#000000;stroke-width:1.0;stroke-dasharray:2.0,2.0;" width="134" x="623" y="438"/><text fill="#000000" font-family="sans-serif" font-size="12" font-style="italic" lengthAdjust="spacing" textLength="132" x="624" y="451.457">TLine:DltTraceLineBase</text><line style="stroke:#A80036;stroke-width:1.5;" x1="461" x2="753" y1="473" y2="473"/><line style="stroke:#A80036;stroke-width:1.5;" x1="461" x2="753" y1="481" y2="481"/><ellipse cx="471" cy="492" fill="#84BE84" rx="3" ry="3" style="stroke:#038048;stroke-width:1.0;"/><text fill="#000000" font-family="sans-serif" font-size="11" lengthAdjust="spacing" textLength="268" x="480" y="496.4189">Encode(buffer: Span&lt;byte&gt;, line: DltTraceLineBase): int</text><!--MD5=[e837c6ae25177b1b05c25d8f06c8a808]
reverse link IDisposable to ITraceWriter--><path codeLine="6" d="M107.05,246.07 C109.15,264.02 111.54,284.43 113.46,300.75 " fill="none" id="IDisposable-backto-ITraceWriter" style="stroke:#A80036;stroke-width:1.0;stroke-dasharray:7.0,7.0;"/><polygon fill="none" points="100.09,246.86,104.72,226.18,114,245.23,100.09,246.86" style="stroke:#A80036;stroke-width:1.0;"/><!--MD5=[69cd178d38187af2f1c41eb097fd1569]
reverse link ITraceWriterFactory to DltTraceWriterFactory--><path codeLine="25" d="M371,106.22 C371,125.54 371,146.59 371,163.94 " fill="none" id="ITraceWriterFactory-backto-DltTraceWriterFactory" style="stroke:#A80036;stroke-width:1.0;stroke-dasharray:7.0,7.0;"/><polygon fill="none" points="364,106.18,371,86.18,378,106.18,364,106.18" style="stroke:#A80036;stroke-width:1.0;"/><text fill="#000000" font-family="sans-serif" font-size="13" lengthAdjust="spacing" textLength="153" x="372" y="130.4951">TLine -&gt; DltTraceLineBase</text><!--MD5=[f6abb9af0c72eccf2f520bf872a97810]
link DltTraceWriterFactory to DltTraceWriter--><path codeLine="26" d="M359.04,240.26 C342.41,292.1 312.51,385.27 296.26,435.92 " fill="none" id="DltTraceWriterFactory-to-DltTraceWriter" style="stroke:#A80036;stroke-width:1.0;"/><polygon fill="#A80036" points="294.73,440.68,301.2915,433.3351,296.2596,435.9197,293.675,430.8878,294.73,440.68" style="stroke:#A80036;stroke-width:1.0;"/><text fill="#000000" font-family="sans-serif" font-size="13" lengthAdjust="spacing" textLength="57" x="340" y="337.4951">«creates»</text><!--MD5=[743f4453b45b18e879bfa4d4b4711942]
reverse link ITraceEncoderFactory to DltTraceEncoderFactory--><path codeLine="31" d="M740,99.38 C740,123.01 740,150.39 740,170.77 " fill="none" id="ITraceEncoderFactory-backto-DltTraceEncoderFactory" style="stroke:#A80036;stroke-width:1.0;stroke-dasharray:7.0,7.0;"/><polygon fill="none" points="733,99.03,740,79.03,747,99.03,733,99.03" style="stroke:#A80036;stroke-width:1.0;"/><text fill="#000000" font-family="sans-serif" font-size="13" lengthAdjust="spacing" textLength="153" x="741" y="130.4951">TLine -&gt; DltTraceLineBase</text><!--MD5=[2a3711c6def2097e49888f30cbc18b00]
reverse link DltTraceWriterFactory to DltTraceEncoderFactory--><path codeLine="32" d="M569.08,202 C576.18,202 583.28,202 590.39,202 " fill="none" id="DltTraceWriterFactory-backto-DltTraceEncoderFactory" style="stroke:#A80036;stroke-width:1.0;"/><polygon fill="none" points="555.86,202,561.86,206,567.86,202,561.86,198,555.86,202" style="stroke:#A80036;stroke-width:1.0;"/><!--MD5=[5520f4b9bfd96b2e3a03ee9f851472ca]
link DltTraceEncoderFactory to DltTraceEncoder--><path codeLine="33" d="M745,233.11 C750.5,276.38 754.28,356.85 718,411 C710.84,421.68 701.13,430.62 690.41,438.06 " fill="none" id="DltTraceEncoderFactory-to-DltTraceEncoder" style="stroke:#A80036;stroke-width:1.0;"/><polygon fill="#A80036" points="686.09,440.94,695.7973,439.2759,690.2503,438.1665,691.3597,432.6195,686.09,440.94" style="stroke:#A80036;stroke-width:1.0;"/><text fill="#000000" font-family="sans-serif" font-size="13" lengthAdjust="spacing" textLength="57" x="749" y="337.4951">«creates»</text><!--MD5=[c7f8317ed6f025d759ad249b011acfe9]
reverse link ITraceWriter to DltTraceWriter--><path codeLine="38" d="M127.76,382.18 C131.83,392.62 137.39,402.92 145,411 C156.51,423.23 170.92,433.08 186.09,440.98 " fill="none" id="ITraceWriter-backto-DltTraceWriter" style="stroke:#A80036;stroke-width:1.0;stroke-dasharray:7.0,7.0;"/><polygon fill="none" points="121.08,384.26,121.81,363.08,134.44,380.09,121.08,384.26" style="stroke:#A80036;stroke-width:1.0;"/><text fill="#000000" font-family="sans-serif" font-size="13" lengthAdjust="spacing" textLength="153" x="146" y="407.4951">TLine -&gt; DltTraceLineBase</text><!--MD5=[f059986529b2b4c81376e873afa2327e]
reverse link ITraceEncoder to DltTraceEncoder--><path codeLine="43" d="M552.16,383.2 C553.39,392.67 555.51,402.32 559,411 C563.28,421.64 570.1,431.91 577.27,440.85 " fill="none" id="ITraceEncoder-backto-DltTraceEncoder" style="stroke:#A80036;stroke-width:1.0;stroke-dasharray:7.0,7.0;"/><polygon fill="none" points="545.17,383.67,550.69,363.21,559.14,382.64,545.17,383.67" style="stroke:#A80036;stroke-width:1.0;"/><text fill="#000000" font-family="sans-serif" font-size="13" lengthAdjust="spacing" textLength="153" x="560" y="407.4951">TLine -&gt; DltTraceLineBase</text><!--MD5=[53676bf06b75dffe3a1662ef5583c8d3]
reverse link DltTraceWriter to DltTraceEncoder--><path codeLine="44" d="M437.84,472 C445.19,472 452.54,472 459.88,472 " fill="none" id="DltTraceWriter-backto-DltTraceEncoder" style="stroke:#A80036;stroke-width:1.0;"/><polygon fill="none" points="424.62,472,430.62,476,436.62,472,430.62,468,424.62,472" style="stroke:#A80036;stroke-width:1.0;"/><!--MD5=[3094ccc48ac0f20612dadf17056149c4]
@startuml DLT.Writer
interface IDisposable

interface ITraceWriter<TLine:ITraceLine> {
    +WriteLineAsync(line: TLine): Task<bool>
}
IDisposable <|.d. ITraceWriter

interface ITraceWriterFactory<TLine:ITraceLine> {
    +CreateAsync(stream: Stream): Task<ITraceWriter<TLine>>
    +CreateAsync(fileName: string): Task<ITraceWriter<TLine>>
}

interface ITraceEncoderFactory<TLine:ITraceLine> {
    +Create(): ITraceEncoder<TLine>
}

interface ITraceEncoder<TLine:ITraceLine> {
    +Encode(buffer: Span<byte>, line: TLine): int
}

class DltTraceWriterFactory<TLine:DltTraceLineBase> {
    +CreateAsync(stream: Stream): Task<ITraceWriter<DltTraceLineBase>>
    +CreateAsync(fileName: string): Task<ITraceWriter<DltTraceLineBase>>
}
ITraceWriterFactory <|.d. DltTraceWriterFactory : TLine -> DltTraceLineBase
DltTraceWriterFactory -d- -> DltTraceWriter : <<creates>>

class DltTraceEncoderFactory<TLine:DltTraceLineBase> {
    +Create() : ITraceEncoder<DltTraceLineBase>
}
ITraceEncoderFactory <|.d. DltTraceEncoderFactory : TLine -> DltTraceLineBase
DltTraceWriterFactory o-r- DltTraceEncoderFactory
DltTraceEncoderFactory -d- -> DltTraceEncoder : <<creates>>

class DltTraceWriter<TLine:DltTraceLineBase> {
    +WriteLineAsync(line: DltTraceLineBase): Task<bool>
}
ITraceWriter <|.d. DltTraceWriter : TLine -> DltTraceLineBase

class DltTraceEncoder<TLine:DltTraceLineBase> {
    +Encode(buffer: Span<byte>, line: DltTraceLineBase): int
}
ITraceEncoder <|.d. DltTraceEncoder : TLine -> DltTraceLineBase
DltTraceWriter o-r- DltTraceEncoder
@enduml

PlantUML version 1.2022.1(Tue Feb 01 19:19:58 CET 2022)
(GPL source distribution)
Java Runtime: Java(TM) SE Runtime Environment
JVM: Java HotSpot(TM) Client VM
Default Encoding: Cp1252
Language: en
Country: US
--></g></svg>