<?xml version="1.0" encoding="UTF-8" standalone="no"?><svg xmlns="http://www.w3.org/2000/svg" xmlns:xlink="http://www.w3.org/1999/xlink" contentScriptType="application/ecmascript" contentStyleType="text/css" height="516px" preserveAspectRatio="none" style="width:914px;height:516px;background:#FFFFFF;" version="1.1" viewBox="0 0 914 516" width="914px" zoomAndPan="magnify"><defs><filter height="300%" id="fs8jairdpla0h" width="300%" x="-1" y="-1"><feGaussianBlur result="blurOut" stdDeviation="2.0"/><feColorMatrix in="blurOut" result="blurOut2" type="matrix" values="0 0 0 0 0 0 0 0 0 0 0 0 0 0 0 0 0 0 .4 0"/><feOffset dx="4.0" dy="4.0" in="blurOut2" result="blurOut3"/><feBlend in="SourceGraphic" in2="blurOut3" mode="normal"/></filter></defs><g><!--MD5=[fe50a4f6767356ff4dcdadb85ef8cbdd]
class IDisposable--><rect codeLine="1" fill="#FEFECE" filter="url(#fs8jairdpla0h)" height="48" id="IDisposable" style="stroke:#A80036;stroke-width:1.5;" width="99" x="63.5" y="178"/><ellipse cx="78.5" cy="194" fill="#B4A7E5" rx="11" ry="11" style="stroke:#A80036;stroke-width:1.0;"/><path d="M79.4531,190.6406 L79.4531,197.2969 L81.1719,197.2969 Q81.7813,197.2969 82.0469,197.5313 Q82.3125,197.7656 82.3125,198.1563 Q82.3125,198.5313 82.0469,198.7656 Q81.7813,199 81.1719,199 L76.0313,199 Q75.4219,199 75.1563,198.7656 Q74.8906,198.5313 74.8906,198.1406 Q74.8906,197.7656 75.1563,197.5313 Q75.4219,197.2969 76.0313,197.2969 L77.75,197.2969 L77.75,190.6406 L76.0313,190.6406 Q75.4219,190.6406 75.1563,190.4063 Q74.8906,190.1719 74.8906,189.7813 Q74.8906,189.4063 75.1563,189.1719 Q75.4219,188.9375 76.0313,188.9375 L81.1719,188.9375 Q81.7813,188.9375 82.0469,189.1719 Q82.3125,189.4063 82.3125,189.7813 Q82.3125,190.1719 82.0469,190.4063 Q81.7813,190.6406 81.1719,190.6406 L79.4531,190.6406 Z " fill="#000000"/><text fill="#000000" font-family="sans-serif" font-size="12" font-style="italic" lengthAdjust="spacing" textLength="67" x="92.5" y="198.9102">IDisposable</text><line style="stroke:#A80036;stroke-width:1.5;" x1="64.5" x2="161.5" y1="210" y2="210"/><line style="stroke:#A80036;stroke-width:1.5;" x1="64.5" x2="161.5" y1="218" y2="218"/><!--MD5=[21bd5291c9d33bd8ac5dbc523f6b6348]
class ITraceWriter--><rect codeLine="3" fill="#FEFECE" filter="url(#fs8jairdpla0h)" height="61.8359" id="ITraceWriter" style="stroke:#A80036;stroke-width:1.5;" width="220" x="7" y="301"/><ellipse cx="32.8" cy="317" fill="#B4A7E5" rx="11" ry="11" style="stroke:#A80036;stroke-width:1.0;"/><path d="M33.7531,313.6406 L33.7531,320.2969 L35.4719,320.2969 Q36.0813,320.2969 36.3469,320.5313 Q36.6125,320.7656 36.6125,321.1563 Q36.6125,321.5313 36.3469,321.7656 Q36.0813,322 35.4719,322 L30.3312,322 Q29.7219,322 29.4562,321.7656 Q29.1906,321.5313 29.1906,321.1406 Q29.1906,320.7656 29.4562,320.5313 Q29.7219,320.2969 30.3312,320.2969 L32.05,320.2969 L32.05,313.6406 L30.3312,313.6406 Q29.7219,313.6406 29.4562,313.4063 Q29.1906,313.1719 29.1906,312.7813 Q29.1906,312.4063 29.4562,312.1719 Q29.7219,311.9375 30.3312,311.9375 L35.4719,311.9375 Q36.0813,311.9375 36.3469,312.1719 Q36.6125,312.4063 36.6125,312.7813 Q36.6125,313.1719 36.3469,313.4063 Q36.0813,313.6406 35.4719,313.6406 L33.7531,313.6406 Z " fill="#000000"/><text fill="#000000" font-family="sans-serif" font-size="12" font-style="italic" lengthAdjust="spacing" textLength="67" x="49.2" y="321.9102">ITraceWriter</text><rect fill="#FFFFFF" height="17.0938" style="stroke:#000000;stroke-width:1.0;stroke-dasharray:2.0,2.0;" width="95" x="135" y="298"/><text fill="#000000" font-family="sans-serif" font-size="12" font-style="italic" lengthAdjust="spacing" textLength="93" x="136" y="311.457">TLine:ITraceLine</text><line style="stroke:#A80036;stroke-width:1.5;" x1="8" x2="226" y1="333" y2="333"/><line style="stroke:#A80036;stroke-width:1.5;" x1="8" x2="226" y1="341" y2="341"/><ellipse cx="18" cy="352" fill="#84BE84" rx="3" ry="3" style="stroke:#038048;stroke-width:1.0;"/><text fill="#000000" font-family="sans-serif" font-size="11" lengthAdjust="spacing" textLength="194" x="27" y="356.4189">WriteLineAsync(line: TLine): Task&lt;bool&gt;</text><!--MD5=[cabab2f1e47c9036d3f8c125841e7330]
class ITraceWriterFactory--><rect codeLine="8" fill="#FEFECE" filter="url(#fs8jairdpla0h)" height="75.6719" id="ITraceWriterFactory" style="stroke:#A80036;stroke-width:1.5;" width="310" x="227" y="10"/><ellipse cx="275.75" cy="26" fill="#B4A7E5" rx="11" ry="11" style="stroke:#A80036;stroke-width:1.0;"/><path d="M276.7031,22.6406 L276.7031,29.2969 L278.4219,29.2969 Q279.0313,29.2969 279.2969,29.5313 Q279.5625,29.7656 279.5625,30.1563 Q279.5625,30.5313 279.2969,30.7656 Q279.0313,31 278.4219,31 L273.2813,31 Q272.6719,31 272.4063,30.7656 Q272.1406,30.5313 272.1406,30.1406 Q272.1406,29.7656 272.4063,29.5313 Q272.6719,29.2969 273.2813,29.2969 L275,29.2969 L275,22.6406 L273.2813,22.6406 Q272.6719,22.6406 272.4063,22.4063 Q272.1406,22.1719 272.1406,21.7813 Q272.1406,21.4063 272.4063,21.1719 Q272.6719,20.9375 273.2813,20.9375 L278.4219,20.9375 Q279.0313,20.9375 279.2969,21.1719 Q279.5625,21.4063 279.5625,21.7813 Q279.5625,22.1719 279.2969,22.4063 Q279.0313,22.6406 278.4219,22.6406 L276.7031,22.6406 Z " fill="#000000"/><text fill="#000000" font-family="sans-serif" font-size="12" font-style="italic" lengthAdjust="spacing" textLength="107" x="296.25" y="30.9102">ITraceWriterFactory</text><rect fill="#FFFFFF" height="17.0938" style="stroke:#000000;stroke-width:1.0;stroke-dasharray:2.0,2.0;" width="95" x="445" y="7"/><text fill="#000000" font-family="sans-serif" font-size="12" font-style="italic" lengthAdjust="spacing" textLength="93" x="446" y="20.457">TLine:ITraceLine</text><line style="stroke:#A80036;stroke-width:1.5;" x1="228" x2="536" y1="42" y2="42"/><line style="stroke:#A80036;stroke-width:1.5;" x1="228" x2="536" y1="50" y2="50"/><ellipse cx="238" cy="61" fill="#84BE84" rx="3" ry="3" style="stroke:#038048;stroke-width:1.0;"/><text fill="#000000" font-family="sans-serif" font-size="11" lengthAdjust="spacing" textLength="283" x="247" y="65.4189">CreateAsync(stream: Stream): Task&lt;ITraceWriter&lt;TLine&gt;&gt;</text><ellipse cx="238" cy="74.8359" fill="#84BE84" rx="3" ry="3" style="stroke:#038048;stroke-width:1.0;"/><text fill="#000000" font-family="sans-serif" font-size="11" lengthAdjust="spacing" textLength="284" x="247" y="79.2549">CreateAsync(fileName: string): Task&lt;ITraceWriter&lt;TLine&gt;&gt;</text><!--MD5=[3d4b20d523844a7742bcfaf38f4a7853]
class ITraceEncoderFactory--><rect codeLine="13" fill="#FEFECE" filter="url(#fs8jairdpla0h)" height="61.8359" id="ITraceEncoderFactory" style="stroke:#A80036;stroke-width:1.5;" width="250" x="626" y="17"/><ellipse cx="641" cy="33" fill="#B4A7E5" rx="11" ry="11" style="stroke:#A80036;stroke-width:1.0;"/><path d="M641.9531,29.6406 L641.9531,36.2969 L643.6719,36.2969 Q644.2813,36.2969 644.5469,36.5313 Q644.8125,36.7656 644.8125,37.1563 Q644.8125,37.5313 644.5469,37.7656 Q644.2813,38 643.6719,38 L638.5313,38 Q637.9219,38 637.6563,37.7656 Q637.3906,37.5313 637.3906,37.1406 Q637.3906,36.7656 637.6563,36.5313 Q637.9219,36.2969 638.5313,36.2969 L640.25,36.2969 L640.25,29.6406 L638.5313,29.6406 Q637.9219,29.6406 637.6563,29.4063 Q637.3906,29.1719 637.3906,28.7813 Q637.3906,28.4063 637.6563,28.1719 Q637.9219,27.9375 638.5313,27.9375 L643.6719,27.9375 Q644.2813,27.9375 644.5469,28.1719 Q644.8125,28.4063 644.8125,28.7813 Q644.8125,29.1719 644.5469,29.4063 Q644.2813,29.6406 643.6719,29.6406 L641.9531,29.6406 Z " fill="#000000"/><text fill="#000000" font-family="sans-serif" font-size="12" font-style="italic" lengthAdjust="spacing" textLength="121" x="655" y="37.9102">ITraceEncoderFactory</text><rect fill="#FFFFFF" height="17.0938" style="stroke:#000000;stroke-width:1.0;stroke-dasharray:2.0,2.0;" width="95" x="784" y="14"/><text fill="#000000" font-family="sans-serif" font-size="12" font-style="italic" lengthAdjust="spacing" textLength="93" x="785" y="27.457">TLine:ITraceLine</text><line style="stroke:#A80036;stroke-width:1.5;" x1="627" x2="875" y1="49" y2="49"/><line style="stroke:#A80036;stroke-width:1.5;" x1="627" x2="875" y1="57" y2="57"/><ellipse cx="637" cy="68" fill="#84BE84" rx="3" ry="3" style="stroke:#038048;stroke-width:1.0;"/><text fill="#000000" font-family="sans-serif" font-size="11" lengthAdjust="spacing" textLength="154" x="646" y="72.4189">Create(): ITraceEncoder&lt;TLine&gt;</text><!--MD5=[6f6d608e6fcd45a869ad33795209fe26]
class ITraceEncoder--><rect codeLine="17" fill="#FEFECE" filter="url(#fs8jairdpla0h)" height="61.8359" id="ITraceEncoder" style="stroke:#A80036;stroke-width:1.5;" width="277" x="403.5" y="301"/><ellipse cx="448.75" cy="317" fill="#B4A7E5" rx="11" ry="11" style="stroke:#A80036;stroke-width:1.0;"/><path d="M449.7031,313.6406 L449.7031,320.2969 L451.4219,320.2969 Q452.0313,320.2969 452.2969,320.5313 Q452.5625,320.7656 452.5625,321.1563 Q452.5625,321.5313 452.2969,321.7656 Q452.0313,322 451.4219,322 L446.2813,322 Q445.6719,322 445.4063,321.7656 Q445.1406,321.5313 445.1406,321.1406 Q445.1406,320.7656 445.4063,320.5313 Q445.6719,320.2969 446.2813,320.2969 L448,320.2969 L448,313.6406 L446.2813,313.6406 Q445.6719,313.6406 445.4063,313.4063 Q445.1406,313.1719 445.1406,312.7813 Q445.1406,312.4063 445.4063,312.1719 Q445.6719,311.9375 446.2813,311.9375 L451.4219,311.9375 Q452.0313,311.9375 452.2969,312.1719 Q452.5625,312.4063 452.5625,312.7813 Q452.5625,313.1719 452.2969,313.4063 Q452.0313,313.6406 451.4219,313.6406 L449.7031,313.6406 Z " fill="#000000"/><text fill="#000000" font-family="sans-serif" font-size="12" font-style="italic" lengthAdjust="spacing" textLength="81" x="469.25" y="321.9102">ITraceEncoder</text><rect fill="#FFFFFF" height="17.0938" style="stroke:#000000;stroke-width:1.0;stroke-dasharray:2.0,2.0;" width="95" x="588.5" y="298"/><text fill="#000000" font-family="sans-serif" font-size="12" font-style="italic" lengthAdjust="spacing" textLength="93" x="589.5" y="311.457">TLine:ITraceLine</text><line style="stroke:#A80036;stroke-width:1.5;" x1="404.5" x2="679.5" y1="333" y2="333"/><line style="stroke:#A80036;stroke-width:1.5;" x1="404.5" x2="679.5" y1="341" y2="341"/><ellipse cx="414.5" cy="352" fill="#84BE84" rx="3" ry="3" style="stroke:#038048;stroke-width:1.0;"/><text fill="#000000" font-family="sans-serif" font-size="11" lengthAdjust="spacing" textLength="251" x="423.5" y="356.4189">Encode(buffer: Span&lt;byte&gt;, line: TLine): Result&lt;int&gt;</text><!--MD5=[ace027bf483721c23d5316e550f7b06b]
class DltTraceWriterFactory--><rect codeLine="21" fill="#FEFECE" filter="url(#fs8jairdpla0h)" height="75.6719" id="DltTraceWriterFactory" style="stroke:#A80036;stroke-width:1.5;" width="369" x="197.5" y="164"/><ellipse cx="251.25" cy="180" fill="#ADD1B2" rx="11" ry="11" style="stroke:#A80036;stroke-width:1.0;"/><path d="M254.0156,175.875 Q254.1719,175.6563 254.3594,175.5469 Q254.5469,175.4375 254.7656,175.4375 Q255.1406,175.4375 255.375,175.6953 Q255.6094,175.9531 255.6094,176.5625 L255.6094,178.0156 Q255.6094,178.625 255.375,178.8906 Q255.1406,179.1563 254.7656,179.1563 Q254.4219,179.1563 254.2188,178.9531 Q254.0156,178.7656 253.9063,178.25 Q253.8594,177.8906 253.6719,177.7031 Q253.3438,177.3281 252.7344,177.1094 Q252.125,176.8906 251.5,176.8906 Q250.7344,176.8906 250.1016,177.2188 Q249.4688,177.5469 248.9766,178.2969 Q248.4844,179.0469 248.4844,180.0781 L248.4844,181.1719 Q248.4844,182.4063 249.375,183.2266 Q250.2656,184.0469 251.8594,184.0469 Q252.7969,184.0469 253.4531,183.7969 Q253.8438,183.6406 254.2656,183.2031 Q254.5313,182.9375 254.6797,182.8594 Q254.8281,182.7813 255.0313,182.7813 Q255.3594,182.7813 255.6172,183.0391 Q255.875,183.2969 255.875,183.6406 Q255.875,183.9844 255.5313,184.3906 Q255.0313,184.9688 254.2344,185.2969 Q253.1563,185.75 251.8594,185.75 Q250.3438,185.75 249.1406,185.125 Q248.1563,184.625 247.4688,183.5547 Q246.7813,182.4844 246.7813,181.2031 L246.7813,180.0469 Q246.7813,178.7188 247.3984,177.5703 Q248.0156,176.4219 249.1094,175.8047 Q250.2031,175.1875 251.4375,175.1875 Q252.1719,175.1875 252.8203,175.3516 Q253.4688,175.5156 254.0156,175.875 Z " fill="#000000"/><text fill="#000000" font-family="sans-serif" font-size="12" lengthAdjust="spacing" textLength="117" x="271.75" y="184.9102">DltTraceWriterFactory</text><rect fill="#FFFFFF" height="17.0938" style="stroke:#000000;stroke-width:1.0;stroke-dasharray:2.0,2.0;" width="134" x="435.5" y="161"/><text fill="#000000" font-family="sans-serif" font-size="12" font-style="italic" lengthAdjust="spacing" textLength="132" x="436.5" y="174.457">TLine:DltTraceLineBase</text><line style="stroke:#A80036;stroke-width:1.5;" x1="198.5" x2="565.5" y1="196" y2="196"/><line style="stroke:#A80036;stroke-width:1.5;" x1="198.5" x2="565.5" y1="204" y2="204"/><ellipse cx="208.5" cy="215" fill="#84BE84" rx="3" ry="3" style="stroke:#038048;stroke-width:1.0;"/><text fill="#000000" font-family="sans-serif" font-size="11" lengthAdjust="spacing" textLength="342" x="217.5" y="219.4189">CreateAsync(stream: Stream): Task&lt;ITraceWriter&lt;DltTraceLineBase&gt;&gt;</text><ellipse cx="208.5" cy="228.8359" fill="#84BE84" rx="3" ry="3" style="stroke:#038048;stroke-width:1.0;"/><text fill="#000000" font-family="sans-serif" font-size="11" lengthAdjust="spacing" textLength="343" x="217.5" y="233.2549">CreateAsync(fileName: string): Task&lt;ITraceWriter&lt;DltTraceLineBase&gt;&gt;</text><!--MD5=[693760e5828a0c053fd123ee51f17a2a]
class DltTraceWriter--><rect codeLine="35" fill="#FEFECE" filter="url(#fs8jairdpla0h)" height="61.8359" id="DltTraceWriter" style="stroke:#A80036;stroke-width:1.5;" width="279" x="114.5" y="441"/><ellipse cx="144.35" cy="457" fill="#ADD1B2" rx="11" ry="11" style="stroke:#A80036;stroke-width:1.0;"/><path d="M147.1156,452.875 Q147.2719,452.6563 147.4594,452.5469 Q147.6469,452.4375 147.8656,452.4375 Q148.2406,452.4375 148.475,452.6953 Q148.7094,452.9531 148.7094,453.5625 L148.7094,455.0156 Q148.7094,455.625 148.475,455.8906 Q148.2406,456.1563 147.8656,456.1563 Q147.5219,456.1563 147.3188,455.9531 Q147.1156,455.7656 147.0063,455.25 Q146.9594,454.8906 146.7719,454.7031 Q146.4438,454.3281 145.8344,454.1094 Q145.225,453.8906 144.6,453.8906 Q143.8344,453.8906 143.2016,454.2188 Q142.5688,454.5469 142.0766,455.2969 Q141.5844,456.0469 141.5844,457.0781 L141.5844,458.1719 Q141.5844,459.4063 142.475,460.2266 Q143.3656,461.0469 144.9594,461.0469 Q145.8969,461.0469 146.5531,460.7969 Q146.9438,460.6406 147.3656,460.2031 Q147.6313,459.9375 147.7797,459.8594 Q147.9281,459.7813 148.1313,459.7813 Q148.4594,459.7813 148.7172,460.0391 Q148.975,460.2969 148.975,460.6406 Q148.975,460.9844 148.6313,461.3906 Q148.1313,461.9688 147.3344,462.2969 Q146.2563,462.75 144.9594,462.75 Q143.4438,462.75 142.2406,462.125 Q141.2563,461.625 140.5688,460.5547 Q139.8813,459.4844 139.8813,458.2031 L139.8813,457.0469 Q139.8813,455.7188 140.4984,454.5703 Q141.1156,453.4219 142.2094,452.8047 Q143.3031,452.1875 144.5375,452.1875 Q145.2719,452.1875 145.9203,452.3516 Q146.5688,452.5156 147.1156,452.875 Z " fill="#000000"/><text fill="#000000" font-family="sans-serif" font-size="12" lengthAdjust="spacing" textLength="78" x="161.65" y="461.9102">DltTraceWriter</text><rect fill="#FFFFFF" height="17.0938" style="stroke:#000000;stroke-width:1.0;stroke-dasharray:2.0,2.0;" width="134" x="262.5" y="438"/><text fill="#000000" font-family="sans-serif" font-size="12" font-style="italic" lengthAdjust="spacing" textLength="132" x="263.5" y="451.457">TLine:DltTraceLineBase</text><line style="stroke:#A80036;stroke-width:1.5;" x1="115.5" x2="392.5" y1="473" y2="473"/><line style="stroke:#A80036;stroke-width:1.5;" x1="115.5" x2="392.5" y1="481" y2="481"/><ellipse cx="125.5" cy="492" fill="#84BE84" rx="3" ry="3" style="stroke:#038048;stroke-width:1.0;"/><text fill="#000000" font-family="sans-serif" font-size="11" lengthAdjust="spacing" textLength="253" x="134.5" y="496.4189">WriteLineAsync(line: DltTraceLineBase): Task&lt;bool&gt;</text><!--MD5=[4aada09f93d0b6e7ebd03dfdc6a2603a]
class DltTraceEncoderFactory--><rect codeLine="28" fill="#FEFECE" filter="url(#fs8jairdpla0h)" height="61.8359" id="DltTraceEncoderFactory" style="stroke:#A80036;stroke-width:1.5;" width="299" x="601.5" y="171"/><ellipse cx="616.5" cy="187" fill="#ADD1B2" rx="11" ry="11" style="stroke:#A80036;stroke-width:1.0;"/><path d="M619.2656,182.875 Q619.4219,182.6563 619.6094,182.5469 Q619.7969,182.4375 620.0156,182.4375 Q620.3906,182.4375 620.625,182.6953 Q620.8594,182.9531 620.8594,183.5625 L620.8594,185.0156 Q620.8594,185.625 620.625,185.8906 Q620.3906,186.1563 620.0156,186.1563 Q619.6719,186.1563 619.4688,185.9531 Q619.2656,185.7656 619.1563,185.25 Q619.1094,184.8906 618.9219,184.7031 Q618.5938,184.3281 617.9844,184.1094 Q617.375,183.8906 616.75,183.8906 Q615.9844,183.8906 615.3516,184.2188 Q614.7188,184.5469 614.2266,185.2969 Q613.7344,186.0469 613.7344,187.0781 L613.7344,188.1719 Q613.7344,189.4063 614.625,190.2266 Q615.5156,191.0469 617.1094,191.0469 Q618.0469,191.0469 618.7031,190.7969 Q619.0938,190.6406 619.5156,190.2031 Q619.7813,189.9375 619.9297,189.8594 Q620.0781,189.7813 620.2813,189.7813 Q620.6094,189.7813 620.8672,190.0391 Q621.125,190.2969 621.125,190.6406 Q621.125,190.9844 620.7813,191.3906 Q620.2813,191.9688 619.4844,192.2969 Q618.4063,192.75 617.1094,192.75 Q615.5938,192.75 614.3906,192.125 Q613.4063,191.625 612.7188,190.5547 Q612.0313,189.4844 612.0313,188.2031 L612.0313,187.0469 Q612.0313,185.7188 612.6484,184.5703 Q613.2656,183.4219 614.3594,182.8047 Q615.4531,182.1875 616.6875,182.1875 Q617.4219,182.1875 618.0703,182.3516 Q618.7188,182.5156 619.2656,182.875 Z " fill="#000000"/><text fill="#000000" font-family="sans-serif" font-size="12" lengthAdjust="spacing" textLength="131" x="630.5" y="191.9102">DltTraceEncoderFactory</text><rect fill="#FFFFFF" height="17.0938" style="stroke:#000000;stroke-width:1.0;stroke-dasharray:2.0,2.0;" width="134" x="769.5" y="168"/><text fill="#000000" font-family="sans-serif" font-size="12" font-style="italic" lengthAdjust="spacing" textLength="132" x="770.5" y="181.457">TLine:DltTraceLineBase</text><line style="stroke:#A80036;stroke-width:1.5;" x1="602.5" x2="899.5" y1="203" y2="203"/><line style="stroke:#A80036;stroke-width:1.5;" x1="602.5" x2="899.5" y1="211" y2="211"/><ellipse cx="612.5" cy="222" fill="#84BE84" rx="3" ry="3" style="stroke:#038048;stroke-width:1.0;"/><text fill="#000000" font-family="sans-serif" font-size="11" lengthAdjust="spacing" textLength="216" x="621.5" y="226.4189">Create() : ITraceEncoder&lt;DltTraceLineBase&gt;</text><!--MD5=[11363600cc92b2fece27b28de66320bf]
class DltTraceEncoder--><rect codeLine="40" fill="#FEFECE" filter="url(#fs8jairdpla0h)" height="61.8359" id="DltTraceEncoder" style="stroke:#A80036;stroke-width:1.5;" width="336" x="429" y="441"/><ellipse cx="478.75" cy="457" fill="#ADD1B2" rx="11" ry="11" style="stroke:#A80036;stroke-width:1.0;"/><path d="M481.5156,452.875 Q481.6719,452.6563 481.8594,452.5469 Q482.0469,452.4375 482.2656,452.4375 Q482.6406,452.4375 482.875,452.6953 Q483.1094,452.9531 483.1094,453.5625 L483.1094,455.0156 Q483.1094,455.625 482.875,455.8906 Q482.6406,456.1563 482.2656,456.1563 Q481.9219,456.1563 481.7188,455.9531 Q481.5156,455.7656 481.4063,455.25 Q481.3594,454.8906 481.1719,454.7031 Q480.8438,454.3281 480.2344,454.1094 Q479.625,453.8906 479,453.8906 Q478.2344,453.8906 477.6016,454.2188 Q476.9688,454.5469 476.4766,455.2969 Q475.9844,456.0469 475.9844,457.0781 L475.9844,458.1719 Q475.9844,459.4063 476.875,460.2266 Q477.7656,461.0469 479.3594,461.0469 Q480.2969,461.0469 480.9531,460.7969 Q481.3438,460.6406 481.7656,460.2031 Q482.0313,459.9375 482.1797,459.8594 Q482.3281,459.7813 482.5313,459.7813 Q482.8594,459.7813 483.1172,460.0391 Q483.375,460.2969 483.375,460.6406 Q483.375,460.9844 483.0313,461.3906 Q482.5313,461.9688 481.7344,462.2969 Q480.6563,462.75 479.3594,462.75 Q477.8438,462.75 476.6406,462.125 Q475.6563,461.625 474.9688,460.5547 Q474.2813,459.4844 474.2813,458.2031 L474.2813,457.0469 Q474.2813,455.7188 474.8984,454.5703 Q475.5156,453.4219 476.6094,452.8047 Q477.7031,452.1875 478.9375,452.1875 Q479.6719,452.1875 480.3203,452.3516 Q480.9688,452.5156 481.5156,452.875 Z " fill="#000000"/><text fill="#000000" font-family="sans-serif" font-size="12" lengthAdjust="spacing" textLength="92" x="499.25" y="461.9102">DltTraceEncoder</text><rect fill="#FFFFFF" height="17.0938" style="stroke:#000000;stroke-width:1.0;stroke-dasharray:2.0,2.0;" width="134" x="634" y="438"/><text fill="#000000" font-family="sans-serif" font-size="12" font-style="italic" lengthAdjust="spacing" textLength="132" x="635" y="451.457">TLine:DltTraceLineBase</text><line style="stroke:#A80036;stroke-width:1.5;" x1="430" x2="764" y1="473" y2="473"/><line style="stroke:#A80036;stroke-width:1.5;" x1="430" x2="764" y1="481" y2="481"/><ellipse cx="440" cy="492" fill="#84BE84" rx="3" ry="3" style="stroke:#038048;stroke-width:1.0;"/><text fill="#000000" font-family="sans-serif" font-size="11" lengthAdjust="spacing" textLength="310" x="449" y="496.4189">Encode(buffer: Span&lt;byte&gt;, line: DltTraceLineBase): Result&lt;int&gt;</text><!--MD5=[e837c6ae25177b1b05c25d8f06c8a808]
reverse link IDisposable to ITraceWriter--><path codeLine="6" d="M114.35,246.36 C114.91,264.24 115.55,284.52 116.05,300.75 " fill="none" id="IDisposable-backto-ITraceWriter" style="stroke:#A80036;stroke-width:1.0;stroke-dasharray:7.0,7.0;"/><polygon fill="none" points="107.35,246.39,113.72,226.18,121.35,245.95,107.35,246.39" style="stroke:#A80036;stroke-width:1.0;"/><!--MD5=[69cd178d38187af2f1c41eb097fd1569]
reverse link ITraceWriterFactory to DltTraceWriterFactory--><path codeLine="25" d="M382,106.22 C382,125.54 382,146.59 382,163.94 " fill="none" id="ITraceWriterFactory-backto-DltTraceWriterFactory" style="stroke:#A80036;stroke-width:1.0;stroke-dasharray:7.0,7.0;"/><polygon fill="none" points="375,106.18,382,86.18,389,106.18,375,106.18" style="stroke:#A80036;stroke-width:1.0;"/><text fill="#000000" font-family="sans-serif" font-size="13" lengthAdjust="spacing" textLength="153" x="383" y="130.4951">TLine -&gt; DltTraceLineBase</text><!--MD5=[f6abb9af0c72eccf2f520bf872a97810]
link DltTraceWriterFactory to DltTraceWriter--><path codeLine="26" d="M359.67,240.09 C349.18,258.17 336.85,280.41 327,301 C304.29,348.51 304.25,362.82 283,411 C279.34,419.31 275.19,428.16 271.21,436.44 " fill="none" id="DltTraceWriterFactory-to-DltTraceWriter" style="stroke:#A80036;stroke-width:1.0;"/><polygon fill="#A80036" points="269.02,440.98,276.5502,434.632,271.2045,436.4825,269.3541,431.1368,269.02,440.98" style="stroke:#A80036;stroke-width:1.0;"/><text fill="#000000" font-family="sans-serif" font-size="13" lengthAdjust="spacing" textLength="57" x="328" y="337.4951">«creates»</text><!--MD5=[743f4453b45b18e879bfa4d4b4711942]
reverse link ITraceEncoderFactory to DltTraceEncoderFactory--><path codeLine="31" d="M751,99.38 C751,123.01 751,150.39 751,170.77 " fill="none" id="ITraceEncoderFactory-backto-DltTraceEncoderFactory" style="stroke:#A80036;stroke-width:1.0;stroke-dasharray:7.0,7.0;"/><polygon fill="none" points="744,99.03,751,79.03,758,99.03,744,99.03" style="stroke:#A80036;stroke-width:1.0;"/><text fill="#000000" font-family="sans-serif" font-size="13" lengthAdjust="spacing" textLength="153" x="752" y="130.4951">TLine -&gt; DltTraceLineBase</text><!--MD5=[2a3711c6def2097e49888f30cbc18b00]
reverse link DltTraceWriterFactory to DltTraceEncoderFactory--><path codeLine="32" d="M580.08,202 C587.18,202 594.28,202 601.39,202 " fill="none" id="DltTraceWriterFactory-backto-DltTraceEncoderFactory" style="stroke:#A80036;stroke-width:1.0;"/><polygon fill="none" points="566.86,202,572.86,206,578.86,202,572.86,198,566.86,202" style="stroke:#A80036;stroke-width:1.0;"/><!--MD5=[5520f4b9bfd96b2e3a03ee9f851472ca]
link DltTraceEncoderFactory to DltTraceEncoder--><path codeLine="33" d="M756.44,233.09 C762.58,276.69 767.23,357.98 729,411 C721.13,421.91 710.8,430.88 699.37,438.24 " fill="none" id="DltTraceEncoderFactory-to-DltTraceEncoder" style="stroke:#A80036;stroke-width:1.0;"/><polygon fill="#A80036" points="695.11,440.89,704.8693,439.5652,699.3644,438.2631,700.6664,432.7582,695.11,440.89" style="stroke:#A80036;stroke-width:1.0;"/><text fill="#000000" font-family="sans-serif" font-size="13" lengthAdjust="spacing" textLength="57" x="761" y="337.4951">«creates»</text><!--MD5=[c7f8317ed6f025d759ad249b011acfe9]
reverse link ITraceWriter to DltTraceWriter--><path codeLine="38" d="M113.91,383.53 C115.33,393.31 118.35,402.99 124,411 C132.66,423.29 144.49,433.13 157.51,440.98 " fill="none" id="ITraceWriter-backto-DltTraceWriter" style="stroke:#A80036;stroke-width:1.0;stroke-dasharray:7.0,7.0;"/><polygon fill="none" points="106.9,383.54,112.9,363.22,120.88,382.85,106.9,383.54" style="stroke:#A80036;stroke-width:1.0;"/><text fill="#000000" font-family="sans-serif" font-size="13" lengthAdjust="spacing" textLength="153" x="125" y="407.4951">TLine -&gt; DltTraceLineBase</text><!--MD5=[f059986529b2b4c81376e873afa2327e]
reverse link ITraceEncoder to DltTraceEncoder--><path codeLine="43" d="M558.97,382.12 C562.48,391.75 566.26,401.73 570,411 C573.98,420.85 578.63,431.46 582.94,440.98 " fill="none" id="ITraceEncoder-backto-DltTraceEncoder" style="stroke:#A80036;stroke-width:1.0;stroke-dasharray:7.0,7.0;"/><polygon fill="none" points="552.35,384.4,552.23,363.21,565.54,379.69,552.35,384.4" style="stroke:#A80036;stroke-width:1.0;"/><text fill="#000000" font-family="sans-serif" font-size="13" lengthAdjust="spacing" textLength="153" x="571" y="407.4951">TLine -&gt; DltTraceLineBase</text><!--MD5=[53676bf06b75dffe3a1662ef5583c8d3]
reverse link DltTraceWriter to DltTraceEncoder--><path codeLine="44" d="M406.78,472 C414.06,472 421.34,472 428.62,472 " fill="none" id="DltTraceWriter-backto-DltTraceEncoder" style="stroke:#A80036;stroke-width:1.0;"/><polygon fill="none" points="393.68,472,399.68,476,405.68,472,399.68,468,393.68,472" style="stroke:#A80036;stroke-width:1.0;"/><!--MD5=[a768199cebaf85e6cfe88b861232410d]
@startuml DLT.Writer
interface IDisposable

interface ITraceWriter<TLine:ITraceLine> {
    +WriteLineAsync(line: TLine): Task<bool>
}
IDisposable <|.d. ITraceWriter

interface ITraceWriterFactory<TLine:ITraceLine> {
    +CreateAsync(stream: Stream): Task<ITraceWriter<TLine>>
    +CreateAsync(fileName: string): Task<ITraceWriter<TLine>>
}

interface ITraceEncoderFactory<TLine:ITraceLine> {
    +Create(): ITraceEncoder<TLine>
}

interface ITraceEncoder<TLine:ITraceLine> {
    +Encode(buffer: Span<byte>, line: TLine): Result<int>
}

class DltTraceWriterFactory<TLine:DltTraceLineBase> {
    +CreateAsync(stream: Stream): Task<ITraceWriter<DltTraceLineBase>>
    +CreateAsync(fileName: string): Task<ITraceWriter<DltTraceLineBase>>
}
ITraceWriterFactory <|.d. DltTraceWriterFactory : TLine -> DltTraceLineBase
DltTraceWriterFactory -d- -> DltTraceWriter : <<creates>>

class DltTraceEncoderFactory<TLine:DltTraceLineBase> {
    +Create() : ITraceEncoder<DltTraceLineBase>
}
ITraceEncoderFactory <|.d. DltTraceEncoderFactory : TLine -> DltTraceLineBase
DltTraceWriterFactory o-r- DltTraceEncoderFactory
DltTraceEncoderFactory -d- -> DltTraceEncoder : <<creates>>

class DltTraceWriter<TLine:DltTraceLineBase> {
    +WriteLineAsync(line: DltTraceLineBase): Task<bool>
}
ITraceWriter <|.d. DltTraceWriter : TLine -> DltTraceLineBase

class DltTraceEncoder<TLine:DltTraceLineBase> {
    +Encode(buffer: Span<byte>, line: DltTraceLineBase): Result<int>
}
ITraceEncoder <|.d. DltTraceEncoder : TLine -> DltTraceLineBase
DltTraceWriter o-r- DltTraceEncoder
@enduml

PlantUML version 1.2022.1(Tue Feb 01 19:19:58 CET 2022)
(GPL source distribution)
Java Runtime: Java(TM) SE Runtime Environment
JVM: Java HotSpot(TM) Client VM
Default Encoding: Cp1252
Language: en
Country: US
--></g></svg>