<?xml version="1.0" encoding="UTF-8" standalone="no"?><svg xmlns="http://www.w3.org/2000/svg" xmlns:xlink="http://www.w3.org/1999/xlink" contentScriptType="application/ecmascript" contentStyleType="text/css" height="469px" preserveAspectRatio="none" style="width:957px;height:469px;background:#FFFFFF;" version="1.1" viewBox="0 0 957 469" width="957px" zoomAndPan="magnify"><defs><filter height="300%" id="fgceg1w2r9uhn" width="300%" x="-1" y="-1"><feGaussianBlur result="blurOut" stdDeviation="2.0"/><feColorMatrix in="blurOut" result="blurOut2" type="matrix" values="0 0 0 0 0 0 0 0 0 0 0 0 0 0 0 0 0 0 .4 0"/><feOffset dx="4.0" dy="4.0" in="blurOut2" result="blurOut3"/><feBlend in="SourceGraphic" in2="blurOut3" mode="normal"/></filter></defs><g><!--MD5=[fe50a4f6767356ff4dcdadb85ef8cbdd]
class IDisposable--><rect codeLine="1" fill="#FEFECE" filter="url(#fgceg1w2r9uhn)" height="48" id="IDisposable" style="stroke:#A80036;stroke-width:1.5;" width="99" x="459.5" y="7"/><ellipse cx="474.5" cy="23" fill="#B4A7E5" rx="11" ry="11" style="stroke:#A80036;stroke-width:1.0;"/><path d="M475.4531,19.6406 L475.4531,26.2969 L477.1719,26.2969 Q477.7813,26.2969 478.0469,26.5313 Q478.3125,26.7656 478.3125,27.1563 Q478.3125,27.5313 478.0469,27.7656 Q477.7813,28 477.1719,28 L472.0313,28 Q471.4219,28 471.1563,27.7656 Q470.8906,27.5313 470.8906,27.1406 Q470.8906,26.7656 471.1563,26.5313 Q471.4219,26.2969 472.0313,26.2969 L473.75,26.2969 L473.75,19.6406 L472.0313,19.6406 Q471.4219,19.6406 471.1563,19.4063 Q470.8906,19.1719 470.8906,18.7813 Q470.8906,18.4063 471.1563,18.1719 Q471.4219,17.9375 472.0313,17.9375 L477.1719,17.9375 Q477.7813,17.9375 478.0469,18.1719 Q478.3125,18.4063 478.3125,18.7813 Q478.3125,19.1719 478.0469,19.4063 Q477.7813,19.6406 477.1719,19.6406 L475.4531,19.6406 Z " fill="#000000"/><text fill="#000000" font-family="sans-serif" font-size="12" font-style="italic" lengthAdjust="spacing" textLength="67" x="488.5" y="27.9102">IDisposable</text><line style="stroke:#A80036;stroke-width:1.5;" x1="460.5" x2="557.5" y1="39" y2="39"/><line style="stroke:#A80036;stroke-width:1.5;" x1="460.5" x2="557.5" y1="47" y2="47"/><!--MD5=[88ea6b0307e645c9893f60c417406741]
class ITraceLine--><rect codeLine="3" fill="#FEFECE" filter="url(#fgceg1w2r9uhn)" height="48" id="ITraceLine" style="stroke:#A80036;stroke-width:1.5;" width="91" x="593.5" y="7"/><ellipse cx="608.5" cy="23" fill="#B4A7E5" rx="11" ry="11" style="stroke:#A80036;stroke-width:1.0;"/><path d="M609.4531,19.6406 L609.4531,26.2969 L611.1719,26.2969 Q611.7813,26.2969 612.0469,26.5313 Q612.3125,26.7656 612.3125,27.1563 Q612.3125,27.5313 612.0469,27.7656 Q611.7813,28 611.1719,28 L606.0313,28 Q605.4219,28 605.1563,27.7656 Q604.8906,27.5313 604.8906,27.1406 Q604.8906,26.7656 605.1563,26.5313 Q605.4219,26.2969 606.0313,26.2969 L607.75,26.2969 L607.75,19.6406 L606.0313,19.6406 Q605.4219,19.6406 605.1563,19.4063 Q604.8906,19.1719 604.8906,18.7813 Q604.8906,18.4063 605.1563,18.1719 Q605.4219,17.9375 606.0313,17.9375 L611.1719,17.9375 Q611.7813,17.9375 612.0469,18.1719 Q612.3125,18.4063 612.3125,18.7813 Q612.3125,19.1719 612.0469,19.4063 Q611.7813,19.6406 611.1719,19.6406 L609.4531,19.6406 Z " fill="#000000"/><text fill="#000000" font-family="sans-serif" font-size="12" font-style="italic" lengthAdjust="spacing" textLength="59" x="622.5" y="27.9102">ITraceLine</text><line style="stroke:#A80036;stroke-width:1.5;" x1="594.5" x2="683.5" y1="39" y2="39"/><line style="stroke:#A80036;stroke-width:1.5;" x1="594.5" x2="683.5" y1="47" y2="47"/><!--MD5=[21bd5291c9d33bd8ac5dbc523f6b6348]
class ITraceWriter--><rect codeLine="5" fill="#FEFECE" filter="url(#fgceg1w2r9uhn)" height="61.8359" id="ITraceWriter" style="stroke:#A80036;stroke-width:1.5;" width="196" x="411" y="123"/><ellipse cx="426" cy="139" fill="#B4A7E5" rx="11" ry="11" style="stroke:#A80036;stroke-width:1.0;"/><path d="M426.9531,135.6406 L426.9531,142.2969 L428.6719,142.2969 Q429.2813,142.2969 429.5469,142.5313 Q429.8125,142.7656 429.8125,143.1563 Q429.8125,143.5313 429.5469,143.7656 Q429.2813,144 428.6719,144 L423.5313,144 Q422.9219,144 422.6563,143.7656 Q422.3906,143.5313 422.3906,143.1406 Q422.3906,142.7656 422.6563,142.5313 Q422.9219,142.2969 423.5313,142.2969 L425.25,142.2969 L425.25,135.6406 L423.5313,135.6406 Q422.9219,135.6406 422.6563,135.4063 Q422.3906,135.1719 422.3906,134.7813 Q422.3906,134.4063 422.6563,134.1719 Q422.9219,133.9375 423.5313,133.9375 L428.6719,133.9375 Q429.2813,133.9375 429.5469,134.1719 Q429.8125,134.4063 429.8125,134.7813 Q429.8125,135.1719 429.5469,135.4063 Q429.2813,135.6406 428.6719,135.6406 L426.9531,135.6406 Z " fill="#000000"/><text fill="#000000" font-family="sans-serif" font-size="12" font-style="italic" lengthAdjust="spacing" textLength="67" x="440" y="143.9102">ITraceWriter</text><rect fill="#FFFFFF" height="17.0938" style="stroke:#000000;stroke-width:1.0;stroke-dasharray:2.0,2.0;" width="95" x="515" y="120"/><text fill="#000000" font-family="sans-serif" font-size="12" font-style="italic" lengthAdjust="spacing" textLength="93" x="516" y="133.457">TLine:ITraceLine</text><line style="stroke:#A80036;stroke-width:1.5;" x1="412" x2="606" y1="155" y2="155"/><line style="stroke:#A80036;stroke-width:1.5;" x1="412" x2="606" y1="163" y2="163"/><text fill="#000000" font-family="sans-serif" font-size="11" lengthAdjust="spacing" textLength="162" x="417" y="178.4189">WriteLineAsync(line: TLine): Task</text><!--MD5=[cabab2f1e47c9036d3f8c125841e7330]
class ITraceWriterFactory--><rect codeLine="11" fill="#FEFECE" filter="url(#fgceg1w2r9uhn)" height="75.6719" id="ITraceWriterFactory" style="stroke:#A80036;stroke-width:1.5;" width="310" x="7" y="116"/><ellipse cx="86.75" cy="132" fill="#B4A7E5" rx="11" ry="11" style="stroke:#A80036;stroke-width:1.0;"/><path d="M87.7031,128.6406 L87.7031,135.2969 L89.4219,135.2969 Q90.0313,135.2969 90.2969,135.5313 Q90.5625,135.7656 90.5625,136.1563 Q90.5625,136.5313 90.2969,136.7656 Q90.0313,137 89.4219,137 L84.2813,137 Q83.6719,137 83.4063,136.7656 Q83.1406,136.5313 83.1406,136.1406 Q83.1406,135.7656 83.4063,135.5313 Q83.6719,135.2969 84.2813,135.2969 L86,135.2969 L86,128.6406 L84.2813,128.6406 Q83.6719,128.6406 83.4063,128.4063 Q83.1406,128.1719 83.1406,127.7813 Q83.1406,127.4063 83.4063,127.1719 Q83.6719,126.9375 84.2813,126.9375 L89.4219,126.9375 Q90.0313,126.9375 90.2969,127.1719 Q90.5625,127.4063 90.5625,127.7813 Q90.5625,128.1719 90.2969,128.4063 Q90.0313,128.6406 89.4219,128.6406 L87.7031,128.6406 Z " fill="#000000"/><text fill="#000000" font-family="sans-serif" font-size="12" font-style="italic" lengthAdjust="spacing" textLength="107" x="107.25" y="136.9102">ITraceWriterFactory</text><rect fill="#FFFFFF" height="17.0938" style="stroke:#000000;stroke-width:1.0;stroke-dasharray:2.0,2.0;" width="33" x="287" y="113"/><text fill="#000000" font-family="sans-serif" font-size="12" font-style="italic" lengthAdjust="spacing" textLength="31" x="288" y="126.457">TLine</text><line style="stroke:#A80036;stroke-width:1.5;" x1="8" x2="316" y1="148" y2="148"/><line style="stroke:#A80036;stroke-width:1.5;" x1="8" x2="316" y1="156" y2="156"/><ellipse cx="18" cy="167" fill="#84BE84" rx="3" ry="3" style="stroke:#038048;stroke-width:1.0;"/><text fill="#000000" font-family="sans-serif" font-size="11" lengthAdjust="spacing" textLength="283" x="27" y="171.4189">CreateAsync(stream: Stream): Task&lt;ITraceWriter&lt;TLine&gt;&gt;</text><ellipse cx="18" cy="180.8359" fill="#84BE84" rx="3" ry="3" style="stroke:#038048;stroke-width:1.0;"/><text fill="#000000" font-family="sans-serif" font-size="11" lengthAdjust="spacing" textLength="284" x="27" y="185.2549">CreateAsync(fileName: string): Task&lt;ITraceWriter&lt;TLine&gt;&gt;</text><!--MD5=[6f6d608e6fcd45a869ad33795209fe26]
class ITraceEncoder--><rect codeLine="18" fill="#FEFECE" filter="url(#fgceg1w2r9uhn)" height="48" id="ITraceEncoder" style="stroke:#A80036;stroke-width:1.5;" width="113" x="830.5" y="130"/><ellipse cx="845.5" cy="146" fill="#B4A7E5" rx="11" ry="11" style="stroke:#A80036;stroke-width:1.0;"/><path d="M846.4531,142.6406 L846.4531,149.2969 L848.1719,149.2969 Q848.7813,149.2969 849.0469,149.5313 Q849.3125,149.7656 849.3125,150.1563 Q849.3125,150.5313 849.0469,150.7656 Q848.7813,151 848.1719,151 L843.0313,151 Q842.4219,151 842.1563,150.7656 Q841.8906,150.5313 841.8906,150.1406 Q841.8906,149.7656 842.1563,149.5313 Q842.4219,149.2969 843.0313,149.2969 L844.75,149.2969 L844.75,142.6406 L843.0313,142.6406 Q842.4219,142.6406 842.1563,142.4063 Q841.8906,142.1719 841.8906,141.7813 Q841.8906,141.4063 842.1563,141.1719 Q842.4219,140.9375 843.0313,140.9375 L848.1719,140.9375 Q848.7813,140.9375 849.0469,141.1719 Q849.3125,141.4063 849.3125,141.7813 Q849.3125,142.1719 849.0469,142.4063 Q848.7813,142.6406 848.1719,142.6406 L846.4531,142.6406 Z " fill="#000000"/><text fill="#000000" font-family="sans-serif" font-size="12" font-style="italic" lengthAdjust="spacing" textLength="81" x="859.5" y="150.9102">ITraceEncoder</text><line style="stroke:#A80036;stroke-width:1.5;" x1="831.5" x2="942.5" y1="162" y2="162"/><line style="stroke:#A80036;stroke-width:1.5;" x1="831.5" x2="942.5" y1="170" y2="170"/><!--MD5=[3d4b20d523844a7742bcfaf38f4a7853]
class ITraceEncoderFactory--><rect codeLine="19" fill="#FEFECE" filter="url(#fgceg1w2r9uhn)" height="48" id="ITraceEncoderFactory" style="stroke:#A80036;stroke-width:1.5;" width="153" x="642.5" y="130"/><ellipse cx="657.5" cy="146" fill="#B4A7E5" rx="11" ry="11" style="stroke:#A80036;stroke-width:1.0;"/><path d="M658.4531,142.6406 L658.4531,149.2969 L660.1719,149.2969 Q660.7813,149.2969 661.0469,149.5313 Q661.3125,149.7656 661.3125,150.1563 Q661.3125,150.5313 661.0469,150.7656 Q660.7813,151 660.1719,151 L655.0313,151 Q654.4219,151 654.1563,150.7656 Q653.8906,150.5313 653.8906,150.1406 Q653.8906,149.7656 654.1563,149.5313 Q654.4219,149.2969 655.0313,149.2969 L656.75,149.2969 L656.75,142.6406 L655.0313,142.6406 Q654.4219,142.6406 654.1563,142.4063 Q653.8906,142.1719 653.8906,141.7813 Q653.8906,141.4063 654.1563,141.1719 Q654.4219,140.9375 655.0313,140.9375 L660.1719,140.9375 Q660.7813,140.9375 661.0469,141.1719 Q661.3125,141.4063 661.3125,141.7813 Q661.3125,142.1719 661.0469,142.4063 Q660.7813,142.6406 660.1719,142.6406 L658.4531,142.6406 Z " fill="#000000"/><text fill="#000000" font-family="sans-serif" font-size="12" font-style="italic" lengthAdjust="spacing" textLength="121" x="671.5" y="150.9102">ITraceEncoderFactory</text><line style="stroke:#A80036;stroke-width:1.5;" x1="643.5" x2="794.5" y1="162" y2="162"/><line style="stroke:#A80036;stroke-width:1.5;" x1="643.5" x2="794.5" y1="170" y2="170"/><!--MD5=[ace027bf483721c23d5316e550f7b06b]
class DltTraceWriterFactory--><rect codeLine="22" fill="#FEFECE" filter="url(#fgceg1w2r9uhn)" height="75.6719" id="DltTraceWriterFactory" style="stroke:#A80036;stroke-width:1.5;" width="369" x="118.5" y="253"/><ellipse cx="172.25" cy="269" fill="#ADD1B2" rx="11" ry="11" style="stroke:#A80036;stroke-width:1.0;"/><path d="M175.0156,264.875 Q175.1719,264.6563 175.3594,264.5469 Q175.5469,264.4375 175.7656,264.4375 Q176.1406,264.4375 176.375,264.6953 Q176.6094,264.9531 176.6094,265.5625 L176.6094,267.0156 Q176.6094,267.625 176.375,267.8906 Q176.1406,268.1563 175.7656,268.1563 Q175.4219,268.1563 175.2188,267.9531 Q175.0156,267.7656 174.9063,267.25 Q174.8594,266.8906 174.6719,266.7031 Q174.3438,266.3281 173.7344,266.1094 Q173.125,265.8906 172.5,265.8906 Q171.7344,265.8906 171.1016,266.2188 Q170.4688,266.5469 169.9766,267.2969 Q169.4844,268.0469 169.4844,269.0781 L169.4844,270.1719 Q169.4844,271.4063 170.375,272.2266 Q171.2656,273.0469 172.8594,273.0469 Q173.7969,273.0469 174.4531,272.7969 Q174.8438,272.6406 175.2656,272.2031 Q175.5313,271.9375 175.6797,271.8594 Q175.8281,271.7813 176.0313,271.7813 Q176.3594,271.7813 176.6172,272.0391 Q176.875,272.2969 176.875,272.6406 Q176.875,272.9844 176.5313,273.3906 Q176.0313,273.9688 175.2344,274.2969 Q174.1563,274.75 172.8594,274.75 Q171.3438,274.75 170.1406,274.125 Q169.1563,273.625 168.4688,272.5547 Q167.7813,271.4844 167.7813,270.2031 L167.7813,269.0469 Q167.7813,267.7188 168.3984,266.5703 Q169.0156,265.4219 170.1094,264.8047 Q171.2031,264.1875 172.4375,264.1875 Q173.1719,264.1875 173.8203,264.3516 Q174.4688,264.5156 175.0156,264.875 Z " fill="#000000"/><text fill="#000000" font-family="sans-serif" font-size="12" lengthAdjust="spacing" textLength="117" x="192.75" y="273.9102">DltTraceWriterFactory</text><rect fill="#FFFFFF" height="17.0938" style="stroke:#000000;stroke-width:1.0;stroke-dasharray:2.0,2.0;" width="134" x="356.5" y="250"/><text fill="#000000" font-family="sans-serif" font-size="12" font-style="italic" lengthAdjust="spacing" textLength="132" x="357.5" y="263.457">TLine:DltTraceLineBase</text><line style="stroke:#A80036;stroke-width:1.5;" x1="119.5" x2="486.5" y1="285" y2="285"/><line style="stroke:#A80036;stroke-width:1.5;" x1="119.5" x2="486.5" y1="293" y2="293"/><ellipse cx="129.5" cy="304" fill="#84BE84" rx="3" ry="3" style="stroke:#038048;stroke-width:1.0;"/><text fill="#000000" font-family="sans-serif" font-size="11" lengthAdjust="spacing" textLength="342" x="138.5" y="308.4189">CreateAsync(stream: Stream): Task&lt;ITraceWriter&lt;DltTraceLineBase&gt;&gt;</text><ellipse cx="129.5" cy="317.8359" fill="#84BE84" rx="3" ry="3" style="stroke:#038048;stroke-width:1.0;"/><text fill="#000000" font-family="sans-serif" font-size="11" lengthAdjust="spacing" textLength="343" x="138.5" y="322.2549">CreateAsync(fileName: string): Task&lt;ITraceWriter&lt;DltTraceLineBase&gt;&gt;</text><!--MD5=[4aada09f93d0b6e7ebd03dfdc6a2603a]
class DltTraceEncoderFactory--><rect codeLine="28" fill="#FEFECE" filter="url(#fgceg1w2r9uhn)" height="48" id="DltTraceEncoderFactory" style="stroke:#A80036;stroke-width:1.5;" width="299" x="522.5" y="267"/><ellipse cx="537.5" cy="283" fill="#ADD1B2" rx="11" ry="11" style="stroke:#A80036;stroke-width:1.0;"/><path d="M540.2656,278.875 Q540.4219,278.6563 540.6094,278.5469 Q540.7969,278.4375 541.0156,278.4375 Q541.3906,278.4375 541.625,278.6953 Q541.8594,278.9531 541.8594,279.5625 L541.8594,281.0156 Q541.8594,281.625 541.625,281.8906 Q541.3906,282.1563 541.0156,282.1563 Q540.6719,282.1563 540.4688,281.9531 Q540.2656,281.7656 540.1563,281.25 Q540.1094,280.8906 539.9219,280.7031 Q539.5938,280.3281 538.9844,280.1094 Q538.375,279.8906 537.75,279.8906 Q536.9844,279.8906 536.3516,280.2188 Q535.7188,280.5469 535.2266,281.2969 Q534.7344,282.0469 534.7344,283.0781 L534.7344,284.1719 Q534.7344,285.4063 535.625,286.2266 Q536.5156,287.0469 538.1094,287.0469 Q539.0469,287.0469 539.7031,286.7969 Q540.0938,286.6406 540.5156,286.2031 Q540.7813,285.9375 540.9297,285.8594 Q541.0781,285.7813 541.2813,285.7813 Q541.6094,285.7813 541.8672,286.0391 Q542.125,286.2969 542.125,286.6406 Q542.125,286.9844 541.7813,287.3906 Q541.2813,287.9688 540.4844,288.2969 Q539.4063,288.75 538.1094,288.75 Q536.5938,288.75 535.3906,288.125 Q534.4063,287.625 533.7188,286.5547 Q533.0313,285.4844 533.0313,284.2031 L533.0313,283.0469 Q533.0313,281.7188 533.6484,280.5703 Q534.2656,279.4219 535.3594,278.8047 Q536.4531,278.1875 537.6875,278.1875 Q538.4219,278.1875 539.0703,278.3516 Q539.7188,278.5156 540.2656,278.875 Z " fill="#000000"/><text fill="#000000" font-family="sans-serif" font-size="12" lengthAdjust="spacing" textLength="131" x="551.5" y="287.9102">DltTraceEncoderFactory</text><rect fill="#FFFFFF" height="17.0938" style="stroke:#000000;stroke-width:1.0;stroke-dasharray:2.0,2.0;" width="134" x="690.5" y="264"/><text fill="#000000" font-family="sans-serif" font-size="12" font-style="italic" lengthAdjust="spacing" textLength="132" x="691.5" y="277.457">TLine:DltTraceLineBase</text><line style="stroke:#A80036;stroke-width:1.5;" x1="523.5" x2="820.5" y1="299" y2="299"/><line style="stroke:#A80036;stroke-width:1.5;" x1="523.5" x2="820.5" y1="307" y2="307"/><!--MD5=[693760e5828a0c053fd123ee51f17a2a]
class DltTraceWriter--><rect codeLine="33" fill="#FEFECE" filter="url(#fgceg1w2r9uhn)" height="48" id="DltTraceWriter" style="stroke:#A80036;stroke-width:1.5;" width="246" x="240" y="407"/><ellipse cx="255" cy="423" fill="#ADD1B2" rx="11" ry="11" style="stroke:#A80036;stroke-width:1.0;"/><path d="M257.7656,418.875 Q257.9219,418.6563 258.1094,418.5469 Q258.2969,418.4375 258.5156,418.4375 Q258.8906,418.4375 259.125,418.6953 Q259.3594,418.9531 259.3594,419.5625 L259.3594,421.0156 Q259.3594,421.625 259.125,421.8906 Q258.8906,422.1563 258.5156,422.1563 Q258.1719,422.1563 257.9688,421.9531 Q257.7656,421.7656 257.6563,421.25 Q257.6094,420.8906 257.4219,420.7031 Q257.0938,420.3281 256.4844,420.1094 Q255.875,419.8906 255.25,419.8906 Q254.4844,419.8906 253.8516,420.2188 Q253.2188,420.5469 252.7266,421.2969 Q252.2344,422.0469 252.2344,423.0781 L252.2344,424.1719 Q252.2344,425.4063 253.125,426.2266 Q254.0156,427.0469 255.6094,427.0469 Q256.5469,427.0469 257.2031,426.7969 Q257.5938,426.6406 258.0156,426.2031 Q258.2813,425.9375 258.4297,425.8594 Q258.5781,425.7813 258.7813,425.7813 Q259.1094,425.7813 259.3672,426.0391 Q259.625,426.2969 259.625,426.6406 Q259.625,426.9844 259.2813,427.3906 Q258.7813,427.9688 257.9844,428.2969 Q256.9063,428.75 255.6094,428.75 Q254.0938,428.75 252.8906,428.125 Q251.9063,427.625 251.2188,426.5547 Q250.5313,425.4844 250.5313,424.2031 L250.5313,423.0469 Q250.5313,421.7188 251.1484,420.5703 Q251.7656,419.4219 252.8594,418.8047 Q253.9531,418.1875 255.1875,418.1875 Q255.9219,418.1875 256.5703,418.3516 Q257.2188,418.5156 257.7656,418.875 Z " fill="#000000"/><text fill="#000000" font-family="sans-serif" font-size="12" lengthAdjust="spacing" textLength="78" x="269" y="427.9102">DltTraceWriter</text><rect fill="#FFFFFF" height="17.0938" style="stroke:#000000;stroke-width:1.0;stroke-dasharray:2.0,2.0;" width="134" x="355" y="404"/><text fill="#000000" font-family="sans-serif" font-size="12" font-style="italic" lengthAdjust="spacing" textLength="132" x="356" y="417.457">TLine:DltTraceLineBase</text><line style="stroke:#A80036;stroke-width:1.5;" x1="241" x2="485" y1="439" y2="439"/><line style="stroke:#A80036;stroke-width:1.5;" x1="241" x2="485" y1="447" y2="447"/><!--MD5=[11363600cc92b2fece27b28de66320bf]
class DltTraceEncoder--><rect codeLine="34" fill="#FEFECE" filter="url(#fgceg1w2r9uhn)" height="48" id="DltTraceEncoder" style="stroke:#A80036;stroke-width:1.5;" width="260" x="531" y="407"/><ellipse cx="546" cy="423" fill="#ADD1B2" rx="11" ry="11" style="stroke:#A80036;stroke-width:1.0;"/><path d="M548.7656,418.875 Q548.9219,418.6563 549.1094,418.5469 Q549.2969,418.4375 549.5156,418.4375 Q549.8906,418.4375 550.125,418.6953 Q550.3594,418.9531 550.3594,419.5625 L550.3594,421.0156 Q550.3594,421.625 550.125,421.8906 Q549.8906,422.1563 549.5156,422.1563 Q549.1719,422.1563 548.9688,421.9531 Q548.7656,421.7656 548.6563,421.25 Q548.6094,420.8906 548.4219,420.7031 Q548.0938,420.3281 547.4844,420.1094 Q546.875,419.8906 546.25,419.8906 Q545.4844,419.8906 544.8516,420.2188 Q544.2188,420.5469 543.7266,421.2969 Q543.2344,422.0469 543.2344,423.0781 L543.2344,424.1719 Q543.2344,425.4063 544.125,426.2266 Q545.0156,427.0469 546.6094,427.0469 Q547.5469,427.0469 548.2031,426.7969 Q548.5938,426.6406 549.0156,426.2031 Q549.2813,425.9375 549.4297,425.8594 Q549.5781,425.7813 549.7813,425.7813 Q550.1094,425.7813 550.3672,426.0391 Q550.625,426.2969 550.625,426.6406 Q550.625,426.9844 550.2813,427.3906 Q549.7813,427.9688 548.9844,428.2969 Q547.9063,428.75 546.6094,428.75 Q545.0938,428.75 543.8906,428.125 Q542.9063,427.625 542.2188,426.5547 Q541.5313,425.4844 541.5313,424.2031 L541.5313,423.0469 Q541.5313,421.7188 542.1484,420.5703 Q542.7656,419.4219 543.8594,418.8047 Q544.9531,418.1875 546.1875,418.1875 Q546.9219,418.1875 547.5703,418.3516 Q548.2188,418.5156 548.7656,418.875 Z " fill="#000000"/><text fill="#000000" font-family="sans-serif" font-size="12" lengthAdjust="spacing" textLength="92" x="560" y="427.9102">DltTraceEncoder</text><rect fill="#FFFFFF" height="17.0938" style="stroke:#000000;stroke-width:1.0;stroke-dasharray:2.0,2.0;" width="134" x="660" y="404"/><text fill="#000000" font-family="sans-serif" font-size="12" font-style="italic" lengthAdjust="spacing" textLength="132" x="661" y="417.457">TLine:DltTraceLineBase</text><line style="stroke:#A80036;stroke-width:1.5;" x1="532" x2="790" y1="439" y2="439"/><line style="stroke:#A80036;stroke-width:1.5;" x1="532" x2="790" y1="447" y2="447"/><!--MD5=[e837c6ae25177b1b05c25d8f06c8a808]
reverse link IDisposable to ITraceWriter--><path codeLine="9" d="M509,75.29 C509,90.99 509,108.38 509,122.72 " fill="none" id="IDisposable-backto-ITraceWriter" style="stroke:#A80036;stroke-width:1.0;stroke-dasharray:7.0,7.0;"/><polygon fill="none" points="502,75.04,509,55.04,516,75.04,502,75.04" style="stroke:#A80036;stroke-width:1.0;"/><!--MD5=[0df58d93f59d18c13e635db291685170]
link ITraceWriterFactory to ITraceWriter--><path codeLine="16" d="M317.23,154 C348.99,154 381.58,154 410.67,154 " fill="none" id="ITraceWriterFactory-ITraceWriter" style="stroke:#A80036;stroke-width:1.0;"/><text fill="#000000" font-family="sans-serif" font-size="13" lengthAdjust="spacing" textLength="57" x="335.5" y="147.4951">«creates»</text><!--MD5=[295f392fa186f32cdcba9e09c1255c9c]
link ITraceEncoderFactory to ITraceEncoder--><path codeLine="21" d="M795.78,154 C807.3,154 818.82,154 830.34,154 " fill="none" id="ITraceEncoderFactory-ITraceEncoder" style="stroke:#A80036;stroke-width:1.0;"/><!--MD5=[69cd178d38187af2f1c41eb097fd1569]
reverse link ITraceWriterFactory to DltTraceWriterFactory--><path codeLine="27" d="M215.35,206.08 C231.6,221.63 249.14,238.43 264.22,252.87 " fill="none" id="ITraceWriterFactory-backto-DltTraceWriterFactory" style="stroke:#A80036;stroke-width:1.0;stroke-dasharray:7.0,7.0;"/><polygon fill="none" points="210.51,211.13,200.9,192.25,220.19,201.02,210.51,211.13" style="stroke:#A80036;stroke-width:1.0;"/><!--MD5=[743f4453b45b18e879bfa4d4b4711942]
reverse link ITraceEncoderFactory to DltTraceEncoderFactory--><path codeLine="30" d="M704.3,197.22 C696.33,220.13 686.77,247.57 680.13,266.64 " fill="none" id="ITraceEncoderFactory-backto-DltTraceEncoderFactory" style="stroke:#A80036;stroke-width:1.0;stroke-dasharray:7.0,7.0;"/><polygon fill="none" points="697.73,194.79,710.92,178.21,710.96,199.4,697.73,194.79" style="stroke:#A80036;stroke-width:1.0;"/><!--MD5=[2a3711c6def2097e49888f30cbc18b00]
reverse link DltTraceWriterFactory to DltTraceEncoderFactory--><path codeLine="31" d="M501.08,291 C508.18,291 515.28,291 522.39,291 " fill="none" id="DltTraceWriterFactory-backto-DltTraceEncoderFactory" style="stroke:#A80036;stroke-width:1.0;"/><polygon fill="none" points="487.86,291,493.86,295,499.86,291,493.86,287,487.86,291" style="stroke:#A80036;stroke-width:1.0;"/><!--MD5=[53676bf06b75dffe3a1662ef5583c8d3]
reverse link DltTraceWriter to DltTraceEncoder--><path codeLine="36" d="M499.38,431 C509.87,431 520.36,431 530.85,431 " fill="none" id="DltTraceWriter-backto-DltTraceEncoder" style="stroke:#A80036;stroke-width:1.0;"/><polygon fill="none" points="486.1,431,492.1,435,498.1,431,492.1,427,486.1,431" style="stroke:#A80036;stroke-width:1.0;"/><!--MD5=[f6abb9af0c72eccf2f520bf872a97810]
link DltTraceWriterFactory to DltTraceWriter--><path codeLine="39" d="M319.24,329.34 C329.24,352.35 341.85,381.35 350.96,402.3 " fill="none" id="DltTraceWriterFactory-to-DltTraceWriter" style="stroke:#A80036;stroke-width:1.0;"/><polygon fill="#A80036" points="352.96,406.92,353.0285,397.0714,350.9612,402.3369,345.6956,400.2695,352.96,406.92" style="stroke:#A80036;stroke-width:1.0;"/><text fill="#000000" font-family="sans-serif" font-size="13" lengthAdjust="spacing" textLength="57" x="339" y="373.4951">«creates»</text><!--MD5=[5520f4b9bfd96b2e3a03ee9f851472ca]
link DltTraceEncoderFactory to DltTraceEncoder--><path codeLine="40" d="M670.16,315.1 C668.26,338.88 665.31,375.98 663.27,401.55 " fill="none" id="DltTraceEncoderFactory-to-DltTraceEncoder" style="stroke:#A80036;stroke-width:1.0;"/><polygon fill="#A80036" points="662.85,406.83,667.5569,398.1787,663.2499,401.846,659.5826,397.5389,662.85,406.83" style="stroke:#A80036;stroke-width:1.0;"/><text fill="#000000" font-family="sans-serif" font-size="13" lengthAdjust="spacing" textLength="57" x="667" y="373.4951">«creates»</text><!--MD5=[c02be3e4a71d7953595a81d91f30f204]
@startuml DLT.Writer
interface IDisposable

interface ITraceLine

interface ITraceWriter<TLine:ITraceLine> {
    WriteLineAsync(line: TLine): Task
}

IDisposable <|.d. ITraceWriter

interface ITraceWriterFactory<TLine> {
    +CreateAsync(stream: Stream): Task<ITraceWriter<TLine>>
    +CreateAsync(fileName: string): Task<ITraceWriter<TLine>>
}

ITraceWriterFactory -r- ITraceWriter : <<creates>>

interface ITraceEncoder
interface ITraceEncoderFactory

ITraceEncoderFactory -r- ITraceEncoder
class DltTraceWriterFactory<TLine:DltTraceLineBase> {
    +CreateAsync(stream: Stream): Task<ITraceWriter<DltTraceLineBase>>
    +CreateAsync(fileName: string): Task<ITraceWriter<DltTraceLineBase>>
}

ITraceWriterFactory <|.d. DltTraceWriterFactory
class DltTraceEncoderFactory<TLine:DltTraceLineBase>

ITraceEncoderFactory <|.d. DltTraceEncoderFactory
DltTraceWriterFactory o-r- DltTraceEncoderFactory

class DltTraceWriter<TLine:DltTraceLineBase>
class DltTraceEncoder<TLine:DltTraceLineBase>

DltTraceWriter o-r- DltTraceEncoder
'DltTraceWriter .u.|> ITraceWriter

DltTraceWriterFactory -d-> DltTraceWriter : <<creates>>
DltTraceEncoderFactory -d-> DltTraceEncoder : <<creates>>
@enduml

@startuml DLT.Writer
interface IDisposable

interface ITraceLine

interface ITraceWriter<TLine:ITraceLine> {
    WriteLineAsync(line: TLine): Task
}

IDisposable <|.d. ITraceWriter

interface ITraceWriterFactory<TLine> {
    +CreateAsync(stream: Stream): Task<ITraceWriter<TLine>>
    +CreateAsync(fileName: string): Task<ITraceWriter<TLine>>
}

ITraceWriterFactory -r- ITraceWriter : <<creates>>

interface ITraceEncoder
interface ITraceEncoderFactory

ITraceEncoderFactory -r- ITraceEncoder
class DltTraceWriterFactory<TLine:DltTraceLineBase> {
    +CreateAsync(stream: Stream): Task<ITraceWriter<DltTraceLineBase>>
    +CreateAsync(fileName: string): Task<ITraceWriter<DltTraceLineBase>>
}

ITraceWriterFactory <|.d. DltTraceWriterFactory
class DltTraceEncoderFactory<TLine:DltTraceLineBase>

ITraceEncoderFactory <|.d. DltTraceEncoderFactory
DltTraceWriterFactory o-r- DltTraceEncoderFactory

class DltTraceWriter<TLine:DltTraceLineBase>
class DltTraceEncoder<TLine:DltTraceLineBase>

DltTraceWriter o-r- DltTraceEncoder

DltTraceWriterFactory -d-> DltTraceWriter : <<creates>>
DltTraceEncoderFactory -d-> DltTraceEncoder : <<creates>>
@enduml

PlantUML version 1.2022.1(Tue Feb 01 19:19:58 CET 2022)
(GPL source distribution)
Java Runtime: Java(TM) SE Runtime Environment
JVM: Java HotSpot(TM) Client VM
Default Encoding: Cp1252
Language: en
Country: US
--></g></svg>