<?xml version="1.0" encoding="UTF-8" standalone="no"?><svg xmlns="http://www.w3.org/2000/svg" xmlns:xlink="http://www.w3.org/1999/xlink" contentScriptType="application/ecmascript" contentStyleType="text/css" height="585px" preserveAspectRatio="none" style="width:729px;height:585px;background:#FFFFFF;" version="1.1" viewBox="0 0 729 585" width="729px" zoomAndPan="magnify"><defs><filter height="300%" id="f2dvef0fxl38y" width="300%" x="-1" y="-1"><feGaussianBlur result="blurOut" stdDeviation="2.0"/><feColorMatrix in="blurOut" result="blurOut2" type="matrix" values="0 0 0 0 0 0 0 0 0 0 0 0 0 0 0 0 0 0 .4 0"/><feOffset dx="4.0" dy="4.0" in="blurOut2" result="blurOut3"/><feBlend in="SourceGraphic" in2="blurOut3" mode="normal"/></filter></defs><g><!--MD5=[e80bd461753d6c5ec111731420959425]
cluster Main--><polygon fill="#FFFFFF" filter="url(#f2dvef0fxl38y)" points="288,6,328,6,335,29.6094,400,29.6094,400,106,288,106,288,6" style="stroke:#000000;stroke-width:1.5;"/><line style="stroke:#000000;stroke-width:1.5;" x1="288" x2="335" y1="29.6094" y2="29.6094"/><text fill="#000000" font-family="sans-serif" font-size="14" font-weight="bold" lengthAdjust="spacing" textLength="34" x="292" y="22.5332">Main</text><!--MD5=[e320b41f2d43b11d6de1346cab4ea5fc]
cluster View--><polygon fill="#FFFFFF" filter="url(#f2dvef0fxl38y)" points="16,139,55,139,62,162.6094,446,162.6094,446,554,16,554,16,139" style="stroke:#000000;stroke-width:1.5;"/><line style="stroke:#000000;stroke-width:1.5;" x1="16" x2="62" y1="162.6094" y2="162.6094"/><text fill="#000000" font-family="sans-serif" font-size="14" font-weight="bold" lengthAdjust="spacing" textLength="33" x="20" y="155.5332">View</text><!--MD5=[a3db38b29c3436960cdd3b658ea5cf84]
cluster Framework--><polygon fill="#FFFFFF" filter="url(#f2dvef0fxl38y)" points="470,410,554,410,561,433.6094,712,433.6094,712,578,470,578,470,410" style="stroke:#000000;stroke-width:1.5;"/><line style="stroke:#000000;stroke-width:1.5;" x1="470" x2="561" y1="433.6094" y2="433.6094"/><text fill="#000000" font-family="sans-serif" font-size="14" font-weight="bold" lengthAdjust="spacing" textLength="78" x="474" y="426.5332">Framework</text><!--MD5=[b70170093c17be942f327f673157c472]
cluster RJCP.Core.CommandLine--><polygon fill="#FFFFFF" filter="url(#f2dvef0fxl38y)" points="494,454,678,454,685,477.6094,688,477.6094,688,554,494,554,494,454" style="stroke:#000000;stroke-width:1.5;"/><line style="stroke:#000000;stroke-width:1.5;" x1="494" x2="685" y1="477.6094" y2="477.6094"/><text fill="#000000" font-family="sans-serif" font-size="14" font-weight="bold" lengthAdjust="spacing" textLength="178" x="498" y="470.5332">RJCP.Core.CommandLine</text><!--MD5=[15b4d914d4a60ebb37ca45e5806a4488]
class Main.Program--><rect codeLine="3" fill="#FEFECE" filter="url(#f2dvef0fxl38y)" height="48" id="Main.Program" style="stroke:#A80036;stroke-width:1.5;" width="80" x="304" y="42"/><ellipse cx="319" cy="58" fill="#ADD1B2" rx="11" ry="11" style="stroke:#A80036;stroke-width:1.0;"/><path d="M321.7656,53.875 Q321.9219,53.6563 322.1094,53.5469 Q322.2969,53.4375 322.5156,53.4375 Q322.8906,53.4375 323.125,53.6953 Q323.3594,53.9531 323.3594,54.5625 L323.3594,56.0156 Q323.3594,56.625 323.125,56.8906 Q322.8906,57.1563 322.5156,57.1563 Q322.1719,57.1563 321.9688,56.9531 Q321.7656,56.7656 321.6563,56.25 Q321.6094,55.8906 321.4219,55.7031 Q321.0938,55.3281 320.4844,55.1094 Q319.875,54.8906 319.25,54.8906 Q318.4844,54.8906 317.8516,55.2188 Q317.2188,55.5469 316.7266,56.2969 Q316.2344,57.0469 316.2344,58.0781 L316.2344,59.1719 Q316.2344,60.4063 317.125,61.2266 Q318.0156,62.0469 319.6094,62.0469 Q320.5469,62.0469 321.2031,61.7969 Q321.5938,61.6406 322.0156,61.2031 Q322.2813,60.9375 322.4297,60.8594 Q322.5781,60.7813 322.7813,60.7813 Q323.1094,60.7813 323.3672,61.0391 Q323.625,61.2969 323.625,61.6406 Q323.625,61.9844 323.2813,62.3906 Q322.7813,62.9688 321.9844,63.2969 Q320.9063,63.75 319.6094,63.75 Q318.0938,63.75 316.8906,63.125 Q315.9063,62.625 315.2188,61.5547 Q314.5313,60.4844 314.5313,59.2031 L314.5313,58.0469 Q314.5313,56.7188 315.1484,55.5703 Q315.7656,54.4219 316.8594,53.8047 Q317.9531,53.1875 319.1875,53.1875 Q319.9219,53.1875 320.5703,53.3516 Q321.2188,53.5156 321.7656,53.875 Z " fill="#000000"/><text fill="#000000" font-family="sans-serif" font-size="12" lengthAdjust="spacing" textLength="48" x="333" y="62.9102">Program</text><line style="stroke:#A80036;stroke-width:1.5;" x1="305" x2="383" y1="74" y2="74"/><line style="stroke:#A80036;stroke-width:1.5;" x1="305" x2="383" y1="82" y2="82"/><!--MD5=[a5091811e5044a87130937f7b720ce40]
class View.CommandLine--><rect codeLine="9" fill="#FEFECE" filter="url(#f2dvef0fxl38y)" height="61.8359" id="View.CommandLine" style="stroke:#A80036;stroke-width:1.5;" width="115" x="286.5" y="175"/><ellipse cx="301.5" cy="191" fill="#ADD1B2" rx="11" ry="11" style="stroke:#A80036;stroke-width:1.0;"/><path d="M304.2656,186.875 Q304.4219,186.6563 304.6094,186.5469 Q304.7969,186.4375 305.0156,186.4375 Q305.3906,186.4375 305.625,186.6953 Q305.8594,186.9531 305.8594,187.5625 L305.8594,189.0156 Q305.8594,189.625 305.625,189.8906 Q305.3906,190.1563 305.0156,190.1563 Q304.6719,190.1563 304.4688,189.9531 Q304.2656,189.7656 304.1563,189.25 Q304.1094,188.8906 303.9219,188.7031 Q303.5938,188.3281 302.9844,188.1094 Q302.375,187.8906 301.75,187.8906 Q300.9844,187.8906 300.3516,188.2188 Q299.7188,188.5469 299.2266,189.2969 Q298.7344,190.0469 298.7344,191.0781 L298.7344,192.1719 Q298.7344,193.4063 299.625,194.2266 Q300.5156,195.0469 302.1094,195.0469 Q303.0469,195.0469 303.7031,194.7969 Q304.0938,194.6406 304.5156,194.2031 Q304.7813,193.9375 304.9297,193.8594 Q305.0781,193.7813 305.2813,193.7813 Q305.6094,193.7813 305.8672,194.0391 Q306.125,194.2969 306.125,194.6406 Q306.125,194.9844 305.7813,195.3906 Q305.2813,195.9688 304.4844,196.2969 Q303.4063,196.75 302.1094,196.75 Q300.5938,196.75 299.3906,196.125 Q298.4063,195.625 297.7188,194.5547 Q297.0313,193.4844 297.0313,192.2031 L297.0313,191.0469 Q297.0313,189.7188 297.6484,188.5703 Q298.2656,187.4219 299.3594,186.8047 Q300.4531,186.1875 301.6875,186.1875 Q302.4219,186.1875 303.0703,186.3516 Q303.7188,186.5156 304.2656,186.875 Z " fill="#000000"/><text fill="#000000" font-family="sans-serif" font-size="12" lengthAdjust="spacing" textLength="83" x="315.5" y="195.9102">CommandLine</text><line style="stroke:#A80036;stroke-width:1.5;" x1="287.5" x2="400.5" y1="207" y2="207"/><ellipse cx="297.5" cy="218" rx="3" ry="3" style="stroke:#038048;stroke-width:1.0;fill:none;"/><text fill="#000000" font-family="sans-serif" font-size="11" lengthAdjust="spacing" textLength="19" x="306.5" y="222.4189">Run</text><line style="stroke:#A80036;stroke-width:1.5;" x1="287.5" x2="400.5" y1="228.8359" y2="228.8359"/><!--MD5=[fe24c0a1b87cbd54e03f0547b2007c0b]
class View.CmdOptions--><rect codeLine="12" fill="#FEFECE" filter="url(#f2dvef0fxl38y)" height="48" id="View.CmdOptions" style="stroke:#A80036;stroke-width:1.5;" width="102" x="328" y="298"/><ellipse cx="343" cy="314" fill="#ADD1B2" rx="11" ry="11" style="stroke:#A80036;stroke-width:1.0;"/><path d="M345.7656,309.875 Q345.9219,309.6563 346.1094,309.5469 Q346.2969,309.4375 346.5156,309.4375 Q346.8906,309.4375 347.125,309.6953 Q347.3594,309.9531 347.3594,310.5625 L347.3594,312.0156 Q347.3594,312.625 347.125,312.8906 Q346.8906,313.1563 346.5156,313.1563 Q346.1719,313.1563 345.9688,312.9531 Q345.7656,312.7656 345.6563,312.25 Q345.6094,311.8906 345.4219,311.7031 Q345.0938,311.3281 344.4844,311.1094 Q343.875,310.8906 343.25,310.8906 Q342.4844,310.8906 341.8516,311.2188 Q341.2188,311.5469 340.7266,312.2969 Q340.2344,313.0469 340.2344,314.0781 L340.2344,315.1719 Q340.2344,316.4063 341.125,317.2266 Q342.0156,318.0469 343.6094,318.0469 Q344.5469,318.0469 345.2031,317.7969 Q345.5938,317.6406 346.0156,317.2031 Q346.2813,316.9375 346.4297,316.8594 Q346.5781,316.7813 346.7813,316.7813 Q347.1094,316.7813 347.3672,317.0391 Q347.625,317.2969 347.625,317.6406 Q347.625,317.9844 347.2813,318.3906 Q346.7813,318.9688 345.9844,319.2969 Q344.9063,319.75 343.6094,319.75 Q342.0938,319.75 340.8906,319.125 Q339.9063,318.625 339.2188,317.5547 Q338.5313,316.4844 338.5313,315.2031 L338.5313,314.0469 Q338.5313,312.7188 339.1484,311.5703 Q339.7656,310.4219 340.8594,309.8047 Q341.9531,309.1875 343.1875,309.1875 Q343.9219,309.1875 344.5703,309.3516 Q345.2188,309.5156 345.7656,309.875 Z " fill="#000000"/><text fill="#000000" font-family="sans-serif" font-size="12" lengthAdjust="spacing" textLength="70" x="357" y="318.9102">CmdOptions</text><line style="stroke:#A80036;stroke-width:1.5;" x1="329" x2="429" y1="330" y2="330"/><line style="stroke:#A80036;stroke-width:1.5;" x1="329" x2="429" y1="338" y2="338"/><!--MD5=[e9e9dcbec051ee0510cd8940629a4eb9]
class View.ICommandFactory--><rect codeLine="13" fill="#FEFECE" filter="url(#f2dvef0fxl38y)" height="48" id="View.ICommandFactory" style="stroke:#A80036;stroke-width:1.5;" width="135" x="88.5" y="182"/><ellipse cx="103.5" cy="198" fill="#B4A7E5" rx="11" ry="11" style="stroke:#A80036;stroke-width:1.0;"/><path d="M104.4531,194.6406 L104.4531,201.2969 L106.1719,201.2969 Q106.7813,201.2969 107.0469,201.5313 Q107.3125,201.7656 107.3125,202.1563 Q107.3125,202.5313 107.0469,202.7656 Q106.7813,203 106.1719,203 L101.0313,203 Q100.4219,203 100.1563,202.7656 Q99.8906,202.5313 99.8906,202.1406 Q99.8906,201.7656 100.1563,201.5313 Q100.4219,201.2969 101.0313,201.2969 L102.75,201.2969 L102.75,194.6406 L101.0313,194.6406 Q100.4219,194.6406 100.1563,194.4063 Q99.8906,194.1719 99.8906,193.7813 Q99.8906,193.4063 100.1563,193.1719 Q100.4219,192.9375 101.0313,192.9375 L106.1719,192.9375 Q106.7813,192.9375 107.0469,193.1719 Q107.3125,193.4063 107.3125,193.7813 Q107.3125,194.1719 107.0469,194.4063 Q106.7813,194.6406 106.1719,194.6406 L104.4531,194.6406 Z " fill="#000000"/><text fill="#000000" font-family="sans-serif" font-size="12" font-style="italic" lengthAdjust="spacing" textLength="103" x="117.5" y="202.9102">ICommandFactory</text><line style="stroke:#A80036;stroke-width:1.5;" x1="89.5" x2="222.5" y1="214" y2="214"/><line style="stroke:#A80036;stroke-width:1.5;" x1="89.5" x2="222.5" y1="222" y2="222"/><!--MD5=[5cbf0e0c9e584acdcd75316a3ed38df0]
class View.CommandFactory--><rect codeLine="18" fill="#FEFECE" filter="url(#f2dvef0fxl38y)" height="48" id="View.CommandFactory" style="stroke:#A80036;stroke-width:1.5;" width="130" x="32" y="298"/><ellipse cx="47" cy="314" fill="#ADD1B2" rx="11" ry="11" style="stroke:#A80036;stroke-width:1.0;"/><path d="M49.7656,309.875 Q49.9219,309.6563 50.1094,309.5469 Q50.2969,309.4375 50.5156,309.4375 Q50.8906,309.4375 51.125,309.6953 Q51.3594,309.9531 51.3594,310.5625 L51.3594,312.0156 Q51.3594,312.625 51.125,312.8906 Q50.8906,313.1563 50.5156,313.1563 Q50.1719,313.1563 49.9688,312.9531 Q49.7656,312.7656 49.6563,312.25 Q49.6094,311.8906 49.4219,311.7031 Q49.0938,311.3281 48.4844,311.1094 Q47.875,310.8906 47.25,310.8906 Q46.4844,310.8906 45.8516,311.2188 Q45.2188,311.5469 44.7266,312.2969 Q44.2344,313.0469 44.2344,314.0781 L44.2344,315.1719 Q44.2344,316.4063 45.125,317.2266 Q46.0156,318.0469 47.6094,318.0469 Q48.5469,318.0469 49.2031,317.7969 Q49.5938,317.6406 50.0156,317.2031 Q50.2813,316.9375 50.4297,316.8594 Q50.5781,316.7813 50.7813,316.7813 Q51.1094,316.7813 51.3672,317.0391 Q51.625,317.2969 51.625,317.6406 Q51.625,317.9844 51.2813,318.3906 Q50.7813,318.9688 49.9844,319.2969 Q48.9063,319.75 47.6094,319.75 Q46.0938,319.75 44.8906,319.125 Q43.9063,318.625 43.2188,317.5547 Q42.5313,316.4844 42.5313,315.2031 L42.5313,314.0469 Q42.5313,312.7188 43.1484,311.5703 Q43.7656,310.4219 44.8594,309.8047 Q45.9531,309.1875 47.1875,309.1875 Q47.9219,309.1875 48.5703,309.3516 Q49.2188,309.5156 49.7656,309.875 Z " fill="#000000"/><text fill="#000000" font-family="sans-serif" font-size="12" lengthAdjust="spacing" textLength="98" x="61" y="318.9102">CommandFactory</text><line style="stroke:#A80036;stroke-width:1.5;" x1="33" x2="161" y1="330" y2="330"/><line style="stroke:#A80036;stroke-width:1.5;" x1="33" x2="161" y1="338" y2="338"/><!--MD5=[2092deacab3d021e8fbebc0eebd009ce]
class View.ICommand--><rect codeLine="22" fill="#FEFECE" filter="url(#f2dvef0fxl38y)" height="48" id="View.ICommand" style="stroke:#A80036;stroke-width:1.5;" width="95" x="197.5" y="298"/><ellipse cx="212.5" cy="314" fill="#B4A7E5" rx="11" ry="11" style="stroke:#A80036;stroke-width:1.0;"/><path d="M213.4531,310.6406 L213.4531,317.2969 L215.1719,317.2969 Q215.7813,317.2969 216.0469,317.5313 Q216.3125,317.7656 216.3125,318.1563 Q216.3125,318.5313 216.0469,318.7656 Q215.7813,319 215.1719,319 L210.0313,319 Q209.4219,319 209.1563,318.7656 Q208.8906,318.5313 208.8906,318.1406 Q208.8906,317.7656 209.1563,317.5313 Q209.4219,317.2969 210.0313,317.2969 L211.75,317.2969 L211.75,310.6406 L210.0313,310.6406 Q209.4219,310.6406 209.1563,310.4063 Q208.8906,310.1719 208.8906,309.7813 Q208.8906,309.4063 209.1563,309.1719 Q209.4219,308.9375 210.0313,308.9375 L215.1719,308.9375 Q215.7813,308.9375 216.0469,309.1719 Q216.3125,309.4063 216.3125,309.7813 Q216.3125,310.1719 216.0469,310.4063 Q215.7813,310.6406 215.1719,310.6406 L213.4531,310.6406 Z " fill="#000000"/><text fill="#000000" font-family="sans-serif" font-size="12" font-style="italic" lengthAdjust="spacing" textLength="63" x="226.5" y="318.9102">ICommand</text><line style="stroke:#A80036;stroke-width:1.5;" x1="198.5" x2="291.5" y1="330" y2="330"/><line style="stroke:#A80036;stroke-width:1.5;" x1="198.5" x2="291.5" y1="338" y2="338"/><!--MD5=[538c3518dc8338788ab3fd68cdfeb2fa]
class View.HelpCommand--><rect codeLine="23" fill="#FEFECE" filter="url(#f2dvef0fxl38y)" height="48" id="View.HelpCommand" style="stroke:#A80036;stroke-width:1.5;" width="117" x="221.5" y="490"/><ellipse cx="236.5" cy="506" fill="#ADD1B2" rx="11" ry="11" style="stroke:#A80036;stroke-width:1.0;"/><path d="M239.2656,501.875 Q239.4219,501.6563 239.6094,501.5469 Q239.7969,501.4375 240.0156,501.4375 Q240.3906,501.4375 240.625,501.6953 Q240.8594,501.9531 240.8594,502.5625 L240.8594,504.0156 Q240.8594,504.625 240.625,504.8906 Q240.3906,505.1563 240.0156,505.1563 Q239.6719,505.1563 239.4688,504.9531 Q239.2656,504.7656 239.1563,504.25 Q239.1094,503.8906 238.9219,503.7031 Q238.5938,503.3281 237.9844,503.1094 Q237.375,502.8906 236.75,502.8906 Q235.9844,502.8906 235.3516,503.2188 Q234.7188,503.5469 234.2266,504.2969 Q233.7344,505.0469 233.7344,506.0781 L233.7344,507.1719 Q233.7344,508.4063 234.625,509.2266 Q235.5156,510.0469 237.1094,510.0469 Q238.0469,510.0469 238.7031,509.7969 Q239.0938,509.6406 239.5156,509.2031 Q239.7813,508.9375 239.9297,508.8594 Q240.0781,508.7813 240.2813,508.7813 Q240.6094,508.7813 240.8672,509.0391 Q241.125,509.2969 241.125,509.6406 Q241.125,509.9844 240.7813,510.3906 Q240.2813,510.9688 239.4844,511.2969 Q238.4063,511.75 237.1094,511.75 Q235.5938,511.75 234.3906,511.125 Q233.4063,510.625 232.7188,509.5547 Q232.0313,508.4844 232.0313,507.2031 L232.0313,506.0469 Q232.0313,504.7188 232.6484,503.5703 Q233.2656,502.4219 234.3594,501.8047 Q235.4531,501.1875 236.6875,501.1875 Q237.4219,501.1875 238.0703,501.3516 Q238.7188,501.5156 239.2656,501.875 Z " fill="#000000"/><text fill="#000000" font-family="sans-serif" font-size="12" lengthAdjust="spacing" textLength="85" x="250.5" y="510.9102">HelpCommand</text><line style="stroke:#A80036;stroke-width:1.5;" x1="222.5" x2="337.5" y1="522" y2="522"/><line style="stroke:#A80036;stroke-width:1.5;" x1="222.5" x2="337.5" y1="530" y2="530"/><!--MD5=[b5e12acb1e3b04f2e012989d3d66eeca]
class View.FilterCommand--><rect codeLine="24" fill="#FEFECE" filter="url(#f2dvef0fxl38y)" height="48" id="View.FilterCommand" style="stroke:#A80036;stroke-width:1.5;" width="118" x="41" y="490"/><ellipse cx="56" cy="506" fill="#ADD1B2" rx="11" ry="11" style="stroke:#A80036;stroke-width:1.0;"/><path d="M58.7656,501.875 Q58.9219,501.6563 59.1094,501.5469 Q59.2969,501.4375 59.5156,501.4375 Q59.8906,501.4375 60.125,501.6953 Q60.3594,501.9531 60.3594,502.5625 L60.3594,504.0156 Q60.3594,504.625 60.125,504.8906 Q59.8906,505.1563 59.5156,505.1563 Q59.1719,505.1563 58.9688,504.9531 Q58.7656,504.7656 58.6563,504.25 Q58.6094,503.8906 58.4219,503.7031 Q58.0938,503.3281 57.4844,503.1094 Q56.875,502.8906 56.25,502.8906 Q55.4844,502.8906 54.8516,503.2188 Q54.2188,503.5469 53.7266,504.2969 Q53.2344,505.0469 53.2344,506.0781 L53.2344,507.1719 Q53.2344,508.4063 54.125,509.2266 Q55.0156,510.0469 56.6094,510.0469 Q57.5469,510.0469 58.2031,509.7969 Q58.5938,509.6406 59.0156,509.2031 Q59.2813,508.9375 59.4297,508.8594 Q59.5781,508.7813 59.7813,508.7813 Q60.1094,508.7813 60.3672,509.0391 Q60.625,509.2969 60.625,509.6406 Q60.625,509.9844 60.2813,510.3906 Q59.7813,510.9688 58.9844,511.2969 Q57.9063,511.75 56.6094,511.75 Q55.0938,511.75 53.8906,511.125 Q52.9063,510.625 52.2188,509.5547 Q51.5313,508.4844 51.5313,507.2031 L51.5313,506.0469 Q51.5313,504.7188 52.1484,503.5703 Q52.7656,502.4219 53.8594,501.8047 Q54.9531,501.1875 56.1875,501.1875 Q56.9219,501.1875 57.5703,501.3516 Q58.2188,501.5156 58.7656,501.875 Z " fill="#000000"/><text fill="#000000" font-family="sans-serif" font-size="12" lengthAdjust="spacing" textLength="86" x="70" y="510.9102">FilterCommand</text><line style="stroke:#A80036;stroke-width:1.5;" x1="42" x2="158" y1="522" y2="522"/><line style="stroke:#A80036;stroke-width:1.5;" x1="42" x2="158" y1="530" y2="530"/><!--MD5=[3254bb3f5a832f13462594db2763126f]
class RJCP.Core.CommandLine.Options--><rect codeLine="35" fill="#FEFECE" filter="url(#f2dvef0fxl38y)" height="48" id="RJCP.Core.CommandLine.Options" style="stroke:#A80036;stroke-width:1.5;" width="75" x="510.5" y="490"/><ellipse cx="525.5" cy="506" fill="#ADD1B2" rx="11" ry="11" style="stroke:#A80036;stroke-width:1.0;"/><path d="M528.2656,501.875 Q528.4219,501.6563 528.6094,501.5469 Q528.7969,501.4375 529.0156,501.4375 Q529.3906,501.4375 529.625,501.6953 Q529.8594,501.9531 529.8594,502.5625 L529.8594,504.0156 Q529.8594,504.625 529.625,504.8906 Q529.3906,505.1563 529.0156,505.1563 Q528.6719,505.1563 528.4688,504.9531 Q528.2656,504.7656 528.1563,504.25 Q528.1094,503.8906 527.9219,503.7031 Q527.5938,503.3281 526.9844,503.1094 Q526.375,502.8906 525.75,502.8906 Q524.9844,502.8906 524.3516,503.2188 Q523.7188,503.5469 523.2266,504.2969 Q522.7344,505.0469 522.7344,506.0781 L522.7344,507.1719 Q522.7344,508.4063 523.625,509.2266 Q524.5156,510.0469 526.1094,510.0469 Q527.0469,510.0469 527.7031,509.7969 Q528.0938,509.6406 528.5156,509.2031 Q528.7813,508.9375 528.9297,508.8594 Q529.0781,508.7813 529.2813,508.7813 Q529.6094,508.7813 529.8672,509.0391 Q530.125,509.2969 530.125,509.6406 Q530.125,509.9844 529.7813,510.3906 Q529.2813,510.9688 528.4844,511.2969 Q527.4063,511.75 526.1094,511.75 Q524.5938,511.75 523.3906,511.125 Q522.4063,510.625 521.7188,509.5547 Q521.0313,508.4844 521.0313,507.2031 L521.0313,506.0469 Q521.0313,504.7188 521.6484,503.5703 Q522.2656,502.4219 523.3594,501.8047 Q524.4531,501.1875 525.6875,501.1875 Q526.4219,501.1875 527.0703,501.3516 Q527.7188,501.5156 528.2656,501.875 Z " fill="#000000"/><text fill="#000000" font-family="sans-serif" font-size="12" lengthAdjust="spacing" textLength="43" x="539.5" y="510.9102">Options</text><line style="stroke:#A80036;stroke-width:1.5;" x1="511.5" x2="584.5" y1="522" y2="522"/><line style="stroke:#A80036;stroke-width:1.5;" x1="511.5" x2="584.5" y1="530" y2="530"/><!--MD5=[8575c1276ed3f2e333fce06ef7ce5110]
reverse link Main.Program to View.CommandLine--><path codeLine="5" d="M344,103.41 C344,125.67 344,153.8 344,174.81 " fill="none" id="Main.Program-backto-View.CommandLine" style="stroke:#A80036;stroke-width:1.0;"/><polygon fill="#A80036" points="344,90.1,340,96.1,344,102.1,348,96.1,344,90.1" style="stroke:#A80036;stroke-width:1.0;"/><!--MD5=[4a8cc09a8611401be328c962da1c86f3]
reverse link View.CommandLine to View.CmdOptions--><path codeLine="15" d="M357.15,249.85 C362.15,266.13 367.66,284.06 371.89,297.84 " fill="none" id="View.CommandLine-backto-View.CmdOptions" style="stroke:#A80036;stroke-width:1.0;"/><polygon fill="#A80036" points="353.29,237.25,351.2264,244.1595,356.8107,248.7219,358.8743,241.8124,353.29,237.25" style="stroke:#A80036;stroke-width:1.0;"/><!--MD5=[bbb29decc907d5ad99c2ff7402cfaad8]
reverse link View.CommandLine to View.ICommandFactory--><path codeLine="16" d="M272.93,206 C256.48,206 240.02,206 223.56,206 " fill="none" id="View.CommandLine-backto-View.ICommandFactory" style="stroke:#A80036;stroke-width:1.0;"/><polygon fill="#A80036" points="286.13,206,280.13,202,274.13,206,280.13,210,286.13,206" style="stroke:#A80036;stroke-width:1.0;"/><!--MD5=[149b2399f1371e5b7d96daf981c65b8b]
reverse link View.ICommandFactory to View.CommandFactory--><path codeLine="20" d="M134.85,247.87 C126.13,264.71 116.36,283.6 108.92,297.96 " fill="none" id="View.ICommandFactory-backto-View.CommandFactory" style="stroke:#A80036;stroke-width:1.0;stroke-dasharray:7.0,7.0;"/><polygon fill="none" points="128.65,244.61,144.06,230.07,141.08,251.05,128.65,244.61" style="stroke:#A80036;stroke-width:1.0;"/><!--MD5=[91536685c4848b211d81ffe774224958]
reverse link View.ICommand to View.HelpCommand--><path codeLine="26" d="M292.75,360.76 C296.44,365.5 299.65,370.6 302,376 C318.36,413.54 303.29,461.64 291.32,489.72 " fill="none" id="View.ICommand-backto-View.HelpCommand" style="stroke:#A80036;stroke-width:1.0;stroke-dasharray:7.0,7.0;"/><polygon fill="none" points="287.5,365.4,278.79,346.09,297.65,355.76,287.5,365.4" style="stroke:#A80036;stroke-width:1.0;"/><!--MD5=[b852126beb7f036b2348cb9ec05c9c68]
reverse link View.ICommand to View.FilterCommand--><path codeLine="27" d="M197.94,359.22 C192.26,364.54 186.78,370.2 182,376 C176.18,383.06 176.59,386.08 172,394 C152.49,427.63 129.05,466.03 114.33,489.89 " fill="none" id="View.ICommand-backto-View.FilterCommand" style="stroke:#A80036;stroke-width:1.0;stroke-dasharray:7.0,7.0;"/><polygon fill="none" points="193.44,353.86,213.13,346.03,202.62,364.43,193.44,353.86" style="stroke:#A80036;stroke-width:1.0;"/><!--MD5=[c7b917dbc6d926f8a92ece9360ab7180]
link View.CommandFactory to View.HelpCommand--><path codeLine="29" d="M137.08,346.22 C150.18,354.74 164.35,365.01 176,376 C211.47,409.45 243.99,455.96 262.91,485.26 " fill="none" id="View.CommandFactory-to-View.HelpCommand" style="stroke:#A80036;stroke-width:1.0;"/><polygon fill="#A80036" points="265.82,489.81,264.3329,480.0741,263.1227,485.5999,257.5968,484.3897,265.82,489.81" style="stroke:#A80036;stroke-width:1.0;"/><text fill="#000000" font-family="sans-serif" font-size="13" lengthAdjust="spacing" textLength="81" x="193" y="390.4951">«instantiates»</text><!--MD5=[c302b4bd5becef95b9e60e19bee84d3a]
link View.CommandFactory to View.FilterCommand--><path codeLine="30" d="M90.61,346.03 C88.36,355.27 86.11,366.06 85,376 C80.8,413.61 87.51,457.04 93.26,484.74 " fill="none" id="View.CommandFactory-to-View.FilterCommand" style="stroke:#A80036;stroke-width:1.0;"/><polygon fill="#A80036" points="94.32,489.73,96.3531,480.0933,93.2763,484.8402,88.5294,481.7633,94.32,489.73" style="stroke:#A80036;stroke-width:1.0;"/><text fill="#000000" font-family="sans-serif" font-size="13" lengthAdjust="spacing" textLength="81" x="86" y="390.4951">«instantiates»</text><!--MD5=[20d3516991e2fe088db6cd1045f31245]
link View.CmdOptions to RJCP.Core.CommandLine.Options--><path codeLine="39" d="M399.72,346.3 C431.1,381.58 490.54,448.4 523.84,485.84 " fill="none" id="View.CmdOptions-to-RJCP.Core.CommandLine.Options" style="stroke:#A80036;stroke-width:1.0;"/><polygon fill="#A80036" points="527.37,489.81,524.3781,480.4266,524.0473,486.0737,518.4001,485.7429,527.37,489.81" style="stroke:#A80036;stroke-width:1.0;"/><!--MD5=[bef324a92426cc005e84aae5b0677a71]
@startuml View.CommandFactory

namespace Main {
    class Program

    Program *-d- View.CommandLine
}

namespace View {
    class CommandLine {
        + Run
    }
    class CmdOptions
    interface ICommandFactory

    CommandLine *-d- CmdOptions
    CommandLine *-r- ICommandFactory

    class CommandFactory

    ICommandFactory <|.d. CommandFactory

    interface ICommand
    class HelpCommand
    class FilterCommand

    ICommand <|.d.HelpCommand
    ICommand <|.d.FilterCommand

    CommandFactory - -> HelpCommand : <<instantiates>>
    CommandFactory - -> FilterCommand : <<instantiates>>
}

package Framework {
    namespace RJCP.Core.CommandLine {
        class Options
    }
}

View.CmdOptions -d-> RJCP.Core.CommandLine.Options

@enduml

PlantUML version 1.2022.0(Tue Jan 11 17:16:42 CET 2022)
(GPL source distribution)
Java Runtime: Java(TM) SE Runtime Environment
JVM: Java HotSpot(TM) Client VM
Default Encoding: Cp1252
Language: en
Country: US
--></g></svg>