<?xml version="1.0" encoding="us-ascii" standalone="no"?><svg xmlns="http://www.w3.org/2000/svg" xmlns:xlink="http://www.w3.org/1999/xlink" contentStyleType="text/css" height="751px" preserveAspectRatio="none" style="width:1021px;height:751px;background:#FFFFFF;" version="1.1" viewBox="0 0 1021 751" width="1021px" zoomAndPan="magnify"><defs/><g><!--cluster Main--><g id="cluster_Main"><path d="M511.5,135 L548.5,135 A3.75,3.75 0 0 1 551,137.5 L558,157.2969 L716.5,157.2969 A2.5,2.5 0 0 1 719,159.7969 L719,459.5 A2.5,2.5 0 0 1 716.5,462 L511.5,462 A2.5,2.5 0 0 1 509,459.5 L509,137.5 A2.5,2.5 0 0 1 511.5,135 " fill="none" style="stroke:#000000;stroke-width:1.5;"/><line style="stroke:#000000;stroke-width:1.5;" x1="509" x2="558" y1="157.2969" y2="157.2969"/><text fill="#000000" font-family="sans-serif" font-size="14" font-weight="bold" lengthAdjust="spacing" textLength="36" x="513" y="149.9951">Main</text></g><!--cluster View--><g id="cluster_View"><path d="M535.5,339 L575.5,339 A3.75,3.75 0 0 1 578,341.5 L585,361.2969 L692.5,361.2969 A2.5,2.5 0 0 1 695,363.7969 L695,435.5 A2.5,2.5 0 0 1 692.5,438 L535.5,438 A2.5,2.5 0 0 1 533,435.5 L533,341.5 A2.5,2.5 0 0 1 535.5,339 " fill="none" style="stroke:#000000;stroke-width:1.5;"/><line style="stroke:#000000;stroke-width:1.5;" x1="533" x2="585" y1="361.2969" y2="361.2969"/><text fill="#000000" font-family="sans-serif" font-size="14" font-weight="bold" lengthAdjust="spacing" textLength="39" x="537" y="353.9951">View</text></g><!--cluster View--><g id="cluster_View"><path d="M8.5,126.85 L48.5,126.85 A3.75,3.75 0 0 1 51,129.35 L58,149.1469 L482.5,149.1469 A2.5,2.5 0 0 1 485,151.6469 L485,693.5 A2.5,2.5 0 0 1 482.5,696 L8.5,696 A2.5,2.5 0 0 1 6,693.5 L6,129.35 A2.5,2.5 0 0 1 8.5,126.85 " fill="none" style="stroke:#000000;stroke-width:1.5;"/><line style="stroke:#000000;stroke-width:1.5;" x1="6" x2="58" y1="149.1469" y2="149.1469"/><text fill="#000000" font-family="sans-serif" font-size="14" font-weight="bold" lengthAdjust="spacing" textLength="39" x="10" y="141.8451">View</text></g><!--cluster Framework--><g id="cluster_Framework"><path d="M745.5,6 L835.5,6 A3.75,3.75 0 0 1 838,8.5 L845,28.2969 L1011.5,28.2969 A2.5,2.5 0 0 1 1014,30.7969 L1014,303.5 A2.5,2.5 0 0 1 1011.5,306 L745.5,306 A2.5,2.5 0 0 1 743,303.5 L743,8.5 A2.5,2.5 0 0 1 745.5,6 " fill="none" style="stroke:#000000;stroke-width:1.5;"/><line style="stroke:#000000;stroke-width:1.5;" x1="743" x2="845" y1="28.2969" y2="28.2969"/><text fill="#000000" font-family="sans-serif" font-size="14" font-weight="bold" lengthAdjust="spacing" textLength="89" x="747" y="20.9951">Framework</text></g><!--cluster RJCP--><g id="cluster_RJCP"><path d="M769.5,49 L805.5,49 A3.75,3.75 0 0 1 808,51.5 L815,71.2969 L987.5,71.2969 A2.5,2.5 0 0 1 990,73.7969 L990,279.5 A2.5,2.5 0 0 1 987.5,282 L769.5,282 A2.5,2.5 0 0 1 767,279.5 L767,51.5 A2.5,2.5 0 0 1 769.5,49 " fill="none" style="stroke:#000000;stroke-width:1.5;"/><line style="stroke:#000000;stroke-width:1.5;" x1="767" x2="815" y1="71.2969" y2="71.2969"/><text fill="#000000" font-family="sans-serif" font-size="14" font-weight="bold" lengthAdjust="spacing" textLength="35" x="771" y="63.9951">RJCP</text></g><!--cluster Core--><g id="cluster_Core"><path d="M793.5,92 L832.5,92 A3.75,3.75 0 0 1 835,94.5 L842,114.2969 L963.5,114.2969 A2.5,2.5 0 0 1 966,116.7969 L966,255.5 A2.5,2.5 0 0 1 963.5,258 L793.5,258 A2.5,2.5 0 0 1 791,255.5 L791,94.5 A2.5,2.5 0 0 1 793.5,92 " fill="none" style="stroke:#000000;stroke-width:1.5;"/><line style="stroke:#000000;stroke-width:1.5;" x1="791" x2="842" y1="114.2969" y2="114.2969"/><text fill="#000000" font-family="sans-serif" font-size="14" font-weight="bold" lengthAdjust="spacing" textLength="38" x="795" y="106.9951">Core</text></g><!--cluster CommandLine--><g id="cluster_CommandLine"><path d="M817.5,135 L929.5,135 A3.75,3.75 0 0 1 932,137.5 L939,157.2969 L939.5,157.2969 A2.5,2.5 0 0 1 942,159.7969 L942,231.5 A2.5,2.5 0 0 1 939.5,234 L817.5,234 A2.5,2.5 0 0 1 815,231.5 L815,137.5 A2.5,2.5 0 0 1 817.5,135 " fill="none" style="stroke:#000000;stroke-width:1.5;"/><line style="stroke:#000000;stroke-width:1.5;" x1="815" x2="939" y1="157.2969" y2="157.2969"/><text fill="#000000" font-family="sans-serif" font-size="14" font-weight="bold" lengthAdjust="spacing" textLength="111" x="819" y="149.9951">CommandLine</text></g><!--cluster RJCP--><g id="cluster_RJCP"><path d="M511.5,511 L547.5,511 A3.75,3.75 0 0 1 550,513.5 L557,533.2969 L729.5,533.2969 A2.5,2.5 0 0 1 732,535.7969 L732,741.5 A2.5,2.5 0 0 1 729.5,744 L511.5,744 A2.5,2.5 0 0 1 509,741.5 L509,513.5 A2.5,2.5 0 0 1 511.5,511 " fill="none" style="stroke:#000000;stroke-width:1.5;"/><line style="stroke:#000000;stroke-width:1.5;" x1="509" x2="557" y1="533.2969" y2="533.2969"/><text fill="#000000" font-family="sans-serif" font-size="14" font-weight="bold" lengthAdjust="spacing" textLength="35" x="513" y="525.9951">RJCP</text></g><!--cluster Core--><g id="cluster_Core"><path d="M535.5,554 L574.5,554 A3.75,3.75 0 0 1 577,556.5 L584,576.2969 L705.5,576.2969 A2.5,2.5 0 0 1 708,578.7969 L708,717.5 A2.5,2.5 0 0 1 705.5,720 L535.5,720 A2.5,2.5 0 0 1 533,717.5 L533,556.5 A2.5,2.5 0 0 1 535.5,554 " fill="none" style="stroke:#000000;stroke-width:1.5;"/><line style="stroke:#000000;stroke-width:1.5;" x1="533" x2="584" y1="576.2969" y2="576.2969"/><text fill="#000000" font-family="sans-serif" font-size="14" font-weight="bold" lengthAdjust="spacing" textLength="38" x="537" y="568.9951">Core</text></g><!--cluster CommandLine--><g id="cluster_CommandLine"><path d="M559.5,597 L671.5,597 A3.75,3.75 0 0 1 674,599.5 L681,619.2969 L681.5,619.2969 A2.5,2.5 0 0 1 684,621.7969 L684,693.5 A2.5,2.5 0 0 1 681.5,696 L559.5,696 A2.5,2.5 0 0 1 557,693.5 L557,599.5 A2.5,2.5 0 0 1 559.5,597 " fill="none" style="stroke:#000000;stroke-width:1.5;"/><line style="stroke:#000000;stroke-width:1.5;" x1="557" x2="681" y1="619.2969" y2="619.2969"/><text fill="#000000" font-family="sans-serif" font-size="14" font-weight="bold" lengthAdjust="spacing" textLength="111" x="561" y="611.9951">CommandLine</text></g><!--class Program--><g id="elem_Program"><rect codeLine="3" fill="#F1F1F1" height="48" id="Program" rx="2.5" ry="2.5" style="stroke:#181818;stroke-width:0.5;" width="90" x="569" y="170"/><ellipse cx="584" cy="186" fill="#ADD1B2" rx="11" ry="11" style="stroke:#181818;stroke-width:1.0;"/><path d="M586.9688,191.6406 Q586.3906,191.9375 585.75,192.0781 Q585.1094,192.2344 584.4063,192.2344 Q581.9063,192.2344 580.5781,190.5938 Q579.2656,188.9375 579.2656,185.8125 Q579.2656,182.6875 580.5781,181.0313 Q581.9063,179.375 584.4063,179.375 Q585.1094,179.375 585.75,179.5313 Q586.4063,179.6875 586.9688,179.9844 L586.9688,182.7031 Q586.3438,182.125 585.75,181.8594 Q585.1563,181.5781 584.5313,181.5781 Q583.1875,181.5781 582.5,182.6563 Q581.8125,183.7188 581.8125,185.8125 Q581.8125,187.9063 582.5,188.9844 Q583.1875,190.0469 584.5313,190.0469 Q585.1563,190.0469 585.75,189.7813 Q586.3438,189.5 586.9688,188.9219 L586.9688,191.6406 Z " fill="#000000"/><text fill="#000000" font-family="sans-serif" font-size="14" lengthAdjust="spacing" textLength="58" x="598" y="190.8467">Program</text><line style="stroke:#181818;stroke-width:0.5;" x1="570" x2="658" y1="202" y2="202"/><line style="stroke:#181818;stroke-width:0.5;" x1="570" x2="658" y1="210" y2="210"/></g><!--class CommandLine--><g id="elem_CommandLine"><rect fill="#F1F1F1" height="48" id="CommandLine" rx="2.5" ry="2.5" style="stroke:#181818;stroke-width:0.5;" width="131" x="548.5" y="374"/><ellipse cx="563.5" cy="390" fill="#ADD1B2" rx="11" ry="11" style="stroke:#181818;stroke-width:1.0;"/><path d="M566.4688,395.6406 Q565.8906,395.9375 565.25,396.0781 Q564.6094,396.2344 563.9063,396.2344 Q561.4063,396.2344 560.0781,394.5938 Q558.7656,392.9375 558.7656,389.8125 Q558.7656,386.6875 560.0781,385.0313 Q561.4063,383.375 563.9063,383.375 Q564.6094,383.375 565.25,383.5313 Q565.9063,383.6875 566.4688,383.9844 L566.4688,386.7031 Q565.8438,386.125 565.25,385.8594 Q564.6563,385.5781 564.0313,385.5781 Q562.6875,385.5781 562,386.6563 Q561.3125,387.7188 561.3125,389.8125 Q561.3125,391.9063 562,392.9844 Q562.6875,394.0469 564.0313,394.0469 Q564.6563,394.0469 565.25,393.7813 Q565.8438,393.5 566.4688,392.9219 L566.4688,395.6406 Z " fill="#000000"/><text fill="#000000" font-family="sans-serif" font-size="14" lengthAdjust="spacing" textLength="99" x="577.5" y="394.8467">CommandLine</text><line style="stroke:#181818;stroke-width:0.5;" x1="549.5" x2="678.5" y1="406" y2="406"/><line style="stroke:#181818;stroke-width:0.5;" x1="549.5" x2="678.5" y1="414" y2="414"/></g><!--class CommandLine--><g id="elem_CommandLine"><rect codeLine="9" fill="#F1F1F1" height="64.2969" id="CommandLine" rx="2.5" ry="2.5" style="stroke:#181818;stroke-width:0.5;" width="131" x="338.5" y="161.85"/><ellipse cx="353.5" cy="177.85" fill="#ADD1B2" rx="11" ry="11" style="stroke:#181818;stroke-width:1.0;"/><path d="M356.4688,183.4906 Q355.8906,183.7875 355.25,183.9281 Q354.6094,184.0844 353.9063,184.0844 Q351.4063,184.0844 350.0781,182.4438 Q348.7656,180.7875 348.7656,177.6625 Q348.7656,174.5375 350.0781,172.8813 Q351.4063,171.225 353.9063,171.225 Q354.6094,171.225 355.25,171.3813 Q355.9063,171.5375 356.4688,171.8344 L356.4688,174.5531 Q355.8438,173.975 355.25,173.7094 Q354.6563,173.4281 354.0313,173.4281 Q352.6875,173.4281 352,174.5063 Q351.3125,175.5688 351.3125,177.6625 Q351.3125,179.7563 352,180.8344 Q352.6875,181.8969 354.0313,181.8969 Q354.6563,181.8969 355.25,181.6313 Q355.8438,181.35 356.4688,180.7719 L356.4688,183.4906 Z " fill="#000000"/><text fill="#000000" font-family="sans-serif" font-size="14" lengthAdjust="spacing" textLength="99" x="367.5" y="182.6967">CommandLine</text><line style="stroke:#181818;stroke-width:0.5;" x1="339.5" x2="468.5" y1="193.85" y2="193.85"/><ellipse cx="349.5" cy="207.4984" fill="none" rx="3" ry="3" style="stroke:#038048;stroke-width:1.0;"/><text fill="#000000" font-family="sans-serif" font-size="14" lengthAdjust="spacing" textLength="28" x="358.5" y="210.8451">Run</text><line style="stroke:#181818;stroke-width:0.5;" x1="339.5" x2="468.5" y1="218.1469" y2="218.1469"/></g><!--class CmdOptions--><g id="elem_CmdOptions"><rect codeLine="12" fill="#F1F1F1" height="48" id="CmdOptions" rx="2.5" ry="2.5" style="stroke:#181818;stroke-width:0.5;" width="118" x="351" y="374"/><ellipse cx="366" cy="390" fill="#ADD1B2" rx="11" ry="11" style="stroke:#181818;stroke-width:1.0;"/><path d="M368.9688,395.6406 Q368.3906,395.9375 367.75,396.0781 Q367.1094,396.2344 366.4063,396.2344 Q363.9063,396.2344 362.5781,394.5938 Q361.2656,392.9375 361.2656,389.8125 Q361.2656,386.6875 362.5781,385.0313 Q363.9063,383.375 366.4063,383.375 Q367.1094,383.375 367.75,383.5313 Q368.4063,383.6875 368.9688,383.9844 L368.9688,386.7031 Q368.3438,386.125 367.75,385.8594 Q367.1563,385.5781 366.5313,385.5781 Q365.1875,385.5781 364.5,386.6563 Q363.8125,387.7188 363.8125,389.8125 Q363.8125,391.9063 364.5,392.9844 Q365.1875,394.0469 366.5313,394.0469 Q367.1563,394.0469 367.75,393.7813 Q368.3438,393.5 368.9688,392.9219 L368.9688,395.6406 Z " fill="#000000"/><text fill="#000000" font-family="sans-serif" font-size="14" lengthAdjust="spacing" textLength="86" x="380" y="394.8467">CmdOptions</text><line style="stroke:#181818;stroke-width:0.5;" x1="352" x2="468" y1="406" y2="406"/><line style="stroke:#181818;stroke-width:0.5;" x1="352" x2="468" y1="414" y2="414"/></g><!--class ICommandFactory--><g id="elem_ICommandFactory"><rect codeLine="13" fill="#F1F1F1" height="48" id="ICommandFactory" rx="2.5" ry="2.5" style="stroke:#181818;stroke-width:0.5;" width="156" x="148" y="170"/><ellipse cx="163" cy="186" fill="#B4A7E5" rx="11" ry="11" style="stroke:#181818;stroke-width:1.0;"/><path d="M158.9219,181.7656 L158.9219,179.6094 L166.3125,179.6094 L166.3125,181.7656 L163.8438,181.7656 L163.8438,189.8438 L166.3125,189.8438 L166.3125,192 L158.9219,192 L158.9219,189.8438 L161.3906,189.8438 L161.3906,181.7656 L158.9219,181.7656 Z " fill="#000000"/><text fill="#000000" font-family="sans-serif" font-size="14" font-style="italic" lengthAdjust="spacing" textLength="124" x="177" y="190.8467">ICommandFactory</text><line style="stroke:#181818;stroke-width:0.5;" x1="149" x2="303" y1="202" y2="202"/><line style="stroke:#181818;stroke-width:0.5;" x1="149" x2="303" y1="210" y2="210"/></g><!--class CommandFactory--><g id="elem_CommandFactory"><rect codeLine="18" fill="#F1F1F1" height="48" id="CommandFactory" rx="2.5" ry="2.5" style="stroke:#181818;stroke-width:0.5;" width="153" x="162.5" y="374"/><ellipse cx="177.5" cy="390" fill="#ADD1B2" rx="11" ry="11" style="stroke:#181818;stroke-width:1.0;"/><path d="M180.4688,395.6406 Q179.8906,395.9375 179.25,396.0781 Q178.6094,396.2344 177.9063,396.2344 Q175.4063,396.2344 174.0781,394.5938 Q172.7656,392.9375 172.7656,389.8125 Q172.7656,386.6875 174.0781,385.0313 Q175.4063,383.375 177.9063,383.375 Q178.6094,383.375 179.25,383.5313 Q179.9063,383.6875 180.4688,383.9844 L180.4688,386.7031 Q179.8438,386.125 179.25,385.8594 Q178.6563,385.5781 178.0313,385.5781 Q176.6875,385.5781 176,386.6563 Q175.3125,387.7188 175.3125,389.8125 Q175.3125,391.9063 176,392.9844 Q176.6875,394.0469 178.0313,394.0469 Q178.6563,394.0469 179.25,393.7813 Q179.8438,393.5 180.4688,392.9219 L180.4688,395.6406 Z " fill="#000000"/><text fill="#000000" font-family="sans-serif" font-size="14" lengthAdjust="spacing" textLength="121" x="191.5" y="394.8467">CommandFactory</text><line style="stroke:#181818;stroke-width:0.5;" x1="163.5" x2="314.5" y1="406" y2="406"/><line style="stroke:#181818;stroke-width:0.5;" x1="163.5" x2="314.5" y1="414" y2="414"/></g><!--class ICommand--><g id="elem_ICommand"><rect codeLine="22" fill="#F1F1F1" height="48" id="ICommand" rx="2.5" ry="2.5" style="stroke:#181818;stroke-width:0.5;" width="106" x="22" y="374"/><ellipse cx="37" cy="390" fill="#B4A7E5" rx="11" ry="11" style="stroke:#181818;stroke-width:1.0;"/><path d="M32.9219,385.7656 L32.9219,383.6094 L40.3125,383.6094 L40.3125,385.7656 L37.8438,385.7656 L37.8438,393.8438 L40.3125,393.8438 L40.3125,396 L32.9219,396 L32.9219,393.8438 L35.3906,393.8438 L35.3906,385.7656 L32.9219,385.7656 Z " fill="#000000"/><text fill="#000000" font-family="sans-serif" font-size="14" font-style="italic" lengthAdjust="spacing" textLength="74" x="51" y="394.8467">ICommand</text><line style="stroke:#181818;stroke-width:0.5;" x1="23" x2="127" y1="406" y2="406"/><line style="stroke:#181818;stroke-width:0.5;" x1="23" x2="127" y1="414" y2="414"/></g><!--class HelpCommand--><g id="elem_HelpCommand"><rect codeLine="23" fill="#F1F1F1" height="48" id="HelpCommand" rx="2.5" ry="2.5" style="stroke:#181818;stroke-width:0.5;" width="134" x="193" y="632"/><ellipse cx="208" cy="648" fill="#ADD1B2" rx="11" ry="11" style="stroke:#181818;stroke-width:1.0;"/><path d="M210.9688,653.6406 Q210.3906,653.9375 209.75,654.0781 Q209.1094,654.2344 208.4063,654.2344 Q205.9063,654.2344 204.5781,652.5938 Q203.2656,650.9375 203.2656,647.8125 Q203.2656,644.6875 204.5781,643.0313 Q205.9063,641.375 208.4063,641.375 Q209.1094,641.375 209.75,641.5313 Q210.4063,641.6875 210.9688,641.9844 L210.9688,644.7031 Q210.3438,644.125 209.75,643.8594 Q209.1563,643.5781 208.5313,643.5781 Q207.1875,643.5781 206.5,644.6563 Q205.8125,645.7188 205.8125,647.8125 Q205.8125,649.9063 206.5,650.9844 Q207.1875,652.0469 208.5313,652.0469 Q209.1563,652.0469 209.75,651.7813 Q210.3438,651.5 210.9688,650.9219 L210.9688,653.6406 Z " fill="#000000"/><text fill="#000000" font-family="sans-serif" font-size="14" lengthAdjust="spacing" textLength="102" x="222" y="652.8467">HelpCommand</text><line style="stroke:#181818;stroke-width:0.5;" x1="194" x2="326" y1="664" y2="664"/><line style="stroke:#181818;stroke-width:0.5;" x1="194" x2="326" y1="672" y2="672"/></g><!--class FilterCommand--><g id="elem_FilterCommand"><rect codeLine="24" fill="#F1F1F1" height="48" id="FilterCommand" rx="2.5" ry="2.5" style="stroke:#181818;stroke-width:0.5;" width="136" x="22" y="632"/><ellipse cx="37" cy="648" fill="#ADD1B2" rx="11" ry="11" style="stroke:#181818;stroke-width:1.0;"/><path d="M39.9688,653.6406 Q39.3906,653.9375 38.75,654.0781 Q38.1094,654.2344 37.4063,654.2344 Q34.9063,654.2344 33.5781,652.5938 Q32.2656,650.9375 32.2656,647.8125 Q32.2656,644.6875 33.5781,643.0313 Q34.9063,641.375 37.4063,641.375 Q38.1094,641.375 38.75,641.5313 Q39.4063,641.6875 39.9688,641.9844 L39.9688,644.7031 Q39.3438,644.125 38.75,643.8594 Q38.1563,643.5781 37.5313,643.5781 Q36.1875,643.5781 35.5,644.6563 Q34.8125,645.7188 34.8125,647.8125 Q34.8125,649.9063 35.5,650.9844 Q36.1875,652.0469 37.5313,652.0469 Q38.1563,652.0469 38.75,651.7813 Q39.3438,651.5 39.9688,650.9219 L39.9688,653.6406 Z " fill="#000000"/><text fill="#000000" font-family="sans-serif" font-size="14" lengthAdjust="spacing" textLength="104" x="51" y="652.8467">FilterCommand</text><line style="stroke:#181818;stroke-width:0.5;" x1="23" x2="157" y1="664" y2="664"/><line style="stroke:#181818;stroke-width:0.5;" x1="23" x2="157" y1="672" y2="672"/></g><!--class Options--><g id="elem_Options"><rect codeLine="35" fill="#F1F1F1" height="48" id="Options" rx="2.5" ry="2.5" style="stroke:#181818;stroke-width:0.5;" width="86" x="835" y="170"/><ellipse cx="850" cy="186" fill="#ADD1B2" rx="11" ry="11" style="stroke:#181818;stroke-width:1.0;"/><path d="M852.9688,191.6406 Q852.3906,191.9375 851.75,192.0781 Q851.1094,192.2344 850.4063,192.2344 Q847.9063,192.2344 846.5781,190.5938 Q845.2656,188.9375 845.2656,185.8125 Q845.2656,182.6875 846.5781,181.0313 Q847.9063,179.375 850.4063,179.375 Q851.1094,179.375 851.75,179.5313 Q852.4063,179.6875 852.9688,179.9844 L852.9688,182.7031 Q852.3438,182.125 851.75,181.8594 Q851.1563,181.5781 850.5313,181.5781 Q849.1875,181.5781 848.5,182.6563 Q847.8125,183.7188 847.8125,185.8125 Q847.8125,187.9063 848.5,188.9844 Q849.1875,190.0469 850.5313,190.0469 Q851.1563,190.0469 851.75,189.7813 Q852.3438,189.5 852.9688,188.9219 L852.9688,191.6406 Z " fill="#000000"/><text fill="#000000" font-family="sans-serif" font-size="14" lengthAdjust="spacing" textLength="54" x="864" y="190.8467">Options</text><line style="stroke:#181818;stroke-width:0.5;" x1="836" x2="920" y1="202" y2="202"/><line style="stroke:#181818;stroke-width:0.5;" x1="836" x2="920" y1="210" y2="210"/></g><!--class Options--><g id="elem_Options"><rect fill="#F1F1F1" height="48" id="Options" rx="2.5" ry="2.5" style="stroke:#181818;stroke-width:0.5;" width="86" x="573" y="632"/><ellipse cx="588" cy="648" fill="#ADD1B2" rx="11" ry="11" style="stroke:#181818;stroke-width:1.0;"/><path d="M590.9688,653.6406 Q590.3906,653.9375 589.75,654.0781 Q589.1094,654.2344 588.4063,654.2344 Q585.9063,654.2344 584.5781,652.5938 Q583.2656,650.9375 583.2656,647.8125 Q583.2656,644.6875 584.5781,643.0313 Q585.9063,641.375 588.4063,641.375 Q589.1094,641.375 589.75,641.5313 Q590.4063,641.6875 590.9688,641.9844 L590.9688,644.7031 Q590.3438,644.125 589.75,643.8594 Q589.1563,643.5781 588.5313,643.5781 Q587.1875,643.5781 586.5,644.6563 Q585.8125,645.7188 585.8125,647.8125 Q585.8125,649.9063 586.5,650.9844 Q587.1875,652.0469 588.5313,652.0469 Q589.1563,652.0469 589.75,651.7813 Q590.3438,651.5 590.9688,650.9219 L590.9688,653.6406 Z " fill="#000000"/><text fill="#000000" font-family="sans-serif" font-size="14" lengthAdjust="spacing" textLength="54" x="602" y="652.8467">Options</text><line style="stroke:#181818;stroke-width:0.5;" x1="574" x2="658" y1="664" y2="664"/><line style="stroke:#181818;stroke-width:0.5;" x1="574" x2="658" y1="672" y2="672"/></g><!--reverse link Program to CommandLine--><g id="link_Program_CommandLine"><path codeLine="5" d="M614,231.95 C614,273.31 614,339.08 614,373.79 " fill="none" id="Program-backto-CommandLine" style="stroke:#181818;stroke-width:1.0;"/><polygon fill="#181818" points="614,219.17,610,225.17,614,231.17,618,225.17,614,219.17" style="stroke:#181818;stroke-width:1.0;"/></g><!--reverse link CommandLine to CmdOptions--><g id="link_CommandLine_CmdOptions"><path codeLine="15" d="M405.35,240.35 C406.57,281.66 408.34,341.03 409.3,373.53 " fill="none" id="CommandLine-backto-CmdOptions" style="stroke:#181818;stroke-width:1.0;"/><polygon fill="#181818" points="404.94,227.56,401.1199,233.6761,405.2963,239.5547,409.1164,233.4386,404.94,227.56" style="stroke:#181818;stroke-width:1.0;"/></g><!--reverse link CommandLine to ICommandFactory--><g id="link_CommandLine_ICommandFactory"><path codeLine="16" d="M324.36,194 C317.64,194 310.93,194 304.22,194 " fill="none" id="CommandLine-backto-ICommandFactory" style="stroke:#181818;stroke-width:1.0;"/><polygon fill="#181818" points="337.13,194,331.13,190,325.13,194,331.13,198,337.13,194" style="stroke:#181818;stroke-width:1.0;"/></g><!--reverse link ICommandFactory to CommandFactory--><g id="link_ICommandFactory_CommandFactory"><path codeLine="20" d="M228.83,238.95 C231.5,280.42 235.39,340.98 237.51,373.79 " fill="none" id="ICommandFactory-backto-CommandFactory" style="stroke:#181818;stroke-width:1.0;stroke-dasharray:7.0,7.0;"/><polygon fill="none" points="221.79,239.58,227.49,219.17,235.76,238.68,221.79,239.58" style="stroke:#181818;stroke-width:1.0;"/></g><!--reverse link ICommand to HelpCommand--><g id="link_ICommand_HelpCommand"><path codeLine="26" d="M104.42,437.95 C115.73,450.2 129.65,462.48 145,470 C171.93,483.2 189.3,458.4 212,478 C256.94,516.81 261.88,593.01 261.24,631.53 " fill="none" id="ICommand-backto-HelpCommand" style="stroke:#181818;stroke-width:1.0;stroke-dasharray:7.0,7.0;"/><polygon fill="none" points="98.72,443.05,91.15,423.26,109.41,434.01,98.72,443.05" style="stroke:#181818;stroke-width:1.0;"/></g><!--reverse link ICommand to FilterCommand--><g id="link_ICommand_FilterCommand"><path codeLine="27" d="M77.2,443.04 C78.04,459.37 79.03,478.03 80,495 C82.79,543.63 86.44,600.54 88.47,631.69 " fill="none" id="ICommand-backto-FilterCommand" style="stroke:#181818;stroke-width:1.0;stroke-dasharray:7.0,7.0;"/><polygon fill="none" points="70.17,443.61,76.14,423.28,84.15,442.9,70.17,443.61" style="stroke:#181818;stroke-width:1.0;"/></g><!--link CommandFactory to HelpCommand--><g id="link_CommandFactory_HelpCommand"><path codeLine="29" d="M240.9,422.17 C244.74,468.98 253.42,574.73 257.62,626.02 " fill="none" id="CommandFactory-to-HelpCommand" style="stroke:#181818;stroke-width:1.0;"/><polygon fill="#181818" points="258.09,630.7,261.3288,621.3989,257.6748,625.7173,253.3564,622.0633,258.09,630.7" style="stroke:#181818;stroke-width:1.0;"/><text fill="#000000" font-family="sans-serif" font-size="13" lengthAdjust="spacing" textLength="91" x="248" y="491.0669">&#171;instantiates&#187;</text></g><!--link CommandFactory to FilterCommand--><g id="link_CommandFactory_FilterCommand"><path codeLine="30" d="M201.93,422.45 C182.51,436.45 159.75,455.81 145,478 C114.14,524.43 99.86,589.07 93.85,626.02 " fill="none" id="CommandFactory-to-FilterCommand" style="stroke:#181818;stroke-width:1.0;"/><polygon fill="#181818" points="92.96,630.7,98.3,622.4245,93.731,625.7598,90.3957,621.1908,92.96,630.7" style="stroke:#181818;stroke-width:1.0;"/><text fill="#000000" font-family="sans-serif" font-size="13" lengthAdjust="spacing" textLength="91" x="146" y="491.0669">&#171;instantiates&#187;</text></g><!--link CmdOptions to Options--><g id="link_CmdOptions_Options"><path codeLine="39" d="M428.64,422.17 C466.62,469.36 552.79,576.45 593.67,627.25 " fill="none" id="CmdOptions-to-Options" style="stroke:#181818;stroke-width:1.0;"/><polygon fill="#181818" points="597.25,630.7,594.7385,621.1768,594.1213,626.7998,588.4982,626.1827,597.25,630.7" style="stroke:#181818;stroke-width:1.0;"/></g><!--SRC=[TLBBJiCm4BpxA_OCiZy0HRbKYW21g7hWlagMocgyZcoZ2a7-7UVHOgV6jttCxCWpZ8RyW2t1Asg6Rm7njJrw3tjdZmwDc5jh0NUoa_2kwQnsrXZaxaKpYL48lX9DqumesLpxqxk7moVFrPZkckvj2DgodvkQ0xcFYVLfPMcm3TPzBQfIvbdP1fxFdIopP2gpoMOTgX_LgUBchT24-f7wuRRRw3vYBltitd9e2ykd1VX6hPHrUXeUeAeq-u0SD0RoTVqVAkCkuQBXqUiJ7WcQ60iwMtTQlVqBmk5vjuynSQJA2LY-8VLhd8YNT5sDXEXhNUPI5-ml]--></g></svg>