<?xml version="1.0" encoding="us-ascii" standalone="no"?><svg xmlns="http://www.w3.org/2000/svg" xmlns:xlink="http://www.w3.org/1999/xlink" contentStyleType="text/css" height="546px" preserveAspectRatio="none" style="width:2801px;height:546px;background:#FFFFFF;" version="1.1" viewBox="0 0 2801 546" width="2801px" zoomAndPan="magnify"><defs/><g><!--class DltTraceDecoderBase--><g id="elem_DltTraceDecoderBase"><rect codeLine="1" fill="#F1F1F1" height="48" id="DltTraceDecoderBase" rx="2.5" ry="2.5" style="stroke:#181818;stroke-width:0.5;" width="185" x="949.5" y="7"/><ellipse cx="964.5" cy="23" fill="#ADD1B2" rx="11" ry="11" style="stroke:#181818;stroke-width:1.0;"/><path d="M967.4688,28.6406 Q966.8906,28.9375 966.25,29.0781 Q965.6094,29.2344 964.9063,29.2344 Q962.4063,29.2344 961.0781,27.5938 Q959.7656,25.9375 959.7656,22.8125 Q959.7656,19.6875 961.0781,18.0313 Q962.4063,16.375 964.9063,16.375 Q965.6094,16.375 966.25,16.5313 Q966.9063,16.6875 967.4688,16.9844 L967.4688,19.7031 Q966.8438,19.125 966.25,18.8594 Q965.6563,18.5781 965.0313,18.5781 Q963.6875,18.5781 963,19.6563 Q962.3125,20.7188 962.3125,22.8125 Q962.3125,24.9063 963,25.9844 Q963.6875,27.0469 965.0313,27.0469 Q965.6563,27.0469 966.25,26.7813 Q966.8438,26.5 967.4688,25.9219 L967.4688,28.6406 Z " fill="#000000"/><text fill="#000000" font-family="sans-serif" font-size="14" lengthAdjust="spacing" textLength="153" x="978.5" y="27.8467">DltTraceDecoderBase</text><line style="stroke:#181818;stroke-width:0.5;" x1="950.5" x2="1133.5" y1="39" y2="39"/><line style="stroke:#181818;stroke-width:0.5;" x1="950.5" x2="1133.5" y1="47" y2="47"/></g><!--class INonVerboseDltDecoder--><g id="elem_INonVerboseDltDecoder"><rect codeLine="4" fill="#F1F1F1" height="48" id="INonVerboseDltDecoder" rx="2.5" ry="2.5" style="stroke:#181818;stroke-width:0.5;" width="200" x="1217" y="7"/><ellipse cx="1232" cy="23" fill="#B4A7E5" rx="11" ry="11" style="stroke:#181818;stroke-width:1.0;"/><path d="M1227.9219,18.7656 L1227.9219,16.6094 L1235.3125,16.6094 L1235.3125,18.7656 L1232.8438,18.7656 L1232.8438,26.8438 L1235.3125,26.8438 L1235.3125,29 L1227.9219,29 L1227.9219,26.8438 L1230.3906,26.8438 L1230.3906,18.7656 L1227.9219,18.7656 Z " fill="#000000"/><text fill="#000000" font-family="sans-serif" font-size="14" font-style="italic" lengthAdjust="spacing" textLength="168" x="1246" y="27.8467">INonVerboseDltDecoder</text><line style="stroke:#181818;stroke-width:0.5;" x1="1218" x2="1416" y1="39" y2="39"/><line style="stroke:#181818;stroke-width:0.5;" x1="1218" x2="1416" y1="47" y2="47"/></g><!--class NonVerboseDltDecoder--><g id="elem_NonVerboseDltDecoder"><rect codeLine="5" fill="#F1F1F1" height="48" id="NonVerboseDltDecoder" rx="2.5" ry="2.5" style="stroke:#181818;stroke-width:0.5;" width="197" x="1218.5" y="116"/><ellipse cx="1233.5" cy="132" fill="#ADD1B2" rx="11" ry="11" style="stroke:#181818;stroke-width:1.0;"/><path d="M1236.4688,137.6406 Q1235.8906,137.9375 1235.25,138.0781 Q1234.6094,138.2344 1233.9063,138.2344 Q1231.4063,138.2344 1230.0781,136.5938 Q1228.7656,134.9375 1228.7656,131.8125 Q1228.7656,128.6875 1230.0781,127.0313 Q1231.4063,125.375 1233.9063,125.375 Q1234.6094,125.375 1235.25,125.5313 Q1235.9063,125.6875 1236.4688,125.9844 L1236.4688,128.7031 Q1235.8438,128.125 1235.25,127.8594 Q1234.6563,127.5781 1234.0313,127.5781 Q1232.6875,127.5781 1232,128.6563 Q1231.3125,129.7188 1231.3125,131.8125 Q1231.3125,133.9063 1232,134.9844 Q1232.6875,136.0469 1234.0313,136.0469 Q1234.6563,136.0469 1235.25,135.7813 Q1235.8438,135.5 1236.4688,134.9219 L1236.4688,137.6406 Z " fill="#000000"/><text fill="#000000" font-family="sans-serif" font-size="14" lengthAdjust="spacing" textLength="165" x="1247.5" y="136.8467">NonVerboseDltDecoder</text><line style="stroke:#181818;stroke-width:0.5;" x1="1219.5" x2="1414.5" y1="148" y2="148"/><line style="stroke:#181818;stroke-width:0.5;" x1="1219.5" x2="1414.5" y1="156" y2="156"/></g><!--class INonVerboseArgDecoder--><g id="elem_INonVerboseArgDecoder"><rect codeLine="9" fill="#F1F1F1" height="48" id="INonVerboseArgDecoder" rx="2.5" ry="2.5" style="stroke:#181818;stroke-width:0.5;" width="204" x="1450" y="116"/><ellipse cx="1465" cy="132" fill="#B4A7E5" rx="11" ry="11" style="stroke:#181818;stroke-width:1.0;"/><path d="M1460.9219,127.7656 L1460.9219,125.6094 L1468.3125,125.6094 L1468.3125,127.7656 L1465.8438,127.7656 L1465.8438,135.8438 L1468.3125,135.8438 L1468.3125,138 L1460.9219,138 L1460.9219,135.8438 L1463.3906,135.8438 L1463.3906,127.7656 L1460.9219,127.7656 Z " fill="#000000"/><text fill="#000000" font-family="sans-serif" font-size="14" font-style="italic" lengthAdjust="spacing" textLength="172" x="1479" y="136.8467">INonVerboseArgDecoder</text><line style="stroke:#181818;stroke-width:0.5;" x1="1451" x2="1653" y1="148" y2="148"/><line style="stroke:#181818;stroke-width:0.5;" x1="1451" x2="1653" y1="156" y2="156"/></g><!--class NonVerboseArgDecoder--><g id="elem_NonVerboseArgDecoder"><rect codeLine="10" fill="#F1F1F1" height="48" id="NonVerboseArgDecoder" rx="2.5" ry="2.5" style="stroke:#181818;stroke-width:0.5;" width="201" x="1333.5" y="241"/><ellipse cx="1348.5" cy="257" fill="#ADD1B2" rx="11" ry="11" style="stroke:#181818;stroke-width:1.0;"/><path d="M1351.4688,262.6406 Q1350.8906,262.9375 1350.25,263.0781 Q1349.6094,263.2344 1348.9063,263.2344 Q1346.4063,263.2344 1345.0781,261.5938 Q1343.7656,259.9375 1343.7656,256.8125 Q1343.7656,253.6875 1345.0781,252.0313 Q1346.4063,250.375 1348.9063,250.375 Q1349.6094,250.375 1350.25,250.5313 Q1350.9063,250.6875 1351.4688,250.9844 L1351.4688,253.7031 Q1350.8438,253.125 1350.25,252.8594 Q1349.6563,252.5781 1349.0313,252.5781 Q1347.6875,252.5781 1347,253.6563 Q1346.3125,254.7188 1346.3125,256.8125 Q1346.3125,258.9063 1347,259.9844 Q1347.6875,261.0469 1349.0313,261.0469 Q1349.6563,261.0469 1350.25,260.7813 Q1350.8438,260.5 1351.4688,259.9219 L1351.4688,262.6406 Z " fill="#000000"/><text fill="#000000" font-family="sans-serif" font-size="14" lengthAdjust="spacing" textLength="169" x="1362.5" y="261.8467">NonVerboseArgDecoder</text><line style="stroke:#181818;stroke-width:0.5;" x1="1334.5" x2="1533.5" y1="273" y2="273"/><line style="stroke:#181818;stroke-width:0.5;" x1="1334.5" x2="1533.5" y1="281" y2="281"/></g><!--class NonVerboseBoolArgDecoder--><g id="elem_NonVerboseBoolArgDecoder"><rect codeLine="17" fill="#F1F1F1" height="48" id="NonVerboseBoolArgDecoder" rx="2.5" ry="2.5" style="stroke:#181818;stroke-width:0.5;" width="232" x="7" y="366"/><ellipse cx="22" cy="382" fill="#ADD1B2" rx="11" ry="11" style="stroke:#181818;stroke-width:1.0;"/><path d="M24.9688,387.6406 Q24.3906,387.9375 23.75,388.0781 Q23.1094,388.2344 22.4063,388.2344 Q19.9063,388.2344 18.5781,386.5938 Q17.2656,384.9375 17.2656,381.8125 Q17.2656,378.6875 18.5781,377.0313 Q19.9063,375.375 22.4063,375.375 Q23.1094,375.375 23.75,375.5313 Q24.4063,375.6875 24.9688,375.9844 L24.9688,378.7031 Q24.3438,378.125 23.75,377.8594 Q23.1563,377.5781 22.5313,377.5781 Q21.1875,377.5781 20.5,378.6563 Q19.8125,379.7188 19.8125,381.8125 Q19.8125,383.9063 20.5,384.9844 Q21.1875,386.0469 22.5313,386.0469 Q23.1563,386.0469 23.75,385.7813 Q24.3438,385.5 24.9688,384.9219 L24.9688,387.6406 Z " fill="#000000"/><text fill="#000000" font-family="sans-serif" font-size="14" lengthAdjust="spacing" textLength="200" x="36" y="386.8467">NonVerboseBoolArgDecoder</text><line style="stroke:#181818;stroke-width:0.5;" x1="8" x2="238" y1="398" y2="398"/><line style="stroke:#181818;stroke-width:0.5;" x1="8" x2="238" y1="406" y2="406"/></g><!--class NonVerboseSignedIntArgDecoder--><g id="elem_NonVerboseSignedIntArgDecoder"><rect codeLine="18" fill="#F1F1F1" height="48" id="NonVerboseSignedIntArgDecoder" rx="2.5" ry="2.5" style="stroke:#181818;stroke-width:0.5;" width="266" x="274" y="366"/><ellipse cx="289" cy="382" fill="#ADD1B2" rx="11" ry="11" style="stroke:#181818;stroke-width:1.0;"/><path d="M291.9688,387.6406 Q291.3906,387.9375 290.75,388.0781 Q290.1094,388.2344 289.4063,388.2344 Q286.9063,388.2344 285.5781,386.5938 Q284.2656,384.9375 284.2656,381.8125 Q284.2656,378.6875 285.5781,377.0313 Q286.9063,375.375 289.4063,375.375 Q290.1094,375.375 290.75,375.5313 Q291.4063,375.6875 291.9688,375.9844 L291.9688,378.7031 Q291.3438,378.125 290.75,377.8594 Q290.1563,377.5781 289.5313,377.5781 Q288.1875,377.5781 287.5,378.6563 Q286.8125,379.7188 286.8125,381.8125 Q286.8125,383.9063 287.5,384.9844 Q288.1875,386.0469 289.5313,386.0469 Q290.1563,386.0469 290.75,385.7813 Q291.3438,385.5 291.9688,384.9219 L291.9688,387.6406 Z " fill="#000000"/><text fill="#000000" font-family="sans-serif" font-size="14" lengthAdjust="spacing" textLength="234" x="303" y="386.8467">NonVerboseSignedIntArgDecoder</text><line style="stroke:#181818;stroke-width:0.5;" x1="275" x2="539" y1="398" y2="398"/><line style="stroke:#181818;stroke-width:0.5;" x1="275" x2="539" y1="406" y2="406"/></g><!--class NonVerboseUnsignedIntArgDecoder--><g id="elem_NonVerboseUnsignedIntArgDecoder"><rect codeLine="19" fill="#F1F1F1" height="48" id="NonVerboseUnsignedIntArgDecoder" rx="2.5" ry="2.5" style="stroke:#181818;stroke-width:0.5;" width="284" x="575" y="366"/><ellipse cx="590" cy="382" fill="#ADD1B2" rx="11" ry="11" style="stroke:#181818;stroke-width:1.0;"/><path d="M592.9688,387.6406 Q592.3906,387.9375 591.75,388.0781 Q591.1094,388.2344 590.4063,388.2344 Q587.9063,388.2344 586.5781,386.5938 Q585.2656,384.9375 585.2656,381.8125 Q585.2656,378.6875 586.5781,377.0313 Q587.9063,375.375 590.4063,375.375 Q591.1094,375.375 591.75,375.5313 Q592.4063,375.6875 592.9688,375.9844 L592.9688,378.7031 Q592.3438,378.125 591.75,377.8594 Q591.1563,377.5781 590.5313,377.5781 Q589.1875,377.5781 588.5,378.6563 Q587.8125,379.7188 587.8125,381.8125 Q587.8125,383.9063 588.5,384.9844 Q589.1875,386.0469 590.5313,386.0469 Q591.1563,386.0469 591.75,385.7813 Q592.3438,385.5 592.9688,384.9219 L592.9688,387.6406 Z " fill="#000000"/><text fill="#000000" font-family="sans-serif" font-size="14" lengthAdjust="spacing" textLength="252" x="604" y="386.8467">NonVerboseUnsignedIntArgDecoder</text><line style="stroke:#181818;stroke-width:0.5;" x1="576" x2="858" y1="398" y2="398"/><line style="stroke:#181818;stroke-width:0.5;" x1="576" x2="858" y1="406" y2="406"/></g><!--class NonVerboseFloat32ArgDecoder--><g id="elem_NonVerboseFloat32ArgDecoder"><rect codeLine="20" fill="#F1F1F1" height="48" id="NonVerboseFloat32ArgDecoder" rx="2.5" ry="2.5" style="stroke:#181818;stroke-width:0.5;" width="252" x="894" y="366"/><ellipse cx="909" cy="382" fill="#ADD1B2" rx="11" ry="11" style="stroke:#181818;stroke-width:1.0;"/><path d="M911.9688,387.6406 Q911.3906,387.9375 910.75,388.0781 Q910.1094,388.2344 909.4063,388.2344 Q906.9063,388.2344 905.5781,386.5938 Q904.2656,384.9375 904.2656,381.8125 Q904.2656,378.6875 905.5781,377.0313 Q906.9063,375.375 909.4063,375.375 Q910.1094,375.375 910.75,375.5313 Q911.4063,375.6875 911.9688,375.9844 L911.9688,378.7031 Q911.3438,378.125 910.75,377.8594 Q910.1563,377.5781 909.5313,377.5781 Q908.1875,377.5781 907.5,378.6563 Q906.8125,379.7188 906.8125,381.8125 Q906.8125,383.9063 907.5,384.9844 Q908.1875,386.0469 909.5313,386.0469 Q910.1563,386.0469 910.75,385.7813 Q911.3438,385.5 911.9688,384.9219 L911.9688,387.6406 Z " fill="#000000"/><text fill="#000000" font-family="sans-serif" font-size="14" lengthAdjust="spacing" textLength="220" x="923" y="386.8467">NonVerboseFloat32ArgDecoder</text><line style="stroke:#181818;stroke-width:0.5;" x1="895" x2="1145" y1="398" y2="398"/><line style="stroke:#181818;stroke-width:0.5;" x1="895" x2="1145" y1="406" y2="406"/></g><!--class NonVerboseFloat64ArgDecoder--><g id="elem_NonVerboseFloat64ArgDecoder"><rect codeLine="21" fill="#F1F1F1" height="48" id="NonVerboseFloat64ArgDecoder" rx="2.5" ry="2.5" style="stroke:#181818;stroke-width:0.5;" width="252" x="1181" y="366"/><ellipse cx="1196" cy="382" fill="#ADD1B2" rx="11" ry="11" style="stroke:#181818;stroke-width:1.0;"/><path d="M1198.9688,387.6406 Q1198.3906,387.9375 1197.75,388.0781 Q1197.1094,388.2344 1196.4063,388.2344 Q1193.9063,388.2344 1192.5781,386.5938 Q1191.2656,384.9375 1191.2656,381.8125 Q1191.2656,378.6875 1192.5781,377.0313 Q1193.9063,375.375 1196.4063,375.375 Q1197.1094,375.375 1197.75,375.5313 Q1198.4063,375.6875 1198.9688,375.9844 L1198.9688,378.7031 Q1198.3438,378.125 1197.75,377.8594 Q1197.1563,377.5781 1196.5313,377.5781 Q1195.1875,377.5781 1194.5,378.6563 Q1193.8125,379.7188 1193.8125,381.8125 Q1193.8125,383.9063 1194.5,384.9844 Q1195.1875,386.0469 1196.5313,386.0469 Q1197.1563,386.0469 1197.75,385.7813 Q1198.3438,385.5 1198.9688,384.9219 L1198.9688,387.6406 Z " fill="#000000"/><text fill="#000000" font-family="sans-serif" font-size="14" lengthAdjust="spacing" textLength="220" x="1210" y="386.8467">NonVerboseFloat64ArgDecoder</text><line style="stroke:#181818;stroke-width:0.5;" x1="1182" x2="1432" y1="398" y2="398"/><line style="stroke:#181818;stroke-width:0.5;" x1="1182" x2="1432" y1="406" y2="406"/></g><!--class NonVerboseRawArgDecoder--><g id="elem_NonVerboseRawArgDecoder"><rect codeLine="22" fill="#F1F1F1" height="48" id="NonVerboseRawArgDecoder" rx="2.5" ry="2.5" style="stroke:#181818;stroke-width:0.5;" width="230" x="1468" y="366"/><ellipse cx="1483" cy="382" fill="#ADD1B2" rx="11" ry="11" style="stroke:#181818;stroke-width:1.0;"/><path d="M1485.9688,387.6406 Q1485.3906,387.9375 1484.75,388.0781 Q1484.1094,388.2344 1483.4063,388.2344 Q1480.9063,388.2344 1479.5781,386.5938 Q1478.2656,384.9375 1478.2656,381.8125 Q1478.2656,378.6875 1479.5781,377.0313 Q1480.9063,375.375 1483.4063,375.375 Q1484.1094,375.375 1484.75,375.5313 Q1485.4063,375.6875 1485.9688,375.9844 L1485.9688,378.7031 Q1485.3438,378.125 1484.75,377.8594 Q1484.1563,377.5781 1483.5313,377.5781 Q1482.1875,377.5781 1481.5,378.6563 Q1480.8125,379.7188 1480.8125,381.8125 Q1480.8125,383.9063 1481.5,384.9844 Q1482.1875,386.0469 1483.5313,386.0469 Q1484.1563,386.0469 1484.75,385.7813 Q1485.3438,385.5 1485.9688,384.9219 L1485.9688,387.6406 Z " fill="#000000"/><text fill="#000000" font-family="sans-serif" font-size="14" lengthAdjust="spacing" textLength="198" x="1497" y="386.8467">NonVerboseRawArgDecoder</text><line style="stroke:#181818;stroke-width:0.5;" x1="1469" x2="1697" y1="398" y2="398"/><line style="stroke:#181818;stroke-width:0.5;" x1="1469" x2="1697" y1="406" y2="406"/></g><!--class NonVerboseStringArgDecoder--><g id="elem_NonVerboseStringArgDecoder"><rect codeLine="23" fill="#F1F1F1" height="48" id="NonVerboseStringArgDecoder" rx="2.5" ry="2.5" style="stroke:#181818;stroke-width:0.5;" width="241" x="1732.5" y="366"/><ellipse cx="1747.5" cy="382" fill="#ADD1B2" rx="11" ry="11" style="stroke:#181818;stroke-width:1.0;"/><path d="M1750.4688,387.6406 Q1749.8906,387.9375 1749.25,388.0781 Q1748.6094,388.2344 1747.9063,388.2344 Q1745.4063,388.2344 1744.0781,386.5938 Q1742.7656,384.9375 1742.7656,381.8125 Q1742.7656,378.6875 1744.0781,377.0313 Q1745.4063,375.375 1747.9063,375.375 Q1748.6094,375.375 1749.25,375.5313 Q1749.9063,375.6875 1750.4688,375.9844 L1750.4688,378.7031 Q1749.8438,378.125 1749.25,377.8594 Q1748.6563,377.5781 1748.0313,377.5781 Q1746.6875,377.5781 1746,378.6563 Q1745.3125,379.7188 1745.3125,381.8125 Q1745.3125,383.9063 1746,384.9844 Q1746.6875,386.0469 1748.0313,386.0469 Q1748.6563,386.0469 1749.25,385.7813 Q1749.8438,385.5 1750.4688,384.9219 L1750.4688,387.6406 Z " fill="#000000"/><text fill="#000000" font-family="sans-serif" font-size="14" lengthAdjust="spacing" textLength="209" x="1761.5" y="386.8467">NonVerboseStringArgDecoder</text><line style="stroke:#181818;stroke-width:0.5;" x1="1733.5" x2="1972.5" y1="398" y2="398"/><line style="stroke:#181818;stroke-width:0.5;" x1="1733.5" x2="1972.5" y1="406" y2="406"/></g><!--class NonVerboseBinArgDecoder--><g id="elem_NonVerboseBinArgDecoder"><rect codeLine="24" fill="#F1F1F1" height="48" id="NonVerboseBinArgDecoder" rx="2.5" ry="2.5" style="stroke:#181818;stroke-width:0.5;" width="223" x="2008.5" y="366"/><ellipse cx="2023.5" cy="382" fill="#ADD1B2" rx="11" ry="11" style="stroke:#181818;stroke-width:1.0;"/><path d="M2026.4688,387.6406 Q2025.8906,387.9375 2025.25,388.0781 Q2024.6094,388.2344 2023.9063,388.2344 Q2021.4063,388.2344 2020.0781,386.5938 Q2018.7656,384.9375 2018.7656,381.8125 Q2018.7656,378.6875 2020.0781,377.0313 Q2021.4063,375.375 2023.9063,375.375 Q2024.6094,375.375 2025.25,375.5313 Q2025.9063,375.6875 2026.4688,375.9844 L2026.4688,378.7031 Q2025.8438,378.125 2025.25,377.8594 Q2024.6563,377.5781 2024.0313,377.5781 Q2022.6875,377.5781 2022,378.6563 Q2021.3125,379.7188 2021.3125,381.8125 Q2021.3125,383.9063 2022,384.9844 Q2022.6875,386.0469 2024.0313,386.0469 Q2024.6563,386.0469 2025.25,385.7813 Q2025.8438,385.5 2026.4688,384.9219 L2026.4688,387.6406 Z " fill="#000000"/><text fill="#000000" font-family="sans-serif" font-size="14" lengthAdjust="spacing" textLength="191" x="2037.5" y="386.8467">NonVerboseBinArgDecoder</text><line style="stroke:#181818;stroke-width:0.5;" x1="2009.5" x2="2230.5" y1="398" y2="398"/><line style="stroke:#181818;stroke-width:0.5;" x1="2009.5" x2="2230.5" y1="406" y2="406"/></g><!--class NonVerboseHexArgDecoder--><g id="elem_NonVerboseHexArgDecoder"><rect codeLine="25" fill="#F1F1F1" height="48" id="NonVerboseHexArgDecoder" rx="2.5" ry="2.5" style="stroke:#181818;stroke-width:0.5;" width="227" x="2266.5" y="366"/><ellipse cx="2281.5" cy="382" fill="#ADD1B2" rx="11" ry="11" style="stroke:#181818;stroke-width:1.0;"/><path d="M2284.4688,387.6406 Q2283.8906,387.9375 2283.25,388.0781 Q2282.6094,388.2344 2281.9063,388.2344 Q2279.4063,388.2344 2278.0781,386.5938 Q2276.7656,384.9375 2276.7656,381.8125 Q2276.7656,378.6875 2278.0781,377.0313 Q2279.4063,375.375 2281.9063,375.375 Q2282.6094,375.375 2283.25,375.5313 Q2283.9063,375.6875 2284.4688,375.9844 L2284.4688,378.7031 Q2283.8438,378.125 2283.25,377.8594 Q2282.6563,377.5781 2282.0313,377.5781 Q2280.6875,377.5781 2280,378.6563 Q2279.3125,379.7188 2279.3125,381.8125 Q2279.3125,383.9063 2280,384.9844 Q2280.6875,386.0469 2282.0313,386.0469 Q2282.6563,386.0469 2283.25,385.7813 Q2283.8438,385.5 2284.4688,384.9219 L2284.4688,387.6406 Z " fill="#000000"/><text fill="#000000" font-family="sans-serif" font-size="14" lengthAdjust="spacing" textLength="195" x="2295.5" y="386.8467">NonVerboseHexArgDecoder</text><line style="stroke:#181818;stroke-width:0.5;" x1="2267.5" x2="2492.5" y1="398" y2="398"/><line style="stroke:#181818;stroke-width:0.5;" x1="2267.5" x2="2492.5" y1="406" y2="406"/></g><!--class NonVerboseUnknownArgDecoder--><g id="elem_NonVerboseUnknownArgDecoder"><rect codeLine="26" fill="#F1F1F1" height="48" id="NonVerboseUnknownArgDecoder" rx="2.5" ry="2.5" style="stroke:#181818;stroke-width:0.5;" width="266" x="2528" y="366"/><ellipse cx="2543" cy="382" fill="#ADD1B2" rx="11" ry="11" style="stroke:#181818;stroke-width:1.0;"/><path d="M2545.9688,387.6406 Q2545.3906,387.9375 2544.75,388.0781 Q2544.1094,388.2344 2543.4063,388.2344 Q2540.9063,388.2344 2539.5781,386.5938 Q2538.2656,384.9375 2538.2656,381.8125 Q2538.2656,378.6875 2539.5781,377.0313 Q2540.9063,375.375 2543.4063,375.375 Q2544.1094,375.375 2544.75,375.5313 Q2545.4063,375.6875 2545.9688,375.9844 L2545.9688,378.7031 Q2545.3438,378.125 2544.75,377.8594 Q2544.1563,377.5781 2543.5313,377.5781 Q2542.1875,377.5781 2541.5,378.6563 Q2540.8125,379.7188 2540.8125,381.8125 Q2540.8125,383.9063 2541.5,384.9844 Q2542.1875,386.0469 2543.5313,386.0469 Q2544.1563,386.0469 2544.75,385.7813 Q2545.3438,385.5 2545.9688,384.9219 L2545.9688,387.6406 Z " fill="#000000"/><text fill="#000000" font-family="sans-serif" font-size="14" lengthAdjust="spacing" textLength="234" x="2557" y="386.8467">NonVerboseUnknownArgDecoder</text><line style="stroke:#181818;stroke-width:0.5;" x1="2529" x2="2793" y1="398" y2="398"/><line style="stroke:#181818;stroke-width:0.5;" x1="2529" x2="2793" y1="406" y2="406"/></g><!--class BinaryIntDltArg--><g id="elem_BinaryIntDltArg"><rect codeLine="50" fill="#F1F1F1" height="48" id="BinaryIntDltArg" rx="2.5" ry="2.5" style="stroke:#181818;stroke-width:0.5;" width="133" x="2053.5" y="491"/><ellipse cx="2068.5" cy="507" fill="#ADD1B2" rx="11" ry="11" style="stroke:#181818;stroke-width:1.0;"/><path d="M2071.4688,512.6406 Q2070.8906,512.9375 2070.25,513.0781 Q2069.6094,513.2344 2068.9063,513.2344 Q2066.4063,513.2344 2065.0781,511.5938 Q2063.7656,509.9375 2063.7656,506.8125 Q2063.7656,503.6875 2065.0781,502.0313 Q2066.4063,500.375 2068.9063,500.375 Q2069.6094,500.375 2070.25,500.5313 Q2070.9063,500.6875 2071.4688,500.9844 L2071.4688,503.7031 Q2070.8438,503.125 2070.25,502.8594 Q2069.6563,502.5781 2069.0313,502.5781 Q2067.6875,502.5781 2067,503.6563 Q2066.3125,504.7188 2066.3125,506.8125 Q2066.3125,508.9063 2067,509.9844 Q2067.6875,511.0469 2069.0313,511.0469 Q2069.6563,511.0469 2070.25,510.7813 Q2070.8438,510.5 2071.4688,509.9219 L2071.4688,512.6406 Z " fill="#000000"/><text fill="#000000" font-family="sans-serif" font-size="14" lengthAdjust="spacing" textLength="101" x="2082.5" y="511.8467">BinaryIntDltArg</text><line style="stroke:#181818;stroke-width:0.5;" x1="2054.5" x2="2185.5" y1="523" y2="523"/><line style="stroke:#181818;stroke-width:0.5;" x1="2054.5" x2="2185.5" y1="531" y2="531"/></g><!--class BoolDltArg--><g id="elem_BoolDltArg"><rect codeLine="51" fill="#F1F1F1" height="48" id="BoolDltArg" rx="2.5" ry="2.5" style="stroke:#181818;stroke-width:0.5;" width="105" x="70.5" y="491"/><ellipse cx="85.5" cy="507" fill="#ADD1B2" rx="11" ry="11" style="stroke:#181818;stroke-width:1.0;"/><path d="M88.4688,512.6406 Q87.8906,512.9375 87.25,513.0781 Q86.6094,513.2344 85.9063,513.2344 Q83.4063,513.2344 82.0781,511.5938 Q80.7656,509.9375 80.7656,506.8125 Q80.7656,503.6875 82.0781,502.0313 Q83.4063,500.375 85.9063,500.375 Q86.6094,500.375 87.25,500.5313 Q87.9063,500.6875 88.4688,500.9844 L88.4688,503.7031 Q87.8438,503.125 87.25,502.8594 Q86.6563,502.5781 86.0313,502.5781 Q84.6875,502.5781 84,503.6563 Q83.3125,504.7188 83.3125,506.8125 Q83.3125,508.9063 84,509.9844 Q84.6875,511.0469 86.0313,511.0469 Q86.6563,511.0469 87.25,510.7813 Q87.8438,510.5 88.4688,509.9219 L88.4688,512.6406 Z " fill="#000000"/><text fill="#000000" font-family="sans-serif" font-size="14" lengthAdjust="spacing" textLength="73" x="99.5" y="511.8467">BoolDltArg</text><line style="stroke:#181818;stroke-width:0.5;" x1="71.5" x2="174.5" y1="523" y2="523"/><line style="stroke:#181818;stroke-width:0.5;" x1="71.5" x2="174.5" y1="531" y2="531"/></g><!--class Float32DltArg--><g id="elem_Float32DltArg"><rect codeLine="52" fill="#F1F1F1" height="48" id="Float32DltArg" rx="2.5" ry="2.5" style="stroke:#181818;stroke-width:0.5;" width="125" x="957.5" y="491"/><ellipse cx="972.5" cy="507" fill="#ADD1B2" rx="11" ry="11" style="stroke:#181818;stroke-width:1.0;"/><path d="M975.4688,512.6406 Q974.8906,512.9375 974.25,513.0781 Q973.6094,513.2344 972.9063,513.2344 Q970.4063,513.2344 969.0781,511.5938 Q967.7656,509.9375 967.7656,506.8125 Q967.7656,503.6875 969.0781,502.0313 Q970.4063,500.375 972.9063,500.375 Q973.6094,500.375 974.25,500.5313 Q974.9063,500.6875 975.4688,500.9844 L975.4688,503.7031 Q974.8438,503.125 974.25,502.8594 Q973.6563,502.5781 973.0313,502.5781 Q971.6875,502.5781 971,503.6563 Q970.3125,504.7188 970.3125,506.8125 Q970.3125,508.9063 971,509.9844 Q971.6875,511.0469 973.0313,511.0469 Q973.6563,511.0469 974.25,510.7813 Q974.8438,510.5 975.4688,509.9219 L975.4688,512.6406 Z " fill="#000000"/><text fill="#000000" font-family="sans-serif" font-size="14" lengthAdjust="spacing" textLength="93" x="986.5" y="511.8467">Float32DltArg</text><line style="stroke:#181818;stroke-width:0.5;" x1="958.5" x2="1081.5" y1="523" y2="523"/><line style="stroke:#181818;stroke-width:0.5;" x1="958.5" x2="1081.5" y1="531" y2="531"/></g><!--class Float64DltArg--><g id="elem_Float64DltArg"><rect codeLine="53" fill="#F1F1F1" height="48" id="Float64DltArg" rx="2.5" ry="2.5" style="stroke:#181818;stroke-width:0.5;" width="125" x="1244.5" y="491"/><ellipse cx="1259.5" cy="507" fill="#ADD1B2" rx="11" ry="11" style="stroke:#181818;stroke-width:1.0;"/><path d="M1262.4688,512.6406 Q1261.8906,512.9375 1261.25,513.0781 Q1260.6094,513.2344 1259.9063,513.2344 Q1257.4063,513.2344 1256.0781,511.5938 Q1254.7656,509.9375 1254.7656,506.8125 Q1254.7656,503.6875 1256.0781,502.0313 Q1257.4063,500.375 1259.9063,500.375 Q1260.6094,500.375 1261.25,500.5313 Q1261.9063,500.6875 1262.4688,500.9844 L1262.4688,503.7031 Q1261.8438,503.125 1261.25,502.8594 Q1260.6563,502.5781 1260.0313,502.5781 Q1258.6875,502.5781 1258,503.6563 Q1257.3125,504.7188 1257.3125,506.8125 Q1257.3125,508.9063 1258,509.9844 Q1258.6875,511.0469 1260.0313,511.0469 Q1260.6563,511.0469 1261.25,510.7813 Q1261.8438,510.5 1262.4688,509.9219 L1262.4688,512.6406 Z " fill="#000000"/><text fill="#000000" font-family="sans-serif" font-size="14" lengthAdjust="spacing" textLength="93" x="1273.5" y="511.8467">Float64DltArg</text><line style="stroke:#181818;stroke-width:0.5;" x1="1245.5" x2="1368.5" y1="523" y2="523"/><line style="stroke:#181818;stroke-width:0.5;" x1="1245.5" x2="1368.5" y1="531" y2="531"/></g><!--class HexIntDltArg--><g id="elem_HexIntDltArg"><rect codeLine="54" fill="#F1F1F1" height="48" id="HexIntDltArg" rx="2.5" ry="2.5" style="stroke:#181818;stroke-width:0.5;" width="117" x="2321.5" y="491"/><ellipse cx="2336.5" cy="507" fill="#ADD1B2" rx="11" ry="11" style="stroke:#181818;stroke-width:1.0;"/><path d="M2339.4688,512.6406 Q2338.8906,512.9375 2338.25,513.0781 Q2337.6094,513.2344 2336.9063,513.2344 Q2334.4063,513.2344 2333.0781,511.5938 Q2331.7656,509.9375 2331.7656,506.8125 Q2331.7656,503.6875 2333.0781,502.0313 Q2334.4063,500.375 2336.9063,500.375 Q2337.6094,500.375 2338.25,500.5313 Q2338.9063,500.6875 2339.4688,500.9844 L2339.4688,503.7031 Q2338.8438,503.125 2338.25,502.8594 Q2337.6563,502.5781 2337.0313,502.5781 Q2335.6875,502.5781 2335,503.6563 Q2334.3125,504.7188 2334.3125,506.8125 Q2334.3125,508.9063 2335,509.9844 Q2335.6875,511.0469 2337.0313,511.0469 Q2337.6563,511.0469 2338.25,510.7813 Q2338.8438,510.5 2339.4688,509.9219 L2339.4688,512.6406 Z " fill="#000000"/><text fill="#000000" font-family="sans-serif" font-size="14" lengthAdjust="spacing" textLength="85" x="2350.5" y="511.8467">HexIntDltArg</text><line style="stroke:#181818;stroke-width:0.5;" x1="2322.5" x2="2437.5" y1="523" y2="523"/><line style="stroke:#181818;stroke-width:0.5;" x1="2322.5" x2="2437.5" y1="531" y2="531"/></g><!--class RawDltArg--><g id="elem_RawDltArg"><rect codeLine="55" fill="#F1F1F1" height="48" id="RawDltArg" rx="2.5" ry="2.5" style="stroke:#181818;stroke-width:0.5;" width="103" x="1531.5" y="491"/><ellipse cx="1546.5" cy="507" fill="#ADD1B2" rx="11" ry="11" style="stroke:#181818;stroke-width:1.0;"/><path d="M1549.4688,512.6406 Q1548.8906,512.9375 1548.25,513.0781 Q1547.6094,513.2344 1546.9063,513.2344 Q1544.4063,513.2344 1543.0781,511.5938 Q1541.7656,509.9375 1541.7656,506.8125 Q1541.7656,503.6875 1543.0781,502.0313 Q1544.4063,500.375 1546.9063,500.375 Q1547.6094,500.375 1548.25,500.5313 Q1548.9063,500.6875 1549.4688,500.9844 L1549.4688,503.7031 Q1548.8438,503.125 1548.25,502.8594 Q1547.6563,502.5781 1547.0313,502.5781 Q1545.6875,502.5781 1545,503.6563 Q1544.3125,504.7188 1544.3125,506.8125 Q1544.3125,508.9063 1545,509.9844 Q1545.6875,511.0469 1547.0313,511.0469 Q1547.6563,511.0469 1548.25,510.7813 Q1548.8438,510.5 1549.4688,509.9219 L1549.4688,512.6406 Z " fill="#000000"/><text fill="#000000" font-family="sans-serif" font-size="14" lengthAdjust="spacing" textLength="71" x="1560.5" y="511.8467">RawDltArg</text><line style="stroke:#181818;stroke-width:0.5;" x1="1532.5" x2="1633.5" y1="523" y2="523"/><line style="stroke:#181818;stroke-width:0.5;" x1="1532.5" x2="1633.5" y1="531" y2="531"/></g><!--class SignedIntDltArg--><g id="elem_SignedIntDltArg"><rect codeLine="56" fill="#F1F1F1" height="48" id="SignedIntDltArg" rx="2.5" ry="2.5" style="stroke:#181818;stroke-width:0.5;" width="139" x="337.5" y="491"/><ellipse cx="352.5" cy="507" fill="#ADD1B2" rx="11" ry="11" style="stroke:#181818;stroke-width:1.0;"/><path d="M355.4688,512.6406 Q354.8906,512.9375 354.25,513.0781 Q353.6094,513.2344 352.9063,513.2344 Q350.4063,513.2344 349.0781,511.5938 Q347.7656,509.9375 347.7656,506.8125 Q347.7656,503.6875 349.0781,502.0313 Q350.4063,500.375 352.9063,500.375 Q353.6094,500.375 354.25,500.5313 Q354.9063,500.6875 355.4688,500.9844 L355.4688,503.7031 Q354.8438,503.125 354.25,502.8594 Q353.6563,502.5781 353.0313,502.5781 Q351.6875,502.5781 351,503.6563 Q350.3125,504.7188 350.3125,506.8125 Q350.3125,508.9063 351,509.9844 Q351.6875,511.0469 353.0313,511.0469 Q353.6563,511.0469 354.25,510.7813 Q354.8438,510.5 355.4688,509.9219 L355.4688,512.6406 Z " fill="#000000"/><text fill="#000000" font-family="sans-serif" font-size="14" lengthAdjust="spacing" textLength="107" x="366.5" y="511.8467">SignedIntDltArg</text><line style="stroke:#181818;stroke-width:0.5;" x1="338.5" x2="475.5" y1="523" y2="523"/><line style="stroke:#181818;stroke-width:0.5;" x1="338.5" x2="475.5" y1="531" y2="531"/></g><!--class StringDltArg--><g id="elem_StringDltArg"><rect codeLine="57" fill="#F1F1F1" height="48" id="StringDltArg" rx="2.5" ry="2.5" style="stroke:#181818;stroke-width:0.5;" width="114" x="1796" y="491"/><ellipse cx="1811" cy="507" fill="#ADD1B2" rx="11" ry="11" style="stroke:#181818;stroke-width:1.0;"/><path d="M1813.9688,512.6406 Q1813.3906,512.9375 1812.75,513.0781 Q1812.1094,513.2344 1811.4063,513.2344 Q1808.9063,513.2344 1807.5781,511.5938 Q1806.2656,509.9375 1806.2656,506.8125 Q1806.2656,503.6875 1807.5781,502.0313 Q1808.9063,500.375 1811.4063,500.375 Q1812.1094,500.375 1812.75,500.5313 Q1813.4063,500.6875 1813.9688,500.9844 L1813.9688,503.7031 Q1813.3438,503.125 1812.75,502.8594 Q1812.1563,502.5781 1811.5313,502.5781 Q1810.1875,502.5781 1809.5,503.6563 Q1808.8125,504.7188 1808.8125,506.8125 Q1808.8125,508.9063 1809.5,509.9844 Q1810.1875,511.0469 1811.5313,511.0469 Q1812.1563,511.0469 1812.75,510.7813 Q1813.3438,510.5 1813.9688,509.9219 L1813.9688,512.6406 Z " fill="#000000"/><text fill="#000000" font-family="sans-serif" font-size="14" lengthAdjust="spacing" textLength="82" x="1825" y="511.8467">StringDltArg</text><line style="stroke:#181818;stroke-width:0.5;" x1="1797" x2="1909" y1="523" y2="523"/><line style="stroke:#181818;stroke-width:0.5;" x1="1797" x2="1909" y1="531" y2="531"/></g><!--class UnsignedIntDltArg--><g id="elem_UnsignedIntDltArg"><rect codeLine="58" fill="#F1F1F1" height="48" id="UnsignedIntDltArg" rx="2.5" ry="2.5" style="stroke:#181818;stroke-width:0.5;" width="157" x="638.5" y="491"/><ellipse cx="653.5" cy="507" fill="#ADD1B2" rx="11" ry="11" style="stroke:#181818;stroke-width:1.0;"/><path d="M656.4688,512.6406 Q655.8906,512.9375 655.25,513.0781 Q654.6094,513.2344 653.9063,513.2344 Q651.4063,513.2344 650.0781,511.5938 Q648.7656,509.9375 648.7656,506.8125 Q648.7656,503.6875 650.0781,502.0313 Q651.4063,500.375 653.9063,500.375 Q654.6094,500.375 655.25,500.5313 Q655.9063,500.6875 656.4688,500.9844 L656.4688,503.7031 Q655.8438,503.125 655.25,502.8594 Q654.6563,502.5781 654.0313,502.5781 Q652.6875,502.5781 652,503.6563 Q651.3125,504.7188 651.3125,506.8125 Q651.3125,508.9063 652,509.9844 Q652.6875,511.0469 654.0313,511.0469 Q654.6563,511.0469 655.25,510.7813 Q655.8438,510.5 656.4688,509.9219 L656.4688,512.6406 Z " fill="#000000"/><text fill="#000000" font-family="sans-serif" font-size="14" lengthAdjust="spacing" textLength="125" x="667.5" y="511.8467">UnsignedIntDltArg</text><line style="stroke:#181818;stroke-width:0.5;" x1="639.5" x2="794.5" y1="523" y2="523"/><line style="stroke:#181818;stroke-width:0.5;" x1="639.5" x2="794.5" y1="531" y2="531"/></g><!--class UnknownNonVerboseDltArg--><g id="elem_UnknownNonVerboseDltArg"><rect codeLine="59" fill="#F1F1F1" height="48" id="UnknownNonVerboseDltArg" rx="2.5" ry="2.5" style="stroke:#181818;stroke-width:0.5;" width="225" x="2548.5" y="491"/><ellipse cx="2563.5" cy="507" fill="#ADD1B2" rx="11" ry="11" style="stroke:#181818;stroke-width:1.0;"/><path d="M2566.4688,512.6406 Q2565.8906,512.9375 2565.25,513.0781 Q2564.6094,513.2344 2563.9063,513.2344 Q2561.4063,513.2344 2560.0781,511.5938 Q2558.7656,509.9375 2558.7656,506.8125 Q2558.7656,503.6875 2560.0781,502.0313 Q2561.4063,500.375 2563.9063,500.375 Q2564.6094,500.375 2565.25,500.5313 Q2565.9063,500.6875 2566.4688,500.9844 L2566.4688,503.7031 Q2565.8438,503.125 2565.25,502.8594 Q2564.6563,502.5781 2564.0313,502.5781 Q2562.6875,502.5781 2562,503.6563 Q2561.3125,504.7188 2561.3125,506.8125 Q2561.3125,508.9063 2562,509.9844 Q2562.6875,511.0469 2564.0313,511.0469 Q2564.6563,511.0469 2565.25,510.7813 Q2565.8438,510.5 2566.4688,509.9219 L2566.4688,512.6406 Z " fill="#000000"/><text fill="#000000" font-family="sans-serif" font-size="14" lengthAdjust="spacing" textLength="193" x="2577.5" y="511.8467">UnknownNonVerboseDltArg</text><line style="stroke:#181818;stroke-width:0.5;" x1="2549.5" x2="2772.5" y1="523" y2="523"/><line style="stroke:#181818;stroke-width:0.5;" x1="2549.5" x2="2772.5" y1="531" y2="531"/></g><!--reverse link DltTraceDecoderBase to INonVerboseDltDecoder--><g id="link_DltTraceDecoderBase_INonVerboseDltDecoder"><path codeLine="2" d="M1148.5,31 C1170.92,31 1194.49,31 1216.67,31 " fill="none" id="DltTraceDecoderBase-backto-INonVerboseDltDecoder" style="stroke:#181818;stroke-width:1.0;"/><polygon fill="none" points="1135.72,31,1141.72,35,1147.72,31,1141.72,27,1135.72,31" style="stroke:#181818;stroke-width:1.0;"/><text fill="#000000" font-family="sans-serif" font-size="13" lengthAdjust="spacing" textLength="46" x="1152.75" y="24.0669">&#171;uses&#187;</text></g><!--reverse link INonVerboseDltDecoder to NonVerboseDltDecoder--><g id="link_INonVerboseDltDecoder_NonVerboseDltDecoder"><path codeLine="7" d="M1317,76.17 C1317,89.68 1317,104.01 1317,115.57 " fill="none" id="INonVerboseDltDecoder-backto-NonVerboseDltDecoder" style="stroke:#181818;stroke-width:1.0;stroke-dasharray:7.0,7.0;"/><polygon fill="none" points="1310,76.48,1317,56.48,1324,76.48,1310,76.48" style="stroke:#181818;stroke-width:1.0;"/></g><!--reverse link INonVerboseArgDecoder to NonVerboseArgDecoder--><g id="link_INonVerboseArgDecoder_NonVerboseArgDecoder"><path codeLine="12" d="M1515.07,179.49 C1495.83,199.55 1472.94,223.41 1456.39,240.66 " fill="none" id="INonVerboseArgDecoder-backto-NonVerboseArgDecoder" style="stroke:#181818;stroke-width:1.0;stroke-dasharray:7.0,7.0;"/><polygon fill="none" points="1509.63,175.01,1528.53,165.42,1519.73,184.7,1509.63,175.01" style="stroke:#181818;stroke-width:1.0;"/></g><!--reverse link NonVerboseDltDecoder to INonVerboseArgDecoder--><g id="link_NonVerboseDltDecoder_INonVerboseArgDecoder"><path codeLine="14" d="M1429.53,140 C1436.27,140 1443.02,140 1449.76,140 " fill="none" id="NonVerboseDltDecoder-backto-INonVerboseArgDecoder" style="stroke:#181818;stroke-width:1.0;"/><polygon fill="#181818" points="1416.68,140,1422.68,144,1428.68,140,1422.68,136,1416.68,140" style="stroke:#181818;stroke-width:1.0;"/></g><!--reverse link NonVerboseDltDecoder to NonVerboseArgDecoder--><g id="link_NonVerboseDltDecoder_NonVerboseArgDecoder"><path codeLine="15" d="M1348.88,174.52 C1368.82,195.48 1394.01,221.96 1411.8,240.66 " fill="none" id="NonVerboseDltDecoder-backto-NonVerboseArgDecoder" style="stroke:#181818;stroke-width:1.0;"/><polygon fill="#181818" points="1340.28,165.42,1341.5179,172.5241,1348.5516,174.1137,1347.3137,167.0097,1340.28,165.42" style="stroke:#181818;stroke-width:1.0;"/><text fill="#000000" font-family="sans-serif" font-size="13" lengthAdjust="spacing" textLength="60" x="1384" y="207.0669">&#171;default&#187;</text></g><!--reverse link NonVerboseArgDecoder to NonVerboseBoolArgDecoder--><g id="link_NonVerboseArgDecoder_NonVerboseBoolArgDecoder"><path codeLine="39" d="M1319.42,271.87 C1108.48,283.52 644.78,313.15 257,366 C251.27,366.78 245.41,367.62 239.5,368.51 " fill="none" id="NonVerboseArgDecoder-backto-NonVerboseBoolArgDecoder" style="stroke:#181818;stroke-width:1.0;"/><polygon fill="#181818" points="1332.25,271.11,1326.0391,267.4459,1320.2682,271.7698,1326.479,275.4338,1332.25,271.11" style="stroke:#181818;stroke-width:1.0;"/><text fill="#000000" font-family="sans-serif" font-size="13" lengthAdjust="spacing" textLength="68" x="646" y="332.0669">&#171;S_BOOL&#187;</text></g><!--reverse link NonVerboseArgDecoder to NonVerboseSignedIntArgDecoder--><g id="link_NonVerboseArgDecoder_NonVerboseSignedIntArgDecoder"><path codeLine="40" d="M1319.58,277.55 C1152.12,294.79 830.59,329.2 558,366 C552.22,366.78 546.32,367.6 540.35,368.44 " fill="none" id="NonVerboseArgDecoder-backto-NonVerboseSignedIntArgDecoder" style="stroke:#181818;stroke-width:1.0;"/><polygon fill="#181818" points="1332.33,276.13,1325.9525,272.7643,1320.3929,277.3567,1326.7703,280.7224,1332.33,276.13" style="stroke:#181818;stroke-width:1.0;"/><text fill="#000000" font-family="sans-serif" font-size="13" lengthAdjust="spacing" textLength="68" x="920" y="332.0669">&#171;S_SINT*&#187;</text></g><!--reverse link NonVerboseArgDecoder to NonVerboseUnsignedIntArgDecoder--><g id="link_NonVerboseArgDecoder_NonVerboseUnsignedIntArgDecoder"><path codeLine="41" d="M1319.34,285.58 C1260.87,295.56 1188.64,307.92 1124,319 C1033.72,334.48 932.2,351.94 853.12,365.55 " fill="none" id="NonVerboseArgDecoder-backto-NonVerboseUnsignedIntArgDecoder" style="stroke:#181818;stroke-width:1.0;"/><polygon fill="#181818" points="1332.12,283.22,1325.5297,280.2929,1320.293,285.2505,1326.8833,288.1776,1332.12,283.22" style="stroke:#181818;stroke-width:1.0;"/><text fill="#000000" font-family="sans-serif" font-size="13" lengthAdjust="spacing" textLength="69" x="1125" y="332.0669">&#171;S_UINT*&#187;</text></g><!--reverse link NonVerboseArgDecoder to NonVerboseFloat32ArgDecoder--><g id="link_NonVerboseArgDecoder_NonVerboseFloat32ArgDecoder"><path codeLine="42" d="M1341.87,293.37 C1268.94,315.04 1168.16,344.98 1098.9,365.56 " fill="none" id="NonVerboseArgDecoder-backto-NonVerboseFloat32ArgDecoder" style="stroke:#181818;stroke-width:1.0;"/><polygon fill="#181818" points="1354.16,289.42,1347.2694,287.2939,1342.6567,292.8367,1349.5472,294.9628,1354.16,289.42" style="stroke:#181818;stroke-width:1.0;"/><text fill="#000000" font-family="sans-serif" font-size="13" lengthAdjust="spacing" textLength="81" x="1253" y="332.0669">&#171;S_FLOA32&#187;</text></g><!--reverse link NonVerboseArgDecoder to NonVerboseFloat64ArgDecoder--><g id="link_NonVerboseArgDecoder_NonVerboseFloat64ArgDecoder"><path codeLine="43" d="M1399.99,298.94 C1378.25,320 1350.58,346.79 1331.1,365.66 " fill="none" id="NonVerboseArgDecoder-backto-NonVerboseFloat64ArgDecoder" style="stroke:#181818;stroke-width:1.0;"/><polygon fill="#181818" points="1408.81,290.42,1401.7168,291.7187,1400.1874,298.7657,1407.2806,297.4671,1408.81,290.42" style="stroke:#181818;stroke-width:1.0;"/><text fill="#000000" font-family="sans-serif" font-size="13" lengthAdjust="spacing" textLength="81" x="1380" y="332.0669">&#171;S_FLOA64&#187;</text></g><!--reverse link NonVerboseArgDecoder to NonVerboseRawArgDecoder--><g id="link_NonVerboseArgDecoder_NonVerboseRawArgDecoder"><path codeLine="44" d="M1472.87,298.09 C1498.53,319.27 1531.56,346.54 1554.73,365.66 " fill="none" id="NonVerboseArgDecoder-backto-NonVerboseRawArgDecoder" style="stroke:#181818;stroke-width:1.0;"/><polygon fill="#181818" points="1463.38,289.42,1465.4636,296.3235,1472.6375,297.0554,1470.5539,290.1519,1463.38,289.42" style="stroke:#181818;stroke-width:1.0;"/><text fill="#000000" font-family="sans-serif" font-size="13" lengthAdjust="spacing" textLength="122" x="1518" y="332.0669">&#171;S_RAW, S_RAWD&#187;</text></g><!--reverse link NonVerboseArgDecoder to NonVerboseStringArgDecoder--><g id="link_NonVerboseArgDecoder_NonVerboseStringArgDecoder"><path codeLine="45" d="M1548.2,292.15 C1580.91,300.18 1616.5,309.44 1649,319 C1696.6,333 1749.57,351.26 1789.61,365.62 " fill="none" id="NonVerboseArgDecoder-backto-NonVerboseStringArgDecoder" style="stroke:#181818;stroke-width:1.0;"/><polygon fill="#181818" points="1535.85,288.9,1540.7348,294.2046,1547.5101,291.7359,1542.6253,286.4312,1535.85,288.9" style="stroke:#181818;stroke-width:1.0;"/><text fill="#000000" font-family="sans-serif" font-size="13" lengthAdjust="spacing" textLength="203" x="1700" y="332.0669">&#171;S_STRG_ASCII, S_STRG_UTF8&#187;</text></g><!--reverse link NonVerboseArgDecoder to NonVerboseBinArgDecoder--><g id="link_NonVerboseArgDecoder_NonVerboseBinArgDecoder"><path codeLine="46" d="M1548.56,271.8 C1646.1,278.37 1789.49,291.92 1912,319 C1963.71,330.43 2020.59,350.08 2061.78,365.66 " fill="none" id="NonVerboseArgDecoder-backto-NonVerboseBinArgDecoder" style="stroke:#181818;stroke-width:1.0;"/><polygon fill="#181818" points="1535.81,270.9,1541.538,275.2806,1547.7847,271.6781,1542.0567,267.2975,1535.81,270.9" style="stroke:#181818;stroke-width:1.0;"/><text fill="#000000" font-family="sans-serif" font-size="13" lengthAdjust="spacing" textLength="61" x="1971" y="332.0669">&#171;S_BIN*&#187;</text></g><!--reverse link NonVerboseArgDecoder to NonVerboseHexArgDecoder--><g id="link_NonVerboseArgDecoder_NonVerboseHexArgDecoder"><path codeLine="47" d="M1548.64,272.02 C1671.03,279.37 1870.42,294.03 2041,319 C2122.76,330.97 2214.49,350.27 2281.89,365.58 " fill="none" id="NonVerboseArgDecoder-backto-NonVerboseHexArgDecoder" style="stroke:#181818;stroke-width:1.0;"/><polygon fill="#181818" points="1535.84,271.2,1541.592,275.5491,1547.8188,271.9124,1542.0669,267.5633,1535.84,271.2" style="stroke:#181818;stroke-width:1.0;"/><text fill="#000000" font-family="sans-serif" font-size="13" lengthAdjust="spacing" textLength="65" x="2135" y="332.0669">&#171;S_HEX*&#187;</text></g><!--reverse link NonVerboseArgDecoder to NonVerboseUnknownArgDecoder--><g id="link_NonVerboseArgDecoder_NonVerboseUnknownArgDecoder"><path codeLine="48" d="M1548.7,270.78 C1700.21,277.79 1975.21,292.95 2209,319 C2317.32,331.07 2439.41,350.32 2529.38,365.58 " fill="none" id="NonVerboseArgDecoder-backto-NonVerboseUnknownArgDecoder" style="stroke:#181818;stroke-width:1.0;"/><polygon fill="#181818" points="1535.88,270.15,1541.689,274.4227,1547.8672,270.7039,1542.0582,266.4312,1535.88,270.15" style="stroke:#181818;stroke-width:1.0;"/></g><!--link NonVerboseBoolArgDecoder to BoolDltArg--><g id="link_NonVerboseBoolArgDecoder_BoolDltArg"><path codeLine="61" d="M123,414.42 C123,436.31 123,468.8 123,490.66 " fill="none" id="NonVerboseBoolArgDecoder-BoolDltArg" style="stroke:#181818;stroke-width:1.0;"/><text fill="#000000" font-family="sans-serif" font-size="13" lengthAdjust="spacing" textLength="64" x="124" y="457.0669">&#171;creates&#187;</text></g><!--link NonVerboseSignedIntArgDecoder to SignedIntDltArg--><g id="link_NonVerboseSignedIntArgDecoder_SignedIntDltArg"><path codeLine="62" d="M407,414.42 C407,436.31 407,468.8 407,490.66 " fill="none" id="NonVerboseSignedIntArgDecoder-SignedIntDltArg" style="stroke:#181818;stroke-width:1.0;"/><text fill="#000000" font-family="sans-serif" font-size="13" lengthAdjust="spacing" textLength="64" x="408" y="457.0669">&#171;creates&#187;</text></g><!--link NonVerboseUnsignedIntArgDecoder to UnsignedIntDltArg--><g id="link_NonVerboseUnsignedIntArgDecoder_UnsignedIntDltArg"><path codeLine="63" d="M717,414.42 C717,436.31 717,468.8 717,490.66 " fill="none" id="NonVerboseUnsignedIntArgDecoder-UnsignedIntDltArg" style="stroke:#181818;stroke-width:1.0;"/><text fill="#000000" font-family="sans-serif" font-size="13" lengthAdjust="spacing" textLength="64" x="718" y="457.0669">&#171;creates&#187;</text></g><!--link NonVerboseFloat32ArgDecoder to Float32DltArg--><g id="link_NonVerboseFloat32ArgDecoder_Float32DltArg"><path codeLine="64" d="M1020,414.42 C1020,436.31 1020,468.8 1020,490.66 " fill="none" id="NonVerboseFloat32ArgDecoder-Float32DltArg" style="stroke:#181818;stroke-width:1.0;"/><text fill="#000000" font-family="sans-serif" font-size="13" lengthAdjust="spacing" textLength="64" x="1021" y="457.0669">&#171;creates&#187;</text></g><!--link NonVerboseFloat64ArgDecoder to Float64DltArg--><g id="link_NonVerboseFloat64ArgDecoder_Float64DltArg"><path codeLine="65" d="M1307,414.42 C1307,436.31 1307,468.8 1307,490.66 " fill="none" id="NonVerboseFloat64ArgDecoder-Float64DltArg" style="stroke:#181818;stroke-width:1.0;"/><text fill="#000000" font-family="sans-serif" font-size="13" lengthAdjust="spacing" textLength="64" x="1308" y="457.0669">&#171;creates&#187;</text></g><!--link NonVerboseRawArgDecoder to RawDltArg--><g id="link_NonVerboseRawArgDecoder_RawDltArg"><path codeLine="66" d="M1583,414.42 C1583,436.31 1583,468.8 1583,490.66 " fill="none" id="NonVerboseRawArgDecoder-RawDltArg" style="stroke:#181818;stroke-width:1.0;"/><text fill="#000000" font-family="sans-serif" font-size="13" lengthAdjust="spacing" textLength="64" x="1584" y="457.0669">&#171;creates&#187;</text></g><!--link NonVerboseStringArgDecoder to StringDltArg--><g id="link_NonVerboseStringArgDecoder_StringDltArg"><path codeLine="67" d="M1853,414.42 C1853,436.31 1853,468.8 1853,490.66 " fill="none" id="NonVerboseStringArgDecoder-StringDltArg" style="stroke:#181818;stroke-width:1.0;"/><text fill="#000000" font-family="sans-serif" font-size="13" lengthAdjust="spacing" textLength="64" x="1854" y="457.0669">&#171;creates&#187;</text></g><!--link NonVerboseBinArgDecoder to BinaryIntDltArg--><g id="link_NonVerboseBinArgDecoder_BinaryIntDltArg"><path codeLine="68" d="M2120,414.42 C2120,436.31 2120,468.8 2120,490.66 " fill="none" id="NonVerboseBinArgDecoder-BinaryIntDltArg" style="stroke:#181818;stroke-width:1.0;"/><text fill="#000000" font-family="sans-serif" font-size="13" lengthAdjust="spacing" textLength="64" x="2121" y="457.0669">&#171;creates&#187;</text></g><!--link NonVerboseHexArgDecoder to HexIntDltArg--><g id="link_NonVerboseHexArgDecoder_HexIntDltArg"><path codeLine="69" d="M2380,414.42 C2380,436.31 2380,468.8 2380,490.66 " fill="none" id="NonVerboseHexArgDecoder-HexIntDltArg" style="stroke:#181818;stroke-width:1.0;"/><text fill="#000000" font-family="sans-serif" font-size="13" lengthAdjust="spacing" textLength="64" x="2381" y="457.0669">&#171;creates&#187;</text></g><!--link NonVerboseUnknownArgDecoder to UnknownNonVerboseDltArg--><g id="link_NonVerboseUnknownArgDecoder_UnknownNonVerboseDltArg"><path codeLine="70" d="M2661,414.42 C2661,436.31 2661,468.8 2661,490.66 " fill="none" id="NonVerboseUnknownArgDecoder-UnknownNonVerboseDltArg" style="stroke:#181818;stroke-width:1.0;"/><text fill="#000000" font-family="sans-serif" font-size="13" lengthAdjust="spacing" textLength="64" x="2662" y="457.0669">&#171;creates&#187;</text></g><!--SRC=[bLRHQi8m57tlL_Hj8DC75Hb31ksSio0AjcvxawwDKbPII2jki8zVagKkDqsoz4bwSyz9SiwvjbcPrhM_A9k4f1bQeApA4GdJ6dcQcbyDoT2FDXL-GUIzgX7j4Sl-lJ-VdsjKFpnuNe4RH8uKg-_rChwfTidJiy-_H_d8WD3k5f2JQJTfoTCYEhl92Etn1eek4i3Gdm-r_5p671tJSzam9TMpXrLLMguM5oUCyWWtbfuzhXswbcMLDfFnVnspgQLZbrviPsr8WK-MXh30bjKL-hHUyWDN5ndltVWMiqTcZPrnEl6TmNfNdE5Tk_f1WO_EK6Ymkr2gy-xMW4Wums1MUdZI2P4Mg4mpp0-VwFWGRhThEj0kU4sE14aSRPA18uisK89dtuEdaop1iLnlWycu3ucSCObaDdKa0MaJ1BlWzTRdFmjNTPNmjT8ck-T343z64UFZJ_jaUUT82dBPEXvjN3K6-HJmrTERkzMTdFx-7z9ZfUIB9e2-UkXgMwNv10LXSRSscu8QFQRAHJq1pzVimYhN79IaU2frVXVmrcIhdd6-c1P_L-BgPGIb3VyKiKyLWoedDkBryyGOEbSnSdHdYU61_7Oi6A4hjhN9Y8MJmt1NtynwgNF2nPACD2BXC71xO0wDI3W732b7pcADadzXYpP9aEK7]--></g></svg>