<?xml version="1.0" encoding="UTF-8" standalone="no"?><svg xmlns="http://www.w3.org/2000/svg" xmlns:xlink="http://www.w3.org/1999/xlink" contentScriptType="application/ecmascript" contentStyleType="text/css" height="556px" preserveAspectRatio="none" style="width:2372px;height:556px;background:#FFFFFF;" version="1.1" viewBox="0 0 2372 556" width="2372px" zoomAndPan="magnify"><defs><filter height="300%" id="fhsb7hf5d42u5" width="300%" x="-1" y="-1"><feGaussianBlur result="blurOut" stdDeviation="2.0"/><feColorMatrix in="blurOut" result="blurOut2" type="matrix" values="0 0 0 0 0 0 0 0 0 0 0 0 0 0 0 0 0 0 .4 0"/><feOffset dx="4.0" dy="4.0" in="blurOut2" result="blurOut3"/><feBlend in="SourceGraphic" in2="blurOut3" mode="normal"/></filter></defs><g><!--MD5=[362837878af92ba71ae40d034f8eec69]
class DltTraceDecoderBase--><rect codeLine="1" fill="#FEFECE" filter="url(#fhsb7hf5d42u5)" height="48" id="DltTraceDecoderBase" style="stroke:#A80036;stroke-width:1.5;" width="154" x="783.5" y="7"/><ellipse cx="798.5" cy="23" fill="#ADD1B2" rx="11" ry="11" style="stroke:#A80036;stroke-width:1.0;"/><path d="M801.2656,18.875 Q801.4219,18.6563 801.6094,18.5469 Q801.7969,18.4375 802.0156,18.4375 Q802.3906,18.4375 802.625,18.6953 Q802.8594,18.9531 802.8594,19.5625 L802.8594,21.0156 Q802.8594,21.625 802.625,21.8906 Q802.3906,22.1563 802.0156,22.1563 Q801.6719,22.1563 801.4688,21.9531 Q801.2656,21.7656 801.1563,21.25 Q801.1094,20.8906 800.9219,20.7031 Q800.5938,20.3281 799.9844,20.1094 Q799.375,19.8906 798.75,19.8906 Q797.9844,19.8906 797.3516,20.2188 Q796.7188,20.5469 796.2266,21.2969 Q795.7344,22.0469 795.7344,23.0781 L795.7344,24.1719 Q795.7344,25.4063 796.625,26.2266 Q797.5156,27.0469 799.1094,27.0469 Q800.0469,27.0469 800.7031,26.7969 Q801.0938,26.6406 801.5156,26.2031 Q801.7813,25.9375 801.9297,25.8594 Q802.0781,25.7813 802.2813,25.7813 Q802.6094,25.7813 802.8672,26.0391 Q803.125,26.2969 803.125,26.6406 Q803.125,26.9844 802.7813,27.3906 Q802.2813,27.9688 801.4844,28.2969 Q800.4063,28.75 799.1094,28.75 Q797.5938,28.75 796.3906,28.125 Q795.4063,27.625 794.7188,26.5547 Q794.0313,25.4844 794.0313,24.2031 L794.0313,23.0469 Q794.0313,21.7188 794.6484,20.5703 Q795.2656,19.4219 796.3594,18.8047 Q797.4531,18.1875 798.6875,18.1875 Q799.4219,18.1875 800.0703,18.3516 Q800.7188,18.5156 801.2656,18.875 Z " fill="#000000"/><text fill="#000000" font-family="sans-serif" font-size="12" lengthAdjust="spacing" textLength="122" x="812.5" y="27.9102">DltTraceDecoderBase</text><line style="stroke:#A80036;stroke-width:1.5;" x1="784.5" x2="936.5" y1="39" y2="39"/><line style="stroke:#A80036;stroke-width:1.5;" x1="784.5" x2="936.5" y1="47" y2="47"/><!--MD5=[6148756aade145b82c5ac4593e9694ca]
class INonVerboseDltDecoder--><rect codeLine="4" fill="#FEFECE" filter="url(#fhsb7hf5d42u5)" height="48" id="INonVerboseDltDecoder" style="stroke:#A80036;stroke-width:1.5;" width="168" x="1016.5" y="7"/><ellipse cx="1031.5" cy="23" fill="#B4A7E5" rx="11" ry="11" style="stroke:#A80036;stroke-width:1.0;"/><path d="M1032.4531,19.6406 L1032.4531,26.2969 L1034.1719,26.2969 Q1034.7813,26.2969 1035.0469,26.5313 Q1035.3125,26.7656 1035.3125,27.1563 Q1035.3125,27.5313 1035.0469,27.7656 Q1034.7813,28 1034.1719,28 L1029.0313,28 Q1028.4219,28 1028.1563,27.7656 Q1027.8906,27.5313 1027.8906,27.1406 Q1027.8906,26.7656 1028.1563,26.5313 Q1028.4219,26.2969 1029.0313,26.2969 L1030.75,26.2969 L1030.75,19.6406 L1029.0313,19.6406 Q1028.4219,19.6406 1028.1563,19.4063 Q1027.8906,19.1719 1027.8906,18.7813 Q1027.8906,18.4063 1028.1563,18.1719 Q1028.4219,17.9375 1029.0313,17.9375 L1034.1719,17.9375 Q1034.7813,17.9375 1035.0469,18.1719 Q1035.3125,18.4063 1035.3125,18.7813 Q1035.3125,19.1719 1035.0469,19.4063 Q1034.7813,19.6406 1034.1719,19.6406 L1032.4531,19.6406 Z " fill="#000000"/><text fill="#000000" font-family="sans-serif" font-size="12" font-style="italic" lengthAdjust="spacing" textLength="136" x="1045.5" y="27.9102">INonVerboseDltDecoder</text><line style="stroke:#A80036;stroke-width:1.5;" x1="1017.5" x2="1183.5" y1="39" y2="39"/><line style="stroke:#A80036;stroke-width:1.5;" x1="1017.5" x2="1183.5" y1="47" y2="47"/><!--MD5=[a6ea36c68b67c24cd5ad3f116f1b39c6]
class NonVerboseDltDecoder--><rect codeLine="5" fill="#FEFECE" filter="url(#fhsb7hf5d42u5)" height="48" id="NonVerboseDltDecoder" style="stroke:#A80036;stroke-width:1.5;" width="163" x="1019" y="116"/><ellipse cx="1034" cy="132" fill="#ADD1B2" rx="11" ry="11" style="stroke:#A80036;stroke-width:1.0;"/><path d="M1036.7656,127.875 Q1036.9219,127.6563 1037.1094,127.5469 Q1037.2969,127.4375 1037.5156,127.4375 Q1037.8906,127.4375 1038.125,127.6953 Q1038.3594,127.9531 1038.3594,128.5625 L1038.3594,130.0156 Q1038.3594,130.625 1038.125,130.8906 Q1037.8906,131.1563 1037.5156,131.1563 Q1037.1719,131.1563 1036.9688,130.9531 Q1036.7656,130.7656 1036.6563,130.25 Q1036.6094,129.8906 1036.4219,129.7031 Q1036.0938,129.3281 1035.4844,129.1094 Q1034.875,128.8906 1034.25,128.8906 Q1033.4844,128.8906 1032.8516,129.2188 Q1032.2188,129.5469 1031.7266,130.2969 Q1031.2344,131.0469 1031.2344,132.0781 L1031.2344,133.1719 Q1031.2344,134.4063 1032.125,135.2266 Q1033.0156,136.0469 1034.6094,136.0469 Q1035.5469,136.0469 1036.2031,135.7969 Q1036.5938,135.6406 1037.0156,135.2031 Q1037.2813,134.9375 1037.4297,134.8594 Q1037.5781,134.7813 1037.7813,134.7813 Q1038.1094,134.7813 1038.3672,135.0391 Q1038.625,135.2969 1038.625,135.6406 Q1038.625,135.9844 1038.2813,136.3906 Q1037.7813,136.9688 1036.9844,137.2969 Q1035.9063,137.75 1034.6094,137.75 Q1033.0938,137.75 1031.8906,137.125 Q1030.9063,136.625 1030.2188,135.5547 Q1029.5313,134.4844 1029.5313,133.2031 L1029.5313,132.0469 Q1029.5313,130.7188 1030.1484,129.5703 Q1030.7656,128.4219 1031.8594,127.8047 Q1032.9531,127.1875 1034.1875,127.1875 Q1034.9219,127.1875 1035.5703,127.3516 Q1036.2188,127.5156 1036.7656,127.875 Z " fill="#000000"/><text fill="#000000" font-family="sans-serif" font-size="12" lengthAdjust="spacing" textLength="131" x="1048" y="136.9102">NonVerboseDltDecoder</text><line style="stroke:#A80036;stroke-width:1.5;" x1="1020" x2="1181" y1="148" y2="148"/><line style="stroke:#A80036;stroke-width:1.5;" x1="1020" x2="1181" y1="156" y2="156"/><!--MD5=[9ac45534d295cfa6564ac37ec379c73b]
class INonVerboseArgDecoder--><rect codeLine="9" fill="#FEFECE" filter="url(#fhsb7hf5d42u5)" height="48" id="INonVerboseArgDecoder" style="stroke:#A80036;stroke-width:1.5;" width="172" x="1217.5" y="116"/><ellipse cx="1232.5" cy="132" fill="#B4A7E5" rx="11" ry="11" style="stroke:#A80036;stroke-width:1.0;"/><path d="M1233.4531,128.6406 L1233.4531,135.2969 L1235.1719,135.2969 Q1235.7813,135.2969 1236.0469,135.5313 Q1236.3125,135.7656 1236.3125,136.1563 Q1236.3125,136.5313 1236.0469,136.7656 Q1235.7813,137 1235.1719,137 L1230.0313,137 Q1229.4219,137 1229.1563,136.7656 Q1228.8906,136.5313 1228.8906,136.1406 Q1228.8906,135.7656 1229.1563,135.5313 Q1229.4219,135.2969 1230.0313,135.2969 L1231.75,135.2969 L1231.75,128.6406 L1230.0313,128.6406 Q1229.4219,128.6406 1229.1563,128.4063 Q1228.8906,128.1719 1228.8906,127.7813 Q1228.8906,127.4063 1229.1563,127.1719 Q1229.4219,126.9375 1230.0313,126.9375 L1235.1719,126.9375 Q1235.7813,126.9375 1236.0469,127.1719 Q1236.3125,127.4063 1236.3125,127.7813 Q1236.3125,128.1719 1236.0469,128.4063 Q1235.7813,128.6406 1235.1719,128.6406 L1233.4531,128.6406 Z " fill="#000000"/><text fill="#000000" font-family="sans-serif" font-size="12" font-style="italic" lengthAdjust="spacing" textLength="140" x="1246.5" y="136.9102">INonVerboseArgDecoder</text><line style="stroke:#A80036;stroke-width:1.5;" x1="1218.5" x2="1388.5" y1="148" y2="148"/><line style="stroke:#A80036;stroke-width:1.5;" x1="1218.5" x2="1388.5" y1="156" y2="156"/><!--MD5=[2b8fb18854ae89ed0ed909671d23b44a]
class NonVerboseArgDecoder--><rect codeLine="10" fill="#FEFECE" filter="url(#fhsb7hf5d42u5)" height="48" id="NonVerboseArgDecoder" style="stroke:#A80036;stroke-width:1.5;" width="166" x="1118.5" y="242"/><ellipse cx="1133.5" cy="258" fill="#ADD1B2" rx="11" ry="11" style="stroke:#A80036;stroke-width:1.0;"/><path d="M1136.2656,253.875 Q1136.4219,253.6563 1136.6094,253.5469 Q1136.7969,253.4375 1137.0156,253.4375 Q1137.3906,253.4375 1137.625,253.6953 Q1137.8594,253.9531 1137.8594,254.5625 L1137.8594,256.0156 Q1137.8594,256.625 1137.625,256.8906 Q1137.3906,257.1563 1137.0156,257.1563 Q1136.6719,257.1563 1136.4688,256.9531 Q1136.2656,256.7656 1136.1563,256.25 Q1136.1094,255.8906 1135.9219,255.7031 Q1135.5938,255.3281 1134.9844,255.1094 Q1134.375,254.8906 1133.75,254.8906 Q1132.9844,254.8906 1132.3516,255.2188 Q1131.7188,255.5469 1131.2266,256.2969 Q1130.7344,257.0469 1130.7344,258.0781 L1130.7344,259.1719 Q1130.7344,260.4063 1131.625,261.2266 Q1132.5156,262.0469 1134.1094,262.0469 Q1135.0469,262.0469 1135.7031,261.7969 Q1136.0938,261.6406 1136.5156,261.2031 Q1136.7813,260.9375 1136.9297,260.8594 Q1137.0781,260.7813 1137.2813,260.7813 Q1137.6094,260.7813 1137.8672,261.0391 Q1138.125,261.2969 1138.125,261.6406 Q1138.125,261.9844 1137.7813,262.3906 Q1137.2813,262.9688 1136.4844,263.2969 Q1135.4063,263.75 1134.1094,263.75 Q1132.5938,263.75 1131.3906,263.125 Q1130.4063,262.625 1129.7188,261.5547 Q1129.0313,260.4844 1129.0313,259.2031 L1129.0313,258.0469 Q1129.0313,256.7188 1129.6484,255.5703 Q1130.2656,254.4219 1131.3594,253.8047 Q1132.4531,253.1875 1133.6875,253.1875 Q1134.4219,253.1875 1135.0703,253.3516 Q1135.7188,253.5156 1136.2656,253.875 Z " fill="#000000"/><text fill="#000000" font-family="sans-serif" font-size="12" lengthAdjust="spacing" textLength="134" x="1147.5" y="262.9102">NonVerboseArgDecoder</text><line style="stroke:#A80036;stroke-width:1.5;" x1="1119.5" x2="1283.5" y1="274" y2="274"/><line style="stroke:#A80036;stroke-width:1.5;" x1="1119.5" x2="1283.5" y1="282" y2="282"/><!--MD5=[db898d529ca3516f5bc111987659dc64]
class NonVerboseBoolArgDecoder--><rect codeLine="17" fill="#FEFECE" filter="url(#fhsb7hf5d42u5)" height="48" id="NonVerboseBoolArgDecoder" style="stroke:#A80036;stroke-width:1.5;" width="191" x="7" y="368"/><ellipse cx="22" cy="384" fill="#ADD1B2" rx="11" ry="11" style="stroke:#A80036;stroke-width:1.0;"/><path d="M24.7656,379.875 Q24.9219,379.6563 25.1094,379.5469 Q25.2969,379.4375 25.5156,379.4375 Q25.8906,379.4375 26.125,379.6953 Q26.3594,379.9531 26.3594,380.5625 L26.3594,382.0156 Q26.3594,382.625 26.125,382.8906 Q25.8906,383.1563 25.5156,383.1563 Q25.1719,383.1563 24.9688,382.9531 Q24.7656,382.7656 24.6563,382.25 Q24.6094,381.8906 24.4219,381.7031 Q24.0938,381.3281 23.4844,381.1094 Q22.875,380.8906 22.25,380.8906 Q21.4844,380.8906 20.8516,381.2188 Q20.2188,381.5469 19.7266,382.2969 Q19.2344,383.0469 19.2344,384.0781 L19.2344,385.1719 Q19.2344,386.4063 20.125,387.2266 Q21.0156,388.0469 22.6094,388.0469 Q23.5469,388.0469 24.2031,387.7969 Q24.5938,387.6406 25.0156,387.2031 Q25.2813,386.9375 25.4297,386.8594 Q25.5781,386.7813 25.7813,386.7813 Q26.1094,386.7813 26.3672,387.0391 Q26.625,387.2969 26.625,387.6406 Q26.625,387.9844 26.2813,388.3906 Q25.7813,388.9688 24.9844,389.2969 Q23.9063,389.75 22.6094,389.75 Q21.0938,389.75 19.8906,389.125 Q18.9063,388.625 18.2188,387.5547 Q17.5313,386.4844 17.5313,385.2031 L17.5313,384.0469 Q17.5313,382.7188 18.1484,381.5703 Q18.7656,380.4219 19.8594,379.8047 Q20.9531,379.1875 22.1875,379.1875 Q22.9219,379.1875 23.5703,379.3516 Q24.2188,379.5156 24.7656,379.875 Z " fill="#000000"/><text fill="#000000" font-family="sans-serif" font-size="12" lengthAdjust="spacing" textLength="159" x="36" y="388.9102">NonVerboseBoolArgDecoder</text><line style="stroke:#A80036;stroke-width:1.5;" x1="8" x2="197" y1="400" y2="400"/><line style="stroke:#A80036;stroke-width:1.5;" x1="8" x2="197" y1="408" y2="408"/><!--MD5=[fccf4ae0b1442a102ded80f9901564f7]
class NonVerboseSignedIntArgDecoder--><rect codeLine="18" fill="#FEFECE" filter="url(#fhsb7hf5d42u5)" height="48" id="NonVerboseSignedIntArgDecoder" style="stroke:#A80036;stroke-width:1.5;" width="218" x="233.5" y="368"/><ellipse cx="248.5" cy="384" fill="#ADD1B2" rx="11" ry="11" style="stroke:#A80036;stroke-width:1.0;"/><path d="M251.2656,379.875 Q251.4219,379.6563 251.6094,379.5469 Q251.7969,379.4375 252.0156,379.4375 Q252.3906,379.4375 252.625,379.6953 Q252.8594,379.9531 252.8594,380.5625 L252.8594,382.0156 Q252.8594,382.625 252.625,382.8906 Q252.3906,383.1563 252.0156,383.1563 Q251.6719,383.1563 251.4688,382.9531 Q251.2656,382.7656 251.1563,382.25 Q251.1094,381.8906 250.9219,381.7031 Q250.5938,381.3281 249.9844,381.1094 Q249.375,380.8906 248.75,380.8906 Q247.9844,380.8906 247.3516,381.2188 Q246.7188,381.5469 246.2266,382.2969 Q245.7344,383.0469 245.7344,384.0781 L245.7344,385.1719 Q245.7344,386.4063 246.625,387.2266 Q247.5156,388.0469 249.1094,388.0469 Q250.0469,388.0469 250.7031,387.7969 Q251.0938,387.6406 251.5156,387.2031 Q251.7813,386.9375 251.9297,386.8594 Q252.0781,386.7813 252.2813,386.7813 Q252.6094,386.7813 252.8672,387.0391 Q253.125,387.2969 253.125,387.6406 Q253.125,387.9844 252.7813,388.3906 Q252.2813,388.9688 251.4844,389.2969 Q250.4063,389.75 249.1094,389.75 Q247.5938,389.75 246.3906,389.125 Q245.4063,388.625 244.7188,387.5547 Q244.0313,386.4844 244.0313,385.2031 L244.0313,384.0469 Q244.0313,382.7188 244.6484,381.5703 Q245.2656,380.4219 246.3594,379.8047 Q247.4531,379.1875 248.6875,379.1875 Q249.4219,379.1875 250.0703,379.3516 Q250.7188,379.5156 251.2656,379.875 Z " fill="#000000"/><text fill="#000000" font-family="sans-serif" font-size="12" lengthAdjust="spacing" textLength="186" x="262.5" y="388.9102">NonVerboseSignedIntArgDecoder</text><line style="stroke:#A80036;stroke-width:1.5;" x1="234.5" x2="450.5" y1="400" y2="400"/><line style="stroke:#A80036;stroke-width:1.5;" x1="234.5" x2="450.5" y1="408" y2="408"/><!--MD5=[dda4671eea202be10fa47f14282d81f0]
class NonVerboseUnsignedIntArgDecoder--><rect codeLine="19" fill="#FEFECE" filter="url(#fhsb7hf5d42u5)" height="48" id="NonVerboseUnsignedIntArgDecoder" style="stroke:#A80036;stroke-width:1.5;" width="233" x="487" y="368"/><ellipse cx="502" cy="384" fill="#ADD1B2" rx="11" ry="11" style="stroke:#A80036;stroke-width:1.0;"/><path d="M504.7656,379.875 Q504.9219,379.6563 505.1094,379.5469 Q505.2969,379.4375 505.5156,379.4375 Q505.8906,379.4375 506.125,379.6953 Q506.3594,379.9531 506.3594,380.5625 L506.3594,382.0156 Q506.3594,382.625 506.125,382.8906 Q505.8906,383.1563 505.5156,383.1563 Q505.1719,383.1563 504.9688,382.9531 Q504.7656,382.7656 504.6563,382.25 Q504.6094,381.8906 504.4219,381.7031 Q504.0938,381.3281 503.4844,381.1094 Q502.875,380.8906 502.25,380.8906 Q501.4844,380.8906 500.8516,381.2188 Q500.2188,381.5469 499.7266,382.2969 Q499.2344,383.0469 499.2344,384.0781 L499.2344,385.1719 Q499.2344,386.4063 500.125,387.2266 Q501.0156,388.0469 502.6094,388.0469 Q503.5469,388.0469 504.2031,387.7969 Q504.5938,387.6406 505.0156,387.2031 Q505.2813,386.9375 505.4297,386.8594 Q505.5781,386.7813 505.7813,386.7813 Q506.1094,386.7813 506.3672,387.0391 Q506.625,387.2969 506.625,387.6406 Q506.625,387.9844 506.2813,388.3906 Q505.7813,388.9688 504.9844,389.2969 Q503.9063,389.75 502.6094,389.75 Q501.0938,389.75 499.8906,389.125 Q498.9063,388.625 498.2188,387.5547 Q497.5313,386.4844 497.5313,385.2031 L497.5313,384.0469 Q497.5313,382.7188 498.1484,381.5703 Q498.7656,380.4219 499.8594,379.8047 Q500.9531,379.1875 502.1875,379.1875 Q502.9219,379.1875 503.5703,379.3516 Q504.2188,379.5156 504.7656,379.875 Z " fill="#000000"/><text fill="#000000" font-family="sans-serif" font-size="12" lengthAdjust="spacing" textLength="201" x="516" y="388.9102">NonVerboseUnsignedIntArgDecoder</text><line style="stroke:#A80036;stroke-width:1.5;" x1="488" x2="719" y1="400" y2="400"/><line style="stroke:#A80036;stroke-width:1.5;" x1="488" x2="719" y1="408" y2="408"/><!--MD5=[2c4fec2f0653b18bd45b2c0e750c630f]
class NonVerboseFloat32ArgDecoder--><rect codeLine="20" fill="#FEFECE" filter="url(#fhsb7hf5d42u5)" height="48" id="NonVerboseFloat32ArgDecoder" style="stroke:#A80036;stroke-width:1.5;" width="207" x="755" y="368"/><ellipse cx="770" cy="384" fill="#ADD1B2" rx="11" ry="11" style="stroke:#A80036;stroke-width:1.0;"/><path d="M772.7656,379.875 Q772.9219,379.6563 773.1094,379.5469 Q773.2969,379.4375 773.5156,379.4375 Q773.8906,379.4375 774.125,379.6953 Q774.3594,379.9531 774.3594,380.5625 L774.3594,382.0156 Q774.3594,382.625 774.125,382.8906 Q773.8906,383.1563 773.5156,383.1563 Q773.1719,383.1563 772.9688,382.9531 Q772.7656,382.7656 772.6563,382.25 Q772.6094,381.8906 772.4219,381.7031 Q772.0938,381.3281 771.4844,381.1094 Q770.875,380.8906 770.25,380.8906 Q769.4844,380.8906 768.8516,381.2188 Q768.2188,381.5469 767.7266,382.2969 Q767.2344,383.0469 767.2344,384.0781 L767.2344,385.1719 Q767.2344,386.4063 768.125,387.2266 Q769.0156,388.0469 770.6094,388.0469 Q771.5469,388.0469 772.2031,387.7969 Q772.5938,387.6406 773.0156,387.2031 Q773.2813,386.9375 773.4297,386.8594 Q773.5781,386.7813 773.7813,386.7813 Q774.1094,386.7813 774.3672,387.0391 Q774.625,387.2969 774.625,387.6406 Q774.625,387.9844 774.2813,388.3906 Q773.7813,388.9688 772.9844,389.2969 Q771.9063,389.75 770.6094,389.75 Q769.0938,389.75 767.8906,389.125 Q766.9063,388.625 766.2188,387.5547 Q765.5313,386.4844 765.5313,385.2031 L765.5313,384.0469 Q765.5313,382.7188 766.1484,381.5703 Q766.7656,380.4219 767.8594,379.8047 Q768.9531,379.1875 770.1875,379.1875 Q770.9219,379.1875 771.5703,379.3516 Q772.2188,379.5156 772.7656,379.875 Z " fill="#000000"/><text fill="#000000" font-family="sans-serif" font-size="12" lengthAdjust="spacing" textLength="175" x="784" y="388.9102">NonVerboseFloat32ArgDecoder</text><line style="stroke:#A80036;stroke-width:1.5;" x1="756" x2="961" y1="400" y2="400"/><line style="stroke:#A80036;stroke-width:1.5;" x1="756" x2="961" y1="408" y2="408"/><!--MD5=[6585d4875194ae3cca20ed31cac0b1f4]
class NonVerboseFloat64ArgDecoder--><rect codeLine="21" fill="#FEFECE" filter="url(#fhsb7hf5d42u5)" height="48" id="NonVerboseFloat64ArgDecoder" style="stroke:#A80036;stroke-width:1.5;" width="207" x="997" y="368"/><ellipse cx="1012" cy="384" fill="#ADD1B2" rx="11" ry="11" style="stroke:#A80036;stroke-width:1.0;"/><path d="M1014.7656,379.875 Q1014.9219,379.6563 1015.1094,379.5469 Q1015.2969,379.4375 1015.5156,379.4375 Q1015.8906,379.4375 1016.125,379.6953 Q1016.3594,379.9531 1016.3594,380.5625 L1016.3594,382.0156 Q1016.3594,382.625 1016.125,382.8906 Q1015.8906,383.1563 1015.5156,383.1563 Q1015.1719,383.1563 1014.9688,382.9531 Q1014.7656,382.7656 1014.6563,382.25 Q1014.6094,381.8906 1014.4219,381.7031 Q1014.0938,381.3281 1013.4844,381.1094 Q1012.875,380.8906 1012.25,380.8906 Q1011.4844,380.8906 1010.8516,381.2188 Q1010.2188,381.5469 1009.7266,382.2969 Q1009.2344,383.0469 1009.2344,384.0781 L1009.2344,385.1719 Q1009.2344,386.4063 1010.125,387.2266 Q1011.0156,388.0469 1012.6094,388.0469 Q1013.5469,388.0469 1014.2031,387.7969 Q1014.5938,387.6406 1015.0156,387.2031 Q1015.2813,386.9375 1015.4297,386.8594 Q1015.5781,386.7813 1015.7813,386.7813 Q1016.1094,386.7813 1016.3672,387.0391 Q1016.625,387.2969 1016.625,387.6406 Q1016.625,387.9844 1016.2813,388.3906 Q1015.7813,388.9688 1014.9844,389.2969 Q1013.9063,389.75 1012.6094,389.75 Q1011.0938,389.75 1009.8906,389.125 Q1008.9063,388.625 1008.2188,387.5547 Q1007.5313,386.4844 1007.5313,385.2031 L1007.5313,384.0469 Q1007.5313,382.7188 1008.1484,381.5703 Q1008.7656,380.4219 1009.8594,379.8047 Q1010.9531,379.1875 1012.1875,379.1875 Q1012.9219,379.1875 1013.5703,379.3516 Q1014.2188,379.5156 1014.7656,379.875 Z " fill="#000000"/><text fill="#000000" font-family="sans-serif" font-size="12" lengthAdjust="spacing" textLength="175" x="1026" y="388.9102">NonVerboseFloat64ArgDecoder</text><line style="stroke:#A80036;stroke-width:1.5;" x1="998" x2="1203" y1="400" y2="400"/><line style="stroke:#A80036;stroke-width:1.5;" x1="998" x2="1203" y1="408" y2="408"/><!--MD5=[48e6f38a3a40225495b49678c4f3c1c0]
class NonVerboseRawArgDecoder--><rect codeLine="22" fill="#FEFECE" filter="url(#fhsb7hf5d42u5)" height="48" id="NonVerboseRawArgDecoder" style="stroke:#A80036;stroke-width:1.5;" width="191" x="1239" y="368"/><ellipse cx="1254" cy="384" fill="#ADD1B2" rx="11" ry="11" style="stroke:#A80036;stroke-width:1.0;"/><path d="M1256.7656,379.875 Q1256.9219,379.6563 1257.1094,379.5469 Q1257.2969,379.4375 1257.5156,379.4375 Q1257.8906,379.4375 1258.125,379.6953 Q1258.3594,379.9531 1258.3594,380.5625 L1258.3594,382.0156 Q1258.3594,382.625 1258.125,382.8906 Q1257.8906,383.1563 1257.5156,383.1563 Q1257.1719,383.1563 1256.9688,382.9531 Q1256.7656,382.7656 1256.6563,382.25 Q1256.6094,381.8906 1256.4219,381.7031 Q1256.0938,381.3281 1255.4844,381.1094 Q1254.875,380.8906 1254.25,380.8906 Q1253.4844,380.8906 1252.8516,381.2188 Q1252.2188,381.5469 1251.7266,382.2969 Q1251.2344,383.0469 1251.2344,384.0781 L1251.2344,385.1719 Q1251.2344,386.4063 1252.125,387.2266 Q1253.0156,388.0469 1254.6094,388.0469 Q1255.5469,388.0469 1256.2031,387.7969 Q1256.5938,387.6406 1257.0156,387.2031 Q1257.2813,386.9375 1257.4297,386.8594 Q1257.5781,386.7813 1257.7813,386.7813 Q1258.1094,386.7813 1258.3672,387.0391 Q1258.625,387.2969 1258.625,387.6406 Q1258.625,387.9844 1258.2813,388.3906 Q1257.7813,388.9688 1256.9844,389.2969 Q1255.9063,389.75 1254.6094,389.75 Q1253.0938,389.75 1251.8906,389.125 Q1250.9063,388.625 1250.2188,387.5547 Q1249.5313,386.4844 1249.5313,385.2031 L1249.5313,384.0469 Q1249.5313,382.7188 1250.1484,381.5703 Q1250.7656,380.4219 1251.8594,379.8047 Q1252.9531,379.1875 1254.1875,379.1875 Q1254.9219,379.1875 1255.5703,379.3516 Q1256.2188,379.5156 1256.7656,379.875 Z " fill="#000000"/><text fill="#000000" font-family="sans-serif" font-size="12" lengthAdjust="spacing" textLength="159" x="1268" y="388.9102">NonVerboseRawArgDecoder</text><line style="stroke:#A80036;stroke-width:1.5;" x1="1240" x2="1429" y1="400" y2="400"/><line style="stroke:#A80036;stroke-width:1.5;" x1="1240" x2="1429" y1="408" y2="408"/><!--MD5=[06de960f50d6125ba7ac5245b0e0f41b]
class NonVerboseStringArgDecoder--><rect codeLine="23" fill="#FEFECE" filter="url(#fhsb7hf5d42u5)" height="48" id="NonVerboseStringArgDecoder" style="stroke:#A80036;stroke-width:1.5;" width="198" x="1465.5" y="368"/><ellipse cx="1480.5" cy="384" fill="#ADD1B2" rx="11" ry="11" style="stroke:#A80036;stroke-width:1.0;"/><path d="M1483.2656,379.875 Q1483.4219,379.6563 1483.6094,379.5469 Q1483.7969,379.4375 1484.0156,379.4375 Q1484.3906,379.4375 1484.625,379.6953 Q1484.8594,379.9531 1484.8594,380.5625 L1484.8594,382.0156 Q1484.8594,382.625 1484.625,382.8906 Q1484.3906,383.1563 1484.0156,383.1563 Q1483.6719,383.1563 1483.4688,382.9531 Q1483.2656,382.7656 1483.1563,382.25 Q1483.1094,381.8906 1482.9219,381.7031 Q1482.5938,381.3281 1481.9844,381.1094 Q1481.375,380.8906 1480.75,380.8906 Q1479.9844,380.8906 1479.3516,381.2188 Q1478.7188,381.5469 1478.2266,382.2969 Q1477.7344,383.0469 1477.7344,384.0781 L1477.7344,385.1719 Q1477.7344,386.4063 1478.625,387.2266 Q1479.5156,388.0469 1481.1094,388.0469 Q1482.0469,388.0469 1482.7031,387.7969 Q1483.0938,387.6406 1483.5156,387.2031 Q1483.7813,386.9375 1483.9297,386.8594 Q1484.0781,386.7813 1484.2813,386.7813 Q1484.6094,386.7813 1484.8672,387.0391 Q1485.125,387.2969 1485.125,387.6406 Q1485.125,387.9844 1484.7813,388.3906 Q1484.2813,388.9688 1483.4844,389.2969 Q1482.4063,389.75 1481.1094,389.75 Q1479.5938,389.75 1478.3906,389.125 Q1477.4063,388.625 1476.7188,387.5547 Q1476.0313,386.4844 1476.0313,385.2031 L1476.0313,384.0469 Q1476.0313,382.7188 1476.6484,381.5703 Q1477.2656,380.4219 1478.3594,379.8047 Q1479.4531,379.1875 1480.6875,379.1875 Q1481.4219,379.1875 1482.0703,379.3516 Q1482.7188,379.5156 1483.2656,379.875 Z " fill="#000000"/><text fill="#000000" font-family="sans-serif" font-size="12" lengthAdjust="spacing" textLength="166" x="1494.5" y="388.9102">NonVerboseStringArgDecoder</text><line style="stroke:#A80036;stroke-width:1.5;" x1="1466.5" x2="1662.5" y1="400" y2="400"/><line style="stroke:#A80036;stroke-width:1.5;" x1="1466.5" x2="1662.5" y1="408" y2="408"/><!--MD5=[74a935e476f032f1219c9b0884b23b60]
class NonVerboseBinArgDecoder--><rect codeLine="24" fill="#FEFECE" filter="url(#fhsb7hf5d42u5)" height="48" id="NonVerboseBinArgDecoder" style="stroke:#A80036;stroke-width:1.5;" width="184" x="1698.5" y="368"/><ellipse cx="1713.5" cy="384" fill="#ADD1B2" rx="11" ry="11" style="stroke:#A80036;stroke-width:1.0;"/><path d="M1716.2656,379.875 Q1716.4219,379.6563 1716.6094,379.5469 Q1716.7969,379.4375 1717.0156,379.4375 Q1717.3906,379.4375 1717.625,379.6953 Q1717.8594,379.9531 1717.8594,380.5625 L1717.8594,382.0156 Q1717.8594,382.625 1717.625,382.8906 Q1717.3906,383.1563 1717.0156,383.1563 Q1716.6719,383.1563 1716.4688,382.9531 Q1716.2656,382.7656 1716.1563,382.25 Q1716.1094,381.8906 1715.9219,381.7031 Q1715.5938,381.3281 1714.9844,381.1094 Q1714.375,380.8906 1713.75,380.8906 Q1712.9844,380.8906 1712.3516,381.2188 Q1711.7188,381.5469 1711.2266,382.2969 Q1710.7344,383.0469 1710.7344,384.0781 L1710.7344,385.1719 Q1710.7344,386.4063 1711.625,387.2266 Q1712.5156,388.0469 1714.1094,388.0469 Q1715.0469,388.0469 1715.7031,387.7969 Q1716.0938,387.6406 1716.5156,387.2031 Q1716.7813,386.9375 1716.9297,386.8594 Q1717.0781,386.7813 1717.2813,386.7813 Q1717.6094,386.7813 1717.8672,387.0391 Q1718.125,387.2969 1718.125,387.6406 Q1718.125,387.9844 1717.7813,388.3906 Q1717.2813,388.9688 1716.4844,389.2969 Q1715.4063,389.75 1714.1094,389.75 Q1712.5938,389.75 1711.3906,389.125 Q1710.4063,388.625 1709.7188,387.5547 Q1709.0313,386.4844 1709.0313,385.2031 L1709.0313,384.0469 Q1709.0313,382.7188 1709.6484,381.5703 Q1710.2656,380.4219 1711.3594,379.8047 Q1712.4531,379.1875 1713.6875,379.1875 Q1714.4219,379.1875 1715.0703,379.3516 Q1715.7188,379.5156 1716.2656,379.875 Z " fill="#000000"/><text fill="#000000" font-family="sans-serif" font-size="12" lengthAdjust="spacing" textLength="152" x="1727.5" y="388.9102">NonVerboseBinArgDecoder</text><line style="stroke:#A80036;stroke-width:1.5;" x1="1699.5" x2="1881.5" y1="400" y2="400"/><line style="stroke:#A80036;stroke-width:1.5;" x1="1699.5" x2="1881.5" y1="408" y2="408"/><!--MD5=[0e3db067a351f208b374be9be38a00cd]
class NonVerboseHexArgDecoder--><rect codeLine="25" fill="#FEFECE" filter="url(#fhsb7hf5d42u5)" height="48" id="NonVerboseHexArgDecoder" style="stroke:#A80036;stroke-width:1.5;" width="187" x="1918" y="368"/><ellipse cx="1933" cy="384" fill="#ADD1B2" rx="11" ry="11" style="stroke:#A80036;stroke-width:1.0;"/><path d="M1935.7656,379.875 Q1935.9219,379.6563 1936.1094,379.5469 Q1936.2969,379.4375 1936.5156,379.4375 Q1936.8906,379.4375 1937.125,379.6953 Q1937.3594,379.9531 1937.3594,380.5625 L1937.3594,382.0156 Q1937.3594,382.625 1937.125,382.8906 Q1936.8906,383.1563 1936.5156,383.1563 Q1936.1719,383.1563 1935.9688,382.9531 Q1935.7656,382.7656 1935.6563,382.25 Q1935.6094,381.8906 1935.4219,381.7031 Q1935.0938,381.3281 1934.4844,381.1094 Q1933.875,380.8906 1933.25,380.8906 Q1932.4844,380.8906 1931.8516,381.2188 Q1931.2188,381.5469 1930.7266,382.2969 Q1930.2344,383.0469 1930.2344,384.0781 L1930.2344,385.1719 Q1930.2344,386.4063 1931.125,387.2266 Q1932.0156,388.0469 1933.6094,388.0469 Q1934.5469,388.0469 1935.2031,387.7969 Q1935.5938,387.6406 1936.0156,387.2031 Q1936.2813,386.9375 1936.4297,386.8594 Q1936.5781,386.7813 1936.7813,386.7813 Q1937.1094,386.7813 1937.3672,387.0391 Q1937.625,387.2969 1937.625,387.6406 Q1937.625,387.9844 1937.2813,388.3906 Q1936.7813,388.9688 1935.9844,389.2969 Q1934.9063,389.75 1933.6094,389.75 Q1932.0938,389.75 1930.8906,389.125 Q1929.9063,388.625 1929.2188,387.5547 Q1928.5313,386.4844 1928.5313,385.2031 L1928.5313,384.0469 Q1928.5313,382.7188 1929.1484,381.5703 Q1929.7656,380.4219 1930.8594,379.8047 Q1931.9531,379.1875 1933.1875,379.1875 Q1933.9219,379.1875 1934.5703,379.3516 Q1935.2188,379.5156 1935.7656,379.875 Z " fill="#000000"/><text fill="#000000" font-family="sans-serif" font-size="12" lengthAdjust="spacing" textLength="155" x="1947" y="388.9102">NonVerboseHexArgDecoder</text><line style="stroke:#A80036;stroke-width:1.5;" x1="1919" x2="2104" y1="400" y2="400"/><line style="stroke:#A80036;stroke-width:1.5;" x1="1919" x2="2104" y1="408" y2="408"/><!--MD5=[4fb7461c39b7a036d0ff4d53e349642c]
class NonVerboseUnknownArgDecoder--><rect codeLine="26" fill="#FEFECE" filter="url(#fhsb7hf5d42u5)" height="48" id="NonVerboseUnknownArgDecoder" style="stroke:#A80036;stroke-width:1.5;" width="218" x="2140.5" y="368"/><ellipse cx="2155.5" cy="384" fill="#ADD1B2" rx="11" ry="11" style="stroke:#A80036;stroke-width:1.0;"/><path d="M2158.2656,379.875 Q2158.4219,379.6563 2158.6094,379.5469 Q2158.7969,379.4375 2159.0156,379.4375 Q2159.3906,379.4375 2159.625,379.6953 Q2159.8594,379.9531 2159.8594,380.5625 L2159.8594,382.0156 Q2159.8594,382.625 2159.625,382.8906 Q2159.3906,383.1563 2159.0156,383.1563 Q2158.6719,383.1563 2158.4688,382.9531 Q2158.2656,382.7656 2158.1563,382.25 Q2158.1094,381.8906 2157.9219,381.7031 Q2157.5938,381.3281 2156.9844,381.1094 Q2156.375,380.8906 2155.75,380.8906 Q2154.9844,380.8906 2154.3516,381.2188 Q2153.7188,381.5469 2153.2266,382.2969 Q2152.7344,383.0469 2152.7344,384.0781 L2152.7344,385.1719 Q2152.7344,386.4063 2153.625,387.2266 Q2154.5156,388.0469 2156.1094,388.0469 Q2157.0469,388.0469 2157.7031,387.7969 Q2158.0938,387.6406 2158.5156,387.2031 Q2158.7813,386.9375 2158.9297,386.8594 Q2159.0781,386.7813 2159.2813,386.7813 Q2159.6094,386.7813 2159.8672,387.0391 Q2160.125,387.2969 2160.125,387.6406 Q2160.125,387.9844 2159.7813,388.3906 Q2159.2813,388.9688 2158.4844,389.2969 Q2157.4063,389.75 2156.1094,389.75 Q2154.5938,389.75 2153.3906,389.125 Q2152.4063,388.625 2151.7188,387.5547 Q2151.0313,386.4844 2151.0313,385.2031 L2151.0313,384.0469 Q2151.0313,382.7188 2151.6484,381.5703 Q2152.2656,380.4219 2153.3594,379.8047 Q2154.4531,379.1875 2155.6875,379.1875 Q2156.4219,379.1875 2157.0703,379.3516 Q2157.7188,379.5156 2158.2656,379.875 Z " fill="#000000"/><text fill="#000000" font-family="sans-serif" font-size="12" lengthAdjust="spacing" textLength="186" x="2169.5" y="388.9102">NonVerboseUnknownArgDecoder</text><line style="stroke:#A80036;stroke-width:1.5;" x1="2141.5" x2="2357.5" y1="400" y2="400"/><line style="stroke:#A80036;stroke-width:1.5;" x1="2141.5" x2="2357.5" y1="408" y2="408"/><!--MD5=[584669a0ed286870cad57e16f4431256]
class BinaryIntDltArg--><rect codeLine="50" fill="#FEFECE" filter="url(#fhsb7hf5d42u5)" height="48" id="BinaryIntDltArg" style="stroke:#A80036;stroke-width:1.5;" width="112" x="1734.5" y="494"/><ellipse cx="1749.5" cy="510" fill="#ADD1B2" rx="11" ry="11" style="stroke:#A80036;stroke-width:1.0;"/><path d="M1752.2656,505.875 Q1752.4219,505.6563 1752.6094,505.5469 Q1752.7969,505.4375 1753.0156,505.4375 Q1753.3906,505.4375 1753.625,505.6953 Q1753.8594,505.9531 1753.8594,506.5625 L1753.8594,508.0156 Q1753.8594,508.625 1753.625,508.8906 Q1753.3906,509.1563 1753.0156,509.1563 Q1752.6719,509.1563 1752.4688,508.9531 Q1752.2656,508.7656 1752.1563,508.25 Q1752.1094,507.8906 1751.9219,507.7031 Q1751.5938,507.3281 1750.9844,507.1094 Q1750.375,506.8906 1749.75,506.8906 Q1748.9844,506.8906 1748.3516,507.2188 Q1747.7188,507.5469 1747.2266,508.2969 Q1746.7344,509.0469 1746.7344,510.0781 L1746.7344,511.1719 Q1746.7344,512.4063 1747.625,513.2266 Q1748.5156,514.0469 1750.1094,514.0469 Q1751.0469,514.0469 1751.7031,513.7969 Q1752.0938,513.6406 1752.5156,513.2031 Q1752.7813,512.9375 1752.9297,512.8594 Q1753.0781,512.7813 1753.2813,512.7813 Q1753.6094,512.7813 1753.8672,513.0391 Q1754.125,513.2969 1754.125,513.6406 Q1754.125,513.9844 1753.7813,514.3906 Q1753.2813,514.9688 1752.4844,515.2969 Q1751.4063,515.75 1750.1094,515.75 Q1748.5938,515.75 1747.3906,515.125 Q1746.4063,514.625 1745.7188,513.5547 Q1745.0313,512.4844 1745.0313,511.2031 L1745.0313,510.0469 Q1745.0313,508.7188 1745.6484,507.5703 Q1746.2656,506.4219 1747.3594,505.8047 Q1748.4531,505.1875 1749.6875,505.1875 Q1750.4219,505.1875 1751.0703,505.3516 Q1751.7188,505.5156 1752.2656,505.875 Z " fill="#000000"/><text fill="#000000" font-family="sans-serif" font-size="12" lengthAdjust="spacing" textLength="80" x="1763.5" y="514.9102">BinaryIntDltArg</text><line style="stroke:#A80036;stroke-width:1.5;" x1="1735.5" x2="1845.5" y1="526" y2="526"/><line style="stroke:#A80036;stroke-width:1.5;" x1="1735.5" x2="1845.5" y1="534" y2="534"/><!--MD5=[9304c627579e6c09a83b65d2b6fe9ffa]
class BoolDltArg--><rect codeLine="51" fill="#FEFECE" filter="url(#fhsb7hf5d42u5)" height="48" id="BoolDltArg" style="stroke:#A80036;stroke-width:1.5;" width="90" x="57.5" y="494"/><ellipse cx="72.5" cy="510" fill="#ADD1B2" rx="11" ry="11" style="stroke:#A80036;stroke-width:1.0;"/><path d="M75.2656,505.875 Q75.4219,505.6563 75.6094,505.5469 Q75.7969,505.4375 76.0156,505.4375 Q76.3906,505.4375 76.625,505.6953 Q76.8594,505.9531 76.8594,506.5625 L76.8594,508.0156 Q76.8594,508.625 76.625,508.8906 Q76.3906,509.1563 76.0156,509.1563 Q75.6719,509.1563 75.4688,508.9531 Q75.2656,508.7656 75.1563,508.25 Q75.1094,507.8906 74.9219,507.7031 Q74.5938,507.3281 73.9844,507.1094 Q73.375,506.8906 72.75,506.8906 Q71.9844,506.8906 71.3516,507.2188 Q70.7188,507.5469 70.2266,508.2969 Q69.7344,509.0469 69.7344,510.0781 L69.7344,511.1719 Q69.7344,512.4063 70.625,513.2266 Q71.5156,514.0469 73.1094,514.0469 Q74.0469,514.0469 74.7031,513.7969 Q75.0938,513.6406 75.5156,513.2031 Q75.7813,512.9375 75.9297,512.8594 Q76.0781,512.7813 76.2813,512.7813 Q76.6094,512.7813 76.8672,513.0391 Q77.125,513.2969 77.125,513.6406 Q77.125,513.9844 76.7813,514.3906 Q76.2813,514.9688 75.4844,515.2969 Q74.4063,515.75 73.1094,515.75 Q71.5938,515.75 70.3906,515.125 Q69.4063,514.625 68.7188,513.5547 Q68.0313,512.4844 68.0313,511.2031 L68.0313,510.0469 Q68.0313,508.7188 68.6484,507.5703 Q69.2656,506.4219 70.3594,505.8047 Q71.4531,505.1875 72.6875,505.1875 Q73.4219,505.1875 74.0703,505.3516 Q74.7188,505.5156 75.2656,505.875 Z " fill="#000000"/><text fill="#000000" font-family="sans-serif" font-size="12" lengthAdjust="spacing" textLength="58" x="86.5" y="514.9102">BoolDltArg</text><line style="stroke:#A80036;stroke-width:1.5;" x1="58.5" x2="146.5" y1="526" y2="526"/><line style="stroke:#A80036;stroke-width:1.5;" x1="58.5" x2="146.5" y1="534" y2="534"/><!--MD5=[bd995735bdc22093cef67c0a3dd15675]
class Float32DltArg--><rect codeLine="52" fill="#FEFECE" filter="url(#fhsb7hf5d42u5)" height="48" id="Float32DltArg" style="stroke:#A80036;stroke-width:1.5;" width="106" x="805.5" y="494"/><ellipse cx="820.5" cy="510" fill="#ADD1B2" rx="11" ry="11" style="stroke:#A80036;stroke-width:1.0;"/><path d="M823.2656,505.875 Q823.4219,505.6563 823.6094,505.5469 Q823.7969,505.4375 824.0156,505.4375 Q824.3906,505.4375 824.625,505.6953 Q824.8594,505.9531 824.8594,506.5625 L824.8594,508.0156 Q824.8594,508.625 824.625,508.8906 Q824.3906,509.1563 824.0156,509.1563 Q823.6719,509.1563 823.4688,508.9531 Q823.2656,508.7656 823.1563,508.25 Q823.1094,507.8906 822.9219,507.7031 Q822.5938,507.3281 821.9844,507.1094 Q821.375,506.8906 820.75,506.8906 Q819.9844,506.8906 819.3516,507.2188 Q818.7188,507.5469 818.2266,508.2969 Q817.7344,509.0469 817.7344,510.0781 L817.7344,511.1719 Q817.7344,512.4063 818.625,513.2266 Q819.5156,514.0469 821.1094,514.0469 Q822.0469,514.0469 822.7031,513.7969 Q823.0938,513.6406 823.5156,513.2031 Q823.7813,512.9375 823.9297,512.8594 Q824.0781,512.7813 824.2813,512.7813 Q824.6094,512.7813 824.8672,513.0391 Q825.125,513.2969 825.125,513.6406 Q825.125,513.9844 824.7813,514.3906 Q824.2813,514.9688 823.4844,515.2969 Q822.4063,515.75 821.1094,515.75 Q819.5938,515.75 818.3906,515.125 Q817.4063,514.625 816.7188,513.5547 Q816.0313,512.4844 816.0313,511.2031 L816.0313,510.0469 Q816.0313,508.7188 816.6484,507.5703 Q817.2656,506.4219 818.3594,505.8047 Q819.4531,505.1875 820.6875,505.1875 Q821.4219,505.1875 822.0703,505.3516 Q822.7188,505.5156 823.2656,505.875 Z " fill="#000000"/><text fill="#000000" font-family="sans-serif" font-size="12" lengthAdjust="spacing" textLength="74" x="834.5" y="514.9102">Float32DltArg</text><line style="stroke:#A80036;stroke-width:1.5;" x1="806.5" x2="910.5" y1="526" y2="526"/><line style="stroke:#A80036;stroke-width:1.5;" x1="806.5" x2="910.5" y1="534" y2="534"/><!--MD5=[4f58334fec0bd3ff1f53f8383a615e86]
class Float64DltArg--><rect codeLine="53" fill="#FEFECE" filter="url(#fhsb7hf5d42u5)" height="48" id="Float64DltArg" style="stroke:#A80036;stroke-width:1.5;" width="106" x="1047.5" y="494"/><ellipse cx="1062.5" cy="510" fill="#ADD1B2" rx="11" ry="11" style="stroke:#A80036;stroke-width:1.0;"/><path d="M1065.2656,505.875 Q1065.4219,505.6563 1065.6094,505.5469 Q1065.7969,505.4375 1066.0156,505.4375 Q1066.3906,505.4375 1066.625,505.6953 Q1066.8594,505.9531 1066.8594,506.5625 L1066.8594,508.0156 Q1066.8594,508.625 1066.625,508.8906 Q1066.3906,509.1563 1066.0156,509.1563 Q1065.6719,509.1563 1065.4688,508.9531 Q1065.2656,508.7656 1065.1563,508.25 Q1065.1094,507.8906 1064.9219,507.7031 Q1064.5938,507.3281 1063.9844,507.1094 Q1063.375,506.8906 1062.75,506.8906 Q1061.9844,506.8906 1061.3516,507.2188 Q1060.7188,507.5469 1060.2266,508.2969 Q1059.7344,509.0469 1059.7344,510.0781 L1059.7344,511.1719 Q1059.7344,512.4063 1060.625,513.2266 Q1061.5156,514.0469 1063.1094,514.0469 Q1064.0469,514.0469 1064.7031,513.7969 Q1065.0938,513.6406 1065.5156,513.2031 Q1065.7813,512.9375 1065.9297,512.8594 Q1066.0781,512.7813 1066.2813,512.7813 Q1066.6094,512.7813 1066.8672,513.0391 Q1067.125,513.2969 1067.125,513.6406 Q1067.125,513.9844 1066.7813,514.3906 Q1066.2813,514.9688 1065.4844,515.2969 Q1064.4063,515.75 1063.1094,515.75 Q1061.5938,515.75 1060.3906,515.125 Q1059.4063,514.625 1058.7188,513.5547 Q1058.0313,512.4844 1058.0313,511.2031 L1058.0313,510.0469 Q1058.0313,508.7188 1058.6484,507.5703 Q1059.2656,506.4219 1060.3594,505.8047 Q1061.4531,505.1875 1062.6875,505.1875 Q1063.4219,505.1875 1064.0703,505.3516 Q1064.7188,505.5156 1065.2656,505.875 Z " fill="#000000"/><text fill="#000000" font-family="sans-serif" font-size="12" lengthAdjust="spacing" textLength="74" x="1076.5" y="514.9102">Float64DltArg</text><line style="stroke:#A80036;stroke-width:1.5;" x1="1048.5" x2="1152.5" y1="526" y2="526"/><line style="stroke:#A80036;stroke-width:1.5;" x1="1048.5" x2="1152.5" y1="534" y2="534"/><!--MD5=[5b44a63c92af40190428db9752e4a224]
class HexIntDltArg--><rect codeLine="54" fill="#FEFECE" filter="url(#fhsb7hf5d42u5)" height="48" id="HexIntDltArg" style="stroke:#A80036;stroke-width:1.5;" width="99" x="1962" y="494"/><ellipse cx="1977" cy="510" fill="#ADD1B2" rx="11" ry="11" style="stroke:#A80036;stroke-width:1.0;"/><path d="M1979.7656,505.875 Q1979.9219,505.6563 1980.1094,505.5469 Q1980.2969,505.4375 1980.5156,505.4375 Q1980.8906,505.4375 1981.125,505.6953 Q1981.3594,505.9531 1981.3594,506.5625 L1981.3594,508.0156 Q1981.3594,508.625 1981.125,508.8906 Q1980.8906,509.1563 1980.5156,509.1563 Q1980.1719,509.1563 1979.9688,508.9531 Q1979.7656,508.7656 1979.6563,508.25 Q1979.6094,507.8906 1979.4219,507.7031 Q1979.0938,507.3281 1978.4844,507.1094 Q1977.875,506.8906 1977.25,506.8906 Q1976.4844,506.8906 1975.8516,507.2188 Q1975.2188,507.5469 1974.7266,508.2969 Q1974.2344,509.0469 1974.2344,510.0781 L1974.2344,511.1719 Q1974.2344,512.4063 1975.125,513.2266 Q1976.0156,514.0469 1977.6094,514.0469 Q1978.5469,514.0469 1979.2031,513.7969 Q1979.5938,513.6406 1980.0156,513.2031 Q1980.2813,512.9375 1980.4297,512.8594 Q1980.5781,512.7813 1980.7813,512.7813 Q1981.1094,512.7813 1981.3672,513.0391 Q1981.625,513.2969 1981.625,513.6406 Q1981.625,513.9844 1981.2813,514.3906 Q1980.7813,514.9688 1979.9844,515.2969 Q1978.9063,515.75 1977.6094,515.75 Q1976.0938,515.75 1974.8906,515.125 Q1973.9063,514.625 1973.2188,513.5547 Q1972.5313,512.4844 1972.5313,511.2031 L1972.5313,510.0469 Q1972.5313,508.7188 1973.1484,507.5703 Q1973.7656,506.4219 1974.8594,505.8047 Q1975.9531,505.1875 1977.1875,505.1875 Q1977.9219,505.1875 1978.5703,505.3516 Q1979.2188,505.5156 1979.7656,505.875 Z " fill="#000000"/><text fill="#000000" font-family="sans-serif" font-size="12" lengthAdjust="spacing" textLength="67" x="1991" y="514.9102">HexIntDltArg</text><line style="stroke:#A80036;stroke-width:1.5;" x1="1963" x2="2060" y1="526" y2="526"/><line style="stroke:#A80036;stroke-width:1.5;" x1="1963" x2="2060" y1="534" y2="534"/><!--MD5=[751ce3d3b962032c2311a8f3a883c70d]
class RawDltArg--><rect codeLine="55" fill="#FEFECE" filter="url(#fhsb7hf5d42u5)" height="48" id="RawDltArg" style="stroke:#A80036;stroke-width:1.5;" width="90" x="1289.5" y="494"/><ellipse cx="1304.5" cy="510" fill="#ADD1B2" rx="11" ry="11" style="stroke:#A80036;stroke-width:1.0;"/><path d="M1307.2656,505.875 Q1307.4219,505.6563 1307.6094,505.5469 Q1307.7969,505.4375 1308.0156,505.4375 Q1308.3906,505.4375 1308.625,505.6953 Q1308.8594,505.9531 1308.8594,506.5625 L1308.8594,508.0156 Q1308.8594,508.625 1308.625,508.8906 Q1308.3906,509.1563 1308.0156,509.1563 Q1307.6719,509.1563 1307.4688,508.9531 Q1307.2656,508.7656 1307.1563,508.25 Q1307.1094,507.8906 1306.9219,507.7031 Q1306.5938,507.3281 1305.9844,507.1094 Q1305.375,506.8906 1304.75,506.8906 Q1303.9844,506.8906 1303.3516,507.2188 Q1302.7188,507.5469 1302.2266,508.2969 Q1301.7344,509.0469 1301.7344,510.0781 L1301.7344,511.1719 Q1301.7344,512.4063 1302.625,513.2266 Q1303.5156,514.0469 1305.1094,514.0469 Q1306.0469,514.0469 1306.7031,513.7969 Q1307.0938,513.6406 1307.5156,513.2031 Q1307.7813,512.9375 1307.9297,512.8594 Q1308.0781,512.7813 1308.2813,512.7813 Q1308.6094,512.7813 1308.8672,513.0391 Q1309.125,513.2969 1309.125,513.6406 Q1309.125,513.9844 1308.7813,514.3906 Q1308.2813,514.9688 1307.4844,515.2969 Q1306.4063,515.75 1305.1094,515.75 Q1303.5938,515.75 1302.3906,515.125 Q1301.4063,514.625 1300.7188,513.5547 Q1300.0313,512.4844 1300.0313,511.2031 L1300.0313,510.0469 Q1300.0313,508.7188 1300.6484,507.5703 Q1301.2656,506.4219 1302.3594,505.8047 Q1303.4531,505.1875 1304.6875,505.1875 Q1305.4219,505.1875 1306.0703,505.3516 Q1306.7188,505.5156 1307.2656,505.875 Z " fill="#000000"/><text fill="#000000" font-family="sans-serif" font-size="12" lengthAdjust="spacing" textLength="58" x="1318.5" y="514.9102">RawDltArg</text><line style="stroke:#A80036;stroke-width:1.5;" x1="1290.5" x2="1378.5" y1="526" y2="526"/><line style="stroke:#A80036;stroke-width:1.5;" x1="1290.5" x2="1378.5" y1="534" y2="534"/><!--MD5=[530b5da5bd258ad0d6915bceb12a6485]
class SignedIntDltArg--><rect codeLine="56" fill="#FEFECE" filter="url(#fhsb7hf5d42u5)" height="48" id="SignedIntDltArg" style="stroke:#A80036;stroke-width:1.5;" width="117" x="284" y="494"/><ellipse cx="299" cy="510" fill="#ADD1B2" rx="11" ry="11" style="stroke:#A80036;stroke-width:1.0;"/><path d="M301.7656,505.875 Q301.9219,505.6563 302.1094,505.5469 Q302.2969,505.4375 302.5156,505.4375 Q302.8906,505.4375 303.125,505.6953 Q303.3594,505.9531 303.3594,506.5625 L303.3594,508.0156 Q303.3594,508.625 303.125,508.8906 Q302.8906,509.1563 302.5156,509.1563 Q302.1719,509.1563 301.9688,508.9531 Q301.7656,508.7656 301.6563,508.25 Q301.6094,507.8906 301.4219,507.7031 Q301.0938,507.3281 300.4844,507.1094 Q299.875,506.8906 299.25,506.8906 Q298.4844,506.8906 297.8516,507.2188 Q297.2188,507.5469 296.7266,508.2969 Q296.2344,509.0469 296.2344,510.0781 L296.2344,511.1719 Q296.2344,512.4063 297.125,513.2266 Q298.0156,514.0469 299.6094,514.0469 Q300.5469,514.0469 301.2031,513.7969 Q301.5938,513.6406 302.0156,513.2031 Q302.2813,512.9375 302.4297,512.8594 Q302.5781,512.7813 302.7813,512.7813 Q303.1094,512.7813 303.3672,513.0391 Q303.625,513.2969 303.625,513.6406 Q303.625,513.9844 303.2813,514.3906 Q302.7813,514.9688 301.9844,515.2969 Q300.9063,515.75 299.6094,515.75 Q298.0938,515.75 296.8906,515.125 Q295.9063,514.625 295.2188,513.5547 Q294.5313,512.4844 294.5313,511.2031 L294.5313,510.0469 Q294.5313,508.7188 295.1484,507.5703 Q295.7656,506.4219 296.8594,505.8047 Q297.9531,505.1875 299.1875,505.1875 Q299.9219,505.1875 300.5703,505.3516 Q301.2188,505.5156 301.7656,505.875 Z " fill="#000000"/><text fill="#000000" font-family="sans-serif" font-size="12" lengthAdjust="spacing" textLength="85" x="313" y="514.9102">SignedIntDltArg</text><line style="stroke:#A80036;stroke-width:1.5;" x1="285" x2="400" y1="526" y2="526"/><line style="stroke:#A80036;stroke-width:1.5;" x1="285" x2="400" y1="534" y2="534"/><!--MD5=[9384f9af5873042c459e7cb65aa0b775]
class StringDltArg--><rect codeLine="57" fill="#FEFECE" filter="url(#fhsb7hf5d42u5)" height="48" id="StringDltArg" style="stroke:#A80036;stroke-width:1.5;" width="97" x="1516" y="494"/><ellipse cx="1531" cy="510" fill="#ADD1B2" rx="11" ry="11" style="stroke:#A80036;stroke-width:1.0;"/><path d="M1533.7656,505.875 Q1533.9219,505.6563 1534.1094,505.5469 Q1534.2969,505.4375 1534.5156,505.4375 Q1534.8906,505.4375 1535.125,505.6953 Q1535.3594,505.9531 1535.3594,506.5625 L1535.3594,508.0156 Q1535.3594,508.625 1535.125,508.8906 Q1534.8906,509.1563 1534.5156,509.1563 Q1534.1719,509.1563 1533.9688,508.9531 Q1533.7656,508.7656 1533.6563,508.25 Q1533.6094,507.8906 1533.4219,507.7031 Q1533.0938,507.3281 1532.4844,507.1094 Q1531.875,506.8906 1531.25,506.8906 Q1530.4844,506.8906 1529.8516,507.2188 Q1529.2188,507.5469 1528.7266,508.2969 Q1528.2344,509.0469 1528.2344,510.0781 L1528.2344,511.1719 Q1528.2344,512.4063 1529.125,513.2266 Q1530.0156,514.0469 1531.6094,514.0469 Q1532.5469,514.0469 1533.2031,513.7969 Q1533.5938,513.6406 1534.0156,513.2031 Q1534.2813,512.9375 1534.4297,512.8594 Q1534.5781,512.7813 1534.7813,512.7813 Q1535.1094,512.7813 1535.3672,513.0391 Q1535.625,513.2969 1535.625,513.6406 Q1535.625,513.9844 1535.2813,514.3906 Q1534.7813,514.9688 1533.9844,515.2969 Q1532.9063,515.75 1531.6094,515.75 Q1530.0938,515.75 1528.8906,515.125 Q1527.9063,514.625 1527.2188,513.5547 Q1526.5313,512.4844 1526.5313,511.2031 L1526.5313,510.0469 Q1526.5313,508.7188 1527.1484,507.5703 Q1527.7656,506.4219 1528.8594,505.8047 Q1529.9531,505.1875 1531.1875,505.1875 Q1531.9219,505.1875 1532.5703,505.3516 Q1533.2188,505.5156 1533.7656,505.875 Z " fill="#000000"/><text fill="#000000" font-family="sans-serif" font-size="12" lengthAdjust="spacing" textLength="65" x="1545" y="514.9102">StringDltArg</text><line style="stroke:#A80036;stroke-width:1.5;" x1="1517" x2="1612" y1="526" y2="526"/><line style="stroke:#A80036;stroke-width:1.5;" x1="1517" x2="1612" y1="534" y2="534"/><!--MD5=[15300c896cacb1acf95f152b7691e7f6]
class UnsignedIntDltArg--><rect codeLine="58" fill="#FEFECE" filter="url(#fhsb7hf5d42u5)" height="48" id="UnsignedIntDltArg" style="stroke:#A80036;stroke-width:1.5;" width="132" x="537.5" y="494"/><ellipse cx="552.5" cy="510" fill="#ADD1B2" rx="11" ry="11" style="stroke:#A80036;stroke-width:1.0;"/><path d="M555.2656,505.875 Q555.4219,505.6563 555.6094,505.5469 Q555.7969,505.4375 556.0156,505.4375 Q556.3906,505.4375 556.625,505.6953 Q556.8594,505.9531 556.8594,506.5625 L556.8594,508.0156 Q556.8594,508.625 556.625,508.8906 Q556.3906,509.1563 556.0156,509.1563 Q555.6719,509.1563 555.4688,508.9531 Q555.2656,508.7656 555.1563,508.25 Q555.1094,507.8906 554.9219,507.7031 Q554.5938,507.3281 553.9844,507.1094 Q553.375,506.8906 552.75,506.8906 Q551.9844,506.8906 551.3516,507.2188 Q550.7188,507.5469 550.2266,508.2969 Q549.7344,509.0469 549.7344,510.0781 L549.7344,511.1719 Q549.7344,512.4063 550.625,513.2266 Q551.5156,514.0469 553.1094,514.0469 Q554.0469,514.0469 554.7031,513.7969 Q555.0938,513.6406 555.5156,513.2031 Q555.7813,512.9375 555.9297,512.8594 Q556.0781,512.7813 556.2813,512.7813 Q556.6094,512.7813 556.8672,513.0391 Q557.125,513.2969 557.125,513.6406 Q557.125,513.9844 556.7813,514.3906 Q556.2813,514.9688 555.4844,515.2969 Q554.4063,515.75 553.1094,515.75 Q551.5938,515.75 550.3906,515.125 Q549.4063,514.625 548.7188,513.5547 Q548.0313,512.4844 548.0313,511.2031 L548.0313,510.0469 Q548.0313,508.7188 548.6484,507.5703 Q549.2656,506.4219 550.3594,505.8047 Q551.4531,505.1875 552.6875,505.1875 Q553.4219,505.1875 554.0703,505.3516 Q554.7188,505.5156 555.2656,505.875 Z " fill="#000000"/><text fill="#000000" font-family="sans-serif" font-size="12" lengthAdjust="spacing" textLength="100" x="566.5" y="514.9102">UnsignedIntDltArg</text><line style="stroke:#A80036;stroke-width:1.5;" x1="538.5" x2="668.5" y1="526" y2="526"/><line style="stroke:#A80036;stroke-width:1.5;" x1="538.5" x2="668.5" y1="534" y2="534"/><!--MD5=[cf1d13b373af6b2a8a04083a8c30a909]
class UnknownNonVerboseDltArg--><rect codeLine="59" fill="#FEFECE" filter="url(#fhsb7hf5d42u5)" height="48" id="UnknownNonVerboseDltArg" style="stroke:#A80036;stroke-width:1.5;" width="186" x="2156.5" y="494"/><ellipse cx="2171.5" cy="510" fill="#ADD1B2" rx="11" ry="11" style="stroke:#A80036;stroke-width:1.0;"/><path d="M2174.2656,505.875 Q2174.4219,505.6563 2174.6094,505.5469 Q2174.7969,505.4375 2175.0156,505.4375 Q2175.3906,505.4375 2175.625,505.6953 Q2175.8594,505.9531 2175.8594,506.5625 L2175.8594,508.0156 Q2175.8594,508.625 2175.625,508.8906 Q2175.3906,509.1563 2175.0156,509.1563 Q2174.6719,509.1563 2174.4688,508.9531 Q2174.2656,508.7656 2174.1563,508.25 Q2174.1094,507.8906 2173.9219,507.7031 Q2173.5938,507.3281 2172.9844,507.1094 Q2172.375,506.8906 2171.75,506.8906 Q2170.9844,506.8906 2170.3516,507.2188 Q2169.7188,507.5469 2169.2266,508.2969 Q2168.7344,509.0469 2168.7344,510.0781 L2168.7344,511.1719 Q2168.7344,512.4063 2169.625,513.2266 Q2170.5156,514.0469 2172.1094,514.0469 Q2173.0469,514.0469 2173.7031,513.7969 Q2174.0938,513.6406 2174.5156,513.2031 Q2174.7813,512.9375 2174.9297,512.8594 Q2175.0781,512.7813 2175.2813,512.7813 Q2175.6094,512.7813 2175.8672,513.0391 Q2176.125,513.2969 2176.125,513.6406 Q2176.125,513.9844 2175.7813,514.3906 Q2175.2813,514.9688 2174.4844,515.2969 Q2173.4063,515.75 2172.1094,515.75 Q2170.5938,515.75 2169.3906,515.125 Q2168.4063,514.625 2167.7188,513.5547 Q2167.0313,512.4844 2167.0313,511.2031 L2167.0313,510.0469 Q2167.0313,508.7188 2167.6484,507.5703 Q2168.2656,506.4219 2169.3594,505.8047 Q2170.4531,505.1875 2171.6875,505.1875 Q2172.4219,505.1875 2173.0703,505.3516 Q2173.7188,505.5156 2174.2656,505.875 Z " fill="#000000"/><text fill="#000000" font-family="sans-serif" font-size="12" lengthAdjust="spacing" textLength="154" x="2185.5" y="514.9102">UnknownNonVerboseDltArg</text><line style="stroke:#A80036;stroke-width:1.5;" x1="2157.5" x2="2341.5" y1="526" y2="526"/><line style="stroke:#A80036;stroke-width:1.5;" x1="2157.5" x2="2341.5" y1="534" y2="534"/><!--MD5=[fc829476976a60e0e473fbb16a0d5e7a]
reverse link DltTraceDecoderBase to INonVerboseDltDecoder--><path codeLine="2" d="M950.92,31 C972.37,31 995.17,31 1016.33,31 " fill="none" id="DltTraceDecoderBase-backto-INonVerboseDltDecoder" style="stroke:#A80036;stroke-width:1.0;"/><polygon fill="none" points="937.76,31,943.76,35,949.76,31,943.76,27,937.76,31" style="stroke:#A80036;stroke-width:1.0;"/><text fill="#000000" font-family="sans-serif" font-size="13" lengthAdjust="spacing" textLength="42" x="956" y="24.4951">uses</text><!--MD5=[c821e2978d74fc8a62e1612424dec82c]
reverse link INonVerboseDltDecoder to NonVerboseDltDecoder--><path codeLine="7" d="M1100.5,75.58 C1100.5,89.36 1100.5,104.06 1100.5,115.83 " fill="none" id="INonVerboseDltDecoder-backto-NonVerboseDltDecoder" style="stroke:#A80036;stroke-width:1.0;stroke-dasharray:7.0,7.0;"/><polygon fill="none" points="1093.5,75.22,1100.5,55.22,1107.5,75.22,1093.5,75.22" style="stroke:#A80036;stroke-width:1.0;"/><!--MD5=[7dcfac919290ab7b10efc274b0ed2519]
reverse link INonVerboseArgDecoder to NonVerboseArgDecoder--><path codeLine="12" d="M1271.73,179.62 C1255.01,199.95 1235.05,224.21 1220.69,241.67 " fill="none" id="INonVerboseArgDecoder-backto-NonVerboseArgDecoder" style="stroke:#A80036;stroke-width:1.0;stroke-dasharray:7.0,7.0;"/><polygon fill="none" points="1266.44,175.03,1284.55,164.03,1277.25,183.93,1266.44,175.03" style="stroke:#A80036;stroke-width:1.0;"/><!--MD5=[ea49674e42804206cf4b56e4da40ee49]
reverse link NonVerboseDltDecoder to INonVerboseArgDecoder--><path codeLine="14" d="M1195.33,140 C1202.63,140 1209.94,140 1217.25,140 " fill="none" id="NonVerboseDltDecoder-backto-INonVerboseArgDecoder" style="stroke:#A80036;stroke-width:1.0;"/><polygon fill="#A80036" points="1182.18,140,1188.18,144,1194.18,140,1188.18,136,1182.18,140" style="stroke:#A80036;stroke-width:1.0;"/><!--MD5=[618e3d5ef43bae906b29f9f1d65fb795]
reverse link NonVerboseDltDecoder to NonVerboseArgDecoder--><path codeLine="15" d="M1127.59,174.26 C1144.93,195.55 1167.01,222.65 1182.5,241.67 " fill="none" id="NonVerboseDltDecoder-backto-NonVerboseArgDecoder" style="stroke:#A80036;stroke-width:1.0;"/><polygon fill="#A80036" points="1119.26,164.03,1119.9475,171.2083,1126.838,173.3345,1126.1505,166.1562,1119.26,164.03" style="stroke:#A80036;stroke-width:1.0;"/><text fill="#000000" font-family="sans-serif" font-size="13" lengthAdjust="spacing" textLength="52" x="1158.5" y="208.4951">default</text><!--MD5=[a7bb44da388de413e60c355013094b88]
reverse link NonVerboseArgDecoder to NonVerboseBoolArgDecoder--><path codeLine="39" d="M1105.09,272.79 C927.98,284.34 539.25,313.89 215.5,368 C209.87,368.94 204.1,369.96 198.28,371.02 " fill="none" id="NonVerboseArgDecoder-backto-NonVerboseBoolArgDecoder" style="stroke:#A80036;stroke-width:1.0;"/><polygon fill="#A80036" points="1118.24,271.94,1111.9972,268.3306,1106.2644,272.705,1112.5072,276.3143,1118.24,271.94" style="stroke:#A80036;stroke-width:1.0;"/><text fill="#000000" font-family="sans-serif" font-size="13" lengthAdjust="spacing" textLength="66" x="567.5" y="334.4951">S_BOOL</text><!--MD5=[a90ad2c2a74243f37651ca453a496b8d]
reverse link NonVerboseArgDecoder to NonVerboseSignedIntArgDecoder--><path codeLine="40" d="M1105.1,278.41 C1019.91,288.68 892.33,304.48 781.5,320 C642.56,339.45 607.87,344.83 469.5,368 C463.64,368.98 457.64,370 451.58,371.05 " fill="none" id="NonVerboseArgDecoder-backto-NonVerboseSignedIntArgDecoder" style="stroke:#A80036;stroke-width:1.0;"/><polygon fill="#A80036" points="1118.14,276.84,1111.7074,273.5808,1106.2249,278.2651,1112.6575,281.5242,1118.14,276.84" style="stroke:#A80036;stroke-width:1.0;"/><text fill="#000000" font-family="sans-serif" font-size="13" lengthAdjust="spacing" textLength="63" x="782.5" y="334.4951">S_SINT*</text><!--MD5=[ccc96fef1129201ade0bf9f591b3dd71]
reverse link NonVerboseArgDecoder to NonVerboseUnsignedIntArgDecoder--><path codeLine="41" d="M1105.63,285.87 C1055.25,295.86 992.51,308.43 936.5,320 C860.66,335.67 775.24,353.89 709.91,367.95 " fill="none" id="NonVerboseArgDecoder-backto-NonVerboseUnsignedIntArgDecoder" style="stroke:#A80036;stroke-width:1.0;"/><polygon fill="#A80036" points="1118.49,283.32,1111.8262,280.5643,1106.7195,285.6556,1113.3833,288.4113,1118.49,283.32" style="stroke:#A80036;stroke-width:1.0;"/><text fill="#000000" font-family="sans-serif" font-size="13" lengthAdjust="spacing" textLength="63" x="937.5" y="334.4951">S_UINT*</text><!--MD5=[f936e6cff50c8b4be0f7a93275b6c604]
reverse link NonVerboseArgDecoder to NonVerboseFloat32ArgDecoder--><path codeLine="42" d="M1125.52,294.47 C1064.47,316.54 979.69,347.19 922.16,367.99 " fill="none" id="NonVerboseArgDecoder-backto-NonVerboseFloat32ArgDecoder" style="stroke:#A80036;stroke-width:1.0;"/><polygon fill="#A80036" points="1137.79,290.03,1130.7883,288.3048,1126.5029,294.1044,1133.5046,295.8296,1137.79,290.03" style="stroke:#A80036;stroke-width:1.0;"/><text fill="#000000" font-family="sans-serif" font-size="13" lengthAdjust="spacing" textLength="78" x="1052.5" y="334.4951">S_FLOA32</text><!--MD5=[5a579a16c76ca263d1ab7674f9c5e280]
reverse link NonVerboseArgDecoder to NonVerboseFloat64ArgDecoder--><path codeLine="43" d="M1174.41,300.26 C1157.07,321.55 1134.99,348.65 1119.5,367.67 " fill="none" id="NonVerboseArgDecoder-backto-NonVerboseFloat64ArgDecoder" style="stroke:#A80036;stroke-width:1.0;"/><polygon fill="#A80036" points="1182.74,290.03,1175.8495,292.1562,1175.162,299.3345,1182.0525,297.2083,1182.74,290.03" style="stroke:#A80036;stroke-width:1.0;"/><text fill="#000000" font-family="sans-serif" font-size="13" lengthAdjust="spacing" textLength="78" x="1158.5" y="334.4951">S_FLOA64</text><!--MD5=[301a3e61c1730b69eec9fb44b7bca0f9]
reverse link NonVerboseArgDecoder to NonVerboseRawArgDecoder--><path codeLine="44" d="M1235.93,299.1 C1258.95,320.56 1288.71,348.3 1309.48,367.67 " fill="none" id="NonVerboseArgDecoder-backto-NonVerboseRawArgDecoder" style="stroke:#A80036;stroke-width:1.0;"/><polygon fill="#A80036" points="1226.2,290.03,1227.8604,297.0473,1234.9766,298.2136,1233.3162,291.1963,1226.2,290.03" style="stroke:#A80036;stroke-width:1.0;"/><text fill="#000000" font-family="sans-serif" font-size="13" lengthAdjust="spacing" textLength="125" x="1276.5" y="334.4951">S_RAW, S_RAWD</text><!--MD5=[1c733a444a69969ef8625fd0f5006646]
reverse link NonVerboseArgDecoder to NonVerboseStringArgDecoder--><path codeLine="45" d="M1297.65,287.47 C1333.5,296.12 1374.28,307.18 1410.5,320 C1448.52,333.46 1489.95,352.85 1520.26,367.96 " fill="none" id="NonVerboseArgDecoder-backto-NonVerboseStringArgDecoder" style="stroke:#A80036;stroke-width:1.0;"/><polygon fill="#A80036" points="1284.68,284.39,1289.5944,289.6672,1296.3558,287.1605,1291.4414,281.8833,1284.68,284.39" style="stroke:#A80036;stroke-width:1.0;"/><text fill="#000000" font-family="sans-serif" font-size="13" lengthAdjust="spacing" textLength="202" x="1454.5" y="334.4951">S_STRG_ASCII, S_STRG_UTF8</text><!--MD5=[60fd0120626001d3d8da2842de0f847f]
reverse link NonVerboseArgDecoder to NonVerboseBinArgDecoder--><path codeLine="46" d="M1298.04,266.85 C1393.59,269.27 1542.92,280.04 1665.5,320 C1699.19,330.98 1733.97,351.63 1758.26,367.84 " fill="none" id="NonVerboseArgDecoder-backto-NonVerboseBinArgDecoder" style="stroke:#A80036;stroke-width:1.0;"/><polygon fill="#A80036" points="1284.92,266.56,1290.8307,270.6909,1296.9171,266.8237,1291.0064,262.6928,1284.92,266.56" style="stroke:#A80036;stroke-width:1.0;"/><text fill="#000000" font-family="sans-serif" font-size="13" lengthAdjust="spacing" textLength="56" x="1705.5" y="334.4951">S_BIN*</text><!--MD5=[7b4903c32c558101a3d04ab4ed6dd453]
reverse link NonVerboseArgDecoder to NonVerboseHexArgDecoder--><path codeLine="47" d="M1297.79,270.29 C1411.59,275.48 1606.25,288.46 1770.5,320 C1831.01,331.62 1898.11,352.03 1946.11,367.99 " fill="none" id="NonVerboseArgDecoder-backto-NonVerboseHexArgDecoder" style="stroke:#A80036;stroke-width:1.0;"/><polygon fill="#A80036" points="1284.66,269.71,1290.4737,273.9763,1296.6478,270.2507,1290.8341,265.9844,1284.66,269.71" style="stroke:#A80036;stroke-width:1.0;"/><text fill="#000000" font-family="sans-serif" font-size="13" lengthAdjust="spacing" textLength="60" x="1844.5" y="334.4951">S_HEX*</text><!--MD5=[ff3aa5394dc160ae795273fc2dbab7ca]
reverse link NonVerboseArgDecoder to NonVerboseUnknownArgDecoder--><path codeLine="48" d="M1297.96,270.08 C1435.26,275.4 1694.68,288.88 1913.5,320 C1996.58,331.82 2089.87,352.1 2157.03,367.97 " fill="none" id="NonVerboseArgDecoder-backto-NonVerboseUnknownArgDecoder" style="stroke:#A80036;stroke-width:1.0;"/><polygon fill="#A80036" points="1284.65,269.58,1290.4918,273.8076,1296.6411,270.0412,1290.7993,265.8136,1284.65,269.58" style="stroke:#A80036;stroke-width:1.0;"/><!--MD5=[7538b66f1c168a75f6fd9a91d4266981]
link NonVerboseBoolArgDecoder to BoolDltArg--><path codeLine="61" d="M102.5,416.03 C102.5,438.17 102.5,471.44 102.5,493.67 " fill="none" id="NonVerboseBoolArgDecoder-BoolDltArg" style="stroke:#A80036;stroke-width:1.0;"/><text fill="#000000" font-family="sans-serif" font-size="13" lengthAdjust="spacing" textLength="57" x="103.5" y="460.4951">creates</text><!--MD5=[3057414625d26d7ae2566835430c80d9]
link NonVerboseSignedIntArgDecoder to SignedIntDltArg--><path codeLine="62" d="M342.5,416.03 C342.5,438.17 342.5,471.44 342.5,493.67 " fill="none" id="NonVerboseSignedIntArgDecoder-SignedIntDltArg" style="stroke:#A80036;stroke-width:1.0;"/><text fill="#000000" font-family="sans-serif" font-size="13" lengthAdjust="spacing" textLength="57" x="343.5" y="460.4951">creates</text><!--MD5=[e1e84a257fd215b41484395a814e9743]
link NonVerboseUnsignedIntArgDecoder to UnsignedIntDltArg--><path codeLine="63" d="M603.5,416.03 C603.5,438.17 603.5,471.44 603.5,493.67 " fill="none" id="NonVerboseUnsignedIntArgDecoder-UnsignedIntDltArg" style="stroke:#A80036;stroke-width:1.0;"/><text fill="#000000" font-family="sans-serif" font-size="13" lengthAdjust="spacing" textLength="57" x="604.5" y="460.4951">creates</text><!--MD5=[09540b430b3084a4766e3a801633dce3]
link NonVerboseFloat32ArgDecoder to Float32DltArg--><path codeLine="64" d="M858.5,416.03 C858.5,438.17 858.5,471.44 858.5,493.67 " fill="none" id="NonVerboseFloat32ArgDecoder-Float32DltArg" style="stroke:#A80036;stroke-width:1.0;"/><text fill="#000000" font-family="sans-serif" font-size="13" lengthAdjust="spacing" textLength="57" x="859.5" y="460.4951">creates</text><!--MD5=[f89450ad501b9ef612958a99bfc4dccf]
link NonVerboseFloat64ArgDecoder to Float64DltArg--><path codeLine="65" d="M1100.5,416.03 C1100.5,438.17 1100.5,471.44 1100.5,493.67 " fill="none" id="NonVerboseFloat64ArgDecoder-Float64DltArg" style="stroke:#A80036;stroke-width:1.0;"/><text fill="#000000" font-family="sans-serif" font-size="13" lengthAdjust="spacing" textLength="57" x="1101.5" y="460.4951">creates</text><!--MD5=[59f2b6fa3f9f3dd71a94411e010c9786]
link NonVerboseRawArgDecoder to RawDltArg--><path codeLine="66" d="M1334.5,416.03 C1334.5,438.17 1334.5,471.44 1334.5,493.67 " fill="none" id="NonVerboseRawArgDecoder-RawDltArg" style="stroke:#A80036;stroke-width:1.0;"/><text fill="#000000" font-family="sans-serif" font-size="13" lengthAdjust="spacing" textLength="57" x="1335.5" y="460.4951">creates</text><!--MD5=[f6036c6e54cdc17db5d0db0b2fa42cae]
link NonVerboseStringArgDecoder to StringDltArg--><path codeLine="67" d="M1564.5,416.03 C1564.5,438.17 1564.5,471.44 1564.5,493.67 " fill="none" id="NonVerboseStringArgDecoder-StringDltArg" style="stroke:#A80036;stroke-width:1.0;"/><text fill="#000000" font-family="sans-serif" font-size="13" lengthAdjust="spacing" textLength="57" x="1565.5" y="460.4951">creates</text><!--MD5=[85edbe7918a4d336af9e2fa4eab1749c]
link NonVerboseBinArgDecoder to BinaryIntDltArg--><path codeLine="68" d="M1790.5,416.03 C1790.5,438.17 1790.5,471.44 1790.5,493.67 " fill="none" id="NonVerboseBinArgDecoder-BinaryIntDltArg" style="stroke:#A80036;stroke-width:1.0;"/><text fill="#000000" font-family="sans-serif" font-size="13" lengthAdjust="spacing" textLength="57" x="1791.5" y="460.4951">creates</text><!--MD5=[311ae9943454db5ec1efed0aa63b7762]
link NonVerboseHexArgDecoder to HexIntDltArg--><path codeLine="69" d="M2011.5,416.03 C2011.5,438.17 2011.5,471.44 2011.5,493.67 " fill="none" id="NonVerboseHexArgDecoder-HexIntDltArg" style="stroke:#A80036;stroke-width:1.0;"/><text fill="#000000" font-family="sans-serif" font-size="13" lengthAdjust="spacing" textLength="57" x="2012.5" y="460.4951">creates</text><!--MD5=[a855013db78873702687a907193a9525]
link NonVerboseUnknownArgDecoder to UnknownNonVerboseDltArg--><path codeLine="70" d="M2249.5,416.03 C2249.5,438.17 2249.5,471.44 2249.5,493.67 " fill="none" id="NonVerboseUnknownArgDecoder-UnknownNonVerboseDltArg" style="stroke:#A80036;stroke-width:1.0;"/><text fill="#000000" font-family="sans-serif" font-size="13" lengthAdjust="spacing" textLength="57" x="2250.5" y="460.4951">creates</text><!--MD5=[5fe0a4051b4391673bf4d1f373557bf5]
@startuml DLT.DecoderNonVerboseArgs
class DltTraceDecoderBase
DltTraceDecoderBase o-r- INonVerboseDltDecoder : <<uses>>

interface INonVerboseDltDecoder
class NonVerboseDltDecoder

INonVerboseDltDecoder <|.d. NonVerboseDltDecoder

interface INonVerboseArgDecoder
class NonVerboseArgDecoder

INonVerboseArgDecoder <|.d. NonVerboseArgDecoder

NonVerboseDltDecoder *-r- INonVerboseArgDecoder
NonVerboseDltDecoder *-d- NonVerboseArgDecoder : <<default>>

class NonVerboseBoolArgDecoder
class NonVerboseSignedIntArgDecoder
class NonVerboseUnsignedIntArgDecoder
class NonVerboseFloat32ArgDecoder
class NonVerboseFloat64ArgDecoder
class NonVerboseRawArgDecoder
class NonVerboseStringArgDecoder
class NonVerboseBinArgDecoder
class NonVerboseHexArgDecoder
class NonVerboseUnknownArgDecoder

' INonVerboseArgDecoder <|.d.. NonVerboseBoolArgDecoder
' INonVerboseArgDecoder <|.d.. NonVerboseSignedIntArgDecoder
' INonVerboseArgDecoder <|.d.. NonVerboseUnsignedIntArgDecoder
' INonVerboseArgDecoder <|.d.. NonVerboseFloat32ArgDecoder
' INonVerboseArgDecoder <|.d.. NonVerboseFloat64ArgDecoder
' INonVerboseArgDecoder <|.d.. NonVerboseRawArgDecoder
' INonVerboseArgDecoder <|.d.. NonVerboseStringArgDecoder
' INonVerboseArgDecoder <|.d.. NonVerboseBinArgDecoder
' INonVerboseArgDecoder <|.d.. NonVerboseHexArgDecoder
' INonVerboseArgDecoder <|.d.. NonVerboseUnknownArgDecoder

NonVerboseArgDecoder *-d- NonVerboseBoolArgDecoder : <<S_BOOL>>
NonVerboseArgDecoder *-d- NonVerboseSignedIntArgDecoder : <<S_SINT*>>
NonVerboseArgDecoder *-d- NonVerboseUnsignedIntArgDecoder : <<S_UINT*>>
NonVerboseArgDecoder *-d- NonVerboseFloat32ArgDecoder : <<S_FLOA32>>
NonVerboseArgDecoder *-d- NonVerboseFloat64ArgDecoder : <<S_FLOA64>>
NonVerboseArgDecoder *-d- NonVerboseRawArgDecoder : <<S_RAW, S_RAWD>>
NonVerboseArgDecoder *-d- NonVerboseStringArgDecoder : <<S_STRG_ASCII, S_STRG_UTF8>>
NonVerboseArgDecoder *-d- NonVerboseBinArgDecoder : <<S_BIN*>>
NonVerboseArgDecoder *-d- NonVerboseHexArgDecoder : <<S_HEX*>>
NonVerboseArgDecoder *-d- NonVerboseUnknownArgDecoder

class BinaryIntDltArg
class BoolDltArg
class Float32DltArg
class Float64DltArg
class HexIntDltArg
class RawDltArg
class SignedIntDltArg
class StringDltArg
class UnsignedIntDltArg
class UnknownNonVerboseDltArg

NonVerboseBoolArgDecoder -d- BoolDltArg : <<creates>>
NonVerboseSignedIntArgDecoder -d- SignedIntDltArg : <<creates>>
NonVerboseUnsignedIntArgDecoder -d- UnsignedIntDltArg : <<creates>>
NonVerboseFloat32ArgDecoder -d- Float32DltArg : <<creates>>
NonVerboseFloat64ArgDecoder -d- Float64DltArg : <<creates>>
NonVerboseRawArgDecoder -d- RawDltArg : <<creates>>
NonVerboseStringArgDecoder -d- StringDltArg : <<creates>>
NonVerboseBinArgDecoder -d- BinaryIntDltArg : <<creates>>
NonVerboseHexArgDecoder -d- HexIntDltArg : <<creates>>
NonVerboseUnknownArgDecoder -d- UnknownNonVerboseDltArg : <<creates>>
@enduml

@startuml DLT.DecoderNonVerboseArgs
class DltTraceDecoderBase
DltTraceDecoderBase o-r- INonVerboseDltDecoder : <<uses>>

interface INonVerboseDltDecoder
class NonVerboseDltDecoder

INonVerboseDltDecoder <|.d. NonVerboseDltDecoder

interface INonVerboseArgDecoder
class NonVerboseArgDecoder

INonVerboseArgDecoder <|.d. NonVerboseArgDecoder

NonVerboseDltDecoder *-r- INonVerboseArgDecoder
NonVerboseDltDecoder *-d- NonVerboseArgDecoder : <<default>>

class NonVerboseBoolArgDecoder
class NonVerboseSignedIntArgDecoder
class NonVerboseUnsignedIntArgDecoder
class NonVerboseFloat32ArgDecoder
class NonVerboseFloat64ArgDecoder
class NonVerboseRawArgDecoder
class NonVerboseStringArgDecoder
class NonVerboseBinArgDecoder
class NonVerboseHexArgDecoder
class NonVerboseUnknownArgDecoder


NonVerboseArgDecoder *-d- NonVerboseBoolArgDecoder : <<S_BOOL>>
NonVerboseArgDecoder *-d- NonVerboseSignedIntArgDecoder : <<S_SINT*>>
NonVerboseArgDecoder *-d- NonVerboseUnsignedIntArgDecoder : <<S_UINT*>>
NonVerboseArgDecoder *-d- NonVerboseFloat32ArgDecoder : <<S_FLOA32>>
NonVerboseArgDecoder *-d- NonVerboseFloat64ArgDecoder : <<S_FLOA64>>
NonVerboseArgDecoder *-d- NonVerboseRawArgDecoder : <<S_RAW, S_RAWD>>
NonVerboseArgDecoder *-d- NonVerboseStringArgDecoder : <<S_STRG_ASCII, S_STRG_UTF8>>
NonVerboseArgDecoder *-d- NonVerboseBinArgDecoder : <<S_BIN*>>
NonVerboseArgDecoder *-d- NonVerboseHexArgDecoder : <<S_HEX*>>
NonVerboseArgDecoder *-d- NonVerboseUnknownArgDecoder

class BinaryIntDltArg
class BoolDltArg
class Float32DltArg
class Float64DltArg
class HexIntDltArg
class RawDltArg
class SignedIntDltArg
class StringDltArg
class UnsignedIntDltArg
class UnknownNonVerboseDltArg

NonVerboseBoolArgDecoder -d- BoolDltArg : <<creates>>
NonVerboseSignedIntArgDecoder -d- SignedIntDltArg : <<creates>>
NonVerboseUnsignedIntArgDecoder -d- UnsignedIntDltArg : <<creates>>
NonVerboseFloat32ArgDecoder -d- Float32DltArg : <<creates>>
NonVerboseFloat64ArgDecoder -d- Float64DltArg : <<creates>>
NonVerboseRawArgDecoder -d- RawDltArg : <<creates>>
NonVerboseStringArgDecoder -d- StringDltArg : <<creates>>
NonVerboseBinArgDecoder -d- BinaryIntDltArg : <<creates>>
NonVerboseHexArgDecoder -d- HexIntDltArg : <<creates>>
NonVerboseUnknownArgDecoder -d- UnknownNonVerboseDltArg : <<creates>>
@enduml

PlantUML version 1.2022.1(Tue Feb 01 19:19:58 CET 2022)
(GPL source distribution)
Java Runtime: Java(TM) SE Runtime Environment
JVM: Java HotSpot(TM) 64-Bit Server VM
Default Encoding: Cp1252
Language: en
Country: GB
--></g></svg>