<?xml version="1.0" encoding="UTF-8" standalone="no"?><svg xmlns="http://www.w3.org/2000/svg" xmlns:xlink="http://www.w3.org/1999/xlink" contentScriptType="application/ecmascript" contentStyleType="text/css" height="370px" preserveAspectRatio="none" style="width:515px;height:370px;background:#FFFFFF;" version="1.1" viewBox="0 0 515 370" width="515px" zoomAndPan="magnify"><defs><filter height="300%" id="ftk6s2wgm5fb7" width="300%" x="-1" y="-1"><feGaussianBlur result="blurOut" stdDeviation="2.0"/><feColorMatrix in="blurOut" result="blurOut2" type="matrix" values="0 0 0 0 0 0 0 0 0 0 0 0 0 0 0 0 0 0 .4 0"/><feOffset dx="4.0" dy="4.0" in="blurOut2" result="blurOut3"/><feBlend in="SourceGraphic" in2="blurOut3" mode="normal"/></filter></defs><g><!--MD5=[7fb2afcb184e496e4ef7df201a12eb67]
class IControlArgDecoder--><rect codeLine="1" fill="#FEFECE" filter="url(#ftk6s2wgm5fb7)" height="48" id="IControlArgDecoder" style="stroke:#A80036;stroke-width:1.5;" width="142" x="7" y="21"/><ellipse cx="22" cy="37" fill="#B4A7E5" rx="11" ry="11" style="stroke:#A80036;stroke-width:1.0;"/><path d="M22.9531,33.6406 L22.9531,40.2969 L24.6719,40.2969 Q25.2813,40.2969 25.5469,40.5313 Q25.8125,40.7656 25.8125,41.1563 Q25.8125,41.5313 25.5469,41.7656 Q25.2813,42 24.6719,42 L19.5313,42 Q18.9219,42 18.6563,41.7656 Q18.3906,41.5313 18.3906,41.1406 Q18.3906,40.7656 18.6563,40.5313 Q18.9219,40.2969 19.5313,40.2969 L21.25,40.2969 L21.25,33.6406 L19.5313,33.6406 Q18.9219,33.6406 18.6563,33.4063 Q18.3906,33.1719 18.3906,32.7813 Q18.3906,32.4063 18.6563,32.1719 Q18.9219,31.9375 19.5313,31.9375 L24.6719,31.9375 Q25.2813,31.9375 25.5469,32.1719 Q25.8125,32.4063 25.8125,32.7813 Q25.8125,33.1719 25.5469,33.4063 Q25.2813,33.6406 24.6719,33.6406 L22.9531,33.6406 Z " fill="#000000"/><text fill="#000000" font-family="sans-serif" font-size="12" font-style="italic" lengthAdjust="spacing" textLength="110" x="36" y="41.9102">IControlArgDecoder</text><line style="stroke:#A80036;stroke-width:1.5;" x1="8" x2="148" y1="53" y2="53"/><line style="stroke:#A80036;stroke-width:1.5;" x1="8" x2="148" y1="61" y2="61"/><!--MD5=[6e5c003b2095e310fc9048ff7f2b88b9]
class IControlArg--><rect codeLine="3" fill="#FEFECE" filter="url(#ftk6s2wgm5fb7)" height="75.6719" id="IControlArg" style="stroke:#A80036;stroke-width:1.5;" width="112" x="243" y="7"/><ellipse cx="265.65" cy="23" fill="#B4A7E5" rx="11" ry="11" style="stroke:#A80036;stroke-width:1.0;"/><path d="M266.6031,19.6406 L266.6031,26.2969 L268.3219,26.2969 Q268.9313,26.2969 269.1969,26.5313 Q269.4625,26.7656 269.4625,27.1563 Q269.4625,27.5313 269.1969,27.7656 Q268.9313,28 268.3219,28 L263.1813,28 Q262.5719,28 262.3063,27.7656 Q262.0406,27.5313 262.0406,27.1406 Q262.0406,26.7656 262.3063,26.5313 Q262.5719,26.2969 263.1813,26.2969 L264.9,26.2969 L264.9,19.6406 L263.1813,19.6406 Q262.5719,19.6406 262.3063,19.4063 Q262.0406,19.1719 262.0406,18.7813 Q262.0406,18.4063 262.3063,18.1719 Q262.5719,17.9375 263.1813,17.9375 L268.3219,17.9375 Q268.9313,17.9375 269.1969,18.1719 Q269.4625,18.4063 269.4625,18.7813 Q269.4625,19.1719 269.1969,19.4063 Q268.9313,19.6406 268.3219,19.6406 L266.6031,19.6406 Z " fill="#000000"/><text fill="#000000" font-family="sans-serif" font-size="12" font-style="italic" lengthAdjust="spacing" textLength="63" x="281.35" y="27.9102">IControlArg</text><line style="stroke:#A80036;stroke-width:1.5;" x1="244" x2="354" y1="39" y2="39"/><text fill="#000000" font-family="sans-serif" font-size="11" lengthAdjust="spacing" textLength="100" x="249" y="54.4189">DefaultType: DltType</text><text fill="#000000" font-family="sans-serif" font-size="11" lengthAdjust="spacing" textLength="62" x="249" y="68.2549">ServiceId: int</text><line style="stroke:#A80036;stroke-width:1.5;" x1="244" x2="354" y1="74.6719" y2="74.6719"/><!--MD5=[6f3b3c752d4c8a5e20802975ea046281]
class ControlRequest--><rect codeLine="8" fill="#FEFECE" filter="url(#ftk6s2wgm5fb7)" height="61.8359" id="ControlRequest" style="stroke:#A80036;stroke-width:1.5;" width="204" x="51" y="164.5"/><ellipse cx="105.25" cy="180.5" fill="#ADD1B2" rx="11" ry="11" style="stroke:#A80036;stroke-width:1.0;"/><path d="M108.0156,176.375 Q108.1719,176.1563 108.3594,176.0469 Q108.5469,175.9375 108.7656,175.9375 Q109.1406,175.9375 109.375,176.1953 Q109.6094,176.4531 109.6094,177.0625 L109.6094,178.5156 Q109.6094,179.125 109.375,179.3906 Q109.1406,179.6563 108.7656,179.6563 Q108.4219,179.6563 108.2188,179.4531 Q108.0156,179.2656 107.9063,178.75 Q107.8594,178.3906 107.6719,178.2031 Q107.3438,177.8281 106.7344,177.6094 Q106.125,177.3906 105.5,177.3906 Q104.7344,177.3906 104.1016,177.7188 Q103.4688,178.0469 102.9766,178.7969 Q102.4844,179.5469 102.4844,180.5781 L102.4844,181.6719 Q102.4844,182.9063 103.375,183.7266 Q104.2656,184.5469 105.8594,184.5469 Q106.7969,184.5469 107.4531,184.2969 Q107.8438,184.1406 108.2656,183.7031 Q108.5313,183.4375 108.6797,183.3594 Q108.8281,183.2813 109.0313,183.2813 Q109.3594,183.2813 109.6172,183.5391 Q109.875,183.7969 109.875,184.1406 Q109.875,184.4844 109.5313,184.8906 Q109.0313,185.4688 108.2344,185.7969 Q107.1563,186.25 105.8594,186.25 Q104.3438,186.25 103.1406,185.625 Q102.1563,185.125 101.4688,184.0547 Q100.7813,182.9844 100.7813,181.7031 L100.7813,180.5469 Q100.7813,179.2188 101.3984,178.0703 Q102.0156,176.9219 103.1094,176.3047 Q104.2031,175.6875 105.4375,175.6875 Q106.1719,175.6875 106.8203,175.8516 Q107.4688,176.0156 108.0156,176.375 Z " fill="#000000"/><text fill="#000000" font-family="sans-serif" font-size="12" lengthAdjust="spacing" textLength="87" x="125.75" y="185.4102">ControlRequest</text><line style="stroke:#A80036;stroke-width:1.5;" x1="52" x2="254" y1="196.5" y2="196.5"/><text fill="#000000" font-family="sans-serif" font-size="11" lengthAdjust="spacing" textLength="192" x="57" y="211.9189">DltType: DltType = CONTROL_REQUEST</text><line style="stroke:#A80036;stroke-width:1.5;" x1="52" x2="254" y1="218.3359" y2="218.3359"/><!--MD5=[6bc028fb266856c60ea3e4e3b78f331f]
class ControlResponse--><rect codeLine="12" fill="#FEFECE" filter="url(#ftk6s2wgm5fb7)" height="103.3438" id="ControlResponse" style="stroke:#A80036;stroke-width:1.5;" width="211" x="290.5" y="144"/><ellipse cx="342.75" cy="160" fill="#ADD1B2" rx="11" ry="11" style="stroke:#A80036;stroke-width:1.0;"/><path d="M345.5156,155.875 Q345.6719,155.6563 345.8594,155.5469 Q346.0469,155.4375 346.2656,155.4375 Q346.6406,155.4375 346.875,155.6953 Q347.1094,155.9531 347.1094,156.5625 L347.1094,158.0156 Q347.1094,158.625 346.875,158.8906 Q346.6406,159.1563 346.2656,159.1563 Q345.9219,159.1563 345.7188,158.9531 Q345.5156,158.7656 345.4063,158.25 Q345.3594,157.8906 345.1719,157.7031 Q344.8438,157.3281 344.2344,157.1094 Q343.625,156.8906 343,156.8906 Q342.2344,156.8906 341.6016,157.2188 Q340.9688,157.5469 340.4766,158.2969 Q339.9844,159.0469 339.9844,160.0781 L339.9844,161.1719 Q339.9844,162.4063 340.875,163.2266 Q341.7656,164.0469 343.3594,164.0469 Q344.2969,164.0469 344.9531,163.7969 Q345.3438,163.6406 345.7656,163.2031 Q346.0313,162.9375 346.1797,162.8594 Q346.3281,162.7813 346.5313,162.7813 Q346.8594,162.7813 347.1172,163.0391 Q347.375,163.2969 347.375,163.6406 Q347.375,163.9844 347.0313,164.3906 Q346.5313,164.9688 345.7344,165.2969 Q344.6563,165.75 343.3594,165.75 Q341.8438,165.75 340.6406,165.125 Q339.6563,164.625 338.9688,163.5547 Q338.2813,162.4844 338.2813,161.2031 L338.2813,160.0469 Q338.2813,158.7188 338.8984,157.5703 Q339.5156,156.4219 340.6094,155.8047 Q341.7031,155.1875 342.9375,155.1875 Q343.6719,155.1875 344.3203,155.3516 Q344.9688,155.5156 345.5156,155.875 Z " fill="#000000"/><text fill="#000000" font-family="sans-serif" font-size="12" lengthAdjust="spacing" textLength="98" x="363.25" y="164.9102">ControlResponse</text><line style="stroke:#A80036;stroke-width:1.5;" x1="291.5" x2="500.5" y1="176" y2="176"/><text fill="#000000" font-family="sans-serif" font-size="11" lengthAdjust="spacing" textLength="109" x="296.5" y="191.4189">StatusOk: const int = 0</text><text fill="#000000" font-family="sans-serif" font-size="11" lengthAdjust="spacing" textLength="162" x="296.5" y="205.2549">StatusNotSupported: const int = 1</text><text fill="#000000" font-family="sans-serif" font-size="11" lengthAdjust="spacing" textLength="120" x="296.5" y="219.0908">StatusError: const int = 2</text><line style="stroke:#A80036;stroke-width:1.0;" x1="291.5" x2="500.5" y1="225.5078" y2="225.5078"/><text fill="#000000" font-family="sans-serif" font-size="11" lengthAdjust="spacing" textLength="199" x="296.5" y="240.9268">DltType: DltType = CONTROL_RESPONSE</text><!--MD5=[93b66f7b6d6a77d7ac86cb1a98bff288]
class GetSoftwareVersionRequest--><rect codeLine="25" fill="#FEFECE" filter="url(#ftk6s2wgm5fb7)" height="48" id="GetSoftwareVersionRequest" style="stroke:#A80036;stroke-width:1.5;" width="188" x="59" y="308"/><ellipse cx="74" cy="324" fill="#ADD1B2" rx="11" ry="11" style="stroke:#A80036;stroke-width:1.0;"/><path d="M76.7656,319.875 Q76.9219,319.6563 77.1094,319.5469 Q77.2969,319.4375 77.5156,319.4375 Q77.8906,319.4375 78.125,319.6953 Q78.3594,319.9531 78.3594,320.5625 L78.3594,322.0156 Q78.3594,322.625 78.125,322.8906 Q77.8906,323.1563 77.5156,323.1563 Q77.1719,323.1563 76.9688,322.9531 Q76.7656,322.7656 76.6563,322.25 Q76.6094,321.8906 76.4219,321.7031 Q76.0938,321.3281 75.4844,321.1094 Q74.875,320.8906 74.25,320.8906 Q73.4844,320.8906 72.8516,321.2188 Q72.2188,321.5469 71.7266,322.2969 Q71.2344,323.0469 71.2344,324.0781 L71.2344,325.1719 Q71.2344,326.4063 72.125,327.2266 Q73.0156,328.0469 74.6094,328.0469 Q75.5469,328.0469 76.2031,327.7969 Q76.5938,327.6406 77.0156,327.2031 Q77.2813,326.9375 77.4297,326.8594 Q77.5781,326.7813 77.7813,326.7813 Q78.1094,326.7813 78.3672,327.0391 Q78.625,327.2969 78.625,327.6406 Q78.625,327.9844 78.2813,328.3906 Q77.7813,328.9688 76.9844,329.2969 Q75.9063,329.75 74.6094,329.75 Q73.0938,329.75 71.8906,329.125 Q70.9063,328.625 70.2188,327.5547 Q69.5313,326.4844 69.5313,325.2031 L69.5313,324.0469 Q69.5313,322.7188 70.1484,321.5703 Q70.7656,320.4219 71.8594,319.8047 Q72.9531,319.1875 74.1875,319.1875 Q74.9219,319.1875 75.5703,319.3516 Q76.2188,319.5156 76.7656,319.875 Z " fill="#000000"/><text fill="#000000" font-family="sans-serif" font-size="12" lengthAdjust="spacing" textLength="156" x="88" y="328.9102">GetSoftwareVersionRequest</text><line style="stroke:#A80036;stroke-width:1.5;" x1="60" x2="246" y1="340" y2="340"/><line style="stroke:#A80036;stroke-width:1.5;" x1="60" x2="246" y1="348" y2="348"/><!--MD5=[ff494aaf041ee090f5c45b1a45d5366f]
class GetSoftwareVersionResponse--><rect codeLine="28" fill="#FEFECE" filter="url(#ftk6s2wgm5fb7)" height="48" id="GetSoftwareVersionResponse" style="stroke:#A80036;stroke-width:1.5;" width="199" x="296.5" y="308"/><ellipse cx="311.5" cy="324" fill="#ADD1B2" rx="11" ry="11" style="stroke:#A80036;stroke-width:1.0;"/><path d="M314.2656,319.875 Q314.4219,319.6563 314.6094,319.5469 Q314.7969,319.4375 315.0156,319.4375 Q315.3906,319.4375 315.625,319.6953 Q315.8594,319.9531 315.8594,320.5625 L315.8594,322.0156 Q315.8594,322.625 315.625,322.8906 Q315.3906,323.1563 315.0156,323.1563 Q314.6719,323.1563 314.4688,322.9531 Q314.2656,322.7656 314.1563,322.25 Q314.1094,321.8906 313.9219,321.7031 Q313.5938,321.3281 312.9844,321.1094 Q312.375,320.8906 311.75,320.8906 Q310.9844,320.8906 310.3516,321.2188 Q309.7188,321.5469 309.2266,322.2969 Q308.7344,323.0469 308.7344,324.0781 L308.7344,325.1719 Q308.7344,326.4063 309.625,327.2266 Q310.5156,328.0469 312.1094,328.0469 Q313.0469,328.0469 313.7031,327.7969 Q314.0938,327.6406 314.5156,327.2031 Q314.7813,326.9375 314.9297,326.8594 Q315.0781,326.7813 315.2813,326.7813 Q315.6094,326.7813 315.8672,327.0391 Q316.125,327.2969 316.125,327.6406 Q316.125,327.9844 315.7813,328.3906 Q315.2813,328.9688 314.4844,329.2969 Q313.4063,329.75 312.1094,329.75 Q310.5938,329.75 309.3906,329.125 Q308.4063,328.625 307.7188,327.5547 Q307.0313,326.4844 307.0313,325.2031 L307.0313,324.0469 Q307.0313,322.7188 307.6484,321.5703 Q308.2656,320.4219 309.3594,319.8047 Q310.4531,319.1875 311.6875,319.1875 Q312.4219,319.1875 313.0703,319.3516 Q313.7188,319.5156 314.2656,319.875 Z " fill="#000000"/><text fill="#000000" font-family="sans-serif" font-size="12" lengthAdjust="spacing" textLength="167" x="325.5" y="328.9102">GetSoftwareVersionResponse</text><line style="stroke:#A80036;stroke-width:1.5;" x1="297.5" x2="494.5" y1="340" y2="340"/><line style="stroke:#A80036;stroke-width:1.5;" x1="297.5" x2="494.5" y1="348" y2="348"/><!--MD5=[65949c13623bc9df9a2fd40396bb8f66]
link IControlArgDecoder to IControlArg--><path codeLine="20" d="M149.14,45 C177.65,45 210.18,45 237.63,45 " fill="none" id="IControlArgDecoder-to-IControlArg" style="stroke:#A80036;stroke-width:1.0;"/><polygon fill="#A80036" points="242.7,45,233.7,41,237.7,45,233.7,49,242.7,45" style="stroke:#A80036;stroke-width:1.0;"/><text fill="#000000" font-family="sans-serif" font-size="13" lengthAdjust="spacing" textLength="57" x="167.5" y="38.4951">«creates»</text><!--MD5=[33e8d8fd1ed4c9f6521d90b15b6778fc]
reverse link IControlArg to ControlRequest--><path codeLine="22" d="M248.3,97.57 C226.37,119.87 201.48,145.19 182.63,164.36 " fill="none" id="IControlArg-backto-ControlRequest" style="stroke:#A80036;stroke-width:1.0;stroke-dasharray:7.0,7.0;"/><polygon fill="none" points="243.52,92.44,262.53,83.09,253.5,102.26,243.52,92.44" style="stroke:#A80036;stroke-width:1.0;"/><!--MD5=[318d99646ddff299d6759bc4e34b1b9e]
reverse link IControlArg to ControlResponse--><path codeLine="23" d="M334.21,99.9 C343.59,114.26 353.68,129.72 362.94,143.89 " fill="none" id="IControlArg-backto-ControlResponse" style="stroke:#A80036;stroke-width:1.0;stroke-dasharray:7.0,7.0;"/><polygon fill="none" points="328.3,103.66,323.23,83.09,340.02,96.01,328.3,103.66" style="stroke:#A80036;stroke-width:1.0;"/><!--MD5=[875c8f9e3352cb661fc67e03b1a7f121]
reverse link ControlRequest to GetSoftwareVersionRequest--><path codeLine="26" d="M153,246.82 C153,267.68 153,290.86 153,307.6 " fill="none" id="ControlRequest-backto-GetSoftwareVersionRequest" style="stroke:#A80036;stroke-width:1.0;"/><polygon fill="none" points="146,246.68,153,226.68,160,246.68,146,246.68" style="stroke:#A80036;stroke-width:1.0;"/><!--MD5=[6512dab3c4d3521aaf3a5239a2458ee7]
reverse link ControlResponse to GetSoftwareVersionResponse--><path codeLine="29" d="M396,267.52 C396,282.13 396,296.5 396,307.87 " fill="none" id="ControlResponse-backto-GetSoftwareVersionResponse" style="stroke:#A80036;stroke-width:1.0;"/><polygon fill="none" points="389,267.35,396,247.35,403,267.35,389,267.35" style="stroke:#A80036;stroke-width:1.0;"/><!--MD5=[1748410d6da349bab1a6c3ecf1c57cf8]
@startuml DLT.ControlArg
interface IControlArgDecoder

interface IControlArg {
    DefaultType: DltType
    ServiceId: int
}

class ControlRequest {
    DltType: DltType = CONTROL_REQUEST
}

class ControlResponse {
    StatusOk: const int = 0
    StatusNotSupported: const int = 1
    StatusError: const int = 2
    - - -
    DltType: DltType = CONTROL_RESPONSE
}

IControlArgDecoder -r-> IControlArg : <<creates>>

IControlArg <|.d. ControlRequest
IControlArg <|.d. ControlResponse

class GetSoftwareVersionRequest
ControlRequest <|-d- GetSoftwareVersionRequest

class GetSoftwareVersionResponse
ControlResponse <|-d- GetSoftwareVersionResponse
@enduml

PlantUML version 1.2021.16(Wed Dec 08 18:25:22 CET 2021)
(GPL source distribution)
Java Runtime: Java(TM) SE Runtime Environment
JVM: Java HotSpot(TM) 64-Bit Server VM
Default Encoding: Cp1252
Language: en
Country: GB
--></g></svg>