<?xml version="1.0" encoding="us-ascii" standalone="no"?><svg xmlns="http://www.w3.org/2000/svg" xmlns:xlink="http://www.w3.org/1999/xlink" contentStyleType="text/css" height="377px" preserveAspectRatio="none" style="width:639px;height:377px;background:#FFFFFF;" version="1.1" viewBox="0 0 639 377" width="639px" zoomAndPan="magnify"><defs/><g><!--class IControlArgDecoder--><g id="elem_IControlArgDecoder"><rect codeLine="1" fill="#F1F1F1" height="48" id="IControlArgDecoder" rx="2.5" ry="2.5" style="stroke:#181818;stroke-width:0.5;" width="168" x="7" y="23.3"/><ellipse cx="22" cy="39.3" fill="#B4A7E5" rx="11" ry="11" style="stroke:#181818;stroke-width:1.0;"/><path d="M17.9219,35.0656 L17.9219,32.9094 L25.3125,32.9094 L25.3125,35.0656 L22.8438,35.0656 L22.8438,43.1437 L25.3125,43.1437 L25.3125,45.3 L17.9219,45.3 L17.9219,43.1437 L20.3906,43.1437 L20.3906,35.0656 L17.9219,35.0656 Z " fill="#000000"/><text fill="#000000" font-family="sans-serif" font-size="14" font-style="italic" lengthAdjust="spacing" textLength="136" x="36" y="44.1467">IControlArgDecoder</text><line style="stroke:#181818;stroke-width:0.5;" x1="8" x2="174" y1="55.3" y2="55.3"/><line style="stroke:#181818;stroke-width:0.5;" x1="8" x2="174" y1="63.3" y2="63.3"/></g><!--class IControlArg--><g id="elem_IControlArg"><rect codeLine="3" fill="#F1F1F1" height="80.5938" id="IControlArg" rx="2.5" ry="2.5" style="stroke:#181818;stroke-width:0.5;" width="157" x="275.5" y="7"/><ellipse cx="312.55" cy="23" fill="#B4A7E5" rx="11" ry="11" style="stroke:#181818;stroke-width:1.0;"/><path d="M308.4719,18.7656 L308.4719,16.6094 L315.8625,16.6094 L315.8625,18.7656 L313.3938,18.7656 L313.3938,26.8438 L315.8625,26.8438 L315.8625,29 L308.4719,29 L308.4719,26.8438 L310.9406,26.8438 L310.9406,18.7656 L308.4719,18.7656 Z " fill="#000000"/><text fill="#000000" font-family="sans-serif" font-size="14" font-style="italic" lengthAdjust="spacing" textLength="76" x="331.45" y="27.8467">IControlArg</text><line style="stroke:#181818;stroke-width:0.5;" x1="276.5" x2="431.5" y1="39" y2="39"/><text fill="#000000" font-family="sans-serif" font-size="14" lengthAdjust="spacing" textLength="145" x="281.5" y="55.9951">DefaultType: DltType</text><text fill="#000000" font-family="sans-serif" font-size="14" lengthAdjust="spacing" textLength="88" x="281.5" y="72.292">ServiceId: int</text><line style="stroke:#181818;stroke-width:0.5;" x1="276.5" x2="431.5" y1="79.5938" y2="79.5938"/></g><!--class ControlRequest--><g id="elem_ControlRequest"><rect codeLine="8" fill="#F1F1F1" height="64.2969" id="ControlRequest" rx="2.5" ry="2.5" style="stroke:#181818;stroke-width:0.5;" width="289" x="9.5" y="173.04"/><ellipse cx="95.25" cy="189.04" fill="#ADD1B2" rx="11" ry="11" style="stroke:#181818;stroke-width:1.0;"/><path d="M98.2188,194.6806 Q97.6406,194.9775 97,195.1181 Q96.3594,195.2744 95.6563,195.2744 Q93.1563,195.2744 91.8281,193.6337 Q90.5156,191.9775 90.5156,188.8525 Q90.5156,185.7275 91.8281,184.0712 Q93.1563,182.415 95.6563,182.415 Q96.3594,182.415 97,182.5712 Q97.6563,182.7275 98.2188,183.0244 L98.2188,185.7431 Q97.5938,185.165 97,184.8994 Q96.4063,184.6181 95.7813,184.6181 Q94.4375,184.6181 93.75,185.6962 Q93.0625,186.7587 93.0625,188.8525 Q93.0625,190.9462 93.75,192.0244 Q94.4375,193.0869 95.7813,193.0869 Q96.4063,193.0869 97,192.8212 Q97.5938,192.54 98.2188,191.9619 L98.2188,194.6806 Z " fill="#000000"/><text fill="#000000" font-family="sans-serif" font-size="14" lengthAdjust="spacing" textLength="109" x="115.75" y="193.8867">ControlRequest</text><line style="stroke:#181818;stroke-width:0.5;" x1="10.5" x2="297.5" y1="205.04" y2="205.04"/><text fill="#000000" font-family="sans-serif" font-size="14" lengthAdjust="spacing" textLength="277" x="15.5" y="222.0351">DltType: DltType = CONTROL_REQUEST</text><line style="stroke:#181818;stroke-width:0.5;" x1="10.5" x2="297.5" y1="229.3369" y2="229.3369"/></g><!--class ControlResponse--><g id="elem_ControlResponse"><rect codeLine="12" fill="#F1F1F1" height="113.1875" id="ControlResponse" rx="2.5" ry="2.5" style="stroke:#181818;stroke-width:0.5;" width="298" x="334" y="148.59"/><ellipse cx="418.25" cy="164.59" fill="#ADD1B2" rx="11" ry="11" style="stroke:#181818;stroke-width:1.0;"/><path d="M421.2188,170.2306 Q420.6406,170.5275 420,170.6681 Q419.3594,170.8244 418.6563,170.8244 Q416.1563,170.8244 414.8281,169.1837 Q413.5156,167.5275 413.5156,164.4025 Q413.5156,161.2775 414.8281,159.6212 Q416.1563,157.965 418.6563,157.965 Q419.3594,157.965 420,158.1212 Q420.6563,158.2775 421.2188,158.5744 L421.2188,161.2931 Q420.5938,160.715 420,160.4494 Q419.4063,160.1681 418.7813,160.1681 Q417.4375,160.1681 416.75,161.2462 Q416.0625,162.3087 416.0625,164.4025 Q416.0625,166.4962 416.75,167.5744 Q417.4375,168.6369 418.7813,168.6369 Q419.4063,168.6369 420,168.3712 Q420.5938,168.09 421.2188,167.5119 L421.2188,170.2306 Z " fill="#000000"/><text fill="#000000" font-family="sans-serif" font-size="14" lengthAdjust="spacing" textLength="121" x="438.75" y="169.4367">ControlResponse</text><line style="stroke:#181818;stroke-width:0.5;" x1="335" x2="631" y1="180.59" y2="180.59"/><text fill="#000000" font-family="sans-serif" font-size="14" lengthAdjust="spacing" textLength="161" x="340" y="197.5851">StatusOk: const int = 0</text><text fill="#000000" font-family="sans-serif" font-size="14" lengthAdjust="spacing" textLength="239" x="340" y="213.882">StatusNotSupported: const int = 1</text><text fill="#000000" font-family="sans-serif" font-size="14" lengthAdjust="spacing" textLength="175" x="340" y="230.1789">StatusError: const int = 2</text><line style="stroke:#181818;stroke-width:1.0;" x1="335" x2="631" y1="237.4806" y2="237.4806"/><text fill="#000000" font-family="sans-serif" font-size="14" lengthAdjust="spacing" textLength="286" x="340" y="254.4757">DltType: DltType = CONTROL_RESPONSE</text></g><!--class GetSoftwareVersionRequest--><g id="elem_GetSoftwareVersionRequest"><rect codeLine="25" fill="#F1F1F1" height="48" id="GetSoftwareVersionRequest" rx="2.5" ry="2.5" style="stroke:#181818;stroke-width:0.5;" width="228" x="40" y="322.78"/><ellipse cx="55" cy="338.78" fill="#ADD1B2" rx="11" ry="11" style="stroke:#181818;stroke-width:1.0;"/><path d="M57.9688,344.4206 Q57.3906,344.7175 56.75,344.8581 Q56.1094,345.0144 55.4063,345.0144 Q52.9063,345.0144 51.5781,343.3738 Q50.2656,341.7175 50.2656,338.5925 Q50.2656,335.4675 51.5781,333.8113 Q52.9063,332.155 55.4063,332.155 Q56.1094,332.155 56.75,332.3113 Q57.4063,332.4675 57.9688,332.7644 L57.9688,335.4831 Q57.3438,334.905 56.75,334.6394 Q56.1563,334.3581 55.5313,334.3581 Q54.1875,334.3581 53.5,335.4363 Q52.8125,336.4988 52.8125,338.5925 Q52.8125,340.6863 53.5,341.7644 Q54.1875,342.8269 55.5313,342.8269 Q56.1563,342.8269 56.75,342.5613 Q57.3438,342.28 57.9688,341.7019 L57.9688,344.4206 Z " fill="#000000"/><text fill="#000000" font-family="sans-serif" font-size="14" lengthAdjust="spacing" textLength="196" x="69" y="343.6267">GetSoftwareVersionRequest</text><line style="stroke:#181818;stroke-width:0.5;" x1="41" x2="267" y1="354.78" y2="354.78"/><line style="stroke:#181818;stroke-width:0.5;" x1="41" x2="267" y1="362.78" y2="362.78"/></g><!--class GetSoftwareVersionResponse--><g id="elem_GetSoftwareVersionResponse"><rect codeLine="28" fill="#F1F1F1" height="48" id="GetSoftwareVersionResponse" rx="2.5" ry="2.5" style="stroke:#181818;stroke-width:0.5;" width="240" x="363" y="322.78"/><ellipse cx="378" cy="338.78" fill="#ADD1B2" rx="11" ry="11" style="stroke:#181818;stroke-width:1.0;"/><path d="M380.9688,344.4206 Q380.3906,344.7175 379.75,344.8581 Q379.1094,345.0144 378.4063,345.0144 Q375.9063,345.0144 374.5781,343.3738 Q373.2656,341.7175 373.2656,338.5925 Q373.2656,335.4675 374.5781,333.8113 Q375.9063,332.155 378.4063,332.155 Q379.1094,332.155 379.75,332.3113 Q380.4063,332.4675 380.9688,332.7644 L380.9688,335.4831 Q380.3438,334.905 379.75,334.6394 Q379.1563,334.3581 378.5313,334.3581 Q377.1875,334.3581 376.5,335.4363 Q375.8125,336.4988 375.8125,338.5925 Q375.8125,340.6863 376.5,341.7644 Q377.1875,342.8269 378.5313,342.8269 Q379.1563,342.8269 379.75,342.5613 Q380.3438,342.28 380.9688,341.7019 L380.9688,344.4206 Z " fill="#000000"/><text fill="#000000" font-family="sans-serif" font-size="14" lengthAdjust="spacing" textLength="208" x="392" y="343.6267">GetSoftwareVersionResponse</text><line style="stroke:#181818;stroke-width:0.5;" x1="364" x2="602" y1="354.78" y2="354.78"/><line style="stroke:#181818;stroke-width:0.5;" x1="364" x2="602" y1="362.78" y2="362.78"/></g><!--link IControlArgDecoder to IControlArg--><g id="link_IControlArgDecoder_IControlArg"><path codeLine="20" d="M175.3,47.3 C205.3,47.3 239.08,47.3 269.13,47.3 " fill="none" id="IControlArgDecoder-to-IControlArg" style="stroke:#181818;stroke-width:1.0;"/><polygon fill="#181818" points="274.09,47.3,265.09,43.3,269.09,47.3,265.09,51.3,274.09,47.3" style="stroke:#181818;stroke-width:1.0;"/><text fill="#000000" font-family="sans-serif" font-size="13" lengthAdjust="spacing" textLength="64" x="193.25" y="40.3669">&#171;creates&#187;</text></g><!--reverse link IControlArg to ControlRequest--><g id="link_IControlArg_ControlRequest"><path codeLine="22" d="M286.59,100.84 C256.03,124.66 220.91,152.03 194.5,172.62 " fill="none" id="IControlArg-backto-ControlRequest" style="stroke:#181818;stroke-width:1.0;stroke-dasharray:7.0,7.0;"/><polygon fill="none" points="281.94,94.81,302.01,88.04,290.54,105.85,281.94,94.81" style="stroke:#181818;stroke-width:1.0;"/></g><!--reverse link IControlArg to ControlResponse--><g id="link_IControlArg_ControlResponse"><path codeLine="23" d="M399.91,103.78 C411.89,118.25 424.8,133.85 436.79,148.34 " fill="none" id="IControlArg-backto-ControlResponse" style="stroke:#181818;stroke-width:1.0;stroke-dasharray:7.0,7.0;"/><polygon fill="none" points="394.24,108.91,386.89,89.04,405.03,99.98,394.24,108.91" style="stroke:#181818;stroke-width:1.0;"/></g><!--reverse link ControlRequest to GetSoftwareVersionRequest--><g id="link_ControlRequest_GetSoftwareVersionRequest"><path codeLine="26" d="M154,258.35 C154,280.38 154,304.92 154,322.38 " fill="none" id="ControlRequest-backto-GetSoftwareVersionRequest" style="stroke:#181818;stroke-width:1.0;"/><polygon fill="none" points="147,258.51,154,238.51,161,258.51,147,258.51" style="stroke:#181818;stroke-width:1.0;"/></g><!--reverse link ControlResponse to GetSoftwareVersionResponse--><g id="link_ControlResponse_GetSoftwareVersionResponse"><path codeLine="29" d="M483,282.95 C483,297.39 483,311.43 483,322.56 " fill="none" id="ControlResponse-backto-GetSoftwareVersionResponse" style="stroke:#181818;stroke-width:1.0;"/><polygon fill="none" points="476,283.16,483,263.16,490,283.16,476,283.16" style="stroke:#181818;stroke-width:1.0;"/></g><!--SRC=[XP7HJeGm44NV-nNp0zseZmH9p4BC9WQKeg-cQGT391IdWyQu_hli0ic2AyvJC_VEcSbjrJ1IgGt2RkiQ9bVVq4kCnbaa8QfpAdm9w2l6KdSr5vyj1X0FZwEWaDuhWpiRG3ylleKmjVOUHaAERnrwdYWB0bp3DakBFBjxpfE7nqGLPm2-TOt7aQ1OS-Uprm1Ct-N3pXvoSQAbZbNNjeuOxTnrUU9AY1pDvQkZBANy_rHrdwKgETpwEqUG9ADPWW64eI7KZ3wAPYCGxZTsiyXgpJ1aCKLqYwnSoH-Qy0d9LwwP48lqmxsqSiM-mXitBd_ZR-9W-040]--></g></svg>