<?xml version="1.0" encoding="us-ascii" standalone="no"?><svg xmlns="http://www.w3.org/2000/svg" xmlns:xlink="http://www.w3.org/1999/xlink" contentStyleType="text/css" height="489px" preserveAspectRatio="none" style="width:1638px;height:489px;background:#FFFFFF;" version="1.1" viewBox="0 0 1638 489" width="1638px" zoomAndPan="magnify"><defs/><g><!--class IControlArg--><g id="elem_IControlArg"><rect codeLine="1" fill="#F1F1F1" height="48" id="IControlArg" rx="2.5" ry="2.5" style="stroke:#181818;stroke-width:0.5;" width="108" x="1450" y="10"/><ellipse cx="1465" cy="26" fill="#B4A7E5" rx="11" ry="11" style="stroke:#181818;stroke-width:1.0;"/><path d="M1460.9219,21.7656 L1460.9219,19.6094 L1468.3125,19.6094 L1468.3125,21.7656 L1465.8438,21.7656 L1465.8438,29.8438 L1468.3125,29.8438 L1468.3125,32 L1460.9219,32 L1460.9219,29.8438 L1463.3906,29.8438 L1463.3906,21.7656 L1460.9219,21.7656 Z " fill="#000000"/><text fill="#000000" font-family="sans-serif" font-size="14" font-style="italic" lengthAdjust="spacing" textLength="76" x="1479" y="30.8467">IControlArg</text><line style="stroke:#181818;stroke-width:0.5;" x1="1451" x2="1557" y1="42" y2="42"/><line style="stroke:#181818;stroke-width:0.5;" x1="1451" x2="1557" y1="50" y2="50"/></g><!--class ControlRequest--><g id="elem_ControlRequest"><rect codeLine="2" fill="#F1F1F1" height="48" id="ControlRequest" rx="2.5" ry="2.5" style="stroke:#181818;stroke-width:0.5;" width="141" x="1433.5" y="119"/><ellipse cx="1448.5" cy="135" fill="#ADD1B2" rx="11" ry="11" style="stroke:#181818;stroke-width:1.0;"/><path d="M1451.4688,140.6406 Q1450.8906,140.9375 1450.25,141.0781 Q1449.6094,141.2344 1448.9063,141.2344 Q1446.4063,141.2344 1445.0781,139.5938 Q1443.7656,137.9375 1443.7656,134.8125 Q1443.7656,131.6875 1445.0781,130.0313 Q1446.4063,128.375 1448.9063,128.375 Q1449.6094,128.375 1450.25,128.5313 Q1450.9063,128.6875 1451.4688,128.9844 L1451.4688,131.7031 Q1450.8438,131.125 1450.25,130.8594 Q1449.6563,130.5781 1449.0313,130.5781 Q1447.6875,130.5781 1447,131.6563 Q1446.3125,132.7188 1446.3125,134.8125 Q1446.3125,136.9063 1447,137.9844 Q1447.6875,139.0469 1449.0313,139.0469 Q1449.6563,139.0469 1450.25,138.7813 Q1450.8438,138.5 1451.4688,137.9219 L1451.4688,140.6406 Z " fill="#000000"/><text fill="#000000" font-family="sans-serif" font-size="14" lengthAdjust="spacing" textLength="109" x="1462.5" y="139.8467">ControlRequest</text><line style="stroke:#181818;stroke-width:0.5;" x1="1434.5" x2="1573.5" y1="151" y2="151"/><line style="stroke:#181818;stroke-width:0.5;" x1="1434.5" x2="1573.5" y1="159" y2="159"/></g><!--class SwInjectionRequest--><g id="elem_SwInjectionRequest"><rect codeLine="4" fill="#F1F1F1" height="64.2969" id="SwInjectionRequest" rx="2.5" ry="2.5" style="stroke:#181818;stroke-width:0.5;" width="254" x="1377" y="244.3"/><ellipse cx="1431.25" cy="260.3" fill="#ADD1B2" rx="11" ry="11" style="stroke:#181818;stroke-width:1.0;"/><path d="M1434.2188,265.9406 Q1433.6406,266.2375 1433,266.3781 Q1432.3594,266.5344 1431.6563,266.5344 Q1429.1563,266.5344 1427.8281,264.8937 Q1426.5156,263.2375 1426.5156,260.1125 Q1426.5156,256.9875 1427.8281,255.3312 Q1429.1563,253.675 1431.6563,253.675 Q1432.3594,253.675 1433,253.8312 Q1433.6563,253.9875 1434.2188,254.2844 L1434.2188,257.0031 Q1433.5938,256.425 1433,256.1594 Q1432.4063,255.8781 1431.7813,255.8781 Q1430.4375,255.8781 1429.75,256.9562 Q1429.0625,258.0187 1429.0625,260.1125 Q1429.0625,262.2062 1429.75,263.2844 Q1430.4375,264.3469 1431.7813,264.3469 Q1432.4063,264.3469 1433,264.0812 Q1433.5938,263.8 1434.2188,263.2219 L1434.2188,265.9406 Z " fill="#000000"/><text fill="#000000" font-family="sans-serif" font-size="14" lengthAdjust="spacing" textLength="137" x="1451.75" y="265.1467">SwInjectionRequest</text><line style="stroke:#181818;stroke-width:0.5;" x1="1378" x2="1630" y1="276.3" y2="276.3"/><line style="stroke:#181818;stroke-width:0.5;" x1="1378" x2="1630" y1="284.3" y2="284.3"/><text fill="#000000" font-family="sans-serif" font-size="14" lengthAdjust="spacing" textLength="242" x="1383" y="301.2951">.ctor(serviceId: int, payLoad: data[])</text></g><!--class MyCustomSwInjectionRequest--><g id="elem_MyCustomSwInjectionRequest"><rect codeLine="7" fill="#F1F1F1" height="64.2969" id="MyCustomSwInjectionRequest" rx="2.5" ry="2.5" style="stroke:#181818;stroke-width:0.5;" width="254" x="1377" y="402.19"/><ellipse cx="1397.4" cy="418.19" fill="#ADD1B2" rx="11" ry="11" style="stroke:#181818;stroke-width:1.0;"/><path d="M1400.3688,423.8306 Q1399.7906,424.1275 1399.15,424.2681 Q1398.5094,424.4244 1397.8063,424.4244 Q1395.3063,424.4244 1393.9781,422.7837 Q1392.6656,421.1275 1392.6656,418.0025 Q1392.6656,414.8775 1393.9781,413.2212 Q1395.3063,411.565 1397.8063,411.565 Q1398.5094,411.565 1399.15,411.7212 Q1399.8063,411.8775 1400.3688,412.1744 L1400.3688,414.8931 Q1399.7438,414.315 1399.15,414.0494 Q1398.5563,413.7681 1397.9313,413.7681 Q1396.5875,413.7681 1395.9,414.8462 Q1395.2125,415.9087 1395.2125,418.0025 Q1395.2125,420.0962 1395.9,421.1744 Q1396.5875,422.2369 1397.9313,422.2369 Q1398.5563,422.2369 1399.15,421.9712 Q1399.7438,421.69 1400.3688,421.1119 L1400.3688,423.8306 Z " fill="#000000"/><text fill="#000000" font-family="sans-serif" font-size="14" lengthAdjust="spacing" textLength="210" x="1412.6" y="423.0367">MyCustomSwInjectionRequest</text><line style="stroke:#181818;stroke-width:0.5;" x1="1378" x2="1630" y1="434.19" y2="434.19"/><line style="stroke:#181818;stroke-width:0.5;" x1="1378" x2="1630" y1="442.19" y2="442.19"/><text fill="#000000" font-family="sans-serif" font-size="14" lengthAdjust="spacing" textLength="242" x="1383" y="459.1851">.ctor(serviceId: int, payLoad: data[])</text></g><!--class IControlArgDecoder--><g id="elem_IControlArgDecoder"><rect codeLine="15" fill="#F1F1F1" height="48" id="IControlArgDecoder" rx="2.5" ry="2.5" style="stroke:#181818;stroke-width:0.5;" width="168" x="1036" y="119"/><ellipse cx="1051" cy="135" fill="#B4A7E5" rx="11" ry="11" style="stroke:#181818;stroke-width:1.0;"/><path d="M1046.9219,130.7656 L1046.9219,128.6094 L1054.3125,128.6094 L1054.3125,130.7656 L1051.8438,130.7656 L1051.8438,138.8438 L1054.3125,138.8438 L1054.3125,141 L1046.9219,141 L1046.9219,138.8438 L1049.3906,138.8438 L1049.3906,130.7656 L1046.9219,130.7656 Z " fill="#000000"/><text fill="#000000" font-family="sans-serif" font-size="14" font-style="italic" lengthAdjust="spacing" textLength="136" x="1065" y="139.8467">IControlArgDecoder</text><line style="stroke:#181818;stroke-width:0.5;" x1="1037" x2="1203" y1="151" y2="151"/><line style="stroke:#181818;stroke-width:0.5;" x1="1037" x2="1203" y1="159" y2="159"/></g><!--class SwInjectionRequestDecoder--><g id="elem_SwInjectionRequestDecoder"><rect codeLine="17" fill="#F1F1F1" height="96.8906" id="SwInjectionRequestDecoder" rx="2.5" ry="2.5" style="stroke:#181818;stroke-width:0.5;" width="323" x="958.5" y="228"/><ellipse cx="1017.25" cy="244" fill="#ADD1B2" rx="11" ry="11" style="stroke:#181818;stroke-width:1.0;"/><path d="M1020.2188,249.6406 Q1019.6406,249.9375 1019,250.0781 Q1018.3594,250.2344 1017.6563,250.2344 Q1015.1563,250.2344 1013.8281,248.5937 Q1012.5156,246.9375 1012.5156,243.8125 Q1012.5156,240.6875 1013.8281,239.0312 Q1015.1563,237.375 1017.6563,237.375 Q1018.3594,237.375 1019,237.5312 Q1019.6563,237.6875 1020.2188,237.9844 L1020.2188,240.7031 Q1019.5938,240.125 1019,239.8594 Q1018.4063,239.5781 1017.7813,239.5781 Q1016.4375,239.5781 1015.75,240.6562 Q1015.0625,241.7187 1015.0625,243.8125 Q1015.0625,245.9062 1015.75,246.9844 Q1016.4375,248.0469 1017.7813,248.0469 Q1018.4063,248.0469 1019,247.7812 Q1019.5938,247.5 1020.2188,246.9219 L1020.2188,249.6406 Z " fill="#000000"/><text fill="#000000" font-family="sans-serif" font-size="14" lengthAdjust="spacing" textLength="197" x="1037.75" y="248.8467">SwInjectionRequestDecoder</text><line style="stroke:#181818;stroke-width:0.5;" x1="959.5" x2="1280.5" y1="260" y2="260"/><line style="stroke:#181818;stroke-width:0.5;" x1="959.5" x2="1280.5" y1="268" y2="268"/><polygon fill="#FFFF44" points="969.5,292.9453,973.5,296.9453,969.5,300.9453,965.5,296.9453" style="stroke:#B38D22;stroke-width:1.0;"/><text fill="#000000" font-family="sans-serif" font-size="14" lengthAdjust="spacing" textLength="229" x="978.5" y="284.9951">Decode(serviceId: int, length: int,</text><text fill="#000000" font-family="sans-serif" font-size="14" lengthAdjust="spacing" textLength="289" x="982.5" y="301.292">buffer: ReadOnlySpan&lt;byte&gt;, msbf: bool,</text><text fill="#000000" font-family="sans-serif" font-size="14" lengthAdjust="spacing" textLength="240" x="982.5" y="317.5889">service: IControlArg*): Result&lt;int&gt;</text></g><!--class MyCustomSwInjectionRequestDecoder--><g id="elem_MyCustomSwInjectionRequestDecoder"><rect codeLine="21" fill="#F1F1F1" height="96.8906" id="MyCustomSwInjectionRequestDecoder" rx="2.5" ry="2.5" style="stroke:#181818;stroke-width:0.5;" width="323" x="953.5" y="385.89"/><ellipse cx="977.95" cy="401.89" fill="#ADD1B2" rx="11" ry="11" style="stroke:#181818;stroke-width:1.0;"/><path d="M980.9188,407.5306 Q980.3406,407.8275 979.7,407.9681 Q979.0594,408.1244 978.3563,408.1244 Q975.8563,408.1244 974.5281,406.4838 Q973.2156,404.8275 973.2156,401.7025 Q973.2156,398.5775 974.5281,396.9213 Q975.8563,395.265 978.3563,395.265 Q979.0594,395.265 979.7,395.4213 Q980.3563,395.5775 980.9188,395.8744 L980.9188,398.5931 Q980.2938,398.015 979.7,397.7494 Q979.1063,397.4681 978.4813,397.4681 Q977.1375,397.4681 976.45,398.5463 Q975.7625,399.6088 975.7625,401.7025 Q975.7625,403.7963 976.45,404.8744 Q977.1375,405.9369 978.4813,405.9369 Q979.1063,405.9369 979.7,405.6713 Q980.2938,405.39 980.9188,404.8119 L980.9188,407.5306 Z " fill="#000000"/><text fill="#000000" font-family="sans-serif" font-size="14" lengthAdjust="spacing" textLength="270" x="994.05" y="406.7367">MyCustomSwInjectionRequestDecoder</text><line style="stroke:#181818;stroke-width:0.5;" x1="954.5" x2="1275.5" y1="417.89" y2="417.89"/><line style="stroke:#181818;stroke-width:0.5;" x1="954.5" x2="1275.5" y1="425.89" y2="425.89"/><polygon fill="#FFFF44" points="964.5,450.8353,968.5,454.8353,964.5,458.8353,960.5,454.8353" style="stroke:#B38D22;stroke-width:1.0;"/><text fill="#000000" font-family="sans-serif" font-size="14" lengthAdjust="spacing" textLength="229" x="973.5" y="442.8851">Decode(serviceId: int, length: int,</text><text fill="#000000" font-family="sans-serif" font-size="14" lengthAdjust="spacing" textLength="289" x="977.5" y="459.182">buffer: ReadOnlySpan&lt;byte&gt;, msbf: bool,</text><text fill="#000000" font-family="sans-serif" font-size="14" lengthAdjust="spacing" textLength="240" x="977.5" y="475.4789">service: IControlArg*): Result&lt;int&gt;</text></g><!--class IControlDltDecoder--><g id="elem_IControlDltDecoder"><rect codeLine="29" fill="#F1F1F1" height="48" id="IControlDltDecoder" rx="2.5" ry="2.5" style="stroke:#181818;stroke-width:0.5;" width="164" x="704" y="119"/><ellipse cx="719" cy="135" fill="#B4A7E5" rx="11" ry="11" style="stroke:#181818;stroke-width:1.0;"/><path d="M714.9219,130.7656 L714.9219,128.6094 L722.3125,128.6094 L722.3125,130.7656 L719.8438,130.7656 L719.8438,138.8438 L722.3125,138.8438 L722.3125,141 L714.9219,141 L714.9219,138.8438 L717.3906,138.8438 L717.3906,130.7656 L714.9219,130.7656 Z " fill="#000000"/><text fill="#000000" font-family="sans-serif" font-size="14" font-style="italic" lengthAdjust="spacing" textLength="132" x="733" y="139.8467">IControlDltDecoder</text><line style="stroke:#181818;stroke-width:0.5;" x1="705" x2="867" y1="151" y2="151"/><line style="stroke:#181818;stroke-width:0.5;" x1="705" x2="867" y1="159" y2="159"/></g><!--class ControlDltDecoder--><g id="elem_ControlDltDecoder"><rect codeLine="30" fill="#F1F1F1" height="80.5938" id="ControlDltDecoder" rx="2.5" ry="2.5" style="stroke:#181818;stroke-width:0.5;" width="275" x="648.5" y="236.15"/><ellipse cx="717.25" cy="252.15" fill="#ADD1B2" rx="11" ry="11" style="stroke:#181818;stroke-width:1.0;"/><path d="M720.2188,257.7906 Q719.6406,258.0875 719,258.2281 Q718.3594,258.3844 717.6563,258.3844 Q715.1563,258.3844 713.8281,256.7438 Q712.5156,255.0875 712.5156,251.9625 Q712.5156,248.8375 713.8281,247.1812 Q715.1563,245.525 717.6563,245.525 Q718.3594,245.525 719,245.6812 Q719.6563,245.8375 720.2188,246.1344 L720.2188,248.8531 Q719.5938,248.275 719,248.0094 Q718.4063,247.7281 717.7813,247.7281 Q716.4375,247.7281 715.75,248.8062 Q715.0625,249.8687 715.0625,251.9625 Q715.0625,254.0562 715.75,255.1344 Q716.4375,256.1969 717.7813,256.1969 Q718.4063,256.1969 719,255.9312 Q719.5938,255.65 720.2188,255.0719 L720.2188,257.7906 Z " fill="#000000"/><text fill="#000000" font-family="sans-serif" font-size="14" lengthAdjust="spacing" textLength="129" x="737.75" y="256.9967">ControlDltDecoder</text><line style="stroke:#181818;stroke-width:0.5;" x1="649.5" x2="922.5" y1="268.15" y2="268.15"/><line style="stroke:#181818;stroke-width:0.5;" x1="649.5" x2="922.5" y1="276.15" y2="276.15"/><polygon fill="#FFFF44" points="659.5,292.9469,663.5,296.9469,659.5,300.9469,655.5,296.9469" style="stroke:#B38D22;stroke-width:1.0;"/><text fill="#000000" font-family="sans-serif" font-size="14" lengthAdjust="spacing" textLength="213" x="668.5" y="293.1451">RegisterRequest(serviceId: int,</text><text fill="#000000" font-family="sans-serif" font-size="14" lengthAdjust="spacing" textLength="245" x="672.5" y="309.442">decoder: IControlArgDecoder): void</text></g><!--class MyCustomControlDltDecoder--><g id="elem_MyCustomControlDltDecoder"><rect codeLine="33" fill="#F1F1F1" height="48" id="MyCustomControlDltDecoder" rx="2.5" ry="2.5" style="stroke:#181818;stroke-width:0.5;" width="234" x="675" y="410.33"/><ellipse cx="690" cy="426.33" fill="#ADD1B2" rx="11" ry="11" style="stroke:#181818;stroke-width:1.0;"/><path d="M692.9688,431.9706 Q692.3906,432.2675 691.75,432.4081 Q691.1094,432.5644 690.4063,432.5644 Q687.9063,432.5644 686.5781,430.9238 Q685.2656,429.2675 685.2656,426.1425 Q685.2656,423.0175 686.5781,421.3613 Q687.9063,419.705 690.4063,419.705 Q691.1094,419.705 691.75,419.8613 Q692.4063,420.0175 692.9688,420.3144 L692.9688,423.0331 Q692.3438,422.455 691.75,422.1894 Q691.1563,421.9081 690.5313,421.9081 Q689.1875,421.9081 688.5,422.9863 Q687.8125,424.0488 687.8125,426.1425 Q687.8125,428.2363 688.5,429.3144 Q689.1875,430.3769 690.5313,430.3769 Q691.1563,430.3769 691.75,430.1113 Q692.3438,429.83 692.9688,429.2519 L692.9688,431.9706 Z " fill="#000000"/><text fill="#000000" font-family="sans-serif" font-size="14" lengthAdjust="spacing" textLength="202" x="704" y="431.1767">MyCustomControlDltDecoder</text><line style="stroke:#181818;stroke-width:0.5;" x1="676" x2="908" y1="442.33" y2="442.33"/><line style="stroke:#181818;stroke-width:0.5;" x1="676" x2="908" y1="450.33" y2="450.33"/></g><!--class ITraceDecoder--><g id="elem_ITraceDecoder"><rect codeLine="37" fill="#F1F1F1" height="48" id="ITraceDecoder" rx="2.5" ry="2.5" style="stroke:#181818;stroke-width:0.5;" width="246" x="394" y="10"/><ellipse cx="409" cy="26" fill="#B4A7E5" rx="11" ry="11" style="stroke:#181818;stroke-width:1.0;"/><path d="M404.9219,21.7656 L404.9219,19.6094 L412.3125,19.6094 L412.3125,21.7656 L409.8438,21.7656 L409.8438,29.8438 L412.3125,29.8438 L412.3125,32 L404.9219,32 L404.9219,29.8438 L407.3906,29.8438 L407.3906,21.7656 L404.9219,21.7656 Z " fill="#000000"/><text fill="#000000" font-family="sans-serif" font-size="14" font-style="italic" lengthAdjust="spacing" textLength="102" x="423" y="30.8467">ITraceDecoder</text><rect fill="#FFFFFF" height="15.9688" style="stroke:#181818;stroke-width:1.0;stroke-dasharray:2.0,2.0;" width="110" x="533" y="7"/><text fill="#000000" font-family="sans-serif" font-size="12" font-style="italic" lengthAdjust="spacing" textLength="108" x="534" y="19.1387">DltTraceLineBase</text><line style="stroke:#181818;stroke-width:0.5;" x1="395" x2="639" y1="42" y2="42"/><line style="stroke:#181818;stroke-width:0.5;" x1="395" x2="639" y1="50" y2="50"/></g><!--class DltTraceDecoderBase--><g id="elem_DltTraceDecoderBase"><rect codeLine="38" fill="#F1F1F1" height="48" id="DltTraceDecoderBase" rx="2.5" ry="2.5" style="stroke:#181818;stroke-width:0.5;" width="185" x="424.5" y="119"/><ellipse cx="439.5" cy="135" fill="#ADD1B2" rx="11" ry="11" style="stroke:#181818;stroke-width:1.0;"/><path d="M442.4688,140.6406 Q441.8906,140.9375 441.25,141.0781 Q440.6094,141.2344 439.9063,141.2344 Q437.4063,141.2344 436.0781,139.5938 Q434.7656,137.9375 434.7656,134.8125 Q434.7656,131.6875 436.0781,130.0313 Q437.4063,128.375 439.9063,128.375 Q440.6094,128.375 441.25,128.5313 Q441.9063,128.6875 442.4688,128.9844 L442.4688,131.7031 Q441.8438,131.125 441.25,130.8594 Q440.6563,130.5781 440.0313,130.5781 Q438.6875,130.5781 438,131.6563 Q437.3125,132.7188 437.3125,134.8125 Q437.3125,136.9063 438,137.9844 Q438.6875,139.0469 440.0313,139.0469 Q440.6563,139.0469 441.25,138.7813 Q441.8438,138.5 442.4688,137.9219 L442.4688,140.6406 Z " fill="#000000"/><text fill="#000000" font-family="sans-serif" font-size="14" lengthAdjust="spacing" textLength="153" x="453.5" y="139.8467">DltTraceDecoderBase</text><line style="stroke:#181818;stroke-width:0.5;" x1="425.5" x2="608.5" y1="151" y2="151"/><line style="stroke:#181818;stroke-width:0.5;" x1="425.5" x2="608.5" y1="159" y2="159"/></g><!--class DltFileTraceDecoder--><g id="elem_DltFileTraceDecoder"><rect codeLine="39" fill="#F1F1F1" height="48" id="DltFileTraceDecoder" rx="2.5" ry="2.5" style="stroke:#181818;stroke-width:0.5;" width="173" x="430.5" y="252.44"/><ellipse cx="445.5" cy="268.44" fill="#ADD1B2" rx="11" ry="11" style="stroke:#181818;stroke-width:1.0;"/><path d="M448.4688,274.0806 Q447.8906,274.3775 447.25,274.5181 Q446.6094,274.6744 445.9063,274.6744 Q443.4063,274.6744 442.0781,273.0337 Q440.7656,271.3775 440.7656,268.2525 Q440.7656,265.1275 442.0781,263.4712 Q443.4063,261.815 445.9063,261.815 Q446.6094,261.815 447.25,261.9712 Q447.9063,262.1275 448.4688,262.4244 L448.4688,265.1431 Q447.8438,264.565 447.25,264.2994 Q446.6563,264.0181 446.0313,264.0181 Q444.6875,264.0181 444,265.0962 Q443.3125,266.1587 443.3125,268.2525 Q443.3125,270.3462 444,271.4244 Q444.6875,272.4869 446.0313,272.4869 Q446.6563,272.4869 447.25,272.2212 Q447.8438,271.94 448.4688,271.3619 L448.4688,274.0806 Z " fill="#000000"/><text fill="#000000" font-family="sans-serif" font-size="14" lengthAdjust="spacing" textLength="141" x="459.5" y="273.2867">DltFileTraceDecoder</text><line style="stroke:#181818;stroke-width:0.5;" x1="431.5" x2="602.5" y1="284.44" y2="284.44"/><line style="stroke:#181818;stroke-width:0.5;" x1="431.5" x2="602.5" y1="292.44" y2="292.44"/></g><!--class MyCustomDltFileTraceDecoder--><g id="elem_MyCustomDltFileTraceDecoder"><rect codeLine="40" fill="#F1F1F1" height="48" id="MyCustomDltFileTraceDecoder" rx="2.5" ry="2.5" style="stroke:#181818;stroke-width:0.5;" width="246" x="394" y="410.33"/><ellipse cx="409" cy="426.33" fill="#ADD1B2" rx="11" ry="11" style="stroke:#181818;stroke-width:1.0;"/><path d="M411.9688,431.9706 Q411.3906,432.2675 410.75,432.4081 Q410.1094,432.5644 409.4063,432.5644 Q406.9063,432.5644 405.5781,430.9238 Q404.2656,429.2675 404.2656,426.1425 Q404.2656,423.0175 405.5781,421.3613 Q406.9063,419.705 409.4063,419.705 Q410.1094,419.705 410.75,419.8613 Q411.4063,420.0175 411.9688,420.3144 L411.9688,423.0331 Q411.3438,422.455 410.75,422.1894 Q410.1563,421.9081 409.5313,421.9081 Q408.1875,421.9081 407.5,422.9863 Q406.8125,424.0488 406.8125,426.1425 Q406.8125,428.2363 407.5,429.3144 Q408.1875,430.3769 409.5313,430.3769 Q410.1563,430.3769 410.75,430.1113 Q411.3438,429.83 411.9688,429.2519 L411.9688,431.9706 Z " fill="#000000"/><text fill="#000000" font-family="sans-serif" font-size="14" lengthAdjust="spacing" textLength="214" x="423" y="431.1767">MyCustomDltFileTraceDecoder</text><line style="stroke:#181818;stroke-width:0.5;" x1="395" x2="639" y1="442.33" y2="442.33"/><line style="stroke:#181818;stroke-width:0.5;" x1="395" x2="639" y1="450.33" y2="450.33"/></g><!--class ITraceReaderFactory--><g id="elem_ITraceReaderFactory"><rect codeLine="48" fill="#F1F1F1" height="48" id="ITraceReaderFactory" rx="2.5" ry="2.5" style="stroke:#181818;stroke-width:0.5;" width="286" x="7" y="119"/><ellipse cx="22" cy="135" fill="#B4A7E5" rx="11" ry="11" style="stroke:#181818;stroke-width:1.0;"/><path d="M17.9219,130.7656 L17.9219,128.6094 L25.3125,128.6094 L25.3125,130.7656 L22.8438,130.7656 L22.8438,138.8438 L25.3125,138.8438 L25.3125,141 L17.9219,141 L17.9219,138.8438 L20.3906,138.8438 L20.3906,130.7656 L17.9219,130.7656 Z " fill="#000000"/><text fill="#000000" font-family="sans-serif" font-size="14" font-style="italic" lengthAdjust="spacing" textLength="142" x="36" y="139.8467">ITraceReaderFactory</text><rect fill="#FFFFFF" height="15.9688" style="stroke:#181818;stroke-width:1.0;stroke-dasharray:2.0,2.0;" width="110" x="186" y="116"/><text fill="#000000" font-family="sans-serif" font-size="12" font-style="italic" lengthAdjust="spacing" textLength="108" x="187" y="128.1387">DltTraceLineBase</text><line style="stroke:#181818;stroke-width:0.5;" x1="8" x2="292" y1="151" y2="151"/><line style="stroke:#181818;stroke-width:0.5;" x1="8" x2="292" y1="159" y2="159"/></g><!--class TraceReaderFactory--><g id="elem_TraceReaderFactory"><rect codeLine="49" fill="#F1F1F1" height="48" id="TraceReaderFactory" rx="2.5" ry="2.5" style="stroke:#181818;stroke-width:0.5;" width="283" x="8.5" y="252.44"/><ellipse cx="23.5" cy="268.44" fill="#A9DCDF" rx="11" ry="11" style="stroke:#181818;stroke-width:1.0;"/><path d="M23.6094,263.7837 L22.4531,268.8619 L24.7813,268.8619 L23.6094,263.7837 Z M22.125,261.5494 L25.1094,261.5494 L28.4688,273.94 L26.0156,273.94 L25.25,270.8775 L21.9688,270.8775 L21.2188,273.94 L18.7813,273.94 L22.125,261.5494 Z " fill="#000000"/><text fill="#000000" font-family="sans-serif" font-size="14" font-style="italic" lengthAdjust="spacing" textLength="139" x="37.5" y="273.2867">TraceReaderFactory</text><rect fill="#FFFFFF" height="15.9688" style="stroke:#181818;stroke-width:1.0;stroke-dasharray:2.0,2.0;" width="110" x="184.5" y="249.44"/><text fill="#000000" font-family="sans-serif" font-size="12" font-style="italic" lengthAdjust="spacing" textLength="108" x="185.5" y="261.5787">DltTraceLineBase</text><line style="stroke:#181818;stroke-width:0.5;" x1="9.5" x2="290.5" y1="284.44" y2="284.44"/><line style="stroke:#181818;stroke-width:0.5;" x1="9.5" x2="290.5" y1="292.44" y2="292.44"/></g><!--class MyCustomDltFileTraceReaderFactory--><g id="elem_MyCustomDltFileTraceReaderFactory"><rect codeLine="50" fill="#F1F1F1" height="48" id="MyCustomDltFileTraceReaderFactory" rx="2.5" ry="2.5" style="stroke:#181818;stroke-width:0.5;" width="286" x="7" y="410.33"/><ellipse cx="22" cy="426.33" fill="#ADD1B2" rx="11" ry="11" style="stroke:#181818;stroke-width:1.0;"/><path d="M24.9688,431.9706 Q24.3906,432.2675 23.75,432.4081 Q23.1094,432.5644 22.4063,432.5644 Q19.9063,432.5644 18.5781,430.9238 Q17.2656,429.2675 17.2656,426.1425 Q17.2656,423.0175 18.5781,421.3613 Q19.9063,419.705 22.4063,419.705 Q23.1094,419.705 23.75,419.8613 Q24.4063,420.0175 24.9688,420.3144 L24.9688,423.0331 Q24.3438,422.455 23.75,422.1894 Q23.1563,421.9081 22.5313,421.9081 Q21.1875,421.9081 20.5,422.9863 Q19.8125,424.0488 19.8125,426.1425 Q19.8125,428.2363 20.5,429.3144 Q21.1875,430.3769 22.5313,430.3769 Q23.1563,430.3769 23.75,430.1113 Q24.3438,429.83 24.9688,429.2519 L24.9688,431.9706 Z " fill="#000000"/><text fill="#000000" font-family="sans-serif" font-size="14" lengthAdjust="spacing" textLength="254" x="36" y="431.1767">MyCustomDltFileTraceReaderFactory</text><line style="stroke:#181818;stroke-width:0.5;" x1="8" x2="292" y1="442.33" y2="442.33"/><line style="stroke:#181818;stroke-width:0.5;" x1="8" x2="292" y1="450.33" y2="450.33"/></g><!--reverse link IControlArg to ControlRequest--><g id="link_IControlArg_ControlRequest"><path codeLine="11" d="M1504,79.16 C1504,92.68 1504,107.01 1504,118.57 " fill="none" id="IControlArg-backto-ControlRequest" style="stroke:#181818;stroke-width:1.0;stroke-dasharray:7.0,7.0;"/><polygon fill="none" points="1497,79.48,1504,59.48,1511,79.48,1497,79.48" style="stroke:#181818;stroke-width:1.0;"/></g><!--reverse link ControlRequest to SwInjectionRequest--><g id="link_ControlRequest_SwInjectionRequest"><path codeLine="12" d="M1504,188.22 C1504,206.6 1504,227.5 1504,244.24 " fill="none" id="ControlRequest-backto-SwInjectionRequest" style="stroke:#181818;stroke-width:1.0;"/><polygon fill="none" points="1497,188.5,1504,168.5,1511,188.5,1497,188.5" style="stroke:#181818;stroke-width:1.0;"/></g><!--reverse link SwInjectionRequest to MyCustomSwInjectionRequest--><g id="link_SwInjectionRequest_MyCustomSwInjectionRequest"><path codeLine="13" d="M1504,329.64 C1504,353.56 1504,381.14 1504,401.83 " fill="none" id="SwInjectionRequest-backto-MyCustomSwInjectionRequest" style="stroke:#181818;stroke-width:1.0;"/><polygon fill="none" points="1497,329.99,1504,309.99,1511,329.99,1497,329.99" style="stroke:#181818;stroke-width:1.0;"/></g><!--reverse link IControlArgDecoder to SwInjectionRequestDecoder--><g id="link_IControlArgDecoder_SwInjectionRequestDecoder"><path codeLine="25" d="M1120,188.47 C1120,201.07 1120,214.85 1120,227.65 " fill="none" id="IControlArgDecoder-backto-SwInjectionRequestDecoder" style="stroke:#181818;stroke-width:1.0;stroke-dasharray:7.0,7.0;"/><polygon fill="none" points="1113,188.5,1120,168.5,1127,188.5,1113,188.5" style="stroke:#181818;stroke-width:1.0;"/></g><!--reverse link SwInjectionRequestDecoder to MyCustomSwInjectionRequestDecoder--><g id="link_SwInjectionRequestDecoder_MyCustomSwInjectionRequestDecoder"><path codeLine="26" d="M1117.81,345.62 C1117.38,359.05 1116.94,372.88 1116.54,385.47 " fill="none" id="SwInjectionRequestDecoder-backto-MyCustomSwInjectionRequestDecoder" style="stroke:#181818;stroke-width:1.0;"/><polygon fill="none" points="1110.84,345.83,1118.47,326.06,1124.83,346.28,1110.84,345.83" style="stroke:#181818;stroke-width:1.0;"/></g><!--link MyCustomSwInjectionRequestDecoder to MyCustomSwInjectionRequest--><g id="link_MyCustomSwInjectionRequestDecoder_MyCustomSwInjectionRequest"><path codeLine="27" d="M1276.87,434.33 C1308.2,434.33 1340.68,434.33 1370.95,434.33 " fill="none" id="MyCustomSwInjectionRequestDecoder-to-MyCustomSwInjectionRequest" style="stroke:#181818;stroke-width:1.0;"/><polygon fill="#181818" points="1375.58,434.33,1366.58,430.33,1370.58,434.33,1366.58,438.33,1375.58,434.33" style="stroke:#181818;stroke-width:1.0;"/><text fill="#000000" font-family="sans-serif" font-size="13" lengthAdjust="spacing" textLength="64" x="1294.75" y="427.3969">&#171;creates&#187;</text></g><!--reverse link IControlDltDecoder to ControlDltDecoder--><g id="link_IControlDltDecoder_ControlDltDecoder"><path codeLine="34" d="M786,188.27 C786,203.6 786,220.69 786,235.65 " fill="none" id="IControlDltDecoder-backto-ControlDltDecoder" style="stroke:#181818;stroke-width:1.0;stroke-dasharray:7.0,7.0;"/><polygon fill="none" points="779,188.5,786,168.5,793,188.5,779,188.5" style="stroke:#181818;stroke-width:1.0;"/></g><!--reverse link ControlDltDecoder to MyCustomControlDltDecoder--><g id="link_ControlDltDecoder_MyCustomControlDltDecoder"><path codeLine="35" d="M788.33,338 C789.3,363.26 790.37,391.09 791.11,410.13 " fill="none" id="ControlDltDecoder-backto-MyCustomControlDltDecoder" style="stroke:#181818;stroke-width:1.0;"/><polygon fill="none" points="781.3,338.44,787.53,318.19,795.29,337.9,781.3,338.44" style="stroke:#181818;stroke-width:1.0;"/></g><!--reverse link ITraceDecoder to DltTraceDecoderBase--><g id="link_ITraceDecoder_DltTraceDecoderBase"><path codeLine="41" d="M517,79.16 C517,92.68 517,107.01 517,118.57 " fill="none" id="ITraceDecoder-backto-DltTraceDecoderBase" style="stroke:#181818;stroke-width:1.0;stroke-dasharray:7.0,7.0;"/><polygon fill="none" points="510,79.48,517,59.48,524,79.48,510,79.48" style="stroke:#181818;stroke-width:1.0;"/></g><!--reverse link DltTraceDecoderBase to DltFileTraceDecoder--><g id="link_DltTraceDecoderBase_DltFileTraceDecoder"><path codeLine="42" d="M517,188.48 C517,209.83 517,234.54 517,252.15 " fill="none" id="DltTraceDecoderBase-backto-DltFileTraceDecoder" style="stroke:#181818;stroke-width:1.0;"/><polygon fill="none" points="510,188.5,517,168.5,524,188.5,510,188.5" style="stroke:#181818;stroke-width:1.0;"/></g><!--reverse link DltFileTraceDecoder to MyCustomDltFileTraceDecoder--><g id="link_DltFileTraceDecoder_MyCustomDltFileTraceDecoder"><path codeLine="43" d="M517,321.77 C517,350.43 517,386.59 517,409.84 " fill="none" id="DltFileTraceDecoder-backto-MyCustomDltFileTraceDecoder" style="stroke:#181818;stroke-width:1.0;"/><polygon fill="none" points="510,321.78,517,301.78,524,321.78,510,321.78" style="stroke:#181818;stroke-width:1.0;"/></g><!--reverse link MyCustomDltFileTraceDecoder to MyCustomControlDltDecoder--><g id="link_MyCustomDltFileTraceDecoder_MyCustomControlDltDecoder"><path codeLine="45" d="M654.23,434.33 C661.04,434.33 667.84,434.33 674.64,434.33 " fill="none" id="MyCustomDltFileTraceDecoder-backto-MyCustomControlDltDecoder" style="stroke:#181818;stroke-width:1.0;"/><polygon fill="#181818" points="641.27,434.33,647.27,438.33,653.27,434.33,647.27,430.33,641.27,434.33" style="stroke:#181818;stroke-width:1.0;"/></g><!--reverse link MyCustomControlDltDecoder to MyCustomSwInjectionRequestDecoder--><g id="link_MyCustomControlDltDecoder_MyCustomSwInjectionRequestDecoder"><path codeLine="46" d="M923.02,434.33 C933.06,434.33 943.09,434.33 953.12,434.33 " fill="none" id="MyCustomControlDltDecoder-backto-MyCustomSwInjectionRequestDecoder" style="stroke:#181818;stroke-width:1.0;"/><polygon fill="#181818" points="910.34,434.33,916.34,438.33,922.34,434.33,916.34,430.33,910.34,434.33" style="stroke:#181818;stroke-width:1.0;"/></g><!--reverse link ITraceReaderFactory to TraceReaderFactory--><g id="link_ITraceReaderFactory_TraceReaderFactory"><path codeLine="52" d="M150,188.48 C150,209.83 150,234.54 150,252.15 " fill="none" id="ITraceReaderFactory-backto-TraceReaderFactory" style="stroke:#181818;stroke-width:1.0;stroke-dasharray:7.0,7.0;"/><polygon fill="none" points="143,188.5,150,168.5,157,188.5,143,188.5" style="stroke:#181818;stroke-width:1.0;"/></g><!--reverse link TraceReaderFactory to MyCustomDltFileTraceReaderFactory--><g id="link_TraceReaderFactory_MyCustomDltFileTraceReaderFactory"><path codeLine="53" d="M150,321.77 C150,350.43 150,386.59 150,409.84 " fill="none" id="TraceReaderFactory-backto-MyCustomDltFileTraceReaderFactory" style="stroke:#181818;stroke-width:1.0;"/><polygon fill="none" points="143,321.78,150,301.78,157,321.78,143,321.78" style="stroke:#181818;stroke-width:1.0;"/></g><!--link MyCustomDltFileTraceReaderFactory to MyCustomDltFileTraceDecoder--><g id="link_MyCustomDltFileTraceReaderFactory_MyCustomDltFileTraceDecoder"><path codeLine="54" d="M293.47,434.33 C324.6,434.33 357.35,434.33 387.89,434.33 " fill="none" id="MyCustomDltFileTraceReaderFactory-to-MyCustomDltFileTraceDecoder" style="stroke:#181818;stroke-width:1.0;"/><polygon fill="#181818" points="392.57,434.33,383.57,430.33,387.57,434.33,383.57,438.33,392.57,434.33" style="stroke:#181818;stroke-width:1.0;"/><text fill="#000000" font-family="sans-serif" font-size="13" lengthAdjust="spacing" textLength="64" x="311.5" y="427.3969">&#171;creates&#187;</text></g><!--SRC=[pLJ1Ri8m3BtdAoBjCX3b0wggqWP2GcAQ1BjjEwIjopALX2KfKxNjtvT260rrwQHTnWNPVdQUd-roOK3bB0KwdqXXb2nkr9ga1TEQEiSItahGXZZlwdqkNY4rN0eNeH-4sjyuDL9TQr0xdi8y2oaNPaIth5f8PgsC6VRuF21VhivTDIcraPk_roCDwZJw76VZS-g-QJ515Y2D48JB0TjDbX2EIJY5L6QWkaLp0DVhrS5iTLk0M9iNPpm9cfHv3YgaIs3PlIYgrPQ9AAaCn2EwqKaUqaJAOWzrfS8cg-6WJjLbOI9RCQwrwnl6V-7PrjQDkfCowMwcRwZ72lso12g8BwroIACeLS0Cw3Z6TcLQ_BpcNTt9VvH-2MkkRRehtPg1rJ8xP8J89bf5Tv9dhVDhqsWpyu-g0SMGJMNR6Kq57fJzSu78OlRsWWkuPHfYn_FeTxWwT8hCU07Dw5bl6C9xrJM6lO7uN7DOLSHt9WMMHIu4wT2krWKXEoD-OlTkjoPHtoge6Qi_knKo3vPeOps67aJ-LKxtFBnCGX0ARZW86iLsYUsdzYByYyO6uvtqDm00]--></g></svg>