<?xml version="1.0" encoding="UTF-8" standalone="no"?><svg xmlns="http://www.w3.org/2000/svg" xmlns:xlink="http://www.w3.org/1999/xlink" contentScriptType="application/ecmascript" contentStyleType="text/css" height="454px" preserveAspectRatio="none" style="width:1416px;height:454px;background:#FFFFFF;" version="1.1" viewBox="0 0 1416 454" width="1416px" zoomAndPan="magnify"><defs><filter height="300%" id="f2pbpxqc9gmpe" width="300%" x="-1" y="-1"><feGaussianBlur result="blurOut" stdDeviation="2.0"/><feColorMatrix in="blurOut" result="blurOut2" type="matrix" values="0 0 0 0 0 0 0 0 0 0 0 0 0 0 0 0 0 0 .4 0"/><feOffset dx="4.0" dy="4.0" in="blurOut2" result="blurOut3"/><feBlend in="SourceGraphic" in2="blurOut3" mode="normal"/></filter></defs><g><!--MD5=[6e5c003b2095e310fc9048ff7f2b88b9]
class IControlArg--><rect codeLine="1" fill="#FEFECE" filter="url(#f2pbpxqc9gmpe)" height="48" id="IControlArg" style="stroke:#A80036;stroke-width:1.5;" width="95" x="1254.5" y="10"/><ellipse cx="1269.5" cy="26" fill="#B4A7E5" rx="11" ry="11" style="stroke:#A80036;stroke-width:1.0;"/><path d="M1270.4531,22.6406 L1270.4531,29.2969 L1272.1719,29.2969 Q1272.7813,29.2969 1273.0469,29.5313 Q1273.3125,29.7656 1273.3125,30.1563 Q1273.3125,30.5313 1273.0469,30.7656 Q1272.7813,31 1272.1719,31 L1267.0313,31 Q1266.4219,31 1266.1563,30.7656 Q1265.8906,30.5313 1265.8906,30.1406 Q1265.8906,29.7656 1266.1563,29.5313 Q1266.4219,29.2969 1267.0313,29.2969 L1268.75,29.2969 L1268.75,22.6406 L1267.0313,22.6406 Q1266.4219,22.6406 1266.1563,22.4063 Q1265.8906,22.1719 1265.8906,21.7813 Q1265.8906,21.4063 1266.1563,21.1719 Q1266.4219,20.9375 1267.0313,20.9375 L1272.1719,20.9375 Q1272.7813,20.9375 1273.0469,21.1719 Q1273.3125,21.4063 1273.3125,21.7813 Q1273.3125,22.1719 1273.0469,22.4063 Q1272.7813,22.6406 1272.1719,22.6406 L1270.4531,22.6406 Z " fill="#000000"/><text fill="#000000" font-family="sans-serif" font-size="12" font-style="italic" lengthAdjust="spacing" textLength="63" x="1283.5" y="30.9102">IControlArg</text><line style="stroke:#A80036;stroke-width:1.5;" x1="1255.5" x2="1348.5" y1="42" y2="42"/><line style="stroke:#A80036;stroke-width:1.5;" x1="1255.5" x2="1348.5" y1="50" y2="50"/><!--MD5=[6f3b3c752d4c8a5e20802975ea046281]
class ControlRequest--><rect codeLine="2" fill="#FEFECE" filter="url(#f2pbpxqc9gmpe)" height="48" id="ControlRequest" style="stroke:#A80036;stroke-width:1.5;" width="119" x="1242.5" y="119"/><ellipse cx="1257.5" cy="135" fill="#ADD1B2" rx="11" ry="11" style="stroke:#A80036;stroke-width:1.0;"/><path d="M1260.2656,130.875 Q1260.4219,130.6563 1260.6094,130.5469 Q1260.7969,130.4375 1261.0156,130.4375 Q1261.3906,130.4375 1261.625,130.6953 Q1261.8594,130.9531 1261.8594,131.5625 L1261.8594,133.0156 Q1261.8594,133.625 1261.625,133.8906 Q1261.3906,134.1563 1261.0156,134.1563 Q1260.6719,134.1563 1260.4688,133.9531 Q1260.2656,133.7656 1260.1563,133.25 Q1260.1094,132.8906 1259.9219,132.7031 Q1259.5938,132.3281 1258.9844,132.1094 Q1258.375,131.8906 1257.75,131.8906 Q1256.9844,131.8906 1256.3516,132.2188 Q1255.7188,132.5469 1255.2266,133.2969 Q1254.7344,134.0469 1254.7344,135.0781 L1254.7344,136.1719 Q1254.7344,137.4063 1255.625,138.2266 Q1256.5156,139.0469 1258.1094,139.0469 Q1259.0469,139.0469 1259.7031,138.7969 Q1260.0938,138.6406 1260.5156,138.2031 Q1260.7813,137.9375 1260.9297,137.8594 Q1261.0781,137.7813 1261.2813,137.7813 Q1261.6094,137.7813 1261.8672,138.0391 Q1262.125,138.2969 1262.125,138.6406 Q1262.125,138.9844 1261.7813,139.3906 Q1261.2813,139.9688 1260.4844,140.2969 Q1259.4063,140.75 1258.1094,140.75 Q1256.5938,140.75 1255.3906,140.125 Q1254.4063,139.625 1253.7188,138.5547 Q1253.0313,137.4844 1253.0313,136.2031 L1253.0313,135.0469 Q1253.0313,133.7188 1253.6484,132.5703 Q1254.2656,131.4219 1255.3594,130.8047 Q1256.4531,130.1875 1257.6875,130.1875 Q1258.4219,130.1875 1259.0703,130.3516 Q1259.7188,130.5156 1260.2656,130.875 Z " fill="#000000"/><text fill="#000000" font-family="sans-serif" font-size="12" lengthAdjust="spacing" textLength="87" x="1271.5" y="139.9102">ControlRequest</text><line style="stroke:#A80036;stroke-width:1.5;" x1="1243.5" x2="1360.5" y1="151" y2="151"/><line style="stroke:#A80036;stroke-width:1.5;" x1="1243.5" x2="1360.5" y1="159" y2="159"/><!--MD5=[4375063488c0fb18789db003b1026c45]
class SwInjectionRequest--><rect codeLine="4" fill="#FEFECE" filter="url(#f2pbpxqc9gmpe)" height="61.8359" id="SwInjectionRequest" style="stroke:#A80036;stroke-width:1.5;" width="184" x="1210" y="235"/><ellipse cx="1243.9" cy="251" fill="#ADD1B2" rx="11" ry="11" style="stroke:#A80036;stroke-width:1.0;"/><path d="M1246.6656,246.875 Q1246.8219,246.6563 1247.0094,246.5469 Q1247.1969,246.4375 1247.4156,246.4375 Q1247.7906,246.4375 1248.025,246.6953 Q1248.2594,246.9531 1248.2594,247.5625 L1248.2594,249.0156 Q1248.2594,249.625 1248.025,249.8906 Q1247.7906,250.1563 1247.4156,250.1563 Q1247.0719,250.1563 1246.8688,249.9531 Q1246.6656,249.7656 1246.5563,249.25 Q1246.5094,248.8906 1246.3219,248.7031 Q1245.9938,248.3281 1245.3844,248.1094 Q1244.775,247.8906 1244.15,247.8906 Q1243.3844,247.8906 1242.7516,248.2188 Q1242.1188,248.5469 1241.6266,249.2969 Q1241.1344,250.0469 1241.1344,251.0781 L1241.1344,252.1719 Q1241.1344,253.4063 1242.025,254.2266 Q1242.9156,255.0469 1244.5094,255.0469 Q1245.4469,255.0469 1246.1031,254.7969 Q1246.4938,254.6406 1246.9156,254.2031 Q1247.1813,253.9375 1247.3297,253.8594 Q1247.4781,253.7813 1247.6813,253.7813 Q1248.0094,253.7813 1248.2672,254.0391 Q1248.525,254.2969 1248.525,254.6406 Q1248.525,254.9844 1248.1813,255.3906 Q1247.6813,255.9688 1246.8844,256.2969 Q1245.8063,256.75 1244.5094,256.75 Q1242.9938,256.75 1241.7906,256.125 Q1240.8063,255.625 1240.1188,254.5547 Q1239.4313,253.4844 1239.4313,252.2031 L1239.4313,251.0469 Q1239.4313,249.7188 1240.0484,248.5703 Q1240.6656,247.4219 1241.7594,246.8047 Q1242.8531,246.1875 1244.0875,246.1875 Q1244.8219,246.1875 1245.4703,246.3516 Q1246.1188,246.5156 1246.6656,246.875 Z " fill="#000000"/><text fill="#000000" font-family="sans-serif" font-size="12" lengthAdjust="spacing" textLength="110" x="1262.1" y="255.9102">SwInjectionRequest</text><line style="stroke:#A80036;stroke-width:1.5;" x1="1211" x2="1393" y1="267" y2="267"/><line style="stroke:#A80036;stroke-width:1.5;" x1="1211" x2="1393" y1="275" y2="275"/><text fill="#000000" font-family="sans-serif" font-size="11" lengthAdjust="spacing" textLength="172" x="1216" y="290.4189">.ctor(serviceId: int, payLoad: data[])</text><!--MD5=[7732b6042a6caab026ffb5392cfed951]
class MyCustomSwInjectionRequest--><rect codeLine="7" fill="#FEFECE" filter="url(#f2pbpxqc9gmpe)" height="61.8359" id="MyCustomSwInjectionRequest" style="stroke:#A80036;stroke-width:1.5;" width="200" x="1202" y="372"/><ellipse cx="1217" cy="388" fill="#ADD1B2" rx="11" ry="11" style="stroke:#A80036;stroke-width:1.0;"/><path d="M1219.7656,383.875 Q1219.9219,383.6563 1220.1094,383.5469 Q1220.2969,383.4375 1220.5156,383.4375 Q1220.8906,383.4375 1221.125,383.6953 Q1221.3594,383.9531 1221.3594,384.5625 L1221.3594,386.0156 Q1221.3594,386.625 1221.125,386.8906 Q1220.8906,387.1563 1220.5156,387.1563 Q1220.1719,387.1563 1219.9688,386.9531 Q1219.7656,386.7656 1219.6563,386.25 Q1219.6094,385.8906 1219.4219,385.7031 Q1219.0938,385.3281 1218.4844,385.1094 Q1217.875,384.8906 1217.25,384.8906 Q1216.4844,384.8906 1215.8516,385.2188 Q1215.2188,385.5469 1214.7266,386.2969 Q1214.2344,387.0469 1214.2344,388.0781 L1214.2344,389.1719 Q1214.2344,390.4063 1215.125,391.2266 Q1216.0156,392.0469 1217.6094,392.0469 Q1218.5469,392.0469 1219.2031,391.7969 Q1219.5938,391.6406 1220.0156,391.2031 Q1220.2813,390.9375 1220.4297,390.8594 Q1220.5781,390.7813 1220.7813,390.7813 Q1221.1094,390.7813 1221.3672,391.0391 Q1221.625,391.2969 1221.625,391.6406 Q1221.625,391.9844 1221.2813,392.3906 Q1220.7813,392.9688 1219.9844,393.2969 Q1218.9063,393.75 1217.6094,393.75 Q1216.0938,393.75 1214.8906,393.125 Q1213.9063,392.625 1213.2188,391.5547 Q1212.5313,390.4844 1212.5313,389.2031 L1212.5313,388.0469 Q1212.5313,386.7188 1213.1484,385.5703 Q1213.7656,384.4219 1214.8594,383.8047 Q1215.9531,383.1875 1217.1875,383.1875 Q1217.9219,383.1875 1218.5703,383.3516 Q1219.2188,383.5156 1219.7656,383.875 Z " fill="#000000"/><text fill="#000000" font-family="sans-serif" font-size="12" lengthAdjust="spacing" textLength="168" x="1231" y="392.9102">MyCustomSwInjectionRequest</text><line style="stroke:#A80036;stroke-width:1.5;" x1="1203" x2="1401" y1="404" y2="404"/><line style="stroke:#A80036;stroke-width:1.5;" x1="1203" x2="1401" y1="412" y2="412"/><text fill="#000000" font-family="sans-serif" font-size="11" lengthAdjust="spacing" textLength="172" x="1208" y="427.4189">.ctor(serviceId: int, payLoad: data[])</text><!--MD5=[7fb2afcb184e496e4ef7df201a12eb67]
class IControlArgDecoder--><rect codeLine="15" fill="#FEFECE" filter="url(#f2pbpxqc9gmpe)" height="48" id="IControlArgDecoder" style="stroke:#A80036;stroke-width:1.5;" width="142" x="890" y="119"/><ellipse cx="905" cy="135" fill="#B4A7E5" rx="11" ry="11" style="stroke:#A80036;stroke-width:1.0;"/><path d="M905.9531,131.6406 L905.9531,138.2969 L907.6719,138.2969 Q908.2813,138.2969 908.5469,138.5313 Q908.8125,138.7656 908.8125,139.1563 Q908.8125,139.5313 908.5469,139.7656 Q908.2813,140 907.6719,140 L902.5313,140 Q901.9219,140 901.6563,139.7656 Q901.3906,139.5313 901.3906,139.1406 Q901.3906,138.7656 901.6563,138.5313 Q901.9219,138.2969 902.5313,138.2969 L904.25,138.2969 L904.25,131.6406 L902.5313,131.6406 Q901.9219,131.6406 901.6563,131.4063 Q901.3906,131.1719 901.3906,130.7813 Q901.3906,130.4063 901.6563,130.1719 Q901.9219,129.9375 902.5313,129.9375 L907.6719,129.9375 Q908.2813,129.9375 908.5469,130.1719 Q908.8125,130.4063 908.8125,130.7813 Q908.8125,131.1719 908.5469,131.4063 Q908.2813,131.6406 907.6719,131.6406 L905.9531,131.6406 Z " fill="#000000"/><text fill="#000000" font-family="sans-serif" font-size="12" font-style="italic" lengthAdjust="spacing" textLength="110" x="919" y="139.9102">IControlArgDecoder</text><line style="stroke:#A80036;stroke-width:1.5;" x1="891" x2="1031" y1="151" y2="151"/><line style="stroke:#A80036;stroke-width:1.5;" x1="891" x2="1031" y1="159" y2="159"/><!--MD5=[71df6736bcbb43bd0d4c37749cbee684]
class SwInjectionRequestDecoder--><rect codeLine="17" fill="#FEFECE" filter="url(#f2pbpxqc9gmpe)" height="75.6719" id="SwInjectionRequestDecoder" style="stroke:#A80036;stroke-width:1.5;" width="297" x="812.5" y="228"/><ellipse cx="878.25" cy="244" fill="#ADD1B2" rx="11" ry="11" style="stroke:#A80036;stroke-width:1.0;"/><path d="M881.0156,239.875 Q881.1719,239.6563 881.3594,239.5469 Q881.5469,239.4375 881.7656,239.4375 Q882.1406,239.4375 882.375,239.6953 Q882.6094,239.9531 882.6094,240.5625 L882.6094,242.0156 Q882.6094,242.625 882.375,242.8906 Q882.1406,243.1563 881.7656,243.1563 Q881.4219,243.1563 881.2188,242.9531 Q881.0156,242.7656 880.9063,242.25 Q880.8594,241.8906 880.6719,241.7031 Q880.3438,241.3281 879.7344,241.1094 Q879.125,240.8906 878.5,240.8906 Q877.7344,240.8906 877.1016,241.2188 Q876.4688,241.5469 875.9766,242.2969 Q875.4844,243.0469 875.4844,244.0781 L875.4844,245.1719 Q875.4844,246.4063 876.375,247.2266 Q877.2656,248.0469 878.8594,248.0469 Q879.7969,248.0469 880.4531,247.7969 Q880.8438,247.6406 881.2656,247.2031 Q881.5313,246.9375 881.6797,246.8594 Q881.8281,246.7813 882.0313,246.7813 Q882.3594,246.7813 882.6172,247.0391 Q882.875,247.2969 882.875,247.6406 Q882.875,247.9844 882.5313,248.3906 Q882.0313,248.9688 881.2344,249.2969 Q880.1563,249.75 878.8594,249.75 Q877.3438,249.75 876.1406,249.125 Q875.1563,248.625 874.4688,247.5547 Q873.7813,246.4844 873.7813,245.2031 L873.7813,244.0469 Q873.7813,242.7188 874.3984,241.5703 Q875.0156,240.4219 876.1094,239.8047 Q877.2031,239.1875 878.4375,239.1875 Q879.1719,239.1875 879.8203,239.3516 Q880.4688,239.5156 881.0156,239.875 Z " fill="#000000"/><text fill="#000000" font-family="sans-serif" font-size="12" lengthAdjust="spacing" textLength="157" x="898.75" y="248.9102">SwInjectionRequestDecoder</text><line style="stroke:#A80036;stroke-width:1.5;" x1="813.5" x2="1108.5" y1="260" y2="260"/><line style="stroke:#A80036;stroke-width:1.5;" x1="813.5" x2="1108.5" y1="268" y2="268"/><polygon fill="#FFFF44" points="823.5,274,827.5,278,823.5,282,819.5,278" style="stroke:#B38D22;stroke-width:1.0;"/><text fill="#000000" font-family="sans-serif" font-size="11" lengthAdjust="spacing" textLength="157" x="832.5" y="283.4189">Decode(serviceId: int, length: int,</text><text fill="#000000" font-family="sans-serif" font-size="11" lengthAdjust="spacing" textLength="268" x="835.5" y="297.2549">buffer: ReadOnlySpan&lt;byte&gt;, service: IControlArg*): int</text><!--MD5=[dd7bfa9f240da4deaa80eb08a8561cdf]
class MyCustomSwInjectionRequestDecoder--><rect codeLine="21" fill="#FEFECE" filter="url(#f2pbpxqc9gmpe)" height="75.6719" id="MyCustomSwInjectionRequestDecoder" style="stroke:#A80036;stroke-width:1.5;" width="297" x="811.5" y="365"/><ellipse cx="849" cy="381" fill="#ADD1B2" rx="11" ry="11" style="stroke:#A80036;stroke-width:1.0;"/><path d="M851.7656,376.875 Q851.9219,376.6563 852.1094,376.5469 Q852.2969,376.4375 852.5156,376.4375 Q852.8906,376.4375 853.125,376.6953 Q853.3594,376.9531 853.3594,377.5625 L853.3594,379.0156 Q853.3594,379.625 853.125,379.8906 Q852.8906,380.1563 852.5156,380.1563 Q852.1719,380.1563 851.9688,379.9531 Q851.7656,379.7656 851.6563,379.25 Q851.6094,378.8906 851.4219,378.7031 Q851.0938,378.3281 850.4844,378.1094 Q849.875,377.8906 849.25,377.8906 Q848.4844,377.8906 847.8516,378.2188 Q847.2188,378.5469 846.7266,379.2969 Q846.2344,380.0469 846.2344,381.0781 L846.2344,382.1719 Q846.2344,383.4063 847.125,384.2266 Q848.0156,385.0469 849.6094,385.0469 Q850.5469,385.0469 851.2031,384.7969 Q851.5938,384.6406 852.0156,384.2031 Q852.2813,383.9375 852.4297,383.8594 Q852.5781,383.7813 852.7813,383.7813 Q853.1094,383.7813 853.3672,384.0391 Q853.625,384.2969 853.625,384.6406 Q853.625,384.9844 853.2813,385.3906 Q852.7813,385.9688 851.9844,386.2969 Q850.9063,386.75 849.6094,386.75 Q848.0938,386.75 846.8906,386.125 Q845.9063,385.625 845.2188,384.5547 Q844.5313,383.4844 844.5313,382.2031 L844.5313,381.0469 Q844.5313,379.7188 845.1484,378.5703 Q845.7656,377.4219 846.8594,376.8047 Q847.9531,376.1875 849.1875,376.1875 Q849.9219,376.1875 850.5703,376.3516 Q851.2188,376.5156 851.7656,376.875 Z " fill="#000000"/><text fill="#000000" font-family="sans-serif" font-size="12" lengthAdjust="spacing" textLength="215" x="868" y="385.9102">MyCustomSwInjectionRequestDecoder</text><line style="stroke:#A80036;stroke-width:1.5;" x1="812.5" x2="1107.5" y1="397" y2="397"/><line style="stroke:#A80036;stroke-width:1.5;" x1="812.5" x2="1107.5" y1="405" y2="405"/><polygon fill="#FFFF44" points="822.5,411,826.5,415,822.5,419,818.5,415" style="stroke:#B38D22;stroke-width:1.0;"/><text fill="#000000" font-family="sans-serif" font-size="11" lengthAdjust="spacing" textLength="157" x="831.5" y="420.4189">Decode(serviceId: int, length: int,</text><text fill="#000000" font-family="sans-serif" font-size="11" lengthAdjust="spacing" textLength="268" x="834.5" y="434.2549">buffer: ReadOnlySpan&lt;byte&gt;, service: IControlArg*): int</text><!--MD5=[56ef6c3cdcd90afa1639dddf226044ae]
class IControlDltDecoder--><rect codeLine="29" fill="#FEFECE" filter="url(#f2pbpxqc9gmpe)" height="48" id="IControlDltDecoder" style="stroke:#A80036;stroke-width:1.5;" width="138" x="608" y="119"/><ellipse cx="623" cy="135" fill="#B4A7E5" rx="11" ry="11" style="stroke:#A80036;stroke-width:1.0;"/><path d="M623.9531,131.6406 L623.9531,138.2969 L625.6719,138.2969 Q626.2813,138.2969 626.5469,138.5313 Q626.8125,138.7656 626.8125,139.1563 Q626.8125,139.5313 626.5469,139.7656 Q626.2813,140 625.6719,140 L620.5313,140 Q619.9219,140 619.6563,139.7656 Q619.3906,139.5313 619.3906,139.1406 Q619.3906,138.7656 619.6563,138.5313 Q619.9219,138.2969 620.5313,138.2969 L622.25,138.2969 L622.25,131.6406 L620.5313,131.6406 Q619.9219,131.6406 619.6563,131.4063 Q619.3906,131.1719 619.3906,130.7813 Q619.3906,130.4063 619.6563,130.1719 Q619.9219,129.9375 620.5313,129.9375 L625.6719,129.9375 Q626.2813,129.9375 626.5469,130.1719 Q626.8125,130.4063 626.8125,130.7813 Q626.8125,131.1719 626.5469,131.4063 Q626.2813,131.6406 625.6719,131.6406 L623.9531,131.6406 Z " fill="#000000"/><text fill="#000000" font-family="sans-serif" font-size="12" font-style="italic" lengthAdjust="spacing" textLength="106" x="637" y="139.9102">IControlDltDecoder</text><line style="stroke:#A80036;stroke-width:1.5;" x1="609" x2="745" y1="151" y2="151"/><line style="stroke:#A80036;stroke-width:1.5;" x1="609" x2="745" y1="159" y2="159"/><!--MD5=[19f09d2ea9f363fea798f3b34c0107b2]
class ControlDltDecoder--><rect codeLine="30" fill="#FEFECE" filter="url(#f2pbpxqc9gmpe)" height="75.6719" id="ControlDltDecoder" style="stroke:#A80036;stroke-width:1.5;" width="200" x="577" y="228"/><ellipse cx="621.75" cy="244" fill="#ADD1B2" rx="11" ry="11" style="stroke:#A80036;stroke-width:1.0;"/><path d="M624.5156,239.875 Q624.6719,239.6563 624.8594,239.5469 Q625.0469,239.4375 625.2656,239.4375 Q625.6406,239.4375 625.875,239.6953 Q626.1094,239.9531 626.1094,240.5625 L626.1094,242.0156 Q626.1094,242.625 625.875,242.8906 Q625.6406,243.1563 625.2656,243.1563 Q624.9219,243.1563 624.7188,242.9531 Q624.5156,242.7656 624.4063,242.25 Q624.3594,241.8906 624.1719,241.7031 Q623.8438,241.3281 623.2344,241.1094 Q622.625,240.8906 622,240.8906 Q621.2344,240.8906 620.6016,241.2188 Q619.9688,241.5469 619.4766,242.2969 Q618.9844,243.0469 618.9844,244.0781 L618.9844,245.1719 Q618.9844,246.4063 619.875,247.2266 Q620.7656,248.0469 622.3594,248.0469 Q623.2969,248.0469 623.9531,247.7969 Q624.3438,247.6406 624.7656,247.2031 Q625.0313,246.9375 625.1797,246.8594 Q625.3281,246.7813 625.5313,246.7813 Q625.8594,246.7813 626.1172,247.0391 Q626.375,247.2969 626.375,247.6406 Q626.375,247.9844 626.0313,248.3906 Q625.5313,248.9688 624.7344,249.2969 Q623.6563,249.75 622.3594,249.75 Q620.8438,249.75 619.6406,249.125 Q618.6563,248.625 617.9688,247.5547 Q617.2813,246.4844 617.2813,245.2031 L617.2813,244.0469 Q617.2813,242.7188 617.8984,241.5703 Q618.5156,240.4219 619.6094,239.8047 Q620.7031,239.1875 621.9375,239.1875 Q622.6719,239.1875 623.3203,239.3516 Q623.9688,239.5156 624.5156,239.875 Z " fill="#000000"/><text fill="#000000" font-family="sans-serif" font-size="12" lengthAdjust="spacing" textLength="102" x="642.25" y="248.9102">ControlDltDecoder</text><line style="stroke:#A80036;stroke-width:1.5;" x1="578" x2="776" y1="260" y2="260"/><line style="stroke:#A80036;stroke-width:1.5;" x1="578" x2="776" y1="268" y2="268"/><polygon fill="#FFFF44" points="588,274,592,278,588,282,584,278" style="stroke:#B38D22;stroke-width:1.0;"/><text fill="#000000" font-family="sans-serif" font-size="11" lengthAdjust="spacing" textLength="148" x="597" y="283.4189">RegisterRequest(serviceId: int,</text><text fill="#000000" font-family="sans-serif" font-size="11" lengthAdjust="spacing" textLength="171" x="600" y="297.2549">decoder: IControlArgDecoder): void</text><!--MD5=[7962476a84f97360923182afec0e15fe]
class MyCustomControlDltDecoder--><rect codeLine="33" fill="#FEFECE" filter="url(#f2pbpxqc9gmpe)" height="48" id="MyCustomControlDltDecoder" style="stroke:#A80036;stroke-width:1.5;" width="192" x="582" y="379"/><ellipse cx="597" cy="395" fill="#ADD1B2" rx="11" ry="11" style="stroke:#A80036;stroke-width:1.0;"/><path d="M599.7656,390.875 Q599.9219,390.6563 600.1094,390.5469 Q600.2969,390.4375 600.5156,390.4375 Q600.8906,390.4375 601.125,390.6953 Q601.3594,390.9531 601.3594,391.5625 L601.3594,393.0156 Q601.3594,393.625 601.125,393.8906 Q600.8906,394.1563 600.5156,394.1563 Q600.1719,394.1563 599.9688,393.9531 Q599.7656,393.7656 599.6563,393.25 Q599.6094,392.8906 599.4219,392.7031 Q599.0938,392.3281 598.4844,392.1094 Q597.875,391.8906 597.25,391.8906 Q596.4844,391.8906 595.8516,392.2188 Q595.2188,392.5469 594.7266,393.2969 Q594.2344,394.0469 594.2344,395.0781 L594.2344,396.1719 Q594.2344,397.4063 595.125,398.2266 Q596.0156,399.0469 597.6094,399.0469 Q598.5469,399.0469 599.2031,398.7969 Q599.5938,398.6406 600.0156,398.2031 Q600.2813,397.9375 600.4297,397.8594 Q600.5781,397.7813 600.7813,397.7813 Q601.1094,397.7813 601.3672,398.0391 Q601.625,398.2969 601.625,398.6406 Q601.625,398.9844 601.2813,399.3906 Q600.7813,399.9688 599.9844,400.2969 Q598.9063,400.75 597.6094,400.75 Q596.0938,400.75 594.8906,400.125 Q593.9063,399.625 593.2188,398.5547 Q592.5313,397.4844 592.5313,396.2031 L592.5313,395.0469 Q592.5313,393.7188 593.1484,392.5703 Q593.7656,391.4219 594.8594,390.8047 Q595.9531,390.1875 597.1875,390.1875 Q597.9219,390.1875 598.5703,390.3516 Q599.2188,390.5156 599.7656,390.875 Z " fill="#000000"/><text fill="#000000" font-family="sans-serif" font-size="12" lengthAdjust="spacing" textLength="160" x="611" y="399.9102">MyCustomControlDltDecoder</text><line style="stroke:#A80036;stroke-width:1.5;" x1="583" x2="773" y1="411" y2="411"/><line style="stroke:#A80036;stroke-width:1.5;" x1="583" x2="773" y1="419" y2="419"/><!--MD5=[4784c301fe13507917f315be539ce5d6]
class ITraceDecoder--><rect codeLine="37" fill="#FEFECE" filter="url(#f2pbpxqc9gmpe)" height="48" id="ITraceDecoder" style="stroke:#A80036;stroke-width:1.5;" width="216" x="337" y="10"/><ellipse cx="352" cy="26" fill="#B4A7E5" rx="11" ry="11" style="stroke:#A80036;stroke-width:1.0;"/><path d="M352.9531,22.6406 L352.9531,29.2969 L354.6719,29.2969 Q355.2813,29.2969 355.5469,29.5313 Q355.8125,29.7656 355.8125,30.1563 Q355.8125,30.5313 355.5469,30.7656 Q355.2813,31 354.6719,31 L349.5313,31 Q348.9219,31 348.6563,30.7656 Q348.3906,30.5313 348.3906,30.1406 Q348.3906,29.7656 348.6563,29.5313 Q348.9219,29.2969 349.5313,29.2969 L351.25,29.2969 L351.25,22.6406 L349.5313,22.6406 Q348.9219,22.6406 348.6563,22.4063 Q348.3906,22.1719 348.3906,21.7813 Q348.3906,21.4063 348.6563,21.1719 Q348.9219,20.9375 349.5313,20.9375 L354.6719,20.9375 Q355.2813,20.9375 355.5469,21.1719 Q355.8125,21.4063 355.8125,21.7813 Q355.8125,22.1719 355.5469,22.4063 Q355.2813,22.6406 354.6719,22.6406 L352.9531,22.6406 Z " fill="#000000"/><text fill="#000000" font-family="sans-serif" font-size="12" font-style="italic" lengthAdjust="spacing" textLength="82" x="366" y="30.9102">ITraceDecoder</text><rect fill="#FFFFFF" height="17.0938" style="stroke:#000000;stroke-width:1.0;stroke-dasharray:2.0,2.0;" width="100" x="456" y="7"/><text fill="#000000" font-family="sans-serif" font-size="12" font-style="italic" lengthAdjust="spacing" textLength="98" x="457" y="20.457">DltTraceLineBase</text><line style="stroke:#A80036;stroke-width:1.5;" x1="338" x2="552" y1="42" y2="42"/><line style="stroke:#A80036;stroke-width:1.5;" x1="338" x2="552" y1="50" y2="50"/><!--MD5=[362837878af92ba71ae40d034f8eec69]
class DltTraceDecoderBase--><rect codeLine="38" fill="#FEFECE" filter="url(#f2pbpxqc9gmpe)" height="48" id="DltTraceDecoderBase" style="stroke:#A80036;stroke-width:1.5;" width="154" x="368" y="119"/><ellipse cx="383" cy="135" fill="#ADD1B2" rx="11" ry="11" style="stroke:#A80036;stroke-width:1.0;"/><path d="M385.7656,130.875 Q385.9219,130.6563 386.1094,130.5469 Q386.2969,130.4375 386.5156,130.4375 Q386.8906,130.4375 387.125,130.6953 Q387.3594,130.9531 387.3594,131.5625 L387.3594,133.0156 Q387.3594,133.625 387.125,133.8906 Q386.8906,134.1563 386.5156,134.1563 Q386.1719,134.1563 385.9688,133.9531 Q385.7656,133.7656 385.6563,133.25 Q385.6094,132.8906 385.4219,132.7031 Q385.0938,132.3281 384.4844,132.1094 Q383.875,131.8906 383.25,131.8906 Q382.4844,131.8906 381.8516,132.2188 Q381.2188,132.5469 380.7266,133.2969 Q380.2344,134.0469 380.2344,135.0781 L380.2344,136.1719 Q380.2344,137.4063 381.125,138.2266 Q382.0156,139.0469 383.6094,139.0469 Q384.5469,139.0469 385.2031,138.7969 Q385.5938,138.6406 386.0156,138.2031 Q386.2813,137.9375 386.4297,137.8594 Q386.5781,137.7813 386.7813,137.7813 Q387.1094,137.7813 387.3672,138.0391 Q387.625,138.2969 387.625,138.6406 Q387.625,138.9844 387.2813,139.3906 Q386.7813,139.9688 385.9844,140.2969 Q384.9063,140.75 383.6094,140.75 Q382.0938,140.75 380.8906,140.125 Q379.9063,139.625 379.2188,138.5547 Q378.5313,137.4844 378.5313,136.2031 L378.5313,135.0469 Q378.5313,133.7188 379.1484,132.5703 Q379.7656,131.4219 380.8594,130.8047 Q381.9531,130.1875 383.1875,130.1875 Q383.9219,130.1875 384.5703,130.3516 Q385.2188,130.5156 385.7656,130.875 Z " fill="#000000"/><text fill="#000000" font-family="sans-serif" font-size="12" lengthAdjust="spacing" textLength="122" x="397" y="139.9102">DltTraceDecoderBase</text><line style="stroke:#A80036;stroke-width:1.5;" x1="369" x2="521" y1="151" y2="151"/><line style="stroke:#A80036;stroke-width:1.5;" x1="369" x2="521" y1="159" y2="159"/><!--MD5=[9716da447ba299fd08d9f03c7a2da576]
class DltFileTraceDecoder--><rect codeLine="39" fill="#FEFECE" filter="url(#f2pbpxqc9gmpe)" height="48" id="DltFileTraceDecoder" style="stroke:#A80036;stroke-width:1.5;" width="145" x="372.5" y="242"/><ellipse cx="387.5" cy="258" fill="#ADD1B2" rx="11" ry="11" style="stroke:#A80036;stroke-width:1.0;"/><path d="M390.2656,253.875 Q390.4219,253.6563 390.6094,253.5469 Q390.7969,253.4375 391.0156,253.4375 Q391.3906,253.4375 391.625,253.6953 Q391.8594,253.9531 391.8594,254.5625 L391.8594,256.0156 Q391.8594,256.625 391.625,256.8906 Q391.3906,257.1563 391.0156,257.1563 Q390.6719,257.1563 390.4688,256.9531 Q390.2656,256.7656 390.1563,256.25 Q390.1094,255.8906 389.9219,255.7031 Q389.5938,255.3281 388.9844,255.1094 Q388.375,254.8906 387.75,254.8906 Q386.9844,254.8906 386.3516,255.2188 Q385.7188,255.5469 385.2266,256.2969 Q384.7344,257.0469 384.7344,258.0781 L384.7344,259.1719 Q384.7344,260.4063 385.625,261.2266 Q386.5156,262.0469 388.1094,262.0469 Q389.0469,262.0469 389.7031,261.7969 Q390.0938,261.6406 390.5156,261.2031 Q390.7813,260.9375 390.9297,260.8594 Q391.0781,260.7813 391.2813,260.7813 Q391.6094,260.7813 391.8672,261.0391 Q392.125,261.2969 392.125,261.6406 Q392.125,261.9844 391.7813,262.3906 Q391.2813,262.9688 390.4844,263.2969 Q389.4063,263.75 388.1094,263.75 Q386.5938,263.75 385.3906,263.125 Q384.4063,262.625 383.7188,261.5547 Q383.0313,260.4844 383.0313,259.2031 L383.0313,258.0469 Q383.0313,256.7188 383.6484,255.5703 Q384.2656,254.4219 385.3594,253.8047 Q386.4531,253.1875 387.6875,253.1875 Q388.4219,253.1875 389.0703,253.3516 Q389.7188,253.5156 390.2656,253.875 Z " fill="#000000"/><text fill="#000000" font-family="sans-serif" font-size="12" lengthAdjust="spacing" textLength="113" x="401.5" y="262.9102">DltFileTraceDecoder</text><line style="stroke:#A80036;stroke-width:1.5;" x1="373.5" x2="516.5" y1="274" y2="274"/><line style="stroke:#A80036;stroke-width:1.5;" x1="373.5" x2="516.5" y1="282" y2="282"/><!--MD5=[50413efdf7c74c1ec0681cf09f205b4f]
class MyCustomDltFileTraceDecoder--><rect codeLine="40" fill="#FEFECE" filter="url(#f2pbpxqc9gmpe)" height="48" id="MyCustomDltFileTraceDecoder" style="stroke:#A80036;stroke-width:1.5;" width="203" x="343.5" y="379"/><ellipse cx="358.5" cy="395" fill="#ADD1B2" rx="11" ry="11" style="stroke:#A80036;stroke-width:1.0;"/><path d="M361.2656,390.875 Q361.4219,390.6563 361.6094,390.5469 Q361.7969,390.4375 362.0156,390.4375 Q362.3906,390.4375 362.625,390.6953 Q362.8594,390.9531 362.8594,391.5625 L362.8594,393.0156 Q362.8594,393.625 362.625,393.8906 Q362.3906,394.1563 362.0156,394.1563 Q361.6719,394.1563 361.4688,393.9531 Q361.2656,393.7656 361.1563,393.25 Q361.1094,392.8906 360.9219,392.7031 Q360.5938,392.3281 359.9844,392.1094 Q359.375,391.8906 358.75,391.8906 Q357.9844,391.8906 357.3516,392.2188 Q356.7188,392.5469 356.2266,393.2969 Q355.7344,394.0469 355.7344,395.0781 L355.7344,396.1719 Q355.7344,397.4063 356.625,398.2266 Q357.5156,399.0469 359.1094,399.0469 Q360.0469,399.0469 360.7031,398.7969 Q361.0938,398.6406 361.5156,398.2031 Q361.7813,397.9375 361.9297,397.8594 Q362.0781,397.7813 362.2813,397.7813 Q362.6094,397.7813 362.8672,398.0391 Q363.125,398.2969 363.125,398.6406 Q363.125,398.9844 362.7813,399.3906 Q362.2813,399.9688 361.4844,400.2969 Q360.4063,400.75 359.1094,400.75 Q357.5938,400.75 356.3906,400.125 Q355.4063,399.625 354.7188,398.5547 Q354.0313,397.4844 354.0313,396.2031 L354.0313,395.0469 Q354.0313,393.7188 354.6484,392.5703 Q355.2656,391.4219 356.3594,390.8047 Q357.4531,390.1875 358.6875,390.1875 Q359.4219,390.1875 360.0703,390.3516 Q360.7188,390.5156 361.2656,390.875 Z " fill="#000000"/><text fill="#000000" font-family="sans-serif" font-size="12" lengthAdjust="spacing" textLength="171" x="372.5" y="399.9102">MyCustomDltFileTraceDecoder</text><line style="stroke:#A80036;stroke-width:1.5;" x1="344.5" x2="545.5" y1="411" y2="411"/><line style="stroke:#A80036;stroke-width:1.5;" x1="344.5" x2="545.5" y1="419" y2="419"/><!--MD5=[a6fb610bc0c1ad93080ac34ca45d146b]
class ITraceReaderFactory--><rect codeLine="48" fill="#FEFECE" filter="url(#f2pbpxqc9gmpe)" height="48" id="ITraceReaderFactory" style="stroke:#A80036;stroke-width:1.5;" width="250" x="7" y="119"/><ellipse cx="22" cy="135" fill="#B4A7E5" rx="11" ry="11" style="stroke:#A80036;stroke-width:1.0;"/><path d="M22.9531,131.6406 L22.9531,138.2969 L24.6719,138.2969 Q25.2813,138.2969 25.5469,138.5313 Q25.8125,138.7656 25.8125,139.1563 Q25.8125,139.5313 25.5469,139.7656 Q25.2813,140 24.6719,140 L19.5313,140 Q18.9219,140 18.6563,139.7656 Q18.3906,139.5313 18.3906,139.1406 Q18.3906,138.7656 18.6563,138.5313 Q18.9219,138.2969 19.5313,138.2969 L21.25,138.2969 L21.25,131.6406 L19.5313,131.6406 Q18.9219,131.6406 18.6563,131.4063 Q18.3906,131.1719 18.3906,130.7813 Q18.3906,130.4063 18.6563,130.1719 Q18.9219,129.9375 19.5313,129.9375 L24.6719,129.9375 Q25.2813,129.9375 25.5469,130.1719 Q25.8125,130.4063 25.8125,130.7813 Q25.8125,131.1719 25.5469,131.4063 Q25.2813,131.6406 24.6719,131.6406 L22.9531,131.6406 Z " fill="#000000"/><text fill="#000000" font-family="sans-serif" font-size="12" font-style="italic" lengthAdjust="spacing" textLength="116" x="36" y="139.9102">ITraceReaderFactory</text><rect fill="#FFFFFF" height="17.0938" style="stroke:#000000;stroke-width:1.0;stroke-dasharray:2.0,2.0;" width="100" x="160" y="116"/><text fill="#000000" font-family="sans-serif" font-size="12" font-style="italic" lengthAdjust="spacing" textLength="98" x="161" y="129.457">DltTraceLineBase</text><line style="stroke:#A80036;stroke-width:1.5;" x1="8" x2="256" y1="151" y2="151"/><line style="stroke:#A80036;stroke-width:1.5;" x1="8" x2="256" y1="159" y2="159"/><!--MD5=[f4288dffdb2ee17e8277a82c8664138f]
class TraceReaderFactory--><rect codeLine="49" fill="#FEFECE" filter="url(#f2pbpxqc9gmpe)" height="48" id="TraceReaderFactory" style="stroke:#A80036;stroke-width:1.5;" width="246" x="9" y="242"/><ellipse cx="24" cy="258" fill="#A9DCDF" rx="11" ry="11" style="stroke:#A80036;stroke-width:1.0;"/><path d="M26.1875,259.7656 L22.0469,259.7656 L21.625,260.7969 L22.0469,260.7969 Q22.6563,260.7969 22.9219,261.0313 Q23.1875,261.2656 23.1875,261.6563 Q23.1875,262.0313 22.9219,262.2656 Q22.6563,262.5 22.0469,262.5 L19.75,262.5 Q19.1406,262.5 18.8828,262.2656 Q18.625,262.0313 18.625,261.6406 Q18.625,261.2656 18.8984,261.0234 Q19.1719,260.7813 19.7969,260.7969 L22.4688,254.1406 L21.3594,254.1406 Q20.75,254.1406 20.4844,253.9063 Q20.2188,253.6719 20.2188,253.2813 Q20.2188,252.9063 20.4844,252.6719 Q20.75,252.4375 21.3594,252.4375 L25.0313,252.4375 L28.4219,260.7969 Q29.0156,260.7969 29.2031,260.9375 Q29.5938,261.2031 29.5938,261.6563 Q29.5938,262.0313 29.3359,262.2656 Q29.0781,262.5 28.4688,262.5 L26.1719,262.5 Q25.5625,262.5 25.2969,262.2656 Q25.0313,262.0313 25.0313,261.6406 Q25.0313,261.2656 25.2969,261.0313 Q25.5625,260.7969 26.1719,260.7969 L26.5938,260.7969 L26.1875,259.7656 Z M25.4688,258.0625 L24.1094,254.6875 L22.7344,258.0625 L25.4688,258.0625 Z " fill="#000000"/><text fill="#000000" font-family="sans-serif" font-size="12" font-style="italic" lengthAdjust="spacing" textLength="112" x="38" y="262.9102">TraceReaderFactory</text><rect fill="#FFFFFF" height="17.0938" style="stroke:#000000;stroke-width:1.0;stroke-dasharray:2.0,2.0;" width="100" x="158" y="239"/><text fill="#000000" font-family="sans-serif" font-size="12" font-style="italic" lengthAdjust="spacing" textLength="98" x="159" y="252.457">DltTraceLineBase</text><line style="stroke:#A80036;stroke-width:1.5;" x1="10" x2="254" y1="274" y2="274"/><line style="stroke:#A80036;stroke-width:1.5;" x1="10" x2="254" y1="282" y2="282"/><!--MD5=[89c1c865885743c4205d8b8a220e0a1c]
class MyCustomDltFileTraceReaderFactory--><rect codeLine="50" fill="#FEFECE" filter="url(#f2pbpxqc9gmpe)" height="48" id="MyCustomDltFileTraceReaderFactory" style="stroke:#A80036;stroke-width:1.5;" width="236" x="14" y="379"/><ellipse cx="29" cy="395" fill="#ADD1B2" rx="11" ry="11" style="stroke:#A80036;stroke-width:1.0;"/><path d="M31.7656,390.875 Q31.9219,390.6563 32.1094,390.5469 Q32.2969,390.4375 32.5156,390.4375 Q32.8906,390.4375 33.125,390.6953 Q33.3594,390.9531 33.3594,391.5625 L33.3594,393.0156 Q33.3594,393.625 33.125,393.8906 Q32.8906,394.1563 32.5156,394.1563 Q32.1719,394.1563 31.9688,393.9531 Q31.7656,393.7656 31.6563,393.25 Q31.6094,392.8906 31.4219,392.7031 Q31.0938,392.3281 30.4844,392.1094 Q29.875,391.8906 29.25,391.8906 Q28.4844,391.8906 27.8516,392.2188 Q27.2188,392.5469 26.7266,393.2969 Q26.2344,394.0469 26.2344,395.0781 L26.2344,396.1719 Q26.2344,397.4063 27.125,398.2266 Q28.0156,399.0469 29.6094,399.0469 Q30.5469,399.0469 31.2031,398.7969 Q31.5938,398.6406 32.0156,398.2031 Q32.2813,397.9375 32.4297,397.8594 Q32.5781,397.7813 32.7813,397.7813 Q33.1094,397.7813 33.3672,398.0391 Q33.625,398.2969 33.625,398.6406 Q33.625,398.9844 33.2813,399.3906 Q32.7813,399.9688 31.9844,400.2969 Q30.9063,400.75 29.6094,400.75 Q28.0938,400.75 26.8906,400.125 Q25.9063,399.625 25.2188,398.5547 Q24.5313,397.4844 24.5313,396.2031 L24.5313,395.0469 Q24.5313,393.7188 25.1484,392.5703 Q25.7656,391.4219 26.8594,390.8047 Q27.9531,390.1875 29.1875,390.1875 Q29.9219,390.1875 30.5703,390.3516 Q31.2188,390.5156 31.7656,390.875 Z " fill="#000000"/><text fill="#000000" font-family="sans-serif" font-size="12" lengthAdjust="spacing" textLength="204" x="43" y="399.9102">MyCustomDltFileTraceReaderFactory</text><line style="stroke:#A80036;stroke-width:1.5;" x1="15" x2="249" y1="411" y2="411"/><line style="stroke:#A80036;stroke-width:1.5;" x1="15" x2="249" y1="419" y2="419"/><!--MD5=[33e8d8fd1ed4c9f6521d90b15b6778fc]
reverse link IControlArg to ControlRequest--><path codeLine="11" d="M1302,78.58 C1302,92.36 1302,107.06 1302,118.83 " fill="none" id="IControlArg-backto-ControlRequest" style="stroke:#A80036;stroke-width:1.0;stroke-dasharray:7.0,7.0;"/><polygon fill="none" points="1295,78.22,1302,58.22,1309,78.22,1295,78.22" style="stroke:#A80036;stroke-width:1.0;"/><!--MD5=[54a18200a6d743bc5b23a24982d3920a]
reverse link ControlRequest to SwInjectionRequest--><path codeLine="12" d="M1302,187.29 C1302,202.99 1302,220.38 1302,234.72 " fill="none" id="ControlRequest-backto-SwInjectionRequest" style="stroke:#A80036;stroke-width:1.0;"/><polygon fill="none" points="1295,187.04,1302,167.04,1309,187.04,1295,187.04" style="stroke:#A80036;stroke-width:1.0;"/><!--MD5=[cbf4e326bed24cd6ad2bbd48da1e1b2e]
reverse link SwInjectionRequest to MyCustomSwInjectionRequest--><path codeLine="13" d="M1302,317.57 C1302,335.82 1302,355.84 1302,371.8 " fill="none" id="SwInjectionRequest-backto-MyCustomSwInjectionRequest" style="stroke:#A80036;stroke-width:1.0;"/><polygon fill="none" points="1295,317.3,1302,297.3,1309,317.3,1295,317.3" style="stroke:#A80036;stroke-width:1.0;"/><!--MD5=[d8e11022c58561a4ff3bb35a6c7ffddd]
reverse link IControlArgDecoder to SwInjectionRequestDecoder--><path codeLine="25" d="M961,187.12 C961,200.4 961,214.91 961,227.77 " fill="none" id="IControlArgDecoder-backto-SwInjectionRequestDecoder" style="stroke:#A80036;stroke-width:1.0;stroke-dasharray:7.0,7.0;"/><polygon fill="none" points="954,187.04,961,167.04,968,187.04,954,187.04" style="stroke:#A80036;stroke-width:1.0;"/><!--MD5=[a9b150df8fd31a9e9d8cbad18ba7dcd6]
reverse link SwInjectionRequestDecoder to MyCustomSwInjectionRequestDecoder--><path codeLine="26" d="M960.58,324.33 C960.47,338.05 960.37,352.34 960.28,364.87 " fill="none" id="SwInjectionRequestDecoder-backto-MyCustomSwInjectionRequestDecoder" style="stroke:#A80036;stroke-width:1.0;"/><polygon fill="none" points="953.58,324.19,960.72,304.25,967.58,324.3,953.58,324.19" style="stroke:#A80036;stroke-width:1.0;"/><!--MD5=[1941109186c896146c5032152d4567f1]
link MyCustomSwInjectionRequestDecoder to MyCustomSwInjectionRequest--><path codeLine="27" d="M1108.51,403 C1138.21,403 1168.83,403 1196.7,403 " fill="none" id="MyCustomSwInjectionRequestDecoder-to-MyCustomSwInjectionRequest" style="stroke:#A80036;stroke-width:1.0;"/><polygon fill="#A80036" points="1201.88,403,1192.8915,398.9743,1196.88,402.9857,1192.8686,406.9743,1201.88,403" style="stroke:#A80036;stroke-width:1.0;"/><text fill="#000000" font-family="sans-serif" font-size="13" lengthAdjust="spacing" textLength="57" x="1126.75" y="396.4951">«creates»</text><!--MD5=[1827bed504f69dacd42eb8ab045a2387]
reverse link IControlDltDecoder to ControlDltDecoder--><path codeLine="34" d="M677,187.12 C677,200.4 677,214.91 677,227.77 " fill="none" id="IControlDltDecoder-backto-ControlDltDecoder" style="stroke:#A80036;stroke-width:1.0;stroke-dasharray:7.0,7.0;"/><polygon fill="none" points="670,187.04,677,167.04,684,187.04,670,187.04" style="stroke:#A80036;stroke-width:1.0;"/><!--MD5=[6676e780f9b9561ffa6425a05aec812b]
reverse link ControlDltDecoder to MyCustomControlDltDecoder--><path codeLine="35" d="M677.42,324.32 C677.57,343.51 677.72,363.82 677.83,378.86 " fill="none" id="ControlDltDecoder-backto-MyCustomControlDltDecoder" style="stroke:#A80036;stroke-width:1.0;"/><polygon fill="none" points="670.42,324.3,677.28,304.25,684.42,324.19,670.42,324.3" style="stroke:#A80036;stroke-width:1.0;"/><!--MD5=[d8c8878b6ffe9f80cdd0a66e601f7a4b]
reverse link ITraceDecoder to DltTraceDecoderBase--><path codeLine="41" d="M445,78.58 C445,92.36 445,107.06 445,118.83 " fill="none" id="ITraceDecoder-backto-DltTraceDecoderBase" style="stroke:#A80036;stroke-width:1.0;stroke-dasharray:7.0,7.0;"/><polygon fill="none" points="438,78.22,445,58.22,452,78.22,438,78.22" style="stroke:#A80036;stroke-width:1.0;"/><!--MD5=[0fd5b6e4cead314860bd13a184271ca1]
reverse link DltTraceDecoderBase to DltFileTraceDecoder--><path codeLine="42" d="M445,187.08 C445,205.46 445,226.18 445,241.63 " fill="none" id="DltTraceDecoderBase-backto-DltFileTraceDecoder" style="stroke:#A80036;stroke-width:1.0;"/><polygon fill="none" points="438,187.04,445,167.04,452,187.04,438,187.04" style="stroke:#A80036;stroke-width:1.0;"/><!--MD5=[d9dc4f33f038120fe31d45e6183a14d9]
reverse link DltFileTraceDecoder to MyCustomDltFileTraceDecoder--><path codeLine="43" d="M445,310.27 C445,332.96 445,359.86 445,378.64 " fill="none" id="DltFileTraceDecoder-backto-MyCustomDltFileTraceDecoder" style="stroke:#A80036;stroke-width:1.0;"/><polygon fill="none" points="438,310.21,445,290.21,452,310.21,438,310.21" style="stroke:#A80036;stroke-width:1.0;"/><!--MD5=[f4ede38222b85fc8ce9fa2b680b2c117]
reverse link MyCustomDltFileTraceDecoder to MyCustomControlDltDecoder--><path codeLine="45" d="M559.99,403 C567.25,403 574.5,403 581.75,403 " fill="none" id="MyCustomDltFileTraceDecoder-backto-MyCustomControlDltDecoder" style="stroke:#A80036;stroke-width:1.0;"/><polygon fill="#A80036" points="546.94,403,552.94,407,558.94,403,552.94,399,546.94,403" style="stroke:#A80036;stroke-width:1.0;"/><!--MD5=[d42bc518942e1c158da2762ad40d76e2]
reverse link MyCustomControlDltDecoder to MyCustomSwInjectionRequestDecoder--><path codeLine="46" d="M787.13,403 C795.13,403 803.14,403 811.14,403 " fill="none" id="MyCustomControlDltDecoder-backto-MyCustomSwInjectionRequestDecoder" style="stroke:#A80036;stroke-width:1.0;"/><polygon fill="#A80036" points="774.11,403,780.11,407,786.11,403,780.11,399,774.11,403" style="stroke:#A80036;stroke-width:1.0;"/><!--MD5=[6580599906a264bb26cd3a56238f2922]
reverse link ITraceReaderFactory to TraceReaderFactory--><path codeLine="52" d="M132,187.08 C132,205.46 132,226.18 132,241.63 " fill="none" id="ITraceReaderFactory-backto-TraceReaderFactory" style="stroke:#A80036;stroke-width:1.0;stroke-dasharray:7.0,7.0;"/><polygon fill="none" points="125,187.04,132,167.04,139,187.04,125,187.04" style="stroke:#A80036;stroke-width:1.0;"/><!--MD5=[6f3da295aac793ed3213ce79055d50ff]
reverse link TraceReaderFactory to MyCustomDltFileTraceReaderFactory--><path codeLine="53" d="M132,310.27 C132,332.96 132,359.86 132,378.64 " fill="none" id="TraceReaderFactory-backto-MyCustomDltFileTraceReaderFactory" style="stroke:#A80036;stroke-width:1.0;"/><polygon fill="none" points="125,310.21,132,290.21,139,310.21,125,310.21" style="stroke:#A80036;stroke-width:1.0;"/><!--MD5=[7fbbf135a5c6db1ac55c1ff7f77a4ac6]
link MyCustomDltFileTraceReaderFactory to MyCustomDltFileTraceDecoder--><path codeLine="54" d="M250.33,403 C279.18,403 309.87,403 338.14,403 " fill="none" id="MyCustomDltFileTraceReaderFactory-to-MyCustomDltFileTraceDecoder" style="stroke:#A80036;stroke-width:1.0;"/><polygon fill="#A80036" points="343.39,403,334.39,399,338.39,403,334.39,407,343.39,403" style="stroke:#A80036;stroke-width:1.0;"/><text fill="#000000" font-family="sans-serif" font-size="13" lengthAdjust="spacing" textLength="57" x="268.25" y="396.4951">«creates»</text><!--MD5=[c3a976ac23bbe8b458cf74d0544f3745]
@startuml DLT.ControlArgCustomDecoder
interface IControlArg
class ControlRequest

class SwInjectionRequest {
    .ctor(serviceId: int, payLoad: data[])
}
class MyCustomSwInjectionRequest {
    .ctor(serviceId: int, payLoad: data[])
}

IControlArg <|.d. ControlRequest
ControlRequest <|-d- SwInjectionRequest
SwInjectionRequest <|-d- MyCustomSwInjectionRequest

interface IControlArgDecoder

class SwInjectionRequestDecoder {
    #Decode(serviceId: int, length: int, \n buffer: ReadOnlySpan<byte>, service: IControlArg*): int
}

class MyCustomSwInjectionRequestDecoder {
    #Decode(serviceId: int, length: int, \n buffer: ReadOnlySpan<byte>, service: IControlArg*): int
}

IControlArgDecoder <|.d. SwInjectionRequestDecoder
SwInjectionRequestDecoder <|-d- MyCustomSwInjectionRequestDecoder
MyCustomSwInjectionRequestDecoder -r-> MyCustomSwInjectionRequest : <<creates>>

interface IControlDltDecoder
class ControlDltDecoder {
    #RegisterRequest(serviceId: int, \n decoder: IControlArgDecoder): void
}
class MyCustomControlDltDecoder
IControlDltDecoder <|.d. ControlDltDecoder
ControlDltDecoder <|-d- MyCustomControlDltDecoder

interface ITraceDecoder<DltTraceLineBase>
class DltTraceDecoderBase
class DltFileTraceDecoder
class MyCustomDltFileTraceDecoder
ITraceDecoder <|.d. DltTraceDecoderBase
DltTraceDecoderBase <|-d- DltFileTraceDecoder
DltFileTraceDecoder <|-d- MyCustomDltFileTraceDecoder

MyCustomDltFileTraceDecoder *-r- MyCustomControlDltDecoder
MyCustomControlDltDecoder *-r- MyCustomSwInjectionRequestDecoder

interface ITraceReaderFactory<DltTraceLineBase>
abstract class TraceReaderFactory<DltTraceLineBase>
class MyCustomDltFileTraceReaderFactory

ITraceReaderFactory <|.d. TraceReaderFactory
TraceReaderFactory <|-d- MyCustomDltFileTraceReaderFactory
MyCustomDltFileTraceReaderFactory -r-> MyCustomDltFileTraceDecoder : <<creates>>
@enduml

PlantUML version 1.2021.16(Wed Dec 08 18:25:22 CET 2021)
(GPL source distribution)
Java Runtime: Java(TM) SE Runtime Environment
JVM: Java HotSpot(TM) 64-Bit Server VM
Default Encoding: Cp1252
Language: en
Country: GB
--></g></svg>