<?xml version="1.0" encoding="UTF-8" standalone="no"?><svg xmlns="http://www.w3.org/2000/svg" xmlns:xlink="http://www.w3.org/1999/xlink" contentScriptType="application/ecmascript" contentStyleType="text/css" height="482px" preserveAspectRatio="none" style="width:1364px;height:482px;background:#FFFFFF;" version="1.1" viewBox="0 0 1364 482" width="1364px" zoomAndPan="magnify"><defs><filter height="300%" id="fzvy2gsx93x8w" width="300%" x="-1" y="-1"><feGaussianBlur result="blurOut" stdDeviation="2.0"/><feColorMatrix in="blurOut" result="blurOut2" type="matrix" values="0 0 0 0 0 0 0 0 0 0 0 0 0 0 0 0 0 0 .4 0"/><feOffset dx="4.0" dy="4.0" in="blurOut2" result="blurOut3"/><feBlend in="SourceGraphic" in2="blurOut3" mode="normal"/></filter></defs><g><!--MD5=[6e5c003b2095e310fc9048ff7f2b88b9]
class IControlArg--><rect codeLine="1" fill="#FEFECE" filter="url(#fzvy2gsx93x8w)" height="48" id="IControlArg" style="stroke:#A80036;stroke-width:1.5;" width="95" x="1202.5" y="10"/><ellipse cx="1217.5" cy="26" fill="#B4A7E5" rx="11" ry="11" style="stroke:#A80036;stroke-width:1.0;"/><path d="M1218.4531,22.6406 L1218.4531,29.2969 L1220.1719,29.2969 Q1220.7813,29.2969 1221.0469,29.5313 Q1221.3125,29.7656 1221.3125,30.1563 Q1221.3125,30.5313 1221.0469,30.7656 Q1220.7813,31 1220.1719,31 L1215.0313,31 Q1214.4219,31 1214.1563,30.7656 Q1213.8906,30.5313 1213.8906,30.1406 Q1213.8906,29.7656 1214.1563,29.5313 Q1214.4219,29.2969 1215.0313,29.2969 L1216.75,29.2969 L1216.75,22.6406 L1215.0313,22.6406 Q1214.4219,22.6406 1214.1563,22.4063 Q1213.8906,22.1719 1213.8906,21.7813 Q1213.8906,21.4063 1214.1563,21.1719 Q1214.4219,20.9375 1215.0313,20.9375 L1220.1719,20.9375 Q1220.7813,20.9375 1221.0469,21.1719 Q1221.3125,21.4063 1221.3125,21.7813 Q1221.3125,22.1719 1221.0469,22.4063 Q1220.7813,22.6406 1220.1719,22.6406 L1218.4531,22.6406 Z " fill="#000000"/><text fill="#000000" font-family="sans-serif" font-size="12" font-style="italic" lengthAdjust="spacing" textLength="63" x="1231.5" y="30.9102">IControlArg</text><line style="stroke:#A80036;stroke-width:1.5;" x1="1203.5" x2="1296.5" y1="42" y2="42"/><line style="stroke:#A80036;stroke-width:1.5;" x1="1203.5" x2="1296.5" y1="50" y2="50"/><!--MD5=[6f3b3c752d4c8a5e20802975ea046281]
class ControlRequest--><rect codeLine="2" fill="#FEFECE" filter="url(#fzvy2gsx93x8w)" height="48" id="ControlRequest" style="stroke:#A80036;stroke-width:1.5;" width="119" x="1190.5" y="119"/><ellipse cx="1205.5" cy="135" fill="#ADD1B2" rx="11" ry="11" style="stroke:#A80036;stroke-width:1.0;"/><path d="M1208.2656,130.875 Q1208.4219,130.6563 1208.6094,130.5469 Q1208.7969,130.4375 1209.0156,130.4375 Q1209.3906,130.4375 1209.625,130.6953 Q1209.8594,130.9531 1209.8594,131.5625 L1209.8594,133.0156 Q1209.8594,133.625 1209.625,133.8906 Q1209.3906,134.1563 1209.0156,134.1563 Q1208.6719,134.1563 1208.4688,133.9531 Q1208.2656,133.7656 1208.1563,133.25 Q1208.1094,132.8906 1207.9219,132.7031 Q1207.5938,132.3281 1206.9844,132.1094 Q1206.375,131.8906 1205.75,131.8906 Q1204.9844,131.8906 1204.3516,132.2188 Q1203.7188,132.5469 1203.2266,133.2969 Q1202.7344,134.0469 1202.7344,135.0781 L1202.7344,136.1719 Q1202.7344,137.4063 1203.625,138.2266 Q1204.5156,139.0469 1206.1094,139.0469 Q1207.0469,139.0469 1207.7031,138.7969 Q1208.0938,138.6406 1208.5156,138.2031 Q1208.7813,137.9375 1208.9297,137.8594 Q1209.0781,137.7813 1209.2813,137.7813 Q1209.6094,137.7813 1209.8672,138.0391 Q1210.125,138.2969 1210.125,138.6406 Q1210.125,138.9844 1209.7813,139.3906 Q1209.2813,139.9688 1208.4844,140.2969 Q1207.4063,140.75 1206.1094,140.75 Q1204.5938,140.75 1203.3906,140.125 Q1202.4063,139.625 1201.7188,138.5547 Q1201.0313,137.4844 1201.0313,136.2031 L1201.0313,135.0469 Q1201.0313,133.7188 1201.6484,132.5703 Q1202.2656,131.4219 1203.3594,130.8047 Q1204.4531,130.1875 1205.6875,130.1875 Q1206.4219,130.1875 1207.0703,130.3516 Q1207.7188,130.5156 1208.2656,130.875 Z " fill="#000000"/><text fill="#000000" font-family="sans-serif" font-size="12" lengthAdjust="spacing" textLength="87" x="1219.5" y="139.9102">ControlRequest</text><line style="stroke:#A80036;stroke-width:1.5;" x1="1191.5" x2="1308.5" y1="151" y2="151"/><line style="stroke:#A80036;stroke-width:1.5;" x1="1191.5" x2="1308.5" y1="159" y2="159"/><!--MD5=[4375063488c0fb18789db003b1026c45]
class SwInjectionRequest--><rect codeLine="4" fill="#FEFECE" filter="url(#fzvy2gsx93x8w)" height="61.8359" id="SwInjectionRequest" style="stroke:#A80036;stroke-width:1.5;" width="184" x="1158" y="242"/><ellipse cx="1191.9" cy="258" fill="#ADD1B2" rx="11" ry="11" style="stroke:#A80036;stroke-width:1.0;"/><path d="M1194.6656,253.875 Q1194.8219,253.6563 1195.0094,253.5469 Q1195.1969,253.4375 1195.4156,253.4375 Q1195.7906,253.4375 1196.025,253.6953 Q1196.2594,253.9531 1196.2594,254.5625 L1196.2594,256.0156 Q1196.2594,256.625 1196.025,256.8906 Q1195.7906,257.1563 1195.4156,257.1563 Q1195.0719,257.1563 1194.8688,256.9531 Q1194.6656,256.7656 1194.5563,256.25 Q1194.5094,255.8906 1194.3219,255.7031 Q1193.9938,255.3281 1193.3844,255.1094 Q1192.775,254.8906 1192.15,254.8906 Q1191.3844,254.8906 1190.7516,255.2188 Q1190.1188,255.5469 1189.6266,256.2969 Q1189.1344,257.0469 1189.1344,258.0781 L1189.1344,259.1719 Q1189.1344,260.4063 1190.025,261.2266 Q1190.9156,262.0469 1192.5094,262.0469 Q1193.4469,262.0469 1194.1031,261.7969 Q1194.4938,261.6406 1194.9156,261.2031 Q1195.1813,260.9375 1195.3297,260.8594 Q1195.4781,260.7813 1195.6813,260.7813 Q1196.0094,260.7813 1196.2672,261.0391 Q1196.525,261.2969 1196.525,261.6406 Q1196.525,261.9844 1196.1813,262.3906 Q1195.6813,262.9688 1194.8844,263.2969 Q1193.8063,263.75 1192.5094,263.75 Q1190.9938,263.75 1189.7906,263.125 Q1188.8063,262.625 1188.1188,261.5547 Q1187.4313,260.4844 1187.4313,259.2031 L1187.4313,258.0469 Q1187.4313,256.7188 1188.0484,255.5703 Q1188.6656,254.4219 1189.7594,253.8047 Q1190.8531,253.1875 1192.0875,253.1875 Q1192.8219,253.1875 1193.4703,253.3516 Q1194.1188,253.5156 1194.6656,253.875 Z " fill="#000000"/><text fill="#000000" font-family="sans-serif" font-size="12" lengthAdjust="spacing" textLength="110" x="1210.1" y="262.9102">SwInjectionRequest</text><line style="stroke:#A80036;stroke-width:1.5;" x1="1159" x2="1341" y1="274" y2="274"/><line style="stroke:#A80036;stroke-width:1.5;" x1="1159" x2="1341" y1="282" y2="282"/><text fill="#000000" font-family="sans-serif" font-size="11" lengthAdjust="spacing" textLength="172" x="1164" y="297.4189">.ctor(serviceId: int, payLoad: data[])</text><!--MD5=[7732b6042a6caab026ffb5392cfed951]
class MyCustomSwInjectionRequest--><rect codeLine="7" fill="#FEFECE" filter="url(#fzvy2gsx93x8w)" height="61.8359" id="MyCustomSwInjectionRequest" style="stroke:#A80036;stroke-width:1.5;" width="200" x="1150" y="393"/><ellipse cx="1165" cy="409" fill="#ADD1B2" rx="11" ry="11" style="stroke:#A80036;stroke-width:1.0;"/><path d="M1167.7656,404.875 Q1167.9219,404.6563 1168.1094,404.5469 Q1168.2969,404.4375 1168.5156,404.4375 Q1168.8906,404.4375 1169.125,404.6953 Q1169.3594,404.9531 1169.3594,405.5625 L1169.3594,407.0156 Q1169.3594,407.625 1169.125,407.8906 Q1168.8906,408.1563 1168.5156,408.1563 Q1168.1719,408.1563 1167.9688,407.9531 Q1167.7656,407.7656 1167.6563,407.25 Q1167.6094,406.8906 1167.4219,406.7031 Q1167.0938,406.3281 1166.4844,406.1094 Q1165.875,405.8906 1165.25,405.8906 Q1164.4844,405.8906 1163.8516,406.2188 Q1163.2188,406.5469 1162.7266,407.2969 Q1162.2344,408.0469 1162.2344,409.0781 L1162.2344,410.1719 Q1162.2344,411.4063 1163.125,412.2266 Q1164.0156,413.0469 1165.6094,413.0469 Q1166.5469,413.0469 1167.2031,412.7969 Q1167.5938,412.6406 1168.0156,412.2031 Q1168.2813,411.9375 1168.4297,411.8594 Q1168.5781,411.7813 1168.7813,411.7813 Q1169.1094,411.7813 1169.3672,412.0391 Q1169.625,412.2969 1169.625,412.6406 Q1169.625,412.9844 1169.2813,413.3906 Q1168.7813,413.9688 1167.9844,414.2969 Q1166.9063,414.75 1165.6094,414.75 Q1164.0938,414.75 1162.8906,414.125 Q1161.9063,413.625 1161.2188,412.5547 Q1160.5313,411.4844 1160.5313,410.2031 L1160.5313,409.0469 Q1160.5313,407.7188 1161.1484,406.5703 Q1161.7656,405.4219 1162.8594,404.8047 Q1163.9531,404.1875 1165.1875,404.1875 Q1165.9219,404.1875 1166.5703,404.3516 Q1167.2188,404.5156 1167.7656,404.875 Z " fill="#000000"/><text fill="#000000" font-family="sans-serif" font-size="12" lengthAdjust="spacing" textLength="168" x="1179" y="413.9102">MyCustomSwInjectionRequest</text><line style="stroke:#A80036;stroke-width:1.5;" x1="1151" x2="1349" y1="425" y2="425"/><line style="stroke:#A80036;stroke-width:1.5;" x1="1151" x2="1349" y1="433" y2="433"/><text fill="#000000" font-family="sans-serif" font-size="11" lengthAdjust="spacing" textLength="172" x="1156" y="448.4189">.ctor(serviceId: int, payLoad: data[])</text><!--MD5=[7fb2afcb184e496e4ef7df201a12eb67]
class IControlArgDecoder--><rect codeLine="15" fill="#FEFECE" filter="url(#fzvy2gsx93x8w)" height="48" id="IControlArgDecoder" style="stroke:#A80036;stroke-width:1.5;" width="142" x="862" y="119"/><ellipse cx="877" cy="135" fill="#B4A7E5" rx="11" ry="11" style="stroke:#A80036;stroke-width:1.0;"/><path d="M877.9531,131.6406 L877.9531,138.2969 L879.6719,138.2969 Q880.2813,138.2969 880.5469,138.5313 Q880.8125,138.7656 880.8125,139.1563 Q880.8125,139.5313 880.5469,139.7656 Q880.2813,140 879.6719,140 L874.5313,140 Q873.9219,140 873.6563,139.7656 Q873.3906,139.5313 873.3906,139.1406 Q873.3906,138.7656 873.6563,138.5313 Q873.9219,138.2969 874.5313,138.2969 L876.25,138.2969 L876.25,131.6406 L874.5313,131.6406 Q873.9219,131.6406 873.6563,131.4063 Q873.3906,131.1719 873.3906,130.7813 Q873.3906,130.4063 873.6563,130.1719 Q873.9219,129.9375 874.5313,129.9375 L879.6719,129.9375 Q880.2813,129.9375 880.5469,130.1719 Q880.8125,130.4063 880.8125,130.7813 Q880.8125,131.1719 880.5469,131.4063 Q880.2813,131.6406 879.6719,131.6406 L877.9531,131.6406 Z " fill="#000000"/><text fill="#000000" font-family="sans-serif" font-size="12" font-style="italic" lengthAdjust="spacing" textLength="110" x="891" y="139.9102">IControlArgDecoder</text><line style="stroke:#A80036;stroke-width:1.5;" x1="863" x2="1003" y1="151" y2="151"/><line style="stroke:#A80036;stroke-width:1.5;" x1="863" x2="1003" y1="159" y2="159"/><!--MD5=[71df6736bcbb43bd0d4c37749cbee684]
class SwInjectionRequestDecoder--><rect codeLine="17" fill="#FEFECE" filter="url(#fzvy2gsx93x8w)" height="89.5078" id="SwInjectionRequestDecoder" style="stroke:#A80036;stroke-width:1.5;" width="232" x="817" y="228"/><ellipse cx="851.35" cy="244" fill="#ADD1B2" rx="11" ry="11" style="stroke:#A80036;stroke-width:1.0;"/><path d="M854.1156,239.875 Q854.2719,239.6563 854.4594,239.5469 Q854.6469,239.4375 854.8656,239.4375 Q855.2406,239.4375 855.475,239.6953 Q855.7094,239.9531 855.7094,240.5625 L855.7094,242.0156 Q855.7094,242.625 855.475,242.8906 Q855.2406,243.1563 854.8656,243.1563 Q854.5219,243.1563 854.3188,242.9531 Q854.1156,242.7656 854.0063,242.25 Q853.9594,241.8906 853.7719,241.7031 Q853.4438,241.3281 852.8344,241.1094 Q852.225,240.8906 851.6,240.8906 Q850.8344,240.8906 850.2016,241.2188 Q849.5688,241.5469 849.0766,242.2969 Q848.5844,243.0469 848.5844,244.0781 L848.5844,245.1719 Q848.5844,246.4063 849.475,247.2266 Q850.3656,248.0469 851.9594,248.0469 Q852.8969,248.0469 853.5531,247.7969 Q853.9438,247.6406 854.3656,247.2031 Q854.6313,246.9375 854.7797,246.8594 Q854.9281,246.7813 855.1313,246.7813 Q855.4594,246.7813 855.7172,247.0391 Q855.975,247.2969 855.975,247.6406 Q855.975,247.9844 855.6313,248.3906 Q855.1313,248.9688 854.3344,249.2969 Q853.2563,249.75 851.9594,249.75 Q850.4438,249.75 849.2406,249.125 Q848.2563,248.625 847.5688,247.5547 Q846.8813,246.4844 846.8813,245.2031 L846.8813,244.0469 Q846.8813,242.7188 847.4984,241.5703 Q848.1156,240.4219 849.2094,239.8047 Q850.3031,239.1875 851.5375,239.1875 Q852.2719,239.1875 852.9203,239.3516 Q853.5688,239.5156 854.1156,239.875 Z " fill="#000000"/><text fill="#000000" font-family="sans-serif" font-size="12" lengthAdjust="spacing" textLength="157" x="869.65" y="248.9102">SwInjectionRequestDecoder</text><line style="stroke:#A80036;stroke-width:1.5;" x1="818" x2="1048" y1="260" y2="260"/><line style="stroke:#A80036;stroke-width:1.5;" x1="818" x2="1048" y1="268" y2="268"/><polygon fill="#FFFF44" points="828,274,832,278,828,282,824,278" style="stroke:#B38D22;stroke-width:1.0;"/><text fill="#000000" font-family="sans-serif" font-size="11" lengthAdjust="spacing" textLength="157" x="837" y="283.4189">Decode(serviceId: int, length: int,</text><text fill="#000000" font-family="sans-serif" font-size="11" lengthAdjust="spacing" textLength="200" x="840" y="297.2549">buffer: ReadOnlySpan&lt;byte&gt;, msbf: bool,</text><text fill="#000000" font-family="sans-serif" font-size="11" lengthAdjust="spacing" textLength="121" x="840" y="311.0908">service: IControlArg*): int</text><!--MD5=[dd7bfa9f240da4deaa80eb08a8561cdf]
class MyCustomSwInjectionRequestDecoder--><rect codeLine="21" fill="#FEFECE" filter="url(#fzvy2gsx93x8w)" height="89.5078" id="MyCustomSwInjectionRequestDecoder" style="stroke:#A80036;stroke-width:1.5;" width="247" x="809.5" y="379"/><ellipse cx="824.5" cy="395" fill="#ADD1B2" rx="11" ry="11" style="stroke:#A80036;stroke-width:1.0;"/><path d="M827.2656,390.875 Q827.4219,390.6563 827.6094,390.5469 Q827.7969,390.4375 828.0156,390.4375 Q828.3906,390.4375 828.625,390.6953 Q828.8594,390.9531 828.8594,391.5625 L828.8594,393.0156 Q828.8594,393.625 828.625,393.8906 Q828.3906,394.1563 828.0156,394.1563 Q827.6719,394.1563 827.4688,393.9531 Q827.2656,393.7656 827.1563,393.25 Q827.1094,392.8906 826.9219,392.7031 Q826.5938,392.3281 825.9844,392.1094 Q825.375,391.8906 824.75,391.8906 Q823.9844,391.8906 823.3516,392.2188 Q822.7188,392.5469 822.2266,393.2969 Q821.7344,394.0469 821.7344,395.0781 L821.7344,396.1719 Q821.7344,397.4063 822.625,398.2266 Q823.5156,399.0469 825.1094,399.0469 Q826.0469,399.0469 826.7031,398.7969 Q827.0938,398.6406 827.5156,398.2031 Q827.7813,397.9375 827.9297,397.8594 Q828.0781,397.7813 828.2813,397.7813 Q828.6094,397.7813 828.8672,398.0391 Q829.125,398.2969 829.125,398.6406 Q829.125,398.9844 828.7813,399.3906 Q828.2813,399.9688 827.4844,400.2969 Q826.4063,400.75 825.1094,400.75 Q823.5938,400.75 822.3906,400.125 Q821.4063,399.625 820.7188,398.5547 Q820.0313,397.4844 820.0313,396.2031 L820.0313,395.0469 Q820.0313,393.7188 820.6484,392.5703 Q821.2656,391.4219 822.3594,390.8047 Q823.4531,390.1875 824.6875,390.1875 Q825.4219,390.1875 826.0703,390.3516 Q826.7188,390.5156 827.2656,390.875 Z " fill="#000000"/><text fill="#000000" font-family="sans-serif" font-size="12" lengthAdjust="spacing" textLength="215" x="838.5" y="399.9102">MyCustomSwInjectionRequestDecoder</text><line style="stroke:#A80036;stroke-width:1.5;" x1="810.5" x2="1055.5" y1="411" y2="411"/><line style="stroke:#A80036;stroke-width:1.5;" x1="810.5" x2="1055.5" y1="419" y2="419"/><polygon fill="#FFFF44" points="820.5,425,824.5,429,820.5,433,816.5,429" style="stroke:#B38D22;stroke-width:1.0;"/><text fill="#000000" font-family="sans-serif" font-size="11" lengthAdjust="spacing" textLength="157" x="829.5" y="434.4189">Decode(serviceId: int, length: int,</text><text fill="#000000" font-family="sans-serif" font-size="11" lengthAdjust="spacing" textLength="200" x="832.5" y="448.2549">buffer: ReadOnlySpan&lt;byte&gt;, msbf: bool,</text><text fill="#000000" font-family="sans-serif" font-size="11" lengthAdjust="spacing" textLength="121" x="832.5" y="462.0908">service: IControlArg*): int</text><!--MD5=[56ef6c3cdcd90afa1639dddf226044ae]
class IControlDltDecoder--><rect codeLine="29" fill="#FEFECE" filter="url(#fzvy2gsx93x8w)" height="48" id="IControlDltDecoder" style="stroke:#A80036;stroke-width:1.5;" width="138" x="609" y="119"/><ellipse cx="624" cy="135" fill="#B4A7E5" rx="11" ry="11" style="stroke:#A80036;stroke-width:1.0;"/><path d="M624.9531,131.6406 L624.9531,138.2969 L626.6719,138.2969 Q627.2813,138.2969 627.5469,138.5313 Q627.8125,138.7656 627.8125,139.1563 Q627.8125,139.5313 627.5469,139.7656 Q627.2813,140 626.6719,140 L621.5313,140 Q620.9219,140 620.6563,139.7656 Q620.3906,139.5313 620.3906,139.1406 Q620.3906,138.7656 620.6563,138.5313 Q620.9219,138.2969 621.5313,138.2969 L623.25,138.2969 L623.25,131.6406 L621.5313,131.6406 Q620.9219,131.6406 620.6563,131.4063 Q620.3906,131.1719 620.3906,130.7813 Q620.3906,130.4063 620.6563,130.1719 Q620.9219,129.9375 621.5313,129.9375 L626.6719,129.9375 Q627.2813,129.9375 627.5469,130.1719 Q627.8125,130.4063 627.8125,130.7813 Q627.8125,131.1719 627.5469,131.4063 Q627.2813,131.6406 626.6719,131.6406 L624.9531,131.6406 Z " fill="#000000"/><text fill="#000000" font-family="sans-serif" font-size="12" font-style="italic" lengthAdjust="spacing" textLength="106" x="638" y="139.9102">IControlDltDecoder</text><line style="stroke:#A80036;stroke-width:1.5;" x1="610" x2="746" y1="151" y2="151"/><line style="stroke:#A80036;stroke-width:1.5;" x1="610" x2="746" y1="159" y2="159"/><!--MD5=[19f09d2ea9f363fea798f3b34c0107b2]
class ControlDltDecoder--><rect codeLine="30" fill="#FEFECE" filter="url(#fzvy2gsx93x8w)" height="75.6719" id="ControlDltDecoder" style="stroke:#A80036;stroke-width:1.5;" width="200" x="578" y="235"/><ellipse cx="622.75" cy="251" fill="#ADD1B2" rx="11" ry="11" style="stroke:#A80036;stroke-width:1.0;"/><path d="M625.5156,246.875 Q625.6719,246.6563 625.8594,246.5469 Q626.0469,246.4375 626.2656,246.4375 Q626.6406,246.4375 626.875,246.6953 Q627.1094,246.9531 627.1094,247.5625 L627.1094,249.0156 Q627.1094,249.625 626.875,249.8906 Q626.6406,250.1563 626.2656,250.1563 Q625.9219,250.1563 625.7188,249.9531 Q625.5156,249.7656 625.4063,249.25 Q625.3594,248.8906 625.1719,248.7031 Q624.8438,248.3281 624.2344,248.1094 Q623.625,247.8906 623,247.8906 Q622.2344,247.8906 621.6016,248.2188 Q620.9688,248.5469 620.4766,249.2969 Q619.9844,250.0469 619.9844,251.0781 L619.9844,252.1719 Q619.9844,253.4063 620.875,254.2266 Q621.7656,255.0469 623.3594,255.0469 Q624.2969,255.0469 624.9531,254.7969 Q625.3438,254.6406 625.7656,254.2031 Q626.0313,253.9375 626.1797,253.8594 Q626.3281,253.7813 626.5313,253.7813 Q626.8594,253.7813 627.1172,254.0391 Q627.375,254.2969 627.375,254.6406 Q627.375,254.9844 627.0313,255.3906 Q626.5313,255.9688 625.7344,256.2969 Q624.6563,256.75 623.3594,256.75 Q621.8438,256.75 620.6406,256.125 Q619.6563,255.625 618.9688,254.5547 Q618.2813,253.4844 618.2813,252.2031 L618.2813,251.0469 Q618.2813,249.7188 618.8984,248.5703 Q619.5156,247.4219 620.6094,246.8047 Q621.7031,246.1875 622.9375,246.1875 Q623.6719,246.1875 624.3203,246.3516 Q624.9688,246.5156 625.5156,246.875 Z " fill="#000000"/><text fill="#000000" font-family="sans-serif" font-size="12" lengthAdjust="spacing" textLength="102" x="643.25" y="255.9102">ControlDltDecoder</text><line style="stroke:#A80036;stroke-width:1.5;" x1="579" x2="777" y1="267" y2="267"/><line style="stroke:#A80036;stroke-width:1.5;" x1="579" x2="777" y1="275" y2="275"/><polygon fill="#FFFF44" points="589,281,593,285,589,289,585,285" style="stroke:#B38D22;stroke-width:1.0;"/><text fill="#000000" font-family="sans-serif" font-size="11" lengthAdjust="spacing" textLength="148" x="598" y="290.4189">RegisterRequest(serviceId: int,</text><text fill="#000000" font-family="sans-serif" font-size="11" lengthAdjust="spacing" textLength="171" x="601" y="304.2549">decoder: IControlArgDecoder): void</text><!--MD5=[7962476a84f97360923182afec0e15fe]
class MyCustomControlDltDecoder--><rect codeLine="33" fill="#FEFECE" filter="url(#fzvy2gsx93x8w)" height="48" id="MyCustomControlDltDecoder" style="stroke:#A80036;stroke-width:1.5;" width="192" x="582" y="400"/><ellipse cx="597" cy="416" fill="#ADD1B2" rx="11" ry="11" style="stroke:#A80036;stroke-width:1.0;"/><path d="M599.7656,411.875 Q599.9219,411.6563 600.1094,411.5469 Q600.2969,411.4375 600.5156,411.4375 Q600.8906,411.4375 601.125,411.6953 Q601.3594,411.9531 601.3594,412.5625 L601.3594,414.0156 Q601.3594,414.625 601.125,414.8906 Q600.8906,415.1563 600.5156,415.1563 Q600.1719,415.1563 599.9688,414.9531 Q599.7656,414.7656 599.6563,414.25 Q599.6094,413.8906 599.4219,413.7031 Q599.0938,413.3281 598.4844,413.1094 Q597.875,412.8906 597.25,412.8906 Q596.4844,412.8906 595.8516,413.2188 Q595.2188,413.5469 594.7266,414.2969 Q594.2344,415.0469 594.2344,416.0781 L594.2344,417.1719 Q594.2344,418.4063 595.125,419.2266 Q596.0156,420.0469 597.6094,420.0469 Q598.5469,420.0469 599.2031,419.7969 Q599.5938,419.6406 600.0156,419.2031 Q600.2813,418.9375 600.4297,418.8594 Q600.5781,418.7813 600.7813,418.7813 Q601.1094,418.7813 601.3672,419.0391 Q601.625,419.2969 601.625,419.6406 Q601.625,419.9844 601.2813,420.3906 Q600.7813,420.9688 599.9844,421.2969 Q598.9063,421.75 597.6094,421.75 Q596.0938,421.75 594.8906,421.125 Q593.9063,420.625 593.2188,419.5547 Q592.5313,418.4844 592.5313,417.2031 L592.5313,416.0469 Q592.5313,414.7188 593.1484,413.5703 Q593.7656,412.4219 594.8594,411.8047 Q595.9531,411.1875 597.1875,411.1875 Q597.9219,411.1875 598.5703,411.3516 Q599.2188,411.5156 599.7656,411.875 Z " fill="#000000"/><text fill="#000000" font-family="sans-serif" font-size="12" lengthAdjust="spacing" textLength="160" x="611" y="420.9102">MyCustomControlDltDecoder</text><line style="stroke:#A80036;stroke-width:1.5;" x1="583" x2="773" y1="432" y2="432"/><line style="stroke:#A80036;stroke-width:1.5;" x1="583" x2="773" y1="440" y2="440"/><!--MD5=[4784c301fe13507917f315be539ce5d6]
class ITraceDecoder--><rect codeLine="37" fill="#FEFECE" filter="url(#fzvy2gsx93x8w)" height="48" id="ITraceDecoder" style="stroke:#A80036;stroke-width:1.5;" width="216" x="337" y="10"/><ellipse cx="352" cy="26" fill="#B4A7E5" rx="11" ry="11" style="stroke:#A80036;stroke-width:1.0;"/><path d="M352.9531,22.6406 L352.9531,29.2969 L354.6719,29.2969 Q355.2813,29.2969 355.5469,29.5313 Q355.8125,29.7656 355.8125,30.1563 Q355.8125,30.5313 355.5469,30.7656 Q355.2813,31 354.6719,31 L349.5313,31 Q348.9219,31 348.6563,30.7656 Q348.3906,30.5313 348.3906,30.1406 Q348.3906,29.7656 348.6563,29.5313 Q348.9219,29.2969 349.5313,29.2969 L351.25,29.2969 L351.25,22.6406 L349.5313,22.6406 Q348.9219,22.6406 348.6563,22.4063 Q348.3906,22.1719 348.3906,21.7813 Q348.3906,21.4063 348.6563,21.1719 Q348.9219,20.9375 349.5313,20.9375 L354.6719,20.9375 Q355.2813,20.9375 355.5469,21.1719 Q355.8125,21.4063 355.8125,21.7813 Q355.8125,22.1719 355.5469,22.4063 Q355.2813,22.6406 354.6719,22.6406 L352.9531,22.6406 Z " fill="#000000"/><text fill="#000000" font-family="sans-serif" font-size="12" font-style="italic" lengthAdjust="spacing" textLength="82" x="366" y="30.9102">ITraceDecoder</text><rect fill="#FFFFFF" height="17.0938" style="stroke:#000000;stroke-width:1.0;stroke-dasharray:2.0,2.0;" width="100" x="456" y="7"/><text fill="#000000" font-family="sans-serif" font-size="12" font-style="italic" lengthAdjust="spacing" textLength="98" x="457" y="20.457">DltTraceLineBase</text><line style="stroke:#A80036;stroke-width:1.5;" x1="338" x2="552" y1="42" y2="42"/><line style="stroke:#A80036;stroke-width:1.5;" x1="338" x2="552" y1="50" y2="50"/><!--MD5=[362837878af92ba71ae40d034f8eec69]
class DltTraceDecoderBase--><rect codeLine="38" fill="#FEFECE" filter="url(#fzvy2gsx93x8w)" height="48" id="DltTraceDecoderBase" style="stroke:#A80036;stroke-width:1.5;" width="154" x="368" y="119"/><ellipse cx="383" cy="135" fill="#ADD1B2" rx="11" ry="11" style="stroke:#A80036;stroke-width:1.0;"/><path d="M385.7656,130.875 Q385.9219,130.6563 386.1094,130.5469 Q386.2969,130.4375 386.5156,130.4375 Q386.8906,130.4375 387.125,130.6953 Q387.3594,130.9531 387.3594,131.5625 L387.3594,133.0156 Q387.3594,133.625 387.125,133.8906 Q386.8906,134.1563 386.5156,134.1563 Q386.1719,134.1563 385.9688,133.9531 Q385.7656,133.7656 385.6563,133.25 Q385.6094,132.8906 385.4219,132.7031 Q385.0938,132.3281 384.4844,132.1094 Q383.875,131.8906 383.25,131.8906 Q382.4844,131.8906 381.8516,132.2188 Q381.2188,132.5469 380.7266,133.2969 Q380.2344,134.0469 380.2344,135.0781 L380.2344,136.1719 Q380.2344,137.4063 381.125,138.2266 Q382.0156,139.0469 383.6094,139.0469 Q384.5469,139.0469 385.2031,138.7969 Q385.5938,138.6406 386.0156,138.2031 Q386.2813,137.9375 386.4297,137.8594 Q386.5781,137.7813 386.7813,137.7813 Q387.1094,137.7813 387.3672,138.0391 Q387.625,138.2969 387.625,138.6406 Q387.625,138.9844 387.2813,139.3906 Q386.7813,139.9688 385.9844,140.2969 Q384.9063,140.75 383.6094,140.75 Q382.0938,140.75 380.8906,140.125 Q379.9063,139.625 379.2188,138.5547 Q378.5313,137.4844 378.5313,136.2031 L378.5313,135.0469 Q378.5313,133.7188 379.1484,132.5703 Q379.7656,131.4219 380.8594,130.8047 Q381.9531,130.1875 383.1875,130.1875 Q383.9219,130.1875 384.5703,130.3516 Q385.2188,130.5156 385.7656,130.875 Z " fill="#000000"/><text fill="#000000" font-family="sans-serif" font-size="12" lengthAdjust="spacing" textLength="122" x="397" y="139.9102">DltTraceDecoderBase</text><line style="stroke:#A80036;stroke-width:1.5;" x1="369" x2="521" y1="151" y2="151"/><line style="stroke:#A80036;stroke-width:1.5;" x1="369" x2="521" y1="159" y2="159"/><!--MD5=[9716da447ba299fd08d9f03c7a2da576]
class DltFileTraceDecoder--><rect codeLine="39" fill="#FEFECE" filter="url(#fzvy2gsx93x8w)" height="48" id="DltFileTraceDecoder" style="stroke:#A80036;stroke-width:1.5;" width="145" x="372.5" y="249"/><ellipse cx="387.5" cy="265" fill="#ADD1B2" rx="11" ry="11" style="stroke:#A80036;stroke-width:1.0;"/><path d="M390.2656,260.875 Q390.4219,260.6563 390.6094,260.5469 Q390.7969,260.4375 391.0156,260.4375 Q391.3906,260.4375 391.625,260.6953 Q391.8594,260.9531 391.8594,261.5625 L391.8594,263.0156 Q391.8594,263.625 391.625,263.8906 Q391.3906,264.1563 391.0156,264.1563 Q390.6719,264.1563 390.4688,263.9531 Q390.2656,263.7656 390.1563,263.25 Q390.1094,262.8906 389.9219,262.7031 Q389.5938,262.3281 388.9844,262.1094 Q388.375,261.8906 387.75,261.8906 Q386.9844,261.8906 386.3516,262.2188 Q385.7188,262.5469 385.2266,263.2969 Q384.7344,264.0469 384.7344,265.0781 L384.7344,266.1719 Q384.7344,267.4063 385.625,268.2266 Q386.5156,269.0469 388.1094,269.0469 Q389.0469,269.0469 389.7031,268.7969 Q390.0938,268.6406 390.5156,268.2031 Q390.7813,267.9375 390.9297,267.8594 Q391.0781,267.7813 391.2813,267.7813 Q391.6094,267.7813 391.8672,268.0391 Q392.125,268.2969 392.125,268.6406 Q392.125,268.9844 391.7813,269.3906 Q391.2813,269.9688 390.4844,270.2969 Q389.4063,270.75 388.1094,270.75 Q386.5938,270.75 385.3906,270.125 Q384.4063,269.625 383.7188,268.5547 Q383.0313,267.4844 383.0313,266.2031 L383.0313,265.0469 Q383.0313,263.7188 383.6484,262.5703 Q384.2656,261.4219 385.3594,260.8047 Q386.4531,260.1875 387.6875,260.1875 Q388.4219,260.1875 389.0703,260.3516 Q389.7188,260.5156 390.2656,260.875 Z " fill="#000000"/><text fill="#000000" font-family="sans-serif" font-size="12" lengthAdjust="spacing" textLength="113" x="401.5" y="269.9102">DltFileTraceDecoder</text><line style="stroke:#A80036;stroke-width:1.5;" x1="373.5" x2="516.5" y1="281" y2="281"/><line style="stroke:#A80036;stroke-width:1.5;" x1="373.5" x2="516.5" y1="289" y2="289"/><!--MD5=[50413efdf7c74c1ec0681cf09f205b4f]
class MyCustomDltFileTraceDecoder--><rect codeLine="40" fill="#FEFECE" filter="url(#fzvy2gsx93x8w)" height="48" id="MyCustomDltFileTraceDecoder" style="stroke:#A80036;stroke-width:1.5;" width="203" x="343.5" y="400"/><ellipse cx="358.5" cy="416" fill="#ADD1B2" rx="11" ry="11" style="stroke:#A80036;stroke-width:1.0;"/><path d="M361.2656,411.875 Q361.4219,411.6563 361.6094,411.5469 Q361.7969,411.4375 362.0156,411.4375 Q362.3906,411.4375 362.625,411.6953 Q362.8594,411.9531 362.8594,412.5625 L362.8594,414.0156 Q362.8594,414.625 362.625,414.8906 Q362.3906,415.1563 362.0156,415.1563 Q361.6719,415.1563 361.4688,414.9531 Q361.2656,414.7656 361.1563,414.25 Q361.1094,413.8906 360.9219,413.7031 Q360.5938,413.3281 359.9844,413.1094 Q359.375,412.8906 358.75,412.8906 Q357.9844,412.8906 357.3516,413.2188 Q356.7188,413.5469 356.2266,414.2969 Q355.7344,415.0469 355.7344,416.0781 L355.7344,417.1719 Q355.7344,418.4063 356.625,419.2266 Q357.5156,420.0469 359.1094,420.0469 Q360.0469,420.0469 360.7031,419.7969 Q361.0938,419.6406 361.5156,419.2031 Q361.7813,418.9375 361.9297,418.8594 Q362.0781,418.7813 362.2813,418.7813 Q362.6094,418.7813 362.8672,419.0391 Q363.125,419.2969 363.125,419.6406 Q363.125,419.9844 362.7813,420.3906 Q362.2813,420.9688 361.4844,421.2969 Q360.4063,421.75 359.1094,421.75 Q357.5938,421.75 356.3906,421.125 Q355.4063,420.625 354.7188,419.5547 Q354.0313,418.4844 354.0313,417.2031 L354.0313,416.0469 Q354.0313,414.7188 354.6484,413.5703 Q355.2656,412.4219 356.3594,411.8047 Q357.4531,411.1875 358.6875,411.1875 Q359.4219,411.1875 360.0703,411.3516 Q360.7188,411.5156 361.2656,411.875 Z " fill="#000000"/><text fill="#000000" font-family="sans-serif" font-size="12" lengthAdjust="spacing" textLength="171" x="372.5" y="420.9102">MyCustomDltFileTraceDecoder</text><line style="stroke:#A80036;stroke-width:1.5;" x1="344.5" x2="545.5" y1="432" y2="432"/><line style="stroke:#A80036;stroke-width:1.5;" x1="344.5" x2="545.5" y1="440" y2="440"/><!--MD5=[a6fb610bc0c1ad93080ac34ca45d146b]
class ITraceReaderFactory--><rect codeLine="48" fill="#FEFECE" filter="url(#fzvy2gsx93x8w)" height="48" id="ITraceReaderFactory" style="stroke:#A80036;stroke-width:1.5;" width="250" x="7" y="119"/><ellipse cx="22" cy="135" fill="#B4A7E5" rx="11" ry="11" style="stroke:#A80036;stroke-width:1.0;"/><path d="M22.9531,131.6406 L22.9531,138.2969 L24.6719,138.2969 Q25.2813,138.2969 25.5469,138.5313 Q25.8125,138.7656 25.8125,139.1563 Q25.8125,139.5313 25.5469,139.7656 Q25.2813,140 24.6719,140 L19.5313,140 Q18.9219,140 18.6563,139.7656 Q18.3906,139.5313 18.3906,139.1406 Q18.3906,138.7656 18.6563,138.5313 Q18.9219,138.2969 19.5313,138.2969 L21.25,138.2969 L21.25,131.6406 L19.5313,131.6406 Q18.9219,131.6406 18.6563,131.4063 Q18.3906,131.1719 18.3906,130.7813 Q18.3906,130.4063 18.6563,130.1719 Q18.9219,129.9375 19.5313,129.9375 L24.6719,129.9375 Q25.2813,129.9375 25.5469,130.1719 Q25.8125,130.4063 25.8125,130.7813 Q25.8125,131.1719 25.5469,131.4063 Q25.2813,131.6406 24.6719,131.6406 L22.9531,131.6406 Z " fill="#000000"/><text fill="#000000" font-family="sans-serif" font-size="12" font-style="italic" lengthAdjust="spacing" textLength="116" x="36" y="139.9102">ITraceReaderFactory</text><rect fill="#FFFFFF" height="17.0938" style="stroke:#000000;stroke-width:1.0;stroke-dasharray:2.0,2.0;" width="100" x="160" y="116"/><text fill="#000000" font-family="sans-serif" font-size="12" font-style="italic" lengthAdjust="spacing" textLength="98" x="161" y="129.457">DltTraceLineBase</text><line style="stroke:#A80036;stroke-width:1.5;" x1="8" x2="256" y1="151" y2="151"/><line style="stroke:#A80036;stroke-width:1.5;" x1="8" x2="256" y1="159" y2="159"/><!--MD5=[f4288dffdb2ee17e8277a82c8664138f]
class TraceReaderFactory--><rect codeLine="49" fill="#FEFECE" filter="url(#fzvy2gsx93x8w)" height="48" id="TraceReaderFactory" style="stroke:#A80036;stroke-width:1.5;" width="246" x="9" y="249"/><ellipse cx="24" cy="265" fill="#A9DCDF" rx="11" ry="11" style="stroke:#A80036;stroke-width:1.0;"/><path d="M26.1875,266.7656 L22.0469,266.7656 L21.625,267.7969 L22.0469,267.7969 Q22.6563,267.7969 22.9219,268.0313 Q23.1875,268.2656 23.1875,268.6563 Q23.1875,269.0313 22.9219,269.2656 Q22.6563,269.5 22.0469,269.5 L19.75,269.5 Q19.1406,269.5 18.8828,269.2656 Q18.625,269.0313 18.625,268.6406 Q18.625,268.2656 18.8984,268.0234 Q19.1719,267.7813 19.7969,267.7969 L22.4688,261.1406 L21.3594,261.1406 Q20.75,261.1406 20.4844,260.9063 Q20.2188,260.6719 20.2188,260.2813 Q20.2188,259.9063 20.4844,259.6719 Q20.75,259.4375 21.3594,259.4375 L25.0313,259.4375 L28.4219,267.7969 Q29.0156,267.7969 29.2031,267.9375 Q29.5938,268.2031 29.5938,268.6563 Q29.5938,269.0313 29.3359,269.2656 Q29.0781,269.5 28.4688,269.5 L26.1719,269.5 Q25.5625,269.5 25.2969,269.2656 Q25.0313,269.0313 25.0313,268.6406 Q25.0313,268.2656 25.2969,268.0313 Q25.5625,267.7969 26.1719,267.7969 L26.5938,267.7969 L26.1875,266.7656 Z M25.4688,265.0625 L24.1094,261.6875 L22.7344,265.0625 L25.4688,265.0625 Z " fill="#000000"/><text fill="#000000" font-family="sans-serif" font-size="12" font-style="italic" lengthAdjust="spacing" textLength="112" x="38" y="269.9102">TraceReaderFactory</text><rect fill="#FFFFFF" height="17.0938" style="stroke:#000000;stroke-width:1.0;stroke-dasharray:2.0,2.0;" width="100" x="158" y="246"/><text fill="#000000" font-family="sans-serif" font-size="12" font-style="italic" lengthAdjust="spacing" textLength="98" x="159" y="259.457">DltTraceLineBase</text><line style="stroke:#A80036;stroke-width:1.5;" x1="10" x2="254" y1="281" y2="281"/><line style="stroke:#A80036;stroke-width:1.5;" x1="10" x2="254" y1="289" y2="289"/><!--MD5=[89c1c865885743c4205d8b8a220e0a1c]
class MyCustomDltFileTraceReaderFactory--><rect codeLine="50" fill="#FEFECE" filter="url(#fzvy2gsx93x8w)" height="48" id="MyCustomDltFileTraceReaderFactory" style="stroke:#A80036;stroke-width:1.5;" width="236" x="14" y="400"/><ellipse cx="29" cy="416" fill="#ADD1B2" rx="11" ry="11" style="stroke:#A80036;stroke-width:1.0;"/><path d="M31.7656,411.875 Q31.9219,411.6563 32.1094,411.5469 Q32.2969,411.4375 32.5156,411.4375 Q32.8906,411.4375 33.125,411.6953 Q33.3594,411.9531 33.3594,412.5625 L33.3594,414.0156 Q33.3594,414.625 33.125,414.8906 Q32.8906,415.1563 32.5156,415.1563 Q32.1719,415.1563 31.9688,414.9531 Q31.7656,414.7656 31.6563,414.25 Q31.6094,413.8906 31.4219,413.7031 Q31.0938,413.3281 30.4844,413.1094 Q29.875,412.8906 29.25,412.8906 Q28.4844,412.8906 27.8516,413.2188 Q27.2188,413.5469 26.7266,414.2969 Q26.2344,415.0469 26.2344,416.0781 L26.2344,417.1719 Q26.2344,418.4063 27.125,419.2266 Q28.0156,420.0469 29.6094,420.0469 Q30.5469,420.0469 31.2031,419.7969 Q31.5938,419.6406 32.0156,419.2031 Q32.2813,418.9375 32.4297,418.8594 Q32.5781,418.7813 32.7813,418.7813 Q33.1094,418.7813 33.3672,419.0391 Q33.625,419.2969 33.625,419.6406 Q33.625,419.9844 33.2813,420.3906 Q32.7813,420.9688 31.9844,421.2969 Q30.9063,421.75 29.6094,421.75 Q28.0938,421.75 26.8906,421.125 Q25.9063,420.625 25.2188,419.5547 Q24.5313,418.4844 24.5313,417.2031 L24.5313,416.0469 Q24.5313,414.7188 25.1484,413.5703 Q25.7656,412.4219 26.8594,411.8047 Q27.9531,411.1875 29.1875,411.1875 Q29.9219,411.1875 30.5703,411.3516 Q31.2188,411.5156 31.7656,411.875 Z " fill="#000000"/><text fill="#000000" font-family="sans-serif" font-size="12" lengthAdjust="spacing" textLength="204" x="43" y="420.9102">MyCustomDltFileTraceReaderFactory</text><line style="stroke:#A80036;stroke-width:1.5;" x1="15" x2="249" y1="432" y2="432"/><line style="stroke:#A80036;stroke-width:1.5;" x1="15" x2="249" y1="440" y2="440"/><!--MD5=[33e8d8fd1ed4c9f6521d90b15b6778fc]
reverse link IControlArg to ControlRequest--><path codeLine="11" d="M1250,78.58 C1250,92.36 1250,107.06 1250,118.83 " fill="none" id="IControlArg-backto-ControlRequest" style="stroke:#A80036;stroke-width:1.0;stroke-dasharray:7.0,7.0;"/><polygon fill="none" points="1243,78.22,1250,58.22,1257,78.22,1243,78.22" style="stroke:#A80036;stroke-width:1.0;"/><!--MD5=[54a18200a6d743bc5b23a24982d3920a]
reverse link ControlRequest to SwInjectionRequest--><path codeLine="12" d="M1250,187.36 C1250,205.24 1250,225.52 1250,241.75 " fill="none" id="ControlRequest-backto-SwInjectionRequest" style="stroke:#A80036;stroke-width:1.0;"/><polygon fill="none" points="1243,187.18,1250,167.18,1257,187.18,1243,187.18" style="stroke:#A80036;stroke-width:1.0;"/><!--MD5=[cbf4e326bed24cd6ad2bbd48da1e1b2e]
reverse link SwInjectionRequest to MyCustomSwInjectionRequest--><path codeLine="13" d="M1250,324.24 C1250,347.02 1250,373.21 1250,392.89 " fill="none" id="SwInjectionRequest-backto-MyCustomSwInjectionRequest" style="stroke:#A80036;stroke-width:1.0;"/><polygon fill="none" points="1243,324.15,1250,304.15,1257,324.15,1243,324.15" style="stroke:#A80036;stroke-width:1.0;"/><!--MD5=[d8e11022c58561a4ff3bb35a6c7ffddd]
reverse link IControlArgDecoder to SwInjectionRequestDecoder--><path codeLine="25" d="M933,187.43 C933,200.43 933,214.71 933,227.76 " fill="none" id="IControlArgDecoder-backto-SwInjectionRequestDecoder" style="stroke:#A80036;stroke-width:1.0;stroke-dasharray:7.0,7.0;"/><polygon fill="none" points="926,187.18,933,167.18,940,187.18,926,187.18" style="stroke:#A80036;stroke-width:1.0;"/><!--MD5=[a9b150df8fd31a9e9d8cbad18ba7dcd6]
reverse link SwInjectionRequestDecoder to MyCustomSwInjectionRequestDecoder--><path codeLine="26" d="M933,338.42 C933,352.07 933,366.18 933,378.87 " fill="none" id="SwInjectionRequestDecoder-backto-MyCustomSwInjectionRequestDecoder" style="stroke:#A80036;stroke-width:1.0;"/><polygon fill="none" points="926,338.3,933,318.3,940,338.3,926,338.3" style="stroke:#A80036;stroke-width:1.0;"/><!--MD5=[1941109186c896146c5032152d4567f1]
link MyCustomSwInjectionRequestDecoder to MyCustomSwInjectionRequest--><path codeLine="27" d="M1056.92,424 C1085.86,424 1116.41,424 1144.46,424 " fill="none" id="MyCustomSwInjectionRequestDecoder-to-MyCustomSwInjectionRequest" style="stroke:#A80036;stroke-width:1.0;"/><polygon fill="#A80036" points="1149.67,424,1140.67,420,1144.67,424,1140.67,428,1149.67,424" style="stroke:#A80036;stroke-width:1.0;"/><text fill="#000000" font-family="sans-serif" font-size="13" lengthAdjust="spacing" textLength="57" x="1074.75" y="417.4951">«creates»</text><!--MD5=[1827bed504f69dacd42eb8ab045a2387]
reverse link IControlDltDecoder to ControlDltDecoder--><path codeLine="34" d="M678,187.38 C678,202.83 678,220.07 678,234.93 " fill="none" id="IControlDltDecoder-backto-ControlDltDecoder" style="stroke:#A80036;stroke-width:1.0;stroke-dasharray:7.0,7.0;"/><polygon fill="none" points="671,187.18,678,167.18,685,187.18,671,187.18" style="stroke:#A80036;stroke-width:1.0;"/><!--MD5=[6676e780f9b9561ffa6425a05aec812b]
reverse link ControlDltDecoder to MyCustomControlDltDecoder--><path codeLine="35" d="M678,331.25 C678,355.08 678,381.39 678,399.71 " fill="none" id="ControlDltDecoder-backto-MyCustomControlDltDecoder" style="stroke:#A80036;stroke-width:1.0;"/><polygon fill="none" points="671,331.21,678,311.21,685,331.21,671,331.21" style="stroke:#A80036;stroke-width:1.0;"/><!--MD5=[d8c8878b6ffe9f80cdd0a66e601f7a4b]
reverse link ITraceDecoder to DltTraceDecoderBase--><path codeLine="41" d="M445,78.58 C445,92.36 445,107.06 445,118.83 " fill="none" id="ITraceDecoder-backto-DltTraceDecoderBase" style="stroke:#A80036;stroke-width:1.0;stroke-dasharray:7.0,7.0;"/><polygon fill="none" points="438,78.22,445,58.22,452,78.22,438,78.22" style="stroke:#A80036;stroke-width:1.0;"/><!--MD5=[0fd5b6e4cead314860bd13a184271ca1]
reverse link DltTraceDecoderBase to DltFileTraceDecoder--><path codeLine="42" d="M445,187.48 C445,208.1 445,231.91 445,248.99 " fill="none" id="DltTraceDecoderBase-backto-DltFileTraceDecoder" style="stroke:#A80036;stroke-width:1.0;"/><polygon fill="none" points="438,187.18,445,167.18,452,187.18,438,187.18" style="stroke:#A80036;stroke-width:1.0;"/><!--MD5=[d9dc4f33f038120fe31d45e6183a14d9]
reverse link DltFileTraceDecoder to MyCustomDltFileTraceDecoder--><path codeLine="43" d="M445,317.54 C445,344.47 445,377.96 445,399.88 " fill="none" id="DltFileTraceDecoder-backto-MyCustomDltFileTraceDecoder" style="stroke:#A80036;stroke-width:1.0;"/><polygon fill="none" points="438,317.28,445,297.28,452,317.28,438,317.28" style="stroke:#A80036;stroke-width:1.0;"/><!--MD5=[f4ede38222b85fc8ce9fa2b680b2c117]
reverse link MyCustomDltFileTraceDecoder to MyCustomControlDltDecoder--><path codeLine="45" d="M559.99,424 C567.25,424 574.5,424 581.75,424 " fill="none" id="MyCustomDltFileTraceDecoder-backto-MyCustomControlDltDecoder" style="stroke:#A80036;stroke-width:1.0;"/><polygon fill="#A80036" points="546.94,424,552.94,428,558.94,424,552.94,420,546.94,424" style="stroke:#A80036;stroke-width:1.0;"/><!--MD5=[d42bc518942e1c158da2762ad40d76e2]
reverse link MyCustomControlDltDecoder to MyCustomSwInjectionRequestDecoder--><path codeLine="46" d="M787.39,424 C794.76,424 802.13,424 809.5,424 " fill="none" id="MyCustomControlDltDecoder-backto-MyCustomSwInjectionRequestDecoder" style="stroke:#A80036;stroke-width:1.0;"/><polygon fill="#A80036" points="774.12,424,780.12,428,786.12,424,780.12,420,774.12,424" style="stroke:#A80036;stroke-width:1.0;"/><!--MD5=[6580599906a264bb26cd3a56238f2922]
reverse link ITraceReaderFactory to TraceReaderFactory--><path codeLine="52" d="M132,187.48 C132,208.1 132,231.91 132,248.99 " fill="none" id="ITraceReaderFactory-backto-TraceReaderFactory" style="stroke:#A80036;stroke-width:1.0;stroke-dasharray:7.0,7.0;"/><polygon fill="none" points="125,187.18,132,167.18,139,187.18,125,187.18" style="stroke:#A80036;stroke-width:1.0;"/><!--MD5=[6f3da295aac793ed3213ce79055d50ff]
reverse link TraceReaderFactory to MyCustomDltFileTraceReaderFactory--><path codeLine="53" d="M132,317.54 C132,344.47 132,377.96 132,399.88 " fill="none" id="TraceReaderFactory-backto-MyCustomDltFileTraceReaderFactory" style="stroke:#A80036;stroke-width:1.0;"/><polygon fill="none" points="125,317.28,132,297.28,139,317.28,125,317.28" style="stroke:#A80036;stroke-width:1.0;"/><!--MD5=[7fbbf135a5c6db1ac55c1ff7f77a4ac6]
link MyCustomDltFileTraceReaderFactory to MyCustomDltFileTraceDecoder--><path codeLine="54" d="M250.33,424 C279.18,424 309.87,424 338.14,424 " fill="none" id="MyCustomDltFileTraceReaderFactory-to-MyCustomDltFileTraceDecoder" style="stroke:#A80036;stroke-width:1.0;"/><polygon fill="#A80036" points="343.39,424,334.39,420,338.39,424,334.39,428,343.39,424" style="stroke:#A80036;stroke-width:1.0;"/><text fill="#000000" font-family="sans-serif" font-size="13" lengthAdjust="spacing" textLength="57" x="268.25" y="417.4951">«creates»</text><!--MD5=[1bf90a4513483801998226c9e2e66bf2]
@startuml DLT.ControlArgCustomDecoder
interface IControlArg
class ControlRequest

class SwInjectionRequest {
    .ctor(serviceId: int, payLoad: data[])
}
class MyCustomSwInjectionRequest {
    .ctor(serviceId: int, payLoad: data[])
}

IControlArg <|.d. ControlRequest
ControlRequest <|-d- SwInjectionRequest
SwInjectionRequest <|-d- MyCustomSwInjectionRequest

interface IControlArgDecoder

class SwInjectionRequestDecoder {
    #Decode(serviceId: int, length: int, \n buffer: ReadOnlySpan<byte>, msbf: bool, \n service: IControlArg*): int
}

class MyCustomSwInjectionRequestDecoder {
    #Decode(serviceId: int, length: int, \n buffer: ReadOnlySpan<byte>, msbf: bool, \n service: IControlArg*): int
}

IControlArgDecoder <|.d. SwInjectionRequestDecoder
SwInjectionRequestDecoder <|-d- MyCustomSwInjectionRequestDecoder
MyCustomSwInjectionRequestDecoder -r-> MyCustomSwInjectionRequest : <<creates>>

interface IControlDltDecoder
class ControlDltDecoder {
    #RegisterRequest(serviceId: int, \n decoder: IControlArgDecoder): void
}
class MyCustomControlDltDecoder
IControlDltDecoder <|.d. ControlDltDecoder
ControlDltDecoder <|-d- MyCustomControlDltDecoder

interface ITraceDecoder<DltTraceLineBase>
class DltTraceDecoderBase
class DltFileTraceDecoder
class MyCustomDltFileTraceDecoder
ITraceDecoder <|.d. DltTraceDecoderBase
DltTraceDecoderBase <|-d- DltFileTraceDecoder
DltFileTraceDecoder <|-d- MyCustomDltFileTraceDecoder

MyCustomDltFileTraceDecoder *-r- MyCustomControlDltDecoder
MyCustomControlDltDecoder *-r- MyCustomSwInjectionRequestDecoder

interface ITraceReaderFactory<DltTraceLineBase>
abstract class TraceReaderFactory<DltTraceLineBase>
class MyCustomDltFileTraceReaderFactory

ITraceReaderFactory <|.d. TraceReaderFactory
TraceReaderFactory <|-d- MyCustomDltFileTraceReaderFactory
MyCustomDltFileTraceReaderFactory -r-> MyCustomDltFileTraceDecoder : <<creates>>
@enduml

PlantUML version 1.2021.16(Wed Dec 08 18:25:22 CET 2021)
(GPL source distribution)
Java Runtime: Java(TM) SE Runtime Environment
JVM: Java HotSpot(TM) 64-Bit Server VM
Default Encoding: Cp1252
Language: en
Country: GB
--></g></svg>