<?xml version="1.0" encoding="UTF-8" standalone="no"?><svg xmlns="http://www.w3.org/2000/svg" xmlns:xlink="http://www.w3.org/1999/xlink" contentScriptType="application/ecmascript" contentStyleType="text/css" height="273px" preserveAspectRatio="none" style="width:453px;height:273px;background:#FFFFFF;" version="1.1" viewBox="0 0 453 273" width="453px" zoomAndPan="magnify"><defs><filter height="300%" id="fj3qxcdhas9w9" width="300%" x="-1" y="-1"><feGaussianBlur result="blurOut" stdDeviation="2.0"/><feColorMatrix in="blurOut" result="blurOut2" type="matrix" values="0 0 0 0 0 0 0 0 0 0 0 0 0 0 0 0 0 0 .4 0"/><feOffset dx="4.0" dy="4.0" in="blurOut2" result="blurOut3"/><feBlend in="SourceGraphic" in2="blurOut3" mode="normal"/></filter></defs><g><!--MD5=[52a3332067f4ff29b03ab00f619de69b]
class IOutputStream--><rect codeLine="2" fill="#FEFECE" filter="url(#fj3qxcdhas9w9)" height="117.1797" id="IOutputStream" style="stroke:#A80036;stroke-width:1.5;" width="301" x="87.5" y="7"/><ellipse cx="193.75" cy="23" fill="#B4A7E5" rx="11" ry="11" style="stroke:#A80036;stroke-width:1.0;"/><path d="M194.7031,19.6406 L194.7031,26.2969 L196.4219,26.2969 Q197.0313,26.2969 197.2969,26.5313 Q197.5625,26.7656 197.5625,27.1563 Q197.5625,27.5313 197.2969,27.7656 Q197.0313,28 196.4219,28 L191.2813,28 Q190.6719,28 190.4063,27.7656 Q190.1406,27.5313 190.1406,27.1406 Q190.1406,26.7656 190.4063,26.5313 Q190.6719,26.2969 191.2813,26.2969 L193,26.2969 L193,19.6406 L191.2813,19.6406 Q190.6719,19.6406 190.4063,19.4063 Q190.1406,19.1719 190.1406,18.7813 Q190.1406,18.4063 190.4063,18.1719 Q190.6719,17.9375 191.2813,17.9375 L196.4219,17.9375 Q197.0313,17.9375 197.2969,18.1719 Q197.5625,18.4063 197.5625,18.7813 Q197.5625,19.1719 197.2969,19.4063 Q197.0313,19.6406 196.4219,19.6406 L194.7031,19.6406 Z " fill="#000000"/><text fill="#000000" font-family="sans-serif" font-size="12" font-style="italic" lengthAdjust="spacing" textLength="80" x="214.25" y="27.9102">IOutputStream</text><line style="stroke:#A80036;stroke-width:1.5;" x1="88.5" x2="387.5" y1="39" y2="39"/><text fill="#000000" font-family="sans-serif" font-size="11" lengthAdjust="spacing" textLength="101" x="93.5" y="54.4189">SupportsBinary: bool</text><line style="stroke:#A80036;stroke-width:1.5;" x1="88.5" x2="387.5" y1="60.8359" y2="60.8359"/><text fill="#000000" font-family="sans-serif" font-size="11" lengthAdjust="spacing" textLength="140" x="93.5" y="76.2549">Write(line: DltTraceLineBase)</text><text fill="#000000" font-family="sans-serif" font-size="11" lengthAdjust="spacing" textLength="289" x="93.5" y="90.0908">Write(line: DltTraceLineBase, packet: ReadOnlySpan&lt;byte&gt;)</text><text fill="#000000" font-family="sans-serif" font-size="11" lengthAdjust="spacing" textLength="245" x="93.5" y="103.9268">SetInput(fileName: string, inputFormat: InputFormat)</text><text fill="#000000" font-family="sans-serif" font-size="11" lengthAdjust="spacing" textLength="34" x="93.5" y="117.7627">Flush()</text><!--MD5=[c80c6ac13c2f19bab884545b2b284878]
class FilterOutput--><rect codeLine="10" fill="#FEFECE" filter="url(#fj3qxcdhas9w9)" height="61.8359" id="FilterOutput" style="stroke:#A80036;stroke-width:1.5;" width="228" x="7" y="191"/><ellipse cx="85.25" cy="207" fill="#ADD1B2" rx="11" ry="11" style="stroke:#A80036;stroke-width:1.0;"/><path d="M88.0156,202.875 Q88.1719,202.6563 88.3594,202.5469 Q88.5469,202.4375 88.7656,202.4375 Q89.1406,202.4375 89.375,202.6953 Q89.6094,202.9531 89.6094,203.5625 L89.6094,205.0156 Q89.6094,205.625 89.375,205.8906 Q89.1406,206.1563 88.7656,206.1563 Q88.4219,206.1563 88.2188,205.9531 Q88.0156,205.7656 87.9063,205.25 Q87.8594,204.8906 87.6719,204.7031 Q87.3438,204.3281 86.7344,204.1094 Q86.125,203.8906 85.5,203.8906 Q84.7344,203.8906 84.1016,204.2188 Q83.4688,204.5469 82.9766,205.2969 Q82.4844,206.0469 82.4844,207.0781 L82.4844,208.1719 Q82.4844,209.4063 83.375,210.2266 Q84.2656,211.0469 85.8594,211.0469 Q86.7969,211.0469 87.4531,210.7969 Q87.8438,210.6406 88.2656,210.2031 Q88.5313,209.9375 88.6797,209.8594 Q88.8281,209.7813 89.0313,209.7813 Q89.3594,209.7813 89.6172,210.0391 Q89.875,210.2969 89.875,210.6406 Q89.875,210.9844 89.5313,211.3906 Q89.0313,211.9688 88.2344,212.2969 Q87.1563,212.75 85.8594,212.75 Q84.3438,212.75 83.1406,212.125 Q82.1563,211.625 81.4688,210.5547 Q80.7813,209.4844 80.7813,208.2031 L80.7813,207.0469 Q80.7813,205.7188 81.3984,204.5703 Q82.0156,203.4219 83.1094,202.8047 Q84.2031,202.1875 85.4375,202.1875 Q86.1719,202.1875 86.8203,202.3516 Q87.4688,202.5156 88.0156,202.875 Z " fill="#000000"/><text fill="#000000" font-family="sans-serif" font-size="12" lengthAdjust="spacing" textLength="63" x="105.75" y="211.9102">FilterOutput</text><line style="stroke:#A80036;stroke-width:1.5;" x1="8" x2="234" y1="223" y2="223"/><line style="stroke:#A80036;stroke-width:1.5;" x1="8" x2="234" y1="231" y2="231"/><text fill="#000000" font-family="sans-serif" font-size="11" lengthAdjust="spacing" textLength="216" x="13" y="246.4189">.ctor(filter: Constraint, output: IOutputStream)</text><!--MD5=[347ee0222f5302d150b7da5891f6e3fe]
class ContextOutput--><rect codeLine="15" fill="#FEFECE" filter="url(#fj3qxcdhas9w9)" height="75.6719" id="ContextOutput" style="stroke:#A80036;stroke-width:1.5;" width="169" x="270.5" y="184"/><ellipse cx="312.5" cy="200" fill="#ADD1B2" rx="11" ry="11" style="stroke:#A80036;stroke-width:1.0;"/><path d="M315.2656,195.875 Q315.4219,195.6563 315.6094,195.5469 Q315.7969,195.4375 316.0156,195.4375 Q316.3906,195.4375 316.625,195.6953 Q316.8594,195.9531 316.8594,196.5625 L316.8594,198.0156 Q316.8594,198.625 316.625,198.8906 Q316.3906,199.1563 316.0156,199.1563 Q315.6719,199.1563 315.4688,198.9531 Q315.2656,198.7656 315.1563,198.25 Q315.1094,197.8906 314.9219,197.7031 Q314.5938,197.3281 313.9844,197.1094 Q313.375,196.8906 312.75,196.8906 Q311.9844,196.8906 311.3516,197.2188 Q310.7188,197.5469 310.2266,198.2969 Q309.7344,199.0469 309.7344,200.0781 L309.7344,201.1719 Q309.7344,202.4063 310.625,203.2266 Q311.5156,204.0469 313.1094,204.0469 Q314.0469,204.0469 314.7031,203.7969 Q315.0938,203.6406 315.5156,203.2031 Q315.7813,202.9375 315.9297,202.8594 Q316.0781,202.7813 316.2813,202.7813 Q316.6094,202.7813 316.8672,203.0391 Q317.125,203.2969 317.125,203.6406 Q317.125,203.9844 316.7813,204.3906 Q316.2813,204.9688 315.4844,205.2969 Q314.4063,205.75 313.1094,205.75 Q311.5938,205.75 310.3906,205.125 Q309.4063,204.625 308.7188,203.5547 Q308.0313,202.4844 308.0313,201.2031 L308.0313,200.0469 Q308.0313,198.7188 308.6484,197.5703 Q309.2656,196.4219 310.3594,195.8047 Q311.4531,195.1875 312.6875,195.1875 Q313.4219,195.1875 314.0703,195.3516 Q314.7188,195.5156 315.2656,195.875 Z " fill="#000000"/><text fill="#000000" font-family="sans-serif" font-size="12" lengthAdjust="spacing" textLength="77" x="332.5" y="204.9102">ContextOutput</text><line style="stroke:#A80036;stroke-width:1.5;" x1="271.5" x2="438.5" y1="216" y2="216"/><line style="stroke:#A80036;stroke-width:1.5;" x1="271.5" x2="438.5" y1="224" y2="224"/><text fill="#000000" font-family="sans-serif" font-size="11" lengthAdjust="spacing" textLength="157" x="276.5" y="239.4189">.ctor(filter: Constraint, int before,</text><text fill="#000000" font-family="sans-serif" font-size="11" lengthAdjust="spacing" textLength="151" x="279.5" y="253.2549">int after, output: IOutputStream)</text><!--MD5=[bd9ae15c1736326086ab3c2a3227afe4]
reverse link IOutputStream to FilterOutput--><path codeLine="13" d="M182.15,140.25 C168.63,158.1 154.93,176.2 143.92,190.73 " fill="none" id="IOutputStream-backto-FilterOutput" style="stroke:#A80036;stroke-width:1.0;"/><polygon fill="none" points="176.78,135.75,194.43,124.03,187.94,144.2,176.78,135.75" style="stroke:#A80036;stroke-width:1.0;"/><!--MD5=[cd50f39eb84f35a241c4a4cdfc816ba0]
reverse link IOutputStream to ContextOutput--><path codeLine="18" d="M293.8,140.18 C305.19,155.23 316.72,170.46 326.66,183.58 " fill="none" id="IOutputStream-backto-ContextOutput" style="stroke:#A80036;stroke-width:1.0;"/><polygon fill="none" points="288.06,144.2,281.57,124.03,299.22,135.75,288.06,144.2" style="stroke:#A80036;stroke-width:1.0;"/><!--MD5=[223aed40f97f4c9f853c5e7e3541f6fc]
@startuml Domain.OutputStreamFilter

interface IOutputStream {
    SupportsBinary: bool
    Write(line: DltTraceLineBase)
    Write(line: DltTraceLineBase, packet: ReadOnlySpan<byte>)
    SetInput(fileName: string, inputFormat: InputFormat)
    Flush()
}

class FilterOutput {
    .ctor(filter: Constraint, output: IOutputStream)
}
IOutputStream <|-d- FilterOutput

class ContextOutput {
    .ctor(filter: Constraint, int before,\n int after, output: IOutputStream)
}
IOutputStream <|-d- ContextOutput

@enduml

PlantUML version 1.2022.0(Tue Jan 11 17:16:42 CET 2022)
(GPL source distribution)
Java Runtime: Java(TM) SE Runtime Environment
JVM: Java HotSpot(TM) Client VM
Default Encoding: Cp1252
Language: en
Country: US
--></g></svg>