<?xml version="1.0" encoding="us-ascii" standalone="no"?><svg xmlns="http://www.w3.org/2000/svg" xmlns:xlink="http://www.w3.org/1999/xlink" contentStyleType="text/css" height="267px" preserveAspectRatio="none" style="width:610px;height:267px;background:#FFFFFF;" version="1.1" viewBox="0 0 610 267" width="610px" zoomAndPan="magnify"><defs/><g><!--class IOutputStream--><g id="elem_IOutputStream"><rect codeLine="2" fill="#F1F1F1" height="113.1875" id="IOutputStream" rx="2.5" ry="2.5" style="stroke:#181818;stroke-width:0.5;" width="430" x="112.5" y="7"/><ellipse cx="273.25" cy="23" fill="#B4A7E5" rx="11" ry="11" style="stroke:#181818;stroke-width:1.0;"/><path d="M269.1719,18.7656 L269.1719,16.6094 L276.5625,16.6094 L276.5625,18.7656 L274.0938,18.7656 L274.0938,26.8438 L276.5625,26.8438 L276.5625,29 L269.1719,29 L269.1719,26.8438 L271.6406,26.8438 L271.6406,18.7656 L269.1719,18.7656 Z " fill="#000000"/><text fill="#000000" font-family="sans-serif" font-size="14" font-style="italic" lengthAdjust="spacing" textLength="100" x="293.75" y="27.8467">IOutputStream</text><line style="stroke:#181818;stroke-width:0.5;" x1="113.5" x2="541.5" y1="39" y2="39"/><text fill="#000000" font-family="sans-serif" font-size="14" lengthAdjust="spacing" textLength="144" x="118.5" y="55.9951">SupportsBinary: bool</text><line style="stroke:#181818;stroke-width:0.5;" x1="113.5" x2="541.5" y1="63.2969" y2="63.2969"/><text fill="#000000" font-family="sans-serif" font-size="14" lengthAdjust="spacing" textLength="199" x="118.5" y="80.292">Write(line: DltTraceLineBase)</text><text fill="#000000" font-family="sans-serif" font-size="14" lengthAdjust="spacing" textLength="418" x="118.5" y="96.5889">Write(line: DltTraceLineBase, packet: ReadOnlySpan&lt;byte&gt;)</text><text fill="#000000" font-family="sans-serif" font-size="14" lengthAdjust="spacing" textLength="358" x="118.5" y="112.8857">SetInput(fileName: string, inputFormat: InputFormat)</text></g><!--class FilterOutput--><g id="elem_FilterOutput"><rect codeLine="9" fill="#F1F1F1" height="64.2969" id="FilterOutput" rx="2.5" ry="2.5" style="stroke:#181818;stroke-width:0.5;" width="325" x="7" y="188.33"/><ellipse cx="124.75" cy="204.33" fill="#ADD1B2" rx="11" ry="11" style="stroke:#181818;stroke-width:1.0;"/><path d="M127.7188,209.9706 Q127.1406,210.2675 126.5,210.4081 Q125.8594,210.5644 125.1563,210.5644 Q122.6563,210.5644 121.3281,208.9238 Q120.0156,207.2675 120.0156,204.1425 Q120.0156,201.0175 121.3281,199.3613 Q122.6563,197.705 125.1563,197.705 Q125.8594,197.705 126.5,197.8613 Q127.1563,198.0175 127.7188,198.3144 L127.7188,201.0331 Q127.0938,200.455 126.5,200.1894 Q125.9063,199.9081 125.2813,199.9081 Q123.9375,199.9081 123.25,200.9863 Q122.5625,202.0488 122.5625,204.1425 Q122.5625,206.2363 123.25,207.3144 Q123.9375,208.3769 125.2813,208.3769 Q125.9063,208.3769 126.5,208.1113 Q127.0938,207.83 127.7188,207.2519 L127.7188,209.9706 Z " fill="#000000"/><text fill="#000000" font-family="sans-serif" font-size="14" lengthAdjust="spacing" textLength="81" x="145.25" y="209.1767">FilterOutput</text><line style="stroke:#181818;stroke-width:0.5;" x1="8" x2="331" y1="220.33" y2="220.33"/><line style="stroke:#181818;stroke-width:0.5;" x1="8" x2="331" y1="228.33" y2="228.33"/><text fill="#000000" font-family="sans-serif" font-size="14" lengthAdjust="spacing" textLength="313" x="13" y="245.3251">.ctor(filter: Constraint, output: IOutputStream)</text></g><!--class ContextOutput--><g id="elem_ContextOutput"><rect codeLine="14" fill="#F1F1F1" height="80.5938" id="ContextOutput" rx="2.5" ry="2.5" style="stroke:#181818;stroke-width:0.5;" width="236" x="367.5" y="180.19"/><ellipse cx="430.25" cy="196.19" fill="#ADD1B2" rx="11" ry="11" style="stroke:#181818;stroke-width:1.0;"/><path d="M433.2188,201.8306 Q432.6406,202.1275 432,202.2681 Q431.3594,202.4244 430.6563,202.4244 Q428.1563,202.4244 426.8281,200.7838 Q425.5156,199.1275 425.5156,196.0025 Q425.5156,192.8775 426.8281,191.2213 Q428.1563,189.565 430.6563,189.565 Q431.3594,189.565 432,189.7213 Q432.6563,189.8775 433.2188,190.1744 L433.2188,192.8931 Q432.5938,192.315 432,192.0494 Q431.4063,191.7681 430.7813,191.7681 Q429.4375,191.7681 428.75,192.8463 Q428.0625,193.9088 428.0625,196.0025 Q428.0625,198.0963 428.75,199.1744 Q429.4375,200.2369 430.7813,200.2369 Q431.4063,200.2369 432,199.9713 Q432.5938,199.69 433.2188,199.1119 L433.2188,201.8306 Z " fill="#000000"/><text fill="#000000" font-family="sans-serif" font-size="14" lengthAdjust="spacing" textLength="102" x="450.75" y="201.0367">ContextOutput</text><line style="stroke:#181818;stroke-width:0.5;" x1="368.5" x2="602.5" y1="212.19" y2="212.19"/><line style="stroke:#181818;stroke-width:0.5;" x1="368.5" x2="602.5" y1="220.19" y2="220.19"/><text fill="#000000" font-family="sans-serif" font-size="14" lengthAdjust="spacing" textLength="223" x="373.5" y="237.1851">.ctor(filter: Constraint, int before,</text><text fill="#000000" font-family="sans-serif" font-size="14" lengthAdjust="spacing" textLength="220" x="377.5" y="253.482">int after, output: IOutputStream)</text></g><!--reverse link IOutputStream to FilterOutput--><g id="link_IOutputStream_FilterOutput"><path codeLine="12" d="M255.52,135.15 C236.65,153.66 217.24,172.69 201.64,187.98 " fill="none" id="IOutputStream-backto-FilterOutput" style="stroke:#181818;stroke-width:1.0;stroke-dasharray:7.0,7.0;"/><polygon fill="none" points="250.28,130.51,269.46,121.51,260.08,140.51,250.28,130.51" style="stroke:#181818;stroke-width:1.0;"/></g><!--reverse link IOutputStream to ContextOutput--><g id="link_IOutputStream_ContextOutput"><path codeLine="17" d="M399.47,135.14 C415.24,150.6 431.39,166.44 445.37,180.15 " fill="none" id="IOutputStream-backto-ContextOutput" style="stroke:#181818;stroke-width:1.0;stroke-dasharray:7.0,7.0;"/><polygon fill="none" points="394.92,140.51,385.54,121.51,404.72,130.51,394.92,140.51" style="stroke:#181818;stroke-width:1.0;"/></g><!--SRC=[bP31QiCm38RlUGeTMmXv05Dsw4OXC5PO2hliegJAC7Da8okmqEtTfwGR8wTjFXX-I_f-_VQi93rs1FLnr3Hgeq8umAK0EysOKXJDUyyeauCsnh0KdiGhRO9dSd0Nz2H6k3UrnqpRNpjAIDYzaZfu93mVEKnDGjwrazBDTReXhTcssVG-q0CE1iagdbzAyFFx8Sg0Db__Y6tnKHHTm9pXu8EbkkRvIb9r6cMcMS71RMJ3eMSj8IvjRfr_Xgq_PFTUdQiL-TlDO4fl-aSxkw2bFWgLpxmexAtfdtkiF8jF]--></g></svg>