<?xml version="1.0" encoding="UTF-8" standalone="no"?><svg xmlns="http://www.w3.org/2000/svg" xmlns:xlink="http://www.w3.org/1999/xlink" contentScriptType="application/ecmascript" contentStyleType="text/css" height="192px" preserveAspectRatio="none" style="width:730px;height:192px;background:#FFFFFF;" version="1.1" viewBox="0 0 730 192" width="730px" zoomAndPan="magnify"><defs><filter height="300%" id="f1e3zi3hj8bbh4" width="300%" x="-1" y="-1"><feGaussianBlur result="blurOut" stdDeviation="2.0"/><feColorMatrix in="blurOut" result="blurOut2" type="matrix" values="0 0 0 0 0 0 0 0 0 0 0 0 0 0 0 0 0 0 .4 0"/><feOffset dx="4.0" dy="4.0" in="blurOut2" result="blurOut3"/><feBlend in="SourceGraphic" in2="blurOut3" mode="normal"/></filter></defs><g><!--MD5=[362837878af92ba71ae40d034f8eec69]
class DltTraceDecoderBase--><rect codeLine="1" fill="#FEFECE" filter="url(#f1e3zi3hj8bbh4)" height="48" id="DltTraceDecoderBase" style="stroke:#A80036;stroke-width:1.5;" width="154" x="7" y="14"/><ellipse cx="22" cy="30" fill="#ADD1B2" rx="11" ry="11" style="stroke:#A80036;stroke-width:1.0;"/><path d="M24.7656,25.875 Q24.9219,25.6563 25.1094,25.5469 Q25.2969,25.4375 25.5156,25.4375 Q25.8906,25.4375 26.125,25.6953 Q26.3594,25.9531 26.3594,26.5625 L26.3594,28.0156 Q26.3594,28.625 26.125,28.8906 Q25.8906,29.1563 25.5156,29.1563 Q25.1719,29.1563 24.9688,28.9531 Q24.7656,28.7656 24.6563,28.25 Q24.6094,27.8906 24.4219,27.7031 Q24.0938,27.3281 23.4844,27.1094 Q22.875,26.8906 22.25,26.8906 Q21.4844,26.8906 20.8516,27.2188 Q20.2188,27.5469 19.7266,28.2969 Q19.2344,29.0469 19.2344,30.0781 L19.2344,31.1719 Q19.2344,32.4063 20.125,33.2266 Q21.0156,34.0469 22.6094,34.0469 Q23.5469,34.0469 24.2031,33.7969 Q24.5938,33.6406 25.0156,33.2031 Q25.2813,32.9375 25.4297,32.8594 Q25.5781,32.7813 25.7813,32.7813 Q26.1094,32.7813 26.3672,33.0391 Q26.625,33.2969 26.625,33.6406 Q26.625,33.9844 26.2813,34.3906 Q25.7813,34.9688 24.9844,35.2969 Q23.9063,35.75 22.6094,35.75 Q21.0938,35.75 19.8906,35.125 Q18.9063,34.625 18.2188,33.5547 Q17.5313,32.4844 17.5313,31.2031 L17.5313,30.0469 Q17.5313,28.7188 18.1484,27.5703 Q18.7656,26.4219 19.8594,25.8047 Q20.9531,25.1875 22.1875,25.1875 Q22.9219,25.1875 23.5703,25.3516 Q24.2188,25.5156 24.7656,25.875 Z " fill="#000000"/><text fill="#000000" font-family="sans-serif" font-size="12" lengthAdjust="spacing" textLength="122" x="36" y="34.9102">DltTraceDecoderBase</text><line style="stroke:#A80036;stroke-width:1.5;" x1="8" x2="160" y1="46" y2="46"/><line style="stroke:#A80036;stroke-width:1.5;" x1="8" x2="160" y1="54" y2="54"/><!--MD5=[6148756aade145b82c5ac4593e9694ca]
class INonVerboseDltDecoder--><rect codeLine="4" fill="#FEFECE" filter="url(#f1e3zi3hj8bbh4)" height="61.8359" id="INonVerboseDltDecoder" style="stroke:#A80036;stroke-width:1.5;" width="357" x="239.5" y="7"/><ellipse cx="345.75" cy="23" fill="#B4A7E5" rx="11" ry="11" style="stroke:#A80036;stroke-width:1.0;"/><path d="M346.7031,19.6406 L346.7031,26.2969 L348.4219,26.2969 Q349.0313,26.2969 349.2969,26.5313 Q349.5625,26.7656 349.5625,27.1563 Q349.5625,27.5313 349.2969,27.7656 Q349.0313,28 348.4219,28 L343.2813,28 Q342.6719,28 342.4063,27.7656 Q342.1406,27.5313 342.1406,27.1406 Q342.1406,26.7656 342.4063,26.5313 Q342.6719,26.2969 343.2813,26.2969 L345,26.2969 L345,19.6406 L343.2813,19.6406 Q342.6719,19.6406 342.4063,19.4063 Q342.1406,19.1719 342.1406,18.7813 Q342.1406,18.4063 342.4063,18.1719 Q342.6719,17.9375 343.2813,17.9375 L348.4219,17.9375 Q349.0313,17.9375 349.2969,18.1719 Q349.5625,18.4063 349.5625,18.7813 Q349.5625,19.1719 349.2969,19.4063 Q349.0313,19.6406 348.4219,19.6406 L346.7031,19.6406 Z " fill="#000000"/><text fill="#000000" font-family="sans-serif" font-size="12" font-style="italic" lengthAdjust="spacing" textLength="136" x="366.25" y="27.9102">INonVerboseDltDecoder</text><line style="stroke:#A80036;stroke-width:1.5;" x1="240.5" x2="595.5" y1="39" y2="39"/><line style="stroke:#A80036;stroke-width:1.5;" x1="240.5" x2="595.5" y1="47" y2="47"/><ellipse cx="250.5" cy="58" fill="#84BE84" rx="3" ry="3" style="stroke:#038048;stroke-width:1.0;"/><text fill="#000000" font-family="sans-serif" font-size="11" lengthAdjust="spacing" textLength="331" x="259.5" y="62.4189">Decode(buffer: ReadOnlySpan&lt;byte&gt;, lineBuilder: IDltLineBuilder): int</text><!--MD5=[7e528b9e47efd3cc60a79db55f58b6ae]
class NonVerboseByteDecoder--><rect codeLine="8" fill="#FEFECE" filter="url(#f1e3zi3hj8bbh4)" height="48" id="NonVerboseByteDecoder" style="stroke:#A80036;stroke-width:1.5;" width="171" x="332.5" y="130"/><ellipse cx="347.5" cy="146" fill="#ADD1B2" rx="11" ry="11" style="stroke:#A80036;stroke-width:1.0;"/><path d="M350.2656,141.875 Q350.4219,141.6563 350.6094,141.5469 Q350.7969,141.4375 351.0156,141.4375 Q351.3906,141.4375 351.625,141.6953 Q351.8594,141.9531 351.8594,142.5625 L351.8594,144.0156 Q351.8594,144.625 351.625,144.8906 Q351.3906,145.1563 351.0156,145.1563 Q350.6719,145.1563 350.4688,144.9531 Q350.2656,144.7656 350.1563,144.25 Q350.1094,143.8906 349.9219,143.7031 Q349.5938,143.3281 348.9844,143.1094 Q348.375,142.8906 347.75,142.8906 Q346.9844,142.8906 346.3516,143.2188 Q345.7188,143.5469 345.2266,144.2969 Q344.7344,145.0469 344.7344,146.0781 L344.7344,147.1719 Q344.7344,148.4063 345.625,149.2266 Q346.5156,150.0469 348.1094,150.0469 Q349.0469,150.0469 349.7031,149.7969 Q350.0938,149.6406 350.5156,149.2031 Q350.7813,148.9375 350.9297,148.8594 Q351.0781,148.7813 351.2813,148.7813 Q351.6094,148.7813 351.8672,149.0391 Q352.125,149.2969 352.125,149.6406 Q352.125,149.9844 351.7813,150.3906 Q351.2813,150.9688 350.4844,151.2969 Q349.4063,151.75 348.1094,151.75 Q346.5938,151.75 345.3906,151.125 Q344.4063,150.625 343.7188,149.5547 Q343.0313,148.4844 343.0313,147.2031 L343.0313,146.0469 Q343.0313,144.7188 343.6484,143.5703 Q344.2656,142.4219 345.3594,141.8047 Q346.4531,141.1875 347.6875,141.1875 Q348.4219,141.1875 349.0703,141.3516 Q349.7188,141.5156 350.2656,141.875 Z " fill="#000000"/><text fill="#000000" font-family="sans-serif" font-size="12" lengthAdjust="spacing" textLength="139" x="361.5" y="150.9102">NonVerboseByteDecoder</text><line style="stroke:#A80036;stroke-width:1.5;" x1="333.5" x2="502.5" y1="162" y2="162"/><line style="stroke:#A80036;stroke-width:1.5;" x1="333.5" x2="502.5" y1="170" y2="170"/><!--MD5=[52e0f8b607b660198cb3726cffccafe5]
class NonVerboseArg--><rect codeLine="10" fill="#FEFECE" filter="url(#f1e3zi3hj8bbh4)" height="48" id="NonVerboseArg" style="stroke:#A80036;stroke-width:1.5;" width="119" x="597.5" y="130"/><ellipse cx="612.5" cy="146" fill="#ADD1B2" rx="11" ry="11" style="stroke:#A80036;stroke-width:1.0;"/><path d="M615.2656,141.875 Q615.4219,141.6563 615.6094,141.5469 Q615.7969,141.4375 616.0156,141.4375 Q616.3906,141.4375 616.625,141.6953 Q616.8594,141.9531 616.8594,142.5625 L616.8594,144.0156 Q616.8594,144.625 616.625,144.8906 Q616.3906,145.1563 616.0156,145.1563 Q615.6719,145.1563 615.4688,144.9531 Q615.2656,144.7656 615.1563,144.25 Q615.1094,143.8906 614.9219,143.7031 Q614.5938,143.3281 613.9844,143.1094 Q613.375,142.8906 612.75,142.8906 Q611.9844,142.8906 611.3516,143.2188 Q610.7188,143.5469 610.2266,144.2969 Q609.7344,145.0469 609.7344,146.0781 L609.7344,147.1719 Q609.7344,148.4063 610.625,149.2266 Q611.5156,150.0469 613.1094,150.0469 Q614.0469,150.0469 614.7031,149.7969 Q615.0938,149.6406 615.5156,149.2031 Q615.7813,148.9375 615.9297,148.8594 Q616.0781,148.7813 616.2813,148.7813 Q616.6094,148.7813 616.8672,149.0391 Q617.125,149.2969 617.125,149.6406 Q617.125,149.9844 616.7813,150.3906 Q616.2813,150.9688 615.4844,151.2969 Q614.4063,151.75 613.1094,151.75 Q611.5938,151.75 610.3906,151.125 Q609.4063,150.625 608.7188,149.5547 Q608.0313,148.4844 608.0313,147.2031 L608.0313,146.0469 Q608.0313,144.7188 608.6484,143.5703 Q609.2656,142.4219 610.3594,141.8047 Q611.4531,141.1875 612.6875,141.1875 Q613.4219,141.1875 614.0703,141.3516 Q614.7188,141.5156 615.2656,141.875 Z " fill="#000000"/><text fill="#000000" font-family="sans-serif" font-size="12" lengthAdjust="spacing" textLength="87" x="626.5" y="150.9102">NonVerboseArg</text><line style="stroke:#A80036;stroke-width:1.5;" x1="598.5" x2="715.5" y1="162" y2="162"/><line style="stroke:#A80036;stroke-width:1.5;" x1="598.5" x2="715.5" y1="170" y2="170"/><!--MD5=[1ad67f2996b030afc2324a3ac0cde6f8]
link DltTraceDecoderBase to INonVerboseDltDecoder--><path codeLine="2" d="M161.05,38 C183.26,38 208.5,38 234.28,38 " fill="none" id="DltTraceDecoderBase-to-INonVerboseDltDecoder" style="stroke:#A80036;stroke-width:1.0;"/><polygon fill="#A80036" points="239.44,38,230.44,34,234.44,38,230.44,42,239.44,38" style="stroke:#A80036;stroke-width:1.0;"/><text fill="#000000" font-family="sans-serif" font-size="13" lengthAdjust="spacing" textLength="42" x="179.25" y="31.4951">«uses»</text><!--MD5=[978d333d9e5246ad18a3c5246ed80ee3]
reverse link INonVerboseDltDecoder to NonVerboseByteDecoder--><path codeLine="9" d="M418,89.69 C418,103.71 418,118.24 418,129.84 " fill="none" id="INonVerboseDltDecoder-backto-NonVerboseByteDecoder" style="stroke:#A80036;stroke-width:1.0;stroke-dasharray:7.0,7.0;"/><polygon fill="none" points="411,89.25,418,69.25,425,89.25,411,89.25" style="stroke:#A80036;stroke-width:1.0;"/><!--MD5=[6e05aae1eceaa4f1572380af73480567]
link NonVerboseByteDecoder to NonVerboseArg--><path codeLine="12" d="M503.61,154 C532.86,154 565.07,154 592.39,154 " fill="none" id="NonVerboseByteDecoder-to-NonVerboseArg" style="stroke:#A80036;stroke-width:1.0;"/><polygon fill="#A80036" points="597.43,154,588.43,150,592.43,154,588.43,158,597.43,154" style="stroke:#A80036;stroke-width:1.0;"/><text fill="#000000" font-family="sans-serif" font-size="13" lengthAdjust="spacing" textLength="57" x="522" y="147.4951">«creates»</text><!--MD5=[2db044a0c3f3a78d6e7dc7587178d33c]
@startuml DLT.DecoderNonVerboseByteOnly
class DltTraceDecoderBase
DltTraceDecoderBase -r-> INonVerboseDltDecoder : <<uses>>

interface INonVerboseDltDecoder {
    +Decode(buffer: ReadOnlySpan<byte>, lineBuilder: IDltLineBuilder): int
}

class NonVerboseByteDecoder
INonVerboseDltDecoder <|.d. NonVerboseByteDecoder
class NonVerboseArg

NonVerboseByteDecoder -r-> NonVerboseArg : <<creates>>
@enduml

PlantUML version 1.2021.16(Wed Dec 08 18:25:22 CET 2021)
(GPL source distribution)
Java Runtime: Java(TM) SE Runtime Environment
JVM: Java HotSpot(TM) 64-Bit Server VM
Default Encoding: Cp1252
Language: en
Country: GB
--></g></svg>