<?xml version="1.0" encoding="UTF-8" standalone="no"?><svg xmlns="http://www.w3.org/2000/svg" xmlns:xlink="http://www.w3.org/1999/xlink" contentScriptType="application/ecmascript" contentStyleType="text/css" height="192px" preserveAspectRatio="none" style="width:751px;height:192px;background:#FFFFFF;" version="1.1" viewBox="0 0 751 192" width="751px" zoomAndPan="magnify"><defs><filter height="300%" id="f5vzz828y90k7" width="300%" x="-1" y="-1"><feGaussianBlur result="blurOut" stdDeviation="2.0"/><feColorMatrix in="blurOut" result="blurOut2" type="matrix" values="0 0 0 0 0 0 0 0 0 0 0 0 0 0 0 0 0 0 .4 0"/><feOffset dx="4.0" dy="4.0" in="blurOut2" result="blurOut3"/><feBlend in="SourceGraphic" in2="blurOut3" mode="normal"/></filter></defs><g><!--MD5=[362837878af92ba71ae40d034f8eec69]
class DltTraceDecoderBase--><rect codeLine="1" fill="#FEFECE" filter="url(#f5vzz828y90k7)" height="48" id="DltTraceDecoderBase" style="stroke:#A80036;stroke-width:1.5;" width="154" x="7" y="14"/><ellipse cx="22" cy="30" fill="#ADD1B2" rx="11" ry="11" style="stroke:#A80036;stroke-width:1.0;"/><path d="M24.7656,25.875 Q24.9219,25.6563 25.1094,25.5469 Q25.2969,25.4375 25.5156,25.4375 Q25.8906,25.4375 26.125,25.6953 Q26.3594,25.9531 26.3594,26.5625 L26.3594,28.0156 Q26.3594,28.625 26.125,28.8906 Q25.8906,29.1563 25.5156,29.1563 Q25.1719,29.1563 24.9688,28.9531 Q24.7656,28.7656 24.6563,28.25 Q24.6094,27.8906 24.4219,27.7031 Q24.0938,27.3281 23.4844,27.1094 Q22.875,26.8906 22.25,26.8906 Q21.4844,26.8906 20.8516,27.2188 Q20.2188,27.5469 19.7266,28.2969 Q19.2344,29.0469 19.2344,30.0781 L19.2344,31.1719 Q19.2344,32.4063 20.125,33.2266 Q21.0156,34.0469 22.6094,34.0469 Q23.5469,34.0469 24.2031,33.7969 Q24.5938,33.6406 25.0156,33.2031 Q25.2813,32.9375 25.4297,32.8594 Q25.5781,32.7813 25.7813,32.7813 Q26.1094,32.7813 26.3672,33.0391 Q26.625,33.2969 26.625,33.6406 Q26.625,33.9844 26.2813,34.3906 Q25.7813,34.9688 24.9844,35.2969 Q23.9063,35.75 22.6094,35.75 Q21.0938,35.75 19.8906,35.125 Q18.9063,34.625 18.2188,33.5547 Q17.5313,32.4844 17.5313,31.2031 L17.5313,30.0469 Q17.5313,28.7188 18.1484,27.5703 Q18.7656,26.4219 19.8594,25.8047 Q20.9531,25.1875 22.1875,25.1875 Q22.9219,25.1875 23.5703,25.3516 Q24.2188,25.5156 24.7656,25.875 Z " fill="#000000"/><text fill="#000000" font-family="sans-serif" font-size="12" lengthAdjust="spacing" textLength="122" x="36" y="34.9102">DltTraceDecoderBase</text><line style="stroke:#A80036;stroke-width:1.5;" x1="8" x2="160" y1="46" y2="46"/><line style="stroke:#A80036;stroke-width:1.5;" x1="8" x2="160" y1="54" y2="54"/><!--MD5=[6148756aade145b82c5ac4593e9694ca]
class INonVerboseDltDecoder--><rect codeLine="4" fill="#FEFECE" filter="url(#f5vzz828y90k7)" height="61.8359" id="INonVerboseDltDecoder" style="stroke:#A80036;stroke-width:1.5;" width="399" x="239.5" y="7"/><ellipse cx="366.75" cy="23" fill="#B4A7E5" rx="11" ry="11" style="stroke:#A80036;stroke-width:1.0;"/><path d="M367.7031,19.6406 L367.7031,26.2969 L369.4219,26.2969 Q370.0313,26.2969 370.2969,26.5313 Q370.5625,26.7656 370.5625,27.1563 Q370.5625,27.5313 370.2969,27.7656 Q370.0313,28 369.4219,28 L364.2813,28 Q363.6719,28 363.4063,27.7656 Q363.1406,27.5313 363.1406,27.1406 Q363.1406,26.7656 363.4063,26.5313 Q363.6719,26.2969 364.2813,26.2969 L366,26.2969 L366,19.6406 L364.2813,19.6406 Q363.6719,19.6406 363.4063,19.4063 Q363.1406,19.1719 363.1406,18.7813 Q363.1406,18.4063 363.4063,18.1719 Q363.6719,17.9375 364.2813,17.9375 L369.4219,17.9375 Q370.0313,17.9375 370.2969,18.1719 Q370.5625,18.4063 370.5625,18.7813 Q370.5625,19.1719 370.2969,19.4063 Q370.0313,19.6406 369.4219,19.6406 L367.7031,19.6406 Z " fill="#000000"/><text fill="#000000" font-family="sans-serif" font-size="12" font-style="italic" lengthAdjust="spacing" textLength="136" x="387.25" y="27.9102">INonVerboseDltDecoder</text><line style="stroke:#A80036;stroke-width:1.5;" x1="240.5" x2="637.5" y1="39" y2="39"/><line style="stroke:#A80036;stroke-width:1.5;" x1="240.5" x2="637.5" y1="47" y2="47"/><ellipse cx="250.5" cy="58" fill="#84BE84" rx="3" ry="3" style="stroke:#038048;stroke-width:1.0;"/><text fill="#000000" font-family="sans-serif" font-size="11" lengthAdjust="spacing" textLength="373" x="259.5" y="62.4189">Decode(buffer: ReadOnlySpan&lt;byte&gt;, lineBuilder: IDltLineBuilder): Result&lt;int&gt;</text><!--MD5=[7e528b9e47efd3cc60a79db55f58b6ae]
class NonVerboseByteDecoder--><rect codeLine="8" fill="#FEFECE" filter="url(#f5vzz828y90k7)" height="48" id="NonVerboseByteDecoder" style="stroke:#A80036;stroke-width:1.5;" width="171" x="353.5" y="130"/><ellipse cx="368.5" cy="146" fill="#ADD1B2" rx="11" ry="11" style="stroke:#A80036;stroke-width:1.0;"/><path d="M371.2656,141.875 Q371.4219,141.6563 371.6094,141.5469 Q371.7969,141.4375 372.0156,141.4375 Q372.3906,141.4375 372.625,141.6953 Q372.8594,141.9531 372.8594,142.5625 L372.8594,144.0156 Q372.8594,144.625 372.625,144.8906 Q372.3906,145.1563 372.0156,145.1563 Q371.6719,145.1563 371.4688,144.9531 Q371.2656,144.7656 371.1563,144.25 Q371.1094,143.8906 370.9219,143.7031 Q370.5938,143.3281 369.9844,143.1094 Q369.375,142.8906 368.75,142.8906 Q367.9844,142.8906 367.3516,143.2188 Q366.7188,143.5469 366.2266,144.2969 Q365.7344,145.0469 365.7344,146.0781 L365.7344,147.1719 Q365.7344,148.4063 366.625,149.2266 Q367.5156,150.0469 369.1094,150.0469 Q370.0469,150.0469 370.7031,149.7969 Q371.0938,149.6406 371.5156,149.2031 Q371.7813,148.9375 371.9297,148.8594 Q372.0781,148.7813 372.2813,148.7813 Q372.6094,148.7813 372.8672,149.0391 Q373.125,149.2969 373.125,149.6406 Q373.125,149.9844 372.7813,150.3906 Q372.2813,150.9688 371.4844,151.2969 Q370.4063,151.75 369.1094,151.75 Q367.5938,151.75 366.3906,151.125 Q365.4063,150.625 364.7188,149.5547 Q364.0313,148.4844 364.0313,147.2031 L364.0313,146.0469 Q364.0313,144.7188 364.6484,143.5703 Q365.2656,142.4219 366.3594,141.8047 Q367.4531,141.1875 368.6875,141.1875 Q369.4219,141.1875 370.0703,141.3516 Q370.7188,141.5156 371.2656,141.875 Z " fill="#000000"/><text fill="#000000" font-family="sans-serif" font-size="12" lengthAdjust="spacing" textLength="139" x="382.5" y="150.9102">NonVerboseByteDecoder</text><line style="stroke:#A80036;stroke-width:1.5;" x1="354.5" x2="523.5" y1="162" y2="162"/><line style="stroke:#A80036;stroke-width:1.5;" x1="354.5" x2="523.5" y1="170" y2="170"/><!--MD5=[52e0f8b607b660198cb3726cffccafe5]
class NonVerboseArg--><rect codeLine="10" fill="#FEFECE" filter="url(#f5vzz828y90k7)" height="48" id="NonVerboseArg" style="stroke:#A80036;stroke-width:1.5;" width="119" x="618.5" y="130"/><ellipse cx="633.5" cy="146" fill="#ADD1B2" rx="11" ry="11" style="stroke:#A80036;stroke-width:1.0;"/><path d="M636.2656,141.875 Q636.4219,141.6563 636.6094,141.5469 Q636.7969,141.4375 637.0156,141.4375 Q637.3906,141.4375 637.625,141.6953 Q637.8594,141.9531 637.8594,142.5625 L637.8594,144.0156 Q637.8594,144.625 637.625,144.8906 Q637.3906,145.1563 637.0156,145.1563 Q636.6719,145.1563 636.4688,144.9531 Q636.2656,144.7656 636.1563,144.25 Q636.1094,143.8906 635.9219,143.7031 Q635.5938,143.3281 634.9844,143.1094 Q634.375,142.8906 633.75,142.8906 Q632.9844,142.8906 632.3516,143.2188 Q631.7188,143.5469 631.2266,144.2969 Q630.7344,145.0469 630.7344,146.0781 L630.7344,147.1719 Q630.7344,148.4063 631.625,149.2266 Q632.5156,150.0469 634.1094,150.0469 Q635.0469,150.0469 635.7031,149.7969 Q636.0938,149.6406 636.5156,149.2031 Q636.7813,148.9375 636.9297,148.8594 Q637.0781,148.7813 637.2813,148.7813 Q637.6094,148.7813 637.8672,149.0391 Q638.125,149.2969 638.125,149.6406 Q638.125,149.9844 637.7813,150.3906 Q637.2813,150.9688 636.4844,151.2969 Q635.4063,151.75 634.1094,151.75 Q632.5938,151.75 631.3906,151.125 Q630.4063,150.625 629.7188,149.5547 Q629.0313,148.4844 629.0313,147.2031 L629.0313,146.0469 Q629.0313,144.7188 629.6484,143.5703 Q630.2656,142.4219 631.3594,141.8047 Q632.4531,141.1875 633.6875,141.1875 Q634.4219,141.1875 635.0703,141.3516 Q635.7188,141.5156 636.2656,141.875 Z " fill="#000000"/><text fill="#000000" font-family="sans-serif" font-size="12" lengthAdjust="spacing" textLength="87" x="647.5" y="150.9102">NonVerboseArg</text><line style="stroke:#A80036;stroke-width:1.5;" x1="619.5" x2="736.5" y1="162" y2="162"/><line style="stroke:#A80036;stroke-width:1.5;" x1="619.5" x2="736.5" y1="170" y2="170"/><!--MD5=[1ad67f2996b030afc2324a3ac0cde6f8]
link DltTraceDecoderBase to INonVerboseDltDecoder--><path codeLine="2" d="M161.03,38 C183.11,38 208.28,38 234.26,38 " fill="none" id="DltTraceDecoderBase-to-INonVerboseDltDecoder" style="stroke:#A80036;stroke-width:1.0;"/><polygon fill="#A80036" points="239.46,38,230.46,34,234.46,38,230.46,42,239.46,38" style="stroke:#A80036;stroke-width:1.0;"/><text fill="#000000" font-family="sans-serif" font-size="13" lengthAdjust="spacing" textLength="42" x="179.25" y="31.4951">«uses»</text><!--MD5=[978d333d9e5246ad18a3c5246ed80ee3]
reverse link INonVerboseDltDecoder to NonVerboseByteDecoder--><path codeLine="9" d="M439,89.69 C439,103.71 439,118.24 439,129.84 " fill="none" id="INonVerboseDltDecoder-backto-NonVerboseByteDecoder" style="stroke:#A80036;stroke-width:1.0;stroke-dasharray:7.0,7.0;"/><polygon fill="none" points="432,89.25,439,69.25,446,89.25,432,89.25" style="stroke:#A80036;stroke-width:1.0;"/><!--MD5=[6e05aae1eceaa4f1572380af73480567]
link NonVerboseByteDecoder to NonVerboseArg--><path codeLine="12" d="M524.61,154 C553.86,154 586.07,154 613.39,154 " fill="none" id="NonVerboseByteDecoder-to-NonVerboseArg" style="stroke:#A80036;stroke-width:1.0;"/><polygon fill="#A80036" points="618.43,154,609.43,150,613.43,154,609.43,158,618.43,154" style="stroke:#A80036;stroke-width:1.0;"/><text fill="#000000" font-family="sans-serif" font-size="13" lengthAdjust="spacing" textLength="57" x="543" y="147.4951">«creates»</text><!--MD5=[a80864bb46429e36e1f5fee1ec5fa12a]
@startuml DLT.DecoderNonVerboseByteOnly
class DltTraceDecoderBase
DltTraceDecoderBase -r-> INonVerboseDltDecoder : <<uses>>

interface INonVerboseDltDecoder {
    +Decode(buffer: ReadOnlySpan<byte>, lineBuilder: IDltLineBuilder): Result<int>
}

class NonVerboseByteDecoder
INonVerboseDltDecoder <|.d. NonVerboseByteDecoder
class NonVerboseArg

NonVerboseByteDecoder -r-> NonVerboseArg : <<creates>>
@enduml

PlantUML version 1.2022.1(Tue Feb 01 19:19:58 CET 2022)
(GPL source distribution)
Java Runtime: Java(TM) SE Runtime Environment
JVM: Java HotSpot(TM) 64-Bit Server VM
Default Encoding: Cp1252
Language: en
Country: GB
--></g></svg>