<?xml version="1.0" encoding="us-ascii" standalone="no"?><svg xmlns="http://www.w3.org/2000/svg" xmlns:xlink="http://www.w3.org/1999/xlink" contentStyleType="text/css" height="187px" preserveAspectRatio="none" style="width:915px;height:187px;background:#FFFFFF;" version="1.1" viewBox="0 0 915 187" width="915px" zoomAndPan="magnify"><defs/><g><!--class DltTraceDecoderBase--><g id="elem_DltTraceDecoderBase"><rect codeLine="1" fill="#F1F1F1" height="48" id="DltTraceDecoderBase" rx="2.5" ry="2.5" style="stroke:#181818;stroke-width:0.5;" width="185" x="7" y="15.15"/><ellipse cx="22" cy="31.15" fill="#ADD1B2" rx="11" ry="11" style="stroke:#181818;stroke-width:1.0;"/><path d="M24.9688,36.7906 Q24.3906,37.0875 23.75,37.2281 Q23.1094,37.3844 22.4063,37.3844 Q19.9063,37.3844 18.5781,35.7438 Q17.2656,34.0875 17.2656,30.9625 Q17.2656,27.8375 18.5781,26.1813 Q19.9063,24.525 22.4063,24.525 Q23.1094,24.525 23.75,24.6813 Q24.4063,24.8375 24.9688,25.1344 L24.9688,27.8531 Q24.3438,27.275 23.75,27.0094 Q23.1563,26.7281 22.5313,26.7281 Q21.1875,26.7281 20.5,27.8063 Q19.8125,28.8688 19.8125,30.9625 Q19.8125,33.0563 20.5,34.1344 Q21.1875,35.1969 22.5313,35.1969 Q23.1563,35.1969 23.75,34.9313 Q24.3438,34.65 24.9688,34.0719 L24.9688,36.7906 Z " fill="#000000"/><text fill="#000000" font-family="sans-serif" font-size="14" lengthAdjust="spacing" textLength="153" x="36" y="35.9967">DltTraceDecoderBase</text><line style="stroke:#181818;stroke-width:0.5;" x1="8" x2="191" y1="47.15" y2="47.15"/><line style="stroke:#181818;stroke-width:0.5;" x1="8" x2="191" y1="55.15" y2="55.15"/></g><!--class INonVerboseDltDecoder--><g id="elem_INonVerboseDltDecoder"><rect codeLine="4" fill="#F1F1F1" height="64.2969" id="INonVerboseDltDecoder" rx="2.5" ry="2.5" style="stroke:#181818;stroke-width:0.5;" width="576" x="274.5" y="7"/><ellipse cx="474.25" cy="23" fill="#B4A7E5" rx="11" ry="11" style="stroke:#181818;stroke-width:1.0;"/><path d="M470.1719,18.7656 L470.1719,16.6094 L477.5625,16.6094 L477.5625,18.7656 L475.0938,18.7656 L475.0938,26.8438 L477.5625,26.8438 L477.5625,29 L470.1719,29 L470.1719,26.8438 L472.6406,26.8438 L472.6406,18.7656 L470.1719,18.7656 Z " fill="#000000"/><text fill="#000000" font-family="sans-serif" font-size="14" font-style="italic" lengthAdjust="spacing" textLength="168" x="494.75" y="27.8467">INonVerboseDltDecoder</text><line style="stroke:#181818;stroke-width:0.5;" x1="275.5" x2="849.5" y1="39" y2="39"/><line style="stroke:#181818;stroke-width:0.5;" x1="275.5" x2="849.5" y1="47" y2="47"/><ellipse cx="285.5" cy="60.6484" fill="#84BE84" rx="3" ry="3" style="stroke:#038048;stroke-width:1.0;"/><text fill="#000000" font-family="sans-serif" font-size="14" lengthAdjust="spacing" textLength="550" x="294.5" y="63.9951">Decode(buffer: ReadOnlySpan&lt;byte&gt;, lineBuilder: IDltLineBuilder): Result&lt;int&gt;</text></g><!--class NonVerboseByteDecoder--><g id="elem_NonVerboseByteDecoder"><rect codeLine="8" fill="#F1F1F1" height="48" id="NonVerboseByteDecoder" rx="2.5" ry="2.5" style="stroke:#181818;stroke-width:0.5;" width="209" x="458" y="132.3"/><ellipse cx="473" cy="148.3" fill="#ADD1B2" rx="11" ry="11" style="stroke:#181818;stroke-width:1.0;"/><path d="M475.9688,153.9406 Q475.3906,154.2375 474.75,154.3781 Q474.1094,154.5344 473.4063,154.5344 Q470.9063,154.5344 469.5781,152.8938 Q468.2656,151.2375 468.2656,148.1125 Q468.2656,144.9875 469.5781,143.3313 Q470.9063,141.675 473.4063,141.675 Q474.1094,141.675 474.75,141.8313 Q475.4063,141.9875 475.9688,142.2844 L475.9688,145.0031 Q475.3438,144.425 474.75,144.1594 Q474.1563,143.8781 473.5313,143.8781 Q472.1875,143.8781 471.5,144.9563 Q470.8125,146.0188 470.8125,148.1125 Q470.8125,150.2063 471.5,151.2844 Q472.1875,152.3469 473.5313,152.3469 Q474.1563,152.3469 474.75,152.0813 Q475.3438,151.8 475.9688,151.2219 L475.9688,153.9406 Z " fill="#000000"/><text fill="#000000" font-family="sans-serif" font-size="14" lengthAdjust="spacing" textLength="177" x="487" y="153.1467">NonVerboseByteDecoder</text><line style="stroke:#181818;stroke-width:0.5;" x1="459" x2="666" y1="164.3" y2="164.3"/><line style="stroke:#181818;stroke-width:0.5;" x1="459" x2="666" y1="172.3" y2="172.3"/></g><!--class NonVerboseArg--><g id="elem_NonVerboseArg"><rect codeLine="10" fill="#F1F1F1" height="48" id="NonVerboseArg" rx="2.5" ry="2.5" style="stroke:#181818;stroke-width:0.5;" width="141" x="767" y="132.3"/><ellipse cx="782" cy="148.3" fill="#ADD1B2" rx="11" ry="11" style="stroke:#181818;stroke-width:1.0;"/><path d="M784.9688,153.9406 Q784.3906,154.2375 783.75,154.3781 Q783.1094,154.5344 782.4063,154.5344 Q779.9063,154.5344 778.5781,152.8938 Q777.2656,151.2375 777.2656,148.1125 Q777.2656,144.9875 778.5781,143.3313 Q779.9063,141.675 782.4063,141.675 Q783.1094,141.675 783.75,141.8313 Q784.4063,141.9875 784.9688,142.2844 L784.9688,145.0031 Q784.3438,144.425 783.75,144.1594 Q783.1563,143.8781 782.5313,143.8781 Q781.1875,143.8781 780.5,144.9563 Q779.8125,146.0188 779.8125,148.1125 Q779.8125,150.2063 780.5,151.2844 Q781.1875,152.3469 782.5313,152.3469 Q783.1563,152.3469 783.75,152.0813 Q784.3438,151.8 784.9688,151.2219 L784.9688,153.9406 Z " fill="#000000"/><text fill="#000000" font-family="sans-serif" font-size="14" lengthAdjust="spacing" textLength="109" x="796" y="153.1467">NonVerboseArg</text><line style="stroke:#181818;stroke-width:0.5;" x1="768" x2="907" y1="164.3" y2="164.3"/><line style="stroke:#181818;stroke-width:0.5;" x1="768" x2="907" y1="172.3" y2="172.3"/></g><!--link DltTraceDecoderBase to INonVerboseDltDecoder--><g id="link_DltTraceDecoderBase_INonVerboseDltDecoder"><path codeLine="2" d="M192.36,39.15 C215.4,39.15 241.35,39.15 268.54,39.15 " fill="none" id="DltTraceDecoderBase-to-INonVerboseDltDecoder" style="stroke:#181818;stroke-width:1.0;"/><polygon fill="#181818" points="273.36,39.15,264.36,35.15,268.36,39.15,264.36,43.15,273.36,39.15" style="stroke:#181818;stroke-width:1.0;"/><text fill="#000000" font-family="sans-serif" font-size="13" lengthAdjust="spacing" textLength="46" x="210.25" y="32.2169">&#171;uses&#187;</text></g><!--reverse link INonVerboseDltDecoder to NonVerboseByteDecoder--><g id="link_INonVerboseDltDecoder_NonVerboseByteDecoder"><path codeLine="9" d="M562.5,92.51 C562.5,106.31 562.5,120.51 562.5,131.91 " fill="none" id="INonVerboseDltDecoder-backto-NonVerboseByteDecoder" style="stroke:#181818;stroke-width:1.0;stroke-dasharray:7.0,7.0;"/><polygon fill="none" points="555.5,92.62,562.5,72.62,569.5,92.62,555.5,92.62" style="stroke:#181818;stroke-width:1.0;"/></g><!--link NonVerboseByteDecoder to NonVerboseArg--><g id="link_NonVerboseByteDecoder_NonVerboseArg"><path codeLine="12" d="M667.25,156.3 C698.41,156.3 731.96,156.3 760.97,156.3 " fill="none" id="NonVerboseByteDecoder-to-NonVerboseArg" style="stroke:#181818;stroke-width:1.0;"/><polygon fill="#181818" points="765.71,156.3,756.71,152.3,760.71,156.3,756.71,160.3,765.71,156.3" style="stroke:#181818;stroke-width:1.0;"/><text fill="#000000" font-family="sans-serif" font-size="13" lengthAdjust="spacing" textLength="64" x="685" y="149.3669">&#171;creates&#187;</text></g><!--SRC=[TP3D2i8m48Jl-nHxLBHzW182bbuAeg3YFKssKWYfvETGr7St_O6YjBbbyytCPgGMpc6X_SqAIGN9Lf7DXIDOc65Y4uxbgJLtibNhA3BJCsR8M73aE0TeZ2TRH-qA-mACPpTUDrMeQx8PNaYeiz7TzIaCgpfFV8-wCPI7HgiUAAF5SHviUuaBshEOn-4388VFp95vD9aoONaJzavLkgBuTplO1y0YElRoGmvzI4l2zvLy0G00]--></g></svg>