<?xml version="1.0" encoding="UTF-8" standalone="no"?><svg xmlns="http://www.w3.org/2000/svg" xmlns:xlink="http://www.w3.org/1999/xlink" contentScriptType="application/ecmascript" contentStyleType="text/css" height="304px" preserveAspectRatio="none" style="width:518px;height:304px;background:#FFFFFF;" version="1.1" viewBox="0 0 518 304" width="518px" zoomAndPan="magnify"><defs><filter height="300%" id="f1g5rnk7b61seb" width="300%" x="-1" y="-1"><feGaussianBlur result="blurOut" stdDeviation="2.0"/><feColorMatrix in="blurOut" result="blurOut2" type="matrix" values="0 0 0 0 0 0 0 0 0 0 0 0 0 0 0 0 0 0 .4 0"/><feOffset dx="4.0" dy="4.0" in="blurOut2" result="blurOut3"/><feBlend in="SourceGraphic" in2="blurOut3" mode="normal"/></filter></defs><g><!--MD5=[362837878af92ba71ae40d034f8eec69]
class DltTraceDecoderBase--><rect codeLine="1" fill="#FEFECE" filter="url(#f1g5rnk7b61seb)" height="48" id="DltTraceDecoderBase" style="stroke:#A80036;stroke-width:1.5;" width="153" x="264" y="133"/><ellipse cx="279" cy="149" fill="#A9DCDF" rx="11" ry="11" style="stroke:#A80036;stroke-width:1.0;"/><path d="M281.1875,150.7656 L277.0469,150.7656 L276.625,151.7969 L277.0469,151.7969 Q277.6563,151.7969 277.9219,152.0313 Q278.1875,152.2656 278.1875,152.6563 Q278.1875,153.0313 277.9219,153.2656 Q277.6563,153.5 277.0469,153.5 L274.75,153.5 Q274.1406,153.5 273.8828,153.2656 Q273.625,153.0313 273.625,152.6406 Q273.625,152.2656 273.8984,152.0234 Q274.1719,151.7813 274.7969,151.7969 L277.4688,145.1406 L276.3594,145.1406 Q275.75,145.1406 275.4844,144.9063 Q275.2188,144.6719 275.2188,144.2813 Q275.2188,143.9063 275.4844,143.6719 Q275.75,143.4375 276.3594,143.4375 L280.0313,143.4375 L283.4219,151.7969 Q284.0156,151.7969 284.2031,151.9375 Q284.5938,152.2031 284.5938,152.6563 Q284.5938,153.0313 284.3359,153.2656 Q284.0781,153.5 283.4688,153.5 L281.1719,153.5 Q280.5625,153.5 280.2969,153.2656 Q280.0313,153.0313 280.0313,152.6406 Q280.0313,152.2656 280.2969,152.0313 Q280.5625,151.7969 281.1719,151.7969 L281.5938,151.7969 L281.1875,150.7656 Z M280.4688,149.0625 L279.1094,145.6875 L277.7344,149.0625 L280.4688,149.0625 Z " fill="#000000"/><text fill="#000000" font-family="sans-serif" font-size="12" font-style="italic" lengthAdjust="spacing" textLength="121" x="293" y="153.9102">DltTraceDecoderBase</text><line style="stroke:#A80036;stroke-width:1.5;" x1="265" x2="416" y1="165" y2="165"/><line style="stroke:#A80036;stroke-width:1.5;" x1="265" x2="416" y1="173" y2="173"/><!--MD5=[ffb2fd249efbe4af1286e8136fa09e1b]
class DltTraceDecoder--><rect codeLine="2" fill="#FEFECE" filter="url(#f1g5rnk7b61seb)" height="48" id="DltTraceDecoder" style="stroke:#A80036;stroke-width:1.5;" width="125" x="7" y="7"/><ellipse cx="22" cy="23" fill="#ADD1B2" rx="11" ry="11" style="stroke:#A80036;stroke-width:1.0;"/><path d="M24.7656,18.875 Q24.9219,18.6563 25.1094,18.5469 Q25.2969,18.4375 25.5156,18.4375 Q25.8906,18.4375 26.125,18.6953 Q26.3594,18.9531 26.3594,19.5625 L26.3594,21.0156 Q26.3594,21.625 26.125,21.8906 Q25.8906,22.1563 25.5156,22.1563 Q25.1719,22.1563 24.9688,21.9531 Q24.7656,21.7656 24.6563,21.25 Q24.6094,20.8906 24.4219,20.7031 Q24.0938,20.3281 23.4844,20.1094 Q22.875,19.8906 22.25,19.8906 Q21.4844,19.8906 20.8516,20.2188 Q20.2188,20.5469 19.7266,21.2969 Q19.2344,22.0469 19.2344,23.0781 L19.2344,24.1719 Q19.2344,25.4063 20.125,26.2266 Q21.0156,27.0469 22.6094,27.0469 Q23.5469,27.0469 24.2031,26.7969 Q24.5938,26.6406 25.0156,26.2031 Q25.2813,25.9375 25.4297,25.8594 Q25.5781,25.7813 25.7813,25.7813 Q26.1094,25.7813 26.3672,26.0391 Q26.625,26.2969 26.625,26.6406 Q26.625,26.9844 26.2813,27.3906 Q25.7813,27.9688 24.9844,28.2969 Q23.9063,28.75 22.6094,28.75 Q21.0938,28.75 19.8906,28.125 Q18.9063,27.625 18.2188,26.5547 Q17.5313,25.4844 17.5313,24.2031 L17.5313,23.0469 Q17.5313,21.7188 18.1484,20.5703 Q18.7656,19.4219 19.8594,18.8047 Q20.9531,18.1875 22.1875,18.1875 Q22.9219,18.1875 23.5703,18.3516 Q24.2188,18.5156 24.7656,18.875 Z " fill="#000000"/><text fill="#000000" font-family="sans-serif" font-size="12" lengthAdjust="spacing" textLength="93" x="36" y="27.9102">DltTraceDecoder</text><line style="stroke:#A80036;stroke-width:1.5;" x1="8" x2="131" y1="39" y2="39"/><line style="stroke:#A80036;stroke-width:1.5;" x1="8" x2="131" y1="47" y2="47"/><!--MD5=[9716da447ba299fd08d9f03c7a2da576]
class DltFileTraceDecoder--><rect codeLine="3" fill="#FEFECE" filter="url(#f1g5rnk7b61seb)" height="48" id="DltFileTraceDecoder" style="stroke:#A80036;stroke-width:1.5;" width="145" x="359" y="7"/><ellipse cx="374" cy="23" fill="#ADD1B2" rx="11" ry="11" style="stroke:#A80036;stroke-width:1.0;"/><path d="M376.7656,18.875 Q376.9219,18.6563 377.1094,18.5469 Q377.2969,18.4375 377.5156,18.4375 Q377.8906,18.4375 378.125,18.6953 Q378.3594,18.9531 378.3594,19.5625 L378.3594,21.0156 Q378.3594,21.625 378.125,21.8906 Q377.8906,22.1563 377.5156,22.1563 Q377.1719,22.1563 376.9688,21.9531 Q376.7656,21.7656 376.6563,21.25 Q376.6094,20.8906 376.4219,20.7031 Q376.0938,20.3281 375.4844,20.1094 Q374.875,19.8906 374.25,19.8906 Q373.4844,19.8906 372.8516,20.2188 Q372.2188,20.5469 371.7266,21.2969 Q371.2344,22.0469 371.2344,23.0781 L371.2344,24.1719 Q371.2344,25.4063 372.125,26.2266 Q373.0156,27.0469 374.6094,27.0469 Q375.5469,27.0469 376.2031,26.7969 Q376.5938,26.6406 377.0156,26.2031 Q377.2813,25.9375 377.4297,25.8594 Q377.5781,25.7813 377.7813,25.7813 Q378.1094,25.7813 378.3672,26.0391 Q378.625,26.2969 378.625,26.6406 Q378.625,26.9844 378.2813,27.3906 Q377.7813,27.9688 376.9844,28.2969 Q375.9063,28.75 374.6094,28.75 Q373.0938,28.75 371.8906,28.125 Q370.9063,27.625 370.2188,26.5547 Q369.5313,25.4844 369.5313,24.2031 L369.5313,23.0469 Q369.5313,21.7188 370.1484,20.5703 Q370.7656,19.4219 371.8594,18.8047 Q372.9531,18.1875 374.1875,18.1875 Q374.9219,18.1875 375.5703,18.3516 Q376.2188,18.5156 376.7656,18.875 Z " fill="#000000"/><text fill="#000000" font-family="sans-serif" font-size="12" lengthAdjust="spacing" textLength="113" x="388" y="27.9102">DltFileTraceDecoder</text><line style="stroke:#A80036;stroke-width:1.5;" x1="360" x2="503" y1="39" y2="39"/><line style="stroke:#A80036;stroke-width:1.5;" x1="360" x2="503" y1="47" y2="47"/><!--MD5=[e7e6732740bbf62c5901758b99090339]
class DltSerialTraceDecoder--><rect codeLine="4" fill="#FEFECE" filter="url(#f1g5rnk7b61seb)" height="48" id="DltSerialTraceDecoder" style="stroke:#A80036;stroke-width:1.5;" width="157" x="167" y="7"/><ellipse cx="182" cy="23" fill="#ADD1B2" rx="11" ry="11" style="stroke:#A80036;stroke-width:1.0;"/><path d="M184.7656,18.875 Q184.9219,18.6563 185.1094,18.5469 Q185.2969,18.4375 185.5156,18.4375 Q185.8906,18.4375 186.125,18.6953 Q186.3594,18.9531 186.3594,19.5625 L186.3594,21.0156 Q186.3594,21.625 186.125,21.8906 Q185.8906,22.1563 185.5156,22.1563 Q185.1719,22.1563 184.9688,21.9531 Q184.7656,21.7656 184.6563,21.25 Q184.6094,20.8906 184.4219,20.7031 Q184.0938,20.3281 183.4844,20.1094 Q182.875,19.8906 182.25,19.8906 Q181.4844,19.8906 180.8516,20.2188 Q180.2188,20.5469 179.7266,21.2969 Q179.2344,22.0469 179.2344,23.0781 L179.2344,24.1719 Q179.2344,25.4063 180.125,26.2266 Q181.0156,27.0469 182.6094,27.0469 Q183.5469,27.0469 184.2031,26.7969 Q184.5938,26.6406 185.0156,26.2031 Q185.2813,25.9375 185.4297,25.8594 Q185.5781,25.7813 185.7813,25.7813 Q186.1094,25.7813 186.3672,26.0391 Q186.625,26.2969 186.625,26.6406 Q186.625,26.9844 186.2813,27.3906 Q185.7813,27.9688 184.9844,28.2969 Q183.9063,28.75 182.6094,28.75 Q181.0938,28.75 179.8906,28.125 Q178.9063,27.625 178.2188,26.5547 Q177.5313,25.4844 177.5313,24.2031 L177.5313,23.0469 Q177.5313,21.7188 178.1484,20.5703 Q178.7656,19.4219 179.8594,18.8047 Q180.9531,18.1875 182.1875,18.1875 Q182.9219,18.1875 183.5703,18.3516 Q184.2188,18.5156 184.7656,18.875 Z " fill="#000000"/><text fill="#000000" font-family="sans-serif" font-size="12" lengthAdjust="spacing" textLength="125" x="196" y="27.9102">DltSerialTraceDecoder</text><line style="stroke:#A80036;stroke-width:1.5;" x1="168" x2="323" y1="39" y2="39"/><line style="stroke:#A80036;stroke-width:1.5;" x1="168" x2="323" y1="47" y2="47"/><!--MD5=[7c8e7f92b30ab1cd55af9a0f02d033cf]
class IDltLineBuilder--><rect codeLine="10" fill="#FEFECE" filter="url(#f1g5rnk7b61seb)" height="48" id="IDltLineBuilder" style="stroke:#A80036;stroke-width:1.5;" width="114" x="181.5" y="242"/><ellipse cx="196.5" cy="258" fill="#B4A7E5" rx="11" ry="11" style="stroke:#A80036;stroke-width:1.0;"/><path d="M197.4531,254.6406 L197.4531,261.2969 L199.1719,261.2969 Q199.7813,261.2969 200.0469,261.5313 Q200.3125,261.7656 200.3125,262.1563 Q200.3125,262.5313 200.0469,262.7656 Q199.7813,263 199.1719,263 L194.0313,263 Q193.4219,263 193.1563,262.7656 Q192.8906,262.5313 192.8906,262.1406 Q192.8906,261.7656 193.1563,261.5313 Q193.4219,261.2969 194.0313,261.2969 L195.75,261.2969 L195.75,254.6406 L194.0313,254.6406 Q193.4219,254.6406 193.1563,254.4063 Q192.8906,254.1719 192.8906,253.7813 Q192.8906,253.4063 193.1563,253.1719 Q193.4219,252.9375 194.0313,252.9375 L199.1719,252.9375 Q199.7813,252.9375 200.0469,253.1719 Q200.3125,253.4063 200.3125,253.7813 Q200.3125,254.1719 200.0469,254.4063 Q199.7813,254.6406 199.1719,254.6406 L197.4531,254.6406 Z " fill="#000000"/><text fill="#000000" font-family="sans-serif" font-size="12" font-style="italic" lengthAdjust="spacing" textLength="82" x="210.5" y="262.9102">IDltLineBuilder</text><line style="stroke:#A80036;stroke-width:1.5;" x1="182.5" x2="294.5" y1="274" y2="274"/><line style="stroke:#A80036;stroke-width:1.5;" x1="182.5" x2="294.5" y1="282" y2="282"/><!--MD5=[17a0dca7bb023985dffd4a43327c1ce2]
class DltLineBuilder--><rect codeLine="11" fill="#FEFECE" filter="url(#f1g5rnk7b61seb)" height="48" id="DltLineBuilder" style="stroke:#A80036;stroke-width:1.5;" width="110" x="82.5" y="133"/><ellipse cx="97.5" cy="149" fill="#ADD1B2" rx="11" ry="11" style="stroke:#A80036;stroke-width:1.0;"/><path d="M100.2656,144.875 Q100.4219,144.6563 100.6094,144.5469 Q100.7969,144.4375 101.0156,144.4375 Q101.3906,144.4375 101.625,144.6953 Q101.8594,144.9531 101.8594,145.5625 L101.8594,147.0156 Q101.8594,147.625 101.625,147.8906 Q101.3906,148.1563 101.0156,148.1563 Q100.6719,148.1563 100.4688,147.9531 Q100.2656,147.7656 100.1563,147.25 Q100.1094,146.8906 99.9219,146.7031 Q99.5938,146.3281 98.9844,146.1094 Q98.375,145.8906 97.75,145.8906 Q96.9844,145.8906 96.3516,146.2188 Q95.7188,146.5469 95.2266,147.2969 Q94.7344,148.0469 94.7344,149.0781 L94.7344,150.1719 Q94.7344,151.4063 95.625,152.2266 Q96.5156,153.0469 98.1094,153.0469 Q99.0469,153.0469 99.7031,152.7969 Q100.0938,152.6406 100.5156,152.2031 Q100.7813,151.9375 100.9297,151.8594 Q101.0781,151.7813 101.2813,151.7813 Q101.6094,151.7813 101.8672,152.0391 Q102.125,152.2969 102.125,152.6406 Q102.125,152.9844 101.7813,153.3906 Q101.2813,153.9688 100.4844,154.2969 Q99.4063,154.75 98.1094,154.75 Q96.5938,154.75 95.3906,154.125 Q94.4063,153.625 93.7188,152.5547 Q93.0313,151.4844 93.0313,150.2031 L93.0313,149.0469 Q93.0313,147.7188 93.6484,146.5703 Q94.2656,145.4219 95.3594,144.8047 Q96.4531,144.1875 97.6875,144.1875 Q98.4219,144.1875 99.0703,144.3516 Q99.7188,144.5156 100.2656,144.875 Z " fill="#000000"/><text fill="#000000" font-family="sans-serif" font-size="12" lengthAdjust="spacing" textLength="78" x="111.5" y="153.9102">DltLineBuilder</text><line style="stroke:#A80036;stroke-width:1.5;" x1="83.5" x2="191.5" y1="165" y2="165"/><line style="stroke:#A80036;stroke-width:1.5;" x1="83.5" x2="191.5" y1="173" y2="173"/><!--MD5=[8ae61642faab4ec6a0b8ed356ce430e2]
link DltTraceDecoder to DltTraceDecoderBase--><path codeLine="6" d="M124.2,55.01 C145.59,64.15 170.28,74.89 192.5,85 C219.81,97.43 249.7,111.65 275.42,124.08 " fill="none" id="DltTraceDecoder-to-DltTraceDecoderBase" style="stroke:#A80036;stroke-width:1.0;"/><polygon fill="none" points="278.8,117.94,293.74,132.97,272.69,130.53,278.8,117.94" style="stroke:#A80036;stroke-width:1.0;"/><!--MD5=[1271230b2f5656d1a7fa1154db579ea6]
link DltFileTraceDecoder to DltTraceDecoderBase--><path codeLine="7" d="M425.96,55.22 C421.7,69.85 414.79,88.63 404.5,103 C400.34,108.81 395.4,114.35 390.13,119.51 " fill="none" id="DltFileTraceDecoder-to-DltTraceDecoderBase" style="stroke:#A80036;stroke-width:1.0;"/><polygon fill="none" points="394.45,125.04,374.8,132.97,385.22,114.51,394.45,125.04" style="stroke:#A80036;stroke-width:1.0;"/><!--MD5=[bd466deff33a567999c78dddd4aef6b6]
link DltSerialTraceDecoder to DltTraceDecoderBase--><path codeLine="8" d="M278.54,55.14 C289.07,63.65 300.14,73.94 308.5,85 C315.16,93.81 320.83,104.22 325.46,114.32 " fill="none" id="DltSerialTraceDecoder-to-DltTraceDecoderBase" style="stroke:#A80036;stroke-width:1.0;"/><polygon fill="none" points="331.94,111.68,333.07,132.84,318.99,117,331.94,111.68" style="stroke:#A80036;stroke-width:1.0;"/><!--MD5=[4608214dfbc7f5a5b1126e97c44d8adf]
link DltLineBuilder to IDltLineBuilder--><path codeLine="13" d="M159.42,181.22 C171.99,194.54 188.09,211.59 202.47,226.83 " fill="none" id="DltLineBuilder-to-IDltLineBuilder" style="stroke:#A80036;stroke-width:1.0;stroke-dasharray:7.0,7.0;"/><polygon fill="none" points="207.99,222.48,216.63,241.83,197.81,232.09,207.99,222.48" style="stroke:#A80036;stroke-width:1.0;"/><!--MD5=[13dd2aa34e933f9c1ee7680bd77e65b4]
link DltLineBuilder to DltTraceDecoderBase--><path codeLine="14" d="M192.7,157 C214.66,157 240.29,157 263.99,157 " fill="none" id="DltLineBuilder-DltTraceDecoderBase" style="stroke:#A80036;stroke-width:1.0;stroke-dasharray:7.0,7.0;"/><text fill="#000000" font-family="sans-serif" font-size="13" lengthAdjust="spacing" textLength="35" x="210.75" y="150.4951">«use»</text><!--MD5=[38aaa6742017370e081287c4309f2636]
reverse link DltTraceDecoderBase to IDltLineBuilder--><path codeLine="16" d="M309.04,191 C293.35,207.46 274.75,226.97 260.59,241.83 " fill="none" id="DltTraceDecoderBase-backto-IDltLineBuilder" style="stroke:#A80036;stroke-width:1.0;"/><polygon fill="none" points="318.37,181.22,311.335,182.8041,310.0915,189.9071,317.1265,188.3231,318.37,181.22" style="stroke:#A80036;stroke-width:1.0;"/><!--MD5=[fcfc5409893a474f897b389feb87dc7f]
link DltTraceDecoder to DltLineBuilder--><path codeLine="17" d="M82.13,55.03 C93.46,75.7 110.12,106.07 122.2,128.1 " fill="none" id="DltTraceDecoder-to-DltLineBuilder" style="stroke:#A80036;stroke-width:1.0;stroke-dasharray:7.0,7.0;"/><polygon fill="#A80036" points="124.71,132.67,123.8739,122.8567,122.2988,128.2898,116.8656,126.7147,124.71,132.67" style="stroke:#A80036;stroke-width:1.0;"/><text fill="#000000" font-family="sans-serif" font-size="13" lengthAdjust="spacing" textLength="74" x="109.5" y="99.4951">«instantiate»</text><!--MD5=[7bf2d8af42dd10dd76018756bfeff1f5]
link DltFileTraceDecoder to DltLineBuilder--><path codeLine="18" d="M376.89,55.03 C325.79,76.58 249.64,108.7 197.02,130.9 " fill="none" id="DltFileTraceDecoder-to-DltLineBuilder" style="stroke:#A80036;stroke-width:1.0;stroke-dasharray:7.0,7.0;"/><polygon fill="#A80036" points="192.32,132.88,202.1669,133.074,196.9282,130.9397,199.0625,125.7009,192.32,132.88" style="stroke:#A80036;stroke-width:1.0;"/><!--MD5=[ed5ad1731e1633bf2c488d25122ad5a5]
link DltSerialTraceDecoder to DltLineBuilder--><path codeLine="19" d="M229.69,55.12 C219.6,69.37 205.93,87.77 192.5,103 C184.74,111.8 175.77,120.86 167.35,128.93 " fill="none" id="DltSerialTraceDecoder-to-DltLineBuilder" style="stroke:#A80036;stroke-width:1.0;stroke-dasharray:7.0,7.0;"/><polygon fill="#A80036" points="163.28,132.81,172.5555,129.4987,166.9003,129.3614,167.0377,123.7062,163.28,132.81" style="stroke:#A80036;stroke-width:1.0;"/><!--MD5=[f99c163b671907dfbc7f29abfc106676]
@startuml DLT.DecoderClass
abstract class DltTraceDecoderBase
class DltTraceDecoder
class DltFileTraceDecoder
class DltSerialTraceDecoder

DltTraceDecoder -d-|> DltTraceDecoderBase
DltFileTraceDecoder -d-|> DltTraceDecoderBase
DltSerialTraceDecoder -d-|> DltTraceDecoderBase

interface IDltLineBuilder
class DltLineBuilder

DltLineBuilder .d.|> IDltLineBuilder
DltLineBuilder .r. DltTraceDecoderBase : <<use>>

DltTraceDecoderBase o-d- IDltLineBuilder
DltTraceDecoder .d.> DltLineBuilder : <<instantiate>>
DltFileTraceDecoder .d.> DltLineBuilder
DltSerialTraceDecoder .d.> DltLineBuilder
@enduml

PlantUML version 1.2022.1(Tue Feb 01 19:19:58 CET 2022)
(GPL source distribution)
Java Runtime: Java(TM) SE Runtime Environment
JVM: Java HotSpot(TM) 64-Bit Server VM
Default Encoding: Cp1252
Language: en
Country: GB
--></g></svg>