<?xml version="1.0" encoding="us-ascii" standalone="no"?><svg xmlns="http://www.w3.org/2000/svg" xmlns:xlink="http://www.w3.org/1999/xlink" contentStyleType="text/css" height="296px" preserveAspectRatio="none" style="width:593px;height:296px;background:#FFFFFF;" version="1.1" viewBox="0 0 593 296" width="593px" zoomAndPan="magnify"><defs/><g><!--class DltTraceDecoderBase--><g id="elem_DltTraceDecoderBase"><rect codeLine="1" fill="#F1F1F1" height="48" id="DltTraceDecoderBase" rx="2.5" ry="2.5" style="stroke:#181818;stroke-width:0.5;" width="185" x="260.5" y="132"/><ellipse cx="275.5" cy="148" fill="#A9DCDF" rx="11" ry="11" style="stroke:#181818;stroke-width:1.0;"/><path d="M275.6094,143.3438 L274.4531,148.4219 L276.7813,148.4219 L275.6094,143.3438 Z M274.125,141.1094 L277.1094,141.1094 L280.4688,153.5 L278.0156,153.5 L277.25,150.4375 L273.9688,150.4375 L273.2188,153.5 L270.7813,153.5 L274.125,141.1094 Z " fill="#000000"/><text fill="#000000" font-family="sans-serif" font-size="14" font-style="italic" lengthAdjust="spacing" textLength="153" x="289.5" y="152.8467">DltTraceDecoderBase</text><line style="stroke:#181818;stroke-width:0.5;" x1="261.5" x2="444.5" y1="164" y2="164"/><line style="stroke:#181818;stroke-width:0.5;" x1="261.5" x2="444.5" y1="172" y2="172"/></g><!--class DltTraceDecoder--><g id="elem_DltTraceDecoder"><rect codeLine="2" fill="#F1F1F1" height="48" id="DltTraceDecoder" rx="2.5" ry="2.5" style="stroke:#181818;stroke-width:0.5;" width="150" x="7" y="7"/><ellipse cx="22" cy="23" fill="#ADD1B2" rx="11" ry="11" style="stroke:#181818;stroke-width:1.0;"/><path d="M24.9688,28.6406 Q24.3906,28.9375 23.75,29.0781 Q23.1094,29.2344 22.4063,29.2344 Q19.9063,29.2344 18.5781,27.5938 Q17.2656,25.9375 17.2656,22.8125 Q17.2656,19.6875 18.5781,18.0313 Q19.9063,16.375 22.4063,16.375 Q23.1094,16.375 23.75,16.5313 Q24.4063,16.6875 24.9688,16.9844 L24.9688,19.7031 Q24.3438,19.125 23.75,18.8594 Q23.1563,18.5781 22.5313,18.5781 Q21.1875,18.5781 20.5,19.6563 Q19.8125,20.7188 19.8125,22.8125 Q19.8125,24.9063 20.5,25.9844 Q21.1875,27.0469 22.5313,27.0469 Q23.1563,27.0469 23.75,26.7813 Q24.3438,26.5 24.9688,25.9219 L24.9688,28.6406 Z " fill="#000000"/><text fill="#000000" font-family="sans-serif" font-size="14" lengthAdjust="spacing" textLength="118" x="36" y="27.8467">DltTraceDecoder</text><line style="stroke:#181818;stroke-width:0.5;" x1="8" x2="156" y1="39" y2="39"/><line style="stroke:#181818;stroke-width:0.5;" x1="8" x2="156" y1="47" y2="47"/></g><!--class DltFileTraceDecoder--><g id="elem_DltFileTraceDecoder"><rect codeLine="3" fill="#F1F1F1" height="48" id="DltFileTraceDecoder" rx="2.5" ry="2.5" style="stroke:#181818;stroke-width:0.5;" width="173" x="413.5" y="7"/><ellipse cx="428.5" cy="23" fill="#ADD1B2" rx="11" ry="11" style="stroke:#181818;stroke-width:1.0;"/><path d="M431.4688,28.6406 Q430.8906,28.9375 430.25,29.0781 Q429.6094,29.2344 428.9063,29.2344 Q426.4063,29.2344 425.0781,27.5938 Q423.7656,25.9375 423.7656,22.8125 Q423.7656,19.6875 425.0781,18.0313 Q426.4063,16.375 428.9063,16.375 Q429.6094,16.375 430.25,16.5313 Q430.9063,16.6875 431.4688,16.9844 L431.4688,19.7031 Q430.8438,19.125 430.25,18.8594 Q429.6563,18.5781 429.0313,18.5781 Q427.6875,18.5781 427,19.6563 Q426.3125,20.7188 426.3125,22.8125 Q426.3125,24.9063 427,25.9844 Q427.6875,27.0469 429.0313,27.0469 Q429.6563,27.0469 430.25,26.7813 Q430.8438,26.5 431.4688,25.9219 L431.4688,28.6406 Z " fill="#000000"/><text fill="#000000" font-family="sans-serif" font-size="14" lengthAdjust="spacing" textLength="141" x="442.5" y="27.8467">DltFileTraceDecoder</text><line style="stroke:#181818;stroke-width:0.5;" x1="414.5" x2="585.5" y1="39" y2="39"/><line style="stroke:#181818;stroke-width:0.5;" x1="414.5" x2="585.5" y1="47" y2="47"/></g><!--class DltSerialTraceDecoder--><g id="elem_DltSerialTraceDecoder"><rect codeLine="4" fill="#F1F1F1" height="48" id="DltSerialTraceDecoder" rx="2.5" ry="2.5" style="stroke:#181818;stroke-width:0.5;" width="187" x="191.5" y="7"/><ellipse cx="206.5" cy="23" fill="#ADD1B2" rx="11" ry="11" style="stroke:#181818;stroke-width:1.0;"/><path d="M209.4688,28.6406 Q208.8906,28.9375 208.25,29.0781 Q207.6094,29.2344 206.9063,29.2344 Q204.4063,29.2344 203.0781,27.5938 Q201.7656,25.9375 201.7656,22.8125 Q201.7656,19.6875 203.0781,18.0313 Q204.4063,16.375 206.9063,16.375 Q207.6094,16.375 208.25,16.5313 Q208.9063,16.6875 209.4688,16.9844 L209.4688,19.7031 Q208.8438,19.125 208.25,18.8594 Q207.6563,18.5781 207.0313,18.5781 Q205.6875,18.5781 205,19.6563 Q204.3125,20.7188 204.3125,22.8125 Q204.3125,24.9063 205,25.9844 Q205.6875,27.0469 207.0313,27.0469 Q207.6563,27.0469 208.25,26.7813 Q208.8438,26.5 209.4688,25.9219 L209.4688,28.6406 Z " fill="#000000"/><text fill="#000000" font-family="sans-serif" font-size="14" lengthAdjust="spacing" textLength="155" x="220.5" y="27.8467">DltSerialTraceDecoder</text><line style="stroke:#181818;stroke-width:0.5;" x1="192.5" x2="377.5" y1="39" y2="39"/><line style="stroke:#181818;stroke-width:0.5;" x1="192.5" x2="377.5" y1="47" y2="47"/></g><!--class IDltLineBuilder--><g id="elem_IDltLineBuilder"><rect codeLine="10" fill="#F1F1F1" height="48" id="IDltLineBuilder" rx="2.5" ry="2.5" style="stroke:#181818;stroke-width:0.5;" width="130" x="172" y="241"/><ellipse cx="187" cy="257" fill="#B4A7E5" rx="11" ry="11" style="stroke:#181818;stroke-width:1.0;"/><path d="M182.9219,252.7656 L182.9219,250.6094 L190.3125,250.6094 L190.3125,252.7656 L187.8438,252.7656 L187.8438,260.8438 L190.3125,260.8438 L190.3125,263 L182.9219,263 L182.9219,260.8438 L185.3906,260.8438 L185.3906,252.7656 L182.9219,252.7656 Z " fill="#000000"/><text fill="#000000" font-family="sans-serif" font-size="14" font-style="italic" lengthAdjust="spacing" textLength="98" x="201" y="261.8467">IDltLineBuilder</text><line style="stroke:#181818;stroke-width:0.5;" x1="173" x2="301" y1="273" y2="273"/><line style="stroke:#181818;stroke-width:0.5;" x1="173" x2="301" y1="281" y2="281"/></g><!--class DltLineBuilder--><g id="elem_DltLineBuilder"><rect codeLine="11" fill="#F1F1F1" height="48" id="DltLineBuilder" rx="2.5" ry="2.5" style="stroke:#181818;stroke-width:0.5;" width="127" x="58.5" y="132"/><ellipse cx="73.5" cy="148" fill="#ADD1B2" rx="11" ry="11" style="stroke:#181818;stroke-width:1.0;"/><path d="M76.4688,153.6406 Q75.8906,153.9375 75.25,154.0781 Q74.6094,154.2344 73.9063,154.2344 Q71.4063,154.2344 70.0781,152.5938 Q68.7656,150.9375 68.7656,147.8125 Q68.7656,144.6875 70.0781,143.0313 Q71.4063,141.375 73.9063,141.375 Q74.6094,141.375 75.25,141.5313 Q75.9063,141.6875 76.4688,141.9844 L76.4688,144.7031 Q75.8438,144.125 75.25,143.8594 Q74.6563,143.5781 74.0313,143.5781 Q72.6875,143.5781 72,144.6563 Q71.3125,145.7188 71.3125,147.8125 Q71.3125,149.9063 72,150.9844 Q72.6875,152.0469 74.0313,152.0469 Q74.6563,152.0469 75.25,151.7813 Q75.8438,151.5 76.4688,150.9219 L76.4688,153.6406 Z " fill="#000000"/><text fill="#000000" font-family="sans-serif" font-size="14" lengthAdjust="spacing" textLength="95" x="87.5" y="152.8467">DltLineBuilder</text><line style="stroke:#181818;stroke-width:0.5;" x1="59.5" x2="184.5" y1="164" y2="164"/><line style="stroke:#181818;stroke-width:0.5;" x1="59.5" x2="184.5" y1="172" y2="172"/></g><!--link DltTraceDecoder to DltTraceDecoderBase--><g id="link_DltTraceDecoder_DltTraceDecoderBase"><path codeLine="6" d="M133.61,55.42 C175.8,74.58 235.89,101.85 282.51,123.01 " fill="none" id="DltTraceDecoder-to-DltTraceDecoderBase" style="stroke:#181818;stroke-width:1.0;"/><polygon fill="none" points="285.26,117.02,300.58,131.66,279.48,129.77,285.26,117.02" style="stroke:#181818;stroke-width:1.0;"/></g><!--link DltFileTraceDecoder to DltTraceDecoderBase--><g id="link_DltFileTraceDecoder_DltTraceDecoderBase"><path codeLine="7" d="M480.83,55.46 C468.53,69.76 451.77,87.93 435,102 C427.54,108.26 419.31,114.37 411.01,120.1 " fill="none" id="DltFileTraceDecoder-to-DltTraceDecoderBase" style="stroke:#181818;stroke-width:1.0;"/><polygon fill="none" points="415.16,126.41,394.61,131.56,407.46,114.71,415.16,126.41" style="stroke:#181818;stroke-width:1.0;"/></g><!--link DltSerialTraceDecoder to DltTraceDecoderBase--><g id="link_DltSerialTraceDecoder_DltTraceDecoderBase"><path codeLine="8" d="M297.95,55.42 C306.98,71.75 319.27,93.99 329.95,113.3 " fill="none" id="DltSerialTraceDecoder-to-DltTraceDecoderBase" style="stroke:#181818;stroke-width:1.0;"/><polygon fill="none" points="336.55,109.77,340.1,130.66,324.3,116.55,336.55,109.77" style="stroke:#181818;stroke-width:1.0;"/></g><!--link DltLineBuilder to IDltLineBuilder--><g id="link_DltLineBuilder_IDltLineBuilder"><path codeLine="13" d="M147.24,180.48 C161.69,193.93 180.17,211.12 196.6,226.41 " fill="none" id="DltLineBuilder-to-IDltLineBuilder" style="stroke:#181818;stroke-width:1.0;stroke-dasharray:7.0,7.0;"/><polygon fill="none" points="200.95,220.82,210.82,239.57,191.41,231.07,200.95,220.82" style="stroke:#181818;stroke-width:1.0;"/></g><!--link DltLineBuilder to DltTraceDecoderBase--><g id="link_DltLineBuilder_DltTraceDecoderBase"><path codeLine="14" d="M185.73,156 C208.7,156 235.12,156 260.07,156 " fill="none" id="DltLineBuilder-DltTraceDecoderBase" style="stroke:#181818;stroke-width:1.0;stroke-dasharray:7.0,7.0;"/><text fill="#000000" font-family="sans-serif" font-size="13" lengthAdjust="spacing" textLength="39" x="203.5" y="149.0669">&#171;use&#187;</text></g><!--reverse link DltTraceDecoderBase to IDltLineBuilder--><g id="link_DltTraceDecoderBase_IDltLineBuilder"><path codeLine="16" d="M317.26,189.97 C299.51,206.34 278.48,225.74 262.4,240.57 " fill="none" id="DltTraceDecoderBase-backto-IDltLineBuilder" style="stroke:#181818;stroke-width:1.0;"/><polygon fill="none" points="326.54,181.48,319.4176,182.6074,317.7188,189.6155,324.8413,188.4882,326.54,181.48" style="stroke:#181818;stroke-width:1.0;"/></g><!--link DltTraceDecoder to DltLineBuilder--><g id="link_DltTraceDecoder_DltLineBuilder"><path codeLine="17" d="M89.2,55.38 C93.43,69 98.93,86.5 104,102 C106.58,109.88 109.43,118.39 112.1,126.24 " fill="none" id="DltTraceDecoder-to-DltLineBuilder" style="stroke:#181818;stroke-width:1.0;stroke-dasharray:7.0,7.0;"/><polygon fill="#181818" points="113.91,130.56,114.7878,120.7503,112.2946,125.8281,107.2168,123.335,113.91,130.56" style="stroke:#181818;stroke-width:1.0;"/><text fill="#000000" font-family="sans-serif" font-size="13" lengthAdjust="spacing" textLength="84" x="105" y="98.0669">&#171;instantiate&#187;</text></g><!--link DltFileTraceDecoder to DltLineBuilder--><g id="link_DltFileTraceDecoder_DltLineBuilder"><path codeLine="18" d="M428.01,55.42 C359.99,77.56 258.62,110.54 191.44,132.4 " fill="none" id="DltFileTraceDecoder-to-DltLineBuilder" style="stroke:#181818;stroke-width:1.0;stroke-dasharray:7.0,7.0;"/><polygon fill="#181818" points="186.86,134.22,196.655,135.2483,191.6161,132.6775,194.187,127.6386,186.86,134.22" style="stroke:#181818;stroke-width:1.0;"/></g><!--link DltSerialTraceDecoder to DltLineBuilder--><g id="link_DltSerialTraceDecoder_DltLineBuilder"><path codeLine="19" d="M254.79,55.49 C237.14,69.16 214.39,86.66 194,102 C182.61,110.57 170.12,119.82 158.79,128.15 " fill="none" id="DltSerialTraceDecoder-to-DltLineBuilder" style="stroke:#181818;stroke-width:1.0;stroke-dasharray:7.0,7.0;"/><polygon fill="#181818" points="155.01,131.66,164.6321,129.5589,159.0407,128.7013,159.8982,123.1099,155.01,131.66" style="stroke:#181818;stroke-width:1.0;"/></g><!--SRC=[VL112iCm3Bld5Vv0yu1HSYXbCDXj-u2NU608AIJkROzVrikMrElHaYpBmaUHZ5x0Hom5vYZtEj9CVWcK9onaLEQBdZcIpjmeCyQ6CvqD365uEVMiOdsitfyxq1jEGlbPKRXK_ig9ffLZa_yNDEqCDjZgtA_secorut22SLmBERVhOwEN6bkpRbwh0LmNSlFbL0IJCCh7NojHsVnJdw9y0m00]--></g></svg>