<?xml version="1.0" encoding="us-ascii" standalone="no"?><svg xmlns="http://www.w3.org/2000/svg" xmlns:xlink="http://www.w3.org/1999/xlink" contentStyleType="text/css" height="1139px" preserveAspectRatio="none" style="width:1509px;height:1139px;background:#FFFFFF;" version="1.1" viewBox="0 0 1509 1139" width="1509px" zoomAndPan="magnify"><defs/><g><!--class PacketDecoder--><g id="elem_PacketDecoder"><rect codeLine="2" fill="#F1F1F1" height="259.8594" id="PacketDecoder" rx="2.5" ry="2.5" style="stroke:#181818;stroke-width:0.5;" width="602" x="427.5" y="122.4"/><ellipse cx="670.75" cy="138.4" fill="#ADD1B2" rx="11" ry="11" style="stroke:#181818;stroke-width:1.0;"/><path d="M673.7188,144.0406 Q673.1406,144.3375 672.5,144.4781 Q671.8594,144.6344 671.1563,144.6344 Q668.6563,144.6344 667.3281,142.9938 Q666.0156,141.3375 666.0156,138.2125 Q666.0156,135.0875 667.3281,133.4313 Q668.6563,131.775 671.1563,131.775 Q671.8594,131.775 672.5,131.9313 Q673.1563,132.0875 673.7188,132.3844 L673.7188,135.1031 Q673.0938,134.525 672.5,134.2594 Q671.9063,133.9781 671.2813,133.9781 Q669.9375,133.9781 669.25,135.0563 Q668.5625,136.1188 668.5625,138.2125 Q668.5625,140.3063 669.25,141.3844 Q669.9375,142.4469 671.2813,142.4469 Q671.9063,142.4469 672.5,142.1813 Q673.0938,141.9 673.7188,141.3219 L673.7188,144.0406 Z " fill="#000000"/><text fill="#000000" font-family="sans-serif" font-size="14" lengthAdjust="spacing" textLength="107" x="691.25" y="143.2467">PacketDecoder</text><line style="stroke:#181818;stroke-width:0.5;" x1="428.5" x2="1028.5" y1="154.4" y2="154.4"/><rect fill="none" height="6" style="stroke:#C82930;stroke-width:1.0;" width="6" x="435.5" y="165.0484"/><text fill="#000000" font-family="sans-serif" font-size="14" lengthAdjust="spacing" textLength="511" x="447.5" y="171.3951">&#171;readonly, init&#187; m_Connections: Dictionary&lt;ConnectionKey, Connection&gt;</text><rect fill="none" height="6" style="stroke:#C82930;stroke-width:1.0;" width="6" x="435.5" y="181.3453"/><text fill="#000000" font-family="sans-serif" font-size="14" lengthAdjust="spacing" textLength="216" x="447.5" y="187.692">&#171;readonly, init&#187; m_LinkType: int</text><rect fill="none" height="6" style="stroke:#C82930;stroke-width:1.0;" width="6" x="435.5" y="197.6422"/><text fill="#000000" font-family="sans-serif" font-size="14" lengthAdjust="spacing" textLength="335" x="447.5" y="203.9889">&#171;readonly, init&#187; m_OutputStream: IOutputStream</text><line style="stroke:#181818;stroke-width:0.5;" x1="428.5" x2="1028.5" y1="211.2906" y2="211.2906"/><ellipse cx="438.5" cy="224.9391" fill="#84BE84" rx="3" ry="3" style="stroke:#038048;stroke-width:1.0;"/><text fill="#000000" font-family="sans-serif" font-size="14" lengthAdjust="spacing" textLength="124" x="447.5" y="228.2857">.ctor(linkType: int)</text><ellipse cx="438.5" cy="241.2359" fill="#84BE84" rx="3" ry="3" style="stroke:#038048;stroke-width:1.0;"/><text fill="#000000" font-family="sans-serif" font-size="14" lengthAdjust="spacing" textLength="336" x="447.5" y="244.5826">.ctor(linkType: int, outputStream: IOutputStream)</text><ellipse cx="438.5" cy="265.6813" fill="#84BE84" rx="3" ry="3" style="stroke:#038048;stroke-width:1.0;"/><text fill="#000000" font-family="sans-serif" font-size="14" lengthAdjust="spacing" textLength="576" x="447.5" y="260.8795">DecodePacket(buffer: ReadOnlySpan&lt;byte&gt;, timeStamp: DateTime, position: long)</text><text fill="#000000" font-family="sans-serif" font-size="14" lengthAdjust="spacing" textLength="240" x="455.5" y="277.1764">: IEnumerable&lt;DltTraceLineBase&gt;</text><rect fill="#F24D5C" height="6" style="stroke:#C82930;stroke-width:1.0;" width="6" x="435.5" y="303.4234"/><text fill="#000000" font-family="sans-serif" font-size="14" lengthAdjust="spacing" textLength="297" x="447.5" y="293.4732">DecodeDltPacket(srcAddr: int, dstAddr: int,</text><text fill="#000000" font-family="sans-serif" font-size="14" lengthAdjust="spacing" textLength="497" x="455.5" y="309.7701">udpBuffer: ReadOnlySpan&lt;byte&gt;, timeStamp: DateTime, position: long)</text><text fill="#000000" font-family="sans-serif" font-size="14" lengthAdjust="spacing" textLength="240" x="455.5" y="326.067">: IEnumerable&lt;DltTraceLineBase&gt;</text><rect fill="#F24D5C" height="6" style="stroke:#C82930;stroke-width:1.0;" width="6" x="435.5" y="352.3141"/><text fill="#000000" font-family="sans-serif" font-size="14" lengthAdjust="spacing" textLength="324" x="447.5" y="342.3639">DecodeDltFragments(srcAddr: int, dstAddr: int,</text><text fill="#000000" font-family="sans-serif" font-size="14" lengthAdjust="spacing" textLength="563" x="455.5" y="358.6607">udpFragments: IEnumerable&lt;IpFragment&gt;, timeStamp: DateTime, position: long)</text><text fill="#000000" font-family="sans-serif" font-size="14" lengthAdjust="spacing" textLength="240" x="455.5" y="374.9576">: IEnumerable&lt;DltTraceLineBase&gt;</text></g><g id="elem_GMN3"><path d="M158,217.06 L158,287.5913 A0,0 0 0 0 158,287.5913 L393,287.5913 A0,0 0 0 0 393,287.5913 L393,256.33 L427.23,252.33 L393,248.33 L393,227.06 L383,217.06 L158,217.06 A0,0 0 0 0 158,217.06 " fill="#FEFFDD" style="stroke:#181818;stroke-width:0.5;"/><path d="M383,217.06 L383,227.06 L393,227.06 L383,217.06 " fill="#FEFFDD" style="stroke:#181818;stroke-width:0.5;"/><text fill="#000000" font-family="sans-serif" font-size="13" lengthAdjust="spacing" textLength="214" x="164" y="234.1269">&#171;readonly&#187; indicates that there is</text><text fill="#000000" font-family="sans-serif" font-size="13" lengthAdjust="spacing" textLength="207" x="168" y="249.2597">no public setter for the property.</text><text fill="#000000" font-family="sans-serif" font-size="13" lengthAdjust="spacing" textLength="208" x="164" y="264.3925">&#171;init&#187; indicates that the object is</text><text fill="#000000" font-family="sans-serif" font-size="13" lengthAdjust="spacing" textLength="208" x="168" y="279.5253">only assigned in the constructor.</text></g><!--class ConnectionKey--><g id="elem_ConnectionKey"><rect codeLine="20" fill="#F1F1F1" height="154.0469" id="ConnectionKey" rx="2.5" ry="2.5" style="stroke:#181818;stroke-width:0.5;" width="320" x="1064.5" y="175.3"/><ellipse cx="1079.5" cy="195.4328" fill="#FF7700" rx="11" ry="11" style="stroke:#181818;stroke-width:1.0;"/><path d="M1078.9844,195.9953 Q1077.125,195.2922 1076.4688,194.5266 Q1075.8281,193.7453 1075.8281,192.4328 Q1075.8281,190.7453 1076.9063,189.7766 Q1077.9844,188.8078 1079.8594,188.8078 Q1080.7188,188.8078 1081.5625,189.0109 Q1082.4219,189.1984 1083.2656,189.5891 L1083.2656,191.9797 Q1082.4844,191.4172 1081.6563,191.1359 Q1080.8438,190.8391 1080.0469,190.8391 Q1079.1719,190.8391 1078.6875,191.1984 Q1078.2188,191.5578 1078.2188,192.2141 Q1078.2188,192.7297 1078.5625,193.0734 Q1078.9063,193.4016 1080,193.8078 L1081.0625,194.2141 Q1082.5469,194.7609 1083.25,195.6672 Q1083.9688,196.5734 1083.9688,197.9484 Q1083.9688,199.8234 1082.8594,200.7453 Q1081.75,201.6672 1079.5,201.6672 Q1078.5781,201.6672 1077.6563,201.4484 Q1076.7344,201.2297 1075.875,200.8078 L1075.875,198.2766 Q1076.8438,198.9641 1077.7656,199.3078 Q1078.6875,199.6516 1079.5781,199.6516 Q1080.4844,199.6516 1080.9844,199.2453 Q1081.4844,198.8234 1081.4844,198.0891 Q1081.4844,197.5266 1081.1406,197.1203 Q1080.8125,196.6984 1080.1875,196.4484 L1078.9844,195.9953 Z " fill="#000000"/><text fill="#000000" font-family="sans-serif" font-size="12" font-style="italic" lengthAdjust="spacing" textLength="51" x="1120.5" y="191.4387">&#171;struct&#187;</text><text fill="#000000" font-family="sans-serif" font-size="14" lengthAdjust="spacing" textLength="105" x="1093.5" y="207.2639">ConnectionKey</text><rect fill="#FFFFFF" height="15.9688" style="stroke:#181818;stroke-width:1.0;stroke-dasharray:2.0,2.0;" width="181" x="1206.5" y="172.3"/><text fill="#000000" font-family="sans-serif" font-size="12" font-style="italic" lengthAdjust="spacing" textLength="179" x="1207.5" y="184.4387">IEquatable&lt;ConnectionKey&gt;</text><line style="stroke:#181818;stroke-width:0.5;" x1="1065.5" x2="1383.5" y1="215.5656" y2="215.5656"/><ellipse cx="1075.5" cy="229.2141" fill="none" rx="3" ry="3" style="stroke:#038048;stroke-width:1.0;"/><text fill="#000000" font-family="sans-serif" font-size="14" lengthAdjust="spacing" textLength="241" x="1084.5" y="232.5607">&#171;readonly, init&#187; SourceAddress: int</text><ellipse cx="1075.5" cy="245.5109" fill="none" rx="3" ry="3" style="stroke:#038048;stroke-width:1.0;"/><text fill="#000000" font-family="sans-serif" font-size="14" lengthAdjust="spacing" textLength="271" x="1084.5" y="248.8576">&#171;readonly, init&#187; DestinationAddress: int</text><line style="stroke:#181818;stroke-width:0.5;" x1="1065.5" x2="1383.5" y1="256.1594" y2="256.1594"/><ellipse cx="1075.5" cy="269.8078" fill="#84BE84" rx="3" ry="3" style="stroke:#038048;stroke-width:1.0;"/><text fill="#000000" font-family="sans-serif" font-size="14" lengthAdjust="spacing" textLength="208" x="1084.5" y="273.1545">.ctor(srcAddr: int, dstAddr: int)</text><ellipse cx="1075.5" cy="286.1047" fill="#84BE84" rx="3" ry="3" style="stroke:#038048;stroke-width:1.0;"/><text fill="#000000" font-family="sans-serif" font-size="14" lengthAdjust="spacing" textLength="133" x="1084.5" y="289.4514">GetHashCode(): int</text><ellipse cx="1075.5" cy="302.4016" fill="#84BE84" rx="3" ry="3" style="stroke:#038048;stroke-width:1.0;"/><text fill="#000000" font-family="sans-serif" font-size="14" lengthAdjust="spacing" textLength="168" x="1084.5" y="305.7482">Equals(obj: object): bool</text><ellipse cx="1075.5" cy="318.6984" fill="#84BE84" rx="3" ry="3" style="stroke:#038048;stroke-width:1.0;"/><text fill="#000000" font-family="sans-serif" font-size="14" lengthAdjust="spacing" textLength="246" x="1084.5" y="322.0451">Equals(other: ConnectionKey): bool</text></g><g id="elem_GMN7"><path d="M1110,6 L1110,61.3984 A0,0 0 0 0 1110,61.3984 L1220.5,61.3984 L1224.5,174.98 L1228.5,61.3984 L1339,61.3984 A0,0 0 0 0 1339,61.3984 L1339,16 L1329,6 L1110,6 A0,0 0 0 0 1110,6 " fill="#FEFFDD" style="stroke:#181818;stroke-width:0.5;"/><path d="M1329,6 L1329,16 L1339,16 L1329,6 " fill="#FEFFDD" style="stroke:#181818;stroke-width:0.5;"/><text fill="#000000" font-family="sans-serif" font-size="13" lengthAdjust="spacing" textLength="208" x="1116" y="23.0669">The &#171;struct&#187; and IEquatable&lt;T&gt;</text><text fill="#000000" font-family="sans-serif" font-size="13" lengthAdjust="spacing" textLength="191" x="1116" y="38.1997">allow for a very fast Dictionary</text><text fill="#000000" font-family="sans-serif" font-size="13" lengthAdjust="spacing" textLength="46" x="1116" y="53.3325">lookup.</text></g><!--class Connection--><g id="elem_Connection"><rect codeLine="37" fill="#F1F1F1" height="210.9688" id="Connection" rx="2.5" ry="2.5" style="stroke:#181818;stroke-width:0.5;" width="661" x="398" y="459.25"/><ellipse cx="684.25" cy="475.25" fill="#ADD1B2" rx="11" ry="11" style="stroke:#181818;stroke-width:1.0;"/><path d="M687.2188,480.8906 Q686.6406,481.1875 686,481.3281 Q685.3594,481.4844 684.6563,481.4844 Q682.1563,481.4844 680.8281,479.8438 Q679.5156,478.1875 679.5156,475.0625 Q679.5156,471.9375 680.8281,470.2813 Q682.1563,468.625 684.6563,468.625 Q685.3594,468.625 686,468.7813 Q686.6563,468.9375 687.2188,469.2344 L687.2188,471.9531 Q686.5938,471.375 686,471.1094 Q685.4063,470.8281 684.7813,470.8281 Q683.4375,470.8281 682.75,471.9063 Q682.0625,472.9688 682.0625,475.0625 Q682.0625,477.1563 682.75,478.2344 Q683.4375,479.2969 684.7813,479.2969 Q685.4063,479.2969 686,479.0313 Q686.5938,478.75 687.2188,478.1719 L687.2188,480.8906 Z " fill="#000000"/><text fill="#000000" font-family="sans-serif" font-size="14" lengthAdjust="spacing" textLength="80" x="704.75" y="480.0967">Connection</text><line style="stroke:#181818;stroke-width:0.5;" x1="399" x2="1058" y1="491.25" y2="491.25"/><rect fill="none" height="6" style="stroke:#C82930;stroke-width:1.0;" width="6" x="406" y="501.8984"/><text fill="#000000" font-family="sans-serif" font-size="14" lengthAdjust="spacing" textLength="635" x="418" y="508.2451">&#171;readonly, init&#187; m_Decoders: Dictionary&lt;EndPointKey, DltPcapNetworkTraceFilterDecoder&gt;</text><rect fill="none" height="6" style="stroke:#C82930;stroke-width:1.0;" width="6" x="406" y="518.1953"/><text fill="#000000" font-family="sans-serif" font-size="14" lengthAdjust="spacing" textLength="415" x="418" y="524.542">&#171;readonly, init&#187; m_Fragments: Dictionary&lt;int, IpFragments&gt;</text><ellipse cx="409" cy="537.4922" fill="none" rx="3" ry="3" style="stroke:#038048;stroke-width:1.0;"/><text fill="#000000" font-family="sans-serif" font-size="14" lengthAdjust="spacing" textLength="241" x="418" y="540.8389">&#171;readonly, init&#187; SourceAddress: int</text><ellipse cx="409" cy="553.7891" fill="none" rx="3" ry="3" style="stroke:#038048;stroke-width:1.0;"/><text fill="#000000" font-family="sans-serif" font-size="14" lengthAdjust="spacing" textLength="271" x="418" y="557.1357">&#171;readonly, init&#187; DestinationAddress: int</text><ellipse cx="409" cy="570.0859" fill="none" rx="3" ry="3" style="stroke:#038048;stroke-width:1.0;"/><text fill="#000000" font-family="sans-serif" font-size="14" lengthAdjust="spacing" textLength="315" x="418" y="573.4326">&#171;readonly, init&#187; OutputStream: IOutputStream</text><line style="stroke:#181818;stroke-width:0.5;" x1="399" x2="1058" y1="580.7344" y2="580.7344"/><ellipse cx="409" cy="594.3828" fill="#84BE84" rx="3" ry="3" style="stroke:#038048;stroke-width:1.0;"/><text fill="#000000" font-family="sans-serif" font-size="14" lengthAdjust="spacing" textLength="208" x="418" y="597.7295">.ctor(srcAddr: int, dstAddr: int)</text><ellipse cx="409" cy="610.6797" fill="#84BE84" rx="3" ry="3" style="stroke:#038048;stroke-width:1.0;"/><text fill="#000000" font-family="sans-serif" font-size="14" lengthAdjust="spacing" textLength="420" x="418" y="614.0264">.ctor(srcAddr: int, dstAddr: int, outputStream: IOutputStream)</text><ellipse cx="409" cy="626.9766" fill="#84BE84" rx="3" ry="3" style="stroke:#038048;stroke-width:1.0;"/><text fill="#000000" font-family="sans-serif" font-size="14" lengthAdjust="spacing" textLength="562" x="418" y="630.3232">GetDltDecoder(srcPort: short, dstPort: short): DltPcapNetworkTraceFilterDecoder</text><ellipse cx="409" cy="643.2734" fill="#84BE84" rx="3" ry="3" style="stroke:#038048;stroke-width:1.0;"/><text fill="#000000" font-family="sans-serif" font-size="14" lengthAdjust="spacing" textLength="280" x="418" y="646.6201">GetIpFragments(fragId: int): IpFragments</text><ellipse cx="409" cy="659.5703" fill="#84BE84" rx="3" ry="3" style="stroke:#038048;stroke-width:1.0;"/><text fill="#000000" font-family="sans-serif" font-size="14" lengthAdjust="spacing" textLength="200" x="418" y="662.917">DiscardFragments(fragId: int)</text></g><!--class EndPointKey--><g id="elem_EndPointKey"><rect codeLine="52" fill="#F1F1F1" height="154.0469" id="EndPointKey" rx="2.5" ry="2.5" style="stroke:#181818;stroke-width:0.5;" width="287" x="1094" y="487.72"/><ellipse cx="1109" cy="507.8528" fill="#FF7700" rx="11" ry="11" style="stroke:#181818;stroke-width:1.0;"/><path d="M1108.4844,508.4153 Q1106.625,507.7122 1105.9688,506.9466 Q1105.3281,506.1653 1105.3281,504.8528 Q1105.3281,503.1653 1106.4063,502.1966 Q1107.4844,501.2278 1109.3594,501.2278 Q1110.2188,501.2278 1111.0625,501.4309 Q1111.9219,501.6184 1112.7656,502.0091 L1112.7656,504.3997 Q1111.9844,503.8372 1111.1563,503.5559 Q1110.3438,503.2591 1109.5469,503.2591 Q1108.6719,503.2591 1108.1875,503.6184 Q1107.7188,503.9778 1107.7188,504.6341 Q1107.7188,505.1497 1108.0625,505.4934 Q1108.4063,505.8216 1109.5,506.2278 L1110.5625,506.6341 Q1112.0469,507.1809 1112.75,508.0872 Q1113.4688,508.9934 1113.4688,510.3684 Q1113.4688,512.2434 1112.3594,513.1653 Q1111.25,514.0872 1109,514.0872 Q1108.0781,514.0872 1107.1563,513.8684 Q1106.2344,513.6497 1105.375,513.2278 L1105.375,510.6966 Q1106.3438,511.3841 1107.2656,511.7278 Q1108.1875,512.0716 1109.0781,512.0716 Q1109.9844,512.0716 1110.4844,511.6653 Q1110.9844,511.2434 1110.9844,510.5091 Q1110.9844,509.9466 1110.6406,509.5403 Q1110.3125,509.1184 1109.6875,508.8684 L1108.4844,508.4153 Z " fill="#000000"/><text fill="#000000" font-family="sans-serif" font-size="12" font-style="italic" lengthAdjust="spacing" textLength="51" x="1141" y="503.8587">&#171;struct&#187;</text><text fill="#000000" font-family="sans-serif" font-size="14" lengthAdjust="spacing" textLength="87" x="1123" y="519.6839">EndPointKey</text><rect fill="#FFFFFF" height="15.9688" style="stroke:#181818;stroke-width:1.0;stroke-dasharray:2.0,2.0;" width="166" x="1218" y="484.72"/><text fill="#000000" font-family="sans-serif" font-size="12" font-style="italic" lengthAdjust="spacing" textLength="164" x="1219" y="496.8587">IEquatable&lt;EndPointKey&gt;</text><line style="stroke:#181818;stroke-width:0.5;" x1="1095" x2="1380" y1="527.9856" y2="527.9856"/><ellipse cx="1105" cy="541.6341" fill="none" rx="3" ry="3" style="stroke:#038048;stroke-width:1.0;"/><text fill="#000000" font-family="sans-serif" font-size="14" lengthAdjust="spacing" textLength="231" x="1114" y="544.9807">&#171;readonly, init&#187; SourcePort: short</text><ellipse cx="1105" cy="557.9309" fill="none" rx="3" ry="3" style="stroke:#038048;stroke-width:1.0;"/><text fill="#000000" font-family="sans-serif" font-size="14" lengthAdjust="spacing" textLength="261" x="1114" y="561.2776">&#171;readonly, init&#187; DestinationPort: short</text><line style="stroke:#181818;stroke-width:0.5;" x1="1095" x2="1380" y1="568.5794" y2="568.5794"/><ellipse cx="1105" cy="582.2278" fill="#84BE84" rx="3" ry="3" style="stroke:#038048;stroke-width:1.0;"/><text fill="#000000" font-family="sans-serif" font-size="14" lengthAdjust="spacing" textLength="238" x="1114" y="585.5745">.ctor(srcPort: short, dstPort: short)</text><ellipse cx="1105" cy="598.5247" fill="#84BE84" rx="3" ry="3" style="stroke:#038048;stroke-width:1.0;"/><text fill="#000000" font-family="sans-serif" font-size="14" lengthAdjust="spacing" textLength="133" x="1114" y="601.8714">GetHashCode(): int</text><ellipse cx="1105" cy="614.8216" fill="#84BE84" rx="3" ry="3" style="stroke:#038048;stroke-width:1.0;"/><text fill="#000000" font-family="sans-serif" font-size="14" lengthAdjust="spacing" textLength="168" x="1114" y="618.1682">Equals(obj: object): bool</text><ellipse cx="1105" cy="631.1184" fill="#84BE84" rx="3" ry="3" style="stroke:#038048;stroke-width:1.0;"/><text fill="#000000" font-family="sans-serif" font-size="14" lengthAdjust="spacing" textLength="228" x="1114" y="634.4651">Equals(other: EndPointKey): bool</text></g><!--class DltPcapNetworkTraceFilterDecoder--><g id="elem_DltPcapNetworkTraceFilterDecoder"><rect codeLine="61" fill="#F1F1F1" height="96.8906" id="DltPcapNetworkTraceFilterDecoder" rx="2.5" ry="2.5" style="stroke:#181818;stroke-width:0.5;" width="477" x="7" y="787.97"/><ellipse cx="120.25" cy="803.97" fill="#ADD1B2" rx="11" ry="11" style="stroke:#181818;stroke-width:1.0;"/><path d="M123.2188,809.6106 Q122.6406,809.9075 122,810.0481 Q121.3594,810.2044 120.6563,810.2044 Q118.1563,810.2044 116.8281,808.5638 Q115.5156,806.9075 115.5156,803.7825 Q115.5156,800.6575 116.8281,799.0013 Q118.1563,797.345 120.6563,797.345 Q121.3594,797.345 122,797.5013 Q122.6563,797.6575 123.2188,797.9544 L123.2188,800.6731 Q122.5938,800.095 122,799.8294 Q121.4063,799.5481 120.7813,799.5481 Q119.4375,799.5481 118.75,800.6263 Q118.0625,801.6888 118.0625,803.7825 Q118.0625,805.8763 118.75,806.9544 Q119.4375,808.0169 120.7813,808.0169 Q121.4063,808.0169 122,807.7513 Q122.5938,807.47 123.2188,806.8919 L123.2188,809.6106 Z " fill="#000000"/><text fill="#000000" font-family="sans-serif" font-size="14" lengthAdjust="spacing" textLength="242" x="140.75" y="808.8167">DltPcapNetworkTraceFilterDecoder</text><line style="stroke:#181818;stroke-width:0.5;" x1="8" x2="483" y1="819.97" y2="819.97"/><ellipse cx="18" cy="833.6184" fill="none" rx="3" ry="3" style="stroke:#038048;stroke-width:1.0;"/><text fill="#000000" font-family="sans-serif" font-size="14" lengthAdjust="spacing" textLength="201" x="27" y="836.9651">PacketTimeStamp: DateTime</text><line style="stroke:#181818;stroke-width:0.5;" x1="8" x2="483" y1="844.2669" y2="844.2669"/><ellipse cx="18" cy="866.0638" fill="#84BE84" rx="3" ry="3" style="stroke:#038048;stroke-width:1.0;"/><text fill="#000000" font-family="sans-serif" font-size="14" lengthAdjust="spacing" textLength="451" x="27" y="861.262">Decode(buffer: ReadOnlySpan&lt;byte&gt;, position: long, flush: bool)</text><text fill="#000000" font-family="sans-serif" font-size="14" lengthAdjust="spacing" textLength="240" x="35" y="877.5589">: IEnumerable&lt;DltTraceLineBase&gt;</text></g><!--class DltTraceDecoder--><g id="elem_DltTraceDecoder"><rect codeLine="69" fill="#F1F1F1" height="48" id="DltTraceDecoder" rx="2.5" ry="2.5" style="stroke:#181818;stroke-width:0.5;" width="150" x="170.5" y="540.74"/><ellipse cx="185.5" cy="556.74" fill="#ADD1B2" rx="11" ry="11" style="stroke:#181818;stroke-width:1.0;"/><path d="M188.4688,562.3806 Q187.8906,562.6775 187.25,562.8181 Q186.6094,562.9744 185.9063,562.9744 Q183.4063,562.9744 182.0781,561.3338 Q180.7656,559.6775 180.7656,556.5525 Q180.7656,553.4275 182.0781,551.7713 Q183.4063,550.115 185.9063,550.115 Q186.6094,550.115 187.25,550.2713 Q187.9063,550.4275 188.4688,550.7244 L188.4688,553.4431 Q187.8438,552.865 187.25,552.5994 Q186.6563,552.3181 186.0313,552.3181 Q184.6875,552.3181 184,553.3963 Q183.3125,554.4588 183.3125,556.5525 Q183.3125,558.6463 184,559.7244 Q184.6875,560.7869 186.0313,560.7869 Q186.6563,560.7869 187.25,560.5213 Q187.8438,560.24 188.4688,559.6619 L188.4688,562.3806 Z " fill="#000000"/><text fill="#000000" font-family="sans-serif" font-size="14" lengthAdjust="spacing" textLength="118" x="199.5" y="561.5867">DltTraceDecoder</text><line style="stroke:#181818;stroke-width:0.5;" x1="171.5" x2="319.5" y1="572.74" y2="572.74"/><line style="stroke:#181818;stroke-width:0.5;" x1="171.5" x2="319.5" y1="580.74" y2="580.74"/></g><!--class IOutputStream--><g id="elem_IOutputStream"><rect codeLine="72" fill="#F1F1F1" height="48" id="IOutputStream" rx="2.5" ry="2.5" style="stroke:#181818;stroke-width:0.5;" width="132" x="179.5" y="1035.49"/><ellipse cx="194.5" cy="1051.49" fill="#B4A7E5" rx="11" ry="11" style="stroke:#181818;stroke-width:1.0;"/><path d="M190.4219,1047.2556 L190.4219,1045.0994 L197.8125,1045.0994 L197.8125,1047.2556 L195.3438,1047.2556 L195.3438,1055.3338 L197.8125,1055.3338 L197.8125,1057.49 L190.4219,1057.49 L190.4219,1055.3338 L192.8906,1055.3338 L192.8906,1047.2556 L190.4219,1047.2556 Z " fill="#000000"/><text fill="#000000" font-family="sans-serif" font-size="14" font-style="italic" lengthAdjust="spacing" textLength="100" x="208.5" y="1056.3367">IOutputStream</text><line style="stroke:#181818;stroke-width:0.5;" x1="180.5" x2="310.5" y1="1067.49" y2="1067.49"/><line style="stroke:#181818;stroke-width:0.5;" x1="180.5" x2="310.5" y1="1075.49" y2="1075.49"/></g><!--class IpFragment--><g id="elem_IpFragment"><rect codeLine="75" fill="#F1F1F1" height="121.4531" id="IpFragment" rx="2.5" ry="2.5" style="stroke:#181818;stroke-width:0.5;" width="446" x="1056.5" y="775.68"/><ellipse cx="1236.25" cy="795.8128" fill="#FF7700" rx="11" ry="11" style="stroke:#181818;stroke-width:1.0;"/><path d="M1235.7344,796.3753 Q1233.875,795.6722 1233.2188,794.9066 Q1232.5781,794.1253 1232.5781,792.8128 Q1232.5781,791.1253 1233.6563,790.1566 Q1234.7344,789.1878 1236.6094,789.1878 Q1237.4688,789.1878 1238.3125,789.3909 Q1239.1719,789.5784 1240.0156,789.9691 L1240.0156,792.3597 Q1239.2344,791.7972 1238.4063,791.5159 Q1237.5938,791.2191 1236.7969,791.2191 Q1235.9219,791.2191 1235.4375,791.5784 Q1234.9688,791.9378 1234.9688,792.5941 Q1234.9688,793.1097 1235.3125,793.4534 Q1235.6563,793.7816 1236.75,794.1878 L1237.8125,794.5941 Q1239.2969,795.1409 1240,796.0472 Q1240.7188,796.9534 1240.7188,798.3284 Q1240.7188,800.2034 1239.6094,801.1253 Q1238.5,802.0472 1236.25,802.0472 Q1235.3281,802.0472 1234.4063,801.8284 Q1233.4844,801.6097 1232.625,801.1878 L1232.625,798.6566 Q1233.5938,799.3441 1234.5156,799.6878 Q1235.4375,800.0316 1236.3281,800.0316 Q1237.2344,800.0316 1237.7344,799.6253 Q1238.2344,799.2034 1238.2344,798.4691 Q1238.2344,797.9066 1237.8906,797.5003 Q1237.5625,797.0784 1236.9375,796.8284 L1235.7344,796.3753 Z " fill="#000000"/><text fill="#000000" font-family="sans-serif" font-size="12" font-style="italic" lengthAdjust="spacing" textLength="51" x="1270.25" y="791.8187">&#171;struct&#187;</text><text fill="#000000" font-family="sans-serif" font-size="14" lengthAdjust="spacing" textLength="78" x="1256.75" y="807.6439">IpFragment</text><line style="stroke:#181818;stroke-width:0.5;" x1="1057.5" x2="1501.5" y1="815.9456" y2="815.9456"/><ellipse cx="1067.5" cy="829.5941" fill="none" rx="3" ry="3" style="stroke:#038048;stroke-width:1.0;"/><text fill="#000000" font-family="sans-serif" font-size="14" lengthAdjust="spacing" textLength="206" x="1076.5" y="832.9407">&#171;readonly, init&#187; FragOffset: int</text><ellipse cx="1067.5" cy="845.8909" fill="none" rx="3" ry="3" style="stroke:#038048;stroke-width:1.0;"/><text fill="#000000" font-family="sans-serif" font-size="14" lengthAdjust="spacing" textLength="199" x="1076.5" y="849.2376">&#171;readonly, init&#187; Buffer: byte[]</text><ellipse cx="1067.5" cy="862.1878" fill="none" rx="3" ry="3" style="stroke:#038048;stroke-width:1.0;"/><text fill="#000000" font-family="sans-serif" font-size="14" lengthAdjust="spacing" textLength="203" x="1076.5" y="865.5345">&#171;readonly, init&#187; Position: long</text><line style="stroke:#181818;stroke-width:0.5;" x1="1057.5" x2="1501.5" y1="872.8363" y2="872.8363"/><ellipse cx="1067.5" cy="886.4847" fill="#84BE84" rx="3" ry="3" style="stroke:#038048;stroke-width:1.0;"/><text fill="#000000" font-family="sans-serif" font-size="14" lengthAdjust="spacing" textLength="420" x="1076.5" y="889.8314">.ctor(offset: int, buffer: ReadOnlySpan&lt;byte&gt;, position: long)</text></g><!--class IpFragments--><g id="elem_IpFragments"><rect codeLine="82" fill="#F1F1F1" height="178.375" id="IpFragments" rx="2.5" ry="2.5" style="stroke:#181818;stroke-width:0.5;" width="503" x="519" y="747.22"/><ellipse cx="723.25" cy="763.22" fill="#ADD1B2" rx="11" ry="11" style="stroke:#181818;stroke-width:1.0;"/><path d="M726.2188,768.8606 Q725.6406,769.1575 725,769.2981 Q724.3594,769.4544 723.6563,769.4544 Q721.1563,769.4544 719.8281,767.8138 Q718.5156,766.1575 718.5156,763.0325 Q718.5156,759.9075 719.8281,758.2513 Q721.1563,756.595 723.6563,756.595 Q724.3594,756.595 725,756.7513 Q725.6563,756.9075 726.2188,757.2044 L726.2188,759.9231 Q725.5938,759.345 725,759.0794 Q724.4063,758.7981 723.7813,758.7981 Q722.4375,758.7981 721.75,759.8763 Q721.0625,760.9388 721.0625,763.0325 Q721.0625,765.1263 721.75,766.2044 Q722.4375,767.2669 723.7813,767.2669 Q724.4063,767.2669 725,767.0013 Q725.5938,766.72 726.2188,766.1419 L726.2188,768.8606 Z " fill="#000000"/><text fill="#000000" font-family="sans-serif" font-size="14" lengthAdjust="spacing" textLength="86" x="743.75" y="768.0667">IpFragments</text><line style="stroke:#181818;stroke-width:0.5;" x1="520" x2="1021" y1="779.22" y2="779.22"/><rect fill="none" height="6" style="stroke:#C82930;stroke-width:1.0;" width="6" x="527" y="789.8684"/><text fill="#000000" font-family="sans-serif" font-size="14" lengthAdjust="spacing" textLength="337" x="539" y="796.2151">&#171;readonly, init&#187; m_Fragments: List&lt;IpFragment&gt;</text><ellipse cx="530" cy="809.1653" fill="none" rx="3" ry="3" style="stroke:#038048;stroke-width:1.0;"/><text fill="#000000" font-family="sans-serif" font-size="14" lengthAdjust="spacing" textLength="177" x="539" y="812.512">&#171;readonly, init&#187; FragId: int</text><ellipse cx="530" cy="825.4622" fill="none" rx="3" ry="3" style="stroke:#038048;stroke-width:1.0;"/><text fill="#000000" font-family="sans-serif" font-size="14" lengthAdjust="spacing" textLength="235" x="539" y="828.8089">&#171;readonly&#187; TimeStamp: DateTime</text><line style="stroke:#181818;stroke-width:0.5;" x1="520" x2="1021" y1="836.1106" y2="836.1106"/><ellipse cx="530" cy="849.7591" fill="#84BE84" rx="3" ry="3" style="stroke:#038048;stroke-width:1.0;"/><text fill="#000000" font-family="sans-serif" font-size="14" lengthAdjust="spacing" textLength="105" x="539" y="853.1057">.ctor(fragId: int)</text><ellipse cx="530" cy="882.3528" fill="#84BE84" rx="3" ry="3" style="stroke:#038048;stroke-width:1.0;"/><text fill="#000000" font-family="sans-serif" font-size="14" lengthAdjust="spacing" textLength="259" x="539" y="869.4026">AddFragment(fragOffset: int, mf: bool,</text><text fill="#000000" font-family="sans-serif" font-size="14" lengthAdjust="spacing" textLength="469" x="547" y="885.6995">buffer: ReadOnlySpan&lt;byte&gt;, timeStamp: DateTime, position: long)</text><text fill="#000000" font-family="sans-serif" font-size="14" lengthAdjust="spacing" textLength="131" x="547" y="901.9964">: IpFragmentResult</text><ellipse cx="530" cy="914.9466" fill="#84BE84" rx="3" ry="3" style="stroke:#038048;stroke-width:1.0;"/><text fill="#000000" font-family="sans-serif" font-size="14" lengthAdjust="spacing" textLength="306" x="539" y="918.2932">GetFragments(): IEnumerable&lt;IpFragment&gt;</text></g><!--class IpFragmentResult--><g id="elem_IpFragmentResult"><rect codeLine="93" fill="#F1F1F1" height="145.7813" id="IpFragmentResult" rx="2.5" ry="2.5" style="stroke:#181818;stroke-width:0.5;" width="194" x="673.5" y="986.6"/><ellipse cx="706.5" cy="1002.6" fill="#EB937F" rx="11" ry="11" style="stroke:#181818;stroke-width:1.0;"/><path d="M710.6094,1008.6 L702.8906,1008.6 L702.8906,996.2094 L710.6094,996.2094 L710.6094,998.3656 L705.3438,998.3656 L705.3438,1001.0375 L710.1094,1001.0375 L710.1094,1003.1938 L705.3438,1003.1938 L705.3438,1006.4438 L710.6094,1006.4438 L710.6094,1008.6 Z " fill="#000000"/><text fill="#000000" font-family="sans-serif" font-size="14" lengthAdjust="spacing" textLength="122" x="724.5" y="1007.4467">IpFragmentResult</text><line style="stroke:#181818;stroke-width:0.5;" x1="674.5" x2="866.5" y1="1018.6" y2="1018.6"/><text fill="#000000" font-family="sans-serif" font-size="14" lengthAdjust="spacing" textLength="77" x="679.5" y="1035.5951">Incomplete</text><text fill="#000000" font-family="sans-serif" font-size="14" lengthAdjust="spacing" textLength="95" x="679.5" y="1051.892">Reassembled</text><text fill="#000000" font-family="sans-serif" font-size="14" lengthAdjust="spacing" textLength="94" x="679.5" y="1068.1889">InvalidOverlap</text><text fill="#000000" font-family="sans-serif" font-size="14" lengthAdjust="spacing" textLength="101" x="679.5" y="1084.4857">InvalidTimeOut</text><text fill="#000000" font-family="sans-serif" font-size="14" lengthAdjust="spacing" textLength="83" x="679.5" y="1100.7826">InvalidOffset</text><text fill="#000000" font-family="sans-serif" font-size="14" lengthAdjust="spacing" textLength="182" x="679.5" y="1117.0795">InvalidDuplicateLastPacket</text><line style="stroke:#181818;stroke-width:0.5;" x1="674.5" x2="866.5" y1="1124.3813" y2="1124.3813"/></g><!--link PacketDecoder to ConnectionKey--><g id="link_PacketDecoder_ConnectionKey"><path codeLine="35" d="M1029.78,252.33 C1041.19,252.33 1052.6,252.33 1064.01,252.33 " fill="none" id="PacketDecoder-ConnectionKey" style="stroke:#181818;stroke-width:1.0;stroke-dasharray:7.0,7.0;"/></g><!--reverse link PacketDecoder to Connection--><g id="link_PacketDecoder_Connection"><path codeLine="50" d="M728.5,396.52 C728.5,417.6 728.5,438.98 728.5,459.09 " fill="none" id="PacketDecoder-backto-Connection" style="stroke:#181818;stroke-width:1.0;"/><polygon fill="#181818" points="728.5,383.72,724.5,389.72,728.5,395.72,732.5,389.72,728.5,383.72" style="stroke:#181818;stroke-width:1.0;"/><text fill="#000000" font-family="sans-serif" font-size="13" lengthAdjust="spacing" textLength="152" x="729.5" y="425.3169">&#171;key = ConnectionKey&#187;</text><text fill="#000000" font-family="sans-serif" font-size="13" lengthAdjust="spacing" textLength="8" x="720.2813" y="402.3314">1</text><text fill="#000000" font-family="sans-serif" font-size="13" lengthAdjust="spacing" textLength="23" x="704.6914" y="448.2061">0..*</text></g><!--reverse link Connection to DltPcapNetworkTraceFilterDecoder--><g id="link_Connection_DltPcapNetworkTraceFilterDecoder"><path codeLine="66" d="M528.8,677.24 C459.78,715.77 386.06,756.93 331.13,787.6 " fill="none" id="Connection-backto-DltPcapNetworkTraceFilterDecoder" style="stroke:#181818;stroke-width:1.0;"/><polygon fill="#181818" points="539.72,670.58,532.5309,670.0172,529.2463,676.4368,536.4354,676.9996,539.72,670.58" style="stroke:#181818;stroke-width:1.0;"/><text fill="#000000" font-family="sans-serif" font-size="13" lengthAdjust="spacing" textLength="136" x="488.5" y="713.2869">&#171;key = EndPointKey&#187;</text><text fill="#000000" font-family="sans-serif" font-size="13" lengthAdjust="spacing" textLength="8" x="519.8348" y="690.2668">1</text><text fill="#000000" font-family="sans-serif" font-size="13" lengthAdjust="spacing" textLength="23" x="318.5545" y="776.7569">0..*</text></g><!--link Connection to EndPointKey--><g id="link_Connection_EndPointKey"><path codeLine="67" d="M1059.05,564.74 C1070.55,564.74 1082.05,564.74 1093.56,564.74 " fill="none" id="Connection-EndPointKey" style="stroke:#181818;stroke-width:1.0;stroke-dasharray:7.0,7.0;"/></g><!--reverse link DltTraceDecoder to DltPcapNetworkTraceFilterDecoder--><g id="link_DltTraceDecoder_DltPcapNetworkTraceFilterDecoder"><path codeLine="70" d="M245.5,609.96 C245.5,658.82 245.5,737.24 245.5,787.52 " fill="none" id="DltTraceDecoder-backto-DltPcapNetworkTraceFilterDecoder" style="stroke:#181818;stroke-width:1.0;"/><polygon fill="none" points="238.5,610.2,245.5,590.2,252.5,610.2,238.5,610.2" style="stroke:#181818;stroke-width:1.0;"/></g><!--reverse link DltPcapNetworkTraceFilterDecoder to IOutputStream--><g id="link_DltPcapNetworkTraceFilterDecoder_IOutputStream"><path codeLine="73" d="M245.5,898.97 C245.5,944.23 245.5,1003.22 245.5,1035.28 " fill="none" id="DltPcapNetworkTraceFilterDecoder-backto-IOutputStream" style="stroke:#181818;stroke-width:1.0;"/><polygon fill="none" points="245.5,886.11,241.5,892.11,245.5,898.11,249.5,892.11,245.5,886.11" style="stroke:#181818;stroke-width:1.0;"/></g><!--reverse link IpFragments to IpFragment--><g id="link_IpFragments_IpFragment"><path codeLine="90" d="M1035.91,836.41 C1042.68,836.41 1049.45,836.41 1056.21,836.41 " fill="none" id="IpFragments-backto-IpFragment" style="stroke:#181818;stroke-width:1.0;"/><polygon fill="#181818" points="1023.02,836.41,1029.02,840.41,1035.02,836.41,1029.02,832.41,1023.02,836.41" style="stroke:#181818;stroke-width:1.0;"/><text fill="#000000" font-family="sans-serif" font-size="13" lengthAdjust="spacing" textLength="8" x="1029.6058" y="833.2563">1</text><text fill="#000000" font-family="sans-serif" font-size="13" lengthAdjust="spacing" textLength="23" x="1030.0865" y="833.1012">0..*</text></g><!--reverse link Connection to IpFragments--><g id="link_Connection_IpFragments"><path codeLine="91" d="M746.94,684.16 C750.23,705.27 753.6,726.92 756.73,747 " fill="none" id="Connection-backto-IpFragments" style="stroke:#181818;stroke-width:1.0;"/><polygon fill="#181818" points="744.8,671.39,741.7709,677.934,746.6465,683.2471,749.6756,676.703,744.8,671.39" style="stroke:#181818;stroke-width:1.0;"/><text fill="#000000" font-family="sans-serif" font-size="13" lengthAdjust="spacing" textLength="73" x="752.5" y="713.2869">&#171;key = int&#187;</text><text fill="#000000" font-family="sans-serif" font-size="13" lengthAdjust="spacing" textLength="8" x="737.6648" y="690.4178">1</text><text fill="#000000" font-family="sans-serif" font-size="13" lengthAdjust="spacing" textLength="23" x="731.6373" y="736.0472">0..*</text></g><!--link IpFragments to IpFragmentResult--><g id="link_IpFragments_IpFragmentResult"><path codeLine="101" d="M770.5,926.06 C770.5,946 770.5,966.93 770.5,986.11 " fill="none" id="IpFragments-IpFragmentResult" style="stroke:#181818;stroke-width:1.0;"/></g><!--SRC=[lLPDRziu4BtdLmoo5xkrZUofWA0QQEkaDJPO1xLlRL7GqYXHJP5QacfXjFtl7LAqHDcnx5racqCIaSFvUFFcaGbdMiCTIpPePfZ851Lylm3w6SUnGfPAmRSZo4LkfbCeFh-HGc1YSYbq1BFS_SVKDcxN_qAoRp-dFSvkSx5PRKkCQCdqs2qgKrPcQMYhY60UVhfJpoU9aMh0GtV3epiZaCVz-MCr53KiWtMLPQWYU4-PBIYpPSb4lDuQd8x0v0Kk3IjAGeCPND7d24gfSrjx15oA- -570K1XhaLLe69hZl6CcvLY2H80-9ffz23LKMdJ1zOgUPMcocUTQjD-MPzLMhx-xQdTA7PVe33wZEmQssw8URFnX5d-lBWGqY1mp8ndSCibOb4kqZoX01hC0pFq2nL2hfqX20bbjUPv0XgDeH78fB8cK2fPeZBRYNVeANde3EJw2n6-yMYZ0erMVYym9Njdaz3K65LPIavimeaRlixenFFhVofcN96T3OeQnuFbw8-RcnSlhgw6K7kYvRhOvuzCpb9MAa7R5jIw7RB7J6UeJIwO3NPeNm_HyNxxeNcBvXtJ3s-8A8DXSDnMnFM048eyJBIxbf9tjsrBeYuQExjTSuqiVRahWZEE6moOI250RbMpbd4klxbUClYAQWiPqoPGBMV4fTnKfUj7LmOdQjBDvh1XlLBf_NHrybgaTvAGSIff9prXvTzelacrSOI-oJdnpn_jqyvWjWBthZNjVEdf_ywDH-pFbEkJV3fbTewG4oS9PO-dzNKdbOb0Fz0Vvotu9hQTwaZZDC1uaD5_yxJEF0hHztT9hXEcqiVj3sbt-USbF1kdOxYycaoUNOPiYuZo6zp2IzYJXXqp0tQ5GX8i_tSP2O0wXoa7vaqt-phmX48I51t8I8tJgJRlmAWxipgyei9NGk_xe7kJZI3ZbNweqpdtMWi8iC-DatMqZEbm8FHfPIxO321o_dR4FnbgN8r_J0-ENP1NL1cjx0d1IN_IrjazurDh9-pVSzcUN6GPNVFz6hPxMDasVlXqrEokqzwGwB8DCeBp6J9iIHe8IUyz4zm4jxasuVEg5mOlGVisj7kKy7Lf7VrowoJ9kvXkTn4MNsGrtzshy8dUqas9xr5Nt3IoqOhiyEYRan0EeQrdIZKprUxrJLxeeHqogjUACLBSWnnz3-SYaKN9qTIG4WvQOq4ffdxxA-Dvkg3d2cTbk6JXe6deM3cOmvLPLNBtChsbbqwjNdlbkgdQX-yN]--></g></svg>