<?xml version="1.0" encoding="UTF-8" standalone="no"?><svg xmlns="http://www.w3.org/2000/svg" xmlns:xlink="http://www.w3.org/1999/xlink" contentScriptType="application/ecmascript" contentStyleType="text/css" height="1061px" preserveAspectRatio="none" style="width:1097px;height:1061px;background:#FFFFFF;" version="1.1" viewBox="0 0 1097 1061" width="1097px" zoomAndPan="magnify"><defs><filter height="300%" id="f4jyxj7iah62g" width="300%" x="-1" y="-1"><feGaussianBlur result="blurOut" stdDeviation="2.0"/><feColorMatrix in="blurOut" result="blurOut2" type="matrix" values="0 0 0 0 0 0 0 0 0 0 0 0 0 0 0 0 0 0 .4 0"/><feOffset dx="4.0" dy="4.0" in="blurOut2" result="blurOut3"/><feBlend in="SourceGraphic" in2="blurOut3" mode="normal"/></filter></defs><g><!--MD5=[7b682d4fb164593493a4c0dbc33aac53]
class PacketDecoder--><rect codeLine="2" fill="#FEFECE" filter="url(#f4jyxj7iah62g)" height="227.8672" id="PacketDecoder" style="stroke:#A80036;stroke-width:1.5;" width="418" x="320.5" y="126"/><ellipse cx="483.25" cy="142" fill="#ADD1B2" rx="11" ry="11" style="stroke:#A80036;stroke-width:1.0;"/><path d="M486.0156,137.875 Q486.1719,137.6563 486.3594,137.5469 Q486.5469,137.4375 486.7656,137.4375 Q487.1406,137.4375 487.375,137.6953 Q487.6094,137.9531 487.6094,138.5625 L487.6094,140.0156 Q487.6094,140.625 487.375,140.8906 Q487.1406,141.1563 486.7656,141.1563 Q486.4219,141.1563 486.2188,140.9531 Q486.0156,140.7656 485.9063,140.25 Q485.8594,139.8906 485.6719,139.7031 Q485.3438,139.3281 484.7344,139.1094 Q484.125,138.8906 483.5,138.8906 Q482.7344,138.8906 482.1016,139.2188 Q481.4688,139.5469 480.9766,140.2969 Q480.4844,141.0469 480.4844,142.0781 L480.4844,143.1719 Q480.4844,144.4063 481.375,145.2266 Q482.2656,146.0469 483.8594,146.0469 Q484.7969,146.0469 485.4531,145.7969 Q485.8438,145.6406 486.2656,145.2031 Q486.5313,144.9375 486.6797,144.8594 Q486.8281,144.7813 487.0313,144.7813 Q487.3594,144.7813 487.6172,145.0391 Q487.875,145.2969 487.875,145.6406 Q487.875,145.9844 487.5313,146.3906 Q487.0313,146.9688 486.2344,147.2969 Q485.1563,147.75 483.8594,147.75 Q482.3438,147.75 481.1406,147.125 Q480.1563,146.625 479.4688,145.5547 Q478.7813,144.4844 478.7813,143.2031 L478.7813,142.0469 Q478.7813,140.7188 479.3984,139.5703 Q480.0156,138.4219 481.1094,137.8047 Q482.2031,137.1875 483.4375,137.1875 Q484.1719,137.1875 484.8203,137.3516 Q485.4688,137.5156 486.0156,137.875 Z " fill="#000000"/><text fill="#000000" font-family="sans-serif" font-size="12" lengthAdjust="spacing" textLength="84" x="503.75" y="146.9102">PacketDecoder</text><line style="stroke:#A80036;stroke-width:1.5;" x1="321.5" x2="737.5" y1="158" y2="158"/><rect fill="none" height="6" style="stroke:#C82930;stroke-width:1.0;" width="6" x="328.5" y="166"/><text fill="#000000" font-family="sans-serif" font-size="11" lengthAdjust="spacing" textLength="349" x="340.5" y="173.4189">«readonly, init» m_Connections: Dictionary&lt;ConnectionKey, Connection&gt;</text><rect fill="none" height="6" style="stroke:#C82930;stroke-width:1.0;" width="6" x="328.5" y="179.8359"/><text fill="#000000" font-family="sans-serif" font-size="11" lengthAdjust="spacing" textLength="150" x="340.5" y="187.2549">«readonly, init» m_LinkType: int</text><rect fill="none" height="6" style="stroke:#C82930;stroke-width:1.0;" width="6" x="328.5" y="193.6719"/><text fill="#000000" font-family="sans-serif" font-size="11" lengthAdjust="spacing" textLength="230" x="340.5" y="201.0908">«readonly, init» m_OutputStream: IOutputStream</text><line style="stroke:#A80036;stroke-width:1.5;" x1="321.5" x2="737.5" y1="207.5078" y2="207.5078"/><ellipse cx="331.5" cy="218.5078" fill="#84BE84" rx="3" ry="3" style="stroke:#038048;stroke-width:1.0;"/><text fill="#000000" font-family="sans-serif" font-size="11" lengthAdjust="spacing" textLength="86" x="340.5" y="222.9268">.ctor(linkType: int)</text><ellipse cx="331.5" cy="232.3438" fill="#84BE84" rx="3" ry="3" style="stroke:#038048;stroke-width:1.0;"/><text fill="#000000" font-family="sans-serif" font-size="11" lengthAdjust="spacing" textLength="230" x="340.5" y="236.7627">.ctor(linkType: int, outputStream: IOutputStream)</text><ellipse cx="331.5" cy="246.1797" fill="#84BE84" rx="3" ry="3" style="stroke:#038048;stroke-width:1.0;"/><text fill="#000000" font-family="sans-serif" font-size="11" lengthAdjust="spacing" textLength="392" x="340.5" y="250.5986">DecodePacket(buffer: ReadOnlySpan&lt;byte&gt;, timeStamp: DateTime, position: long)</text><text fill="#000000" font-family="sans-serif" font-size="11" lengthAdjust="spacing" textLength="161" x="346.5" y="264.4346">: IEnumerable&lt;DltTraceLineBase&gt;</text><rect fill="#F24D5C" height="6" style="stroke:#C82930;stroke-width:1.0;" width="6" x="328.5" y="270.8516"/><text fill="#000000" font-family="sans-serif" font-size="11" lengthAdjust="spacing" textLength="207" x="340.5" y="278.2705">DecodeDltPacket(srcAddr: int, dstAddr: int,</text><text fill="#000000" font-family="sans-serif" font-size="11" lengthAdjust="spacing" textLength="338" x="346.5" y="292.1064">udpBuffer: ReadOnlySpan&lt;byte&gt;, timeStamp: DateTime, position: long)</text><text fill="#000000" font-family="sans-serif" font-size="11" lengthAdjust="spacing" textLength="161" x="346.5" y="305.9424">: IEnumerable&lt;DltTraceLineBase&gt;</text><rect fill="#F24D5C" height="6" style="stroke:#C82930;stroke-width:1.0;" width="6" x="328.5" y="312.3594"/><text fill="#000000" font-family="sans-serif" font-size="11" lengthAdjust="spacing" textLength="226" x="340.5" y="319.7783">DecodeDltFragments(srcAddr: int, dstAddr: int,</text><text fill="#000000" font-family="sans-serif" font-size="11" lengthAdjust="spacing" textLength="376" x="346.5" y="333.6143">udpFragments: IEnumerable&lt;IpFragment&gt;, timeStamp: DateTime, position: long)</text><text fill="#000000" font-family="sans-serif" font-size="11" lengthAdjust="spacing" textLength="161" x="346.5" y="347.4502">: IEnumerable&lt;DltTraceLineBase&gt;</text><path d="M71.5,202.5 L71.5,277.9063 A0,0 0 0 0 71.5,277.9063 L285.5,277.9063 A0,0 0 0 0 285.5,277.9063 L285.5,244 L320.06,240 L285.5,236 L285.5,212.5 L275.5,202.5 L71.5,202.5 A0,0 0 0 0 71.5,202.5 " fill="#FBFB77" filter="url(#f4jyxj7iah62g)" style="stroke:#A80036;stroke-width:1.0;"/><path d="M275.5,202.5 L275.5,212.5 L285.5,212.5 L275.5,202.5 " fill="#FBFB77" style="stroke:#A80036;stroke-width:1.0;"/><text fill="#000000" font-family="sans-serif" font-size="13" lengthAdjust="spacing" textLength="192" x="77.5" y="220.9951">«readonly» indicates that there is</text><text fill="#000000" font-family="sans-serif" font-size="13" lengthAdjust="spacing" textLength="184" x="81.5" y="237.3467">no public setter for the property.</text><text fill="#000000" font-family="sans-serif" font-size="13" lengthAdjust="spacing" textLength="188" x="77.5" y="253.6982">«init» indicates that the object is</text><text fill="#000000" font-family="sans-serif" font-size="13" lengthAdjust="spacing" textLength="189" x="81.5" y="270.0498">only assigned in the constructor.</text><!--MD5=[aa21a5e78f70a6682dc216d8fe0b2ad9]
class ConnectionKey--><rect codeLine="20" fill="#FEFECE" filter="url(#f4jyxj7iah62g)" height="139.2031" id="ConnectionKey" style="stroke:#A80036;stroke-width:1.5;" width="278" x="773.5" y="170.5"/><ellipse cx="788.5" cy="190.5938" fill="#FF7700" rx="11" ry="11" style="stroke:#A80036;stroke-width:1.0;"/><path d="M786.6094,195.1563 Q786.3906,195.4219 786.25,195.5 Q786.1094,195.5781 785.9219,195.5781 Q785.5313,195.5781 785.2891,195.3125 Q785.0469,195.0469 785.0469,194.4531 L785.0469,193.2969 Q785.0469,192.6875 785.2891,192.4297 Q785.5313,192.1719 785.9219,192.1719 Q786.2188,192.1719 786.4219,192.3281 Q786.625,192.4844 786.7344,192.8516 Q786.8438,193.2188 786.9531,193.3594 Q787.2031,193.6094 787.8125,193.875 Q788.4219,194.1406 789.1563,194.1406 Q790.2969,194.1406 791.0156,193.6094 Q791.4844,193.2813 791.4844,192.8125 Q791.4844,192.5 791.2656,192.2188 Q791.0469,191.9375 790.5313,191.7656 Q790.2031,191.6406 789.0469,191.4219 Q787.6563,191.1563 786.9375,190.7969 Q786.2188,190.4375 785.8047,189.7734 Q785.3906,189.1094 785.3906,188.3281 Q785.3906,187.1094 786.4141,186.1953 Q787.4375,185.2813 789.0781,185.2813 Q789.7344,185.2813 790.2891,185.4219 Q790.8438,185.5625 791.3125,185.8594 Q791.6406,185.5469 791.9688,185.5469 Q792.3438,185.5469 792.5781,185.8047 Q792.8125,186.0625 792.8125,186.6719 L792.8125,187.9531 Q792.8125,188.5625 792.5781,188.8203 Q792.3438,189.0781 791.9688,189.0781 Q791.6563,189.0781 791.4219,188.8906 Q791.2344,188.75 791.1484,188.3281 Q791.0625,187.9063 790.9219,187.7188 Q790.6719,187.4063 790.1953,187.1953 Q789.7188,186.9844 789.0781,186.9844 Q788.1563,186.9844 787.625,187.4063 Q787.0938,187.8281 787.0938,188.2969 Q787.0938,188.6094 787.3125,188.9063 Q787.5313,189.2031 787.9531,189.375 Q788.2344,189.4844 789.5391,189.7422 Q790.8438,190 791.5469,190.3047 Q792.25,190.6094 792.7188,191.2656 Q793.1875,191.9219 793.1875,192.8281 Q793.1875,194.0938 792.2969,194.8438 Q791.1094,195.8438 789.2813,195.8438 Q788.5781,195.8438 787.9141,195.6719 Q787.25,195.5 786.6094,195.1563 Z " fill="#000000"/><text fill="#000000" font-family="sans-serif" font-size="12" font-style="italic" lengthAdjust="spacing" textLength="43" x="822.5" y="187.957">«struct»</text><text fill="#000000" font-family="sans-serif" font-size="12" lengthAdjust="spacing" textLength="83" x="802.5" y="203.0508">ConnectionKey</text><rect fill="#FFFFFF" height="17.0938" style="stroke:#000000;stroke-width:1.0;stroke-dasharray:2.0,2.0;" width="161" x="893.5" y="167.5"/><text fill="#000000" font-family="sans-serif" font-size="12" font-style="italic" lengthAdjust="spacing" textLength="159" x="894.5" y="180.957">IEquatable&lt;ConnectionKey&gt;</text><line style="stroke:#A80036;stroke-width:1.5;" x1="774.5" x2="1050.5" y1="210.6875" y2="210.6875"/><ellipse cx="784.5" cy="221.6875" rx="3" ry="3" style="stroke:#038048;stroke-width:1.0;fill:none;"/><text fill="#000000" font-family="sans-serif" font-size="11" lengthAdjust="spacing" textLength="170" x="793.5" y="226.1064">«readonly, init» SourceAddress: int</text><ellipse cx="784.5" cy="235.5234" rx="3" ry="3" style="stroke:#038048;stroke-width:1.0;fill:none;"/><text fill="#000000" font-family="sans-serif" font-size="11" lengthAdjust="spacing" textLength="188" x="793.5" y="239.9424">«readonly, init» DestinationAddress: int</text><line style="stroke:#A80036;stroke-width:1.5;" x1="774.5" x2="1050.5" y1="246.3594" y2="246.3594"/><ellipse cx="784.5" cy="257.3594" fill="#84BE84" rx="3" ry="3" style="stroke:#038048;stroke-width:1.0;"/><text fill="#000000" font-family="sans-serif" font-size="11" lengthAdjust="spacing" textLength="149" x="793.5" y="261.7783">.ctor(srcAddr: int, dstAddr: int)</text><ellipse cx="784.5" cy="271.1953" fill="#84BE84" rx="3" ry="3" style="stroke:#038048;stroke-width:1.0;"/><text fill="#000000" font-family="sans-serif" font-size="11" lengthAdjust="spacing" textLength="92" x="793.5" y="275.6143">GetHashCode(): int</text><ellipse cx="784.5" cy="285.0313" fill="#84BE84" rx="3" ry="3" style="stroke:#038048;stroke-width:1.0;"/><text fill="#000000" font-family="sans-serif" font-size="11" lengthAdjust="spacing" textLength="115" x="793.5" y="289.4502">Equals(obj: object): bool</text><ellipse cx="784.5" cy="298.8672" fill="#84BE84" rx="3" ry="3" style="stroke:#038048;stroke-width:1.0;"/><text fill="#000000" font-family="sans-serif" font-size="11" lengthAdjust="spacing" textLength="170" x="793.5" y="303.2861">Equals(other: ConnectionKey): bool</text><path d="M809.5,6 L809.5,65.0547 A0,0 0 0 0 809.5,65.0547 L908.5,65.0547 L912.5,170.4 L916.5,65.0547 L1015.5,65.0547 A0,0 0 0 0 1015.5,65.0547 L1015.5,16 L1005.5,6 L809.5,6 A0,0 0 0 0 809.5,6 " fill="#FBFB77" filter="url(#f4jyxj7iah62g)" style="stroke:#A80036;stroke-width:1.0;"/><path d="M1005.5,6 L1005.5,16 L1015.5,16 L1005.5,6 " fill="#FBFB77" style="stroke:#A80036;stroke-width:1.0;"/><text fill="#000000" font-family="sans-serif" font-size="13" lengthAdjust="spacing" textLength="185" x="815.5" y="24.4951">The «struct» and IEquatable&lt;T&gt;</text><text fill="#000000" font-family="sans-serif" font-size="13" lengthAdjust="spacing" textLength="172" x="815.5" y="40.8467">allow for a very fast Dictionary</text><text fill="#000000" font-family="sans-serif" font-size="13" lengthAdjust="spacing" textLength="42" x="815.5" y="57.1982">lookup.</text><!--MD5=[ad510ca42d1a057b37ac2813b8ee5b40]
class Connection--><rect codeLine="37" fill="#FEFECE" filter="url(#f4jyxj7iah62g)" height="186.3594" id="Connection" style="stroke:#A80036;stroke-width:1.5;" width="464" x="297.5" y="432"/><ellipse cx="493.75" cy="448" fill="#ADD1B2" rx="11" ry="11" style="stroke:#A80036;stroke-width:1.0;"/><path d="M496.5156,443.875 Q496.6719,443.6563 496.8594,443.5469 Q497.0469,443.4375 497.2656,443.4375 Q497.6406,443.4375 497.875,443.6953 Q498.1094,443.9531 498.1094,444.5625 L498.1094,446.0156 Q498.1094,446.625 497.875,446.8906 Q497.6406,447.1563 497.2656,447.1563 Q496.9219,447.1563 496.7188,446.9531 Q496.5156,446.7656 496.4063,446.25 Q496.3594,445.8906 496.1719,445.7031 Q495.8438,445.3281 495.2344,445.1094 Q494.625,444.8906 494,444.8906 Q493.2344,444.8906 492.6016,445.2188 Q491.9688,445.5469 491.4766,446.2969 Q490.9844,447.0469 490.9844,448.0781 L490.9844,449.1719 Q490.9844,450.4063 491.875,451.2266 Q492.7656,452.0469 494.3594,452.0469 Q495.2969,452.0469 495.9531,451.7969 Q496.3438,451.6406 496.7656,451.2031 Q497.0313,450.9375 497.1797,450.8594 Q497.3281,450.7813 497.5313,450.7813 Q497.8594,450.7813 498.1172,451.0391 Q498.375,451.2969 498.375,451.6406 Q498.375,451.9844 498.0313,452.3906 Q497.5313,452.9688 496.7344,453.2969 Q495.6563,453.75 494.3594,453.75 Q492.8438,453.75 491.6406,453.125 Q490.6563,452.625 489.9688,451.5547 Q489.2813,450.4844 489.2813,449.2031 L489.2813,448.0469 Q489.2813,446.7188 489.8984,445.5703 Q490.5156,444.4219 491.6094,443.8047 Q492.7031,443.1875 493.9375,443.1875 Q494.6719,443.1875 495.3203,443.3516 Q495.9688,443.5156 496.5156,443.875 Z " fill="#000000"/><text fill="#000000" font-family="sans-serif" font-size="12" lengthAdjust="spacing" textLength="63" x="514.25" y="452.9102">Connection</text><line style="stroke:#A80036;stroke-width:1.5;" x1="298.5" x2="760.5" y1="464" y2="464"/><rect fill="none" height="6" style="stroke:#C82930;stroke-width:1.0;" width="6" x="305.5" y="472"/><text fill="#000000" font-family="sans-serif" font-size="11" lengthAdjust="spacing" textLength="438" x="317.5" y="479.4189">«readonly, init» m_Decoders: Dictionary&lt;EndPointKey, DltPcapNetworkTraceFilterDecoder&gt;</text><rect fill="none" height="6" style="stroke:#C82930;stroke-width:1.0;" width="6" x="305.5" y="485.8359"/><text fill="#000000" font-family="sans-serif" font-size="11" lengthAdjust="spacing" textLength="283" x="317.5" y="493.2549">«readonly, init» m_Fragments: Dictionary&lt;int, IpFragments&gt;</text><ellipse cx="308.5" cy="502.6719" rx="3" ry="3" style="stroke:#038048;stroke-width:1.0;fill:none;"/><text fill="#000000" font-family="sans-serif" font-size="11" lengthAdjust="spacing" textLength="170" x="317.5" y="507.0908">«readonly, init» SourceAddress: int</text><ellipse cx="308.5" cy="516.5078" rx="3" ry="3" style="stroke:#038048;stroke-width:1.0;fill:none;"/><text fill="#000000" font-family="sans-serif" font-size="11" lengthAdjust="spacing" textLength="188" x="317.5" y="520.9268">«readonly, init» DestinationAddress: int</text><ellipse cx="308.5" cy="530.3438" rx="3" ry="3" style="stroke:#038048;stroke-width:1.0;fill:none;"/><text fill="#000000" font-family="sans-serif" font-size="11" lengthAdjust="spacing" textLength="216" x="317.5" y="534.7627">«readonly, init» OutputStream: IOutputStream</text><line style="stroke:#A80036;stroke-width:1.5;" x1="298.5" x2="760.5" y1="541.1797" y2="541.1797"/><ellipse cx="308.5" cy="552.1797" fill="#84BE84" rx="3" ry="3" style="stroke:#038048;stroke-width:1.0;"/><text fill="#000000" font-family="sans-serif" font-size="11" lengthAdjust="spacing" textLength="149" x="317.5" y="556.5986">.ctor(srcAddr: int, dstAddr: int)</text><ellipse cx="308.5" cy="566.0156" fill="#84BE84" rx="3" ry="3" style="stroke:#038048;stroke-width:1.0;"/><text fill="#000000" font-family="sans-serif" font-size="11" lengthAdjust="spacing" textLength="293" x="317.5" y="570.4346">.ctor(srcAddr: int, dstAddr: int, outputStream: IOutputStream)</text><ellipse cx="308.5" cy="579.8516" fill="#84BE84" rx="3" ry="3" style="stroke:#038048;stroke-width:1.0;"/><text fill="#000000" font-family="sans-serif" font-size="11" lengthAdjust="spacing" textLength="390" x="317.5" y="584.2705">GetDltDecoder(srcPort: short, dstPort: short): DltPcapNetworkTraceFilterDecoder</text><ellipse cx="308.5" cy="593.6875" fill="#84BE84" rx="3" ry="3" style="stroke:#038048;stroke-width:1.0;"/><text fill="#000000" font-family="sans-serif" font-size="11" lengthAdjust="spacing" textLength="194" x="317.5" y="598.1064">GetIpFragments(fragId: int): IpFragments</text><ellipse cx="308.5" cy="607.5234" fill="#84BE84" rx="3" ry="3" style="stroke:#038048;stroke-width:1.0;"/><text fill="#000000" font-family="sans-serif" font-size="11" lengthAdjust="spacing" textLength="141" x="317.5" y="611.9424">DiscardFragments(fragId: int)</text><!--MD5=[095896f45ff99fabc4aa025a3025b284]
class EndPointKey--><rect codeLine="52" fill="#FEFECE" filter="url(#f4jyxj7iah62g)" height="139.2031" id="EndPointKey" style="stroke:#A80036;stroke-width:1.5;" width="252" x="796.5" y="455.5"/><ellipse cx="811.5" cy="475.5938" fill="#FF7700" rx="11" ry="11" style="stroke:#A80036;stroke-width:1.0;"/><path d="M809.6094,480.1563 Q809.3906,480.4219 809.25,480.5 Q809.1094,480.5781 808.9219,480.5781 Q808.5313,480.5781 808.2891,480.3125 Q808.0469,480.0469 808.0469,479.4531 L808.0469,478.2969 Q808.0469,477.6875 808.2891,477.4297 Q808.5313,477.1719 808.9219,477.1719 Q809.2188,477.1719 809.4219,477.3281 Q809.625,477.4844 809.7344,477.8516 Q809.8438,478.2188 809.9531,478.3594 Q810.2031,478.6094 810.8125,478.875 Q811.4219,479.1406 812.1563,479.1406 Q813.2969,479.1406 814.0156,478.6094 Q814.4844,478.2813 814.4844,477.8125 Q814.4844,477.5 814.2656,477.2188 Q814.0469,476.9375 813.5313,476.7656 Q813.2031,476.6406 812.0469,476.4219 Q810.6563,476.1563 809.9375,475.7969 Q809.2188,475.4375 808.8047,474.7734 Q808.3906,474.1094 808.3906,473.3281 Q808.3906,472.1094 809.4141,471.1953 Q810.4375,470.2813 812.0781,470.2813 Q812.7344,470.2813 813.2891,470.4219 Q813.8438,470.5625 814.3125,470.8594 Q814.6406,470.5469 814.9688,470.5469 Q815.3438,470.5469 815.5781,470.8047 Q815.8125,471.0625 815.8125,471.6719 L815.8125,472.9531 Q815.8125,473.5625 815.5781,473.8203 Q815.3438,474.0781 814.9688,474.0781 Q814.6563,474.0781 814.4219,473.8906 Q814.2344,473.75 814.1484,473.3281 Q814.0625,472.9063 813.9219,472.7188 Q813.6719,472.4063 813.1953,472.1953 Q812.7188,471.9844 812.0781,471.9844 Q811.1563,471.9844 810.625,472.4063 Q810.0938,472.8281 810.0938,473.2969 Q810.0938,473.6094 810.3125,473.9063 Q810.5313,474.2031 810.9531,474.375 Q811.2344,474.4844 812.5391,474.7422 Q813.8438,475 814.5469,475.3047 Q815.25,475.6094 815.7188,476.2656 Q816.1875,476.9219 816.1875,477.8281 Q816.1875,479.0938 815.2969,479.8438 Q814.1094,480.8438 812.2813,480.8438 Q811.5781,480.8438 810.9141,480.6719 Q810.25,480.5 809.6094,480.1563 Z " fill="#000000"/><text fill="#000000" font-family="sans-serif" font-size="12" font-style="italic" lengthAdjust="spacing" textLength="43" x="839" y="472.957">«struct»</text><text fill="#000000" font-family="sans-serif" font-size="12" lengthAdjust="spacing" textLength="70" x="825.5" y="488.0508">EndPointKey</text><rect fill="#FFFFFF" height="17.0938" style="stroke:#000000;stroke-width:1.0;stroke-dasharray:2.0,2.0;" width="148" x="903.5" y="452.5"/><text fill="#000000" font-family="sans-serif" font-size="12" font-style="italic" lengthAdjust="spacing" textLength="146" x="904.5" y="465.957">IEquatable&lt;EndPointKey&gt;</text><line style="stroke:#A80036;stroke-width:1.5;" x1="797.5" x2="1047.5" y1="495.6875" y2="495.6875"/><ellipse cx="807.5" cy="506.6875" rx="3" ry="3" style="stroke:#038048;stroke-width:1.0;fill:none;"/><text fill="#000000" font-family="sans-serif" font-size="11" lengthAdjust="spacing" textLength="161" x="816.5" y="511.1064">«readonly, init» SourcePort: short</text><ellipse cx="807.5" cy="520.5234" rx="3" ry="3" style="stroke:#038048;stroke-width:1.0;fill:none;"/><text fill="#000000" font-family="sans-serif" font-size="11" lengthAdjust="spacing" textLength="179" x="816.5" y="524.9424">«readonly, init» DestinationPort: short</text><line style="stroke:#A80036;stroke-width:1.5;" x1="797.5" x2="1047.5" y1="531.3594" y2="531.3594"/><ellipse cx="807.5" cy="542.3594" fill="#84BE84" rx="3" ry="3" style="stroke:#038048;stroke-width:1.0;"/><text fill="#000000" font-family="sans-serif" font-size="11" lengthAdjust="spacing" textLength="167" x="816.5" y="546.7783">.ctor(srcPort: short, dstPort: short)</text><ellipse cx="807.5" cy="556.1953" fill="#84BE84" rx="3" ry="3" style="stroke:#038048;stroke-width:1.0;"/><text fill="#000000" font-family="sans-serif" font-size="11" lengthAdjust="spacing" textLength="92" x="816.5" y="560.6143">GetHashCode(): int</text><ellipse cx="807.5" cy="570.0313" fill="#84BE84" rx="3" ry="3" style="stroke:#038048;stroke-width:1.0;"/><text fill="#000000" font-family="sans-serif" font-size="11" lengthAdjust="spacing" textLength="115" x="816.5" y="574.4502">Equals(obj: object): bool</text><ellipse cx="807.5" cy="583.8672" fill="#84BE84" rx="3" ry="3" style="stroke:#038048;stroke-width:1.0;"/><text fill="#000000" font-family="sans-serif" font-size="11" lengthAdjust="spacing" textLength="157" x="816.5" y="588.2861">Equals(other: EndPointKey): bool</text><!--MD5=[e6dc855584b63987c6ebb47217afddd6]
class DltPcapNetworkTraceFilterDecoder--><rect codeLine="61" fill="#FEFECE" filter="url(#f4jyxj7iah62g)" height="89.5078" id="DltPcapNetworkTraceFilterDecoder" style="stroke:#A80036;stroke-width:1.5;" width="337" x="7" y="730.5"/><ellipse cx="74.75" cy="746.5" fill="#ADD1B2" rx="11" ry="11" style="stroke:#A80036;stroke-width:1.0;"/><path d="M77.5156,742.375 Q77.6719,742.1563 77.8594,742.0469 Q78.0469,741.9375 78.2656,741.9375 Q78.6406,741.9375 78.875,742.1953 Q79.1094,742.4531 79.1094,743.0625 L79.1094,744.5156 Q79.1094,745.125 78.875,745.3906 Q78.6406,745.6563 78.2656,745.6563 Q77.9219,745.6563 77.7188,745.4531 Q77.5156,745.2656 77.4063,744.75 Q77.3594,744.3906 77.1719,744.2031 Q76.8438,743.8281 76.2344,743.6094 Q75.625,743.3906 75,743.3906 Q74.2344,743.3906 73.6016,743.7188 Q72.9688,744.0469 72.4766,744.7969 Q71.9844,745.5469 71.9844,746.5781 L71.9844,747.6719 Q71.9844,748.9063 72.875,749.7266 Q73.7656,750.5469 75.3594,750.5469 Q76.2969,750.5469 76.9531,750.2969 Q77.3438,750.1406 77.7656,749.7031 Q78.0313,749.4375 78.1797,749.3594 Q78.3281,749.2813 78.5313,749.2813 Q78.8594,749.2813 79.1172,749.5391 Q79.375,749.7969 79.375,750.1406 Q79.375,750.4844 79.0313,750.8906 Q78.5313,751.4688 77.7344,751.7969 Q76.6563,752.25 75.3594,752.25 Q73.8438,752.25 72.6406,751.625 Q71.6563,751.125 70.9688,750.0547 Q70.2813,748.9844 70.2813,747.7031 L70.2813,746.5469 Q70.2813,745.2188 70.8984,744.0703 Q71.5156,742.9219 72.6094,742.3047 Q73.7031,741.6875 74.9375,741.6875 Q75.6719,741.6875 76.3203,741.8516 Q76.9688,742.0156 77.5156,742.375 Z " fill="#000000"/><text fill="#000000" font-family="sans-serif" font-size="12" lengthAdjust="spacing" textLength="193" x="95.25" y="751.4102">DltPcapNetworkTraceFilterDecoder</text><line style="stroke:#A80036;stroke-width:1.5;" x1="8" x2="343" y1="762.5" y2="762.5"/><ellipse cx="18" cy="773.5" rx="3" ry="3" style="stroke:#038048;stroke-width:1.0;fill:none;"/><text fill="#000000" font-family="sans-serif" font-size="11" lengthAdjust="spacing" textLength="134" x="27" y="777.9189">PacketTimeStamp: DateTime</text><line style="stroke:#A80036;stroke-width:1.5;" x1="8" x2="343" y1="784.3359" y2="784.3359"/><ellipse cx="18" cy="795.3359" fill="#84BE84" rx="3" ry="3" style="stroke:#038048;stroke-width:1.0;"/><text fill="#000000" font-family="sans-serif" font-size="11" lengthAdjust="spacing" textLength="311" x="27" y="799.7549">Decode(buffer: ReadOnlySpan&lt;byte&gt;, position: long, flush: bool)</text><text fill="#000000" font-family="sans-serif" font-size="11" lengthAdjust="spacing" textLength="161" x="33" y="813.5908">: IEnumerable&lt;DltTraceLineBase&gt;</text><!--MD5=[ffb2fd249efbe4af1286e8136fa09e1b]
class DltTraceDecoder--><rect codeLine="69" fill="#FEFECE" filter="url(#f4jyxj7iah62g)" height="48" id="DltTraceDecoder" style="stroke:#A80036;stroke-width:1.5;" width="125" x="113" y="501"/><ellipse cx="128" cy="517" fill="#ADD1B2" rx="11" ry="11" style="stroke:#A80036;stroke-width:1.0;"/><path d="M130.7656,512.875 Q130.9219,512.6563 131.1094,512.5469 Q131.2969,512.4375 131.5156,512.4375 Q131.8906,512.4375 132.125,512.6953 Q132.3594,512.9531 132.3594,513.5625 L132.3594,515.0156 Q132.3594,515.625 132.125,515.8906 Q131.8906,516.1563 131.5156,516.1563 Q131.1719,516.1563 130.9688,515.9531 Q130.7656,515.7656 130.6563,515.25 Q130.6094,514.8906 130.4219,514.7031 Q130.0938,514.3281 129.4844,514.1094 Q128.875,513.8906 128.25,513.8906 Q127.4844,513.8906 126.8516,514.2188 Q126.2188,514.5469 125.7266,515.2969 Q125.2344,516.0469 125.2344,517.0781 L125.2344,518.1719 Q125.2344,519.4063 126.125,520.2266 Q127.0156,521.0469 128.6094,521.0469 Q129.5469,521.0469 130.2031,520.7969 Q130.5938,520.6406 131.0156,520.2031 Q131.2813,519.9375 131.4297,519.8594 Q131.5781,519.7813 131.7813,519.7813 Q132.1094,519.7813 132.3672,520.0391 Q132.625,520.2969 132.625,520.6406 Q132.625,520.9844 132.2813,521.3906 Q131.7813,521.9688 130.9844,522.2969 Q129.9063,522.75 128.6094,522.75 Q127.0938,522.75 125.8906,522.125 Q124.9063,521.625 124.2188,520.5547 Q123.5313,519.4844 123.5313,518.2031 L123.5313,517.0469 Q123.5313,515.7188 124.1484,514.5703 Q124.7656,513.4219 125.8594,512.8047 Q126.9531,512.1875 128.1875,512.1875 Q128.9219,512.1875 129.5703,512.3516 Q130.2188,512.5156 130.7656,512.875 Z " fill="#000000"/><text fill="#000000" font-family="sans-serif" font-size="12" lengthAdjust="spacing" textLength="93" x="142" y="521.9102">DltTraceDecoder</text><line style="stroke:#A80036;stroke-width:1.5;" x1="114" x2="237" y1="533" y2="533"/><line style="stroke:#A80036;stroke-width:1.5;" x1="114" x2="237" y1="541" y2="541"/><!--MD5=[52a3332067f4ff29b03ab00f619de69b]
class IOutputStream--><rect codeLine="72" fill="#FEFECE" filter="url(#f4jyxj7iah62g)" height="48" id="IOutputStream" style="stroke:#A80036;stroke-width:1.5;" width="112" x="119.5" y="957.5"/><ellipse cx="134.5" cy="973.5" fill="#B4A7E5" rx="11" ry="11" style="stroke:#A80036;stroke-width:1.0;"/><path d="M135.4531,970.1406 L135.4531,976.7969 L137.1719,976.7969 Q137.7813,976.7969 138.0469,977.0313 Q138.3125,977.2656 138.3125,977.6563 Q138.3125,978.0313 138.0469,978.2656 Q137.7813,978.5 137.1719,978.5 L132.0313,978.5 Q131.4219,978.5 131.1563,978.2656 Q130.8906,978.0313 130.8906,977.6406 Q130.8906,977.2656 131.1563,977.0313 Q131.4219,976.7969 132.0313,976.7969 L133.75,976.7969 L133.75,970.1406 L132.0313,970.1406 Q131.4219,970.1406 131.1563,969.9063 Q130.8906,969.6719 130.8906,969.2813 Q130.8906,968.9063 131.1563,968.6719 Q131.4219,968.4375 132.0313,968.4375 L137.1719,968.4375 Q137.7813,968.4375 138.0469,968.6719 Q138.3125,968.9063 138.3125,969.2813 Q138.3125,969.6719 138.0469,969.9063 Q137.7813,970.1406 137.1719,970.1406 L135.4531,970.1406 Z " fill="#000000"/><text fill="#000000" font-family="sans-serif" font-size="12" font-style="italic" lengthAdjust="spacing" textLength="80" x="148.5" y="978.4102">IOutputStream</text><line style="stroke:#A80036;stroke-width:1.5;" x1="120.5" x2="230.5" y1="989.5" y2="989.5"/><line style="stroke:#A80036;stroke-width:1.5;" x1="120.5" x2="230.5" y1="997.5" y2="997.5"/><!--MD5=[02f2506cc52fb78da2199d0da69d87d3]
class IpFragment--><rect codeLine="75" fill="#FEFECE" filter="url(#f4jyxj7iah62g)" height="111.5313" id="IpFragment" style="stroke:#A80036;stroke-width:1.5;" width="318" x="765.5" y="719.5"/><ellipse cx="888.75" cy="739.5938" fill="#FF7700" rx="11" ry="11" style="stroke:#A80036;stroke-width:1.0;"/><path d="M886.8594,744.1563 Q886.6406,744.4219 886.5,744.5 Q886.3594,744.5781 886.1719,744.5781 Q885.7813,744.5781 885.5391,744.3125 Q885.2969,744.0469 885.2969,743.4531 L885.2969,742.2969 Q885.2969,741.6875 885.5391,741.4297 Q885.7813,741.1719 886.1719,741.1719 Q886.4688,741.1719 886.6719,741.3281 Q886.875,741.4844 886.9844,741.8516 Q887.0938,742.2188 887.2031,742.3594 Q887.4531,742.6094 888.0625,742.875 Q888.6719,743.1406 889.4063,743.1406 Q890.5469,743.1406 891.2656,742.6094 Q891.7344,742.2813 891.7344,741.8125 Q891.7344,741.5 891.5156,741.2188 Q891.2969,740.9375 890.7813,740.7656 Q890.4531,740.6406 889.2969,740.4219 Q887.9063,740.1563 887.1875,739.7969 Q886.4688,739.4375 886.0547,738.7734 Q885.6406,738.1094 885.6406,737.3281 Q885.6406,736.1094 886.6641,735.1953 Q887.6875,734.2813 889.3281,734.2813 Q889.9844,734.2813 890.5391,734.4219 Q891.0938,734.5625 891.5625,734.8594 Q891.8906,734.5469 892.2188,734.5469 Q892.5938,734.5469 892.8281,734.8047 Q893.0625,735.0625 893.0625,735.6719 L893.0625,736.9531 Q893.0625,737.5625 892.8281,737.8203 Q892.5938,738.0781 892.2188,738.0781 Q891.9063,738.0781 891.6719,737.8906 Q891.4844,737.75 891.3984,737.3281 Q891.3125,736.9063 891.1719,736.7188 Q890.9219,736.4063 890.4453,736.1953 Q889.9688,735.9844 889.3281,735.9844 Q888.4063,735.9844 887.875,736.4063 Q887.3438,736.8281 887.3438,737.2969 Q887.3438,737.6094 887.5625,737.9063 Q887.7813,738.2031 888.2031,738.375 Q888.4844,738.4844 889.7891,738.7422 Q891.0938,739 891.7969,739.3047 Q892.5,739.6094 892.9688,740.2656 Q893.4375,740.9219 893.4375,741.8281 Q893.4375,743.0938 892.5469,743.8438 Q891.3594,744.8438 889.5313,744.8438 Q888.8281,744.8438 888.1641,744.6719 Q887.5,744.5 886.8594,744.1563 Z " fill="#000000"/><text fill="#000000" font-family="sans-serif" font-size="12" font-style="italic" lengthAdjust="spacing" textLength="43" x="919.25" y="736.957">«struct»</text><text fill="#000000" font-family="sans-serif" font-size="12" lengthAdjust="spacing" textLength="63" x="909.25" y="752.0508">IpFragment</text><line style="stroke:#A80036;stroke-width:1.5;" x1="766.5" x2="1082.5" y1="759.6875" y2="759.6875"/><ellipse cx="776.5" cy="770.6875" rx="3" ry="3" style="stroke:#038048;stroke-width:1.0;fill:none;"/><text fill="#000000" font-family="sans-serif" font-size="11" lengthAdjust="spacing" textLength="146" x="785.5" y="775.1064">«readonly, init» FragOffset: int</text><ellipse cx="776.5" cy="784.5234" rx="3" ry="3" style="stroke:#038048;stroke-width:1.0;fill:none;"/><text fill="#000000" font-family="sans-serif" font-size="11" lengthAdjust="spacing" textLength="140" x="785.5" y="788.9424">«readonly, init» Buffer: byte[]</text><ellipse cx="776.5" cy="798.3594" rx="3" ry="3" style="stroke:#038048;stroke-width:1.0;fill:none;"/><text fill="#000000" font-family="sans-serif" font-size="11" lengthAdjust="spacing" textLength="139" x="785.5" y="802.7783">«readonly, init» Position: long</text><line style="stroke:#A80036;stroke-width:1.5;" x1="766.5" x2="1082.5" y1="809.1953" y2="809.1953"/><ellipse cx="776.5" cy="820.1953" fill="#84BE84" rx="3" ry="3" style="stroke:#038048;stroke-width:1.0;"/><text fill="#000000" font-family="sans-serif" font-size="11" lengthAdjust="spacing" textLength="292" x="785.5" y="824.6143">.ctor(offset: int, buffer: ReadOnlySpan&lt;byte&gt;, position: long)</text><!--MD5=[6682ebe6ab2f2e8379c5318e678e0a93]
class IpFragments--><rect codeLine="82" fill="#FEFECE" filter="url(#f4jyxj7iah62g)" height="158.6875" id="IpFragments" style="stroke:#A80036;stroke-width:1.5;" width="351" x="379" y="696"/><ellipse cx="515.25" cy="712" fill="#ADD1B2" rx="11" ry="11" style="stroke:#A80036;stroke-width:1.0;"/><path d="M518.0156,707.875 Q518.1719,707.6563 518.3594,707.5469 Q518.5469,707.4375 518.7656,707.4375 Q519.1406,707.4375 519.375,707.6953 Q519.6094,707.9531 519.6094,708.5625 L519.6094,710.0156 Q519.6094,710.625 519.375,710.8906 Q519.1406,711.1563 518.7656,711.1563 Q518.4219,711.1563 518.2188,710.9531 Q518.0156,710.7656 517.9063,710.25 Q517.8594,709.8906 517.6719,709.7031 Q517.3438,709.3281 516.7344,709.1094 Q516.125,708.8906 515.5,708.8906 Q514.7344,708.8906 514.1016,709.2188 Q513.4688,709.5469 512.9766,710.2969 Q512.4844,711.0469 512.4844,712.0781 L512.4844,713.1719 Q512.4844,714.4063 513.375,715.2266 Q514.2656,716.0469 515.8594,716.0469 Q516.7969,716.0469 517.4531,715.7969 Q517.8438,715.6406 518.2656,715.2031 Q518.5313,714.9375 518.6797,714.8594 Q518.8281,714.7813 519.0313,714.7813 Q519.3594,714.7813 519.6172,715.0391 Q519.875,715.2969 519.875,715.6406 Q519.875,715.9844 519.5313,716.3906 Q519.0313,716.9688 518.2344,717.2969 Q517.1563,717.75 515.8594,717.75 Q514.3438,717.75 513.1406,717.125 Q512.1563,716.625 511.4688,715.5547 Q510.7813,714.4844 510.7813,713.2031 L510.7813,712.0469 Q510.7813,710.7188 511.3984,709.5703 Q512.0156,708.4219 513.1094,707.8047 Q514.2031,707.1875 515.4375,707.1875 Q516.1719,707.1875 516.8203,707.3516 Q517.4688,707.5156 518.0156,707.875 Z " fill="#000000"/><text fill="#000000" font-family="sans-serif" font-size="12" lengthAdjust="spacing" textLength="70" x="535.75" y="716.9102">IpFragments</text><line style="stroke:#A80036;stroke-width:1.5;" x1="380" x2="729" y1="728" y2="728"/><rect fill="none" height="6" style="stroke:#C82930;stroke-width:1.0;" width="6" x="387" y="736"/><text fill="#000000" font-family="sans-serif" font-size="11" lengthAdjust="spacing" textLength="229" x="399" y="743.4189">«readonly, init» m_Fragments: List&lt;IpFragment&gt;</text><ellipse cx="390" cy="752.8359" rx="3" ry="3" style="stroke:#038048;stroke-width:1.0;fill:none;"/><text fill="#000000" font-family="sans-serif" font-size="11" lengthAdjust="spacing" textLength="123" x="399" y="757.2549">«readonly, init» FragId: int</text><ellipse cx="390" cy="766.6719" rx="3" ry="3" style="stroke:#038048;stroke-width:1.0;fill:none;"/><text fill="#000000" font-family="sans-serif" font-size="11" lengthAdjust="spacing" textLength="159" x="399" y="771.0908">«readonly» TimeStamp: DateTime</text><line style="stroke:#A80036;stroke-width:1.5;" x1="380" x2="729" y1="777.5078" y2="777.5078"/><ellipse cx="390" cy="788.5078" fill="#84BE84" rx="3" ry="3" style="stroke:#038048;stroke-width:1.0;"/><text fill="#000000" font-family="sans-serif" font-size="11" lengthAdjust="spacing" textLength="75" x="399" y="792.9268">.ctor(fragId: int)</text><ellipse cx="390" cy="802.3438" fill="#84BE84" rx="3" ry="3" style="stroke:#038048;stroke-width:1.0;"/><text fill="#000000" font-family="sans-serif" font-size="11" lengthAdjust="spacing" textLength="184" x="399" y="806.7627">AddFragment(fragOffset: int, mf: bool,</text><text fill="#000000" font-family="sans-serif" font-size="11" lengthAdjust="spacing" textLength="319" x="405" y="820.5986">buffer: ReadOnlySpan&lt;byte&gt;, timeStamp: DateTime, position: long)</text><text fill="#000000" font-family="sans-serif" font-size="11" lengthAdjust="spacing" textLength="89" x="405" y="834.4346">: IpFragmentResult</text><ellipse cx="390" cy="843.8516" fill="#84BE84" rx="3" ry="3" style="stroke:#038048;stroke-width:1.0;"/><text fill="#000000" font-family="sans-serif" font-size="11" lengthAdjust="spacing" textLength="205" x="399" y="848.2705">GetFragments(): IEnumerable&lt;IpFragment&gt;</text><!--MD5=[49f36ecb2f2050b9ea1bfafb6f37a496]
class IpFragmentResult--><rect codeLine="93" fill="#FEFECE" filter="url(#f4jyxj7iah62g)" height="131.0156" id="IpFragmentResult" style="stroke:#A80036;stroke-width:1.5;" width="139" x="485" y="916"/><ellipse cx="503.6" cy="932" fill="#EB937F" rx="11" ry="11" style="stroke:#A80036;stroke-width:1.0;"/><path d="M502.4594,932.7969 L502.4594,935.2969 L506.7875,935.2969 L506.7875,934.375 Q506.7875,933.7656 507.0297,933.5 Q507.2719,933.2344 507.6469,933.2344 Q508.0219,933.2344 508.2563,933.5 Q508.4906,933.7656 508.4906,934.375 L508.4906,937 L500.4906,937 Q499.8656,937 499.6078,936.7656 Q499.35,936.5313 499.35,936.1406 Q499.35,935.7656 499.6156,935.5313 Q499.8813,935.2969 500.4906,935.2969 L500.7563,935.2969 L500.7563,928.6406 L500.4906,928.6406 Q499.8656,928.6406 499.6078,928.4063 Q499.35,928.1719 499.35,927.7813 Q499.35,927.4063 499.6078,927.1719 Q499.8656,926.9375 500.4906,926.9375 L508.1156,926.9375 L508.1156,929.5313 Q508.1156,930.1406 507.8891,930.3984 Q507.6625,930.6563 507.2719,930.6563 Q506.8969,930.6563 506.6625,930.3984 Q506.4281,930.1406 506.4281,929.5313 L506.4281,928.6406 L502.4594,928.6406 L502.4594,931.0938 L503.9438,931.0938 Q503.9438,930.4375 504.0688,930.25 Q504.3344,929.8438 504.8031,929.8438 Q505.1781,929.8438 505.4125,930.1016 Q505.6469,930.3594 505.6469,930.9688 L505.6469,932.9375 Q505.6469,933.4844 505.5219,933.6719 Q505.2563,934.0625 504.8031,934.0625 Q504.3344,934.0625 504.0688,933.6563 Q503.9438,933.4688 503.9438,932.7969 L502.4594,932.7969 Z " fill="#000000"/><text fill="#000000" font-family="sans-serif" font-size="12" lengthAdjust="spacing" textLength="99" x="518.4" y="936.9102">IpFragmentResult</text><line style="stroke:#A80036;stroke-width:1.5;" x1="486" x2="623" y1="948" y2="948"/><text fill="#000000" font-family="sans-serif" font-size="11" lengthAdjust="spacing" textLength="51" x="491" y="963.4189">Incomplete</text><text fill="#000000" font-family="sans-serif" font-size="11" lengthAdjust="spacing" textLength="65" x="491" y="977.2549">Reassembled</text><text fill="#000000" font-family="sans-serif" font-size="11" lengthAdjust="spacing" textLength="68" x="491" y="991.0908">InvalidOverlap</text><text fill="#000000" font-family="sans-serif" font-size="11" lengthAdjust="spacing" textLength="69" x="491" y="1004.9268">InvalidTimeOut</text><text fill="#000000" font-family="sans-serif" font-size="11" lengthAdjust="spacing" textLength="61" x="491" y="1018.7627">InvalidOffset</text><text fill="#000000" font-family="sans-serif" font-size="11" lengthAdjust="spacing" textLength="127" x="491" y="1032.5986">InvalidDuplicateLastPacket</text><line style="stroke:#A80036;stroke-width:1.5;" x1="486" x2="623" y1="1039.0156" y2="1039.0156"/><!--MD5=[781837293cf7ae3c980a9c3766c98b0b]
link PacketDecoder to ConnectionKey--><path codeLine="35" d="M738.58,240 C750.13,240 761.68,240 773.23,240 " fill="none" id="PacketDecoder-ConnectionKey" style="stroke:#A80036;stroke-width:1.0;stroke-dasharray:7.0,7.0;"/><!--MD5=[285c557e10a338f914fd2afd67b51a1d]
reverse link PacketDecoder to Connection--><path codeLine="50" d="M529.5,367.2 C529.5,389 529.5,411.3 529.5,431.98 " fill="none" id="PacketDecoder-backto-Connection" style="stroke:#A80036;stroke-width:1.0;"/><polygon fill="#A80036" points="529.5,354.07,525.5,360.07,529.5,366.07,533.5,360.07,529.5,354.07" style="stroke:#A80036;stroke-width:1.0;"/><text fill="#000000" font-family="sans-serif" font-size="13" lengthAdjust="spacing" textLength="139" x="530.5" y="398.4951">«key = ConnectionKey»</text><text fill="#000000" font-family="sans-serif" font-size="13" lengthAdjust="spacing" textLength="7" x="522.2758" y="375.4007">1</text><text fill="#000000" font-family="sans-serif" font-size="13" lengthAdjust="spacing" textLength="20" x="508.6719" y="421.1091">0..*</text><!--MD5=[aea6d8f2706b52fd232a44fa1782b614]
reverse link Connection to DltPcapNetworkTraceFilterDecoder--><path codeLine="66" d="M387.78,625.48 C335.91,661.89 279.83,701.26 238.34,730.39 " fill="none" id="Connection-backto-DltPcapNetworkTraceFilterDecoder" style="stroke:#A80036;stroke-width:1.0;"/><polygon fill="#A80036" points="398.44,618,391.231,618.1736,388.6185,624.8948,395.8275,624.7212,398.44,618" style="stroke:#A80036;stroke-width:1.0;"/><text fill="#000000" font-family="sans-serif" font-size="13" lengthAdjust="spacing" textLength="127" x="353.5" y="662.4951">«key = EndPointKey»</text><text fill="#000000" font-family="sans-serif" font-size="13" lengthAdjust="spacing" textLength="7" x="380.2968" y="639.8589">1</text><text fill="#000000" font-family="sans-serif" font-size="13" lengthAdjust="spacing" textLength="20" x="226.7614" y="719.4879">0..*</text><!--MD5=[d2d05e777039145d3cbf28d4616caea2]
link Connection to EndPointKey--><path codeLine="67" d="M761.69,525 C773.21,525 784.72,525 796.24,525 " fill="none" id="Connection-EndPointKey" style="stroke:#A80036;stroke-width:1.0;stroke-dasharray:7.0,7.0;"/><!--MD5=[acfa5c5d2eaac380bad75020fd8a66ee]
reverse link DltTraceDecoder to DltPcapNetworkTraceFilterDecoder--><path codeLine="70" d="M175.5,569.58 C175.5,614.7 175.5,684.81 175.5,730.19 " fill="none" id="DltTraceDecoder-backto-DltPcapNetworkTraceFilterDecoder" style="stroke:#A80036;stroke-width:1.0;"/><polygon fill="none" points="168.5,569.38,175.5,549.38,182.5,569.38,168.5,569.38" style="stroke:#A80036;stroke-width:1.0;"/><!--MD5=[0a7f40891f7918e3a196c05ec2dd840e]
reverse link DltPcapNetworkTraceFilterDecoder to IOutputStream--><path codeLine="73" d="M175.5,833.62 C175.5,874.58 175.5,927.6 175.5,957.44 " fill="none" id="DltPcapNetworkTraceFilterDecoder-backto-IOutputStream" style="stroke:#A80036;stroke-width:1.0;"/><polygon fill="#FFFFFF" points="175.5,820.51,171.5,826.51,175.5,832.51,179.5,826.51,175.5,820.51" style="stroke:#A80036;stroke-width:1.0;"/><!--MD5=[22ce59c2815e528bc73b27854de1bbfe]
reverse link IpFragments to IpFragment--><path codeLine="90" d="M743.35,775.5 C750.7,775.5 758.06,775.5 765.42,775.5 " fill="none" id="IpFragments-backto-IpFragment" style="stroke:#A80036;stroke-width:1.0;"/><polygon fill="#A80036" points="730.11,775.5,736.11,779.5,742.11,775.5,736.11,771.5,730.11,775.5" style="stroke:#A80036;stroke-width:1.0;"/><text fill="#000000" font-family="sans-serif" font-size="13" lengthAdjust="spacing" textLength="7" x="738.2259" y="772.6477">1</text><text fill="#000000" font-family="sans-serif" font-size="13" lengthAdjust="spacing" textLength="20" x="738.0605" y="772.6387">0..*</text><!--MD5=[373ce2bd15000485dc9c7cbccebcf596]
reverse link Connection to IpFragments--><path codeLine="91" d="M540.08,631.2 C542.27,652.89 544.53,675.38 546.6,695.93 " fill="none" id="Connection-backto-IpFragments" style="stroke:#A80036;stroke-width:1.0;"/><polygon fill="#A80036" points="538.77,618.18,535.3904,624.5501,539.9706,630.1198,543.3502,623.7497,538.77,618.18" style="stroke:#A80036;stroke-width:1.0;"/><text fill="#000000" font-family="sans-serif" font-size="13" lengthAdjust="spacing" textLength="65" x="543.5" y="662.4951">«key = int»</text><text fill="#000000" font-family="sans-serif" font-size="13" lengthAdjust="spacing" textLength="7" x="532.2298" y="639.7376">1</text><text fill="#000000" font-family="sans-serif" font-size="13" lengthAdjust="spacing" textLength="20" x="524.8939" y="685.1102">0..*</text><!--MD5=[4820f609c03f13bfc72c156ebca9aaf9]
link IpFragments to IpFragmentResult--><path codeLine="101" d="M554.5,855.08 C554.5,875.17 554.5,896.54 554.5,915.85 " fill="none" id="IpFragments-IpFragmentResult" style="stroke:#A80036;stroke-width:1.0;"/><!--MD5=[7edcd03e643f5579c8f84fdc92de2a9e]
@startuml DltPcapPacketDecoder

class PacketDecoder {
    -<<readonly, init>> m_Connections: Dictionary<ConnectionKey, Connection>
    -<<readonly, init>> m_LinkType: int
    -<<readonly, init>> m_OutputStream: IOutputStream
    +.ctor(linkType: int)
    +.ctor(linkType: int, outputStream: IOutputStream)
    +DecodePacket(buffer: ReadOnlySpan<byte>, timeStamp: DateTime, position: long)\n  : IEnumerable<DltTraceLineBase>
    -DecodeDltPacket(srcAddr: int, dstAddr: int,\n  udpBuffer: ReadOnlySpan<byte>, timeStamp: DateTime, position: long)\n  : IEnumerable<DltTraceLineBase>
    -DecodeDltFragments(srcAddr: int, dstAddr: int,\n  udpFragments: IEnumerable<IpFragment>, timeStamp: DateTime, position: long)\n  : IEnumerable<DltTraceLineBase>
}

note left {
    <<readonly>> indicates that there is
     no public setter for the property.
    <<init>> indicates that the object is
     only assigned in the constructor.
}

class ConnectionKey<IEquatable<ConnectionKey>> <<(S,#FF7700) struct>> {
    +<<readonly, init>> SourceAddress: int
    +<<readonly, init>> DestinationAddress: int
    +.ctor(srcAddr: int, dstAddr: int)
    +GetHashCode(): int
    +Equals(obj: object): bool
    +Equals(other: ConnectionKey): bool
}

note top {
    The <<struct>> and IEquatable<T>
    allow for a very fast Dictionary
    lookup.
}

PacketDecoder .r. ConnectionKey

class Connection {
    -<<readonly, init>> m_Decoders: Dictionary<EndPointKey, DltPcapNetworkTraceFilterDecoder>
    -<<readonly, init>> m_Fragments: Dictionary<int, IpFragments>
    +<<readonly, init>> SourceAddress: int
    +<<readonly, init>> DestinationAddress: int
    +<<readonly, init>> OutputStream: IOutputStream
    +.ctor(srcAddr: int, dstAddr: int)
    +.ctor(srcAddr: int, dstAddr: int, outputStream: IOutputStream)
    +GetDltDecoder(srcPort: short, dstPort: short): DltPcapNetworkTraceFilterDecoder
    +GetIpFragments(fragId: int): IpFragments
    +DiscardFragments(fragId: int)
}

PacketDecoder "1" *-d- "0..*" Connection : <<key = ConnectionKey>>

class EndPointKey<IEquatable<EndPointKey>> <<(S,#FF7700) struct>> {
    +<<readonly, init>> SourcePort: short
    +<<readonly, init>> DestinationPort: short
    +.ctor(srcPort: short, dstPort: short)
    +GetHashCode(): int
    +Equals(obj: object): bool
    +Equals(other: EndPointKey): bool
}

class DltPcapNetworkTraceFilterDecoder {
    +PacketTimeStamp: DateTime
    +Decode(buffer: ReadOnlySpan<byte>, position: long, flush: bool)\n  : IEnumerable<DltTraceLineBase>
}

Connection "1" *-d- "0..*" DltPcapNetworkTraceFilterDecoder : <<key = EndPointKey>>
Connection .r. EndPointKey

class DltTraceDecoder
DltPcapNetworkTraceFilterDecoder -u-|> DltTraceDecoder

interface IOutputStream
DltPcapNetworkTraceFilterDecoder o-d- IOutputStream

class IpFragment <<(S,#FF7700) struct>> {
    +<<readonly, init>> FragOffset: int
    +<<readonly, init>> Buffer: byte[]
    +<<readonly, init>> Position: long
    +.ctor(offset: int, buffer: ReadOnlySpan<byte>, position: long)
}

class IpFragments {
    -<<readonly, init>> m_Fragments: List<IpFragment>
    +<<readonly, init>> FragId: int
    +<<readonly>> TimeStamp: DateTime
    +.ctor(fragId: int)
    +AddFragment(fragOffset: int, mf: bool,\n  buffer: ReadOnlySpan<byte>, timeStamp: DateTime, position: long)\n  : IpFragmentResult
    +GetFragments(): IEnumerable<IpFragment>
}
IpFragments "1" *-r- "0..*" IpFragment
Connection "1" *-d- "0..*" IpFragments : <<key = int>>

enum IpFragmentResult {
    Incomplete
    Reassembled
    InvalidOverlap
    InvalidTimeOut
    InvalidOffset
    InvalidDuplicateLastPacket
}
IpFragments -d- IpFragmentResult

@enduml

PlantUML version 1.2022.0(Tue Jan 11 17:16:42 CET 2022)
(GPL source distribution)
Java Runtime: Java(TM) SE Runtime Environment
JVM: Java HotSpot(TM) 64-Bit Server VM
Default Encoding: Cp1252
Language: en
Country: US
--></g></svg>