<?xml version="1.0" encoding="UTF-8" standalone="no"?><svg xmlns="http://www.w3.org/2000/svg" xmlns:xlink="http://www.w3.org/1999/xlink" contentScriptType="application/ecmascript" contentStyleType="text/css" height="1088px" preserveAspectRatio="none" style="width:1097px;height:1088px;background:#FFFFFF;" version="1.1" viewBox="0 0 1097 1088" width="1097px" zoomAndPan="magnify"><defs><filter height="300%" id="fpvj98yqsowsb" width="300%" x="-1" y="-1"><feGaussianBlur result="blurOut" stdDeviation="2.0"/><feColorMatrix in="blurOut" result="blurOut2" type="matrix" values="0 0 0 0 0 0 0 0 0 0 0 0 0 0 0 0 0 0 .4 0"/><feOffset dx="4.0" dy="4.0" in="blurOut2" result="blurOut3"/><feBlend in="SourceGraphic" in2="blurOut3" mode="normal"/></filter></defs><g><!--MD5=[7b682d4fb164593493a4c0dbc33aac53]
class PacketDecoder--><rect codeLine="2" fill="#FEFECE" filter="url(#fpvj98yqsowsb)" height="269.375" id="PacketDecoder" style="stroke:#A80036;stroke-width:1.5;" width="440" x="309.5" y="126"/><ellipse cx="483.25" cy="142" fill="#ADD1B2" rx="11" ry="11" style="stroke:#A80036;stroke-width:1.0;"/><path d="M486.0156,137.875 Q486.1719,137.6563 486.3594,137.5469 Q486.5469,137.4375 486.7656,137.4375 Q487.1406,137.4375 487.375,137.6953 Q487.6094,137.9531 487.6094,138.5625 L487.6094,140.0156 Q487.6094,140.625 487.375,140.8906 Q487.1406,141.1563 486.7656,141.1563 Q486.4219,141.1563 486.2188,140.9531 Q486.0156,140.7656 485.9063,140.25 Q485.8594,139.8906 485.6719,139.7031 Q485.3438,139.3281 484.7344,139.1094 Q484.125,138.8906 483.5,138.8906 Q482.7344,138.8906 482.1016,139.2188 Q481.4688,139.5469 480.9766,140.2969 Q480.4844,141.0469 480.4844,142.0781 L480.4844,143.1719 Q480.4844,144.4063 481.375,145.2266 Q482.2656,146.0469 483.8594,146.0469 Q484.7969,146.0469 485.4531,145.7969 Q485.8438,145.6406 486.2656,145.2031 Q486.5313,144.9375 486.6797,144.8594 Q486.8281,144.7813 487.0313,144.7813 Q487.3594,144.7813 487.6172,145.0391 Q487.875,145.2969 487.875,145.6406 Q487.875,145.9844 487.5313,146.3906 Q487.0313,146.9688 486.2344,147.2969 Q485.1563,147.75 483.8594,147.75 Q482.3438,147.75 481.1406,147.125 Q480.1563,146.625 479.4688,145.5547 Q478.7813,144.4844 478.7813,143.2031 L478.7813,142.0469 Q478.7813,140.7188 479.3984,139.5703 Q480.0156,138.4219 481.1094,137.8047 Q482.2031,137.1875 483.4375,137.1875 Q484.1719,137.1875 484.8203,137.3516 Q485.4688,137.5156 486.0156,137.875 Z " fill="#000000"/><text fill="#000000" font-family="sans-serif" font-size="12" lengthAdjust="spacing" textLength="84" x="503.75" y="146.9102">PacketDecoder</text><line style="stroke:#A80036;stroke-width:1.5;" x1="310.5" x2="748.5" y1="158" y2="158"/><rect fill="none" height="6" style="stroke:#C82930;stroke-width:1.0;" width="6" x="317.5" y="166"/><text fill="#000000" font-family="sans-serif" font-size="11" lengthAdjust="spacing" textLength="349" x="329.5" y="173.4189">«readonly, init» m_Connections: Dictionary&lt;ConnectionKey, Connection&gt;</text><rect fill="none" height="6" style="stroke:#C82930;stroke-width:1.0;" width="6" x="317.5" y="179.8359"/><text fill="#000000" font-family="sans-serif" font-size="11" lengthAdjust="spacing" textLength="150" x="329.5" y="187.2549">«readonly, init» m_LinkType: int</text><rect fill="none" height="6" style="stroke:#C82930;stroke-width:1.0;" width="6" x="317.5" y="193.6719"/><text fill="#000000" font-family="sans-serif" font-size="11" lengthAdjust="spacing" textLength="230" x="329.5" y="201.0908">«readonly, init» m_OutputStream: IOutputStream</text><line style="stroke:#A80036;stroke-width:1.5;" x1="310.5" x2="748.5" y1="207.5078" y2="207.5078"/><ellipse cx="320.5" cy="218.5078" fill="#84BE84" rx="3" ry="3" style="stroke:#038048;stroke-width:1.0;"/><text fill="#000000" font-family="sans-serif" font-size="11" lengthAdjust="spacing" textLength="86" x="329.5" y="222.9268">.ctor(linkType: int)</text><ellipse cx="320.5" cy="232.3438" fill="#84BE84" rx="3" ry="3" style="stroke:#038048;stroke-width:1.0;"/><text fill="#000000" font-family="sans-serif" font-size="11" lengthAdjust="spacing" textLength="230" x="329.5" y="236.7627">.ctor(linkType: int, outputStream: IOutputStream)</text><ellipse cx="320.5" cy="246.1797" fill="#84BE84" rx="3" ry="3" style="stroke:#038048;stroke-width:1.0;"/><text fill="#000000" font-family="sans-serif" font-size="11" lengthAdjust="spacing" textLength="392" x="329.5" y="250.5986">DecodePacket(buffer: ReadOnlySpan&lt;byte&gt;, timeStamp: DateTime, position: long)</text><text fill="#000000" font-family="sans-serif" font-size="11" lengthAdjust="spacing" textLength="161" x="335.5" y="264.4346">: IEnumerable&lt;DltTraceLineBase&gt;</text><rect fill="#F24D5C" height="6" style="stroke:#C82930;stroke-width:1.0;" width="6" x="317.5" y="270.8516"/><text fill="#000000" font-family="sans-serif" font-size="11" lengthAdjust="spacing" textLength="350" x="329.5" y="278.2705">DecodeDltPacket(srcAddr: int, srcPort: short, dstAddr: int, dstPort: short,</text><text fill="#000000" font-family="sans-serif" font-size="11" lengthAdjust="spacing" textLength="319" x="335.5" y="292.1064">buffer: ReadOnlySpan&lt;byte&gt;, timeStamp: DateTime, position: long)</text><text fill="#000000" font-family="sans-serif" font-size="11" lengthAdjust="spacing" textLength="161" x="335.5" y="305.9424">: IEnumerable&lt;DltTraceLineBase&gt;</text><rect fill="#F24D5C" height="6" style="stroke:#C82930;stroke-width:1.0;" width="6" x="317.5" y="312.3594"/><text fill="#000000" font-family="sans-serif" font-size="11" lengthAdjust="spacing" textLength="414" x="329.5" y="319.7783">DecodeDltFragment(srcAddr: int, srcPort: short, dstAddr: int, dstPort: short, fragId: int,</text><text fill="#000000" font-family="sans-serif" font-size="11" lengthAdjust="spacing" textLength="319" x="335.5" y="333.6143">buffer: ReadOnlySpan&lt;byte&gt;, timeStamp: DateTime, position: long)</text><text fill="#000000" font-family="sans-serif" font-size="11" lengthAdjust="spacing" textLength="161" x="335.5" y="347.4502">: IEnumerable&lt;DltTraceLineBase&gt;</text><rect fill="#F24D5C" height="6" style="stroke:#C82930;stroke-width:1.0;" width="6" x="317.5" y="353.8672"/><text fill="#000000" font-family="sans-serif" font-size="11" lengthAdjust="spacing" textLength="389" x="329.5" y="361.2861">DecodeDltFragment(srcAddr: int, dstAddr: int, fragId: int, fragOffset: int, mf: bool,</text><text fill="#000000" font-family="sans-serif" font-size="11" lengthAdjust="spacing" textLength="214" x="335.5" y="375.1221">buffer: ReadOnlySpan&lt;byte&gt;, position: long)</text><text fill="#000000" font-family="sans-serif" font-size="11" lengthAdjust="spacing" textLength="161" x="335.5" y="388.958">: IEnumerable&lt;DltTraceLineBase&gt;</text><path d="M60.5,223 L60.5,298.4063 A0,0 0 0 0 60.5,298.4063 L274.5,298.4063 A0,0 0 0 0 274.5,298.4063 L274.5,264.5 L309.46,260.5 L274.5,256.5 L274.5,233 L264.5,223 L60.5,223 A0,0 0 0 0 60.5,223 " fill="#FBFB77" filter="url(#fpvj98yqsowsb)" style="stroke:#A80036;stroke-width:1.0;"/><path d="M264.5,223 L264.5,233 L274.5,233 L264.5,223 " fill="#FBFB77" style="stroke:#A80036;stroke-width:1.0;"/><text fill="#000000" font-family="sans-serif" font-size="13" lengthAdjust="spacing" textLength="192" x="66.5" y="241.4951">«readonly» indicates that there is</text><text fill="#000000" font-family="sans-serif" font-size="13" lengthAdjust="spacing" textLength="184" x="70.5" y="257.8467">no public setter for the property.</text><text fill="#000000" font-family="sans-serif" font-size="13" lengthAdjust="spacing" textLength="188" x="66.5" y="274.1982">«init» indicates that the object is</text><text fill="#000000" font-family="sans-serif" font-size="13" lengthAdjust="spacing" textLength="189" x="70.5" y="290.5498">only assigned in the constructor.</text><!--MD5=[aa21a5e78f70a6682dc216d8fe0b2ad9]
class ConnectionKey--><rect codeLine="21" fill="#FEFECE" filter="url(#fpvj98yqsowsb)" height="139.2031" id="ConnectionKey" style="stroke:#A80036;stroke-width:1.5;" width="278" x="784.5" y="191"/><ellipse cx="799.5" cy="211.0938" fill="#FF7700" rx="11" ry="11" style="stroke:#A80036;stroke-width:1.0;"/><path d="M797.6094,215.6563 Q797.3906,215.9219 797.25,216 Q797.1094,216.0781 796.9219,216.0781 Q796.5313,216.0781 796.2891,215.8125 Q796.0469,215.5469 796.0469,214.9531 L796.0469,213.7969 Q796.0469,213.1875 796.2891,212.9297 Q796.5313,212.6719 796.9219,212.6719 Q797.2188,212.6719 797.4219,212.8281 Q797.625,212.9844 797.7344,213.3516 Q797.8438,213.7188 797.9531,213.8594 Q798.2031,214.1094 798.8125,214.375 Q799.4219,214.6406 800.1563,214.6406 Q801.2969,214.6406 802.0156,214.1094 Q802.4844,213.7813 802.4844,213.3125 Q802.4844,213 802.2656,212.7188 Q802.0469,212.4375 801.5313,212.2656 Q801.2031,212.1406 800.0469,211.9219 Q798.6563,211.6563 797.9375,211.2969 Q797.2188,210.9375 796.8047,210.2734 Q796.3906,209.6094 796.3906,208.8281 Q796.3906,207.6094 797.4141,206.6953 Q798.4375,205.7813 800.0781,205.7813 Q800.7344,205.7813 801.2891,205.9219 Q801.8438,206.0625 802.3125,206.3594 Q802.6406,206.0469 802.9688,206.0469 Q803.3438,206.0469 803.5781,206.3047 Q803.8125,206.5625 803.8125,207.1719 L803.8125,208.4531 Q803.8125,209.0625 803.5781,209.3203 Q803.3438,209.5781 802.9688,209.5781 Q802.6563,209.5781 802.4219,209.3906 Q802.2344,209.25 802.1484,208.8281 Q802.0625,208.4063 801.9219,208.2188 Q801.6719,207.9063 801.1953,207.6953 Q800.7188,207.4844 800.0781,207.4844 Q799.1563,207.4844 798.625,207.9063 Q798.0938,208.3281 798.0938,208.7969 Q798.0938,209.1094 798.3125,209.4063 Q798.5313,209.7031 798.9531,209.875 Q799.2344,209.9844 800.5391,210.2422 Q801.8438,210.5 802.5469,210.8047 Q803.25,211.1094 803.7188,211.7656 Q804.1875,212.4219 804.1875,213.3281 Q804.1875,214.5938 803.2969,215.3438 Q802.1094,216.3438 800.2813,216.3438 Q799.5781,216.3438 798.9141,216.1719 Q798.25,216 797.6094,215.6563 Z " fill="#000000"/><text fill="#000000" font-family="sans-serif" font-size="12" font-style="italic" lengthAdjust="spacing" textLength="43" x="833.5" y="208.457">«struct»</text><text fill="#000000" font-family="sans-serif" font-size="12" lengthAdjust="spacing" textLength="83" x="813.5" y="223.5508">ConnectionKey</text><rect fill="#FFFFFF" height="17.0938" style="stroke:#000000;stroke-width:1.0;stroke-dasharray:2.0,2.0;" width="161" x="904.5" y="188"/><text fill="#000000" font-family="sans-serif" font-size="12" font-style="italic" lengthAdjust="spacing" textLength="159" x="905.5" y="201.457">IEquatable&lt;ConnectionKey&gt;</text><line style="stroke:#A80036;stroke-width:1.5;" x1="785.5" x2="1061.5" y1="231.1875" y2="231.1875"/><ellipse cx="795.5" cy="242.1875" rx="3" ry="3" style="stroke:#038048;stroke-width:1.0;fill:none;"/><text fill="#000000" font-family="sans-serif" font-size="11" lengthAdjust="spacing" textLength="170" x="804.5" y="246.6064">«readonly, init» SourceAddress: int</text><ellipse cx="795.5" cy="256.0234" rx="3" ry="3" style="stroke:#038048;stroke-width:1.0;fill:none;"/><text fill="#000000" font-family="sans-serif" font-size="11" lengthAdjust="spacing" textLength="188" x="804.5" y="260.4424">«readonly, init» DestinationAddress: int</text><line style="stroke:#A80036;stroke-width:1.5;" x1="785.5" x2="1061.5" y1="266.8594" y2="266.8594"/><ellipse cx="795.5" cy="277.8594" fill="#84BE84" rx="3" ry="3" style="stroke:#038048;stroke-width:1.0;"/><text fill="#000000" font-family="sans-serif" font-size="11" lengthAdjust="spacing" textLength="149" x="804.5" y="282.2783">.ctor(srcAddr: int, dstAddr: int)</text><ellipse cx="795.5" cy="291.6953" fill="#84BE84" rx="3" ry="3" style="stroke:#038048;stroke-width:1.0;"/><text fill="#000000" font-family="sans-serif" font-size="11" lengthAdjust="spacing" textLength="92" x="804.5" y="296.1143">GetHashCode(): int</text><ellipse cx="795.5" cy="305.5313" fill="#84BE84" rx="3" ry="3" style="stroke:#038048;stroke-width:1.0;"/><text fill="#000000" font-family="sans-serif" font-size="11" lengthAdjust="spacing" textLength="115" x="804.5" y="309.9502">Equals(obj: object): bool</text><ellipse cx="795.5" cy="319.3672" fill="#84BE84" rx="3" ry="3" style="stroke:#038048;stroke-width:1.0;"/><text fill="#000000" font-family="sans-serif" font-size="11" lengthAdjust="spacing" textLength="170" x="804.5" y="323.7861">Equals(other: ConnectionKey): bool</text><path d="M820.5,6 L820.5,65.0547 A0,0 0 0 0 820.5,65.0547 L919.5,65.0547 L923.5,190.65 L927.5,65.0547 L1026.5,65.0547 A0,0 0 0 0 1026.5,65.0547 L1026.5,16 L1016.5,6 L820.5,6 A0,0 0 0 0 820.5,6 " fill="#FBFB77" filter="url(#fpvj98yqsowsb)" style="stroke:#A80036;stroke-width:1.0;"/><path d="M1016.5,6 L1016.5,16 L1026.5,16 L1016.5,6 " fill="#FBFB77" style="stroke:#A80036;stroke-width:1.0;"/><text fill="#000000" font-family="sans-serif" font-size="13" lengthAdjust="spacing" textLength="185" x="826.5" y="24.4951">The «struct» and IEquatable&lt;T&gt;</text><text fill="#000000" font-family="sans-serif" font-size="13" lengthAdjust="spacing" textLength="172" x="826.5" y="40.8467">allow for a very fast Dictionary</text><text fill="#000000" font-family="sans-serif" font-size="13" lengthAdjust="spacing" textLength="42" x="826.5" y="57.1982">lookup.</text><!--MD5=[ad510ca42d1a057b37ac2813b8ee5b40]
class Connection--><rect codeLine="38" fill="#FEFECE" filter="url(#fpvj98yqsowsb)" height="186.3594" id="Connection" style="stroke:#A80036;stroke-width:1.5;" width="464" x="297.5" y="473"/><ellipse cx="493.75" cy="489" fill="#ADD1B2" rx="11" ry="11" style="stroke:#A80036;stroke-width:1.0;"/><path d="M496.5156,484.875 Q496.6719,484.6563 496.8594,484.5469 Q497.0469,484.4375 497.2656,484.4375 Q497.6406,484.4375 497.875,484.6953 Q498.1094,484.9531 498.1094,485.5625 L498.1094,487.0156 Q498.1094,487.625 497.875,487.8906 Q497.6406,488.1563 497.2656,488.1563 Q496.9219,488.1563 496.7188,487.9531 Q496.5156,487.7656 496.4063,487.25 Q496.3594,486.8906 496.1719,486.7031 Q495.8438,486.3281 495.2344,486.1094 Q494.625,485.8906 494,485.8906 Q493.2344,485.8906 492.6016,486.2188 Q491.9688,486.5469 491.4766,487.2969 Q490.9844,488.0469 490.9844,489.0781 L490.9844,490.1719 Q490.9844,491.4063 491.875,492.2266 Q492.7656,493.0469 494.3594,493.0469 Q495.2969,493.0469 495.9531,492.7969 Q496.3438,492.6406 496.7656,492.2031 Q497.0313,491.9375 497.1797,491.8594 Q497.3281,491.7813 497.5313,491.7813 Q497.8594,491.7813 498.1172,492.0391 Q498.375,492.2969 498.375,492.6406 Q498.375,492.9844 498.0313,493.3906 Q497.5313,493.9688 496.7344,494.2969 Q495.6563,494.75 494.3594,494.75 Q492.8438,494.75 491.6406,494.125 Q490.6563,493.625 489.9688,492.5547 Q489.2813,491.4844 489.2813,490.2031 L489.2813,489.0469 Q489.2813,487.7188 489.8984,486.5703 Q490.5156,485.4219 491.6094,484.8047 Q492.7031,484.1875 493.9375,484.1875 Q494.6719,484.1875 495.3203,484.3516 Q495.9688,484.5156 496.5156,484.875 Z " fill="#000000"/><text fill="#000000" font-family="sans-serif" font-size="12" lengthAdjust="spacing" textLength="63" x="514.25" y="493.9102">Connection</text><line style="stroke:#A80036;stroke-width:1.5;" x1="298.5" x2="760.5" y1="505" y2="505"/><rect fill="none" height="6" style="stroke:#C82930;stroke-width:1.0;" width="6" x="305.5" y="513"/><text fill="#000000" font-family="sans-serif" font-size="11" lengthAdjust="spacing" textLength="438" x="317.5" y="520.4189">«readonly, init» m_Decoders: Dictionary&lt;EndPointKey, DltPcapNetworkTraceFilterDecoder&gt;</text><rect fill="none" height="6" style="stroke:#C82930;stroke-width:1.0;" width="6" x="305.5" y="526.8359"/><text fill="#000000" font-family="sans-serif" font-size="11" lengthAdjust="spacing" textLength="283" x="317.5" y="534.2549">«readonly, init» m_Fragments: Dictionary&lt;int, IpFragments&gt;</text><ellipse cx="308.5" cy="543.6719" rx="3" ry="3" style="stroke:#038048;stroke-width:1.0;fill:none;"/><text fill="#000000" font-family="sans-serif" font-size="11" lengthAdjust="spacing" textLength="170" x="317.5" y="548.0908">«readonly, init» SourceAddress: int</text><ellipse cx="308.5" cy="557.5078" rx="3" ry="3" style="stroke:#038048;stroke-width:1.0;fill:none;"/><text fill="#000000" font-family="sans-serif" font-size="11" lengthAdjust="spacing" textLength="188" x="317.5" y="561.9268">«readonly, init» DestinationAddress: int</text><ellipse cx="308.5" cy="571.3438" rx="3" ry="3" style="stroke:#038048;stroke-width:1.0;fill:none;"/><text fill="#000000" font-family="sans-serif" font-size="11" lengthAdjust="spacing" textLength="216" x="317.5" y="575.7627">«readonly, init» OutputStream: IOutputStream</text><line style="stroke:#A80036;stroke-width:1.5;" x1="298.5" x2="760.5" y1="582.1797" y2="582.1797"/><ellipse cx="308.5" cy="593.1797" fill="#84BE84" rx="3" ry="3" style="stroke:#038048;stroke-width:1.0;"/><text fill="#000000" font-family="sans-serif" font-size="11" lengthAdjust="spacing" textLength="149" x="317.5" y="597.5986">.ctor(srcAddr: int, dstAddr: int)</text><ellipse cx="308.5" cy="607.0156" fill="#84BE84" rx="3" ry="3" style="stroke:#038048;stroke-width:1.0;"/><text fill="#000000" font-family="sans-serif" font-size="11" lengthAdjust="spacing" textLength="293" x="317.5" y="611.4346">.ctor(srcAddr: int, dstAddr: int, outputStream: IOutputStream)</text><ellipse cx="308.5" cy="620.8516" fill="#84BE84" rx="3" ry="3" style="stroke:#038048;stroke-width:1.0;"/><text fill="#000000" font-family="sans-serif" font-size="11" lengthAdjust="spacing" textLength="390" x="317.5" y="625.2705">GetDltDecoder(srcPort: short, dstPort: short): DltPcapNetworkTraceFilterDecoder</text><ellipse cx="308.5" cy="634.6875" fill="#84BE84" rx="3" ry="3" style="stroke:#038048;stroke-width:1.0;"/><text fill="#000000" font-family="sans-serif" font-size="11" lengthAdjust="spacing" textLength="194" x="317.5" y="639.1064">GetIpFragments(fragId: int): IpFragments</text><ellipse cx="308.5" cy="648.5234" fill="#84BE84" rx="3" ry="3" style="stroke:#038048;stroke-width:1.0;"/><text fill="#000000" font-family="sans-serif" font-size="11" lengthAdjust="spacing" textLength="141" x="317.5" y="652.9424">DiscardFragments(fragId: int)</text><!--MD5=[095896f45ff99fabc4aa025a3025b284]
class EndPointKey--><rect codeLine="53" fill="#FEFECE" filter="url(#fpvj98yqsowsb)" height="139.2031" id="EndPointKey" style="stroke:#A80036;stroke-width:1.5;" width="252" x="796.5" y="496.5"/><ellipse cx="811.5" cy="516.5938" fill="#FF7700" rx="11" ry="11" style="stroke:#A80036;stroke-width:1.0;"/><path d="M809.6094,521.1563 Q809.3906,521.4219 809.25,521.5 Q809.1094,521.5781 808.9219,521.5781 Q808.5313,521.5781 808.2891,521.3125 Q808.0469,521.0469 808.0469,520.4531 L808.0469,519.2969 Q808.0469,518.6875 808.2891,518.4297 Q808.5313,518.1719 808.9219,518.1719 Q809.2188,518.1719 809.4219,518.3281 Q809.625,518.4844 809.7344,518.8516 Q809.8438,519.2188 809.9531,519.3594 Q810.2031,519.6094 810.8125,519.875 Q811.4219,520.1406 812.1563,520.1406 Q813.2969,520.1406 814.0156,519.6094 Q814.4844,519.2813 814.4844,518.8125 Q814.4844,518.5 814.2656,518.2188 Q814.0469,517.9375 813.5313,517.7656 Q813.2031,517.6406 812.0469,517.4219 Q810.6563,517.1563 809.9375,516.7969 Q809.2188,516.4375 808.8047,515.7734 Q808.3906,515.1094 808.3906,514.3281 Q808.3906,513.1094 809.4141,512.1953 Q810.4375,511.2813 812.0781,511.2813 Q812.7344,511.2813 813.2891,511.4219 Q813.8438,511.5625 814.3125,511.8594 Q814.6406,511.5469 814.9688,511.5469 Q815.3438,511.5469 815.5781,511.8047 Q815.8125,512.0625 815.8125,512.6719 L815.8125,513.9531 Q815.8125,514.5625 815.5781,514.8203 Q815.3438,515.0781 814.9688,515.0781 Q814.6563,515.0781 814.4219,514.8906 Q814.2344,514.75 814.1484,514.3281 Q814.0625,513.9063 813.9219,513.7188 Q813.6719,513.4063 813.1953,513.1953 Q812.7188,512.9844 812.0781,512.9844 Q811.1563,512.9844 810.625,513.4063 Q810.0938,513.8281 810.0938,514.2969 Q810.0938,514.6094 810.3125,514.9063 Q810.5313,515.2031 810.9531,515.375 Q811.2344,515.4844 812.5391,515.7422 Q813.8438,516 814.5469,516.3047 Q815.25,516.6094 815.7188,517.2656 Q816.1875,517.9219 816.1875,518.8281 Q816.1875,520.0938 815.2969,520.8438 Q814.1094,521.8438 812.2813,521.8438 Q811.5781,521.8438 810.9141,521.6719 Q810.25,521.5 809.6094,521.1563 Z " fill="#000000"/><text fill="#000000" font-family="sans-serif" font-size="12" font-style="italic" lengthAdjust="spacing" textLength="43" x="839" y="513.957">«struct»</text><text fill="#000000" font-family="sans-serif" font-size="12" lengthAdjust="spacing" textLength="70" x="825.5" y="529.0508">EndPointKey</text><rect fill="#FFFFFF" height="17.0938" style="stroke:#000000;stroke-width:1.0;stroke-dasharray:2.0,2.0;" width="148" x="903.5" y="493.5"/><text fill="#000000" font-family="sans-serif" font-size="12" font-style="italic" lengthAdjust="spacing" textLength="146" x="904.5" y="506.957">IEquatable&lt;EndPointKey&gt;</text><line style="stroke:#A80036;stroke-width:1.5;" x1="797.5" x2="1047.5" y1="536.6875" y2="536.6875"/><ellipse cx="807.5" cy="547.6875" rx="3" ry="3" style="stroke:#038048;stroke-width:1.0;fill:none;"/><text fill="#000000" font-family="sans-serif" font-size="11" lengthAdjust="spacing" textLength="161" x="816.5" y="552.1064">«readonly, init» SourcePort: short</text><ellipse cx="807.5" cy="561.5234" rx="3" ry="3" style="stroke:#038048;stroke-width:1.0;fill:none;"/><text fill="#000000" font-family="sans-serif" font-size="11" lengthAdjust="spacing" textLength="179" x="816.5" y="565.9424">«readonly, init» DestinationPort: short</text><line style="stroke:#A80036;stroke-width:1.5;" x1="797.5" x2="1047.5" y1="572.3594" y2="572.3594"/><ellipse cx="807.5" cy="583.3594" fill="#84BE84" rx="3" ry="3" style="stroke:#038048;stroke-width:1.0;"/><text fill="#000000" font-family="sans-serif" font-size="11" lengthAdjust="spacing" textLength="167" x="816.5" y="587.7783">.ctor(srcPort: short, dstPort: short)</text><ellipse cx="807.5" cy="597.1953" fill="#84BE84" rx="3" ry="3" style="stroke:#038048;stroke-width:1.0;"/><text fill="#000000" font-family="sans-serif" font-size="11" lengthAdjust="spacing" textLength="92" x="816.5" y="601.6143">GetHashCode(): int</text><ellipse cx="807.5" cy="611.0313" fill="#84BE84" rx="3" ry="3" style="stroke:#038048;stroke-width:1.0;"/><text fill="#000000" font-family="sans-serif" font-size="11" lengthAdjust="spacing" textLength="115" x="816.5" y="615.4502">Equals(obj: object): bool</text><ellipse cx="807.5" cy="624.8672" fill="#84BE84" rx="3" ry="3" style="stroke:#038048;stroke-width:1.0;"/><text fill="#000000" font-family="sans-serif" font-size="11" lengthAdjust="spacing" textLength="157" x="816.5" y="629.2861">Equals(other: EndPointKey): bool</text><!--MD5=[e6dc855584b63987c6ebb47217afddd6]
class DltPcapNetworkTraceFilterDecoder--><rect codeLine="62" fill="#FEFECE" filter="url(#fpvj98yqsowsb)" height="89.5078" id="DltPcapNetworkTraceFilterDecoder" style="stroke:#A80036;stroke-width:1.5;" width="337" x="7" y="806"/><ellipse cx="74.75" cy="822" fill="#ADD1B2" rx="11" ry="11" style="stroke:#A80036;stroke-width:1.0;"/><path d="M77.5156,817.875 Q77.6719,817.6563 77.8594,817.5469 Q78.0469,817.4375 78.2656,817.4375 Q78.6406,817.4375 78.875,817.6953 Q79.1094,817.9531 79.1094,818.5625 L79.1094,820.0156 Q79.1094,820.625 78.875,820.8906 Q78.6406,821.1563 78.2656,821.1563 Q77.9219,821.1563 77.7188,820.9531 Q77.5156,820.7656 77.4063,820.25 Q77.3594,819.8906 77.1719,819.7031 Q76.8438,819.3281 76.2344,819.1094 Q75.625,818.8906 75,818.8906 Q74.2344,818.8906 73.6016,819.2188 Q72.9688,819.5469 72.4766,820.2969 Q71.9844,821.0469 71.9844,822.0781 L71.9844,823.1719 Q71.9844,824.4063 72.875,825.2266 Q73.7656,826.0469 75.3594,826.0469 Q76.2969,826.0469 76.9531,825.7969 Q77.3438,825.6406 77.7656,825.2031 Q78.0313,824.9375 78.1797,824.8594 Q78.3281,824.7813 78.5313,824.7813 Q78.8594,824.7813 79.1172,825.0391 Q79.375,825.2969 79.375,825.6406 Q79.375,825.9844 79.0313,826.3906 Q78.5313,826.9688 77.7344,827.2969 Q76.6563,827.75 75.3594,827.75 Q73.8438,827.75 72.6406,827.125 Q71.6563,826.625 70.9688,825.5547 Q70.2813,824.4844 70.2813,823.2031 L70.2813,822.0469 Q70.2813,820.7188 70.8984,819.5703 Q71.5156,818.4219 72.6094,817.8047 Q73.7031,817.1875 74.9375,817.1875 Q75.6719,817.1875 76.3203,817.3516 Q76.9688,817.5156 77.5156,817.875 Z " fill="#000000"/><text fill="#000000" font-family="sans-serif" font-size="12" lengthAdjust="spacing" textLength="193" x="95.25" y="826.9102">DltPcapNetworkTraceFilterDecoder</text><line style="stroke:#A80036;stroke-width:1.5;" x1="8" x2="343" y1="838" y2="838"/><ellipse cx="18" cy="849" rx="3" ry="3" style="stroke:#038048;stroke-width:1.0;fill:none;"/><text fill="#000000" font-family="sans-serif" font-size="11" lengthAdjust="spacing" textLength="134" x="27" y="853.4189">PacketTimeStamp: DateTime</text><line style="stroke:#A80036;stroke-width:1.5;" x1="8" x2="343" y1="859.8359" y2="859.8359"/><ellipse cx="18" cy="870.8359" fill="#84BE84" rx="3" ry="3" style="stroke:#038048;stroke-width:1.0;"/><text fill="#000000" font-family="sans-serif" font-size="11" lengthAdjust="spacing" textLength="311" x="27" y="875.2549">Decode(buffer: ReadOnlySpan&lt;byte&gt;, position: long, flush: bool)</text><text fill="#000000" font-family="sans-serif" font-size="11" lengthAdjust="spacing" textLength="161" x="33" y="889.0908">: IEnumerable&lt;DltTraceLineBase&gt;</text><!--MD5=[ffb2fd249efbe4af1286e8136fa09e1b]
class DltTraceDecoder--><rect codeLine="70" fill="#FEFECE" filter="url(#fpvj98yqsowsb)" height="48" id="DltTraceDecoder" style="stroke:#A80036;stroke-width:1.5;" width="125" x="113" y="542"/><ellipse cx="128" cy="558" fill="#ADD1B2" rx="11" ry="11" style="stroke:#A80036;stroke-width:1.0;"/><path d="M130.7656,553.875 Q130.9219,553.6563 131.1094,553.5469 Q131.2969,553.4375 131.5156,553.4375 Q131.8906,553.4375 132.125,553.6953 Q132.3594,553.9531 132.3594,554.5625 L132.3594,556.0156 Q132.3594,556.625 132.125,556.8906 Q131.8906,557.1563 131.5156,557.1563 Q131.1719,557.1563 130.9688,556.9531 Q130.7656,556.7656 130.6563,556.25 Q130.6094,555.8906 130.4219,555.7031 Q130.0938,555.3281 129.4844,555.1094 Q128.875,554.8906 128.25,554.8906 Q127.4844,554.8906 126.8516,555.2188 Q126.2188,555.5469 125.7266,556.2969 Q125.2344,557.0469 125.2344,558.0781 L125.2344,559.1719 Q125.2344,560.4063 126.125,561.2266 Q127.0156,562.0469 128.6094,562.0469 Q129.5469,562.0469 130.2031,561.7969 Q130.5938,561.6406 131.0156,561.2031 Q131.2813,560.9375 131.4297,560.8594 Q131.5781,560.7813 131.7813,560.7813 Q132.1094,560.7813 132.3672,561.0391 Q132.625,561.2969 132.625,561.6406 Q132.625,561.9844 132.2813,562.3906 Q131.7813,562.9688 130.9844,563.2969 Q129.9063,563.75 128.6094,563.75 Q127.0938,563.75 125.8906,563.125 Q124.9063,562.625 124.2188,561.5547 Q123.5313,560.4844 123.5313,559.2031 L123.5313,558.0469 Q123.5313,556.7188 124.1484,555.5703 Q124.7656,554.4219 125.8594,553.8047 Q126.9531,553.1875 128.1875,553.1875 Q128.9219,553.1875 129.5703,553.3516 Q130.2188,553.5156 130.7656,553.875 Z " fill="#000000"/><text fill="#000000" font-family="sans-serif" font-size="12" lengthAdjust="spacing" textLength="93" x="142" y="562.9102">DltTraceDecoder</text><line style="stroke:#A80036;stroke-width:1.5;" x1="114" x2="237" y1="574" y2="574"/><line style="stroke:#A80036;stroke-width:1.5;" x1="114" x2="237" y1="582" y2="582"/><!--MD5=[52a3332067f4ff29b03ab00f619de69b]
class IOutputStream--><rect codeLine="73" fill="#FEFECE" filter="url(#fpvj98yqsowsb)" height="48" id="IOutputStream" style="stroke:#A80036;stroke-width:1.5;" width="112" x="119.5" y="1026"/><ellipse cx="134.5" cy="1042" fill="#B4A7E5" rx="11" ry="11" style="stroke:#A80036;stroke-width:1.0;"/><path d="M135.4531,1038.6406 L135.4531,1045.2969 L137.1719,1045.2969 Q137.7813,1045.2969 138.0469,1045.5313 Q138.3125,1045.7656 138.3125,1046.1563 Q138.3125,1046.5313 138.0469,1046.7656 Q137.7813,1047 137.1719,1047 L132.0313,1047 Q131.4219,1047 131.1563,1046.7656 Q130.8906,1046.5313 130.8906,1046.1406 Q130.8906,1045.7656 131.1563,1045.5313 Q131.4219,1045.2969 132.0313,1045.2969 L133.75,1045.2969 L133.75,1038.6406 L132.0313,1038.6406 Q131.4219,1038.6406 131.1563,1038.4063 Q130.8906,1038.1719 130.8906,1037.7813 Q130.8906,1037.4063 131.1563,1037.1719 Q131.4219,1036.9375 132.0313,1036.9375 L137.1719,1036.9375 Q137.7813,1036.9375 138.0469,1037.1719 Q138.3125,1037.4063 138.3125,1037.7813 Q138.3125,1038.1719 138.0469,1038.4063 Q137.7813,1038.6406 137.1719,1038.6406 L135.4531,1038.6406 Z " fill="#000000"/><text fill="#000000" font-family="sans-serif" font-size="12" font-style="italic" lengthAdjust="spacing" textLength="80" x="148.5" y="1046.9102">IOutputStream</text><line style="stroke:#A80036;stroke-width:1.5;" x1="120.5" x2="230.5" y1="1058" y2="1058"/><line style="stroke:#A80036;stroke-width:1.5;" x1="120.5" x2="230.5" y1="1066" y2="1066"/><!--MD5=[02f2506cc52fb78da2199d0da69d87d3]
class IpFragment--><rect codeLine="76" fill="#FEFECE" filter="url(#fpvj98yqsowsb)" height="111.5313" id="IpFragment" style="stroke:#A80036;stroke-width:1.5;" width="318" x="765.5" y="795"/><ellipse cx="888.75" cy="815.0938" fill="#FF7700" rx="11" ry="11" style="stroke:#A80036;stroke-width:1.0;"/><path d="M886.8594,819.6563 Q886.6406,819.9219 886.5,820 Q886.3594,820.0781 886.1719,820.0781 Q885.7813,820.0781 885.5391,819.8125 Q885.2969,819.5469 885.2969,818.9531 L885.2969,817.7969 Q885.2969,817.1875 885.5391,816.9297 Q885.7813,816.6719 886.1719,816.6719 Q886.4688,816.6719 886.6719,816.8281 Q886.875,816.9844 886.9844,817.3516 Q887.0938,817.7188 887.2031,817.8594 Q887.4531,818.1094 888.0625,818.375 Q888.6719,818.6406 889.4063,818.6406 Q890.5469,818.6406 891.2656,818.1094 Q891.7344,817.7813 891.7344,817.3125 Q891.7344,817 891.5156,816.7188 Q891.2969,816.4375 890.7813,816.2656 Q890.4531,816.1406 889.2969,815.9219 Q887.9063,815.6563 887.1875,815.2969 Q886.4688,814.9375 886.0547,814.2734 Q885.6406,813.6094 885.6406,812.8281 Q885.6406,811.6094 886.6641,810.6953 Q887.6875,809.7813 889.3281,809.7813 Q889.9844,809.7813 890.5391,809.9219 Q891.0938,810.0625 891.5625,810.3594 Q891.8906,810.0469 892.2188,810.0469 Q892.5938,810.0469 892.8281,810.3047 Q893.0625,810.5625 893.0625,811.1719 L893.0625,812.4531 Q893.0625,813.0625 892.8281,813.3203 Q892.5938,813.5781 892.2188,813.5781 Q891.9063,813.5781 891.6719,813.3906 Q891.4844,813.25 891.3984,812.8281 Q891.3125,812.4063 891.1719,812.2188 Q890.9219,811.9063 890.4453,811.6953 Q889.9688,811.4844 889.3281,811.4844 Q888.4063,811.4844 887.875,811.9063 Q887.3438,812.3281 887.3438,812.7969 Q887.3438,813.1094 887.5625,813.4063 Q887.7813,813.7031 888.2031,813.875 Q888.4844,813.9844 889.7891,814.2422 Q891.0938,814.5 891.7969,814.8047 Q892.5,815.1094 892.9688,815.7656 Q893.4375,816.4219 893.4375,817.3281 Q893.4375,818.5938 892.5469,819.3438 Q891.3594,820.3438 889.5313,820.3438 Q888.8281,820.3438 888.1641,820.1719 Q887.5,820 886.8594,819.6563 Z " fill="#000000"/><text fill="#000000" font-family="sans-serif" font-size="12" font-style="italic" lengthAdjust="spacing" textLength="43" x="919.25" y="812.457">«struct»</text><text fill="#000000" font-family="sans-serif" font-size="12" lengthAdjust="spacing" textLength="63" x="909.25" y="827.5508">IpFragment</text><line style="stroke:#A80036;stroke-width:1.5;" x1="766.5" x2="1082.5" y1="835.1875" y2="835.1875"/><ellipse cx="776.5" cy="846.1875" rx="3" ry="3" style="stroke:#038048;stroke-width:1.0;fill:none;"/><text fill="#000000" font-family="sans-serif" font-size="11" lengthAdjust="spacing" textLength="146" x="785.5" y="850.6064">«readonly, init» FragOffset: int</text><ellipse cx="776.5" cy="860.0234" rx="3" ry="3" style="stroke:#038048;stroke-width:1.0;fill:none;"/><text fill="#000000" font-family="sans-serif" font-size="11" lengthAdjust="spacing" textLength="140" x="785.5" y="864.4424">«readonly, init» Buffer: byte[]</text><ellipse cx="776.5" cy="873.8594" rx="3" ry="3" style="stroke:#038048;stroke-width:1.0;fill:none;"/><text fill="#000000" font-family="sans-serif" font-size="11" lengthAdjust="spacing" textLength="139" x="785.5" y="878.2783">«readonly, init» Position: long</text><line style="stroke:#A80036;stroke-width:1.5;" x1="766.5" x2="1082.5" y1="884.6953" y2="884.6953"/><ellipse cx="776.5" cy="895.6953" fill="#84BE84" rx="3" ry="3" style="stroke:#038048;stroke-width:1.0;"/><text fill="#000000" font-family="sans-serif" font-size="11" lengthAdjust="spacing" textLength="292" x="785.5" y="900.1143">.ctor(offset: int, buffer: ReadOnlySpan&lt;byte&gt;, position: long)</text><!--MD5=[6682ebe6ab2f2e8379c5318e678e0a93]
class IpFragments--><rect codeLine="83" fill="#FEFECE" filter="url(#fpvj98yqsowsb)" height="227.8672" id="IpFragments" style="stroke:#A80036;stroke-width:1.5;" width="351" x="379" y="737"/><ellipse cx="515.25" cy="753" fill="#ADD1B2" rx="11" ry="11" style="stroke:#A80036;stroke-width:1.0;"/><path d="M518.0156,748.875 Q518.1719,748.6563 518.3594,748.5469 Q518.5469,748.4375 518.7656,748.4375 Q519.1406,748.4375 519.375,748.6953 Q519.6094,748.9531 519.6094,749.5625 L519.6094,751.0156 Q519.6094,751.625 519.375,751.8906 Q519.1406,752.1563 518.7656,752.1563 Q518.4219,752.1563 518.2188,751.9531 Q518.0156,751.7656 517.9063,751.25 Q517.8594,750.8906 517.6719,750.7031 Q517.3438,750.3281 516.7344,750.1094 Q516.125,749.8906 515.5,749.8906 Q514.7344,749.8906 514.1016,750.2188 Q513.4688,750.5469 512.9766,751.2969 Q512.4844,752.0469 512.4844,753.0781 L512.4844,754.1719 Q512.4844,755.4063 513.375,756.2266 Q514.2656,757.0469 515.8594,757.0469 Q516.7969,757.0469 517.4531,756.7969 Q517.8438,756.6406 518.2656,756.2031 Q518.5313,755.9375 518.6797,755.8594 Q518.8281,755.7813 519.0313,755.7813 Q519.3594,755.7813 519.6172,756.0391 Q519.875,756.2969 519.875,756.6406 Q519.875,756.9844 519.5313,757.3906 Q519.0313,757.9688 518.2344,758.2969 Q517.1563,758.75 515.8594,758.75 Q514.3438,758.75 513.1406,758.125 Q512.1563,757.625 511.4688,756.5547 Q510.7813,755.4844 510.7813,754.2031 L510.7813,753.0469 Q510.7813,751.7188 511.3984,750.5703 Q512.0156,749.4219 513.1094,748.8047 Q514.2031,748.1875 515.4375,748.1875 Q516.1719,748.1875 516.8203,748.3516 Q517.4688,748.5156 518.0156,748.875 Z " fill="#000000"/><text fill="#000000" font-family="sans-serif" font-size="12" lengthAdjust="spacing" textLength="70" x="535.75" y="757.9102">IpFragments</text><line style="stroke:#A80036;stroke-width:1.5;" x1="380" x2="729" y1="769" y2="769"/><rect fill="none" height="6" style="stroke:#C82930;stroke-width:1.0;" width="6" x="387" y="777"/><text fill="#000000" font-family="sans-serif" font-size="11" lengthAdjust="spacing" textLength="229" x="399" y="784.4189">«readonly, init» m_Fragments: List&lt;IpFragment&gt;</text><ellipse cx="390" cy="793.8359" rx="3" ry="3" style="stroke:#038048;stroke-width:1.0;fill:none;"/><text fill="#000000" font-family="sans-serif" font-size="11" lengthAdjust="spacing" textLength="123" x="399" y="798.2549">«readonly, init» FragId: int</text><ellipse cx="390" cy="807.6719" rx="3" ry="3" style="stroke:#038048;stroke-width:1.0;fill:none;"/><text fill="#000000" font-family="sans-serif" font-size="11" lengthAdjust="spacing" textLength="142" x="399" y="812.0908">«readonly» SourcePort: short</text><ellipse cx="390" cy="821.5078" rx="3" ry="3" style="stroke:#038048;stroke-width:1.0;fill:none;"/><text fill="#000000" font-family="sans-serif" font-size="11" lengthAdjust="spacing" textLength="160" x="399" y="825.9268">«readonly» DestinationPort: short</text><ellipse cx="390" cy="835.3438" rx="3" ry="3" style="stroke:#038048;stroke-width:1.0;fill:none;"/><text fill="#000000" font-family="sans-serif" font-size="11" lengthAdjust="spacing" textLength="159" x="399" y="839.7627">«readonly» TimeStamp: DateTime</text><line style="stroke:#A80036;stroke-width:1.5;" x1="380" x2="729" y1="846.1797" y2="846.1797"/><ellipse cx="390" cy="857.1797" fill="#84BE84" rx="3" ry="3" style="stroke:#038048;stroke-width:1.0;"/><text fill="#000000" font-family="sans-serif" font-size="11" lengthAdjust="spacing" textLength="75" x="399" y="861.5986">.ctor(fragId: int)</text><ellipse cx="390" cy="871.0156" fill="#84BE84" rx="3" ry="3" style="stroke:#038048;stroke-width:1.0;"/><text fill="#000000" font-family="sans-serif" font-size="11" lengthAdjust="spacing" textLength="209" x="399" y="875.4346">AddFragment(srcPort: short, dstPort: short,</text><text fill="#000000" font-family="sans-serif" font-size="11" lengthAdjust="spacing" textLength="319" x="405" y="889.2705">buffer: ReadOnlySpan&lt;byte&gt;, timeStamp: DateTime, position: long)</text><text fill="#000000" font-family="sans-serif" font-size="11" lengthAdjust="spacing" textLength="26" x="405" y="903.1064">: bool</text><ellipse cx="390" cy="912.5234" fill="#84BE84" rx="3" ry="3" style="stroke:#038048;stroke-width:1.0;"/><text fill="#000000" font-family="sans-serif" font-size="11" lengthAdjust="spacing" textLength="184" x="399" y="916.9424">AddFragment(fragOffset: int, mf: bool,</text><text fill="#000000" font-family="sans-serif" font-size="11" lengthAdjust="spacing" textLength="319" x="405" y="930.7783">buffer: ReadOnlySpan&lt;byte&gt;, timeStamp: DateTime, position: long)</text><text fill="#000000" font-family="sans-serif" font-size="11" lengthAdjust="spacing" textLength="26" x="405" y="944.6143">: bool</text><ellipse cx="390" cy="954.0313" fill="#84BE84" rx="3" ry="3" style="stroke:#038048;stroke-width:1.0;"/><text fill="#000000" font-family="sans-serif" font-size="11" lengthAdjust="spacing" textLength="205" x="399" y="958.4502">GetFragments(): IEnumerable&lt;IpFragment&gt;</text><!--MD5=[781837293cf7ae3c980a9c3766c98b0b]
link PacketDecoder to ConnectionKey--><path codeLine="36" d="M749.59,260.5 C761.13,260.5 772.68,260.5 784.23,260.5 " fill="none" id="PacketDecoder-ConnectionKey" style="stroke:#A80036;stroke-width:1.0;stroke-dasharray:7.0,7.0;"/><!--MD5=[285c557e10a338f914fd2afd67b51a1d]
reverse link PacketDecoder to Connection--><path codeLine="51" d="M529.5,408.33 C529.5,430.29 529.5,452.4 529.5,472.79 " fill="none" id="PacketDecoder-backto-Connection" style="stroke:#A80036;stroke-width:1.0;"/><polygon fill="#A80036" points="529.5,395.06,525.5,401.06,529.5,407.06,533.5,401.06,529.5,395.06" style="stroke:#A80036;stroke-width:1.0;"/><text fill="#000000" font-family="sans-serif" font-size="13" lengthAdjust="spacing" textLength="139" x="530.5" y="439.4951">«key = ConnectionKey»</text><text fill="#000000" font-family="sans-serif" font-size="13" lengthAdjust="spacing" textLength="7" x="522.2977" y="416.7962">1</text><text fill="#000000" font-family="sans-serif" font-size="13" lengthAdjust="spacing" textLength="20" x="508.7031" y="462.2196">0..*</text><!--MD5=[aea6d8f2706b52fd232a44fa1782b614]
reverse link Connection to DltPcapNetworkTraceFilterDecoder--><path codeLine="67" d="M403.88,667.42 C344.64,714.78 276.98,768.87 230.78,805.81 " fill="none" id="Connection-backto-DltPcapNetworkTraceFilterDecoder" style="stroke:#A80036;stroke-width:1.0;"/><polygon fill="#A80036" points="414.08,659.27,406.896,659.8947,404.7096,666.7663,411.8936,666.1416,414.08,659.27" style="stroke:#A80036;stroke-width:1.0;"/><text fill="#000000" font-family="sans-serif" font-size="13" lengthAdjust="spacing" textLength="127" x="375.5" y="703.4951">«key = EndPointKey»</text><text fill="#000000" font-family="sans-serif" font-size="13" lengthAdjust="spacing" textLength="7" x="397.6036" y="680.8348">1</text><text fill="#000000" font-family="sans-serif" font-size="13" lengthAdjust="spacing" textLength="20" x="217.7135" y="795.225">0..*</text><!--MD5=[d2d05e777039145d3cbf28d4616caea2]
link Connection to EndPointKey--><path codeLine="68" d="M761.69,566 C773.21,566 784.72,566 796.24,566 " fill="none" id="Connection-EndPointKey" style="stroke:#A80036;stroke-width:1.0;stroke-dasharray:7.0,7.0;"/><!--MD5=[acfa5c5d2eaac380bad75020fd8a66ee]
reverse link DltTraceDecoder to DltPcapNetworkTraceFilterDecoder--><path codeLine="71" d="M175.5,610.46 C175.5,663.49 175.5,752.64 175.5,805.93 " fill="none" id="DltTraceDecoder-backto-DltPcapNetworkTraceFilterDecoder" style="stroke:#A80036;stroke-width:1.0;"/><polygon fill="none" points="168.5,610.16,175.5,590.16,182.5,610.16,168.5,610.16" style="stroke:#A80036;stroke-width:1.0;"/><!--MD5=[0a7f40891f7918e3a196c05ec2dd840e]
reverse link DltPcapNetworkTraceFilterDecoder to IOutputStream--><path codeLine="74" d="M175.5,909.45 C175.5,948.24 175.5,997.39 175.5,1025.8 " fill="none" id="DltPcapNetworkTraceFilterDecoder-backto-IOutputStream" style="stroke:#A80036;stroke-width:1.0;"/><polygon fill="#FFFFFF" points="175.5,896.21,171.5,902.21,175.5,908.21,179.5,902.21,175.5,896.21" style="stroke:#A80036;stroke-width:1.0;"/><!--MD5=[22ce59c2815e528bc73b27854de1bbfe]
reverse link IpFragments to IpFragment--><path codeLine="94" d="M743.35,851 C750.7,851 758.06,851 765.42,851 " fill="none" id="IpFragments-backto-IpFragment" style="stroke:#A80036;stroke-width:1.0;"/><polygon fill="#A80036" points="730.11,851,736.11,855,742.11,851,736.11,847,730.11,851" style="stroke:#A80036;stroke-width:1.0;"/><text fill="#000000" font-family="sans-serif" font-size="13" lengthAdjust="spacing" textLength="7" x="738.2259" y="848.1436">1</text><text fill="#000000" font-family="sans-serif" font-size="13" lengthAdjust="spacing" textLength="20" x="738.0605" y="848.1385">0..*</text><!--MD5=[373ce2bd15000485dc9c7cbccebcf596]
reverse link Connection to IpFragments--><path codeLine="95" d="M538.8,672.23 C540.66,693.29 542.62,715.51 544.5,736.84 " fill="none" id="Connection-backto-IpFragments" style="stroke:#A80036;stroke-width:1.0;"/><polygon fill="#A80036" points="537.65,659.27,534.1926,665.5982,538.7043,671.2236,542.1617,664.8953,537.65,659.27" style="stroke:#A80036;stroke-width:1.0;"/><text fill="#000000" font-family="sans-serif" font-size="13" lengthAdjust="spacing" textLength="65" x="541.5" y="703.4951">«key = int»</text><text fill="#000000" font-family="sans-serif" font-size="13" lengthAdjust="spacing" textLength="7" x="531.0205" y="680.8348">1</text><text fill="#000000" font-family="sans-serif" font-size="13" lengthAdjust="spacing" textLength="20" x="523.1563" y="726.1438">0..*</text><!--MD5=[40c40257b308a491c3987bc82674fe40]
@startuml DltPcapPacketDecoder

class PacketDecoder {
    -<<readonly, init>> m_Connections: Dictionary<ConnectionKey, Connection>
    -<<readonly, init>> m_LinkType: int
    -<<readonly, init>> m_OutputStream: IOutputStream
    +.ctor(linkType: int)
    +.ctor(linkType: int, outputStream: IOutputStream)
    +DecodePacket(buffer: ReadOnlySpan<byte>, timeStamp: DateTime, position: long)\n  : IEnumerable<DltTraceLineBase>
    -DecodeDltPacket(srcAddr: int, srcPort: short, dstAddr: int, dstPort: short,\n  buffer: ReadOnlySpan<byte>, timeStamp: DateTime, position: long)\n  : IEnumerable<DltTraceLineBase>
    -DecodeDltFragment(srcAddr: int, srcPort: short, dstAddr: int, dstPort: short, fragId: int,\n  buffer: ReadOnlySpan<byte>, timeStamp: DateTime, position: long)\n  : IEnumerable<DltTraceLineBase>
    -DecodeDltFragment(srcAddr: int, dstAddr: int, fragId: int, fragOffset: int, mf: bool,\n  buffer: ReadOnlySpan<byte>, position: long)\n  : IEnumerable<DltTraceLineBase>
}

note left {
    <<readonly>> indicates that there is
     no public setter for the property.
    <<init>> indicates that the object is
     only assigned in the constructor.
}

class ConnectionKey<IEquatable<ConnectionKey>> <<(S,#FF7700) struct>> {
    +<<readonly, init>> SourceAddress: int
    +<<readonly, init>> DestinationAddress: int
    +.ctor(srcAddr: int, dstAddr: int)
    +GetHashCode(): int
    +Equals(obj: object): bool
    +Equals(other: ConnectionKey): bool
}

note top {
    The <<struct>> and IEquatable<T>
    allow for a very fast Dictionary
    lookup.
}

PacketDecoder .r. ConnectionKey

class Connection {
    -<<readonly, init>> m_Decoders: Dictionary<EndPointKey, DltPcapNetworkTraceFilterDecoder>
    -<<readonly, init>> m_Fragments: Dictionary<int, IpFragments>
    +<<readonly, init>> SourceAddress: int
    +<<readonly, init>> DestinationAddress: int
    +<<readonly, init>> OutputStream: IOutputStream
    +.ctor(srcAddr: int, dstAddr: int)
    +.ctor(srcAddr: int, dstAddr: int, outputStream: IOutputStream)
    +GetDltDecoder(srcPort: short, dstPort: short): DltPcapNetworkTraceFilterDecoder
    +GetIpFragments(fragId: int): IpFragments
    +DiscardFragments(fragId: int)
}

PacketDecoder "1" *-d- "0..*" Connection : <<key = ConnectionKey>>

class EndPointKey<IEquatable<EndPointKey>> <<(S,#FF7700) struct>> {
    +<<readonly, init>> SourcePort: short
    +<<readonly, init>> DestinationPort: short
    +.ctor(srcPort: short, dstPort: short)
    +GetHashCode(): int
    +Equals(obj: object): bool
    +Equals(other: EndPointKey): bool
}

class DltPcapNetworkTraceFilterDecoder {
    +PacketTimeStamp: DateTime
    +Decode(buffer: ReadOnlySpan<byte>, position: long, flush: bool)\n  : IEnumerable<DltTraceLineBase>
}

Connection "1" *-d- "0..*" DltPcapNetworkTraceFilterDecoder : <<key = EndPointKey>>
Connection .r. EndPointKey

class DltTraceDecoder
DltPcapNetworkTraceFilterDecoder -u-|> DltTraceDecoder

interface IOutputStream
DltPcapNetworkTraceFilterDecoder o-d- IOutputStream

class IpFragment <<(S,#FF7700) struct>> {
    +<<readonly, init>> FragOffset: int
    +<<readonly, init>> Buffer: byte[]
    +<<readonly, init>> Position: long
    +.ctor(offset: int, buffer: ReadOnlySpan<byte>, position: long)
}

class IpFragments {
    -<<readonly, init>> m_Fragments: List<IpFragment>
    +<<readonly, init>> FragId: int
    +<<readonly>> SourcePort: short
    +<<readonly>> DestinationPort: short
    +<<readonly>> TimeStamp: DateTime
    +.ctor(fragId: int)
    +AddFragment(srcPort: short, dstPort: short,\n  buffer: ReadOnlySpan<byte>, timeStamp: DateTime, position: long)\n  : bool
    +AddFragment(fragOffset: int, mf: bool,\n  buffer: ReadOnlySpan<byte>, timeStamp: DateTime, position: long)\n  : bool
    +GetFragments(): IEnumerable<IpFragment>
}
IpFragments "1" *-r- "0..*" IpFragment
Connection "1" *-d- "0..*" IpFragments : <<key = int>>

@enduml

PlantUML version 1.2022.0(Tue Jan 11 17:16:42 CET 2022)
(GPL source distribution)
Java Runtime: Java(TM) SE Runtime Environment
JVM: Java HotSpot(TM) 64-Bit Server VM
Default Encoding: Cp1252
Language: en
Country: US
--></g></svg>