<?xml version="1.0" encoding="UTF-8" standalone="no"?><svg xmlns="http://www.w3.org/2000/svg" xmlns:xlink="http://www.w3.org/1999/xlink" contentScriptType="application/ecmascript" contentStyleType="text/css" height="458px" preserveAspectRatio="none" style="width:1570px;height:458px;background:#FFFFFF;" version="1.1" viewBox="0 0 1570 458" width="1570px" zoomAndPan="magnify"><defs><filter height="300%" id="f2riviqe1kg6n" width="300%" x="-1" y="-1"><feGaussianBlur result="blurOut" stdDeviation="2.0"/><feColorMatrix in="blurOut" result="blurOut2" type="matrix" values="0 0 0 0 0 0 0 0 0 0 0 0 0 0 0 0 0 0 .4 0"/><feOffset dx="4.0" dy="4.0" in="blurOut2" result="blurOut3"/><feBlend in="SourceGraphic" in2="blurOut3" mode="normal"/></filter></defs><g><!--MD5=[11363600cc92b2fece27b28de66320bf]
class DltTraceEncoder--><rect codeLine="2" fill="#FEFECE" filter="url(#f2riviqe1kg6n)" height="61.8359" id="DltTraceEncoder" style="stroke:#A80036;stroke-width:1.5;" width="294" x="11.5" y="10"/><ellipse cx="41.8" cy="26" fill="#ADD1B2" rx="11" ry="11" style="stroke:#A80036;stroke-width:1.0;"/><path d="M44.5656,21.875 Q44.7219,21.6563 44.9094,21.5469 Q45.0969,21.4375 45.3156,21.4375 Q45.6906,21.4375 45.925,21.6953 Q46.1594,21.9531 46.1594,22.5625 L46.1594,24.0156 Q46.1594,24.625 45.925,24.8906 Q45.6906,25.1563 45.3156,25.1563 Q44.9719,25.1563 44.7688,24.9531 Q44.5656,24.7656 44.4563,24.25 Q44.4094,23.8906 44.2219,23.7031 Q43.8938,23.3281 43.2844,23.1094 Q42.675,22.8906 42.05,22.8906 Q41.2844,22.8906 40.6516,23.2188 Q40.0188,23.5469 39.5266,24.2969 Q39.0344,25.0469 39.0344,26.0781 L39.0344,27.1719 Q39.0344,28.4063 39.925,29.2266 Q40.8156,30.0469 42.4094,30.0469 Q43.3469,30.0469 44.0031,29.7969 Q44.3938,29.6406 44.8156,29.2031 Q45.0813,28.9375 45.2297,28.8594 Q45.3781,28.7813 45.5813,28.7813 Q45.9094,28.7813 46.1672,29.0391 Q46.425,29.2969 46.425,29.6406 Q46.425,29.9844 46.0813,30.3906 Q45.5813,30.9688 44.7844,31.2969 Q43.7063,31.75 42.4094,31.75 Q40.8938,31.75 39.6906,31.125 Q38.7063,30.625 38.0188,29.5547 Q37.3313,28.4844 37.3313,27.2031 L37.3313,26.0469 Q37.3313,24.7188 37.9484,23.5703 Q38.5656,22.4219 39.6594,21.8047 Q40.7531,21.1875 41.9875,21.1875 Q42.7219,21.1875 43.3703,21.3516 Q44.0188,21.5156 44.5656,21.875 Z " fill="#000000"/><text fill="#000000" font-family="sans-serif" font-size="12" lengthAdjust="spacing" textLength="92" x="59.2" y="30.9102">DltTraceEncoder</text><rect fill="#FFFFFF" height="17.0938" style="stroke:#000000;stroke-width:1.0;stroke-dasharray:2.0,2.0;" width="134" x="174.5" y="7"/><text fill="#000000" font-family="sans-serif" font-size="12" font-style="italic" lengthAdjust="spacing" textLength="132" x="175.5" y="20.457">TLine:DltTraceLineBase</text><line style="stroke:#A80036;stroke-width:1.5;" x1="12.5" x2="304.5" y1="42" y2="42"/><line style="stroke:#A80036;stroke-width:1.5;" x1="12.5" x2="304.5" y1="50" y2="50"/><ellipse cx="22.5" cy="61" fill="#84BE84" rx="3" ry="3" style="stroke:#038048;stroke-width:1.0;"/><text fill="#000000" font-family="sans-serif" font-size="11" lengthAdjust="spacing" textLength="268" x="31.5" y="65.4189">Encode(buffer: Span&lt;byte&gt;, line: DltTraceLineBase): int</text><!--MD5=[41fead8911a9e917d46f3318ccce8e3a]
class IDltEncoder--><rect codeLine="6" fill="#FEFECE" filter="url(#f2riviqe1kg6n)" height="61.8359" id="IDltEncoder" style="stroke:#A80036;stroke-width:1.5;" width="235" x="41" y="133"/><ellipse cx="56.9" cy="149" fill="#B4A7E5" rx="11" ry="11" style="stroke:#A80036;stroke-width:1.0;"/><path d="M57.8531,145.6406 L57.8531,152.2969 L59.5719,152.2969 Q60.1813,152.2969 60.4469,152.5313 Q60.7125,152.7656 60.7125,153.1563 Q60.7125,153.5313 60.4469,153.7656 Q60.1813,154 59.5719,154 L54.4313,154 Q53.8219,154 53.5563,153.7656 Q53.2906,153.5313 53.2906,153.1406 Q53.2906,152.7656 53.5563,152.5313 Q53.8219,152.2969 54.4313,152.2969 L56.15,152.2969 L56.15,145.6406 L54.4313,145.6406 Q53.8219,145.6406 53.5563,145.4063 Q53.2906,145.1719 53.2906,144.7813 Q53.2906,144.4063 53.5563,144.1719 Q53.8219,143.9375 54.4313,143.9375 L59.5719,143.9375 Q60.1813,143.9375 60.4469,144.1719 Q60.7125,144.4063 60.7125,144.7813 Q60.7125,145.1719 60.4469,145.4063 Q60.1813,145.6406 59.5719,145.6406 L57.8531,145.6406 Z " fill="#000000"/><text fill="#000000" font-family="sans-serif" font-size="12" font-style="italic" lengthAdjust="spacing" textLength="65" x="71.1" y="153.9102">IDltEncoder</text><rect fill="#FFFFFF" height="17.0938" style="stroke:#000000;stroke-width:1.0;stroke-dasharray:2.0,2.0;" width="134" x="145" y="130"/><text fill="#000000" font-family="sans-serif" font-size="12" font-style="italic" lengthAdjust="spacing" textLength="132" x="146" y="143.457">TLine:DltTraceLineBase</text><line style="stroke:#A80036;stroke-width:1.5;" x1="42" x2="275" y1="165" y2="165"/><line style="stroke:#A80036;stroke-width:1.5;" x1="42" x2="275" y1="173" y2="173"/><ellipse cx="52" cy="184" fill="#84BE84" rx="3" ry="3" style="stroke:#038048;stroke-width:1.0;"/><text fill="#000000" font-family="sans-serif" font-size="11" lengthAdjust="spacing" textLength="209" x="61" y="188.4189">Encode(buffer: Span&lt;byte&gt;, line: TLine): int</text><!--MD5=[cc77ca878b90ecde6218281a5db6f25c]
class ControlDltEncoder--><rect codeLine="11" fill="#FEFECE" filter="url(#f2riviqe1kg6n)" height="61.8359" id="ControlDltEncoder" style="stroke:#A80036;stroke-width:1.5;" width="303" x="7" y="273"/><ellipse cx="103.75" cy="289" fill="#ADD1B2" rx="11" ry="11" style="stroke:#A80036;stroke-width:1.0;"/><path d="M106.5156,284.875 Q106.6719,284.6563 106.8594,284.5469 Q107.0469,284.4375 107.2656,284.4375 Q107.6406,284.4375 107.875,284.6953 Q108.1094,284.9531 108.1094,285.5625 L108.1094,287.0156 Q108.1094,287.625 107.875,287.8906 Q107.6406,288.1563 107.2656,288.1563 Q106.9219,288.1563 106.7188,287.9531 Q106.5156,287.7656 106.4063,287.25 Q106.3594,286.8906 106.1719,286.7031 Q105.8438,286.3281 105.2344,286.1094 Q104.625,285.8906 104,285.8906 Q103.2344,285.8906 102.6016,286.2188 Q101.9688,286.5469 101.4766,287.2969 Q100.9844,288.0469 100.9844,289.0781 L100.9844,290.1719 Q100.9844,291.4063 101.875,292.2266 Q102.7656,293.0469 104.3594,293.0469 Q105.2969,293.0469 105.9531,292.7969 Q106.3438,292.6406 106.7656,292.2031 Q107.0313,291.9375 107.1797,291.8594 Q107.3281,291.7813 107.5313,291.7813 Q107.8594,291.7813 108.1172,292.0391 Q108.375,292.2969 108.375,292.6406 Q108.375,292.9844 108.0313,293.3906 Q107.5313,293.9688 106.7344,294.2969 Q105.6563,294.75 104.3594,294.75 Q102.8438,294.75 101.6406,294.125 Q100.6563,293.625 99.9688,292.5547 Q99.2813,291.4844 99.2813,290.2031 L99.2813,289.0469 Q99.2813,287.7188 99.8984,286.5703 Q100.5156,285.4219 101.6094,284.8047 Q102.7031,284.1875 103.9375,284.1875 Q104.6719,284.1875 105.3203,284.3516 Q105.9688,284.5156 106.5156,284.875 Z " fill="#000000"/><text fill="#000000" font-family="sans-serif" font-size="12" lengthAdjust="spacing" textLength="101" x="124.25" y="293.9102">ControlDltEncoder</text><line style="stroke:#A80036;stroke-width:1.5;" x1="8" x2="309" y1="305" y2="305"/><line style="stroke:#A80036;stroke-width:1.5;" x1="8" x2="309" y1="313" y2="313"/><ellipse cx="18" cy="324" fill="#84BE84" rx="3" ry="3" style="stroke:#038048;stroke-width:1.0;"/><text fill="#000000" font-family="sans-serif" font-size="11" lengthAdjust="spacing" textLength="277" x="27" y="328.4189">Encode(buffer: Span&lt;byte&gt;, line: DltControlTraceLine): int</text><!--MD5=[909e375f6baf1a97ba05cde89cec0035]
class IControlArgEncoder--><rect codeLine="16" fill="#FEFECE" filter="url(#f2riviqe1kg6n)" height="61.8359" id="IControlArgEncoder" style="stroke:#A80036;stroke-width:1.5;" width="319" x="570" y="133"/><ellipse cx="670.75" cy="149" fill="#B4A7E5" rx="11" ry="11" style="stroke:#A80036;stroke-width:1.0;"/><path d="M671.7031,145.6406 L671.7031,152.2969 L673.4219,152.2969 Q674.0313,152.2969 674.2969,152.5313 Q674.5625,152.7656 674.5625,153.1563 Q674.5625,153.5313 674.2969,153.7656 Q674.0313,154 673.4219,154 L668.2813,154 Q667.6719,154 667.4063,153.7656 Q667.1406,153.5313 667.1406,153.1406 Q667.1406,152.7656 667.4063,152.5313 Q667.6719,152.2969 668.2813,152.2969 L670,152.2969 L670,145.6406 L668.2813,145.6406 Q667.6719,145.6406 667.4063,145.4063 Q667.1406,145.1719 667.1406,144.7813 Q667.1406,144.4063 667.4063,144.1719 Q667.6719,143.9375 668.2813,143.9375 L673.4219,143.9375 Q674.0313,143.9375 674.2969,144.1719 Q674.5625,144.4063 674.5625,144.7813 Q674.5625,145.1719 674.2969,145.4063 Q674.0313,145.6406 673.4219,145.6406 L671.7031,145.6406 Z " fill="#000000"/><text fill="#000000" font-family="sans-serif" font-size="12" font-style="italic" lengthAdjust="spacing" textLength="109" x="691.25" y="153.9102">IControlArgEncoder</text><line style="stroke:#A80036;stroke-width:1.5;" x1="571" x2="888" y1="165" y2="165"/><line style="stroke:#A80036;stroke-width:1.5;" x1="571" x2="888" y1="173" y2="173"/><ellipse cx="581" cy="184" fill="#84BE84" rx="3" ry="3" style="stroke:#038048;stroke-width:1.0;"/><text fill="#000000" font-family="sans-serif" font-size="11" lengthAdjust="spacing" textLength="293" x="590" y="188.4189">Encode(buffer: Span&lt;byte&gt;, msbf: bool, arg: IControlArg): int</text><!--MD5=[c399c5ea30f7f56ce51f20d8d921af25]
class ControlArgEncoder--><rect codeLine="20" fill="#FEFECE" filter="url(#f2riviqe1kg6n)" height="61.8359" id="ControlArgEncoder" style="stroke:#A80036;stroke-width:1.5;" width="319" x="570" y="273"/><ellipse cx="673.25" cy="289" fill="#ADD1B2" rx="11" ry="11" style="stroke:#A80036;stroke-width:1.0;"/><path d="M676.0156,284.875 Q676.1719,284.6563 676.3594,284.5469 Q676.5469,284.4375 676.7656,284.4375 Q677.1406,284.4375 677.375,284.6953 Q677.6094,284.9531 677.6094,285.5625 L677.6094,287.0156 Q677.6094,287.625 677.375,287.8906 Q677.1406,288.1563 676.7656,288.1563 Q676.4219,288.1563 676.2188,287.9531 Q676.0156,287.7656 675.9063,287.25 Q675.8594,286.8906 675.6719,286.7031 Q675.3438,286.3281 674.7344,286.1094 Q674.125,285.8906 673.5,285.8906 Q672.7344,285.8906 672.1016,286.2188 Q671.4688,286.5469 670.9766,287.2969 Q670.4844,288.0469 670.4844,289.0781 L670.4844,290.1719 Q670.4844,291.4063 671.375,292.2266 Q672.2656,293.0469 673.8594,293.0469 Q674.7969,293.0469 675.4531,292.7969 Q675.8438,292.6406 676.2656,292.2031 Q676.5313,291.9375 676.6797,291.8594 Q676.8281,291.7813 677.0313,291.7813 Q677.3594,291.7813 677.6172,292.0391 Q677.875,292.2969 677.875,292.6406 Q677.875,292.9844 677.5313,293.3906 Q677.0313,293.9688 676.2344,294.2969 Q675.1563,294.75 673.8594,294.75 Q672.3438,294.75 671.1406,294.125 Q670.1563,293.625 669.4688,292.5547 Q668.7813,291.4844 668.7813,290.2031 L668.7813,289.0469 Q668.7813,287.7188 669.3984,286.5703 Q670.0156,285.4219 671.1094,284.8047 Q672.2031,284.1875 673.4375,284.1875 Q674.1719,284.1875 674.8203,284.3516 Q675.4688,284.5156 676.0156,284.875 Z " fill="#000000"/><text fill="#000000" font-family="sans-serif" font-size="12" lengthAdjust="spacing" textLength="104" x="693.75" y="293.9102">ControlArgEncoder</text><line style="stroke:#A80036;stroke-width:1.5;" x1="571" x2="888" y1="305" y2="305"/><line style="stroke:#A80036;stroke-width:1.5;" x1="571" x2="888" y1="313" y2="313"/><ellipse cx="581" cy="324" fill="#84BE84" rx="3" ry="3" style="stroke:#038048;stroke-width:1.0;"/><text fill="#000000" font-family="sans-serif" font-size="11" lengthAdjust="spacing" textLength="293" x="590" y="328.4189">Encode(buffer: Span&lt;byte&gt;, msbf: bool, arg: IControlArg): int</text><!--MD5=[b3caa128152efeb12f92241836cf9ecf]
class GetSoftwareVersionRequestEncoder--><rect codeLine="26" fill="#FEFECE" filter="url(#f2riviqe1kg6n)" height="48" id="GetSoftwareVersionRequestEncoder" style="stroke:#A80036;stroke-width:1.5;" width="234" x="1065.5" y="396"/><ellipse cx="1080.5" cy="412" fill="#ADD1B2" rx="11" ry="11" style="stroke:#A80036;stroke-width:1.0;"/><path d="M1083.2656,407.875 Q1083.4219,407.6563 1083.6094,407.5469 Q1083.7969,407.4375 1084.0156,407.4375 Q1084.3906,407.4375 1084.625,407.6953 Q1084.8594,407.9531 1084.8594,408.5625 L1084.8594,410.0156 Q1084.8594,410.625 1084.625,410.8906 Q1084.3906,411.1563 1084.0156,411.1563 Q1083.6719,411.1563 1083.4688,410.9531 Q1083.2656,410.7656 1083.1563,410.25 Q1083.1094,409.8906 1082.9219,409.7031 Q1082.5938,409.3281 1081.9844,409.1094 Q1081.375,408.8906 1080.75,408.8906 Q1079.9844,408.8906 1079.3516,409.2188 Q1078.7188,409.5469 1078.2266,410.2969 Q1077.7344,411.0469 1077.7344,412.0781 L1077.7344,413.1719 Q1077.7344,414.4063 1078.625,415.2266 Q1079.5156,416.0469 1081.1094,416.0469 Q1082.0469,416.0469 1082.7031,415.7969 Q1083.0938,415.6406 1083.5156,415.2031 Q1083.7813,414.9375 1083.9297,414.8594 Q1084.0781,414.7813 1084.2813,414.7813 Q1084.6094,414.7813 1084.8672,415.0391 Q1085.125,415.2969 1085.125,415.6406 Q1085.125,415.9844 1084.7813,416.3906 Q1084.2813,416.9688 1083.4844,417.2969 Q1082.4063,417.75 1081.1094,417.75 Q1079.5938,417.75 1078.3906,417.125 Q1077.4063,416.625 1076.7188,415.5547 Q1076.0313,414.4844 1076.0313,413.2031 L1076.0313,412.0469 Q1076.0313,410.7188 1076.6484,409.5703 Q1077.2656,408.4219 1078.3594,407.8047 Q1079.4531,407.1875 1080.6875,407.1875 Q1081.4219,407.1875 1082.0703,407.3516 Q1082.7188,407.5156 1083.2656,407.875 Z " fill="#000000"/><text fill="#000000" font-family="sans-serif" font-size="12" lengthAdjust="spacing" textLength="202" x="1094.5" y="416.9102">GetSoftwareVersionRequestEncoder</text><line style="stroke:#A80036;stroke-width:1.5;" x1="1066.5" x2="1298.5" y1="428" y2="428"/><line style="stroke:#A80036;stroke-width:1.5;" x1="1066.5" x2="1298.5" y1="436" y2="436"/><!--MD5=[c4a710fa25e4a8a775517d469a68915a]
class GetSoftwareVersionResponseEncoder--><rect codeLine="27" fill="#FEFECE" filter="url(#f2riviqe1kg6n)" height="48" id="GetSoftwareVersionResponseEncoder" style="stroke:#A80036;stroke-width:1.5;" width="245" x="286" y="396"/><ellipse cx="301" cy="412" fill="#ADD1B2" rx="11" ry="11" style="stroke:#A80036;stroke-width:1.0;"/><path d="M303.7656,407.875 Q303.9219,407.6563 304.1094,407.5469 Q304.2969,407.4375 304.5156,407.4375 Q304.8906,407.4375 305.125,407.6953 Q305.3594,407.9531 305.3594,408.5625 L305.3594,410.0156 Q305.3594,410.625 305.125,410.8906 Q304.8906,411.1563 304.5156,411.1563 Q304.1719,411.1563 303.9688,410.9531 Q303.7656,410.7656 303.6563,410.25 Q303.6094,409.8906 303.4219,409.7031 Q303.0938,409.3281 302.4844,409.1094 Q301.875,408.8906 301.25,408.8906 Q300.4844,408.8906 299.8516,409.2188 Q299.2188,409.5469 298.7266,410.2969 Q298.2344,411.0469 298.2344,412.0781 L298.2344,413.1719 Q298.2344,414.4063 299.125,415.2266 Q300.0156,416.0469 301.6094,416.0469 Q302.5469,416.0469 303.2031,415.7969 Q303.5938,415.6406 304.0156,415.2031 Q304.2813,414.9375 304.4297,414.8594 Q304.5781,414.7813 304.7813,414.7813 Q305.1094,414.7813 305.3672,415.0391 Q305.625,415.2969 305.625,415.6406 Q305.625,415.9844 305.2813,416.3906 Q304.7813,416.9688 303.9844,417.2969 Q302.9063,417.75 301.6094,417.75 Q300.0938,417.75 298.8906,417.125 Q297.9063,416.625 297.2188,415.5547 Q296.5313,414.4844 296.5313,413.2031 L296.5313,412.0469 Q296.5313,410.7188 297.1484,409.5703 Q297.7656,408.4219 298.8594,407.8047 Q299.9531,407.1875 301.1875,407.1875 Q301.9219,407.1875 302.5703,407.3516 Q303.2188,407.5156 303.7656,407.875 Z " fill="#000000"/><text fill="#000000" font-family="sans-serif" font-size="12" lengthAdjust="spacing" textLength="213" x="315" y="416.9102">GetSoftwareVersionResponseEncoder</text><line style="stroke:#A80036;stroke-width:1.5;" x1="287" x2="530" y1="428" y2="428"/><line style="stroke:#A80036;stroke-width:1.5;" x1="287" x2="530" y1="436" y2="436"/><!--MD5=[43b79fcbe731883609c2246cc44bf88b]
class SetTraceStatusRequestEncoder--><rect codeLine="28" fill="#FEFECE" filter="url(#f2riviqe1kg6n)" height="48" id="SetTraceStatusRequestEncoder" style="stroke:#A80036;stroke-width:1.5;" width="209" x="566" y="396"/><ellipse cx="581" cy="412" fill="#ADD1B2" rx="11" ry="11" style="stroke:#A80036;stroke-width:1.0;"/><path d="M583.7656,407.875 Q583.9219,407.6563 584.1094,407.5469 Q584.2969,407.4375 584.5156,407.4375 Q584.8906,407.4375 585.125,407.6953 Q585.3594,407.9531 585.3594,408.5625 L585.3594,410.0156 Q585.3594,410.625 585.125,410.8906 Q584.8906,411.1563 584.5156,411.1563 Q584.1719,411.1563 583.9688,410.9531 Q583.7656,410.7656 583.6563,410.25 Q583.6094,409.8906 583.4219,409.7031 Q583.0938,409.3281 582.4844,409.1094 Q581.875,408.8906 581.25,408.8906 Q580.4844,408.8906 579.8516,409.2188 Q579.2188,409.5469 578.7266,410.2969 Q578.2344,411.0469 578.2344,412.0781 L578.2344,413.1719 Q578.2344,414.4063 579.125,415.2266 Q580.0156,416.0469 581.6094,416.0469 Q582.5469,416.0469 583.2031,415.7969 Q583.5938,415.6406 584.0156,415.2031 Q584.2813,414.9375 584.4297,414.8594 Q584.5781,414.7813 584.7813,414.7813 Q585.1094,414.7813 585.3672,415.0391 Q585.625,415.2969 585.625,415.6406 Q585.625,415.9844 585.2813,416.3906 Q584.7813,416.9688 583.9844,417.2969 Q582.9063,417.75 581.6094,417.75 Q580.0938,417.75 578.8906,417.125 Q577.9063,416.625 577.2188,415.5547 Q576.5313,414.4844 576.5313,413.2031 L576.5313,412.0469 Q576.5313,410.7188 577.1484,409.5703 Q577.7656,408.4219 578.8594,407.8047 Q579.9531,407.1875 581.1875,407.1875 Q581.9219,407.1875 582.5703,407.3516 Q583.2188,407.5156 583.7656,407.875 Z " fill="#000000"/><text fill="#000000" font-family="sans-serif" font-size="12" lengthAdjust="spacing" textLength="177" x="595" y="416.9102">SetTraceStatusRequestEncoder</text><line style="stroke:#A80036;stroke-width:1.5;" x1="567" x2="774" y1="428" y2="428"/><line style="stroke:#A80036;stroke-width:1.5;" x1="567" x2="774" y1="436" y2="436"/><!--MD5=[c0830710ea82df4686cd845b32569323]
class SetTraceStatusResponseEncoder--><rect codeLine="29" fill="#FEFECE" filter="url(#f2riviqe1kg6n)" height="48" id="SetTraceStatusResponseEncoder" style="stroke:#A80036;stroke-width:1.5;" width="220" x="810.5" y="396"/><ellipse cx="825.5" cy="412" fill="#ADD1B2" rx="11" ry="11" style="stroke:#A80036;stroke-width:1.0;"/><path d="M828.2656,407.875 Q828.4219,407.6563 828.6094,407.5469 Q828.7969,407.4375 829.0156,407.4375 Q829.3906,407.4375 829.625,407.6953 Q829.8594,407.9531 829.8594,408.5625 L829.8594,410.0156 Q829.8594,410.625 829.625,410.8906 Q829.3906,411.1563 829.0156,411.1563 Q828.6719,411.1563 828.4688,410.9531 Q828.2656,410.7656 828.1563,410.25 Q828.1094,409.8906 827.9219,409.7031 Q827.5938,409.3281 826.9844,409.1094 Q826.375,408.8906 825.75,408.8906 Q824.9844,408.8906 824.3516,409.2188 Q823.7188,409.5469 823.2266,410.2969 Q822.7344,411.0469 822.7344,412.0781 L822.7344,413.1719 Q822.7344,414.4063 823.625,415.2266 Q824.5156,416.0469 826.1094,416.0469 Q827.0469,416.0469 827.7031,415.7969 Q828.0938,415.6406 828.5156,415.2031 Q828.7813,414.9375 828.9297,414.8594 Q829.0781,414.7813 829.2813,414.7813 Q829.6094,414.7813 829.8672,415.0391 Q830.125,415.2969 830.125,415.6406 Q830.125,415.9844 829.7813,416.3906 Q829.2813,416.9688 828.4844,417.2969 Q827.4063,417.75 826.1094,417.75 Q824.5938,417.75 823.3906,417.125 Q822.4063,416.625 821.7188,415.5547 Q821.0313,414.4844 821.0313,413.2031 L821.0313,412.0469 Q821.0313,410.7188 821.6484,409.5703 Q822.2656,408.4219 823.3594,407.8047 Q824.4531,407.1875 825.6875,407.1875 Q826.4219,407.1875 827.0703,407.3516 Q827.7188,407.5156 828.2656,407.875 Z " fill="#000000"/><text fill="#000000" font-family="sans-serif" font-size="12" lengthAdjust="spacing" textLength="188" x="839.5" y="416.9102">SetTraceStatusResponseEncoder</text><line style="stroke:#A80036;stroke-width:1.5;" x1="811.5" x2="1029.5" y1="428" y2="428"/><line style="stroke:#A80036;stroke-width:1.5;" x1="811.5" x2="1029.5" y1="436" y2="436"/><!--MD5=[e0bdf15de9c68eec4ed4bc81938090a7]
class GetTraceStatusRequestEncoder--><rect codeLine="30" fill="#FEFECE" filter="url(#f2riviqe1kg6n)" height="48" id="GetTraceStatusRequestEncoder" style="stroke:#A80036;stroke-width:1.5;" width="210" x="40.5" y="396"/><ellipse cx="55.5" cy="412" fill="#ADD1B2" rx="11" ry="11" style="stroke:#A80036;stroke-width:1.0;"/><path d="M58.2656,407.875 Q58.4219,407.6563 58.6094,407.5469 Q58.7969,407.4375 59.0156,407.4375 Q59.3906,407.4375 59.625,407.6953 Q59.8594,407.9531 59.8594,408.5625 L59.8594,410.0156 Q59.8594,410.625 59.625,410.8906 Q59.3906,411.1563 59.0156,411.1563 Q58.6719,411.1563 58.4688,410.9531 Q58.2656,410.7656 58.1563,410.25 Q58.1094,409.8906 57.9219,409.7031 Q57.5938,409.3281 56.9844,409.1094 Q56.375,408.8906 55.75,408.8906 Q54.9844,408.8906 54.3516,409.2188 Q53.7188,409.5469 53.2266,410.2969 Q52.7344,411.0469 52.7344,412.0781 L52.7344,413.1719 Q52.7344,414.4063 53.625,415.2266 Q54.5156,416.0469 56.1094,416.0469 Q57.0469,416.0469 57.7031,415.7969 Q58.0938,415.6406 58.5156,415.2031 Q58.7813,414.9375 58.9297,414.8594 Q59.0781,414.7813 59.2813,414.7813 Q59.6094,414.7813 59.8672,415.0391 Q60.125,415.2969 60.125,415.6406 Q60.125,415.9844 59.7813,416.3906 Q59.2813,416.9688 58.4844,417.2969 Q57.4063,417.75 56.1094,417.75 Q54.5938,417.75 53.3906,417.125 Q52.4063,416.625 51.7188,415.5547 Q51.0313,414.4844 51.0313,413.2031 L51.0313,412.0469 Q51.0313,410.7188 51.6484,409.5703 Q52.2656,408.4219 53.3594,407.8047 Q54.4531,407.1875 55.6875,407.1875 Q56.4219,407.1875 57.0703,407.3516 Q57.7188,407.5156 58.2656,407.875 Z " fill="#000000"/><text fill="#000000" font-family="sans-serif" font-size="12" lengthAdjust="spacing" textLength="178" x="69.5" y="416.9102">GetTraceStatusRequestEncoder</text><line style="stroke:#A80036;stroke-width:1.5;" x1="41.5" x2="249.5" y1="428" y2="428"/><line style="stroke:#A80036;stroke-width:1.5;" x1="41.5" x2="249.5" y1="436" y2="436"/><!--MD5=[5c3f6e2eea759d646daae25f275faa86]
class GetTraceStatusResponseEncoder--><rect codeLine="31" fill="#FEFECE" filter="url(#f2riviqe1kg6n)" height="48" id="GetTraceStatusResponseEncoder" style="stroke:#A80036;stroke-width:1.5;" width="221" x="1335" y="396"/><ellipse cx="1350" cy="412" fill="#ADD1B2" rx="11" ry="11" style="stroke:#A80036;stroke-width:1.0;"/><path d="M1352.7656,407.875 Q1352.9219,407.6563 1353.1094,407.5469 Q1353.2969,407.4375 1353.5156,407.4375 Q1353.8906,407.4375 1354.125,407.6953 Q1354.3594,407.9531 1354.3594,408.5625 L1354.3594,410.0156 Q1354.3594,410.625 1354.125,410.8906 Q1353.8906,411.1563 1353.5156,411.1563 Q1353.1719,411.1563 1352.9688,410.9531 Q1352.7656,410.7656 1352.6563,410.25 Q1352.6094,409.8906 1352.4219,409.7031 Q1352.0938,409.3281 1351.4844,409.1094 Q1350.875,408.8906 1350.25,408.8906 Q1349.4844,408.8906 1348.8516,409.2188 Q1348.2188,409.5469 1347.7266,410.2969 Q1347.2344,411.0469 1347.2344,412.0781 L1347.2344,413.1719 Q1347.2344,414.4063 1348.125,415.2266 Q1349.0156,416.0469 1350.6094,416.0469 Q1351.5469,416.0469 1352.2031,415.7969 Q1352.5938,415.6406 1353.0156,415.2031 Q1353.2813,414.9375 1353.4297,414.8594 Q1353.5781,414.7813 1353.7813,414.7813 Q1354.1094,414.7813 1354.3672,415.0391 Q1354.625,415.2969 1354.625,415.6406 Q1354.625,415.9844 1354.2813,416.3906 Q1353.7813,416.9688 1352.9844,417.2969 Q1351.9063,417.75 1350.6094,417.75 Q1349.0938,417.75 1347.8906,417.125 Q1346.9063,416.625 1346.2188,415.5547 Q1345.5313,414.4844 1345.5313,413.2031 L1345.5313,412.0469 Q1345.5313,410.7188 1346.1484,409.5703 Q1346.7656,408.4219 1347.8594,407.8047 Q1348.9531,407.1875 1350.1875,407.1875 Q1350.9219,407.1875 1351.5703,407.3516 Q1352.2188,407.5156 1352.7656,407.875 Z " fill="#000000"/><text fill="#000000" font-family="sans-serif" font-size="12" lengthAdjust="spacing" textLength="189" x="1364" y="416.9102">GetTraceStatusResponseEncoder</text><line style="stroke:#A80036;stroke-width:1.5;" x1="1336" x2="1555" y1="428" y2="428"/><line style="stroke:#A80036;stroke-width:1.5;" x1="1336" x2="1555" y1="436" y2="436"/><!--MD5=[bbf974fc5bfcceb4b72382435f28bfa0]
reverse link DltTraceEncoder to IDltEncoder--><path codeLine="9" d="M158.5,85.45 C158.5,101.12 158.5,118.45 158.5,132.74 " fill="none" id="DltTraceEncoder-backto-IDltEncoder" style="stroke:#A80036;stroke-width:1.0;"/><polygon fill="#A80036" points="158.5,72.22,154.5,78.22,158.5,84.22,162.5,78.22,158.5,72.22" style="stroke:#A80036;stroke-width:1.0;"/><!--MD5=[0b09ff73ed51b69097b3d5bf3e15a44a]
reverse link IDltEncoder to ControlDltEncoder--><path codeLine="14" d="M158.5,215.41 C158.5,234.66 158.5,255.99 158.5,272.79 " fill="none" id="IDltEncoder-backto-ControlDltEncoder" style="stroke:#A80036;stroke-width:1.0;stroke-dasharray:7.0,7.0;"/><polygon fill="none" points="151.5,215.28,158.5,195.28,165.5,215.28,151.5,215.28" style="stroke:#A80036;stroke-width:1.0;"/><text fill="#000000" font-family="sans-serif" font-size="13" lengthAdjust="spacing" textLength="164" x="159.5" y="239.4951">TLine -&gt; DltControlTraceLine</text><!--MD5=[a3ebe1fdc051f7b49e995be541139b8a]
reverse link IControlArgEncoder to ControlArgEncoder--><path codeLine="23" d="M729.5,215.41 C729.5,234.66 729.5,255.99 729.5,272.79 " fill="none" id="IControlArgEncoder-backto-ControlArgEncoder" style="stroke:#A80036;stroke-width:1.0;stroke-dasharray:7.0,7.0;"/><polygon fill="none" points="722.5,215.28,729.5,195.28,736.5,215.28,722.5,215.28" style="stroke:#A80036;stroke-width:1.0;"/><text fill="#000000" font-family="sans-serif" font-size="13" lengthAdjust="spacing" textLength="164" x="730.5" y="239.4951">TLine -&gt; DltControlTraceLine</text><!--MD5=[d075cfa8fe80bdc3a30198e50ac91783]
reverse link ControlDltEncoder to ControlArgEncoder--><path codeLine="24" d="M323.36,304 C405.5,304 487.65,304 569.79,304 " fill="none" id="ControlDltEncoder-backto-ControlArgEncoder" style="stroke:#A80036;stroke-width:1.0;"/><polygon fill="#A80036" points="310.17,304,316.17,308,322.17,304,316.17,300,310.17,304" style="stroke:#A80036;stroke-width:1.0;"/><!--MD5=[15ef1bdc685121031370464d87033e4e]
reverse link IControlArgEncoder to GetSoftwareVersionRequestEncoder--><path codeLine="33" d="M879.88,201.45 C899.05,208.21 918.04,216.03 935.5,225 C1027.17,272.1 1118.11,355.39 1159.44,395.77 " fill="none" id="IControlArgEncoder-backto-GetSoftwareVersionRequestEncoder" style="stroke:#A80036;stroke-width:1.0;stroke-dasharray:7.0,7.0;"/><polygon fill="none" points="877.46,208.02,860.71,195.04,881.9,194.74,877.46,208.02" style="stroke:#A80036;stroke-width:1.0;"/><!--MD5=[42c88f7ec54796f03c252789fabb89a1]
reverse link IControlArgEncoder to GetSoftwareVersionResponseEncoder--><path codeLine="34" d="M606.61,203.42 C593.57,209.71 580.92,216.88 569.5,225 C502.1,272.96 446.47,355.84 421.96,395.95 " fill="none" id="IControlArgEncoder-backto-GetSoftwareVersionResponseEncoder" style="stroke:#A80036;stroke-width:1.0;stroke-dasharray:7.0,7.0;"/><polygon fill="none" points="604.11,196.87,625.22,195.1,609.82,209.65,604.11,196.87" style="stroke:#A80036;stroke-width:1.0;"/><!--MD5=[e6fb4edf911a98a50951f99fb8fc0442]
reverse link IControlArgEncoder to SetTraceStatusRequestEncoder--><path codeLine="35" d="M626.87,204.33 C597.59,220.89 569.14,243.36 552.5,273 C539.01,297.03 539.87,310.51 552.5,335 C566.39,361.93 593.35,382.12 617.99,395.95 " fill="none" id="IControlArgEncoder-backto-SetTraceStatusRequestEncoder" style="stroke:#A80036;stroke-width:1.0;stroke-dasharray:7.0,7.0;"/><polygon fill="none" points="623.65,198.11,644.62,195.02,630.16,210.51,623.65,198.11" style="stroke:#A80036;stroke-width:1.0;"/><!--MD5=[12758a794eee5970c77c09c60bc548a9]
reverse link IControlArgEncoder to SetTraceStatusResponseEncoder--><path codeLine="36" d="M884.65,206.26 C891.63,211.75 898,217.96 903.5,225 C942.63,275.09 933.45,356.24 925.82,395.81 " fill="none" id="IControlArgEncoder-backto-SetTraceStatusResponseEncoder" style="stroke:#A80036;stroke-width:1.0;stroke-dasharray:7.0,7.0;"/><polygon fill="none" points="880.63,211.99,867.91,195.04,888.42,200.36,880.63,211.99" style="stroke:#A80036;stroke-width:1.0;"/><!--MD5=[1faea9814c29f8730506917ff9e484c6]
reverse link IControlArgEncoder to GetTraceStatusRequestEncoder--><path codeLine="37" d="M603.58,201.39 C581.97,208.59 559.92,216.55 539.5,225 C441.41,265.58 422.83,288.3 327.5,335 C283.9,356.36 233.78,379.38 197.18,395.91 " fill="none" id="IControlArgEncoder-backto-GetTraceStatusRequestEncoder" style="stroke:#A80036;stroke-width:1.0;stroke-dasharray:7.0,7.0;"/><polygon fill="none" points="601.63,194.66,622.81,195.13,605.96,207.97,601.63,194.66" style="stroke:#A80036;stroke-width:1.0;"/><!--MD5=[c2536c09c899d674eca5220e372a870c]
reverse link IControlArgEncoder to GetTraceStatusResponseEncoder--><path codeLine="38" d="M889.9,199.93 C919.27,207.42 949.48,215.86 977.5,225 C1134.5,276.19 1312.94,356.64 1396.92,395.9 " fill="none" id="IControlArgEncoder-backto-GetTraceStatusResponseEncoder" style="stroke:#A80036;stroke-width:1.0;stroke-dasharray:7.0,7.0;"/><polygon fill="none" points="887.96,206.66,870.25,195.03,891.35,193.08,887.96,206.66" style="stroke:#A80036;stroke-width:1.0;"/><!--MD5=[f06e13c3fc39c29846d35d900e637a4a]
reverse link ControlArgEncoder to GetSoftwareVersionRequestEncoder--><path codeLine="40" d="M861.42,338.2 C935.05,356.73 1024.94,379.35 1090.85,395.94 " fill="none" id="ControlArgEncoder-backto-GetSoftwareVersionRequestEncoder" style="stroke:#A80036;stroke-width:1.0;"/><polygon fill="#A80036" points="848.82,335.03,853.6622,340.3735,860.457,337.9591,855.6149,332.6155,848.82,335.03" style="stroke:#A80036;stroke-width:1.0;"/><!--MD5=[645111fac5ba347984954a1bf3d0eb23]
reverse link ControlArgEncoder to GetSoftwareVersionResponseEncoder--><path codeLine="41" d="M632.23,339.54 C580.76,357.82 518.95,379.77 473.36,395.97 " fill="none" id="ControlArgEncoder-backto-GetSoftwareVersionResponseEncoder" style="stroke:#A80036;stroke-width:1.0;"/><polygon fill="#A80036" points="644.74,335.1,637.7486,333.3335,633.429,339.1076,640.4204,340.8742,644.74,335.1" style="stroke:#A80036;stroke-width:1.0;"/><!--MD5=[ed004dca4340a1a6752e19384a6352db]
reverse link ControlArgEncoder to SetTraceStatusRequestEncoder--><path codeLine="42" d="M707.82,346.88 C699.27,363.42 689.76,381.78 682.48,395.84 " fill="none" id="ControlArgEncoder-backto-SetTraceStatusRequestEncoder" style="stroke:#A80036;stroke-width:1.0;"/><polygon fill="#A80036" points="713.84,335.25,707.527,338.735,708.3158,345.9029,714.6289,342.4178,713.84,335.25" style="stroke:#A80036;stroke-width:1.0;"/><!--MD5=[29d23536ef4a140f1f3e456529e72018]
reverse link ControlArgEncoder to SetTraceStatusResponseEncoder--><path codeLine="43" d="M791.49,342 C821.25,359.76 855.98,380.49 881.91,395.97 " fill="none" id="ControlArgEncoder-backto-SetTraceStatusResponseEncoder" style="stroke:#A80036;stroke-width:1.0;"/><polygon fill="#A80036" points="779.93,335.1,783.0268,341.6123,790.2292,341.2584,787.1324,334.7461,779.93,335.1" style="stroke:#A80036;stroke-width:1.0;"/><!--MD5=[8f155c5fa562517f7bacb5539ea3f696]
reverse link ControlArgEncoder to GetTraceStatusRequestEncoder--><path codeLine="44" d="M562.63,337.57 C462.28,357.16 337.62,381.5 250.83,398.44 " fill="none" id="ControlArgEncoder-backto-GetTraceStatusRequestEncoder" style="stroke:#A80036;stroke-width:1.0;"/><polygon fill="#A80036" points="575.68,335.03,569.0257,332.2513,563.9015,337.325,570.5558,340.1037,575.68,335.03" style="stroke:#A80036;stroke-width:1.0;"/><!--MD5=[af241af4d52386b0ec21d4ba71eca907]
reverse link ControlArgEncoder to GetTraceStatusResponseEncoder--><path codeLine="45" d="M902.09,330.58 C1019.36,348.25 1177.93,372.66 1317.5,396 C1323.18,396.95 1329,397.94 1334.87,398.95 " fill="none" id="ControlArgEncoder-backto-GetTraceStatusResponseEncoder" style="stroke:#A80036;stroke-width:1.0;"/><polygon fill="#A80036" points="889.08,328.63,894.4203,333.4758,900.9472,330.4101,895.607,325.5643,889.08,328.63" style="stroke:#A80036;stroke-width:1.0;"/><!--MD5=[ce4619ace966ccaecb0fbd39272b9d8c]
@startuml DLT.WriterControl

class DltTraceEncoder<TLine:DltTraceLineBase> {
    +Encode(buffer: Span<byte>, line: DltTraceLineBase): int
}

interface IDltEncoder<TLine:DltTraceLineBase> {
   +Encode(buffer: Span<byte>, line: TLine): int
}
DltTraceEncoder *-d- IDltEncoder

class ControlDltEncoder {
   +Encode(buffer: Span<byte>, line: DltControlTraceLine): int
}
IDltEncoder <|.d. ControlDltEncoder : TLine -> DltControlTraceLine

interface IControlArgEncoder {
    +Encode(buffer: Span<byte>, msbf: bool, arg: IControlArg): int
}

class ControlArgEncoder {
    +Encode(buffer: Span<byte>, msbf: bool, arg: IControlArg): int
}
IControlArgEncoder <|.d. ControlArgEncoder : TLine -> DltControlTraceLine
ControlDltEncoder *-r- ControlArgEncoder

class GetSoftwareVersionRequestEncoder
class GetSoftwareVersionResponseEncoder
class SetTraceStatusRequestEncoder
class SetTraceStatusResponseEncoder
class GetTraceStatusRequestEncoder
class GetTraceStatusResponseEncoder

IControlArgEncoder <|..d. GetSoftwareVersionRequestEncoder
IControlArgEncoder <|..d. GetSoftwareVersionResponseEncoder
IControlArgEncoder <|..d. SetTraceStatusRequestEncoder
IControlArgEncoder <|..d. SetTraceStatusResponseEncoder
IControlArgEncoder <|..d. GetTraceStatusRequestEncoder
IControlArgEncoder <|..d. GetTraceStatusResponseEncoder

ControlArgEncoder *-d- GetSoftwareVersionRequestEncoder
ControlArgEncoder *-d- GetSoftwareVersionResponseEncoder
ControlArgEncoder *-d- SetTraceStatusRequestEncoder
ControlArgEncoder *-d- SetTraceStatusResponseEncoder
ControlArgEncoder *-d- GetTraceStatusRequestEncoder
ControlArgEncoder *-d- GetTraceStatusResponseEncoder

' class DltTraceWriterFactory<TLine:DltTraceLineBase> {
'     +CreateAsync(stream: Stream): Task<ITraceWriter<DltTraceLineBase>>
'     +CreateAsync(fileName: string): Task<ITraceWriter<DltTraceLineBase>>
' }

' class DltTraceEncoder<TLine:DltTraceLineBase> {
'     +Encode(buffer: Span<byte>, line: DltTraceLineBase): int
' }

' class DltFileTraceWriterFactory
' note bottom
'     Gives DltTraceWriterFactory the
'     DltFileTraceEncoderFactory. This
'     is just a very thin class.
' end note
' DltTraceWriterFactory <|-d- DltFileTraceWriterFactory

' class DltFileTraceEncoderFactory
' note bottom
'     Just knows only how to create
'     the DltFileTraceEncoder
' end note
' DltFileTraceWriterFactory -r-> DltFileTraceEncoderFactory : <<creates>
' DltTraceWriterFactory o-d- DltFileTraceEncoderFactory

' class DltFileTraceEncoder
' note bottom
'     Knows how to encode the storage
'     header, and leaves the rest of
'     the encoding to DltTraceEncoder
' end note

' DltFileTraceEncoderFactory -r-> DltFileTraceEncoder : <<creates>>
' DltTraceEncoder <|-d- DltFileTraceEncoder
@enduml

@startuml DLT.WriterControl

class DltTraceEncoder<TLine:DltTraceLineBase> {
    +Encode(buffer: Span<byte>, line: DltTraceLineBase): int
}

interface IDltEncoder<TLine:DltTraceLineBase> {
   +Encode(buffer: Span<byte>, line: TLine): int
}
DltTraceEncoder *-d- IDltEncoder

class ControlDltEncoder {
   +Encode(buffer: Span<byte>, line: DltControlTraceLine): int
}
IDltEncoder <|.d. ControlDltEncoder : TLine -> DltControlTraceLine

interface IControlArgEncoder {
    +Encode(buffer: Span<byte>, msbf: bool, arg: IControlArg): int
}

class ControlArgEncoder {
    +Encode(buffer: Span<byte>, msbf: bool, arg: IControlArg): int
}
IControlArgEncoder <|.d. ControlArgEncoder : TLine -> DltControlTraceLine
ControlDltEncoder *-r- ControlArgEncoder

class GetSoftwareVersionRequestEncoder
class GetSoftwareVersionResponseEncoder
class SetTraceStatusRequestEncoder
class SetTraceStatusResponseEncoder
class GetTraceStatusRequestEncoder
class GetTraceStatusResponseEncoder

IControlArgEncoder <|..d. GetSoftwareVersionRequestEncoder
IControlArgEncoder <|..d. GetSoftwareVersionResponseEncoder
IControlArgEncoder <|..d. SetTraceStatusRequestEncoder
IControlArgEncoder <|..d. SetTraceStatusResponseEncoder
IControlArgEncoder <|..d. GetTraceStatusRequestEncoder
IControlArgEncoder <|..d. GetTraceStatusResponseEncoder

ControlArgEncoder *-d- GetSoftwareVersionRequestEncoder
ControlArgEncoder *-d- GetSoftwareVersionResponseEncoder
ControlArgEncoder *-d- SetTraceStatusRequestEncoder
ControlArgEncoder *-d- SetTraceStatusResponseEncoder
ControlArgEncoder *-d- GetTraceStatusRequestEncoder
ControlArgEncoder *-d- GetTraceStatusResponseEncoder






@enduml

PlantUML version 1.2022.1(Tue Feb 01 19:19:58 CET 2022)
(GPL source distribution)
Java Runtime: Java(TM) SE Runtime Environment
JVM: Java HotSpot(TM) Client VM
Default Encoding: Cp1252
Language: en
Country: US
--></g></svg>