<?xml version="1.0" encoding="us-ascii" standalone="no"?><svg xmlns="http://www.w3.org/2000/svg" xmlns:xlink="http://www.w3.org/1999/xlink" contentStyleType="text/css" height="456px" preserveAspectRatio="none" style="width:1935px;height:456px;background:#FFFFFF;" version="1.1" viewBox="0 0 1935 456" width="1935px" zoomAndPan="magnify"><defs/><g><!--class DltTraceEncoder--><g id="elem_DltTraceEncoder"><rect codeLine="2" fill="#F1F1F1" height="64.2969" id="DltTraceEncoder" rx="2.5" ry="2.5" style="stroke:#181818;stroke-width:0.5;" width="483" x="7" y="10"/><ellipse cx="112.25" cy="26" fill="#ADD1B2" rx="11" ry="11" style="stroke:#181818;stroke-width:1.0;"/><path d="M115.2188,31.6406 Q114.6406,31.9375 114,32.0781 Q113.3594,32.2344 112.6563,32.2344 Q110.1563,32.2344 108.8281,30.5938 Q107.5156,28.9375 107.5156,25.8125 Q107.5156,22.6875 108.8281,21.0313 Q110.1563,19.375 112.6563,19.375 Q113.3594,19.375 114,19.5313 Q114.6563,19.6875 115.2188,19.9844 L115.2188,22.7031 Q114.5938,22.125 114,21.8594 Q113.4063,21.5781 112.7813,21.5781 Q111.4375,21.5781 110.75,22.6563 Q110.0625,23.7188 110.0625,25.8125 Q110.0625,27.9063 110.75,28.9844 Q111.4375,30.0469 112.7813,30.0469 Q113.4063,30.0469 114,29.7813 Q114.5938,29.5 115.2188,28.9219 L115.2188,31.6406 Z " fill="#000000"/><text fill="#000000" font-family="sans-serif" font-size="14" lengthAdjust="spacing" textLength="116" x="132.75" y="30.8467">DltTraceEncoder</text><rect fill="#FFFFFF" height="15.9688" style="stroke:#181818;stroke-width:1.0;stroke-dasharray:2.0,2.0;" width="146" x="347" y="7"/><text fill="#000000" font-family="sans-serif" font-size="12" font-style="italic" lengthAdjust="spacing" textLength="144" x="348" y="19.1387">TLine:DltTraceLineBase</text><line style="stroke:#181818;stroke-width:0.5;" x1="8" x2="489" y1="42" y2="42"/><line style="stroke:#181818;stroke-width:0.5;" x1="8" x2="489" y1="50" y2="50"/><ellipse cx="18" cy="63.6484" fill="#84BE84" rx="3" ry="3" style="stroke:#038048;stroke-width:1.0;"/><text fill="#000000" font-family="sans-serif" font-size="14" lengthAdjust="spacing" textLength="457" x="27" y="66.9951">Encode(buffer: Span&lt;byte&gt;, line: DltTraceLineBase): Result&lt;int&gt;</text></g><!--class IDltEncoder--><g id="elem_IDltEncoder"><rect codeLine="6" fill="#F1F1F1" height="64.2969" id="IDltEncoder" rx="2.5" ry="2.5" style="stroke:#181818;stroke-width:0.5;" width="399" x="49" y="135.3"/><ellipse cx="130.25" cy="151.3" fill="#B4A7E5" rx="11" ry="11" style="stroke:#181818;stroke-width:1.0;"/><path d="M126.1719,147.0656 L126.1719,144.9094 L133.5625,144.9094 L133.5625,147.0656 L131.0938,147.0656 L131.0938,155.1438 L133.5625,155.1438 L133.5625,157.3 L126.1719,157.3 L126.1719,155.1438 L128.6406,155.1438 L128.6406,147.0656 L126.1719,147.0656 Z " fill="#000000"/><text fill="#000000" font-family="sans-serif" font-size="14" font-style="italic" lengthAdjust="spacing" textLength="80" x="150.75" y="156.1467">IDltEncoder</text><rect fill="#FFFFFF" height="15.9688" style="stroke:#181818;stroke-width:1.0;stroke-dasharray:2.0,2.0;" width="146" x="305" y="132.3"/><text fill="#000000" font-family="sans-serif" font-size="12" font-style="italic" lengthAdjust="spacing" textLength="144" x="306" y="144.4387">TLine:DltTraceLineBase</text><line style="stroke:#181818;stroke-width:0.5;" x1="50" x2="447" y1="167.3" y2="167.3"/><line style="stroke:#181818;stroke-width:0.5;" x1="50" x2="447" y1="175.3" y2="175.3"/><ellipse cx="60" cy="188.9484" fill="#84BE84" rx="3" ry="3" style="stroke:#038048;stroke-width:1.0;"/><text fill="#000000" font-family="sans-serif" font-size="14" lengthAdjust="spacing" textLength="373" x="69" y="192.2951">Encode(buffer: Span&lt;byte&gt;, line: TLine): Result&lt;int&gt;</text></g><!--class ControlDltEncoder--><g id="elem_ControlDltEncoder"><rect codeLine="11" fill="#F1F1F1" height="64.2969" id="ControlDltEncoder" rx="2.5" ry="2.5" style="stroke:#181818;stroke-width:0.5;" width="430" x="33.5" y="276.59"/><ellipse cx="180.75" cy="292.59" fill="#ADD1B2" rx="11" ry="11" style="stroke:#181818;stroke-width:1.0;"/><path d="M183.7188,298.2306 Q183.1406,298.5275 182.5,298.6681 Q181.8594,298.8244 181.1563,298.8244 Q178.6563,298.8244 177.3281,297.1838 Q176.0156,295.5275 176.0156,292.4025 Q176.0156,289.2775 177.3281,287.6213 Q178.6563,285.965 181.1563,285.965 Q181.8594,285.965 182.5,286.1213 Q183.1563,286.2775 183.7188,286.5744 L183.7188,289.2931 Q183.0938,288.715 182.5,288.4494 Q181.9063,288.1681 181.2813,288.1681 Q179.9375,288.1681 179.25,289.2463 Q178.5625,290.3088 178.5625,292.4025 Q178.5625,294.4963 179.25,295.5744 Q179.9375,296.6369 181.2813,296.6369 Q181.9063,296.6369 182.5,296.3713 Q183.0938,296.09 183.7188,295.5119 L183.7188,298.2306 Z " fill="#000000"/><text fill="#000000" font-family="sans-serif" font-size="14" lengthAdjust="spacing" textLength="127" x="201.25" y="297.4367">ControlDltEncoder</text><line style="stroke:#181818;stroke-width:0.5;" x1="34.5" x2="462.5" y1="308.59" y2="308.59"/><line style="stroke:#181818;stroke-width:0.5;" x1="34.5" x2="462.5" y1="316.59" y2="316.59"/><ellipse cx="44.5" cy="330.2384" fill="#84BE84" rx="3" ry="3" style="stroke:#038048;stroke-width:1.0;"/><text fill="#000000" font-family="sans-serif" font-size="14" lengthAdjust="spacing" textLength="404" x="53.5" y="333.5851">Encode(buffer: Span&lt;byte&gt;, line: DltControlTraceLine): int</text></g><!--class IControlArgEncoder--><g id="elem_IControlArgEncoder"><rect codeLine="16" fill="#F1F1F1" height="64.2969" id="IControlArgEncoder" rx="2.5" ry="2.5" style="stroke:#181818;stroke-width:0.5;" width="517" x="688" y="135.3"/><ellipse cx="875.25" cy="151.3" fill="#B4A7E5" rx="11" ry="11" style="stroke:#181818;stroke-width:1.0;"/><path d="M871.1719,147.0656 L871.1719,144.9094 L878.5625,144.9094 L878.5625,147.0656 L876.0938,147.0656 L876.0938,155.1438 L878.5625,155.1438 L878.5625,157.3 L871.1719,157.3 L871.1719,155.1438 L873.6406,155.1438 L873.6406,147.0656 L871.1719,147.0656 Z " fill="#000000"/><text fill="#000000" font-family="sans-serif" font-size="14" font-style="italic" lengthAdjust="spacing" textLength="134" x="895.75" y="156.1467">IControlArgEncoder</text><line style="stroke:#181818;stroke-width:0.5;" x1="689" x2="1204" y1="167.3" y2="167.3"/><line style="stroke:#181818;stroke-width:0.5;" x1="689" x2="1204" y1="175.3" y2="175.3"/><ellipse cx="699" cy="188.9484" fill="#84BE84" rx="3" ry="3" style="stroke:#038048;stroke-width:1.0;"/><text fill="#000000" font-family="sans-serif" font-size="14" lengthAdjust="spacing" textLength="491" x="708" y="192.2951">Encode(buffer: Span&lt;byte&gt;, msbf: bool, arg: IControlArg): Result&lt;int&gt;</text></g><!--class ControlArgEncoder--><g id="elem_ControlArgEncoder"><rect codeLine="20" fill="#F1F1F1" height="64.2969" id="ControlArgEncoder" rx="2.5" ry="2.5" style="stroke:#181818;stroke-width:0.5;" width="449" x="722" y="276.59"/><ellipse cx="876.75" cy="292.59" fill="#ADD1B2" rx="11" ry="11" style="stroke:#181818;stroke-width:1.0;"/><path d="M879.7188,298.2306 Q879.1406,298.5275 878.5,298.6681 Q877.8594,298.8244 877.1563,298.8244 Q874.6563,298.8244 873.3281,297.1838 Q872.0156,295.5275 872.0156,292.4025 Q872.0156,289.2775 873.3281,287.6213 Q874.6563,285.965 877.1563,285.965 Q877.8594,285.965 878.5,286.1213 Q879.1563,286.2775 879.7188,286.5744 L879.7188,289.2931 Q879.0938,288.715 878.5,288.4494 Q877.9063,288.1681 877.2813,288.1681 Q875.9375,288.1681 875.25,289.2463 Q874.5625,290.3088 874.5625,292.4025 Q874.5625,294.4963 875.25,295.5744 Q875.9375,296.6369 877.2813,296.6369 Q877.9063,296.6369 878.5,296.3713 Q879.0938,296.09 879.7188,295.5119 L879.7188,298.2306 Z " fill="#000000"/><text fill="#000000" font-family="sans-serif" font-size="14" lengthAdjust="spacing" textLength="131" x="897.25" y="297.4367">ControlArgEncoder</text><line style="stroke:#181818;stroke-width:0.5;" x1="723" x2="1170" y1="308.59" y2="308.59"/><line style="stroke:#181818;stroke-width:0.5;" x1="723" x2="1170" y1="316.59" y2="316.59"/><ellipse cx="733" cy="330.2384" fill="#84BE84" rx="3" ry="3" style="stroke:#038048;stroke-width:1.0;"/><text fill="#000000" font-family="sans-serif" font-size="14" lengthAdjust="spacing" textLength="423" x="742" y="333.5851">Encode(buffer: Span&lt;byte&gt;, msbf: bool, arg: IControlArg): int</text></g><!--class GetSoftwareVersionRequestEncoder--><g id="elem_GetSoftwareVersionRequestEncoder"><rect codeLine="26" fill="#F1F1F1" height="48" id="GetSoftwareVersionRequestEncoder" rx="2.5" ry="2.5" style="stroke:#181818;stroke-width:0.5;" width="286" x="1338.5" y="401.89"/><ellipse cx="1353.5" cy="417.89" fill="#ADD1B2" rx="11" ry="11" style="stroke:#181818;stroke-width:1.0;"/><path d="M1356.4688,423.5306 Q1355.8906,423.8275 1355.25,423.9681 Q1354.6094,424.1244 1353.9063,424.1244 Q1351.4063,424.1244 1350.0781,422.4838 Q1348.7656,420.8275 1348.7656,417.7025 Q1348.7656,414.5775 1350.0781,412.9213 Q1351.4063,411.265 1353.9063,411.265 Q1354.6094,411.265 1355.25,411.4213 Q1355.9063,411.5775 1356.4688,411.8744 L1356.4688,414.5931 Q1355.8438,414.015 1355.25,413.7494 Q1354.6563,413.4681 1354.0313,413.4681 Q1352.6875,413.4681 1352,414.5463 Q1351.3125,415.6088 1351.3125,417.7025 Q1351.3125,419.7963 1352,420.8744 Q1352.6875,421.9369 1354.0313,421.9369 Q1354.6563,421.9369 1355.25,421.6713 Q1355.8438,421.39 1356.4688,420.8119 L1356.4688,423.5306 Z " fill="#000000"/><text fill="#000000" font-family="sans-serif" font-size="14" lengthAdjust="spacing" textLength="254" x="1367.5" y="422.7367">GetSoftwareVersionRequestEncoder</text><line style="stroke:#181818;stroke-width:0.5;" x1="1339.5" x2="1623.5" y1="433.89" y2="433.89"/><line style="stroke:#181818;stroke-width:0.5;" x1="1339.5" x2="1623.5" y1="441.89" y2="441.89"/></g><!--class GetSoftwareVersionResponseEncoder--><g id="elem_GetSoftwareVersionResponseEncoder"><rect codeLine="27" fill="#F1F1F1" height="48" id="GetSoftwareVersionResponseEncoder" rx="2.5" ry="2.5" style="stroke:#181818;stroke-width:0.5;" width="298" x="413.5" y="401.89"/><ellipse cx="428.5" cy="417.89" fill="#ADD1B2" rx="11" ry="11" style="stroke:#181818;stroke-width:1.0;"/><path d="M431.4688,423.5306 Q430.8906,423.8275 430.25,423.9681 Q429.6094,424.1244 428.9063,424.1244 Q426.4063,424.1244 425.0781,422.4838 Q423.7656,420.8275 423.7656,417.7025 Q423.7656,414.5775 425.0781,412.9213 Q426.4063,411.265 428.9063,411.265 Q429.6094,411.265 430.25,411.4213 Q430.9063,411.5775 431.4688,411.8744 L431.4688,414.5931 Q430.8438,414.015 430.25,413.7494 Q429.6563,413.4681 429.0313,413.4681 Q427.6875,413.4681 427,414.5463 Q426.3125,415.6088 426.3125,417.7025 Q426.3125,419.7963 427,420.8744 Q427.6875,421.9369 429.0313,421.9369 Q429.6563,421.9369 430.25,421.6713 Q430.8438,421.39 431.4688,420.8119 L431.4688,423.5306 Z " fill="#000000"/><text fill="#000000" font-family="sans-serif" font-size="14" lengthAdjust="spacing" textLength="266" x="442.5" y="422.7367">GetSoftwareVersionResponseEncoder</text><line style="stroke:#181818;stroke-width:0.5;" x1="414.5" x2="710.5" y1="433.89" y2="433.89"/><line style="stroke:#181818;stroke-width:0.5;" x1="414.5" x2="710.5" y1="441.89" y2="441.89"/></g><!--class SetTraceStatusRequestEncoder--><g id="elem_SetTraceStatusRequestEncoder"><rect codeLine="28" fill="#F1F1F1" height="48" id="SetTraceStatusRequestEncoder" rx="2.5" ry="2.5" style="stroke:#181818;stroke-width:0.5;" width="255" x="747" y="401.89"/><ellipse cx="762" cy="417.89" fill="#ADD1B2" rx="11" ry="11" style="stroke:#181818;stroke-width:1.0;"/><path d="M764.9688,423.5306 Q764.3906,423.8275 763.75,423.9681 Q763.1094,424.1244 762.4063,424.1244 Q759.9063,424.1244 758.5781,422.4838 Q757.2656,420.8275 757.2656,417.7025 Q757.2656,414.5775 758.5781,412.9213 Q759.9063,411.265 762.4063,411.265 Q763.1094,411.265 763.75,411.4213 Q764.4063,411.5775 764.9688,411.8744 L764.9688,414.5931 Q764.3438,414.015 763.75,413.7494 Q763.1563,413.4681 762.5313,413.4681 Q761.1875,413.4681 760.5,414.5463 Q759.8125,415.6088 759.8125,417.7025 Q759.8125,419.7963 760.5,420.8744 Q761.1875,421.9369 762.5313,421.9369 Q763.1563,421.9369 763.75,421.6713 Q764.3438,421.39 764.9688,420.8119 L764.9688,423.5306 Z " fill="#000000"/><text fill="#000000" font-family="sans-serif" font-size="14" lengthAdjust="spacing" textLength="223" x="776" y="422.7367">SetTraceStatusRequestEncoder</text><line style="stroke:#181818;stroke-width:0.5;" x1="748" x2="1001" y1="433.89" y2="433.89"/><line style="stroke:#181818;stroke-width:0.5;" x1="748" x2="1001" y1="441.89" y2="441.89"/></g><!--class SetTraceStatusResponseEncoder--><g id="elem_SetTraceStatusResponseEncoder"><rect codeLine="29" fill="#F1F1F1" height="48" id="SetTraceStatusResponseEncoder" rx="2.5" ry="2.5" style="stroke:#181818;stroke-width:0.5;" width="267" x="1037" y="401.89"/><ellipse cx="1052" cy="417.89" fill="#ADD1B2" rx="11" ry="11" style="stroke:#181818;stroke-width:1.0;"/><path d="M1054.9688,423.5306 Q1054.3906,423.8275 1053.75,423.9681 Q1053.1094,424.1244 1052.4063,424.1244 Q1049.9063,424.1244 1048.5781,422.4838 Q1047.2656,420.8275 1047.2656,417.7025 Q1047.2656,414.5775 1048.5781,412.9213 Q1049.9063,411.265 1052.4063,411.265 Q1053.1094,411.265 1053.75,411.4213 Q1054.4063,411.5775 1054.9688,411.8744 L1054.9688,414.5931 Q1054.3438,414.015 1053.75,413.7494 Q1053.1563,413.4681 1052.5313,413.4681 Q1051.1875,413.4681 1050.5,414.5463 Q1049.8125,415.6088 1049.8125,417.7025 Q1049.8125,419.7963 1050.5,420.8744 Q1051.1875,421.9369 1052.5313,421.9369 Q1053.1563,421.9369 1053.75,421.6713 Q1054.3438,421.39 1054.9688,420.8119 L1054.9688,423.5306 Z " fill="#000000"/><text fill="#000000" font-family="sans-serif" font-size="14" lengthAdjust="spacing" textLength="235" x="1066" y="422.7367">SetTraceStatusResponseEncoder</text><line style="stroke:#181818;stroke-width:0.5;" x1="1038" x2="1303" y1="433.89" y2="433.89"/><line style="stroke:#181818;stroke-width:0.5;" x1="1038" x2="1303" y1="441.89" y2="441.89"/></g><!--class GetTraceStatusRequestEncoder--><g id="elem_GetTraceStatusRequestEncoder"><rect codeLine="30" fill="#F1F1F1" height="48" id="GetTraceStatusRequestEncoder" rx="2.5" ry="2.5" style="stroke:#181818;stroke-width:0.5;" width="257" x="122" y="401.89"/><ellipse cx="137" cy="417.89" fill="#ADD1B2" rx="11" ry="11" style="stroke:#181818;stroke-width:1.0;"/><path d="M139.9688,423.5306 Q139.3906,423.8275 138.75,423.9681 Q138.1094,424.1244 137.4063,424.1244 Q134.9063,424.1244 133.5781,422.4838 Q132.2656,420.8275 132.2656,417.7025 Q132.2656,414.5775 133.5781,412.9213 Q134.9063,411.265 137.4063,411.265 Q138.1094,411.265 138.75,411.4213 Q139.4063,411.5775 139.9688,411.8744 L139.9688,414.5931 Q139.3438,414.015 138.75,413.7494 Q138.1563,413.4681 137.5313,413.4681 Q136.1875,413.4681 135.5,414.5463 Q134.8125,415.6088 134.8125,417.7025 Q134.8125,419.7963 135.5,420.8744 Q136.1875,421.9369 137.5313,421.9369 Q138.1563,421.9369 138.75,421.6713 Q139.3438,421.39 139.9688,420.8119 L139.9688,423.5306 Z " fill="#000000"/><text fill="#000000" font-family="sans-serif" font-size="14" lengthAdjust="spacing" textLength="225" x="151" y="422.7367">GetTraceStatusRequestEncoder</text><line style="stroke:#181818;stroke-width:0.5;" x1="123" x2="378" y1="433.89" y2="433.89"/><line style="stroke:#181818;stroke-width:0.5;" x1="123" x2="378" y1="441.89" y2="441.89"/></g><!--class GetTraceStatusResponseEncoder--><g id="elem_GetTraceStatusResponseEncoder"><rect codeLine="31" fill="#F1F1F1" height="48" id="GetTraceStatusResponseEncoder" rx="2.5" ry="2.5" style="stroke:#181818;stroke-width:0.5;" width="269" x="1659" y="401.89"/><ellipse cx="1674" cy="417.89" fill="#ADD1B2" rx="11" ry="11" style="stroke:#181818;stroke-width:1.0;"/><path d="M1676.9688,423.5306 Q1676.3906,423.8275 1675.75,423.9681 Q1675.1094,424.1244 1674.4063,424.1244 Q1671.9063,424.1244 1670.5781,422.4838 Q1669.2656,420.8275 1669.2656,417.7025 Q1669.2656,414.5775 1670.5781,412.9213 Q1671.9063,411.265 1674.4063,411.265 Q1675.1094,411.265 1675.75,411.4213 Q1676.4063,411.5775 1676.9688,411.8744 L1676.9688,414.5931 Q1676.3438,414.015 1675.75,413.7494 Q1675.1563,413.4681 1674.5313,413.4681 Q1673.1875,413.4681 1672.5,414.5463 Q1671.8125,415.6088 1671.8125,417.7025 Q1671.8125,419.7963 1672.5,420.8744 Q1673.1875,421.9369 1674.5313,421.9369 Q1675.1563,421.9369 1675.75,421.6713 Q1676.3438,421.39 1676.9688,420.8119 L1676.9688,423.5306 Z " fill="#000000"/><text fill="#000000" font-family="sans-serif" font-size="14" lengthAdjust="spacing" textLength="237" x="1688" y="422.7367">GetTraceStatusResponseEncoder</text><line style="stroke:#181818;stroke-width:0.5;" x1="1660" x2="1927" y1="433.89" y2="433.89"/><line style="stroke:#181818;stroke-width:0.5;" x1="1660" x2="1927" y1="441.89" y2="441.89"/></g><!--reverse link DltTraceEncoder to IDltEncoder--><g id="link_DltTraceEncoder_IDltEncoder"><path codeLine="9" d="M248.5,88.3 C248.5,103.83 248.5,120.88 248.5,135.07 " fill="none" id="DltTraceEncoder-backto-IDltEncoder" style="stroke:#181818;stroke-width:1.0;"/><polygon fill="#181818" points="248.5,75.58,244.5,81.58,248.5,87.58,252.5,81.58,248.5,75.58" style="stroke:#181818;stroke-width:1.0;"/></g><!--reverse link IDltEncoder to ControlDltEncoder--><g id="link_IDltEncoder_ControlDltEncoder"><path codeLine="14" d="M248.5,220.8 C248.5,239.46 248.5,259.89 248.5,276.26 " fill="none" id="IDltEncoder-backto-ControlDltEncoder" style="stroke:#181818;stroke-width:1.0;stroke-dasharray:7.0,7.0;"/><polygon fill="none" points="241.5,221.05,248.5,201.05,255.5,221.05,241.5,221.05" style="stroke:#181818;stroke-width:1.0;"/><text fill="#000000" font-family="sans-serif" font-size="13" lengthAdjust="spacing" textLength="182" x="249.5" y="242.6569">TLine -&gt; DltControlTraceLine</text></g><!--reverse link IControlArgEncoder to ControlArgEncoder--><g id="link_IControlArgEncoder_ControlArgEncoder"><path codeLine="23" d="M946.5,220.8 C946.5,239.46 946.5,259.89 946.5,276.26 " fill="none" id="IControlArgEncoder-backto-ControlArgEncoder" style="stroke:#181818;stroke-width:1.0;stroke-dasharray:7.0,7.0;"/><polygon fill="none" points="939.5,221.05,946.5,201.05,953.5,221.05,939.5,221.05" style="stroke:#181818;stroke-width:1.0;"/></g><!--reverse link ControlDltEncoder to ControlArgEncoder--><g id="link_ControlDltEncoder_ControlArgEncoder"><path codeLine="24" d="M477.74,308.74 C559.06,308.74 640.38,308.74 721.69,308.74 " fill="none" id="ControlDltEncoder-backto-ControlArgEncoder" style="stroke:#181818;stroke-width:1.0;"/><polygon fill="#181818" points="464.9,308.74,470.9,312.74,476.9,308.74,470.9,304.74,464.9,308.74" style="stroke:#181818;stroke-width:1.0;"/></g><!--reverse link IControlArgEncoder to GetSoftwareVersionRequestEncoder--><g id="link_IControlArgEncoder_GetSoftwareVersionRequestEncoder"><path codeLine="33" d="M1113.68,206.01 C1135.51,212.85 1157.3,220.69 1177.5,229.59 C1286,277.38 1399.99,361.06 1452.23,401.58 " fill="none" id="IControlArgEncoder-backto-GetSoftwareVersionRequestEncoder" style="stroke:#181818;stroke-width:1.0;stroke-dasharray:7.0,7.0;"/><polygon fill="none" points="1111.8,212.46,1094.66,200.01,1115.82,199.05,1111.8,212.46" style="stroke:#181818;stroke-width:1.0;"/></g><!--reverse link IControlArgEncoder to GetSoftwareVersionResponseEncoder--><g id="link_IControlArgEncoder_GetSoftwareVersionResponseEncoder"><path codeLine="34" d="M765.11,207.71 C750.53,213.97 736.45,221.21 723.5,229.59 C653.41,274.96 598.68,360.56 575.11,401.69 " fill="none" id="IControlArgEncoder-backto-GetSoftwareVersionResponseEncoder" style="stroke:#181818;stroke-width:1.0;stroke-dasharray:7.0,7.0;"/><polygon fill="none" points="762.35,200.88,783.53,200.04,767.5,213.9,762.35,200.88" style="stroke:#181818;stroke-width:1.0;"/></g><!--reverse link IControlArgEncoder to SetTraceStatusRequestEncoder--><g id="link_IControlArgEncoder_SetTraceStatusRequestEncoder"><path codeLine="35" d="M787.45,208.47 C754.69,224.26 724.21,246.19 704.5,276.59 C688.95,300.57 689.42,316.62 704.5,340.89 C722.31,369.55 753.11,388.73 783.64,401.42 " fill="none" id="IControlArgEncoder-backto-SetTraceStatusRequestEncoder" style="stroke:#181818;stroke-width:1.0;stroke-dasharray:7.0,7.0;"/><polygon fill="none" points="784.26,201.78,805.38,200.08,789.93,214.58,784.26,201.78" style="stroke:#181818;stroke-width:1.0;"/></g><!--reverse link IControlArgEncoder to SetTraceStatusResponseEncoder--><g id="link_IControlArgEncoder_SetTraceStatusResponseEncoder"><path codeLine="36" d="M1105.55,208.47 C1138.31,224.26 1168.79,246.19 1188.5,276.59 C1213.26,314.78 1195.61,370.31 1182.07,401.45 " fill="none" id="IControlArgEncoder-backto-SetTraceStatusResponseEncoder" style="stroke:#181818;stroke-width:1.0;stroke-dasharray:7.0,7.0;"/><polygon fill="none" points="1103.07,214.58,1087.62,200.08,1108.74,201.78,1103.07,214.58" style="stroke:#181818;stroke-width:1.0;"/></g><!--reverse link IControlArgEncoder to GetTraceStatusRequestEncoder--><g id="link_IControlArgEncoder_GetTraceStatusRequestEncoder"><path codeLine="37" d="M770.37,205.4 C744.61,212.47 718.65,220.54 694.5,229.59 C594.12,267.24 578.61,297.68 480.5,340.89 C428.47,363.81 368.02,385.71 322.16,401.4 " fill="none" id="IControlArgEncoder-backto-GetTraceStatusRequestEncoder" style="stroke:#181818;stroke-width:1.0;stroke-dasharray:7.0,7.0;"/><polygon fill="none" points="768.33,198.44,789.46,200.08,771.92,211.97,768.33,198.44" style="stroke:#181818;stroke-width:1.0;"/></g><!--reverse link IControlArgEncoder to GetTraceStatusResponseEncoder--><g id="link_IControlArgEncoder_GetTraceStatusResponseEncoder"><path codeLine="38" d="M1123.15,204.7 C1156,212.3 1189.92,220.72 1221.5,229.59 C1410.41,282.67 1628.55,362.41 1732.41,401.54 " fill="none" id="IControlArgEncoder-backto-GetTraceStatusResponseEncoder" style="stroke:#181818;stroke-width:1.0;stroke-dasharray:7.0,7.0;"/><polygon fill="none" points="1121.81,211.35,1103.86,200.08,1124.92,197.69,1121.81,211.35" style="stroke:#181818;stroke-width:1.0;"/></g><!--reverse link ControlArgEncoder to GetSoftwareVersionRequestEncoder--><g id="link_ControlArgEncoder_GetSoftwareVersionRequestEncoder"><path codeLine="40" d="M1107.02,344.29 C1192.86,362.77 1296.3,385.03 1372.69,401.47 " fill="none" id="ControlArgEncoder-backto-GetSoftwareVersionRequestEncoder" style="stroke:#181818;stroke-width:1.0;"/><polygon fill="#181818" points="1094.4,341.36,1099.4204,346.5365,1106.1296,343.8933,1101.1092,338.7168,1094.4,341.36" style="stroke:#181818;stroke-width:1.0;"/></g><!--reverse link ControlArgEncoder to GetSoftwareVersionResponseEncoder--><g id="link_ControlArgEncoder_GetSoftwareVersionResponseEncoder"><path codeLine="41" d="M827.85,345.32 C766.93,363.59 694.41,385.33 640.6,401.47 " fill="none" id="ControlArgEncoder-backto-GetSoftwareVersionResponseEncoder" style="stroke:#181818;stroke-width:1.0;"/><polygon fill="#181818" points="840.06,341.36,833.1628,339.2557,828.5675,344.813,835.4648,346.9173,840.06,341.36" style="stroke:#181818;stroke-width:1.0;"/></g><!--reverse link ControlArgEncoder to SetTraceStatusRequestEncoder--><g id="link_ControlArgEncoder_SetTraceStatusRequestEncoder"><path codeLine="42" d="M919.56,352.83 C909.24,369.33 897.86,387.52 889.12,401.5 " fill="none" id="ControlArgEncoder-backto-SetTraceStatusRequestEncoder" style="stroke:#181818;stroke-width:1.0;"/><polygon fill="#181818" points="926.83,342.21,920.2577,345.1772,920.4688,352.3852,927.0412,349.418,926.83,342.21" style="stroke:#181818;stroke-width:1.0;"/></g><!--reverse link ControlArgEncoder to SetTraceStatusResponseEncoder--><g id="link_ControlArgEncoder_SetTraceStatusResponseEncoder"><path codeLine="43" d="M1020.01,347.53 C1054.69,365.36 1094.96,386.06 1125.12,401.56 " fill="none" id="ControlArgEncoder-backto-SetTraceStatusResponseEncoder" style="stroke:#181818;stroke-width:1.0;"/><polygon fill="#181818" points="1009.01,341.36,1012.5167,347.661,1019.6818,346.8476,1016.1751,340.5465,1009.01,341.36" style="stroke:#181818;stroke-width:1.0;"/></g><!--reverse link ControlArgEncoder to GetTraceStatusRequestEncoder--><g id="link_ControlArgEncoder_GetTraceStatusRequestEncoder"><path codeLine="44" d="M741.59,343.64 C624.34,363.04 480.85,386.78 379.33,403.58 " fill="none" id="ControlArgEncoder-backto-GetTraceStatusRequestEncoder" style="stroke:#181818;stroke-width:1.0;"/><polygon fill="#181818" points="754.39,341.36,747.8194,338.3889,742.5497,343.3114,749.1203,346.2825,754.39,341.36" style="stroke:#181818;stroke-width:1.0;"/></g><!--reverse link ControlArgEncoder to GetTraceStatusResponseEncoder--><g id="link_ControlArgEncoder_GetTraceStatusResponseEncoder"><path codeLine="45" d="M1184.92,340.25 C1319.13,357.71 1489.75,380.35 1641.5,401.89 C1647.18,402.7 1652.98,403.53 1658.84,404.38 " fill="none" id="ControlArgEncoder-backto-GetTraceStatusResponseEncoder" style="stroke:#181818;stroke-width:1.0;"/><polygon fill="#181818" points="1172.22,338.47,1177.6504,343.2145,1184.1186,340.0266,1178.6882,335.2821,1172.22,338.47" style="stroke:#181818;stroke-width:1.0;"/></g><!--SRC=[hPHVQuCm5CNVyodkuzRLVW0HOLkB3FPKozwZNekG9MqI6MFRTr-qhZN-JSjy4PDppk_cAAQCAWLhfdUIfhZXgSXG1hlNWgF_jrezF5658NmHCDV3INQNb7cEqeVuG7cGV6eCby0g8tITzpviKPLC1mNN8VaXnDnHvaO2BqRin9t7rlOUgtCuM7YPrwOIajObF0kkfM2N3LUiSJJUyzXc24Cty1O7WkzLjXh0D8E35mv5MLqrcuzoRyquEUIxId8V4Y7O4gZS- -sK_eknklXFJjD7FzcgvR9E-aKjFEaD29kP8zInoFK7bVY6KXM2R_5OeZg_vt6PEWYkqDR5UFfiOarrgGQZkfAXc6W-9fgC6QciwcpsnDTPRUwuTx8PTvihBheDDzDgtrV_5sOhlS9d4qUCasKwUfn0qGsWwGv_0G00]--></g></svg>