<?xml version="1.0" encoding="UTF-8" standalone="no"?><svg xmlns="http://www.w3.org/2000/svg" xmlns:xlink="http://www.w3.org/1999/xlink" contentScriptType="application/ecmascript" contentStyleType="text/css" height="458px" preserveAspectRatio="none" style="width:1586px;height:458px;background:#FFFFFF;" version="1.1" viewBox="0 0 1586 458" width="1586px" zoomAndPan="magnify"><defs><filter height="300%" id="f2lxgs1d9h17e" width="300%" x="-1" y="-1"><feGaussianBlur result="blurOut" stdDeviation="2.0"/><feColorMatrix in="blurOut" result="blurOut2" type="matrix" values="0 0 0 0 0 0 0 0 0 0 0 0 0 0 0 0 0 0 .4 0"/><feOffset dx="4.0" dy="4.0" in="blurOut2" result="blurOut3"/><feBlend in="SourceGraphic" in2="blurOut3" mode="normal"/></filter></defs><g><!--MD5=[11363600cc92b2fece27b28de66320bf]
class DltTraceEncoder--><rect codeLine="2" fill="#FEFECE" filter="url(#f2lxgs1d9h17e)" height="61.8359" id="DltTraceEncoder" style="stroke:#A80036;stroke-width:1.5;" width="336" x="7" y="10"/><ellipse cx="56.75" cy="26" fill="#ADD1B2" rx="11" ry="11" style="stroke:#A80036;stroke-width:1.0;"/><path d="M59.5156,21.875 Q59.6719,21.6563 59.8594,21.5469 Q60.0469,21.4375 60.2656,21.4375 Q60.6406,21.4375 60.875,21.6953 Q61.1094,21.9531 61.1094,22.5625 L61.1094,24.0156 Q61.1094,24.625 60.875,24.8906 Q60.6406,25.1563 60.2656,25.1563 Q59.9219,25.1563 59.7188,24.9531 Q59.5156,24.7656 59.4063,24.25 Q59.3594,23.8906 59.1719,23.7031 Q58.8438,23.3281 58.2344,23.1094 Q57.625,22.8906 57,22.8906 Q56.2344,22.8906 55.6016,23.2188 Q54.9688,23.5469 54.4766,24.2969 Q53.9844,25.0469 53.9844,26.0781 L53.9844,27.1719 Q53.9844,28.4063 54.875,29.2266 Q55.7656,30.0469 57.3594,30.0469 Q58.2969,30.0469 58.9531,29.7969 Q59.3438,29.6406 59.7656,29.2031 Q60.0313,28.9375 60.1797,28.8594 Q60.3281,28.7813 60.5313,28.7813 Q60.8594,28.7813 61.1172,29.0391 Q61.375,29.2969 61.375,29.6406 Q61.375,29.9844 61.0313,30.3906 Q60.5313,30.9688 59.7344,31.2969 Q58.6563,31.75 57.3594,31.75 Q55.8438,31.75 54.6406,31.125 Q53.6563,30.625 52.9688,29.5547 Q52.2813,28.4844 52.2813,27.2031 L52.2813,26.0469 Q52.2813,24.7188 52.8984,23.5703 Q53.5156,22.4219 54.6094,21.8047 Q55.7031,21.1875 56.9375,21.1875 Q57.6719,21.1875 58.3203,21.3516 Q58.9688,21.5156 59.5156,21.875 Z " fill="#000000"/><text fill="#000000" font-family="sans-serif" font-size="12" lengthAdjust="spacing" textLength="92" x="77.25" y="30.9102">DltTraceEncoder</text><rect fill="#FFFFFF" height="17.0938" style="stroke:#000000;stroke-width:1.0;stroke-dasharray:2.0,2.0;" width="134" x="212" y="7"/><text fill="#000000" font-family="sans-serif" font-size="12" font-style="italic" lengthAdjust="spacing" textLength="132" x="213" y="20.457">TLine:DltTraceLineBase</text><line style="stroke:#A80036;stroke-width:1.5;" x1="8" x2="342" y1="42" y2="42"/><line style="stroke:#A80036;stroke-width:1.5;" x1="8" x2="342" y1="50" y2="50"/><ellipse cx="18" cy="61" fill="#84BE84" rx="3" ry="3" style="stroke:#038048;stroke-width:1.0;"/><text fill="#000000" font-family="sans-serif" font-size="11" lengthAdjust="spacing" textLength="310" x="27" y="65.4189">Encode(buffer: Span&lt;byte&gt;, line: DltTraceLineBase): Result&lt;int&gt;</text><!--MD5=[41fead8911a9e917d46f3318ccce8e3a]
class IDltEncoder--><rect codeLine="6" fill="#FEFECE" filter="url(#f2lxgs1d9h17e)" height="61.8359" id="IDltEncoder" style="stroke:#A80036;stroke-width:1.5;" width="277" x="36.5" y="133"/><ellipse cx="71.3" cy="149" fill="#B4A7E5" rx="11" ry="11" style="stroke:#A80036;stroke-width:1.0;"/><path d="M72.2531,145.6406 L72.2531,152.2969 L73.9719,152.2969 Q74.5813,152.2969 74.8469,152.5313 Q75.1125,152.7656 75.1125,153.1563 Q75.1125,153.5313 74.8469,153.7656 Q74.5813,154 73.9719,154 L68.8313,154 Q68.2219,154 67.9563,153.7656 Q67.6906,153.5313 67.6906,153.1406 Q67.6906,152.7656 67.9563,152.5313 Q68.2219,152.2969 68.8313,152.2969 L70.55,152.2969 L70.55,145.6406 L68.8313,145.6406 Q68.2219,145.6406 67.9563,145.4063 Q67.6906,145.1719 67.6906,144.7813 Q67.6906,144.4063 67.9563,144.1719 Q68.2219,143.9375 68.8313,143.9375 L73.9719,143.9375 Q74.5813,143.9375 74.8469,144.1719 Q75.1125,144.4063 75.1125,144.7813 Q75.1125,145.1719 74.8469,145.4063 Q74.5813,145.6406 73.9719,145.6406 L72.2531,145.6406 Z " fill="#000000"/><text fill="#000000" font-family="sans-serif" font-size="12" font-style="italic" lengthAdjust="spacing" textLength="65" x="89.7" y="153.9102">IDltEncoder</text><rect fill="#FFFFFF" height="17.0938" style="stroke:#000000;stroke-width:1.0;stroke-dasharray:2.0,2.0;" width="134" x="182.5" y="130"/><text fill="#000000" font-family="sans-serif" font-size="12" font-style="italic" lengthAdjust="spacing" textLength="132" x="183.5" y="143.457">TLine:DltTraceLineBase</text><line style="stroke:#A80036;stroke-width:1.5;" x1="37.5" x2="312.5" y1="165" y2="165"/><line style="stroke:#A80036;stroke-width:1.5;" x1="37.5" x2="312.5" y1="173" y2="173"/><ellipse cx="47.5" cy="184" fill="#84BE84" rx="3" ry="3" style="stroke:#038048;stroke-width:1.0;"/><text fill="#000000" font-family="sans-serif" font-size="11" lengthAdjust="spacing" textLength="251" x="56.5" y="188.4189">Encode(buffer: Span&lt;byte&gt;, line: TLine): Result&lt;int&gt;</text><!--MD5=[cc77ca878b90ecde6218281a5db6f25c]
class ControlDltEncoder--><rect codeLine="11" fill="#FEFECE" filter="url(#f2lxgs1d9h17e)" height="61.8359" id="ControlDltEncoder" style="stroke:#A80036;stroke-width:1.5;" width="303" x="23.5" y="273"/><ellipse cx="120.25" cy="289" fill="#ADD1B2" rx="11" ry="11" style="stroke:#A80036;stroke-width:1.0;"/><path d="M123.0156,284.875 Q123.1719,284.6563 123.3594,284.5469 Q123.5469,284.4375 123.7656,284.4375 Q124.1406,284.4375 124.375,284.6953 Q124.6094,284.9531 124.6094,285.5625 L124.6094,287.0156 Q124.6094,287.625 124.375,287.8906 Q124.1406,288.1563 123.7656,288.1563 Q123.4219,288.1563 123.2188,287.9531 Q123.0156,287.7656 122.9063,287.25 Q122.8594,286.8906 122.6719,286.7031 Q122.3438,286.3281 121.7344,286.1094 Q121.125,285.8906 120.5,285.8906 Q119.7344,285.8906 119.1016,286.2188 Q118.4688,286.5469 117.9766,287.2969 Q117.4844,288.0469 117.4844,289.0781 L117.4844,290.1719 Q117.4844,291.4063 118.375,292.2266 Q119.2656,293.0469 120.8594,293.0469 Q121.7969,293.0469 122.4531,292.7969 Q122.8438,292.6406 123.2656,292.2031 Q123.5313,291.9375 123.6797,291.8594 Q123.8281,291.7813 124.0313,291.7813 Q124.3594,291.7813 124.6172,292.0391 Q124.875,292.2969 124.875,292.6406 Q124.875,292.9844 124.5313,293.3906 Q124.0313,293.9688 123.2344,294.2969 Q122.1563,294.75 120.8594,294.75 Q119.3438,294.75 118.1406,294.125 Q117.1563,293.625 116.4688,292.5547 Q115.7813,291.4844 115.7813,290.2031 L115.7813,289.0469 Q115.7813,287.7188 116.3984,286.5703 Q117.0156,285.4219 118.1094,284.8047 Q119.2031,284.1875 120.4375,284.1875 Q121.1719,284.1875 121.8203,284.3516 Q122.4688,284.5156 123.0156,284.875 Z " fill="#000000"/><text fill="#000000" font-family="sans-serif" font-size="12" lengthAdjust="spacing" textLength="101" x="140.75" y="293.9102">ControlDltEncoder</text><line style="stroke:#A80036;stroke-width:1.5;" x1="24.5" x2="325.5" y1="305" y2="305"/><line style="stroke:#A80036;stroke-width:1.5;" x1="24.5" x2="325.5" y1="313" y2="313"/><ellipse cx="34.5" cy="324" fill="#84BE84" rx="3" ry="3" style="stroke:#038048;stroke-width:1.0;"/><text fill="#000000" font-family="sans-serif" font-size="11" lengthAdjust="spacing" textLength="277" x="43.5" y="328.4189">Encode(buffer: Span&lt;byte&gt;, line: DltControlTraceLine): int</text><!--MD5=[909e375f6baf1a97ba05cde89cec0035]
class IControlArgEncoder--><rect codeLine="16" fill="#FEFECE" filter="url(#f2lxgs1d9h17e)" height="61.8359" id="IControlArgEncoder" style="stroke:#A80036;stroke-width:1.5;" width="361" x="565.5" y="133"/><ellipse cx="687.25" cy="149" fill="#B4A7E5" rx="11" ry="11" style="stroke:#A80036;stroke-width:1.0;"/><path d="M688.2031,145.6406 L688.2031,152.2969 L689.9219,152.2969 Q690.5313,152.2969 690.7969,152.5313 Q691.0625,152.7656 691.0625,153.1563 Q691.0625,153.5313 690.7969,153.7656 Q690.5313,154 689.9219,154 L684.7813,154 Q684.1719,154 683.9063,153.7656 Q683.6406,153.5313 683.6406,153.1406 Q683.6406,152.7656 683.9063,152.5313 Q684.1719,152.2969 684.7813,152.2969 L686.5,152.2969 L686.5,145.6406 L684.7813,145.6406 Q684.1719,145.6406 683.9063,145.4063 Q683.6406,145.1719 683.6406,144.7813 Q683.6406,144.4063 683.9063,144.1719 Q684.1719,143.9375 684.7813,143.9375 L689.9219,143.9375 Q690.5313,143.9375 690.7969,144.1719 Q691.0625,144.4063 691.0625,144.7813 Q691.0625,145.1719 690.7969,145.4063 Q690.5313,145.6406 689.9219,145.6406 L688.2031,145.6406 Z " fill="#000000"/><text fill="#000000" font-family="sans-serif" font-size="12" font-style="italic" lengthAdjust="spacing" textLength="109" x="707.75" y="153.9102">IControlArgEncoder</text><line style="stroke:#A80036;stroke-width:1.5;" x1="566.5" x2="925.5" y1="165" y2="165"/><line style="stroke:#A80036;stroke-width:1.5;" x1="566.5" x2="925.5" y1="173" y2="173"/><ellipse cx="576.5" cy="184" fill="#84BE84" rx="3" ry="3" style="stroke:#038048;stroke-width:1.0;"/><text fill="#000000" font-family="sans-serif" font-size="11" lengthAdjust="spacing" textLength="335" x="585.5" y="188.4189">Encode(buffer: Span&lt;byte&gt;, msbf: bool, arg: IControlArg): Result&lt;int&gt;</text><!--MD5=[c399c5ea30f7f56ce51f20d8d921af25]
class ControlArgEncoder--><rect codeLine="20" fill="#FEFECE" filter="url(#f2lxgs1d9h17e)" height="61.8359" id="ControlArgEncoder" style="stroke:#A80036;stroke-width:1.5;" width="319" x="586.5" y="273"/><ellipse cx="689.75" cy="289" fill="#ADD1B2" rx="11" ry="11" style="stroke:#A80036;stroke-width:1.0;"/><path d="M692.5156,284.875 Q692.6719,284.6563 692.8594,284.5469 Q693.0469,284.4375 693.2656,284.4375 Q693.6406,284.4375 693.875,284.6953 Q694.1094,284.9531 694.1094,285.5625 L694.1094,287.0156 Q694.1094,287.625 693.875,287.8906 Q693.6406,288.1563 693.2656,288.1563 Q692.9219,288.1563 692.7188,287.9531 Q692.5156,287.7656 692.4063,287.25 Q692.3594,286.8906 692.1719,286.7031 Q691.8438,286.3281 691.2344,286.1094 Q690.625,285.8906 690,285.8906 Q689.2344,285.8906 688.6016,286.2188 Q687.9688,286.5469 687.4766,287.2969 Q686.9844,288.0469 686.9844,289.0781 L686.9844,290.1719 Q686.9844,291.4063 687.875,292.2266 Q688.7656,293.0469 690.3594,293.0469 Q691.2969,293.0469 691.9531,292.7969 Q692.3438,292.6406 692.7656,292.2031 Q693.0313,291.9375 693.1797,291.8594 Q693.3281,291.7813 693.5313,291.7813 Q693.8594,291.7813 694.1172,292.0391 Q694.375,292.2969 694.375,292.6406 Q694.375,292.9844 694.0313,293.3906 Q693.5313,293.9688 692.7344,294.2969 Q691.6563,294.75 690.3594,294.75 Q688.8438,294.75 687.6406,294.125 Q686.6563,293.625 685.9688,292.5547 Q685.2813,291.4844 685.2813,290.2031 L685.2813,289.0469 Q685.2813,287.7188 685.8984,286.5703 Q686.5156,285.4219 687.6094,284.8047 Q688.7031,284.1875 689.9375,284.1875 Q690.6719,284.1875 691.3203,284.3516 Q691.9688,284.5156 692.5156,284.875 Z " fill="#000000"/><text fill="#000000" font-family="sans-serif" font-size="12" lengthAdjust="spacing" textLength="104" x="710.25" y="293.9102">ControlArgEncoder</text><line style="stroke:#A80036;stroke-width:1.5;" x1="587.5" x2="904.5" y1="305" y2="305"/><line style="stroke:#A80036;stroke-width:1.5;" x1="587.5" x2="904.5" y1="313" y2="313"/><ellipse cx="597.5" cy="324" fill="#84BE84" rx="3" ry="3" style="stroke:#038048;stroke-width:1.0;"/><text fill="#000000" font-family="sans-serif" font-size="11" lengthAdjust="spacing" textLength="293" x="606.5" y="328.4189">Encode(buffer: Span&lt;byte&gt;, msbf: bool, arg: IControlArg): int</text><!--MD5=[b3caa128152efeb12f92241836cf9ecf]
class GetSoftwareVersionRequestEncoder--><rect codeLine="26" fill="#FEFECE" filter="url(#f2lxgs1d9h17e)" height="48" id="GetSoftwareVersionRequestEncoder" style="stroke:#A80036;stroke-width:1.5;" width="234" x="1082" y="396"/><ellipse cx="1097" cy="412" fill="#ADD1B2" rx="11" ry="11" style="stroke:#A80036;stroke-width:1.0;"/><path d="M1099.7656,407.875 Q1099.9219,407.6563 1100.1094,407.5469 Q1100.2969,407.4375 1100.5156,407.4375 Q1100.8906,407.4375 1101.125,407.6953 Q1101.3594,407.9531 1101.3594,408.5625 L1101.3594,410.0156 Q1101.3594,410.625 1101.125,410.8906 Q1100.8906,411.1563 1100.5156,411.1563 Q1100.1719,411.1563 1099.9688,410.9531 Q1099.7656,410.7656 1099.6563,410.25 Q1099.6094,409.8906 1099.4219,409.7031 Q1099.0938,409.3281 1098.4844,409.1094 Q1097.875,408.8906 1097.25,408.8906 Q1096.4844,408.8906 1095.8516,409.2188 Q1095.2188,409.5469 1094.7266,410.2969 Q1094.2344,411.0469 1094.2344,412.0781 L1094.2344,413.1719 Q1094.2344,414.4063 1095.125,415.2266 Q1096.0156,416.0469 1097.6094,416.0469 Q1098.5469,416.0469 1099.2031,415.7969 Q1099.5938,415.6406 1100.0156,415.2031 Q1100.2813,414.9375 1100.4297,414.8594 Q1100.5781,414.7813 1100.7813,414.7813 Q1101.1094,414.7813 1101.3672,415.0391 Q1101.625,415.2969 1101.625,415.6406 Q1101.625,415.9844 1101.2813,416.3906 Q1100.7813,416.9688 1099.9844,417.2969 Q1098.9063,417.75 1097.6094,417.75 Q1096.0938,417.75 1094.8906,417.125 Q1093.9063,416.625 1093.2188,415.5547 Q1092.5313,414.4844 1092.5313,413.2031 L1092.5313,412.0469 Q1092.5313,410.7188 1093.1484,409.5703 Q1093.7656,408.4219 1094.8594,407.8047 Q1095.9531,407.1875 1097.1875,407.1875 Q1097.9219,407.1875 1098.5703,407.3516 Q1099.2188,407.5156 1099.7656,407.875 Z " fill="#000000"/><text fill="#000000" font-family="sans-serif" font-size="12" lengthAdjust="spacing" textLength="202" x="1111" y="416.9102">GetSoftwareVersionRequestEncoder</text><line style="stroke:#A80036;stroke-width:1.5;" x1="1083" x2="1315" y1="428" y2="428"/><line style="stroke:#A80036;stroke-width:1.5;" x1="1083" x2="1315" y1="436" y2="436"/><!--MD5=[c4a710fa25e4a8a775517d469a68915a]
class GetSoftwareVersionResponseEncoder--><rect codeLine="27" fill="#FEFECE" filter="url(#f2lxgs1d9h17e)" height="48" id="GetSoftwareVersionResponseEncoder" style="stroke:#A80036;stroke-width:1.5;" width="245" x="302.5" y="396"/><ellipse cx="317.5" cy="412" fill="#ADD1B2" rx="11" ry="11" style="stroke:#A80036;stroke-width:1.0;"/><path d="M320.2656,407.875 Q320.4219,407.6563 320.6094,407.5469 Q320.7969,407.4375 321.0156,407.4375 Q321.3906,407.4375 321.625,407.6953 Q321.8594,407.9531 321.8594,408.5625 L321.8594,410.0156 Q321.8594,410.625 321.625,410.8906 Q321.3906,411.1563 321.0156,411.1563 Q320.6719,411.1563 320.4688,410.9531 Q320.2656,410.7656 320.1563,410.25 Q320.1094,409.8906 319.9219,409.7031 Q319.5938,409.3281 318.9844,409.1094 Q318.375,408.8906 317.75,408.8906 Q316.9844,408.8906 316.3516,409.2188 Q315.7188,409.5469 315.2266,410.2969 Q314.7344,411.0469 314.7344,412.0781 L314.7344,413.1719 Q314.7344,414.4063 315.625,415.2266 Q316.5156,416.0469 318.1094,416.0469 Q319.0469,416.0469 319.7031,415.7969 Q320.0938,415.6406 320.5156,415.2031 Q320.7813,414.9375 320.9297,414.8594 Q321.0781,414.7813 321.2813,414.7813 Q321.6094,414.7813 321.8672,415.0391 Q322.125,415.2969 322.125,415.6406 Q322.125,415.9844 321.7813,416.3906 Q321.2813,416.9688 320.4844,417.2969 Q319.4063,417.75 318.1094,417.75 Q316.5938,417.75 315.3906,417.125 Q314.4063,416.625 313.7188,415.5547 Q313.0313,414.4844 313.0313,413.2031 L313.0313,412.0469 Q313.0313,410.7188 313.6484,409.5703 Q314.2656,408.4219 315.3594,407.8047 Q316.4531,407.1875 317.6875,407.1875 Q318.4219,407.1875 319.0703,407.3516 Q319.7188,407.5156 320.2656,407.875 Z " fill="#000000"/><text fill="#000000" font-family="sans-serif" font-size="12" lengthAdjust="spacing" textLength="213" x="331.5" y="416.9102">GetSoftwareVersionResponseEncoder</text><line style="stroke:#A80036;stroke-width:1.5;" x1="303.5" x2="546.5" y1="428" y2="428"/><line style="stroke:#A80036;stroke-width:1.5;" x1="303.5" x2="546.5" y1="436" y2="436"/><!--MD5=[43b79fcbe731883609c2246cc44bf88b]
class SetTraceStatusRequestEncoder--><rect codeLine="28" fill="#FEFECE" filter="url(#f2lxgs1d9h17e)" height="48" id="SetTraceStatusRequestEncoder" style="stroke:#A80036;stroke-width:1.5;" width="209" x="582.5" y="396"/><ellipse cx="597.5" cy="412" fill="#ADD1B2" rx="11" ry="11" style="stroke:#A80036;stroke-width:1.0;"/><path d="M600.2656,407.875 Q600.4219,407.6563 600.6094,407.5469 Q600.7969,407.4375 601.0156,407.4375 Q601.3906,407.4375 601.625,407.6953 Q601.8594,407.9531 601.8594,408.5625 L601.8594,410.0156 Q601.8594,410.625 601.625,410.8906 Q601.3906,411.1563 601.0156,411.1563 Q600.6719,411.1563 600.4688,410.9531 Q600.2656,410.7656 600.1563,410.25 Q600.1094,409.8906 599.9219,409.7031 Q599.5938,409.3281 598.9844,409.1094 Q598.375,408.8906 597.75,408.8906 Q596.9844,408.8906 596.3516,409.2188 Q595.7188,409.5469 595.2266,410.2969 Q594.7344,411.0469 594.7344,412.0781 L594.7344,413.1719 Q594.7344,414.4063 595.625,415.2266 Q596.5156,416.0469 598.1094,416.0469 Q599.0469,416.0469 599.7031,415.7969 Q600.0938,415.6406 600.5156,415.2031 Q600.7813,414.9375 600.9297,414.8594 Q601.0781,414.7813 601.2813,414.7813 Q601.6094,414.7813 601.8672,415.0391 Q602.125,415.2969 602.125,415.6406 Q602.125,415.9844 601.7813,416.3906 Q601.2813,416.9688 600.4844,417.2969 Q599.4063,417.75 598.1094,417.75 Q596.5938,417.75 595.3906,417.125 Q594.4063,416.625 593.7188,415.5547 Q593.0313,414.4844 593.0313,413.2031 L593.0313,412.0469 Q593.0313,410.7188 593.6484,409.5703 Q594.2656,408.4219 595.3594,407.8047 Q596.4531,407.1875 597.6875,407.1875 Q598.4219,407.1875 599.0703,407.3516 Q599.7188,407.5156 600.2656,407.875 Z " fill="#000000"/><text fill="#000000" font-family="sans-serif" font-size="12" lengthAdjust="spacing" textLength="177" x="611.5" y="416.9102">SetTraceStatusRequestEncoder</text><line style="stroke:#A80036;stroke-width:1.5;" x1="583.5" x2="790.5" y1="428" y2="428"/><line style="stroke:#A80036;stroke-width:1.5;" x1="583.5" x2="790.5" y1="436" y2="436"/><!--MD5=[c0830710ea82df4686cd845b32569323]
class SetTraceStatusResponseEncoder--><rect codeLine="29" fill="#FEFECE" filter="url(#f2lxgs1d9h17e)" height="48" id="SetTraceStatusResponseEncoder" style="stroke:#A80036;stroke-width:1.5;" width="220" x="827" y="396"/><ellipse cx="842" cy="412" fill="#ADD1B2" rx="11" ry="11" style="stroke:#A80036;stroke-width:1.0;"/><path d="M844.7656,407.875 Q844.9219,407.6563 845.1094,407.5469 Q845.2969,407.4375 845.5156,407.4375 Q845.8906,407.4375 846.125,407.6953 Q846.3594,407.9531 846.3594,408.5625 L846.3594,410.0156 Q846.3594,410.625 846.125,410.8906 Q845.8906,411.1563 845.5156,411.1563 Q845.1719,411.1563 844.9688,410.9531 Q844.7656,410.7656 844.6563,410.25 Q844.6094,409.8906 844.4219,409.7031 Q844.0938,409.3281 843.4844,409.1094 Q842.875,408.8906 842.25,408.8906 Q841.4844,408.8906 840.8516,409.2188 Q840.2188,409.5469 839.7266,410.2969 Q839.2344,411.0469 839.2344,412.0781 L839.2344,413.1719 Q839.2344,414.4063 840.125,415.2266 Q841.0156,416.0469 842.6094,416.0469 Q843.5469,416.0469 844.2031,415.7969 Q844.5938,415.6406 845.0156,415.2031 Q845.2813,414.9375 845.4297,414.8594 Q845.5781,414.7813 845.7813,414.7813 Q846.1094,414.7813 846.3672,415.0391 Q846.625,415.2969 846.625,415.6406 Q846.625,415.9844 846.2813,416.3906 Q845.7813,416.9688 844.9844,417.2969 Q843.9063,417.75 842.6094,417.75 Q841.0938,417.75 839.8906,417.125 Q838.9063,416.625 838.2188,415.5547 Q837.5313,414.4844 837.5313,413.2031 L837.5313,412.0469 Q837.5313,410.7188 838.1484,409.5703 Q838.7656,408.4219 839.8594,407.8047 Q840.9531,407.1875 842.1875,407.1875 Q842.9219,407.1875 843.5703,407.3516 Q844.2188,407.5156 844.7656,407.875 Z " fill="#000000"/><text fill="#000000" font-family="sans-serif" font-size="12" lengthAdjust="spacing" textLength="188" x="856" y="416.9102">SetTraceStatusResponseEncoder</text><line style="stroke:#A80036;stroke-width:1.5;" x1="828" x2="1046" y1="428" y2="428"/><line style="stroke:#A80036;stroke-width:1.5;" x1="828" x2="1046" y1="436" y2="436"/><!--MD5=[e0bdf15de9c68eec4ed4bc81938090a7]
class GetTraceStatusRequestEncoder--><rect codeLine="30" fill="#FEFECE" filter="url(#f2lxgs1d9h17e)" height="48" id="GetTraceStatusRequestEncoder" style="stroke:#A80036;stroke-width:1.5;" width="210" x="57" y="396"/><ellipse cx="72" cy="412" fill="#ADD1B2" rx="11" ry="11" style="stroke:#A80036;stroke-width:1.0;"/><path d="M74.7656,407.875 Q74.9219,407.6563 75.1094,407.5469 Q75.2969,407.4375 75.5156,407.4375 Q75.8906,407.4375 76.125,407.6953 Q76.3594,407.9531 76.3594,408.5625 L76.3594,410.0156 Q76.3594,410.625 76.125,410.8906 Q75.8906,411.1563 75.5156,411.1563 Q75.1719,411.1563 74.9688,410.9531 Q74.7656,410.7656 74.6563,410.25 Q74.6094,409.8906 74.4219,409.7031 Q74.0938,409.3281 73.4844,409.1094 Q72.875,408.8906 72.25,408.8906 Q71.4844,408.8906 70.8516,409.2188 Q70.2188,409.5469 69.7266,410.2969 Q69.2344,411.0469 69.2344,412.0781 L69.2344,413.1719 Q69.2344,414.4063 70.125,415.2266 Q71.0156,416.0469 72.6094,416.0469 Q73.5469,416.0469 74.2031,415.7969 Q74.5938,415.6406 75.0156,415.2031 Q75.2813,414.9375 75.4297,414.8594 Q75.5781,414.7813 75.7813,414.7813 Q76.1094,414.7813 76.3672,415.0391 Q76.625,415.2969 76.625,415.6406 Q76.625,415.9844 76.2813,416.3906 Q75.7813,416.9688 74.9844,417.2969 Q73.9063,417.75 72.6094,417.75 Q71.0938,417.75 69.8906,417.125 Q68.9063,416.625 68.2188,415.5547 Q67.5313,414.4844 67.5313,413.2031 L67.5313,412.0469 Q67.5313,410.7188 68.1484,409.5703 Q68.7656,408.4219 69.8594,407.8047 Q70.9531,407.1875 72.1875,407.1875 Q72.9219,407.1875 73.5703,407.3516 Q74.2188,407.5156 74.7656,407.875 Z " fill="#000000"/><text fill="#000000" font-family="sans-serif" font-size="12" lengthAdjust="spacing" textLength="178" x="86" y="416.9102">GetTraceStatusRequestEncoder</text><line style="stroke:#A80036;stroke-width:1.5;" x1="58" x2="266" y1="428" y2="428"/><line style="stroke:#A80036;stroke-width:1.5;" x1="58" x2="266" y1="436" y2="436"/><!--MD5=[5c3f6e2eea759d646daae25f275faa86]
class GetTraceStatusResponseEncoder--><rect codeLine="31" fill="#FEFECE" filter="url(#f2lxgs1d9h17e)" height="48" id="GetTraceStatusResponseEncoder" style="stroke:#A80036;stroke-width:1.5;" width="221" x="1351.5" y="396"/><ellipse cx="1366.5" cy="412" fill="#ADD1B2" rx="11" ry="11" style="stroke:#A80036;stroke-width:1.0;"/><path d="M1369.2656,407.875 Q1369.4219,407.6563 1369.6094,407.5469 Q1369.7969,407.4375 1370.0156,407.4375 Q1370.3906,407.4375 1370.625,407.6953 Q1370.8594,407.9531 1370.8594,408.5625 L1370.8594,410.0156 Q1370.8594,410.625 1370.625,410.8906 Q1370.3906,411.1563 1370.0156,411.1563 Q1369.6719,411.1563 1369.4688,410.9531 Q1369.2656,410.7656 1369.1563,410.25 Q1369.1094,409.8906 1368.9219,409.7031 Q1368.5938,409.3281 1367.9844,409.1094 Q1367.375,408.8906 1366.75,408.8906 Q1365.9844,408.8906 1365.3516,409.2188 Q1364.7188,409.5469 1364.2266,410.2969 Q1363.7344,411.0469 1363.7344,412.0781 L1363.7344,413.1719 Q1363.7344,414.4063 1364.625,415.2266 Q1365.5156,416.0469 1367.1094,416.0469 Q1368.0469,416.0469 1368.7031,415.7969 Q1369.0938,415.6406 1369.5156,415.2031 Q1369.7813,414.9375 1369.9297,414.8594 Q1370.0781,414.7813 1370.2813,414.7813 Q1370.6094,414.7813 1370.8672,415.0391 Q1371.125,415.2969 1371.125,415.6406 Q1371.125,415.9844 1370.7813,416.3906 Q1370.2813,416.9688 1369.4844,417.2969 Q1368.4063,417.75 1367.1094,417.75 Q1365.5938,417.75 1364.3906,417.125 Q1363.4063,416.625 1362.7188,415.5547 Q1362.0313,414.4844 1362.0313,413.2031 L1362.0313,412.0469 Q1362.0313,410.7188 1362.6484,409.5703 Q1363.2656,408.4219 1364.3594,407.8047 Q1365.4531,407.1875 1366.6875,407.1875 Q1367.4219,407.1875 1368.0703,407.3516 Q1368.7188,407.5156 1369.2656,407.875 Z " fill="#000000"/><text fill="#000000" font-family="sans-serif" font-size="12" lengthAdjust="spacing" textLength="189" x="1380.5" y="416.9102">GetTraceStatusResponseEncoder</text><line style="stroke:#A80036;stroke-width:1.5;" x1="1352.5" x2="1571.5" y1="428" y2="428"/><line style="stroke:#A80036;stroke-width:1.5;" x1="1352.5" x2="1571.5" y1="436" y2="436"/><!--MD5=[bbf974fc5bfcceb4b72382435f28bfa0]
reverse link DltTraceEncoder to IDltEncoder--><path codeLine="9" d="M175,85.45 C175,101.12 175,118.45 175,132.74 " fill="none" id="DltTraceEncoder-backto-IDltEncoder" style="stroke:#A80036;stroke-width:1.0;"/><polygon fill="#A80036" points="175,72.22,171,78.22,175,84.22,179,78.22,175,72.22" style="stroke:#A80036;stroke-width:1.0;"/><!--MD5=[0b09ff73ed51b69097b3d5bf3e15a44a]
reverse link IDltEncoder to ControlDltEncoder--><path codeLine="14" d="M175,215.41 C175,234.66 175,255.99 175,272.79 " fill="none" id="IDltEncoder-backto-ControlDltEncoder" style="stroke:#A80036;stroke-width:1.0;stroke-dasharray:7.0,7.0;"/><polygon fill="none" points="168,215.28,175,195.28,182,215.28,168,215.28" style="stroke:#A80036;stroke-width:1.0;"/><text fill="#000000" font-family="sans-serif" font-size="13" lengthAdjust="spacing" textLength="164" x="176" y="239.4951">TLine -&gt; DltControlTraceLine</text><!--MD5=[a3ebe1fdc051f7b49e995be541139b8a]
reverse link IControlArgEncoder to ControlArgEncoder--><path codeLine="23" d="M746,215.41 C746,234.66 746,255.99 746,272.79 " fill="none" id="IControlArgEncoder-backto-ControlArgEncoder" style="stroke:#A80036;stroke-width:1.0;stroke-dasharray:7.0,7.0;"/><polygon fill="none" points="739,215.28,746,195.28,753,215.28,739,215.28" style="stroke:#A80036;stroke-width:1.0;"/><!--MD5=[d075cfa8fe80bdc3a30198e50ac91783]
reverse link ControlDltEncoder to ControlArgEncoder--><path codeLine="24" d="M339.86,304 C422,304 504.15,304 586.29,304 " fill="none" id="ControlDltEncoder-backto-ControlArgEncoder" style="stroke:#A80036;stroke-width:1.0;"/><polygon fill="#A80036" points="326.67,304,332.67,308,338.67,304,332.67,300,326.67,304" style="stroke:#A80036;stroke-width:1.0;"/><!--MD5=[15ef1bdc685121031370464d87033e4e]
reverse link IControlArgEncoder to GetSoftwareVersionRequestEncoder--><path codeLine="33" d="M862.02,202.05 C879.75,208.96 897.59,216.66 914,225 C1014.04,275.86 1120.42,356.29 1170.19,395.69 " fill="none" id="IControlArgEncoder-backto-GetSoftwareVersionRequestEncoder" style="stroke:#A80036;stroke-width:1.0;stroke-dasharray:7.0,7.0;"/><polygon fill="none" points="859.54,208.59,843.28,195,864.46,195.49,859.54,208.59" style="stroke:#A80036;stroke-width:1.0;"/><!--MD5=[42c88f7ec54796f03c252789fabb89a1]
reverse link IControlArgEncoder to GetSoftwareVersionResponseEncoder--><path codeLine="34" d="M623.11,203.42 C610.07,209.71 597.42,216.88 586,225 C518.6,272.96 462.97,355.84 438.46,395.95 " fill="none" id="IControlArgEncoder-backto-GetSoftwareVersionResponseEncoder" style="stroke:#A80036;stroke-width:1.0;stroke-dasharray:7.0,7.0;"/><polygon fill="none" points="620.61,196.87,641.72,195.1,626.32,209.65,620.61,196.87" style="stroke:#A80036;stroke-width:1.0;"/><!--MD5=[e6fb4edf911a98a50951f99fb8fc0442]
reverse link IControlArgEncoder to SetTraceStatusRequestEncoder--><path codeLine="35" d="M643.37,204.33 C614.09,220.89 585.64,243.36 569,273 C555.51,297.03 556.37,310.51 569,335 C582.89,361.93 609.85,382.12 634.49,395.95 " fill="none" id="IControlArgEncoder-backto-SetTraceStatusRequestEncoder" style="stroke:#A80036;stroke-width:1.0;stroke-dasharray:7.0,7.0;"/><polygon fill="none" points="640.15,198.11,661.12,195.02,646.66,210.51,640.15,198.11" style="stroke:#A80036;stroke-width:1.0;"/><!--MD5=[12758a794eee5970c77c09c60bc548a9]
reverse link IControlArgEncoder to SetTraceStatusResponseEncoder--><path codeLine="36" d="M845.42,204.45 C875.13,221.15 904.65,243.68 923,273 C946.64,310.77 944.5,365.13 940.78,395.74 " fill="none" id="IControlArgEncoder-backto-SetTraceStatusResponseEncoder" style="stroke:#A80036;stroke-width:1.0;stroke-dasharray:7.0,7.0;"/><polygon fill="none" points="841.94,210.53,827.49,195.04,848.45,198.14,841.94,210.53" style="stroke:#A80036;stroke-width:1.0;"/><!--MD5=[1faea9814c29f8730506917ff9e484c6]
reverse link IControlArgEncoder to GetTraceStatusRequestEncoder--><path codeLine="37" d="M620.08,201.39 C598.47,208.59 576.42,216.55 556,225 C457.91,265.58 439.33,288.3 344,335 C300.4,356.36 250.28,379.38 213.68,395.91 " fill="none" id="IControlArgEncoder-backto-GetTraceStatusRequestEncoder" style="stroke:#A80036;stroke-width:1.0;stroke-dasharray:7.0,7.0;"/><polygon fill="none" points="618.13,194.66,639.31,195.13,622.46,207.97,618.13,194.66" style="stroke:#A80036;stroke-width:1.0;"/><!--MD5=[c2536c09c899d674eca5220e372a870c]
reverse link IControlArgEncoder to GetTraceStatusResponseEncoder--><path codeLine="38" d="M878.17,200.62 C904.42,208.24 931.69,216.56 957,225 C1122.94,280.34 1314.73,357.84 1406.92,395.97 " fill="none" id="IControlArgEncoder-backto-GetTraceStatusResponseEncoder" style="stroke:#A80036;stroke-width:1.0;stroke-dasharray:7.0,7.0;"/><polygon fill="none" points="876.11,207.31,858.81,195.06,879.97,193.85,876.11,207.31" style="stroke:#A80036;stroke-width:1.0;"/><!--MD5=[f06e13c3fc39c29846d35d900e637a4a]
reverse link ControlArgEncoder to GetSoftwareVersionRequestEncoder--><path codeLine="40" d="M877.92,338.2 C951.55,356.73 1041.44,379.35 1107.35,395.94 " fill="none" id="ControlArgEncoder-backto-GetSoftwareVersionRequestEncoder" style="stroke:#A80036;stroke-width:1.0;"/><polygon fill="#A80036" points="865.32,335.03,870.1622,340.3735,876.957,337.9591,872.1149,332.6155,865.32,335.03" style="stroke:#A80036;stroke-width:1.0;"/><!--MD5=[645111fac5ba347984954a1bf3d0eb23]
reverse link ControlArgEncoder to GetSoftwareVersionResponseEncoder--><path codeLine="41" d="M648.73,339.54 C597.26,357.82 535.45,379.77 489.86,395.97 " fill="none" id="ControlArgEncoder-backto-GetSoftwareVersionResponseEncoder" style="stroke:#A80036;stroke-width:1.0;"/><polygon fill="#A80036" points="661.24,335.1,654.2486,333.3335,649.929,339.1076,656.9204,340.8742,661.24,335.1" style="stroke:#A80036;stroke-width:1.0;"/><!--MD5=[ed004dca4340a1a6752e19384a6352db]
reverse link ControlArgEncoder to SetTraceStatusRequestEncoder--><path codeLine="42" d="M724.32,346.88 C715.77,363.42 706.26,381.78 698.98,395.84 " fill="none" id="ControlArgEncoder-backto-SetTraceStatusRequestEncoder" style="stroke:#A80036;stroke-width:1.0;"/><polygon fill="#A80036" points="730.34,335.25,724.027,338.735,724.8158,345.9029,731.1289,342.4178,730.34,335.25" style="stroke:#A80036;stroke-width:1.0;"/><!--MD5=[29d23536ef4a140f1f3e456529e72018]
reverse link ControlArgEncoder to SetTraceStatusResponseEncoder--><path codeLine="43" d="M807.99,342 C837.75,359.76 872.48,380.49 898.41,395.97 " fill="none" id="ControlArgEncoder-backto-SetTraceStatusResponseEncoder" style="stroke:#A80036;stroke-width:1.0;"/><polygon fill="#A80036" points="796.43,335.1,799.5268,341.6123,806.7292,341.2584,803.6324,334.7461,796.43,335.1" style="stroke:#A80036;stroke-width:1.0;"/><!--MD5=[8f155c5fa562517f7bacb5539ea3f696]
reverse link ControlArgEncoder to GetTraceStatusRequestEncoder--><path codeLine="44" d="M579.13,337.57 C478.78,357.16 354.12,381.5 267.33,398.44 " fill="none" id="ControlArgEncoder-backto-GetTraceStatusRequestEncoder" style="stroke:#A80036;stroke-width:1.0;"/><polygon fill="#A80036" points="592.18,335.03,585.5257,332.2513,580.4015,337.325,587.0558,340.1037,592.18,335.03" style="stroke:#A80036;stroke-width:1.0;"/><!--MD5=[af241af4d52386b0ec21d4ba71eca907]
reverse link ControlArgEncoder to GetTraceStatusResponseEncoder--><path codeLine="45" d="M918.59,330.58 C1035.86,348.25 1194.43,372.66 1334,396 C1339.68,396.95 1345.5,397.94 1351.37,398.95 " fill="none" id="ControlArgEncoder-backto-GetTraceStatusResponseEncoder" style="stroke:#A80036;stroke-width:1.0;"/><polygon fill="#A80036" points="905.58,328.63,910.9203,333.4758,917.4472,330.4101,912.107,325.5643,905.58,328.63" style="stroke:#A80036;stroke-width:1.0;"/><!--MD5=[5e3dfa4d0c8fea4880224c35053f92e7]
@startuml DLT.WriterControl

class DltTraceEncoder<TLine:DltTraceLineBase> {
    +Encode(buffer: Span<byte>, line: DltTraceLineBase): Result<int>
}

interface IDltEncoder<TLine:DltTraceLineBase> {
   +Encode(buffer: Span<byte>, line: TLine): Result<int>
}
DltTraceEncoder *-d- IDltEncoder

class ControlDltEncoder {
   +Encode(buffer: Span<byte>, line: DltControlTraceLine): int
}
IDltEncoder <|.d. ControlDltEncoder : TLine -> DltControlTraceLine

interface IControlArgEncoder {
    +Encode(buffer: Span<byte>, msbf: bool, arg: IControlArg): Result<int>
}

class ControlArgEncoder {
    +Encode(buffer: Span<byte>, msbf: bool, arg: IControlArg): int
}
IControlArgEncoder <|.d. ControlArgEncoder
ControlDltEncoder *-r- ControlArgEncoder

class GetSoftwareVersionRequestEncoder
class GetSoftwareVersionResponseEncoder
class SetTraceStatusRequestEncoder
class SetTraceStatusResponseEncoder
class GetTraceStatusRequestEncoder
class GetTraceStatusResponseEncoder

IControlArgEncoder <|..d. GetSoftwareVersionRequestEncoder
IControlArgEncoder <|..d. GetSoftwareVersionResponseEncoder
IControlArgEncoder <|..d. SetTraceStatusRequestEncoder
IControlArgEncoder <|..d. SetTraceStatusResponseEncoder
IControlArgEncoder <|..d. GetTraceStatusRequestEncoder
IControlArgEncoder <|..d. GetTraceStatusResponseEncoder

ControlArgEncoder *-d- GetSoftwareVersionRequestEncoder
ControlArgEncoder *-d- GetSoftwareVersionResponseEncoder
ControlArgEncoder *-d- SetTraceStatusRequestEncoder
ControlArgEncoder *-d- SetTraceStatusResponseEncoder
ControlArgEncoder *-d- GetTraceStatusRequestEncoder
ControlArgEncoder *-d- GetTraceStatusResponseEncoder

@enduml

PlantUML version 1.2022.1(Tue Feb 01 19:19:58 CET 2022)
(GPL source distribution)
Java Runtime: Java(TM) SE Runtime Environment
JVM: Java HotSpot(TM) Client VM
Default Encoding: Cp1252
Language: en
Country: US
--></g></svg>