<?xml version="1.0" encoding="UTF-8" standalone="no"?><svg xmlns="http://www.w3.org/2000/svg" xmlns:xlink="http://www.w3.org/1999/xlink" contentScriptType="application/ecmascript" contentStyleType="text/css" height="331px" preserveAspectRatio="none" style="width:275px;height:331px;background:#FFFFFF;" version="1.1" viewBox="0 0 275 331" width="275px" zoomAndPan="magnify"><defs><filter height="300%" id="f1ntyfdhgp4s0r" width="300%" x="-1" y="-1"><feGaussianBlur result="blurOut" stdDeviation="2.0"/><feColorMatrix in="blurOut" result="blurOut2" type="matrix" values="0 0 0 0 0 0 0 0 0 0 0 0 0 0 0 0 0 0 .4 0"/><feOffset dx="4.0" dy="4.0" in="blurOut2" result="blurOut3"/><feBlend in="SourceGraphic" in2="blurOut3" mode="normal"/></filter></defs><g><!--MD5=[e320b41f2d43b11d6de1346cab4ea5fc]
cluster View--><polygon fill="#FFFFFF" filter="url(#f1ntyfdhgp4s0r)" points="70,6,109,6,116,29.6094,204,29.6094,204,106,70,106,70,6" style="stroke:#000000;stroke-width:1.5;"/><line style="stroke:#000000;stroke-width:1.5;" x1="70" x2="116" y1="29.6094" y2="29.6094"/><text fill="#000000" font-family="sans-serif" font-size="14" font-weight="bold" lengthAdjust="spacing" textLength="33" x="74" y="22.5332">View</text><!--MD5=[a3db38b29c3436960cdd3b658ea5cf84]
cluster Framework--><polygon fill="#FFFFFF" filter="url(#f1ntyfdhgp4s0r)" points="16,156,100,156,107,179.6094,258,179.6094,258,324,16,324,16,156" style="stroke:#000000;stroke-width:1.5;"/><line style="stroke:#000000;stroke-width:1.5;" x1="16" x2="107" y1="179.6094" y2="179.6094"/><text fill="#000000" font-family="sans-serif" font-size="14" font-weight="bold" lengthAdjust="spacing" textLength="78" x="20" y="172.5332">Framework</text><!--MD5=[b70170093c17be942f327f673157c472]
cluster RJCP.Core.CommandLine--><polygon fill="#FFFFFF" filter="url(#f1ntyfdhgp4s0r)" points="40,200,224,200,231,223.6094,234,223.6094,234,300,40,300,40,200" style="stroke:#000000;stroke-width:1.5;"/><line style="stroke:#000000;stroke-width:1.5;" x1="40" x2="231" y1="223.6094" y2="223.6094"/><text fill="#000000" font-family="sans-serif" font-size="14" font-weight="bold" lengthAdjust="spacing" textLength="178" x="44" y="216.5332">RJCP.Core.CommandLine</text><!--MD5=[fe24c0a1b87cbd54e03f0547b2007c0b]
class View.CmdOptions--><rect codeLine="3" fill="#FEFECE" filter="url(#f1ntyfdhgp4s0r)" height="48" id="View.CmdOptions" style="stroke:#A80036;stroke-width:1.5;" width="102" x="86" y="42"/><ellipse cx="101" cy="58" fill="#ADD1B2" rx="11" ry="11" style="stroke:#A80036;stroke-width:1.0;"/><path d="M103.7656,53.875 Q103.9219,53.6563 104.1094,53.5469 Q104.2969,53.4375 104.5156,53.4375 Q104.8906,53.4375 105.125,53.6953 Q105.3594,53.9531 105.3594,54.5625 L105.3594,56.0156 Q105.3594,56.625 105.125,56.8906 Q104.8906,57.1563 104.5156,57.1563 Q104.1719,57.1563 103.9688,56.9531 Q103.7656,56.7656 103.6563,56.25 Q103.6094,55.8906 103.4219,55.7031 Q103.0938,55.3281 102.4844,55.1094 Q101.875,54.8906 101.25,54.8906 Q100.4844,54.8906 99.8516,55.2188 Q99.2188,55.5469 98.7266,56.2969 Q98.2344,57.0469 98.2344,58.0781 L98.2344,59.1719 Q98.2344,60.4063 99.125,61.2266 Q100.0156,62.0469 101.6094,62.0469 Q102.5469,62.0469 103.2031,61.7969 Q103.5938,61.6406 104.0156,61.2031 Q104.2813,60.9375 104.4297,60.8594 Q104.5781,60.7813 104.7813,60.7813 Q105.1094,60.7813 105.3672,61.0391 Q105.625,61.2969 105.625,61.6406 Q105.625,61.9844 105.2813,62.3906 Q104.7813,62.9688 103.9844,63.2969 Q102.9063,63.75 101.6094,63.75 Q100.0938,63.75 98.8906,63.125 Q97.9063,62.625 97.2188,61.5547 Q96.5313,60.4844 96.5313,59.2031 L96.5313,58.0469 Q96.5313,56.7188 97.1484,55.5703 Q97.7656,54.4219 98.8594,53.8047 Q99.9531,53.1875 101.1875,53.1875 Q101.9219,53.1875 102.5703,53.3516 Q103.2188,53.5156 103.7656,53.875 Z " fill="#000000"/><text fill="#000000" font-family="sans-serif" font-size="12" lengthAdjust="spacing" textLength="70" x="115" y="62.9102">CmdOptions</text><line style="stroke:#A80036;stroke-width:1.5;" x1="87" x2="187" y1="74" y2="74"/><line style="stroke:#A80036;stroke-width:1.5;" x1="87" x2="187" y1="82" y2="82"/><!--MD5=[3254bb3f5a832f13462594db2763126f]
class RJCP.Core.CommandLine.Options--><rect codeLine="8" fill="#FEFECE" filter="url(#f1ntyfdhgp4s0r)" height="48" id="RJCP.Core.CommandLine.Options" style="stroke:#A80036;stroke-width:1.5;" width="75" x="99.5" y="236"/><ellipse cx="114.5" cy="252" fill="#ADD1B2" rx="11" ry="11" style="stroke:#A80036;stroke-width:1.0;"/><path d="M117.2656,247.875 Q117.4219,247.6563 117.6094,247.5469 Q117.7969,247.4375 118.0156,247.4375 Q118.3906,247.4375 118.625,247.6953 Q118.8594,247.9531 118.8594,248.5625 L118.8594,250.0156 Q118.8594,250.625 118.625,250.8906 Q118.3906,251.1563 118.0156,251.1563 Q117.6719,251.1563 117.4688,250.9531 Q117.2656,250.7656 117.1563,250.25 Q117.1094,249.8906 116.9219,249.7031 Q116.5938,249.3281 115.9844,249.1094 Q115.375,248.8906 114.75,248.8906 Q113.9844,248.8906 113.3516,249.2188 Q112.7188,249.5469 112.2266,250.2969 Q111.7344,251.0469 111.7344,252.0781 L111.7344,253.1719 Q111.7344,254.4063 112.625,255.2266 Q113.5156,256.0469 115.1094,256.0469 Q116.0469,256.0469 116.7031,255.7969 Q117.0938,255.6406 117.5156,255.2031 Q117.7813,254.9375 117.9297,254.8594 Q118.0781,254.7813 118.2813,254.7813 Q118.6094,254.7813 118.8672,255.0391 Q119.125,255.2969 119.125,255.6406 Q119.125,255.9844 118.7813,256.3906 Q118.2813,256.9688 117.4844,257.2969 Q116.4063,257.75 115.1094,257.75 Q113.5938,257.75 112.3906,257.125 Q111.4063,256.625 110.7188,255.5547 Q110.0313,254.4844 110.0313,253.2031 L110.0313,252.0469 Q110.0313,250.7188 110.6484,249.5703 Q111.2656,248.4219 112.3594,247.8047 Q113.4531,247.1875 114.6875,247.1875 Q115.4219,247.1875 116.0703,247.3516 Q116.7188,247.5156 117.2656,247.875 Z " fill="#000000"/><text fill="#000000" font-family="sans-serif" font-size="12" lengthAdjust="spacing" textLength="43" x="128.5" y="256.9102">Options</text><line style="stroke:#A80036;stroke-width:1.5;" x1="100.5" x2="173.5" y1="268" y2="268"/><line style="stroke:#A80036;stroke-width:1.5;" x1="100.5" x2="173.5" y1="276" y2="276"/><!--MD5=[20d3516991e2fe088db6cd1045f31245]
link View.CmdOptions to RJCP.Core.CommandLine.Options--><path codeLine="12" d="M137,90.16 C137,125.33 137,192.15 137,230.34 " fill="none" id="View.CmdOptions-to-RJCP.Core.CommandLine.Options" style="stroke:#A80036;stroke-width:1.0;"/><polygon fill="#A80036" points="137,235.76,141,226.76,137,230.76,133,226.76,137,235.76" style="stroke:#A80036;stroke-width:1.0;"/><text fill="#000000" font-family="sans-serif" font-size="13" lengthAdjust="spacing" textLength="42" x="138" y="136.4951">«uses»</text><!--MD5=[c525232dbe079e9dc4b57f0e8c2654e5]
@startuml View.CommandLine

namespace View {
    class CmdOptions
}

package Framework {
    namespace RJCP.Core.CommandLine {
        class Options
    }
}

View.CmdOptions -d-> RJCP.Core.CommandLine.Options : <<uses>>

@enduml

PlantUML version 1.2022.0(Tue Jan 11 17:16:42 CET 2022)
(GPL source distribution)
Java Runtime: Java(TM) SE Runtime Environment
JVM: Java HotSpot(TM) Client VM
Default Encoding: Cp1252
Language: en
Country: US
--></g></svg>