<?xml version="1.0" encoding="us-ascii" standalone="no"?><svg xmlns="http://www.w3.org/2000/svg" xmlns:xlink="http://www.w3.org/1999/xlink" contentStyleType="text/css" height="595px" preserveAspectRatio="none" style="width:494px;height:595px;background:#FFFFFF;" version="1.1" viewBox="0 0 494 595" width="494px" zoomAndPan="magnify"><defs/><g><!--cluster View--><g id="cluster_View"><path d="M44.5,135 L84.5,135 A3.75,3.75 0 0 1 87,137.5 L94,157.2969 L189.5,157.2969 A2.5,2.5 0 0 1 192,159.7969 L192,231.5 A2.5,2.5 0 0 1 189.5,234 L44.5,234 A2.5,2.5 0 0 1 42,231.5 L42,137.5 A2.5,2.5 0 0 1 44.5,135 " fill="none" style="stroke:#000000;stroke-width:1.5;"/><line style="stroke:#000000;stroke-width:1.5;" x1="42" x2="94" y1="157.2969" y2="157.2969"/><text fill="#000000" font-family="sans-serif" font-size="14" font-weight="bold" lengthAdjust="spacing" textLength="39" x="46" y="149.9951">View</text></g><!--cluster Framework--><g id="cluster_Framework"><path d="M218.5,6 L308.5,6 A3.75,3.75 0 0 1 311,8.5 L318,28.2969 L484.5,28.2969 A2.5,2.5 0 0 1 487,30.7969 L487,303.5 A2.5,2.5 0 0 1 484.5,306 L218.5,306 A2.5,2.5 0 0 1 216,303.5 L216,8.5 A2.5,2.5 0 0 1 218.5,6 " fill="none" style="stroke:#000000;stroke-width:1.5;"/><line style="stroke:#000000;stroke-width:1.5;" x1="216" x2="318" y1="28.2969" y2="28.2969"/><text fill="#000000" font-family="sans-serif" font-size="14" font-weight="bold" lengthAdjust="spacing" textLength="89" x="220" y="20.9951">Framework</text></g><!--cluster RJCP--><g id="cluster_RJCP"><path d="M242.5,49 L278.5,49 A3.75,3.75 0 0 1 281,51.5 L288,71.2969 L460.5,71.2969 A2.5,2.5 0 0 1 463,73.7969 L463,279.5 A2.5,2.5 0 0 1 460.5,282 L242.5,282 A2.5,2.5 0 0 1 240,279.5 L240,51.5 A2.5,2.5 0 0 1 242.5,49 " fill="none" style="stroke:#000000;stroke-width:1.5;"/><line style="stroke:#000000;stroke-width:1.5;" x1="240" x2="288" y1="71.2969" y2="71.2969"/><text fill="#000000" font-family="sans-serif" font-size="14" font-weight="bold" lengthAdjust="spacing" textLength="35" x="244" y="63.9951">RJCP</text></g><!--cluster Core--><g id="cluster_Core"><path d="M266.5,92 L305.5,92 A3.75,3.75 0 0 1 308,94.5 L315,114.2969 L436.5,114.2969 A2.5,2.5 0 0 1 439,116.7969 L439,255.5 A2.5,2.5 0 0 1 436.5,258 L266.5,258 A2.5,2.5 0 0 1 264,255.5 L264,94.5 A2.5,2.5 0 0 1 266.5,92 " fill="none" style="stroke:#000000;stroke-width:1.5;"/><line style="stroke:#000000;stroke-width:1.5;" x1="264" x2="315" y1="114.2969" y2="114.2969"/><text fill="#000000" font-family="sans-serif" font-size="14" font-weight="bold" lengthAdjust="spacing" textLength="38" x="268" y="106.9951">Core</text></g><!--cluster CommandLine--><g id="cluster_CommandLine"><path d="M290.5,135 L402.5,135 A3.75,3.75 0 0 1 405,137.5 L412,157.2969 L412.5,157.2969 A2.5,2.5 0 0 1 415,159.7969 L415,231.5 A2.5,2.5 0 0 1 412.5,234 L290.5,234 A2.5,2.5 0 0 1 288,231.5 L288,137.5 A2.5,2.5 0 0 1 290.5,135 " fill="none" style="stroke:#000000;stroke-width:1.5;"/><line style="stroke:#000000;stroke-width:1.5;" x1="288" x2="412" y1="157.2969" y2="157.2969"/><text fill="#000000" font-family="sans-serif" font-size="14" font-weight="bold" lengthAdjust="spacing" textLength="111" x="292" y="149.9951">CommandLine</text></g><!--cluster RJCP--><g id="cluster_RJCP"><path d="M8.5,355 L44.5,355 A3.75,3.75 0 0 1 47,357.5 L54,377.2969 L226.5,377.2969 A2.5,2.5 0 0 1 229,379.7969 L229,585.5 A2.5,2.5 0 0 1 226.5,588 L8.5,588 A2.5,2.5 0 0 1 6,585.5 L6,357.5 A2.5,2.5 0 0 1 8.5,355 " fill="none" style="stroke:#000000;stroke-width:1.5;"/><line style="stroke:#000000;stroke-width:1.5;" x1="6" x2="54" y1="377.2969" y2="377.2969"/><text fill="#000000" font-family="sans-serif" font-size="14" font-weight="bold" lengthAdjust="spacing" textLength="35" x="10" y="369.9951">RJCP</text></g><!--cluster Core--><g id="cluster_Core"><path d="M32.5,398 L71.5,398 A3.75,3.75 0 0 1 74,400.5 L81,420.2969 L202.5,420.2969 A2.5,2.5 0 0 1 205,422.7969 L205,561.5 A2.5,2.5 0 0 1 202.5,564 L32.5,564 A2.5,2.5 0 0 1 30,561.5 L30,400.5 A2.5,2.5 0 0 1 32.5,398 " fill="none" style="stroke:#000000;stroke-width:1.5;"/><line style="stroke:#000000;stroke-width:1.5;" x1="30" x2="81" y1="420.2969" y2="420.2969"/><text fill="#000000" font-family="sans-serif" font-size="14" font-weight="bold" lengthAdjust="spacing" textLength="38" x="34" y="412.9951">Core</text></g><!--cluster CommandLine--><g id="cluster_CommandLine"><path d="M56.5,441 L168.5,441 A3.75,3.75 0 0 1 171,443.5 L178,463.2969 L178.5,463.2969 A2.5,2.5 0 0 1 181,465.7969 L181,537.5 A2.5,2.5 0 0 1 178.5,540 L56.5,540 A2.5,2.5 0 0 1 54,537.5 L54,443.5 A2.5,2.5 0 0 1 56.5,441 " fill="none" style="stroke:#000000;stroke-width:1.5;"/><line style="stroke:#000000;stroke-width:1.5;" x1="54" x2="178" y1="463.2969" y2="463.2969"/><text fill="#000000" font-family="sans-serif" font-size="14" font-weight="bold" lengthAdjust="spacing" textLength="111" x="58" y="455.9951">CommandLine</text></g><!--class CmdOptions--><g id="elem_CmdOptions"><rect codeLine="3" fill="#F1F1F1" height="48" id="CmdOptions" rx="2.5" ry="2.5" style="stroke:#181818;stroke-width:0.5;" width="118" x="58" y="170"/><ellipse cx="73" cy="186" fill="#ADD1B2" rx="11" ry="11" style="stroke:#181818;stroke-width:1.0;"/><path d="M75.9688,191.6406 Q75.3906,191.9375 74.75,192.0781 Q74.1094,192.2344 73.4063,192.2344 Q70.9063,192.2344 69.5781,190.5938 Q68.2656,188.9375 68.2656,185.8125 Q68.2656,182.6875 69.5781,181.0313 Q70.9063,179.375 73.4063,179.375 Q74.1094,179.375 74.75,179.5313 Q75.4063,179.6875 75.9688,179.9844 L75.9688,182.7031 Q75.3438,182.125 74.75,181.8594 Q74.1563,181.5781 73.5313,181.5781 Q72.1875,181.5781 71.5,182.6563 Q70.8125,183.7188 70.8125,185.8125 Q70.8125,187.9063 71.5,188.9844 Q72.1875,190.0469 73.5313,190.0469 Q74.1563,190.0469 74.75,189.7813 Q75.3438,189.5 75.9688,188.9219 L75.9688,191.6406 Z " fill="#000000"/><text fill="#000000" font-family="sans-serif" font-size="14" lengthAdjust="spacing" textLength="86" x="87" y="190.8467">CmdOptions</text><line style="stroke:#181818;stroke-width:0.5;" x1="59" x2="175" y1="202" y2="202"/><line style="stroke:#181818;stroke-width:0.5;" x1="59" x2="175" y1="210" y2="210"/></g><!--class Options--><g id="elem_Options"><rect codeLine="8" fill="#F1F1F1" height="48" id="Options" rx="2.5" ry="2.5" style="stroke:#181818;stroke-width:0.5;" width="86" x="308" y="170"/><ellipse cx="323" cy="186" fill="#ADD1B2" rx="11" ry="11" style="stroke:#181818;stroke-width:1.0;"/><path d="M325.9688,191.6406 Q325.3906,191.9375 324.75,192.0781 Q324.1094,192.2344 323.4063,192.2344 Q320.9063,192.2344 319.5781,190.5938 Q318.2656,188.9375 318.2656,185.8125 Q318.2656,182.6875 319.5781,181.0313 Q320.9063,179.375 323.4063,179.375 Q324.1094,179.375 324.75,179.5313 Q325.4063,179.6875 325.9688,179.9844 L325.9688,182.7031 Q325.3438,182.125 324.75,181.8594 Q324.1563,181.5781 323.5313,181.5781 Q322.1875,181.5781 321.5,182.6563 Q320.8125,183.7188 320.8125,185.8125 Q320.8125,187.9063 321.5,188.9844 Q322.1875,190.0469 323.5313,190.0469 Q324.1563,190.0469 324.75,189.7813 Q325.3438,189.5 325.9688,188.9219 L325.9688,191.6406 Z " fill="#000000"/><text fill="#000000" font-family="sans-serif" font-size="14" lengthAdjust="spacing" textLength="54" x="337" y="190.8467">Options</text><line style="stroke:#181818;stroke-width:0.5;" x1="309" x2="393" y1="202" y2="202"/><line style="stroke:#181818;stroke-width:0.5;" x1="309" x2="393" y1="210" y2="210"/></g><!--class Options--><g id="elem_Options"><rect fill="#F1F1F1" height="48" id="Options" rx="2.5" ry="2.5" style="stroke:#181818;stroke-width:0.5;" width="86" x="74" y="476"/><ellipse cx="89" cy="492" fill="#ADD1B2" rx="11" ry="11" style="stroke:#181818;stroke-width:1.0;"/><path d="M91.9688,497.6406 Q91.3906,497.9375 90.75,498.0781 Q90.1094,498.2344 89.4063,498.2344 Q86.9063,498.2344 85.5781,496.5938 Q84.2656,494.9375 84.2656,491.8125 Q84.2656,488.6875 85.5781,487.0313 Q86.9063,485.375 89.4063,485.375 Q90.1094,485.375 90.75,485.5313 Q91.4063,485.6875 91.9688,485.9844 L91.9688,488.7031 Q91.3438,488.125 90.75,487.8594 Q90.1563,487.5781 89.5313,487.5781 Q88.1875,487.5781 87.5,488.6563 Q86.8125,489.7188 86.8125,491.8125 Q86.8125,493.9063 87.5,494.9844 Q88.1875,496.0469 89.5313,496.0469 Q90.1563,496.0469 90.75,495.7813 Q91.3438,495.5 91.9688,494.9219 L91.9688,497.6406 Z " fill="#000000"/><text fill="#000000" font-family="sans-serif" font-size="14" lengthAdjust="spacing" textLength="54" x="103" y="496.8467">Options</text><line style="stroke:#181818;stroke-width:0.5;" x1="75" x2="159" y1="508" y2="508"/><line style="stroke:#181818;stroke-width:0.5;" x1="75" x2="159" y1="516" y2="516"/></g><!--link CmdOptions to Options--><g id="link_CmdOptions_Options"><path codeLine="12" d="M117,218.35 C117,273.06 117,409.44 117,469.64 " fill="none" id="CmdOptions-to-Options" style="stroke:#181818;stroke-width:1.0;"/><polygon fill="#181818" points="117,474.57,121,465.57,117,469.57,113,465.57,117,474.57" style="stroke:#181818;stroke-width:1.0;"/><text fill="#000000" font-family="sans-serif" font-size="13" lengthAdjust="spacing" textLength="46" x="118" y="335.0669">&#171;uses&#187;</text></g><!--SRC=[oqlCJIqkI4nELGZBJ2rNgEPI08BadCJYOWNdt1J_WfBC_BnYhbekBg2QxCJqL0Mt8g2EyloYRAZQFBW1GLxE0NhE-KMfG28tDp4lnISpBnMg2c4gp4YGI2t8O92zUWYx57HJTEsmcwK7KsAbO6DJMfnQR6V71G00]--></g></svg>