<?xml version="1.0" encoding="us-ascii" standalone="no"?><svg xmlns="http://www.w3.org/2000/svg" xmlns:xlink="http://www.w3.org/1999/xlink" contentStyleType="text/css" height="742px" preserveAspectRatio="none" style="width:1765px;height:742px;background:#FFFFFF;" version="1.1" viewBox="0 0 1765 742" width="1765px" zoomAndPan="magnify"><defs/><g><g id="cluster_##2"><rect fill="none" height="205" rx="2.5" ry="2.5" style="stroke:none;stroke-width:1.0;" width="1752" x="7" y="7"/></g><g id="cluster_##26"><rect fill="none" height="491.89" rx="2.5" ry="2.5" style="stroke:none;stroke-width:1.0;" width="357" x="579" y="245"/></g><g id="cluster_##43"><rect fill="none" height="205" rx="2.5" ry="2.5" style="stroke:none;stroke-width:1.0;" width="268" x="272" y="420.89"/></g><!--class DltDumpTraceDecoderFactory--><g id="elem_DltDumpTraceDecoderFactory"><rect codeLine="8" fill="#F1F1F1" height="48" id="DltDumpTraceDecoderFactory" rx="2.5" ry="2.5" style="stroke:#181818;stroke-width:0.5;" width="242" x="759" y="148"/><ellipse cx="774" cy="164" fill="#ADD1B2" rx="11" ry="11" style="stroke:#181818;stroke-width:1.0;"/><path d="M776.9688,169.6406 Q776.3906,169.9375 775.75,170.0781 Q775.1094,170.2344 774.4063,170.2344 Q771.9063,170.2344 770.5781,168.5938 Q769.2656,166.9375 769.2656,163.8125 Q769.2656,160.6875 770.5781,159.0313 Q771.9063,157.375 774.4063,157.375 Q775.1094,157.375 775.75,157.5313 Q776.4063,157.6875 776.9688,157.9844 L776.9688,160.7031 Q776.3438,160.125 775.75,159.8594 Q775.1563,159.5781 774.5313,159.5781 Q773.1875,159.5781 772.5,160.6563 Q771.8125,161.7188 771.8125,163.8125 Q771.8125,165.9063 772.5,166.9844 Q773.1875,168.0469 774.5313,168.0469 Q775.1563,168.0469 775.75,167.7813 Q776.3438,167.5 776.9688,166.9219 L776.9688,169.6406 Z " fill="#000000"/><text fill="#000000" font-family="sans-serif" font-size="14" lengthAdjust="spacing" textLength="210" x="788" y="168.8467">DltDumpTraceDecoderFactory</text><line style="stroke:#181818;stroke-width:0.5;" x1="760" x2="1000" y1="180" y2="180"/><line style="stroke:#181818;stroke-width:0.5;" x1="760" x2="1000" y1="188" y2="188"/></g><!--class DltFileTraceDecoderFactory--><g id="elem_DltFileTraceDecoderFactory"><rect fill="#F1F1F1" height="48" id="DltFileTraceDecoderFactory" rx="2.5" ry="2.5" style="stroke:#181818;stroke-width:0.5;" width="223" x="22.5" y="23"/><ellipse cx="37.5" cy="39" fill="#ADD1B2" rx="11" ry="11" style="stroke:#181818;stroke-width:1.0;"/><path d="M40.4688,44.6406 Q39.8906,44.9375 39.25,45.0781 Q38.6094,45.2344 37.9063,45.2344 Q35.4063,45.2344 34.0781,43.5938 Q32.7656,41.9375 32.7656,38.8125 Q32.7656,35.6875 34.0781,34.0313 Q35.4063,32.375 37.9063,32.375 Q38.6094,32.375 39.25,32.5313 Q39.9063,32.6875 40.4688,32.9844 L40.4688,35.7031 Q39.8438,35.125 39.25,34.8594 Q38.6563,34.5781 38.0313,34.5781 Q36.6875,34.5781 36,35.6563 Q35.3125,36.7188 35.3125,38.8125 Q35.3125,40.9063 36,41.9844 Q36.6875,43.0469 38.0313,43.0469 Q38.6563,43.0469 39.25,42.7813 Q39.8438,42.5 40.4688,41.9219 L40.4688,44.6406 Z " fill="#000000"/><text fill="#000000" font-family="sans-serif" font-size="14" lengthAdjust="spacing" textLength="191" x="51.5" y="43.8467">DltFileTraceDecoderFactory</text><line style="stroke:#181818;stroke-width:0.5;" x1="23.5" x2="244.5" y1="55" y2="55"/><line style="stroke:#181818;stroke-width:0.5;" x1="23.5" x2="244.5" y1="63" y2="63"/></g><!--class DltSerialTraceDecoderFactory--><g id="elem_DltSerialTraceDecoderFactory"><rect fill="#F1F1F1" height="48" id="DltSerialTraceDecoderFactory" rx="2.5" ry="2.5" style="stroke:#181818;stroke-width:0.5;" width="237" x="280.5" y="23"/><ellipse cx="295.5" cy="39" fill="#ADD1B2" rx="11" ry="11" style="stroke:#181818;stroke-width:1.0;"/><path d="M298.4688,44.6406 Q297.8906,44.9375 297.25,45.0781 Q296.6094,45.2344 295.9063,45.2344 Q293.4063,45.2344 292.0781,43.5938 Q290.7656,41.9375 290.7656,38.8125 Q290.7656,35.6875 292.0781,34.0313 Q293.4063,32.375 295.9063,32.375 Q296.6094,32.375 297.25,32.5313 Q297.9063,32.6875 298.4688,32.9844 L298.4688,35.7031 Q297.8438,35.125 297.25,34.8594 Q296.6563,34.5781 296.0313,34.5781 Q294.6875,34.5781 294,35.6563 Q293.3125,36.7188 293.3125,38.8125 Q293.3125,40.9063 294,41.9844 Q294.6875,43.0469 296.0313,43.0469 Q296.6563,43.0469 297.25,42.7813 Q297.8438,42.5 298.4688,41.9219 L298.4688,44.6406 Z " fill="#000000"/><text fill="#000000" font-family="sans-serif" font-size="14" lengthAdjust="spacing" textLength="205" x="309.5" y="43.8467">DltSerialTraceDecoderFactory</text><line style="stroke:#181818;stroke-width:0.5;" x1="281.5" x2="516.5" y1="55" y2="55"/><line style="stroke:#181818;stroke-width:0.5;" x1="281.5" x2="516.5" y1="63" y2="63"/></g><!--class DltTraceDecoderFactory--><g id="elem_DltTraceDecoderFactory"><rect fill="#F1F1F1" height="48" id="DltTraceDecoderFactory" rx="2.5" ry="2.5" style="stroke:#181818;stroke-width:0.5;" width="200" x="553" y="23"/><ellipse cx="568" cy="39" fill="#ADD1B2" rx="11" ry="11" style="stroke:#181818;stroke-width:1.0;"/><path d="M570.9688,44.6406 Q570.3906,44.9375 569.75,45.0781 Q569.1094,45.2344 568.4063,45.2344 Q565.9063,45.2344 564.5781,43.5938 Q563.2656,41.9375 563.2656,38.8125 Q563.2656,35.6875 564.5781,34.0313 Q565.9063,32.375 568.4063,32.375 Q569.1094,32.375 569.75,32.5313 Q570.4063,32.6875 570.9688,32.9844 L570.9688,35.7031 Q570.3438,35.125 569.75,34.8594 Q569.1563,34.5781 568.5313,34.5781 Q567.1875,34.5781 566.5,35.6563 Q565.8125,36.7188 565.8125,38.8125 Q565.8125,40.9063 566.5,41.9844 Q567.1875,43.0469 568.5313,43.0469 Q569.1563,43.0469 569.75,42.7813 Q570.3438,42.5 570.9688,41.9219 L570.9688,44.6406 Z " fill="#000000"/><text fill="#000000" font-family="sans-serif" font-size="14" lengthAdjust="spacing" textLength="168" x="582" y="43.8467">DltTraceDecoderFactory</text><line style="stroke:#181818;stroke-width:0.5;" x1="554" x2="752" y1="55" y2="55"/><line style="stroke:#181818;stroke-width:0.5;" x1="554" x2="752" y1="63" y2="63"/></g><!--class DltPcapTraceDecoder--><g id="elem_DltPcapTraceDecoder"><rect fill="#F1F1F1" height="48" id="DltPcapTraceDecoder" rx="2.5" ry="2.5" style="stroke:#181818;stroke-width:0.5;" width="184" x="788" y="23"/><ellipse cx="803" cy="39" fill="#ADD1B2" rx="11" ry="11" style="stroke:#181818;stroke-width:1.0;"/><path d="M805.9688,44.6406 Q805.3906,44.9375 804.75,45.0781 Q804.1094,45.2344 803.4063,45.2344 Q800.9063,45.2344 799.5781,43.5938 Q798.2656,41.9375 798.2656,38.8125 Q798.2656,35.6875 799.5781,34.0313 Q800.9063,32.375 803.4063,32.375 Q804.1094,32.375 804.75,32.5313 Q805.4063,32.6875 805.9688,32.9844 L805.9688,35.7031 Q805.3438,35.125 804.75,34.8594 Q804.1563,34.5781 803.5313,34.5781 Q802.1875,34.5781 801.5,35.6563 Q800.8125,36.7188 800.8125,38.8125 Q800.8125,40.9063 801.5,41.9844 Q802.1875,43.0469 803.5313,43.0469 Q804.1563,43.0469 804.75,42.7813 Q805.3438,42.5 805.9688,41.9219 L805.9688,44.6406 Z " fill="#000000"/><text fill="#000000" font-family="sans-serif" font-size="14" lengthAdjust="spacing" textLength="152" x="817" y="43.8467">DltPcapTraceDecoder</text><line style="stroke:#181818;stroke-width:0.5;" x1="789" x2="971" y1="55" y2="55"/><line style="stroke:#181818;stroke-width:0.5;" x1="789" x2="971" y1="63" y2="63"/></g><!--class DltFileTraceFilterDecoder--><g id="elem_DltFileTraceFilterDecoder"><rect fill="#F1F1F1" height="48" id="DltFileTraceFilterDecoder" rx="2.5" ry="2.5" style="stroke:#181818;stroke-width:0.5;" width="206" x="1007" y="23"/><ellipse cx="1022" cy="39" fill="#ADD1B2" rx="11" ry="11" style="stroke:#181818;stroke-width:1.0;"/><path d="M1024.9688,44.6406 Q1024.3906,44.9375 1023.75,45.0781 Q1023.1094,45.2344 1022.4063,45.2344 Q1019.9063,45.2344 1018.5781,43.5938 Q1017.2656,41.9375 1017.2656,38.8125 Q1017.2656,35.6875 1018.5781,34.0313 Q1019.9063,32.375 1022.4063,32.375 Q1023.1094,32.375 1023.75,32.5313 Q1024.4063,32.6875 1024.9688,32.9844 L1024.9688,35.7031 Q1024.3438,35.125 1023.75,34.8594 Q1023.1563,34.5781 1022.5313,34.5781 Q1021.1875,34.5781 1020.5,35.6563 Q1019.8125,36.7188 1019.8125,38.8125 Q1019.8125,40.9063 1020.5,41.9844 Q1021.1875,43.0469 1022.5313,43.0469 Q1023.1563,43.0469 1023.75,42.7813 Q1024.3438,42.5 1024.9688,41.9219 L1024.9688,44.6406 Z " fill="#000000"/><text fill="#000000" font-family="sans-serif" font-size="14" lengthAdjust="spacing" textLength="174" x="1036" y="43.8467">DltFileTraceFilterDecoder</text><line style="stroke:#181818;stroke-width:0.5;" x1="1008" x2="1212" y1="55" y2="55"/><line style="stroke:#181818;stroke-width:0.5;" x1="1008" x2="1212" y1="63" y2="63"/></g><!--class DltSerialTraceFilterDecoder--><g id="elem_DltSerialTraceFilterDecoder"><rect fill="#F1F1F1" height="48" id="DltSerialTraceFilterDecoder" rx="2.5" ry="2.5" style="stroke:#181818;stroke-width:0.5;" width="220" x="1248" y="23"/><ellipse cx="1263" cy="39" fill="#ADD1B2" rx="11" ry="11" style="stroke:#181818;stroke-width:1.0;"/><path d="M1265.9688,44.6406 Q1265.3906,44.9375 1264.75,45.0781 Q1264.1094,45.2344 1263.4063,45.2344 Q1260.9063,45.2344 1259.5781,43.5938 Q1258.2656,41.9375 1258.2656,38.8125 Q1258.2656,35.6875 1259.5781,34.0313 Q1260.9063,32.375 1263.4063,32.375 Q1264.1094,32.375 1264.75,32.5313 Q1265.4063,32.6875 1265.9688,32.9844 L1265.9688,35.7031 Q1265.3438,35.125 1264.75,34.8594 Q1264.1563,34.5781 1263.5313,34.5781 Q1262.1875,34.5781 1261.5,35.6563 Q1260.8125,36.7188 1260.8125,38.8125 Q1260.8125,40.9063 1261.5,41.9844 Q1262.1875,43.0469 1263.5313,43.0469 Q1264.1563,43.0469 1264.75,42.7813 Q1265.3438,42.5 1265.9688,41.9219 L1265.9688,44.6406 Z " fill="#000000"/><text fill="#000000" font-family="sans-serif" font-size="14" lengthAdjust="spacing" textLength="188" x="1277" y="43.8467">DltSerialTraceFilterDecoder</text><line style="stroke:#181818;stroke-width:0.5;" x1="1249" x2="1467" y1="55" y2="55"/><line style="stroke:#181818;stroke-width:0.5;" x1="1249" x2="1467" y1="63" y2="63"/></g><!--class DltNetworkTraceFilterDecoder--><g id="elem_DltNetworkTraceFilterDecoder"><rect fill="#F1F1F1" height="48" id="DltNetworkTraceFilterDecoder" rx="2.5" ry="2.5" style="stroke:#181818;stroke-width:0.5;" width="240" x="1503" y="23"/><ellipse cx="1518" cy="39" fill="#ADD1B2" rx="11" ry="11" style="stroke:#181818;stroke-width:1.0;"/><path d="M1520.9688,44.6406 Q1520.3906,44.9375 1519.75,45.0781 Q1519.1094,45.2344 1518.4063,45.2344 Q1515.9063,45.2344 1514.5781,43.5938 Q1513.2656,41.9375 1513.2656,38.8125 Q1513.2656,35.6875 1514.5781,34.0313 Q1515.9063,32.375 1518.4063,32.375 Q1519.1094,32.375 1519.75,32.5313 Q1520.4063,32.6875 1520.9688,32.9844 L1520.9688,35.7031 Q1520.3438,35.125 1519.75,34.8594 Q1519.1563,34.5781 1518.5313,34.5781 Q1517.1875,34.5781 1516.5,35.6563 Q1515.8125,36.7188 1515.8125,38.8125 Q1515.8125,40.9063 1516.5,41.9844 Q1517.1875,43.0469 1518.5313,43.0469 Q1519.1563,43.0469 1519.75,42.7813 Q1520.3438,42.5 1520.9688,41.9219 L1520.9688,44.6406 Z " fill="#000000"/><text fill="#000000" font-family="sans-serif" font-size="14" lengthAdjust="spacing" textLength="208" x="1532" y="43.8467">DltNetworkTraceFilterDecoder</text><line style="stroke:#181818;stroke-width:0.5;" x1="1504" x2="1742" y1="55" y2="55"/><line style="stroke:#181818;stroke-width:0.5;" x1="1504" x2="1742" y1="63" y2="63"/></g><!--class DltDumpTraceReaderFactory--><g id="elem_DltDumpTraceReaderFactory"><rect codeLine="20" fill="#F1F1F1" height="96.8906" id="DltDumpTraceReaderFactory" rx="2.5" ry="2.5" style="stroke:#181818;stroke-width:0.5;" width="232" x="595" y="261"/><ellipse cx="610" cy="277" fill="#ADD1B2" rx="11" ry="11" style="stroke:#181818;stroke-width:1.0;"/><path d="M612.9688,282.6406 Q612.3906,282.9375 611.75,283.0781 Q611.1094,283.2344 610.4063,283.2344 Q607.9063,283.2344 606.5781,281.5938 Q605.2656,279.9375 605.2656,276.8125 Q605.2656,273.6875 606.5781,272.0313 Q607.9063,270.375 610.4063,270.375 Q611.1094,270.375 611.75,270.5313 Q612.4063,270.6875 612.9688,270.9844 L612.9688,273.7031 Q612.3438,273.125 611.75,272.8594 Q611.1563,272.5781 610.5313,272.5781 Q609.1875,272.5781 608.5,273.6563 Q607.8125,274.7188 607.8125,276.8125 Q607.8125,278.9063 608.5,279.9844 Q609.1875,281.0469 610.5313,281.0469 Q611.1563,281.0469 611.75,280.7813 Q612.3438,280.5 612.9688,279.9219 L612.9688,282.6406 Z " fill="#000000"/><text fill="#000000" font-family="sans-serif" font-size="14" lengthAdjust="spacing" textLength="200" x="624" y="281.8467">DltDumpTraceReaderFactory</text><line style="stroke:#181818;stroke-width:0.5;" x1="596" x2="826" y1="293" y2="293"/><line style="stroke:#181818;stroke-width:0.5;" x1="596" x2="826" y1="301" y2="301"/><ellipse cx="606" cy="314.6484" fill="#84BE84" rx="3" ry="3" style="stroke:#038048;stroke-width:1.0;"/><text fill="#000000" font-family="sans-serif" font-size="14" lengthAdjust="spacing" textLength="203" x="615" y="317.9951">CreateAsync(stream: Stream)</text><ellipse cx="606" cy="330.9453" fill="#84BE84" rx="3" ry="3" style="stroke:#038048;stroke-width:1.0;"/><text fill="#000000" font-family="sans-serif" font-size="14" lengthAdjust="spacing" textLength="204" x="615" y="334.292">CreateAsync(fileName: string)</text><ellipse cx="606" cy="347.2422" fill="#84BE84" rx="3" ry="3" style="stroke:#038048;stroke-width:1.0;"/><text fill="#000000" font-family="sans-serif" font-size="14" lengthAdjust="spacing" textLength="203" x="615" y="350.5889">CreateAsync(packet: IPacket)</text></g><!--class TracePacketReaderFactory--><g id="elem_TracePacketReaderFactory"><rect codeLine="28" fill="#F1F1F1" height="48" id="TracePacketReaderFactory" rx="2.5" ry="2.5" style="stroke:#181818;stroke-width:0.5;" width="218" x="602" y="436.89"/><ellipse cx="617" cy="452.89" fill="#ADD1B2" rx="11" ry="11" style="stroke:#181818;stroke-width:1.0;"/><path d="M619.9688,458.5306 Q619.3906,458.8275 618.75,458.9681 Q618.1094,459.1244 617.4063,459.1244 Q614.9063,459.1244 613.5781,457.4838 Q612.2656,455.8275 612.2656,452.7025 Q612.2656,449.5775 613.5781,447.9213 Q614.9063,446.265 617.4063,446.265 Q618.1094,446.265 618.75,446.4213 Q619.4063,446.5775 619.9688,446.8744 L619.9688,449.5931 Q619.3438,449.015 618.75,448.7494 Q618.1563,448.4681 617.5313,448.4681 Q616.1875,448.4681 615.5,449.5463 Q614.8125,450.6088 614.8125,452.7025 Q614.8125,454.7963 615.5,455.8744 Q616.1875,456.9369 617.5313,456.9369 Q618.1563,456.9369 618.75,456.6713 Q619.3438,456.39 619.9688,455.8119 L619.9688,458.5306 Z " fill="#000000"/><text fill="#000000" font-family="sans-serif" font-size="14" lengthAdjust="spacing" textLength="186" x="631" y="457.7367">TracePacketReaderFactory</text><line style="stroke:#181818;stroke-width:0.5;" x1="603" x2="819" y1="468.89" y2="468.89"/><line style="stroke:#181818;stroke-width:0.5;" x1="603" x2="819" y1="476.89" y2="476.89"/></g><!--class TraceReader--><g id="elem_TraceReader"><rect codeLine="32" fill="#F1F1F1" height="48" id="TraceReader" rx="2.5" ry="2.5" style="stroke:#181818;stroke-width:0.5;" width="121" x="595.5" y="561.89"/><ellipse cx="610.5" cy="577.89" fill="#ADD1B2" rx="11" ry="11" style="stroke:#181818;stroke-width:1.0;"/><path d="M613.4688,583.5306 Q612.8906,583.8275 612.25,583.9681 Q611.6094,584.1244 610.9063,584.1244 Q608.4063,584.1244 607.0781,582.4838 Q605.7656,580.8275 605.7656,577.7025 Q605.7656,574.5775 607.0781,572.9213 Q608.4063,571.265 610.9063,571.265 Q611.6094,571.265 612.25,571.4213 Q612.9063,571.5775 613.4688,571.8744 L613.4688,574.5931 Q612.8438,574.015 612.25,573.7494 Q611.6563,573.4681 611.0313,573.4681 Q609.6875,573.4681 609,574.5463 Q608.3125,575.6088 608.3125,577.7025 Q608.3125,579.7963 609,580.8744 Q609.6875,581.9369 611.0313,581.9369 Q611.6563,581.9369 612.25,581.6713 Q612.8438,581.39 613.4688,580.8119 L613.4688,583.5306 Z " fill="#000000"/><text fill="#000000" font-family="sans-serif" font-size="14" lengthAdjust="spacing" textLength="89" x="624.5" y="582.7367">TraceReader</text><line style="stroke:#181818;stroke-width:0.5;" x1="596.5" x2="715.5" y1="593.89" y2="593.89"/><line style="stroke:#181818;stroke-width:0.5;" x1="596.5" x2="715.5" y1="601.89" y2="601.89"/></g><!--class TracePacketReader--><g id="elem_TracePacketReader"><rect codeLine="33" fill="#F1F1F1" height="48" id="TracePacketReader" rx="2.5" ry="2.5" style="stroke:#181818;stroke-width:0.5;" width="168" x="752" y="561.89"/><ellipse cx="767" cy="577.89" fill="#ADD1B2" rx="11" ry="11" style="stroke:#181818;stroke-width:1.0;"/><path d="M769.9688,583.5306 Q769.3906,583.8275 768.75,583.9681 Q768.1094,584.1244 767.4063,584.1244 Q764.9063,584.1244 763.5781,582.4838 Q762.2656,580.8275 762.2656,577.7025 Q762.2656,574.5775 763.5781,572.9213 Q764.9063,571.265 767.4063,571.265 Q768.1094,571.265 768.75,571.4213 Q769.4063,571.5775 769.9688,571.8744 L769.9688,574.5931 Q769.3438,574.015 768.75,573.7494 Q768.1563,573.4681 767.5313,573.4681 Q766.1875,573.4681 765.5,574.5463 Q764.8125,575.6088 764.8125,577.7025 Q764.8125,579.7963 765.5,580.8744 Q766.1875,581.9369 767.5313,581.9369 Q768.1563,581.9369 768.75,581.6713 Q769.3438,581.39 769.9688,580.8119 L769.9688,583.5306 Z " fill="#000000"/><text fill="#000000" font-family="sans-serif" font-size="14" lengthAdjust="spacing" textLength="136" x="781" y="582.7367">TracePacketReader</text><line style="stroke:#181818;stroke-width:0.5;" x1="753" x2="919" y1="593.89" y2="593.89"/><line style="stroke:#181818;stroke-width:0.5;" x1="753" x2="919" y1="601.89" y2="601.89"/></g><!--class UdpPacketReceiver--><g id="elem_UdpPacketReceiver"><rect codeLine="41" fill="#F1F1F1" height="48" id="UdpPacketReceiver" rx="2.5" ry="2.5" style="stroke:#181818;stroke-width:0.5;" width="167" x="673.5" y="672.89"/><ellipse cx="688.5" cy="688.89" fill="#ADD1B2" rx="11" ry="11" style="stroke:#181818;stroke-width:1.0;"/><path d="M691.4688,694.5306 Q690.8906,694.8275 690.25,694.9681 Q689.6094,695.1244 688.9063,695.1244 Q686.4063,695.1244 685.0781,693.4838 Q683.7656,691.8275 683.7656,688.7025 Q683.7656,685.5775 685.0781,683.9213 Q686.4063,682.265 688.9063,682.265 Q689.6094,682.265 690.25,682.4213 Q690.9063,682.5775 691.4688,682.8744 L691.4688,685.5931 Q690.8438,685.015 690.25,684.7494 Q689.6563,684.4681 689.0313,684.4681 Q687.6875,684.4681 687,685.5463 Q686.3125,686.6088 686.3125,688.7025 Q686.3125,690.7963 687,691.8744 Q687.6875,692.9369 689.0313,692.9369 Q689.6563,692.9369 690.25,692.6713 Q690.8438,692.39 691.4688,691.8119 L691.4688,694.5306 Z " fill="#000000"/><text fill="#000000" font-family="sans-serif" font-size="14" lengthAdjust="spacing" textLength="135" x="702.5" y="693.7367">UdpPacketReceiver</text><line style="stroke:#181818;stroke-width:0.5;" x1="674.5" x2="839.5" y1="704.89" y2="704.89"/><line style="stroke:#181818;stroke-width:0.5;" x1="674.5" x2="839.5" y1="712.89" y2="712.89"/></g><!--class DltUdpPacketReceiverFactory--><g id="elem_DltUdpPacketReceiverFactory"><rect codeLine="47" fill="#F1F1F1" height="48" id="DltUdpPacketReceiverFactory" rx="2.5" ry="2.5" style="stroke:#181818;stroke-width:0.5;" width="236" x="288" y="436.89"/><ellipse cx="303" cy="452.89" fill="#ADD1B2" rx="11" ry="11" style="stroke:#181818;stroke-width:1.0;"/><path d="M305.9688,458.5306 Q305.3906,458.8275 304.75,458.9681 Q304.1094,459.1244 303.4063,459.1244 Q300.9063,459.1244 299.5781,457.4838 Q298.2656,455.8275 298.2656,452.7025 Q298.2656,449.5775 299.5781,447.9213 Q300.9063,446.265 303.4063,446.265 Q304.1094,446.265 304.75,446.4213 Q305.4063,446.5775 305.9688,446.8744 L305.9688,449.5931 Q305.3438,449.015 304.75,448.7494 Q304.1563,448.4681 303.5313,448.4681 Q302.1875,448.4681 301.5,449.5463 Q300.8125,450.6088 300.8125,452.7025 Q300.8125,454.7963 301.5,455.8744 Q302.1875,456.9369 303.5313,456.9369 Q304.1563,456.9369 304.75,456.6713 Q305.3438,456.39 305.9688,455.8119 L305.9688,458.5306 Z " fill="#000000"/><text fill="#000000" font-family="sans-serif" font-size="14" lengthAdjust="spacing" textLength="204" x="317" y="457.7367">DltUdpPacketReceiverFactory</text><line style="stroke:#181818;stroke-width:0.5;" x1="289" x2="523" y1="468.89" y2="468.89"/><line style="stroke:#181818;stroke-width:0.5;" x1="289" x2="523" y1="476.89" y2="476.89"/></g><!--class DltUdpPacketReceiver--><g id="elem_DltUdpPacketReceiver"><rect codeLine="48" fill="#F1F1F1" height="48" id="DltUdpPacketReceiver" rx="2.5" ry="2.5" style="stroke:#181818;stroke-width:0.5;" width="186" x="331" y="561.89"/><ellipse cx="346" cy="577.89" fill="#ADD1B2" rx="11" ry="11" style="stroke:#181818;stroke-width:1.0;"/><path d="M348.9688,583.5306 Q348.3906,583.8275 347.75,583.9681 Q347.1094,584.1244 346.4063,584.1244 Q343.9063,584.1244 342.5781,582.4838 Q341.2656,580.8275 341.2656,577.7025 Q341.2656,574.5775 342.5781,572.9213 Q343.9063,571.265 346.4063,571.265 Q347.1094,571.265 347.75,571.4213 Q348.4063,571.5775 348.9688,571.8744 L348.9688,574.5931 Q348.3438,574.015 347.75,573.7494 Q347.1563,573.4681 346.5313,573.4681 Q345.1875,573.4681 344.5,574.5463 Q343.8125,575.6088 343.8125,577.7025 Q343.8125,579.7963 344.5,580.8744 Q345.1875,581.9369 346.5313,581.9369 Q347.1563,581.9369 347.75,581.6713 Q348.3438,581.39 348.9688,580.8119 L348.9688,583.5306 Z " fill="#000000"/><text fill="#000000" font-family="sans-serif" font-size="14" lengthAdjust="spacing" textLength="154" x="360" y="582.7367">DltUdpPacketReceiver</text><line style="stroke:#181818;stroke-width:0.5;" x1="332" x2="516" y1="593.89" y2="593.89"/><line style="stroke:#181818;stroke-width:0.5;" x1="332" x2="516" y1="601.89" y2="601.89"/></g><!--class FilterApp--><g id="elem_FilterApp"><rect codeLine="54" fill="#F1F1F1" height="48" id="FilterApp" rx="2.5" ry="2.5" style="stroke:#181818;stroke-width:0.5;" width="92" x="406" y="285.44"/><ellipse cx="421" cy="301.44" fill="#ADD1B2" rx="11" ry="11" style="stroke:#181818;stroke-width:1.0;"/><path d="M423.9688,307.0806 Q423.3906,307.3775 422.75,307.5181 Q422.1094,307.6744 421.4063,307.6744 Q418.9063,307.6744 417.5781,306.0338 Q416.2656,304.3775 416.2656,301.2525 Q416.2656,298.1275 417.5781,296.4713 Q418.9063,294.815 421.4063,294.815 Q422.1094,294.815 422.75,294.9713 Q423.4063,295.1275 423.9688,295.4244 L423.9688,298.1431 Q423.3438,297.565 422.75,297.2994 Q422.1563,297.0181 421.5313,297.0181 Q420.1875,297.0181 419.5,298.0963 Q418.8125,299.1588 418.8125,301.2525 Q418.8125,303.3463 419.5,304.4244 Q420.1875,305.4869 421.5313,305.4869 Q422.1563,305.4869 422.75,305.2213 Q423.3438,304.94 423.9688,304.3619 L423.9688,307.0806 Z " fill="#000000"/><text fill="#000000" font-family="sans-serif" font-size="14" lengthAdjust="spacing" textLength="60" x="435" y="306.2867">FilterApp</text><line style="stroke:#181818;stroke-width:0.5;" x1="407" x2="497" y1="317.44" y2="317.44"/><line style="stroke:#181818;stroke-width:0.5;" x1="407" x2="497" y1="325.44" y2="325.44"/></g><g id="elem_GMN50"><path d="M101.5,274.18 L101.5,344.7113 A0,0 0 0 0 101.5,344.7113 L370.5,344.7113 A0,0 0 0 0 370.5,344.7113 L370.5,313.44 L405.56,309.44 L370.5,305.44 L370.5,284.18 L360.5,274.18 L101.5,274.18 A0,0 0 0 0 101.5,274.18 " fill="#FEFFDD" style="stroke:#181818;stroke-width:0.5;"/><path d="M360.5,274.18 L360.5,284.18 L370.5,284.18 L360.5,274.18 " fill="#FEFFDD" style="stroke:#181818;stroke-width:0.5;"/><text fill="#000000" font-family="sans-serif" font-size="13" lengthAdjust="spacing" textLength="240" x="107.5" y="291.2469">Instantiates the IInputStream, getting</text><text fill="#000000" font-family="sans-serif" font-size="13" lengthAdjust="spacing" textLength="240" x="107.5" y="306.3797">the DltUdpPacketReceiver, giving it to</text><text fill="#000000" font-family="sans-serif" font-size="13" lengthAdjust="spacing" textLength="248" x="107.5" y="321.5125">DltDumpTraceReaderFactory to give to</text><text fill="#000000" font-family="sans-serif" font-size="13" lengthAdjust="spacing" textLength="235" x="107.5" y="336.6453">the TracePacketReader for decoding.</text></g><!--link DltFileTraceDecoderFactory to DltDumpTraceDecoderFactory--><g id="link_DltFileTraceDecoderFactory_DltDumpTraceDecoderFactory"><path codeLine="10" d="M245.96,71.01 C318.05,85.45 413.86,103.92 499,118 C585.64,132.32 683.8,145.92 758.79,155.75 " fill="none" id="DltFileTraceDecoderFactory-DltDumpTraceDecoderFactory" style="stroke:#181818;stroke-width:1.0;"/><text fill="#000000" font-family="sans-serif" font-size="13" lengthAdjust="spacing" textLength="84" x="500" y="114.0669">&#171;instantiate&#187;</text></g><!--link DltSerialTraceDecoderFactory to DltDumpTraceDecoderFactory--><g id="link_DltSerialTraceDecoderFactory_DltDumpTraceDecoderFactory"><path codeLine="11" d="M483.4,71.49 C533.95,85.39 599.54,103.13 658,118 C697.46,128.04 741,138.56 779,147.55 " fill="none" id="DltSerialTraceDecoderFactory-DltDumpTraceDecoderFactory" style="stroke:#181818;stroke-width:1.0;"/><text fill="#000000" font-family="sans-serif" font-size="13" lengthAdjust="spacing" textLength="84" x="659" y="114.0669">&#171;instantiate&#187;</text></g><!--link DltTraceDecoderFactory to DltDumpTraceDecoderFactory--><g id="link_DltTraceDecoderFactory_DltDumpTraceDecoderFactory"><path codeLine="12" d="M696.23,71.42 C736.62,93.31 796.59,125.8 836.93,147.66 " fill="none" id="DltTraceDecoderFactory-DltDumpTraceDecoderFactory" style="stroke:#181818;stroke-width:1.0;"/><text fill="#000000" font-family="sans-serif" font-size="13" lengthAdjust="spacing" textLength="84" x="781" y="114.0669">&#171;instantiate&#187;</text></g><!--link DltPcapTraceDecoder to DltDumpTraceDecoderFactory--><g id="link_DltPcapTraceDecoder_DltDumpTraceDecoderFactory"><path codeLine="13" d="M880,71.42 C880,93.31 880,125.8 880,147.66 " fill="none" id="DltPcapTraceDecoder-DltDumpTraceDecoderFactory" style="stroke:#181818;stroke-width:1.0;"/><text fill="#000000" font-family="sans-serif" font-size="13" lengthAdjust="spacing" textLength="84" x="881" y="114.0669">&#171;instantiate&#187;</text></g><!--link DltFileTraceFilterDecoder to DltDumpTraceDecoderFactory--><g id="link_DltFileTraceFilterDecoder_DltDumpTraceDecoderFactory"><path codeLine="14" d="M1066.2,71.42 C1025.27,93.31 964.51,125.8 923.64,147.66 " fill="none" id="DltFileTraceFilterDecoder-DltDumpTraceDecoderFactory" style="stroke:#181818;stroke-width:1.0;"/><text fill="#000000" font-family="sans-serif" font-size="13" lengthAdjust="spacing" textLength="84" x="1009" y="114.0669">&#171;instantiate&#187;</text></g><!--link DltSerialTraceFilterDecoder to DltDumpTraceDecoderFactory--><g id="link_DltSerialTraceFilterDecoder_DltDumpTraceDecoderFactory"><path codeLine="15" d="M1274.88,71.46 C1224.89,85.39 1159.92,103.17 1102,118 C1062.65,128.07 1019.23,138.58 981.29,147.55 " fill="none" id="DltSerialTraceFilterDecoder-DltDumpTraceDecoderFactory" style="stroke:#181818;stroke-width:1.0;"/><text fill="#000000" font-family="sans-serif" font-size="13" lengthAdjust="spacing" textLength="84" x="1166" y="114.0669">&#171;instantiate&#187;</text></g><!--link DltNetworkTraceFilterDecoder to DltDumpTraceDecoderFactory--><g id="link_DltNetworkTraceFilterDecoder_DltDumpTraceDecoderFactory"><path codeLine="16" d="M1508.92,71.49 C1437.31,85.85 1342.96,104.07 1259,118 C1173.14,132.25 1075.91,145.79 1001.43,155.62 " fill="none" id="DltNetworkTraceFilterDecoder-DltDumpTraceDecoderFactory" style="stroke:#181818;stroke-width:1.0;"/><text fill="#000000" font-family="sans-serif" font-size="13" lengthAdjust="spacing" textLength="84" x="1350" y="114.0669">&#171;instantiate&#187;</text></g><!--link DltDumpTraceDecoderFactory to DltDumpTraceReaderFactory--><g id="link_DltDumpTraceDecoderFactory_DltDumpTraceReaderFactory"><path codeLine="26" d="M850.95,196.28 C831.79,211.63 805.83,232.44 781.47,251.96 " fill="none" id="DltDumpTraceDecoderFactory-to-DltDumpTraceReaderFactory" style="stroke:#181818;stroke-width:1.0;"/><polygon fill="#181818" points="771.79,260.53,778.9735,259.8991,781.154,253.0256,773.9705,253.6565,771.79,260.53" style="stroke:#181818;stroke-width:1.0;"/></g><!--link DltDumpTraceReaderFactory to TracePacketReaderFactory--><g id="link_DltDumpTraceReaderFactory_TracePacketReaderFactory"><path codeLine="30" d="M711,358.14 C711,384.28 711,415.52 711,436.42 " fill="none" id="DltDumpTraceReaderFactory-TracePacketReaderFactory" style="stroke:#181818;stroke-width:1.0;"/><text fill="#000000" font-family="sans-serif" font-size="13" lengthAdjust="spacing" textLength="46" x="712" y="400.9569">&#171;uses&#187;</text></g><!--link TracePacketReaderFactory to TraceReader--><g id="link_TracePacketReaderFactory_TraceReader"><path codeLine="35" d="M689.26,485.16 C682.14,493.9 674.83,504.31 670,514.89 C664.16,527.7 660.74,542.92 658.75,555.9 " fill="none" id="TracePacketReaderFactory-to-TraceReader" style="stroke:#181818;stroke-width:1.0;"/><polygon fill="#181818" points="657.94,560.69,663.1591,552.3377,658.6391,555.7391,655.2377,551.2191,657.94,560.69" style="stroke:#181818;stroke-width:1.0;"/><text fill="#000000" font-family="sans-serif" font-size="13" lengthAdjust="spacing" textLength="62" x="671" y="527.9569">&#171;returns&#187;</text></g><!--link TracePacketReaderFactory to TracePacketReader--><g id="link_TracePacketReaderFactory_TracePacketReader"><path codeLine="36" d="M734.81,485.31 C755.74,505.92 786.24,535.92 808.27,557.6 " fill="none" id="TracePacketReaderFactory-to-TracePacketReader" style="stroke:#181818;stroke-width:1.0;"/><polygon fill="#181818" points="811.28,560.55,807.6888,551.3792,807.7231,557.036,802.0664,557.0702,811.28,560.55" style="stroke:#181818;stroke-width:1.0;"/><text fill="#000000" font-family="sans-serif" font-size="13" lengthAdjust="spacing" textLength="62" x="781" y="527.9569">&#171;returns&#187;</text></g><!--link DltDumpTraceDecoderFactory to TracePacketReader--><g id="link_DltDumpTraceDecoderFactory_TracePacketReader"><path codeLine="38" d="M896.4,196.49 C923.25,237.76 972.17,326.38 957,404.89 C945.46,464.61 942.92,483.55 906,531.89 C900.15,539.55 892.92,546.65 885.35,553.02 " fill="none" id="DltDumpTraceDecoderFactory-to-TracePacketReader" style="stroke:#181818;stroke-width:1.0;"/><polygon fill="none" points="875.53,561.49,882.7203,560.943,884.9809,554.0954,877.7906,554.6424,875.53,561.49" style="stroke:#181818;stroke-width:1.0;"/><text fill="#000000" font-family="sans-serif" font-size="13" lengthAdjust="spacing" textLength="149" x="960" y="400.9569">&#171;uses on new channel&#187;</text></g><!--link DltDumpTraceDecoderFactory to TraceReader--><g id="link_DltDumpTraceDecoderFactory_TraceReader"><path codeLine="39" d="M878.92,196.41 C875.24,274.06 862.82,519.02 852,531.89 C817.47,572.99 786.78,547.72 735,561.89 C729.08,563.51 722.91,565.24 716.76,566.99 " fill="none" id="DltDumpTraceDecoderFactory-TraceReader" style="stroke:#181818;stroke-width:1.0;"/><text fill="#000000" font-family="sans-serif" font-size="13" lengthAdjust="spacing" textLength="74" x="868" y="400.9569">&#171;use once&#187;</text></g><!--reverse link TracePacketReader to UdpPacketReceiver--><g id="link_TracePacketReader_UdpPacketReceiver"><path codeLine="43" d="M811.08,621.27 C798.97,637.98 784.74,657.61 773.92,672.55 " fill="none" id="TracePacketReader-backto-UdpPacketReceiver" style="stroke:#181818;stroke-width:1.0;"/><polygon fill="none" points="819.05,611.27,812.2905,613.7817,812.0092,620.9874,818.7687,618.4756,819.05,611.27" style="stroke:#181818;stroke-width:1.0;"/></g><!--link DltUdpPacketReceiverFactory to DltUdpPacketReceiver--><g id="link_DltUdpPacketReceiverFactory_DltUdpPacketReceiver"><path codeLine="50" d="M409.43,485.31 C412.36,505.32 416.58,534.19 419.73,555.69 " fill="none" id="DltUdpPacketReceiverFactory-to-DltUdpPacketReceiver" style="stroke:#181818;stroke-width:1.0;"/><polygon fill="#181818" points="420.58,560.55,423.2248,551.0629,419.8509,555.6034,415.3103,552.2295,420.58,560.55" style="stroke:#181818;stroke-width:1.0;"/><text fill="#000000" font-family="sans-serif" font-size="13" lengthAdjust="spacing" textLength="91" x="418" y="527.9569">&#171;instantiates&#187;</text></g><!--reverse link DltUdpPacketReceiver to UdpPacketReceiver--><g id="link_DltUdpPacketReceiver_UdpPacketReceiver"><path codeLine="51" d="M508.61,614.59 C563.24,632.47 633.54,655.48 685.39,672.45 " fill="none" id="DltUdpPacketReceiver-backto-UdpPacketReceiver" style="stroke:#181818;stroke-width:1.0;"/><polygon fill="#181818" points="496.44,610.27,500.8988,615.9374,507.8451,614.0014,503.3864,608.334,496.44,610.27" style="stroke:#181818;stroke-width:1.0;"/></g><!--link FilterApp to DltDumpTraceReaderFactory--><g id="link_FilterApp_DltDumpTraceReaderFactory"><path codeLine="61" d="M498.29,309.44 C528.53,309.44 558.78,309.44 589.02,309.44 " fill="none" id="FilterApp-to-DltDumpTraceReaderFactory" style="stroke:#181818;stroke-width:1.0;"/><polygon fill="#181818" points="593.67,309.44,584.67,305.44,588.67,309.44,584.67,313.44,593.67,309.44" style="stroke:#181818;stroke-width:1.0;"/></g><!--link FilterApp to DltUdpPacketReceiverFactory--><g id="link_FilterApp_DltUdpPacketReceiverFactory"><path codeLine="62" d="M433.69,333.68 C423.34,348.32 411.42,368.14 406,387.89 C402.24,401.58 401.82,417.3 402.51,430.55 " fill="none" id="FilterApp-to-DltUdpPacketReceiverFactory" style="stroke:#181818;stroke-width:1.0;"/><polygon fill="#181818" points="402.9,435.45,406.3012,426.2071,402.5721,430.4608,398.3185,426.7317,402.9,435.45" style="stroke:#181818;stroke-width:1.0;"/><text fill="#000000" font-family="sans-serif" font-size="13" lengthAdjust="spacing" textLength="171" x="407" y="400.9569">&#171;gets UdpPacketReceiver&#187;</text></g><!--SRC=[hPNTRi8m38Nl-nI-tDYw1q08QHf2uWQXiJr0bXg824cLk20qyUvp6s25_b1jz8OYdtosJspLhvL9XHCRS2X9cAL6-8w0do_h4dJIQkk0d32UPMYeYFcLIEnEcIKiXFOO7QBe-hZKmdiOQHfbc_J32OaZb9Q9Oo79kdrKg9hZ46Tn7XuhZNNXFWm6odZEIKeG3eSTUNDqIkXx4k_9cabn4Vupw6mRln2w_-9Ahjq7E4NQMRVkHEmqNUyeIbc2Ad-UtXmovjNlZNpmn7ysVPWNlu_reWLRDnKRx0FBUSORPAcGQwG-J6R5Ir0TgcDzMLZls7_hLeJkYd20Np1kfOYJkF5iuMxcqREjrwc2iAs0SAIHpOc7PLIHp25bplZZO7GuMuvU4UeHODizFVSCre317SYLC0PrkQGZgHk8EH8l3VnCqbD94jMsqIgkbM-dgcuRyOhwD0VjglEOD9qFdjS9hdVG_wvrLTjhx2ZK5hRxDKqZOmb1uuAE7KvA6O1M29E9IJCAo_aCIoJYzIkaURGkEwlKDlyEAGAoDnQ3RAx6ap1dLYzemP-x9Bzsfhvm5-Vo8NR1hdfwMTZaQtcEkBkQiM6ZVm00]--></g></svg>