<?xml version="1.0" encoding="UTF-8" standalone="no"?><svg xmlns="http://www.w3.org/2000/svg" xmlns:xlink="http://www.w3.org/1999/xlink" contentScriptType="application/ecmascript" contentStyleType="text/css" height="739px" preserveAspectRatio="none" style="width:1507px;height:739px;background:#FFFFFF;" version="1.1" viewBox="0 0 1507 739" width="1507px" zoomAndPan="magnify"><defs><filter height="300%" id="fs621agct9xfo" width="300%" x="-1" y="-1"><feGaussianBlur result="blurOut" stdDeviation="2.0"/><feColorMatrix in="blurOut" result="blurOut2" type="matrix" values="0 0 0 0 0 0 0 0 0 0 0 0 0 0 0 0 0 0 .4 0"/><feOffset dx="4.0" dy="4.0" in="blurOut2" result="blurOut3"/><feBlend in="SourceGraphic" in2="blurOut3" mode="normal"/></filter></defs><g><rect fill="#FFFFFF" height="206" style="stroke:#FFFFFF;stroke-width:1.5;" width="1494" x="7" y="7"/><rect fill="#FFFFFF" height="487" style="stroke:#FFFFFF;stroke-width:1.5;" width="313" x="488" y="246"/><rect fill="#FFFFFF" height="206" style="stroke:#FFFFFF;stroke-width:1.5;" width="226" x="220" y="416"/><!--MD5=[3d9e46c0c53bc01218227035f9215704]
class DltDumpTraceDecoderFactory--><rect codeLine="8" fill="#FEFECE" filter="url(#fs621agct9xfo)" height="48" id="DltDumpTraceDecoderFactory" style="stroke:#A80036;stroke-width:1.5;" width="198" x="650" y="149"/><ellipse cx="665" cy="165" fill="#ADD1B2" rx="11" ry="11" style="stroke:#A80036;stroke-width:1.0;"/><path d="M667.7656,160.875 Q667.9219,160.6563 668.1094,160.5469 Q668.2969,160.4375 668.5156,160.4375 Q668.8906,160.4375 669.125,160.6953 Q669.3594,160.9531 669.3594,161.5625 L669.3594,163.0156 Q669.3594,163.625 669.125,163.8906 Q668.8906,164.1563 668.5156,164.1563 Q668.1719,164.1563 667.9688,163.9531 Q667.7656,163.7656 667.6563,163.25 Q667.6094,162.8906 667.4219,162.7031 Q667.0938,162.3281 666.4844,162.1094 Q665.875,161.8906 665.25,161.8906 Q664.4844,161.8906 663.8516,162.2188 Q663.2188,162.5469 662.7266,163.2969 Q662.2344,164.0469 662.2344,165.0781 L662.2344,166.1719 Q662.2344,167.4063 663.125,168.2266 Q664.0156,169.0469 665.6094,169.0469 Q666.5469,169.0469 667.2031,168.7969 Q667.5938,168.6406 668.0156,168.2031 Q668.2813,167.9375 668.4297,167.8594 Q668.5781,167.7813 668.7813,167.7813 Q669.1094,167.7813 669.3672,168.0391 Q669.625,168.2969 669.625,168.6406 Q669.625,168.9844 669.2813,169.3906 Q668.7813,169.9688 667.9844,170.2969 Q666.9063,170.75 665.6094,170.75 Q664.0938,170.75 662.8906,170.125 Q661.9063,169.625 661.2188,168.5547 Q660.5313,167.4844 660.5313,166.2031 L660.5313,165.0469 Q660.5313,163.7188 661.1484,162.5703 Q661.7656,161.4219 662.8594,160.8047 Q663.9531,160.1875 665.1875,160.1875 Q665.9219,160.1875 666.5703,160.3516 Q667.2188,160.5156 667.7656,160.875 Z " fill="#000000"/><text fill="#000000" font-family="sans-serif" font-size="12" lengthAdjust="spacing" textLength="166" x="679" y="169.9102">DltDumpTraceDecoderFactory</text><line style="stroke:#A80036;stroke-width:1.5;" x1="651" x2="847" y1="181" y2="181"/><line style="stroke:#A80036;stroke-width:1.5;" x1="651" x2="847" y1="189" y2="189"/><!--MD5=[21b6bec3130729e112bc504a86735e19]
class DltFileTraceDecoderFactory--><rect fill="#FEFECE" filter="url(#fs621agct9xfo)" height="48" id="DltFileTraceDecoderFactory" style="stroke:#A80036;stroke-width:1.5;" width="184" x="23" y="23"/><ellipse cx="38" cy="39" fill="#ADD1B2" rx="11" ry="11" style="stroke:#A80036;stroke-width:1.0;"/><path d="M40.7656,34.875 Q40.9219,34.6563 41.1094,34.5469 Q41.2969,34.4375 41.5156,34.4375 Q41.8906,34.4375 42.125,34.6953 Q42.3594,34.9531 42.3594,35.5625 L42.3594,37.0156 Q42.3594,37.625 42.125,37.8906 Q41.8906,38.1563 41.5156,38.1563 Q41.1719,38.1563 40.9688,37.9531 Q40.7656,37.7656 40.6563,37.25 Q40.6094,36.8906 40.4219,36.7031 Q40.0938,36.3281 39.4844,36.1094 Q38.875,35.8906 38.25,35.8906 Q37.4844,35.8906 36.8516,36.2188 Q36.2188,36.5469 35.7266,37.2969 Q35.2344,38.0469 35.2344,39.0781 L35.2344,40.1719 Q35.2344,41.4063 36.125,42.2266 Q37.0156,43.0469 38.6094,43.0469 Q39.5469,43.0469 40.2031,42.7969 Q40.5938,42.6406 41.0156,42.2031 Q41.2813,41.9375 41.4297,41.8594 Q41.5781,41.7813 41.7813,41.7813 Q42.1094,41.7813 42.3672,42.0391 Q42.625,42.2969 42.625,42.6406 Q42.625,42.9844 42.2813,43.3906 Q41.7813,43.9688 40.9844,44.2969 Q39.9063,44.75 38.6094,44.75 Q37.0938,44.75 35.8906,44.125 Q34.9063,43.625 34.2188,42.5547 Q33.5313,41.4844 33.5313,40.2031 L33.5313,39.0469 Q33.5313,37.7188 34.1484,36.5703 Q34.7656,35.4219 35.8594,34.8047 Q36.9531,34.1875 38.1875,34.1875 Q38.9219,34.1875 39.5703,34.3516 Q40.2188,34.5156 40.7656,34.875 Z " fill="#000000"/><text fill="#000000" font-family="sans-serif" font-size="12" lengthAdjust="spacing" textLength="152" x="52" y="43.9102">DltFileTraceDecoderFactory</text><line style="stroke:#A80036;stroke-width:1.5;" x1="24" x2="206" y1="55" y2="55"/><line style="stroke:#A80036;stroke-width:1.5;" x1="24" x2="206" y1="63" y2="63"/><!--MD5=[6061fe7ed7a36d88df5d9a15ddb27baf]
class DltSerialTraceDecoderFactory--><rect fill="#FEFECE" filter="url(#fs621agct9xfo)" height="48" id="DltSerialTraceDecoderFactory" style="stroke:#A80036;stroke-width:1.5;" width="196" x="242" y="23"/><ellipse cx="257" cy="39" fill="#ADD1B2" rx="11" ry="11" style="stroke:#A80036;stroke-width:1.0;"/><path d="M259.7656,34.875 Q259.9219,34.6563 260.1094,34.5469 Q260.2969,34.4375 260.5156,34.4375 Q260.8906,34.4375 261.125,34.6953 Q261.3594,34.9531 261.3594,35.5625 L261.3594,37.0156 Q261.3594,37.625 261.125,37.8906 Q260.8906,38.1563 260.5156,38.1563 Q260.1719,38.1563 259.9688,37.9531 Q259.7656,37.7656 259.6563,37.25 Q259.6094,36.8906 259.4219,36.7031 Q259.0938,36.3281 258.4844,36.1094 Q257.875,35.8906 257.25,35.8906 Q256.4844,35.8906 255.8516,36.2188 Q255.2188,36.5469 254.7266,37.2969 Q254.2344,38.0469 254.2344,39.0781 L254.2344,40.1719 Q254.2344,41.4063 255.125,42.2266 Q256.0156,43.0469 257.6094,43.0469 Q258.5469,43.0469 259.2031,42.7969 Q259.5938,42.6406 260.0156,42.2031 Q260.2813,41.9375 260.4297,41.8594 Q260.5781,41.7813 260.7813,41.7813 Q261.1094,41.7813 261.3672,42.0391 Q261.625,42.2969 261.625,42.6406 Q261.625,42.9844 261.2813,43.3906 Q260.7813,43.9688 259.9844,44.2969 Q258.9063,44.75 257.6094,44.75 Q256.0938,44.75 254.8906,44.125 Q253.9063,43.625 253.2188,42.5547 Q252.5313,41.4844 252.5313,40.2031 L252.5313,39.0469 Q252.5313,37.7188 253.1484,36.5703 Q253.7656,35.4219 254.8594,34.8047 Q255.9531,34.1875 257.1875,34.1875 Q257.9219,34.1875 258.5703,34.3516 Q259.2188,34.5156 259.7656,34.875 Z " fill="#000000"/><text fill="#000000" font-family="sans-serif" font-size="12" lengthAdjust="spacing" textLength="164" x="271" y="43.9102">DltSerialTraceDecoderFactory</text><line style="stroke:#A80036;stroke-width:1.5;" x1="243" x2="437" y1="55" y2="55"/><line style="stroke:#A80036;stroke-width:1.5;" x1="243" x2="437" y1="63" y2="63"/><!--MD5=[c19ddfaf5191a4a6d7032daada9896d3]
class DltTraceDecoderFactory--><rect fill="#FEFECE" filter="url(#fs621agct9xfo)" height="48" id="DltTraceDecoderFactory" style="stroke:#A80036;stroke-width:1.5;" width="164" x="473" y="23"/><ellipse cx="488" cy="39" fill="#ADD1B2" rx="11" ry="11" style="stroke:#A80036;stroke-width:1.0;"/><path d="M490.7656,34.875 Q490.9219,34.6563 491.1094,34.5469 Q491.2969,34.4375 491.5156,34.4375 Q491.8906,34.4375 492.125,34.6953 Q492.3594,34.9531 492.3594,35.5625 L492.3594,37.0156 Q492.3594,37.625 492.125,37.8906 Q491.8906,38.1563 491.5156,38.1563 Q491.1719,38.1563 490.9688,37.9531 Q490.7656,37.7656 490.6563,37.25 Q490.6094,36.8906 490.4219,36.7031 Q490.0938,36.3281 489.4844,36.1094 Q488.875,35.8906 488.25,35.8906 Q487.4844,35.8906 486.8516,36.2188 Q486.2188,36.5469 485.7266,37.2969 Q485.2344,38.0469 485.2344,39.0781 L485.2344,40.1719 Q485.2344,41.4063 486.125,42.2266 Q487.0156,43.0469 488.6094,43.0469 Q489.5469,43.0469 490.2031,42.7969 Q490.5938,42.6406 491.0156,42.2031 Q491.2813,41.9375 491.4297,41.8594 Q491.5781,41.7813 491.7813,41.7813 Q492.1094,41.7813 492.3672,42.0391 Q492.625,42.2969 492.625,42.6406 Q492.625,42.9844 492.2813,43.3906 Q491.7813,43.9688 490.9844,44.2969 Q489.9063,44.75 488.6094,44.75 Q487.0938,44.75 485.8906,44.125 Q484.9063,43.625 484.2188,42.5547 Q483.5313,41.4844 483.5313,40.2031 L483.5313,39.0469 Q483.5313,37.7188 484.1484,36.5703 Q484.7656,35.4219 485.8594,34.8047 Q486.9531,34.1875 488.1875,34.1875 Q488.9219,34.1875 489.5703,34.3516 Q490.2188,34.5156 490.7656,34.875 Z " fill="#000000"/><text fill="#000000" font-family="sans-serif" font-size="12" lengthAdjust="spacing" textLength="132" x="502" y="43.9102">DltTraceDecoderFactory</text><line style="stroke:#A80036;stroke-width:1.5;" x1="474" x2="636" y1="55" y2="55"/><line style="stroke:#A80036;stroke-width:1.5;" x1="474" x2="636" y1="63" y2="63"/><!--MD5=[62e81ff6d8c508371a161574ed6ef67d]
class DltPcapTraceDecoder--><rect fill="#FEFECE" filter="url(#fs621agct9xfo)" height="48" id="DltPcapTraceDecoder" style="stroke:#A80036;stroke-width:1.5;" width="153" x="672.5" y="23"/><ellipse cx="687.5" cy="39" fill="#ADD1B2" rx="11" ry="11" style="stroke:#A80036;stroke-width:1.0;"/><path d="M690.2656,34.875 Q690.4219,34.6563 690.6094,34.5469 Q690.7969,34.4375 691.0156,34.4375 Q691.3906,34.4375 691.625,34.6953 Q691.8594,34.9531 691.8594,35.5625 L691.8594,37.0156 Q691.8594,37.625 691.625,37.8906 Q691.3906,38.1563 691.0156,38.1563 Q690.6719,38.1563 690.4688,37.9531 Q690.2656,37.7656 690.1563,37.25 Q690.1094,36.8906 689.9219,36.7031 Q689.5938,36.3281 688.9844,36.1094 Q688.375,35.8906 687.75,35.8906 Q686.9844,35.8906 686.3516,36.2188 Q685.7188,36.5469 685.2266,37.2969 Q684.7344,38.0469 684.7344,39.0781 L684.7344,40.1719 Q684.7344,41.4063 685.625,42.2266 Q686.5156,43.0469 688.1094,43.0469 Q689.0469,43.0469 689.7031,42.7969 Q690.0938,42.6406 690.5156,42.2031 Q690.7813,41.9375 690.9297,41.8594 Q691.0781,41.7813 691.2813,41.7813 Q691.6094,41.7813 691.8672,42.0391 Q692.125,42.2969 692.125,42.6406 Q692.125,42.9844 691.7813,43.3906 Q691.2813,43.9688 690.4844,44.2969 Q689.4063,44.75 688.1094,44.75 Q686.5938,44.75 685.3906,44.125 Q684.4063,43.625 683.7188,42.5547 Q683.0313,41.4844 683.0313,40.2031 L683.0313,39.0469 Q683.0313,37.7188 683.6484,36.5703 Q684.2656,35.4219 685.3594,34.8047 Q686.4531,34.1875 687.6875,34.1875 Q688.4219,34.1875 689.0703,34.3516 Q689.7188,34.5156 690.2656,34.875 Z " fill="#000000"/><text fill="#000000" font-family="sans-serif" font-size="12" lengthAdjust="spacing" textLength="121" x="701.5" y="43.9102">DltPcapTraceDecoder</text><line style="stroke:#A80036;stroke-width:1.5;" x1="673.5" x2="824.5" y1="55" y2="55"/><line style="stroke:#A80036;stroke-width:1.5;" x1="673.5" x2="824.5" y1="63" y2="63"/><!--MD5=[e745b9ff235faaa7be54201b7a8ade5c]
class DltFileTraceFilterDecoder--><rect fill="#FEFECE" filter="url(#fs621agct9xfo)" height="48" id="DltFileTraceFilterDecoder" style="stroke:#A80036;stroke-width:1.5;" width="172" x="861" y="23"/><ellipse cx="876" cy="39" fill="#ADD1B2" rx="11" ry="11" style="stroke:#A80036;stroke-width:1.0;"/><path d="M878.7656,34.875 Q878.9219,34.6563 879.1094,34.5469 Q879.2969,34.4375 879.5156,34.4375 Q879.8906,34.4375 880.125,34.6953 Q880.3594,34.9531 880.3594,35.5625 L880.3594,37.0156 Q880.3594,37.625 880.125,37.8906 Q879.8906,38.1563 879.5156,38.1563 Q879.1719,38.1563 878.9688,37.9531 Q878.7656,37.7656 878.6563,37.25 Q878.6094,36.8906 878.4219,36.7031 Q878.0938,36.3281 877.4844,36.1094 Q876.875,35.8906 876.25,35.8906 Q875.4844,35.8906 874.8516,36.2188 Q874.2188,36.5469 873.7266,37.2969 Q873.2344,38.0469 873.2344,39.0781 L873.2344,40.1719 Q873.2344,41.4063 874.125,42.2266 Q875.0156,43.0469 876.6094,43.0469 Q877.5469,43.0469 878.2031,42.7969 Q878.5938,42.6406 879.0156,42.2031 Q879.2813,41.9375 879.4297,41.8594 Q879.5781,41.7813 879.7813,41.7813 Q880.1094,41.7813 880.3672,42.0391 Q880.625,42.2969 880.625,42.6406 Q880.625,42.9844 880.2813,43.3906 Q879.7813,43.9688 878.9844,44.2969 Q877.9063,44.75 876.6094,44.75 Q875.0938,44.75 873.8906,44.125 Q872.9063,43.625 872.2188,42.5547 Q871.5313,41.4844 871.5313,40.2031 L871.5313,39.0469 Q871.5313,37.7188 872.1484,36.5703 Q872.7656,35.4219 873.8594,34.8047 Q874.9531,34.1875 876.1875,34.1875 Q876.9219,34.1875 877.5703,34.3516 Q878.2188,34.5156 878.7656,34.875 Z " fill="#000000"/><text fill="#000000" font-family="sans-serif" font-size="12" lengthAdjust="spacing" textLength="140" x="890" y="43.9102">DltFileTraceFilterDecoder</text><line style="stroke:#A80036;stroke-width:1.5;" x1="862" x2="1032" y1="55" y2="55"/><line style="stroke:#A80036;stroke-width:1.5;" x1="862" x2="1032" y1="63" y2="63"/><!--MD5=[10c4b571c613f74a4b7c454633724cc1]
class DltSerialTraceFilterDecoder--><rect fill="#FEFECE" filter="url(#fs621agct9xfo)" height="48" id="DltSerialTraceFilterDecoder" style="stroke:#A80036;stroke-width:1.5;" width="184" x="1068" y="23"/><ellipse cx="1083" cy="39" fill="#ADD1B2" rx="11" ry="11" style="stroke:#A80036;stroke-width:1.0;"/><path d="M1085.7656,34.875 Q1085.9219,34.6563 1086.1094,34.5469 Q1086.2969,34.4375 1086.5156,34.4375 Q1086.8906,34.4375 1087.125,34.6953 Q1087.3594,34.9531 1087.3594,35.5625 L1087.3594,37.0156 Q1087.3594,37.625 1087.125,37.8906 Q1086.8906,38.1563 1086.5156,38.1563 Q1086.1719,38.1563 1085.9688,37.9531 Q1085.7656,37.7656 1085.6563,37.25 Q1085.6094,36.8906 1085.4219,36.7031 Q1085.0938,36.3281 1084.4844,36.1094 Q1083.875,35.8906 1083.25,35.8906 Q1082.4844,35.8906 1081.8516,36.2188 Q1081.2188,36.5469 1080.7266,37.2969 Q1080.2344,38.0469 1080.2344,39.0781 L1080.2344,40.1719 Q1080.2344,41.4063 1081.125,42.2266 Q1082.0156,43.0469 1083.6094,43.0469 Q1084.5469,43.0469 1085.2031,42.7969 Q1085.5938,42.6406 1086.0156,42.2031 Q1086.2813,41.9375 1086.4297,41.8594 Q1086.5781,41.7813 1086.7813,41.7813 Q1087.1094,41.7813 1087.3672,42.0391 Q1087.625,42.2969 1087.625,42.6406 Q1087.625,42.9844 1087.2813,43.3906 Q1086.7813,43.9688 1085.9844,44.2969 Q1084.9063,44.75 1083.6094,44.75 Q1082.0938,44.75 1080.8906,44.125 Q1079.9063,43.625 1079.2188,42.5547 Q1078.5313,41.4844 1078.5313,40.2031 L1078.5313,39.0469 Q1078.5313,37.7188 1079.1484,36.5703 Q1079.7656,35.4219 1080.8594,34.8047 Q1081.9531,34.1875 1083.1875,34.1875 Q1083.9219,34.1875 1084.5703,34.3516 Q1085.2188,34.5156 1085.7656,34.875 Z " fill="#000000"/><text fill="#000000" font-family="sans-serif" font-size="12" lengthAdjust="spacing" textLength="152" x="1097" y="43.9102">DltSerialTraceFilterDecoder</text><line style="stroke:#A80036;stroke-width:1.5;" x1="1069" x2="1251" y1="55" y2="55"/><line style="stroke:#A80036;stroke-width:1.5;" x1="1069" x2="1251" y1="63" y2="63"/><!--MD5=[34f7fe5440c213543cbf41509fd2c340]
class DltNetworkTraceFilterDecoder--><rect fill="#FEFECE" filter="url(#fs621agct9xfo)" height="48" id="DltNetworkTraceFilterDecoder" style="stroke:#A80036;stroke-width:1.5;" width="197" x="1287.5" y="23"/><ellipse cx="1302.5" cy="39" fill="#ADD1B2" rx="11" ry="11" style="stroke:#A80036;stroke-width:1.0;"/><path d="M1305.2656,34.875 Q1305.4219,34.6563 1305.6094,34.5469 Q1305.7969,34.4375 1306.0156,34.4375 Q1306.3906,34.4375 1306.625,34.6953 Q1306.8594,34.9531 1306.8594,35.5625 L1306.8594,37.0156 Q1306.8594,37.625 1306.625,37.8906 Q1306.3906,38.1563 1306.0156,38.1563 Q1305.6719,38.1563 1305.4688,37.9531 Q1305.2656,37.7656 1305.1563,37.25 Q1305.1094,36.8906 1304.9219,36.7031 Q1304.5938,36.3281 1303.9844,36.1094 Q1303.375,35.8906 1302.75,35.8906 Q1301.9844,35.8906 1301.3516,36.2188 Q1300.7188,36.5469 1300.2266,37.2969 Q1299.7344,38.0469 1299.7344,39.0781 L1299.7344,40.1719 Q1299.7344,41.4063 1300.625,42.2266 Q1301.5156,43.0469 1303.1094,43.0469 Q1304.0469,43.0469 1304.7031,42.7969 Q1305.0938,42.6406 1305.5156,42.2031 Q1305.7813,41.9375 1305.9297,41.8594 Q1306.0781,41.7813 1306.2813,41.7813 Q1306.6094,41.7813 1306.8672,42.0391 Q1307.125,42.2969 1307.125,42.6406 Q1307.125,42.9844 1306.7813,43.3906 Q1306.2813,43.9688 1305.4844,44.2969 Q1304.4063,44.75 1303.1094,44.75 Q1301.5938,44.75 1300.3906,44.125 Q1299.4063,43.625 1298.7188,42.5547 Q1298.0313,41.4844 1298.0313,40.2031 L1298.0313,39.0469 Q1298.0313,37.7188 1298.6484,36.5703 Q1299.2656,35.4219 1300.3594,34.8047 Q1301.4531,34.1875 1302.6875,34.1875 Q1303.4219,34.1875 1304.0703,34.3516 Q1304.7188,34.5156 1305.2656,34.875 Z " fill="#000000"/><text fill="#000000" font-family="sans-serif" font-size="12" lengthAdjust="spacing" textLength="165" x="1316.5" y="43.9102">DltNetworkTraceFilterDecoder</text><line style="stroke:#A80036;stroke-width:1.5;" x1="1288.5" x2="1483.5" y1="55" y2="55"/><line style="stroke:#A80036;stroke-width:1.5;" x1="1288.5" x2="1483.5" y1="63" y2="63"/><!--MD5=[fa510785f788c26069a163b459991a96]
class DltDumpTraceReaderFactory--><rect codeLine="20" fill="#FEFECE" filter="url(#fs621agct9xfo)" height="89.5078" id="DltDumpTraceReaderFactory" style="stroke:#A80036;stroke-width:1.5;" width="192" x="504" y="262"/><ellipse cx="519" cy="278" fill="#ADD1B2" rx="11" ry="11" style="stroke:#A80036;stroke-width:1.0;"/><path d="M521.7656,273.875 Q521.9219,273.6563 522.1094,273.5469 Q522.2969,273.4375 522.5156,273.4375 Q522.8906,273.4375 523.125,273.6953 Q523.3594,273.9531 523.3594,274.5625 L523.3594,276.0156 Q523.3594,276.625 523.125,276.8906 Q522.8906,277.1563 522.5156,277.1563 Q522.1719,277.1563 521.9688,276.9531 Q521.7656,276.7656 521.6563,276.25 Q521.6094,275.8906 521.4219,275.7031 Q521.0938,275.3281 520.4844,275.1094 Q519.875,274.8906 519.25,274.8906 Q518.4844,274.8906 517.8516,275.2188 Q517.2188,275.5469 516.7266,276.2969 Q516.2344,277.0469 516.2344,278.0781 L516.2344,279.1719 Q516.2344,280.4063 517.125,281.2266 Q518.0156,282.0469 519.6094,282.0469 Q520.5469,282.0469 521.2031,281.7969 Q521.5938,281.6406 522.0156,281.2031 Q522.2813,280.9375 522.4297,280.8594 Q522.5781,280.7813 522.7813,280.7813 Q523.1094,280.7813 523.3672,281.0391 Q523.625,281.2969 523.625,281.6406 Q523.625,281.9844 523.2813,282.3906 Q522.7813,282.9688 521.9844,283.2969 Q520.9063,283.75 519.6094,283.75 Q518.0938,283.75 516.8906,283.125 Q515.9063,282.625 515.2188,281.5547 Q514.5313,280.4844 514.5313,279.2031 L514.5313,278.0469 Q514.5313,276.7188 515.1484,275.5703 Q515.7656,274.4219 516.8594,273.8047 Q517.9531,273.1875 519.1875,273.1875 Q519.9219,273.1875 520.5703,273.3516 Q521.2188,273.5156 521.7656,273.875 Z " fill="#000000"/><text fill="#000000" font-family="sans-serif" font-size="12" lengthAdjust="spacing" textLength="160" x="533" y="282.9102">DltDumpTraceReaderFactory</text><line style="stroke:#A80036;stroke-width:1.5;" x1="505" x2="695" y1="294" y2="294"/><line style="stroke:#A80036;stroke-width:1.5;" x1="505" x2="695" y1="302" y2="302"/><ellipse cx="515" cy="313" fill="#84BE84" rx="3" ry="3" style="stroke:#038048;stroke-width:1.0;"/><text fill="#000000" font-family="sans-serif" font-size="11" lengthAdjust="spacing" textLength="145" x="524" y="317.4189">CreateAsync(stream: Stream)</text><ellipse cx="515" cy="326.8359" fill="#84BE84" rx="3" ry="3" style="stroke:#038048;stroke-width:1.0;"/><text fill="#000000" font-family="sans-serif" font-size="11" lengthAdjust="spacing" textLength="146" x="524" y="331.2549">CreateAsync(fileName: string)</text><ellipse cx="515" cy="340.6719" fill="#84BE84" rx="3" ry="3" style="stroke:#038048;stroke-width:1.0;"/><text fill="#000000" font-family="sans-serif" font-size="11" lengthAdjust="spacing" textLength="144" x="524" y="345.0908">CreateAsync(packet: IPacket)</text><!--MD5=[a8363c332da482dbbfa0b827f959824c]
class TracePacketReaderFactory--><rect codeLine="28" fill="#FEFECE" filter="url(#fs621agct9xfo)" height="48" id="TracePacketReaderFactory" style="stroke:#A80036;stroke-width:1.5;" width="180" x="510" y="432"/><ellipse cx="525" cy="448" fill="#ADD1B2" rx="11" ry="11" style="stroke:#A80036;stroke-width:1.0;"/><path d="M527.7656,443.875 Q527.9219,443.6563 528.1094,443.5469 Q528.2969,443.4375 528.5156,443.4375 Q528.8906,443.4375 529.125,443.6953 Q529.3594,443.9531 529.3594,444.5625 L529.3594,446.0156 Q529.3594,446.625 529.125,446.8906 Q528.8906,447.1563 528.5156,447.1563 Q528.1719,447.1563 527.9688,446.9531 Q527.7656,446.7656 527.6563,446.25 Q527.6094,445.8906 527.4219,445.7031 Q527.0938,445.3281 526.4844,445.1094 Q525.875,444.8906 525.25,444.8906 Q524.4844,444.8906 523.8516,445.2188 Q523.2188,445.5469 522.7266,446.2969 Q522.2344,447.0469 522.2344,448.0781 L522.2344,449.1719 Q522.2344,450.4063 523.125,451.2266 Q524.0156,452.0469 525.6094,452.0469 Q526.5469,452.0469 527.2031,451.7969 Q527.5938,451.6406 528.0156,451.2031 Q528.2813,450.9375 528.4297,450.8594 Q528.5781,450.7813 528.7813,450.7813 Q529.1094,450.7813 529.3672,451.0391 Q529.625,451.2969 529.625,451.6406 Q529.625,451.9844 529.2813,452.3906 Q528.7813,452.9688 527.9844,453.2969 Q526.9063,453.75 525.6094,453.75 Q524.0938,453.75 522.8906,453.125 Q521.9063,452.625 521.2188,451.5547 Q520.5313,450.4844 520.5313,449.2031 L520.5313,448.0469 Q520.5313,446.7188 521.1484,445.5703 Q521.7656,444.4219 522.8594,443.8047 Q523.9531,443.1875 525.1875,443.1875 Q525.9219,443.1875 526.5703,443.3516 Q527.2188,443.5156 527.7656,443.875 Z " fill="#000000"/><text fill="#000000" font-family="sans-serif" font-size="12" lengthAdjust="spacing" textLength="148" x="539" y="452.9102">TracePacketReaderFactory</text><line style="stroke:#A80036;stroke-width:1.5;" x1="511" x2="689" y1="464" y2="464"/><line style="stroke:#A80036;stroke-width:1.5;" x1="511" x2="689" y1="472" y2="472"/><!--MD5=[9c1ec34ffd665f2ab66be7570fe1ffdc]
class TraceReader--><rect codeLine="32" fill="#FEFECE" filter="url(#fs621agct9xfo)" height="48" id="TraceReader" style="stroke:#A80036;stroke-width:1.5;" width="104" x="504" y="558"/><ellipse cx="519" cy="574" fill="#ADD1B2" rx="11" ry="11" style="stroke:#A80036;stroke-width:1.0;"/><path d="M521.7656,569.875 Q521.9219,569.6563 522.1094,569.5469 Q522.2969,569.4375 522.5156,569.4375 Q522.8906,569.4375 523.125,569.6953 Q523.3594,569.9531 523.3594,570.5625 L523.3594,572.0156 Q523.3594,572.625 523.125,572.8906 Q522.8906,573.1563 522.5156,573.1563 Q522.1719,573.1563 521.9688,572.9531 Q521.7656,572.7656 521.6563,572.25 Q521.6094,571.8906 521.4219,571.7031 Q521.0938,571.3281 520.4844,571.1094 Q519.875,570.8906 519.25,570.8906 Q518.4844,570.8906 517.8516,571.2188 Q517.2188,571.5469 516.7266,572.2969 Q516.2344,573.0469 516.2344,574.0781 L516.2344,575.1719 Q516.2344,576.4063 517.125,577.2266 Q518.0156,578.0469 519.6094,578.0469 Q520.5469,578.0469 521.2031,577.7969 Q521.5938,577.6406 522.0156,577.2031 Q522.2813,576.9375 522.4297,576.8594 Q522.5781,576.7813 522.7813,576.7813 Q523.1094,576.7813 523.3672,577.0391 Q523.625,577.2969 523.625,577.6406 Q523.625,577.9844 523.2813,578.3906 Q522.7813,578.9688 521.9844,579.2969 Q520.9063,579.75 519.6094,579.75 Q518.0938,579.75 516.8906,579.125 Q515.9063,578.625 515.2188,577.5547 Q514.5313,576.4844 514.5313,575.2031 L514.5313,574.0469 Q514.5313,572.7188 515.1484,571.5703 Q515.7656,570.4219 516.8594,569.8047 Q517.9531,569.1875 519.1875,569.1875 Q519.9219,569.1875 520.5703,569.3516 Q521.2188,569.5156 521.7656,569.875 Z " fill="#000000"/><text fill="#000000" font-family="sans-serif" font-size="12" lengthAdjust="spacing" textLength="72" x="533" y="578.9102">TraceReader</text><line style="stroke:#A80036;stroke-width:1.5;" x1="505" x2="607" y1="590" y2="590"/><line style="stroke:#A80036;stroke-width:1.5;" x1="505" x2="607" y1="598" y2="598"/><!--MD5=[b01e84ec5455b215d882e579603de3c1]
class TracePacketReader--><rect codeLine="33" fill="#FEFECE" filter="url(#fs621agct9xfo)" height="48" id="TracePacketReader" style="stroke:#A80036;stroke-width:1.5;" width="141" x="643.5" y="558"/><ellipse cx="658.5" cy="574" fill="#ADD1B2" rx="11" ry="11" style="stroke:#A80036;stroke-width:1.0;"/><path d="M661.2656,569.875 Q661.4219,569.6563 661.6094,569.5469 Q661.7969,569.4375 662.0156,569.4375 Q662.3906,569.4375 662.625,569.6953 Q662.8594,569.9531 662.8594,570.5625 L662.8594,572.0156 Q662.8594,572.625 662.625,572.8906 Q662.3906,573.1563 662.0156,573.1563 Q661.6719,573.1563 661.4688,572.9531 Q661.2656,572.7656 661.1563,572.25 Q661.1094,571.8906 660.9219,571.7031 Q660.5938,571.3281 659.9844,571.1094 Q659.375,570.8906 658.75,570.8906 Q657.9844,570.8906 657.3516,571.2188 Q656.7188,571.5469 656.2266,572.2969 Q655.7344,573.0469 655.7344,574.0781 L655.7344,575.1719 Q655.7344,576.4063 656.625,577.2266 Q657.5156,578.0469 659.1094,578.0469 Q660.0469,578.0469 660.7031,577.7969 Q661.0938,577.6406 661.5156,577.2031 Q661.7813,576.9375 661.9297,576.8594 Q662.0781,576.7813 662.2813,576.7813 Q662.6094,576.7813 662.8672,577.0391 Q663.125,577.2969 663.125,577.6406 Q663.125,577.9844 662.7813,578.3906 Q662.2813,578.9688 661.4844,579.2969 Q660.4063,579.75 659.1094,579.75 Q657.5938,579.75 656.3906,579.125 Q655.4063,578.625 654.7188,577.5547 Q654.0313,576.4844 654.0313,575.2031 L654.0313,574.0469 Q654.0313,572.7188 654.6484,571.5703 Q655.2656,570.4219 656.3594,569.8047 Q657.4531,569.1875 658.6875,569.1875 Q659.4219,569.1875 660.0703,569.3516 Q660.7188,569.5156 661.2656,569.875 Z " fill="#000000"/><text fill="#000000" font-family="sans-serif" font-size="12" lengthAdjust="spacing" textLength="109" x="672.5" y="578.9102">TracePacketReader</text><line style="stroke:#A80036;stroke-width:1.5;" x1="644.5" x2="783.5" y1="590" y2="590"/><line style="stroke:#A80036;stroke-width:1.5;" x1="644.5" x2="783.5" y1="598" y2="598"/><!--MD5=[3abdecd7e731aece28373d3f3d1b7b84]
class UdpPacketReceiver--><rect codeLine="41" fill="#FEFECE" filter="url(#fs621agct9xfo)" height="48" id="UdpPacketReceiver" style="stroke:#A80036;stroke-width:1.5;" width="140" x="574" y="669"/><ellipse cx="589" cy="685" fill="#ADD1B2" rx="11" ry="11" style="stroke:#A80036;stroke-width:1.0;"/><path d="M591.7656,680.875 Q591.9219,680.6563 592.1094,680.5469 Q592.2969,680.4375 592.5156,680.4375 Q592.8906,680.4375 593.125,680.6953 Q593.3594,680.9531 593.3594,681.5625 L593.3594,683.0156 Q593.3594,683.625 593.125,683.8906 Q592.8906,684.1563 592.5156,684.1563 Q592.1719,684.1563 591.9688,683.9531 Q591.7656,683.7656 591.6563,683.25 Q591.6094,682.8906 591.4219,682.7031 Q591.0938,682.3281 590.4844,682.1094 Q589.875,681.8906 589.25,681.8906 Q588.4844,681.8906 587.8516,682.2188 Q587.2188,682.5469 586.7266,683.2969 Q586.2344,684.0469 586.2344,685.0781 L586.2344,686.1719 Q586.2344,687.4063 587.125,688.2266 Q588.0156,689.0469 589.6094,689.0469 Q590.5469,689.0469 591.2031,688.7969 Q591.5938,688.6406 592.0156,688.2031 Q592.2813,687.9375 592.4297,687.8594 Q592.5781,687.7813 592.7813,687.7813 Q593.1094,687.7813 593.3672,688.0391 Q593.625,688.2969 593.625,688.6406 Q593.625,688.9844 593.2813,689.3906 Q592.7813,689.9688 591.9844,690.2969 Q590.9063,690.75 589.6094,690.75 Q588.0938,690.75 586.8906,690.125 Q585.9063,689.625 585.2188,688.5547 Q584.5313,687.4844 584.5313,686.2031 L584.5313,685.0469 Q584.5313,683.7188 585.1484,682.5703 Q585.7656,681.4219 586.8594,680.8047 Q587.9531,680.1875 589.1875,680.1875 Q589.9219,680.1875 590.5703,680.3516 Q591.2188,680.5156 591.7656,680.875 Z " fill="#000000"/><text fill="#000000" font-family="sans-serif" font-size="12" lengthAdjust="spacing" textLength="108" x="603" y="689.9102">UdpPacketReceiver</text><line style="stroke:#A80036;stroke-width:1.5;" x1="575" x2="713" y1="701" y2="701"/><line style="stroke:#A80036;stroke-width:1.5;" x1="575" x2="713" y1="709" y2="709"/><!--MD5=[03d1e3434732e9038fbb57a53fc24fdf]
class DltUdpPacketReceiverFactory--><rect codeLine="47" fill="#FEFECE" filter="url(#fs621agct9xfo)" height="48" id="DltUdpPacketReceiverFactory" style="stroke:#A80036;stroke-width:1.5;" width="194" x="236" y="432"/><ellipse cx="251" cy="448" fill="#ADD1B2" rx="11" ry="11" style="stroke:#A80036;stroke-width:1.0;"/><path d="M253.7656,443.875 Q253.9219,443.6563 254.1094,443.5469 Q254.2969,443.4375 254.5156,443.4375 Q254.8906,443.4375 255.125,443.6953 Q255.3594,443.9531 255.3594,444.5625 L255.3594,446.0156 Q255.3594,446.625 255.125,446.8906 Q254.8906,447.1563 254.5156,447.1563 Q254.1719,447.1563 253.9688,446.9531 Q253.7656,446.7656 253.6563,446.25 Q253.6094,445.8906 253.4219,445.7031 Q253.0938,445.3281 252.4844,445.1094 Q251.875,444.8906 251.25,444.8906 Q250.4844,444.8906 249.8516,445.2188 Q249.2188,445.5469 248.7266,446.2969 Q248.2344,447.0469 248.2344,448.0781 L248.2344,449.1719 Q248.2344,450.4063 249.125,451.2266 Q250.0156,452.0469 251.6094,452.0469 Q252.5469,452.0469 253.2031,451.7969 Q253.5938,451.6406 254.0156,451.2031 Q254.2813,450.9375 254.4297,450.8594 Q254.5781,450.7813 254.7813,450.7813 Q255.1094,450.7813 255.3672,451.0391 Q255.625,451.2969 255.625,451.6406 Q255.625,451.9844 255.2813,452.3906 Q254.7813,452.9688 253.9844,453.2969 Q252.9063,453.75 251.6094,453.75 Q250.0938,453.75 248.8906,453.125 Q247.9063,452.625 247.2188,451.5547 Q246.5313,450.4844 246.5313,449.2031 L246.5313,448.0469 Q246.5313,446.7188 247.1484,445.5703 Q247.7656,444.4219 248.8594,443.8047 Q249.9531,443.1875 251.1875,443.1875 Q251.9219,443.1875 252.5703,443.3516 Q253.2188,443.5156 253.7656,443.875 Z " fill="#000000"/><text fill="#000000" font-family="sans-serif" font-size="12" lengthAdjust="spacing" textLength="162" x="265" y="452.9102">DltUdpPacketReceiverFactory</text><line style="stroke:#A80036;stroke-width:1.5;" x1="237" x2="429" y1="464" y2="464"/><line style="stroke:#A80036;stroke-width:1.5;" x1="237" x2="429" y1="472" y2="472"/><!--MD5=[b7afbad1d39637ecc9697f1d07ed5627]
class DltUdpPacketReceiver--><rect codeLine="48" fill="#FEFECE" filter="url(#fs621agct9xfo)" height="48" id="DltUdpPacketReceiver" style="stroke:#A80036;stroke-width:1.5;" width="155" x="269.5" y="558"/><ellipse cx="284.5" cy="574" fill="#ADD1B2" rx="11" ry="11" style="stroke:#A80036;stroke-width:1.0;"/><path d="M287.2656,569.875 Q287.4219,569.6563 287.6094,569.5469 Q287.7969,569.4375 288.0156,569.4375 Q288.3906,569.4375 288.625,569.6953 Q288.8594,569.9531 288.8594,570.5625 L288.8594,572.0156 Q288.8594,572.625 288.625,572.8906 Q288.3906,573.1563 288.0156,573.1563 Q287.6719,573.1563 287.4688,572.9531 Q287.2656,572.7656 287.1563,572.25 Q287.1094,571.8906 286.9219,571.7031 Q286.5938,571.3281 285.9844,571.1094 Q285.375,570.8906 284.75,570.8906 Q283.9844,570.8906 283.3516,571.2188 Q282.7188,571.5469 282.2266,572.2969 Q281.7344,573.0469 281.7344,574.0781 L281.7344,575.1719 Q281.7344,576.4063 282.625,577.2266 Q283.5156,578.0469 285.1094,578.0469 Q286.0469,578.0469 286.7031,577.7969 Q287.0938,577.6406 287.5156,577.2031 Q287.7813,576.9375 287.9297,576.8594 Q288.0781,576.7813 288.2813,576.7813 Q288.6094,576.7813 288.8672,577.0391 Q289.125,577.2969 289.125,577.6406 Q289.125,577.9844 288.7813,578.3906 Q288.2813,578.9688 287.4844,579.2969 Q286.4063,579.75 285.1094,579.75 Q283.5938,579.75 282.3906,579.125 Q281.4063,578.625 280.7188,577.5547 Q280.0313,576.4844 280.0313,575.2031 L280.0313,574.0469 Q280.0313,572.7188 280.6484,571.5703 Q281.2656,570.4219 282.3594,569.8047 Q283.4531,569.1875 284.6875,569.1875 Q285.4219,569.1875 286.0703,569.3516 Q286.7188,569.5156 287.2656,569.875 Z " fill="#000000"/><text fill="#000000" font-family="sans-serif" font-size="12" lengthAdjust="spacing" textLength="123" x="298.5" y="578.9102">DltUdpPacketReceiver</text><line style="stroke:#A80036;stroke-width:1.5;" x1="270.5" x2="423.5" y1="590" y2="590"/><line style="stroke:#A80036;stroke-width:1.5;" x1="270.5" x2="423.5" y1="598" y2="598"/><!--MD5=[2f8077cf50840f685548e9ba38461c6c]
class FilterApp--><rect codeLine="54" fill="#FEFECE" filter="url(#fs621agct9xfo)" height="48" id="FilterApp" style="stroke:#A80036;stroke-width:1.5;" width="80" x="332" y="283"/><ellipse cx="347" cy="299" fill="#ADD1B2" rx="11" ry="11" style="stroke:#A80036;stroke-width:1.0;"/><path d="M349.7656,294.875 Q349.9219,294.6563 350.1094,294.5469 Q350.2969,294.4375 350.5156,294.4375 Q350.8906,294.4375 351.125,294.6953 Q351.3594,294.9531 351.3594,295.5625 L351.3594,297.0156 Q351.3594,297.625 351.125,297.8906 Q350.8906,298.1563 350.5156,298.1563 Q350.1719,298.1563 349.9688,297.9531 Q349.7656,297.7656 349.6563,297.25 Q349.6094,296.8906 349.4219,296.7031 Q349.0938,296.3281 348.4844,296.1094 Q347.875,295.8906 347.25,295.8906 Q346.4844,295.8906 345.8516,296.2188 Q345.2188,296.5469 344.7266,297.2969 Q344.2344,298.0469 344.2344,299.0781 L344.2344,300.1719 Q344.2344,301.4063 345.125,302.2266 Q346.0156,303.0469 347.6094,303.0469 Q348.5469,303.0469 349.2031,302.7969 Q349.5938,302.6406 350.0156,302.2031 Q350.2813,301.9375 350.4297,301.8594 Q350.5781,301.7813 350.7813,301.7813 Q351.1094,301.7813 351.3672,302.0391 Q351.625,302.2969 351.625,302.6406 Q351.625,302.9844 351.2813,303.3906 Q350.7813,303.9688 349.9844,304.2969 Q348.9063,304.75 347.6094,304.75 Q346.0938,304.75 344.8906,304.125 Q343.9063,303.625 343.2188,302.5547 Q342.5313,301.4844 342.5313,300.2031 L342.5313,299.0469 Q342.5313,297.7188 343.1484,296.5703 Q343.7656,295.4219 344.8594,294.8047 Q345.9531,294.1875 347.1875,294.1875 Q347.9219,294.1875 348.5703,294.3516 Q349.2188,294.5156 349.7656,294.875 Z " fill="#000000"/><text fill="#000000" font-family="sans-serif" font-size="12" lengthAdjust="spacing" textLength="48" x="361" y="303.9102">FilterApp</text><line style="stroke:#A80036;stroke-width:1.5;" x1="333" x2="411" y1="315" y2="315"/><line style="stroke:#A80036;stroke-width:1.5;" x1="333" x2="411" y1="323" y2="323"/><path d="M53,269.5 L53,344.9063 A0,0 0 0 0 53,344.9063 L297,344.9063 A0,0 0 0 0 297,344.9063 L297,311 L331.76,307 L297,303 L297,279.5 L287,269.5 L53,269.5 A0,0 0 0 0 53,269.5 " fill="#FBFB77" filter="url(#fs621agct9xfo)" style="stroke:#A80036;stroke-width:1.0;"/><path d="M287,269.5 L287,279.5 L297,279.5 L287,269.5 " fill="#FBFB77" style="stroke:#A80036;stroke-width:1.0;"/><text fill="#000000" font-family="sans-serif" font-size="13" lengthAdjust="spacing" textLength="213" x="59" y="287.9951">Instantiates the IInputStream, getting</text><text fill="#000000" font-family="sans-serif" font-size="13" lengthAdjust="spacing" textLength="217" x="59" y="304.3467">the DltUdpPacketReceiver, giving it to</text><text fill="#000000" font-family="sans-serif" font-size="13" lengthAdjust="spacing" textLength="223" x="59" y="320.6982">DltDumpTraceReaderFactory to give to</text><text fill="#000000" font-family="sans-serif" font-size="13" lengthAdjust="spacing" textLength="214" x="59" y="337.0498">the TracePacketReader for decoding.</text><!--MD5=[ff2ea68be7308e0d64d4169400f069ea]
link DltFileTraceDecoderFactory to DltDumpTraceDecoderFactory--><path codeLine="10" d="M204.84,71.03 C264.48,85.86 344.62,104.92 416,119 C494.25,134.43 583.54,148.45 649.94,158.19 " fill="none" id="DltFileTraceDecoderFactory-DltDumpTraceDecoderFactory" style="stroke:#A80036;stroke-width:1.0;"/><text fill="#000000" font-family="sans-serif" font-size="13" lengthAdjust="spacing" textLength="74" x="417" y="115.4951">«instantiate»</text><!--MD5=[aae6814094aead3793dbe6693fa6c661]
link DltSerialTraceDecoderFactory to DltDumpTraceDecoderFactory--><path codeLine="11" d="M405.89,71.05 C447.81,85.45 503.37,104.03 553,119 C587.59,129.43 625.9,140.01 659.41,148.94 " fill="none" id="DltSerialTraceDecoderFactory-DltDumpTraceDecoderFactory" style="stroke:#A80036;stroke-width:1.0;"/><text fill="#000000" font-family="sans-serif" font-size="13" lengthAdjust="spacing" textLength="74" x="554" y="115.4951">«instantiate»</text><!--MD5=[10fbbb3e97301044c766d1c979cd6c8b]
link DltTraceDecoderFactory to DltDumpTraceDecoderFactory--><path codeLine="12" d="M590.61,71.12 C612.11,85.04 640.09,103.1 665,119 C680.41,128.83 697.46,139.61 712.15,148.86 " fill="none" id="DltTraceDecoderFactory-DltDumpTraceDecoderFactory" style="stroke:#A80036;stroke-width:1.0;"/><text fill="#000000" font-family="sans-serif" font-size="13" lengthAdjust="spacing" textLength="74" x="666" y="115.4951">«instantiate»</text><!--MD5=[a7b6ac98c610fb722245833552efbb22]
link DltPcapTraceDecoder to DltDumpTraceDecoderFactory--><path codeLine="13" d="M749,71.03 C749,93.17 749,126.44 749,148.67 " fill="none" id="DltPcapTraceDecoder-DltDumpTraceDecoderFactory" style="stroke:#A80036;stroke-width:1.0;"/><text fill="#000000" font-family="sans-serif" font-size="13" lengthAdjust="spacing" textLength="74" x="750" y="115.4951">«instantiate»</text><!--MD5=[b6678723e359e83cb0b1f894e99dff55]
link DltFileTraceFilterDecoder to DltDumpTraceDecoderFactory--><path codeLine="14" d="M910.22,71.03 C874.77,93.24 821.42,126.65 785.92,148.88 " fill="none" id="DltFileTraceFilterDecoder-DltDumpTraceDecoderFactory" style="stroke:#A80036;stroke-width:1.0;"/><text fill="#000000" font-family="sans-serif" font-size="13" lengthAdjust="spacing" textLength="74" x="860" y="115.4951">«instantiate»</text><!--MD5=[79510c5aba7fa466a2df24d28c43c090]
link DltSerialTraceFilterDecoder to DltDumpTraceDecoderFactory--><path codeLine="15" d="M1092.34,71.09 C1049.67,85.42 993.31,103.91 943,119 C908.55,129.33 870.42,139.93 837.15,148.91 " fill="none" id="DltSerialTraceFilterDecoder-DltDumpTraceDecoderFactory" style="stroke:#A80036;stroke-width:1.0;"/><text fill="#000000" font-family="sans-serif" font-size="13" lengthAdjust="spacing" textLength="74" x="997" y="115.4951">«instantiate»</text><!--MD5=[c09845bb84da1dd81b1bd4d74a8904a9]
link DltNetworkTraceFilterDecoder to DltDumpTraceDecoderFactory--><path codeLine="16" d="M1294.3,71.03 C1233.7,85.81 1152.39,104.82 1080,119 C1002.47,134.18 914.09,148.17 848.17,157.95 " fill="none" id="DltNetworkTraceFilterDecoder-DltDumpTraceDecoderFactory" style="stroke:#A80036;stroke-width:1.0;"/><text fill="#000000" font-family="sans-serif" font-size="13" lengthAdjust="spacing" textLength="74" x="1165" y="115.4951">«instantiate»</text><!--MD5=[59cc985deb0fcaf2137a75b0c8ed9db1]
link DltDumpTraceDecoderFactory to DltDumpTraceReaderFactory--><path codeLine="26" d="M722.7,197.3 C705.24,212.76 681.59,233.72 659.72,253.1 " fill="none" id="DltDumpTraceDecoderFactory-to-DltDumpTraceReaderFactory" style="stroke:#A80036;stroke-width:1.0;"/><polygon fill="#A80036" points="649.82,261.87,656.9638,260.8871,658.8042,253.9148,651.6604,254.8977,649.82,261.87" style="stroke:#A80036;stroke-width:1.0;"/><!--MD5=[9d74d8478e2c71b41b776c44b3ee7b40]
link DltDumpTraceReaderFactory to TracePacketReaderFactory--><path codeLine="30" d="M600,352.1 C600,378.32 600,410.51 600,431.83 " fill="none" id="DltDumpTraceReaderFactory-TracePacketReaderFactory" style="stroke:#A80036;stroke-width:1.0;"/><text fill="#000000" font-family="sans-serif" font-size="13" lengthAdjust="spacing" textLength="42" x="601" y="396.4951">«uses»</text><!--MD5=[ce30c5d637114263b35bfca45fdd5ba0]
link TracePacketReaderFactory to TraceReader--><path codeLine="35" d="M579.23,480.22 C572.57,488.97 565.92,499.38 562,510 C557.01,523.53 555.32,539.45 554.96,552.79 " fill="none" id="TracePacketReaderFactory-to-TraceReader" style="stroke:#A80036;stroke-width:1.0;"/><polygon fill="#A80036" points="554.88,557.95,559.0082,549.0081,554.9514,552.9505,551.009,548.8938,554.88,557.95" style="stroke:#A80036;stroke-width:1.0;"/><text fill="#000000" font-family="sans-serif" font-size="13" lengthAdjust="spacing" textLength="54" x="563" y="524.4951">«returns»</text><!--MD5=[cca53a11b7c037420e8a9c211e727308]
link TracePacketReaderFactory to TracePacketReader--><path codeLine="36" d="M621.18,480.03 C640.41,500.95 668.8,531.83 689.11,553.93 " fill="none" id="TracePacketReaderFactory-to-TracePacketReader" style="stroke:#A80036;stroke-width:1.0;"/><polygon fill="#A80036" points="692.55,557.67,689.4073,548.336,689.1675,553.9878,683.5157,553.748,692.55,557.67" style="stroke:#A80036;stroke-width:1.0;"/><text fill="#000000" font-family="sans-serif" font-size="13" lengthAdjust="spacing" textLength="54" x="664" y="524.4951">«returns»</text><!--MD5=[5f3758235d1f64fbd692d91be8caa886]
link DltDumpTraceDecoderFactory to TracePacketReader--><path codeLine="38" d="M763.89,197.24 C788.01,237.65 831.73,323.83 819,400 C809.09,459.33 808.63,478.12 775,528 C769.94,535.5 763.56,542.59 756.84,548.99 " fill="none" id="DltDumpTraceDecoderFactory-to-TracePacketReader" style="stroke:#A80036;stroke-width:1.0;"/><polygon fill="none" points="746.88,557.86,754.0223,556.8661,755.8518,549.8909,748.7095,550.8848,746.88,557.86" style="stroke:#A80036;stroke-width:1.0;"/><text fill="#000000" font-family="sans-serif" font-size="13" lengthAdjust="spacing" textLength="136" x="821" y="396.4951">«uses on new channel»</text><!--MD5=[d9bc06f3804ab9948892b9c3194eb583]
link DltDumpTraceDecoderFactory to TraceReader--><path codeLine="39" d="M748.29,197.07 C745.84,273.6 737.32,515.03 727,528 C697.85,564.64 670.69,544.02 626,558 C620.26,559.79 614.27,561.71 608.31,563.63 " fill="none" id="DltDumpTraceDecoderFactory-TraceReader" style="stroke:#A80036;stroke-width:1.0;"/><text fill="#000000" font-family="sans-serif" font-size="13" lengthAdjust="spacing" textLength="67" x="741" y="396.4951">«use once»</text><!--MD5=[604c3fa369b0fd587c6c9d10947466b8]
reverse link TracePacketReader to UdpPacketReceiver--><path codeLine="43" d="M692.04,617.2 C681.22,634.04 668.47,653.9 658.82,668.92 " fill="none" id="TracePacketReader-backto-UdpPacketReceiver" style="stroke:#A80036;stroke-width:1.0;"/><polygon fill="none" points="699.15,606.12,692.5446,609.0128,692.6742,616.2227,699.2797,613.3299,699.15,606.12" style="stroke:#A80036;stroke-width:1.0;"/><!--MD5=[ff62dc657630bc9045315a4089bddb4f]
link DltUdpPacketReceiverFactory to DltUdpPacketReceiver--><path codeLine="50" d="M335.6,480.03 C337.91,500.52 341.31,530.56 343.79,552.55 " fill="none" id="DltUdpPacketReceiverFactory-to-DltUdpPacketReceiver" style="stroke:#A80036;stroke-width:1.0;"/><polygon fill="#A80036" points="344.37,557.67,347.313,548.2711,343.7974,552.7029,339.3657,549.1873,344.37,557.67" style="stroke:#A80036;stroke-width:1.0;"/><text fill="#000000" font-family="sans-serif" font-size="13" lengthAdjust="spacing" textLength="81" x="342" y="524.4951">«instantiates»</text><!--MD5=[78c1219a381d49feddeb8cef718cc745]
reverse link DltUdpPacketReceiver to UdpPacketReceiver--><path codeLine="51" d="M422.46,610.69 C471.53,628.7 534.76,651.91 581.1,668.92 " fill="none" id="DltUdpPacketReceiver-backto-UdpPacketReceiver" style="stroke:#A80036;stroke-width:1.0;"/><polygon fill="#A80036" points="409.99,606.12,414.2432,611.9432,421.2544,610.2569,417.0011,604.4336,409.99,606.12" style="stroke:#A80036;stroke-width:1.0;"/><!--MD5=[f16f212a0d5c9ead61090842a5b950da]
link FilterApp to DltDumpTraceReaderFactory--><path codeLine="61" d="M412.08,307 C440.99,307 469.91,307 498.82,307 " fill="none" id="FilterApp-to-DltDumpTraceReaderFactory" style="stroke:#A80036;stroke-width:1.0;"/><polygon fill="#A80036" points="503.84,307,494.84,303,498.84,307,494.84,311,503.84,307" style="stroke:#A80036;stroke-width:1.0;"/><!--MD5=[218079772d0b3b60a82e73b0e156880e]
link FilterApp to DltUdpPacketReceiverFactory--><path codeLine="62" d="M354.62,331.29 C345.33,345.22 334.83,363.72 330,382 C326.2,396.4 326.52,412.95 327.97,426.64 " fill="none" id="FilterApp-to-DltUdpPacketReceiverFactory" style="stroke:#A80036;stroke-width:1.0;"/><polygon fill="#A80036" points="328.61,431.93,331.5028,422.5156,328.0109,426.966,323.5604,423.4741,328.61,431.93" style="stroke:#A80036;stroke-width:1.0;"/><text fill="#000000" font-family="sans-serif" font-size="13" lengthAdjust="spacing" textLength="156" x="331" y="396.4951">«gets UdpPacketReceiver»</text><!--MD5=[61f89e811348a577ccfdd06736268f35]
@startuml InputStreamFactory

skinparam rectangle {
    bordercolor transparent
    shadowing false
}

rectangle {
    class DltDumpTraceDecoderFactory

    DltDumpTraceDecoderFactory -u- DltFileTraceDecoderFactory : <<instantiate>>
    DltDumpTraceDecoderFactory -u- DltSerialTraceDecoderFactory : <<instantiate>>
    DltDumpTraceDecoderFactory -u- DltTraceDecoderFactory : <<instantiate>>
    DltDumpTraceDecoderFactory -u- DltPcapTraceDecoder : <<instantiate>>
    DltDumpTraceDecoderFactory -u- DltFileTraceFilterDecoder : <<instantiate>>
    DltDumpTraceDecoderFactory -u- DltSerialTraceFilterDecoder : <<instantiate>>
    DltDumpTraceDecoderFactory -u- DltNetworkTraceFilterDecoder : <<instantiate>>
}

rectangle {
    class DltDumpTraceReaderFactory {
        +CreateAsync(stream: Stream)
        +CreateAsync(fileName: string)
        +CreateAsync(packet: IPacket)
    }

    DltDumpTraceReaderFactory *-u- DltDumpTraceDecoderFactory

    class TracePacketReaderFactory

    DltDumpTraceReaderFactory -d- TracePacketReaderFactory : <<uses>>

    class TraceReader
    class TracePacketReader

    TracePacketReaderFactory -d-> TraceReader : <<returns>>
    TracePacketReaderFactory -d-> TracePacketReader : <<returns>>

    TracePacketReader o-u- DltDumpTraceDecoderFactory : <<uses on new channel>>
    TraceReader -u- DltDumpTraceDecoderFactory : <<use once>>

    class UdpPacketReceiver

    TracePacketReader o-d- UdpPacketReceiver
}

rectangle {
    class DltUdpPacketReceiverFactory
    class DltUdpPacketReceiver

    DltUdpPacketReceiverFactory -d-> DltUdpPacketReceiver : <<instantiates>>
    DltUdpPacketReceiver *-d- UdpPacketReceiver
}

class FilterApp
note left {
    Instantiates the IInputStream, getting
    the DltUdpPacketReceiver, giving it to
    DltDumpTraceReaderFactory to give to
    the TracePacketReader for decoding.
}
FilterApp -r-> DltDumpTraceReaderFactory
FilterApp -d-> DltUdpPacketReceiverFactory : <<gets UdpPacketReceiver>>

@enduml

PlantUML version 1.2022.1(Tue Feb 01 19:19:58 CET 2022)
(GPL source distribution)
Java Runtime: Java(TM) SE Runtime Environment
JVM: Java HotSpot(TM) Client VM
Default Encoding: Cp1252
Language: en
Country: US
--></g></svg>