<?xml version="1.0" encoding="UTF-8" standalone="no"?><svg xmlns="http://www.w3.org/2000/svg" xmlns:xlink="http://www.w3.org/1999/xlink" contentScriptType="application/ecmascript" contentStyleType="text/css" height="357px" preserveAspectRatio="none" style="width:228px;height:357px;background:#FFFFFF;" version="1.1" viewBox="0 0 228 357" width="228px" zoomAndPan="magnify"><defs><filter height="300%" id="f1jm4zhdxtlrp7" width="300%" x="-1" y="-1"><feGaussianBlur result="blurOut" stdDeviation="2.0"/><feColorMatrix in="blurOut" result="blurOut2" type="matrix" values="0 0 0 0 0 0 0 0 0 0 0 0 0 0 0 0 0 0 .4 0"/><feOffset dx="4.0" dy="4.0" in="blurOut2" result="blurOut3"/><feBlend in="SourceGraphic" in2="blurOut3" mode="normal"/></filter></defs><g><ellipse cx="100.5" cy="20" fill="#000000" filter="url(#f1jm4zhdxtlrp7)" rx="10" ry="10" style="stroke:none;stroke-width:1.0;"/><rect fill="#FEFECE" filter="url(#f1jm4zhdxtlrp7)" height="35.0938" rx="12.5" ry="12.5" style="stroke:#A80036;stroke-width:1.5;" width="133" x="34" y="94"/><text fill="#000000" font-family="sans-serif" font-size="12" lengthAdjust="spacing" textLength="113" x="44" y="116.457">Scan for Packet Start</text><rect fill="#FEFECE" filter="url(#f1jm4zhdxtlrp7)" height="50.1875" rx="12.5" ry="12.5" style="stroke:#A80036;stroke-width:1.5;" width="179" x="11" y="149.0938"/><text fill="#000000" font-family="sans-serif" font-size="12" lengthAdjust="spacing" textLength="158" x="21" y="171.5508">Ensure Valid Version (VERS)</text><text fill="#000000" font-family="sans-serif" font-size="12" lengthAdjust="spacing" textLength="159" x="21" y="186.6445">and Length (LEN) from HTYP</text><rect fill="#FEFECE" filter="url(#f1jm4zhdxtlrp7)" height="35.0938" rx="12.5" ry="12.5" style="stroke:#A80036;stroke-width:1.5;" width="103" x="49" y="219.2813"/><text fill="#000000" font-family="sans-serif" font-size="12" lengthAdjust="spacing" textLength="83" x="59" y="241.7383">Decode Packet</text><polygon fill="#FEFECE" filter="url(#f1jm4zhdxtlrp7)" points="100.5,50,112.5,62,100.5,74,88.5,62,100.5,50" style="stroke:#A80036;stroke-width:1.5;"/><polygon fill="#FEFECE" filter="url(#f1jm4zhdxtlrp7)" points="49.5,274.375,151.5,274.375,163.5,286.375,151.5,298.375,49.5,298.375,37.5,286.375,49.5,274.375" style="stroke:#A80036;stroke-width:1.5;"/><text fill="#000000" font-family="sans-serif" font-size="11" lengthAdjust="spacing" textLength="102" x="49.5" y="290.876">More Data Available?</text><ellipse cx="100.5" cy="329.375" fill="#FFFFFF" filter="url(#f1jm4zhdxtlrp7)" rx="11" ry="11" style="stroke:#000000;stroke-width:1.0;"/><ellipse cx="100.5" cy="329.375" fill="#000000" rx="6" ry="6" style="stroke:#7F7F7F;stroke-width:1.0;"/><line style="stroke:#A80036;stroke-width:1.5;" x1="100.5" x2="100.5" y1="129.0938" y2="149.0938"/><polygon fill="#A80036" points="96.5,139.0938,100.5,149.0938,104.5,139.0938,100.5,143.0938" style="stroke:#A80036;stroke-width:1.0;"/><line style="stroke:#A80036;stroke-width:1.5;" x1="100.5" x2="100.5" y1="199.2813" y2="219.2813"/><polygon fill="#A80036" points="96.5,209.2813,100.5,219.2813,104.5,209.2813,100.5,213.2813" style="stroke:#A80036;stroke-width:1.0;"/><line style="stroke:#A80036;stroke-width:1.5;" x1="100.5" x2="100.5" y1="74" y2="94"/><polygon fill="#A80036" points="96.5,84,100.5,94,104.5,84,100.5,88" style="stroke:#A80036;stroke-width:1.0;"/><line style="stroke:#A80036;stroke-width:1.5;" x1="163.5" x2="202" y1="286.375" y2="286.375"/><polygon fill="#A80036" points="198,184.1875,202,174.1875,206,184.1875,202,180.1875" style="stroke:#A80036;stroke-width:1.5;"/><line style="stroke:#A80036;stroke-width:1.5;" x1="202" x2="202" y1="62" y2="286.375"/><line style="stroke:#A80036;stroke-width:1.5;" x1="202" x2="112.5" y1="62" y2="62"/><polygon fill="#A80036" points="122.5,58,112.5,62,122.5,66,118.5,62" style="stroke:#A80036;stroke-width:1.0;"/><line style="stroke:#A80036;stroke-width:1.5;" x1="100.5" x2="100.5" y1="254.375" y2="274.375"/><polygon fill="#A80036" points="96.5,264.375,100.5,274.375,104.5,264.375,100.5,268.375" style="stroke:#A80036;stroke-width:1.0;"/><line style="stroke:#A80036;stroke-width:1.5;" x1="100.5" x2="100.5" y1="30" y2="50"/><polygon fill="#A80036" points="96.5,40,100.5,50,104.5,40,100.5,44" style="stroke:#A80036;stroke-width:1.0;"/><line style="stroke:#A80036;stroke-width:1.5;" x1="100.5" x2="100.5" y1="298.375" y2="318.375"/><polygon fill="#A80036" points="96.5,308.375,100.5,318.375,104.5,308.375,100.5,312.375" style="stroke:#A80036;stroke-width:1.0;"/><!--MD5=[fee76a50590d6a56733a71cf064c39e0]
@startuml DLT.DecoderSequence
start
repeat
    :Scan for Packet Start;
    :Ensure Valid Version (VERS)\nand Length (LEN) from HTYP;
    :Decode Packet;
repeat while (More Data Available?)
stop
@enduml

PlantUML version 1.2021.14(Fri Nov 12 17:46:50 CET 2021)
(GPL source distribution)
Java Runtime: Java(TM) SE Runtime Environment
JVM: Java HotSpot(TM) Client VM
Default Encoding: Cp1252
Language: en
Country: US
--></g></svg>