<?xml version="1.0" encoding="us-ascii" standalone="no"?><svg xmlns="http://www.w3.org/2000/svg" xmlns:xlink="http://www.w3.org/1999/xlink" contentStyleType="text/css" height="346px" preserveAspectRatio="none" style="width:244px;height:346px;background:#FFFFFF;" version="1.1" viewBox="0 0 244 346" width="244px" zoomAndPan="magnify"><defs/><g><ellipse cx="108.5" cy="20" fill="#222222" rx="10" ry="10" style="stroke:#222222;stroke-width:1.0;"/><rect fill="#F1F1F1" height="33.9688" rx="12.5" ry="12.5" style="stroke:#181818;stroke-width:0.5;" width="154" x="31.5" y="94"/><text fill="#000000" font-family="sans-serif" font-size="12" lengthAdjust="spacing" textLength="134" x="41.5" y="115.1387">Scan for Packet Start</text><rect fill="#F1F1F1" height="47.9375" rx="12.5" ry="12.5" style="stroke:#181818;stroke-width:0.5;" width="195" x="11" y="147.9688"/><text fill="#000000" font-family="sans-serif" font-size="12" lengthAdjust="spacing" textLength="175" x="21" y="169.1074">Ensure Valid Version (VERS)</text><text fill="#000000" font-family="sans-serif" font-size="12" lengthAdjust="spacing" textLength="175" x="21" y="183.0762">and Length (LEN) from HTYP</text><rect fill="#F1F1F1" height="33.9688" rx="12.5" ry="12.5" style="stroke:#181818;stroke-width:0.5;" width="115" x="51" y="215.9063"/><text fill="#000000" font-family="sans-serif" font-size="12" lengthAdjust="spacing" textLength="95" x="61" y="237.0449">Decode Packet</text><polygon fill="#F1F1F1" points="108.5,50,120.5,62,108.5,74,96.5,62,108.5,50" style="stroke:#181818;stroke-width:0.5;"/><polygon fill="#F1F1F1" points="49.5,269.875,167.5,269.875,179.5,281.875,167.5,293.875,49.5,293.875,37.5,281.875,49.5,269.875" style="stroke:#181818;stroke-width:0.5;"/><text fill="#000000" font-family="sans-serif" font-size="11" lengthAdjust="spacing" textLength="118" x="49.5" y="285.6831">More Data Available?</text><ellipse cx="108.5" cy="324.875" fill="none" rx="11" ry="11" style="stroke:#222222;stroke-width:1.0;"/><ellipse cx="108.5" cy="324.875" fill="#222222" rx="6" ry="6" style="stroke:#111111;stroke-width:1.0;"/><line style="stroke:#181818;stroke-width:1.0;" x1="108.5" x2="108.5" y1="127.9688" y2="147.9688"/><polygon fill="#181818" points="104.5,137.9688,108.5,147.9688,112.5,137.9688,108.5,141.9688" style="stroke:#181818;stroke-width:1.0;"/><line style="stroke:#181818;stroke-width:1.0;" x1="108.5" x2="108.5" y1="195.9063" y2="215.9063"/><polygon fill="#181818" points="104.5,205.9063,108.5,215.9063,112.5,205.9063,108.5,209.9063" style="stroke:#181818;stroke-width:1.0;"/><line style="stroke:#181818;stroke-width:1.0;" x1="108.5" x2="108.5" y1="74" y2="94"/><polygon fill="#181818" points="104.5,84,108.5,94,112.5,84,108.5,88" style="stroke:#181818;stroke-width:1.0;"/><line style="stroke:#181818;stroke-width:1.0;" x1="179.5" x2="218" y1="281.875" y2="281.875"/><polygon fill="#181818" points="214,181.9375,218,171.9375,222,181.9375,218,177.9375" style="stroke:#181818;stroke-width:1.0;"/><line style="stroke:#181818;stroke-width:1.0;" x1="218" x2="218" y1="62" y2="281.875"/><line style="stroke:#181818;stroke-width:1.0;" x1="218" x2="120.5" y1="62" y2="62"/><polygon fill="#181818" points="130.5,58,120.5,62,130.5,66,126.5,62" style="stroke:#181818;stroke-width:1.0;"/><line style="stroke:#181818;stroke-width:1.0;" x1="108.5" x2="108.5" y1="249.875" y2="269.875"/><polygon fill="#181818" points="104.5,259.875,108.5,269.875,112.5,259.875,108.5,263.875" style="stroke:#181818;stroke-width:1.0;"/><line style="stroke:#181818;stroke-width:1.0;" x1="108.5" x2="108.5" y1="30" y2="50"/><polygon fill="#181818" points="104.5,40,108.5,50,112.5,40,108.5,44" style="stroke:#181818;stroke-width:1.0;"/><line style="stroke:#181818;stroke-width:1.0;" x1="108.5" x2="108.5" y1="293.875" y2="313.875"/><polygon fill="#181818" points="104.5,303.875,108.5,313.875,112.5,303.875,108.5,307.875" style="stroke:#181818;stroke-width:1.0;"/><!--SRC=[BOr12i8m54JtESKiaolOXGWDkAXIh1G4Dz_srmPZKfAlNj-AcUtCUvE5agZ42vCehDbq0mLCCQ6buS62xhUe_fqD-PKOFNatekUKNGpGlJrrvXeeZ6Wut6M6RkpHO4hnYVtvqXQwvY6ENBnLESLdTfwX3t4LroI4tPkSfvldhL5Pul85]--></g></svg>