<?xml version="1.0" encoding="UTF-8" standalone="no"?><svg xmlns="http://www.w3.org/2000/svg" xmlns:xlink="http://www.w3.org/1999/xlink" contentScriptType="application/ecmascript" contentStyleType="text/css" height="438px" preserveAspectRatio="none" style="width:1355px;height:438px;background:#FFFFFF;" version="1.1" viewBox="0 0 1355 438" width="1355px" zoomAndPan="magnify"><defs><filter height="300%" id="f184szfcclpwrq" width="300%" x="-1" y="-1"><feGaussianBlur result="blurOut" stdDeviation="2.0"/><feColorMatrix in="blurOut" result="blurOut2" type="matrix" values="0 0 0 0 0 0 0 0 0 0 0 0 0 0 0 0 0 0 .4 0"/><feOffset dx="4.0" dy="4.0" in="blurOut2" result="blurOut3"/><feBlend in="SourceGraphic" in2="blurOut3" mode="normal"/></filter></defs><g><!--MD5=[362837878af92ba71ae40d034f8eec69]
class DltTraceDecoderBase--><rect codeLine="1" fill="#FEFECE" filter="url(#f184szfcclpwrq)" height="48" id="DltTraceDecoderBase" style="stroke:#A80036;stroke-width:1.5;" width="154" x="121" y="14"/><ellipse cx="136" cy="30" fill="#ADD1B2" rx="11" ry="11" style="stroke:#A80036;stroke-width:1.0;"/><path d="M138.7656,25.875 Q138.9219,25.6563 139.1094,25.5469 Q139.2969,25.4375 139.5156,25.4375 Q139.8906,25.4375 140.125,25.6953 Q140.3594,25.9531 140.3594,26.5625 L140.3594,28.0156 Q140.3594,28.625 140.125,28.8906 Q139.8906,29.1563 139.5156,29.1563 Q139.1719,29.1563 138.9688,28.9531 Q138.7656,28.7656 138.6563,28.25 Q138.6094,27.8906 138.4219,27.7031 Q138.0938,27.3281 137.4844,27.1094 Q136.875,26.8906 136.25,26.8906 Q135.4844,26.8906 134.8516,27.2188 Q134.2188,27.5469 133.7266,28.2969 Q133.2344,29.0469 133.2344,30.0781 L133.2344,31.1719 Q133.2344,32.4063 134.125,33.2266 Q135.0156,34.0469 136.6094,34.0469 Q137.5469,34.0469 138.2031,33.7969 Q138.5938,33.6406 139.0156,33.2031 Q139.2813,32.9375 139.4297,32.8594 Q139.5781,32.7813 139.7813,32.7813 Q140.1094,32.7813 140.3672,33.0391 Q140.625,33.2969 140.625,33.6406 Q140.625,33.9844 140.2813,34.3906 Q139.7813,34.9688 138.9844,35.2969 Q137.9063,35.75 136.6094,35.75 Q135.0938,35.75 133.8906,35.125 Q132.9063,34.625 132.2188,33.5547 Q131.5313,32.4844 131.5313,31.2031 L131.5313,30.0469 Q131.5313,28.7188 132.1484,27.5703 Q132.7656,26.4219 133.8594,25.8047 Q134.9531,25.1875 136.1875,25.1875 Q136.9219,25.1875 137.5703,25.3516 Q138.2188,25.5156 138.7656,25.875 Z " fill="#000000"/><text fill="#000000" font-family="sans-serif" font-size="12" lengthAdjust="spacing" textLength="122" x="150" y="34.9102">DltTraceDecoderBase</text><line style="stroke:#A80036;stroke-width:1.5;" x1="122" x2="274" y1="46" y2="46"/><line style="stroke:#A80036;stroke-width:1.5;" x1="122" x2="274" y1="54" y2="54"/><!--MD5=[e4c5aaef6244aed21e9882d104cc9d1d]
class IVerboseDltDecoder--><rect codeLine="4" fill="#FEFECE" filter="url(#f184szfcclpwrq)" height="61.8359" id="IVerboseDltDecoder" style="stroke:#A80036;stroke-width:1.5;" width="357" x="353.5" y="7"/><ellipse cx="471.25" cy="23" fill="#B4A7E5" rx="11" ry="11" style="stroke:#A80036;stroke-width:1.0;"/><path d="M472.2031,19.6406 L472.2031,26.2969 L473.9219,26.2969 Q474.5313,26.2969 474.7969,26.5313 Q475.0625,26.7656 475.0625,27.1563 Q475.0625,27.5313 474.7969,27.7656 Q474.5313,28 473.9219,28 L468.7813,28 Q468.1719,28 467.9063,27.7656 Q467.6406,27.5313 467.6406,27.1406 Q467.6406,26.7656 467.9063,26.5313 Q468.1719,26.2969 468.7813,26.2969 L470.5,26.2969 L470.5,19.6406 L468.7813,19.6406 Q468.1719,19.6406 467.9063,19.4063 Q467.6406,19.1719 467.6406,18.7813 Q467.6406,18.4063 467.9063,18.1719 Q468.1719,17.9375 468.7813,17.9375 L473.9219,17.9375 Q474.5313,17.9375 474.7969,18.1719 Q475.0625,18.4063 475.0625,18.7813 Q475.0625,19.1719 474.7969,19.4063 Q474.5313,19.6406 473.9219,19.6406 L472.2031,19.6406 Z " fill="#000000"/><text fill="#000000" font-family="sans-serif" font-size="12" font-style="italic" lengthAdjust="spacing" textLength="113" x="491.75" y="27.9102">IVerboseDltDecoder</text><line style="stroke:#A80036;stroke-width:1.5;" x1="354.5" x2="709.5" y1="39" y2="39"/><line style="stroke:#A80036;stroke-width:1.5;" x1="354.5" x2="709.5" y1="47" y2="47"/><ellipse cx="364.5" cy="58" fill="#84BE84" rx="3" ry="3" style="stroke:#038048;stroke-width:1.0;"/><text fill="#000000" font-family="sans-serif" font-size="11" lengthAdjust="spacing" textLength="331" x="373.5" y="62.4189">Decode(buffer: ReadOnlySpan&lt;byte&gt;, lineBuilder: IDltLineBuilder): int</text><path d="M745.5,16.5 L745.5,34 L710.58,38 L745.5,42 L745.5,59.2031 A0,0 0 0 0 745.5,59.2031 L1020.5,59.2031 A0,0 0 0 0 1020.5,59.2031 L1020.5,26.5 L1010.5,16.5 L745.5,16.5 A0,0 0 0 0 745.5,16.5 " fill="#FBFB77" filter="url(#f184szfcclpwrq)" style="stroke:#A80036;stroke-width:1.0;"/><path d="M1010.5,16.5 L1010.5,26.5 L1020.5,26.5 L1010.5,16.5 " fill="#FBFB77" style="stroke:#A80036;stroke-width:1.0;"/><text fill="#000000" font-family="sans-serif" font-size="13" lengthAdjust="spacing" textLength="230" x="751.5" y="34.9951">Uses the line builder to know how many</text><text fill="#000000" font-family="sans-serif" font-size="13" lengthAdjust="spacing" textLength="254" x="751.5" y="51.3467">arguments and scans through all arguments</text><!--MD5=[3b5c0acfd7eb65b09e4eb839552bb767]
class VerboseDltDecoder--><rect codeLine="12" fill="#FEFECE" filter="url(#f184szfcclpwrq)" height="61.8359" id="VerboseDltDecoder" style="stroke:#A80036;stroke-width:1.5;" width="208" x="428" y="130"/><ellipse cx="473.75" cy="146" fill="#ADD1B2" rx="11" ry="11" style="stroke:#A80036;stroke-width:1.0;"/><path d="M476.5156,141.875 Q476.6719,141.6563 476.8594,141.5469 Q477.0469,141.4375 477.2656,141.4375 Q477.6406,141.4375 477.875,141.6953 Q478.1094,141.9531 478.1094,142.5625 L478.1094,144.0156 Q478.1094,144.625 477.875,144.8906 Q477.6406,145.1563 477.2656,145.1563 Q476.9219,145.1563 476.7188,144.9531 Q476.5156,144.7656 476.4063,144.25 Q476.3594,143.8906 476.1719,143.7031 Q475.8438,143.3281 475.2344,143.1094 Q474.625,142.8906 474,142.8906 Q473.2344,142.8906 472.6016,143.2188 Q471.9688,143.5469 471.4766,144.2969 Q470.9844,145.0469 470.9844,146.0781 L470.9844,147.1719 Q470.9844,148.4063 471.875,149.2266 Q472.7656,150.0469 474.3594,150.0469 Q475.2969,150.0469 475.9531,149.7969 Q476.3438,149.6406 476.7656,149.2031 Q477.0313,148.9375 477.1797,148.8594 Q477.3281,148.7813 477.5313,148.7813 Q477.8594,148.7813 478.1172,149.0391 Q478.375,149.2969 478.375,149.6406 Q478.375,149.9844 478.0313,150.3906 Q477.5313,150.9688 476.7344,151.2969 Q475.6563,151.75 474.3594,151.75 Q472.8438,151.75 471.6406,151.125 Q470.6563,150.625 469.9688,149.5547 Q469.2813,148.4844 469.2813,147.2031 L469.2813,146.0469 Q469.2813,144.7188 469.8984,143.5703 Q470.5156,142.4219 471.6094,141.8047 Q472.7031,141.1875 473.9375,141.1875 Q474.6719,141.1875 475.3203,141.3516 Q475.9688,141.5156 476.5156,141.875 Z " fill="#000000"/><text fill="#000000" font-family="sans-serif" font-size="12" lengthAdjust="spacing" textLength="108" x="494.25" y="150.9102">VerboseDltDecoder</text><line style="stroke:#A80036;stroke-width:1.5;" x1="429" x2="635" y1="162" y2="162"/><line style="stroke:#A80036;stroke-width:1.5;" x1="429" x2="635" y1="170" y2="170"/><text fill="#000000" font-family="sans-serif" font-size="11" lengthAdjust="spacing" textLength="196" x="434" y="185.4189">.ctor(argDecoder: IVerboseArgDecoder)</text><path d="M671.5,131.5 L671.5,157 L636,161 L671.5,165 L671.5,190.5547 A0,0 0 0 0 671.5,190.5547 L892.5,190.5547 A0,0 0 0 0 892.5,190.5547 L892.5,141.5 L882.5,131.5 L671.5,131.5 A0,0 0 0 0 671.5,131.5 " fill="#FBFB77" filter="url(#f184szfcclpwrq)" style="stroke:#A80036;stroke-width:1.0;"/><path d="M882.5,131.5 L882.5,141.5 L892.5,141.5 L882.5,131.5 " fill="#FBFB77" style="stroke:#A80036;stroke-width:1.0;"/><text fill="#000000" font-family="sans-serif" font-size="13" lengthAdjust="spacing" textLength="157" x="677.5" y="149.9951">This interprets the type info</text><text fill="#000000" font-family="sans-serif" font-size="13" lengthAdjust="spacing" textLength="200" x="677.5" y="166.3467">and then uses specialized classes</text><text fill="#000000" font-family="sans-serif" font-size="13" lengthAdjust="spacing" textLength="171" x="677.5" y="182.6982">to decode the individual types</text><!--MD5=[59e54c858357a9ddd360e2b5866386e8]
class IVerboseArgDecoder--><rect codeLine="22" fill="#FEFECE" filter="url(#f184szfcclpwrq)" height="61.8359" id="IVerboseArgDecoder" style="stroke:#A80036;stroke-width:1.5;" width="370" x="639" y="253"/><ellipse cx="761.25" cy="269" fill="#B4A7E5" rx="11" ry="11" style="stroke:#A80036;stroke-width:1.0;"/><path d="M762.2031,265.6406 L762.2031,272.2969 L763.9219,272.2969 Q764.5313,272.2969 764.7969,272.5313 Q765.0625,272.7656 765.0625,273.1563 Q765.0625,273.5313 764.7969,273.7656 Q764.5313,274 763.9219,274 L758.7813,274 Q758.1719,274 757.9063,273.7656 Q757.6406,273.5313 757.6406,273.1406 Q757.6406,272.7656 757.9063,272.5313 Q758.1719,272.2969 758.7813,272.2969 L760.5,272.2969 L760.5,265.6406 L758.7813,265.6406 Q758.1719,265.6406 757.9063,265.4063 Q757.6406,265.1719 757.6406,264.7813 Q757.6406,264.4063 757.9063,264.1719 Q758.1719,263.9375 758.7813,263.9375 L763.9219,263.9375 Q764.5313,263.9375 764.7969,264.1719 Q765.0625,264.4063 765.0625,264.7813 Q765.0625,265.1719 764.7969,265.4063 Q764.5313,265.6406 763.9219,265.6406 L762.2031,265.6406 Z " fill="#000000"/><text fill="#000000" font-family="sans-serif" font-size="12" font-style="italic" lengthAdjust="spacing" textLength="117" x="781.75" y="273.9102">IVerboseArgDecoder</text><line style="stroke:#A80036;stroke-width:1.5;" x1="640" x2="1008" y1="285" y2="285"/><line style="stroke:#A80036;stroke-width:1.5;" x1="640" x2="1008" y1="293" y2="293"/><ellipse cx="650" cy="304" fill="#84BE84" rx="3" ry="3" style="stroke:#038048;stroke-width:1.0;"/><text fill="#000000" font-family="sans-serif" font-size="11" lengthAdjust="spacing" textLength="344" x="659" y="308.4189">Decode(buffer: ReadOnlySpan&lt;byte&gt;, msbf: bool, [out] IDltArg *arg): int</text><!--MD5=[2f3b8e3c253e05f74c862e1abf64af87]
class BoolArgDecoder--><rect codeLine="26" fill="#FEFECE" filter="url(#f184szfcclpwrq)" height="48" id="BoolArgDecoder" style="stroke:#A80036;stroke-width:1.5;" width="122" x="873" y="376"/><ellipse cx="888" cy="392" fill="#ADD1B2" rx="11" ry="11" style="stroke:#A80036;stroke-width:1.0;"/><path d="M890.7656,387.875 Q890.9219,387.6563 891.1094,387.5469 Q891.2969,387.4375 891.5156,387.4375 Q891.8906,387.4375 892.125,387.6953 Q892.3594,387.9531 892.3594,388.5625 L892.3594,390.0156 Q892.3594,390.625 892.125,390.8906 Q891.8906,391.1563 891.5156,391.1563 Q891.1719,391.1563 890.9688,390.9531 Q890.7656,390.7656 890.6563,390.25 Q890.6094,389.8906 890.4219,389.7031 Q890.0938,389.3281 889.4844,389.1094 Q888.875,388.8906 888.25,388.8906 Q887.4844,388.8906 886.8516,389.2188 Q886.2188,389.5469 885.7266,390.2969 Q885.2344,391.0469 885.2344,392.0781 L885.2344,393.1719 Q885.2344,394.4063 886.125,395.2266 Q887.0156,396.0469 888.6094,396.0469 Q889.5469,396.0469 890.2031,395.7969 Q890.5938,395.6406 891.0156,395.2031 Q891.2813,394.9375 891.4297,394.8594 Q891.5781,394.7813 891.7813,394.7813 Q892.1094,394.7813 892.3672,395.0391 Q892.625,395.2969 892.625,395.6406 Q892.625,395.9844 892.2813,396.3906 Q891.7813,396.9688 890.9844,397.2969 Q889.9063,397.75 888.6094,397.75 Q887.0938,397.75 885.8906,397.125 Q884.9063,396.625 884.2188,395.5547 Q883.5313,394.4844 883.5313,393.2031 L883.5313,392.0469 Q883.5313,390.7188 884.1484,389.5703 Q884.7656,388.4219 885.8594,387.8047 Q886.9531,387.1875 888.1875,387.1875 Q888.9219,387.1875 889.5703,387.3516 Q890.2188,387.5156 890.7656,387.875 Z " fill="#000000"/><text fill="#000000" font-family="sans-serif" font-size="12" lengthAdjust="spacing" textLength="90" x="902" y="396.9102">BoolArgDecoder</text><line style="stroke:#A80036;stroke-width:1.5;" x1="874" x2="994" y1="408" y2="408"/><line style="stroke:#A80036;stroke-width:1.5;" x1="874" x2="994" y1="416" y2="416"/><!--MD5=[cc4f2cfc94662b1e0436f8ea7950d3d1]
class SignedIntArgDecoder--><rect codeLine="27" fill="#FEFECE" filter="url(#f184szfcclpwrq)" height="48" id="SignedIntArgDecoder" style="stroke:#A80036;stroke-width:1.5;" width="149" x="206.5" y="376"/><ellipse cx="221.5" cy="392" fill="#ADD1B2" rx="11" ry="11" style="stroke:#A80036;stroke-width:1.0;"/><path d="M224.2656,387.875 Q224.4219,387.6563 224.6094,387.5469 Q224.7969,387.4375 225.0156,387.4375 Q225.3906,387.4375 225.625,387.6953 Q225.8594,387.9531 225.8594,388.5625 L225.8594,390.0156 Q225.8594,390.625 225.625,390.8906 Q225.3906,391.1563 225.0156,391.1563 Q224.6719,391.1563 224.4688,390.9531 Q224.2656,390.7656 224.1563,390.25 Q224.1094,389.8906 223.9219,389.7031 Q223.5938,389.3281 222.9844,389.1094 Q222.375,388.8906 221.75,388.8906 Q220.9844,388.8906 220.3516,389.2188 Q219.7188,389.5469 219.2266,390.2969 Q218.7344,391.0469 218.7344,392.0781 L218.7344,393.1719 Q218.7344,394.4063 219.625,395.2266 Q220.5156,396.0469 222.1094,396.0469 Q223.0469,396.0469 223.7031,395.7969 Q224.0938,395.6406 224.5156,395.2031 Q224.7813,394.9375 224.9297,394.8594 Q225.0781,394.7813 225.2813,394.7813 Q225.6094,394.7813 225.8672,395.0391 Q226.125,395.2969 226.125,395.6406 Q226.125,395.9844 225.7813,396.3906 Q225.2813,396.9688 224.4844,397.2969 Q223.4063,397.75 222.1094,397.75 Q220.5938,397.75 219.3906,397.125 Q218.4063,396.625 217.7188,395.5547 Q217.0313,394.4844 217.0313,393.2031 L217.0313,392.0469 Q217.0313,390.7188 217.6484,389.5703 Q218.2656,388.4219 219.3594,387.8047 Q220.4531,387.1875 221.6875,387.1875 Q222.4219,387.1875 223.0703,387.3516 Q223.7188,387.5156 224.2656,387.875 Z " fill="#000000"/><text fill="#000000" font-family="sans-serif" font-size="12" lengthAdjust="spacing" textLength="117" x="235.5" y="396.9102">SignedIntArgDecoder</text><line style="stroke:#A80036;stroke-width:1.5;" x1="207.5" x2="354.5" y1="408" y2="408"/><line style="stroke:#A80036;stroke-width:1.5;" x1="207.5" x2="354.5" y1="416" y2="416"/><!--MD5=[2d00e2c45ecda1a97f38626f30aff1f1]
class UnsignedIntArgDecoder--><rect codeLine="28" fill="#FEFECE" filter="url(#f184szfcclpwrq)" height="48" id="UnsignedIntArgDecoder" style="stroke:#A80036;stroke-width:1.5;" width="164" x="7" y="376"/><ellipse cx="22" cy="392" fill="#ADD1B2" rx="11" ry="11" style="stroke:#A80036;stroke-width:1.0;"/><path d="M24.7656,387.875 Q24.9219,387.6563 25.1094,387.5469 Q25.2969,387.4375 25.5156,387.4375 Q25.8906,387.4375 26.125,387.6953 Q26.3594,387.9531 26.3594,388.5625 L26.3594,390.0156 Q26.3594,390.625 26.125,390.8906 Q25.8906,391.1563 25.5156,391.1563 Q25.1719,391.1563 24.9688,390.9531 Q24.7656,390.7656 24.6563,390.25 Q24.6094,389.8906 24.4219,389.7031 Q24.0938,389.3281 23.4844,389.1094 Q22.875,388.8906 22.25,388.8906 Q21.4844,388.8906 20.8516,389.2188 Q20.2188,389.5469 19.7266,390.2969 Q19.2344,391.0469 19.2344,392.0781 L19.2344,393.1719 Q19.2344,394.4063 20.125,395.2266 Q21.0156,396.0469 22.6094,396.0469 Q23.5469,396.0469 24.2031,395.7969 Q24.5938,395.6406 25.0156,395.2031 Q25.2813,394.9375 25.4297,394.8594 Q25.5781,394.7813 25.7813,394.7813 Q26.1094,394.7813 26.3672,395.0391 Q26.625,395.2969 26.625,395.6406 Q26.625,395.9844 26.2813,396.3906 Q25.7813,396.9688 24.9844,397.2969 Q23.9063,397.75 22.6094,397.75 Q21.0938,397.75 19.8906,397.125 Q18.9063,396.625 18.2188,395.5547 Q17.5313,394.4844 17.5313,393.2031 L17.5313,392.0469 Q17.5313,390.7188 18.1484,389.5703 Q18.7656,388.4219 19.8594,387.8047 Q20.9531,387.1875 22.1875,387.1875 Q22.9219,387.1875 23.5703,387.3516 Q24.2188,387.5156 24.7656,387.875 Z " fill="#000000"/><text fill="#000000" font-family="sans-serif" font-size="12" lengthAdjust="spacing" textLength="132" x="36" y="396.9102">UnsignedIntArgDecoder</text><line style="stroke:#A80036;stroke-width:1.5;" x1="8" x2="170" y1="408" y2="408"/><line style="stroke:#A80036;stroke-width:1.5;" x1="8" x2="170" y1="416" y2="416"/><!--MD5=[1888ff19d99a3e140eaea476d1a309e3]
class FloatArgDecoder--><rect codeLine="29" fill="#FEFECE" filter="url(#f184szfcclpwrq)" height="48" id="FloatArgDecoder" style="stroke:#A80036;stroke-width:1.5;" width="124" x="714" y="376"/><ellipse cx="729" cy="392" fill="#ADD1B2" rx="11" ry="11" style="stroke:#A80036;stroke-width:1.0;"/><path d="M731.7656,387.875 Q731.9219,387.6563 732.1094,387.5469 Q732.2969,387.4375 732.5156,387.4375 Q732.8906,387.4375 733.125,387.6953 Q733.3594,387.9531 733.3594,388.5625 L733.3594,390.0156 Q733.3594,390.625 733.125,390.8906 Q732.8906,391.1563 732.5156,391.1563 Q732.1719,391.1563 731.9688,390.9531 Q731.7656,390.7656 731.6563,390.25 Q731.6094,389.8906 731.4219,389.7031 Q731.0938,389.3281 730.4844,389.1094 Q729.875,388.8906 729.25,388.8906 Q728.4844,388.8906 727.8516,389.2188 Q727.2188,389.5469 726.7266,390.2969 Q726.2344,391.0469 726.2344,392.0781 L726.2344,393.1719 Q726.2344,394.4063 727.125,395.2266 Q728.0156,396.0469 729.6094,396.0469 Q730.5469,396.0469 731.2031,395.7969 Q731.5938,395.6406 732.0156,395.2031 Q732.2813,394.9375 732.4297,394.8594 Q732.5781,394.7813 732.7813,394.7813 Q733.1094,394.7813 733.3672,395.0391 Q733.625,395.2969 733.625,395.6406 Q733.625,395.9844 733.2813,396.3906 Q732.7813,396.9688 731.9844,397.2969 Q730.9063,397.75 729.6094,397.75 Q728.0938,397.75 726.8906,397.125 Q725.9063,396.625 725.2188,395.5547 Q724.5313,394.4844 724.5313,393.2031 L724.5313,392.0469 Q724.5313,390.7188 725.1484,389.5703 Q725.7656,388.4219 726.8594,387.8047 Q727.9531,387.1875 729.1875,387.1875 Q729.9219,387.1875 730.5703,387.3516 Q731.2188,387.5156 731.7656,387.875 Z " fill="#000000"/><text fill="#000000" font-family="sans-serif" font-size="12" lengthAdjust="spacing" textLength="92" x="743" y="396.9102">FloatArgDecoder</text><line style="stroke:#A80036;stroke-width:1.5;" x1="715" x2="837" y1="408" y2="408"/><line style="stroke:#A80036;stroke-width:1.5;" x1="715" x2="837" y1="416" y2="416"/><!--MD5=[a1dfa63cecd38c72433a8f4c131bf9bb]
class StringArgDecoder--><rect codeLine="30" fill="#FEFECE" filter="url(#f184szfcclpwrq)" height="48" id="StringArgDecoder" style="stroke:#A80036;stroke-width:1.5;" width="129" x="390.5" y="376"/><ellipse cx="405.5" cy="392" fill="#ADD1B2" rx="11" ry="11" style="stroke:#A80036;stroke-width:1.0;"/><path d="M408.2656,387.875 Q408.4219,387.6563 408.6094,387.5469 Q408.7969,387.4375 409.0156,387.4375 Q409.3906,387.4375 409.625,387.6953 Q409.8594,387.9531 409.8594,388.5625 L409.8594,390.0156 Q409.8594,390.625 409.625,390.8906 Q409.3906,391.1563 409.0156,391.1563 Q408.6719,391.1563 408.4688,390.9531 Q408.2656,390.7656 408.1563,390.25 Q408.1094,389.8906 407.9219,389.7031 Q407.5938,389.3281 406.9844,389.1094 Q406.375,388.8906 405.75,388.8906 Q404.9844,388.8906 404.3516,389.2188 Q403.7188,389.5469 403.2266,390.2969 Q402.7344,391.0469 402.7344,392.0781 L402.7344,393.1719 Q402.7344,394.4063 403.625,395.2266 Q404.5156,396.0469 406.1094,396.0469 Q407.0469,396.0469 407.7031,395.7969 Q408.0938,395.6406 408.5156,395.2031 Q408.7813,394.9375 408.9297,394.8594 Q409.0781,394.7813 409.2813,394.7813 Q409.6094,394.7813 409.8672,395.0391 Q410.125,395.2969 410.125,395.6406 Q410.125,395.9844 409.7813,396.3906 Q409.2813,396.9688 408.4844,397.2969 Q407.4063,397.75 406.1094,397.75 Q404.5938,397.75 403.3906,397.125 Q402.4063,396.625 401.7188,395.5547 Q401.0313,394.4844 401.0313,393.2031 L401.0313,392.0469 Q401.0313,390.7188 401.6484,389.5703 Q402.2656,388.4219 403.3594,387.8047 Q404.4531,387.1875 405.6875,387.1875 Q406.4219,387.1875 407.0703,387.3516 Q407.7188,387.5156 408.2656,387.875 Z " fill="#000000"/><text fill="#000000" font-family="sans-serif" font-size="12" lengthAdjust="spacing" textLength="97" x="419.5" y="396.9102">StringArgDecoder</text><line style="stroke:#A80036;stroke-width:1.5;" x1="391.5" x2="518.5" y1="408" y2="408"/><line style="stroke:#A80036;stroke-width:1.5;" x1="391.5" x2="518.5" y1="416" y2="416"/><!--MD5=[922918767524b530397153c368c8d882]
class RawDataArgDecoder--><rect codeLine="31" fill="#FEFECE" filter="url(#f184szfcclpwrq)" height="48" id="RawDataArgDecoder" style="stroke:#A80036;stroke-width:1.5;" width="148" x="1030" y="376"/><ellipse cx="1045" cy="392" fill="#ADD1B2" rx="11" ry="11" style="stroke:#A80036;stroke-width:1.0;"/><path d="M1047.7656,387.875 Q1047.9219,387.6563 1048.1094,387.5469 Q1048.2969,387.4375 1048.5156,387.4375 Q1048.8906,387.4375 1049.125,387.6953 Q1049.3594,387.9531 1049.3594,388.5625 L1049.3594,390.0156 Q1049.3594,390.625 1049.125,390.8906 Q1048.8906,391.1563 1048.5156,391.1563 Q1048.1719,391.1563 1047.9688,390.9531 Q1047.7656,390.7656 1047.6563,390.25 Q1047.6094,389.8906 1047.4219,389.7031 Q1047.0938,389.3281 1046.4844,389.1094 Q1045.875,388.8906 1045.25,388.8906 Q1044.4844,388.8906 1043.8516,389.2188 Q1043.2188,389.5469 1042.7266,390.2969 Q1042.2344,391.0469 1042.2344,392.0781 L1042.2344,393.1719 Q1042.2344,394.4063 1043.125,395.2266 Q1044.0156,396.0469 1045.6094,396.0469 Q1046.5469,396.0469 1047.2031,395.7969 Q1047.5938,395.6406 1048.0156,395.2031 Q1048.2813,394.9375 1048.4297,394.8594 Q1048.5781,394.7813 1048.7813,394.7813 Q1049.1094,394.7813 1049.3672,395.0391 Q1049.625,395.2969 1049.625,395.6406 Q1049.625,395.9844 1049.2813,396.3906 Q1048.7813,396.9688 1047.9844,397.2969 Q1046.9063,397.75 1045.6094,397.75 Q1044.0938,397.75 1042.8906,397.125 Q1041.9063,396.625 1041.2188,395.5547 Q1040.5313,394.4844 1040.5313,393.2031 L1040.5313,392.0469 Q1040.5313,390.7188 1041.1484,389.5703 Q1041.7656,388.4219 1042.8594,387.8047 Q1043.9531,387.1875 1045.1875,387.1875 Q1045.9219,387.1875 1046.5703,387.3516 Q1047.2188,387.5156 1047.7656,387.875 Z " fill="#000000"/><text fill="#000000" font-family="sans-serif" font-size="12" lengthAdjust="spacing" textLength="116" x="1059" y="396.9102">RawDataArgDecoder</text><line style="stroke:#A80036;stroke-width:1.5;" x1="1031" x2="1177" y1="408" y2="408"/><line style="stroke:#A80036;stroke-width:1.5;" x1="1031" x2="1177" y1="416" y2="416"/><!--MD5=[1035b7a79b148179676631df2fb72cc1]
class ArrayArgDecoder--><rect codeLine="32" fill="#FEFECE" filter="url(#f184szfcclpwrq)" height="48" id="ArrayArgDecoder" style="stroke:#A80036;stroke-width:1.5;" width="124" x="555" y="376"/><ellipse cx="570" cy="392" fill="#ADD1B2" rx="11" ry="11" style="stroke:#A80036;stroke-width:1.0;"/><path d="M572.7656,387.875 Q572.9219,387.6563 573.1094,387.5469 Q573.2969,387.4375 573.5156,387.4375 Q573.8906,387.4375 574.125,387.6953 Q574.3594,387.9531 574.3594,388.5625 L574.3594,390.0156 Q574.3594,390.625 574.125,390.8906 Q573.8906,391.1563 573.5156,391.1563 Q573.1719,391.1563 572.9688,390.9531 Q572.7656,390.7656 572.6563,390.25 Q572.6094,389.8906 572.4219,389.7031 Q572.0938,389.3281 571.4844,389.1094 Q570.875,388.8906 570.25,388.8906 Q569.4844,388.8906 568.8516,389.2188 Q568.2188,389.5469 567.7266,390.2969 Q567.2344,391.0469 567.2344,392.0781 L567.2344,393.1719 Q567.2344,394.4063 568.125,395.2266 Q569.0156,396.0469 570.6094,396.0469 Q571.5469,396.0469 572.2031,395.7969 Q572.5938,395.6406 573.0156,395.2031 Q573.2813,394.9375 573.4297,394.8594 Q573.5781,394.7813 573.7813,394.7813 Q574.1094,394.7813 574.3672,395.0391 Q574.625,395.2969 574.625,395.6406 Q574.625,395.9844 574.2813,396.3906 Q573.7813,396.9688 572.9844,397.2969 Q571.9063,397.75 570.6094,397.75 Q569.0938,397.75 567.8906,397.125 Q566.9063,396.625 566.2188,395.5547 Q565.5313,394.4844 565.5313,393.2031 L565.5313,392.0469 Q565.5313,390.7188 566.1484,389.5703 Q566.7656,388.4219 567.8594,387.8047 Q568.9531,387.1875 570.1875,387.1875 Q570.9219,387.1875 571.5703,387.3516 Q572.2188,387.5156 572.7656,387.875 Z " fill="#000000"/><text fill="#000000" font-family="sans-serif" font-size="12" lengthAdjust="spacing" textLength="92" x="584" y="396.9102">ArrayArgDecoder</text><line style="stroke:#A80036;stroke-width:1.5;" x1="556" x2="678" y1="408" y2="408"/><line style="stroke:#A80036;stroke-width:1.5;" x1="556" x2="678" y1="416" y2="416"/><!--MD5=[d6ed4aa3d37b5ad1dd98b3d8ccd8741d]
class StructArgDecoder--><rect codeLine="33" fill="#FEFECE" filter="url(#f184szfcclpwrq)" height="48" id="StructArgDecoder" style="stroke:#A80036;stroke-width:1.5;" width="128" x="1213" y="376"/><ellipse cx="1228" cy="392" fill="#ADD1B2" rx="11" ry="11" style="stroke:#A80036;stroke-width:1.0;"/><path d="M1230.7656,387.875 Q1230.9219,387.6563 1231.1094,387.5469 Q1231.2969,387.4375 1231.5156,387.4375 Q1231.8906,387.4375 1232.125,387.6953 Q1232.3594,387.9531 1232.3594,388.5625 L1232.3594,390.0156 Q1232.3594,390.625 1232.125,390.8906 Q1231.8906,391.1563 1231.5156,391.1563 Q1231.1719,391.1563 1230.9688,390.9531 Q1230.7656,390.7656 1230.6563,390.25 Q1230.6094,389.8906 1230.4219,389.7031 Q1230.0938,389.3281 1229.4844,389.1094 Q1228.875,388.8906 1228.25,388.8906 Q1227.4844,388.8906 1226.8516,389.2188 Q1226.2188,389.5469 1225.7266,390.2969 Q1225.2344,391.0469 1225.2344,392.0781 L1225.2344,393.1719 Q1225.2344,394.4063 1226.125,395.2266 Q1227.0156,396.0469 1228.6094,396.0469 Q1229.5469,396.0469 1230.2031,395.7969 Q1230.5938,395.6406 1231.0156,395.2031 Q1231.2813,394.9375 1231.4297,394.8594 Q1231.5781,394.7813 1231.7813,394.7813 Q1232.1094,394.7813 1232.3672,395.0391 Q1232.625,395.2969 1232.625,395.6406 Q1232.625,395.9844 1232.2813,396.3906 Q1231.7813,396.9688 1230.9844,397.2969 Q1229.9063,397.75 1228.6094,397.75 Q1227.0938,397.75 1225.8906,397.125 Q1224.9063,396.625 1224.2188,395.5547 Q1223.5313,394.4844 1223.5313,393.2031 L1223.5313,392.0469 Q1223.5313,390.7188 1224.1484,389.5703 Q1224.7656,388.4219 1225.8594,387.8047 Q1226.9531,387.1875 1228.1875,387.1875 Q1228.9219,387.1875 1229.5703,387.3516 Q1230.2188,387.5156 1230.7656,387.875 Z " fill="#000000"/><text fill="#000000" font-family="sans-serif" font-size="12" lengthAdjust="spacing" textLength="96" x="1242" y="396.9102">StructArgDecoder</text><line style="stroke:#A80036;stroke-width:1.5;" x1="1214" x2="1340" y1="408" y2="408"/><line style="stroke:#A80036;stroke-width:1.5;" x1="1214" x2="1340" y1="416" y2="416"/><!--MD5=[e9b71cc8cb034448e093f62e6f1baf3d]
class VerboseArgDecoder--><rect fill="#FEFECE" filter="url(#f184szfcclpwrq)" height="48" id="VerboseArgDecoder" style="stroke:#A80036;stroke-width:1.5;" width="143" x="460.5" y="260"/><ellipse cx="475.5" cy="276" fill="#ADD1B2" rx="11" ry="11" style="stroke:#A80036;stroke-width:1.0;"/><path d="M478.2656,271.875 Q478.4219,271.6563 478.6094,271.5469 Q478.7969,271.4375 479.0156,271.4375 Q479.3906,271.4375 479.625,271.6953 Q479.8594,271.9531 479.8594,272.5625 L479.8594,274.0156 Q479.8594,274.625 479.625,274.8906 Q479.3906,275.1563 479.0156,275.1563 Q478.6719,275.1563 478.4688,274.9531 Q478.2656,274.7656 478.1563,274.25 Q478.1094,273.8906 477.9219,273.7031 Q477.5938,273.3281 476.9844,273.1094 Q476.375,272.8906 475.75,272.8906 Q474.9844,272.8906 474.3516,273.2188 Q473.7188,273.5469 473.2266,274.2969 Q472.7344,275.0469 472.7344,276.0781 L472.7344,277.1719 Q472.7344,278.4063 473.625,279.2266 Q474.5156,280.0469 476.1094,280.0469 Q477.0469,280.0469 477.7031,279.7969 Q478.0938,279.6406 478.5156,279.2031 Q478.7813,278.9375 478.9297,278.8594 Q479.0781,278.7813 479.2813,278.7813 Q479.6094,278.7813 479.8672,279.0391 Q480.125,279.2969 480.125,279.6406 Q480.125,279.9844 479.7813,280.3906 Q479.2813,280.9688 478.4844,281.2969 Q477.4063,281.75 476.1094,281.75 Q474.5938,281.75 473.3906,281.125 Q472.4063,280.625 471.7188,279.5547 Q471.0313,278.4844 471.0313,277.2031 L471.0313,276.0469 Q471.0313,274.7188 471.6484,273.5703 Q472.2656,272.4219 473.3594,271.8047 Q474.4531,271.1875 475.6875,271.1875 Q476.4219,271.1875 477.0703,271.3516 Q477.7188,271.5156 478.2656,271.875 Z " fill="#000000"/><text fill="#000000" font-family="sans-serif" font-size="12" lengthAdjust="spacing" textLength="111" x="489.5" y="280.9102">VerboseArgDecoder</text><line style="stroke:#A80036;stroke-width:1.5;" x1="461.5" x2="602.5" y1="292" y2="292"/><line style="stroke:#A80036;stroke-width:1.5;" x1="461.5" x2="602.5" y1="300" y2="300"/><!--MD5=[e642db42c9b105479b6a5f5d7194e3bf]
link DltTraceDecoderBase to IVerboseDltDecoder--><path codeLine="2" d="M275.05,38 C297.26,38 322.5,38 348.28,38 " fill="none" id="DltTraceDecoderBase-to-IVerboseDltDecoder" style="stroke:#A80036;stroke-width:1.0;"/><polygon fill="#A80036" points="353.44,38,344.44,34,348.44,38,344.44,42,353.44,38" style="stroke:#A80036;stroke-width:1.0;"/><text fill="#000000" font-family="sans-serif" font-size="13" lengthAdjust="spacing" textLength="42" x="293.25" y="31.4951">«uses»</text><!--MD5=[7e48cacecf70c65cf80d49669375672c]
reverse link IVerboseDltDecoder to VerboseDltDecoder--><path codeLine="20" d="M532,89.67 C532,103.3 532,117.61 532,129.74 " fill="none" id="IVerboseDltDecoder-backto-VerboseDltDecoder" style="stroke:#A80036;stroke-width:1.0;stroke-dasharray:7.0,7.0;"/><polygon fill="none" points="525,89.22,532,69.22,539,89.22,525,89.22" style="stroke:#A80036;stroke-width:1.0;"/><!--MD5=[f5b86bb0dde2a367373e2480d12c17c4]
reverse link IVerboseArgDecoder to BoolArgDecoder--><path codeLine="35" d="M867.22,329.79 C882.42,345.54 898.88,362.6 911.66,375.84 " fill="none" id="IVerboseArgDecoder-backto-BoolArgDecoder" style="stroke:#A80036;stroke-width:1.0;stroke-dasharray:7.0,7.0;"/><polygon fill="none" points="862.04,334.5,853.19,315.25,872.11,324.78,862.04,334.5" style="stroke:#A80036;stroke-width:1.0;"/><!--MD5=[f6f6c82d405c82f0ee27e16965cb0580]
reverse link IVerboseArgDecoder to SignedIntArgDecoder--><path codeLine="36" d="M646.37,318.89 C563.17,335.26 462.81,355.73 373,376 C367.38,377.27 361.58,378.62 355.74,380.01 " fill="none" id="IVerboseArgDecoder-backto-SignedIntArgDecoder" style="stroke:#A80036;stroke-width:1.0;stroke-dasharray:7.0,7.0;"/><polygon fill="none" points="645.07,312.01,666.04,315.03,647.76,325.75,645.07,312.01" style="stroke:#A80036;stroke-width:1.0;"/><!--MD5=[eaebfdd04222077ca5c1b73be048ca29]
reverse link IVerboseArgDecoder to UnsignedIntArgDecoder--><path codeLine="37" d="M619.17,315.23 C425.76,342.64 373.52,341.82 189,376 C183.13,377.09 177.09,378.28 171.01,379.54 " fill="none" id="IVerboseArgDecoder-backto-UnsignedIntArgDecoder" style="stroke:#A80036;stroke-width:1.0;stroke-dasharray:7.0,7.0;"/><polygon fill="none" points="618.18,308.3,638.97,312.4,620.16,322.16,618.18,308.3" style="stroke:#A80036;stroke-width:1.0;"/><!--MD5=[ca29193a178cee7cf47d88bead403b0d]
reverse link IVerboseArgDecoder to FloatArgDecoder--><path codeLine="38" d="M803.49,333.71 C797.33,348.33 790.86,363.7 785.75,375.84 " fill="none" id="IVerboseArgDecoder-backto-FloatArgDecoder" style="stroke:#A80036;stroke-width:1.0;stroke-dasharray:7.0,7.0;"/><polygon fill="none" points="797.05,330.97,811.26,315.25,809.95,336.4,797.05,330.97" style="stroke:#A80036;stroke-width:1.0;"/><!--MD5=[fbb0df5afa480f21b89bfa60171fa748]
reverse link IVerboseArgDecoder to StringArgDecoder--><path codeLine="39" d="M707.33,321.04 C645.35,340.19 571.51,363 519.78,378.99 " fill="none" id="IVerboseArgDecoder-backto-StringArgDecoder" style="stroke:#A80036;stroke-width:1.0;stroke-dasharray:7.0,7.0;"/><polygon fill="none" points="705.39,314.32,726.57,315.1,709.52,327.69,705.39,314.32" style="stroke:#A80036;stroke-width:1.0;"/><!--MD5=[ddc53699a0d8b9cdead0dd42b81e75fa]
reverse link IVerboseArgDecoder to RawDataArgDecoder--><path codeLine="40" d="M916.62,322.71 C959.85,340.31 1009.93,360.7 1047.43,375.97 " fill="none" id="IVerboseArgDecoder-backto-RawDataArgDecoder" style="stroke:#A80036;stroke-width:1.0;stroke-dasharray:7.0,7.0;"/><polygon fill="none" points="913.82,329.13,897.93,315.1,919.1,316.16,913.82,329.13" style="stroke:#A80036;stroke-width:1.0;"/><!--MD5=[467b6832e9b1450dc3f2ff99b2ff8ebe]
reverse link IVerboseArgDecoder to ArrayArgDecoder--><path codeLine="41" d="M751.64,324.85 C720.59,341.95 685.43,361.31 658.82,375.97 " fill="none" id="IVerboseArgDecoder-backto-ArrayArgDecoder" style="stroke:#A80036;stroke-width:1.0;stroke-dasharray:7.0,7.0;"/><polygon fill="none" points="748.45,318.62,769.34,315.1,755.2,330.88,748.45,318.62" style="stroke:#A80036;stroke-width:1.0;"/><!--MD5=[7c37859a0a11a285c687fa8598944e18]
reverse link IVerboseArgDecoder to StructArgDecoder--><path codeLine="42" d="M971.53,319.77 C1039.96,336.24 1122.28,356.52 1196,376 C1201.51,377.46 1207.22,379 1212.95,380.58 " fill="none" id="IVerboseArgDecoder-backto-StructArgDecoder" style="stroke:#A80036;stroke-width:1.0;stroke-dasharray:7.0,7.0;"/><polygon fill="none" points="969.51,326.49,951.7,315.01,972.78,312.87,969.51,326.49" style="stroke:#A80036;stroke-width:1.0;"/><!--MD5=[2c452ad133f2ee2795ccf8c2d205ea41]
reverse link VerboseDltDecoder to VerboseArgDecoder--><path codeLine="44" d="M532,205.43 C532,223.87 532,244.61 532,260 " fill="none" id="VerboseDltDecoder-backto-VerboseArgDecoder" style="stroke:#A80036;stroke-width:1.0;"/><polygon fill="#FFFFFF" points="532,192.22,528,198.22,532,204.22,536,198.22,532,192.22" style="stroke:#A80036;stroke-width:1.0;"/><!--MD5=[58ad75ed3a2e0f722afb21991696ea60]
link VerboseArgDecoder to IVerboseArgDecoder--><path codeLine="46" d="M603.57,284 C608.63,284 613.69,284 618.74,284 " fill="none" id="VerboseArgDecoder-to-IVerboseArgDecoder" style="stroke:#A80036;stroke-width:1.0;stroke-dasharray:7.0,7.0;"/><polygon fill="none" points="618.88,277,638.88,284,618.88,291,618.88,277" style="stroke:#A80036;stroke-width:1.0;"/><!--MD5=[a1a8d84dd14951f9005301163bd0cfc3]
reverse link VerboseArgDecoder to BoolArgDecoder--><path codeLine="47" d="M611.43,312.08 C614.66,313.09 617.86,314.06 621,315 C723.99,345.74 751.39,347.42 855,376 C860.78,377.6 866.8,379.29 872.81,381 " fill="none" id="VerboseArgDecoder-backto-BoolArgDecoder" style="stroke:#A80036;stroke-width:1.0;"/><polygon fill="#A80036" points="598.9,308.11,603.4117,313.7353,610.3396,311.7343,605.8279,306.1089,598.9,308.11" style="stroke:#A80036;stroke-width:1.0;"/><!--MD5=[c64087b97a0d671649238e43ba4fa86e]
reverse link VerboseArgDecoder to SignedIntArgDecoder--><path codeLine="48" d="M469.31,313.47 C426.83,332.76 371.42,357.93 331.72,375.96 " fill="none" id="VerboseArgDecoder-backto-SignedIntArgDecoder" style="stroke:#A80036;stroke-width:1.0;"/><polygon fill="#A80036" points="481.21,308.07,474.0935,306.9055,470.2815,313.0267,477.398,314.1912,481.21,308.07" style="stroke:#A80036;stroke-width:1.0;"/><!--MD5=[07b082d5b0ad8edf1200ac383e509bab]
reverse link VerboseArgDecoder to UnsignedIntArgDecoder--><path codeLine="49" d="M447.43,306.76 C367.95,327.21 249.77,357.63 171.11,377.87 " fill="none" id="VerboseArgDecoder-backto-UnsignedIntArgDecoder" style="stroke:#A80036;stroke-width:1.0;"/><polygon fill="#A80036" points="460.33,303.44,453.5217,301.0636,448.7095,306.4341,455.5178,308.8106,460.33,303.44" style="stroke:#A80036;stroke-width:1.0;"/><!--MD5=[425babb2b0a081c096461097d5685ee6]
reverse link VerboseArgDecoder to FloatArgDecoder--><path codeLine="50" d="M593.2,313.6 C634.46,332.87 688.19,357.97 726.7,375.96 " fill="none" id="VerboseArgDecoder-backto-FloatArgDecoder" style="stroke:#A80036;stroke-width:1.0;"/><polygon fill="#A80036" points="581.38,308.07,585.1227,314.2338,592.2518,313.1497,588.5091,306.9859,581.38,308.07" style="stroke:#A80036;stroke-width:1.0;"/><!--MD5=[cac08a48bd8376fcf0602852ca7e4e57]
reverse link VerboseArgDecoder to StringArgDecoder--><path codeLine="51" d="M509.08,318.94 C496.65,337.34 481.62,359.59 470.56,375.96 " fill="none" id="VerboseArgDecoder-backto-StringArgDecoder" style="stroke:#A80036;stroke-width:1.0;"/><polygon fill="#A80036" points="516.42,308.07,509.7476,310.8049,509.7059,318.0159,516.3782,315.281,516.42,308.07" style="stroke:#A80036;stroke-width:1.0;"/><!--MD5=[9c6ba406a52f98d589a660f3047c4495]
reverse link VerboseArgDecoder to RawDataArgDecoder--><path codeLine="52" d="M609.09,311.87 C613.1,312.99 617.09,314.04 621,315 C791.84,356.8 839.62,341.08 1012,376 C1017.81,377.18 1023.8,378.48 1029.82,379.84 " fill="none" id="VerboseArgDecoder-backto-RawDataArgDecoder" style="stroke:#A80036;stroke-width:1.0;"/><polygon fill="#A80036" points="596.27,308.1,600.8962,313.6316,607.7815,311.4889,603.1554,305.9572,596.27,308.1" style="stroke:#A80036;stroke-width:1.0;"/><!--MD5=[c168aaaf2508d032c3661474d050b8f8]
reverse link VerboseArgDecoder to ArrayArgDecoder--><path codeLine="53" d="M557.11,318.68 C570.87,337.13 587.56,359.52 599.82,375.96 " fill="none" id="VerboseArgDecoder-backto-ArrayArgDecoder" style="stroke:#A80036;stroke-width:1.0;"/><polygon fill="#A80036" points="549.2,308.07,549.5779,315.2712,556.3704,317.6921,555.9926,310.4909,549.2,308.07" style="stroke:#A80036;stroke-width:1.0;"/><!--MD5=[b985eef46518ee7ef6f35fa6b218a5df]
reverse link VerboseArgDecoder to StructArgDecoder--><path codeLine="54" d="M607.5,311.7 C612.04,312.92 616.56,314.03 621,315 C872.05,369.93 943.69,327.17 1196,376 C1201.45,377.06 1207.07,378.3 1212.69,379.67 " fill="none" id="VerboseArgDecoder-backto-StructArgDecoder" style="stroke:#A80036;stroke-width:1.0;"/><polygon fill="#A80036" points="594.72,308.04,599.3886,313.5358,606.2573,311.3401,601.5887,305.8443,594.72,308.04" style="stroke:#A80036;stroke-width:1.0;"/><!--MD5=[d7352c824ea1d9c9220e008424021e4b]
@startuml DLT.DecoderVerboseClass
class DltTraceDecoderBase
DltTraceDecoderBase -r-> IVerboseDltDecoder : <<uses>>

interface IVerboseDltDecoder {
    +Decode(buffer: ReadOnlySpan<byte>, lineBuilder: IDltLineBuilder): int
}
note right
    Uses the line builder to know how many
    arguments and scans through all arguments
end note

class VerboseDltDecoder {
    .ctor(argDecoder: IVerboseArgDecoder)
}
note right
    This interprets the type info
    and then uses specialized classes
    to decode the individual types
end note
IVerboseDltDecoder <|.d. VerboseDltDecoder

interface IVerboseArgDecoder {
    +Decode(buffer: ReadOnlySpan<byte>, msbf: bool, [out] IDltArg *arg): int
}

class BoolArgDecoder
class SignedIntArgDecoder
class UnsignedIntArgDecoder
class FloatArgDecoder
class StringArgDecoder
class RawDataArgDecoder
class ArrayArgDecoder
class StructArgDecoder

IVerboseArgDecoder <|.d. BoolArgDecoder
IVerboseArgDecoder <|.d. SignedIntArgDecoder
IVerboseArgDecoder <|.d. UnsignedIntArgDecoder
IVerboseArgDecoder <|.d. FloatArgDecoder
IVerboseArgDecoder <|.d. StringArgDecoder
IVerboseArgDecoder <|.d. RawDataArgDecoder
IVerboseArgDecoder <|.d. ArrayArgDecoder
IVerboseArgDecoder <|.d. StructArgDecoder

VerboseDltDecoder o-d- VerboseArgDecoder

IVerboseArgDecoder <|.l. VerboseArgDecoder
VerboseArgDecoder *- - BoolArgDecoder
VerboseArgDecoder *- - SignedIntArgDecoder
VerboseArgDecoder *- - UnsignedIntArgDecoder
VerboseArgDecoder *- - FloatArgDecoder
VerboseArgDecoder *- - StringArgDecoder
VerboseArgDecoder *- - RawDataArgDecoder
VerboseArgDecoder *- - ArrayArgDecoder
VerboseArgDecoder *- - StructArgDecoder
@enduml

PlantUML version 1.2021.16(Wed Dec 08 18:25:22 CET 2021)
(GPL source distribution)
Java Runtime: Java(TM) SE Runtime Environment
JVM: Java HotSpot(TM) Client VM
Default Encoding: Cp1252
Language: en
Country: US
--></g></svg>