<?xml version="1.0" encoding="us-ascii" standalone="no"?><svg xmlns="http://www.w3.org/2000/svg" xmlns:xlink="http://www.w3.org/1999/xlink" contentStyleType="text/css" height="454px" preserveAspectRatio="none" style="width:1568px;height:454px;background:#FFFFFF;" version="1.1" viewBox="0 0 1568 454" width="1568px" zoomAndPan="magnify"><defs/><g><!--class DltTraceDecoderBase--><g id="elem_DltTraceDecoderBase"><rect codeLine="1" fill="#F1F1F1" height="48" id="DltTraceDecoderBase" rx="2.5" ry="2.5" style="stroke:#181818;stroke-width:0.5;" width="185" x="89.5" y="15.15"/><ellipse cx="104.5" cy="31.15" fill="#ADD1B2" rx="11" ry="11" style="stroke:#181818;stroke-width:1.0;"/><path d="M107.4688,36.7906 Q106.8906,37.0875 106.25,37.2281 Q105.6094,37.3844 104.9063,37.3844 Q102.4063,37.3844 101.0781,35.7437 Q99.7656,34.0875 99.7656,30.9625 Q99.7656,27.8375 101.0781,26.1812 Q102.4063,24.525 104.9063,24.525 Q105.6094,24.525 106.25,24.6812 Q106.9063,24.8375 107.4688,25.1344 L107.4688,27.8531 Q106.8438,27.275 106.25,27.0094 Q105.6563,26.7281 105.0313,26.7281 Q103.6875,26.7281 103,27.8062 Q102.3125,28.8687 102.3125,30.9625 Q102.3125,33.0562 103,34.1344 Q103.6875,35.1969 105.0313,35.1969 Q105.6563,35.1969 106.25,34.9312 Q106.8438,34.65 107.4688,34.0719 L107.4688,36.7906 Z " fill="#000000"/><text fill="#000000" font-family="sans-serif" font-size="14" lengthAdjust="spacing" textLength="153" x="118.5" y="35.9967">DltTraceDecoderBase</text><line style="stroke:#181818;stroke-width:0.5;" x1="90.5" x2="273.5" y1="47.15" y2="47.15"/><line style="stroke:#181818;stroke-width:0.5;" x1="90.5" x2="273.5" y1="55.15" y2="55.15"/></g><!--class IVerboseDltDecoder--><g id="elem_IVerboseDltDecoder"><rect codeLine="4" fill="#F1F1F1" height="64.2969" id="IVerboseDltDecoder" rx="2.5" ry="2.5" style="stroke:#181818;stroke-width:0.5;" width="576" x="357" y="7"/><ellipse cx="570.75" cy="23" fill="#B4A7E5" rx="11" ry="11" style="stroke:#181818;stroke-width:1.0;"/><path d="M566.6719,18.7656 L566.6719,16.6094 L574.0625,16.6094 L574.0625,18.7656 L571.5938,18.7656 L571.5938,26.8438 L574.0625,26.8438 L574.0625,29 L566.6719,29 L566.6719,26.8438 L569.1406,26.8438 L569.1406,18.7656 L566.6719,18.7656 Z " fill="#000000"/><text fill="#000000" font-family="sans-serif" font-size="14" font-style="italic" lengthAdjust="spacing" textLength="140" x="591.25" y="27.8467">IVerboseDltDecoder</text><line style="stroke:#181818;stroke-width:0.5;" x1="358" x2="932" y1="39" y2="39"/><line style="stroke:#181818;stroke-width:0.5;" x1="358" x2="932" y1="47" y2="47"/><ellipse cx="368" cy="60.6484" fill="#84BE84" rx="3" ry="3" style="stroke:#038048;stroke-width:1.0;"/><text fill="#000000" font-family="sans-serif" font-size="14" lengthAdjust="spacing" textLength="550" x="377" y="63.9951">Decode(buffer: ReadOnlySpan&lt;byte&gt;, lineBuilder: IDltLineBuilder): Result&lt;int&gt;</text></g><g id="elem_GMN5"><path d="M968,19.02 L968,35.15 L933.2,39.15 L968,43.15 L968,59.2856 A0,0 0 0 0 968,59.2856 L1274,59.2856 A0,0 0 0 0 1274,59.2856 L1274,29.02 L1264,19.02 L968,19.02 A0,0 0 0 0 968,19.02 " fill="#FEFFDD" style="stroke:#181818;stroke-width:0.5;"/><path d="M1264,19.02 L1264,29.02 L1274,29.02 L1264,19.02 " fill="#FEFFDD" style="stroke:#181818;stroke-width:0.5;"/><text fill="#000000" font-family="sans-serif" font-size="13" lengthAdjust="spacing" textLength="252" x="974" y="36.0869">Uses the line builder to know how many</text><text fill="#000000" font-family="sans-serif" font-size="13" lengthAdjust="spacing" textLength="285" x="974" y="51.2197">arguments and scans through all arguments</text></g><!--class VerboseDltDecoder--><g id="elem_VerboseDltDecoder"><rect codeLine="12" fill="#F1F1F1" height="64.2969" id="VerboseDltDecoder" rx="2.5" ry="2.5" style="stroke:#181818;stroke-width:0.5;" width="288" x="501" y="132.3"/><ellipse cx="572.25" cy="148.3" fill="#ADD1B2" rx="11" ry="11" style="stroke:#181818;stroke-width:1.0;"/><path d="M575.2188,153.9406 Q574.6406,154.2375 574,154.3781 Q573.3594,154.5344 572.6563,154.5344 Q570.1563,154.5344 568.8281,152.8938 Q567.5156,151.2375 567.5156,148.1125 Q567.5156,144.9875 568.8281,143.3313 Q570.1563,141.675 572.6563,141.675 Q573.3594,141.675 574,141.8313 Q574.6563,141.9875 575.2188,142.2844 L575.2188,145.0031 Q574.5938,144.425 574,144.1594 Q573.4063,143.8781 572.7813,143.8781 Q571.4375,143.8781 570.75,144.9563 Q570.0625,146.0188 570.0625,148.1125 Q570.0625,150.2063 570.75,151.2844 Q571.4375,152.3469 572.7813,152.3469 Q573.4063,152.3469 574,152.0813 Q574.5938,151.8 575.2188,151.2219 L575.2188,153.9406 Z " fill="#000000"/><text fill="#000000" font-family="sans-serif" font-size="14" lengthAdjust="spacing" textLength="137" x="592.75" y="153.1467">VerboseDltDecoder</text><line style="stroke:#181818;stroke-width:0.5;" x1="502" x2="788" y1="164.3" y2="164.3"/><line style="stroke:#181818;stroke-width:0.5;" x1="502" x2="788" y1="172.3" y2="172.3"/><text fill="#000000" font-family="sans-serif" font-size="14" lengthAdjust="spacing" textLength="276" x="507" y="189.2951">.ctor(argDecoder: IVerboseArgDecoder)</text></g><g id="elem_GMN9"><path d="M824.5,136.75 L824.5,160.45 L789.34,164.45 L824.5,168.45 L824.5,192.1484 A0,0 0 0 0 824.5,192.1484 L1061.5,192.1484 A0,0 0 0 0 1061.5,192.1484 L1061.5,146.75 L1051.5,136.75 L824.5,136.75 A0,0 0 0 0 824.5,136.75 " fill="#FEFFDD" style="stroke:#181818;stroke-width:0.5;"/><path d="M1051.5,136.75 L1051.5,146.75 L1061.5,146.75 L1051.5,136.75 " fill="#FEFFDD" style="stroke:#181818;stroke-width:0.5;"/><text fill="#000000" font-family="sans-serif" font-size="13" lengthAdjust="spacing" textLength="175" x="830.5" y="153.8169">This interprets the type info</text><text fill="#000000" font-family="sans-serif" font-size="13" lengthAdjust="spacing" textLength="216" x="830.5" y="168.9497">and then uses specialized classes</text><text fill="#000000" font-family="sans-serif" font-size="13" lengthAdjust="spacing" textLength="191" x="830.5" y="184.0825">to decode the individual types</text></g><!--class IVerboseArgDecoder--><g id="elem_IVerboseArgDecoder"><rect codeLine="22" fill="#F1F1F1" height="80.5938" id="IVerboseArgDecoder" rx="2.5" ry="2.5" style="stroke:#181818;stroke-width:0.5;" width="387" x="766.5" y="257.6"/><ellipse cx="883.75" cy="273.6" fill="#B4A7E5" rx="11" ry="11" style="stroke:#181818;stroke-width:1.0;"/><path d="M879.6719,269.3656 L879.6719,267.2094 L887.0625,267.2094 L887.0625,269.3656 L884.5938,269.3656 L884.5938,277.4437 L887.0625,277.4437 L887.0625,279.6 L879.6719,279.6 L879.6719,277.4437 L882.1406,277.4437 L882.1406,269.3656 L879.6719,269.3656 Z " fill="#000000"/><text fill="#000000" font-family="sans-serif" font-size="14" font-style="italic" lengthAdjust="spacing" textLength="144" x="904.25" y="278.4467">IVerboseArgDecoder</text><line style="stroke:#181818;stroke-width:0.5;" x1="767.5" x2="1152.5" y1="289.6" y2="289.6"/><line style="stroke:#181818;stroke-width:0.5;" x1="767.5" x2="1152.5" y1="297.6" y2="297.6"/><ellipse cx="777.5" cy="319.3969" fill="#84BE84" rx="3" ry="3" style="stroke:#038048;stroke-width:1.0;"/><text fill="#000000" font-family="sans-serif" font-size="14" lengthAdjust="spacing" textLength="357" x="786.5" y="314.5951">Decode(typeInfo: int, buffer: ReadOnlySpan&lt;byte&gt;,</text><text fill="#000000" font-family="sans-serif" font-size="14" lengthAdjust="spacing" textLength="295" x="790.5" y="330.892">msbf: bool, [out] IDltArg *arg): Result&lt;int&gt;</text></g><!--class BoolArgDecoder--><g id="elem_BoolArgDecoder"><rect codeLine="26" fill="#F1F1F1" height="48" id="BoolArgDecoder" rx="2.5" ry="2.5" style="stroke:#181818;stroke-width:0.5;" width="146" x="1013" y="399.19"/><ellipse cx="1028" cy="415.19" fill="#ADD1B2" rx="11" ry="11" style="stroke:#181818;stroke-width:1.0;"/><path d="M1030.9688,420.8306 Q1030.3906,421.1275 1029.75,421.2681 Q1029.1094,421.4244 1028.4063,421.4244 Q1025.9063,421.4244 1024.5781,419.7838 Q1023.2656,418.1275 1023.2656,415.0025 Q1023.2656,411.8775 1024.5781,410.2213 Q1025.9063,408.565 1028.4063,408.565 Q1029.1094,408.565 1029.75,408.7213 Q1030.4063,408.8775 1030.9688,409.1744 L1030.9688,411.8931 Q1030.3438,411.315 1029.75,411.0494 Q1029.1563,410.7681 1028.5313,410.7681 Q1027.1875,410.7681 1026.5,411.8463 Q1025.8125,412.9088 1025.8125,415.0025 Q1025.8125,417.0963 1026.5,418.1744 Q1027.1875,419.2369 1028.5313,419.2369 Q1029.1563,419.2369 1029.75,418.9713 Q1030.3438,418.69 1030.9688,418.1119 L1030.9688,420.8306 Z " fill="#000000"/><text fill="#000000" font-family="sans-serif" font-size="14" lengthAdjust="spacing" textLength="114" x="1042" y="420.0367">BoolArgDecoder</text><line style="stroke:#181818;stroke-width:0.5;" x1="1014" x2="1158" y1="431.19" y2="431.19"/><line style="stroke:#181818;stroke-width:0.5;" x1="1014" x2="1158" y1="439.19" y2="439.19"/></g><!--class SignedIntArgDecoder--><g id="elem_SignedIntArgDecoder"><rect codeLine="27" fill="#F1F1F1" height="48" id="SignedIntArgDecoder" rx="2.5" ry="2.5" style="stroke:#181818;stroke-width:0.5;" width="180" x="240" y="399.19"/><ellipse cx="255" cy="415.19" fill="#ADD1B2" rx="11" ry="11" style="stroke:#181818;stroke-width:1.0;"/><path d="M257.9688,420.8306 Q257.3906,421.1275 256.75,421.2681 Q256.1094,421.4244 255.4063,421.4244 Q252.9063,421.4244 251.5781,419.7838 Q250.2656,418.1275 250.2656,415.0025 Q250.2656,411.8775 251.5781,410.2213 Q252.9063,408.565 255.4063,408.565 Q256.1094,408.565 256.75,408.7213 Q257.4063,408.8775 257.9688,409.1744 L257.9688,411.8931 Q257.3438,411.315 256.75,411.0494 Q256.1563,410.7681 255.5313,410.7681 Q254.1875,410.7681 253.5,411.8463 Q252.8125,412.9088 252.8125,415.0025 Q252.8125,417.0963 253.5,418.1744 Q254.1875,419.2369 255.5313,419.2369 Q256.1563,419.2369 256.75,418.9713 Q257.3438,418.69 257.9688,418.1119 L257.9688,420.8306 Z " fill="#000000"/><text fill="#000000" font-family="sans-serif" font-size="14" lengthAdjust="spacing" textLength="148" x="269" y="420.0367">SignedIntArgDecoder</text><line style="stroke:#181818;stroke-width:0.5;" x1="241" x2="419" y1="431.19" y2="431.19"/><line style="stroke:#181818;stroke-width:0.5;" x1="241" x2="419" y1="439.19" y2="439.19"/></g><!--class UnsignedIntArgDecoder--><g id="elem_UnsignedIntArgDecoder"><rect codeLine="28" fill="#F1F1F1" height="48" id="UnsignedIntArgDecoder" rx="2.5" ry="2.5" style="stroke:#181818;stroke-width:0.5;" width="198" x="7" y="399.19"/><ellipse cx="22" cy="415.19" fill="#ADD1B2" rx="11" ry="11" style="stroke:#181818;stroke-width:1.0;"/><path d="M24.9688,420.8306 Q24.3906,421.1275 23.75,421.2681 Q23.1094,421.4244 22.4063,421.4244 Q19.9063,421.4244 18.5781,419.7838 Q17.2656,418.1275 17.2656,415.0025 Q17.2656,411.8775 18.5781,410.2213 Q19.9063,408.565 22.4063,408.565 Q23.1094,408.565 23.75,408.7213 Q24.4063,408.8775 24.9688,409.1744 L24.9688,411.8931 Q24.3438,411.315 23.75,411.0494 Q23.1563,410.7681 22.5313,410.7681 Q21.1875,410.7681 20.5,411.8463 Q19.8125,412.9088 19.8125,415.0025 Q19.8125,417.0963 20.5,418.1744 Q21.1875,419.2369 22.5313,419.2369 Q23.1563,419.2369 23.75,418.9713 Q24.3438,418.69 24.9688,418.1119 L24.9688,420.8306 Z " fill="#000000"/><text fill="#000000" font-family="sans-serif" font-size="14" lengthAdjust="spacing" textLength="166" x="36" y="420.0367">UnsignedIntArgDecoder</text><line style="stroke:#181818;stroke-width:0.5;" x1="8" x2="204" y1="431.19" y2="431.19"/><line style="stroke:#181818;stroke-width:0.5;" x1="8" x2="204" y1="439.19" y2="439.19"/></g><!--class FloatArgDecoder--><g id="elem_FloatArgDecoder"><rect codeLine="29" fill="#F1F1F1" height="48" id="FloatArgDecoder" rx="2.5" ry="2.5" style="stroke:#181818;stroke-width:0.5;" width="148" x="830" y="399.19"/><ellipse cx="845" cy="415.19" fill="#ADD1B2" rx="11" ry="11" style="stroke:#181818;stroke-width:1.0;"/><path d="M847.9688,420.8306 Q847.3906,421.1275 846.75,421.2681 Q846.1094,421.4244 845.4063,421.4244 Q842.9063,421.4244 841.5781,419.7838 Q840.2656,418.1275 840.2656,415.0025 Q840.2656,411.8775 841.5781,410.2213 Q842.9063,408.565 845.4063,408.565 Q846.1094,408.565 846.75,408.7213 Q847.4063,408.8775 847.9688,409.1744 L847.9688,411.8931 Q847.3438,411.315 846.75,411.0494 Q846.1563,410.7681 845.5313,410.7681 Q844.1875,410.7681 843.5,411.8463 Q842.8125,412.9088 842.8125,415.0025 Q842.8125,417.0963 843.5,418.1744 Q844.1875,419.2369 845.5313,419.2369 Q846.1563,419.2369 846.75,418.9713 Q847.3438,418.69 847.9688,418.1119 L847.9688,420.8306 Z " fill="#000000"/><text fill="#000000" font-family="sans-serif" font-size="14" lengthAdjust="spacing" textLength="116" x="859" y="420.0367">FloatArgDecoder</text><line style="stroke:#181818;stroke-width:0.5;" x1="831" x2="977" y1="431.19" y2="431.19"/><line style="stroke:#181818;stroke-width:0.5;" x1="831" x2="977" y1="439.19" y2="439.19"/></g><!--class StringArgDecoder--><g id="elem_StringArgDecoder"><rect codeLine="30" fill="#F1F1F1" height="48" id="StringArgDecoder" rx="2.5" ry="2.5" style="stroke:#181818;stroke-width:0.5;" width="155" x="455.5" y="399.19"/><ellipse cx="470.5" cy="415.19" fill="#ADD1B2" rx="11" ry="11" style="stroke:#181818;stroke-width:1.0;"/><path d="M473.4688,420.8306 Q472.8906,421.1275 472.25,421.2681 Q471.6094,421.4244 470.9063,421.4244 Q468.4063,421.4244 467.0781,419.7838 Q465.7656,418.1275 465.7656,415.0025 Q465.7656,411.8775 467.0781,410.2213 Q468.4063,408.565 470.9063,408.565 Q471.6094,408.565 472.25,408.7213 Q472.9063,408.8775 473.4688,409.1744 L473.4688,411.8931 Q472.8438,411.315 472.25,411.0494 Q471.6563,410.7681 471.0313,410.7681 Q469.6875,410.7681 469,411.8463 Q468.3125,412.9088 468.3125,415.0025 Q468.3125,417.0963 469,418.1744 Q469.6875,419.2369 471.0313,419.2369 Q471.6563,419.2369 472.25,418.9713 Q472.8438,418.69 473.4688,418.1119 L473.4688,420.8306 Z " fill="#000000"/><text fill="#000000" font-family="sans-serif" font-size="14" lengthAdjust="spacing" textLength="123" x="484.5" y="420.0367">StringArgDecoder</text><line style="stroke:#181818;stroke-width:0.5;" x1="456.5" x2="609.5" y1="431.19" y2="431.19"/><line style="stroke:#181818;stroke-width:0.5;" x1="456.5" x2="609.5" y1="439.19" y2="439.19"/></g><!--class RawDataArgDecoder--><g id="elem_RawDataArgDecoder"><rect codeLine="31" fill="#F1F1F1" height="48" id="RawDataArgDecoder" rx="2.5" ry="2.5" style="stroke:#181818;stroke-width:0.5;" width="176" x="1194" y="399.19"/><ellipse cx="1209" cy="415.19" fill="#ADD1B2" rx="11" ry="11" style="stroke:#181818;stroke-width:1.0;"/><path d="M1211.9688,420.8306 Q1211.3906,421.1275 1210.75,421.2681 Q1210.1094,421.4244 1209.4063,421.4244 Q1206.9063,421.4244 1205.5781,419.7838 Q1204.2656,418.1275 1204.2656,415.0025 Q1204.2656,411.8775 1205.5781,410.2213 Q1206.9063,408.565 1209.4063,408.565 Q1210.1094,408.565 1210.75,408.7213 Q1211.4063,408.8775 1211.9688,409.1744 L1211.9688,411.8931 Q1211.3438,411.315 1210.75,411.0494 Q1210.1563,410.7681 1209.5313,410.7681 Q1208.1875,410.7681 1207.5,411.8463 Q1206.8125,412.9088 1206.8125,415.0025 Q1206.8125,417.0963 1207.5,418.1744 Q1208.1875,419.2369 1209.5313,419.2369 Q1210.1563,419.2369 1210.75,418.9713 Q1211.3438,418.69 1211.9688,418.1119 L1211.9688,420.8306 Z " fill="#000000"/><text fill="#000000" font-family="sans-serif" font-size="14" lengthAdjust="spacing" textLength="144" x="1223" y="420.0367">RawDataArgDecoder</text><line style="stroke:#181818;stroke-width:0.5;" x1="1195" x2="1369" y1="431.19" y2="431.19"/><line style="stroke:#181818;stroke-width:0.5;" x1="1195" x2="1369" y1="439.19" y2="439.19"/></g><!--class ArrayArgDecoder--><g id="elem_ArrayArgDecoder"><rect codeLine="32" fill="#F1F1F1" height="48" id="ArrayArgDecoder" rx="2.5" ry="2.5" style="stroke:#181818;stroke-width:0.5;" width="149" x="645.5" y="399.19"/><ellipse cx="660.5" cy="415.19" fill="#ADD1B2" rx="11" ry="11" style="stroke:#181818;stroke-width:1.0;"/><path d="M663.4688,420.8306 Q662.8906,421.1275 662.25,421.2681 Q661.6094,421.4244 660.9063,421.4244 Q658.4063,421.4244 657.0781,419.7838 Q655.7656,418.1275 655.7656,415.0025 Q655.7656,411.8775 657.0781,410.2213 Q658.4063,408.565 660.9063,408.565 Q661.6094,408.565 662.25,408.7213 Q662.9063,408.8775 663.4688,409.1744 L663.4688,411.8931 Q662.8438,411.315 662.25,411.0494 Q661.6563,410.7681 661.0313,410.7681 Q659.6875,410.7681 659,411.8463 Q658.3125,412.9088 658.3125,415.0025 Q658.3125,417.0963 659,418.1744 Q659.6875,419.2369 661.0313,419.2369 Q661.6563,419.2369 662.25,418.9713 Q662.8438,418.69 663.4688,418.1119 L663.4688,420.8306 Z " fill="#000000"/><text fill="#000000" font-family="sans-serif" font-size="14" lengthAdjust="spacing" textLength="117" x="674.5" y="420.0367">ArrayArgDecoder</text><line style="stroke:#181818;stroke-width:0.5;" x1="646.5" x2="793.5" y1="431.19" y2="431.19"/><line style="stroke:#181818;stroke-width:0.5;" x1="646.5" x2="793.5" y1="439.19" y2="439.19"/></g><!--class StructArgDecoder--><g id="elem_StructArgDecoder"><rect codeLine="33" fill="#F1F1F1" height="48" id="StructArgDecoder" rx="2.5" ry="2.5" style="stroke:#181818;stroke-width:0.5;" width="156" x="1405" y="399.19"/><ellipse cx="1420" cy="415.19" fill="#ADD1B2" rx="11" ry="11" style="stroke:#181818;stroke-width:1.0;"/><path d="M1422.9688,420.8306 Q1422.3906,421.1275 1421.75,421.2681 Q1421.1094,421.4244 1420.4063,421.4244 Q1417.9063,421.4244 1416.5781,419.7838 Q1415.2656,418.1275 1415.2656,415.0025 Q1415.2656,411.8775 1416.5781,410.2213 Q1417.9063,408.565 1420.4063,408.565 Q1421.1094,408.565 1421.75,408.7213 Q1422.4063,408.8775 1422.9688,409.1744 L1422.9688,411.8931 Q1422.3438,411.315 1421.75,411.0494 Q1421.1563,410.7681 1420.5313,410.7681 Q1419.1875,410.7681 1418.5,411.8463 Q1417.8125,412.9088 1417.8125,415.0025 Q1417.8125,417.0963 1418.5,418.1744 Q1419.1875,419.2369 1420.5313,419.2369 Q1421.1563,419.2369 1421.75,418.9713 Q1422.3438,418.69 1422.9688,418.1119 L1422.9688,420.8306 Z " fill="#000000"/><text fill="#000000" font-family="sans-serif" font-size="14" lengthAdjust="spacing" textLength="124" x="1434" y="420.0367">StructArgDecoder</text><line style="stroke:#181818;stroke-width:0.5;" x1="1406" x2="1560" y1="431.19" y2="431.19"/><line style="stroke:#181818;stroke-width:0.5;" x1="1406" x2="1560" y1="439.19" y2="439.19"/></g><!--class VerboseArgDecoder--><g id="elem_VerboseArgDecoder"><rect fill="#F1F1F1" height="48" id="VerboseArgDecoder" rx="2.5" ry="2.5" style="stroke:#181818;stroke-width:0.5;" width="173" x="558.5" y="273.89"/><ellipse cx="573.5" cy="289.89" fill="#ADD1B2" rx="11" ry="11" style="stroke:#181818;stroke-width:1.0;"/><path d="M576.4688,295.5306 Q575.8906,295.8275 575.25,295.9681 Q574.6094,296.1244 573.9063,296.1244 Q571.4063,296.1244 570.0781,294.4838 Q568.7656,292.8275 568.7656,289.7025 Q568.7656,286.5775 570.0781,284.9213 Q571.4063,283.265 573.9063,283.265 Q574.6094,283.265 575.25,283.4213 Q575.9063,283.5775 576.4688,283.8744 L576.4688,286.5931 Q575.8438,286.015 575.25,285.7494 Q574.6563,285.4681 574.0313,285.4681 Q572.6875,285.4681 572,286.5463 Q571.3125,287.6088 571.3125,289.7025 Q571.3125,291.7963 572,292.8744 Q572.6875,293.9369 574.0313,293.9369 Q574.6563,293.9369 575.25,293.6713 Q575.8438,293.39 576.4688,292.8119 L576.4688,295.5306 Z " fill="#000000"/><text fill="#000000" font-family="sans-serif" font-size="14" lengthAdjust="spacing" textLength="141" x="587.5" y="294.7367">VerboseArgDecoder</text><line style="stroke:#181818;stroke-width:0.5;" x1="559.5" x2="730.5" y1="305.89" y2="305.89"/><line style="stroke:#181818;stroke-width:0.5;" x1="559.5" x2="730.5" y1="313.89" y2="313.89"/></g><!--link DltTraceDecoderBase to IVerboseDltDecoder--><g id="link_DltTraceDecoderBase_IVerboseDltDecoder"><path codeLine="2" d="M274.86,39.15 C297.9,39.15 323.85,39.15 351.04,39.15 " fill="none" id="DltTraceDecoderBase-to-IVerboseDltDecoder" style="stroke:#181818;stroke-width:1.0;"/><polygon fill="#181818" points="355.86,39.15,346.86,35.15,350.86,39.15,346.86,43.15,355.86,39.15" style="stroke:#181818;stroke-width:1.0;"/><text fill="#000000" font-family="sans-serif" font-size="13" lengthAdjust="spacing" textLength="46" x="292.75" y="32.2169">&#171;uses&#187;</text></g><!--reverse link IVerboseDltDecoder to VerboseDltDecoder--><g id="link_IVerboseDltDecoder_VerboseDltDecoder"><path codeLine="20" d="M645,92.52 C645,105.99 645,120.05 645,132.07 " fill="none" id="IVerboseDltDecoder-backto-VerboseDltDecoder" style="stroke:#181818;stroke-width:1.0;stroke-dasharray:7.0,7.0;"/><polygon fill="none" points="638,92.58,645,72.58,652,92.58,638,92.58" style="stroke:#181818;stroke-width:1.0;"/></g><!--reverse link IVerboseArgDecoder to BoolArgDecoder--><g id="link_IVerboseArgDecoder_BoolArgDecoder"><path codeLine="35" d="M1015.53,353.24 C1031.85,369.2 1048.84,385.83 1062.05,398.75 " fill="none" id="IVerboseArgDecoder-backto-BoolArgDecoder" style="stroke:#181818;stroke-width:1.0;stroke-dasharray:7.0,7.0;"/><polygon fill="none" points="1010.96,358.57,1001.56,339.58,1020.75,348.57,1010.96,358.57" style="stroke:#181818;stroke-width:1.0;"/></g><!--reverse link IVerboseArgDecoder to SignedIntArgDecoder--><g id="link_IVerboseArgDecoder_SignedIntArgDecoder"><path codeLine="36" d="M745.66,339.08 C651.23,357.04 539.01,378.73 438,399.19 C432.27,400.35 426.37,401.56 420.43,402.79 " fill="none" id="IVerboseArgDecoder-backto-SignedIntArgDecoder" style="stroke:#181818;stroke-width:1.0;stroke-dasharray:7.0,7.0;"/><polygon fill="none" points="744.2,332.04,765.15,335.18,746.81,345.79,744.2,332.04" style="stroke:#181818;stroke-width:1.0;"/></g><!--reverse link IVerboseArgDecoder to UnsignedIntArgDecoder--><g id="link_IVerboseArgDecoder_UnsignedIntArgDecoder"><path codeLine="37" d="M745.61,338.59 C512.33,372.79 448.46,363.69 222,399.19 C216.52,400.05 210.91,400.98 205.25,401.96 " fill="none" id="IVerboseArgDecoder-backto-UnsignedIntArgDecoder" style="stroke:#181818;stroke-width:1.0;stroke-dasharray:7.0,7.0;"/><polygon fill="none" points="744.25,331.56,765.07,335.54,746.31,345.41,744.25,331.56" style="stroke:#181818;stroke-width:1.0;"/></g><!--reverse link IVerboseArgDecoder to FloatArgDecoder--><g id="link_IVerboseArgDecoder_FloatArgDecoder"><path codeLine="38" d="M933.42,357.42 C926.76,372.07 920,386.95 914.65,398.75 " fill="none" id="IVerboseArgDecoder-backto-FloatArgDecoder" style="stroke:#181818;stroke-width:1.0;stroke-dasharray:7.0,7.0;"/><polygon fill="none" points="927.33,354.9,941.97,339.58,940.08,360.69,927.33,354.9" style="stroke:#181818;stroke-width:1.0;"/></g><!--reverse link IVerboseArgDecoder to StringArgDecoder--><g id="link_IVerboseArgDecoder_StringArgDecoder"><path codeLine="39" d="M802.28,344.44 C737.05,363.27 664.36,384.26 610.96,399.68 " fill="none" id="IVerboseArgDecoder-backto-StringArgDecoder" style="stroke:#181818;stroke-width:1.0;stroke-dasharray:7.0,7.0;"/><polygon fill="none" points="800.09,337.49,821.25,338.67,803.98,350.94,800.09,337.49" style="stroke:#181818;stroke-width:1.0;"/></g><!--reverse link IVerboseArgDecoder to RawDataArgDecoder--><g id="link_IVerboseArgDecoder_RawDataArgDecoder"><path codeLine="40" d="M1083.16,346.05 C1130.25,364.08 1181.93,383.87 1220.79,398.75 " fill="none" id="IVerboseArgDecoder-backto-RawDataArgDecoder" style="stroke:#181818;stroke-width:1.0;stroke-dasharray:7.0,7.0;"/><polygon fill="none" points="1080.83,352.27,1064.66,338.58,1085.84,339.2,1080.83,352.27" style="stroke:#181818;stroke-width:1.0;"/></g><!--reverse link IVerboseArgDecoder to ArrayArgDecoder--><g id="link_IVerboseArgDecoder_ArrayArgDecoder"><path codeLine="41" d="M864.2,348.11 C830.2,365.58 793.49,384.43 765.62,398.75 " fill="none" id="IVerboseArgDecoder-backto-ArrayArgDecoder" style="stroke:#181818;stroke-width:1.0;stroke-dasharray:7.0,7.0;"/><polygon fill="none" points="860.75,341.5,881.74,338.58,867.15,353.95,860.75,341.5" style="stroke:#181818;stroke-width:1.0;"/></g><!--reverse link IVerboseArgDecoder to StructArgDecoder--><g id="link_IVerboseArgDecoder_StructArgDecoder"><path codeLine="42" d="M1150.2,343.38 C1224.14,360.72 1309.54,380.81 1387,399.19 C1392.75,400.55 1398.7,401.97 1404.68,403.4 " fill="none" id="IVerboseArgDecoder-backto-StructArgDecoder" style="stroke:#181818;stroke-width:1.0;stroke-dasharray:7.0,7.0;"/><polygon fill="none" points="1149.04,350.06,1131.17,338.68,1152.24,336.43,1149.04,350.06" style="stroke:#181818;stroke-width:1.0;"/></g><!--reverse link VerboseDltDecoder to VerboseArgDecoder--><g id="link_VerboseDltDecoder_VerboseArgDecoder"><path codeLine="44" d="M645,210.91 C645,231.99 645,256.16 645,273.49 " fill="none" id="VerboseDltDecoder-backto-VerboseArgDecoder" style="stroke:#181818;stroke-width:1.0;"/><polygon fill="none" points="645,197.93,641,203.93,645,209.93,649,203.93,645,197.93" style="stroke:#181818;stroke-width:1.0;"/></g><!--link VerboseArgDecoder to IVerboseArgDecoder--><g id="link_VerboseArgDecoder_IVerboseArgDecoder"><path codeLine="46" d="M731.75,297.89 C736.22,297.89 740.69,297.89 745.16,297.89 " fill="none" id="VerboseArgDecoder-to-IVerboseArgDecoder" style="stroke:#181818;stroke-width:1.0;stroke-dasharray:7.0,7.0;"/><polygon fill="none" points="745.08,290.89,765.08,297.89,745.07,304.89,745.08,290.89" style="stroke:#181818;stroke-width:1.0;"/></g><!--reverse link VerboseArgDecoder to BoolArgDecoder--><g id="link_VerboseArgDecoder_BoolArgDecoder"><path codeLine="47" d="M716.45,327.17 C727.29,331.08 738.39,334.89 749,338.19 C856.97,371.79 886.33,371.64 996,399.19 C1001.47,400.57 1007.13,401.99 1012.83,403.44 " fill="none" id="VerboseArgDecoder-backto-BoolArgDecoder" style="stroke:#181818;stroke-width:1.0;"/><polygon fill="#181818" points="704.43,322.36,708.675,328.1892,715.6885,326.5127,711.4435,320.6835,704.43,322.36" style="stroke:#181818;stroke-width:1.0;"/></g><!--reverse link VerboseArgDecoder to SignedIntArgDecoder--><g id="link_VerboseArgDecoder_SignedIntArgDecoder"><path codeLine="48" d="M572.12,327.42 C516.87,349.05 441.86,378.41 390.03,398.69 " fill="none" id="VerboseArgDecoder-backto-SignedIntArgDecoder" style="stroke:#181818;stroke-width:1.0;"/><polygon fill="#181818" points="584.01,322.37,576.9656,320.8283,572.8331,326.7378,579.8775,328.2795,584.01,322.37" style="stroke:#181818;stroke-width:1.0;"/></g><!--reverse link VerboseArgDecoder to UnsignedIntArgDecoder--><g id="link_VerboseArgDecoder_UnsignedIntArgDecoder"><path codeLine="49" d="M544.46,321.89 C447.47,344.08 301.57,377.45 205.08,399.53 " fill="none" id="VerboseArgDecoder-backto-UnsignedIntArgDecoder" style="stroke:#181818;stroke-width:1.0;"/><polygon fill="#181818" points="557.1,318.77,550.3595,316.2077,545.4018,321.4443,552.1423,324.0065,557.1,318.77" style="stroke:#181818;stroke-width:1.0;"/></g><!--reverse link VerboseArgDecoder to FloatArgDecoder--><g id="link_VerboseArgDecoder_FloatArgDecoder"><path codeLine="50" d="M706.96,328.39 C752.27,349.96 812.88,378.81 854.86,398.8 " fill="none" id="VerboseArgDecoder-backto-FloatArgDecoder" style="stroke:#181818;stroke-width:1.0;"/><polygon fill="#181818" points="695.33,322.37,699.0301,328.5595,706.1665,327.5246,702.4665,321.3351,695.33,322.37" style="stroke:#181818;stroke-width:1.0;"/></g><!--reverse link VerboseArgDecoder to StringArgDecoder--><g id="link_VerboseArgDecoder_StringArgDecoder"><path codeLine="51" d="M614.48,332.49 C595.39,353.51 571.28,380.05 554.25,398.8 " fill="none" id="VerboseArgDecoder-backto-StringArgDecoder" style="stroke:#181818;stroke-width:1.0;"/><polygon fill="#181818" points="622.67,323.37,615.6752,325.1231,614.6032,332.2541,621.5979,330.501,622.67,323.37" style="stroke:#181818;stroke-width:1.0;"/></g><!--reverse link VerboseArgDecoder to RawDataArgDecoder--><g id="link_VerboseArgDecoder_RawDataArgDecoder"><path codeLine="52" d="M713.21,327.09 C725,331.27 737.25,335.17 749,338.19 C935.1,385.99 987.91,365.05 1177,399.19 C1182.42,400.17 1187.98,401.23 1193.58,402.33 " fill="none" id="VerboseArgDecoder-backto-RawDataArgDecoder" style="stroke:#181818;stroke-width:1.0;"/><polygon fill="#181818" points="701.14,322.3,705.3932,328.1232,712.4044,326.4369,708.1511,320.6136,701.14,322.3" style="stroke:#181818;stroke-width:1.0;"/></g><!--reverse link VerboseArgDecoder to ArrayArgDecoder--><g id="link_VerboseArgDecoder_ArrayArgDecoder"><path codeLine="53" d="M666.49,334.23 C679.1,354.95 694.68,380.57 705.77,398.8 " fill="none" id="VerboseArgDecoder-backto-ArrayArgDecoder" style="stroke:#181818;stroke-width:1.0;"/><polygon fill="#181818" points="659.28,323.37,658.9791,330.5748,665.5139,333.6237,665.8149,326.4189,659.28,323.37" style="stroke:#181818;stroke-width:1.0;"/></g><!--reverse link VerboseArgDecoder to StructArgDecoder--><g id="link_VerboseArgDecoder_StructArgDecoder"><path codeLine="54" d="M711.89,327.14 C724.06,331.42 736.78,335.35 749,338.19 C887.73,370.42 1246.52,375.76 1387,399.19 C1392.75,400.15 1398.66,401.26 1404.6,402.46 " fill="none" id="VerboseArgDecoder-backto-StructArgDecoder" style="stroke:#181818;stroke-width:1.0;"/><polygon fill="#181818" points="699.94,322.38,704.191,328.2048,711.2028,326.5211,706.9518,320.6963,699.94,322.38" style="stroke:#181818;stroke-width:1.0;"/></g><!--SRC=[VLBBRjim4BppA_QOf9O_G104n30A62XG84voQNkWn9L4b2ODFXAeZtylHHbnoaS4wA3PsTdT6VM26WDxOHyrxN6FlMAeTzGWoM1GwQg5mpFgJXdqX4iDQcWQPz2qBI5SMjI3RymHVnFmpwVrywPpmu2wXWUaxAiKy_5CPTFD5jiD22vnvxXW2-7W9RvSWTkbnJXX6p-i9N-9L1P1yt6oGV_9hm9smY02tTe4Li5FgLvXyk-9oZbGgHxT2QKrG2K3qrEvT6hbnWce4DSwGLzVvX3I1yzAnsrxg_IDxxl0zPiFzs_ORRhpuyGD1E_E6kswlftFwB51hQlw1JmgON4Qp1bxJWN_XGp2GcW2or_9mf2Wm2NZBvmvAeBOkoiouJH_jcoRtfMBz7fA5EaovU0thfTRDl1Hmjybd4mtrD0f9JRmJJdx8oJjnU7E6vZ4V75-v_dN1IxWaOyIsK7QfF8aJR7sMIYQeaUhkHmJ-86-xgcb2NwlDPrp8gv_hqqovgsMHmSLURaRY-JysKLwx4HvYTYS8ZFrgqYDBVneUkHg-X-hYbMG29Jy5ziCDsNULLMSKvwK2odFp2UKvyRn56R7sUHfQJ1vNfnASUX_aVm3]--></g></svg>