<?xml version="1.0" encoding="UTF-8" standalone="no"?><svg xmlns="http://www.w3.org/2000/svg" xmlns:xlink="http://www.w3.org/1999/xlink" contentScriptType="application/ecmascript" contentStyleType="text/css" height="452px" preserveAspectRatio="none" style="width:1355px;height:452px;background:#FFFFFF;" version="1.1" viewBox="0 0 1355 452" width="1355px" zoomAndPan="magnify"><defs><filter height="300%" id="f5zp3nmer8ssz" width="300%" x="-1" y="-1"><feGaussianBlur result="blurOut" stdDeviation="2.0"/><feColorMatrix in="blurOut" result="blurOut2" type="matrix" values="0 0 0 0 0 0 0 0 0 0 0 0 0 0 0 0 0 0 .4 0"/><feOffset dx="4.0" dy="4.0" in="blurOut2" result="blurOut3"/><feBlend in="SourceGraphic" in2="blurOut3" mode="normal"/></filter></defs><g><!--MD5=[362837878af92ba71ae40d034f8eec69]
class DltTraceDecoderBase--><rect codeLine="1" fill="#FEFECE" filter="url(#f5zp3nmer8ssz)" height="48" id="DltTraceDecoderBase" style="stroke:#A80036;stroke-width:1.5;" width="154" x="112" y="14"/><ellipse cx="127" cy="30" fill="#ADD1B2" rx="11" ry="11" style="stroke:#A80036;stroke-width:1.0;"/><path d="M129.7656,25.875 Q129.9219,25.6563 130.1094,25.5469 Q130.2969,25.4375 130.5156,25.4375 Q130.8906,25.4375 131.125,25.6953 Q131.3594,25.9531 131.3594,26.5625 L131.3594,28.0156 Q131.3594,28.625 131.125,28.8906 Q130.8906,29.1563 130.5156,29.1563 Q130.1719,29.1563 129.9688,28.9531 Q129.7656,28.7656 129.6563,28.25 Q129.6094,27.8906 129.4219,27.7031 Q129.0938,27.3281 128.4844,27.1094 Q127.875,26.8906 127.25,26.8906 Q126.4844,26.8906 125.8516,27.2188 Q125.2188,27.5469 124.7266,28.2969 Q124.2344,29.0469 124.2344,30.0781 L124.2344,31.1719 Q124.2344,32.4063 125.125,33.2266 Q126.0156,34.0469 127.6094,34.0469 Q128.5469,34.0469 129.2031,33.7969 Q129.5938,33.6406 130.0156,33.2031 Q130.2813,32.9375 130.4297,32.8594 Q130.5781,32.7813 130.7813,32.7813 Q131.1094,32.7813 131.3672,33.0391 Q131.625,33.2969 131.625,33.6406 Q131.625,33.9844 131.2813,34.3906 Q130.7813,34.9688 129.9844,35.2969 Q128.9063,35.75 127.6094,35.75 Q126.0938,35.75 124.8906,35.125 Q123.9063,34.625 123.2188,33.5547 Q122.5313,32.4844 122.5313,31.2031 L122.5313,30.0469 Q122.5313,28.7188 123.1484,27.5703 Q123.7656,26.4219 124.8594,25.8047 Q125.9531,25.1875 127.1875,25.1875 Q127.9219,25.1875 128.5703,25.3516 Q129.2188,25.5156 129.7656,25.875 Z " fill="#000000"/><text fill="#000000" font-family="sans-serif" font-size="12" lengthAdjust="spacing" textLength="122" x="141" y="34.9102">DltTraceDecoderBase</text><line style="stroke:#A80036;stroke-width:1.5;" x1="113" x2="265" y1="46" y2="46"/><line style="stroke:#A80036;stroke-width:1.5;" x1="113" x2="265" y1="54" y2="54"/><!--MD5=[e4c5aaef6244aed21e9882d104cc9d1d]
class IVerboseDltDecoder--><rect codeLine="4" fill="#FEFECE" filter="url(#f5zp3nmer8ssz)" height="61.8359" id="IVerboseDltDecoder" style="stroke:#A80036;stroke-width:1.5;" width="399" x="344.5" y="7"/><ellipse cx="483.25" cy="23" fill="#B4A7E5" rx="11" ry="11" style="stroke:#A80036;stroke-width:1.0;"/><path d="M484.2031,19.6406 L484.2031,26.2969 L485.9219,26.2969 Q486.5313,26.2969 486.7969,26.5313 Q487.0625,26.7656 487.0625,27.1563 Q487.0625,27.5313 486.7969,27.7656 Q486.5313,28 485.9219,28 L480.7813,28 Q480.1719,28 479.9063,27.7656 Q479.6406,27.5313 479.6406,27.1406 Q479.6406,26.7656 479.9063,26.5313 Q480.1719,26.2969 480.7813,26.2969 L482.5,26.2969 L482.5,19.6406 L480.7813,19.6406 Q480.1719,19.6406 479.9063,19.4063 Q479.6406,19.1719 479.6406,18.7813 Q479.6406,18.4063 479.9063,18.1719 Q480.1719,17.9375 480.7813,17.9375 L485.9219,17.9375 Q486.5313,17.9375 486.7969,18.1719 Q487.0625,18.4063 487.0625,18.7813 Q487.0625,19.1719 486.7969,19.4063 Q486.5313,19.6406 485.9219,19.6406 L484.2031,19.6406 Z " fill="#000000"/><text fill="#000000" font-family="sans-serif" font-size="12" font-style="italic" lengthAdjust="spacing" textLength="113" x="503.75" y="27.9102">IVerboseDltDecoder</text><line style="stroke:#A80036;stroke-width:1.5;" x1="345.5" x2="742.5" y1="39" y2="39"/><line style="stroke:#A80036;stroke-width:1.5;" x1="345.5" x2="742.5" y1="47" y2="47"/><ellipse cx="355.5" cy="58" fill="#84BE84" rx="3" ry="3" style="stroke:#038048;stroke-width:1.0;"/><text fill="#000000" font-family="sans-serif" font-size="11" lengthAdjust="spacing" textLength="373" x="364.5" y="62.4189">Decode(buffer: ReadOnlySpan&lt;byte&gt;, lineBuilder: IDltLineBuilder): Result&lt;int&gt;</text><path d="M778.5,16.5 L778.5,34 L743.8,38 L778.5,42 L778.5,59.2031 A0,0 0 0 0 778.5,59.2031 L1053.5,59.2031 A0,0 0 0 0 1053.5,59.2031 L1053.5,26.5 L1043.5,16.5 L778.5,16.5 A0,0 0 0 0 778.5,16.5 " fill="#FBFB77" filter="url(#f5zp3nmer8ssz)" style="stroke:#A80036;stroke-width:1.0;"/><path d="M1043.5,16.5 L1043.5,26.5 L1053.5,26.5 L1043.5,16.5 " fill="#FBFB77" style="stroke:#A80036;stroke-width:1.0;"/><text fill="#000000" font-family="sans-serif" font-size="13" lengthAdjust="spacing" textLength="230" x="784.5" y="34.9951">Uses the line builder to know how many</text><text fill="#000000" font-family="sans-serif" font-size="13" lengthAdjust="spacing" textLength="254" x="784.5" y="51.3467">arguments and scans through all arguments</text><!--MD5=[3b5c0acfd7eb65b09e4eb839552bb767]
class VerboseDltDecoder--><rect codeLine="12" fill="#FEFECE" filter="url(#f5zp3nmer8ssz)" height="61.8359" id="VerboseDltDecoder" style="stroke:#A80036;stroke-width:1.5;" width="208" x="440" y="130"/><ellipse cx="485.75" cy="146" fill="#ADD1B2" rx="11" ry="11" style="stroke:#A80036;stroke-width:1.0;"/><path d="M488.5156,141.875 Q488.6719,141.6563 488.8594,141.5469 Q489.0469,141.4375 489.2656,141.4375 Q489.6406,141.4375 489.875,141.6953 Q490.1094,141.9531 490.1094,142.5625 L490.1094,144.0156 Q490.1094,144.625 489.875,144.8906 Q489.6406,145.1563 489.2656,145.1563 Q488.9219,145.1563 488.7188,144.9531 Q488.5156,144.7656 488.4063,144.25 Q488.3594,143.8906 488.1719,143.7031 Q487.8438,143.3281 487.2344,143.1094 Q486.625,142.8906 486,142.8906 Q485.2344,142.8906 484.6016,143.2188 Q483.9688,143.5469 483.4766,144.2969 Q482.9844,145.0469 482.9844,146.0781 L482.9844,147.1719 Q482.9844,148.4063 483.875,149.2266 Q484.7656,150.0469 486.3594,150.0469 Q487.2969,150.0469 487.9531,149.7969 Q488.3438,149.6406 488.7656,149.2031 Q489.0313,148.9375 489.1797,148.8594 Q489.3281,148.7813 489.5313,148.7813 Q489.8594,148.7813 490.1172,149.0391 Q490.375,149.2969 490.375,149.6406 Q490.375,149.9844 490.0313,150.3906 Q489.5313,150.9688 488.7344,151.2969 Q487.6563,151.75 486.3594,151.75 Q484.8438,151.75 483.6406,151.125 Q482.6563,150.625 481.9688,149.5547 Q481.2813,148.4844 481.2813,147.2031 L481.2813,146.0469 Q481.2813,144.7188 481.8984,143.5703 Q482.5156,142.4219 483.6094,141.8047 Q484.7031,141.1875 485.9375,141.1875 Q486.6719,141.1875 487.3203,141.3516 Q487.9688,141.5156 488.5156,141.875 Z " fill="#000000"/><text fill="#000000" font-family="sans-serif" font-size="12" lengthAdjust="spacing" textLength="108" x="506.25" y="150.9102">VerboseDltDecoder</text><line style="stroke:#A80036;stroke-width:1.5;" x1="441" x2="647" y1="162" y2="162"/><line style="stroke:#A80036;stroke-width:1.5;" x1="441" x2="647" y1="170" y2="170"/><text fill="#000000" font-family="sans-serif" font-size="11" lengthAdjust="spacing" textLength="196" x="446" y="185.4189">.ctor(argDecoder: IVerboseArgDecoder)</text><path d="M683.5,131.5 L683.5,157 L648,161 L683.5,165 L683.5,190.5547 A0,0 0 0 0 683.5,190.5547 L904.5,190.5547 A0,0 0 0 0 904.5,190.5547 L904.5,141.5 L894.5,131.5 L683.5,131.5 A0,0 0 0 0 683.5,131.5 " fill="#FBFB77" filter="url(#f5zp3nmer8ssz)" style="stroke:#A80036;stroke-width:1.0;"/><path d="M894.5,131.5 L894.5,141.5 L904.5,141.5 L894.5,131.5 " fill="#FBFB77" style="stroke:#A80036;stroke-width:1.0;"/><text fill="#000000" font-family="sans-serif" font-size="13" lengthAdjust="spacing" textLength="157" x="689.5" y="149.9951">This interprets the type info</text><text fill="#000000" font-family="sans-serif" font-size="13" lengthAdjust="spacing" textLength="200" x="689.5" y="166.3467">and then uses specialized classes</text><text fill="#000000" font-family="sans-serif" font-size="13" lengthAdjust="spacing" textLength="171" x="689.5" y="182.6982">to decode the individual types</text><!--MD5=[59e54c858357a9ddd360e2b5866386e8]
class IVerboseArgDecoder--><rect codeLine="22" fill="#FEFECE" filter="url(#f5zp3nmer8ssz)" height="75.6719" id="IVerboseArgDecoder" style="stroke:#A80036;stroke-width:1.5;" width="276" x="651" y="253"/><ellipse cx="726.25" cy="269" fill="#B4A7E5" rx="11" ry="11" style="stroke:#A80036;stroke-width:1.0;"/><path d="M727.2031,265.6406 L727.2031,272.2969 L728.9219,272.2969 Q729.5313,272.2969 729.7969,272.5313 Q730.0625,272.7656 730.0625,273.1563 Q730.0625,273.5313 729.7969,273.7656 Q729.5313,274 728.9219,274 L723.7813,274 Q723.1719,274 722.9063,273.7656 Q722.6406,273.5313 722.6406,273.1406 Q722.6406,272.7656 722.9063,272.5313 Q723.1719,272.2969 723.7813,272.2969 L725.5,272.2969 L725.5,265.6406 L723.7813,265.6406 Q723.1719,265.6406 722.9063,265.4063 Q722.6406,265.1719 722.6406,264.7813 Q722.6406,264.4063 722.9063,264.1719 Q723.1719,263.9375 723.7813,263.9375 L728.9219,263.9375 Q729.5313,263.9375 729.7969,264.1719 Q730.0625,264.4063 730.0625,264.7813 Q730.0625,265.1719 729.7969,265.4063 Q729.5313,265.6406 728.9219,265.6406 L727.2031,265.6406 Z " fill="#000000"/><text fill="#000000" font-family="sans-serif" font-size="12" font-style="italic" lengthAdjust="spacing" textLength="117" x="746.75" y="273.9102">IVerboseArgDecoder</text><line style="stroke:#A80036;stroke-width:1.5;" x1="652" x2="926" y1="285" y2="285"/><line style="stroke:#A80036;stroke-width:1.5;" x1="652" x2="926" y1="293" y2="293"/><ellipse cx="662" cy="304" fill="#84BE84" rx="3" ry="3" style="stroke:#038048;stroke-width:1.0;"/><text fill="#000000" font-family="sans-serif" font-size="11" lengthAdjust="spacing" textLength="247" x="671" y="308.4189">Decode(typeInfo: int, buffer: ReadOnlySpan&lt;byte&gt;,</text><text fill="#000000" font-family="sans-serif" font-size="11" lengthAdjust="spacing" textLength="198" x="674" y="322.2549">msbf: bool, [out] IDltArg *arg): Result&lt;int&gt;</text><!--MD5=[2f3b8e3c253e05f74c862e1abf64af87]
class BoolArgDecoder--><rect codeLine="26" fill="#FEFECE" filter="url(#f5zp3nmer8ssz)" height="48" id="BoolArgDecoder" style="stroke:#A80036;stroke-width:1.5;" width="122" x="873" y="390"/><ellipse cx="888" cy="406" fill="#ADD1B2" rx="11" ry="11" style="stroke:#A80036;stroke-width:1.0;"/><path d="M890.7656,401.875 Q890.9219,401.6563 891.1094,401.5469 Q891.2969,401.4375 891.5156,401.4375 Q891.8906,401.4375 892.125,401.6953 Q892.3594,401.9531 892.3594,402.5625 L892.3594,404.0156 Q892.3594,404.625 892.125,404.8906 Q891.8906,405.1563 891.5156,405.1563 Q891.1719,405.1563 890.9688,404.9531 Q890.7656,404.7656 890.6563,404.25 Q890.6094,403.8906 890.4219,403.7031 Q890.0938,403.3281 889.4844,403.1094 Q888.875,402.8906 888.25,402.8906 Q887.4844,402.8906 886.8516,403.2188 Q886.2188,403.5469 885.7266,404.2969 Q885.2344,405.0469 885.2344,406.0781 L885.2344,407.1719 Q885.2344,408.4063 886.125,409.2266 Q887.0156,410.0469 888.6094,410.0469 Q889.5469,410.0469 890.2031,409.7969 Q890.5938,409.6406 891.0156,409.2031 Q891.2813,408.9375 891.4297,408.8594 Q891.5781,408.7813 891.7813,408.7813 Q892.1094,408.7813 892.3672,409.0391 Q892.625,409.2969 892.625,409.6406 Q892.625,409.9844 892.2813,410.3906 Q891.7813,410.9688 890.9844,411.2969 Q889.9063,411.75 888.6094,411.75 Q887.0938,411.75 885.8906,411.125 Q884.9063,410.625 884.2188,409.5547 Q883.5313,408.4844 883.5313,407.2031 L883.5313,406.0469 Q883.5313,404.7188 884.1484,403.5703 Q884.7656,402.4219 885.8594,401.8047 Q886.9531,401.1875 888.1875,401.1875 Q888.9219,401.1875 889.5703,401.3516 Q890.2188,401.5156 890.7656,401.875 Z " fill="#000000"/><text fill="#000000" font-family="sans-serif" font-size="12" lengthAdjust="spacing" textLength="90" x="902" y="410.9102">BoolArgDecoder</text><line style="stroke:#A80036;stroke-width:1.5;" x1="874" x2="994" y1="422" y2="422"/><line style="stroke:#A80036;stroke-width:1.5;" x1="874" x2="994" y1="430" y2="430"/><!--MD5=[cc4f2cfc94662b1e0436f8ea7950d3d1]
class SignedIntArgDecoder--><rect codeLine="27" fill="#FEFECE" filter="url(#f5zp3nmer8ssz)" height="48" id="SignedIntArgDecoder" style="stroke:#A80036;stroke-width:1.5;" width="149" x="206.5" y="390"/><ellipse cx="221.5" cy="406" fill="#ADD1B2" rx="11" ry="11" style="stroke:#A80036;stroke-width:1.0;"/><path d="M224.2656,401.875 Q224.4219,401.6563 224.6094,401.5469 Q224.7969,401.4375 225.0156,401.4375 Q225.3906,401.4375 225.625,401.6953 Q225.8594,401.9531 225.8594,402.5625 L225.8594,404.0156 Q225.8594,404.625 225.625,404.8906 Q225.3906,405.1563 225.0156,405.1563 Q224.6719,405.1563 224.4688,404.9531 Q224.2656,404.7656 224.1563,404.25 Q224.1094,403.8906 223.9219,403.7031 Q223.5938,403.3281 222.9844,403.1094 Q222.375,402.8906 221.75,402.8906 Q220.9844,402.8906 220.3516,403.2188 Q219.7188,403.5469 219.2266,404.2969 Q218.7344,405.0469 218.7344,406.0781 L218.7344,407.1719 Q218.7344,408.4063 219.625,409.2266 Q220.5156,410.0469 222.1094,410.0469 Q223.0469,410.0469 223.7031,409.7969 Q224.0938,409.6406 224.5156,409.2031 Q224.7813,408.9375 224.9297,408.8594 Q225.0781,408.7813 225.2813,408.7813 Q225.6094,408.7813 225.8672,409.0391 Q226.125,409.2969 226.125,409.6406 Q226.125,409.9844 225.7813,410.3906 Q225.2813,410.9688 224.4844,411.2969 Q223.4063,411.75 222.1094,411.75 Q220.5938,411.75 219.3906,411.125 Q218.4063,410.625 217.7188,409.5547 Q217.0313,408.4844 217.0313,407.2031 L217.0313,406.0469 Q217.0313,404.7188 217.6484,403.5703 Q218.2656,402.4219 219.3594,401.8047 Q220.4531,401.1875 221.6875,401.1875 Q222.4219,401.1875 223.0703,401.3516 Q223.7188,401.5156 224.2656,401.875 Z " fill="#000000"/><text fill="#000000" font-family="sans-serif" font-size="12" lengthAdjust="spacing" textLength="117" x="235.5" y="410.9102">SignedIntArgDecoder</text><line style="stroke:#A80036;stroke-width:1.5;" x1="207.5" x2="354.5" y1="422" y2="422"/><line style="stroke:#A80036;stroke-width:1.5;" x1="207.5" x2="354.5" y1="430" y2="430"/><!--MD5=[2d00e2c45ecda1a97f38626f30aff1f1]
class UnsignedIntArgDecoder--><rect codeLine="28" fill="#FEFECE" filter="url(#f5zp3nmer8ssz)" height="48" id="UnsignedIntArgDecoder" style="stroke:#A80036;stroke-width:1.5;" width="164" x="7" y="390"/><ellipse cx="22" cy="406" fill="#ADD1B2" rx="11" ry="11" style="stroke:#A80036;stroke-width:1.0;"/><path d="M24.7656,401.875 Q24.9219,401.6563 25.1094,401.5469 Q25.2969,401.4375 25.5156,401.4375 Q25.8906,401.4375 26.125,401.6953 Q26.3594,401.9531 26.3594,402.5625 L26.3594,404.0156 Q26.3594,404.625 26.125,404.8906 Q25.8906,405.1563 25.5156,405.1563 Q25.1719,405.1563 24.9688,404.9531 Q24.7656,404.7656 24.6563,404.25 Q24.6094,403.8906 24.4219,403.7031 Q24.0938,403.3281 23.4844,403.1094 Q22.875,402.8906 22.25,402.8906 Q21.4844,402.8906 20.8516,403.2188 Q20.2188,403.5469 19.7266,404.2969 Q19.2344,405.0469 19.2344,406.0781 L19.2344,407.1719 Q19.2344,408.4063 20.125,409.2266 Q21.0156,410.0469 22.6094,410.0469 Q23.5469,410.0469 24.2031,409.7969 Q24.5938,409.6406 25.0156,409.2031 Q25.2813,408.9375 25.4297,408.8594 Q25.5781,408.7813 25.7813,408.7813 Q26.1094,408.7813 26.3672,409.0391 Q26.625,409.2969 26.625,409.6406 Q26.625,409.9844 26.2813,410.3906 Q25.7813,410.9688 24.9844,411.2969 Q23.9063,411.75 22.6094,411.75 Q21.0938,411.75 19.8906,411.125 Q18.9063,410.625 18.2188,409.5547 Q17.5313,408.4844 17.5313,407.2031 L17.5313,406.0469 Q17.5313,404.7188 18.1484,403.5703 Q18.7656,402.4219 19.8594,401.8047 Q20.9531,401.1875 22.1875,401.1875 Q22.9219,401.1875 23.5703,401.3516 Q24.2188,401.5156 24.7656,401.875 Z " fill="#000000"/><text fill="#000000" font-family="sans-serif" font-size="12" lengthAdjust="spacing" textLength="132" x="36" y="410.9102">UnsignedIntArgDecoder</text><line style="stroke:#A80036;stroke-width:1.5;" x1="8" x2="170" y1="422" y2="422"/><line style="stroke:#A80036;stroke-width:1.5;" x1="8" x2="170" y1="430" y2="430"/><!--MD5=[1888ff19d99a3e140eaea476d1a309e3]
class FloatArgDecoder--><rect codeLine="29" fill="#FEFECE" filter="url(#f5zp3nmer8ssz)" height="48" id="FloatArgDecoder" style="stroke:#A80036;stroke-width:1.5;" width="124" x="714" y="390"/><ellipse cx="729" cy="406" fill="#ADD1B2" rx="11" ry="11" style="stroke:#A80036;stroke-width:1.0;"/><path d="M731.7656,401.875 Q731.9219,401.6563 732.1094,401.5469 Q732.2969,401.4375 732.5156,401.4375 Q732.8906,401.4375 733.125,401.6953 Q733.3594,401.9531 733.3594,402.5625 L733.3594,404.0156 Q733.3594,404.625 733.125,404.8906 Q732.8906,405.1563 732.5156,405.1563 Q732.1719,405.1563 731.9688,404.9531 Q731.7656,404.7656 731.6563,404.25 Q731.6094,403.8906 731.4219,403.7031 Q731.0938,403.3281 730.4844,403.1094 Q729.875,402.8906 729.25,402.8906 Q728.4844,402.8906 727.8516,403.2188 Q727.2188,403.5469 726.7266,404.2969 Q726.2344,405.0469 726.2344,406.0781 L726.2344,407.1719 Q726.2344,408.4063 727.125,409.2266 Q728.0156,410.0469 729.6094,410.0469 Q730.5469,410.0469 731.2031,409.7969 Q731.5938,409.6406 732.0156,409.2031 Q732.2813,408.9375 732.4297,408.8594 Q732.5781,408.7813 732.7813,408.7813 Q733.1094,408.7813 733.3672,409.0391 Q733.625,409.2969 733.625,409.6406 Q733.625,409.9844 733.2813,410.3906 Q732.7813,410.9688 731.9844,411.2969 Q730.9063,411.75 729.6094,411.75 Q728.0938,411.75 726.8906,411.125 Q725.9063,410.625 725.2188,409.5547 Q724.5313,408.4844 724.5313,407.2031 L724.5313,406.0469 Q724.5313,404.7188 725.1484,403.5703 Q725.7656,402.4219 726.8594,401.8047 Q727.9531,401.1875 729.1875,401.1875 Q729.9219,401.1875 730.5703,401.3516 Q731.2188,401.5156 731.7656,401.875 Z " fill="#000000"/><text fill="#000000" font-family="sans-serif" font-size="12" lengthAdjust="spacing" textLength="92" x="743" y="410.9102">FloatArgDecoder</text><line style="stroke:#A80036;stroke-width:1.5;" x1="715" x2="837" y1="422" y2="422"/><line style="stroke:#A80036;stroke-width:1.5;" x1="715" x2="837" y1="430" y2="430"/><!--MD5=[a1dfa63cecd38c72433a8f4c131bf9bb]
class StringArgDecoder--><rect codeLine="30" fill="#FEFECE" filter="url(#f5zp3nmer8ssz)" height="48" id="StringArgDecoder" style="stroke:#A80036;stroke-width:1.5;" width="129" x="390.5" y="390"/><ellipse cx="405.5" cy="406" fill="#ADD1B2" rx="11" ry="11" style="stroke:#A80036;stroke-width:1.0;"/><path d="M408.2656,401.875 Q408.4219,401.6563 408.6094,401.5469 Q408.7969,401.4375 409.0156,401.4375 Q409.3906,401.4375 409.625,401.6953 Q409.8594,401.9531 409.8594,402.5625 L409.8594,404.0156 Q409.8594,404.625 409.625,404.8906 Q409.3906,405.1563 409.0156,405.1563 Q408.6719,405.1563 408.4688,404.9531 Q408.2656,404.7656 408.1563,404.25 Q408.1094,403.8906 407.9219,403.7031 Q407.5938,403.3281 406.9844,403.1094 Q406.375,402.8906 405.75,402.8906 Q404.9844,402.8906 404.3516,403.2188 Q403.7188,403.5469 403.2266,404.2969 Q402.7344,405.0469 402.7344,406.0781 L402.7344,407.1719 Q402.7344,408.4063 403.625,409.2266 Q404.5156,410.0469 406.1094,410.0469 Q407.0469,410.0469 407.7031,409.7969 Q408.0938,409.6406 408.5156,409.2031 Q408.7813,408.9375 408.9297,408.8594 Q409.0781,408.7813 409.2813,408.7813 Q409.6094,408.7813 409.8672,409.0391 Q410.125,409.2969 410.125,409.6406 Q410.125,409.9844 409.7813,410.3906 Q409.2813,410.9688 408.4844,411.2969 Q407.4063,411.75 406.1094,411.75 Q404.5938,411.75 403.3906,411.125 Q402.4063,410.625 401.7188,409.5547 Q401.0313,408.4844 401.0313,407.2031 L401.0313,406.0469 Q401.0313,404.7188 401.6484,403.5703 Q402.2656,402.4219 403.3594,401.8047 Q404.4531,401.1875 405.6875,401.1875 Q406.4219,401.1875 407.0703,401.3516 Q407.7188,401.5156 408.2656,401.875 Z " fill="#000000"/><text fill="#000000" font-family="sans-serif" font-size="12" lengthAdjust="spacing" textLength="97" x="419.5" y="410.9102">StringArgDecoder</text><line style="stroke:#A80036;stroke-width:1.5;" x1="391.5" x2="518.5" y1="422" y2="422"/><line style="stroke:#A80036;stroke-width:1.5;" x1="391.5" x2="518.5" y1="430" y2="430"/><!--MD5=[922918767524b530397153c368c8d882]
class RawDataArgDecoder--><rect codeLine="31" fill="#FEFECE" filter="url(#f5zp3nmer8ssz)" height="48" id="RawDataArgDecoder" style="stroke:#A80036;stroke-width:1.5;" width="148" x="1030" y="390"/><ellipse cx="1045" cy="406" fill="#ADD1B2" rx="11" ry="11" style="stroke:#A80036;stroke-width:1.0;"/><path d="M1047.7656,401.875 Q1047.9219,401.6563 1048.1094,401.5469 Q1048.2969,401.4375 1048.5156,401.4375 Q1048.8906,401.4375 1049.125,401.6953 Q1049.3594,401.9531 1049.3594,402.5625 L1049.3594,404.0156 Q1049.3594,404.625 1049.125,404.8906 Q1048.8906,405.1563 1048.5156,405.1563 Q1048.1719,405.1563 1047.9688,404.9531 Q1047.7656,404.7656 1047.6563,404.25 Q1047.6094,403.8906 1047.4219,403.7031 Q1047.0938,403.3281 1046.4844,403.1094 Q1045.875,402.8906 1045.25,402.8906 Q1044.4844,402.8906 1043.8516,403.2188 Q1043.2188,403.5469 1042.7266,404.2969 Q1042.2344,405.0469 1042.2344,406.0781 L1042.2344,407.1719 Q1042.2344,408.4063 1043.125,409.2266 Q1044.0156,410.0469 1045.6094,410.0469 Q1046.5469,410.0469 1047.2031,409.7969 Q1047.5938,409.6406 1048.0156,409.2031 Q1048.2813,408.9375 1048.4297,408.8594 Q1048.5781,408.7813 1048.7813,408.7813 Q1049.1094,408.7813 1049.3672,409.0391 Q1049.625,409.2969 1049.625,409.6406 Q1049.625,409.9844 1049.2813,410.3906 Q1048.7813,410.9688 1047.9844,411.2969 Q1046.9063,411.75 1045.6094,411.75 Q1044.0938,411.75 1042.8906,411.125 Q1041.9063,410.625 1041.2188,409.5547 Q1040.5313,408.4844 1040.5313,407.2031 L1040.5313,406.0469 Q1040.5313,404.7188 1041.1484,403.5703 Q1041.7656,402.4219 1042.8594,401.8047 Q1043.9531,401.1875 1045.1875,401.1875 Q1045.9219,401.1875 1046.5703,401.3516 Q1047.2188,401.5156 1047.7656,401.875 Z " fill="#000000"/><text fill="#000000" font-family="sans-serif" font-size="12" lengthAdjust="spacing" textLength="116" x="1059" y="410.9102">RawDataArgDecoder</text><line style="stroke:#A80036;stroke-width:1.5;" x1="1031" x2="1177" y1="422" y2="422"/><line style="stroke:#A80036;stroke-width:1.5;" x1="1031" x2="1177" y1="430" y2="430"/><!--MD5=[1035b7a79b148179676631df2fb72cc1]
class ArrayArgDecoder--><rect codeLine="32" fill="#FEFECE" filter="url(#f5zp3nmer8ssz)" height="48" id="ArrayArgDecoder" style="stroke:#A80036;stroke-width:1.5;" width="124" x="555" y="390"/><ellipse cx="570" cy="406" fill="#ADD1B2" rx="11" ry="11" style="stroke:#A80036;stroke-width:1.0;"/><path d="M572.7656,401.875 Q572.9219,401.6563 573.1094,401.5469 Q573.2969,401.4375 573.5156,401.4375 Q573.8906,401.4375 574.125,401.6953 Q574.3594,401.9531 574.3594,402.5625 L574.3594,404.0156 Q574.3594,404.625 574.125,404.8906 Q573.8906,405.1563 573.5156,405.1563 Q573.1719,405.1563 572.9688,404.9531 Q572.7656,404.7656 572.6563,404.25 Q572.6094,403.8906 572.4219,403.7031 Q572.0938,403.3281 571.4844,403.1094 Q570.875,402.8906 570.25,402.8906 Q569.4844,402.8906 568.8516,403.2188 Q568.2188,403.5469 567.7266,404.2969 Q567.2344,405.0469 567.2344,406.0781 L567.2344,407.1719 Q567.2344,408.4063 568.125,409.2266 Q569.0156,410.0469 570.6094,410.0469 Q571.5469,410.0469 572.2031,409.7969 Q572.5938,409.6406 573.0156,409.2031 Q573.2813,408.9375 573.4297,408.8594 Q573.5781,408.7813 573.7813,408.7813 Q574.1094,408.7813 574.3672,409.0391 Q574.625,409.2969 574.625,409.6406 Q574.625,409.9844 574.2813,410.3906 Q573.7813,410.9688 572.9844,411.2969 Q571.9063,411.75 570.6094,411.75 Q569.0938,411.75 567.8906,411.125 Q566.9063,410.625 566.2188,409.5547 Q565.5313,408.4844 565.5313,407.2031 L565.5313,406.0469 Q565.5313,404.7188 566.1484,403.5703 Q566.7656,402.4219 567.8594,401.8047 Q568.9531,401.1875 570.1875,401.1875 Q570.9219,401.1875 571.5703,401.3516 Q572.2188,401.5156 572.7656,401.875 Z " fill="#000000"/><text fill="#000000" font-family="sans-serif" font-size="12" lengthAdjust="spacing" textLength="92" x="584" y="410.9102">ArrayArgDecoder</text><line style="stroke:#A80036;stroke-width:1.5;" x1="556" x2="678" y1="422" y2="422"/><line style="stroke:#A80036;stroke-width:1.5;" x1="556" x2="678" y1="430" y2="430"/><!--MD5=[d6ed4aa3d37b5ad1dd98b3d8ccd8741d]
class StructArgDecoder--><rect codeLine="33" fill="#FEFECE" filter="url(#f5zp3nmer8ssz)" height="48" id="StructArgDecoder" style="stroke:#A80036;stroke-width:1.5;" width="128" x="1213" y="390"/><ellipse cx="1228" cy="406" fill="#ADD1B2" rx="11" ry="11" style="stroke:#A80036;stroke-width:1.0;"/><path d="M1230.7656,401.875 Q1230.9219,401.6563 1231.1094,401.5469 Q1231.2969,401.4375 1231.5156,401.4375 Q1231.8906,401.4375 1232.125,401.6953 Q1232.3594,401.9531 1232.3594,402.5625 L1232.3594,404.0156 Q1232.3594,404.625 1232.125,404.8906 Q1231.8906,405.1563 1231.5156,405.1563 Q1231.1719,405.1563 1230.9688,404.9531 Q1230.7656,404.7656 1230.6563,404.25 Q1230.6094,403.8906 1230.4219,403.7031 Q1230.0938,403.3281 1229.4844,403.1094 Q1228.875,402.8906 1228.25,402.8906 Q1227.4844,402.8906 1226.8516,403.2188 Q1226.2188,403.5469 1225.7266,404.2969 Q1225.2344,405.0469 1225.2344,406.0781 L1225.2344,407.1719 Q1225.2344,408.4063 1226.125,409.2266 Q1227.0156,410.0469 1228.6094,410.0469 Q1229.5469,410.0469 1230.2031,409.7969 Q1230.5938,409.6406 1231.0156,409.2031 Q1231.2813,408.9375 1231.4297,408.8594 Q1231.5781,408.7813 1231.7813,408.7813 Q1232.1094,408.7813 1232.3672,409.0391 Q1232.625,409.2969 1232.625,409.6406 Q1232.625,409.9844 1232.2813,410.3906 Q1231.7813,410.9688 1230.9844,411.2969 Q1229.9063,411.75 1228.6094,411.75 Q1227.0938,411.75 1225.8906,411.125 Q1224.9063,410.625 1224.2188,409.5547 Q1223.5313,408.4844 1223.5313,407.2031 L1223.5313,406.0469 Q1223.5313,404.7188 1224.1484,403.5703 Q1224.7656,402.4219 1225.8594,401.8047 Q1226.9531,401.1875 1228.1875,401.1875 Q1228.9219,401.1875 1229.5703,401.3516 Q1230.2188,401.5156 1230.7656,401.875 Z " fill="#000000"/><text fill="#000000" font-family="sans-serif" font-size="12" lengthAdjust="spacing" textLength="96" x="1242" y="410.9102">StructArgDecoder</text><line style="stroke:#A80036;stroke-width:1.5;" x1="1214" x2="1340" y1="422" y2="422"/><line style="stroke:#A80036;stroke-width:1.5;" x1="1214" x2="1340" y1="430" y2="430"/><!--MD5=[e9b71cc8cb034448e093f62e6f1baf3d]
class VerboseArgDecoder--><rect fill="#FEFECE" filter="url(#f5zp3nmer8ssz)" height="48" id="VerboseArgDecoder" style="stroke:#A80036;stroke-width:1.5;" width="143" x="472.5" y="267"/><ellipse cx="487.5" cy="283" fill="#ADD1B2" rx="11" ry="11" style="stroke:#A80036;stroke-width:1.0;"/><path d="M490.2656,278.875 Q490.4219,278.6563 490.6094,278.5469 Q490.7969,278.4375 491.0156,278.4375 Q491.3906,278.4375 491.625,278.6953 Q491.8594,278.9531 491.8594,279.5625 L491.8594,281.0156 Q491.8594,281.625 491.625,281.8906 Q491.3906,282.1563 491.0156,282.1563 Q490.6719,282.1563 490.4688,281.9531 Q490.2656,281.7656 490.1563,281.25 Q490.1094,280.8906 489.9219,280.7031 Q489.5938,280.3281 488.9844,280.1094 Q488.375,279.8906 487.75,279.8906 Q486.9844,279.8906 486.3516,280.2188 Q485.7188,280.5469 485.2266,281.2969 Q484.7344,282.0469 484.7344,283.0781 L484.7344,284.1719 Q484.7344,285.4063 485.625,286.2266 Q486.5156,287.0469 488.1094,287.0469 Q489.0469,287.0469 489.7031,286.7969 Q490.0938,286.6406 490.5156,286.2031 Q490.7813,285.9375 490.9297,285.8594 Q491.0781,285.7813 491.2813,285.7813 Q491.6094,285.7813 491.8672,286.0391 Q492.125,286.2969 492.125,286.6406 Q492.125,286.9844 491.7813,287.3906 Q491.2813,287.9688 490.4844,288.2969 Q489.4063,288.75 488.1094,288.75 Q486.5938,288.75 485.3906,288.125 Q484.4063,287.625 483.7188,286.5547 Q483.0313,285.4844 483.0313,284.2031 L483.0313,283.0469 Q483.0313,281.7188 483.6484,280.5703 Q484.2656,279.4219 485.3594,278.8047 Q486.4531,278.1875 487.6875,278.1875 Q488.4219,278.1875 489.0703,278.3516 Q489.7188,278.5156 490.2656,278.875 Z " fill="#000000"/><text fill="#000000" font-family="sans-serif" font-size="12" lengthAdjust="spacing" textLength="111" x="501.5" y="287.9102">VerboseArgDecoder</text><line style="stroke:#A80036;stroke-width:1.5;" x1="473.5" x2="614.5" y1="299" y2="299"/><line style="stroke:#A80036;stroke-width:1.5;" x1="473.5" x2="614.5" y1="307" y2="307"/><!--MD5=[e642db42c9b105479b6a5f5d7194e3bf]
link DltTraceDecoderBase to IVerboseDltDecoder--><path codeLine="2" d="M266.03,38 C288.11,38 313.28,38 339.26,38 " fill="none" id="DltTraceDecoderBase-to-IVerboseDltDecoder" style="stroke:#A80036;stroke-width:1.0;"/><polygon fill="#A80036" points="344.46,38,335.46,34,339.46,38,335.46,42,344.46,38" style="stroke:#A80036;stroke-width:1.0;"/><text fill="#000000" font-family="sans-serif" font-size="13" lengthAdjust="spacing" textLength="42" x="284.25" y="31.4951">«uses»</text><!--MD5=[7e48cacecf70c65cf80d49669375672c]
reverse link IVerboseDltDecoder to VerboseDltDecoder--><path codeLine="20" d="M544,89.67 C544,103.3 544,117.61 544,129.74 " fill="none" id="IVerboseDltDecoder-backto-VerboseDltDecoder" style="stroke:#A80036;stroke-width:1.0;stroke-dasharray:7.0,7.0;"/><polygon fill="none" points="537,89.22,544,69.22,551,89.22,537,89.22" style="stroke:#A80036;stroke-width:1.0;"/><!--MD5=[f5b86bb0dde2a367373e2480d12c17c4]
reverse link IVerboseArgDecoder to BoolArgDecoder--><path codeLine="35" d="M849.15,342.19 C868.9,358.68 889.92,376.22 906.1,389.72 " fill="none" id="IVerboseArgDecoder-backto-BoolArgDecoder" style="stroke:#A80036;stroke-width:1.0;stroke-dasharray:7.0,7.0;"/><polygon fill="none" points="844.56,347.48,833.69,329.29,853.53,336.73,844.56,347.48" style="stroke:#A80036;stroke-width:1.0;"/><!--MD5=[f6f6c82d405c82f0ee27e16965cb0580]
reverse link IVerboseArgDecoder to SignedIntArgDecoder--><path codeLine="36" d="M631.25,329.4 C514.3,356.9 482.5,363.47 373,390 C367.4,391.36 361.61,392.77 355.79,394.21 " fill="none" id="IVerboseArgDecoder-backto-SignedIntArgDecoder" style="stroke:#A80036;stroke-width:1.0;stroke-dasharray:7.0,7.0;"/><polygon fill="none" points="629.71,322.57,650.78,324.8,632.92,336.2,629.71,322.57" style="stroke:#A80036;stroke-width:1.0;"/><!--MD5=[eaebfdd04222077ca5c1b73be048ca29]
reverse link IVerboseArgDecoder to UnsignedIntArgDecoder--><path codeLine="37" d="M631.05,329.16 C433.74,364.9 378.7,355.22 189,390 C183.13,391.08 177.08,392.26 171.01,393.52 " fill="none" id="IVerboseArgDecoder-backto-UnsignedIntArgDecoder" style="stroke:#A80036;stroke-width:1.0;stroke-dasharray:7.0,7.0;"/><polygon fill="none" points="629.99,322.24,650.92,325.49,632.53,336.01,629.99,322.24" style="stroke:#A80036;stroke-width:1.0;"/><!--MD5=[ca29193a178cee7cf47d88bead403b0d]
reverse link IVerboseArgDecoder to FloatArgDecoder--><path codeLine="38" d="M782.81,349.59 C781.29,363.8 779.74,378.22 778.5,389.72 " fill="none" id="IVerboseArgDecoder-backto-FloatArgDecoder" style="stroke:#A80036;stroke-width:1.0;stroke-dasharray:7.0,7.0;"/><polygon fill="none" points="775.9,348.43,784.99,329.29,789.82,349.92,775.9,348.43" style="stroke:#A80036;stroke-width:1.0;"/><!--MD5=[fbb0df5afa480f21b89bfa60171fa748]
reverse link IVerboseArgDecoder to StringArgDecoder--><path codeLine="39" d="M667.57,335.99 C617.25,354.22 560.96,374.61 518.95,389.83 " fill="none" id="IVerboseArgDecoder-backto-StringArgDecoder" style="stroke:#A80036;stroke-width:1.0;stroke-dasharray:7.0,7.0;"/><polygon fill="none" points="665.33,329.36,686.52,329.13,670.1,342.52,665.33,329.36" style="stroke:#A80036;stroke-width:1.0;"/><!--MD5=[ddc53699a0d8b9cdead0dd42b81e75fa]
reverse link IVerboseArgDecoder to RawDataArgDecoder--><path codeLine="40" d="M904.46,336.35 C951.68,354.49 1004.33,374.72 1043.69,389.83 " fill="none" id="IVerboseArgDecoder-backto-RawDataArgDecoder" style="stroke:#A80036;stroke-width:1.0;stroke-dasharray:7.0,7.0;"/><polygon fill="none" points="901.81,342.83,885.65,329.13,906.83,329.76,901.81,342.83" style="stroke:#A80036;stroke-width:1.0;"/><!--MD5=[467b6832e9b1450dc3f2ff99b2ff8ebe]
reverse link IVerboseArgDecoder to ArrayArgDecoder--><path codeLine="41" d="M719.33,341.01 C695.31,357.91 669.52,376.05 649.84,389.9 " fill="none" id="IVerboseArgDecoder-backto-ArrayArgDecoder" style="stroke:#A80036;stroke-width:1.0;stroke-dasharray:7.0,7.0;"/><polygon fill="none" points="715.61,335.07,735.99,329.29,723.66,346.52,715.61,335.07" style="stroke:#A80036;stroke-width:1.0;"/><!--MD5=[7c37859a0a11a285c687fa8598944e18]
reverse link IVerboseArgDecoder to StructArgDecoder--><path codeLine="42" d="M947.18,328.52 C1022.68,346.35 1114.2,368.55 1196,390 C1201.51,391.45 1207.23,392.99 1212.95,394.56 " fill="none" id="IVerboseArgDecoder-backto-StructArgDecoder" style="stroke:#A80036;stroke-width:1.0;stroke-dasharray:7.0,7.0;"/><polygon fill="none" points="945.2,335.25,927.34,323.85,948.41,321.62,945.2,335.25" style="stroke:#A80036;stroke-width:1.0;"/><!--MD5=[2c452ad133f2ee2795ccf8c2d205ea41]
reverse link VerboseDltDecoder to VerboseArgDecoder--><path codeLine="44" d="M544,205.04 C544,225.76 544,249.77 544,266.97 " fill="none" id="VerboseDltDecoder-backto-VerboseArgDecoder" style="stroke:#A80036;stroke-width:1.0;"/><polygon fill="none" points="544,192.01,540,198.01,544,204.01,548,198.01,544,192.01" style="stroke:#A80036;stroke-width:1.0;"/><!--MD5=[58ad75ed3a2e0f722afb21991696ea60]
link VerboseArgDecoder to IVerboseArgDecoder--><path codeLine="46" d="M615.78,291 C620.82,291 625.86,291 630.9,291 " fill="none" id="VerboseArgDecoder-to-IVerboseArgDecoder" style="stroke:#A80036;stroke-width:1.0;stroke-dasharray:7.0,7.0;"/><polygon fill="none" points="630.96,284,650.96,291,630.96,298,630.96,284" style="stroke:#A80036;stroke-width:1.0;"/><!--MD5=[a1a8d84dd14951f9005301163bd0cfc3]
reverse link VerboseArgDecoder to BoolArgDecoder--><path codeLine="47" d="M608.54,319.94 C616.72,323.15 625.01,326.25 633,329 C729.77,362.26 756.54,362.14 855,390 C860.77,391.63 866.78,393.35 872.78,395.08 " fill="none" id="VerboseArgDecoder-backto-BoolArgDecoder" style="stroke:#A80036;stroke-width:1.0;"/><polygon fill="#A80036" points="596.29,315.02,600.3668,320.9681,607.4253,319.4926,603.3485,313.5445,596.29,315.02" style="stroke:#A80036;stroke-width:1.0;"/><!--MD5=[c64087b97a0d671649238e43ba4fa86e]
reverse link VerboseArgDecoder to SignedIntArgDecoder--><path codeLine="48" d="M482,320.52 C436.06,341.66 374.25,370.1 331.35,389.84 " fill="none" id="VerboseArgDecoder-backto-SignedIntArgDecoder" style="stroke:#A80036;stroke-width:1.0;"/><polygon fill="#A80036" points="493.91,315.04,486.7879,313.9105,483.006,320.0503,490.1281,321.1798,493.91,315.04" style="stroke:#A80036;stroke-width:1.0;"/><!--MD5=[07b082d5b0ad8edf1200ac383e509bab]
reverse link VerboseArgDecoder to UnsignedIntArgDecoder--><path codeLine="49" d="M459.82,314.39 C377.52,336.27 253,369.39 171.34,391.1 " fill="none" id="VerboseArgDecoder-backto-UnsignedIntArgDecoder" style="stroke:#A80036;stroke-width:1.0;"/><polygon fill="#A80036" points="472.41,311.04,465.5836,308.7162,460.813,314.1237,467.6394,316.4475,472.41,311.04" style="stroke:#A80036;stroke-width:1.0;"/><!--MD5=[425babb2b0a081c096461097d5685ee6]
reverse link VerboseArgDecoder to FloatArgDecoder--><path codeLine="50" d="M599.73,321.06 C640.14,342.14 694.07,370.27 731.59,389.84 " fill="none" id="VerboseArgDecoder-backto-FloatArgDecoder" style="stroke:#A80036;stroke-width:1.0;"/><polygon fill="#A80036" points="588.18,315.04,591.6557,321.3582,598.8247,320.58,595.349,314.2618,588.18,315.04" style="stroke:#A80036;stroke-width:1.0;"/><!--MD5=[cac08a48bd8376fcf0602852ca7e4e57]
reverse link VerboseArgDecoder to StringArgDecoder--><path codeLine="51" d="M519.18,325.75 C504.21,346.09 485.53,371.49 472.19,389.63 " fill="none" id="VerboseArgDecoder-backto-StringArgDecoder" style="stroke:#A80036;stroke-width:1.0;"/><polygon fill="#A80036" points="527.05,315.04,520.273,317.5042,519.9411,324.7076,526.7181,322.2435,527.05,315.04" style="stroke:#A80036;stroke-width:1.0;"/><!--MD5=[9c6ba406a52f98d589a660f3047c4495]
reverse link VerboseArgDecoder to RawDataArgDecoder--><path codeLine="52" d="M605.73,319.83 C614.76,323.26 624.04,326.45 633,329 C797.12,375.62 844.87,355.72 1012,390 C1017.81,391.19 1023.8,392.5 1029.81,393.87 " fill="none" id="VerboseArgDecoder-backto-RawDataArgDecoder" style="stroke:#A80036;stroke-width:1.0;"/><polygon fill="#A80036" points="593.63,315.04,597.7359,320.968,604.7871,319.458,600.6812,313.53,593.63,315.04" style="stroke:#A80036;stroke-width:1.0;"/><!--MD5=[c168aaaf2508d032c3661474d050b8f8]
reverse link VerboseArgDecoder to ArrayArgDecoder--><path codeLine="53" d="M564.7,326.31 C576.92,346.56 592.06,371.66 602.9,389.63 " fill="none" id="VerboseArgDecoder-backto-ArrayArgDecoder" style="stroke:#A80036;stroke-width:1.0;"/><polygon fill="#A80036" points="557.9,315.04,557.5814,322.2441,564.1088,325.3089,564.4274,318.1049,557.9,315.04" style="stroke:#A80036;stroke-width:1.0;"/><!--MD5=[b985eef46518ee7ef6f35fa6b218a5df]
reverse link VerboseArgDecoder to StructArgDecoder--><path codeLine="54" d="M604.95,320.01 C614.2,323.48 623.75,326.63 633,329 C754.9,360.25 1072.48,365.95 1196,390 C1201.45,391.06 1207.07,392.31 1212.69,393.68 " fill="none" id="VerboseArgDecoder-backto-StructArgDecoder" style="stroke:#A80036;stroke-width:1.0;"/><polygon fill="#A80036" points="592.57,315.13,596.6843,321.0522,603.7334,319.5321,599.6191,313.6099,592.57,315.13" style="stroke:#A80036;stroke-width:1.0;"/><!--MD5=[dc3da4ef54a88ea0ae2cd9a577bc29cf]
@startuml DLT.DecoderVerboseClass
class DltTraceDecoderBase
DltTraceDecoderBase -r-> IVerboseDltDecoder : <<uses>>

interface IVerboseDltDecoder {
    +Decode(buffer: ReadOnlySpan<byte>, lineBuilder: IDltLineBuilder): Result<int>
}
note right
    Uses the line builder to know how many
    arguments and scans through all arguments
end note

class VerboseDltDecoder {
    .ctor(argDecoder: IVerboseArgDecoder)
}
note right
    This interprets the type info
    and then uses specialized classes
    to decode the individual types
end note
IVerboseDltDecoder <|.d. VerboseDltDecoder

interface IVerboseArgDecoder {
    +Decode(typeInfo: int, buffer: ReadOnlySpan<byte>, \n msbf: bool, [out] IDltArg *arg): Result<int>
}

class BoolArgDecoder
class SignedIntArgDecoder
class UnsignedIntArgDecoder
class FloatArgDecoder
class StringArgDecoder
class RawDataArgDecoder
class ArrayArgDecoder
class StructArgDecoder

IVerboseArgDecoder <|.d. BoolArgDecoder
IVerboseArgDecoder <|.d. SignedIntArgDecoder
IVerboseArgDecoder <|.d. UnsignedIntArgDecoder
IVerboseArgDecoder <|.d. FloatArgDecoder
IVerboseArgDecoder <|.d. StringArgDecoder
IVerboseArgDecoder <|.d. RawDataArgDecoder
IVerboseArgDecoder <|.d. ArrayArgDecoder
IVerboseArgDecoder <|.d. StructArgDecoder

VerboseDltDecoder o-d- VerboseArgDecoder

IVerboseArgDecoder <|.l. VerboseArgDecoder
VerboseArgDecoder *- - BoolArgDecoder
VerboseArgDecoder *- - SignedIntArgDecoder
VerboseArgDecoder *- - UnsignedIntArgDecoder
VerboseArgDecoder *- - FloatArgDecoder
VerboseArgDecoder *- - StringArgDecoder
VerboseArgDecoder *- - RawDataArgDecoder
VerboseArgDecoder *- - ArrayArgDecoder
VerboseArgDecoder *- - StructArgDecoder
@enduml

PlantUML version 1.2022.1(Tue Feb 01 19:19:58 CET 2022)
(GPL source distribution)
Java Runtime: Java(TM) SE Runtime Environment
JVM: Java HotSpot(TM) 64-Bit Server VM
Default Encoding: Cp1252
Language: en
Country: GB
--></g></svg>