<?xml version="1.0" encoding="us-ascii" standalone="no"?><svg xmlns="http://www.w3.org/2000/svg" xmlns:xlink="http://www.w3.org/1999/xlink" contentStyleType="text/css" height="196px" preserveAspectRatio="none" style="width:449px;height:196px;background:#FFFFFF;" version="1.1" viewBox="0 0 449 196" width="449px" zoomAndPan="magnify"><defs/><g><!--cluster InputStage--><g id="cluster_InputStage"><rect fill="none" height="87.29" rx="2.5" ry="2.5" style="stroke:#181818;stroke-width:1.0;" width="168" x="7" y="7"/><text fill="#000000" font-family="sans-serif" font-size="14" font-weight="bold" lengthAdjust="spacing" textLength="115" x="33.5" y="21.9951">Decoded Input</text></g><!--cluster FilterStage--><g id="cluster_FilterStage"><rect fill="none" height="183.59" rx="2.5" ry="2.5" style="stroke:#181818;stroke-width:1.0;" width="126" x="199" y="7"/><text fill="#000000" font-family="sans-serif" font-size="14" font-weight="bold" lengthAdjust="spacing" textLength="40" x="242" y="21.9951">Filter</text></g><!--cluster OutputStage--><g id="cluster_OutputStage"><rect fill="none" height="87.29" rx="2.5" ry="2.5" style="stroke:#181818;stroke-width:1.0;" width="94" x="349" y="7"/><text fill="#000000" font-family="sans-serif" font-size="14" font-weight="bold" lengthAdjust="spacing" textLength="54" x="369" y="21.9951">Output</text></g><g id="elem_DltTraceLineBase"><rect fill="#F1F1F1" height="36.2969" style="stroke:#181818;stroke-width:0.5;" width="135" x="23.5" y="42"/><text fill="#000000" font-family="sans-serif" font-size="14" lengthAdjust="spacing" textLength="121" x="30.5" y="56.9951">DltTraceLineBase</text><line style="stroke:#181818;stroke-width:0.5;" x1="24.5" x2="157.5" y1="62.2969" y2="62.2969"/></g><g id="elem_Filter"><rect fill="#F1F1F1" height="36.2969" style="stroke:#181818;stroke-width:0.5;" width="47" x="238.5" y="42"/><text fill="#000000" font-family="sans-serif" font-size="14" lengthAdjust="spacing" textLength="33" x="245.5" y="56.9951">Filter</text><line style="stroke:#181818;stroke-width:0.5;" x1="239.5" x2="284.5" y1="62.2969" y2="62.2969"/></g><g id="elem_Constraints"><rect fill="#F1F1F1" height="36.2969" style="stroke:#181818;stroke-width:0.5;" width="93" x="215.5" y="138.29"/><text fill="#000000" font-family="sans-serif" font-size="14" lengthAdjust="spacing" textLength="79" x="222.5" y="153.2851">Constraints</text><line style="stroke:#181818;stroke-width:0.5;" x1="216.5" x2="307.5" y1="158.5869" y2="158.5869"/></g><g id="elem_Output"><rect fill="#F1F1F1" height="36.2969" style="stroke:#181818;stroke-width:0.5;" width="62" x="365" y="42"/><text fill="#000000" font-family="sans-serif" font-size="14" lengthAdjust="spacing" textLength="48" x="372" y="56.9951">Output</text><line style="stroke:#181818;stroke-width:0.5;" x1="366" x2="426" y1="62.2969" y2="62.2969"/></g><!--reverse link Filter to Constraints--><g id="link_Filter_Constraints"><path codeLine="10" d="M262,92.01 C262,107.25 262,125.07 262,137.94 " fill="none" id="Filter-backto-Constraints" style="stroke:#181818;stroke-width:1.0;"/><polygon fill="#181818" points="262,79.44,258,85.44,262,91.44,266,85.44,262,79.44" style="stroke:#181818;stroke-width:1.0;"/></g><!--link DltTraceLineBase to Filter--><g id="link_DltTraceLineBase_Filter"><path codeLine="17" d="M158.8,60.14 C183.31,60.14 207.81,60.14 232.32,60.14 " fill="none" id="DltTraceLineBase-to-Filter" style="stroke:#181818;stroke-width:1.0;"/><polygon fill="#181818" points="237.22,60.14,228.22,56.14,232.22,60.14,228.22,64.14,237.22,60.14" style="stroke:#181818;stroke-width:1.0;"/></g><!--link Filter to Output--><g id="link_Filter_Output"><path codeLine="18" d="M285.82,60.14 C310.12,60.14 334.43,60.14 358.73,60.14 " fill="none" id="Filter-to-Output" style="stroke:#181818;stroke-width:1.0;"/><polygon fill="#181818" points="363.58,60.14,354.58,56.14,358.58,60.14,354.58,64.14,363.58,60.14" style="stroke:#181818;stroke-width:1.0;"/></g><!--SRC=[PKvB2i903Dtd5A5BOQxWGeiW22xq0d4cb95XHZBfIhoxjMafjRkNz_8-mbufTucnQTcNm07F-TLhWrGDtPGwnZSWbiTp-COswLt8yoLcFb1b-0384dEAILb6ly5DWD7BVIovgb3CMc5WJSQT2subhMkklSup3MvgZFxP_XUZ4xUVPqnr8pLPlW00]--></g></svg>