<?xml version="1.0" encoding="UTF-8" standalone="no"?><svg xmlns="http://www.w3.org/2000/svg" xmlns:xlink="http://www.w3.org/1999/xlink" contentScriptType="application/ecmascript" contentStyleType="text/css" height="558px" preserveAspectRatio="none" style="width:464px;height:558px;background:#FFFFFF;" version="1.1" viewBox="0 0 464 558" width="464px" zoomAndPan="magnify"><defs><filter height="300%" id="f7mji36xijxsu" width="300%" x="-1" y="-1"><feGaussianBlur result="blurOut" stdDeviation="2.0"/><feColorMatrix in="blurOut" result="blurOut2" type="matrix" values="0 0 0 0 0 0 0 0 0 0 0 0 0 0 0 0 0 0 .4 0"/><feOffset dx="4.0" dy="4.0" in="blurOut2" result="blurOut3"/><feBlend in="SourceGraphic" in2="blurOut3" mode="normal"/></filter></defs><g><rect fill="#FFFFFF" filter="url(#f7mji36xijxsu)" height="30.3516" style="stroke:#A80036;stroke-width:1.0;" width="10" x="187.5" y="73.9609"/><rect fill="#FFFFFF" filter="url(#f7mji36xijxsu)" height="14" style="stroke:#A80036;stroke-width:1.0;" width="10" x="318.5" y="160.0156"/><rect fill="#FFFFFF" filter="url(#f7mji36xijxsu)" height="30.3516" style="stroke:#A80036;stroke-width:1.0;" width="10" x="318.5" y="255.0703"/><rect fill="#FFFFFF" filter="url(#f7mji36xijxsu)" height="30.3516" style="stroke:#A80036;stroke-width:1.0;" width="10" x="318.5" y="329.7734"/><rect fill="#FFFFFF" filter="url(#f7mji36xijxsu)" height="14" style="stroke:#A80036;stroke-width:1.0;" width="10" x="318.5" y="430.8281"/><rect fill="#FFFFFF" filter="url(#f7mji36xijxsu)" height="14" style="stroke:#A80036;stroke-width:1.0;" width="10" x="318.5" y="482.1797"/><rect fill="#FFFFFF" filter="url(#f7mji36xijxsu)" height="333.5156" style="stroke:#000000;stroke-width:2.0;" width="440" x="10" y="119.3125"/><rect fill="#FFFFFF" filter="url(#f7mji36xijxsu)" height="111.4063" style="stroke:#000000;stroke-width:2.0;" width="425" x="15" y="189.0156"/><rect fill="#FFFFFF" filter="url(#f7mji36xijxsu)" height="79.0547" style="stroke:#000000;stroke-width:2.0;" width="405" x="25" y="214.3672"/><line style="stroke:#A80036;stroke-width:1.0;stroke-dasharray:5.0,5.0;" x1="72" x2="72" y1="41.6094" y2="514.1797"/><line style="stroke:#A80036;stroke-width:1.0;stroke-dasharray:5.0,5.0;" x1="192" x2="192" y1="41.6094" y2="514.1797"/><line style="stroke:#A80036;stroke-width:1.0;stroke-dasharray:5.0,5.0;" x1="323" x2="323" y1="41.6094" y2="514.1797"/><rect fill="#FEFECE" filter="url(#f7mji36xijxsu)" height="31.6094" style="stroke:#A80036;stroke-width:1.5;" width="71" x="35" y="5"/><text fill="#000000" font-family="sans-serif" font-size="14" lengthAdjust="spacing" textLength="57" x="42" y="26.5332">FilterApp</text><rect fill="#FEFECE" filter="url(#f7mji36xijxsu)" height="31.6094" style="stroke:#A80036;stroke-width:1.5;" width="71" x="35" y="513.1797"/><text fill="#000000" font-family="sans-serif" font-size="14" lengthAdjust="spacing" textLength="57" x="42" y="534.7129">FilterApp</text><rect fill="#FEFECE" filter="url(#f7mji36xijxsu)" height="31.6094" style="stroke:#A80036;stroke-width:1.5;" width="141" x="120" y="5"/><text fill="#000000" font-family="sans-serif" font-size="14" lengthAdjust="spacing" textLength="127" x="127" y="26.5332">IInputStreamFactory</text><rect fill="#FEFECE" filter="url(#f7mji36xijxsu)" height="31.6094" style="stroke:#A80036;stroke-width:1.5;" width="141" x="120" y="513.1797"/><text fill="#000000" font-family="sans-serif" font-size="14" lengthAdjust="spacing" textLength="127" x="127" y="534.7129">IInputStreamFactory</text><rect fill="#FEFECE" filter="url(#f7mji36xijxsu)" height="31.6094" style="stroke:#A80036;stroke-width:1.5;" width="93" x="275" y="5"/><text fill="#000000" font-family="sans-serif" font-size="14" lengthAdjust="spacing" textLength="79" x="282" y="26.5332">IInputStream</text><rect fill="#FEFECE" filter="url(#f7mji36xijxsu)" height="31.6094" style="stroke:#A80036;stroke-width:1.5;" width="93" x="275" y="513.1797"/><text fill="#000000" font-family="sans-serif" font-size="14" lengthAdjust="spacing" textLength="79" x="282" y="534.7129">IInputStream</text><rect fill="#FFFFFF" filter="url(#f7mji36xijxsu)" height="30.3516" style="stroke:#A80036;stroke-width:1.0;" width="10" x="187.5" y="73.9609"/><rect fill="#FFFFFF" filter="url(#f7mji36xijxsu)" height="14" style="stroke:#A80036;stroke-width:1.0;" width="10" x="318.5" y="160.0156"/><rect fill="#FFFFFF" filter="url(#f7mji36xijxsu)" height="30.3516" style="stroke:#A80036;stroke-width:1.0;" width="10" x="318.5" y="255.0703"/><rect fill="#FFFFFF" filter="url(#f7mji36xijxsu)" height="30.3516" style="stroke:#A80036;stroke-width:1.0;" width="10" x="318.5" y="329.7734"/><rect fill="#FFFFFF" filter="url(#f7mji36xijxsu)" height="14" style="stroke:#A80036;stroke-width:1.0;" width="10" x="318.5" y="430.8281"/><rect fill="#FFFFFF" filter="url(#f7mji36xijxsu)" height="14" style="stroke:#A80036;stroke-width:1.0;" width="10" x="318.5" y="482.1797"/><polygon fill="#A80036" points="175.5,69.9609,185.5,73.9609,175.5,77.9609,179.5,73.9609" style="stroke:#A80036;stroke-width:1.0;"/><line style="stroke:#A80036;stroke-width:1.0;" x1="72.5" x2="181.5" y1="73.9609" y2="73.9609"/><text fill="#000000" font-family="sans-serif" font-size="13" lengthAdjust="spacing" textLength="60" x="79.5" y="69.1045">Create(uri)</text><polygon fill="#A80036" points="83.5,100.3125,73.5,104.3125,83.5,108.3125,79.5,104.3125" style="stroke:#A80036;stroke-width:1.0;"/><line style="stroke:#A80036;stroke-width:1.0;stroke-dasharray:2.0,2.0;" x1="77.5" x2="191.5" y1="104.3125" y2="104.3125"/><text fill="#000000" font-family="sans-serif" font-size="13" lengthAdjust="spacing" textLength="73" x="89.5" y="99.4561">IInputStream</text><path d="M10,119.3125 L83,119.3125 L83,127.3125 L73,137.3125 L10,137.3125 L10,119.3125 " fill="#EEEEEE" style="stroke:#000000;stroke-width:1.0;"/><rect fill="none" height="333.5156" style="stroke:#000000;stroke-width:2.0;" width="440" x="10" y="119.3125"/><text fill="#000000" font-family="sans-serif" font-size="13" font-weight="bold" lengthAdjust="spacing" textLength="28" x="25" y="133.8076">loop</text><text fill="#000000" font-family="sans-serif" font-size="11" font-weight="bold" lengthAdjust="spacing" textLength="76" x="98" y="132.7314">[Process File]</text><polygon fill="#A80036" points="306.5,156.0156,316.5,160.0156,306.5,164.0156,310.5,160.0156" style="stroke:#A80036;stroke-width:1.0;"/><line style="stroke:#A80036;stroke-width:1.0;" x1="72.5" x2="312.5" y1="160.0156" y2="160.0156"/><text fill="#000000" font-family="sans-serif" font-size="13" lengthAdjust="spacing" textLength="39" x="79.5" y="155.1592">Open()</text><polygon fill="#A80036" points="83.5,170.0156,73.5,174.0156,83.5,178.0156,79.5,174.0156" style="stroke:#A80036;stroke-width:1.0;"/><line style="stroke:#A80036;stroke-width:1.0;stroke-dasharray:2.0,2.0;" x1="77.5" x2="322.5" y1="174.0156" y2="174.0156"/><path d="M15,189.0156 L76,189.0156 L76,197.0156 L66,207.0156 L15,207.0156 L15,189.0156 " fill="#EEEEEE" style="stroke:#000000;stroke-width:1.0;"/><rect fill="none" height="111.4063" style="stroke:#000000;stroke-width:2.0;" width="425" x="15" y="189.0156"/><text fill="#000000" font-family="sans-serif" font-size="13" font-weight="bold" lengthAdjust="spacing" textLength="16" x="30" y="203.5107">alt</text><text fill="#000000" font-family="sans-serif" font-size="11" font-weight="bold" lengthAdjust="spacing" textLength="233" x="91" y="202.4346">[inputStream.RequiresConnection == true]</text><path d="M25,214.3672 L98,214.3672 L98,222.3672 L88,232.3672 L25,232.3672 L25,214.3672 " fill="#EEEEEE" style="stroke:#000000;stroke-width:1.0;"/><rect fill="none" height="79.0547" style="stroke:#000000;stroke-width:2.0;" width="405" x="25" y="214.3672"/><text fill="#000000" font-family="sans-serif" font-size="13" font-weight="bold" lengthAdjust="spacing" textLength="28" x="40" y="228.8623">loop</text><text fill="#000000" font-family="sans-serif" font-size="11" font-weight="bold" lengthAdjust="spacing" textLength="312" x="113" y="227.7861">[!connected &amp;&amp; (retries &lt; 0 || connectAttempt &lt;= retries)]</text><polygon fill="#A80036" points="306.5,251.0703,316.5,255.0703,306.5,259.0703,310.5,255.0703" style="stroke:#A80036;stroke-width:1.0;"/><line style="stroke:#A80036;stroke-width:1.0;" x1="72.5" x2="312.5" y1="255.0703" y2="255.0703"/><text fill="#000000" font-family="sans-serif" font-size="13" lengthAdjust="spacing" textLength="93" x="79.5" y="250.2139">ConnectAsync()</text><polygon fill="#A80036" points="83.5,281.4219,73.5,285.4219,83.5,289.4219,79.5,285.4219" style="stroke:#A80036;stroke-width:1.0;"/><line style="stroke:#A80036;stroke-width:1.0;stroke-dasharray:2.0,2.0;" x1="77.5" x2="322.5" y1="285.4219" y2="285.4219"/><text fill="#000000" font-family="sans-serif" font-size="13" lengthAdjust="spacing" textLength="92" x="89.5" y="280.5654">connected: bool</text><polygon fill="#A80036" points="306.5,325.7734,316.5,329.7734,306.5,333.7734,310.5,329.7734" style="stroke:#A80036;stroke-width:1.0;"/><line style="stroke:#A80036;stroke-width:1.0;" x1="72.5" x2="312.5" y1="329.7734" y2="329.7734"/><text fill="#000000" font-family="sans-serif" font-size="13" lengthAdjust="spacing" textLength="103" x="79.5" y="324.917">get_InputStream()</text><polygon fill="#A80036" points="83.5,356.125,73.5,360.125,83.5,364.125,79.5,360.125" style="stroke:#A80036;stroke-width:1.0;"/><line style="stroke:#A80036;stroke-width:1.0;stroke-dasharray:2.0,2.0;" x1="77.5" x2="322.5" y1="360.125" y2="360.125"/><text fill="#000000" font-family="sans-serif" font-size="13" lengthAdjust="spacing" textLength="42" x="89.5" y="355.2686">Stream</text><path d="M20,373.125 L20,399.125 L121,399.125 L121,383.125 L111,373.125 L20,373.125 " fill="#FBFB77" filter="url(#f7mji36xijxsu)" style="stroke:#A80036;stroke-width:1.0;"/><path d="M111,373.125 L111,383.125 L121,383.125 L111,373.125 " fill="#FBFB77" style="stroke:#A80036;stroke-width:1.0;"/><text fill="#000000" font-family="sans-serif" font-size="13" lengthAdjust="spacing" textLength="80" x="26" y="391.6201">Process Input</text><polygon fill="#A80036" points="306.5,426.8281,316.5,430.8281,306.5,434.8281,310.5,430.8281" style="stroke:#A80036;stroke-width:1.0;"/><line style="stroke:#A80036;stroke-width:1.0;" x1="72.5" x2="312.5" y1="430.8281" y2="430.8281"/><text fill="#000000" font-family="sans-serif" font-size="13" lengthAdjust="spacing" textLength="41" x="79.5" y="425.9717">Close()</text><polygon fill="#A80036" points="83.5,440.8281,73.5,444.8281,83.5,448.8281,79.5,444.8281" style="stroke:#A80036;stroke-width:1.0;"/><line style="stroke:#A80036;stroke-width:1.0;stroke-dasharray:2.0,2.0;" x1="77.5" x2="322.5" y1="444.8281" y2="444.8281"/><polygon fill="#A80036" points="306.5,478.1797,316.5,482.1797,306.5,486.1797,310.5,482.1797" style="stroke:#A80036;stroke-width:1.0;"/><line style="stroke:#A80036;stroke-width:1.0;" x1="72.5" x2="312.5" y1="482.1797" y2="482.1797"/><text fill="#000000" font-family="sans-serif" font-size="13" lengthAdjust="spacing" textLength="55" x="79.5" y="477.3232">Dispose()</text><polygon fill="#A80036" points="83.5,492.1797,73.5,496.1797,83.5,500.1797,79.5,496.1797" style="stroke:#A80036;stroke-width:1.0;"/><line style="stroke:#A80036;stroke-width:1.0;stroke-dasharray:2.0,2.0;" x1="77.5" x2="322.5" y1="496.1797" y2="496.1797"/><!--MD5=[28e95aa3be6a733f2eadab1bdefdbcac]
@startuml Domain.InputStream_Sequence
autoactivate on

FilterApp -> IInputStreamFactory : Create(uri)
return IInputStream

loop Process File

    FilterApp -> IInputStream : Open()
    return

    alt inputStream.RequiresConnection == true

        loop !connected && (retries < 0 || connectAttempt <= retries)

            FilterApp -> IInputStream : ConnectAsync()
            return connected: bool

        end

    end

    FilterApp -> IInputStream : get_InputStream()
    return Stream

    note over FilterApp
        Process Input
    end note

    FilterApp -> IInputStream : Close()
    return

end

FilterApp -> IInputStream : Dispose()
return

@enduml

PlantUML version 1.2022.1(Tue Feb 01 19:19:58 CET 2022)
(GPL source distribution)
Java Runtime: Java(TM) SE Runtime Environment
JVM: Java HotSpot(TM) Client VM
Default Encoding: Cp1252
Language: en
Country: US
--></g></svg>