<?xml version="1.0" encoding="UTF-8" standalone="no"?><svg xmlns="http://www.w3.org/2000/svg" xmlns:xlink="http://www.w3.org/1999/xlink" contentScriptType="application/ecmascript" contentStyleType="text/css" height="397px" preserveAspectRatio="none" style="width:449px;height:397px;background:#FFFFFF;" version="1.1" viewBox="0 0 449 397" width="449px" zoomAndPan="magnify"><defs><filter height="300%" id="f1204xdewek7n3" width="300%" x="-1" y="-1"><feGaussianBlur result="blurOut" stdDeviation="2.0"/><feColorMatrix in="blurOut" result="blurOut2" type="matrix" values="0 0 0 0 0 0 0 0 0 0 0 0 0 0 0 0 0 0 .4 0"/><feOffset dx="4.0" dy="4.0" in="blurOut2" result="blurOut3"/><feBlend in="SourceGraphic" in2="blurOut3" mode="normal"/></filter></defs><g><rect fill="#FFFFFF" filter="url(#f1204xdewek7n3)" height="30.3516" style="stroke:#A80036;stroke-width:1.0;" width="10" x="208.5" y="73.9609"/><rect fill="#FFFFFF" filter="url(#f1204xdewek7n3)" height="14" style="stroke:#A80036;stroke-width:1.0;" width="10" x="339.5" y="134.6641"/><rect fill="#FFFFFF" filter="url(#f1204xdewek7n3)" height="30.3516" style="stroke:#A80036;stroke-width:1.0;" width="10" x="339.5" y="229.7188"/><rect fill="#FFFFFF" filter="url(#f1204xdewek7n3)" height="30.3516" style="stroke:#A80036;stroke-width:1.0;" width="10" x="339.5" y="304.4219"/><rect fill="#FFFFFF" filter="url(#f1204xdewek7n3)" height="111.4063" style="stroke:#000000;stroke-width:2.0;" width="425" x="10" y="163.6641"/><rect fill="#FFFFFF" filter="url(#f1204xdewek7n3)" height="79.0547" style="stroke:#000000;stroke-width:2.0;" width="405" x="20" y="189.0156"/><line style="stroke:#A80036;stroke-width:1.0;stroke-dasharray:5.0,5.0;" x1="67" x2="67" y1="41.6094" y2="352.7734"/><line style="stroke:#A80036;stroke-width:1.0;stroke-dasharray:5.0,5.0;" x1="213" x2="213" y1="41.6094" y2="352.7734"/><line style="stroke:#A80036;stroke-width:1.0;stroke-dasharray:5.0,5.0;" x1="344" x2="344" y1="41.6094" y2="352.7734"/><rect fill="#FEFECE" filter="url(#f1204xdewek7n3)" height="31.6094" style="stroke:#A80036;stroke-width:1.5;" width="71" x="30" y="5"/><text fill="#000000" font-family="sans-serif" font-size="14" lengthAdjust="spacing" textLength="57" x="37" y="26.5332">FilterApp</text><rect fill="#FEFECE" filter="url(#f1204xdewek7n3)" height="31.6094" style="stroke:#A80036;stroke-width:1.5;" width="71" x="30" y="351.7734"/><text fill="#000000" font-family="sans-serif" font-size="14" lengthAdjust="spacing" textLength="57" x="37" y="373.3066">FilterApp</text><rect fill="#FEFECE" filter="url(#f1204xdewek7n3)" height="31.6094" style="stroke:#A80036;stroke-width:1.5;" width="141" x="141" y="5"/><text fill="#000000" font-family="sans-serif" font-size="14" lengthAdjust="spacing" textLength="127" x="148" y="26.5332">IInputStreamFactory</text><rect fill="#FEFECE" filter="url(#f1204xdewek7n3)" height="31.6094" style="stroke:#A80036;stroke-width:1.5;" width="141" x="141" y="351.7734"/><text fill="#000000" font-family="sans-serif" font-size="14" lengthAdjust="spacing" textLength="127" x="148" y="373.3066">IInputStreamFactory</text><rect fill="#FEFECE" filter="url(#f1204xdewek7n3)" height="31.6094" style="stroke:#A80036;stroke-width:1.5;" width="93" x="296" y="5"/><text fill="#000000" font-family="sans-serif" font-size="14" lengthAdjust="spacing" textLength="79" x="303" y="26.5332">IInputStream</text><rect fill="#FEFECE" filter="url(#f1204xdewek7n3)" height="31.6094" style="stroke:#A80036;stroke-width:1.5;" width="93" x="296" y="351.7734"/><text fill="#000000" font-family="sans-serif" font-size="14" lengthAdjust="spacing" textLength="79" x="303" y="373.3066">IInputStream</text><rect fill="#FFFFFF" filter="url(#f1204xdewek7n3)" height="30.3516" style="stroke:#A80036;stroke-width:1.0;" width="10" x="208.5" y="73.9609"/><rect fill="#FFFFFF" filter="url(#f1204xdewek7n3)" height="14" style="stroke:#A80036;stroke-width:1.0;" width="10" x="339.5" y="134.6641"/><rect fill="#FFFFFF" filter="url(#f1204xdewek7n3)" height="30.3516" style="stroke:#A80036;stroke-width:1.0;" width="10" x="339.5" y="229.7188"/><rect fill="#FFFFFF" filter="url(#f1204xdewek7n3)" height="30.3516" style="stroke:#A80036;stroke-width:1.0;" width="10" x="339.5" y="304.4219"/><polygon fill="#A80036" points="196.5,69.9609,206.5,73.9609,196.5,77.9609,200.5,73.9609" style="stroke:#A80036;stroke-width:1.0;"/><line style="stroke:#A80036;stroke-width:1.0;" x1="67.5" x2="202.5" y1="73.9609" y2="73.9609"/><text fill="#000000" font-family="sans-serif" font-size="13" lengthAdjust="spacing" textLength="60" x="74.5" y="69.1045">Create(uri)</text><polygon fill="#A80036" points="78.5,100.3125,68.5,104.3125,78.5,108.3125,74.5,104.3125" style="stroke:#A80036;stroke-width:1.0;"/><line style="stroke:#A80036;stroke-width:1.0;stroke-dasharray:2.0,2.0;" x1="72.5" x2="212.5" y1="104.3125" y2="104.3125"/><text fill="#000000" font-family="sans-serif" font-size="13" lengthAdjust="spacing" textLength="117" x="84.5" y="99.4561">returns IInputStream</text><polygon fill="#A80036" points="327.5,130.6641,337.5,134.6641,327.5,138.6641,331.5,134.6641" style="stroke:#A80036;stroke-width:1.0;"/><line style="stroke:#A80036;stroke-width:1.0;" x1="67.5" x2="333.5" y1="134.6641" y2="134.6641"/><text fill="#000000" font-family="sans-serif" font-size="13" lengthAdjust="spacing" textLength="39" x="74.5" y="129.8076">Open()</text><polygon fill="#A80036" points="78.5,144.6641,68.5,148.6641,78.5,152.6641,74.5,148.6641" style="stroke:#A80036;stroke-width:1.0;"/><line style="stroke:#A80036;stroke-width:1.0;stroke-dasharray:2.0,2.0;" x1="72.5" x2="343.5" y1="148.6641" y2="148.6641"/><path d="M10,163.6641 L71,163.6641 L71,171.6641 L61,181.6641 L10,181.6641 L10,163.6641 " fill="#EEEEEE" style="stroke:#000000;stroke-width:1.0;"/><rect fill="none" height="111.4063" style="stroke:#000000;stroke-width:2.0;" width="425" x="10" y="163.6641"/><text fill="#000000" font-family="sans-serif" font-size="13" font-weight="bold" lengthAdjust="spacing" textLength="16" x="25" y="178.1592">alt</text><text fill="#000000" font-family="sans-serif" font-size="11" font-weight="bold" lengthAdjust="spacing" textLength="233" x="86" y="177.083">[inputStream.RequiresConnection == true]</text><path d="M20,189.0156 L93,189.0156 L93,197.0156 L83,207.0156 L20,207.0156 L20,189.0156 " fill="#EEEEEE" style="stroke:#000000;stroke-width:1.0;"/><rect fill="none" height="79.0547" style="stroke:#000000;stroke-width:2.0;" width="405" x="20" y="189.0156"/><text fill="#000000" font-family="sans-serif" font-size="13" font-weight="bold" lengthAdjust="spacing" textLength="28" x="35" y="203.5107">loop</text><text fill="#000000" font-family="sans-serif" font-size="11" font-weight="bold" lengthAdjust="spacing" textLength="312" x="108" y="202.4346">[!connected &amp;&amp; (retries &lt; 0 || connectAttempt &lt;= retries)]</text><polygon fill="#A80036" points="327.5,225.7188,337.5,229.7188,327.5,233.7188,331.5,229.7188" style="stroke:#A80036;stroke-width:1.0;"/><line style="stroke:#A80036;stroke-width:1.0;" x1="67.5" x2="333.5" y1="229.7188" y2="229.7188"/><text fill="#000000" font-family="sans-serif" font-size="13" lengthAdjust="spacing" textLength="93" x="74.5" y="224.8623">ConnectAsync()</text><polygon fill="#A80036" points="78.5,256.0703,68.5,260.0703,78.5,264.0703,74.5,260.0703" style="stroke:#A80036;stroke-width:1.0;"/><line style="stroke:#A80036;stroke-width:1.0;stroke-dasharray:2.0,2.0;" x1="72.5" x2="343.5" y1="260.0703" y2="260.0703"/><text fill="#000000" font-family="sans-serif" font-size="13" lengthAdjust="spacing" textLength="132" x="84.5" y="255.2139">returns connected:bool</text><polygon fill="#A80036" points="327.5,300.4219,337.5,304.4219,327.5,308.4219,331.5,304.4219" style="stroke:#A80036;stroke-width:1.0;"/><line style="stroke:#A80036;stroke-width:1.0;" x1="67.5" x2="333.5" y1="304.4219" y2="304.4219"/><text fill="#000000" font-family="sans-serif" font-size="13" lengthAdjust="spacing" textLength="103" x="74.5" y="299.5654">get_InputStream()</text><polygon fill="#A80036" points="78.5,330.7734,68.5,334.7734,78.5,338.7734,74.5,334.7734" style="stroke:#A80036;stroke-width:1.0;"/><line style="stroke:#A80036;stroke-width:1.0;stroke-dasharray:2.0,2.0;" x1="72.5" x2="343.5" y1="334.7734" y2="334.7734"/><text fill="#000000" font-family="sans-serif" font-size="13" lengthAdjust="spacing" textLength="86" x="84.5" y="329.917">returns Stream</text><!--MD5=[27e0d83573ee30e3d91aa5790546933f]
@startuml Domain.InputStream_Sequence

FilterApp -> IInputStreamFactory : Create(uri)
activate IInputStreamFactory
FilterApp <- - IInputStreamFactory : returns IInputStream
deactivate IInputStreamFactory

FilterApp -> IInputStream : Open()
activate IInputStream
FilterApp <- - IInputStream
deactivate IInputStream

alt inputStream.RequiresConnection == true

    loop !connected && (retries < 0 || connectAttempt <= retries)

        FilterApp -> IInputStream : ConnectAsync()
        activate IInputStream
        FilterApp <- - IInputStream : returns connected:bool
        deactivate IInputStream

    end

end

FilterApp -> IInputStream : get_InputStream()
activate IInputStream
FilterApp <- - IInputStream : returns Stream
deactivate IInputStream

@enduml

PlantUML version 1.2022.0(Tue Jan 11 17:16:42 CET 2022)
(GPL source distribution)
Java Runtime: Java(TM) SE Runtime Environment
JVM: Java HotSpot(TM) Client VM
Default Encoding: Cp1252
Language: en
Country: US
--></g></svg>