<?xml version="1.0" encoding="us-ascii" standalone="no"?><svg xmlns="http://www.w3.org/2000/svg" xmlns:xlink="http://www.w3.org/1999/xlink" contentStyleType="text/css" height="628px" preserveAspectRatio="none" style="width:521px;height:628px;background:#FFFFFF;" version="1.1" viewBox="0 0 521 628" width="521px" zoomAndPan="magnify"><defs/><g><rect fill="#FFFFFF" height="29.1328" style="stroke:#181818;stroke-width:1.0;" width="10" x="190.5" y="67.4297"/><rect fill="#FFFFFF" height="14" style="stroke:#181818;stroke-width:1.0;" width="10" x="326.5" y="149.8281"/><rect fill="#FFFFFF" height="29.1328" style="stroke:#181818;stroke-width:1.0;" width="10" x="326.5" y="241.2266"/><rect fill="#FFFFFF" height="29.1328" style="stroke:#181818;stroke-width:1.0;" width="10" x="326.5" y="337.625"/><rect fill="#FFFFFF" height="29.1328" style="stroke:#181818;stroke-width:1.0;" width="10" x="326.5" y="410.6953"/><rect fill="#FFFFFF" height="14" style="stroke:#181818;stroke-width:1.0;" width="10" x="326.5" y="511.0938"/><rect fill="#FFFFFF" height="14" style="stroke:#181818;stroke-width:1.0;" width="10" x="326.5" y="561.2266"/><rect fill="none" height="421.5313" style="stroke:#000000;stroke-width:1.5;" width="506" x="9" y="111.5625"/><rect fill="none" height="106.5313" style="stroke:#000000;stroke-width:1.5;" width="489" x="16" y="178.8281"/><rect fill="none" height="75.3984" style="stroke:#000000;stroke-width:1.5;" width="469" x="26" y="202.9609"/><rect fill="none" height="148.4688" style="stroke:#000000;stroke-width:1.5;" width="366" x="26" y="299.3594"/><line style="stroke:#181818;stroke-width:0.5;stroke-dasharray:5.0,5.0;" x1="73" x2="73" y1="36.2969" y2="593.2266"/><line style="stroke:#181818;stroke-width:0.5;stroke-dasharray:5.0,5.0;" x1="195" x2="195" y1="36.2969" y2="593.2266"/><line style="stroke:#181818;stroke-width:0.5;stroke-dasharray:5.0,5.0;" x1="331" x2="331" y1="36.2969" y2="593.2266"/><rect fill="#E2E2F0" height="30.2969" rx="2.5" ry="2.5" style="stroke:#181818;stroke-width:0.5;" width="74" x="36" y="5"/><text fill="#000000" font-family="sans-serif" font-size="14" lengthAdjust="spacing" textLength="60" x="43" y="24.9951">FilterApp</text><rect fill="#E2E2F0" height="30.2969" rx="2.5" ry="2.5" style="stroke:#181818;stroke-width:0.5;" width="74" x="36" y="592.2266"/><text fill="#000000" font-family="sans-serif" font-size="14" lengthAdjust="spacing" textLength="60" x="43" y="612.2217">FilterApp</text><rect fill="#E2E2F0" height="30.2969" rx="2.5" ry="2.5" style="stroke:#181818;stroke-width:0.5;" width="151" x="120" y="5"/><text fill="#000000" font-family="sans-serif" font-size="14" lengthAdjust="spacing" textLength="137" x="127" y="24.9951">IInputStreamFactory</text><rect fill="#E2E2F0" height="30.2969" rx="2.5" ry="2.5" style="stroke:#181818;stroke-width:0.5;" width="151" x="120" y="592.2266"/><text fill="#000000" font-family="sans-serif" font-size="14" lengthAdjust="spacing" textLength="137" x="127" y="612.2217">IInputStreamFactory</text><rect fill="#E2E2F0" height="30.2969" rx="2.5" ry="2.5" style="stroke:#181818;stroke-width:0.5;" width="101" x="281" y="5"/><text fill="#000000" font-family="sans-serif" font-size="14" lengthAdjust="spacing" textLength="87" x="288" y="24.9951">IInputStream</text><rect fill="#E2E2F0" height="30.2969" rx="2.5" ry="2.5" style="stroke:#181818;stroke-width:0.5;" width="101" x="281" y="592.2266"/><text fill="#000000" font-family="sans-serif" font-size="14" lengthAdjust="spacing" textLength="87" x="288" y="612.2217">IInputStream</text><rect fill="#FFFFFF" height="29.1328" style="stroke:#181818;stroke-width:1.0;" width="10" x="190.5" y="67.4297"/><rect fill="#FFFFFF" height="14" style="stroke:#181818;stroke-width:1.0;" width="10" x="326.5" y="149.8281"/><rect fill="#FFFFFF" height="29.1328" style="stroke:#181818;stroke-width:1.0;" width="10" x="326.5" y="241.2266"/><rect fill="#FFFFFF" height="29.1328" style="stroke:#181818;stroke-width:1.0;" width="10" x="326.5" y="337.625"/><rect fill="#FFFFFF" height="29.1328" style="stroke:#181818;stroke-width:1.0;" width="10" x="326.5" y="410.6953"/><rect fill="#FFFFFF" height="14" style="stroke:#181818;stroke-width:1.0;" width="10" x="326.5" y="511.0938"/><rect fill="#FFFFFF" height="14" style="stroke:#181818;stroke-width:1.0;" width="10" x="326.5" y="561.2266"/><polygon fill="#181818" points="178.5,63.4297,188.5,67.4297,178.5,71.4297,182.5,67.4297" style="stroke:#181818;stroke-width:1.0;"/><line style="stroke:#181818;stroke-width:1.0;" x1="73" x2="184.5" y1="67.4297" y2="67.4297"/><text fill="#000000" font-family="sans-serif" font-size="13" lengthAdjust="spacing" textLength="69" x="80" y="62.3638">Create(uri)</text><polygon fill="#181818" points="84,92.5625,74,96.5625,84,100.5625,80,96.5625" style="stroke:#181818;stroke-width:1.0;"/><line style="stroke:#181818;stroke-width:1.0;stroke-dasharray:2.0,2.0;" x1="78" x2="194.5" y1="96.5625" y2="96.5625"/><text fill="#000000" font-family="sans-serif" font-size="13" lengthAdjust="spacing" textLength="83" x="90" y="91.4966">IInputStream</text><path d="M9,111.5625 L86,111.5625 L86,118.6953 L76,128.6953 L9,128.6953 L9,111.5625 " fill="#EEEEEE" style="stroke:#000000;stroke-width:1.5;"/><rect fill="none" height="421.5313" style="stroke:#000000;stroke-width:1.5;" width="506" x="9" y="111.5625"/><text fill="#000000" font-family="sans-serif" font-size="13" font-weight="bold" lengthAdjust="spacing" textLength="32" x="24" y="124.6294">loop</text><text fill="#000000" font-family="sans-serif" font-size="11" font-weight="bold" lengthAdjust="spacing" textLength="88" x="101" y="123.7729">[Process File]</text><polygon fill="#181818" points="314.5,145.8281,324.5,149.8281,314.5,153.8281,318.5,149.8281" style="stroke:#181818;stroke-width:1.0;"/><line style="stroke:#181818;stroke-width:1.0;" x1="73" x2="320.5" y1="149.8281" y2="149.8281"/><text fill="#000000" font-family="sans-serif" font-size="13" lengthAdjust="spacing" textLength="44" x="80" y="144.7622">Open()</text><polygon fill="#181818" points="84,159.8281,74,163.8281,84,167.8281,80,163.8281" style="stroke:#181818;stroke-width:1.0;"/><line style="stroke:#181818;stroke-width:1.0;stroke-dasharray:2.0,2.0;" x1="78" x2="330.5" y1="163.8281" y2="163.8281"/><path d="M16,178.8281 L80,178.8281 L80,185.9609 L70,195.9609 L16,195.9609 L16,178.8281 " fill="#EEEEEE" style="stroke:#000000;stroke-width:1.5;"/><rect fill="none" height="106.5313" style="stroke:#000000;stroke-width:1.5;" width="489" x="16" y="178.8281"/><text fill="#000000" font-family="sans-serif" font-size="13" font-weight="bold" lengthAdjust="spacing" textLength="19" x="31" y="191.895">alt</text><text fill="#000000" font-family="sans-serif" font-size="11" font-weight="bold" lengthAdjust="spacing" textLength="273" x="95" y="191.0386">[inputStream.RequiresConnection == true]</text><path d="M26,202.9609 L103,202.9609 L103,210.0938 L93,220.0938 L26,220.0938 L26,202.9609 " fill="#EEEEEE" style="stroke:#000000;stroke-width:1.5;"/><rect fill="none" height="75.3984" style="stroke:#000000;stroke-width:1.5;" width="469" x="26" y="202.9609"/><text fill="#000000" font-family="sans-serif" font-size="13" font-weight="bold" lengthAdjust="spacing" textLength="32" x="41" y="216.0278">loop</text><text fill="#000000" font-family="sans-serif" font-size="11" font-weight="bold" lengthAdjust="spacing" textLength="372" x="118" y="215.1714">[!connected &amp;&amp; (retries &lt; 0 || connectAttempt &lt;= retries)]</text><polygon fill="#181818" points="314.5,237.2266,324.5,241.2266,314.5,245.2266,318.5,241.2266" style="stroke:#181818;stroke-width:1.0;"/><line style="stroke:#181818;stroke-width:1.0;" x1="73" x2="320.5" y1="241.2266" y2="241.2266"/><text fill="#000000" font-family="sans-serif" font-size="13" lengthAdjust="spacing" textLength="101" x="80" y="236.1606">ConnectAsync()</text><polygon fill="#181818" points="84,266.3594,74,270.3594,84,274.3594,80,270.3594" style="stroke:#181818;stroke-width:1.0;"/><line style="stroke:#181818;stroke-width:1.0;stroke-dasharray:2.0,2.0;" x1="78" x2="330.5" y1="270.3594" y2="270.3594"/><text fill="#000000" font-family="sans-serif" font-size="13" lengthAdjust="spacing" textLength="102" x="90" y="265.2935">connected: bool</text><path d="M26,299.3594 L90,299.3594 L90,306.4922 L80,316.4922 L26,316.4922 L26,299.3594 " fill="#EEEEEE" style="stroke:#000000;stroke-width:1.5;"/><rect fill="none" height="148.4688" style="stroke:#000000;stroke-width:1.5;" width="366" x="26" y="299.3594"/><text fill="#000000" font-family="sans-serif" font-size="13" font-weight="bold" lengthAdjust="spacing" textLength="19" x="41" y="312.4263">alt</text><text fill="#000000" font-family="sans-serif" font-size="11" font-weight="bold" lengthAdjust="spacing" textLength="135" x="105" y="311.5698">[Stream based input]</text><polygon fill="#181818" points="314.5,333.625,324.5,337.625,314.5,341.625,318.5,337.625" style="stroke:#181818;stroke-width:1.0;"/><line style="stroke:#181818;stroke-width:1.0;" x1="73" x2="320.5" y1="337.625" y2="337.625"/><text fill="#000000" font-family="sans-serif" font-size="13" lengthAdjust="spacing" textLength="118" x="80" y="332.5591">get_InputStream()</text><polygon fill="#181818" points="84,362.7578,74,366.7578,84,370.7578,80,366.7578" style="stroke:#181818;stroke-width:1.0;"/><line style="stroke:#181818;stroke-width:1.0;stroke-dasharray:2.0,2.0;" x1="78" x2="330.5" y1="366.7578" y2="366.7578"/><text fill="#000000" font-family="sans-serif" font-size="13" lengthAdjust="spacing" textLength="48" x="90" y="361.6919">Stream</text><line style="stroke:#000000;stroke-width:1.0;stroke-dasharray:2.0,2.0;" x1="26" x2="392" y1="375.7578" y2="375.7578"/><text fill="#000000" font-family="sans-serif" font-size="11" font-weight="bold" lengthAdjust="spacing" textLength="133" x="31" y="385.9683">[Packet based input]</text><polygon fill="#181818" points="314.5,406.6953,324.5,410.6953,314.5,414.6953,318.5,410.6953" style="stroke:#181818;stroke-width:1.0;"/><line style="stroke:#181818;stroke-width:1.0;" x1="73" x2="320.5" y1="410.6953" y2="410.6953"/><text fill="#000000" font-family="sans-serif" font-size="13" lengthAdjust="spacing" textLength="113" x="80" y="405.6294">get_InputPacket()</text><polygon fill="#181818" points="84,435.8281,74,439.8281,84,443.8281,80,439.8281" style="stroke:#181818;stroke-width:1.0;"/><line style="stroke:#181818;stroke-width:1.0;stroke-dasharray:2.0,2.0;" x1="78" x2="330.5" y1="439.8281" y2="439.8281"/><text fill="#000000" font-family="sans-serif" font-size="13" lengthAdjust="spacing" textLength="46" x="90" y="434.7622">IPacket</text><path d="M19,459.8281 L19,484.8281 L126,484.8281 L126,469.8281 L116,459.8281 L19,459.8281 " fill="#FEFFDD" style="stroke:#181818;stroke-width:0.5;"/><path d="M116,459.8281 L116,469.8281 L126,469.8281 L116,459.8281 " fill="#FEFFDD" style="stroke:#181818;stroke-width:0.5;"/><text fill="#000000" font-family="sans-serif" font-size="13" lengthAdjust="spacing" textLength="86" x="25" y="476.895">Process Input</text><polygon fill="#181818" points="314.5,507.0938,324.5,511.0938,314.5,515.0938,318.5,511.0938" style="stroke:#181818;stroke-width:1.0;"/><line style="stroke:#181818;stroke-width:1.0;" x1="73" x2="320.5" y1="511.0938" y2="511.0938"/><text fill="#000000" font-family="sans-serif" font-size="13" lengthAdjust="spacing" textLength="45" x="80" y="506.0278">Close()</text><polygon fill="#181818" points="84,521.0938,74,525.0938,84,529.0938,80,525.0938" style="stroke:#181818;stroke-width:1.0;"/><line style="stroke:#181818;stroke-width:1.0;stroke-dasharray:2.0,2.0;" x1="78" x2="330.5" y1="525.0938" y2="525.0938"/><polygon fill="#181818" points="314.5,557.2266,324.5,561.2266,314.5,565.2266,318.5,561.2266" style="stroke:#181818;stroke-width:1.0;"/><line style="stroke:#181818;stroke-width:1.0;" x1="73" x2="320.5" y1="561.2266" y2="561.2266"/><text fill="#000000" font-family="sans-serif" font-size="13" lengthAdjust="spacing" textLength="61" x="80" y="556.1606">Dispose()</text><polygon fill="#181818" points="84,571.2266,74,575.2266,84,579.2266,80,575.2266" style="stroke:#181818;stroke-width:1.0;"/><line style="stroke:#181818;stroke-width:1.0;stroke-dasharray:2.0,2.0;" x1="78" x2="330.5" y1="575.2266" y2="575.2266"/><!--SRC=[fPB1QiCm38RlVWhjKfB3niwb6OICGauhsmCCDnN3pBKyMoaK-l1pR2VfEjOUfbCSw__-NubapoGxLWV926I4M2lDw6fhuVu9sjROdj_OeTolGnkv8ooX2KV6edUg50wvT-P7en2QoCB6KOVUGm2Y413gJtHWlbWqHHdR4Z99f6PGS-F3Atxrog5lo1WCiSb0LG6xFbiC5TtlkjI1ErWie0XCfz332XxXT89yMJFZtZAiAiWDvOovbJX7gFtHT3dvMFcZJ16Mi2NICnhDBXscXs7EJDvA7qB7eMV5jI0VoEzdRywov1pZRucEsYDiPFU9_0-d1FZjrAQBY-4C3RjrG3V39-6u9H4xogBYziuqcZnUB4qqlIPwLjucMPPy0m00]--></g></svg>