<?xml version="1.0" encoding="us-ascii" standalone="no"?><svg xmlns="http://www.w3.org/2000/svg" xmlns:xlink="http://www.w3.org/1999/xlink" contentStyleType="text/css" height="236px" preserveAspectRatio="none" style="width:396px;height:236px;background:#FFFFFF;" version="1.1" viewBox="0 0 396 236" width="396px" zoomAndPan="magnify"><defs/><g><!--class IDisposable--><g id="elem_IDisposable"><rect codeLine="1" fill="#F1F1F1" height="64.2969" id="IDisposable" rx="2.5" ry="2.5" style="stroke:#181818;stroke-width:0.5;" width="120" x="52" y="23.3"/><ellipse cx="70.6" cy="39.3" fill="#B4A7E5" rx="11" ry="11" style="stroke:#181818;stroke-width:1.0;"/><path d="M66.5219,35.0656 L66.5219,32.9094 L73.9125,32.9094 L73.9125,35.0656 L71.4438,35.0656 L71.4438,43.1438 L73.9125,43.1438 L73.9125,45.3 L66.5219,45.3 L66.5219,43.1438 L68.9906,43.1438 L68.9906,35.0656 L66.5219,35.0656 Z " fill="#000000"/><text fill="#000000" font-family="sans-serif" font-size="14" font-style="italic" lengthAdjust="spacing" textLength="80" x="85.4" y="44.1467">IDisposable</text><line style="stroke:#181818;stroke-width:0.5;" x1="53" x2="171" y1="55.3" y2="55.3"/><line style="stroke:#181818;stroke-width:0.5;" x1="53" x2="171" y1="63.3" y2="63.3"/><text fill="#000000" font-family="sans-serif" font-size="14" lengthAdjust="spacing" textLength="108" x="58" y="80.2951">Dispose() : void</text></g><!--class ITraceReader--><g id="elem_ITraceReader"><rect codeLine="5" fill="#F1F1F1" height="64.2969" id="ITraceReader" rx="2.5" ry="2.5" style="stroke:#181818;stroke-width:0.5;" width="210" x="7" y="164.89"/><ellipse cx="22" cy="180.89" fill="#B4A7E5" rx="11" ry="11" style="stroke:#181818;stroke-width:1.0;"/><path d="M17.9219,176.6556 L17.9219,174.4994 L25.3125,174.4994 L25.3125,176.6556 L22.8438,176.6556 L22.8438,184.7338 L25.3125,184.7338 L25.3125,186.89 L17.9219,186.89 L17.9219,184.7338 L20.3906,184.7338 L20.3906,176.6556 L17.9219,176.6556 Z " fill="#000000"/><text fill="#000000" font-family="sans-serif" font-size="14" font-style="italic" lengthAdjust="spacing" textLength="92" x="36" y="185.7367">ITraceReader</text><rect fill="#FFFFFF" height="15.9688" style="stroke:#181818;stroke-width:1.0;stroke-dasharray:2.0,2.0;" width="84" x="136" y="161.89"/><text fill="#000000" font-family="sans-serif" font-size="12" font-style="italic" lengthAdjust="spacing" textLength="82" x="137" y="174.0287">T : ITraceLine</text><line style="stroke:#181818;stroke-width:0.5;" x1="8" x2="216" y1="196.89" y2="196.89"/><line style="stroke:#181818;stroke-width:0.5;" x1="8" x2="216" y1="204.89" y2="204.89"/><text fill="#000000" font-family="sans-serif" font-size="14" lengthAdjust="spacing" textLength="183" x="13" y="221.8851">GetLineAsync() : Task&lt;T&gt;</text></g><!--class ITraceLine--><g id="elem_ITraceLine"><rect codeLine="9" fill="#F1F1F1" height="96.8906" id="ITraceLine" rx="2.5" ry="2.5" style="stroke:#181818;stroke-width:0.5;" width="106" x="283" y="7"/><ellipse cx="299.8" cy="23" fill="#B4A7E5" rx="11" ry="11" style="stroke:#181818;stroke-width:1.0;"/><path d="M295.7219,18.7656 L295.7219,16.6094 L303.1125,16.6094 L303.1125,18.7656 L300.6438,18.7656 L300.6438,26.8438 L303.1125,26.8438 L303.1125,29 L295.7219,29 L295.7219,26.8438 L298.1906,26.8438 L298.1906,18.7656 L295.7219,18.7656 Z " fill="#000000"/><text fill="#000000" font-family="sans-serif" font-size="14" font-style="italic" lengthAdjust="spacing" textLength="70" x="314.2" y="27.8467">ITraceLine</text><line style="stroke:#181818;stroke-width:0.5;" x1="284" x2="388" y1="39" y2="39"/><text fill="#000000" font-family="sans-serif" font-size="14" lengthAdjust="spacing" textLength="78" x="289" y="55.9951">Text: string</text><text fill="#000000" font-family="sans-serif" font-size="14" lengthAdjust="spacing" textLength="54" x="289" y="72.292">Line: int</text><text fill="#000000" font-family="sans-serif" font-size="14" lengthAdjust="spacing" textLength="94" x="289" y="88.5889">Position: long</text><line style="stroke:#181818;stroke-width:0.5;" x1="284" x2="388" y1="95.8906" y2="95.8906"/></g><!--class T--><g id="elem_T"><rect codeLine="16" fill="#F1F1F1" height="48" id="T" rx="2.5" ry="2.5" style="stroke:#181818;stroke-width:0.5;" width="41" x="315.5" y="173.04"/><ellipse cx="330.5" cy="189.04" fill="#DA70D6" rx="11" ry="11" style="stroke:#181818;stroke-width:1.0;"/><path d="M331.3438,195.79 L328.8906,195.79 L328.8906,185.54 L325.75,185.54 L325.75,183.3994 L334.4844,183.3994 L334.4844,185.54 L331.3438,185.54 L331.3438,195.79 Z " fill="#000000"/><text fill="#000000" font-family="sans-serif" font-size="14" lengthAdjust="spacing" textLength="9" x="344.5" y="193.8867">T</text><line style="stroke:#181818;stroke-width:0.5;" x1="316.5" x2="355.5" y1="205.04" y2="205.04"/><line style="stroke:#181818;stroke-width:0.5;" x1="316.5" x2="355.5" y1="213.04" y2="213.04"/></g><!--reverse link IDisposable to ITraceReader--><g id="link_IDisposable_ITraceReader"><path codeLine="18" d="M112,108.73 C112,127.61 112,148.31 112,164.82 " fill="none" id="IDisposable-backto-ITraceReader" style="stroke:#181818;stroke-width:1.0;"/><polygon fill="none" points="105,108.78,112,88.78,119,108.78,105,108.78" style="stroke:#181818;stroke-width:1.0;"/></g><!--link ITraceReader to T--><g id="link_ITraceReader_T"><path codeLine="19" d="M217.44,197.04 C254.43,197.04 292.38,197.04 315.07,197.04 " fill="none" id="ITraceReader-T" style="stroke:#181818;stroke-width:1.0;stroke-dasharray:7.0,7.0;"/><text fill="#000000" font-family="sans-serif" font-size="13" lengthAdjust="spacing" textLength="62" x="235.25" y="190.1069">&#171;returns&#187;</text></g><!--reverse link ITraceLine to T--><g id="link_ITraceLine_T"><path codeLine="20" d="M336,124.86 C336,142.17 336,159.59 336,172.86 " fill="none" id="ITraceLine-backto-T" style="stroke:#181818;stroke-width:1.0;stroke-dasharray:7.0,7.0;"/><polygon fill="none" points="329,125.1,336,105.1,343,125.1,329,125.1" style="stroke:#181818;stroke-width:1.0;"/></g><!--SRC=[RK_B2i8m4BpdA_Pc2xOVK4AX88ZWGIG_4DDL5qjIib4irdytVO0LtCioipF3BDc0_gmDmcv3t3hMfmRX9I3EH62IGW4FHxLu2q5VlV9n7L7NwAMAaedOayLo3jXY6635dJLZYj9yawhy5pG8Pvl2PoY0WoTx6OdXLa1qZEZWc08vMq3ZeY1chIe8NOl2D9eP54YPgBNpvafrMfP2B5-JVPRzT1TB03aChqZfCTozvUXUr9Dz7kyV]--></g></svg>