<?xml version="1.0" encoding="UTF-8" standalone="no"?><svg xmlns="http://www.w3.org/2000/svg" xmlns:xlink="http://www.w3.org/1999/xlink" contentScriptType="application/ecmascript" contentStyleType="text/css" height="312px" preserveAspectRatio="none" style="width:405px;height:312px;background:#FFFFFF;" version="1.1" viewBox="0 0 405 312" width="405px" zoomAndPan="magnify"><defs><filter height="300%" id="f12zo4knlzrsjq" width="300%" x="-1" y="-1"><feGaussianBlur result="blurOut" stdDeviation="2.0"/><feColorMatrix in="blurOut" result="blurOut2" type="matrix" values="0 0 0 0 0 0 0 0 0 0 0 0 0 0 0 0 0 0 .4 0"/><feOffset dx="4.0" dy="4.0" in="blurOut2" result="blurOut3"/><feBlend in="SourceGraphic" in2="blurOut3" mode="normal"/></filter></defs><g><!--MD5=[0e8a12701c6f05e5e1cddc2a3d99b5dc]
cluster InputStage--><rect fill="#FFFFFF" filter="url(#f12zo4knlzrsjq)" height="87" style="stroke:#000000;stroke-width:1.5;" width="146" x="7" y="102"/><text fill="#000000" font-family="sans-serif" font-size="14" font-weight="bold" lengthAdjust="spacing" textLength="103" x="28.5" y="118.5332">Decoded Input</text><!--MD5=[ea2c6188e67942dc90c7ce9229e9017d]
cluster FilterStage--><rect fill="#FFFFFF" filter="url(#f12zo4knlzrsjq)" height="293" style="stroke:#000000;stroke-width:1.5;" width="110" x="177" y="7"/><text fill="#000000" font-family="sans-serif" font-size="14" font-weight="bold" lengthAdjust="spacing" textLength="37" x="213.5" y="23.5332">Filter</text><!--MD5=[1c5c540fe6cbe479eeb88fccb0a6a491]
cluster OutputStage--><rect fill="#FFFFFF" filter="url(#f12zo4knlzrsjq)" height="87" style="stroke:#000000;stroke-width:1.5;" width="82" x="311" y="213"/><text fill="#000000" font-family="sans-serif" font-size="14" font-weight="bold" lengthAdjust="spacing" textLength="48" x="328" y="229.5332">Output</text><rect fill="#FEFECE" filter="url(#f12zo4knlzrsjq)" height="35.0938" style="stroke:#A80036;stroke-width:1.5;" width="113" x="23.5" y="138"/><text fill="#000000" font-family="sans-serif" font-size="12" lengthAdjust="spacing" textLength="99" x="30.5" y="152.457">DltTraceLineBase</text><line style="stroke:#A80036;stroke-width:1.5;" x1="24.5" x2="135.5" y1="157.0938" y2="157.0938"/><rect fill="#FEFECE" filter="url(#f12zo4knlzrsjq)" height="35.0938" style="stroke:#A80036;stroke-width:1.5;" width="55" x="198.5" y="249"/><text fill="#000000" font-family="sans-serif" font-size="12" lengthAdjust="spacing" textLength="41" x="205.5" y="263.457">Context</text><line style="stroke:#A80036;stroke-width:1.5;" x1="199.5" x2="252.5" y1="268.0938" y2="268.0938"/><rect fill="#FEFECE" filter="url(#f12zo4knlzrsjq)" height="35.0938" style="stroke:#A80036;stroke-width:1.5;" width="41" x="205.5" y="138"/><text fill="#000000" font-family="sans-serif" font-size="12" lengthAdjust="spacing" textLength="27" x="212.5" y="152.457">Filter</text><line style="stroke:#A80036;stroke-width:1.5;" x1="206.5" x2="245.5" y1="157.0938" y2="157.0938"/><rect fill="#FEFECE" filter="url(#f12zo4knlzrsjq)" height="35.0938" style="stroke:#A80036;stroke-width:1.5;" width="78" x="193" y="43"/><text fill="#000000" font-family="sans-serif" font-size="12" lengthAdjust="spacing" textLength="64" x="200" y="57.457">Constraints</text><line style="stroke:#A80036;stroke-width:1.5;" x1="194" x2="270" y1="62.0938" y2="62.0938"/><rect fill="#FEFECE" filter="url(#f12zo4knlzrsjq)" height="35.0938" style="stroke:#A80036;stroke-width:1.5;" width="50" x="327" y="249"/><text fill="#000000" font-family="sans-serif" font-size="12" lengthAdjust="spacing" textLength="36" x="334" y="263.457">Output</text><line style="stroke:#A80036;stroke-width:1.5;" x1="328" x2="376" y1="268.0938" y2="268.0938"/><!--MD5=[125d0a8d789bb773049dcab2bc0026dd]
link Constraints to Filter--><path codeLine="11" d="M230.93,78.13 C230.1,91.01 228.92,109.19 227.93,124.58 " fill="none" id="Constraints-to-Filter" style="stroke:#A80036;stroke-width:1.0;"/><polygon fill="#A80036" points="227.08,137.7,231.4543,131.9672,227.845,125.7244,223.4706,131.4572,227.08,137.7" style="stroke:#A80036;stroke-width:1.0;"/><!--MD5=[b93cfa2d19c1b5d6d2fddee3a740b638]
link Filter to Context--><path codeLine="12" d="M226,173.05 C226,191.94 226,222.9 226,243.73 " fill="none" id="Filter-to-Context" style="stroke:#A80036;stroke-width:1.0;"/><polygon fill="#A80036" points="226,248.79,230,239.79,226,243.79,222,239.79,226,248.79" style="stroke:#A80036;stroke-width:1.0;"/><!--MD5=[e6beac0bb024ae654803d09528225d72]
link DltTraceLineBase to Filter--><path codeLine="19" d="M136.75,155.5 C157.94,155.5 179.14,155.5 200.33,155.5 " fill="none" id="DltTraceLineBase-to-Filter" style="stroke:#A80036;stroke-width:1.0;"/><polygon fill="#A80036" points="205.43,155.5,196.43,151.5,200.43,155.5,196.43,159.5,205.43,155.5" style="stroke:#A80036;stroke-width:1.0;"/><!--MD5=[03e2c3a0522714c72b098ef648866359]
link DltTraceLineBase to Context--><path codeLine="20" d="M102.17,173.05 C128.22,192.5 171.41,224.74 199.28,245.55 " fill="none" id="DltTraceLineBase-to-Context" style="stroke:#A80036;stroke-width:1.0;"/><polygon fill="#A80036" points="203.62,248.79,198.82,240.19,199.62,245.79,194.02,246.59,203.62,248.79" style="stroke:#A80036;stroke-width:1.0;"/><!--MD5=[6bb8ab0e2d3b444bb15c20d99504f945]
link Context to Output--><path codeLine="21" d="M253.56,266.5 C276.2,266.5 298.84,266.5 321.48,266.5 " fill="none" id="Context-to-Output" style="stroke:#A80036;stroke-width:1.0;"/><polygon fill="#A80036" points="326.62,266.5,317.62,262.5,321.62,266.5,317.62,270.5,326.62,266.5" style="stroke:#A80036;stroke-width:1.0;"/><!--MD5=[6c7a4cc48b6a8d83988858bb78fab56f]
@startuml Domain.Filter.Context

rectangle "Decoded Input" as InputStage {
  object DltTraceLineBase
}

rectangle "Filter" as FilterStage {
  object Context
  object Filter
  object Constraints

  Filter *-u- Constraints
  Filter - -> Context
}

rectangle "Output" as OutputStage {
  object Output
}

DltTraceLineBase -r-> Filter
DltTraceLineBase -r-> Context
Context -r-> Output

@enduml

PlantUML version 1.2022.0(Tue Jan 11 17:16:42 CET 2022)
(GPL source distribution)
Java Runtime: Java(TM) SE Runtime Environment
JVM: Java HotSpot(TM) Client VM
Default Encoding: Cp1252
Language: en
Country: US
--></g></svg>