<?xml version="1.0" encoding="us-ascii" standalone="no"?><svg xmlns="http://www.w3.org/2000/svg" xmlns:xlink="http://www.w3.org/1999/xlink" contentStyleType="text/css" height="682px" preserveAspectRatio="none" style="width:1092px;height:682px;background:#FFFFFF;" version="1.1" viewBox="0 0 1092 682" width="1092px" zoomAndPan="magnify"><defs/><g><g id="cluster_##3"><rect fill="none" height="574.75" rx="2.5" ry="2.5" style="stroke:#181818;stroke-width:1.0;" width="1079" x="7" y="102"/></g><!--class IPcapBlock--><g id="elem_IPcapBlock"><rect codeLine="5" fill="#F1F1F1" height="80.5938" id="IPcapBlock" rx="2.5" ry="2.5" style="stroke:#181818;stroke-width:0.5;" width="107" x="690.5" y="580.16"/><ellipse cx="705.5" cy="596.16" fill="#B4A7E5" rx="11" ry="11" style="stroke:#181818;stroke-width:1.0;"/><path d="M701.4219,591.9256 L701.4219,589.7694 L708.8125,589.7694 L708.8125,591.9256 L706.3438,591.9256 L706.3438,600.0038 L708.8125,600.0038 L708.8125,602.16 L701.4219,602.16 L701.4219,600.0038 L703.8906,600.0038 L703.8906,591.9256 L701.4219,591.9256 Z " fill="#000000"/><text fill="#000000" font-family="sans-serif" font-size="14" font-style="italic" lengthAdjust="spacing" textLength="75" x="719.5" y="601.0067">IPcapBlock</text><line style="stroke:#181818;stroke-width:0.5;" x1="691.5" x2="796.5" y1="612.16" y2="612.16"/><text fill="#000000" font-family="sans-serif" font-size="14" lengthAdjust="spacing" textLength="76" x="696.5" y="629.1551">BlockId: int</text><text fill="#000000" font-family="sans-serif" font-size="14" lengthAdjust="spacing" textLength="74" x="696.5" y="645.452">Length: int</text><line style="stroke:#181818;stroke-width:0.5;" x1="691.5" x2="796.5" y1="652.7538" y2="652.7538"/></g><!--class BlockReader--><g id="elem_BlockReader"><rect codeLine="10" fill="#F1F1F1" height="162.0781" id="BlockReader" rx="2.5" ry="2.5" style="stroke:#181818;stroke-width:0.5;" width="440" x="524" y="118"/><ellipse cx="695.75" cy="134" fill="#ADD1B2" rx="11" ry="11" style="stroke:#181818;stroke-width:1.0;"/><path d="M698.7188,139.6406 Q698.1406,139.9375 697.5,140.0781 Q696.8594,140.2344 696.1563,140.2344 Q693.6563,140.2344 692.3281,138.5938 Q691.0156,136.9375 691.0156,133.8125 Q691.0156,130.6875 692.3281,129.0313 Q693.6563,127.375 696.1563,127.375 Q696.8594,127.375 697.5,127.5313 Q698.1563,127.6875 698.7188,127.9844 L698.7188,130.7031 Q698.0938,130.125 697.5,129.8594 Q696.9063,129.5781 696.2813,129.5781 Q694.9375,129.5781 694.25,130.6563 Q693.5625,131.7188 693.5625,133.8125 Q693.5625,135.9063 694.25,136.9844 Q694.9375,138.0469 696.2813,138.0469 Q696.9063,138.0469 697.5,137.7813 Q698.0938,137.5 698.7188,136.9219 L698.7188,139.6406 Z " fill="#000000"/><text fill="#000000" font-family="sans-serif" font-size="14" lengthAdjust="spacing" textLength="88" x="716.25" y="138.8467">BlockReader</text><line style="stroke:#181818;stroke-width:0.5;" x1="525" x2="963" y1="150" y2="150"/><rect fill="none" height="6" style="stroke:#C82930;stroke-width:1.0;" width="6" x="532" y="160.6484"/><text fill="#000000" font-family="sans-serif" font-size="14" lengthAdjust="spacing" textLength="149" x="544" y="166.9951">m_IsLittleEndian: bool</text><line style="stroke:#181818;stroke-width:0.5;" x1="525" x2="963" y1="174.2969" y2="174.2969"/><ellipse cx="535" cy="187.9453" fill="#84BE84" rx="3" ry="3" style="stroke:#038048;stroke-width:1.0;"/><text fill="#000000" font-family="sans-serif" font-size="14" lengthAdjust="spacing" textLength="370" x="544" y="191.292">GetHeader(buffer: ReadOnlySpan&lt;byte&gt;): PcapBlock</text><ellipse cx="535" cy="212.3906" fill="#84BE84" rx="3" ry="3" style="stroke:#038048;stroke-width:1.0;"/><text fill="#000000" font-family="sans-serif" font-size="14" lengthAdjust="spacing" textLength="384" x="544" y="207.5889">GetBlock(buffer: ReadOnlySpan&lt;byte&gt;, position: long):</text><text fill="#000000" font-family="sans-serif" font-size="14" lengthAdjust="spacing" textLength="75" x="552" y="223.8857">IPcapBlock</text><ellipse cx="535" cy="244.9844" fill="#84BE84" rx="3" ry="3" style="stroke:#038048;stroke-width:1.0;"/><text fill="#000000" font-family="sans-serif" font-size="14" lengthAdjust="spacing" textLength="414" x="544" y="240.1826">DecodeBlock(buffer: ReadOnlySpan&lt;byte&gt;, position: long):</text><text fill="#000000" font-family="sans-serif" font-size="14" lengthAdjust="spacing" textLength="231" x="552" y="256.4795">IEnumerable&lt;DltTraceLineBase&gt;</text><ellipse cx="535" cy="269.4297" fill="#84BE84" rx="3" ry="3" style="stroke:#038048;stroke-width:1.0;"/><text fill="#000000" font-family="sans-serif" font-size="14" lengthAdjust="spacing" textLength="51" x="544" y="272.7764">Reset()</text></g><g id="elem_GMN7"><path d="M291,156.21 L291,241.8741 A0,0 0 0 0 291,241.8741 L489,241.8741 A0,0 0 0 0 489,241.8741 L489,203.04 L523.55,199.04 L489,195.04 L489,166.21 L479,156.21 L291,156.21 A0,0 0 0 0 291,156.21 " fill="#FEFFDD" style="stroke:#181818;stroke-width:0.5;"/><path d="M479,156.21 L479,166.21 L489,166.21 L479,156.21 " fill="#FEFFDD" style="stroke:#181818;stroke-width:0.5;"/><text fill="#000000" font-family="sans-serif" font-size="13" lengthAdjust="spacing" textLength="176" x="297" y="173.2769">The BlockReader is stateful,</text><text fill="#000000" font-family="sans-serif" font-size="13" lengthAdjust="spacing" textLength="167" x="297" y="188.4097">it must first receive a SHB</text><text fill="#000000" font-family="sans-serif" font-size="13" lengthAdjust="spacing" textLength="177" x="297" y="203.5425">to get the endianness, then</text><text fill="#000000" font-family="sans-serif" font-size="13" lengthAdjust="spacing" textLength="149" x="297" y="218.6753">it can decode the other</text><text fill="#000000" font-family="sans-serif" font-size="13" lengthAdjust="spacing" textLength="97" x="297" y="233.8081">blocks in order.</text></g><!--class PcapBlock--><g id="elem_PcapBlock"><rect codeLine="25" fill="#F1F1F1" height="48" id="PcapBlock" rx="2.5" ry="2.5" style="stroke:#181818;stroke-width:0.5;" width="104" x="966" y="414.12"/><ellipse cx="981" cy="430.12" fill="#ADD1B2" rx="11" ry="11" style="stroke:#181818;stroke-width:1.0;"/><path d="M983.9688,435.7606 Q983.3906,436.0575 982.75,436.1981 Q982.1094,436.3544 981.4063,436.3544 Q978.9063,436.3544 977.5781,434.7138 Q976.2656,433.0575 976.2656,429.9325 Q976.2656,426.8075 977.5781,425.1513 Q978.9063,423.495 981.4063,423.495 Q982.1094,423.495 982.75,423.6513 Q983.4063,423.8075 983.9688,424.1044 L983.9688,426.8231 Q983.3438,426.245 982.75,425.9794 Q982.1563,425.6981 981.5313,425.6981 Q980.1875,425.6981 979.5,426.7763 Q978.8125,427.8388 978.8125,429.9325 Q978.8125,432.0263 979.5,433.1044 Q980.1875,434.1669 981.5313,434.1669 Q982.1563,434.1669 982.75,433.9013 Q983.3438,433.62 983.9688,433.0419 L983.9688,435.7606 Z " fill="#000000"/><text fill="#000000" font-family="sans-serif" font-size="14" lengthAdjust="spacing" textLength="72" x="995" y="434.9667">PcapBlock</text><line style="stroke:#181818;stroke-width:0.5;" x1="967" x2="1069" y1="446.12" y2="446.12"/><line style="stroke:#181818;stroke-width:0.5;" x1="967" x2="1069" y1="454.12" y2="454.12"/></g><!--class SectionHeaderBlock--><g id="elem_SectionHeaderBlock"><rect codeLine="29" fill="#F1F1F1" height="129.4844" id="SectionHeaderBlock" rx="2.5" ry="2.5" style="stroke:#181818;stroke-width:0.5;" width="373" x="557.5" y="373.37"/><ellipse cx="669.75" cy="389.37" fill="#ADD1B2" rx="11" ry="11" style="stroke:#181818;stroke-width:1.0;"/><path d="M672.7188,395.0106 Q672.1406,395.3075 671.5,395.4481 Q670.8594,395.6044 670.1563,395.6044 Q667.6563,395.6044 666.3281,393.9638 Q665.0156,392.3075 665.0156,389.1825 Q665.0156,386.0575 666.3281,384.4013 Q667.6563,382.745 670.1563,382.745 Q670.8594,382.745 671.5,382.9013 Q672.1563,383.0575 672.7188,383.3544 L672.7188,386.0731 Q672.0938,385.495 671.5,385.2294 Q670.9063,384.9481 670.2813,384.9481 Q668.9375,384.9481 668.25,386.0263 Q667.5625,387.0888 667.5625,389.1825 Q667.5625,391.2763 668.25,392.3544 Q668.9375,393.4169 670.2813,393.4169 Q670.9063,393.4169 671.5,393.1513 Q672.0938,392.87 672.7188,392.2919 L672.7188,395.0106 Z " fill="#000000"/><text fill="#000000" font-family="sans-serif" font-size="14" lengthAdjust="spacing" textLength="140" x="690.25" y="394.2167">SectionHeaderBlock</text><line style="stroke:#181818;stroke-width:0.5;" x1="558.5" x2="929.5" y1="405.37" y2="405.37"/><ellipse cx="568.5" cy="419.0184" fill="none" rx="3" ry="3" style="stroke:#038048;stroke-width:1.0;"/><text fill="#000000" font-family="sans-serif" font-size="14" lengthAdjust="spacing" textLength="129" x="577.5" y="422.3651">IsLittleEndian: bool</text><ellipse cx="568.5" cy="435.3153" fill="none" rx="3" ry="3" style="stroke:#038048;stroke-width:1.0;"/><text fill="#000000" font-family="sans-serif" font-size="14" lengthAdjust="spacing" textLength="115" x="577.5" y="438.662">MajorVersion: int</text><ellipse cx="568.5" cy="451.6122" fill="none" rx="3" ry="3" style="stroke:#038048;stroke-width:1.0;"/><text fill="#000000" font-family="sans-serif" font-size="14" lengthAdjust="spacing" textLength="116" x="577.5" y="454.9589">MinorVersion: int</text><ellipse cx="568.5" cy="467.9091" fill="none" rx="3" ry="3" style="stroke:#038048;stroke-width:1.0;"/><text fill="#000000" font-family="sans-serif" font-size="14" lengthAdjust="spacing" textLength="151" x="577.5" y="471.2557">Options: PcapOptions</text><line style="stroke:#181818;stroke-width:1.0;" x1="558.5" x2="929.5" y1="478.5575" y2="478.5575"/><polygon fill="#4177AF" points="568.5,488.2059,564.5,494.2059,572.5,494.2059" style="stroke:#1963A0;stroke-width:1.0;"/><text fill="#000000" font-family="sans-serif" font-size="14" lengthAdjust="spacing" textLength="347" x="577.5" y="495.5526">.ctor(buffer: ReadOnlySpan&lt;byte&gt;, position: long)</text></g><!--class InterfaceDescriptionBlock--><g id="elem_InterfaceDescriptionBlock"><rect codeLine="40" fill="#F1F1F1" height="162.0781" id="InterfaceDescriptionBlock" rx="2.5" ry="2.5" style="stroke:#181818;stroke-width:0.5;" width="499" x="23.5" y="357.08"/><ellipse cx="180.25" cy="373.08" fill="#ADD1B2" rx="11" ry="11" style="stroke:#181818;stroke-width:1.0;"/><path d="M183.2188,378.7206 Q182.6406,379.0175 182,379.1581 Q181.3594,379.3144 180.6563,379.3144 Q178.1563,379.3144 176.8281,377.6738 Q175.5156,376.0175 175.5156,372.8925 Q175.5156,369.7675 176.8281,368.1113 Q178.1563,366.455 180.6563,366.455 Q181.3594,366.455 182,366.6113 Q182.6563,366.7675 183.2188,367.0644 L183.2188,369.7831 Q182.5938,369.205 182,368.9394 Q181.4063,368.6581 180.7813,368.6581 Q179.4375,368.6581 178.75,369.7363 Q178.0625,370.7988 178.0625,372.8925 Q178.0625,374.9863 178.75,376.0644 Q179.4375,377.1269 180.7813,377.1269 Q181.4063,377.1269 182,376.8613 Q182.5938,376.58 183.2188,376.0019 L183.2188,378.7206 Z " fill="#000000"/><text fill="#000000" font-family="sans-serif" font-size="14" lengthAdjust="spacing" textLength="177" x="200.75" y="377.9267">InterfaceDescriptionBlock</text><line style="stroke:#181818;stroke-width:0.5;" x1="24.5" x2="521.5" y1="389.08" y2="389.08"/><ellipse cx="34.5" cy="402.7284" fill="none" rx="3" ry="3" style="stroke:#038048;stroke-width:1.0;"/><text fill="#000000" font-family="sans-serif" font-size="14" lengthAdjust="spacing" textLength="87" x="43.5" y="406.0751">LinkType: int</text><ellipse cx="34.5" cy="419.0253" fill="none" rx="3" ry="3" style="stroke:#038048;stroke-width:1.0;"/><text fill="#000000" font-family="sans-serif" font-size="14" lengthAdjust="spacing" textLength="99" x="43.5" y="422.372">SnapLen: long</text><ellipse cx="34.5" cy="435.3222" fill="none" rx="3" ry="3" style="stroke:#038048;stroke-width:1.0;"/><text fill="#000000" font-family="sans-serif" font-size="14" lengthAdjust="spacing" textLength="151" x="43.5" y="438.6689">Options: PcapOptions</text><line style="stroke:#181818;stroke-width:1.0;" x1="24.5" x2="521.5" y1="445.9706" y2="445.9706"/><polygon fill="#4177AF" points="34.5,455.6191,30.5,461.6191,38.5,461.6191" style="stroke:#1963A0;stroke-width:1.0;"/><text fill="#000000" font-family="sans-serif" font-size="14" lengthAdjust="spacing" textLength="464" x="43.5" y="462.9657">.ctor(buffer: ReadOnlySpan&lt;byte&gt;, bool littleEndian, position: long)</text><ellipse cx="34.5" cy="475.9159" fill="#84BE84" rx="3" ry="3" style="stroke:#038048;stroke-width:1.0;"/><text fill="#000000" font-family="sans-serif" font-size="14" lengthAdjust="spacing" textLength="320" x="43.5" y="479.2626">GetTimeStamp(high: uint, low: uint): DateTime</text><ellipse cx="34.5" cy="500.3613" fill="#84BE84" rx="3" ry="3" style="stroke:#038048;stroke-width:1.0;"/><text fill="#000000" font-family="sans-serif" font-size="14" lengthAdjust="spacing" textLength="473" x="43.5" y="495.5595">DecodePacket(buffer: ReadOnlySpan&lt;byte&gt;, timeStamp: DateTime,</text><text fill="#000000" font-family="sans-serif" font-size="14" lengthAdjust="spacing" textLength="339" x="51.5" y="511.8564">position: long): IEnumerable&lt;DltTraceLineBase&gt;</text></g><!--class PacketDecoder--><g id="elem_PacketDecoder"><rect codeLine="52" fill="#F1F1F1" height="48" id="PacketDecoder" rx="2.5" ry="2.5" style="stroke:#181818;stroke-width:0.5;" width="139" x="203.5" y="596.45"/><ellipse cx="218.5" cy="612.45" fill="#ADD1B2" rx="11" ry="11" style="stroke:#181818;stroke-width:1.0;"/><path d="M221.4688,618.0906 Q220.8906,618.3875 220.25,618.5281 Q219.6094,618.6844 218.9063,618.6844 Q216.4063,618.6844 215.0781,617.0438 Q213.7656,615.3875 213.7656,612.2625 Q213.7656,609.1375 215.0781,607.4813 Q216.4063,605.825 218.9063,605.825 Q219.6094,605.825 220.25,605.9813 Q220.9063,606.1375 221.4688,606.4344 L221.4688,609.1531 Q220.8438,608.575 220.25,608.3094 Q219.6563,608.0281 219.0313,608.0281 Q217.6875,608.0281 217,609.1063 Q216.3125,610.1688 216.3125,612.2625 Q216.3125,614.3563 217,615.4344 Q217.6875,616.4969 219.0313,616.4969 Q219.6563,616.4969 220.25,616.2313 Q220.8438,615.95 221.4688,615.3719 L221.4688,618.0906 Z " fill="#000000"/><text fill="#000000" font-family="sans-serif" font-size="14" lengthAdjust="spacing" textLength="107" x="232.5" y="617.2967">PacketDecoder</text><line style="stroke:#181818;stroke-width:0.5;" x1="204.5" x2="341.5" y1="628.45" y2="628.45"/><line style="stroke:#181818;stroke-width:0.5;" x1="204.5" x2="341.5" y1="636.45" y2="636.45"/></g><!--class DltPcapNgDecoder--><g id="elem_DltPcapNgDecoder"><rect codeLine="2" fill="#F1F1F1" height="48" id="DltPcapNgDecoder" rx="2.5" ry="2.5" style="stroke:#181818;stroke-width:0.5;" width="164" x="662" y="7"/><ellipse cx="677" cy="23" fill="#ADD1B2" rx="11" ry="11" style="stroke:#181818;stroke-width:1.0;"/><path d="M679.9688,28.6406 Q679.3906,28.9375 678.75,29.0781 Q678.1094,29.2344 677.4063,29.2344 Q674.9063,29.2344 673.5781,27.5938 Q672.2656,25.9375 672.2656,22.8125 Q672.2656,19.6875 673.5781,18.0313 Q674.9063,16.375 677.4063,16.375 Q678.1094,16.375 678.75,16.5313 Q679.4063,16.6875 679.9688,16.9844 L679.9688,19.7031 Q679.3438,19.125 678.75,18.8594 Q678.1563,18.5781 677.5313,18.5781 Q676.1875,18.5781 675.5,19.6563 Q674.8125,20.7188 674.8125,22.8125 Q674.8125,24.9063 675.5,25.9844 Q676.1875,27.0469 677.5313,27.0469 Q678.1563,27.0469 678.75,26.7813 Q679.3438,26.5 679.9688,25.9219 L679.9688,28.6406 Z " fill="#000000"/><text fill="#000000" font-family="sans-serif" font-size="14" lengthAdjust="spacing" textLength="132" x="691" y="27.8467">DltPcapNgDecoder</text><line style="stroke:#181818;stroke-width:0.5;" x1="663" x2="825" y1="39" y2="39"/><line style="stroke:#181818;stroke-width:0.5;" x1="663" x2="825" y1="47" y2="47"/></g><!--link BlockReader to PcapBlock--><g id="link_BlockReader_PcapBlock"><path codeLine="26" d="M856.54,280.39 C887.21,303.94 919.74,330.53 948,357.08 C965.34,373.37 982.96,393.54 996.19,409.56 " fill="none" id="BlockReader-to-PcapBlock" style="stroke:#181818;stroke-width:1.0;"/><polygon fill="#181818" points="999.8,412.96,997.1738,403.4677,996.6245,409.0979,990.9943,408.5486,999.8,412.96" style="stroke:#181818;stroke-width:1.0;"/><text fill="#000000" font-family="sans-serif" font-size="13" lengthAdjust="spacing" textLength="57" x="912" y="323.1469">&#171;create&#187;</text></g><!--link PcapBlock to IPcapBlock--><g id="link_PcapBlock_IPcapBlock"><path codeLine="27" d="M1001.64,462.38 C988.6,479.67 969.09,502.97 948,519.16 C908.31,549.61 857.91,574.5 817.14,591.86 " fill="none" id="PcapBlock-to-IPcapBlock" style="stroke:#181818;stroke-width:1.0;stroke-dasharray:7.0,7.0;"/><polygon fill="none" points="820.14,598.61,798.99,599.77,814.8,585.67,820.14,598.61" style="stroke:#181818;stroke-width:1.0;"/></g><!--reverse link BlockReader to SectionHeaderBlock--><g id="link_BlockReader_SectionHeaderBlock"><path codeLine="37" d="M744,293.98 C744,320.49 744,348.71 744,373.03 " fill="none" id="BlockReader-backto-SectionHeaderBlock" style="stroke:#181818;stroke-width:1.0;"/><polygon fill="#181818" points="744,281.3,740,287.3,744,293.3,748,287.3,744,281.3" style="stroke:#181818;stroke-width:1.0;"/></g><!--link SectionHeaderBlock to IPcapBlock--><g id="link_SectionHeaderBlock_IPcapBlock"><path codeLine="38" d="M744,503.2 C744,521.34 744,541.02 744,558.94 " fill="none" id="SectionHeaderBlock-to-IPcapBlock" style="stroke:#181818;stroke-width:1.0;stroke-dasharray:7.0,7.0;"/><polygon fill="none" points="751,558.7,744,578.7,737,558.7,751,558.7" style="stroke:#181818;stroke-width:1.0;"/></g><!--reverse link BlockReader to InterfaceDescriptionBlock--><g id="link_BlockReader_InterfaceDescriptionBlock"><path codeLine="49" d="M571.81,286.71 C526.41,309.56 477.61,334.13 432.88,356.64 " fill="none" id="BlockReader-backto-InterfaceDescriptionBlock" style="stroke:#181818;stroke-width:1.0;"/><polygon fill="#181818" points="583.21,280.47,576.0515,279.6002,572.4954,285.8734,579.6538,286.7433,583.21,280.47" style="stroke:#181818;stroke-width:1.0;"/><text fill="#000000" font-family="sans-serif" font-size="13" lengthAdjust="spacing" textLength="8" x="562.1343" y="300.1851">1</text><text fill="#000000" font-family="sans-serif" font-size="13" lengthAdjust="spacing" textLength="23" x="422.6314" y="346.066">0..*</text></g><!--link InterfaceDescriptionBlock to IPcapBlock--><g id="link_InterfaceDescriptionBlock_IPcapBlock"><path codeLine="50" d="M483.02,519.53 C550.22,545.26 620.22,572.06 670.79,591.42 " fill="none" id="InterfaceDescriptionBlock-to-IPcapBlock" style="stroke:#181818;stroke-width:1.0;stroke-dasharray:7.0,7.0;"/><polygon fill="none" points="673.01,585.16,689.19,598.85,668.01,598.24,673.01,585.16" style="stroke:#181818;stroke-width:1.0;"/></g><!--reverse link InterfaceDescriptionBlock to PacketDecoder--><g id="link_InterfaceDescriptionBlock_PacketDecoder"><path codeLine="53" d="M273,533.36 C273,556.86 273,579.99 273,596.34 " fill="none" id="InterfaceDescriptionBlock-backto-PacketDecoder" style="stroke:#181818;stroke-width:1.0;"/><polygon fill="#181818" points="273,520.53,269,526.53,273,532.53,277,526.53,273,520.53" style="stroke:#181818;stroke-width:1.0;"/></g><!--reverse link DltPcapNgDecoder to BlockReader--><g id="link_DltPcapNgDecoder_BlockReader"><path codeLine="56" d="M744,69.36 C744,83.75 744,100.8 744,117.7 " fill="none" id="DltPcapNgDecoder-backto-BlockReader" style="stroke:#181818;stroke-width:1.0;"/><polygon fill="#181818" points="744,56.44,740,62.44,744,68.44,748,62.44,744,56.44" style="stroke:#181818;stroke-width:1.0;"/></g><!--SRC=[jLLDZzem4BtpAqQSO86elKQ80sArYyHsLmlggTBAc4bmCNPaEwrGFtvxnmuavbDjfSt1nF7uUUQzDuPBPYrCf7lXhFYKJv3h5PfMoo1tJEKIuKSBw17AeSaOHvZwoB7KVBDVya-OJrUfZwi_pb3bRjry-zKAFpmS6NQy8gFJ8fp1zcrgPy8vYVTg9PXAOQcrhDTx3-WUmwREiimoD2buZ6SbT_E2gU5ovt3KJQ7EyMXd-79ZOnyAROKJcewLMkNTz8k2gE06hEBfF_7kLRb5mvOIXqJymX2hCw5mp2oEcYDUqQBhTFVC-L5fXo0nSn5XYpKUKIaiMCSSPgNirq72mRQq3Z9XQ2HfKNn3O31_7DSnJaEE3XpXOM1UeRLzFrSn3cSALg7u4AffCFNwqYTYIM_GXf99pbK_fZ9EVB0QZ9fbI64uv0Qfab75IMIxuS-aJ2Ae27zEjYMwAukSchHtsrfFxAisdz7Oe5TivDwJKDUMdWj_eAqijvyqTXxKhxyJxhJv5xD4oiT4tH5J5-gyJDA5k8YjwQ6f9sYv4I7vCzB8cfl5hi2JkkUA5TJWLQxlGeTN1sGas6M63isz45kSExOjEckHqwrJKhfzYljUlTAbC24t-QZJDdvXV4EjTYiNTm1lKFg-bq_x-o-Q-rpHziTsfMhxGvBSjQ_BSbdZw-5nuuKQ3zTxmBagViZbU0CryUb_H1KMrT7w0m00]--></g></svg>