<?xml version="1.0" encoding="us-ascii" standalone="no"?><svg xmlns="http://www.w3.org/2000/svg" xmlns:xlink="http://www.w3.org/1999/xlink" contentStyleType="text/css" height="502px" preserveAspectRatio="none" style="width:1114px;height:502px;background:#FFFFFF;" version="1.1" viewBox="0 0 1114 502" width="1114px" zoomAndPan="magnify"><defs/><g><!--class IDisposable--><g id="elem_IDisposable"><rect codeLine="2" fill="#F1F1F1" height="48" id="IDisposable" rx="2.5" ry="2.5" style="stroke:#181818;stroke-width:0.5;" width="112" x="781" y="23.3"/><ellipse cx="796" cy="39.3" fill="#B4A7E5" rx="11" ry="11" style="stroke:#181818;stroke-width:1.0;"/><path d="M791.9219,35.0656 L791.9219,32.9094 L799.3125,32.9094 L799.3125,35.0656 L796.8438,35.0656 L796.8438,43.1437 L799.3125,43.1437 L799.3125,45.3 L791.9219,45.3 L791.9219,43.1437 L794.3906,43.1437 L794.3906,35.0656 L791.9219,35.0656 Z " fill="#000000"/><text fill="#000000" font-family="sans-serif" font-size="14" font-style="italic" lengthAdjust="spacing" textLength="80" x="810" y="44.1467">IDisposable</text><line style="stroke:#181818;stroke-width:0.5;" x1="782" x2="892" y1="55.3" y2="55.3"/><line style="stroke:#181818;stroke-width:0.5;" x1="782" x2="892" y1="63.3" y2="63.3"/></g><!--class Exception--><g id="elem_Exception"><rect codeLine="3" fill="#F1F1F1" height="48" id="Exception" rx="2.5" ry="2.5" style="stroke:#181818;stroke-width:0.5;" width="100" x="335" y="447.78"/><ellipse cx="350" cy="463.78" fill="#ADD1B2" rx="11" ry="11" style="stroke:#181818;stroke-width:1.0;"/><path d="M352.9688,469.4206 Q352.3906,469.7175 351.75,469.8581 Q351.1094,470.0144 350.4063,470.0144 Q347.9063,470.0144 346.5781,468.3738 Q345.2656,466.7175 345.2656,463.5925 Q345.2656,460.4675 346.5781,458.8113 Q347.9063,457.155 350.4063,457.155 Q351.1094,457.155 351.75,457.3113 Q352.4063,457.4675 352.9688,457.7644 L352.9688,460.4831 Q352.3438,459.905 351.75,459.6394 Q351.1563,459.3581 350.5313,459.3581 Q349.1875,459.3581 348.5,460.4363 Q347.8125,461.4988 347.8125,463.5925 Q347.8125,465.6863 348.5,466.7644 Q349.1875,467.8269 350.5313,467.8269 Q351.1563,467.8269 351.75,467.5613 Q352.3438,467.28 352.9688,466.7019 L352.9688,469.4206 Z " fill="#000000"/><text fill="#000000" font-family="sans-serif" font-size="14" lengthAdjust="spacing" textLength="68" x="364" y="468.6267">Exception</text><line style="stroke:#181818;stroke-width:0.5;" x1="336" x2="434" y1="479.78" y2="479.78"/><line style="stroke:#181818;stroke-width:0.5;" x1="336" x2="434" y1="487.78" y2="487.78"/></g><!--class InputFormat--><g id="elem_InputFormat"><rect codeLine="5" fill="#F1F1F1" height="96.8906" id="InputFormat" rx="2.5" ry="2.5" style="stroke:#181818;stroke-width:0.5;" width="115" x="992.5" y="156.74"/><ellipse cx="1007.5" cy="172.74" fill="#EB937F" rx="11" ry="11" style="stroke:#181818;stroke-width:1.0;"/><path d="M1011.6094,178.74 L1003.8906,178.74 L1003.8906,166.3494 L1011.6094,166.3494 L1011.6094,168.5056 L1006.3438,168.5056 L1006.3438,171.1775 L1011.1094,171.1775 L1011.1094,173.3337 L1006.3438,173.3337 L1006.3438,176.5837 L1011.6094,176.5837 L1011.6094,178.74 Z " fill="#000000"/><text fill="#000000" font-family="sans-serif" font-size="14" lengthAdjust="spacing" textLength="83" x="1021.5" y="177.5867">InputFormat</text><line style="stroke:#181818;stroke-width:0.5;" x1="993.5" x2="1106.5" y1="188.74" y2="188.74"/><text fill="#000000" font-family="sans-serif" font-size="14" lengthAdjust="spacing" textLength="23" x="998.5" y="205.7351">File</text><text fill="#000000" font-family="sans-serif" font-size="14" lengthAdjust="spacing" textLength="37" x="998.5" y="222.032">Serial</text><text fill="#000000" font-family="sans-serif" font-size="14" lengthAdjust="spacing" textLength="57" x="998.5" y="238.3289">Network</text><line style="stroke:#181818;stroke-width:0.5;" x1="993.5" x2="1106.5" y1="245.6306" y2="245.6306"/></g><!--class IInputStream--><g id="elem_IInputStream"><rect codeLine="11" fill="#F1F1F1" height="113.1875" id="IInputStream" rx="2.5" ry="2.5" style="stroke:#181818;stroke-width:0.5;" width="242" x="716" y="148.59"/><ellipse cx="789.25" cy="164.59" fill="#B4A7E5" rx="11" ry="11" style="stroke:#181818;stroke-width:1.0;"/><path d="M785.1719,160.3556 L785.1719,158.1994 L792.5625,158.1994 L792.5625,160.3556 L790.0938,160.3556 L790.0938,168.4337 L792.5625,168.4337 L792.5625,170.59 L785.1719,170.59 L785.1719,168.4337 L787.6406,168.4337 L787.6406,160.3556 L785.1719,160.3556 Z " fill="#000000"/><text fill="#000000" font-family="sans-serif" font-size="14" font-style="italic" lengthAdjust="spacing" textLength="87" x="809.75" y="169.4367">IInputStream</text><line style="stroke:#181818;stroke-width:0.5;" x1="717" x2="957" y1="180.59" y2="180.59"/><ellipse cx="727" cy="194.2384" fill="none" rx="3" ry="3" style="stroke:#038048;stroke-width:1.0;"/><text fill="#000000" font-family="sans-serif" font-size="14" lengthAdjust="spacing" textLength="142" x="736" y="197.5851">InputStream: Stream</text><ellipse cx="727" cy="210.5353" fill="none" rx="3" ry="3" style="stroke:#038048;stroke-width:1.0;"/><text fill="#000000" font-family="sans-serif" font-size="14" lengthAdjust="spacing" textLength="125" x="736" y="213.882">IsLiveStream: bool</text><ellipse cx="727" cy="226.8322" fill="none" rx="3" ry="3" style="stroke:#038048;stroke-width:1.0;"/><text fill="#000000" font-family="sans-serif" font-size="14" lengthAdjust="spacing" textLength="216" x="736" y="230.1789">SuggestedFormat: InputFormat</text><line style="stroke:#181818;stroke-width:1.0;" x1="717" x2="957" y1="237.4806" y2="237.4806"/><ellipse cx="727" cy="251.1291" fill="#84BE84" rx="3" ry="3" style="stroke:#038048;stroke-width:1.0;"/><text fill="#000000" font-family="sans-serif" font-size="14" lengthAdjust="spacing" textLength="206" x="736" y="254.4757">ConnectAsync(): Task&lt;bool&gt;</text></g><!--class IInputStreamFactory--><g id="elem_IInputStreamFactory"><rect codeLine="21" fill="#F1F1F1" height="80.5938" id="IInputStreamFactory" rx="2.5" ry="2.5" style="stroke:#181818;stroke-width:0.5;" width="243" x="260.5" y="7"/><ellipse cx="309.25" cy="23" fill="#B4A7E5" rx="11" ry="11" style="stroke:#181818;stroke-width:1.0;"/><path d="M305.1719,18.7656 L305.1719,16.6094 L312.5625,16.6094 L312.5625,18.7656 L310.0938,18.7656 L310.0938,26.8438 L312.5625,26.8438 L312.5625,29 L305.1719,29 L305.1719,26.8438 L307.6406,26.8438 L307.6406,18.7656 L305.1719,18.7656 Z " fill="#000000"/><text fill="#000000" font-family="sans-serif" font-size="14" font-style="italic" lengthAdjust="spacing" textLength="137" x="329.75" y="27.8467">IInputStreamFactory</text><line style="stroke:#181818;stroke-width:0.5;" x1="261.5" x2="502.5" y1="39" y2="39"/><line style="stroke:#181818;stroke-width:0.5;" x1="261.5" x2="502.5" y1="47" y2="47"/><ellipse cx="271.5" cy="60.6484" fill="#84BE84" rx="3" ry="3" style="stroke:#038048;stroke-width:1.0;"/><text fill="#000000" font-family="sans-serif" font-size="14" lengthAdjust="spacing" textLength="217" x="280.5" y="63.9951">Create(uri: string): IInputStream</text><ellipse cx="271.5" cy="76.9453" fill="#84BE84" rx="3" ry="3" style="stroke:#038048;stroke-width:1.0;"/><text fill="#000000" font-family="sans-serif" font-size="14" lengthAdjust="spacing" textLength="196" x="280.5" y="80.292">Create(uri: Uri): IInputStream</text></g><!--class InputStreamFactory--><g id="elem_InputStreamFactory"><rect codeLine="26" fill="#F1F1F1" height="48" id="InputStreamFactory" rx="2.5" ry="2.5" style="stroke:#181818;stroke-width:0.5;" width="166" x="182" y="322.78"/><ellipse cx="197" cy="338.78" fill="#ADD1B2" rx="11" ry="11" style="stroke:#181818;stroke-width:1.0;"/><path d="M199.9688,344.4206 Q199.3906,344.7175 198.75,344.8581 Q198.1094,345.0144 197.4063,345.0144 Q194.9063,345.0144 193.5781,343.3738 Q192.2656,341.7175 192.2656,338.5925 Q192.2656,335.4675 193.5781,333.8113 Q194.9063,332.155 197.4063,332.155 Q198.1094,332.155 198.75,332.3113 Q199.4063,332.4675 199.9688,332.7644 L199.9688,335.4831 Q199.3438,334.905 198.75,334.6394 Q198.1563,334.3581 197.5313,334.3581 Q196.1875,334.3581 195.5,335.4363 Q194.8125,336.4988 194.8125,338.5925 Q194.8125,340.6863 195.5,341.7644 Q196.1875,342.8269 197.5313,342.8269 Q198.1563,342.8269 198.75,342.5613 Q199.3438,342.28 199.9688,341.7019 L199.9688,344.4206 Z " fill="#000000"/><text fill="#000000" font-family="sans-serif" font-size="14" lengthAdjust="spacing" textLength="134" x="211" y="343.6267">InputStreamFactory</text><line style="stroke:#181818;stroke-width:0.5;" x1="183" x2="347" y1="354.78" y2="354.78"/><line style="stroke:#181818;stroke-width:0.5;" x1="183" x2="347" y1="362.78" y2="362.78"/></g><!--class InputStreamFactoryBase--><g id="elem_InputStreamFactoryBase"><rect codeLine="30" fill="#F1F1F1" height="48" id="InputStreamFactoryBase" rx="2.5" ry="2.5" style="stroke:#181818;stroke-width:0.5;" width="201" x="281.5" y="181.19"/><ellipse cx="296.5" cy="197.19" fill="#ADD1B2" rx="11" ry="11" style="stroke:#181818;stroke-width:1.0;"/><path d="M299.4688,202.8306 Q298.8906,203.1275 298.25,203.2681 Q297.6094,203.4244 296.9063,203.4244 Q294.4063,203.4244 293.0781,201.7838 Q291.7656,200.1275 291.7656,197.0025 Q291.7656,193.8775 293.0781,192.2213 Q294.4063,190.565 296.9063,190.565 Q297.6094,190.565 298.25,190.7213 Q298.9063,190.8775 299.4688,191.1744 L299.4688,193.8931 Q298.8438,193.315 298.25,193.0494 Q297.6563,192.7681 297.0313,192.7681 Q295.6875,192.7681 295,193.8463 Q294.3125,194.9088 294.3125,197.0025 Q294.3125,199.0963 295,200.1744 Q295.6875,201.2369 297.0313,201.2369 Q297.6563,201.2369 298.25,200.9713 Q298.8438,200.69 299.4688,200.1119 L299.4688,202.8306 Z " fill="#000000"/><text fill="#000000" font-family="sans-serif" font-size="14" lengthAdjust="spacing" textLength="169" x="310.5" y="202.0367">InputStreamFactoryBase</text><line style="stroke:#181818;stroke-width:0.5;" x1="282.5" x2="481.5" y1="213.19" y2="213.19"/><line style="stroke:#181818;stroke-width:0.5;" x1="282.5" x2="481.5" y1="221.19" y2="221.19"/></g><!--class InputStreamException--><g id="elem_InputStreamException"><rect codeLine="35" fill="#F1F1F1" height="48" id="InputStreamException" rx="2.5" ry="2.5" style="stroke:#181818;stroke-width:0.5;" width="184" x="470" y="447.78"/><ellipse cx="485" cy="463.78" fill="#ADD1B2" rx="11" ry="11" style="stroke:#181818;stroke-width:1.0;"/><path d="M487.9688,469.4206 Q487.3906,469.7175 486.75,469.8581 Q486.1094,470.0144 485.4063,470.0144 Q482.9063,470.0144 481.5781,468.3738 Q480.2656,466.7175 480.2656,463.5925 Q480.2656,460.4675 481.5781,458.8113 Q482.9063,457.155 485.4063,457.155 Q486.1094,457.155 486.75,457.3113 Q487.4063,457.4675 487.9688,457.7644 L487.9688,460.4831 Q487.3438,459.905 486.75,459.6394 Q486.1563,459.3581 485.5313,459.3581 Q484.1875,459.3581 483.5,460.4363 Q482.8125,461.4988 482.8125,463.5925 Q482.8125,465.6863 483.5,466.7644 Q484.1875,467.8269 485.5313,467.8269 Q486.1563,467.8269 486.75,467.5613 Q487.3438,467.28 487.9688,466.7019 L487.9688,469.4206 Z " fill="#000000"/><text fill="#000000" font-family="sans-serif" font-size="14" lengthAdjust="spacing" textLength="152" x="499" y="468.6267">InputStreamException</text><line style="stroke:#181818;stroke-width:0.5;" x1="471" x2="653" y1="479.78" y2="479.78"/><line style="stroke:#181818;stroke-width:0.5;" x1="471" x2="653" y1="487.78" y2="487.78"/></g><!--class DltFileStreamFactory--><g id="elem_DltFileStreamFactory"><rect codeLine="38" fill="#F1F1F1" height="48" id="DltFileStreamFactory" rx="2.5" ry="2.5" style="stroke:#181818;stroke-width:0.5;" width="173" x="475.5" y="322.78"/><ellipse cx="490.5" cy="338.78" fill="#ADD1B2" rx="11" ry="11" style="stroke:#181818;stroke-width:1.0;"/><path d="M493.4688,344.4206 Q492.8906,344.7175 492.25,344.8581 Q491.6094,345.0144 490.9063,345.0144 Q488.4063,345.0144 487.0781,343.3738 Q485.7656,341.7175 485.7656,338.5925 Q485.7656,335.4675 487.0781,333.8113 Q488.4063,332.155 490.9063,332.155 Q491.6094,332.155 492.25,332.3113 Q492.9063,332.4675 493.4688,332.7644 L493.4688,335.4831 Q492.8438,334.905 492.25,334.6394 Q491.6563,334.3581 491.0313,334.3581 Q489.6875,334.3581 489,335.4363 Q488.3125,336.4988 488.3125,338.5925 Q488.3125,340.6863 489,341.7644 Q489.6875,342.8269 491.0313,342.8269 Q491.6563,342.8269 492.25,342.5613 Q492.8438,342.28 493.4688,341.7019 L493.4688,344.4206 Z " fill="#000000"/><text fill="#000000" font-family="sans-serif" font-size="14" lengthAdjust="spacing" textLength="141" x="504.5" y="343.6267">DltFileStreamFactory</text><line style="stroke:#181818;stroke-width:0.5;" x1="476.5" x2="647.5" y1="354.78" y2="354.78"/><line style="stroke:#181818;stroke-width:0.5;" x1="476.5" x2="647.5" y1="362.78" y2="362.78"/></g><!--class DltFileStream--><g id="elem_DltFileStream"><rect codeLine="39" fill="#F1F1F1" height="48" id="DltFileStream" rx="2.5" ry="2.5" style="stroke:#181818;stroke-width:0.5;" width="123" x="775.5" y="322.78"/><ellipse cx="790.5" cy="338.78" fill="#ADD1B2" rx="11" ry="11" style="stroke:#181818;stroke-width:1.0;"/><path d="M793.4688,344.4206 Q792.8906,344.7175 792.25,344.8581 Q791.6094,345.0144 790.9063,345.0144 Q788.4063,345.0144 787.0781,343.3738 Q785.7656,341.7175 785.7656,338.5925 Q785.7656,335.4675 787.0781,333.8113 Q788.4063,332.155 790.9063,332.155 Q791.6094,332.155 792.25,332.3113 Q792.9063,332.4675 793.4688,332.7644 L793.4688,335.4831 Q792.8438,334.905 792.25,334.6394 Q791.6563,334.3581 791.0313,334.3581 Q789.6875,334.3581 789,335.4363 Q788.3125,336.4988 788.3125,338.5925 Q788.3125,340.6863 789,341.7644 Q789.6875,342.8269 791.0313,342.8269 Q791.6563,342.8269 792.25,342.5613 Q792.8438,342.28 793.4688,341.7019 L793.4688,344.4206 Z " fill="#000000"/><text fill="#000000" font-family="sans-serif" font-size="14" lengthAdjust="spacing" textLength="91" x="804.5" y="343.6267">DltFileStream</text><line style="stroke:#181818;stroke-width:0.5;" x1="776.5" x2="897.5" y1="354.78" y2="354.78"/><line style="stroke:#181818;stroke-width:0.5;" x1="776.5" x2="897.5" y1="362.78" y2="362.78"/></g><!--class FilterApp--><g id="elem_FilterApp"><rect codeLine="46" fill="#F1F1F1" height="48" id="FilterApp" rx="2.5" ry="2.5" style="stroke:#181818;stroke-width:0.5;" width="92" x="7" y="322.78"/><ellipse cx="22" cy="338.78" fill="#ADD1B2" rx="11" ry="11" style="stroke:#181818;stroke-width:1.0;"/><path d="M24.9688,344.4206 Q24.3906,344.7175 23.75,344.8581 Q23.1094,345.0144 22.4063,345.0144 Q19.9063,345.0144 18.5781,343.3738 Q17.2656,341.7175 17.2656,338.5925 Q17.2656,335.4675 18.5781,333.8113 Q19.9063,332.155 22.4063,332.155 Q23.1094,332.155 23.75,332.3113 Q24.4063,332.4675 24.9688,332.7644 L24.9688,335.4831 Q24.3438,334.905 23.75,334.6394 Q23.1563,334.3581 22.5313,334.3581 Q21.1875,334.3581 20.5,335.4363 Q19.8125,336.4988 19.8125,338.5925 Q19.8125,340.6863 20.5,341.7644 Q21.1875,342.8269 22.5313,342.8269 Q23.1563,342.8269 23.75,342.5613 Q24.3438,342.28 24.9688,341.7019 L24.9688,344.4206 Z " fill="#000000"/><text fill="#000000" font-family="sans-serif" font-size="14" lengthAdjust="spacing" textLength="60" x="36" y="343.6267">FilterApp</text><line style="stroke:#181818;stroke-width:0.5;" x1="8" x2="98" y1="354.78" y2="354.78"/><line style="stroke:#181818;stroke-width:0.5;" x1="8" x2="98" y1="362.78" y2="362.78"/></g><!--reverse link IDisposable to IInputStream--><g id="link_IDisposable_IInputStream"><path codeLine="18" d="M837,92.47 C837,109.83 837,129.95 837,148.3 " fill="none" id="IDisposable-backto-IInputStream" style="stroke:#181818;stroke-width:1.0;stroke-dasharray:7.0,7.0;"/><polygon fill="none" points="830,92.63,837,72.63,844,92.63,830,92.63" style="stroke:#181818;stroke-width:1.0;"/></g><!--link IInputStream to InputFormat--><g id="link_IInputStream_InputFormat"><path codeLine="19" d="M958.48,205.19 C967.75,205.19 977.03,205.19 986.31,205.19 " fill="none" id="IInputStream-to-InputFormat" style="stroke:#181818;stroke-width:1.0;"/><polygon fill="#181818" points="991.08,205.19,982.08,201.19,986.08,205.19,982.08,209.19,991.08,205.19" style="stroke:#181818;stroke-width:1.0;"/></g><!--reverse link IInputStreamFactory to InputStreamFactoryBase--><g id="link_IInputStreamFactory_InputStreamFactoryBase"><path codeLine="32" d="M382,108.85 C382,134.11 382,161.94 382,180.98 " fill="none" id="IInputStreamFactory-backto-InputStreamFactoryBase" style="stroke:#181818;stroke-width:1.0;stroke-dasharray:7.0,7.0;"/><polygon fill="none" points="375,109.04,382,89.04,389,109.04,375,109.04" style="stroke:#181818;stroke-width:1.0;"/></g><!--reverse link InputStreamFactoryBase to InputStreamFactory--><g id="link_InputStreamFactoryBase_InputStreamFactory"><path codeLine="33" d="M349.07,245.47 C328.32,270.23 302.22,301.38 284.65,322.34 " fill="none" id="InputStreamFactoryBase-backto-InputStreamFactory" style="stroke:#181818;stroke-width:1.0;"/><polygon fill="none" points="344.2,241.38,362.42,230.55,354.93,250.38,344.2,241.38" style="stroke:#181818;stroke-width:1.0;"/></g><!--reverse link Exception to InputStreamException--><g id="link_Exception_InputStreamException"><path codeLine="36" d="M456.25,471.78 C460.69,471.78 465.14,471.78 469.58,471.78 " fill="none" id="Exception-backto-InputStreamException" style="stroke:#181818;stroke-width:1.0;"/><polygon fill="none" points="456.47,478.78,436.47,471.78,456.47,464.78,456.47,478.78" style="stroke:#181818;stroke-width:1.0;"/></g><!--reverse link IInputStream to DltFileStream--><g id="link_IInputStream_DltFileStream"><path codeLine="40" d="M837,282.95 C837,297.39 837,311.43 837,322.56 " fill="none" id="IInputStream-backto-DltFileStream" style="stroke:#181818;stroke-width:1.0;stroke-dasharray:7.0,7.0;"/><polygon fill="none" points="830,283.16,837,263.16,844,283.16,830,283.16" style="stroke:#181818;stroke-width:1.0;"/></g><!--reverse link InputStreamFactoryBase to DltFileStreamFactory--><g id="link_InputStreamFactoryBase_DltFileStreamFactory"><path codeLine="41" d="M428.56,242.29 C461.09,267.52 503.58,300.47 531.77,322.34 " fill="none" id="InputStreamFactoryBase-backto-DltFileStreamFactory" style="stroke:#181818;stroke-width:1.0;"/><polygon fill="none" points="424.64,247.34,413.13,229.55,433.22,236.28,424.64,247.34" style="stroke:#181818;stroke-width:1.0;"/></g><!--link InputStreamFactory to DltFileStreamFactory--><g id="link_InputStreamFactory_DltFileStreamFactory"><path codeLine="42" d="M348.13,346.78 C385.83,346.78 430.55,346.78 469.33,346.78 " fill="none" id="InputStreamFactory-to-DltFileStreamFactory" style="stroke:#181818;stroke-width:1.0;"/><polygon fill="#181818" points="474.01,346.78,465.01,342.78,469.01,346.78,465.01,350.78,474.01,346.78" style="stroke:#181818;stroke-width:1.0;"/><text fill="#000000" font-family="sans-serif" font-size="13" lengthAdjust="spacing" textLength="91" x="366.25" y="339.8469">&#171;instantiates&#187;</text></g><!--link DltFileStreamFactory to DltFileStream--><g id="link_DltFileStreamFactory_DltFileStream"><path codeLine="43" d="M648.63,346.78 C687.64,346.78 733,346.78 769.43,346.78 " fill="none" id="DltFileStreamFactory-to-DltFileStream" style="stroke:#181818;stroke-width:1.0;"/><polygon fill="#181818" points="774.2,346.78,765.2,342.78,769.2,346.78,765.2,350.78,774.2,346.78" style="stroke:#181818;stroke-width:1.0;"/><text fill="#000000" font-family="sans-serif" font-size="13" lengthAdjust="spacing" textLength="91" x="666.5" y="339.8469">&#171;instantiates&#187;</text></g><!--link DltFileStreamFactory to InputStreamException--><g id="link_DltFileStreamFactory_InputStreamException"><path codeLine="44" d="M562,371.2 C562,391.21 562,420.08 562,441.58 " fill="none" id="DltFileStreamFactory-to-InputStreamException" style="stroke:#181818;stroke-width:1.0;"/><polygon fill="#181818" points="562,446.44,566,437.44,562,441.44,558,437.44,562,446.44" style="stroke:#181818;stroke-width:1.0;"/><text fill="#000000" font-family="sans-serif" font-size="13" lengthAdjust="spacing" textLength="58" x="563" y="413.8469">&#171;throws&#187;</text></g><!--link FilterApp to InputStreamFactory--><g id="link_FilterApp_InputStreamFactory"><path codeLine="47" d="M99.26,346.78 C121.69,346.78 149.41,346.78 175.73,346.78 " fill="none" id="FilterApp-to-InputStreamFactory" style="stroke:#181818;stroke-width:1.0;"/><polygon fill="#181818" points="180.67,346.78,171.67,342.78,175.67,346.78,171.67,350.78,180.67,346.78" style="stroke:#181818;stroke-width:1.0;"/><text fill="#000000" font-family="sans-serif" font-size="13" lengthAdjust="spacing" textLength="46" x="117.5" y="339.8469">&#171;uses&#187;</text></g><!--SRC=[ZL9BJiCm4DtFARoZg78E44MMIg5I9SIcS00t7OhLr8xiCQMYt1qdQQb374Gs6S_dlJSVfGdjgooHBU-LgusJwmgXhAHpxE6Zn9gKqG2e_PujTUrfOUnU4li45hw52icDiKAhPDMQJqW7OtVm1Q2ku6tjYYpA_Rbs6hborltF0VUetl4IMHlJ0KzNVhj5HxZfDEIne3Q3SzvbpetMMDBC7NKvkStPitIxeW4IGLRKA2jEsIRhgOEUL6wvwD6CzBIG9HbxlBGs3px2YRSgPuwiqjiWeiSoI7knwdTEc62tY24Hm4s2lLCRwyzPKIZjI6fIWSe9COvv9nq2fFqiyzb9f5g6b0xFJsAKOS1_lREKa_6gGOkEiGEuhwWvlxwOH0XwhqGZa4BwkuUnsIUH4Zj8CmuG_b-wuI8vqHQ1tgmvHAiFzU66PtKDFrPqw4FntZNCtm00]--></g></svg>