<?xml version="1.0" encoding="UTF-8" standalone="no"?><svg xmlns="http://www.w3.org/2000/svg" xmlns:xlink="http://www.w3.org/1999/xlink" contentScriptType="application/ecmascript" contentStyleType="text/css" height="496px" preserveAspectRatio="none" style="width:973px;height:496px;background:#FFFFFF;" version="1.1" viewBox="0 0 973 496" width="973px" zoomAndPan="magnify"><defs><filter height="300%" id="fe6qu2jsp7cl1" width="300%" x="-1" y="-1"><feGaussianBlur result="blurOut" stdDeviation="2.0"/><feColorMatrix in="blurOut" result="blurOut2" type="matrix" values="0 0 0 0 0 0 0 0 0 0 0 0 0 0 0 0 0 0 .4 0"/><feOffset dx="4.0" dy="4.0" in="blurOut2" result="blurOut3"/><feBlend in="SourceGraphic" in2="blurOut3" mode="normal"/></filter></defs><g><!--MD5=[fe50a4f6767356ff4dcdadb85ef8cbdd]
class IDisposable--><rect codeLine="2" fill="#FEFECE" filter="url(#fe6qu2jsp7cl1)" height="48" id="IDisposable" style="stroke:#A80036;stroke-width:1.5;" width="99" x="689.5" y="21"/><ellipse cx="704.5" cy="37" fill="#B4A7E5" rx="11" ry="11" style="stroke:#A80036;stroke-width:1.0;"/><path d="M705.4531,33.6406 L705.4531,40.2969 L707.1719,40.2969 Q707.7813,40.2969 708.0469,40.5313 Q708.3125,40.7656 708.3125,41.1563 Q708.3125,41.5313 708.0469,41.7656 Q707.7813,42 707.1719,42 L702.0313,42 Q701.4219,42 701.1563,41.7656 Q700.8906,41.5313 700.8906,41.1406 Q700.8906,40.7656 701.1563,40.5313 Q701.4219,40.2969 702.0313,40.2969 L703.75,40.2969 L703.75,33.6406 L702.0313,33.6406 Q701.4219,33.6406 701.1563,33.4063 Q700.8906,33.1719 700.8906,32.7813 Q700.8906,32.4063 701.1563,32.1719 Q701.4219,31.9375 702.0313,31.9375 L707.1719,31.9375 Q707.7813,31.9375 708.0469,32.1719 Q708.3125,32.4063 708.3125,32.7813 Q708.3125,33.1719 708.0469,33.4063 Q707.7813,33.6406 707.1719,33.6406 L705.4531,33.6406 Z " fill="#000000"/><text fill="#000000" font-family="sans-serif" font-size="12" font-style="italic" lengthAdjust="spacing" textLength="67" x="718.5" y="41.9102">IDisposable</text><line style="stroke:#A80036;stroke-width:1.5;" x1="690.5" x2="787.5" y1="53" y2="53"/><line style="stroke:#A80036;stroke-width:1.5;" x1="690.5" x2="787.5" y1="61" y2="61"/><!--MD5=[8db60afef7a3447bbe27c5ed187fdac2]
class Exception--><rect codeLine="3" fill="#FEFECE" filter="url(#fe6qu2jsp7cl1)" height="48" id="Exception" style="stroke:#A80036;stroke-width:1.5;" width="85" x="298.5" y="434"/><ellipse cx="313.5" cy="450" fill="#ADD1B2" rx="11" ry="11" style="stroke:#A80036;stroke-width:1.0;"/><path d="M316.2656,445.875 Q316.4219,445.6563 316.6094,445.5469 Q316.7969,445.4375 317.0156,445.4375 Q317.3906,445.4375 317.625,445.6953 Q317.8594,445.9531 317.8594,446.5625 L317.8594,448.0156 Q317.8594,448.625 317.625,448.8906 Q317.3906,449.1563 317.0156,449.1563 Q316.6719,449.1563 316.4688,448.9531 Q316.2656,448.7656 316.1563,448.25 Q316.1094,447.8906 315.9219,447.7031 Q315.5938,447.3281 314.9844,447.1094 Q314.375,446.8906 313.75,446.8906 Q312.9844,446.8906 312.3516,447.2188 Q311.7188,447.5469 311.2266,448.2969 Q310.7344,449.0469 310.7344,450.0781 L310.7344,451.1719 Q310.7344,452.4063 311.625,453.2266 Q312.5156,454.0469 314.1094,454.0469 Q315.0469,454.0469 315.7031,453.7969 Q316.0938,453.6406 316.5156,453.2031 Q316.7813,452.9375 316.9297,452.8594 Q317.0781,452.7813 317.2813,452.7813 Q317.6094,452.7813 317.8672,453.0391 Q318.125,453.2969 318.125,453.6406 Q318.125,453.9844 317.7813,454.3906 Q317.2813,454.9688 316.4844,455.2969 Q315.4063,455.75 314.1094,455.75 Q312.5938,455.75 311.3906,455.125 Q310.4063,454.625 309.7188,453.5547 Q309.0313,452.4844 309.0313,451.2031 L309.0313,450.0469 Q309.0313,448.7188 309.6484,447.5703 Q310.2656,446.4219 311.3594,445.8047 Q312.4531,445.1875 313.6875,445.1875 Q314.4219,445.1875 315.0703,445.3516 Q315.7188,445.5156 316.2656,445.875 Z " fill="#000000"/><text fill="#000000" font-family="sans-serif" font-size="12" lengthAdjust="spacing" textLength="53" x="327.5" y="454.9102">Exception</text><line style="stroke:#A80036;stroke-width:1.5;" x1="299.5" x2="382.5" y1="466" y2="466"/><line style="stroke:#A80036;stroke-width:1.5;" x1="299.5" x2="382.5" y1="474" y2="474"/><!--MD5=[52ecd488c004e023ed21b6979d0767dc]
class InputFormat--><rect codeLine="5" fill="#FEFECE" filter="url(#fe6qu2jsp7cl1)" height="89.5078" id="InputFormat" style="stroke:#A80036;stroke-width:1.5;" width="98" x="861" y="150.5"/><ellipse cx="876" cy="166.5" fill="#EB937F" rx="11" ry="11" style="stroke:#A80036;stroke-width:1.0;"/><path d="M874.8594,167.2969 L874.8594,169.7969 L879.1875,169.7969 L879.1875,168.875 Q879.1875,168.2656 879.4297,168 Q879.6719,167.7344 880.0469,167.7344 Q880.4219,167.7344 880.6563,168 Q880.8906,168.2656 880.8906,168.875 L880.8906,171.5 L872.8906,171.5 Q872.2656,171.5 872.0078,171.2656 Q871.75,171.0313 871.75,170.6406 Q871.75,170.2656 872.0156,170.0313 Q872.2813,169.7969 872.8906,169.7969 L873.1563,169.7969 L873.1563,163.1406 L872.8906,163.1406 Q872.2656,163.1406 872.0078,162.9063 Q871.75,162.6719 871.75,162.2813 Q871.75,161.9063 872.0078,161.6719 Q872.2656,161.4375 872.8906,161.4375 L880.5156,161.4375 L880.5156,164.0313 Q880.5156,164.6406 880.2891,164.8984 Q880.0625,165.1563 879.6719,165.1563 Q879.2969,165.1563 879.0625,164.8984 Q878.8281,164.6406 878.8281,164.0313 L878.8281,163.1406 L874.8594,163.1406 L874.8594,165.5938 L876.3438,165.5938 Q876.3438,164.9375 876.4688,164.75 Q876.7344,164.3438 877.2031,164.3438 Q877.5781,164.3438 877.8125,164.6016 Q878.0469,164.8594 878.0469,165.4688 L878.0469,167.4375 Q878.0469,167.9844 877.9219,168.1719 Q877.6563,168.5625 877.2031,168.5625 Q876.7344,168.5625 876.4688,168.1563 Q876.3438,167.9688 876.3438,167.2969 L874.8594,167.2969 Z " fill="#000000"/><text fill="#000000" font-family="sans-serif" font-size="12" lengthAdjust="spacing" textLength="66" x="890" y="171.4102">InputFormat</text><line style="stroke:#A80036;stroke-width:1.5;" x1="862" x2="958" y1="182.5" y2="182.5"/><text fill="#000000" font-family="sans-serif" font-size="11" lengthAdjust="spacing" textLength="16" x="867" y="197.9189">File</text><text fill="#000000" font-family="sans-serif" font-size="11" lengthAdjust="spacing" textLength="27" x="867" y="211.7549">Serial</text><text fill="#000000" font-family="sans-serif" font-size="11" lengthAdjust="spacing" textLength="41" x="867" y="225.5908">Network</text><line style="stroke:#A80036;stroke-width:1.5;" x1="862" x2="958" y1="232.0078" y2="232.0078"/><!--MD5=[416f29f05739e99af2c75503003a72b3]
class IInputStream--><rect codeLine="11" fill="#FEFECE" filter="url(#fe6qu2jsp7cl1)" height="103.3438" id="IInputStream" style="stroke:#A80036;stroke-width:1.5;" width="173" x="652.5" y="144"/><ellipse cx="698.75" cy="160" fill="#B4A7E5" rx="11" ry="11" style="stroke:#A80036;stroke-width:1.0;"/><path d="M699.7031,156.6406 L699.7031,163.2969 L701.4219,163.2969 Q702.0313,163.2969 702.2969,163.5313 Q702.5625,163.7656 702.5625,164.1563 Q702.5625,164.5313 702.2969,164.7656 Q702.0313,165 701.4219,165 L696.2813,165 Q695.6719,165 695.4063,164.7656 Q695.1406,164.5313 695.1406,164.1406 Q695.1406,163.7656 695.4063,163.5313 Q695.6719,163.2969 696.2813,163.2969 L698,163.2969 L698,156.6406 L696.2813,156.6406 Q695.6719,156.6406 695.4063,156.4063 Q695.1406,156.1719 695.1406,155.7813 Q695.1406,155.4063 695.4063,155.1719 Q695.6719,154.9375 696.2813,154.9375 L701.4219,154.9375 Q702.0313,154.9375 702.2969,155.1719 Q702.5625,155.4063 702.5625,155.7813 Q702.5625,156.1719 702.2969,156.4063 Q702.0313,156.6406 701.4219,156.6406 L699.7031,156.6406 Z " fill="#000000"/><text fill="#000000" font-family="sans-serif" font-size="12" font-style="italic" lengthAdjust="spacing" textLength="72" x="719.25" y="164.9102">IInputStream</text><line style="stroke:#A80036;stroke-width:1.5;" x1="653.5" x2="824.5" y1="176" y2="176"/><ellipse cx="663.5" cy="187" rx="3" ry="3" style="stroke:#038048;stroke-width:1.0;fill:none;"/><text fill="#000000" font-family="sans-serif" font-size="11" lengthAdjust="spacing" textLength="97" x="672.5" y="191.4189">InputStream: Stream</text><ellipse cx="663.5" cy="200.8359" rx="3" ry="3" style="stroke:#038048;stroke-width:1.0;fill:none;"/><text fill="#000000" font-family="sans-serif" font-size="11" lengthAdjust="spacing" textLength="88" x="672.5" y="205.2549">IsLiveStream: bool</text><ellipse cx="663.5" cy="214.6719" rx="3" ry="3" style="stroke:#038048;stroke-width:1.0;fill:none;"/><text fill="#000000" font-family="sans-serif" font-size="11" lengthAdjust="spacing" textLength="147" x="672.5" y="219.0908">SuggestedFormat: InputFormat</text><line style="stroke:#A80036;stroke-width:1.0;" x1="653.5" x2="824.5" y1="225.5078" y2="225.5078"/><ellipse cx="663.5" cy="236.5078" fill="#84BE84" rx="3" ry="3" style="stroke:#038048;stroke-width:1.0;"/><text fill="#000000" font-family="sans-serif" font-size="11" lengthAdjust="spacing" textLength="141" x="672.5" y="240.9268">ConnectAsync(): Task&lt;bool&gt;</text><!--MD5=[801e12127f986c60680e5ae20fa16eb2]
class IInputStreamFactory--><rect codeLine="21" fill="#FEFECE" filter="url(#fe6qu2jsp7cl1)" height="75.6719" id="IInputStreamFactory" style="stroke:#A80036;stroke-width:1.5;" width="176" x="250" y="7"/><ellipse cx="279.4" cy="23" fill="#B4A7E5" rx="11" ry="11" style="stroke:#A80036;stroke-width:1.0;"/><path d="M280.3531,19.6406 L280.3531,26.2969 L282.0719,26.2969 Q282.6813,26.2969 282.9469,26.5313 Q283.2125,26.7656 283.2125,27.1563 Q283.2125,27.5313 282.9469,27.7656 Q282.6813,28 282.0719,28 L276.9313,28 Q276.3219,28 276.0563,27.7656 Q275.7906,27.5313 275.7906,27.1406 Q275.7906,26.7656 276.0563,26.5313 Q276.3219,26.2969 276.9313,26.2969 L278.65,26.2969 L278.65,19.6406 L276.9313,19.6406 Q276.3219,19.6406 276.0563,19.4063 Q275.7906,19.1719 275.7906,18.7813 Q275.7906,18.4063 276.0563,18.1719 Q276.3219,17.9375 276.9313,17.9375 L282.0719,17.9375 Q282.6813,17.9375 282.9469,18.1719 Q283.2125,18.4063 283.2125,18.7813 Q283.2125,19.1719 282.9469,19.4063 Q282.6813,19.6406 282.0719,19.6406 L280.3531,19.6406 Z " fill="#000000"/><text fill="#000000" font-family="sans-serif" font-size="12" font-style="italic" lengthAdjust="spacing" textLength="112" x="296.6" y="27.9102">IInputStreamFactory</text><line style="stroke:#A80036;stroke-width:1.5;" x1="251" x2="425" y1="39" y2="39"/><line style="stroke:#A80036;stroke-width:1.5;" x1="251" x2="425" y1="47" y2="47"/><ellipse cx="261" cy="58" fill="#84BE84" rx="3" ry="3" style="stroke:#038048;stroke-width:1.0;"/><text fill="#000000" font-family="sans-serif" font-size="11" lengthAdjust="spacing" textLength="150" x="270" y="62.4189">Create(uri: string): IInputStream</text><ellipse cx="261" cy="71.8359" fill="#84BE84" rx="3" ry="3" style="stroke:#038048;stroke-width:1.0;"/><text fill="#000000" font-family="sans-serif" font-size="11" lengthAdjust="spacing" textLength="136" x="270" y="76.2549">Create(uri: Uri): IInputStream</text><!--MD5=[533a61cfda27bb6a682653b6e5ebf110]
class InputStreamFactory--><rect codeLine="26" fill="#FEFECE" filter="url(#fe6qu2jsp7cl1)" height="48" id="InputStreamFactory" style="stroke:#A80036;stroke-width:1.5;" width="138" x="166" y="308"/><ellipse cx="181" cy="324" fill="#ADD1B2" rx="11" ry="11" style="stroke:#A80036;stroke-width:1.0;"/><path d="M183.7656,319.875 Q183.9219,319.6563 184.1094,319.5469 Q184.2969,319.4375 184.5156,319.4375 Q184.8906,319.4375 185.125,319.6953 Q185.3594,319.9531 185.3594,320.5625 L185.3594,322.0156 Q185.3594,322.625 185.125,322.8906 Q184.8906,323.1563 184.5156,323.1563 Q184.1719,323.1563 183.9688,322.9531 Q183.7656,322.7656 183.6563,322.25 Q183.6094,321.8906 183.4219,321.7031 Q183.0938,321.3281 182.4844,321.1094 Q181.875,320.8906 181.25,320.8906 Q180.4844,320.8906 179.8516,321.2188 Q179.2188,321.5469 178.7266,322.2969 Q178.2344,323.0469 178.2344,324.0781 L178.2344,325.1719 Q178.2344,326.4063 179.125,327.2266 Q180.0156,328.0469 181.6094,328.0469 Q182.5469,328.0469 183.2031,327.7969 Q183.5938,327.6406 184.0156,327.2031 Q184.2813,326.9375 184.4297,326.8594 Q184.5781,326.7813 184.7813,326.7813 Q185.1094,326.7813 185.3672,327.0391 Q185.625,327.2969 185.625,327.6406 Q185.625,327.9844 185.2813,328.3906 Q184.7813,328.9688 183.9844,329.2969 Q182.9063,329.75 181.6094,329.75 Q180.0938,329.75 178.8906,329.125 Q177.9063,328.625 177.2188,327.5547 Q176.5313,326.4844 176.5313,325.2031 L176.5313,324.0469 Q176.5313,322.7188 177.1484,321.5703 Q177.7656,320.4219 178.8594,319.8047 Q179.9531,319.1875 181.1875,319.1875 Q181.9219,319.1875 182.5703,319.3516 Q183.2188,319.5156 183.7656,319.875 Z " fill="#000000"/><text fill="#000000" font-family="sans-serif" font-size="12" lengthAdjust="spacing" textLength="106" x="195" y="328.9102">InputStreamFactory</text><line style="stroke:#A80036;stroke-width:1.5;" x1="167" x2="303" y1="340" y2="340"/><line style="stroke:#A80036;stroke-width:1.5;" x1="167" x2="303" y1="348" y2="348"/><!--MD5=[696b4c8d6d3f5e93dc8482ab530022e7]
class InputStreamFactoryBase--><rect codeLine="30" fill="#FEFECE" filter="url(#fe6qu2jsp7cl1)" height="48" id="InputStreamFactoryBase" style="stroke:#A80036;stroke-width:1.5;" width="167" x="254.5" y="171.5"/><ellipse cx="269.5" cy="187.5" fill="#ADD1B2" rx="11" ry="11" style="stroke:#A80036;stroke-width:1.0;"/><path d="M272.2656,183.375 Q272.4219,183.1563 272.6094,183.0469 Q272.7969,182.9375 273.0156,182.9375 Q273.3906,182.9375 273.625,183.1953 Q273.8594,183.4531 273.8594,184.0625 L273.8594,185.5156 Q273.8594,186.125 273.625,186.3906 Q273.3906,186.6563 273.0156,186.6563 Q272.6719,186.6563 272.4688,186.4531 Q272.2656,186.2656 272.1563,185.75 Q272.1094,185.3906 271.9219,185.2031 Q271.5938,184.8281 270.9844,184.6094 Q270.375,184.3906 269.75,184.3906 Q268.9844,184.3906 268.3516,184.7188 Q267.7188,185.0469 267.2266,185.7969 Q266.7344,186.5469 266.7344,187.5781 L266.7344,188.6719 Q266.7344,189.9063 267.625,190.7266 Q268.5156,191.5469 270.1094,191.5469 Q271.0469,191.5469 271.7031,191.2969 Q272.0938,191.1406 272.5156,190.7031 Q272.7813,190.4375 272.9297,190.3594 Q273.0781,190.2813 273.2813,190.2813 Q273.6094,190.2813 273.8672,190.5391 Q274.125,190.7969 274.125,191.1406 Q274.125,191.4844 273.7813,191.8906 Q273.2813,192.4688 272.4844,192.7969 Q271.4063,193.25 270.1094,193.25 Q268.5938,193.25 267.3906,192.625 Q266.4063,192.125 265.7188,191.0547 Q265.0313,189.9844 265.0313,188.7031 L265.0313,187.5469 Q265.0313,186.2188 265.6484,185.0703 Q266.2656,183.9219 267.3594,183.3047 Q268.4531,182.6875 269.6875,182.6875 Q270.4219,182.6875 271.0703,182.8516 Q271.7188,183.0156 272.2656,183.375 Z " fill="#000000"/><text fill="#000000" font-family="sans-serif" font-size="12" lengthAdjust="spacing" textLength="135" x="283.5" y="192.4102">InputStreamFactoryBase</text><line style="stroke:#A80036;stroke-width:1.5;" x1="255.5" x2="420.5" y1="203.5" y2="203.5"/><line style="stroke:#A80036;stroke-width:1.5;" x1="255.5" x2="420.5" y1="211.5" y2="211.5"/><!--MD5=[ac6e60376a8c617ec638f86be5cfe023]
class InputStreamException--><rect codeLine="35" fill="#FEFECE" filter="url(#fe6qu2jsp7cl1)" height="48" id="InputStreamException" style="stroke:#A80036;stroke-width:1.5;" width="152" x="419" y="434"/><ellipse cx="434" cy="450" fill="#ADD1B2" rx="11" ry="11" style="stroke:#A80036;stroke-width:1.0;"/><path d="M436.7656,445.875 Q436.9219,445.6563 437.1094,445.5469 Q437.2969,445.4375 437.5156,445.4375 Q437.8906,445.4375 438.125,445.6953 Q438.3594,445.9531 438.3594,446.5625 L438.3594,448.0156 Q438.3594,448.625 438.125,448.8906 Q437.8906,449.1563 437.5156,449.1563 Q437.1719,449.1563 436.9688,448.9531 Q436.7656,448.7656 436.6563,448.25 Q436.6094,447.8906 436.4219,447.7031 Q436.0938,447.3281 435.4844,447.1094 Q434.875,446.8906 434.25,446.8906 Q433.4844,446.8906 432.8516,447.2188 Q432.2188,447.5469 431.7266,448.2969 Q431.2344,449.0469 431.2344,450.0781 L431.2344,451.1719 Q431.2344,452.4063 432.125,453.2266 Q433.0156,454.0469 434.6094,454.0469 Q435.5469,454.0469 436.2031,453.7969 Q436.5938,453.6406 437.0156,453.2031 Q437.2813,452.9375 437.4297,452.8594 Q437.5781,452.7813 437.7813,452.7813 Q438.1094,452.7813 438.3672,453.0391 Q438.625,453.2969 438.625,453.6406 Q438.625,453.9844 438.2813,454.3906 Q437.7813,454.9688 436.9844,455.2969 Q435.9063,455.75 434.6094,455.75 Q433.0938,455.75 431.8906,455.125 Q430.9063,454.625 430.2188,453.5547 Q429.5313,452.4844 429.5313,451.2031 L429.5313,450.0469 Q429.5313,448.7188 430.1484,447.5703 Q430.7656,446.4219 431.8594,445.8047 Q432.9531,445.1875 434.1875,445.1875 Q434.9219,445.1875 435.5703,445.3516 Q436.2188,445.5156 436.7656,445.875 Z " fill="#000000"/><text fill="#000000" font-family="sans-serif" font-size="12" lengthAdjust="spacing" textLength="120" x="448" y="454.9102">InputStreamException</text><line style="stroke:#A80036;stroke-width:1.5;" x1="420" x2="570" y1="466" y2="466"/><line style="stroke:#A80036;stroke-width:1.5;" x1="420" x2="570" y1="474" y2="474"/><!--MD5=[de3a00eed9c145cd4a6006d2e3b3cea6]
class DltFileStreamFactory--><rect codeLine="38" fill="#FEFECE" filter="url(#fe6qu2jsp7cl1)" height="48" id="DltFileStreamFactory" style="stroke:#A80036;stroke-width:1.5;" width="146" x="422" y="308"/><ellipse cx="437" cy="324" fill="#ADD1B2" rx="11" ry="11" style="stroke:#A80036;stroke-width:1.0;"/><path d="M439.7656,319.875 Q439.9219,319.6563 440.1094,319.5469 Q440.2969,319.4375 440.5156,319.4375 Q440.8906,319.4375 441.125,319.6953 Q441.3594,319.9531 441.3594,320.5625 L441.3594,322.0156 Q441.3594,322.625 441.125,322.8906 Q440.8906,323.1563 440.5156,323.1563 Q440.1719,323.1563 439.9688,322.9531 Q439.7656,322.7656 439.6563,322.25 Q439.6094,321.8906 439.4219,321.7031 Q439.0938,321.3281 438.4844,321.1094 Q437.875,320.8906 437.25,320.8906 Q436.4844,320.8906 435.8516,321.2188 Q435.2188,321.5469 434.7266,322.2969 Q434.2344,323.0469 434.2344,324.0781 L434.2344,325.1719 Q434.2344,326.4063 435.125,327.2266 Q436.0156,328.0469 437.6094,328.0469 Q438.5469,328.0469 439.2031,327.7969 Q439.5938,327.6406 440.0156,327.2031 Q440.2813,326.9375 440.4297,326.8594 Q440.5781,326.7813 440.7813,326.7813 Q441.1094,326.7813 441.3672,327.0391 Q441.625,327.2969 441.625,327.6406 Q441.625,327.9844 441.2813,328.3906 Q440.7813,328.9688 439.9844,329.2969 Q438.9063,329.75 437.6094,329.75 Q436.0938,329.75 434.8906,329.125 Q433.9063,328.625 433.2188,327.5547 Q432.5313,326.4844 432.5313,325.2031 L432.5313,324.0469 Q432.5313,322.7188 433.1484,321.5703 Q433.7656,320.4219 434.8594,319.8047 Q435.9531,319.1875 437.1875,319.1875 Q437.9219,319.1875 438.5703,319.3516 Q439.2188,319.5156 439.7656,319.875 Z " fill="#000000"/><text fill="#000000" font-family="sans-serif" font-size="12" lengthAdjust="spacing" textLength="114" x="451" y="328.9102">DltFileStreamFactory</text><line style="stroke:#A80036;stroke-width:1.5;" x1="423" x2="567" y1="340" y2="340"/><line style="stroke:#A80036;stroke-width:1.5;" x1="423" x2="567" y1="348" y2="348"/><!--MD5=[691699ab9d0bda6728d549f8ff77e867]
class DltFileStream--><rect codeLine="39" fill="#FEFECE" filter="url(#fe6qu2jsp7cl1)" height="48" id="DltFileStream" style="stroke:#A80036;stroke-width:1.5;" width="107" x="685.5" y="308"/><ellipse cx="700.5" cy="324" fill="#ADD1B2" rx="11" ry="11" style="stroke:#A80036;stroke-width:1.0;"/><path d="M703.2656,319.875 Q703.4219,319.6563 703.6094,319.5469 Q703.7969,319.4375 704.0156,319.4375 Q704.3906,319.4375 704.625,319.6953 Q704.8594,319.9531 704.8594,320.5625 L704.8594,322.0156 Q704.8594,322.625 704.625,322.8906 Q704.3906,323.1563 704.0156,323.1563 Q703.6719,323.1563 703.4688,322.9531 Q703.2656,322.7656 703.1563,322.25 Q703.1094,321.8906 702.9219,321.7031 Q702.5938,321.3281 701.9844,321.1094 Q701.375,320.8906 700.75,320.8906 Q699.9844,320.8906 699.3516,321.2188 Q698.7188,321.5469 698.2266,322.2969 Q697.7344,323.0469 697.7344,324.0781 L697.7344,325.1719 Q697.7344,326.4063 698.625,327.2266 Q699.5156,328.0469 701.1094,328.0469 Q702.0469,328.0469 702.7031,327.7969 Q703.0938,327.6406 703.5156,327.2031 Q703.7813,326.9375 703.9297,326.8594 Q704.0781,326.7813 704.2813,326.7813 Q704.6094,326.7813 704.8672,327.0391 Q705.125,327.2969 705.125,327.6406 Q705.125,327.9844 704.7813,328.3906 Q704.2813,328.9688 703.4844,329.2969 Q702.4063,329.75 701.1094,329.75 Q699.5938,329.75 698.3906,329.125 Q697.4063,328.625 696.7188,327.5547 Q696.0313,326.4844 696.0313,325.2031 L696.0313,324.0469 Q696.0313,322.7188 696.6484,321.5703 Q697.2656,320.4219 698.3594,319.8047 Q699.4531,319.1875 700.6875,319.1875 Q701.4219,319.1875 702.0703,319.3516 Q702.7188,319.5156 703.2656,319.875 Z " fill="#000000"/><text fill="#000000" font-family="sans-serif" font-size="12" lengthAdjust="spacing" textLength="75" x="714.5" y="328.9102">DltFileStream</text><line style="stroke:#A80036;stroke-width:1.5;" x1="686.5" x2="791.5" y1="340" y2="340"/><line style="stroke:#A80036;stroke-width:1.5;" x1="686.5" x2="791.5" y1="348" y2="348"/><!--MD5=[2f8077cf50840f685548e9ba38461c6c]
class FilterApp--><rect codeLine="46" fill="#FEFECE" filter="url(#fe6qu2jsp7cl1)" height="48" id="FilterApp" style="stroke:#A80036;stroke-width:1.5;" width="80" x="7" y="308"/><ellipse cx="22" cy="324" fill="#ADD1B2" rx="11" ry="11" style="stroke:#A80036;stroke-width:1.0;"/><path d="M24.7656,319.875 Q24.9219,319.6563 25.1094,319.5469 Q25.2969,319.4375 25.5156,319.4375 Q25.8906,319.4375 26.125,319.6953 Q26.3594,319.9531 26.3594,320.5625 L26.3594,322.0156 Q26.3594,322.625 26.125,322.8906 Q25.8906,323.1563 25.5156,323.1563 Q25.1719,323.1563 24.9688,322.9531 Q24.7656,322.7656 24.6563,322.25 Q24.6094,321.8906 24.4219,321.7031 Q24.0938,321.3281 23.4844,321.1094 Q22.875,320.8906 22.25,320.8906 Q21.4844,320.8906 20.8516,321.2188 Q20.2188,321.5469 19.7266,322.2969 Q19.2344,323.0469 19.2344,324.0781 L19.2344,325.1719 Q19.2344,326.4063 20.125,327.2266 Q21.0156,328.0469 22.6094,328.0469 Q23.5469,328.0469 24.2031,327.7969 Q24.5938,327.6406 25.0156,327.2031 Q25.2813,326.9375 25.4297,326.8594 Q25.5781,326.7813 25.7813,326.7813 Q26.1094,326.7813 26.3672,327.0391 Q26.625,327.2969 26.625,327.6406 Q26.625,327.9844 26.2813,328.3906 Q25.7813,328.9688 24.9844,329.2969 Q23.9063,329.75 22.6094,329.75 Q21.0938,329.75 19.8906,329.125 Q18.9063,328.625 18.2188,327.5547 Q17.5313,326.4844 17.5313,325.2031 L17.5313,324.0469 Q17.5313,322.7188 18.1484,321.5703 Q18.7656,320.4219 19.8594,319.8047 Q20.9531,319.1875 22.1875,319.1875 Q22.9219,319.1875 23.5703,319.3516 Q24.2188,319.5156 24.7656,319.875 Z " fill="#000000"/><text fill="#000000" font-family="sans-serif" font-size="12" lengthAdjust="spacing" textLength="48" x="36" y="328.9102">FilterApp</text><line style="stroke:#A80036;stroke-width:1.5;" x1="8" x2="86" y1="340" y2="340"/><line style="stroke:#A80036;stroke-width:1.5;" x1="8" x2="86" y1="348" y2="348"/><!--MD5=[b2801c47605e8a54d68c371d87b0106e]
reverse link IDisposable to IInputStream--><path codeLine="18" d="M739,89.37 C739,106.42 739,126.11 739,143.81 " fill="none" id="IDisposable-backto-IInputStream" style="stroke:#A80036;stroke-width:1.0;stroke-dasharray:7.0,7.0;"/><polygon fill="none" points="732,89.2,739,69.2,746,89.2,732,89.2" style="stroke:#A80036;stroke-width:1.0;"/><!--MD5=[0df69d0f4f66a3d168595e374972cb0a]
link IInputStream to InputFormat--><path codeLine="19" d="M825.5,195.5 C835.53,195.5 845.55,195.5 855.58,195.5 " fill="none" id="IInputStream-to-InputFormat" style="stroke:#A80036;stroke-width:1.0;"/><polygon fill="#A80036" points="860.82,195.5,851.82,191.5,855.82,195.5,851.82,199.5,860.82,195.5" style="stroke:#A80036;stroke-width:1.0;"/><!--MD5=[53787cf61af5d6b58a6001d4852b9725]
reverse link IInputStreamFactory to InputStreamFactoryBase--><path codeLine="32" d="M338,103.42 C338,127.07 338,153.13 338,171.29 " fill="none" id="IInputStreamFactory-backto-InputStreamFactoryBase" style="stroke:#A80036;stroke-width:1.0;stroke-dasharray:7.0,7.0;"/><polygon fill="none" points="331,103.09,338,83.09,345,103.09,331,103.09" style="stroke:#A80036;stroke-width:1.0;"/><!--MD5=[c980135c9bdea859af68d5dc7d42f764]
reverse link InputStreamFactoryBase to InputStreamFactory--><path codeLine="33" d="M307.9,235.81 C290.02,259.15 267.96,287.96 252.82,307.73 " fill="none" id="InputStreamFactoryBase-backto-InputStreamFactory" style="stroke:#A80036;stroke-width:1.0;"/><polygon fill="none" points="302.58,231.24,320.29,219.62,313.69,239.76,302.58,231.24" style="stroke:#A80036;stroke-width:1.0;"/><!--MD5=[cec22b66baac48534d653581993fe5b3]
reverse link Exception to InputStreamException--><path codeLine="36" d="M403.79,458 C408.84,458 413.88,458 418.92,458 " fill="none" id="Exception-backto-InputStreamException" style="stroke:#A80036;stroke-width:1.0;"/><polygon fill="none" points="403.71,465,383.71,458,403.71,451,403.71,465" style="stroke:#A80036;stroke-width:1.0;"/><!--MD5=[b797f6161b2223ea4c4b967264ae1c4a]
reverse link IInputStream to DltFileStream--><path codeLine="40" d="M739,267.52 C739,282.13 739,296.5 739,307.87 " fill="none" id="IInputStream-backto-DltFileStream" style="stroke:#A80036;stroke-width:1.0;stroke-dasharray:7.0,7.0;"/><polygon fill="none" points="732,267.35,739,247.35,746,267.35,732,267.35" style="stroke:#A80036;stroke-width:1.0;"/><!--MD5=[e47433e78fa6e0f56e3144b8df47e575]
reverse link InputStreamFactoryBase to DltFileStreamFactory--><path codeLine="41" d="M380.38,232.81 C408.3,256.73 444.02,287.32 468.1,307.96 " fill="none" id="InputStreamFactoryBase-backto-DltFileStreamFactory" style="stroke:#A80036;stroke-width:1.0;"/><polygon fill="none" points="375.62,237.95,364.99,219.62,384.73,227.32,375.62,237.95" style="stroke:#A80036;stroke-width:1.0;"/><!--MD5=[64138d219b3441d90aee244a3d0eeebd]
link InputStreamFactory to DltFileStreamFactory--><path codeLine="42" d="M304.33,332 C338.89,332 380.81,332 416.54,332 " fill="none" id="InputStreamFactory-to-DltFileStreamFactory" style="stroke:#A80036;stroke-width:1.0;"/><polygon fill="#A80036" points="421.77,332,412.77,328,416.77,332,412.77,336,421.77,332" style="stroke:#A80036;stroke-width:1.0;"/><text fill="#000000" font-family="sans-serif" font-size="13" lengthAdjust="spacing" textLength="81" x="322.5" y="325.4951">«instantiates»</text><!--MD5=[9375a20bcabf38d5a989e38f5149cf56]
link DltFileStreamFactory to DltFileStream--><path codeLine="43" d="M568.21,332 C603.92,332 646.31,332 679.92,332 " fill="none" id="DltFileStreamFactory-to-DltFileStream" style="stroke:#A80036;stroke-width:1.0;"/><polygon fill="#A80036" points="685.24,332,676.24,328,680.24,332,676.24,336,685.24,332" style="stroke:#A80036;stroke-width:1.0;"/><text fill="#000000" font-family="sans-serif" font-size="13" lengthAdjust="spacing" textLength="81" x="586.25" y="325.4951">«instantiates»</text><!--MD5=[8ed88946b3f1795c6fff8e8e78ce46f6]
link DltFileStreamFactory to InputStreamException--><path codeLine="44" d="M495,356.03 C495,376.52 495,406.56 495,428.55 " fill="none" id="DltFileStreamFactory-to-InputStreamException" style="stroke:#A80036;stroke-width:1.0;"/><polygon fill="#A80036" points="495,433.67,499,424.67,495,428.67,491,424.67,495,433.67" style="stroke:#A80036;stroke-width:1.0;"/><text fill="#000000" font-family="sans-serif" font-size="13" lengthAdjust="spacing" textLength="52" x="496" y="400.4951">«throws»</text><!--MD5=[234d0080154830acba1b50a8ec51d1cd]
link FilterApp to InputStreamFactory--><path codeLine="47" d="M87.33,332 C108.68,332 135.6,332 160.58,332 " fill="none" id="FilterApp-to-InputStreamFactory" style="stroke:#A80036;stroke-width:1.0;"/><polygon fill="#A80036" points="165.88,332,156.88,328,160.88,332,156.88,336,165.88,332" style="stroke:#A80036;stroke-width:1.0;"/><text fill="#000000" font-family="sans-serif" font-size="13" lengthAdjust="spacing" textLength="42" x="105.5" y="325.4951">«uses»</text><!--MD5=[341b566756849cab81e35ed003e1543a]
@startuml InputStreamFactory

interface IDisposable
class Exception

enum InputFormat {
    File
    Serial
    Network
}

interface IInputStream {
    +InputStream: Stream
    +IsLiveStream: bool
    +SuggestedFormat: InputFormat
    - - -
    +ConnectAsync(): Task<bool>
}
IDisposable <|.d. IInputStream
IInputStream -r-> InputFormat

interface IInputStreamFactory {
    +Create(uri: string): IInputStream
    +Create(uri: Uri): IInputStream
}

class InputStreamFactory

'InputStreamFactory -r-> IInputStream : <<instantiates>>

class InputStreamFactoryBase

InputStreamFactoryBase .u.|> IInputStreamFactory
InputStreamFactory -u-|> InputStreamFactoryBase

class InputStreamException
InputStreamException -l-|> Exception

class DltFileStreamFactory
class DltFileStream
DltFileStream .u.|> IInputStream
DltFileStreamFactory -u-|> InputStreamFactoryBase
InputStreamFactory -r-> DltFileStreamFactory : <<instantiates>>
DltFileStreamFactory -r-> DltFileStream : <<instantiates>>
DltFileStreamFactory -d-> InputStreamException : <<throws>>

class FilterApp
FilterApp -r-> InputStreamFactory : <<uses>>
@enduml

@startuml InputStreamFactory

interface IDisposable
class Exception

enum InputFormat {
    File
    Serial
    Network
}

interface IInputStream {
    +InputStream: Stream
    +IsLiveStream: bool
    +SuggestedFormat: InputFormat
    - - -
    +ConnectAsync(): Task<bool>
}
IDisposable <|.d. IInputStream
IInputStream -r-> InputFormat

interface IInputStreamFactory {
    +Create(uri: string): IInputStream
    +Create(uri: Uri): IInputStream
}

class InputStreamFactory


class InputStreamFactoryBase

InputStreamFactoryBase .u.|> IInputStreamFactory
InputStreamFactory -u-|> InputStreamFactoryBase

class InputStreamException
InputStreamException -l-|> Exception

class DltFileStreamFactory
class DltFileStream
DltFileStream .u.|> IInputStream
DltFileStreamFactory -u-|> InputStreamFactoryBase
InputStreamFactory -r-> DltFileStreamFactory : <<instantiates>>
DltFileStreamFactory -r-> DltFileStream : <<instantiates>>
DltFileStreamFactory -d-> InputStreamException : <<throws>>

class FilterApp
FilterApp -r-> InputStreamFactory : <<uses>>
@enduml

PlantUML version 1.2022.0(Tue Jan 11 17:16:42 CET 2022)
(GPL source distribution)
Java Runtime: Java(TM) SE Runtime Environment
JVM: Java HotSpot(TM) Client VM
Default Encoding: Cp1252
Language: en
Country: US
--></g></svg>