<?xml version="1.0" encoding="UTF-8" standalone="no"?><svg xmlns="http://www.w3.org/2000/svg" xmlns:xlink="http://www.w3.org/1999/xlink" contentScriptType="application/ecmascript" contentStyleType="text/css" height="509px" preserveAspectRatio="none" style="width:892px;height:509px;background:#FFFFFF;" version="1.1" viewBox="0 0 892 509" width="892px" zoomAndPan="magnify"><defs><filter height="300%" id="f17k44if30lgor" width="300%" x="-1" y="-1"><feGaussianBlur result="blurOut" stdDeviation="2.0"/><feColorMatrix in="blurOut" result="blurOut2" type="matrix" values="0 0 0 0 0 0 0 0 0 0 0 0 0 0 0 0 0 0 .4 0"/><feOffset dx="4.0" dy="4.0" in="blurOut2" result="blurOut3"/><feBlend in="SourceGraphic" in2="blurOut3" mode="normal"/></filter></defs><g><!--MD5=[121a8bf1197281ab89ed693fab589f94]
cluster Domain--><polygon fill="#FFFFFF" filter="url(#f17k44if30lgor)" points="16,6,74,6,81,29.6094,563,29.6094,563,502,16,502,16,6" style="stroke:#000000;stroke-width:1.5;"/><line style="stroke:#000000;stroke-width:1.5;" x1="16" x2="81" y1="29.6094" y2="29.6094"/><text fill="#000000" font-family="sans-serif" font-size="14" font-weight="bold" lengthAdjust="spacing" textLength="52" x="20" y="22.5332">Domain</text><!--MD5=[cdc60274d58b480fe3b1301cbded6bed]
cluster RJCP.Diagnostics.Log.Decoder--><polygon fill="#FFFFFF" filter="url(#f17k44if30lgor)" points="587,154,810,154,817,177.6094,875,177.6094,875,391,587,391,587,154" style="stroke:#000000;stroke-width:1.5;"/><line style="stroke:#000000;stroke-width:1.5;" x1="587" x2="817" y1="177.6094" y2="177.6094"/><text fill="#000000" font-family="sans-serif" font-size="14" font-weight="bold" lengthAdjust="spacing" textLength="217" x="591" y="170.5332">RJCP.Diagnostics.Log.Decoder</text><!--MD5=[ccde436fe312cdd23555f656c707ab67]
class Domain.DltDumpTraceReaderFactory--><rect codeLine="3" fill="#FEFECE" filter="url(#f17k44if30lgor)" height="48" id="Domain.DltDumpTraceReaderFactory" style="stroke:#A80036;stroke-width:1.5;" width="192" x="32" y="42"/><ellipse cx="47" cy="58" fill="#ADD1B2" rx="11" ry="11" style="stroke:#A80036;stroke-width:1.0;"/><path d="M49.7656,53.875 Q49.9219,53.6563 50.1094,53.5469 Q50.2969,53.4375 50.5156,53.4375 Q50.8906,53.4375 51.125,53.6953 Q51.3594,53.9531 51.3594,54.5625 L51.3594,56.0156 Q51.3594,56.625 51.125,56.8906 Q50.8906,57.1563 50.5156,57.1563 Q50.1719,57.1563 49.9688,56.9531 Q49.7656,56.7656 49.6563,56.25 Q49.6094,55.8906 49.4219,55.7031 Q49.0938,55.3281 48.4844,55.1094 Q47.875,54.8906 47.25,54.8906 Q46.4844,54.8906 45.8516,55.2188 Q45.2188,55.5469 44.7266,56.2969 Q44.2344,57.0469 44.2344,58.0781 L44.2344,59.1719 Q44.2344,60.4063 45.125,61.2266 Q46.0156,62.0469 47.6094,62.0469 Q48.5469,62.0469 49.2031,61.7969 Q49.5938,61.6406 50.0156,61.2031 Q50.2813,60.9375 50.4297,60.8594 Q50.5781,60.7813 50.7813,60.7813 Q51.1094,60.7813 51.3672,61.0391 Q51.625,61.2969 51.625,61.6406 Q51.625,61.9844 51.2813,62.3906 Q50.7813,62.9688 49.9844,63.2969 Q48.9063,63.75 47.6094,63.75 Q46.0938,63.75 44.8906,63.125 Q43.9063,62.625 43.2188,61.5547 Q42.5313,60.4844 42.5313,59.2031 L42.5313,58.0469 Q42.5313,56.7188 43.1484,55.5703 Q43.7656,54.4219 44.8594,53.8047 Q45.9531,53.1875 47.1875,53.1875 Q47.9219,53.1875 48.5703,53.3516 Q49.2188,53.5156 49.7656,53.875 Z " fill="#000000"/><text fill="#000000" font-family="sans-serif" font-size="12" lengthAdjust="spacing" textLength="160" x="61" y="62.9102">DltDumpTraceReaderFactory</text><line style="stroke:#A80036;stroke-width:1.5;" x1="33" x2="223" y1="74" y2="74"/><line style="stroke:#A80036;stroke-width:1.5;" x1="33" x2="223" y1="82" y2="82"/><!--MD5=[0b3fba00a99536d1f05fca5c65117de9]
class Domain.IOutputStream--><rect codeLine="4" fill="#FEFECE" filter="url(#f17k44if30lgor)" height="48" id="Domain.IOutputStream" style="stroke:#A80036;stroke-width:1.5;" width="112" x="400" y="438"/><ellipse cx="415" cy="454" fill="#B4A7E5" rx="11" ry="11" style="stroke:#A80036;stroke-width:1.0;"/><path d="M415.9531,450.6406 L415.9531,457.2969 L417.6719,457.2969 Q418.2813,457.2969 418.5469,457.5313 Q418.8125,457.7656 418.8125,458.1563 Q418.8125,458.5313 418.5469,458.7656 Q418.2813,459 417.6719,459 L412.5313,459 Q411.9219,459 411.6563,458.7656 Q411.3906,458.5313 411.3906,458.1406 Q411.3906,457.7656 411.6563,457.5313 Q411.9219,457.2969 412.5313,457.2969 L414.25,457.2969 L414.25,450.6406 L412.5313,450.6406 Q411.9219,450.6406 411.6563,450.4063 Q411.3906,450.1719 411.3906,449.7813 Q411.3906,449.4063 411.6563,449.1719 Q411.9219,448.9375 412.5313,448.9375 L417.6719,448.9375 Q418.2813,448.9375 418.5469,449.1719 Q418.8125,449.4063 418.8125,449.7813 Q418.8125,450.1719 418.5469,450.4063 Q418.2813,450.6406 417.6719,450.6406 L415.9531,450.6406 Z " fill="#000000"/><text fill="#000000" font-family="sans-serif" font-size="12" font-style="italic" lengthAdjust="spacing" textLength="80" x="429" y="458.9102">IOutputStream</text><line style="stroke:#A80036;stroke-width:1.5;" x1="401" x2="511" y1="470" y2="470"/><line style="stroke:#A80036;stroke-width:1.5;" x1="401" x2="511" y1="478" y2="478"/><!--MD5=[bffb2265056060e420a0b37f39deeb75]
class Domain.DltFileTraceFilterReaderFactory--><rect codeLine="8" fill="#FEFECE" filter="url(#f17k44if30lgor)" height="48" id="Domain.DltFileTraceFilterReaderFactory" style="stroke:#A80036;stroke-width:1.5;" width="205" x="341.5" y="42"/><ellipse cx="356.5" cy="58" fill="#ADD1B2" rx="11" ry="11" style="stroke:#A80036;stroke-width:1.0;"/><path d="M359.2656,53.875 Q359.4219,53.6563 359.6094,53.5469 Q359.7969,53.4375 360.0156,53.4375 Q360.3906,53.4375 360.625,53.6953 Q360.8594,53.9531 360.8594,54.5625 L360.8594,56.0156 Q360.8594,56.625 360.625,56.8906 Q360.3906,57.1563 360.0156,57.1563 Q359.6719,57.1563 359.4688,56.9531 Q359.2656,56.7656 359.1563,56.25 Q359.1094,55.8906 358.9219,55.7031 Q358.5938,55.3281 357.9844,55.1094 Q357.375,54.8906 356.75,54.8906 Q355.9844,54.8906 355.3516,55.2188 Q354.7188,55.5469 354.2266,56.2969 Q353.7344,57.0469 353.7344,58.0781 L353.7344,59.1719 Q353.7344,60.4063 354.625,61.2266 Q355.5156,62.0469 357.1094,62.0469 Q358.0469,62.0469 358.7031,61.7969 Q359.0938,61.6406 359.5156,61.2031 Q359.7813,60.9375 359.9297,60.8594 Q360.0781,60.7813 360.2813,60.7813 Q360.6094,60.7813 360.8672,61.0391 Q361.125,61.2969 361.125,61.6406 Q361.125,61.9844 360.7813,62.3906 Q360.2813,62.9688 359.4844,63.2969 Q358.4063,63.75 357.1094,63.75 Q355.5938,63.75 354.3906,63.125 Q353.4063,62.625 352.7188,61.5547 Q352.0313,60.4844 352.0313,59.2031 L352.0313,58.0469 Q352.0313,56.7188 352.6484,55.5703 Q353.2656,54.4219 354.3594,53.8047 Q355.4531,53.1875 356.6875,53.1875 Q357.4219,53.1875 358.0703,53.3516 Q358.7188,53.5156 359.2656,53.875 Z " fill="#000000"/><text fill="#000000" font-family="sans-serif" font-size="12" lengthAdjust="spacing" textLength="173" x="370.5" y="62.9102">DltFileTraceFilterReaderFactory</text><line style="stroke:#A80036;stroke-width:1.5;" x1="342.5" x2="545.5" y1="74" y2="74"/><line style="stroke:#A80036;stroke-width:1.5;" x1="342.5" x2="545.5" y1="82" y2="82"/><!--MD5=[68da4b20ef61bb81849da7a1f2daaef3]
class Domain.TraceReader--><rect codeLine="9" fill="#FEFECE" filter="url(#f17k44if30lgor)" height="48" id="Domain.TraceReader" style="stroke:#A80036;stroke-width:1.5;" width="206" x="341" y="204"/><ellipse cx="356" cy="220" fill="#ADD1B2" rx="11" ry="11" style="stroke:#A80036;stroke-width:1.0;"/><path d="M358.7656,215.875 Q358.9219,215.6563 359.1094,215.5469 Q359.2969,215.4375 359.5156,215.4375 Q359.8906,215.4375 360.125,215.6953 Q360.3594,215.9531 360.3594,216.5625 L360.3594,218.0156 Q360.3594,218.625 360.125,218.8906 Q359.8906,219.1563 359.5156,219.1563 Q359.1719,219.1563 358.9688,218.9531 Q358.7656,218.7656 358.6563,218.25 Q358.6094,217.8906 358.4219,217.7031 Q358.0938,217.3281 357.4844,217.1094 Q356.875,216.8906 356.25,216.8906 Q355.4844,216.8906 354.8516,217.2188 Q354.2188,217.5469 353.7266,218.2969 Q353.2344,219.0469 353.2344,220.0781 L353.2344,221.1719 Q353.2344,222.4063 354.125,223.2266 Q355.0156,224.0469 356.6094,224.0469 Q357.5469,224.0469 358.2031,223.7969 Q358.5938,223.6406 359.0156,223.2031 Q359.2813,222.9375 359.4297,222.8594 Q359.5781,222.7813 359.7813,222.7813 Q360.1094,222.7813 360.3672,223.0391 Q360.625,223.2969 360.625,223.6406 Q360.625,223.9844 360.2813,224.3906 Q359.7813,224.9688 358.9844,225.2969 Q357.9063,225.75 356.6094,225.75 Q355.0938,225.75 353.8906,225.125 Q352.9063,224.625 352.2188,223.5547 Q351.5313,222.4844 351.5313,221.2031 L351.5313,220.0469 Q351.5313,218.7188 352.1484,217.5703 Q352.7656,216.4219 353.8594,215.8047 Q354.9531,215.1875 356.1875,215.1875 Q356.9219,215.1875 357.5703,215.3516 Q358.2188,215.5156 358.7656,215.875 Z " fill="#000000"/><text fill="#000000" font-family="sans-serif" font-size="12" lengthAdjust="spacing" textLength="72" x="370" y="224.9102">TraceReader</text><rect fill="#FFFFFF" height="17.0938" style="stroke:#000000;stroke-width:1.0;stroke-dasharray:2.0,2.0;" width="100" x="450" y="201"/><text fill="#000000" font-family="sans-serif" font-size="12" font-style="italic" lengthAdjust="spacing" textLength="98" x="451" y="214.457">DltTraceLineBase</text><line style="stroke:#A80036;stroke-width:1.5;" x1="342" x2="546" y1="236" y2="236"/><line style="stroke:#A80036;stroke-width:1.5;" x1="342" x2="546" y1="244" y2="244"/><!--MD5=[476638547c8f5d9eef6123cbdff1dcf1]
class Domain.DltFileTraceFilterDecoder--><rect codeLine="10" fill="#FEFECE" filter="url(#f17k44if30lgor)" height="48" id="Domain.DltFileTraceFilterDecoder" style="stroke:#A80036;stroke-width:1.5;" width="172" x="370" y="327"/><ellipse cx="385" cy="343" fill="#ADD1B2" rx="11" ry="11" style="stroke:#A80036;stroke-width:1.0;"/><path d="M387.7656,338.875 Q387.9219,338.6563 388.1094,338.5469 Q388.2969,338.4375 388.5156,338.4375 Q388.8906,338.4375 389.125,338.6953 Q389.3594,338.9531 389.3594,339.5625 L389.3594,341.0156 Q389.3594,341.625 389.125,341.8906 Q388.8906,342.1563 388.5156,342.1563 Q388.1719,342.1563 387.9688,341.9531 Q387.7656,341.7656 387.6563,341.25 Q387.6094,340.8906 387.4219,340.7031 Q387.0938,340.3281 386.4844,340.1094 Q385.875,339.8906 385.25,339.8906 Q384.4844,339.8906 383.8516,340.2188 Q383.2188,340.5469 382.7266,341.2969 Q382.2344,342.0469 382.2344,343.0781 L382.2344,344.1719 Q382.2344,345.4063 383.125,346.2266 Q384.0156,347.0469 385.6094,347.0469 Q386.5469,347.0469 387.2031,346.7969 Q387.5938,346.6406 388.0156,346.2031 Q388.2813,345.9375 388.4297,345.8594 Q388.5781,345.7813 388.7813,345.7813 Q389.1094,345.7813 389.3672,346.0391 Q389.625,346.2969 389.625,346.6406 Q389.625,346.9844 389.2813,347.3906 Q388.7813,347.9688 387.9844,348.2969 Q386.9063,348.75 385.6094,348.75 Q384.0938,348.75 382.8906,348.125 Q381.9063,347.625 381.2188,346.5547 Q380.5313,345.4844 380.5313,344.2031 L380.5313,343.0469 Q380.5313,341.7188 381.1484,340.5703 Q381.7656,339.4219 382.8594,338.8047 Q383.9531,338.1875 385.1875,338.1875 Q385.9219,338.1875 386.5703,338.3516 Q387.2188,338.5156 387.7656,338.875 Z " fill="#000000"/><text fill="#000000" font-family="sans-serif" font-size="12" lengthAdjust="spacing" textLength="140" x="399" y="347.9102">DltFileTraceFilterDecoder</text><line style="stroke:#A80036;stroke-width:1.5;" x1="371" x2="541" y1="359" y2="359"/><line style="stroke:#A80036;stroke-width:1.5;" x1="371" x2="541" y1="367" y2="367"/><!--MD5=[ebd13ada8e41b6ebede12c5d44cb1643]
class RJCP.Diagnostics.Log.Decoder.DltFileTraceDecoder--><rect codeLine="21" fill="#FEFECE" filter="url(#f17k44if30lgor)" height="48" id="RJCP.Diagnostics.Log.Decoder.DltFileTraceDecoder" style="stroke:#A80036;stroke-width:1.5;" width="145" x="630.5" y="327"/><ellipse cx="645.5" cy="343" fill="#ADD1B2" rx="11" ry="11" style="stroke:#A80036;stroke-width:1.0;"/><path d="M648.2656,338.875 Q648.4219,338.6563 648.6094,338.5469 Q648.7969,338.4375 649.0156,338.4375 Q649.3906,338.4375 649.625,338.6953 Q649.8594,338.9531 649.8594,339.5625 L649.8594,341.0156 Q649.8594,341.625 649.625,341.8906 Q649.3906,342.1563 649.0156,342.1563 Q648.6719,342.1563 648.4688,341.9531 Q648.2656,341.7656 648.1563,341.25 Q648.1094,340.8906 647.9219,340.7031 Q647.5938,340.3281 646.9844,340.1094 Q646.375,339.8906 645.75,339.8906 Q644.9844,339.8906 644.3516,340.2188 Q643.7188,340.5469 643.2266,341.2969 Q642.7344,342.0469 642.7344,343.0781 L642.7344,344.1719 Q642.7344,345.4063 643.625,346.2266 Q644.5156,347.0469 646.1094,347.0469 Q647.0469,347.0469 647.7031,346.7969 Q648.0938,346.6406 648.5156,346.2031 Q648.7813,345.9375 648.9297,345.8594 Q649.0781,345.7813 649.2813,345.7813 Q649.6094,345.7813 649.8672,346.0391 Q650.125,346.2969 650.125,346.6406 Q650.125,346.9844 649.7813,347.3906 Q649.2813,347.9688 648.4844,348.2969 Q647.4063,348.75 646.1094,348.75 Q644.5938,348.75 643.3906,348.125 Q642.4063,347.625 641.7188,346.5547 Q641.0313,345.4844 641.0313,344.2031 L641.0313,343.0469 Q641.0313,341.7188 641.6484,340.5703 Q642.2656,339.4219 643.3594,338.8047 Q644.4531,338.1875 645.6875,338.1875 Q646.4219,338.1875 647.0703,338.3516 Q647.7188,338.5156 648.2656,338.875 Z " fill="#000000"/><text fill="#000000" font-family="sans-serif" font-size="12" lengthAdjust="spacing" textLength="113" x="659.5" y="347.9102">DltFileTraceDecoder</text><line style="stroke:#A80036;stroke-width:1.5;" x1="631.5" x2="774.5" y1="359" y2="359"/><line style="stroke:#A80036;stroke-width:1.5;" x1="631.5" x2="774.5" y1="367" y2="367"/><!--MD5=[bd0aa9b8a552675fa90a55280af24b13]
class RJCP.Diagnostics.Log.Decoder.DltTraceDecoderBase--><rect codeLine="18" fill="#FEFECE" filter="url(#f17k44if30lgor)" height="75.6719" id="RJCP.Diagnostics.Log.Decoder.DltTraceDecoderBase" style="stroke:#A80036;stroke-width:1.5;" width="256" x="603" y="190"/><ellipse cx="665.75" cy="206" fill="#ADD1B2" rx="11" ry="11" style="stroke:#A80036;stroke-width:1.0;"/><path d="M668.5156,201.875 Q668.6719,201.6563 668.8594,201.5469 Q669.0469,201.4375 669.2656,201.4375 Q669.6406,201.4375 669.875,201.6953 Q670.1094,201.9531 670.1094,202.5625 L670.1094,204.0156 Q670.1094,204.625 669.875,204.8906 Q669.6406,205.1563 669.2656,205.1563 Q668.9219,205.1563 668.7188,204.9531 Q668.5156,204.7656 668.4063,204.25 Q668.3594,203.8906 668.1719,203.7031 Q667.8438,203.3281 667.2344,203.1094 Q666.625,202.8906 666,202.8906 Q665.2344,202.8906 664.6016,203.2188 Q663.9688,203.5469 663.4766,204.2969 Q662.9844,205.0469 662.9844,206.0781 L662.9844,207.1719 Q662.9844,208.4063 663.875,209.2266 Q664.7656,210.0469 666.3594,210.0469 Q667.2969,210.0469 667.9531,209.7969 Q668.3438,209.6406 668.7656,209.2031 Q669.0313,208.9375 669.1797,208.8594 Q669.3281,208.7813 669.5313,208.7813 Q669.8594,208.7813 670.1172,209.0391 Q670.375,209.2969 670.375,209.6406 Q670.375,209.9844 670.0313,210.3906 Q669.5313,210.9688 668.7344,211.2969 Q667.6563,211.75 666.3594,211.75 Q664.8438,211.75 663.6406,211.125 Q662.6563,210.625 661.9688,209.5547 Q661.2813,208.4844 661.2813,207.2031 L661.2813,206.0469 Q661.2813,204.7188 661.8984,203.5703 Q662.5156,202.4219 663.6094,201.8047 Q664.7031,201.1875 665.9375,201.1875 Q666.6719,201.1875 667.3203,201.3516 Q667.9688,201.5156 668.5156,201.875 Z " fill="#000000"/><text fill="#000000" font-family="sans-serif" font-size="12" lengthAdjust="spacing" textLength="122" x="686.25" y="210.9102">DltTraceDecoderBase</text><line style="stroke:#A80036;stroke-width:1.5;" x1="604" x2="858" y1="222" y2="222"/><line style="stroke:#A80036;stroke-width:1.5;" x1="604" x2="858" y1="230" y2="230"/><polygon fill="#FFFF44" points="614,236,618,240,614,244,610,240" style="stroke:#B38D22;stroke-width:1.0;"/><text fill="#000000" font-family="sans-serif" font-size="11" lengthAdjust="spacing" textLength="160" x="623" y="245.4189">OnPacket(line: DltTraceLineBase,</text><text fill="#000000" font-family="sans-serif" font-size="11" lengthAdjust="spacing" textLength="227" x="626" y="259.2549">ReadOnlySpan&lt;byte&gt; buffer, int headerOffset)</text><!--MD5=[4337f3b13587516588a78d220c288bdf]
link Domain.DltDumpTraceReaderFactory to Domain.DltFileTraceFilterReaderFactory--><path codeLine="6" d="M224.1,66 C259.49,66 299.8,66 336.16,66 " fill="none" id="Domain.DltDumpTraceReaderFactory-to-Domain.DltFileTraceFilterReaderFactory" style="stroke:#A80036;stroke-width:1.0;"/><polygon fill="#A80036" points="341.5,66,332.5,62,336.5,66,332.5,70,341.5,66" style="stroke:#A80036;stroke-width:1.0;"/><text fill="#000000" font-family="sans-serif" font-size="13" lengthAdjust="spacing" textLength="81" x="242.25" y="59.4951">«instantiates»</text><!--MD5=[7519c82b97b2585303cc0cfde255221d]
link Domain.DltFileTraceFilterReaderFactory to Domain.TraceReader--><path codeLine="11" d="M444,90.27 C444,119.02 444,167.93 444,198.8 " fill="none" id="Domain.DltFileTraceFilterReaderFactory-to-Domain.TraceReader" style="stroke:#A80036;stroke-width:1.0;"/><polygon fill="#A80036" points="444,203.97,448,194.97,444,198.97,440,194.97,444,203.97" style="stroke:#A80036;stroke-width:1.0;"/><text fill="#000000" font-family="sans-serif" font-size="13" lengthAdjust="spacing" textLength="81" x="445" y="134.4951">«instantiates»</text><!--MD5=[e5abb25fad86e9b4906fb6c807731c29]
reverse link Domain.TraceReader to Domain.DltFileTraceFilterDecoder--><path codeLine="12" d="M447.57,265.03 C449.55,284.96 451.95,309.16 453.68,326.63 " fill="none" id="Domain.TraceReader-backto-Domain.DltFileTraceFilterDecoder" style="stroke:#A80036;stroke-width:1.0;"/><polygon fill="#A80036" points="446.29,252.04,442.9027,258.406,447.4762,263.9812,450.8635,257.6152,446.29,252.04" style="stroke:#A80036;stroke-width:1.0;"/><!--MD5=[12d5d8d98d7674b6e4a92337a91ed3d6]
link Domain.DltFileTraceFilterDecoder to RJCP.Diagnostics.Log.Decoder.DltFileTraceDecoder--><path codeLine="13" d="M542.35,351 C564.89,351 587.42,351 609.96,351 " fill="none" id="Domain.DltFileTraceFilterDecoder-to-RJCP.Diagnostics.Log.Decoder.DltFileTraceDecoder" style="stroke:#A80036;stroke-width:1.0;"/><polygon fill="none" points="610.21,344,630.21,351,610.21,358,610.21,344" style="stroke:#A80036;stroke-width:1.0;"/><!--MD5=[989fc9333b96d6d280b110abd50bc7fa]
reverse link Domain.DltFileTraceFilterDecoder to Domain.IOutputStream--><path codeLine="14" d="M456,388.15 C456,404.56 456,423.47 456,437.92 " fill="none" id="Domain.DltFileTraceFilterDecoder-backto-Domain.IOutputStream" style="stroke:#A80036;stroke-width:1.0;"/><polygon fill="#FFFFFF" points="456,375.12,452,381.12,456,387.12,460,381.12,456,375.12" style="stroke:#A80036;stroke-width:1.0;"/><!--MD5=[4a28256674a2c0bf3b215a6472ffb1ac]
reverse link RJCP.Diagnostics.Log.Decoder.DltTraceDecoderBase to RJCP.Diagnostics.Log.Decoder.DltFileTraceDecoder--><path codeLine="22" d="M717.79,286.09 C714.46,300.46 711.08,315.09 708.39,326.72 " fill="none" id="RJCP.Diagnostics.Log.Decoder.DltTraceDecoderBase-backto-RJCP.Diagnostics.Log.Decoder.DltFileTraceDecoder" style="stroke:#A80036;stroke-width:1.0;"/><polygon fill="none" points="711.04,284.2,722.37,266.29,724.68,287.35,711.04,284.2" style="stroke:#A80036;stroke-width:1.0;"/><!--MD5=[323bbea6f606293bc559f8735d77656d]
@startuml Domain.Decoder.Writer

namespace Domain {
  class DltDumpTraceReaderFactory
  interface IOutputStream

  DltDumpTraceReaderFactory -r-> DltFileTraceFilterReaderFactory : <<instantiates>>

  class DltFileTraceFilterReaderFactory
  class TraceReader<DltTraceLineBase>
  class DltFileTraceFilterDecoder
  DltFileTraceFilterReaderFactory -d-> TraceReader : <<instantiates>>
  TraceReader *-d- DltFileTraceFilterDecoder
  DltFileTraceFilterDecoder -r-|> RJCP.Diagnostics.Log.Decoder.DltFileTraceDecoder
  DltFileTraceFilterDecoder o-d- IOutputStream
}

namespace RJCP.Diagnostics.Log.Decoder {
    class DltTraceDecoderBase {
        #OnPacket(line: DltTraceLineBase,\n ReadOnlySpan<byte> buffer, int headerOffset)
    }
    class DltFileTraceDecoder
    DltTraceDecoderBase <|-d- DltFileTraceDecoder
}
@enduml

PlantUML version 1.2022.0(Tue Jan 11 17:16:42 CET 2022)
(GPL source distribution)
Java Runtime: Java(TM) SE Runtime Environment
JVM: Java HotSpot(TM) Client VM
Default Encoding: Cp1252
Language: en
Country: US
--></g></svg>