<?xml version="1.0" encoding="UTF-8" standalone="no"?><svg xmlns="http://www.w3.org/2000/svg" xmlns:xlink="http://www.w3.org/1999/xlink" contentScriptType="application/ecmascript" contentStyleType="text/css" height="383px" preserveAspectRatio="none" style="width:831px;height:383px;background:#FFFFFF;" version="1.1" viewBox="0 0 831 383" width="831px" zoomAndPan="magnify"><defs><filter height="300%" id="fz4izwlgbkw1t" width="300%" x="-1" y="-1"><feGaussianBlur result="blurOut" stdDeviation="2.0"/><feColorMatrix in="blurOut" result="blurOut2" type="matrix" values="0 0 0 0 0 0 0 0 0 0 0 0 0 0 0 0 0 0 .4 0"/><feOffset dx="4.0" dy="4.0" in="blurOut2" result="blurOut3"/><feBlend in="SourceGraphic" in2="blurOut3" mode="normal"/></filter></defs><g><!--MD5=[121a8bf1197281ab89ed693fab589f94]
cluster Domain--><polygon fill="#FFFFFF" filter="url(#fz4izwlgbkw1t)" points="16,165,74,165,81,188.6094,502,188.6094,502,376,16,376,16,165" style="stroke:#000000;stroke-width:1.5;"/><line style="stroke:#000000;stroke-width:1.5;" x1="16" x2="81" y1="188.6094" y2="188.6094"/><text fill="#000000" font-family="sans-serif" font-size="14" font-weight="bold" lengthAdjust="spacing" textLength="52" x="20" y="181.5332">Domain</text><!--MD5=[cdc60274d58b480fe3b1301cbded6bed]
cluster RJCP.Diagnostics.Log.Decoder--><polygon fill="#FFFFFF" filter="url(#fz4izwlgbkw1t)" points="526,6,749,6,756,29.6094,814,29.6094,814,265,526,265,526,6" style="stroke:#000000;stroke-width:1.5;"/><line style="stroke:#000000;stroke-width:1.5;" x1="526" x2="756" y1="29.6094" y2="29.6094"/><text fill="#000000" font-family="sans-serif" font-size="14" font-weight="bold" lengthAdjust="spacing" textLength="217" x="530" y="22.5332">RJCP.Diagnostics.Log.Decoder</text><!--MD5=[d218c6afc6f8c372ae5afb36c62493b8]
class Domain.DltTraceDecoderFactory--><rect codeLine="3" fill="#FEFECE" filter="url(#fz4izwlgbkw1t)" height="48" id="Domain.DltTraceDecoderFactory" style="stroke:#A80036;stroke-width:1.5;" width="164" x="32" y="201"/><ellipse cx="47" cy="217" fill="#ADD1B2" rx="11" ry="11" style="stroke:#A80036;stroke-width:1.0;"/><path d="M49.7656,212.875 Q49.9219,212.6563 50.1094,212.5469 Q50.2969,212.4375 50.5156,212.4375 Q50.8906,212.4375 51.125,212.6953 Q51.3594,212.9531 51.3594,213.5625 L51.3594,215.0156 Q51.3594,215.625 51.125,215.8906 Q50.8906,216.1563 50.5156,216.1563 Q50.1719,216.1563 49.9688,215.9531 Q49.7656,215.7656 49.6563,215.25 Q49.6094,214.8906 49.4219,214.7031 Q49.0938,214.3281 48.4844,214.1094 Q47.875,213.8906 47.25,213.8906 Q46.4844,213.8906 45.8516,214.2188 Q45.2188,214.5469 44.7266,215.2969 Q44.2344,216.0469 44.2344,217.0781 L44.2344,218.1719 Q44.2344,219.4063 45.125,220.2266 Q46.0156,221.0469 47.6094,221.0469 Q48.5469,221.0469 49.2031,220.7969 Q49.5938,220.6406 50.0156,220.2031 Q50.2813,219.9375 50.4297,219.8594 Q50.5781,219.7813 50.7813,219.7813 Q51.1094,219.7813 51.3672,220.0391 Q51.625,220.2969 51.625,220.6406 Q51.625,220.9844 51.2813,221.3906 Q50.7813,221.9688 49.9844,222.2969 Q48.9063,222.75 47.6094,222.75 Q46.0938,222.75 44.8906,222.125 Q43.9063,221.625 43.2188,220.5547 Q42.5313,219.4844 42.5313,218.2031 L42.5313,217.0469 Q42.5313,215.7188 43.1484,214.5703 Q43.7656,213.4219 44.8594,212.8047 Q45.9531,212.1875 47.1875,212.1875 Q47.9219,212.1875 48.5703,212.3516 Q49.2188,212.5156 49.7656,212.875 Z " fill="#000000"/><text fill="#000000" font-family="sans-serif" font-size="12" lengthAdjust="spacing" textLength="132" x="61" y="221.9102">DltTraceDecoderFactory</text><line style="stroke:#A80036;stroke-width:1.5;" x1="33" x2="195" y1="233" y2="233"/><line style="stroke:#A80036;stroke-width:1.5;" x1="33" x2="195" y1="241" y2="241"/><!--MD5=[0b3fba00a99536d1f05fca5c65117de9]
class Domain.IOutputStream--><rect codeLine="4" fill="#FEFECE" filter="url(#fz4izwlgbkw1t)" height="48" id="Domain.IOutputStream" style="stroke:#A80036;stroke-width:1.5;" width="112" x="344" y="312"/><ellipse cx="359" cy="328" fill="#B4A7E5" rx="11" ry="11" style="stroke:#A80036;stroke-width:1.0;"/><path d="M359.9531,324.6406 L359.9531,331.2969 L361.6719,331.2969 Q362.2813,331.2969 362.5469,331.5313 Q362.8125,331.7656 362.8125,332.1563 Q362.8125,332.5313 362.5469,332.7656 Q362.2813,333 361.6719,333 L356.5313,333 Q355.9219,333 355.6563,332.7656 Q355.3906,332.5313 355.3906,332.1406 Q355.3906,331.7656 355.6563,331.5313 Q355.9219,331.2969 356.5313,331.2969 L358.25,331.2969 L358.25,324.6406 L356.5313,324.6406 Q355.9219,324.6406 355.6563,324.4063 Q355.3906,324.1719 355.3906,323.7813 Q355.3906,323.4063 355.6563,323.1719 Q355.9219,322.9375 356.5313,322.9375 L361.6719,322.9375 Q362.2813,322.9375 362.5469,323.1719 Q362.8125,323.4063 362.8125,323.7813 Q362.8125,324.1719 362.5469,324.4063 Q362.2813,324.6406 361.6719,324.6406 L359.9531,324.6406 Z " fill="#000000"/><text fill="#000000" font-family="sans-serif" font-size="12" font-style="italic" lengthAdjust="spacing" textLength="80" x="373" y="332.9102">IOutputStream</text><line style="stroke:#A80036;stroke-width:1.5;" x1="345" x2="455" y1="344" y2="344"/><line style="stroke:#A80036;stroke-width:1.5;" x1="345" x2="455" y1="352" y2="352"/><!--MD5=[476638547c8f5d9eef6123cbdff1dcf1]
class Domain.DltFileTraceFilterDecoder--><rect codeLine="8" fill="#FEFECE" filter="url(#fz4izwlgbkw1t)" height="48" id="Domain.DltFileTraceFilterDecoder" style="stroke:#A80036;stroke-width:1.5;" width="172" x="314" y="201"/><ellipse cx="329" cy="217" fill="#ADD1B2" rx="11" ry="11" style="stroke:#A80036;stroke-width:1.0;"/><path d="M331.7656,212.875 Q331.9219,212.6563 332.1094,212.5469 Q332.2969,212.4375 332.5156,212.4375 Q332.8906,212.4375 333.125,212.6953 Q333.3594,212.9531 333.3594,213.5625 L333.3594,215.0156 Q333.3594,215.625 333.125,215.8906 Q332.8906,216.1563 332.5156,216.1563 Q332.1719,216.1563 331.9688,215.9531 Q331.7656,215.7656 331.6563,215.25 Q331.6094,214.8906 331.4219,214.7031 Q331.0938,214.3281 330.4844,214.1094 Q329.875,213.8906 329.25,213.8906 Q328.4844,213.8906 327.8516,214.2188 Q327.2188,214.5469 326.7266,215.2969 Q326.2344,216.0469 326.2344,217.0781 L326.2344,218.1719 Q326.2344,219.4063 327.125,220.2266 Q328.0156,221.0469 329.6094,221.0469 Q330.5469,221.0469 331.2031,220.7969 Q331.5938,220.6406 332.0156,220.2031 Q332.2813,219.9375 332.4297,219.8594 Q332.5781,219.7813 332.7813,219.7813 Q333.1094,219.7813 333.3672,220.0391 Q333.625,220.2969 333.625,220.6406 Q333.625,220.9844 333.2813,221.3906 Q332.7813,221.9688 331.9844,222.2969 Q330.9063,222.75 329.6094,222.75 Q328.0938,222.75 326.8906,222.125 Q325.9063,221.625 325.2188,220.5547 Q324.5313,219.4844 324.5313,218.2031 L324.5313,217.0469 Q324.5313,215.7188 325.1484,214.5703 Q325.7656,213.4219 326.8594,212.8047 Q327.9531,212.1875 329.1875,212.1875 Q329.9219,212.1875 330.5703,212.3516 Q331.2188,212.5156 331.7656,212.875 Z " fill="#000000"/><text fill="#000000" font-family="sans-serif" font-size="12" lengthAdjust="spacing" textLength="140" x="343" y="221.9102">DltFileTraceFilterDecoder</text><line style="stroke:#A80036;stroke-width:1.5;" x1="315" x2="485" y1="233" y2="233"/><line style="stroke:#A80036;stroke-width:1.5;" x1="315" x2="485" y1="241" y2="241"/><!--MD5=[ebd13ada8e41b6ebede12c5d44cb1643]
class RJCP.Diagnostics.Log.Decoder.DltFileTraceDecoder--><rect codeLine="17" fill="#FEFECE" filter="url(#fz4izwlgbkw1t)" height="48" id="RJCP.Diagnostics.Log.Decoder.DltFileTraceDecoder" style="stroke:#A80036;stroke-width:1.5;" width="145" x="569.5" y="201"/><ellipse cx="584.5" cy="217" fill="#ADD1B2" rx="11" ry="11" style="stroke:#A80036;stroke-width:1.0;"/><path d="M587.2656,212.875 Q587.4219,212.6563 587.6094,212.5469 Q587.7969,212.4375 588.0156,212.4375 Q588.3906,212.4375 588.625,212.6953 Q588.8594,212.9531 588.8594,213.5625 L588.8594,215.0156 Q588.8594,215.625 588.625,215.8906 Q588.3906,216.1563 588.0156,216.1563 Q587.6719,216.1563 587.4688,215.9531 Q587.2656,215.7656 587.1563,215.25 Q587.1094,214.8906 586.9219,214.7031 Q586.5938,214.3281 585.9844,214.1094 Q585.375,213.8906 584.75,213.8906 Q583.9844,213.8906 583.3516,214.2188 Q582.7188,214.5469 582.2266,215.2969 Q581.7344,216.0469 581.7344,217.0781 L581.7344,218.1719 Q581.7344,219.4063 582.625,220.2266 Q583.5156,221.0469 585.1094,221.0469 Q586.0469,221.0469 586.7031,220.7969 Q587.0938,220.6406 587.5156,220.2031 Q587.7813,219.9375 587.9297,219.8594 Q588.0781,219.7813 588.2813,219.7813 Q588.6094,219.7813 588.8672,220.0391 Q589.125,220.2969 589.125,220.6406 Q589.125,220.9844 588.7813,221.3906 Q588.2813,221.9688 587.4844,222.2969 Q586.4063,222.75 585.1094,222.75 Q583.5938,222.75 582.3906,222.125 Q581.4063,221.625 580.7188,220.5547 Q580.0313,219.4844 580.0313,218.2031 L580.0313,217.0469 Q580.0313,215.7188 580.6484,214.5703 Q581.2656,213.4219 582.3594,212.8047 Q583.4531,212.1875 584.6875,212.1875 Q585.4219,212.1875 586.0703,212.3516 Q586.7188,212.5156 587.2656,212.875 Z " fill="#000000"/><text fill="#000000" font-family="sans-serif" font-size="12" lengthAdjust="spacing" textLength="113" x="598.5" y="221.9102">DltFileTraceDecoder</text><line style="stroke:#A80036;stroke-width:1.5;" x1="570.5" x2="713.5" y1="233" y2="233"/><line style="stroke:#A80036;stroke-width:1.5;" x1="570.5" x2="713.5" y1="241" y2="241"/><!--MD5=[bd0aa9b8a552675fa90a55280af24b13]
class RJCP.Diagnostics.Log.Decoder.DltTraceDecoderBase--><rect codeLine="14" fill="#FEFECE" filter="url(#fz4izwlgbkw1t)" height="75.6719" id="RJCP.Diagnostics.Log.Decoder.DltTraceDecoderBase" style="stroke:#A80036;stroke-width:1.5;" width="256" x="542" y="42"/><ellipse cx="604.75" cy="58" fill="#ADD1B2" rx="11" ry="11" style="stroke:#A80036;stroke-width:1.0;"/><path d="M607.5156,53.875 Q607.6719,53.6563 607.8594,53.5469 Q608.0469,53.4375 608.2656,53.4375 Q608.6406,53.4375 608.875,53.6953 Q609.1094,53.9531 609.1094,54.5625 L609.1094,56.0156 Q609.1094,56.625 608.875,56.8906 Q608.6406,57.1563 608.2656,57.1563 Q607.9219,57.1563 607.7188,56.9531 Q607.5156,56.7656 607.4063,56.25 Q607.3594,55.8906 607.1719,55.7031 Q606.8438,55.3281 606.2344,55.1094 Q605.625,54.8906 605,54.8906 Q604.2344,54.8906 603.6016,55.2188 Q602.9688,55.5469 602.4766,56.2969 Q601.9844,57.0469 601.9844,58.0781 L601.9844,59.1719 Q601.9844,60.4063 602.875,61.2266 Q603.7656,62.0469 605.3594,62.0469 Q606.2969,62.0469 606.9531,61.7969 Q607.3438,61.6406 607.7656,61.2031 Q608.0313,60.9375 608.1797,60.8594 Q608.3281,60.7813 608.5313,60.7813 Q608.8594,60.7813 609.1172,61.0391 Q609.375,61.2969 609.375,61.6406 Q609.375,61.9844 609.0313,62.3906 Q608.5313,62.9688 607.7344,63.2969 Q606.6563,63.75 605.3594,63.75 Q603.8438,63.75 602.6406,63.125 Q601.6563,62.625 600.9688,61.5547 Q600.2813,60.4844 600.2813,59.2031 L600.2813,58.0469 Q600.2813,56.7188 600.8984,55.5703 Q601.5156,54.4219 602.6094,53.8047 Q603.7031,53.1875 604.9375,53.1875 Q605.6719,53.1875 606.3203,53.3516 Q606.9688,53.5156 607.5156,53.875 Z " fill="#000000"/><text fill="#000000" font-family="sans-serif" font-size="12" lengthAdjust="spacing" textLength="122" x="625.25" y="62.9102">DltTraceDecoderBase</text><line style="stroke:#A80036;stroke-width:1.5;" x1="543" x2="797" y1="74" y2="74"/><line style="stroke:#A80036;stroke-width:1.5;" x1="543" x2="797" y1="82" y2="82"/><polygon fill="#FFFF44" points="553,88,557,92,553,96,549,92" style="stroke:#B38D22;stroke-width:1.0;"/><text fill="#000000" font-family="sans-serif" font-size="11" lengthAdjust="spacing" textLength="160" x="562" y="97.4189">OnPacket(line: DltTraceLineBase,</text><text fill="#000000" font-family="sans-serif" font-size="11" lengthAdjust="spacing" textLength="227" x="565" y="111.2549">ReadOnlySpan&lt;byte&gt; buffer, int headerOffset)</text><!--MD5=[0d85216a98cabef36a405b31e8c8f72a]
link Domain.DltTraceDecoderFactory to Domain.DltFileTraceFilterDecoder--><path codeLine="6" d="M196.34,225 C231.41,225 272.46,225 308.49,225 " fill="none" id="Domain.DltTraceDecoderFactory-to-Domain.DltFileTraceFilterDecoder" style="stroke:#A80036;stroke-width:1.0;"/><polygon fill="#A80036" points="313.76,225,304.76,221,308.76,225,304.76,229,313.76,225" style="stroke:#A80036;stroke-width:1.0;"/><text fill="#000000" font-family="sans-serif" font-size="13" lengthAdjust="spacing" textLength="81" x="214.5" y="218.4951">«instantiates»</text><!--MD5=[12d5d8d98d7674b6e4a92337a91ed3d6]
link Domain.DltFileTraceFilterDecoder to RJCP.Diagnostics.Log.Decoder.DltFileTraceDecoder--><path codeLine="9" d="M486.02,241.5 C507.11,243.31 528.19,243.48 549.28,242.02 " fill="none" id="Domain.DltFileTraceFilterDecoder-to-RJCP.Diagnostics.Log.Decoder.DltFileTraceDecoder" style="stroke:#A80036;stroke-width:1.0;"/><polygon fill="none" points="548.93,235.02,569.5,240.11,550.24,248.96,548.93,235.02" style="stroke:#A80036;stroke-width:1.0;"/><!--MD5=[989fc9333b96d6d280b110abd50bc7fa]
reverse link Domain.DltFileTraceFilterDecoder to Domain.IOutputStream--><path codeLine="10" d="M400,262.15 C400,278.56 400,297.47 400,311.92 " fill="none" id="Domain.DltFileTraceFilterDecoder-backto-Domain.IOutputStream" style="stroke:#A80036;stroke-width:1.0;"/><polygon fill="#FFFFFF" points="400,249.12,396,255.12,400,261.12,404,255.12,400,249.12" style="stroke:#A80036;stroke-width:1.0;"/><!--MD5=[4a28256674a2c0bf3b215a6472ffb1ac]
reverse link RJCP.Diagnostics.Log.Decoder.DltTraceDecoderBase to RJCP.Diagnostics.Log.Decoder.DltFileTraceDecoder--><path codeLine="18" d="M658.84,137.99 C654.54,159.96 649.86,183.84 646.53,200.85 " fill="none" id="RJCP.Diagnostics.Log.Decoder.DltTraceDecoderBase-backto-RJCP.Diagnostics.Log.Decoder.DltFileTraceDecoder" style="stroke:#A80036;stroke-width:1.0;"/><polygon fill="none" points="652,136.48,662.72,118.2,665.74,139.17,652,136.48" style="stroke:#A80036;stroke-width:1.0;"/><!--MD5=[eefa090c084f58bb40774d69b09f5199]
@startuml Domain.Decoder.Writer

namespace Domain {
  class DltTraceDecoderFactory
  interface IOutputStream

  DltTraceDecoderFactory -r-> DltFileTraceFilterDecoder : <<instantiates>>

  class DltFileTraceFilterDecoder
  DltFileTraceFilterDecoder -r-|> RJCP.Diagnostics.Log.Decoder.DltFileTraceDecoder
  DltFileTraceFilterDecoder o-d- IOutputStream
}

namespace RJCP.Diagnostics.Log.Decoder {
    class DltTraceDecoderBase {
        #OnPacket(line: DltTraceLineBase,\n ReadOnlySpan<byte> buffer, int headerOffset)
    }
    class DltFileTraceDecoder
   DltTraceDecoderBase <|-d- DltFileTraceDecoder
}

@enduml

PlantUML version 1.2022.0(Tue Jan 11 17:16:42 CET 2022)
(GPL source distribution)
Java Runtime: Java(TM) SE Runtime Environment
JVM: Java HotSpot(TM) Client VM
Default Encoding: Cp1252
Language: en
Country: US
--></g></svg>