<?xml version="1.0" encoding="UTF-8" standalone="no"?><svg xmlns="http://www.w3.org/2000/svg" xmlns:xlink="http://www.w3.org/1999/xlink" contentScriptType="application/ecmascript" contentStyleType="text/css" height="423px" preserveAspectRatio="none" style="width:607px;height:423px;background:#FFFFFF;" version="1.1" viewBox="0 0 607 423" width="607px" zoomAndPan="magnify"><defs><filter height="300%" id="f80fhly41fevh" width="300%" x="-1" y="-1"><feGaussianBlur result="blurOut" stdDeviation="2.0"/><feColorMatrix in="blurOut" result="blurOut2" type="matrix" values="0 0 0 0 0 0 0 0 0 0 0 0 0 0 0 0 0 0 .4 0"/><feOffset dx="4.0" dy="4.0" in="blurOut2" result="blurOut3"/><feBlend in="SourceGraphic" in2="blurOut3" mode="normal"/></filter></defs><g><!--MD5=[121a8bf1197281ab89ed693fab589f94]
cluster Domain--><polygon fill="#FFFFFF" filter="url(#f80fhly41fevh)" points="16,6,74,6,81,29.6094,424,29.6094,424,215,16,215,16,6" style="stroke:#000000;stroke-width:1.5;"/><line style="stroke:#000000;stroke-width:1.5;" x1="16" x2="81" y1="29.6094" y2="29.6094"/><text fill="#000000" font-family="sans-serif" font-size="14" font-weight="bold" lengthAdjust="spacing" textLength="52" x="20" y="22.5332">Domain</text><!--MD5=[a3db38b29c3436960cdd3b658ea5cf84]
cluster Framework--><polygon fill="#FFFFFF" filter="url(#f80fhly41fevh)" points="181,248,265,248,272,271.6094,590,271.6094,590,416,181,416,181,248" style="stroke:#000000;stroke-width:1.5;"/><line style="stroke:#000000;stroke-width:1.5;" x1="181" x2="272" y1="271.6094" y2="271.6094"/><text fill="#000000" font-family="sans-serif" font-size="14" font-weight="bold" lengthAdjust="spacing" textLength="78" x="185" y="264.5332">Framework</text><!--MD5=[d9ea02e02d5504d0b2c661147963476c]
cluster System.IO--><polygon fill="#FFFFFF" filter="url(#f80fhly41fevh)" points="205,292,280,292,287,315.6094,309,315.6094,309,392,205,392,205,292" style="stroke:#000000;stroke-width:1.5;"/><line style="stroke:#000000;stroke-width:1.5;" x1="205" x2="287" y1="315.6094" y2="315.6094"/><text fill="#000000" font-family="sans-serif" font-size="14" font-weight="bold" lengthAdjust="spacing" textLength="69" x="209" y="308.5332">System.IO</text><!--MD5=[cdc60274d58b480fe3b1301cbded6bed]
cluster RJCP.Diagnostics.Log.Decoder--><polygon fill="#FFFFFF" filter="url(#f80fhly41fevh)" points="333,292,556,292,563,315.6094,566,315.6094,566,392,333,392,333,292" style="stroke:#000000;stroke-width:1.5;"/><line style="stroke:#000000;stroke-width:1.5;" x1="333" x2="563" y1="315.6094" y2="315.6094"/><text fill="#000000" font-family="sans-serif" font-size="14" font-weight="bold" lengthAdjust="spacing" textLength="217" x="337" y="308.5332">RJCP.Diagnostics.Log.Decoder</text><!--MD5=[d218c6afc6f8c372ae5afb36c62493b8]
class Domain.DltTraceDecoderFactory--><rect codeLine="3" fill="#FEFECE" filter="url(#f80fhly41fevh)" height="48" id="Domain.DltTraceDecoderFactory" style="stroke:#A80036;stroke-width:1.5;" width="164" x="32" y="42"/><ellipse cx="47" cy="58" fill="#ADD1B2" rx="11" ry="11" style="stroke:#A80036;stroke-width:1.0;"/><path d="M49.7656,53.875 Q49.9219,53.6563 50.1094,53.5469 Q50.2969,53.4375 50.5156,53.4375 Q50.8906,53.4375 51.125,53.6953 Q51.3594,53.9531 51.3594,54.5625 L51.3594,56.0156 Q51.3594,56.625 51.125,56.8906 Q50.8906,57.1563 50.5156,57.1563 Q50.1719,57.1563 49.9688,56.9531 Q49.7656,56.7656 49.6563,56.25 Q49.6094,55.8906 49.4219,55.7031 Q49.0938,55.3281 48.4844,55.1094 Q47.875,54.8906 47.25,54.8906 Q46.4844,54.8906 45.8516,55.2188 Q45.2188,55.5469 44.7266,56.2969 Q44.2344,57.0469 44.2344,58.0781 L44.2344,59.1719 Q44.2344,60.4063 45.125,61.2266 Q46.0156,62.0469 47.6094,62.0469 Q48.5469,62.0469 49.2031,61.7969 Q49.5938,61.6406 50.0156,61.2031 Q50.2813,60.9375 50.4297,60.8594 Q50.5781,60.7813 50.7813,60.7813 Q51.1094,60.7813 51.3672,61.0391 Q51.625,61.2969 51.625,61.6406 Q51.625,61.9844 51.2813,62.3906 Q50.7813,62.9688 49.9844,63.2969 Q48.9063,63.75 47.6094,63.75 Q46.0938,63.75 44.8906,63.125 Q43.9063,62.625 43.2188,61.5547 Q42.5313,60.4844 42.5313,59.2031 L42.5313,58.0469 Q42.5313,56.7188 43.1484,55.5703 Q43.7656,54.4219 44.8594,53.8047 Q45.9531,53.1875 47.1875,53.1875 Q47.9219,53.1875 48.5703,53.3516 Q49.2188,53.5156 49.7656,53.875 Z " fill="#000000"/><text fill="#000000" font-family="sans-serif" font-size="12" lengthAdjust="spacing" textLength="132" x="61" y="62.9102">DltTraceDecoderFactory</text><line style="stroke:#A80036;stroke-width:1.5;" x1="33" x2="195" y1="74" y2="74"/><line style="stroke:#A80036;stroke-width:1.5;" x1="33" x2="195" y1="82" y2="82"/><!--MD5=[2845c4ef3220f2e92f1d35f68472d427]
class Domain.DltDecoder--><rect codeLine="4" fill="#FEFECE" filter="url(#f80fhly41fevh)" height="48" id="Domain.DltDecoder" style="stroke:#A80036;stroke-width:1.5;" width="94" x="314" y="42"/><ellipse cx="329" cy="58" fill="#ADD1B2" rx="11" ry="11" style="stroke:#A80036;stroke-width:1.0;"/><path d="M331.7656,53.875 Q331.9219,53.6563 332.1094,53.5469 Q332.2969,53.4375 332.5156,53.4375 Q332.8906,53.4375 333.125,53.6953 Q333.3594,53.9531 333.3594,54.5625 L333.3594,56.0156 Q333.3594,56.625 333.125,56.8906 Q332.8906,57.1563 332.5156,57.1563 Q332.1719,57.1563 331.9688,56.9531 Q331.7656,56.7656 331.6563,56.25 Q331.6094,55.8906 331.4219,55.7031 Q331.0938,55.3281 330.4844,55.1094 Q329.875,54.8906 329.25,54.8906 Q328.4844,54.8906 327.8516,55.2188 Q327.2188,55.5469 326.7266,56.2969 Q326.2344,57.0469 326.2344,58.0781 L326.2344,59.1719 Q326.2344,60.4063 327.125,61.2266 Q328.0156,62.0469 329.6094,62.0469 Q330.5469,62.0469 331.2031,61.7969 Q331.5938,61.6406 332.0156,61.2031 Q332.2813,60.9375 332.4297,60.8594 Q332.5781,60.7813 332.7813,60.7813 Q333.1094,60.7813 333.3672,61.0391 Q333.625,61.2969 333.625,61.6406 Q333.625,61.9844 333.2813,62.3906 Q332.7813,62.9688 331.9844,63.2969 Q330.9063,63.75 329.6094,63.75 Q328.0938,63.75 326.8906,63.125 Q325.9063,62.625 325.2188,61.5547 Q324.5313,60.4844 324.5313,59.2031 L324.5313,58.0469 Q324.5313,56.7188 325.1484,55.5703 Q325.7656,54.4219 326.8594,53.8047 Q327.9531,53.1875 329.1875,53.1875 Q329.9219,53.1875 330.5703,53.3516 Q331.2188,53.5156 331.7656,53.875 Z " fill="#000000"/><text fill="#000000" font-family="sans-serif" font-size="12" lengthAdjust="spacing" textLength="62" x="343" y="62.9102">DltDecoder</text><line style="stroke:#A80036;stroke-width:1.5;" x1="315" x2="407" y1="74" y2="74"/><line style="stroke:#A80036;stroke-width:1.5;" x1="315" x2="407" y1="82" y2="82"/><!--MD5=[8508a2c0f45f0619431ef0136ea6d6d9]
class Domain.BinaryWriter--><rect codeLine="5" fill="#FEFECE" filter="url(#f80fhly41fevh)" height="48" id="Domain.BinaryWriter" style="stroke:#A80036;stroke-width:1.5;" width="98" x="208" y="151"/><ellipse cx="223" cy="167" fill="#ADD1B2" rx="11" ry="11" style="stroke:#A80036;stroke-width:1.0;"/><path d="M225.7656,162.875 Q225.9219,162.6563 226.1094,162.5469 Q226.2969,162.4375 226.5156,162.4375 Q226.8906,162.4375 227.125,162.6953 Q227.3594,162.9531 227.3594,163.5625 L227.3594,165.0156 Q227.3594,165.625 227.125,165.8906 Q226.8906,166.1563 226.5156,166.1563 Q226.1719,166.1563 225.9688,165.9531 Q225.7656,165.7656 225.6563,165.25 Q225.6094,164.8906 225.4219,164.7031 Q225.0938,164.3281 224.4844,164.1094 Q223.875,163.8906 223.25,163.8906 Q222.4844,163.8906 221.8516,164.2188 Q221.2188,164.5469 220.7266,165.2969 Q220.2344,166.0469 220.2344,167.0781 L220.2344,168.1719 Q220.2344,169.4063 221.125,170.2266 Q222.0156,171.0469 223.6094,171.0469 Q224.5469,171.0469 225.2031,170.7969 Q225.5938,170.6406 226.0156,170.2031 Q226.2813,169.9375 226.4297,169.8594 Q226.5781,169.7813 226.7813,169.7813 Q227.1094,169.7813 227.3672,170.0391 Q227.625,170.2969 227.625,170.6406 Q227.625,170.9844 227.2813,171.3906 Q226.7813,171.9688 225.9844,172.2969 Q224.9063,172.75 223.6094,172.75 Q222.0938,172.75 220.8906,172.125 Q219.9063,171.625 219.2188,170.5547 Q218.5313,169.4844 218.5313,168.2031 L218.5313,167.0469 Q218.5313,165.7188 219.1484,164.5703 Q219.7656,163.4219 220.8594,162.8047 Q221.9531,162.1875 223.1875,162.1875 Q223.9219,162.1875 224.5703,162.3516 Q225.2188,162.5156 225.7656,162.875 Z " fill="#000000"/><text fill="#000000" font-family="sans-serif" font-size="12" lengthAdjust="spacing" textLength="66" x="237" y="171.9102">BinaryWriter</text><line style="stroke:#A80036;stroke-width:1.5;" x1="209" x2="305" y1="183" y2="183"/><line style="stroke:#A80036;stroke-width:1.5;" x1="209" x2="305" y1="191" y2="191"/><!--MD5=[e5dc61dadcde1aacf475adb2100d9d54]
class Domain.Filter--><rect codeLine="6" fill="#FEFECE" filter="url(#f80fhly41fevh)" height="48" id="Domain.Filter" style="stroke:#A80036;stroke-width:1.5;" width="59" x="341.5" y="151"/><ellipse cx="356.5" cy="167" fill="#ADD1B2" rx="11" ry="11" style="stroke:#A80036;stroke-width:1.0;"/><path d="M359.2656,162.875 Q359.4219,162.6563 359.6094,162.5469 Q359.7969,162.4375 360.0156,162.4375 Q360.3906,162.4375 360.625,162.6953 Q360.8594,162.9531 360.8594,163.5625 L360.8594,165.0156 Q360.8594,165.625 360.625,165.8906 Q360.3906,166.1563 360.0156,166.1563 Q359.6719,166.1563 359.4688,165.9531 Q359.2656,165.7656 359.1563,165.25 Q359.1094,164.8906 358.9219,164.7031 Q358.5938,164.3281 357.9844,164.1094 Q357.375,163.8906 356.75,163.8906 Q355.9844,163.8906 355.3516,164.2188 Q354.7188,164.5469 354.2266,165.2969 Q353.7344,166.0469 353.7344,167.0781 L353.7344,168.1719 Q353.7344,169.4063 354.625,170.2266 Q355.5156,171.0469 357.1094,171.0469 Q358.0469,171.0469 358.7031,170.7969 Q359.0938,170.6406 359.5156,170.2031 Q359.7813,169.9375 359.9297,169.8594 Q360.0781,169.7813 360.2813,169.7813 Q360.6094,169.7813 360.8672,170.0391 Q361.125,170.2969 361.125,170.6406 Q361.125,170.9844 360.7813,171.3906 Q360.2813,171.9688 359.4844,172.2969 Q358.4063,172.75 357.1094,172.75 Q355.5938,172.75 354.3906,172.125 Q353.4063,171.625 352.7188,170.5547 Q352.0313,169.4844 352.0313,168.2031 L352.0313,167.0469 Q352.0313,165.7188 352.6484,164.5703 Q353.2656,163.4219 354.3594,162.8047 Q355.4531,162.1875 356.6875,162.1875 Q357.4219,162.1875 358.0703,162.3516 Q358.7188,162.5156 359.2656,162.875 Z " fill="#000000"/><text fill="#000000" font-family="sans-serif" font-size="12" lengthAdjust="spacing" textLength="27" x="370.5" y="171.9102">Filter</text><line style="stroke:#A80036;stroke-width:1.5;" x1="342.5" x2="399.5" y1="183" y2="183"/><line style="stroke:#A80036;stroke-width:1.5;" x1="342.5" x2="399.5" y1="191" y2="191"/><!--MD5=[8afbedb1e992326723e0af17f9c6447a]
class Domain.BinaryWriterConfig--><rect codeLine="7" fill="#FEFECE" filter="url(#f80fhly41fevh)" height="48" id="Domain.BinaryWriterConfig" style="stroke:#A80036;stroke-width:1.5;" width="134" x="39" y="151"/><ellipse cx="54" cy="167" fill="#ADD1B2" rx="11" ry="11" style="stroke:#A80036;stroke-width:1.0;"/><path d="M56.7656,162.875 Q56.9219,162.6563 57.1094,162.5469 Q57.2969,162.4375 57.5156,162.4375 Q57.8906,162.4375 58.125,162.6953 Q58.3594,162.9531 58.3594,163.5625 L58.3594,165.0156 Q58.3594,165.625 58.125,165.8906 Q57.8906,166.1563 57.5156,166.1563 Q57.1719,166.1563 56.9688,165.9531 Q56.7656,165.7656 56.6563,165.25 Q56.6094,164.8906 56.4219,164.7031 Q56.0938,164.3281 55.4844,164.1094 Q54.875,163.8906 54.25,163.8906 Q53.4844,163.8906 52.8516,164.2188 Q52.2188,164.5469 51.7266,165.2969 Q51.2344,166.0469 51.2344,167.0781 L51.2344,168.1719 Q51.2344,169.4063 52.125,170.2266 Q53.0156,171.0469 54.6094,171.0469 Q55.5469,171.0469 56.2031,170.7969 Q56.5938,170.6406 57.0156,170.2031 Q57.2813,169.9375 57.4297,169.8594 Q57.5781,169.7813 57.7813,169.7813 Q58.1094,169.7813 58.3672,170.0391 Q58.625,170.2969 58.625,170.6406 Q58.625,170.9844 58.2813,171.3906 Q57.7813,171.9688 56.9844,172.2969 Q55.9063,172.75 54.6094,172.75 Q53.0938,172.75 51.8906,172.125 Q50.9063,171.625 50.2188,170.5547 Q49.5313,169.4844 49.5313,168.2031 L49.5313,167.0469 Q49.5313,165.7188 50.1484,164.5703 Q50.7656,163.4219 51.8594,162.8047 Q52.9531,162.1875 54.1875,162.1875 Q54.9219,162.1875 55.5703,162.3516 Q56.2188,162.5156 56.7656,162.875 Z " fill="#000000"/><text fill="#000000" font-family="sans-serif" font-size="12" lengthAdjust="spacing" textLength="102" x="68" y="171.9102">BinaryWriterConfig</text><line style="stroke:#A80036;stroke-width:1.5;" x1="40" x2="172" y1="183" y2="183"/><line style="stroke:#A80036;stroke-width:1.5;" x1="40" x2="172" y1="191" y2="191"/><!--MD5=[e69c4169d9a44b556d1c3eb801b8f02a]
class System.IO.Stream--><rect codeLine="19" fill="#FEFECE" filter="url(#f80fhly41fevh)" height="48" id="System.IO.Stream" style="stroke:#A80036;stroke-width:1.5;" width="72" x="221" y="328"/><ellipse cx="236" cy="344" fill="#ADD1B2" rx="11" ry="11" style="stroke:#A80036;stroke-width:1.0;"/><path d="M238.7656,339.875 Q238.9219,339.6563 239.1094,339.5469 Q239.2969,339.4375 239.5156,339.4375 Q239.8906,339.4375 240.125,339.6953 Q240.3594,339.9531 240.3594,340.5625 L240.3594,342.0156 Q240.3594,342.625 240.125,342.8906 Q239.8906,343.1563 239.5156,343.1563 Q239.1719,343.1563 238.9688,342.9531 Q238.7656,342.7656 238.6563,342.25 Q238.6094,341.8906 238.4219,341.7031 Q238.0938,341.3281 237.4844,341.1094 Q236.875,340.8906 236.25,340.8906 Q235.4844,340.8906 234.8516,341.2188 Q234.2188,341.5469 233.7266,342.2969 Q233.2344,343.0469 233.2344,344.0781 L233.2344,345.1719 Q233.2344,346.4063 234.125,347.2266 Q235.0156,348.0469 236.6094,348.0469 Q237.5469,348.0469 238.2031,347.7969 Q238.5938,347.6406 239.0156,347.2031 Q239.2813,346.9375 239.4297,346.8594 Q239.5781,346.7813 239.7813,346.7813 Q240.1094,346.7813 240.3672,347.0391 Q240.625,347.2969 240.625,347.6406 Q240.625,347.9844 240.2813,348.3906 Q239.7813,348.9688 238.9844,349.2969 Q237.9063,349.75 236.6094,349.75 Q235.0938,349.75 233.8906,349.125 Q232.9063,348.625 232.2188,347.5547 Q231.5313,346.4844 231.5313,345.2031 L231.5313,344.0469 Q231.5313,342.7188 232.1484,341.5703 Q232.7656,340.4219 233.8594,339.8047 Q234.9531,339.1875 236.1875,339.1875 Q236.9219,339.1875 237.5703,339.3516 Q238.2188,339.5156 238.7656,339.875 Z " fill="#000000"/><text fill="#000000" font-family="sans-serif" font-size="12" lengthAdjust="spacing" textLength="40" x="250" y="348.9102">Stream</text><line style="stroke:#A80036;stroke-width:1.5;" x1="222" x2="292" y1="360" y2="360"/><line style="stroke:#A80036;stroke-width:1.5;" x1="222" x2="292" y1="368" y2="368"/><!--MD5=[bd0aa9b8a552675fa90a55280af24b13]
class RJCP.Diagnostics.Log.Decoder.DltTraceDecoderBase--><rect codeLine="23" fill="#FEFECE" filter="url(#f80fhly41fevh)" height="48" id="RJCP.Diagnostics.Log.Decoder.DltTraceDecoderBase" style="stroke:#A80036;stroke-width:1.5;" width="154" x="377" y="328"/><ellipse cx="392" cy="344" fill="#ADD1B2" rx="11" ry="11" style="stroke:#A80036;stroke-width:1.0;"/><path d="M394.7656,339.875 Q394.9219,339.6563 395.1094,339.5469 Q395.2969,339.4375 395.5156,339.4375 Q395.8906,339.4375 396.125,339.6953 Q396.3594,339.9531 396.3594,340.5625 L396.3594,342.0156 Q396.3594,342.625 396.125,342.8906 Q395.8906,343.1563 395.5156,343.1563 Q395.1719,343.1563 394.9688,342.9531 Q394.7656,342.7656 394.6563,342.25 Q394.6094,341.8906 394.4219,341.7031 Q394.0938,341.3281 393.4844,341.1094 Q392.875,340.8906 392.25,340.8906 Q391.4844,340.8906 390.8516,341.2188 Q390.2188,341.5469 389.7266,342.2969 Q389.2344,343.0469 389.2344,344.0781 L389.2344,345.1719 Q389.2344,346.4063 390.125,347.2266 Q391.0156,348.0469 392.6094,348.0469 Q393.5469,348.0469 394.2031,347.7969 Q394.5938,347.6406 395.0156,347.2031 Q395.2813,346.9375 395.4297,346.8594 Q395.5781,346.7813 395.7813,346.7813 Q396.1094,346.7813 396.3672,347.0391 Q396.625,347.2969 396.625,347.6406 Q396.625,347.9844 396.2813,348.3906 Q395.7813,348.9688 394.9844,349.2969 Q393.9063,349.75 392.6094,349.75 Q391.0938,349.75 389.8906,349.125 Q388.9063,348.625 388.2188,347.5547 Q387.5313,346.4844 387.5313,345.2031 L387.5313,344.0469 Q387.5313,342.7188 388.1484,341.5703 Q388.7656,340.4219 389.8594,339.8047 Q390.9531,339.1875 392.1875,339.1875 Q392.9219,339.1875 393.5703,339.3516 Q394.2188,339.5156 394.7656,339.875 Z " fill="#000000"/><text fill="#000000" font-family="sans-serif" font-size="12" lengthAdjust="spacing" textLength="122" x="406" y="348.9102">DltTraceDecoderBase</text><line style="stroke:#A80036;stroke-width:1.5;" x1="378" x2="530" y1="360" y2="360"/><line style="stroke:#A80036;stroke-width:1.5;" x1="378" x2="530" y1="368" y2="368"/><!--MD5=[fe433f86a96e0551095084dcdcfe32b3]
link Domain.DltTraceDecoderFactory to Domain.DltDecoder--><path codeLine="9" d="M196.25,66 C233.28,66 275.9,66 308.52,66 " fill="none" id="Domain.DltTraceDecoderFactory-to-Domain.DltDecoder" style="stroke:#A80036;stroke-width:1.0;stroke-dasharray:7.0,7.0;"/><polygon fill="#A80036" points="313.66,66,304.66,62,308.66,66,304.66,70,313.66,66" style="stroke:#A80036;stroke-width:1.0;"/><text fill="#000000" font-family="sans-serif" font-size="13" lengthAdjust="spacing" textLength="81" x="214.5" y="59.4951">«instantiates»</text><!--MD5=[c457d09703079b35a9359cc7f83f6832]
reverse link Domain.DltDecoder to Domain.Filter--><path codeLine="10" d="M364.39,103.3 C365.86,119.02 367.54,136.96 368.83,150.83 " fill="none" id="Domain.DltDecoder-backto-Domain.Filter" style="stroke:#A80036;stroke-width:1.0;"/><polygon fill="#A80036" points="363.17,90.22,359.741,96.5637,364.2778,102.1688,367.7068,95.8251,363.17,90.22" style="stroke:#A80036;stroke-width:1.0;"/><!--MD5=[e49be44e62f798f28c28b1835b4608c8]
reverse link Domain.DltDecoder to Domain.BinaryWriter--><path codeLine="11" d="M328.92,100 C312.92,116.46 293.96,135.97 279.52,150.83 " fill="none" id="Domain.DltDecoder-backto-Domain.BinaryWriter" style="stroke:#A80036;stroke-width:1.0;"/><polygon fill="#A80036" points="338.43,90.22,331.3806,91.7384,330.0709,98.8296,337.1203,97.3112,338.43,90.22" style="stroke:#A80036;stroke-width:1.0;"/><!--MD5=[addec1cfd85a261b761fd8fc1819483a]
reverse link Domain.DltDecoder to Domain.BinaryWriterConfig--><path codeLine="12" d="M301.82,91.83 C259.41,109.63 202.7,133.42 161.22,150.83 " fill="none" id="Domain.DltDecoder-backto-Domain.BinaryWriterConfig" style="stroke:#A80036;stroke-width:1.0;"/><polygon fill="#A80036" points="313.93,86.75,306.8503,85.3797,302.8625,91.3878,309.9422,92.7581,313.93,86.75" style="stroke:#A80036;stroke-width:1.0;"/><!--MD5=[e04a6202fdc586555f6c8c082458a348]
link Domain.BinaryWriterConfig to Domain.BinaryWriter--><path codeLine="14" d="M173.24,175 C180.47,175 187.69,175 194.92,175 " fill="none" id="Domain.BinaryWriterConfig-to-Domain.BinaryWriter" style="stroke:#A80036;stroke-width:1.0;"/><polygon fill="#FFFFFF" points="207.92,175,201.92,171,195.92,175,201.92,179,207.92,175" style="stroke:#A80036;stroke-width:1.0;"/><!--MD5=[99e3d793e7e589bd4074c07e8df1f9fa]
reverse link Domain.BinaryWriter to System.IO.Stream--><path codeLine="26" d="M257,212.57 C257,247.33 257,298.53 257,327.94 " fill="none" id="Domain.BinaryWriter-backto-System.IO.Stream" style="stroke:#A80036;stroke-width:1.0;"/><polygon fill="#A80036" points="257,199.24,253,205.24,257,211.24,261,205.24,257,199.24" style="stroke:#A80036;stroke-width:1.0;"/><!--MD5=[76a4c889847c4a650f2e4740def47d90]
link Domain.DltDecoder to RJCP.Diagnostics.Log.Decoder.DltTraceDecoderBase--><path codeLine="27" d="M380.59,90.08 C393.2,106.16 408.88,128.64 418,151 C439,202.51 447.79,266.43 451.44,307.94 " fill="none" id="Domain.DltDecoder-to-RJCP.Diagnostics.Log.Decoder.DltTraceDecoderBase" style="stroke:#A80036;stroke-width:1.0;"/><polygon fill="none" points="458.43,307.48,452.95,327.95,444.47,308.53,458.43,307.48" style="stroke:#A80036;stroke-width:1.0;"/><!--MD5=[bbadcc84c8fb7966751967f558c9601e]
@startuml Domain.Decoder.Writer

namespace Domain {
  class DltTraceDecoderFactory
  class DltDecoder
  class BinaryWriter
  class Filter
  class BinaryWriterConfig

  DltTraceDecoderFactory .r.> DltDecoder : <<instantiates>>
  DltDecoder *-d- Filter
  DltDecoder *-d- BinaryWriter
  DltDecoder *-d- BinaryWriterConfig

  BinaryWriterConfig -r-o BinaryWriter
}

namespace Framework {
    namespace System.IO {
        class Stream
    }

    namespace RJCP.Diagnostics.Log.Decoder {
        class DltTraceDecoderBase
    }

    Domain.BinaryWriter *- - System.IO.Stream
    Domain.DltDecoder - -|> RJCP.Diagnostics.Log.Decoder.DltTraceDecoderBase
}
@enduml

PlantUML version 1.2022.0(Tue Jan 11 17:16:42 CET 2022)
(GPL source distribution)
Java Runtime: Java(TM) SE Runtime Environment
JVM: Java HotSpot(TM) Client VM
Default Encoding: Cp1252
Language: en
Country: US
--></g></svg>