<?xml version="1.0" encoding="us-ascii" standalone="no"?><svg xmlns="http://www.w3.org/2000/svg" xmlns:xlink="http://www.w3.org/1999/xlink" contentStyleType="text/css" height="914px" preserveAspectRatio="none" style="width:1205px;height:914px;background:#FFFFFF;" version="1.1" viewBox="0 0 1205 914" width="1205px" zoomAndPan="magnify"><defs/><g><!--cluster Domain--><g id="cluster_Domain"><path d="M8.5,151.29 L67.5,151.29 A3.75,3.75 0 0 1 70,153.79 L77,173.5869 L641.5,173.5869 A2.5,2.5 0 0 1 644,176.0869 L644,905.09 A2.5,2.5 0 0 1 641.5,907.59 L8.5,907.59 A2.5,2.5 0 0 1 6,905.09 L6,153.79 A2.5,2.5 0 0 1 8.5,151.29 " fill="none" style="stroke:#000000;stroke-width:1.5;"/><line style="stroke:#000000;stroke-width:1.5;" x1="6" x2="77" y1="173.5869" y2="173.5869"/><text fill="#000000" font-family="sans-serif" font-size="14" font-weight="bold" lengthAdjust="spacing" textLength="58" x="10" y="166.2851">Domain</text></g><!--cluster RJCP--><g id="cluster_RJCP"><path d="M272.5,496.59 L308.5,496.59 A3.75,3.75 0 0 1 311,499.09 L318,518.8869 L617.5,518.8869 A2.5,2.5 0 0 1 620,521.3869 L620,794.09 A2.5,2.5 0 0 1 617.5,796.59 L272.5,796.59 A2.5,2.5 0 0 1 270,794.09 L270,499.09 A2.5,2.5 0 0 1 272.5,496.59 " fill="none" style="stroke:#000000;stroke-width:1.5;"/><line style="stroke:#000000;stroke-width:1.5;" x1="270" x2="318" y1="518.8869" y2="518.8869"/><text fill="#000000" font-family="sans-serif" font-size="14" font-weight="bold" lengthAdjust="spacing" textLength="35" x="274" y="511.5851">RJCP</text></g><!--cluster Diagnostics--><g id="cluster_Diagnostics"><path d="M296.5,539.59 L388.5,539.59 A3.75,3.75 0 0 1 391,542.09 L398,561.8869 L593.5,561.8869 A2.5,2.5 0 0 1 596,564.3869 L596,770.09 A2.5,2.5 0 0 1 593.5,772.59 L296.5,772.59 A2.5,2.5 0 0 1 294,770.09 L294,542.09 A2.5,2.5 0 0 1 296.5,539.59 " fill="none" style="stroke:#000000;stroke-width:1.5;"/><line style="stroke:#000000;stroke-width:1.5;" x1="294" x2="398" y1="561.8869" y2="561.8869"/><text fill="#000000" font-family="sans-serif" font-size="14" font-weight="bold" lengthAdjust="spacing" textLength="91" x="298" y="554.5851">Diagnostics</text></g><!--cluster Log--><g id="cluster_Log"><path d="M320.5,582.59 L350.5,582.59 A3.75,3.75 0 0 1 353,585.09 L360,604.8869 L569.5,604.8869 A2.5,2.5 0 0 1 572,607.3869 L572,746.09 A2.5,2.5 0 0 1 569.5,748.59 L320.5,748.59 A2.5,2.5 0 0 1 318,746.09 L318,585.09 A2.5,2.5 0 0 1 320.5,582.59 " fill="none" style="stroke:#000000;stroke-width:1.5;"/><line style="stroke:#000000;stroke-width:1.5;" x1="318" x2="360" y1="604.8869" y2="604.8869"/><text fill="#000000" font-family="sans-serif" font-size="14" font-weight="bold" lengthAdjust="spacing" textLength="29" x="322" y="597.5851">Log</text></g><!--cluster Decoder--><g id="cluster_Decoder"><path d="M344.5,625.59 L412.5,625.59 A3.75,3.75 0 0 1 415,628.09 L422,647.8869 L545.5,647.8869 A2.5,2.5 0 0 1 548,650.3869 L548,722.09 A2.5,2.5 0 0 1 545.5,724.59 L344.5,724.59 A2.5,2.5 0 0 1 342,722.09 L342,628.09 A2.5,2.5 0 0 1 344.5,625.59 " fill="none" style="stroke:#000000;stroke-width:1.5;"/><line style="stroke:#000000;stroke-width:1.5;" x1="342" x2="422" y1="647.8869" y2="647.8869"/><text fill="#000000" font-family="sans-serif" font-size="14" font-weight="bold" lengthAdjust="spacing" textLength="67" x="346" y="640.5851">Decoder</text></g><!--cluster RJCP--><g id="cluster_RJCP"><path d="M670.5,6 L706.5,6 A3.75,3.75 0 0 1 709,8.5 L716,28.2969 L1195.5,28.2969 A2.5,2.5 0 0 1 1198,30.7969 L1198,461.09 A2.5,2.5 0 0 1 1195.5,463.59 L670.5,463.59 A2.5,2.5 0 0 1 668,461.09 L668,8.5 A2.5,2.5 0 0 1 670.5,6 " fill="none" style="stroke:#000000;stroke-width:1.5;"/><line style="stroke:#000000;stroke-width:1.5;" x1="668" x2="716" y1="28.2969" y2="28.2969"/><text fill="#000000" font-family="sans-serif" font-size="14" font-weight="bold" lengthAdjust="spacing" textLength="35" x="672" y="20.9951">RJCP</text></g><!--cluster Diagnostics--><g id="cluster_Diagnostics"><path d="M694.5,49 L786.5,49 A3.75,3.75 0 0 1 789,51.5 L796,71.2969 L1171.5,71.2969 A2.5,2.5 0 0 1 1174,73.7969 L1174,437.09 A2.5,2.5 0 0 1 1171.5,439.59 L694.5,439.59 A2.5,2.5 0 0 1 692,437.09 L692,51.5 A2.5,2.5 0 0 1 694.5,49 " fill="none" style="stroke:#000000;stroke-width:1.5;"/><line style="stroke:#000000;stroke-width:1.5;" x1="692" x2="796" y1="71.2969" y2="71.2969"/><text fill="#000000" font-family="sans-serif" font-size="14" font-weight="bold" lengthAdjust="spacing" textLength="91" x="696" y="63.9951">Diagnostics</text></g><!--cluster Log--><g id="cluster_Log"><path d="M718.5,92 L748.5,92 A3.75,3.75 0 0 1 751,94.5 L758,114.2969 L1147.5,114.2969 A2.5,2.5 0 0 1 1150,116.7969 L1150,413.09 A2.5,2.5 0 0 1 1147.5,415.59 L718.5,415.59 A2.5,2.5 0 0 1 716,413.09 L716,94.5 A2.5,2.5 0 0 1 718.5,92 " fill="none" style="stroke:#000000;stroke-width:1.5;"/><line style="stroke:#000000;stroke-width:1.5;" x1="716" x2="758" y1="114.2969" y2="114.2969"/><text fill="#000000" font-family="sans-serif" font-size="14" font-weight="bold" lengthAdjust="spacing" textLength="29" x="720" y="106.9951">Log</text></g><!--cluster Decoder--><g id="cluster_Decoder"><path d="M742.5,135 L810.5,135 A3.75,3.75 0 0 1 813,137.5 L820,157.2969 L1123.5,157.2969 A2.5,2.5 0 0 1 1126,159.7969 L1126,389.09 A2.5,2.5 0 0 1 1123.5,391.59 L742.5,391.59 A2.5,2.5 0 0 1 740,389.09 L740,137.5 A2.5,2.5 0 0 1 742.5,135 " fill="none" style="stroke:#000000;stroke-width:1.5;"/><line style="stroke:#000000;stroke-width:1.5;" x1="740" x2="820" y1="157.2969" y2="157.2969"/><text fill="#000000" font-family="sans-serif" font-size="14" font-weight="bold" lengthAdjust="spacing" textLength="67" x="744" y="149.9951">Decoder</text></g><!--class DltDumpTraceReaderFactory--><g id="elem_DltDumpTraceReaderFactory"><rect codeLine="3" fill="#F1F1F1" height="48" id="DltDumpTraceReaderFactory" rx="2.5" ry="2.5" style="stroke:#181818;stroke-width:0.5;" width="232" x="22" y="186.29"/><ellipse cx="37" cy="202.29" fill="#ADD1B2" rx="11" ry="11" style="stroke:#181818;stroke-width:1.0;"/><path d="M39.9688,207.9306 Q39.3906,208.2275 38.75,208.3681 Q38.1094,208.5244 37.4063,208.5244 Q34.9063,208.5244 33.5781,206.8838 Q32.2656,205.2275 32.2656,202.1025 Q32.2656,198.9775 33.5781,197.3213 Q34.9063,195.665 37.4063,195.665 Q38.1094,195.665 38.75,195.8213 Q39.4063,195.9775 39.9688,196.2744 L39.9688,198.9931 Q39.3438,198.415 38.75,198.1494 Q38.1563,197.8681 37.5313,197.8681 Q36.1875,197.8681 35.5,198.9463 Q34.8125,200.0088 34.8125,202.1025 Q34.8125,204.1963 35.5,205.2744 Q36.1875,206.3369 37.5313,206.3369 Q38.1563,206.3369 38.75,206.0713 Q39.3438,205.79 39.9688,205.2119 L39.9688,207.9306 Z " fill="#000000"/><text fill="#000000" font-family="sans-serif" font-size="14" lengthAdjust="spacing" textLength="200" x="51" y="207.1367">DltDumpTraceReaderFactory</text><line style="stroke:#181818;stroke-width:0.5;" x1="23" x2="253" y1="218.29" y2="218.29"/><line style="stroke:#181818;stroke-width:0.5;" x1="23" x2="253" y1="226.29" y2="226.29"/></g><!--class IOutputStream--><g id="elem_IOutputStream"><rect codeLine="4" fill="#F1F1F1" height="48" id="IOutputStream" rx="2.5" ry="2.5" style="stroke:#181818;stroke-width:0.5;" width="132" x="85" y="843.59"/><ellipse cx="100" cy="859.59" fill="#B4A7E5" rx="11" ry="11" style="stroke:#181818;stroke-width:1.0;"/><path d="M95.9219,855.3556 L95.9219,853.1994 L103.3125,853.1994 L103.3125,855.3556 L100.8438,855.3556 L100.8438,863.4338 L103.3125,863.4338 L103.3125,865.59 L95.9219,865.59 L95.9219,863.4338 L98.3906,863.4338 L98.3906,855.3556 L95.9219,855.3556 Z " fill="#000000"/><text fill="#000000" font-family="sans-serif" font-size="14" font-style="italic" lengthAdjust="spacing" textLength="100" x="114" y="864.4367">IOutputStream</text><line style="stroke:#181818;stroke-width:0.5;" x1="86" x2="216" y1="875.59" y2="875.59"/><line style="stroke:#181818;stroke-width:0.5;" x1="86" x2="216" y1="883.59" y2="883.59"/></g><!--class DltFileTraceFilterReaderFactory--><g id="elem_DltFileTraceFilterReaderFactory"><rect codeLine="8" fill="#F1F1F1" height="48" id="DltFileTraceFilterReaderFactory" rx="2.5" ry="2.5" style="stroke:#181818;stroke-width:0.5;" width="246" x="382" y="186.29"/><ellipse cx="397" cy="202.29" fill="#ADD1B2" rx="11" ry="11" style="stroke:#181818;stroke-width:1.0;"/><path d="M399.9688,207.9306 Q399.3906,208.2275 398.75,208.3681 Q398.1094,208.5244 397.4063,208.5244 Q394.9063,208.5244 393.5781,206.8838 Q392.2656,205.2275 392.2656,202.1025 Q392.2656,198.9775 393.5781,197.3213 Q394.9063,195.665 397.4063,195.665 Q398.1094,195.665 398.75,195.8213 Q399.4063,195.9775 399.9688,196.2744 L399.9688,198.9931 Q399.3438,198.415 398.75,198.1494 Q398.1563,197.8681 397.5313,197.8681 Q396.1875,197.8681 395.5,198.9463 Q394.8125,200.0088 394.8125,202.1025 Q394.8125,204.1963 395.5,205.2744 Q396.1875,206.3369 397.5313,206.3369 Q398.1563,206.3369 398.75,206.0713 Q399.3438,205.79 399.9688,205.2119 L399.9688,207.9306 Z " fill="#000000"/><text fill="#000000" font-family="sans-serif" font-size="14" lengthAdjust="spacing" textLength="214" x="411" y="207.1367">DltFileTraceFilterReaderFactory</text><line style="stroke:#181818;stroke-width:0.5;" x1="383" x2="627" y1="218.29" y2="218.29"/><line style="stroke:#181818;stroke-width:0.5;" x1="383" x2="627" y1="226.29" y2="226.29"/></g><!--class TraceReader--><g id="elem_TraceReader"><rect codeLine="9" fill="#F1F1F1" height="48" id="TraceReader" rx="2.5" ry="2.5" style="stroke:#181818;stroke-width:0.5;" width="233" x="299.5" y="327.59"/><ellipse cx="314.5" cy="343.59" fill="#ADD1B2" rx="11" ry="11" style="stroke:#181818;stroke-width:1.0;"/><path d="M317.4688,349.2306 Q316.8906,349.5275 316.25,349.6681 Q315.6094,349.8244 314.9063,349.8244 Q312.4063,349.8244 311.0781,348.1838 Q309.7656,346.5275 309.7656,343.4025 Q309.7656,340.2775 311.0781,338.6213 Q312.4063,336.965 314.9063,336.965 Q315.6094,336.965 316.25,337.1213 Q316.9063,337.2775 317.4688,337.5744 L317.4688,340.2931 Q316.8438,339.715 316.25,339.4494 Q315.6563,339.1681 315.0313,339.1681 Q313.6875,339.1681 313,340.2463 Q312.3125,341.3088 312.3125,343.4025 Q312.3125,345.4963 313,346.5744 Q313.6875,347.6369 315.0313,347.6369 Q315.6563,347.6369 316.25,347.3713 Q316.8438,347.09 317.4688,346.5119 L317.4688,349.2306 Z " fill="#000000"/><text fill="#000000" font-family="sans-serif" font-size="14" lengthAdjust="spacing" textLength="89" x="328.5" y="348.4367">TraceReader</text><rect fill="#FFFFFF" height="15.9688" style="stroke:#181818;stroke-width:1.0;stroke-dasharray:2.0,2.0;" width="110" x="425.5" y="324.59"/><text fill="#000000" font-family="sans-serif" font-size="12" font-style="italic" lengthAdjust="spacing" textLength="108" x="426.5" y="336.7287">DltTraceLineBase</text><line style="stroke:#181818;stroke-width:0.5;" x1="300.5" x2="531.5" y1="359.59" y2="359.59"/><line style="stroke:#181818;stroke-width:0.5;" x1="300.5" x2="531.5" y1="367.59" y2="367.59"/></g><!--class DltFileTraceFilterDecoder--><g id="elem_DltFileTraceFilterDecoder"><rect codeLine="10" fill="#F1F1F1" height="48" id="DltFileTraceFilterDecoder" rx="2.5" ry="2.5" style="stroke:#181818;stroke-width:0.5;" width="206" x="48" y="660.59"/><ellipse cx="63" cy="676.59" fill="#ADD1B2" rx="11" ry="11" style="stroke:#181818;stroke-width:1.0;"/><path d="M65.9688,682.2306 Q65.3906,682.5275 64.75,682.6681 Q64.1094,682.8244 63.4063,682.8244 Q60.9063,682.8244 59.5781,681.1838 Q58.2656,679.5275 58.2656,676.4025 Q58.2656,673.2775 59.5781,671.6213 Q60.9063,669.965 63.4063,669.965 Q64.1094,669.965 64.75,670.1213 Q65.4063,670.2775 65.9688,670.5744 L65.9688,673.2931 Q65.3438,672.715 64.75,672.4494 Q64.1563,672.1681 63.5313,672.1681 Q62.1875,672.1681 61.5,673.2463 Q60.8125,674.3088 60.8125,676.4025 Q60.8125,678.4963 61.5,679.5744 Q62.1875,680.6369 63.5313,680.6369 Q64.1563,680.6369 64.75,680.3713 Q65.3438,680.09 65.9688,679.5119 L65.9688,682.2306 Z " fill="#000000"/><text fill="#000000" font-family="sans-serif" font-size="14" lengthAdjust="spacing" textLength="174" x="77" y="681.4367">DltFileTraceFilterDecoder</text><line style="stroke:#181818;stroke-width:0.5;" x1="49" x2="253" y1="692.59" y2="692.59"/><line style="stroke:#181818;stroke-width:0.5;" x1="49" x2="253" y1="700.59" y2="700.59"/></g><!--class DltFileTraceDecoder--><g id="elem_DltFileTraceDecoder"><rect fill="#F1F1F1" height="48" id="DltFileTraceDecoder" rx="2.5" ry="2.5" style="stroke:#181818;stroke-width:0.5;" width="173" x="358.5" y="660.59"/><ellipse cx="373.5" cy="676.59" fill="#ADD1B2" rx="11" ry="11" style="stroke:#181818;stroke-width:1.0;"/><path d="M376.4688,682.2306 Q375.8906,682.5275 375.25,682.6681 Q374.6094,682.8244 373.9063,682.8244 Q371.4063,682.8244 370.0781,681.1838 Q368.7656,679.5275 368.7656,676.4025 Q368.7656,673.2775 370.0781,671.6213 Q371.4063,669.965 373.9063,669.965 Q374.6094,669.965 375.25,670.1213 Q375.9063,670.2775 376.4688,670.5744 L376.4688,673.2931 Q375.8438,672.715 375.25,672.4494 Q374.6563,672.1681 374.0313,672.1681 Q372.6875,672.1681 372,673.2463 Q371.3125,674.3088 371.3125,676.4025 Q371.3125,678.4963 372,679.5744 Q372.6875,680.6369 374.0313,680.6369 Q374.6563,680.6369 375.25,680.3713 Q375.8438,680.09 376.4688,679.5119 L376.4688,682.2306 Z " fill="#000000"/><text fill="#000000" font-family="sans-serif" font-size="14" lengthAdjust="spacing" textLength="141" x="387.5" y="681.4367">DltFileTraceDecoder</text><line style="stroke:#181818;stroke-width:0.5;" x1="359.5" x2="530.5" y1="692.59" y2="692.59"/><line style="stroke:#181818;stroke-width:0.5;" x1="359.5" x2="530.5" y1="700.59" y2="700.59"/></g><!--class DltTraceDecoderBase--><g id="elem_DltTraceDecoderBase"><rect codeLine="18" fill="#F1F1F1" height="80.5938" id="DltTraceDecoderBase" rx="2.5" ry="2.5" style="stroke:#181818;stroke-width:0.5;" width="353" x="756.5" y="170"/><ellipse cx="852.25" cy="186" fill="#ADD1B2" rx="11" ry="11" style="stroke:#181818;stroke-width:1.0;"/><path d="M855.2188,191.6406 Q854.6406,191.9375 854,192.0781 Q853.3594,192.2344 852.6563,192.2344 Q850.1563,192.2344 848.8281,190.5938 Q847.5156,188.9375 847.5156,185.8125 Q847.5156,182.6875 848.8281,181.0313 Q850.1563,179.375 852.6563,179.375 Q853.3594,179.375 854,179.5313 Q854.6563,179.6875 855.2188,179.9844 L855.2188,182.7031 Q854.5938,182.125 854,181.8594 Q853.4063,181.5781 852.7813,181.5781 Q851.4375,181.5781 850.75,182.6563 Q850.0625,183.7188 850.0625,185.8125 Q850.0625,187.9063 850.75,188.9844 Q851.4375,190.0469 852.7813,190.0469 Q853.4063,190.0469 854,189.7813 Q854.5938,189.5 855.2188,188.9219 L855.2188,191.6406 Z " fill="#000000"/><text fill="#000000" font-family="sans-serif" font-size="14" lengthAdjust="spacing" textLength="153" x="872.75" y="190.8467">DltTraceDecoderBase</text><line style="stroke:#181818;stroke-width:0.5;" x1="757.5" x2="1108.5" y1="202" y2="202"/><line style="stroke:#181818;stroke-width:0.5;" x1="757.5" x2="1108.5" y1="210" y2="210"/><polygon fill="#FFFF44" points="767.5,226.7969,771.5,230.7969,767.5,234.7969,763.5,230.7969" style="stroke:#B38D22;stroke-width:1.0;"/><text fill="#000000" font-family="sans-serif" font-size="14" lengthAdjust="spacing" textLength="230" x="776.5" y="226.9951">OnPacket(line: DltTraceLineBase,</text><text fill="#000000" font-family="sans-serif" font-size="14" lengthAdjust="spacing" textLength="323" x="780.5" y="243.292">ReadOnlySpan&lt;byte&gt; buffer, int headerOffset)</text></g><!--class DltFileTraceDecoder--><g id="elem_DltFileTraceDecoder"><rect codeLine="21" fill="#F1F1F1" height="48" id="DltFileTraceDecoder" rx="2.5" ry="2.5" style="stroke:#181818;stroke-width:0.5;" width="173" x="846.5" y="327.59"/><ellipse cx="861.5" cy="343.59" fill="#ADD1B2" rx="11" ry="11" style="stroke:#181818;stroke-width:1.0;"/><path d="M864.4688,349.2306 Q863.8906,349.5275 863.25,349.6681 Q862.6094,349.8244 861.9063,349.8244 Q859.4063,349.8244 858.0781,348.1838 Q856.7656,346.5275 856.7656,343.4025 Q856.7656,340.2775 858.0781,338.6213 Q859.4063,336.965 861.9063,336.965 Q862.6094,336.965 863.25,337.1213 Q863.9063,337.2775 864.4688,337.5744 L864.4688,340.2931 Q863.8438,339.715 863.25,339.4494 Q862.6563,339.1681 862.0313,339.1681 Q860.6875,339.1681 860,340.2463 Q859.3125,341.3088 859.3125,343.4025 Q859.3125,345.4963 860,346.5744 Q860.6875,347.6369 862.0313,347.6369 Q862.6563,347.6369 863.25,347.3713 Q863.8438,347.09 864.4688,346.5119 L864.4688,349.2306 Z " fill="#000000"/><text fill="#000000" font-family="sans-serif" font-size="14" lengthAdjust="spacing" textLength="141" x="875.5" y="348.4367">DltFileTraceDecoder</text><line style="stroke:#181818;stroke-width:0.5;" x1="847.5" x2="1018.5" y1="359.59" y2="359.59"/><line style="stroke:#181818;stroke-width:0.5;" x1="847.5" x2="1018.5" y1="367.59" y2="367.59"/></g><!--link DltDumpTraceReaderFactory to DltFileTraceFilterReaderFactory--><g id="link_DltDumpTraceReaderFactory_DltFileTraceFilterReaderFactory"><path codeLine="6" d="M254.37,210.29 C292.99,210.29 336.21,210.29 375.74,210.29 " fill="none" id="DltDumpTraceReaderFactory-to-DltFileTraceFilterReaderFactory" style="stroke:#181818;stroke-width:1.0;"/><polygon fill="#181818" points="380.55,210.29,371.55,206.29,375.55,210.29,371.55,214.29,380.55,210.29" style="stroke:#181818;stroke-width:1.0;"/><text fill="#000000" font-family="sans-serif" font-size="13" lengthAdjust="spacing" textLength="91" x="272.5" y="203.3569">&#171;instantiates&#187;</text></g><!--link DltFileTraceFilterReaderFactory to TraceReader--><g id="link_DltFileTraceFilterReaderFactory_TraceReader"><path codeLine="11" d="M490.1,234.61 C474.7,258.71 450.64,296.37 434.14,322.2 " fill="none" id="DltFileTraceFilterReaderFactory-to-TraceReader" style="stroke:#181818;stroke-width:1.0;"/><polygon fill="#181818" points="430.95,326.2,439.1732,320.7797,433.6473,321.9899,432.4371,316.4641,430.95,326.2" style="stroke:#181818;stroke-width:1.0;"/><text fill="#000000" font-family="sans-serif" font-size="13" lengthAdjust="spacing" textLength="91" x="461" y="293.6569">&#171;instantiates&#187;</text></g><!--reverse link TraceReader to DltFileTraceFilterDecoder--><g id="link_TraceReader_DltFileTraceFilterDecoder"><path codeLine="12" d="M388.68,386.72 C334.68,454.16 215.59,602.92 169.61,660.34 " fill="none" id="TraceReader-backto-DltFileTraceFilterDecoder" style="stroke:#181818;stroke-width:1.0;"/><polygon fill="#181818" points="397.37,376.87,390.4965,379.0505,389.8656,386.234,396.7391,384.0535,397.37,376.87" style="stroke:#181818;stroke-width:1.0;"/></g><!--link DltFileTraceFilterDecoder to DltFileTraceDecoder--><g id="link_DltFileTraceFilterDecoder_DltFileTraceDecoder"><path codeLine="13" d="M254.36,684.59 C282.09,684.59 309.82,684.59 337.55,684.59 " fill="none" id="DltFileTraceFilterDecoder-to-DltFileTraceDecoder" style="stroke:#181818;stroke-width:1.0;"/><polygon fill="none" points="337.24,677.59,357.24,684.59,337.24,691.59,337.24,677.59" style="stroke:#181818;stroke-width:1.0;"/></g><!--reverse link DltFileTraceFilterDecoder to IOutputStream--><g id="link_DltFileTraceFilterDecoder_IOutputStream"><path codeLine="14" d="M151,722.69 C151,758.79 151,812.54 151,843.1 " fill="none" id="DltFileTraceFilterDecoder-backto-IOutputStream" style="stroke:#181818;stroke-width:1.0;"/><polygon fill="none" points="151,709.88,147,715.88,151,721.88,155,715.88,151,709.88" style="stroke:#181818;stroke-width:1.0;"/></g><!--reverse link DltTraceDecoderBase to DltFileTraceDecoder--><g id="link_DltTraceDecoderBase_DltFileTraceDecoder"><path codeLine="22" d="M933,271.78 C933,291.34 933,311.89 933,327.09 " fill="none" id="DltTraceDecoderBase-backto-DltFileTraceDecoder" style="stroke:#181818;stroke-width:1.0;"/><polygon fill="none" points="926,271.84,933,251.84,940,271.84,926,271.84" style="stroke:#181818;stroke-width:1.0;"/></g><!--SRC=[bLB1ReCm3Btp5PPssQR21rI8muOgRQf4rUwuYvkQBXeaA347jFBlInYhGjMXbLFGy_DxVhR2cco3WY3NDKe5Nn60gD1Qo2lEsxfvCmxT4Xx8h52mDfsha8h9b9xsKhJSjBnZGrX73lgJ1h69Cm-lP4K3x1wkpRHe2MagbMLKB979PbaKEfhZdki2xTHnXj-rLFI4bhAPRZa9xJW_GyowZ0zkb43cccsO53mwoesI8-PpEsMmVNtU9Bd4ezAMfR39MX-JiIG9oVzfgRsRwUhwA5BdOvWJ6qua234KzGcFkF_k2hL1yKbyNxdubt2vZCMx0fzFeQfkrw1AznrJ1lksBCai_9N1nn1VKPQM-65et4_bhymDLssbfyiL_3BwRm00]--></g></svg>