<?xml version="1.0" encoding="UTF-8" standalone="no"?><svg xmlns="http://www.w3.org/2000/svg" xmlns:xlink="http://www.w3.org/1999/xlink" contentScriptType="application/ecmascript" contentStyleType="text/css" height="696px" preserveAspectRatio="none" style="width:2256px;height:696px;background:#FFFFFF;" version="1.1" viewBox="0 0 2256 696" width="2256px" zoomAndPan="magnify"><defs><filter height="300%" id="f1plrfujwx8t9x" width="300%" x="-1" y="-1"><feGaussianBlur result="blurOut" stdDeviation="2.0"/><feColorMatrix in="blurOut" result="blurOut2" type="matrix" values="0 0 0 0 0 0 0 0 0 0 0 0 0 0 0 0 0 0 .4 0"/><feOffset dx="4.0" dy="4.0" in="blurOut2" result="blurOut3"/><feBlend in="SourceGraphic" in2="blurOut3" mode="normal"/></filter></defs><g><!--MD5=[6f2c01f075f91ebcd3347acc367829c7]
class BinaryIntArgEncoder--><rect codeLine="33" fill="#FEFECE" filter="url(#f1plrfujwx8t9x)" height="48" id="BinaryIntArgEncoder" style="stroke:#A80036;stroke-width:1.5;" width="143" x="1751" y="490"/><ellipse cx="1766" cy="506" fill="#ADD1B2" rx="11" ry="11" style="stroke:#A80036;stroke-width:1.0;"/><path d="M1768.7656,501.875 Q1768.9219,501.6563 1769.1094,501.5469 Q1769.2969,501.4375 1769.5156,501.4375 Q1769.8906,501.4375 1770.125,501.6953 Q1770.3594,501.9531 1770.3594,502.5625 L1770.3594,504.0156 Q1770.3594,504.625 1770.125,504.8906 Q1769.8906,505.1563 1769.5156,505.1563 Q1769.1719,505.1563 1768.9688,504.9531 Q1768.7656,504.7656 1768.6563,504.25 Q1768.6094,503.8906 1768.4219,503.7031 Q1768.0938,503.3281 1767.4844,503.1094 Q1766.875,502.8906 1766.25,502.8906 Q1765.4844,502.8906 1764.8516,503.2188 Q1764.2188,503.5469 1763.7266,504.2969 Q1763.2344,505.0469 1763.2344,506.0781 L1763.2344,507.1719 Q1763.2344,508.4063 1764.125,509.2266 Q1765.0156,510.0469 1766.6094,510.0469 Q1767.5469,510.0469 1768.2031,509.7969 Q1768.5938,509.6406 1769.0156,509.2031 Q1769.2813,508.9375 1769.4297,508.8594 Q1769.5781,508.7813 1769.7813,508.7813 Q1770.1094,508.7813 1770.3672,509.0391 Q1770.625,509.2969 1770.625,509.6406 Q1770.625,509.9844 1770.2813,510.3906 Q1769.7813,510.9688 1768.9844,511.2969 Q1767.9063,511.75 1766.6094,511.75 Q1765.0938,511.75 1763.8906,511.125 Q1762.9063,510.625 1762.2188,509.5547 Q1761.5313,508.4844 1761.5313,507.2031 L1761.5313,506.0469 Q1761.5313,504.7188 1762.1484,503.5703 Q1762.7656,502.4219 1763.8594,501.8047 Q1764.9531,501.1875 1766.1875,501.1875 Q1766.9219,501.1875 1767.5703,501.3516 Q1768.2188,501.5156 1768.7656,501.875 Z " fill="#000000"/><text fill="#000000" font-family="sans-serif" font-size="12" lengthAdjust="spacing" textLength="111" x="1780" y="510.9102">BinaryIntArgEncoder</text><line style="stroke:#A80036;stroke-width:1.5;" x1="1752" x2="1893" y1="522" y2="522"/><line style="stroke:#A80036;stroke-width:1.5;" x1="1752" x2="1893" y1="530" y2="530"/><!--MD5=[5ca4af4ba27db3c1fa37640d811cae7a]
class HexIntArgEncoder--><rect codeLine="34" fill="#FEFECE" filter="url(#f1plrfujwx8t9x)" height="48" id="HexIntArgEncoder" style="stroke:#A80036;stroke-width:1.5;" width="130" x="1929.5" y="490"/><ellipse cx="1944.5" cy="506" fill="#ADD1B2" rx="11" ry="11" style="stroke:#A80036;stroke-width:1.0;"/><path d="M1947.2656,501.875 Q1947.4219,501.6563 1947.6094,501.5469 Q1947.7969,501.4375 1948.0156,501.4375 Q1948.3906,501.4375 1948.625,501.6953 Q1948.8594,501.9531 1948.8594,502.5625 L1948.8594,504.0156 Q1948.8594,504.625 1948.625,504.8906 Q1948.3906,505.1563 1948.0156,505.1563 Q1947.6719,505.1563 1947.4688,504.9531 Q1947.2656,504.7656 1947.1563,504.25 Q1947.1094,503.8906 1946.9219,503.7031 Q1946.5938,503.3281 1945.9844,503.1094 Q1945.375,502.8906 1944.75,502.8906 Q1943.9844,502.8906 1943.3516,503.2188 Q1942.7188,503.5469 1942.2266,504.2969 Q1941.7344,505.0469 1941.7344,506.0781 L1941.7344,507.1719 Q1941.7344,508.4063 1942.625,509.2266 Q1943.5156,510.0469 1945.1094,510.0469 Q1946.0469,510.0469 1946.7031,509.7969 Q1947.0938,509.6406 1947.5156,509.2031 Q1947.7813,508.9375 1947.9297,508.8594 Q1948.0781,508.7813 1948.2813,508.7813 Q1948.6094,508.7813 1948.8672,509.0391 Q1949.125,509.2969 1949.125,509.6406 Q1949.125,509.9844 1948.7813,510.3906 Q1948.2813,510.9688 1947.4844,511.2969 Q1946.4063,511.75 1945.1094,511.75 Q1943.5938,511.75 1942.3906,511.125 Q1941.4063,510.625 1940.7188,509.5547 Q1940.0313,508.4844 1940.0313,507.2031 L1940.0313,506.0469 Q1940.0313,504.7188 1940.6484,503.5703 Q1941.2656,502.4219 1942.3594,501.8047 Q1943.4531,501.1875 1944.6875,501.1875 Q1945.4219,501.1875 1946.0703,501.3516 Q1946.7188,501.5156 1947.2656,501.875 Z " fill="#000000"/><text fill="#000000" font-family="sans-serif" font-size="12" lengthAdjust="spacing" textLength="98" x="1958.5" y="510.9102">HexIntArgEncoder</text><line style="stroke:#A80036;stroke-width:1.5;" x1="1930.5" x2="2058.5" y1="522" y2="522"/><line style="stroke:#A80036;stroke-width:1.5;" x1="1930.5" x2="2058.5" y1="530" y2="530"/><!--MD5=[f7a8f7cec189c8925c70c6dfe84b8abb]
class SignedIntArgEncoder--><rect codeLine="35" fill="#FEFECE" filter="url(#f1plrfujwx8t9x)" height="48" id="SignedIntArgEncoder" style="stroke:#A80036;stroke-width:1.5;" width="148" x="2094.5" y="490"/><ellipse cx="2109.5" cy="506" fill="#ADD1B2" rx="11" ry="11" style="stroke:#A80036;stroke-width:1.0;"/><path d="M2112.2656,501.875 Q2112.4219,501.6563 2112.6094,501.5469 Q2112.7969,501.4375 2113.0156,501.4375 Q2113.3906,501.4375 2113.625,501.6953 Q2113.8594,501.9531 2113.8594,502.5625 L2113.8594,504.0156 Q2113.8594,504.625 2113.625,504.8906 Q2113.3906,505.1563 2113.0156,505.1563 Q2112.6719,505.1563 2112.4688,504.9531 Q2112.2656,504.7656 2112.1563,504.25 Q2112.1094,503.8906 2111.9219,503.7031 Q2111.5938,503.3281 2110.9844,503.1094 Q2110.375,502.8906 2109.75,502.8906 Q2108.9844,502.8906 2108.3516,503.2188 Q2107.7188,503.5469 2107.2266,504.2969 Q2106.7344,505.0469 2106.7344,506.0781 L2106.7344,507.1719 Q2106.7344,508.4063 2107.625,509.2266 Q2108.5156,510.0469 2110.1094,510.0469 Q2111.0469,510.0469 2111.7031,509.7969 Q2112.0938,509.6406 2112.5156,509.2031 Q2112.7813,508.9375 2112.9297,508.8594 Q2113.0781,508.7813 2113.2813,508.7813 Q2113.6094,508.7813 2113.8672,509.0391 Q2114.125,509.2969 2114.125,509.6406 Q2114.125,509.9844 2113.7813,510.3906 Q2113.2813,510.9688 2112.4844,511.2969 Q2111.4063,511.75 2110.1094,511.75 Q2108.5938,511.75 2107.3906,511.125 Q2106.4063,510.625 2105.7188,509.5547 Q2105.0313,508.4844 2105.0313,507.2031 L2105.0313,506.0469 Q2105.0313,504.7188 2105.6484,503.5703 Q2106.2656,502.4219 2107.3594,501.8047 Q2108.4531,501.1875 2109.6875,501.1875 Q2110.4219,501.1875 2111.0703,501.3516 Q2111.7188,501.5156 2112.2656,501.875 Z " fill="#000000"/><text fill="#000000" font-family="sans-serif" font-size="12" lengthAdjust="spacing" textLength="116" x="2123.5" y="510.9102">SignedIntArgEncoder</text><line style="stroke:#A80036;stroke-width:1.5;" x1="2095.5" x2="2241.5" y1="522" y2="522"/><line style="stroke:#A80036;stroke-width:1.5;" x1="2095.5" x2="2241.5" y1="530" y2="530"/><!--MD5=[f544327efaf49fb6f83b6e7d8b5dce23]
class UnsignedIntArgEncoder--><rect codeLine="36" fill="#FEFECE" filter="url(#f1plrfujwx8t9x)" height="48" id="UnsignedIntArgEncoder" style="stroke:#A80036;stroke-width:1.5;" width="163" x="1553" y="490"/><ellipse cx="1568" cy="506" fill="#ADD1B2" rx="11" ry="11" style="stroke:#A80036;stroke-width:1.0;"/><path d="M1570.7656,501.875 Q1570.9219,501.6563 1571.1094,501.5469 Q1571.2969,501.4375 1571.5156,501.4375 Q1571.8906,501.4375 1572.125,501.6953 Q1572.3594,501.9531 1572.3594,502.5625 L1572.3594,504.0156 Q1572.3594,504.625 1572.125,504.8906 Q1571.8906,505.1563 1571.5156,505.1563 Q1571.1719,505.1563 1570.9688,504.9531 Q1570.7656,504.7656 1570.6563,504.25 Q1570.6094,503.8906 1570.4219,503.7031 Q1570.0938,503.3281 1569.4844,503.1094 Q1568.875,502.8906 1568.25,502.8906 Q1567.4844,502.8906 1566.8516,503.2188 Q1566.2188,503.5469 1565.7266,504.2969 Q1565.2344,505.0469 1565.2344,506.0781 L1565.2344,507.1719 Q1565.2344,508.4063 1566.125,509.2266 Q1567.0156,510.0469 1568.6094,510.0469 Q1569.5469,510.0469 1570.2031,509.7969 Q1570.5938,509.6406 1571.0156,509.2031 Q1571.2813,508.9375 1571.4297,508.8594 Q1571.5781,508.7813 1571.7813,508.7813 Q1572.1094,508.7813 1572.3672,509.0391 Q1572.625,509.2969 1572.625,509.6406 Q1572.625,509.9844 1572.2813,510.3906 Q1571.7813,510.9688 1570.9844,511.2969 Q1569.9063,511.75 1568.6094,511.75 Q1567.0938,511.75 1565.8906,511.125 Q1564.9063,510.625 1564.2188,509.5547 Q1563.5313,508.4844 1563.5313,507.2031 L1563.5313,506.0469 Q1563.5313,504.7188 1564.1484,503.5703 Q1564.7656,502.4219 1565.8594,501.8047 Q1566.9531,501.1875 1568.1875,501.1875 Q1568.9219,501.1875 1569.5703,501.3516 Q1570.2188,501.5156 1570.7656,501.875 Z " fill="#000000"/><text fill="#000000" font-family="sans-serif" font-size="12" lengthAdjust="spacing" textLength="131" x="1582" y="510.9102">UnsignedIntArgEncoder</text><line style="stroke:#A80036;stroke-width:1.5;" x1="1554" x2="1715" y1="522" y2="522"/><line style="stroke:#A80036;stroke-width:1.5;" x1="1554" x2="1715" y1="530" y2="530"/><!--MD5=[1f239973d255d0f438452ad301ebce4a]
class Float32ArgEncoder--><rect codeLine="39" fill="#FEFECE" filter="url(#f1plrfujwx8t9x)" height="48" id="Float32ArgEncoder" style="stroke:#A80036;stroke-width:1.5;" width="137" x="889" y="490"/><ellipse cx="904" cy="506" fill="#ADD1B2" rx="11" ry="11" style="stroke:#A80036;stroke-width:1.0;"/><path d="M906.7656,501.875 Q906.9219,501.6563 907.1094,501.5469 Q907.2969,501.4375 907.5156,501.4375 Q907.8906,501.4375 908.125,501.6953 Q908.3594,501.9531 908.3594,502.5625 L908.3594,504.0156 Q908.3594,504.625 908.125,504.8906 Q907.8906,505.1563 907.5156,505.1563 Q907.1719,505.1563 906.9688,504.9531 Q906.7656,504.7656 906.6563,504.25 Q906.6094,503.8906 906.4219,503.7031 Q906.0938,503.3281 905.4844,503.1094 Q904.875,502.8906 904.25,502.8906 Q903.4844,502.8906 902.8516,503.2188 Q902.2188,503.5469 901.7266,504.2969 Q901.2344,505.0469 901.2344,506.0781 L901.2344,507.1719 Q901.2344,508.4063 902.125,509.2266 Q903.0156,510.0469 904.6094,510.0469 Q905.5469,510.0469 906.2031,509.7969 Q906.5938,509.6406 907.0156,509.2031 Q907.2813,508.9375 907.4297,508.8594 Q907.5781,508.7813 907.7813,508.7813 Q908.1094,508.7813 908.3672,509.0391 Q908.625,509.2969 908.625,509.6406 Q908.625,509.9844 908.2813,510.3906 Q907.7813,510.9688 906.9844,511.2969 Q905.9063,511.75 904.6094,511.75 Q903.0938,511.75 901.8906,511.125 Q900.9063,510.625 900.2188,509.5547 Q899.5313,508.4844 899.5313,507.2031 L899.5313,506.0469 Q899.5313,504.7188 900.1484,503.5703 Q900.7656,502.4219 901.8594,501.8047 Q902.9531,501.1875 904.1875,501.1875 Q904.9219,501.1875 905.5703,501.3516 Q906.2188,501.5156 906.7656,501.875 Z " fill="#000000"/><text fill="#000000" font-family="sans-serif" font-size="12" lengthAdjust="spacing" textLength="105" x="918" y="510.9102">Float32ArgEncoder</text><line style="stroke:#A80036;stroke-width:1.5;" x1="890" x2="1025" y1="522" y2="522"/><line style="stroke:#A80036;stroke-width:1.5;" x1="890" x2="1025" y1="530" y2="530"/><!--MD5=[5662824aabed64f61a3b769880bc971b]
class Float64ArgEncoder--><rect codeLine="40" fill="#FEFECE" filter="url(#f1plrfujwx8t9x)" height="48" id="Float64ArgEncoder" style="stroke:#A80036;stroke-width:1.5;" width="137" x="1061" y="490"/><ellipse cx="1076" cy="506" fill="#ADD1B2" rx="11" ry="11" style="stroke:#A80036;stroke-width:1.0;"/><path d="M1078.7656,501.875 Q1078.9219,501.6563 1079.1094,501.5469 Q1079.2969,501.4375 1079.5156,501.4375 Q1079.8906,501.4375 1080.125,501.6953 Q1080.3594,501.9531 1080.3594,502.5625 L1080.3594,504.0156 Q1080.3594,504.625 1080.125,504.8906 Q1079.8906,505.1563 1079.5156,505.1563 Q1079.1719,505.1563 1078.9688,504.9531 Q1078.7656,504.7656 1078.6563,504.25 Q1078.6094,503.8906 1078.4219,503.7031 Q1078.0938,503.3281 1077.4844,503.1094 Q1076.875,502.8906 1076.25,502.8906 Q1075.4844,502.8906 1074.8516,503.2188 Q1074.2188,503.5469 1073.7266,504.2969 Q1073.2344,505.0469 1073.2344,506.0781 L1073.2344,507.1719 Q1073.2344,508.4063 1074.125,509.2266 Q1075.0156,510.0469 1076.6094,510.0469 Q1077.5469,510.0469 1078.2031,509.7969 Q1078.5938,509.6406 1079.0156,509.2031 Q1079.2813,508.9375 1079.4297,508.8594 Q1079.5781,508.7813 1079.7813,508.7813 Q1080.1094,508.7813 1080.3672,509.0391 Q1080.625,509.2969 1080.625,509.6406 Q1080.625,509.9844 1080.2813,510.3906 Q1079.7813,510.9688 1078.9844,511.2969 Q1077.9063,511.75 1076.6094,511.75 Q1075.0938,511.75 1073.8906,511.125 Q1072.9063,510.625 1072.2188,509.5547 Q1071.5313,508.4844 1071.5313,507.2031 L1071.5313,506.0469 Q1071.5313,504.7188 1072.1484,503.5703 Q1072.7656,502.4219 1073.8594,501.8047 Q1074.9531,501.1875 1076.1875,501.1875 Q1076.9219,501.1875 1077.5703,501.3516 Q1078.2188,501.5156 1078.7656,501.875 Z " fill="#000000"/><text fill="#000000" font-family="sans-serif" font-size="12" lengthAdjust="spacing" textLength="105" x="1090" y="510.9102">Float64ArgEncoder</text><line style="stroke:#A80036;stroke-width:1.5;" x1="1062" x2="1197" y1="522" y2="522"/><line style="stroke:#A80036;stroke-width:1.5;" x1="1062" x2="1197" y1="530" y2="530"/><!--MD5=[6f6d608e6fcd45a869ad33795209fe26]
class ITraceEncoder--><rect codeLine="1" fill="#FEFECE" filter="url(#f1plrfujwx8t9x)" height="48" id="ITraceEncoder" style="stroke:#A80036;stroke-width:1.5;" width="113" x="447" y="7"/><ellipse cx="462" cy="23" fill="#B4A7E5" rx="11" ry="11" style="stroke:#A80036;stroke-width:1.0;"/><path d="M462.9531,19.6406 L462.9531,26.2969 L464.6719,26.2969 Q465.2813,26.2969 465.5469,26.5313 Q465.8125,26.7656 465.8125,27.1563 Q465.8125,27.5313 465.5469,27.7656 Q465.2813,28 464.6719,28 L459.5313,28 Q458.9219,28 458.6563,27.7656 Q458.3906,27.5313 458.3906,27.1406 Q458.3906,26.7656 458.6563,26.5313 Q458.9219,26.2969 459.5313,26.2969 L461.25,26.2969 L461.25,19.6406 L459.5313,19.6406 Q458.9219,19.6406 458.6563,19.4063 Q458.3906,19.1719 458.3906,18.7813 Q458.3906,18.4063 458.6563,18.1719 Q458.9219,17.9375 459.5313,17.9375 L464.6719,17.9375 Q465.2813,17.9375 465.5469,18.1719 Q465.8125,18.4063 465.8125,18.7813 Q465.8125,19.1719 465.5469,19.4063 Q465.2813,19.6406 464.6719,19.6406 L462.9531,19.6406 Z " fill="#000000"/><text fill="#000000" font-family="sans-serif" font-size="12" font-style="italic" lengthAdjust="spacing" textLength="81" x="476" y="27.9102">ITraceEncoder</text><line style="stroke:#A80036;stroke-width:1.5;" x1="448" x2="559" y1="39" y2="39"/><line style="stroke:#A80036;stroke-width:1.5;" x1="448" x2="559" y1="47" y2="47"/><!--MD5=[3d4b20d523844a7742bcfaf38f4a7853]
class ITraceEncoderFactory--><rect codeLine="2" fill="#FEFECE" filter="url(#f1plrfujwx8t9x)" height="48" id="ITraceEncoderFactory" style="stroke:#A80036;stroke-width:1.5;" width="153" x="233" y="7"/><ellipse cx="248" cy="23" fill="#B4A7E5" rx="11" ry="11" style="stroke:#A80036;stroke-width:1.0;"/><path d="M248.9531,19.6406 L248.9531,26.2969 L250.6719,26.2969 Q251.2813,26.2969 251.5469,26.5313 Q251.8125,26.7656 251.8125,27.1563 Q251.8125,27.5313 251.5469,27.7656 Q251.2813,28 250.6719,28 L245.5313,28 Q244.9219,28 244.6563,27.7656 Q244.3906,27.5313 244.3906,27.1406 Q244.3906,26.7656 244.6563,26.5313 Q244.9219,26.2969 245.5313,26.2969 L247.25,26.2969 L247.25,19.6406 L245.5313,19.6406 Q244.9219,19.6406 244.6563,19.4063 Q244.3906,19.1719 244.3906,18.7813 Q244.3906,18.4063 244.6563,18.1719 Q244.9219,17.9375 245.5313,17.9375 L250.6719,17.9375 Q251.2813,17.9375 251.5469,18.1719 Q251.8125,18.4063 251.8125,18.7813 Q251.8125,19.1719 251.5469,19.4063 Q251.2813,19.6406 250.6719,19.6406 L248.9531,19.6406 Z " fill="#000000"/><text fill="#000000" font-family="sans-serif" font-size="12" font-style="italic" lengthAdjust="spacing" textLength="121" x="262" y="27.9102">ITraceEncoderFactory</text><line style="stroke:#A80036;stroke-width:1.5;" x1="234" x2="385" y1="39" y2="39"/><line style="stroke:#A80036;stroke-width:1.5;" x1="234" x2="385" y1="47" y2="47"/><!--MD5=[4aada09f93d0b6e7ebd03dfdc6a2603a]
class DltTraceEncoderFactory--><rect codeLine="6" fill="#FEFECE" filter="url(#f1plrfujwx8t9x)" height="48" id="DltTraceEncoderFactory" style="stroke:#A80036;stroke-width:1.5;" width="299" x="7" y="116"/><ellipse cx="22" cy="132" fill="#ADD1B2" rx="11" ry="11" style="stroke:#A80036;stroke-width:1.0;"/><path d="M24.7656,127.875 Q24.9219,127.6563 25.1094,127.5469 Q25.2969,127.4375 25.5156,127.4375 Q25.8906,127.4375 26.125,127.6953 Q26.3594,127.9531 26.3594,128.5625 L26.3594,130.0156 Q26.3594,130.625 26.125,130.8906 Q25.8906,131.1563 25.5156,131.1563 Q25.1719,131.1563 24.9688,130.9531 Q24.7656,130.7656 24.6563,130.25 Q24.6094,129.8906 24.4219,129.7031 Q24.0938,129.3281 23.4844,129.1094 Q22.875,128.8906 22.25,128.8906 Q21.4844,128.8906 20.8516,129.2188 Q20.2188,129.5469 19.7266,130.2969 Q19.2344,131.0469 19.2344,132.0781 L19.2344,133.1719 Q19.2344,134.4063 20.125,135.2266 Q21.0156,136.0469 22.6094,136.0469 Q23.5469,136.0469 24.2031,135.7969 Q24.5938,135.6406 25.0156,135.2031 Q25.2813,134.9375 25.4297,134.8594 Q25.5781,134.7813 25.7813,134.7813 Q26.1094,134.7813 26.3672,135.0391 Q26.625,135.2969 26.625,135.6406 Q26.625,135.9844 26.2813,136.3906 Q25.7813,136.9688 24.9844,137.2969 Q23.9063,137.75 22.6094,137.75 Q21.0938,137.75 19.8906,137.125 Q18.9063,136.625 18.2188,135.5547 Q17.5313,134.4844 17.5313,133.2031 L17.5313,132.0469 Q17.5313,130.7188 18.1484,129.5703 Q18.7656,128.4219 19.8594,127.8047 Q20.9531,127.1875 22.1875,127.1875 Q22.9219,127.1875 23.5703,127.3516 Q24.2188,127.5156 24.7656,127.875 Z " fill="#000000"/><text fill="#000000" font-family="sans-serif" font-size="12" lengthAdjust="spacing" textLength="131" x="36" y="136.9102">DltTraceEncoderFactory</text><rect fill="#FFFFFF" height="17.0938" style="stroke:#000000;stroke-width:1.0;stroke-dasharray:2.0,2.0;" width="134" x="175" y="113"/><text fill="#000000" font-family="sans-serif" font-size="12" font-style="italic" lengthAdjust="spacing" textLength="132" x="176" y="126.457">TLine:DltTraceLineBase</text><line style="stroke:#A80036;stroke-width:1.5;" x1="8" x2="305" y1="148" y2="148"/><line style="stroke:#A80036;stroke-width:1.5;" x1="8" x2="305" y1="156" y2="156"/><!--MD5=[11363600cc92b2fece27b28de66320bf]
class DltTraceEncoder--><rect codeLine="9" fill="#FEFECE" filter="url(#f1plrfujwx8t9x)" height="48" id="DltTraceEncoder" style="stroke:#A80036;stroke-width:1.5;" width="260" x="399.5" y="116"/><ellipse cx="414.5" cy="132" fill="#ADD1B2" rx="11" ry="11" style="stroke:#A80036;stroke-width:1.0;"/><path d="M417.2656,127.875 Q417.4219,127.6563 417.6094,127.5469 Q417.7969,127.4375 418.0156,127.4375 Q418.3906,127.4375 418.625,127.6953 Q418.8594,127.9531 418.8594,128.5625 L418.8594,130.0156 Q418.8594,130.625 418.625,130.8906 Q418.3906,131.1563 418.0156,131.1563 Q417.6719,131.1563 417.4688,130.9531 Q417.2656,130.7656 417.1563,130.25 Q417.1094,129.8906 416.9219,129.7031 Q416.5938,129.3281 415.9844,129.1094 Q415.375,128.8906 414.75,128.8906 Q413.9844,128.8906 413.3516,129.2188 Q412.7188,129.5469 412.2266,130.2969 Q411.7344,131.0469 411.7344,132.0781 L411.7344,133.1719 Q411.7344,134.4063 412.625,135.2266 Q413.5156,136.0469 415.1094,136.0469 Q416.0469,136.0469 416.7031,135.7969 Q417.0938,135.6406 417.5156,135.2031 Q417.7813,134.9375 417.9297,134.8594 Q418.0781,134.7813 418.2813,134.7813 Q418.6094,134.7813 418.8672,135.0391 Q419.125,135.2969 419.125,135.6406 Q419.125,135.9844 418.7813,136.3906 Q418.2813,136.9688 417.4844,137.2969 Q416.4063,137.75 415.1094,137.75 Q413.5938,137.75 412.3906,137.125 Q411.4063,136.625 410.7188,135.5547 Q410.0313,134.4844 410.0313,133.2031 L410.0313,132.0469 Q410.0313,130.7188 410.6484,129.5703 Q411.2656,128.4219 412.3594,127.8047 Q413.4531,127.1875 414.6875,127.1875 Q415.4219,127.1875 416.0703,127.3516 Q416.7188,127.5156 417.2656,127.875 Z " fill="#000000"/><text fill="#000000" font-family="sans-serif" font-size="12" lengthAdjust="spacing" textLength="92" x="428.5" y="136.9102">DltTraceEncoder</text><rect fill="#FFFFFF" height="17.0938" style="stroke:#000000;stroke-width:1.0;stroke-dasharray:2.0,2.0;" width="134" x="528.5" y="113"/><text fill="#000000" font-family="sans-serif" font-size="12" font-style="italic" lengthAdjust="spacing" textLength="132" x="529.5" y="126.457">TLine:DltTraceLineBase</text><line style="stroke:#A80036;stroke-width:1.5;" x1="400.5" x2="658.5" y1="148" y2="148"/><line style="stroke:#A80036;stroke-width:1.5;" x1="400.5" x2="658.5" y1="156" y2="156"/><!--MD5=[41fead8911a9e917d46f3318ccce8e3a]
class IDltEncoder--><rect codeLine="14" fill="#FEFECE" filter="url(#f1plrfujwx8t9x)" height="61.8359" id="IDltEncoder" style="stroke:#A80036;stroke-width:1.5;" width="235" x="412" y="225"/><ellipse cx="427.9" cy="241" fill="#B4A7E5" rx="11" ry="11" style="stroke:#A80036;stroke-width:1.0;"/><path d="M428.8531,237.6406 L428.8531,244.2969 L430.5719,244.2969 Q431.1813,244.2969 431.4469,244.5313 Q431.7125,244.7656 431.7125,245.1563 Q431.7125,245.5313 431.4469,245.7656 Q431.1813,246 430.5719,246 L425.4313,246 Q424.8219,246 424.5563,245.7656 Q424.2906,245.5313 424.2906,245.1406 Q424.2906,244.7656 424.5563,244.5313 Q424.8219,244.2969 425.4313,244.2969 L427.15,244.2969 L427.15,237.6406 L425.4313,237.6406 Q424.8219,237.6406 424.5563,237.4063 Q424.2906,237.1719 424.2906,236.7813 Q424.2906,236.4063 424.5563,236.1719 Q424.8219,235.9375 425.4313,235.9375 L430.5719,235.9375 Q431.1813,235.9375 431.4469,236.1719 Q431.7125,236.4063 431.7125,236.7813 Q431.7125,237.1719 431.4469,237.4063 Q431.1813,237.6406 430.5719,237.6406 L428.8531,237.6406 Z " fill="#000000"/><text fill="#000000" font-family="sans-serif" font-size="12" font-style="italic" lengthAdjust="spacing" textLength="65" x="442.1" y="245.9102">IDltEncoder</text><rect fill="#FFFFFF" height="17.0938" style="stroke:#000000;stroke-width:1.0;stroke-dasharray:2.0,2.0;" width="134" x="516" y="222"/><text fill="#000000" font-family="sans-serif" font-size="12" font-style="italic" lengthAdjust="spacing" textLength="132" x="517" y="235.457">TLine:DltTraceLineBase</text><line style="stroke:#A80036;stroke-width:1.5;" x1="413" x2="646" y1="257" y2="257"/><line style="stroke:#A80036;stroke-width:1.5;" x1="413" x2="646" y1="265" y2="265"/><ellipse cx="423" cy="276" fill="#84BE84" rx="3" ry="3" style="stroke:#038048;stroke-width:1.0;"/><text fill="#000000" font-family="sans-serif" font-size="11" lengthAdjust="spacing" textLength="209" x="432" y="280.4189">Encode(buffer: Span&lt;byte&gt;, line: TLine): int</text><!--MD5=[05a54f20826aaf197f67c85105285274]
class VerboseDltEncoder--><rect codeLine="17" fill="#FEFECE" filter="url(#f1plrfujwx8t9x)" height="61.8359" id="VerboseDltEncoder" style="stroke:#A80036;stroke-width:1.5;" width="269" x="395" y="365"/><ellipse cx="435.2" cy="381" fill="#ADD1B2" rx="11" ry="11" style="stroke:#A80036;stroke-width:1.0;"/><path d="M437.9656,376.875 Q438.1219,376.6563 438.3094,376.5469 Q438.4969,376.4375 438.7156,376.4375 Q439.0906,376.4375 439.325,376.6953 Q439.5594,376.9531 439.5594,377.5625 L439.5594,379.0156 Q439.5594,379.625 439.325,379.8906 Q439.0906,380.1563 438.7156,380.1563 Q438.3719,380.1563 438.1688,379.9531 Q437.9656,379.7656 437.8563,379.25 Q437.8094,378.8906 437.6219,378.7031 Q437.2938,378.3281 436.6844,378.1094 Q436.075,377.8906 435.45,377.8906 Q434.6844,377.8906 434.0516,378.2188 Q433.4188,378.5469 432.9266,379.2969 Q432.4344,380.0469 432.4344,381.0781 L432.4344,382.1719 Q432.4344,383.4063 433.325,384.2266 Q434.2156,385.0469 435.8094,385.0469 Q436.7469,385.0469 437.4031,384.7969 Q437.7938,384.6406 438.2156,384.2031 Q438.4813,383.9375 438.6297,383.8594 Q438.7781,383.7813 438.9813,383.7813 Q439.3094,383.7813 439.5672,384.0391 Q439.825,384.2969 439.825,384.6406 Q439.825,384.9844 439.4813,385.3906 Q438.9813,385.9688 438.1844,386.2969 Q437.1063,386.75 435.8094,386.75 Q434.2938,386.75 433.0906,386.125 Q432.1063,385.625 431.4188,384.5547 Q430.7313,383.4844 430.7313,382.2031 L430.7313,381.0469 Q430.7313,379.7188 431.3484,378.5703 Q431.9656,377.4219 433.0594,376.8047 Q434.1531,376.1875 435.3875,376.1875 Q436.1219,376.1875 436.7703,376.3516 Q437.4188,376.5156 437.9656,376.875 Z " fill="#000000"/><text fill="#000000" font-family="sans-serif" font-size="12" lengthAdjust="spacing" textLength="107" x="454.8" y="385.9102">VerboseDltEncoder</text><rect fill="#FFFFFF" height="17.0938" style="stroke:#000000;stroke-width:1.0;stroke-dasharray:2.0,2.0;" width="72" x="595" y="362"/><text fill="#000000" font-family="sans-serif" font-size="12" font-style="italic" lengthAdjust="spacing" textLength="70" x="596" y="375.457">DltTraceLine</text><line style="stroke:#A80036;stroke-width:1.5;" x1="396" x2="663" y1="397" y2="397"/><line style="stroke:#A80036;stroke-width:1.5;" x1="396" x2="663" y1="405" y2="405"/><ellipse cx="406" cy="416" fill="#84BE84" rx="3" ry="3" style="stroke:#038048;stroke-width:1.0;"/><text fill="#000000" font-family="sans-serif" font-size="11" lengthAdjust="spacing" textLength="243" x="415" y="420.4189">Encode(buffer: Span&lt;byte&gt;, line: DltTraceLine): int</text><!--MD5=[358dd04dd0fac196fcd8d983e2abb37d]
class IArgEncoder--><rect codeLine="22" fill="#FEFECE" filter="url(#f1plrfujwx8t9x)" height="61.8359" id="IArgEncoder" style="stroke:#A80036;stroke-width:1.5;" width="363" x="1004" y="225"/><ellipse cx="1146.75" cy="241" fill="#B4A7E5" rx="11" ry="11" style="stroke:#A80036;stroke-width:1.0;"/><path d="M1147.7031,237.6406 L1147.7031,244.2969 L1149.4219,244.2969 Q1150.0313,244.2969 1150.2969,244.5313 Q1150.5625,244.7656 1150.5625,245.1563 Q1150.5625,245.5313 1150.2969,245.7656 Q1150.0313,246 1149.4219,246 L1144.2813,246 Q1143.6719,246 1143.4063,245.7656 Q1143.1406,245.5313 1143.1406,245.1406 Q1143.1406,244.7656 1143.4063,244.5313 Q1143.6719,244.2969 1144.2813,244.2969 L1146,244.2969 L1146,237.6406 L1144.2813,237.6406 Q1143.6719,237.6406 1143.4063,237.4063 Q1143.1406,237.1719 1143.1406,236.7813 Q1143.1406,236.4063 1143.4063,236.1719 Q1143.6719,235.9375 1144.2813,235.9375 L1149.4219,235.9375 Q1150.0313,235.9375 1150.2969,236.1719 Q1150.5625,236.4063 1150.5625,236.7813 Q1150.5625,237.1719 1150.2969,237.4063 Q1150.0313,237.6406 1149.4219,237.6406 L1147.7031,237.6406 Z " fill="#000000"/><text fill="#000000" font-family="sans-serif" font-size="12" font-style="italic" lengthAdjust="spacing" textLength="69" x="1167.25" y="245.9102">IArgEncoder</text><line style="stroke:#A80036;stroke-width:1.5;" x1="1005" x2="1366" y1="257" y2="257"/><line style="stroke:#A80036;stroke-width:1.5;" x1="1005" x2="1366" y1="265" y2="265"/><ellipse cx="1015" cy="276" fill="#84BE84" rx="3" ry="3" style="stroke:#038048;stroke-width:1.0;"/><text fill="#000000" font-family="sans-serif" font-size="11" lengthAdjust="spacing" textLength="337" x="1024" y="280.4189">Encode(buffer: Span&lt;byte&gt;, bool verbose, bool msbf, arg: IDltArg): int</text><!--MD5=[4897523d3375529ead9aa56cb33cfe69]
class DltArgEncoder--><rect codeLine="25" fill="#FEFECE" filter="url(#f1plrfujwx8t9x)" height="61.8359" id="DltArgEncoder" style="stroke:#A80036;stroke-width:1.5;" width="363" x="1170" y="365"/><ellipse cx="1307.75" cy="381" fill="#ADD1B2" rx="11" ry="11" style="stroke:#A80036;stroke-width:1.0;"/><path d="M1310.5156,376.875 Q1310.6719,376.6563 1310.8594,376.5469 Q1311.0469,376.4375 1311.2656,376.4375 Q1311.6406,376.4375 1311.875,376.6953 Q1312.1094,376.9531 1312.1094,377.5625 L1312.1094,379.0156 Q1312.1094,379.625 1311.875,379.8906 Q1311.6406,380.1563 1311.2656,380.1563 Q1310.9219,380.1563 1310.7188,379.9531 Q1310.5156,379.7656 1310.4063,379.25 Q1310.3594,378.8906 1310.1719,378.7031 Q1309.8438,378.3281 1309.2344,378.1094 Q1308.625,377.8906 1308,377.8906 Q1307.2344,377.8906 1306.6016,378.2188 Q1305.9688,378.5469 1305.4766,379.2969 Q1304.9844,380.0469 1304.9844,381.0781 L1304.9844,382.1719 Q1304.9844,383.4063 1305.875,384.2266 Q1306.7656,385.0469 1308.3594,385.0469 Q1309.2969,385.0469 1309.9531,384.7969 Q1310.3438,384.6406 1310.7656,384.2031 Q1311.0313,383.9375 1311.1797,383.8594 Q1311.3281,383.7813 1311.5313,383.7813 Q1311.8594,383.7813 1312.1172,384.0391 Q1312.375,384.2969 1312.375,384.6406 Q1312.375,384.9844 1312.0313,385.3906 Q1311.5313,385.9688 1310.7344,386.2969 Q1309.6563,386.75 1308.3594,386.75 Q1306.8438,386.75 1305.6406,386.125 Q1304.6563,385.625 1303.9688,384.5547 Q1303.2813,383.4844 1303.2813,382.2031 L1303.2813,381.0469 Q1303.2813,379.7188 1303.8984,378.5703 Q1304.5156,377.4219 1305.6094,376.8047 Q1306.7031,376.1875 1307.9375,376.1875 Q1308.6719,376.1875 1309.3203,376.3516 Q1309.9688,376.5156 1310.5156,376.875 Z " fill="#000000"/><text fill="#000000" font-family="sans-serif" font-size="12" lengthAdjust="spacing" textLength="79" x="1328.25" y="385.9102">DltArgEncoder</text><line style="stroke:#A80036;stroke-width:1.5;" x1="1171" x2="1532" y1="397" y2="397"/><line style="stroke:#A80036;stroke-width:1.5;" x1="1171" x2="1532" y1="405" y2="405"/><ellipse cx="1181" cy="416" fill="#84BE84" rx="3" ry="3" style="stroke:#038048;stroke-width:1.0;"/><text fill="#000000" font-family="sans-serif" font-size="11" lengthAdjust="spacing" textLength="337" x="1190" y="420.4189">Encode(buffer: Span&lt;byte&gt;, bool verbose, bool msbf, arg: IDltArg): int</text><!--MD5=[e04e017feeb2dd5dd390d83656173fba]
class BoolArgEncoder--><rect codeLine="31" fill="#FEFECE" filter="url(#f1plrfujwx8t9x)" height="48" id="BoolArgEncoder" style="stroke:#A80036;stroke-width:1.5;" width="121" x="1397" y="490"/><ellipse cx="1412" cy="506" fill="#ADD1B2" rx="11" ry="11" style="stroke:#A80036;stroke-width:1.0;"/><path d="M1414.7656,501.875 Q1414.9219,501.6563 1415.1094,501.5469 Q1415.2969,501.4375 1415.5156,501.4375 Q1415.8906,501.4375 1416.125,501.6953 Q1416.3594,501.9531 1416.3594,502.5625 L1416.3594,504.0156 Q1416.3594,504.625 1416.125,504.8906 Q1415.8906,505.1563 1415.5156,505.1563 Q1415.1719,505.1563 1414.9688,504.9531 Q1414.7656,504.7656 1414.6563,504.25 Q1414.6094,503.8906 1414.4219,503.7031 Q1414.0938,503.3281 1413.4844,503.1094 Q1412.875,502.8906 1412.25,502.8906 Q1411.4844,502.8906 1410.8516,503.2188 Q1410.2188,503.5469 1409.7266,504.2969 Q1409.2344,505.0469 1409.2344,506.0781 L1409.2344,507.1719 Q1409.2344,508.4063 1410.125,509.2266 Q1411.0156,510.0469 1412.6094,510.0469 Q1413.5469,510.0469 1414.2031,509.7969 Q1414.5938,509.6406 1415.0156,509.2031 Q1415.2813,508.9375 1415.4297,508.8594 Q1415.5781,508.7813 1415.7813,508.7813 Q1416.1094,508.7813 1416.3672,509.0391 Q1416.625,509.2969 1416.625,509.6406 Q1416.625,509.9844 1416.2813,510.3906 Q1415.7813,510.9688 1414.9844,511.2969 Q1413.9063,511.75 1412.6094,511.75 Q1411.0938,511.75 1409.8906,511.125 Q1408.9063,510.625 1408.2188,509.5547 Q1407.5313,508.4844 1407.5313,507.2031 L1407.5313,506.0469 Q1407.5313,504.7188 1408.1484,503.5703 Q1408.7656,502.4219 1409.8594,501.8047 Q1410.9531,501.1875 1412.1875,501.1875 Q1412.9219,501.1875 1413.5703,501.3516 Q1414.2188,501.5156 1414.7656,501.875 Z " fill="#000000"/><text fill="#000000" font-family="sans-serif" font-size="12" lengthAdjust="spacing" textLength="89" x="1426" y="510.9102">BoolArgEncoder</text><line style="stroke:#A80036;stroke-width:1.5;" x1="1398" x2="1517" y1="522" y2="522"/><line style="stroke:#A80036;stroke-width:1.5;" x1="1398" x2="1517" y1="530" y2="530"/><!--MD5=[17ad35bfc48752a1c7c5373cb1f71222]
class StringArgEncoder--><rect codeLine="42" fill="#FEFECE" filter="url(#f1plrfujwx8t9x)" height="48" id="StringArgEncoder" style="stroke:#A80036;stroke-width:1.5;" width="128" x="1233.5" y="490"/><ellipse cx="1248.5" cy="506" fill="#ADD1B2" rx="11" ry="11" style="stroke:#A80036;stroke-width:1.0;"/><path d="M1251.2656,501.875 Q1251.4219,501.6563 1251.6094,501.5469 Q1251.7969,501.4375 1252.0156,501.4375 Q1252.3906,501.4375 1252.625,501.6953 Q1252.8594,501.9531 1252.8594,502.5625 L1252.8594,504.0156 Q1252.8594,504.625 1252.625,504.8906 Q1252.3906,505.1563 1252.0156,505.1563 Q1251.6719,505.1563 1251.4688,504.9531 Q1251.2656,504.7656 1251.1563,504.25 Q1251.1094,503.8906 1250.9219,503.7031 Q1250.5938,503.3281 1249.9844,503.1094 Q1249.375,502.8906 1248.75,502.8906 Q1247.9844,502.8906 1247.3516,503.2188 Q1246.7188,503.5469 1246.2266,504.2969 Q1245.7344,505.0469 1245.7344,506.0781 L1245.7344,507.1719 Q1245.7344,508.4063 1246.625,509.2266 Q1247.5156,510.0469 1249.1094,510.0469 Q1250.0469,510.0469 1250.7031,509.7969 Q1251.0938,509.6406 1251.5156,509.2031 Q1251.7813,508.9375 1251.9297,508.8594 Q1252.0781,508.7813 1252.2813,508.7813 Q1252.6094,508.7813 1252.8672,509.0391 Q1253.125,509.2969 1253.125,509.6406 Q1253.125,509.9844 1252.7813,510.3906 Q1252.2813,510.9688 1251.4844,511.2969 Q1250.4063,511.75 1249.1094,511.75 Q1247.5938,511.75 1246.3906,511.125 Q1245.4063,510.625 1244.7188,509.5547 Q1244.0313,508.4844 1244.0313,507.2031 L1244.0313,506.0469 Q1244.0313,504.7188 1244.6484,503.5703 Q1245.2656,502.4219 1246.3594,501.8047 Q1247.4531,501.1875 1248.6875,501.1875 Q1249.4219,501.1875 1250.0703,501.3516 Q1250.7188,501.5156 1251.2656,501.875 Z " fill="#000000"/><text fill="#000000" font-family="sans-serif" font-size="12" lengthAdjust="spacing" textLength="96" x="1262.5" y="510.9102">StringArgEncoder</text><line style="stroke:#A80036;stroke-width:1.5;" x1="1234.5" x2="1360.5" y1="522" y2="522"/><line style="stroke:#A80036;stroke-width:1.5;" x1="1234.5" x2="1360.5" y1="530" y2="530"/><!--MD5=[0746544628c1c6fdce9c9fa0b183308f]
class RawArgEncoder--><rect codeLine="43" fill="#FEFECE" filter="url(#f1plrfujwx8t9x)" height="48" id="RawArgEncoder" style="stroke:#A80036;stroke-width:1.5;" width="121" x="733" y="490"/><ellipse cx="748" cy="506" fill="#ADD1B2" rx="11" ry="11" style="stroke:#A80036;stroke-width:1.0;"/><path d="M750.7656,501.875 Q750.9219,501.6563 751.1094,501.5469 Q751.2969,501.4375 751.5156,501.4375 Q751.8906,501.4375 752.125,501.6953 Q752.3594,501.9531 752.3594,502.5625 L752.3594,504.0156 Q752.3594,504.625 752.125,504.8906 Q751.8906,505.1563 751.5156,505.1563 Q751.1719,505.1563 750.9688,504.9531 Q750.7656,504.7656 750.6563,504.25 Q750.6094,503.8906 750.4219,503.7031 Q750.0938,503.3281 749.4844,503.1094 Q748.875,502.8906 748.25,502.8906 Q747.4844,502.8906 746.8516,503.2188 Q746.2188,503.5469 745.7266,504.2969 Q745.2344,505.0469 745.2344,506.0781 L745.2344,507.1719 Q745.2344,508.4063 746.125,509.2266 Q747.0156,510.0469 748.6094,510.0469 Q749.5469,510.0469 750.2031,509.7969 Q750.5938,509.6406 751.0156,509.2031 Q751.2813,508.9375 751.4297,508.8594 Q751.5781,508.7813 751.7813,508.7813 Q752.1094,508.7813 752.3672,509.0391 Q752.625,509.2969 752.625,509.6406 Q752.625,509.9844 752.2813,510.3906 Q751.7813,510.9688 750.9844,511.2969 Q749.9063,511.75 748.6094,511.75 Q747.0938,511.75 745.8906,511.125 Q744.9063,510.625 744.2188,509.5547 Q743.5313,508.4844 743.5313,507.2031 L743.5313,506.0469 Q743.5313,504.7188 744.1484,503.5703 Q744.7656,502.4219 745.8594,501.8047 Q746.9531,501.1875 748.1875,501.1875 Q748.9219,501.1875 749.5703,501.3516 Q750.2188,501.5156 750.7656,501.875 Z " fill="#000000"/><text fill="#000000" font-family="sans-serif" font-size="12" lengthAdjust="spacing" textLength="89" x="762" y="510.9102">RawArgEncoder</text><line style="stroke:#A80036;stroke-width:1.5;" x1="734" x2="853" y1="522" y2="522"/><line style="stroke:#A80036;stroke-width:1.5;" x1="734" x2="853" y1="530" y2="530"/><!--MD5=[67c441653a918cc89ed76fa9bbc8d3f1]
class NonVerboseArgEncoder--><rect codeLine="44" fill="#FEFECE" filter="url(#f1plrfujwx8t9x)" height="48" id="NonVerboseArgEncoder" style="stroke:#A80036;stroke-width:1.5;" width="165" x="533" y="490"/><ellipse cx="548" cy="506" fill="#ADD1B2" rx="11" ry="11" style="stroke:#A80036;stroke-width:1.0;"/><path d="M550.7656,501.875 Q550.9219,501.6563 551.1094,501.5469 Q551.2969,501.4375 551.5156,501.4375 Q551.8906,501.4375 552.125,501.6953 Q552.3594,501.9531 552.3594,502.5625 L552.3594,504.0156 Q552.3594,504.625 552.125,504.8906 Q551.8906,505.1563 551.5156,505.1563 Q551.1719,505.1563 550.9688,504.9531 Q550.7656,504.7656 550.6563,504.25 Q550.6094,503.8906 550.4219,503.7031 Q550.0938,503.3281 549.4844,503.1094 Q548.875,502.8906 548.25,502.8906 Q547.4844,502.8906 546.8516,503.2188 Q546.2188,503.5469 545.7266,504.2969 Q545.2344,505.0469 545.2344,506.0781 L545.2344,507.1719 Q545.2344,508.4063 546.125,509.2266 Q547.0156,510.0469 548.6094,510.0469 Q549.5469,510.0469 550.2031,509.7969 Q550.5938,509.6406 551.0156,509.2031 Q551.2813,508.9375 551.4297,508.8594 Q551.5781,508.7813 551.7813,508.7813 Q552.1094,508.7813 552.3672,509.0391 Q552.625,509.2969 552.625,509.6406 Q552.625,509.9844 552.2813,510.3906 Q551.7813,510.9688 550.9844,511.2969 Q549.9063,511.75 548.6094,511.75 Q547.0938,511.75 545.8906,511.125 Q544.9063,510.625 544.2188,509.5547 Q543.5313,508.4844 543.5313,507.2031 L543.5313,506.0469 Q543.5313,504.7188 544.1484,503.5703 Q544.7656,502.4219 545.8594,501.8047 Q546.9531,501.1875 548.1875,501.1875 Q548.9219,501.1875 549.5703,501.3516 Q550.2188,501.5156 550.7656,501.875 Z " fill="#000000"/><text fill="#000000" font-family="sans-serif" font-size="12" lengthAdjust="spacing" textLength="133" x="562" y="510.9102">NonVerboseArgEncoder</text><line style="stroke:#A80036;stroke-width:1.5;" x1="534" x2="697" y1="522" y2="522"/><line style="stroke:#A80036;stroke-width:1.5;" x1="534" x2="697" y1="530" y2="530"/><!--MD5=[b95d21ec3c3da8c1b5931f72b23f66a9]
class UnknownVerboseArgEncoder--><rect codeLine="45" fill="#FEFECE" filter="url(#f1plrfujwx8t9x)" height="48" id="UnknownVerboseArgEncoder" style="stroke:#A80036;stroke-width:1.5;" width="194" x="303.5" y="490"/><ellipse cx="318.5" cy="506" fill="#ADD1B2" rx="11" ry="11" style="stroke:#A80036;stroke-width:1.0;"/><path d="M321.2656,501.875 Q321.4219,501.6563 321.6094,501.5469 Q321.7969,501.4375 322.0156,501.4375 Q322.3906,501.4375 322.625,501.6953 Q322.8594,501.9531 322.8594,502.5625 L322.8594,504.0156 Q322.8594,504.625 322.625,504.8906 Q322.3906,505.1563 322.0156,505.1563 Q321.6719,505.1563 321.4688,504.9531 Q321.2656,504.7656 321.1563,504.25 Q321.1094,503.8906 320.9219,503.7031 Q320.5938,503.3281 319.9844,503.1094 Q319.375,502.8906 318.75,502.8906 Q317.9844,502.8906 317.3516,503.2188 Q316.7188,503.5469 316.2266,504.2969 Q315.7344,505.0469 315.7344,506.0781 L315.7344,507.1719 Q315.7344,508.4063 316.625,509.2266 Q317.5156,510.0469 319.1094,510.0469 Q320.0469,510.0469 320.7031,509.7969 Q321.0938,509.6406 321.5156,509.2031 Q321.7813,508.9375 321.9297,508.8594 Q322.0781,508.7813 322.2813,508.7813 Q322.6094,508.7813 322.8672,509.0391 Q323.125,509.2969 323.125,509.6406 Q323.125,509.9844 322.7813,510.3906 Q322.2813,510.9688 321.4844,511.2969 Q320.4063,511.75 319.1094,511.75 Q317.5938,511.75 316.3906,511.125 Q315.4063,510.625 314.7188,509.5547 Q314.0313,508.4844 314.0313,507.2031 L314.0313,506.0469 Q314.0313,504.7188 314.6484,503.5703 Q315.2656,502.4219 316.3594,501.8047 Q317.4531,501.1875 318.6875,501.1875 Q319.4219,501.1875 320.0703,501.3516 Q320.7188,501.5156 321.2656,501.875 Z " fill="#000000"/><text fill="#000000" font-family="sans-serif" font-size="12" lengthAdjust="spacing" textLength="162" x="332.5" y="510.9102">UnknownVerboseArgEncoder</text><line style="stroke:#A80036;stroke-width:1.5;" x1="304.5" x2="496.5" y1="522" y2="522"/><line style="stroke:#A80036;stroke-width:1.5;" x1="304.5" x2="496.5" y1="530" y2="530"/><!--MD5=[584669a0ed286870cad57e16f4431256]
class BinaryIntDltArg--><rect fill="#FEFECE" filter="url(#f1plrfujwx8t9x)" height="48" id="BinaryIntDltArg" style="stroke:#A80036;stroke-width:1.5;" width="112" x="1766.5" y="634"/><ellipse cx="1781.5" cy="650" fill="#ADD1B2" rx="11" ry="11" style="stroke:#A80036;stroke-width:1.0;"/><path d="M1784.2656,645.875 Q1784.4219,645.6563 1784.6094,645.5469 Q1784.7969,645.4375 1785.0156,645.4375 Q1785.3906,645.4375 1785.625,645.6953 Q1785.8594,645.9531 1785.8594,646.5625 L1785.8594,648.0156 Q1785.8594,648.625 1785.625,648.8906 Q1785.3906,649.1563 1785.0156,649.1563 Q1784.6719,649.1563 1784.4688,648.9531 Q1784.2656,648.7656 1784.1563,648.25 Q1784.1094,647.8906 1783.9219,647.7031 Q1783.5938,647.3281 1782.9844,647.1094 Q1782.375,646.8906 1781.75,646.8906 Q1780.9844,646.8906 1780.3516,647.2188 Q1779.7188,647.5469 1779.2266,648.2969 Q1778.7344,649.0469 1778.7344,650.0781 L1778.7344,651.1719 Q1778.7344,652.4063 1779.625,653.2266 Q1780.5156,654.0469 1782.1094,654.0469 Q1783.0469,654.0469 1783.7031,653.7969 Q1784.0938,653.6406 1784.5156,653.2031 Q1784.7813,652.9375 1784.9297,652.8594 Q1785.0781,652.7813 1785.2813,652.7813 Q1785.6094,652.7813 1785.8672,653.0391 Q1786.125,653.2969 1786.125,653.6406 Q1786.125,653.9844 1785.7813,654.3906 Q1785.2813,654.9688 1784.4844,655.2969 Q1783.4063,655.75 1782.1094,655.75 Q1780.5938,655.75 1779.3906,655.125 Q1778.4063,654.625 1777.7188,653.5547 Q1777.0313,652.4844 1777.0313,651.2031 L1777.0313,650.0469 Q1777.0313,648.7188 1777.6484,647.5703 Q1778.2656,646.4219 1779.3594,645.8047 Q1780.4531,645.1875 1781.6875,645.1875 Q1782.4219,645.1875 1783.0703,645.3516 Q1783.7188,645.5156 1784.2656,645.875 Z " fill="#000000"/><text fill="#000000" font-family="sans-serif" font-size="12" lengthAdjust="spacing" textLength="80" x="1795.5" y="654.9102">BinaryIntDltArg</text><line style="stroke:#A80036;stroke-width:1.5;" x1="1767.5" x2="1877.5" y1="666" y2="666"/><line style="stroke:#A80036;stroke-width:1.5;" x1="1767.5" x2="1877.5" y1="674" y2="674"/><!--MD5=[5b44a63c92af40190428db9752e4a224]
class HexIntDltArg--><rect fill="#FEFECE" filter="url(#f1plrfujwx8t9x)" height="48" id="HexIntDltArg" style="stroke:#A80036;stroke-width:1.5;" width="99" x="1945" y="634"/><ellipse cx="1960" cy="650" fill="#ADD1B2" rx="11" ry="11" style="stroke:#A80036;stroke-width:1.0;"/><path d="M1962.7656,645.875 Q1962.9219,645.6563 1963.1094,645.5469 Q1963.2969,645.4375 1963.5156,645.4375 Q1963.8906,645.4375 1964.125,645.6953 Q1964.3594,645.9531 1964.3594,646.5625 L1964.3594,648.0156 Q1964.3594,648.625 1964.125,648.8906 Q1963.8906,649.1563 1963.5156,649.1563 Q1963.1719,649.1563 1962.9688,648.9531 Q1962.7656,648.7656 1962.6563,648.25 Q1962.6094,647.8906 1962.4219,647.7031 Q1962.0938,647.3281 1961.4844,647.1094 Q1960.875,646.8906 1960.25,646.8906 Q1959.4844,646.8906 1958.8516,647.2188 Q1958.2188,647.5469 1957.7266,648.2969 Q1957.2344,649.0469 1957.2344,650.0781 L1957.2344,651.1719 Q1957.2344,652.4063 1958.125,653.2266 Q1959.0156,654.0469 1960.6094,654.0469 Q1961.5469,654.0469 1962.2031,653.7969 Q1962.5938,653.6406 1963.0156,653.2031 Q1963.2813,652.9375 1963.4297,652.8594 Q1963.5781,652.7813 1963.7813,652.7813 Q1964.1094,652.7813 1964.3672,653.0391 Q1964.625,653.2969 1964.625,653.6406 Q1964.625,653.9844 1964.2813,654.3906 Q1963.7813,654.9688 1962.9844,655.2969 Q1961.9063,655.75 1960.6094,655.75 Q1959.0938,655.75 1957.8906,655.125 Q1956.9063,654.625 1956.2188,653.5547 Q1955.5313,652.4844 1955.5313,651.2031 L1955.5313,650.0469 Q1955.5313,648.7188 1956.1484,647.5703 Q1956.7656,646.4219 1957.8594,645.8047 Q1958.9531,645.1875 1960.1875,645.1875 Q1960.9219,645.1875 1961.5703,645.3516 Q1962.2188,645.5156 1962.7656,645.875 Z " fill="#000000"/><text fill="#000000" font-family="sans-serif" font-size="12" lengthAdjust="spacing" textLength="67" x="1974" y="654.9102">HexIntDltArg</text><line style="stroke:#A80036;stroke-width:1.5;" x1="1946" x2="2043" y1="666" y2="666"/><line style="stroke:#A80036;stroke-width:1.5;" x1="1946" x2="2043" y1="674" y2="674"/><!--MD5=[530b5da5bd258ad0d6915bceb12a6485]
class SignedIntDltArg--><rect fill="#FEFECE" filter="url(#f1plrfujwx8t9x)" height="48" id="SignedIntDltArg" style="stroke:#A80036;stroke-width:1.5;" width="117" x="2110" y="634"/><ellipse cx="2125" cy="650" fill="#ADD1B2" rx="11" ry="11" style="stroke:#A80036;stroke-width:1.0;"/><path d="M2127.7656,645.875 Q2127.9219,645.6563 2128.1094,645.5469 Q2128.2969,645.4375 2128.5156,645.4375 Q2128.8906,645.4375 2129.125,645.6953 Q2129.3594,645.9531 2129.3594,646.5625 L2129.3594,648.0156 Q2129.3594,648.625 2129.125,648.8906 Q2128.8906,649.1563 2128.5156,649.1563 Q2128.1719,649.1563 2127.9688,648.9531 Q2127.7656,648.7656 2127.6563,648.25 Q2127.6094,647.8906 2127.4219,647.7031 Q2127.0938,647.3281 2126.4844,647.1094 Q2125.875,646.8906 2125.25,646.8906 Q2124.4844,646.8906 2123.8516,647.2188 Q2123.2188,647.5469 2122.7266,648.2969 Q2122.2344,649.0469 2122.2344,650.0781 L2122.2344,651.1719 Q2122.2344,652.4063 2123.125,653.2266 Q2124.0156,654.0469 2125.6094,654.0469 Q2126.5469,654.0469 2127.2031,653.7969 Q2127.5938,653.6406 2128.0156,653.2031 Q2128.2813,652.9375 2128.4297,652.8594 Q2128.5781,652.7813 2128.7813,652.7813 Q2129.1094,652.7813 2129.3672,653.0391 Q2129.625,653.2969 2129.625,653.6406 Q2129.625,653.9844 2129.2813,654.3906 Q2128.7813,654.9688 2127.9844,655.2969 Q2126.9063,655.75 2125.6094,655.75 Q2124.0938,655.75 2122.8906,655.125 Q2121.9063,654.625 2121.2188,653.5547 Q2120.5313,652.4844 2120.5313,651.2031 L2120.5313,650.0469 Q2120.5313,648.7188 2121.1484,647.5703 Q2121.7656,646.4219 2122.8594,645.8047 Q2123.9531,645.1875 2125.1875,645.1875 Q2125.9219,645.1875 2126.5703,645.3516 Q2127.2188,645.5156 2127.7656,645.875 Z " fill="#000000"/><text fill="#000000" font-family="sans-serif" font-size="12" lengthAdjust="spacing" textLength="85" x="2139" y="654.9102">SignedIntDltArg</text><line style="stroke:#A80036;stroke-width:1.5;" x1="2111" x2="2226" y1="666" y2="666"/><line style="stroke:#A80036;stroke-width:1.5;" x1="2111" x2="2226" y1="674" y2="674"/><!--MD5=[15300c896cacb1acf95f152b7691e7f6]
class UnsignedIntDltArg--><rect fill="#FEFECE" filter="url(#f1plrfujwx8t9x)" height="48" id="UnsignedIntDltArg" style="stroke:#A80036;stroke-width:1.5;" width="132" x="1568.5" y="634"/><ellipse cx="1583.5" cy="650" fill="#ADD1B2" rx="11" ry="11" style="stroke:#A80036;stroke-width:1.0;"/><path d="M1586.2656,645.875 Q1586.4219,645.6563 1586.6094,645.5469 Q1586.7969,645.4375 1587.0156,645.4375 Q1587.3906,645.4375 1587.625,645.6953 Q1587.8594,645.9531 1587.8594,646.5625 L1587.8594,648.0156 Q1587.8594,648.625 1587.625,648.8906 Q1587.3906,649.1563 1587.0156,649.1563 Q1586.6719,649.1563 1586.4688,648.9531 Q1586.2656,648.7656 1586.1563,648.25 Q1586.1094,647.8906 1585.9219,647.7031 Q1585.5938,647.3281 1584.9844,647.1094 Q1584.375,646.8906 1583.75,646.8906 Q1582.9844,646.8906 1582.3516,647.2188 Q1581.7188,647.5469 1581.2266,648.2969 Q1580.7344,649.0469 1580.7344,650.0781 L1580.7344,651.1719 Q1580.7344,652.4063 1581.625,653.2266 Q1582.5156,654.0469 1584.1094,654.0469 Q1585.0469,654.0469 1585.7031,653.7969 Q1586.0938,653.6406 1586.5156,653.2031 Q1586.7813,652.9375 1586.9297,652.8594 Q1587.0781,652.7813 1587.2813,652.7813 Q1587.6094,652.7813 1587.8672,653.0391 Q1588.125,653.2969 1588.125,653.6406 Q1588.125,653.9844 1587.7813,654.3906 Q1587.2813,654.9688 1586.4844,655.2969 Q1585.4063,655.75 1584.1094,655.75 Q1582.5938,655.75 1581.3906,655.125 Q1580.4063,654.625 1579.7188,653.5547 Q1579.0313,652.4844 1579.0313,651.2031 L1579.0313,650.0469 Q1579.0313,648.7188 1579.6484,647.5703 Q1580.2656,646.4219 1581.3594,645.8047 Q1582.4531,645.1875 1583.6875,645.1875 Q1584.4219,645.1875 1585.0703,645.3516 Q1585.7188,645.5156 1586.2656,645.875 Z " fill="#000000"/><text fill="#000000" font-family="sans-serif" font-size="12" lengthAdjust="spacing" textLength="100" x="1597.5" y="654.9102">UnsignedIntDltArg</text><line style="stroke:#A80036;stroke-width:1.5;" x1="1569.5" x2="1699.5" y1="666" y2="666"/><line style="stroke:#A80036;stroke-width:1.5;" x1="1569.5" x2="1699.5" y1="674" y2="674"/><!--MD5=[9304c627579e6c09a83b65d2b6fe9ffa]
class BoolDltArg--><rect fill="#FEFECE" filter="url(#f1plrfujwx8t9x)" height="48" id="BoolDltArg" style="stroke:#A80036;stroke-width:1.5;" width="90" x="1412.5" y="634"/><ellipse cx="1427.5" cy="650" fill="#ADD1B2" rx="11" ry="11" style="stroke:#A80036;stroke-width:1.0;"/><path d="M1430.2656,645.875 Q1430.4219,645.6563 1430.6094,645.5469 Q1430.7969,645.4375 1431.0156,645.4375 Q1431.3906,645.4375 1431.625,645.6953 Q1431.8594,645.9531 1431.8594,646.5625 L1431.8594,648.0156 Q1431.8594,648.625 1431.625,648.8906 Q1431.3906,649.1563 1431.0156,649.1563 Q1430.6719,649.1563 1430.4688,648.9531 Q1430.2656,648.7656 1430.1563,648.25 Q1430.1094,647.8906 1429.9219,647.7031 Q1429.5938,647.3281 1428.9844,647.1094 Q1428.375,646.8906 1427.75,646.8906 Q1426.9844,646.8906 1426.3516,647.2188 Q1425.7188,647.5469 1425.2266,648.2969 Q1424.7344,649.0469 1424.7344,650.0781 L1424.7344,651.1719 Q1424.7344,652.4063 1425.625,653.2266 Q1426.5156,654.0469 1428.1094,654.0469 Q1429.0469,654.0469 1429.7031,653.7969 Q1430.0938,653.6406 1430.5156,653.2031 Q1430.7813,652.9375 1430.9297,652.8594 Q1431.0781,652.7813 1431.2813,652.7813 Q1431.6094,652.7813 1431.8672,653.0391 Q1432.125,653.2969 1432.125,653.6406 Q1432.125,653.9844 1431.7813,654.3906 Q1431.2813,654.9688 1430.4844,655.2969 Q1429.4063,655.75 1428.1094,655.75 Q1426.5938,655.75 1425.3906,655.125 Q1424.4063,654.625 1423.7188,653.5547 Q1423.0313,652.4844 1423.0313,651.2031 L1423.0313,650.0469 Q1423.0313,648.7188 1423.6484,647.5703 Q1424.2656,646.4219 1425.3594,645.8047 Q1426.4531,645.1875 1427.6875,645.1875 Q1428.4219,645.1875 1429.0703,645.3516 Q1429.7188,645.5156 1430.2656,645.875 Z " fill="#000000"/><text fill="#000000" font-family="sans-serif" font-size="12" lengthAdjust="spacing" textLength="58" x="1441.5" y="654.9102">BoolDltArg</text><line style="stroke:#A80036;stroke-width:1.5;" x1="1413.5" x2="1501.5" y1="666" y2="666"/><line style="stroke:#A80036;stroke-width:1.5;" x1="1413.5" x2="1501.5" y1="674" y2="674"/><!--MD5=[bd995735bdc22093cef67c0a3dd15675]
class Float32DltArg--><rect fill="#FEFECE" filter="url(#f1plrfujwx8t9x)" height="48" id="Float32DltArg" style="stroke:#A80036;stroke-width:1.5;" width="106" x="927.5" y="634"/><ellipse cx="942.5" cy="650" fill="#ADD1B2" rx="11" ry="11" style="stroke:#A80036;stroke-width:1.0;"/><path d="M945.2656,645.875 Q945.4219,645.6563 945.6094,645.5469 Q945.7969,645.4375 946.0156,645.4375 Q946.3906,645.4375 946.625,645.6953 Q946.8594,645.9531 946.8594,646.5625 L946.8594,648.0156 Q946.8594,648.625 946.625,648.8906 Q946.3906,649.1563 946.0156,649.1563 Q945.6719,649.1563 945.4688,648.9531 Q945.2656,648.7656 945.1563,648.25 Q945.1094,647.8906 944.9219,647.7031 Q944.5938,647.3281 943.9844,647.1094 Q943.375,646.8906 942.75,646.8906 Q941.9844,646.8906 941.3516,647.2188 Q940.7188,647.5469 940.2266,648.2969 Q939.7344,649.0469 939.7344,650.0781 L939.7344,651.1719 Q939.7344,652.4063 940.625,653.2266 Q941.5156,654.0469 943.1094,654.0469 Q944.0469,654.0469 944.7031,653.7969 Q945.0938,653.6406 945.5156,653.2031 Q945.7813,652.9375 945.9297,652.8594 Q946.0781,652.7813 946.2813,652.7813 Q946.6094,652.7813 946.8672,653.0391 Q947.125,653.2969 947.125,653.6406 Q947.125,653.9844 946.7813,654.3906 Q946.2813,654.9688 945.4844,655.2969 Q944.4063,655.75 943.1094,655.75 Q941.5938,655.75 940.3906,655.125 Q939.4063,654.625 938.7188,653.5547 Q938.0313,652.4844 938.0313,651.2031 L938.0313,650.0469 Q938.0313,648.7188 938.6484,647.5703 Q939.2656,646.4219 940.3594,645.8047 Q941.4531,645.1875 942.6875,645.1875 Q943.4219,645.1875 944.0703,645.3516 Q944.7188,645.5156 945.2656,645.875 Z " fill="#000000"/><text fill="#000000" font-family="sans-serif" font-size="12" lengthAdjust="spacing" textLength="74" x="956.5" y="654.9102">Float32DltArg</text><line style="stroke:#A80036;stroke-width:1.5;" x1="928.5" x2="1032.5" y1="666" y2="666"/><line style="stroke:#A80036;stroke-width:1.5;" x1="928.5" x2="1032.5" y1="674" y2="674"/><!--MD5=[4f58334fec0bd3ff1f53f8383a615e86]
class Float64DltArg--><rect fill="#FEFECE" filter="url(#f1plrfujwx8t9x)" height="48" id="Float64DltArg" style="stroke:#A80036;stroke-width:1.5;" width="106" x="1076.5" y="634"/><ellipse cx="1091.5" cy="650" fill="#ADD1B2" rx="11" ry="11" style="stroke:#A80036;stroke-width:1.0;"/><path d="M1094.2656,645.875 Q1094.4219,645.6563 1094.6094,645.5469 Q1094.7969,645.4375 1095.0156,645.4375 Q1095.3906,645.4375 1095.625,645.6953 Q1095.8594,645.9531 1095.8594,646.5625 L1095.8594,648.0156 Q1095.8594,648.625 1095.625,648.8906 Q1095.3906,649.1563 1095.0156,649.1563 Q1094.6719,649.1563 1094.4688,648.9531 Q1094.2656,648.7656 1094.1563,648.25 Q1094.1094,647.8906 1093.9219,647.7031 Q1093.5938,647.3281 1092.9844,647.1094 Q1092.375,646.8906 1091.75,646.8906 Q1090.9844,646.8906 1090.3516,647.2188 Q1089.7188,647.5469 1089.2266,648.2969 Q1088.7344,649.0469 1088.7344,650.0781 L1088.7344,651.1719 Q1088.7344,652.4063 1089.625,653.2266 Q1090.5156,654.0469 1092.1094,654.0469 Q1093.0469,654.0469 1093.7031,653.7969 Q1094.0938,653.6406 1094.5156,653.2031 Q1094.7813,652.9375 1094.9297,652.8594 Q1095.0781,652.7813 1095.2813,652.7813 Q1095.6094,652.7813 1095.8672,653.0391 Q1096.125,653.2969 1096.125,653.6406 Q1096.125,653.9844 1095.7813,654.3906 Q1095.2813,654.9688 1094.4844,655.2969 Q1093.4063,655.75 1092.1094,655.75 Q1090.5938,655.75 1089.3906,655.125 Q1088.4063,654.625 1087.7188,653.5547 Q1087.0313,652.4844 1087.0313,651.2031 L1087.0313,650.0469 Q1087.0313,648.7188 1087.6484,647.5703 Q1088.2656,646.4219 1089.3594,645.8047 Q1090.4531,645.1875 1091.6875,645.1875 Q1092.4219,645.1875 1093.0703,645.3516 Q1093.7188,645.5156 1094.2656,645.875 Z " fill="#000000"/><text fill="#000000" font-family="sans-serif" font-size="12" lengthAdjust="spacing" textLength="74" x="1105.5" y="654.9102">Float64DltArg</text><line style="stroke:#A80036;stroke-width:1.5;" x1="1077.5" x2="1181.5" y1="666" y2="666"/><line style="stroke:#A80036;stroke-width:1.5;" x1="1077.5" x2="1181.5" y1="674" y2="674"/><!--MD5=[9384f9af5873042c459e7cb65aa0b775]
class StringDltArg--><rect fill="#FEFECE" filter="url(#f1plrfujwx8t9x)" height="48" id="StringDltArg" style="stroke:#A80036;stroke-width:1.5;" width="97" x="1249" y="634"/><ellipse cx="1264" cy="650" fill="#ADD1B2" rx="11" ry="11" style="stroke:#A80036;stroke-width:1.0;"/><path d="M1266.7656,645.875 Q1266.9219,645.6563 1267.1094,645.5469 Q1267.2969,645.4375 1267.5156,645.4375 Q1267.8906,645.4375 1268.125,645.6953 Q1268.3594,645.9531 1268.3594,646.5625 L1268.3594,648.0156 Q1268.3594,648.625 1268.125,648.8906 Q1267.8906,649.1563 1267.5156,649.1563 Q1267.1719,649.1563 1266.9688,648.9531 Q1266.7656,648.7656 1266.6563,648.25 Q1266.6094,647.8906 1266.4219,647.7031 Q1266.0938,647.3281 1265.4844,647.1094 Q1264.875,646.8906 1264.25,646.8906 Q1263.4844,646.8906 1262.8516,647.2188 Q1262.2188,647.5469 1261.7266,648.2969 Q1261.2344,649.0469 1261.2344,650.0781 L1261.2344,651.1719 Q1261.2344,652.4063 1262.125,653.2266 Q1263.0156,654.0469 1264.6094,654.0469 Q1265.5469,654.0469 1266.2031,653.7969 Q1266.5938,653.6406 1267.0156,653.2031 Q1267.2813,652.9375 1267.4297,652.8594 Q1267.5781,652.7813 1267.7813,652.7813 Q1268.1094,652.7813 1268.3672,653.0391 Q1268.625,653.2969 1268.625,653.6406 Q1268.625,653.9844 1268.2813,654.3906 Q1267.7813,654.9688 1266.9844,655.2969 Q1265.9063,655.75 1264.6094,655.75 Q1263.0938,655.75 1261.8906,655.125 Q1260.9063,654.625 1260.2188,653.5547 Q1259.5313,652.4844 1259.5313,651.2031 L1259.5313,650.0469 Q1259.5313,648.7188 1260.1484,647.5703 Q1260.7656,646.4219 1261.8594,645.8047 Q1262.9531,645.1875 1264.1875,645.1875 Q1264.9219,645.1875 1265.5703,645.3516 Q1266.2188,645.5156 1266.7656,645.875 Z " fill="#000000"/><text fill="#000000" font-family="sans-serif" font-size="12" lengthAdjust="spacing" textLength="65" x="1278" y="654.9102">StringDltArg</text><line style="stroke:#A80036;stroke-width:1.5;" x1="1250" x2="1345" y1="666" y2="666"/><line style="stroke:#A80036;stroke-width:1.5;" x1="1250" x2="1345" y1="674" y2="674"/><!--MD5=[751ce3d3b962032c2311a8f3a883c70d]
class RawDltArg--><rect fill="#FEFECE" filter="url(#f1plrfujwx8t9x)" height="48" id="RawDltArg" style="stroke:#A80036;stroke-width:1.5;" width="90" x="600.5" y="634"/><ellipse cx="615.5" cy="650" fill="#ADD1B2" rx="11" ry="11" style="stroke:#A80036;stroke-width:1.0;"/><path d="M618.2656,645.875 Q618.4219,645.6563 618.6094,645.5469 Q618.7969,645.4375 619.0156,645.4375 Q619.3906,645.4375 619.625,645.6953 Q619.8594,645.9531 619.8594,646.5625 L619.8594,648.0156 Q619.8594,648.625 619.625,648.8906 Q619.3906,649.1563 619.0156,649.1563 Q618.6719,649.1563 618.4688,648.9531 Q618.2656,648.7656 618.1563,648.25 Q618.1094,647.8906 617.9219,647.7031 Q617.5938,647.3281 616.9844,647.1094 Q616.375,646.8906 615.75,646.8906 Q614.9844,646.8906 614.3516,647.2188 Q613.7188,647.5469 613.2266,648.2969 Q612.7344,649.0469 612.7344,650.0781 L612.7344,651.1719 Q612.7344,652.4063 613.625,653.2266 Q614.5156,654.0469 616.1094,654.0469 Q617.0469,654.0469 617.7031,653.7969 Q618.0938,653.6406 618.5156,653.2031 Q618.7813,652.9375 618.9297,652.8594 Q619.0781,652.7813 619.2813,652.7813 Q619.6094,652.7813 619.8672,653.0391 Q620.125,653.2969 620.125,653.6406 Q620.125,653.9844 619.7813,654.3906 Q619.2813,654.9688 618.4844,655.2969 Q617.4063,655.75 616.1094,655.75 Q614.5938,655.75 613.3906,655.125 Q612.4063,654.625 611.7188,653.5547 Q611.0313,652.4844 611.0313,651.2031 L611.0313,650.0469 Q611.0313,648.7188 611.6484,647.5703 Q612.2656,646.4219 613.3594,645.8047 Q614.4531,645.1875 615.6875,645.1875 Q616.4219,645.1875 617.0703,645.3516 Q617.7188,645.5156 618.2656,645.875 Z " fill="#000000"/><text fill="#000000" font-family="sans-serif" font-size="12" lengthAdjust="spacing" textLength="58" x="629.5" y="654.9102">RawDltArg</text><line style="stroke:#A80036;stroke-width:1.5;" x1="601.5" x2="689.5" y1="666" y2="666"/><line style="stroke:#A80036;stroke-width:1.5;" x1="601.5" x2="689.5" y1="674" y2="674"/><!--MD5=[c8aecec8061000234456f93801020997]
class NonVerboseDltArg--><rect fill="#FEFECE" filter="url(#f1plrfujwx8t9x)" height="48" id="NonVerboseDltArg" style="stroke:#A80036;stroke-width:1.5;" width="134" x="758.5" y="634"/><ellipse cx="773.5" cy="650" fill="#ADD1B2" rx="11" ry="11" style="stroke:#A80036;stroke-width:1.0;"/><path d="M776.2656,645.875 Q776.4219,645.6563 776.6094,645.5469 Q776.7969,645.4375 777.0156,645.4375 Q777.3906,645.4375 777.625,645.6953 Q777.8594,645.9531 777.8594,646.5625 L777.8594,648.0156 Q777.8594,648.625 777.625,648.8906 Q777.3906,649.1563 777.0156,649.1563 Q776.6719,649.1563 776.4688,648.9531 Q776.2656,648.7656 776.1563,648.25 Q776.1094,647.8906 775.9219,647.7031 Q775.5938,647.3281 774.9844,647.1094 Q774.375,646.8906 773.75,646.8906 Q772.9844,646.8906 772.3516,647.2188 Q771.7188,647.5469 771.2266,648.2969 Q770.7344,649.0469 770.7344,650.0781 L770.7344,651.1719 Q770.7344,652.4063 771.625,653.2266 Q772.5156,654.0469 774.1094,654.0469 Q775.0469,654.0469 775.7031,653.7969 Q776.0938,653.6406 776.5156,653.2031 Q776.7813,652.9375 776.9297,652.8594 Q777.0781,652.7813 777.2813,652.7813 Q777.6094,652.7813 777.8672,653.0391 Q778.125,653.2969 778.125,653.6406 Q778.125,653.9844 777.7813,654.3906 Q777.2813,654.9688 776.4844,655.2969 Q775.4063,655.75 774.1094,655.75 Q772.5938,655.75 771.3906,655.125 Q770.4063,654.625 769.7188,653.5547 Q769.0313,652.4844 769.0313,651.2031 L769.0313,650.0469 Q769.0313,648.7188 769.6484,647.5703 Q770.2656,646.4219 771.3594,645.8047 Q772.4531,645.1875 773.6875,645.1875 Q774.4219,645.1875 775.0703,645.3516 Q775.7188,645.5156 776.2656,645.875 Z " fill="#000000"/><text fill="#000000" font-family="sans-serif" font-size="12" lengthAdjust="spacing" textLength="102" x="787.5" y="654.9102">NonVerboseDltArg</text><line style="stroke:#A80036;stroke-width:1.5;" x1="759.5" x2="891.5" y1="666" y2="666"/><line style="stroke:#A80036;stroke-width:1.5;" x1="759.5" x2="891.5" y1="674" y2="674"/><!--MD5=[5604cc107f2bd7e22425b88332a60917]
class UnknownVerboseDltArg--><rect fill="#FEFECE" filter="url(#f1plrfujwx8t9x)" height="48" id="UnknownVerboseDltArg" style="stroke:#A80036;stroke-width:1.5;" width="163" x="378" y="634"/><ellipse cx="393" cy="650" fill="#ADD1B2" rx="11" ry="11" style="stroke:#A80036;stroke-width:1.0;"/><path d="M395.7656,645.875 Q395.9219,645.6563 396.1094,645.5469 Q396.2969,645.4375 396.5156,645.4375 Q396.8906,645.4375 397.125,645.6953 Q397.3594,645.9531 397.3594,646.5625 L397.3594,648.0156 Q397.3594,648.625 397.125,648.8906 Q396.8906,649.1563 396.5156,649.1563 Q396.1719,649.1563 395.9688,648.9531 Q395.7656,648.7656 395.6563,648.25 Q395.6094,647.8906 395.4219,647.7031 Q395.0938,647.3281 394.4844,647.1094 Q393.875,646.8906 393.25,646.8906 Q392.4844,646.8906 391.8516,647.2188 Q391.2188,647.5469 390.7266,648.2969 Q390.2344,649.0469 390.2344,650.0781 L390.2344,651.1719 Q390.2344,652.4063 391.125,653.2266 Q392.0156,654.0469 393.6094,654.0469 Q394.5469,654.0469 395.2031,653.7969 Q395.5938,653.6406 396.0156,653.2031 Q396.2813,652.9375 396.4297,652.8594 Q396.5781,652.7813 396.7813,652.7813 Q397.1094,652.7813 397.3672,653.0391 Q397.625,653.2969 397.625,653.6406 Q397.625,653.9844 397.2813,654.3906 Q396.7813,654.9688 395.9844,655.2969 Q394.9063,655.75 393.6094,655.75 Q392.0938,655.75 390.8906,655.125 Q389.9063,654.625 389.2188,653.5547 Q388.5313,652.4844 388.5313,651.2031 L388.5313,650.0469 Q388.5313,648.7188 389.1484,647.5703 Q389.7656,646.4219 390.8594,645.8047 Q391.9531,645.1875 393.1875,645.1875 Q393.9219,645.1875 394.5703,645.3516 Q395.2188,645.5156 395.7656,645.875 Z " fill="#000000"/><text fill="#000000" font-family="sans-serif" font-size="12" lengthAdjust="spacing" textLength="131" x="407" y="654.9102">UnknownVerboseDltArg</text><line style="stroke:#A80036;stroke-width:1.5;" x1="379" x2="540" y1="666" y2="666"/><line style="stroke:#A80036;stroke-width:1.5;" x1="379" x2="540" y1="674" y2="674"/><!--MD5=[295f392fa186f32cdcba9e09c1255c9c]
link ITraceEncoderFactory to ITraceEncoder--><path codeLine="4" d="M386.04,31 C406.23,31 426.42,31 446.6,31 " fill="none" id="ITraceEncoderFactory-ITraceEncoder" style="stroke:#A80036;stroke-width:1.0;"/><!--MD5=[743f4453b45b18e879bfa4d4b4711942]
reverse link ITraceEncoderFactory to DltTraceEncoderFactory--><path codeLine="7" d="M259.63,66.88 C236.67,82.93 210.07,101.54 189.63,115.83 " fill="none" id="ITraceEncoderFactory-backto-DltTraceEncoderFactory" style="stroke:#A80036;stroke-width:1.0;stroke-dasharray:7.0,7.0;"/><polygon fill="none" points="255.9,60.94,276.3,55.22,263.92,72.42,255.9,60.94" style="stroke:#A80036;stroke-width:1.0;"/><!--MD5=[f059986529b2b4c81376e873afa2327e]
reverse link ITraceEncoder to DltTraceEncoder--><path codeLine="10" d="M513.97,75.09 C517.35,89.01 520.98,103.92 523.87,115.83 " fill="none" id="ITraceEncoder-backto-DltTraceEncoder" style="stroke:#A80036;stroke-width:1.0;stroke-dasharray:7.0,7.0;"/><polygon fill="none" points="507.06,76.3,509.14,55.22,520.67,73,507.06,76.3" style="stroke:#A80036;stroke-width:1.0;"/><!--MD5=[5520f4b9bfd96b2e3a03ee9f851472ca]
link DltTraceEncoderFactory to DltTraceEncoder--><path codeLine="12" d="M306.06,140 C335.16,140 365.51,140 394.12,140 " fill="none" id="DltTraceEncoderFactory-to-DltTraceEncoder" style="stroke:#A80036;stroke-width:1.0;"/><polygon fill="#A80036" points="399.44,140,390.44,136,394.44,140,390.44,144,399.44,140" style="stroke:#A80036;stroke-width:1.0;"/><text fill="#000000" font-family="sans-serif" font-size="13" lengthAdjust="spacing" textLength="57" x="324.25" y="133.4951">creates</text><!--MD5=[65d3f88fcc55ae65339fe5f668783dc8]
reverse link IDltEncoder to VerboseDltEncoder--><path codeLine="20" d="M529.5,307.41 C529.5,326.66 529.5,347.99 529.5,364.79 " fill="none" id="IDltEncoder-backto-VerboseDltEncoder" style="stroke:#A80036;stroke-width:1.0;stroke-dasharray:7.0,7.0;"/><polygon fill="none" points="522.5,307.28,529.5,287.28,536.5,307.28,522.5,307.28" style="stroke:#A80036;stroke-width:1.0;"/><text fill="#000000" font-family="sans-serif" font-size="13" lengthAdjust="spacing" textLength="123" x="530.5" y="331.4951">TLine -&gt; DltTraceLine</text><!--MD5=[c10ba2a4c2206f86f093c5724762e2d9]
reverse link IArgEncoder to DltArgEncoder--><path codeLine="28" d="M1237.36,300.11 C1262.61,321.11 1292.36,345.84 1315.16,364.79 " fill="none" id="IArgEncoder-backto-DltArgEncoder" style="stroke:#A80036;stroke-width:1.0;stroke-dasharray:7.0,7.0;"/><polygon fill="none" points="1232.83,305.45,1221.93,287.28,1241.78,294.69,1232.83,305.45" style="stroke:#A80036;stroke-width:1.0;"/><!--MD5=[ae2cd070edd2cab09bb115bb88e0196a]
reverse link VerboseDltEncoder to DltArgEncoder--><path codeLine="29" d="M677.69,396 C841.79,396 1005.89,396 1169.98,396 " fill="none" id="VerboseDltEncoder-backto-DltArgEncoder" style="stroke:#A80036;stroke-width:1.0;"/><polygon fill="#A80036" points="664.36,396,670.36,400,676.36,396,670.36,392,664.36,396" style="stroke:#A80036;stroke-width:1.0;"/><!--MD5=[ba8209c47a24740eb77ae852ac41f942]
reverse link IArgEncoder to BinaryIntArgEncoder--><path codeLine="46" d="M1387.07,271.74 C1443.74,280.59 1504.36,294.66 1557.5,317 C1658.25,359.36 1756.18,447.62 1799.41,489.7 " fill="none" id="IArgEncoder-backto-BinaryIntArgEncoder" style="stroke:#A80036;stroke-width:1.0;stroke-dasharray:7.0,7.0;"/><polygon fill="none" points="1385.98,278.66,1367.21,268.83,1388.02,264.81,1385.98,278.66" style="stroke:#A80036;stroke-width:1.0;"/><!--MD5=[5aed64833bc03253cb953b13dfeec736]
reverse link IArgEncoder to HexIntArgEncoder--><path codeLine="47" d="M1387.15,275.54 C1455.66,284.63 1532.14,297.89 1600.5,317 C1653.05,331.69 1663.68,342.74 1713.5,365 C1801.36,404.26 1825.55,409.96 1909.5,457 C1927.23,466.93 1946.18,479.24 1961.68,489.79 " fill="none" id="IArgEncoder-backto-HexIntArgEncoder" style="stroke:#A80036;stroke-width:1.0;stroke-dasharray:7.0,7.0;"/><polygon fill="none" points="1386.06,282.46,1367.11,272.97,1387.84,268.57,1386.06,282.46" style="stroke:#A80036;stroke-width:1.0;"/><!--MD5=[b159b959a3b3231b4941514ba210291c]
reverse link IArgEncoder to SignedIntArgEncoder--><path codeLine="48" d="M1387.18,275.45 C1469.66,284.94 1565.68,298.49 1651.5,317 C1842.2,358.12 1889.68,376.78 2067.5,457 C2088.88,466.65 2111.82,479.17 2130.42,489.93 " fill="none" id="IArgEncoder-backto-SignedIntArgEncoder" style="stroke:#A80036;stroke-width:1.0;stroke-dasharray:7.0,7.0;"/><polygon fill="none" points="1386.15,282.38,1367.06,273.19,1387.72,268.47,1386.15,282.38" style="stroke:#A80036;stroke-width:1.0;"/><!--MD5=[e0ad61f3839ecee07e81b6026d41820b]
reverse link IArgEncoder to UnsignedIntArgEncoder--><path codeLine="49" d="M1386.91,279.63 C1429.71,288.33 1473.9,300.36 1513.5,317 C1547.6,331.33 1559.11,335.55 1581.5,365 C1610.57,403.24 1624.72,458.85 1630.72,489.88 " fill="none" id="IArgEncoder-backto-UnsignedIntArgEncoder" style="stroke:#A80036;stroke-width:1.0;stroke-dasharray:7.0,7.0;"/><polygon fill="none" points="1385.34,286.46,1367.03,275.8,1387.99,272.71,1385.34,286.46" style="stroke:#A80036;stroke-width:1.0;"/><!--MD5=[be5df2e6cf675927e88dc03fea03e238]
reverse link IArgEncoder to BoolArgEncoder--><path codeLine="50" d="M1375,291.49 C1451.79,309.67 1527.76,334.56 1550.5,365 C1566.99,387.08 1561.54,401.75 1550.5,427 C1539.13,452.99 1515.61,474.63 1495.06,489.69 " fill="none" id="IArgEncoder-backto-BoolArgEncoder" style="stroke:#A80036;stroke-width:1.0;stroke-dasharray:7.0,7.0;"/><polygon fill="none" points="1373.42,298.31,1355.5,287.01,1376.56,284.67,1373.42,298.31" style="stroke:#A80036;stroke-width:1.0;"/><!--MD5=[6e9e10a4ecdb160f909aeea27bc53efa]
reverse link IArgEncoder to Float32ArgEncoder--><path codeLine="51" d="M1099,297.58 C1090.24,303.45 1081.87,309.93 1074.5,317 C1020.71,368.55 982.82,450.09 966.49,489.77 " fill="none" id="IArgEncoder-backto-Float32ArgEncoder" style="stroke:#A80036;stroke-width:1.0;stroke-dasharray:7.0,7.0;"/><polygon fill="none" points="1095.45,291.54,1116.16,287.03,1102.79,303.46,1095.45,291.54" style="stroke:#A80036;stroke-width:1.0;"/><!--MD5=[69c8e910a7d48f264de2bb7b867a146c]
reverse link IArgEncoder to Float64ArgEncoder--><path codeLine="52" d="M1103.16,300.11 C1098.23,305.21 1093.9,310.83 1090.5,317 C1059.35,373.52 1094.05,451.37 1115.36,489.73 " fill="none" id="IArgEncoder-backto-Float64ArgEncoder" style="stroke:#A80036;stroke-width:1.0;stroke-dasharray:7.0,7.0;"/><polygon fill="none" points="1098.63,294.77,1118.36,287.06,1107.75,305.39,1098.63,294.77" style="stroke:#A80036;stroke-width:1.0;"/><!--MD5=[420101715a094d5329c3e5e0da1a4c77]
reverse link IArgEncoder to RawArgEncoder--><path codeLine="53" d="M1089.46,295.5 C1075.44,302.13 1061.4,309.37 1048.5,317 C958.38,370.29 863.48,450.66 819.15,489.86 " fill="none" id="IArgEncoder-backto-RawArgEncoder" style="stroke:#A80036;stroke-width:1.0;stroke-dasharray:7.0,7.0;"/><polygon fill="none" points="1086.68,289.07,1107.78,287.14,1092.49,301.81,1086.68,289.07" style="stroke:#A80036;stroke-width:1.0;"/><!--MD5=[7a25e60677257f397e352321cda11e14]
reverse link IArgEncoder to StringArgEncoder--><path codeLine="54" d="M1159.32,305.59 C1143.94,341.25 1131.28,389.75 1152.5,427 C1155.48,432.23 1214.5,466.25 1256.31,489.9 " fill="none" id="IArgEncoder-backto-StringArgEncoder" style="stroke:#A80036;stroke-width:1.0;stroke-dasharray:7.0,7.0;"/><polygon fill="none" points="1153.1,302.38,1167.94,287.26,1165.76,308.34,1153.1,302.38" style="stroke:#A80036;stroke-width:1.0;"/><!--MD5=[1660fd670621efaea9754d500fa7eed1]
reverse link IArgEncoder to NonVerboseArgEncoder--><path codeLine="55" d="M1077.41,293.62 C1055.55,301.21 1032.75,309.26 1011.5,317 C955.58,337.37 939.51,337.96 886.5,365 C818.96,399.45 812.49,426.57 743.5,458 C731.72,463.37 727.62,461.45 715.5,466 C697.18,472.87 677.58,481.73 660.64,489.9 " fill="none" id="IArgEncoder-backto-NonVerboseArgEncoder" style="stroke:#A80036;stroke-width:1.0;stroke-dasharray:7.0,7.0;"/><polygon fill="none" points="1075.14,287,1096.33,287.09,1079.71,300.24,1075.14,287" style="stroke:#A80036;stroke-width:1.0;"/><!--MD5=[e4349916ad7f106c9c8b4f3bd069f5ee]
reverse link IArgEncoder to UnknownVerboseArgEncoder--><path codeLine="56" d="M1044.32,292.03 C1013.34,300 980.76,308.6 950.5,317 C878.96,336.85 858.76,335.79 790.5,365 C739.26,386.92 733.38,406.64 681.5,427 C610.95,454.69 587.69,442.93 515.5,466 C494.34,472.76 471.59,481.69 451.96,489.95 " fill="none" id="IArgEncoder-backto-UnknownVerboseArgEncoder" style="stroke:#A80036;stroke-width:1.0;stroke-dasharray:7.0,7.0;"/><polygon fill="none" points="1042.77,285.2,1063.88,287.03,1046.24,298.77,1042.77,285.2" style="stroke:#A80036;stroke-width:1.0;"/><!--MD5=[098c45412a9c1d03d1bc81c351972dcf]
reverse link DltArgEncoder to BinaryIntArgEncoder--><path codeLine="58" d="M1546.12,420.31 C1607.12,430.75 1674.02,445.48 1733.5,466 C1751.17,472.1 1769.62,481.31 1785.11,489.97 " fill="none" id="DltArgEncoder-backto-BinaryIntArgEncoder" style="stroke:#A80036;stroke-width:1.0;"/><polygon fill="#A80036" points="1533.2,418.15,1538.4527,423.0905,1545.0335,420.142,1539.7808,415.2015,1533.2,418.15" style="stroke:#A80036;stroke-width:1.0;"/><!--MD5=[be1650883a861717cfbca76afeff7504]
reverse link DltArgEncoder to HexIntArgEncoder--><path codeLine="59" d="M1546.45,402.3 C1656.01,409.88 1793.96,427.19 1911.5,466 C1928.64,471.66 1946.23,481.02 1960.78,489.9 " fill="none" id="DltArgEncoder-backto-HexIntArgEncoder" style="stroke:#A80036;stroke-width:1.0;"/><polygon fill="#A80036" points="1533.23,401.43,1538.9532,405.8169,1545.2039,402.2212,1539.4807,397.8343,1533.23,401.43" style="stroke:#A80036;stroke-width:1.0;"/><!--MD5=[c7d2bb61df93976d8ca7d1782a810c98]
reverse link DltArgEncoder to SignedIntArgEncoder--><path codeLine="60" d="M1546.19,407.15 C1726.69,418.07 1981.38,437.76 2077.5,466 C2096.27,471.51 2115.71,480.97 2131.78,489.96 " fill="none" id="DltArgEncoder-backto-SignedIntArgEncoder" style="stroke:#A80036;stroke-width:1.0;"/><polygon fill="#A80036" points="1533.05,406.36,1538.802,410.7091,1545.0288,407.0724,1539.2769,402.7233,1533.05,406.36" style="stroke:#A80036;stroke-width:1.0;"/><!--MD5=[e27aa9fe50fa026be79814fed7f0b268]
reverse link DltArgEncoder to UnsignedIntArgEncoder--><path codeLine="61" d="M1448.7,431.7 C1476.89,442.24 1507.59,454.17 1535.5,466 C1552.84,473.35 1571.58,482.05 1588.03,489.95 " fill="none" id="DltArgEncoder-backto-UnsignedIntArgEncoder" style="stroke:#A80036;stroke-width:1.0;"/><polygon fill="#A80036" points="1436.36,427.12,1440.5968,432.9552,1447.6127,431.2886,1443.3759,425.4534,1436.36,427.12" style="stroke:#A80036;stroke-width:1.0;"/><!--MD5=[9c5c391c20cf0528fda8190fba60fc98]
reverse link DltArgEncoder to BoolArgEncoder--><path codeLine="62" d="M1388.25,437.22 C1404.35,454.84 1422.67,474.89 1436.43,489.94 " fill="none" id="DltArgEncoder-backto-BoolArgEncoder" style="stroke:#A80036;stroke-width:1.0;"/><polygon fill="#A80036" points="1379.07,427.17,1380.1642,434.2976,1387.1644,436.029,1386.0702,428.9014,1379.07,427.17" style="stroke:#A80036;stroke-width:1.0;"/><!--MD5=[93530887ecf35726129a1c3ed19aad4d]
reverse link DltArgEncoder to Float32ArgEncoder--><path codeLine="63" d="M1164.72,430.04 C1124.13,439.64 1081.87,451.54 1043.5,466 C1026.78,472.3 1009.31,481.34 994.52,489.81 " fill="none" id="DltArgEncoder-backto-Float32ArgEncoder" style="stroke:#A80036;stroke-width:1.0;"/><polygon fill="#A80036" points="1177.54,427.07,1170.7907,424.531,1165.8511,429.7847,1172.6004,432.3236,1177.54,427.07" style="stroke:#A80036;stroke-width:1.0;"/><!--MD5=[c4239a2ca3e629a5fba9213ae5f5a008]
reverse link DltArgEncoder to Float64ArgEncoder--><path codeLine="64" d="M1280.01,433.15 C1259.46,443.65 1237.05,455.2 1216.5,466 C1201.91,473.67 1186.03,482.19 1171.88,489.86 " fill="none" id="DltArgEncoder-backto-Float64ArgEncoder" style="stroke:#A80036;stroke-width:1.0;"/><polygon fill="#A80036" points="1291.87,427.11,1284.7074,426.2753,1281.1821,432.566,1288.3447,433.4006,1291.87,427.11" style="stroke:#A80036;stroke-width:1.0;"/><!--MD5=[d2bd62cb63a46eeaffa8402f0a0a622e]
reverse link DltArgEncoder to RawArgEncoder--><path codeLine="65" d="M1156.72,421.4 C1036.35,437.12 899.77,456.36 872.5,466 C856.25,471.75 839.65,481.01 825.89,489.8 " fill="none" id="DltArgEncoder-backto-RawArgEncoder" style="stroke:#A80036;stroke-width:1.0;"/><polygon fill="#A80036" points="1169.81,419.69,1163.3418,416.5021,1157.9114,421.2466,1164.3796,424.4345,1169.81,419.69" style="stroke:#A80036;stroke-width:1.0;"/><!--MD5=[59b2260dbc3e2eb8b73192ed5cc8896d]
reverse link DltArgEncoder to StringArgEncoder--><path codeLine="66" d="M1331.85,439.2 C1323.88,456.33 1314.98,475.45 1308.24,489.94 " fill="none" id="DltArgEncoder-backto-StringArgEncoder" style="stroke:#A80036;stroke-width:1.0;"/><polygon fill="#A80036" points="1337.45,427.17,1331.2917,430.9217,1332.3862,438.0492,1338.5445,434.2976,1337.45,427.17" style="stroke:#A80036;stroke-width:1.0;"/><!--MD5=[968ebb00f3e7a5a62315db99a97420df]
reverse link DltArgEncoder to NonVerboseArgEncoder--><path codeLine="67" d="M1156.62,421.03 C1055.78,433.02 930.63,447.23 818.5,458 C772.79,462.39 759.89,454.27 715.5,466 C695.1,471.39 673.77,480.83 656.07,489.84 " fill="none" id="DltArgEncoder-backto-NonVerboseArgEncoder" style="stroke:#A80036;stroke-width:1.0;"/><polygon fill="#A80036" points="1169.74,419.46,1163.3079,416.2,1157.8247,420.8835,1164.2569,424.1435,1169.74,419.46" style="stroke:#A80036;stroke-width:1.0;"/><!--MD5=[c03aa9d5f87cf6cdb828b0de8b5ec905]
reverse link DltArgEncoder to UnknownVerboseArgEncoder--><path codeLine="68" d="M1156.71,419.47 C1035.89,432.63 877.36,448.47 736.5,458 C687.47,461.32 563.54,455.66 515.5,466 C491.88,471.08 466.92,480.72 446.31,489.94 " fill="none" id="DltArgEncoder-backto-UnknownVerboseArgEncoder" style="stroke:#A80036;stroke-width:1.0;"/><polygon fill="#A80036" points="1169.77,418.04,1163.3706,414.7162,1157.8412,419.3449,1164.2406,422.6687,1169.77,418.04" style="stroke:#A80036;stroke-width:1.0;"/><!--MD5=[bbf974fc5bfcceb4b72382435f28bfa0]
reverse link DltTraceEncoder to IDltEncoder--><path codeLine="70" d="M529.5,177.28 C529.5,192.52 529.5,210.06 529.5,224.61 " fill="none" id="DltTraceEncoder-backto-IDltEncoder" style="stroke:#A80036;stroke-width:1.0;"/><polygon fill="#A80036" points="529.5,164.07,525.5,170.07,529.5,176.07,533.5,170.07,529.5,164.07" style="stroke:#A80036;stroke-width:1.0;"/><!--MD5=[43257a1e25a63e64490f186f2d5177f1]
link BinaryIntArgEncoder to BinaryIntDltArg--><path codeLine="72" d="M1822.5,538.13 C1822.5,562.89 1822.5,602.17 1822.5,628.74 " fill="none" id="BinaryIntArgEncoder-to-BinaryIntDltArg" style="stroke:#A80036;stroke-width:1.0;"/><polygon fill="#A80036" points="1822.5,633.88,1826.5,624.88,1822.5,628.88,1818.5,624.88,1822.5,633.88" style="stroke:#A80036;stroke-width:1.0;"/><text fill="#000000" font-family="sans-serif" font-size="13" lengthAdjust="spacing" textLength="63" x="1823.5" y="592.4951">encodes</text><!--MD5=[721f28771af9c2ebadd1c79524ff9ef7]
link HexIntArgEncoder to HexIntDltArg--><path codeLine="73" d="M1994.5,538.13 C1994.5,562.89 1994.5,602.17 1994.5,628.74 " fill="none" id="HexIntArgEncoder-to-HexIntDltArg" style="stroke:#A80036;stroke-width:1.0;"/><polygon fill="#A80036" points="1994.5,633.88,1998.5,624.88,1994.5,628.88,1990.5,624.88,1994.5,633.88" style="stroke:#A80036;stroke-width:1.0;"/><text fill="#000000" font-family="sans-serif" font-size="13" lengthAdjust="spacing" textLength="63" x="1995.5" y="592.4951">encodes</text><!--MD5=[7fb6b0d9cc9b3285c2dd8a0cd0900751]
link SignedIntArgEncoder to SignedIntDltArg--><path codeLine="74" d="M2168.5,538.13 C2168.5,562.89 2168.5,602.17 2168.5,628.74 " fill="none" id="SignedIntArgEncoder-to-SignedIntDltArg" style="stroke:#A80036;stroke-width:1.0;"/><polygon fill="#A80036" points="2168.5,633.88,2172.5,624.88,2168.5,628.88,2164.5,624.88,2168.5,633.88" style="stroke:#A80036;stroke-width:1.0;"/><text fill="#000000" font-family="sans-serif" font-size="13" lengthAdjust="spacing" textLength="63" x="2169.5" y="592.4951">encodes</text><!--MD5=[4f4a3b0d5c8508ec5cbab0a116584dfc]
link UnsignedIntArgEncoder to UnsignedIntDltArg--><path codeLine="75" d="M1634.5,538.13 C1634.5,562.89 1634.5,602.17 1634.5,628.74 " fill="none" id="UnsignedIntArgEncoder-to-UnsignedIntDltArg" style="stroke:#A80036;stroke-width:1.0;"/><polygon fill="#A80036" points="1634.5,633.88,1638.5,624.88,1634.5,628.88,1630.5,624.88,1634.5,633.88" style="stroke:#A80036;stroke-width:1.0;"/><text fill="#000000" font-family="sans-serif" font-size="13" lengthAdjust="spacing" textLength="63" x="1635.5" y="592.4951">encodes</text><!--MD5=[7e9a0a83af909b0720f00a075c2f32e2]
link BoolArgEncoder to BoolDltArg--><path codeLine="76" d="M1457.5,538.13 C1457.5,562.89 1457.5,602.17 1457.5,628.74 " fill="none" id="BoolArgEncoder-to-BoolDltArg" style="stroke:#A80036;stroke-width:1.0;"/><polygon fill="#A80036" points="1457.5,633.88,1461.5,624.88,1457.5,628.88,1453.5,624.88,1457.5,633.88" style="stroke:#A80036;stroke-width:1.0;"/><text fill="#000000" font-family="sans-serif" font-size="13" lengthAdjust="spacing" textLength="63" x="1458.5" y="592.4951">encodes</text><!--MD5=[2d74c3d6efd32684781399015a291b59]
link Float32ArgEncoder to Float32DltArg--><path codeLine="77" d="M961.25,538.13 C965.26,562.89 971.62,602.17 975.92,628.74 " fill="none" id="Float32ArgEncoder-to-Float32DltArg" style="stroke:#A80036;stroke-width:1.0;"/><polygon fill="#A80036" points="976.76,633.88,979.2663,624.3554,975.9589,628.9446,971.3697,625.6372,976.76,633.88" style="stroke:#A80036;stroke-width:1.0;"/><text fill="#000000" font-family="sans-serif" font-size="13" lengthAdjust="spacing" textLength="63" x="972.5" y="592.4951">encodes</text><!--MD5=[3663330a6e4b4a4690bab89813248697]
link Float64ArgEncoder to Float64DltArg--><path codeLine="78" d="M1129.5,538.13 C1129.5,562.89 1129.5,602.17 1129.5,628.74 " fill="none" id="Float64ArgEncoder-to-Float64DltArg" style="stroke:#A80036;stroke-width:1.0;"/><polygon fill="#A80036" points="1129.5,633.88,1133.5,624.88,1129.5,628.88,1125.5,624.88,1129.5,633.88" style="stroke:#A80036;stroke-width:1.0;"/><text fill="#000000" font-family="sans-serif" font-size="13" lengthAdjust="spacing" textLength="63" x="1130.5" y="592.4951">encodes</text><!--MD5=[358a230eacceb6582849cccffb7705da]
link StringArgEncoder to StringDltArg--><path codeLine="79" d="M1297.5,538.13 C1297.5,562.89 1297.5,602.17 1297.5,628.74 " fill="none" id="StringArgEncoder-to-StringDltArg" style="stroke:#A80036;stroke-width:1.0;"/><polygon fill="#A80036" points="1297.5,633.88,1301.5,624.88,1297.5,628.88,1293.5,624.88,1297.5,633.88" style="stroke:#A80036;stroke-width:1.0;"/><text fill="#000000" font-family="sans-serif" font-size="13" lengthAdjust="spacing" textLength="63" x="1298.5" y="592.4951">encodes</text><!--MD5=[2034f1e70fbab9c14e61f7b7ebc1293f]
link RawArgEncoder to RawDltArg--><path codeLine="80" d="M757.63,538.16 C744.43,547.38 729.74,558.53 717.5,570 C698.11,588.17 679.08,611.48 665.45,629.4 " fill="none" id="RawArgEncoder-to-RawDltArg" style="stroke:#A80036;stroke-width:1.0;"/><polygon fill="#A80036" points="662.11,633.83,670.7291,629.0645,665.126,629.842,664.3484,624.2389,662.11,633.83" style="stroke:#A80036;stroke-width:1.0;"/><text fill="#000000" font-family="sans-serif" font-size="13" lengthAdjust="spacing" textLength="63" x="718.5" y="592.4951">encodes</text><!--MD5=[2af069c3c1368b6bfcf4cc181dea35a7]
link NonVerboseArgEncoder to RawDltArg--><path codeLine="81" d="M609.92,538.19 C606.54,556.46 604,582.36 610.5,604 C613.2,613 617.99,621.88 623.16,629.72 " fill="none" id="NonVerboseArgEncoder-to-RawDltArg" style="stroke:#A80036;stroke-width:1.0;"/><polygon fill="#A80036" points="626.07,633.97,624.3059,624.2804,623.2538,629.8386,617.6956,628.7864,626.07,633.97" style="stroke:#A80036;stroke-width:1.0;"/><text fill="#000000" font-family="sans-serif" font-size="13" lengthAdjust="spacing" textLength="65" x="611.5" y="584.4951">&lt;&lt;encodes</text><text fill="#000000" font-family="sans-serif" font-size="13" lengthAdjust="spacing" textLength="60" x="614" y="600.8467">verbose&gt;&gt;</text><!--MD5=[9a887051fa88c2a06a6e48a255772f5b]
link NonVerboseArgEncoder to NonVerboseDltArg--><path codeLine="82" d="M656.65,538.06 C674.27,546.94 695.38,556.31 715.5,562 C730.78,566.32 773.68,560.64 786.5,570 C805.48,583.86 815.4,609.1 820.48,628.84 " fill="none" id="NonVerboseArgEncoder-to-NonVerboseDltArg" style="stroke:#A80036;stroke-width:1.0;"/><polygon fill="#A80036" points="821.66,633.73,823.4115,624.0381,820.4742,628.8726,815.6397,625.9354,821.66,633.73" style="stroke:#A80036;stroke-width:1.0;"/><text fill="#000000" font-family="sans-serif" font-size="13" lengthAdjust="spacing" textLength="65" x="820.5" y="584.4951">&lt;&lt;encodes</text><text fill="#000000" font-family="sans-serif" font-size="13" lengthAdjust="spacing" textLength="81" x="812.5" y="600.8467">nonverbose&gt;&gt;</text><!--MD5=[81ab0216c3dbf594c6a73c9136589686]
link NonVerboseArgEncoder to UnknownVerboseDltArg--><path codeLine="83" d="M576.34,538.13 C562.22,547.27 546.55,558.36 533.5,570 C513.28,588.04 493.56,611.61 479.57,629.67 " fill="none" id="NonVerboseArgEncoder-to-UnknownVerboseDltArg" style="stroke:#A80036;stroke-width:1.0;"/><polygon fill="#A80036" points="476.49,633.67,485.1389,628.9587,479.531,629.701,478.7886,624.0931,476.49,633.67" style="stroke:#A80036;stroke-width:1.0;"/><text fill="#000000" font-family="sans-serif" font-size="13" lengthAdjust="spacing" textLength="63" x="534.5" y="592.4951">encodes</text><!--MD5=[a6c4398af25b435b5b8850da81df18a6]
link UnknownVerboseArgEncoder to UnknownVerboseDltArg--><path codeLine="84" d="M395.1,538.02 C391.9,556.66 390.1,583.15 399.5,604 C404.02,614.02 411.47,622.9 419.61,630.4 " fill="none" id="UnknownVerboseArgEncoder-to-UnknownVerboseDltArg" style="stroke:#A80036;stroke-width:1.0;"/><polygon fill="#A80036" points="423.65,633.97,419.5638,625.0088,419.9067,630.6553,414.2602,630.9982,423.65,633.97" style="stroke:#A80036;stroke-width:1.0;"/><text fill="#000000" font-family="sans-serif" font-size="13" lengthAdjust="spacing" textLength="63" x="400.5" y="592.4951">encodes</text><!--MD5=[44ea2c39d467f6300f1751d842a3ce8d]
@startuml DLT.WriterEncoder
interface ITraceEncoder
interface ITraceEncoderFactory

ITraceEncoderFactory -r- ITraceEncoder

class DltTraceEncoderFactory<TLine:DltTraceLineBase>
ITraceEncoderFactory <|.d. DltTraceEncoderFactory

class DltTraceEncoder<TLine:DltTraceLineBase>
ITraceEncoder <|.d. DltTraceEncoder

DltTraceEncoderFactory -r-> DltTraceEncoder : <<creates>>

interface IDltEncoder<TLine:DltTraceLineBase> {
    +Encode(buffer: Span<byte>, line: TLine): int
}
class VerboseDltEncoder<DltTraceLine> {
    +Encode(buffer: Span<byte>, line: DltTraceLine): int
}
IDltEncoder <|.d. VerboseDltEncoder : TLine -> DltTraceLine

interface IArgEncoder {
    +Encode(buffer: Span<byte>, bool verbose, bool msbf, arg: IDltArg): int
}
class DltArgEncoder {
    +Encode(buffer: Span<byte>, bool verbose, bool msbf, arg: IDltArg): int
}
IArgEncoder <|.d. DltArgEncoder
VerboseDltEncoder *-r- DltArgEncoder

class BoolArgEncoder
together {
  class BinaryIntArgEncoder
  class HexIntArgEncoder
  class SignedIntArgEncoder
  class UnsignedIntArgEncoder
}
together {
  class Float32ArgEncoder
  class Float64ArgEncoder
}
class StringArgEncoder
class RawArgEncoder
class NonVerboseArgEncoder
class UnknownVerboseArgEncoder
IArgEncoder <|..d. BinaryIntArgEncoder
IArgEncoder <|..d. HexIntArgEncoder
IArgEncoder <|..d. SignedIntArgEncoder
IArgEncoder <|..d. UnsignedIntArgEncoder
IArgEncoder <|..d. BoolArgEncoder
IArgEncoder <|..d. Float32ArgEncoder
IArgEncoder <|..d. Float64ArgEncoder
IArgEncoder <|..d. RawArgEncoder
IArgEncoder <|..d. StringArgEncoder
IArgEncoder <|..d. NonVerboseArgEncoder
IArgEncoder <|..d. UnknownVerboseArgEncoder

DltArgEncoder *-d- BinaryIntArgEncoder
DltArgEncoder *-d- HexIntArgEncoder
DltArgEncoder *-d- SignedIntArgEncoder
DltArgEncoder *-d- UnsignedIntArgEncoder
DltArgEncoder *-d- BoolArgEncoder
DltArgEncoder *-d- Float32ArgEncoder
DltArgEncoder *-d- Float64ArgEncoder
DltArgEncoder *-d- RawArgEncoder
DltArgEncoder *-d- StringArgEncoder
DltArgEncoder *-d- NonVerboseArgEncoder
DltArgEncoder *-d- UnknownVerboseArgEncoder

DltTraceEncoder *-d- IDltEncoder

BinaryIntArgEncoder -d-> BinaryIntDltArg : <<encodes>>
HexIntArgEncoder -d-> HexIntDltArg : <<encodes>>
SignedIntArgEncoder -d-> SignedIntDltArg : <<encodes>>
UnsignedIntArgEncoder -d-> UnsignedIntDltArg : <<encodes>>
BoolArgEncoder -d-> BoolDltArg : <<encodes>>
Float32ArgEncoder -d-> Float32DltArg : <<encodes>>
Float64ArgEncoder -d-> Float64DltArg : <<encodes>>
StringArgEncoder -d-> StringDltArg : <<encodes>>
RawArgEncoder -d-> RawDltArg : <<encodes>>
NonVerboseArgEncoder -d-> RawDltArg : <<encodes\nverbose>>
NonVerboseArgEncoder -d-> NonVerboseDltArg : <<encodes\nnonverbose>>
NonVerboseArgEncoder -d-> UnknownVerboseDltArg : <<encodes>>
UnknownVerboseArgEncoder -d-> UnknownVerboseDltArg : <<encodes>>
@enduml

PlantUML version 1.2022.1(Tue Feb 01 19:19:58 CET 2022)
(GPL source distribution)
Java Runtime: Java(TM) SE Runtime Environment
JVM: Java HotSpot(TM) Client VM
Default Encoding: Cp1252
Language: en
Country: US
--></g></svg>