<?xml version="1.0" encoding="UTF-8" standalone="no"?><svg xmlns="http://www.w3.org/2000/svg" xmlns:xlink="http://www.w3.org/1999/xlink" contentScriptType="application/ecmascript" contentStyleType="text/css" height="661px" preserveAspectRatio="none" style="width:1974px;height:661px;background:#FFFFFF;" version="1.1" viewBox="0 0 1974 661" width="1974px" zoomAndPan="magnify"><defs><filter height="300%" id="f14z7941eoyobu" width="300%" x="-1" y="-1"><feGaussianBlur result="blurOut" stdDeviation="2.0"/><feColorMatrix in="blurOut" result="blurOut2" type="matrix" values="0 0 0 0 0 0 0 0 0 0 0 0 0 0 0 0 0 0 .4 0"/><feOffset dx="4.0" dy="4.0" in="blurOut2" result="blurOut3"/><feBlend in="SourceGraphic" in2="blurOut3" mode="normal"/></filter></defs><g><!--MD5=[6f6d608e6fcd45a869ad33795209fe26]
class ITraceEncoder--><rect codeLine="1" fill="#FEFECE" filter="url(#f14z7941eoyobu)" height="48" id="ITraceEncoder" style="stroke:#A80036;stroke-width:1.5;" width="113" x="447" y="7"/><ellipse cx="462" cy="23" fill="#B4A7E5" rx="11" ry="11" style="stroke:#A80036;stroke-width:1.0;"/><path d="M462.9531,19.6406 L462.9531,26.2969 L464.6719,26.2969 Q465.2813,26.2969 465.5469,26.5313 Q465.8125,26.7656 465.8125,27.1563 Q465.8125,27.5313 465.5469,27.7656 Q465.2813,28 464.6719,28 L459.5313,28 Q458.9219,28 458.6563,27.7656 Q458.3906,27.5313 458.3906,27.1406 Q458.3906,26.7656 458.6563,26.5313 Q458.9219,26.2969 459.5313,26.2969 L461.25,26.2969 L461.25,19.6406 L459.5313,19.6406 Q458.9219,19.6406 458.6563,19.4063 Q458.3906,19.1719 458.3906,18.7813 Q458.3906,18.4063 458.6563,18.1719 Q458.9219,17.9375 459.5313,17.9375 L464.6719,17.9375 Q465.2813,17.9375 465.5469,18.1719 Q465.8125,18.4063 465.8125,18.7813 Q465.8125,19.1719 465.5469,19.4063 Q465.2813,19.6406 464.6719,19.6406 L462.9531,19.6406 Z " fill="#000000"/><text fill="#000000" font-family="sans-serif" font-size="12" font-style="italic" lengthAdjust="spacing" textLength="81" x="476" y="27.9102">ITraceEncoder</text><line style="stroke:#A80036;stroke-width:1.5;" x1="448" x2="559" y1="39" y2="39"/><line style="stroke:#A80036;stroke-width:1.5;" x1="448" x2="559" y1="47" y2="47"/><!--MD5=[3d4b20d523844a7742bcfaf38f4a7853]
class ITraceEncoderFactory--><rect codeLine="2" fill="#FEFECE" filter="url(#f14z7941eoyobu)" height="48" id="ITraceEncoderFactory" style="stroke:#A80036;stroke-width:1.5;" width="153" x="233" y="7"/><ellipse cx="248" cy="23" fill="#B4A7E5" rx="11" ry="11" style="stroke:#A80036;stroke-width:1.0;"/><path d="M248.9531,19.6406 L248.9531,26.2969 L250.6719,26.2969 Q251.2813,26.2969 251.5469,26.5313 Q251.8125,26.7656 251.8125,27.1563 Q251.8125,27.5313 251.5469,27.7656 Q251.2813,28 250.6719,28 L245.5313,28 Q244.9219,28 244.6563,27.7656 Q244.3906,27.5313 244.3906,27.1406 Q244.3906,26.7656 244.6563,26.5313 Q244.9219,26.2969 245.5313,26.2969 L247.25,26.2969 L247.25,19.6406 L245.5313,19.6406 Q244.9219,19.6406 244.6563,19.4063 Q244.3906,19.1719 244.3906,18.7813 Q244.3906,18.4063 244.6563,18.1719 Q244.9219,17.9375 245.5313,17.9375 L250.6719,17.9375 Q251.2813,17.9375 251.5469,18.1719 Q251.8125,18.4063 251.8125,18.7813 Q251.8125,19.1719 251.5469,19.4063 Q251.2813,19.6406 250.6719,19.6406 L248.9531,19.6406 Z " fill="#000000"/><text fill="#000000" font-family="sans-serif" font-size="12" font-style="italic" lengthAdjust="spacing" textLength="121" x="262" y="27.9102">ITraceEncoderFactory</text><line style="stroke:#A80036;stroke-width:1.5;" x1="234" x2="385" y1="39" y2="39"/><line style="stroke:#A80036;stroke-width:1.5;" x1="234" x2="385" y1="47" y2="47"/><!--MD5=[4aada09f93d0b6e7ebd03dfdc6a2603a]
class DltTraceEncoderFactory--><rect codeLine="6" fill="#FEFECE" filter="url(#f14z7941eoyobu)" height="48" id="DltTraceEncoderFactory" style="stroke:#A80036;stroke-width:1.5;" width="299" x="7" y="116"/><ellipse cx="22" cy="132" fill="#ADD1B2" rx="11" ry="11" style="stroke:#A80036;stroke-width:1.0;"/><path d="M24.7656,127.875 Q24.9219,127.6563 25.1094,127.5469 Q25.2969,127.4375 25.5156,127.4375 Q25.8906,127.4375 26.125,127.6953 Q26.3594,127.9531 26.3594,128.5625 L26.3594,130.0156 Q26.3594,130.625 26.125,130.8906 Q25.8906,131.1563 25.5156,131.1563 Q25.1719,131.1563 24.9688,130.9531 Q24.7656,130.7656 24.6563,130.25 Q24.6094,129.8906 24.4219,129.7031 Q24.0938,129.3281 23.4844,129.1094 Q22.875,128.8906 22.25,128.8906 Q21.4844,128.8906 20.8516,129.2188 Q20.2188,129.5469 19.7266,130.2969 Q19.2344,131.0469 19.2344,132.0781 L19.2344,133.1719 Q19.2344,134.4063 20.125,135.2266 Q21.0156,136.0469 22.6094,136.0469 Q23.5469,136.0469 24.2031,135.7969 Q24.5938,135.6406 25.0156,135.2031 Q25.2813,134.9375 25.4297,134.8594 Q25.5781,134.7813 25.7813,134.7813 Q26.1094,134.7813 26.3672,135.0391 Q26.625,135.2969 26.625,135.6406 Q26.625,135.9844 26.2813,136.3906 Q25.7813,136.9688 24.9844,137.2969 Q23.9063,137.75 22.6094,137.75 Q21.0938,137.75 19.8906,137.125 Q18.9063,136.625 18.2188,135.5547 Q17.5313,134.4844 17.5313,133.2031 L17.5313,132.0469 Q17.5313,130.7188 18.1484,129.5703 Q18.7656,128.4219 19.8594,127.8047 Q20.9531,127.1875 22.1875,127.1875 Q22.9219,127.1875 23.5703,127.3516 Q24.2188,127.5156 24.7656,127.875 Z " fill="#000000"/><text fill="#000000" font-family="sans-serif" font-size="12" lengthAdjust="spacing" textLength="131" x="36" y="136.9102">DltTraceEncoderFactory</text><rect fill="#FFFFFF" height="17.0938" style="stroke:#000000;stroke-width:1.0;stroke-dasharray:2.0,2.0;" width="134" x="175" y="113"/><text fill="#000000" font-family="sans-serif" font-size="12" font-style="italic" lengthAdjust="spacing" textLength="132" x="176" y="126.457">TLine:DltTraceLineBase</text><line style="stroke:#A80036;stroke-width:1.5;" x1="8" x2="305" y1="148" y2="148"/><line style="stroke:#A80036;stroke-width:1.5;" x1="8" x2="305" y1="156" y2="156"/><!--MD5=[11363600cc92b2fece27b28de66320bf]
class DltTraceEncoder--><rect codeLine="9" fill="#FEFECE" filter="url(#f14z7941eoyobu)" height="48" id="DltTraceEncoder" style="stroke:#A80036;stroke-width:1.5;" width="260" x="399.5" y="116"/><ellipse cx="414.5" cy="132" fill="#ADD1B2" rx="11" ry="11" style="stroke:#A80036;stroke-width:1.0;"/><path d="M417.2656,127.875 Q417.4219,127.6563 417.6094,127.5469 Q417.7969,127.4375 418.0156,127.4375 Q418.3906,127.4375 418.625,127.6953 Q418.8594,127.9531 418.8594,128.5625 L418.8594,130.0156 Q418.8594,130.625 418.625,130.8906 Q418.3906,131.1563 418.0156,131.1563 Q417.6719,131.1563 417.4688,130.9531 Q417.2656,130.7656 417.1563,130.25 Q417.1094,129.8906 416.9219,129.7031 Q416.5938,129.3281 415.9844,129.1094 Q415.375,128.8906 414.75,128.8906 Q413.9844,128.8906 413.3516,129.2188 Q412.7188,129.5469 412.2266,130.2969 Q411.7344,131.0469 411.7344,132.0781 L411.7344,133.1719 Q411.7344,134.4063 412.625,135.2266 Q413.5156,136.0469 415.1094,136.0469 Q416.0469,136.0469 416.7031,135.7969 Q417.0938,135.6406 417.5156,135.2031 Q417.7813,134.9375 417.9297,134.8594 Q418.0781,134.7813 418.2813,134.7813 Q418.6094,134.7813 418.8672,135.0391 Q419.125,135.2969 419.125,135.6406 Q419.125,135.9844 418.7813,136.3906 Q418.2813,136.9688 417.4844,137.2969 Q416.4063,137.75 415.1094,137.75 Q413.5938,137.75 412.3906,137.125 Q411.4063,136.625 410.7188,135.5547 Q410.0313,134.4844 410.0313,133.2031 L410.0313,132.0469 Q410.0313,130.7188 410.6484,129.5703 Q411.2656,128.4219 412.3594,127.8047 Q413.4531,127.1875 414.6875,127.1875 Q415.4219,127.1875 416.0703,127.3516 Q416.7188,127.5156 417.2656,127.875 Z " fill="#000000"/><text fill="#000000" font-family="sans-serif" font-size="12" lengthAdjust="spacing" textLength="92" x="428.5" y="136.9102">DltTraceEncoder</text><rect fill="#FFFFFF" height="17.0938" style="stroke:#000000;stroke-width:1.0;stroke-dasharray:2.0,2.0;" width="134" x="528.5" y="113"/><text fill="#000000" font-family="sans-serif" font-size="12" font-style="italic" lengthAdjust="spacing" textLength="132" x="529.5" y="126.457">TLine:DltTraceLineBase</text><line style="stroke:#A80036;stroke-width:1.5;" x1="400.5" x2="658.5" y1="148" y2="148"/><line style="stroke:#A80036;stroke-width:1.5;" x1="400.5" x2="658.5" y1="156" y2="156"/><!--MD5=[48f8e76aba46043221db20ac9879cbe3]
class IVerboseDltEncoder--><rect codeLine="14" fill="#FEFECE" filter="url(#f14z7941eoyobu)" height="61.8359" id="IVerboseDltEncoder" style="stroke:#A80036;stroke-width:1.5;" width="294" x="382.5" y="225"/><ellipse cx="469.25" cy="241" fill="#B4A7E5" rx="11" ry="11" style="stroke:#A80036;stroke-width:1.0;"/><path d="M470.2031,237.6406 L470.2031,244.2969 L471.9219,244.2969 Q472.5313,244.2969 472.7969,244.5313 Q473.0625,244.7656 473.0625,245.1563 Q473.0625,245.5313 472.7969,245.7656 Q472.5313,246 471.9219,246 L466.7813,246 Q466.1719,246 465.9063,245.7656 Q465.6406,245.5313 465.6406,245.1406 Q465.6406,244.7656 465.9063,244.5313 Q466.1719,244.2969 466.7813,244.2969 L468.5,244.2969 L468.5,237.6406 L466.7813,237.6406 Q466.1719,237.6406 465.9063,237.4063 Q465.6406,237.1719 465.6406,236.7813 Q465.6406,236.4063 465.9063,236.1719 Q466.1719,235.9375 466.7813,235.9375 L471.9219,235.9375 Q472.5313,235.9375 472.7969,236.1719 Q473.0625,236.4063 473.0625,236.7813 Q473.0625,237.1719 472.7969,237.4063 Q472.5313,237.6406 471.9219,237.6406 L470.2031,237.6406 Z " fill="#000000"/><text fill="#000000" font-family="sans-serif" font-size="12" font-style="italic" lengthAdjust="spacing" textLength="112" x="489.75" y="245.9102">IVerboseDltEncoder</text><line style="stroke:#A80036;stroke-width:1.5;" x1="383.5" x2="675.5" y1="257" y2="257"/><line style="stroke:#A80036;stroke-width:1.5;" x1="383.5" x2="675.5" y1="265" y2="265"/><ellipse cx="393.5" cy="276" fill="#84BE84" rx="3" ry="3" style="stroke:#038048;stroke-width:1.0;"/><text fill="#000000" font-family="sans-serif" font-size="11" lengthAdjust="spacing" textLength="268" x="402.5" y="280.4189">Encode(buffer: Span&lt;byte&gt;, line: DltTraceLineBase): int</text><!--MD5=[05a54f20826aaf197f67c85105285274]
class VerboseDltEncoder--><rect codeLine="17" fill="#FEFECE" filter="url(#f14z7941eoyobu)" height="48" id="VerboseDltEncoder" style="stroke:#A80036;stroke-width:1.5;" width="139" x="319" y="348"/><ellipse cx="334" cy="364" fill="#ADD1B2" rx="11" ry="11" style="stroke:#A80036;stroke-width:1.0;"/><path d="M336.7656,359.875 Q336.9219,359.6563 337.1094,359.5469 Q337.2969,359.4375 337.5156,359.4375 Q337.8906,359.4375 338.125,359.6953 Q338.3594,359.9531 338.3594,360.5625 L338.3594,362.0156 Q338.3594,362.625 338.125,362.8906 Q337.8906,363.1563 337.5156,363.1563 Q337.1719,363.1563 336.9688,362.9531 Q336.7656,362.7656 336.6563,362.25 Q336.6094,361.8906 336.4219,361.7031 Q336.0938,361.3281 335.4844,361.1094 Q334.875,360.8906 334.25,360.8906 Q333.4844,360.8906 332.8516,361.2188 Q332.2188,361.5469 331.7266,362.2969 Q331.2344,363.0469 331.2344,364.0781 L331.2344,365.1719 Q331.2344,366.4063 332.125,367.2266 Q333.0156,368.0469 334.6094,368.0469 Q335.5469,368.0469 336.2031,367.7969 Q336.5938,367.6406 337.0156,367.2031 Q337.2813,366.9375 337.4297,366.8594 Q337.5781,366.7813 337.7813,366.7813 Q338.1094,366.7813 338.3672,367.0391 Q338.625,367.2969 338.625,367.6406 Q338.625,367.9844 338.2813,368.3906 Q337.7813,368.9688 336.9844,369.2969 Q335.9063,369.75 334.6094,369.75 Q333.0938,369.75 331.8906,369.125 Q330.9063,368.625 330.2188,367.5547 Q329.5313,366.4844 329.5313,365.2031 L329.5313,364.0469 Q329.5313,362.7188 330.1484,361.5703 Q330.7656,360.4219 331.8594,359.8047 Q332.9531,359.1875 334.1875,359.1875 Q334.9219,359.1875 335.5703,359.3516 Q336.2188,359.5156 336.7656,359.875 Z " fill="#000000"/><text fill="#000000" font-family="sans-serif" font-size="12" lengthAdjust="spacing" textLength="107" x="348" y="368.9102">VerboseDltEncoder</text><line style="stroke:#A80036;stroke-width:1.5;" x1="320" x2="457" y1="380" y2="380"/><line style="stroke:#A80036;stroke-width:1.5;" x1="320" x2="457" y1="388" y2="388"/><!--MD5=[358dd04dd0fac196fcd8d983e2abb37d]
class IArgEncoder--><rect codeLine="20" fill="#FEFECE" filter="url(#f14z7941eoyobu)" height="61.8359" id="IArgEncoder" style="stroke:#A80036;stroke-width:1.5;" width="363" x="771" y="225"/><ellipse cx="913.75" cy="241" fill="#B4A7E5" rx="11" ry="11" style="stroke:#A80036;stroke-width:1.0;"/><path d="M914.7031,237.6406 L914.7031,244.2969 L916.4219,244.2969 Q917.0313,244.2969 917.2969,244.5313 Q917.5625,244.7656 917.5625,245.1563 Q917.5625,245.5313 917.2969,245.7656 Q917.0313,246 916.4219,246 L911.2813,246 Q910.6719,246 910.4063,245.7656 Q910.1406,245.5313 910.1406,245.1406 Q910.1406,244.7656 910.4063,244.5313 Q910.6719,244.2969 911.2813,244.2969 L913,244.2969 L913,237.6406 L911.2813,237.6406 Q910.6719,237.6406 910.4063,237.4063 Q910.1406,237.1719 910.1406,236.7813 Q910.1406,236.4063 910.4063,236.1719 Q910.6719,235.9375 911.2813,235.9375 L916.4219,235.9375 Q917.0313,235.9375 917.2969,236.1719 Q917.5625,236.4063 917.5625,236.7813 Q917.5625,237.1719 917.2969,237.4063 Q917.0313,237.6406 916.4219,237.6406 L914.7031,237.6406 Z " fill="#000000"/><text fill="#000000" font-family="sans-serif" font-size="12" font-style="italic" lengthAdjust="spacing" textLength="69" x="934.25" y="245.9102">IArgEncoder</text><line style="stroke:#A80036;stroke-width:1.5;" x1="772" x2="1133" y1="257" y2="257"/><line style="stroke:#A80036;stroke-width:1.5;" x1="772" x2="1133" y1="265" y2="265"/><ellipse cx="782" cy="276" fill="#84BE84" rx="3" ry="3" style="stroke:#038048;stroke-width:1.0;"/><text fill="#000000" font-family="sans-serif" font-size="11" lengthAdjust="spacing" textLength="337" x="791" y="280.4189">Encode(buffer: Span&lt;byte&gt;, bool verbose, bool msbf, arg: IDltArg): int</text><!--MD5=[94bc7284ec485dd80e470d2453addd79]
class VerboseArgEncoder--><rect codeLine="23" fill="#FEFECE" filter="url(#f14z7941eoyobu)" height="48" id="VerboseArgEncoder" style="stroke:#A80036;stroke-width:1.5;" width="142" x="881.5" y="348"/><ellipse cx="896.5" cy="364" fill="#ADD1B2" rx="11" ry="11" style="stroke:#A80036;stroke-width:1.0;"/><path d="M899.2656,359.875 Q899.4219,359.6563 899.6094,359.5469 Q899.7969,359.4375 900.0156,359.4375 Q900.3906,359.4375 900.625,359.6953 Q900.8594,359.9531 900.8594,360.5625 L900.8594,362.0156 Q900.8594,362.625 900.625,362.8906 Q900.3906,363.1563 900.0156,363.1563 Q899.6719,363.1563 899.4688,362.9531 Q899.2656,362.7656 899.1563,362.25 Q899.1094,361.8906 898.9219,361.7031 Q898.5938,361.3281 897.9844,361.1094 Q897.375,360.8906 896.75,360.8906 Q895.9844,360.8906 895.3516,361.2188 Q894.7188,361.5469 894.2266,362.2969 Q893.7344,363.0469 893.7344,364.0781 L893.7344,365.1719 Q893.7344,366.4063 894.625,367.2266 Q895.5156,368.0469 897.1094,368.0469 Q898.0469,368.0469 898.7031,367.7969 Q899.0938,367.6406 899.5156,367.2031 Q899.7813,366.9375 899.9297,366.8594 Q900.0781,366.7813 900.2813,366.7813 Q900.6094,366.7813 900.8672,367.0391 Q901.125,367.2969 901.125,367.6406 Q901.125,367.9844 900.7813,368.3906 Q900.2813,368.9688 899.4844,369.2969 Q898.4063,369.75 897.1094,369.75 Q895.5938,369.75 894.3906,369.125 Q893.4063,368.625 892.7188,367.5547 Q892.0313,366.4844 892.0313,365.2031 L892.0313,364.0469 Q892.0313,362.7188 892.6484,361.5703 Q893.2656,360.4219 894.3594,359.8047 Q895.4531,359.1875 896.6875,359.1875 Q897.4219,359.1875 898.0703,359.3516 Q898.7188,359.5156 899.2656,359.875 Z " fill="#000000"/><text fill="#000000" font-family="sans-serif" font-size="12" lengthAdjust="spacing" textLength="110" x="910.5" y="368.9102">VerboseArgEncoder</text><line style="stroke:#A80036;stroke-width:1.5;" x1="882.5" x2="1022.5" y1="380" y2="380"/><line style="stroke:#A80036;stroke-width:1.5;" x1="882.5" x2="1022.5" y1="388" y2="388"/><!--MD5=[6f2c01f075f91ebcd3347acc367829c7]
class BinaryIntArgEncoder--><rect codeLine="29" fill="#FEFECE" filter="url(#f14z7941eoyobu)" height="48" id="BinaryIntArgEncoder" style="stroke:#A80036;stroke-width:1.5;" width="143" x="1619" y="457"/><ellipse cx="1634" cy="473" fill="#ADD1B2" rx="11" ry="11" style="stroke:#A80036;stroke-width:1.0;"/><path d="M1636.7656,468.875 Q1636.9219,468.6563 1637.1094,468.5469 Q1637.2969,468.4375 1637.5156,468.4375 Q1637.8906,468.4375 1638.125,468.6953 Q1638.3594,468.9531 1638.3594,469.5625 L1638.3594,471.0156 Q1638.3594,471.625 1638.125,471.8906 Q1637.8906,472.1563 1637.5156,472.1563 Q1637.1719,472.1563 1636.9688,471.9531 Q1636.7656,471.7656 1636.6563,471.25 Q1636.6094,470.8906 1636.4219,470.7031 Q1636.0938,470.3281 1635.4844,470.1094 Q1634.875,469.8906 1634.25,469.8906 Q1633.4844,469.8906 1632.8516,470.2188 Q1632.2188,470.5469 1631.7266,471.2969 Q1631.2344,472.0469 1631.2344,473.0781 L1631.2344,474.1719 Q1631.2344,475.4063 1632.125,476.2266 Q1633.0156,477.0469 1634.6094,477.0469 Q1635.5469,477.0469 1636.2031,476.7969 Q1636.5938,476.6406 1637.0156,476.2031 Q1637.2813,475.9375 1637.4297,475.8594 Q1637.5781,475.7813 1637.7813,475.7813 Q1638.1094,475.7813 1638.3672,476.0391 Q1638.625,476.2969 1638.625,476.6406 Q1638.625,476.9844 1638.2813,477.3906 Q1637.7813,477.9688 1636.9844,478.2969 Q1635.9063,478.75 1634.6094,478.75 Q1633.0938,478.75 1631.8906,478.125 Q1630.9063,477.625 1630.2188,476.5547 Q1629.5313,475.4844 1629.5313,474.2031 L1629.5313,473.0469 Q1629.5313,471.7188 1630.1484,470.5703 Q1630.7656,469.4219 1631.8594,468.8047 Q1632.9531,468.1875 1634.1875,468.1875 Q1634.9219,468.1875 1635.5703,468.3516 Q1636.2188,468.5156 1636.7656,468.875 Z " fill="#000000"/><text fill="#000000" font-family="sans-serif" font-size="12" lengthAdjust="spacing" textLength="111" x="1648" y="477.9102">BinaryIntArgEncoder</text><line style="stroke:#A80036;stroke-width:1.5;" x1="1620" x2="1761" y1="489" y2="489"/><line style="stroke:#A80036;stroke-width:1.5;" x1="1620" x2="1761" y1="497" y2="497"/><!--MD5=[5ca4af4ba27db3c1fa37640d811cae7a]
class HexIntArgEncoder--><rect codeLine="30" fill="#FEFECE" filter="url(#f14z7941eoyobu)" height="48" id="HexIntArgEncoder" style="stroke:#A80036;stroke-width:1.5;" width="130" x="176.5" y="457"/><ellipse cx="191.5" cy="473" fill="#ADD1B2" rx="11" ry="11" style="stroke:#A80036;stroke-width:1.0;"/><path d="M194.2656,468.875 Q194.4219,468.6563 194.6094,468.5469 Q194.7969,468.4375 195.0156,468.4375 Q195.3906,468.4375 195.625,468.6953 Q195.8594,468.9531 195.8594,469.5625 L195.8594,471.0156 Q195.8594,471.625 195.625,471.8906 Q195.3906,472.1563 195.0156,472.1563 Q194.6719,472.1563 194.4688,471.9531 Q194.2656,471.7656 194.1563,471.25 Q194.1094,470.8906 193.9219,470.7031 Q193.5938,470.3281 192.9844,470.1094 Q192.375,469.8906 191.75,469.8906 Q190.9844,469.8906 190.3516,470.2188 Q189.7188,470.5469 189.2266,471.2969 Q188.7344,472.0469 188.7344,473.0781 L188.7344,474.1719 Q188.7344,475.4063 189.625,476.2266 Q190.5156,477.0469 192.1094,477.0469 Q193.0469,477.0469 193.7031,476.7969 Q194.0938,476.6406 194.5156,476.2031 Q194.7813,475.9375 194.9297,475.8594 Q195.0781,475.7813 195.2813,475.7813 Q195.6094,475.7813 195.8672,476.0391 Q196.125,476.2969 196.125,476.6406 Q196.125,476.9844 195.7813,477.3906 Q195.2813,477.9688 194.4844,478.2969 Q193.4063,478.75 192.1094,478.75 Q190.5938,478.75 189.3906,478.125 Q188.4063,477.625 187.7188,476.5547 Q187.0313,475.4844 187.0313,474.2031 L187.0313,473.0469 Q187.0313,471.7188 187.6484,470.5703 Q188.2656,469.4219 189.3594,468.8047 Q190.4531,468.1875 191.6875,468.1875 Q192.4219,468.1875 193.0703,468.3516 Q193.7188,468.5156 194.2656,468.875 Z " fill="#000000"/><text fill="#000000" font-family="sans-serif" font-size="12" lengthAdjust="spacing" textLength="98" x="205.5" y="477.9102">HexIntArgEncoder</text><line style="stroke:#A80036;stroke-width:1.5;" x1="177.5" x2="305.5" y1="489" y2="489"/><line style="stroke:#A80036;stroke-width:1.5;" x1="177.5" x2="305.5" y1="497" y2="497"/><!--MD5=[f7a8f7cec189c8925c70c6dfe84b8abb]
class SignedIntArgEncoder--><rect codeLine="31" fill="#FEFECE" filter="url(#f14z7941eoyobu)" height="48" id="SignedIntArgEncoder" style="stroke:#A80036;stroke-width:1.5;" width="148" x="1435.5" y="457"/><ellipse cx="1450.5" cy="473" fill="#ADD1B2" rx="11" ry="11" style="stroke:#A80036;stroke-width:1.0;"/><path d="M1453.2656,468.875 Q1453.4219,468.6563 1453.6094,468.5469 Q1453.7969,468.4375 1454.0156,468.4375 Q1454.3906,468.4375 1454.625,468.6953 Q1454.8594,468.9531 1454.8594,469.5625 L1454.8594,471.0156 Q1454.8594,471.625 1454.625,471.8906 Q1454.3906,472.1563 1454.0156,472.1563 Q1453.6719,472.1563 1453.4688,471.9531 Q1453.2656,471.7656 1453.1563,471.25 Q1453.1094,470.8906 1452.9219,470.7031 Q1452.5938,470.3281 1451.9844,470.1094 Q1451.375,469.8906 1450.75,469.8906 Q1449.9844,469.8906 1449.3516,470.2188 Q1448.7188,470.5469 1448.2266,471.2969 Q1447.7344,472.0469 1447.7344,473.0781 L1447.7344,474.1719 Q1447.7344,475.4063 1448.625,476.2266 Q1449.5156,477.0469 1451.1094,477.0469 Q1452.0469,477.0469 1452.7031,476.7969 Q1453.0938,476.6406 1453.5156,476.2031 Q1453.7813,475.9375 1453.9297,475.8594 Q1454.0781,475.7813 1454.2813,475.7813 Q1454.6094,475.7813 1454.8672,476.0391 Q1455.125,476.2969 1455.125,476.6406 Q1455.125,476.9844 1454.7813,477.3906 Q1454.2813,477.9688 1453.4844,478.2969 Q1452.4063,478.75 1451.1094,478.75 Q1449.5938,478.75 1448.3906,478.125 Q1447.4063,477.625 1446.7188,476.5547 Q1446.0313,475.4844 1446.0313,474.2031 L1446.0313,473.0469 Q1446.0313,471.7188 1446.6484,470.5703 Q1447.2656,469.4219 1448.3594,468.8047 Q1449.4531,468.1875 1450.6875,468.1875 Q1451.4219,468.1875 1452.0703,468.3516 Q1452.7188,468.5156 1453.2656,468.875 Z " fill="#000000"/><text fill="#000000" font-family="sans-serif" font-size="12" lengthAdjust="spacing" textLength="116" x="1464.5" y="477.9102">SignedIntArgEncoder</text><line style="stroke:#A80036;stroke-width:1.5;" x1="1436.5" x2="1582.5" y1="489" y2="489"/><line style="stroke:#A80036;stroke-width:1.5;" x1="1436.5" x2="1582.5" y1="497" y2="497"/><!--MD5=[f544327efaf49fb6f83b6e7d8b5dce23]
class UnsignedIntArgEncoder--><rect codeLine="32" fill="#FEFECE" filter="url(#f14z7941eoyobu)" height="48" id="UnsignedIntArgEncoder" style="stroke:#A80036;stroke-width:1.5;" width="163" x="1797" y="457"/><ellipse cx="1812" cy="473" fill="#ADD1B2" rx="11" ry="11" style="stroke:#A80036;stroke-width:1.0;"/><path d="M1814.7656,468.875 Q1814.9219,468.6563 1815.1094,468.5469 Q1815.2969,468.4375 1815.5156,468.4375 Q1815.8906,468.4375 1816.125,468.6953 Q1816.3594,468.9531 1816.3594,469.5625 L1816.3594,471.0156 Q1816.3594,471.625 1816.125,471.8906 Q1815.8906,472.1563 1815.5156,472.1563 Q1815.1719,472.1563 1814.9688,471.9531 Q1814.7656,471.7656 1814.6563,471.25 Q1814.6094,470.8906 1814.4219,470.7031 Q1814.0938,470.3281 1813.4844,470.1094 Q1812.875,469.8906 1812.25,469.8906 Q1811.4844,469.8906 1810.8516,470.2188 Q1810.2188,470.5469 1809.7266,471.2969 Q1809.2344,472.0469 1809.2344,473.0781 L1809.2344,474.1719 Q1809.2344,475.4063 1810.125,476.2266 Q1811.0156,477.0469 1812.6094,477.0469 Q1813.5469,477.0469 1814.2031,476.7969 Q1814.5938,476.6406 1815.0156,476.2031 Q1815.2813,475.9375 1815.4297,475.8594 Q1815.5781,475.7813 1815.7813,475.7813 Q1816.1094,475.7813 1816.3672,476.0391 Q1816.625,476.2969 1816.625,476.6406 Q1816.625,476.9844 1816.2813,477.3906 Q1815.7813,477.9688 1814.9844,478.2969 Q1813.9063,478.75 1812.6094,478.75 Q1811.0938,478.75 1809.8906,478.125 Q1808.9063,477.625 1808.2188,476.5547 Q1807.5313,475.4844 1807.5313,474.2031 L1807.5313,473.0469 Q1807.5313,471.7188 1808.1484,470.5703 Q1808.7656,469.4219 1809.8594,468.8047 Q1810.9531,468.1875 1812.1875,468.1875 Q1812.9219,468.1875 1813.5703,468.3516 Q1814.2188,468.5156 1814.7656,468.875 Z " fill="#000000"/><text fill="#000000" font-family="sans-serif" font-size="12" lengthAdjust="spacing" textLength="131" x="1826" y="477.9102">UnsignedIntArgEncoder</text><line style="stroke:#A80036;stroke-width:1.5;" x1="1798" x2="1959" y1="489" y2="489"/><line style="stroke:#A80036;stroke-width:1.5;" x1="1798" x2="1959" y1="497" y2="497"/><!--MD5=[e04e017feeb2dd5dd390d83656173fba]
class BoolArgEncoder--><rect codeLine="33" fill="#FEFECE" filter="url(#f14z7941eoyobu)" height="48" id="BoolArgEncoder" style="stroke:#A80036;stroke-width:1.5;" width="121" x="20" y="457"/><ellipse cx="35" cy="473" fill="#ADD1B2" rx="11" ry="11" style="stroke:#A80036;stroke-width:1.0;"/><path d="M37.7656,468.875 Q37.9219,468.6563 38.1094,468.5469 Q38.2969,468.4375 38.5156,468.4375 Q38.8906,468.4375 39.125,468.6953 Q39.3594,468.9531 39.3594,469.5625 L39.3594,471.0156 Q39.3594,471.625 39.125,471.8906 Q38.8906,472.1563 38.5156,472.1563 Q38.1719,472.1563 37.9688,471.9531 Q37.7656,471.7656 37.6563,471.25 Q37.6094,470.8906 37.4219,470.7031 Q37.0938,470.3281 36.4844,470.1094 Q35.875,469.8906 35.25,469.8906 Q34.4844,469.8906 33.8516,470.2188 Q33.2188,470.5469 32.7266,471.2969 Q32.2344,472.0469 32.2344,473.0781 L32.2344,474.1719 Q32.2344,475.4063 33.125,476.2266 Q34.0156,477.0469 35.6094,477.0469 Q36.5469,477.0469 37.2031,476.7969 Q37.5938,476.6406 38.0156,476.2031 Q38.2813,475.9375 38.4297,475.8594 Q38.5781,475.7813 38.7813,475.7813 Q39.1094,475.7813 39.3672,476.0391 Q39.625,476.2969 39.625,476.6406 Q39.625,476.9844 39.2813,477.3906 Q38.7813,477.9688 37.9844,478.2969 Q36.9063,478.75 35.6094,478.75 Q34.0938,478.75 32.8906,478.125 Q31.9063,477.625 31.2188,476.5547 Q30.5313,475.4844 30.5313,474.2031 L30.5313,473.0469 Q30.5313,471.7188 31.1484,470.5703 Q31.7656,469.4219 32.8594,468.8047 Q33.9531,468.1875 35.1875,468.1875 Q35.9219,468.1875 36.5703,468.3516 Q37.2188,468.5156 37.7656,468.875 Z " fill="#000000"/><text fill="#000000" font-family="sans-serif" font-size="12" lengthAdjust="spacing" textLength="89" x="49" y="477.9102">BoolArgEncoder</text><line style="stroke:#A80036;stroke-width:1.5;" x1="21" x2="140" y1="489" y2="489"/><line style="stroke:#A80036;stroke-width:1.5;" x1="21" x2="140" y1="497" y2="497"/><!--MD5=[1f239973d255d0f438452ad301ebce4a]
class Float32ArgEncoder--><rect codeLine="34" fill="#FEFECE" filter="url(#f14z7941eoyobu)" height="48" id="Float32ArgEncoder" style="stroke:#A80036;stroke-width:1.5;" width="137" x="342" y="457"/><ellipse cx="357" cy="473" fill="#ADD1B2" rx="11" ry="11" style="stroke:#A80036;stroke-width:1.0;"/><path d="M359.7656,468.875 Q359.9219,468.6563 360.1094,468.5469 Q360.2969,468.4375 360.5156,468.4375 Q360.8906,468.4375 361.125,468.6953 Q361.3594,468.9531 361.3594,469.5625 L361.3594,471.0156 Q361.3594,471.625 361.125,471.8906 Q360.8906,472.1563 360.5156,472.1563 Q360.1719,472.1563 359.9688,471.9531 Q359.7656,471.7656 359.6563,471.25 Q359.6094,470.8906 359.4219,470.7031 Q359.0938,470.3281 358.4844,470.1094 Q357.875,469.8906 357.25,469.8906 Q356.4844,469.8906 355.8516,470.2188 Q355.2188,470.5469 354.7266,471.2969 Q354.2344,472.0469 354.2344,473.0781 L354.2344,474.1719 Q354.2344,475.4063 355.125,476.2266 Q356.0156,477.0469 357.6094,477.0469 Q358.5469,477.0469 359.2031,476.7969 Q359.5938,476.6406 360.0156,476.2031 Q360.2813,475.9375 360.4297,475.8594 Q360.5781,475.7813 360.7813,475.7813 Q361.1094,475.7813 361.3672,476.0391 Q361.625,476.2969 361.625,476.6406 Q361.625,476.9844 361.2813,477.3906 Q360.7813,477.9688 359.9844,478.2969 Q358.9063,478.75 357.6094,478.75 Q356.0938,478.75 354.8906,478.125 Q353.9063,477.625 353.2188,476.5547 Q352.5313,475.4844 352.5313,474.2031 L352.5313,473.0469 Q352.5313,471.7188 353.1484,470.5703 Q353.7656,469.4219 354.8594,468.8047 Q355.9531,468.1875 357.1875,468.1875 Q357.9219,468.1875 358.5703,468.3516 Q359.2188,468.5156 359.7656,468.875 Z " fill="#000000"/><text fill="#000000" font-family="sans-serif" font-size="12" lengthAdjust="spacing" textLength="105" x="371" y="477.9102">Float32ArgEncoder</text><line style="stroke:#A80036;stroke-width:1.5;" x1="343" x2="478" y1="489" y2="489"/><line style="stroke:#A80036;stroke-width:1.5;" x1="343" x2="478" y1="497" y2="497"/><!--MD5=[5662824aabed64f61a3b769880bc971b]
class Float64ArgEncoder--><rect codeLine="35" fill="#FEFECE" filter="url(#f14z7941eoyobu)" height="48" id="Float64ArgEncoder" style="stroke:#A80036;stroke-width:1.5;" width="137" x="944" y="457"/><ellipse cx="959" cy="473" fill="#ADD1B2" rx="11" ry="11" style="stroke:#A80036;stroke-width:1.0;"/><path d="M961.7656,468.875 Q961.9219,468.6563 962.1094,468.5469 Q962.2969,468.4375 962.5156,468.4375 Q962.8906,468.4375 963.125,468.6953 Q963.3594,468.9531 963.3594,469.5625 L963.3594,471.0156 Q963.3594,471.625 963.125,471.8906 Q962.8906,472.1563 962.5156,472.1563 Q962.1719,472.1563 961.9688,471.9531 Q961.7656,471.7656 961.6563,471.25 Q961.6094,470.8906 961.4219,470.7031 Q961.0938,470.3281 960.4844,470.1094 Q959.875,469.8906 959.25,469.8906 Q958.4844,469.8906 957.8516,470.2188 Q957.2188,470.5469 956.7266,471.2969 Q956.2344,472.0469 956.2344,473.0781 L956.2344,474.1719 Q956.2344,475.4063 957.125,476.2266 Q958.0156,477.0469 959.6094,477.0469 Q960.5469,477.0469 961.2031,476.7969 Q961.5938,476.6406 962.0156,476.2031 Q962.2813,475.9375 962.4297,475.8594 Q962.5781,475.7813 962.7813,475.7813 Q963.1094,475.7813 963.3672,476.0391 Q963.625,476.2969 963.625,476.6406 Q963.625,476.9844 963.2813,477.3906 Q962.7813,477.9688 961.9844,478.2969 Q960.9063,478.75 959.6094,478.75 Q958.0938,478.75 956.8906,478.125 Q955.9063,477.625 955.2188,476.5547 Q954.5313,475.4844 954.5313,474.2031 L954.5313,473.0469 Q954.5313,471.7188 955.1484,470.5703 Q955.7656,469.4219 956.8594,468.8047 Q957.9531,468.1875 959.1875,468.1875 Q959.9219,468.1875 960.5703,468.3516 Q961.2188,468.5156 961.7656,468.875 Z " fill="#000000"/><text fill="#000000" font-family="sans-serif" font-size="12" lengthAdjust="spacing" textLength="105" x="973" y="477.9102">Float64ArgEncoder</text><line style="stroke:#A80036;stroke-width:1.5;" x1="945" x2="1080" y1="489" y2="489"/><line style="stroke:#A80036;stroke-width:1.5;" x1="945" x2="1080" y1="497" y2="497"/><!--MD5=[0746544628c1c6fdce9c9fa0b183308f]
class RawArgEncoder--><rect codeLine="36" fill="#FEFECE" filter="url(#f14z7941eoyobu)" height="48" id="RawArgEncoder" style="stroke:#A80036;stroke-width:1.5;" width="121" x="1116" y="457"/><ellipse cx="1131" cy="473" fill="#ADD1B2" rx="11" ry="11" style="stroke:#A80036;stroke-width:1.0;"/><path d="M1133.7656,468.875 Q1133.9219,468.6563 1134.1094,468.5469 Q1134.2969,468.4375 1134.5156,468.4375 Q1134.8906,468.4375 1135.125,468.6953 Q1135.3594,468.9531 1135.3594,469.5625 L1135.3594,471.0156 Q1135.3594,471.625 1135.125,471.8906 Q1134.8906,472.1563 1134.5156,472.1563 Q1134.1719,472.1563 1133.9688,471.9531 Q1133.7656,471.7656 1133.6563,471.25 Q1133.6094,470.8906 1133.4219,470.7031 Q1133.0938,470.3281 1132.4844,470.1094 Q1131.875,469.8906 1131.25,469.8906 Q1130.4844,469.8906 1129.8516,470.2188 Q1129.2188,470.5469 1128.7266,471.2969 Q1128.2344,472.0469 1128.2344,473.0781 L1128.2344,474.1719 Q1128.2344,475.4063 1129.125,476.2266 Q1130.0156,477.0469 1131.6094,477.0469 Q1132.5469,477.0469 1133.2031,476.7969 Q1133.5938,476.6406 1134.0156,476.2031 Q1134.2813,475.9375 1134.4297,475.8594 Q1134.5781,475.7813 1134.7813,475.7813 Q1135.1094,475.7813 1135.3672,476.0391 Q1135.625,476.2969 1135.625,476.6406 Q1135.625,476.9844 1135.2813,477.3906 Q1134.7813,477.9688 1133.9844,478.2969 Q1132.9063,478.75 1131.6094,478.75 Q1130.0938,478.75 1128.8906,478.125 Q1127.9063,477.625 1127.2188,476.5547 Q1126.5313,475.4844 1126.5313,474.2031 L1126.5313,473.0469 Q1126.5313,471.7188 1127.1484,470.5703 Q1127.7656,469.4219 1128.8594,468.8047 Q1129.9531,468.1875 1131.1875,468.1875 Q1131.9219,468.1875 1132.5703,468.3516 Q1133.2188,468.5156 1133.7656,468.875 Z " fill="#000000"/><text fill="#000000" font-family="sans-serif" font-size="12" lengthAdjust="spacing" textLength="89" x="1145" y="477.9102">RawArgEncoder</text><line style="stroke:#A80036;stroke-width:1.5;" x1="1117" x2="1236" y1="489" y2="489"/><line style="stroke:#A80036;stroke-width:1.5;" x1="1117" x2="1236" y1="497" y2="497"/><!--MD5=[17ad35bfc48752a1c7c5373cb1f71222]
class StringArgEncoder--><rect codeLine="37" fill="#FEFECE" filter="url(#f14z7941eoyobu)" height="48" id="StringArgEncoder" style="stroke:#A80036;stroke-width:1.5;" width="128" x="1272.5" y="457"/><ellipse cx="1287.5" cy="473" fill="#ADD1B2" rx="11" ry="11" style="stroke:#A80036;stroke-width:1.0;"/><path d="M1290.2656,468.875 Q1290.4219,468.6563 1290.6094,468.5469 Q1290.7969,468.4375 1291.0156,468.4375 Q1291.3906,468.4375 1291.625,468.6953 Q1291.8594,468.9531 1291.8594,469.5625 L1291.8594,471.0156 Q1291.8594,471.625 1291.625,471.8906 Q1291.3906,472.1563 1291.0156,472.1563 Q1290.6719,472.1563 1290.4688,471.9531 Q1290.2656,471.7656 1290.1563,471.25 Q1290.1094,470.8906 1289.9219,470.7031 Q1289.5938,470.3281 1288.9844,470.1094 Q1288.375,469.8906 1287.75,469.8906 Q1286.9844,469.8906 1286.3516,470.2188 Q1285.7188,470.5469 1285.2266,471.2969 Q1284.7344,472.0469 1284.7344,473.0781 L1284.7344,474.1719 Q1284.7344,475.4063 1285.625,476.2266 Q1286.5156,477.0469 1288.1094,477.0469 Q1289.0469,477.0469 1289.7031,476.7969 Q1290.0938,476.6406 1290.5156,476.2031 Q1290.7813,475.9375 1290.9297,475.8594 Q1291.0781,475.7813 1291.2813,475.7813 Q1291.6094,475.7813 1291.8672,476.0391 Q1292.125,476.2969 1292.125,476.6406 Q1292.125,476.9844 1291.7813,477.3906 Q1291.2813,477.9688 1290.4844,478.2969 Q1289.4063,478.75 1288.1094,478.75 Q1286.5938,478.75 1285.3906,478.125 Q1284.4063,477.625 1283.7188,476.5547 Q1283.0313,475.4844 1283.0313,474.2031 L1283.0313,473.0469 Q1283.0313,471.7188 1283.6484,470.5703 Q1284.2656,469.4219 1285.3594,468.8047 Q1286.4531,468.1875 1287.6875,468.1875 Q1288.4219,468.1875 1289.0703,468.3516 Q1289.7188,468.5156 1290.2656,468.875 Z " fill="#000000"/><text fill="#000000" font-family="sans-serif" font-size="12" lengthAdjust="spacing" textLength="96" x="1301.5" y="477.9102">StringArgEncoder</text><line style="stroke:#A80036;stroke-width:1.5;" x1="1273.5" x2="1399.5" y1="489" y2="489"/><line style="stroke:#A80036;stroke-width:1.5;" x1="1273.5" x2="1399.5" y1="497" y2="497"/><!--MD5=[67c441653a918cc89ed76fa9bbc8d3f1]
class NonVerboseArgEncoder--><rect codeLine="38" fill="#FEFECE" filter="url(#f14z7941eoyobu)" height="48" id="NonVerboseArgEncoder" style="stroke:#A80036;stroke-width:1.5;" width="165" x="744" y="457"/><ellipse cx="759" cy="473" fill="#ADD1B2" rx="11" ry="11" style="stroke:#A80036;stroke-width:1.0;"/><path d="M761.7656,468.875 Q761.9219,468.6563 762.1094,468.5469 Q762.2969,468.4375 762.5156,468.4375 Q762.8906,468.4375 763.125,468.6953 Q763.3594,468.9531 763.3594,469.5625 L763.3594,471.0156 Q763.3594,471.625 763.125,471.8906 Q762.8906,472.1563 762.5156,472.1563 Q762.1719,472.1563 761.9688,471.9531 Q761.7656,471.7656 761.6563,471.25 Q761.6094,470.8906 761.4219,470.7031 Q761.0938,470.3281 760.4844,470.1094 Q759.875,469.8906 759.25,469.8906 Q758.4844,469.8906 757.8516,470.2188 Q757.2188,470.5469 756.7266,471.2969 Q756.2344,472.0469 756.2344,473.0781 L756.2344,474.1719 Q756.2344,475.4063 757.125,476.2266 Q758.0156,477.0469 759.6094,477.0469 Q760.5469,477.0469 761.2031,476.7969 Q761.5938,476.6406 762.0156,476.2031 Q762.2813,475.9375 762.4297,475.8594 Q762.5781,475.7813 762.7813,475.7813 Q763.1094,475.7813 763.3672,476.0391 Q763.625,476.2969 763.625,476.6406 Q763.625,476.9844 763.2813,477.3906 Q762.7813,477.9688 761.9844,478.2969 Q760.9063,478.75 759.6094,478.75 Q758.0938,478.75 756.8906,478.125 Q755.9063,477.625 755.2188,476.5547 Q754.5313,475.4844 754.5313,474.2031 L754.5313,473.0469 Q754.5313,471.7188 755.1484,470.5703 Q755.7656,469.4219 756.8594,468.8047 Q757.9531,468.1875 759.1875,468.1875 Q759.9219,468.1875 760.5703,468.3516 Q761.2188,468.5156 761.7656,468.875 Z " fill="#000000"/><text fill="#000000" font-family="sans-serif" font-size="12" lengthAdjust="spacing" textLength="133" x="773" y="477.9102">NonVerboseArgEncoder</text><line style="stroke:#A80036;stroke-width:1.5;" x1="745" x2="908" y1="489" y2="489"/><line style="stroke:#A80036;stroke-width:1.5;" x1="745" x2="908" y1="497" y2="497"/><!--MD5=[b95d21ec3c3da8c1b5931f72b23f66a9]
class UnknownVerboseArgEncoder--><rect codeLine="39" fill="#FEFECE" filter="url(#f14z7941eoyobu)" height="48" id="UnknownVerboseArgEncoder" style="stroke:#A80036;stroke-width:1.5;" width="194" x="514.5" y="457"/><ellipse cx="529.5" cy="473" fill="#ADD1B2" rx="11" ry="11" style="stroke:#A80036;stroke-width:1.0;"/><path d="M532.2656,468.875 Q532.4219,468.6563 532.6094,468.5469 Q532.7969,468.4375 533.0156,468.4375 Q533.3906,468.4375 533.625,468.6953 Q533.8594,468.9531 533.8594,469.5625 L533.8594,471.0156 Q533.8594,471.625 533.625,471.8906 Q533.3906,472.1563 533.0156,472.1563 Q532.6719,472.1563 532.4688,471.9531 Q532.2656,471.7656 532.1563,471.25 Q532.1094,470.8906 531.9219,470.7031 Q531.5938,470.3281 530.9844,470.1094 Q530.375,469.8906 529.75,469.8906 Q528.9844,469.8906 528.3516,470.2188 Q527.7188,470.5469 527.2266,471.2969 Q526.7344,472.0469 526.7344,473.0781 L526.7344,474.1719 Q526.7344,475.4063 527.625,476.2266 Q528.5156,477.0469 530.1094,477.0469 Q531.0469,477.0469 531.7031,476.7969 Q532.0938,476.6406 532.5156,476.2031 Q532.7813,475.9375 532.9297,475.8594 Q533.0781,475.7813 533.2813,475.7813 Q533.6094,475.7813 533.8672,476.0391 Q534.125,476.2969 534.125,476.6406 Q534.125,476.9844 533.7813,477.3906 Q533.2813,477.9688 532.4844,478.2969 Q531.4063,478.75 530.1094,478.75 Q528.5938,478.75 527.3906,478.125 Q526.4063,477.625 525.7188,476.5547 Q525.0313,475.4844 525.0313,474.2031 L525.0313,473.0469 Q525.0313,471.7188 525.6484,470.5703 Q526.2656,469.4219 527.3594,468.8047 Q528.4531,468.1875 529.6875,468.1875 Q530.4219,468.1875 531.0703,468.3516 Q531.7188,468.5156 532.2656,468.875 Z " fill="#000000"/><text fill="#000000" font-family="sans-serif" font-size="12" lengthAdjust="spacing" textLength="162" x="543.5" y="477.9102">UnknownVerboseArgEncoder</text><line style="stroke:#A80036;stroke-width:1.5;" x1="515.5" x2="707.5" y1="489" y2="489"/><line style="stroke:#A80036;stroke-width:1.5;" x1="515.5" x2="707.5" y1="497" y2="497"/><!--MD5=[584669a0ed286870cad57e16f4431256]
class BinaryIntDltArg--><rect fill="#FEFECE" filter="url(#f14z7941eoyobu)" height="48" id="BinaryIntDltArg" style="stroke:#A80036;stroke-width:1.5;" width="112" x="1634.5" y="599"/><ellipse cx="1649.5" cy="615" fill="#ADD1B2" rx="11" ry="11" style="stroke:#A80036;stroke-width:1.0;"/><path d="M1652.2656,610.875 Q1652.4219,610.6563 1652.6094,610.5469 Q1652.7969,610.4375 1653.0156,610.4375 Q1653.3906,610.4375 1653.625,610.6953 Q1653.8594,610.9531 1653.8594,611.5625 L1653.8594,613.0156 Q1653.8594,613.625 1653.625,613.8906 Q1653.3906,614.1563 1653.0156,614.1563 Q1652.6719,614.1563 1652.4688,613.9531 Q1652.2656,613.7656 1652.1563,613.25 Q1652.1094,612.8906 1651.9219,612.7031 Q1651.5938,612.3281 1650.9844,612.1094 Q1650.375,611.8906 1649.75,611.8906 Q1648.9844,611.8906 1648.3516,612.2188 Q1647.7188,612.5469 1647.2266,613.2969 Q1646.7344,614.0469 1646.7344,615.0781 L1646.7344,616.1719 Q1646.7344,617.4063 1647.625,618.2266 Q1648.5156,619.0469 1650.1094,619.0469 Q1651.0469,619.0469 1651.7031,618.7969 Q1652.0938,618.6406 1652.5156,618.2031 Q1652.7813,617.9375 1652.9297,617.8594 Q1653.0781,617.7813 1653.2813,617.7813 Q1653.6094,617.7813 1653.8672,618.0391 Q1654.125,618.2969 1654.125,618.6406 Q1654.125,618.9844 1653.7813,619.3906 Q1653.2813,619.9688 1652.4844,620.2969 Q1651.4063,620.75 1650.1094,620.75 Q1648.5938,620.75 1647.3906,620.125 Q1646.4063,619.625 1645.7188,618.5547 Q1645.0313,617.4844 1645.0313,616.2031 L1645.0313,615.0469 Q1645.0313,613.7188 1645.6484,612.5703 Q1646.2656,611.4219 1647.3594,610.8047 Q1648.4531,610.1875 1649.6875,610.1875 Q1650.4219,610.1875 1651.0703,610.3516 Q1651.7188,610.5156 1652.2656,610.875 Z " fill="#000000"/><text fill="#000000" font-family="sans-serif" font-size="12" lengthAdjust="spacing" textLength="80" x="1663.5" y="619.9102">BinaryIntDltArg</text><line style="stroke:#A80036;stroke-width:1.5;" x1="1635.5" x2="1745.5" y1="631" y2="631"/><line style="stroke:#A80036;stroke-width:1.5;" x1="1635.5" x2="1745.5" y1="639" y2="639"/><!--MD5=[5b44a63c92af40190428db9752e4a224]
class HexIntDltArg--><rect fill="#FEFECE" filter="url(#f14z7941eoyobu)" height="48" id="HexIntDltArg" style="stroke:#A80036;stroke-width:1.5;" width="99" x="192" y="599"/><ellipse cx="207" cy="615" fill="#ADD1B2" rx="11" ry="11" style="stroke:#A80036;stroke-width:1.0;"/><path d="M209.7656,610.875 Q209.9219,610.6563 210.1094,610.5469 Q210.2969,610.4375 210.5156,610.4375 Q210.8906,610.4375 211.125,610.6953 Q211.3594,610.9531 211.3594,611.5625 L211.3594,613.0156 Q211.3594,613.625 211.125,613.8906 Q210.8906,614.1563 210.5156,614.1563 Q210.1719,614.1563 209.9688,613.9531 Q209.7656,613.7656 209.6563,613.25 Q209.6094,612.8906 209.4219,612.7031 Q209.0938,612.3281 208.4844,612.1094 Q207.875,611.8906 207.25,611.8906 Q206.4844,611.8906 205.8516,612.2188 Q205.2188,612.5469 204.7266,613.2969 Q204.2344,614.0469 204.2344,615.0781 L204.2344,616.1719 Q204.2344,617.4063 205.125,618.2266 Q206.0156,619.0469 207.6094,619.0469 Q208.5469,619.0469 209.2031,618.7969 Q209.5938,618.6406 210.0156,618.2031 Q210.2813,617.9375 210.4297,617.8594 Q210.5781,617.7813 210.7813,617.7813 Q211.1094,617.7813 211.3672,618.0391 Q211.625,618.2969 211.625,618.6406 Q211.625,618.9844 211.2813,619.3906 Q210.7813,619.9688 209.9844,620.2969 Q208.9063,620.75 207.6094,620.75 Q206.0938,620.75 204.8906,620.125 Q203.9063,619.625 203.2188,618.5547 Q202.5313,617.4844 202.5313,616.2031 L202.5313,615.0469 Q202.5313,613.7188 203.1484,612.5703 Q203.7656,611.4219 204.8594,610.8047 Q205.9531,610.1875 207.1875,610.1875 Q207.9219,610.1875 208.5703,610.3516 Q209.2188,610.5156 209.7656,610.875 Z " fill="#000000"/><text fill="#000000" font-family="sans-serif" font-size="12" lengthAdjust="spacing" textLength="67" x="221" y="619.9102">HexIntDltArg</text><line style="stroke:#A80036;stroke-width:1.5;" x1="193" x2="290" y1="631" y2="631"/><line style="stroke:#A80036;stroke-width:1.5;" x1="193" x2="290" y1="639" y2="639"/><!--MD5=[530b5da5bd258ad0d6915bceb12a6485]
class SignedIntDltArg--><rect fill="#FEFECE" filter="url(#f14z7941eoyobu)" height="48" id="SignedIntDltArg" style="stroke:#A80036;stroke-width:1.5;" width="117" x="1451" y="599"/><ellipse cx="1466" cy="615" fill="#ADD1B2" rx="11" ry="11" style="stroke:#A80036;stroke-width:1.0;"/><path d="M1468.7656,610.875 Q1468.9219,610.6563 1469.1094,610.5469 Q1469.2969,610.4375 1469.5156,610.4375 Q1469.8906,610.4375 1470.125,610.6953 Q1470.3594,610.9531 1470.3594,611.5625 L1470.3594,613.0156 Q1470.3594,613.625 1470.125,613.8906 Q1469.8906,614.1563 1469.5156,614.1563 Q1469.1719,614.1563 1468.9688,613.9531 Q1468.7656,613.7656 1468.6563,613.25 Q1468.6094,612.8906 1468.4219,612.7031 Q1468.0938,612.3281 1467.4844,612.1094 Q1466.875,611.8906 1466.25,611.8906 Q1465.4844,611.8906 1464.8516,612.2188 Q1464.2188,612.5469 1463.7266,613.2969 Q1463.2344,614.0469 1463.2344,615.0781 L1463.2344,616.1719 Q1463.2344,617.4063 1464.125,618.2266 Q1465.0156,619.0469 1466.6094,619.0469 Q1467.5469,619.0469 1468.2031,618.7969 Q1468.5938,618.6406 1469.0156,618.2031 Q1469.2813,617.9375 1469.4297,617.8594 Q1469.5781,617.7813 1469.7813,617.7813 Q1470.1094,617.7813 1470.3672,618.0391 Q1470.625,618.2969 1470.625,618.6406 Q1470.625,618.9844 1470.2813,619.3906 Q1469.7813,619.9688 1468.9844,620.2969 Q1467.9063,620.75 1466.6094,620.75 Q1465.0938,620.75 1463.8906,620.125 Q1462.9063,619.625 1462.2188,618.5547 Q1461.5313,617.4844 1461.5313,616.2031 L1461.5313,615.0469 Q1461.5313,613.7188 1462.1484,612.5703 Q1462.7656,611.4219 1463.8594,610.8047 Q1464.9531,610.1875 1466.1875,610.1875 Q1466.9219,610.1875 1467.5703,610.3516 Q1468.2188,610.5156 1468.7656,610.875 Z " fill="#000000"/><text fill="#000000" font-family="sans-serif" font-size="12" lengthAdjust="spacing" textLength="85" x="1480" y="619.9102">SignedIntDltArg</text><line style="stroke:#A80036;stroke-width:1.5;" x1="1452" x2="1567" y1="631" y2="631"/><line style="stroke:#A80036;stroke-width:1.5;" x1="1452" x2="1567" y1="639" y2="639"/><!--MD5=[15300c896cacb1acf95f152b7691e7f6]
class UnsignedIntDltArg--><rect fill="#FEFECE" filter="url(#f14z7941eoyobu)" height="48" id="UnsignedIntDltArg" style="stroke:#A80036;stroke-width:1.5;" width="132" x="1812.5" y="599"/><ellipse cx="1827.5" cy="615" fill="#ADD1B2" rx="11" ry="11" style="stroke:#A80036;stroke-width:1.0;"/><path d="M1830.2656,610.875 Q1830.4219,610.6563 1830.6094,610.5469 Q1830.7969,610.4375 1831.0156,610.4375 Q1831.3906,610.4375 1831.625,610.6953 Q1831.8594,610.9531 1831.8594,611.5625 L1831.8594,613.0156 Q1831.8594,613.625 1831.625,613.8906 Q1831.3906,614.1563 1831.0156,614.1563 Q1830.6719,614.1563 1830.4688,613.9531 Q1830.2656,613.7656 1830.1563,613.25 Q1830.1094,612.8906 1829.9219,612.7031 Q1829.5938,612.3281 1828.9844,612.1094 Q1828.375,611.8906 1827.75,611.8906 Q1826.9844,611.8906 1826.3516,612.2188 Q1825.7188,612.5469 1825.2266,613.2969 Q1824.7344,614.0469 1824.7344,615.0781 L1824.7344,616.1719 Q1824.7344,617.4063 1825.625,618.2266 Q1826.5156,619.0469 1828.1094,619.0469 Q1829.0469,619.0469 1829.7031,618.7969 Q1830.0938,618.6406 1830.5156,618.2031 Q1830.7813,617.9375 1830.9297,617.8594 Q1831.0781,617.7813 1831.2813,617.7813 Q1831.6094,617.7813 1831.8672,618.0391 Q1832.125,618.2969 1832.125,618.6406 Q1832.125,618.9844 1831.7813,619.3906 Q1831.2813,619.9688 1830.4844,620.2969 Q1829.4063,620.75 1828.1094,620.75 Q1826.5938,620.75 1825.3906,620.125 Q1824.4063,619.625 1823.7188,618.5547 Q1823.0313,617.4844 1823.0313,616.2031 L1823.0313,615.0469 Q1823.0313,613.7188 1823.6484,612.5703 Q1824.2656,611.4219 1825.3594,610.8047 Q1826.4531,610.1875 1827.6875,610.1875 Q1828.4219,610.1875 1829.0703,610.3516 Q1829.7188,610.5156 1830.2656,610.875 Z " fill="#000000"/><text fill="#000000" font-family="sans-serif" font-size="12" lengthAdjust="spacing" textLength="100" x="1841.5" y="619.9102">UnsignedIntDltArg</text><line style="stroke:#A80036;stroke-width:1.5;" x1="1813.5" x2="1943.5" y1="631" y2="631"/><line style="stroke:#A80036;stroke-width:1.5;" x1="1813.5" x2="1943.5" y1="639" y2="639"/><!--MD5=[9304c627579e6c09a83b65d2b6fe9ffa]
class BoolDltArg--><rect fill="#FEFECE" filter="url(#f14z7941eoyobu)" height="48" id="BoolDltArg" style="stroke:#A80036;stroke-width:1.5;" width="90" x="35.5" y="599"/><ellipse cx="50.5" cy="615" fill="#ADD1B2" rx="11" ry="11" style="stroke:#A80036;stroke-width:1.0;"/><path d="M53.2656,610.875 Q53.4219,610.6563 53.6094,610.5469 Q53.7969,610.4375 54.0156,610.4375 Q54.3906,610.4375 54.625,610.6953 Q54.8594,610.9531 54.8594,611.5625 L54.8594,613.0156 Q54.8594,613.625 54.625,613.8906 Q54.3906,614.1563 54.0156,614.1563 Q53.6719,614.1563 53.4688,613.9531 Q53.2656,613.7656 53.1563,613.25 Q53.1094,612.8906 52.9219,612.7031 Q52.5938,612.3281 51.9844,612.1094 Q51.375,611.8906 50.75,611.8906 Q49.9844,611.8906 49.3516,612.2188 Q48.7188,612.5469 48.2266,613.2969 Q47.7344,614.0469 47.7344,615.0781 L47.7344,616.1719 Q47.7344,617.4063 48.625,618.2266 Q49.5156,619.0469 51.1094,619.0469 Q52.0469,619.0469 52.7031,618.7969 Q53.0938,618.6406 53.5156,618.2031 Q53.7813,617.9375 53.9297,617.8594 Q54.0781,617.7813 54.2813,617.7813 Q54.6094,617.7813 54.8672,618.0391 Q55.125,618.2969 55.125,618.6406 Q55.125,618.9844 54.7813,619.3906 Q54.2813,619.9688 53.4844,620.2969 Q52.4063,620.75 51.1094,620.75 Q49.5938,620.75 48.3906,620.125 Q47.4063,619.625 46.7188,618.5547 Q46.0313,617.4844 46.0313,616.2031 L46.0313,615.0469 Q46.0313,613.7188 46.6484,612.5703 Q47.2656,611.4219 48.3594,610.8047 Q49.4531,610.1875 50.6875,610.1875 Q51.4219,610.1875 52.0703,610.3516 Q52.7188,610.5156 53.2656,610.875 Z " fill="#000000"/><text fill="#000000" font-family="sans-serif" font-size="12" lengthAdjust="spacing" textLength="58" x="64.5" y="619.9102">BoolDltArg</text><line style="stroke:#A80036;stroke-width:1.5;" x1="36.5" x2="124.5" y1="631" y2="631"/><line style="stroke:#A80036;stroke-width:1.5;" x1="36.5" x2="124.5" y1="639" y2="639"/><!--MD5=[bd995735bdc22093cef67c0a3dd15675]
class Float32DltArg--><rect fill="#FEFECE" filter="url(#f14z7941eoyobu)" height="48" id="Float32DltArg" style="stroke:#A80036;stroke-width:1.5;" width="106" x="357.5" y="599"/><ellipse cx="372.5" cy="615" fill="#ADD1B2" rx="11" ry="11" style="stroke:#A80036;stroke-width:1.0;"/><path d="M375.2656,610.875 Q375.4219,610.6563 375.6094,610.5469 Q375.7969,610.4375 376.0156,610.4375 Q376.3906,610.4375 376.625,610.6953 Q376.8594,610.9531 376.8594,611.5625 L376.8594,613.0156 Q376.8594,613.625 376.625,613.8906 Q376.3906,614.1563 376.0156,614.1563 Q375.6719,614.1563 375.4688,613.9531 Q375.2656,613.7656 375.1563,613.25 Q375.1094,612.8906 374.9219,612.7031 Q374.5938,612.3281 373.9844,612.1094 Q373.375,611.8906 372.75,611.8906 Q371.9844,611.8906 371.3516,612.2188 Q370.7188,612.5469 370.2266,613.2969 Q369.7344,614.0469 369.7344,615.0781 L369.7344,616.1719 Q369.7344,617.4063 370.625,618.2266 Q371.5156,619.0469 373.1094,619.0469 Q374.0469,619.0469 374.7031,618.7969 Q375.0938,618.6406 375.5156,618.2031 Q375.7813,617.9375 375.9297,617.8594 Q376.0781,617.7813 376.2813,617.7813 Q376.6094,617.7813 376.8672,618.0391 Q377.125,618.2969 377.125,618.6406 Q377.125,618.9844 376.7813,619.3906 Q376.2813,619.9688 375.4844,620.2969 Q374.4063,620.75 373.1094,620.75 Q371.5938,620.75 370.3906,620.125 Q369.4063,619.625 368.7188,618.5547 Q368.0313,617.4844 368.0313,616.2031 L368.0313,615.0469 Q368.0313,613.7188 368.6484,612.5703 Q369.2656,611.4219 370.3594,610.8047 Q371.4531,610.1875 372.6875,610.1875 Q373.4219,610.1875 374.0703,610.3516 Q374.7188,610.5156 375.2656,610.875 Z " fill="#000000"/><text fill="#000000" font-family="sans-serif" font-size="12" lengthAdjust="spacing" textLength="74" x="386.5" y="619.9102">Float32DltArg</text><line style="stroke:#A80036;stroke-width:1.5;" x1="358.5" x2="462.5" y1="631" y2="631"/><line style="stroke:#A80036;stroke-width:1.5;" x1="358.5" x2="462.5" y1="639" y2="639"/><!--MD5=[4f58334fec0bd3ff1f53f8383a615e86]
class Float64DltArg--><rect fill="#FEFECE" filter="url(#f14z7941eoyobu)" height="48" id="Float64DltArg" style="stroke:#A80036;stroke-width:1.5;" width="106" x="1046.5" y="599"/><ellipse cx="1061.5" cy="615" fill="#ADD1B2" rx="11" ry="11" style="stroke:#A80036;stroke-width:1.0;"/><path d="M1064.2656,610.875 Q1064.4219,610.6563 1064.6094,610.5469 Q1064.7969,610.4375 1065.0156,610.4375 Q1065.3906,610.4375 1065.625,610.6953 Q1065.8594,610.9531 1065.8594,611.5625 L1065.8594,613.0156 Q1065.8594,613.625 1065.625,613.8906 Q1065.3906,614.1563 1065.0156,614.1563 Q1064.6719,614.1563 1064.4688,613.9531 Q1064.2656,613.7656 1064.1563,613.25 Q1064.1094,612.8906 1063.9219,612.7031 Q1063.5938,612.3281 1062.9844,612.1094 Q1062.375,611.8906 1061.75,611.8906 Q1060.9844,611.8906 1060.3516,612.2188 Q1059.7188,612.5469 1059.2266,613.2969 Q1058.7344,614.0469 1058.7344,615.0781 L1058.7344,616.1719 Q1058.7344,617.4063 1059.625,618.2266 Q1060.5156,619.0469 1062.1094,619.0469 Q1063.0469,619.0469 1063.7031,618.7969 Q1064.0938,618.6406 1064.5156,618.2031 Q1064.7813,617.9375 1064.9297,617.8594 Q1065.0781,617.7813 1065.2813,617.7813 Q1065.6094,617.7813 1065.8672,618.0391 Q1066.125,618.2969 1066.125,618.6406 Q1066.125,618.9844 1065.7813,619.3906 Q1065.2813,619.9688 1064.4844,620.2969 Q1063.4063,620.75 1062.1094,620.75 Q1060.5938,620.75 1059.3906,620.125 Q1058.4063,619.625 1057.7188,618.5547 Q1057.0313,617.4844 1057.0313,616.2031 L1057.0313,615.0469 Q1057.0313,613.7188 1057.6484,612.5703 Q1058.2656,611.4219 1059.3594,610.8047 Q1060.4531,610.1875 1061.6875,610.1875 Q1062.4219,610.1875 1063.0703,610.3516 Q1063.7188,610.5156 1064.2656,610.875 Z " fill="#000000"/><text fill="#000000" font-family="sans-serif" font-size="12" lengthAdjust="spacing" textLength="74" x="1075.5" y="619.9102">Float64DltArg</text><line style="stroke:#A80036;stroke-width:1.5;" x1="1047.5" x2="1151.5" y1="631" y2="631"/><line style="stroke:#A80036;stroke-width:1.5;" x1="1047.5" x2="1151.5" y1="639" y2="639"/><!--MD5=[9384f9af5873042c459e7cb65aa0b775]
class StringDltArg--><rect fill="#FEFECE" filter="url(#f14z7941eoyobu)" height="48" id="StringDltArg" style="stroke:#A80036;stroke-width:1.5;" width="97" x="1288" y="599"/><ellipse cx="1303" cy="615" fill="#ADD1B2" rx="11" ry="11" style="stroke:#A80036;stroke-width:1.0;"/><path d="M1305.7656,610.875 Q1305.9219,610.6563 1306.1094,610.5469 Q1306.2969,610.4375 1306.5156,610.4375 Q1306.8906,610.4375 1307.125,610.6953 Q1307.3594,610.9531 1307.3594,611.5625 L1307.3594,613.0156 Q1307.3594,613.625 1307.125,613.8906 Q1306.8906,614.1563 1306.5156,614.1563 Q1306.1719,614.1563 1305.9688,613.9531 Q1305.7656,613.7656 1305.6563,613.25 Q1305.6094,612.8906 1305.4219,612.7031 Q1305.0938,612.3281 1304.4844,612.1094 Q1303.875,611.8906 1303.25,611.8906 Q1302.4844,611.8906 1301.8516,612.2188 Q1301.2188,612.5469 1300.7266,613.2969 Q1300.2344,614.0469 1300.2344,615.0781 L1300.2344,616.1719 Q1300.2344,617.4063 1301.125,618.2266 Q1302.0156,619.0469 1303.6094,619.0469 Q1304.5469,619.0469 1305.2031,618.7969 Q1305.5938,618.6406 1306.0156,618.2031 Q1306.2813,617.9375 1306.4297,617.8594 Q1306.5781,617.7813 1306.7813,617.7813 Q1307.1094,617.7813 1307.3672,618.0391 Q1307.625,618.2969 1307.625,618.6406 Q1307.625,618.9844 1307.2813,619.3906 Q1306.7813,619.9688 1305.9844,620.2969 Q1304.9063,620.75 1303.6094,620.75 Q1302.0938,620.75 1300.8906,620.125 Q1299.9063,619.625 1299.2188,618.5547 Q1298.5313,617.4844 1298.5313,616.2031 L1298.5313,615.0469 Q1298.5313,613.7188 1299.1484,612.5703 Q1299.7656,611.4219 1300.8594,610.8047 Q1301.9531,610.1875 1303.1875,610.1875 Q1303.9219,610.1875 1304.5703,610.3516 Q1305.2188,610.5156 1305.7656,610.875 Z " fill="#000000"/><text fill="#000000" font-family="sans-serif" font-size="12" lengthAdjust="spacing" textLength="65" x="1317" y="619.9102">StringDltArg</text><line style="stroke:#A80036;stroke-width:1.5;" x1="1289" x2="1384" y1="631" y2="631"/><line style="stroke:#A80036;stroke-width:1.5;" x1="1289" x2="1384" y1="639" y2="639"/><!--MD5=[751ce3d3b962032c2311a8f3a883c70d]
class RawDltArg--><rect fill="#FEFECE" filter="url(#f14z7941eoyobu)" height="48" id="RawDltArg" style="stroke:#A80036;stroke-width:1.5;" width="90" x="921.5" y="599"/><ellipse cx="936.5" cy="615" fill="#ADD1B2" rx="11" ry="11" style="stroke:#A80036;stroke-width:1.0;"/><path d="M939.2656,610.875 Q939.4219,610.6563 939.6094,610.5469 Q939.7969,610.4375 940.0156,610.4375 Q940.3906,610.4375 940.625,610.6953 Q940.8594,610.9531 940.8594,611.5625 L940.8594,613.0156 Q940.8594,613.625 940.625,613.8906 Q940.3906,614.1563 940.0156,614.1563 Q939.6719,614.1563 939.4688,613.9531 Q939.2656,613.7656 939.1563,613.25 Q939.1094,612.8906 938.9219,612.7031 Q938.5938,612.3281 937.9844,612.1094 Q937.375,611.8906 936.75,611.8906 Q935.9844,611.8906 935.3516,612.2188 Q934.7188,612.5469 934.2266,613.2969 Q933.7344,614.0469 933.7344,615.0781 L933.7344,616.1719 Q933.7344,617.4063 934.625,618.2266 Q935.5156,619.0469 937.1094,619.0469 Q938.0469,619.0469 938.7031,618.7969 Q939.0938,618.6406 939.5156,618.2031 Q939.7813,617.9375 939.9297,617.8594 Q940.0781,617.7813 940.2813,617.7813 Q940.6094,617.7813 940.8672,618.0391 Q941.125,618.2969 941.125,618.6406 Q941.125,618.9844 940.7813,619.3906 Q940.2813,619.9688 939.4844,620.2969 Q938.4063,620.75 937.1094,620.75 Q935.5938,620.75 934.3906,620.125 Q933.4063,619.625 932.7188,618.5547 Q932.0313,617.4844 932.0313,616.2031 L932.0313,615.0469 Q932.0313,613.7188 932.6484,612.5703 Q933.2656,611.4219 934.3594,610.8047 Q935.4531,610.1875 936.6875,610.1875 Q937.4219,610.1875 938.0703,610.3516 Q938.7188,610.5156 939.2656,610.875 Z " fill="#000000"/><text fill="#000000" font-family="sans-serif" font-size="12" lengthAdjust="spacing" textLength="58" x="950.5" y="619.9102">RawDltArg</text><line style="stroke:#A80036;stroke-width:1.5;" x1="922.5" x2="1010.5" y1="631" y2="631"/><line style="stroke:#A80036;stroke-width:1.5;" x1="922.5" x2="1010.5" y1="639" y2="639"/><!--MD5=[c8aecec8061000234456f93801020997]
class NonVerboseDltArg--><rect fill="#FEFECE" filter="url(#f14z7941eoyobu)" height="48" id="NonVerboseDltArg" style="stroke:#A80036;stroke-width:1.5;" width="134" x="752.5" y="599"/><ellipse cx="767.5" cy="615" fill="#ADD1B2" rx="11" ry="11" style="stroke:#A80036;stroke-width:1.0;"/><path d="M770.2656,610.875 Q770.4219,610.6563 770.6094,610.5469 Q770.7969,610.4375 771.0156,610.4375 Q771.3906,610.4375 771.625,610.6953 Q771.8594,610.9531 771.8594,611.5625 L771.8594,613.0156 Q771.8594,613.625 771.625,613.8906 Q771.3906,614.1563 771.0156,614.1563 Q770.6719,614.1563 770.4688,613.9531 Q770.2656,613.7656 770.1563,613.25 Q770.1094,612.8906 769.9219,612.7031 Q769.5938,612.3281 768.9844,612.1094 Q768.375,611.8906 767.75,611.8906 Q766.9844,611.8906 766.3516,612.2188 Q765.7188,612.5469 765.2266,613.2969 Q764.7344,614.0469 764.7344,615.0781 L764.7344,616.1719 Q764.7344,617.4063 765.625,618.2266 Q766.5156,619.0469 768.1094,619.0469 Q769.0469,619.0469 769.7031,618.7969 Q770.0938,618.6406 770.5156,618.2031 Q770.7813,617.9375 770.9297,617.8594 Q771.0781,617.7813 771.2813,617.7813 Q771.6094,617.7813 771.8672,618.0391 Q772.125,618.2969 772.125,618.6406 Q772.125,618.9844 771.7813,619.3906 Q771.2813,619.9688 770.4844,620.2969 Q769.4063,620.75 768.1094,620.75 Q766.5938,620.75 765.3906,620.125 Q764.4063,619.625 763.7188,618.5547 Q763.0313,617.4844 763.0313,616.2031 L763.0313,615.0469 Q763.0313,613.7188 763.6484,612.5703 Q764.2656,611.4219 765.3594,610.8047 Q766.4531,610.1875 767.6875,610.1875 Q768.4219,610.1875 769.0703,610.3516 Q769.7188,610.5156 770.2656,610.875 Z " fill="#000000"/><text fill="#000000" font-family="sans-serif" font-size="12" lengthAdjust="spacing" textLength="102" x="781.5" y="619.9102">NonVerboseDltArg</text><line style="stroke:#A80036;stroke-width:1.5;" x1="753.5" x2="885.5" y1="631" y2="631"/><line style="stroke:#A80036;stroke-width:1.5;" x1="753.5" x2="885.5" y1="639" y2="639"/><!--MD5=[5604cc107f2bd7e22425b88332a60917]
class UnknownVerboseDltArg--><rect fill="#FEFECE" filter="url(#f14z7941eoyobu)" height="48" id="UnknownVerboseDltArg" style="stroke:#A80036;stroke-width:1.5;" width="163" x="541" y="599"/><ellipse cx="556" cy="615" fill="#ADD1B2" rx="11" ry="11" style="stroke:#A80036;stroke-width:1.0;"/><path d="M558.7656,610.875 Q558.9219,610.6563 559.1094,610.5469 Q559.2969,610.4375 559.5156,610.4375 Q559.8906,610.4375 560.125,610.6953 Q560.3594,610.9531 560.3594,611.5625 L560.3594,613.0156 Q560.3594,613.625 560.125,613.8906 Q559.8906,614.1563 559.5156,614.1563 Q559.1719,614.1563 558.9688,613.9531 Q558.7656,613.7656 558.6563,613.25 Q558.6094,612.8906 558.4219,612.7031 Q558.0938,612.3281 557.4844,612.1094 Q556.875,611.8906 556.25,611.8906 Q555.4844,611.8906 554.8516,612.2188 Q554.2188,612.5469 553.7266,613.2969 Q553.2344,614.0469 553.2344,615.0781 L553.2344,616.1719 Q553.2344,617.4063 554.125,618.2266 Q555.0156,619.0469 556.6094,619.0469 Q557.5469,619.0469 558.2031,618.7969 Q558.5938,618.6406 559.0156,618.2031 Q559.2813,617.9375 559.4297,617.8594 Q559.5781,617.7813 559.7813,617.7813 Q560.1094,617.7813 560.3672,618.0391 Q560.625,618.2969 560.625,618.6406 Q560.625,618.9844 560.2813,619.3906 Q559.7813,619.9688 558.9844,620.2969 Q557.9063,620.75 556.6094,620.75 Q555.0938,620.75 553.8906,620.125 Q552.9063,619.625 552.2188,618.5547 Q551.5313,617.4844 551.5313,616.2031 L551.5313,615.0469 Q551.5313,613.7188 552.1484,612.5703 Q552.7656,611.4219 553.8594,610.8047 Q554.9531,610.1875 556.1875,610.1875 Q556.9219,610.1875 557.5703,610.3516 Q558.2188,610.5156 558.7656,610.875 Z " fill="#000000"/><text fill="#000000" font-family="sans-serif" font-size="12" lengthAdjust="spacing" textLength="131" x="570" y="619.9102">UnknownVerboseDltArg</text><line style="stroke:#A80036;stroke-width:1.5;" x1="542" x2="703" y1="631" y2="631"/><line style="stroke:#A80036;stroke-width:1.5;" x1="542" x2="703" y1="639" y2="639"/><!--MD5=[295f392fa186f32cdcba9e09c1255c9c]
link ITraceEncoderFactory to ITraceEncoder--><path codeLine="4" d="M386.04,31 C406.23,31 426.42,31 446.6,31 " fill="none" id="ITraceEncoderFactory-ITraceEncoder" style="stroke:#A80036;stroke-width:1.0;"/><!--MD5=[743f4453b45b18e879bfa4d4b4711942]
reverse link ITraceEncoderFactory to DltTraceEncoderFactory--><path codeLine="7" d="M259.63,66.88 C236.67,82.93 210.07,101.54 189.63,115.83 " fill="none" id="ITraceEncoderFactory-backto-DltTraceEncoderFactory" style="stroke:#A80036;stroke-width:1.0;stroke-dasharray:7.0,7.0;"/><polygon fill="none" points="255.9,60.94,276.3,55.22,263.92,72.42,255.9,60.94" style="stroke:#A80036;stroke-width:1.0;"/><!--MD5=[f059986529b2b4c81376e873afa2327e]
reverse link ITraceEncoder to DltTraceEncoder--><path codeLine="10" d="M513.97,75.09 C517.35,89.01 520.98,103.92 523.87,115.83 " fill="none" id="ITraceEncoder-backto-DltTraceEncoder" style="stroke:#A80036;stroke-width:1.0;stroke-dasharray:7.0,7.0;"/><polygon fill="none" points="507.06,76.3,509.14,55.22,520.67,73,507.06,76.3" style="stroke:#A80036;stroke-width:1.0;"/><!--MD5=[5520f4b9bfd96b2e3a03ee9f851472ca]
link DltTraceEncoderFactory to DltTraceEncoder--><path codeLine="12" d="M306.06,140 C335.16,140 365.51,140 394.12,140 " fill="none" id="DltTraceEncoderFactory-to-DltTraceEncoder" style="stroke:#A80036;stroke-width:1.0;"/><polygon fill="#A80036" points="399.44,140,390.44,136,394.44,140,390.44,144,399.44,140" style="stroke:#A80036;stroke-width:1.0;"/><text fill="#000000" font-family="sans-serif" font-size="13" lengthAdjust="spacing" textLength="57" x="324.25" y="133.4951">creates</text><!--MD5=[5d48c31a730162187cd8aab12cd06aea]
reverse link IVerboseDltEncoder to VerboseDltEncoder--><path codeLine="18" d="M476.51,299.85 C456.37,316.13 434.19,334.06 417.14,347.84 " fill="none" id="IVerboseDltEncoder-backto-VerboseDltEncoder" style="stroke:#A80036;stroke-width:1.0;stroke-dasharray:7.0,7.0;"/><polygon fill="none" points="472.13,294.38,492.08,287.25,480.93,305.27,472.13,294.38" style="stroke:#A80036;stroke-width:1.0;"/><!--MD5=[5c55f0b5e6e1bc870164c115511046f3]
reverse link IArgEncoder to VerboseArgEncoder--><path codeLine="24" d="M952.5,307.69 C952.5,321.71 952.5,336.24 952.5,347.84 " fill="none" id="IArgEncoder-backto-VerboseArgEncoder" style="stroke:#A80036;stroke-width:1.0;stroke-dasharray:7.0,7.0;"/><polygon fill="none" points="945.5,307.25,952.5,287.25,959.5,307.25,945.5,307.25" style="stroke:#A80036;stroke-width:1.0;"/><!--MD5=[c00cf507059481e068d00f0fd522b082]
reverse link IVerboseDltEncoder to IArgEncoder--><path codeLine="26" d="M689.82,256 C716.84,256 743.86,256 770.87,256 " fill="none" id="IVerboseDltEncoder-backto-IArgEncoder" style="stroke:#A80036;stroke-width:1.0;"/><polygon fill="#A80036" points="676.56,256,682.56,260,688.56,256,682.56,252,676.56,256" style="stroke:#A80036;stroke-width:1.0;"/><!--MD5=[b6f026bfdc1f921bfd088b935df7fb0f]
reverse link VerboseDltEncoder to VerboseArgEncoder--><path codeLine="27" d="M471.39,372 C607.94,372 744.5,372 881.05,372 " fill="none" id="VerboseDltEncoder-backto-VerboseArgEncoder" style="stroke:#A80036;stroke-width:1.0;"/><polygon fill="#A80036" points="458.17,372,464.17,376,470.17,372,464.17,368,458.17,372" style="stroke:#A80036;stroke-width:1.0;"/><!--MD5=[ba8209c47a24740eb77ae852ac41f942]
reverse link IArgEncoder to BinaryIntArgEncoder--><path codeLine="40" d="M1082.62,292.43 C1141.9,308.86 1212.89,328.93 1276.5,348 C1398.08,384.44 1538.68,430 1620.78,456.95 " fill="none" id="IArgEncoder-backto-BinaryIntArgEncoder" style="stroke:#A80036;stroke-width:1.0;stroke-dasharray:7.0,7.0;"/><polygon fill="none" points="1080.41,299.08,1063,287.01,1084.14,285.59,1080.41,299.08" style="stroke:#A80036;stroke-width:1.0;"/><!--MD5=[5aed64833bc03253cb953b13dfeec736]
reverse link IArgEncoder to HexIntArgEncoder--><path codeLine="41" d="M804.18,292.54 C755.02,306.82 700.81,325.34 653.5,348 C597.24,374.94 595.68,404.51 537.5,427 C448.33,461.47 418.1,437.53 324.5,457 C318.64,458.22 312.59,459.62 306.55,461.11 " fill="none" id="IArgEncoder-backto-HexIntArgEncoder" style="stroke:#A80036;stroke-width:1.0;stroke-dasharray:7.0,7.0;"/><polygon fill="none" points="802.31,285.8,823.46,287.08,806.13,299.27,802.31,285.8" style="stroke:#A80036;stroke-width:1.0;"/><!--MD5=[b159b959a3b3231b4941514ba210291c]
reverse link IArgEncoder to SignedIntArgEncoder--><path codeLine="42" d="M1052.5,294.1 C1095.68,310.33 1146.7,329.79 1192.5,348 C1285.43,384.95 1392.68,430.16 1455.59,456.93 " fill="none" id="IArgEncoder-backto-SignedIntArgEncoder" style="stroke:#A80036;stroke-width:1.0;stroke-dasharray:7.0,7.0;"/><polygon fill="none" points="1049.84,300.58,1033.57,287,1054.76,287.47,1049.84,300.58" style="stroke:#A80036;stroke-width:1.0;"/><!--MD5=[e0ad61f3839ecee07e81b6026d41820b]
reverse link IArgEncoder to UnsignedIntArgEncoder--><path codeLine="43" d="M1121.81,291.23 C1200.12,307.56 1294.25,327.89 1378.5,348 C1526.74,383.38 1698.23,429.88 1796.96,457.19 " fill="none" id="IArgEncoder-backto-UnsignedIntArgEncoder" style="stroke:#A80036;stroke-width:1.0;stroke-dasharray:7.0,7.0;"/><polygon fill="none" points="1119.9,297.99,1101.74,287.06,1122.74,284.28,1119.9,297.99" style="stroke:#A80036;stroke-width:1.0;"/><!--MD5=[be5df2e6cf675927e88dc03fea03e238]
reverse link IArgEncoder to BoolArgEncoder--><path codeLine="44" d="M782.18,291.54 C718.17,306.38 645.24,325.51 580.5,348 C532.03,364.84 524.37,380.37 475.5,396 C338.84,439.69 297.91,423.12 158.5,457 C152.88,458.37 147.05,459.89 141.24,461.47 " fill="none" id="IArgEncoder-backto-BoolArgEncoder" style="stroke:#A80036;stroke-width:1.0;stroke-dasharray:7.0,7.0;"/><polygon fill="none" points="780.69,284.7,801.74,287.08,783.8,298.35,780.69,284.7" style="stroke:#A80036;stroke-width:1.0;"/><!--MD5=[6e9e10a4ecdb160f909aeea27bc53efa]
reverse link IArgEncoder to Float32ArgEncoder--><path codeLine="45" d="M851.48,294.47 C813.51,309.67 770.38,328.29 732.5,348 C674.53,378.16 668.31,400.69 608.5,427 C608.3,427.09 536.23,446.37 479.1,461.65 " fill="none" id="IArgEncoder-backto-Float32ArgEncoder" style="stroke:#A80036;stroke-width:1.0;stroke-dasharray:7.0,7.0;"/><polygon fill="none" points="849.07,287.9,870.24,287.07,854.2,300.92,849.07,287.9" style="stroke:#A80036;stroke-width:1.0;"/><!--MD5=[69c8e910a7d48f264de2bb7b867a146c]
reverse link IArgEncoder to Float64ArgEncoder--><path codeLine="46" d="M1009.08,301.28 C1022.21,314.73 1034.41,330.6 1041.5,348 C1056.38,384.5 1039.24,429.94 1025.7,456.87 " fill="none" id="IArgEncoder-backto-Float64ArgEncoder" style="stroke:#A80036;stroke-width:1.0;stroke-dasharray:7.0,7.0;"/><polygon fill="none" points="1003.86,305.98,994.09,287.18,1013.45,295.78,1003.86,305.98" style="stroke:#A80036;stroke-width:1.0;"/><!--MD5=[420101715a094d5329c3e5e0da1a4c77]
reverse link IArgEncoder to RawArgEncoder--><path codeLine="47" d="M1024.63,298.19 C1033,304.08 1041.16,310.4 1048.5,317 C1096.68,360.28 1140.39,423.28 1162.09,456.88 " fill="none" id="IArgEncoder-backto-RawArgEncoder" style="stroke:#A80036;stroke-width:1.0;stroke-dasharray:7.0,7.0;"/><polygon fill="none" points="1020.68,303.97,1007.89,287.08,1028.43,292.31,1020.68,303.97" style="stroke:#A80036;stroke-width:1.0;"/><!--MD5=[7a25e60677257f397e352321cda11e14]
reverse link IArgEncoder to StringArgEncoder--><path codeLine="48" d="M1034.75,296.08 C1048.15,302.84 1061.8,309.96 1074.5,317 C1158.14,363.35 1252.52,424.31 1302,456.97 " fill="none" id="IArgEncoder-backto-StringArgEncoder" style="stroke:#A80036;stroke-width:1.0;stroke-dasharray:7.0,7.0;"/><polygon fill="none" points="1031.54,302.3,1016.74,287.13,1037.77,289.76,1031.54,302.3" style="stroke:#A80036;stroke-width:1.0;"/><!--MD5=[1660fd670621efaea9754d500fa7eed1]
reverse link IArgEncoder to NonVerboseArgEncoder--><path codeLine="49" d="M901.45,301.1 C887.87,314.96 874.28,331.1 864.5,348 C844.32,382.89 834.22,429.24 829.69,456.71 " fill="none" id="IArgEncoder-backto-NonVerboseArgEncoder" style="stroke:#A80036;stroke-width:1.0;stroke-dasharray:7.0,7.0;"/><polygon fill="none" points="896.76,295.9,916,287.03,906.5,305.96,896.76,295.9" style="stroke:#A80036;stroke-width:1.0;"/><!--MD5=[e4349916ad7f106c9c8b4f3bd069f5ee]
reverse link IArgEncoder to UnknownVerboseArgEncoder--><path codeLine="50" d="M889.33,298.31 C817.93,345 704.21,419.37 646.93,456.83 " fill="none" id="IArgEncoder-backto-UnknownVerboseArgEncoder" style="stroke:#A80036;stroke-width:1.0;stroke-dasharray:7.0,7.0;"/><polygon fill="none" points="885.94,292.16,906.51,287.07,893.6,303.88,885.94,292.16" style="stroke:#A80036;stroke-width:1.0;"/><!--MD5=[9d5a8eae5ae8c295daac91ee99d34853]
reverse link VerboseArgEncoder to BinaryIntArgEncoder--><path codeLine="52" d="M1036.66,380.52 C1160.93,392.39 1400.5,418.18 1601.5,457 C1607.14,458.09 1612.96,459.33 1618.78,460.65 " fill="none" id="VerboseArgEncoder-backto-BinaryIntArgEncoder" style="stroke:#A80036;stroke-width:1.0;"/><polygon fill="#A80036" points="1023.55,379.28,1029.1452,383.8291,1035.4963,380.414,1029.9011,375.8649,1023.55,379.28" style="stroke:#A80036;stroke-width:1.0;"/><!--MD5=[6eb09750f06c61ebe2c1ef75b0c142ab]
reverse link VerboseArgEncoder to HexIntArgEncoder--><path codeLine="53" d="M868.48,389.94 C807.83,401.68 723.87,416.96 649.5,427 C505.75,446.41 467.18,430.86 324.5,457 C318.76,458.05 312.85,459.32 306.94,460.7 " fill="none" id="VerboseArgEncoder-backto-HexIntArgEncoder" style="stroke:#A80036;stroke-width:1.0;"/><polygon fill="#A80036" points="881.44,387.41,874.7857,384.6313,869.6615,389.705,876.3158,392.4837,881.44,387.41" style="stroke:#A80036;stroke-width:1.0;"/><!--MD5=[9296742403203ee3c77c9c374504a55e]
reverse link VerboseArgEncoder to SignedIntArgEncoder--><path codeLine="54" d="M1036.93,386.41 C1130.55,401.7 1285.88,428.32 1418.5,457 C1423.92,458.17 1429.5,459.44 1435.11,460.75 " fill="none" id="VerboseArgEncoder-backto-SignedIntArgEncoder" style="stroke:#A80036;stroke-width:1.0;"/><polygon fill="#A80036" points="1023.86,384.29,1029.1403,389.201,1035.7045,386.2157,1030.4241,381.3047,1023.86,384.29" style="stroke:#A80036;stroke-width:1.0;"/><!--MD5=[e9f34466c46ef7f97e5c16610328209f]
reverse link VerboseArgEncoder to UnsignedIntArgEncoder--><path codeLine="55" d="M1036.82,378.01 C1186.92,387.73 1510.03,412.2 1779.5,457 C1785.16,457.94 1790.97,459.01 1796.82,460.17 " fill="none" id="VerboseArgEncoder-backto-UnsignedIntArgEncoder" style="stroke:#A80036;stroke-width:1.0;"/><polygon fill="#A80036" points="1023.7,377.17,1029.4328,381.5443,1035.6756,377.935,1029.9428,373.5606,1023.7,377.17" style="stroke:#A80036;stroke-width:1.0;"/><!--MD5=[21a199b9ea0c81264702a545853479f9]
reverse link VerboseArgEncoder to BoolArgEncoder--><path codeLine="56" d="M868.38,385.21 C784.65,397.07 652.39,414.99 537.5,427 C369.45,444.57 324.65,426.27 158.5,457 C152.81,458.05 146.94,459.36 141.09,460.81 " fill="none" id="VerboseArgEncoder-backto-BoolArgEncoder" style="stroke:#A80036;stroke-width:1.0;"/><polygon fill="#A80036" points="881.4,383.36,874.897,380.2437,869.5193,385.0478,876.0223,388.1641,881.4,383.36" style="stroke:#A80036;stroke-width:1.0;"/><!--MD5=[0fae82cfc3c93fdb231f05c4a4a973f2]
reverse link VerboseArgEncoder to Float32ArgEncoder--><path codeLine="57" d="M868.56,395.87 C827.48,406.46 777.15,418.54 731.5,427 C627.97,446.19 599.81,436.69 496.5,457 C490.89,458.1 485.1,459.37 479.31,460.72 " fill="none" id="VerboseArgEncoder-backto-Float32ArgEncoder" style="stroke:#A80036;stroke-width:1.0;"/><polygon fill="#A80036" points="881.28,392.57,874.4667,390.2081,869.6659,395.5889,876.4793,397.9508,881.28,392.57" style="stroke:#A80036;stroke-width:1.0;"/><!--MD5=[b2cae19dffe305bda6343c824255f1f1]
reverse link VerboseArgEncoder to Float64ArgEncoder--><path codeLine="58" d="M972.06,407.88 C981.06,423.93 991.49,442.54 999.51,456.83 " fill="none" id="VerboseArgEncoder-backto-Float64ArgEncoder" style="stroke:#A80036;stroke-width:1.0;"/><polygon fill="#A80036" points="965.52,396.22,964.9641,403.4096,971.3869,406.688,971.9428,399.4984,965.52,396.22" style="stroke:#A80036;stroke-width:1.0;"/><!--MD5=[1e8320804bb1a041bf6104023c230a2c]
reverse link VerboseArgEncoder to RawArgEncoder--><path codeLine="59" d="M1012.73,401.77 C1048.94,419.07 1094.42,440.79 1128.26,456.96 " fill="none" id="VerboseArgEncoder-backto-RawArgEncoder" style="stroke:#A80036;stroke-width:1.0;"/><polygon fill="#A80036" points="1000.83,396.09,1004.521,402.2849,1011.659,401.2605,1007.968,395.0656,1000.83,396.09" style="stroke:#A80036;stroke-width:1.0;"/><!--MD5=[2a01ca06a10a6cbc66f1c110e5bd2805]
reverse link VerboseArgEncoder to StringArgEncoder--><path codeLine="60" d="M1036.17,396.22 C1096.8,413.06 1180.73,436.4 1254.5,457 C1260.34,458.63 1266.41,460.33 1272.49,462.03 " fill="none" id="VerboseArgEncoder-backto-StringArgEncoder" style="stroke:#A80036;stroke-width:1.0;"/><polygon fill="#A80036" points="1023.6,392.73,1028.3141,398.1869,1035.1643,395.9342,1030.4502,390.4774,1023.6,392.73" style="stroke:#A80036;stroke-width:1.0;"/><!--MD5=[ea87356c2129a96a17f93f38fd7acc92]
reverse link VerboseArgEncoder to NonVerboseArgEncoder--><path codeLine="61" d="M930.61,406.74 C925.16,413.86 919.01,421.03 912.5,427 C900.23,438.27 885.22,448.47 871.2,456.85 " fill="none" id="VerboseArgEncoder-backto-NonVerboseArgEncoder" style="stroke:#A80036;stroke-width:1.0;"/><polygon fill="#A80036" points="938.27,396.11,931.5166,398.6381,931.2528,405.8444,938.0062,403.3163,938.27,396.11" style="stroke:#A80036;stroke-width:1.0;"/><!--MD5=[46515756fab5f88f6edecbe70da70e04]
reverse link VerboseArgEncoder to UnknownVerboseArgEncoder--><path codeLine="62" d="M885.32,400.88 C862.7,409.79 837.19,419.32 813.5,427 C779.61,437.99 741.99,448.35 708.48,456.94 " fill="none" id="VerboseArgEncoder-backto-UnknownVerboseArgEncoder" style="stroke:#A80036;stroke-width:1.0;"/><polygon fill="#A80036" points="897.56,396.01,890.5066,394.51,886.4092,400.4439,893.4626,401.9439,897.56,396.01" style="stroke:#A80036;stroke-width:1.0;"/><!--MD5=[86e25be5f845f6c03c8cbfd132908a17]
reverse link DltTraceEncoder to IVerboseDltEncoder--><path codeLine="64" d="M529.5,177.28 C529.5,192.52 529.5,210.06 529.5,224.61 " fill="none" id="DltTraceEncoder-backto-IVerboseDltEncoder" style="stroke:#A80036;stroke-width:1.0;"/><polygon fill="#A80036" points="529.5,164.07,525.5,170.07,529.5,176.07,533.5,170.07,529.5,164.07" style="stroke:#A80036;stroke-width:1.0;"/><!--MD5=[43257a1e25a63e64490f186f2d5177f1]
link BinaryIntArgEncoder to BinaryIntDltArg--><path codeLine="66" d="M1690.5,505.12 C1690.5,531.06 1690.5,572.89 1690.5,598.85 " fill="none" id="BinaryIntArgEncoder-BinaryIntDltArg" style="stroke:#A80036;stroke-width:1.0;"/><text fill="#000000" font-family="sans-serif" font-size="13" lengthAdjust="spacing" textLength="63" x="1691.5" y="557.4951">encodes</text><!--MD5=[721f28771af9c2ebadd1c79524ff9ef7]
link HexIntArgEncoder to HexIntDltArg--><path codeLine="67" d="M241.5,505.12 C241.5,531.06 241.5,572.89 241.5,598.85 " fill="none" id="HexIntArgEncoder-HexIntDltArg" style="stroke:#A80036;stroke-width:1.0;"/><text fill="#000000" font-family="sans-serif" font-size="13" lengthAdjust="spacing" textLength="63" x="242.5" y="557.4951">encodes</text><!--MD5=[7fb6b0d9cc9b3285c2dd8a0cd0900751]
link SignedIntArgEncoder to SignedIntDltArg--><path codeLine="68" d="M1509.5,505.12 C1509.5,531.06 1509.5,572.89 1509.5,598.85 " fill="none" id="SignedIntArgEncoder-SignedIntDltArg" style="stroke:#A80036;stroke-width:1.0;"/><text fill="#000000" font-family="sans-serif" font-size="13" lengthAdjust="spacing" textLength="63" x="1510.5" y="557.4951">encodes</text><!--MD5=[4f4a3b0d5c8508ec5cbab0a116584dfc]
link UnsignedIntArgEncoder to UnsignedIntDltArg--><path codeLine="69" d="M1878.5,505.12 C1878.5,531.06 1878.5,572.89 1878.5,598.85 " fill="none" id="UnsignedIntArgEncoder-UnsignedIntDltArg" style="stroke:#A80036;stroke-width:1.0;"/><text fill="#000000" font-family="sans-serif" font-size="13" lengthAdjust="spacing" textLength="63" x="1879.5" y="557.4951">encodes</text><!--MD5=[7e9a0a83af909b0720f00a075c2f32e2]
link BoolArgEncoder to BoolDltArg--><path codeLine="70" d="M80.5,505.12 C80.5,531.06 80.5,572.89 80.5,598.85 " fill="none" id="BoolArgEncoder-BoolDltArg" style="stroke:#A80036;stroke-width:1.0;"/><text fill="#000000" font-family="sans-serif" font-size="13" lengthAdjust="spacing" textLength="63" x="81.5" y="557.4951">encodes</text><!--MD5=[2d74c3d6efd32684781399015a291b59]
link Float32ArgEncoder to Float32DltArg--><path codeLine="71" d="M410.5,505.12 C410.5,531.06 410.5,572.89 410.5,598.85 " fill="none" id="Float32ArgEncoder-Float32DltArg" style="stroke:#A80036;stroke-width:1.0;"/><text fill="#000000" font-family="sans-serif" font-size="13" lengthAdjust="spacing" textLength="63" x="411.5" y="557.4951">encodes</text><!--MD5=[3663330a6e4b4a4690bab89813248697]
link Float64ArgEncoder to Float64DltArg--><path codeLine="72" d="M1026.87,505.12 C1042.99,531.06 1068.98,572.89 1085.11,598.85 " fill="none" id="Float64ArgEncoder-Float64DltArg" style="stroke:#A80036;stroke-width:1.0;"/><text fill="#000000" font-family="sans-serif" font-size="13" lengthAdjust="spacing" textLength="63" x="1066.5" y="557.4951">encodes</text><!--MD5=[358a230eacceb6582849cccffb7705da]
link StringArgEncoder to StringDltArg--><path codeLine="73" d="M1336.5,505.12 C1336.5,531.06 1336.5,572.89 1336.5,598.85 " fill="none" id="StringArgEncoder-StringDltArg" style="stroke:#A80036;stroke-width:1.0;"/><text fill="#000000" font-family="sans-serif" font-size="13" lengthAdjust="spacing" textLength="63" x="1337.5" y="557.4951">encodes</text><!--MD5=[2034f1e70fbab9c14e61f7b7ebc1293f]
link RawArgEncoder to RawDltArg--><path codeLine="74" d="M1171.87,505.29 C1166.75,525 1156.58,552.6 1137.5,569 C1099.73,601.48 1076.94,583.78 1029.5,599 C1023.73,600.85 1017.71,602.9 1011.78,604.99 " fill="none" id="RawArgEncoder-RawDltArg" style="stroke:#A80036;stroke-width:1.0;"/><text fill="#000000" font-family="sans-serif" font-size="13" lengthAdjust="spacing" textLength="63" x="1161.5" y="557.4951">encodes</text><!--MD5=[2af069c3c1368b6bfcf4cc181dea35a7]
link NonVerboseArgEncoder to RawDltArg--><path codeLine="75" d="M874.31,505.08 C888.29,513.26 902.92,523.38 914.5,535 C933.01,553.57 947.59,580 956.54,598.84 " fill="none" id="NonVerboseArgEncoder-RawDltArg" style="stroke:#A80036;stroke-width:1.0;"/><text fill="#000000" font-family="sans-serif" font-size="13" lengthAdjust="spacing" textLength="65" x="940.5" y="549.4951">&lt;&lt;encodes</text><text fill="#000000" font-family="sans-serif" font-size="13" lengthAdjust="spacing" textLength="60" x="943" y="565.8467">verbose&gt;&gt;</text><!--MD5=[9a887051fa88c2a06a6e48a255772f5b]
link NonVerboseArgEncoder to NonVerboseDltArg--><path codeLine="76" d="M825.34,505.12 C824.05,531.06 821.96,572.89 820.66,598.85 " fill="none" id="NonVerboseArgEncoder-NonVerboseDltArg" style="stroke:#A80036;stroke-width:1.0;"/><text fill="#000000" font-family="sans-serif" font-size="13" lengthAdjust="spacing" textLength="65" x="832.5" y="549.4951">&lt;&lt;encodes</text><text fill="#000000" font-family="sans-serif" font-size="13" lengthAdjust="spacing" textLength="81" x="824.5" y="565.8467">nonverbose&gt;&gt;</text><!--MD5=[81ab0216c3dbf594c6a73c9136589686]
link NonVerboseArgEncoder to UnknownVerboseDltArg--><path codeLine="77" d="M792.29,505.16 C778.65,514.42 762.82,525.19 748.5,535 C717.03,556.56 681.25,581.28 655.88,598.85 " fill="none" id="NonVerboseArgEncoder-UnknownVerboseDltArg" style="stroke:#A80036;stroke-width:1.0;"/><text fill="#000000" font-family="sans-serif" font-size="13" lengthAdjust="spacing" textLength="63" x="749.5" y="557.4951">encodes</text><!--MD5=[a6c4398af25b435b5b8850da81df18a6]
link UnknownVerboseArgEncoder to UnknownVerboseDltArg--><path codeLine="78" d="M608.64,505.36 C606.98,522.93 605.72,547.57 608.5,569 C609.79,578.91 612.37,589.61 614.98,598.78 " fill="none" id="UnknownVerboseArgEncoder-UnknownVerboseDltArg" style="stroke:#A80036;stroke-width:1.0;"/><text fill="#000000" font-family="sans-serif" font-size="13" lengthAdjust="spacing" textLength="63" x="609.5" y="557.4951">encodes</text><!--MD5=[53ca493b89d51c21f669cada06ab0470]
@startuml DLT.WriterEncoder
interface ITraceEncoder
interface ITraceEncoderFactory

ITraceEncoderFactory -r- ITraceEncoder

class DltTraceEncoderFactory<TLine:DltTraceLineBase>
ITraceEncoderFactory <|.d. DltTraceEncoderFactory

class DltTraceEncoder<TLine:DltTraceLineBase>
ITraceEncoder <|.d. DltTraceEncoder

DltTraceEncoderFactory -r-> DltTraceEncoder : <<creates>>

interface IVerboseDltEncoder {
    +Encode(buffer: Span<byte>, line: DltTraceLineBase): int
}
class VerboseDltEncoder
IVerboseDltEncoder <|.d. VerboseDltEncoder

interface IArgEncoder {
    +Encode(buffer: Span<byte>, bool verbose, bool msbf, arg: IDltArg): int
}
class VerboseArgEncoder
IArgEncoder <|.d. VerboseArgEncoder

IVerboseDltEncoder *-r- IArgEncoder
VerboseDltEncoder *-r- VerboseArgEncoder

class BinaryIntArgEncoder
class HexIntArgEncoder
class SignedIntArgEncoder
class UnsignedIntArgEncoder
class BoolArgEncoder
class Float32ArgEncoder
class Float64ArgEncoder
class RawArgEncoder
class StringArgEncoder
class NonVerboseArgEncoder
class UnknownVerboseArgEncoder
IArgEncoder <|..d. BinaryIntArgEncoder
IArgEncoder <|..d. HexIntArgEncoder
IArgEncoder <|..d. SignedIntArgEncoder
IArgEncoder <|..d. UnsignedIntArgEncoder
IArgEncoder <|..d. BoolArgEncoder
IArgEncoder <|..d. Float32ArgEncoder
IArgEncoder <|..d. Float64ArgEncoder
IArgEncoder <|..d. RawArgEncoder
IArgEncoder <|..d. StringArgEncoder
IArgEncoder <|..d. NonVerboseArgEncoder
IArgEncoder <|..d. UnknownVerboseArgEncoder

VerboseArgEncoder *-d- BinaryIntArgEncoder
VerboseArgEncoder *-d- HexIntArgEncoder
VerboseArgEncoder *-d- SignedIntArgEncoder
VerboseArgEncoder *-d- UnsignedIntArgEncoder
VerboseArgEncoder *-d- BoolArgEncoder
VerboseArgEncoder *-d- Float32ArgEncoder
VerboseArgEncoder *-d- Float64ArgEncoder
VerboseArgEncoder *-d- RawArgEncoder
VerboseArgEncoder *-d- StringArgEncoder
VerboseArgEncoder *-d- NonVerboseArgEncoder
VerboseArgEncoder *-d- UnknownVerboseArgEncoder

DltTraceEncoder *-d- IVerboseDltEncoder

BinaryIntArgEncoder -d- BinaryIntDltArg : <<encodes>>
HexIntArgEncoder -d- HexIntDltArg : <<encodes>>
SignedIntArgEncoder -d- SignedIntDltArg : <<encodes>>
UnsignedIntArgEncoder -d- UnsignedIntDltArg : <<encodes>>
BoolArgEncoder -d- BoolDltArg : <<encodes>>
Float32ArgEncoder -d- Float32DltArg : <<encodes>>
Float64ArgEncoder -d- Float64DltArg : <<encodes>>
StringArgEncoder -d- StringDltArg : <<encodes>>
RawArgEncoder -d- RawDltArg : <<encodes>>
NonVerboseArgEncoder -d- RawDltArg : <<encodes\nverbose>>
NonVerboseArgEncoder -d- NonVerboseDltArg : <<encodes\nnonverbose>>
NonVerboseArgEncoder -d- UnknownVerboseDltArg : <<encodes>>
UnknownVerboseArgEncoder -d- UnknownVerboseDltArg : <<encodes>>
@enduml

PlantUML version 1.2022.1(Tue Feb 01 19:19:58 CET 2022)
(GPL source distribution)
Java Runtime: Java(TM) SE Runtime Environment
JVM: Java HotSpot(TM) Client VM
Default Encoding: Cp1252
Language: en
Country: US
--></g></svg>