<?xml version="1.0" encoding="us-ascii" standalone="no"?><svg xmlns="http://www.w3.org/2000/svg" xmlns:xlink="http://www.w3.org/1999/xlink" contentStyleType="text/css" height="844px" preserveAspectRatio="none" style="width:2751px;height:844px;background:#FFFFFF;" version="1.1" viewBox="0 0 2751 844" width="2751px" zoomAndPan="magnify"><defs/><g><!--class IDisposable--><g id="elem_IDisposable"><rect codeLine="1" fill="#F1F1F1" height="48" id="IDisposable" rx="2.5" ry="2.5" style="stroke:#181818;stroke-width:0.5;" width="112" x="639" y="7"/><ellipse cx="654" cy="23" fill="#B4A7E5" rx="11" ry="11" style="stroke:#181818;stroke-width:1.0;"/><path d="M649.9219,18.7656 L649.9219,16.6094 L657.3125,16.6094 L657.3125,18.7656 L654.8438,18.7656 L654.8438,26.8438 L657.3125,26.8438 L657.3125,29 L649.9219,29 L649.9219,26.8438 L652.3906,26.8438 L652.3906,18.7656 L649.9219,18.7656 Z " fill="#000000"/><text fill="#000000" font-family="sans-serif" font-size="14" font-style="italic" lengthAdjust="spacing" textLength="80" x="668" y="27.8467">IDisposable</text><line style="stroke:#181818;stroke-width:0.5;" x1="640" x2="750" y1="39" y2="39"/><line style="stroke:#181818;stroke-width:0.5;" x1="640" x2="750" y1="47" y2="47"/></g><!--class ITraceEncoder--><g id="elem_ITraceEncoder"><rect codeLine="3" fill="#F1F1F1" height="64.2969" id="ITraceEncoder" rx="2.5" ry="2.5" style="stroke:#181818;stroke-width:0.5;" width="399" x="495.5" y="116"/><ellipse cx="589.25" cy="132" fill="#B4A7E5" rx="11" ry="11" style="stroke:#181818;stroke-width:1.0;"/><path d="M585.1719,127.7656 L585.1719,125.6094 L592.5625,125.6094 L592.5625,127.7656 L590.0938,127.7656 L590.0938,135.8438 L592.5625,135.8438 L592.5625,138 L585.1719,138 L585.1719,135.8438 L587.6406,135.8438 L587.6406,127.7656 L585.1719,127.7656 Z " fill="#000000"/><text fill="#000000" font-family="sans-serif" font-size="14" font-style="italic" lengthAdjust="spacing" textLength="100" x="609.75" y="136.8467">ITraceEncoder</text><rect fill="#FFFFFF" height="15.9688" style="stroke:#181818;stroke-width:1.0;stroke-dasharray:2.0,2.0;" width="101" x="796.5" y="113"/><text fill="#000000" font-family="sans-serif" font-size="12" font-style="italic" lengthAdjust="spacing" textLength="99" x="797.5" y="125.1387">TLine:ITraceLine</text><line style="stroke:#181818;stroke-width:0.5;" x1="496.5" x2="893.5" y1="148" y2="148"/><line style="stroke:#181818;stroke-width:0.5;" x1="496.5" x2="893.5" y1="156" y2="156"/><ellipse cx="506.5" cy="169.6484" fill="#84BE84" rx="3" ry="3" style="stroke:#038048;stroke-width:1.0;"/><text fill="#000000" font-family="sans-serif" font-size="14" lengthAdjust="spacing" textLength="373" x="515.5" y="172.9951">Encode(buffer: Span&lt;byte&gt;, line: TLine): Result&lt;int&gt;</text></g><!--class ITraceEncoderFactory--><g id="elem_ITraceEncoderFactory"><rect codeLine="8" fill="#F1F1F1" height="64.2969" id="ITraceEncoderFactory" rx="2.5" ry="2.5" style="stroke:#181818;stroke-width:0.5;" width="285" x="37.5" y="116"/><ellipse cx="52.5" cy="132" fill="#B4A7E5" rx="11" ry="11" style="stroke:#181818;stroke-width:1.0;"/><path d="M48.4219,127.7656 L48.4219,125.6094 L55.8125,125.6094 L55.8125,127.7656 L53.3438,127.7656 L53.3438,135.8438 L55.8125,135.8438 L55.8125,138 L48.4219,138 L48.4219,135.8438 L50.8906,135.8438 L50.8906,127.7656 L48.4219,127.7656 Z " fill="#000000"/><text fill="#000000" font-family="sans-serif" font-size="14" font-style="italic" lengthAdjust="spacing" textLength="150" x="66.5" y="136.8467">ITraceEncoderFactory</text><rect fill="#FFFFFF" height="15.9688" style="stroke:#181818;stroke-width:1.0;stroke-dasharray:2.0,2.0;" width="101" x="224.5" y="113"/><text fill="#000000" font-family="sans-serif" font-size="12" font-style="italic" lengthAdjust="spacing" textLength="99" x="225.5" y="125.1387">TLine:ITraceLine</text><line style="stroke:#181818;stroke-width:0.5;" x1="38.5" x2="321.5" y1="148" y2="148"/><line style="stroke:#181818;stroke-width:0.5;" x1="38.5" x2="321.5" y1="156" y2="156"/><ellipse cx="48.5" cy="169.6484" fill="#84BE84" rx="3" ry="3" style="stroke:#038048;stroke-width:1.0;"/><text fill="#000000" font-family="sans-serif" font-size="14" lengthAdjust="spacing" textLength="226" x="57.5" y="172.9951">Create(): ITraceEncoder&lt;TLine&gt;</text></g><!--class DltTraceEncoderFactory--><g id="elem_DltTraceEncoderFactory"><rect codeLine="12" fill="#F1F1F1" height="64.2969" id="DltTraceEncoderFactory" rx="2.5" ry="2.5" style="stroke:#181818;stroke-width:0.5;" width="346" x="7" y="257.3"/><ellipse cx="22" cy="273.3" fill="#ADD1B2" rx="11" ry="11" style="stroke:#181818;stroke-width:1.0;"/><path d="M24.9688,278.9406 Q24.3906,279.2375 23.75,279.3781 Q23.1094,279.5344 22.4063,279.5344 Q19.9063,279.5344 18.5781,277.8938 Q17.2656,276.2375 17.2656,273.1125 Q17.2656,269.9875 18.5781,268.3313 Q19.9063,266.675 22.4063,266.675 Q23.1094,266.675 23.75,266.8313 Q24.4063,266.9875 24.9688,267.2844 L24.9688,270.0031 Q24.3438,269.425 23.75,269.1594 Q23.1563,268.8781 22.5313,268.8781 Q21.1875,268.8781 20.5,269.9563 Q19.8125,271.0188 19.8125,273.1125 Q19.8125,275.2063 20.5,276.2844 Q21.1875,277.3469 22.5313,277.3469 Q23.1563,277.3469 23.75,277.0813 Q24.3438,276.8 24.9688,276.2219 L24.9688,278.9406 Z " fill="#000000"/><text fill="#000000" font-family="sans-serif" font-size="14" lengthAdjust="spacing" textLength="166" x="36" y="278.1467">DltTraceEncoderFactory</text><rect fill="#FFFFFF" height="15.9688" style="stroke:#181818;stroke-width:1.0;stroke-dasharray:2.0,2.0;" width="146" x="210" y="254.3"/><text fill="#000000" font-family="sans-serif" font-size="12" font-style="italic" lengthAdjust="spacing" textLength="144" x="211" y="266.4387">TLine:DltTraceLineBase</text><line style="stroke:#181818;stroke-width:0.5;" x1="8" x2="352" y1="289.3" y2="289.3"/><line style="stroke:#181818;stroke-width:0.5;" x1="8" x2="352" y1="297.3" y2="297.3"/><ellipse cx="18" cy="310.9484" fill="#84BE84" rx="3" ry="3" style="stroke:#038048;stroke-width:1.0;"/><text fill="#000000" font-family="sans-serif" font-size="14" lengthAdjust="spacing" textLength="314" x="27" y="314.2951">Create() : ITraceEncoder&lt;DltTraceLineBase&gt;</text></g><!--class DltTraceEncoder--><g id="elem_DltTraceEncoder"><rect codeLine="17" fill="#F1F1F1" height="64.2969" id="DltTraceEncoder" rx="2.5" ry="2.5" style="stroke:#181818;stroke-width:0.5;" width="483" x="453.5" y="257.3"/><ellipse cx="558.75" cy="273.3" fill="#ADD1B2" rx="11" ry="11" style="stroke:#181818;stroke-width:1.0;"/><path d="M561.7188,278.9406 Q561.1406,279.2375 560.5,279.3781 Q559.8594,279.5344 559.1563,279.5344 Q556.6563,279.5344 555.3281,277.8938 Q554.0156,276.2375 554.0156,273.1125 Q554.0156,269.9875 555.3281,268.3313 Q556.6563,266.675 559.1563,266.675 Q559.8594,266.675 560.5,266.8313 Q561.1563,266.9875 561.7188,267.2844 L561.7188,270.0031 Q561.0938,269.425 560.5,269.1594 Q559.9063,268.8781 559.2813,268.8781 Q557.9375,268.8781 557.25,269.9563 Q556.5625,271.0188 556.5625,273.1125 Q556.5625,275.2063 557.25,276.2844 Q557.9375,277.3469 559.2813,277.3469 Q559.9063,277.3469 560.5,277.0813 Q561.0938,276.8 561.7188,276.2219 L561.7188,278.9406 Z " fill="#000000"/><text fill="#000000" font-family="sans-serif" font-size="14" lengthAdjust="spacing" textLength="116" x="579.25" y="278.1467">DltTraceEncoder</text><rect fill="#FFFFFF" height="15.9688" style="stroke:#181818;stroke-width:1.0;stroke-dasharray:2.0,2.0;" width="146" x="793.5" y="254.3"/><text fill="#000000" font-family="sans-serif" font-size="12" font-style="italic" lengthAdjust="spacing" textLength="144" x="794.5" y="266.4387">TLine:DltTraceLineBase</text><line style="stroke:#181818;stroke-width:0.5;" x1="454.5" x2="935.5" y1="289.3" y2="289.3"/><line style="stroke:#181818;stroke-width:0.5;" x1="454.5" x2="935.5" y1="297.3" y2="297.3"/><ellipse cx="464.5" cy="310.9484" fill="#84BE84" rx="3" ry="3" style="stroke:#038048;stroke-width:1.0;"/><text fill="#000000" font-family="sans-serif" font-size="14" lengthAdjust="spacing" textLength="457" x="473.5" y="314.2951">Encode(buffer: Span&lt;byte&gt;, line: DltTraceLineBase): Result&lt;int&gt;</text></g><!--class IDltEncoder--><g id="elem_IDltEncoder"><rect codeLine="23" fill="#F1F1F1" height="64.2969" id="IDltEncoder" rx="2.5" ry="2.5" style="stroke:#181818;stroke-width:0.5;" width="399" x="495.5" y="382.6"/><ellipse cx="576.75" cy="398.6" fill="#B4A7E5" rx="11" ry="11" style="stroke:#181818;stroke-width:1.0;"/><path d="M572.6719,394.3656 L572.6719,392.2094 L580.0625,392.2094 L580.0625,394.3656 L577.5938,394.3656 L577.5938,402.4438 L580.0625,402.4438 L580.0625,404.6 L572.6719,404.6 L572.6719,402.4438 L575.1406,402.4438 L575.1406,394.3656 L572.6719,394.3656 Z " fill="#000000"/><text fill="#000000" font-family="sans-serif" font-size="14" font-style="italic" lengthAdjust="spacing" textLength="80" x="597.25" y="403.4467">IDltEncoder</text><rect fill="#FFFFFF" height="15.9688" style="stroke:#181818;stroke-width:1.0;stroke-dasharray:2.0,2.0;" width="146" x="751.5" y="379.6"/><text fill="#000000" font-family="sans-serif" font-size="12" font-style="italic" lengthAdjust="spacing" textLength="144" x="752.5" y="391.7387">TLine:DltTraceLineBase</text><line style="stroke:#181818;stroke-width:0.5;" x1="496.5" x2="893.5" y1="414.6" y2="414.6"/><line style="stroke:#181818;stroke-width:0.5;" x1="496.5" x2="893.5" y1="422.6" y2="422.6"/><ellipse cx="506.5" cy="436.2484" fill="#84BE84" rx="3" ry="3" style="stroke:#038048;stroke-width:1.0;"/><text fill="#000000" font-family="sans-serif" font-size="14" lengthAdjust="spacing" textLength="373" x="515.5" y="439.5951">Encode(buffer: Span&lt;byte&gt;, line: TLine): Result&lt;int&gt;</text></g><!--class VerboseDltEncoder--><g id="elem_VerboseDltEncoder"><rect codeLine="27" fill="#F1F1F1" height="64.2969" id="VerboseDltEncoder" rx="2.5" ry="2.5" style="stroke:#181818;stroke-width:0.5;" width="448" x="471" y="523.89"/><ellipse cx="564.75" cy="539.89" fill="#ADD1B2" rx="11" ry="11" style="stroke:#181818;stroke-width:1.0;"/><path d="M567.7188,545.5306 Q567.1406,545.8275 566.5,545.9681 Q565.8594,546.1244 565.1563,546.1244 Q562.6563,546.1244 561.3281,544.4838 Q560.0156,542.8275 560.0156,539.7025 Q560.0156,536.5775 561.3281,534.9213 Q562.6563,533.265 565.1563,533.265 Q565.8594,533.265 566.5,533.4213 Q567.1563,533.5775 567.7188,533.8744 L567.7188,536.5931 Q567.0938,536.015 566.5,535.7494 Q565.9063,535.4681 565.2813,535.4681 Q563.9375,535.4681 563.25,536.5463 Q562.5625,537.6088 562.5625,539.7025 Q562.5625,541.7963 563.25,542.8744 Q563.9375,543.9369 565.2813,543.9369 Q565.9063,543.9369 566.5,543.6713 Q567.0938,543.39 567.7188,542.8119 L567.7188,545.5306 Z " fill="#000000"/><text fill="#000000" font-family="sans-serif" font-size="14" lengthAdjust="spacing" textLength="135" x="585.25" y="544.7367">VerboseDltEncoder</text><rect fill="#FFFFFF" height="15.9688" style="stroke:#181818;stroke-width:1.0;stroke-dasharray:2.0,2.0;" width="115" x="807" y="520.89"/><text fill="#000000" font-family="sans-serif" font-size="12" font-style="italic" lengthAdjust="spacing" textLength="113" x="808" y="533.0287">TLine:DltTraceLine</text><line style="stroke:#181818;stroke-width:0.5;" x1="472" x2="918" y1="555.89" y2="555.89"/><line style="stroke:#181818;stroke-width:0.5;" x1="472" x2="918" y1="563.89" y2="563.89"/><ellipse cx="482" cy="577.5384" fill="#84BE84" rx="3" ry="3" style="stroke:#038048;stroke-width:1.0;"/><text fill="#000000" font-family="sans-serif" font-size="14" lengthAdjust="spacing" textLength="422" x="491" y="580.8851">Encode(buffer: Span&lt;byte&gt;, line: DltTraceLine): Result&lt;int&gt;</text></g><!--class IArgEncoder--><g id="elem_IArgEncoder"><rect codeLine="32" fill="#F1F1F1" height="64.2969" id="IArgEncoder" rx="2.5" ry="2.5" style="stroke:#181818;stroke-width:0.5;" width="579" x="1177.5" y="382.6"/><ellipse cx="1420.75" cy="398.6" fill="#B4A7E5" rx="11" ry="11" style="stroke:#181818;stroke-width:1.0;"/><path d="M1416.6719,394.3656 L1416.6719,392.2094 L1424.0625,392.2094 L1424.0625,394.3656 L1421.5938,394.3656 L1421.5938,402.4438 L1424.0625,402.4438 L1424.0625,404.6 L1416.6719,404.6 L1416.6719,402.4438 L1419.1406,402.4438 L1419.1406,394.3656 L1416.6719,394.3656 Z " fill="#000000"/><text fill="#000000" font-family="sans-serif" font-size="14" font-style="italic" lengthAdjust="spacing" textLength="84" x="1441.25" y="403.4467">IArgEncoder</text><line style="stroke:#181818;stroke-width:0.5;" x1="1178.5" x2="1755.5" y1="414.6" y2="414.6"/><line style="stroke:#181818;stroke-width:0.5;" x1="1178.5" x2="1755.5" y1="422.6" y2="422.6"/><ellipse cx="1188.5" cy="436.2484" fill="#84BE84" rx="3" ry="3" style="stroke:#038048;stroke-width:1.0;"/><text fill="#000000" font-family="sans-serif" font-size="14" lengthAdjust="spacing" textLength="553" x="1197.5" y="439.5951">Encode(buffer: Span&lt;byte&gt;, bool verbose, bool msbf, arg: IDltArg): Result&lt;int&gt;</text></g><!--class DltArgEncoder--><g id="elem_DltArgEncoder"><rect codeLine="36" fill="#F1F1F1" height="64.2969" id="DltArgEncoder" rx="2.5" ry="2.5" style="stroke:#181818;stroke-width:0.5;" width="579" x="1424.5" y="523.89"/><ellipse cx="1659.75" cy="539.89" fill="#ADD1B2" rx="11" ry="11" style="stroke:#181818;stroke-width:1.0;"/><path d="M1662.7188,545.5306 Q1662.1406,545.8275 1661.5,545.9681 Q1660.8594,546.1244 1660.1563,546.1244 Q1657.6563,546.1244 1656.3281,544.4838 Q1655.0156,542.8275 1655.0156,539.7025 Q1655.0156,536.5775 1656.3281,534.9213 Q1657.6563,533.265 1660.1563,533.265 Q1660.8594,533.265 1661.5,533.4213 Q1662.1563,533.5775 1662.7188,533.8744 L1662.7188,536.5931 Q1662.0938,536.015 1661.5,535.7494 Q1660.9063,535.4681 1660.2813,535.4681 Q1658.9375,535.4681 1658.25,536.5463 Q1657.5625,537.6088 1657.5625,539.7025 Q1657.5625,541.7963 1658.25,542.8744 Q1658.9375,543.9369 1660.2813,543.9369 Q1660.9063,543.9369 1661.5,543.6713 Q1662.0938,543.39 1662.7188,542.8119 L1662.7188,545.5306 Z " fill="#000000"/><text fill="#000000" font-family="sans-serif" font-size="14" lengthAdjust="spacing" textLength="100" x="1680.25" y="544.7367">DltArgEncoder</text><line style="stroke:#181818;stroke-width:0.5;" x1="1425.5" x2="2002.5" y1="555.89" y2="555.89"/><line style="stroke:#181818;stroke-width:0.5;" x1="1425.5" x2="2002.5" y1="563.89" y2="563.89"/><ellipse cx="1435.5" cy="577.5384" fill="#84BE84" rx="3" ry="3" style="stroke:#038048;stroke-width:1.0;"/><text fill="#000000" font-family="sans-serif" font-size="14" lengthAdjust="spacing" textLength="553" x="1444.5" y="580.8851">Encode(buffer: Span&lt;byte&gt;, bool verbose, bool msbf, arg: IDltArg): Result&lt;int&gt;</text></g><!--class BoolArgEncoder--><g id="elem_BoolArgEncoder"><rect codeLine="42" fill="#F1F1F1" height="48" id="BoolArgEncoder" rx="2.5" ry="2.5" style="stroke:#181818;stroke-width:0.5;" width="144" x="1758" y="649.19"/><ellipse cx="1773" cy="665.19" fill="#ADD1B2" rx="11" ry="11" style="stroke:#181818;stroke-width:1.0;"/><path d="M1775.9688,670.8306 Q1775.3906,671.1275 1774.75,671.2681 Q1774.1094,671.4244 1773.4063,671.4244 Q1770.9063,671.4244 1769.5781,669.7838 Q1768.2656,668.1275 1768.2656,665.0025 Q1768.2656,661.8775 1769.5781,660.2213 Q1770.9063,658.565 1773.4063,658.565 Q1774.1094,658.565 1774.75,658.7213 Q1775.4063,658.8775 1775.9688,659.1744 L1775.9688,661.8931 Q1775.3438,661.315 1774.75,661.0494 Q1774.1563,660.7681 1773.5313,660.7681 Q1772.1875,660.7681 1771.5,661.8463 Q1770.8125,662.9088 1770.8125,665.0025 Q1770.8125,667.0963 1771.5,668.1744 Q1772.1875,669.2369 1773.5313,669.2369 Q1774.1563,669.2369 1774.75,668.9713 Q1775.3438,668.69 1775.9688,668.1119 L1775.9688,670.8306 Z " fill="#000000"/><text fill="#000000" font-family="sans-serif" font-size="14" lengthAdjust="spacing" textLength="112" x="1787" y="670.0367">BoolArgEncoder</text><line style="stroke:#181818;stroke-width:0.5;" x1="1759" x2="1901" y1="681.19" y2="681.19"/><line style="stroke:#181818;stroke-width:0.5;" x1="1759" x2="1901" y1="689.19" y2="689.19"/></g><!--class BinaryIntArgEncoder--><g id="elem_BinaryIntArgEncoder"><rect codeLine="44" fill="#F1F1F1" height="48" id="BinaryIntArgEncoder" rx="2.5" ry="2.5" style="stroke:#181818;stroke-width:0.5;" width="172" x="2168" y="649.19"/><ellipse cx="2183" cy="665.19" fill="#ADD1B2" rx="11" ry="11" style="stroke:#181818;stroke-width:1.0;"/><path d="M2185.9688,670.8306 Q2185.3906,671.1275 2184.75,671.2681 Q2184.1094,671.4244 2183.4063,671.4244 Q2180.9063,671.4244 2179.5781,669.7838 Q2178.2656,668.1275 2178.2656,665.0025 Q2178.2656,661.8775 2179.5781,660.2213 Q2180.9063,658.565 2183.4063,658.565 Q2184.1094,658.565 2184.75,658.7213 Q2185.4063,658.8775 2185.9688,659.1744 L2185.9688,661.8931 Q2185.3438,661.315 2184.75,661.0494 Q2184.1563,660.7681 2183.5313,660.7681 Q2182.1875,660.7681 2181.5,661.8463 Q2180.8125,662.9088 2180.8125,665.0025 Q2180.8125,667.0963 2181.5,668.1744 Q2182.1875,669.2369 2183.5313,669.2369 Q2184.1563,669.2369 2184.75,668.9713 Q2185.3438,668.69 2185.9688,668.1119 L2185.9688,670.8306 Z " fill="#000000"/><text fill="#000000" font-family="sans-serif" font-size="14" lengthAdjust="spacing" textLength="140" x="2197" y="670.0367">BinaryIntArgEncoder</text><line style="stroke:#181818;stroke-width:0.5;" x1="2169" x2="2339" y1="681.19" y2="681.19"/><line style="stroke:#181818;stroke-width:0.5;" x1="2169" x2="2339" y1="689.19" y2="689.19"/></g><!--class HexIntArgEncoder--><g id="elem_HexIntArgEncoder"><rect codeLine="45" fill="#F1F1F1" height="48" id="HexIntArgEncoder" rx="2.5" ry="2.5" style="stroke:#181818;stroke-width:0.5;" width="156" x="2375" y="649.19"/><ellipse cx="2390" cy="665.19" fill="#ADD1B2" rx="11" ry="11" style="stroke:#181818;stroke-width:1.0;"/><path d="M2392.9688,670.8306 Q2392.3906,671.1275 2391.75,671.2681 Q2391.1094,671.4244 2390.4063,671.4244 Q2387.9063,671.4244 2386.5781,669.7838 Q2385.2656,668.1275 2385.2656,665.0025 Q2385.2656,661.8775 2386.5781,660.2213 Q2387.9063,658.565 2390.4063,658.565 Q2391.1094,658.565 2391.75,658.7213 Q2392.4063,658.8775 2392.9688,659.1744 L2392.9688,661.8931 Q2392.3438,661.315 2391.75,661.0494 Q2391.1563,660.7681 2390.5313,660.7681 Q2389.1875,660.7681 2388.5,661.8463 Q2387.8125,662.9088 2387.8125,665.0025 Q2387.8125,667.0963 2388.5,668.1744 Q2389.1875,669.2369 2390.5313,669.2369 Q2391.1563,669.2369 2391.75,668.9713 Q2392.3438,668.69 2392.9688,668.1119 L2392.9688,670.8306 Z " fill="#000000"/><text fill="#000000" font-family="sans-serif" font-size="14" lengthAdjust="spacing" textLength="124" x="2404" y="670.0367">HexIntArgEncoder</text><line style="stroke:#181818;stroke-width:0.5;" x1="2376" x2="2530" y1="681.19" y2="681.19"/><line style="stroke:#181818;stroke-width:0.5;" x1="2376" x2="2530" y1="689.19" y2="689.19"/></g><!--class SignedIntArgEncoder--><g id="elem_SignedIntArgEncoder"><rect codeLine="46" fill="#F1F1F1" height="48" id="SignedIntArgEncoder" rx="2.5" ry="2.5" style="stroke:#181818;stroke-width:0.5;" width="178" x="2566" y="649.19"/><ellipse cx="2581" cy="665.19" fill="#ADD1B2" rx="11" ry="11" style="stroke:#181818;stroke-width:1.0;"/><path d="M2583.9688,670.8306 Q2583.3906,671.1275 2582.75,671.2681 Q2582.1094,671.4244 2581.4063,671.4244 Q2578.9063,671.4244 2577.5781,669.7838 Q2576.2656,668.1275 2576.2656,665.0025 Q2576.2656,661.8775 2577.5781,660.2213 Q2578.9063,658.565 2581.4063,658.565 Q2582.1094,658.565 2582.75,658.7213 Q2583.4063,658.8775 2583.9688,659.1744 L2583.9688,661.8931 Q2583.3438,661.315 2582.75,661.0494 Q2582.1563,660.7681 2581.5313,660.7681 Q2580.1875,660.7681 2579.5,661.8463 Q2578.8125,662.9088 2578.8125,665.0025 Q2578.8125,667.0963 2579.5,668.1744 Q2580.1875,669.2369 2581.5313,669.2369 Q2582.1563,669.2369 2582.75,668.9713 Q2583.3438,668.69 2583.9688,668.1119 L2583.9688,670.8306 Z " fill="#000000"/><text fill="#000000" font-family="sans-serif" font-size="14" lengthAdjust="spacing" textLength="146" x="2595" y="670.0367">SignedIntArgEncoder</text><line style="stroke:#181818;stroke-width:0.5;" x1="2567" x2="2743" y1="681.19" y2="681.19"/><line style="stroke:#181818;stroke-width:0.5;" x1="2567" x2="2743" y1="689.19" y2="689.19"/></g><!--class UnsignedIntArgEncoder--><g id="elem_UnsignedIntArgEncoder"><rect codeLine="47" fill="#F1F1F1" height="48" id="UnsignedIntArgEncoder" rx="2.5" ry="2.5" style="stroke:#181818;stroke-width:0.5;" width="196" x="1937" y="649.19"/><ellipse cx="1952" cy="665.19" fill="#ADD1B2" rx="11" ry="11" style="stroke:#181818;stroke-width:1.0;"/><path d="M1954.9688,670.8306 Q1954.3906,671.1275 1953.75,671.2681 Q1953.1094,671.4244 1952.4063,671.4244 Q1949.9063,671.4244 1948.5781,669.7838 Q1947.2656,668.1275 1947.2656,665.0025 Q1947.2656,661.8775 1948.5781,660.2213 Q1949.9063,658.565 1952.4063,658.565 Q1953.1094,658.565 1953.75,658.7213 Q1954.4063,658.8775 1954.9688,659.1744 L1954.9688,661.8931 Q1954.3438,661.315 1953.75,661.0494 Q1953.1563,660.7681 1952.5313,660.7681 Q1951.1875,660.7681 1950.5,661.8463 Q1949.8125,662.9088 1949.8125,665.0025 Q1949.8125,667.0963 1950.5,668.1744 Q1951.1875,669.2369 1952.5313,669.2369 Q1953.1563,669.2369 1953.75,668.9713 Q1954.3438,668.69 1954.9688,668.1119 L1954.9688,670.8306 Z " fill="#000000"/><text fill="#000000" font-family="sans-serif" font-size="14" lengthAdjust="spacing" textLength="164" x="1966" y="670.0367">UnsignedIntArgEncoder</text><line style="stroke:#181818;stroke-width:0.5;" x1="1938" x2="2132" y1="681.19" y2="681.19"/><line style="stroke:#181818;stroke-width:0.5;" x1="1938" x2="2132" y1="689.19" y2="689.19"/></g><!--class Float32ArgEncoder--><g id="elem_Float32ArgEncoder"><rect codeLine="50" fill="#F1F1F1" height="48" id="Float32ArgEncoder" rx="2.5" ry="2.5" style="stroke:#181818;stroke-width:0.5;" width="164" x="1171" y="649.19"/><ellipse cx="1186" cy="665.19" fill="#ADD1B2" rx="11" ry="11" style="stroke:#181818;stroke-width:1.0;"/><path d="M1188.9688,670.8306 Q1188.3906,671.1275 1187.75,671.2681 Q1187.1094,671.4244 1186.4063,671.4244 Q1183.9063,671.4244 1182.5781,669.7838 Q1181.2656,668.1275 1181.2656,665.0025 Q1181.2656,661.8775 1182.5781,660.2213 Q1183.9063,658.565 1186.4063,658.565 Q1187.1094,658.565 1187.75,658.7213 Q1188.4063,658.8775 1188.9688,659.1744 L1188.9688,661.8931 Q1188.3438,661.315 1187.75,661.0494 Q1187.1563,660.7681 1186.5313,660.7681 Q1185.1875,660.7681 1184.5,661.8463 Q1183.8125,662.9088 1183.8125,665.0025 Q1183.8125,667.0963 1184.5,668.1744 Q1185.1875,669.2369 1186.5313,669.2369 Q1187.1563,669.2369 1187.75,668.9713 Q1188.3438,668.69 1188.9688,668.1119 L1188.9688,670.8306 Z " fill="#000000"/><text fill="#000000" font-family="sans-serif" font-size="14" lengthAdjust="spacing" textLength="132" x="1200" y="670.0367">Float32ArgEncoder</text><line style="stroke:#181818;stroke-width:0.5;" x1="1172" x2="1334" y1="681.19" y2="681.19"/><line style="stroke:#181818;stroke-width:0.5;" x1="1172" x2="1334" y1="689.19" y2="689.19"/></g><!--class Float64ArgEncoder--><g id="elem_Float64ArgEncoder"><rect codeLine="51" fill="#F1F1F1" height="48" id="Float64ArgEncoder" rx="2.5" ry="2.5" style="stroke:#181818;stroke-width:0.5;" width="164" x="1370" y="649.19"/><ellipse cx="1385" cy="665.19" fill="#ADD1B2" rx="11" ry="11" style="stroke:#181818;stroke-width:1.0;"/><path d="M1387.9688,670.8306 Q1387.3906,671.1275 1386.75,671.2681 Q1386.1094,671.4244 1385.4063,671.4244 Q1382.9063,671.4244 1381.5781,669.7838 Q1380.2656,668.1275 1380.2656,665.0025 Q1380.2656,661.8775 1381.5781,660.2213 Q1382.9063,658.565 1385.4063,658.565 Q1386.1094,658.565 1386.75,658.7213 Q1387.4063,658.8775 1387.9688,659.1744 L1387.9688,661.8931 Q1387.3438,661.315 1386.75,661.0494 Q1386.1563,660.7681 1385.5313,660.7681 Q1384.1875,660.7681 1383.5,661.8463 Q1382.8125,662.9088 1382.8125,665.0025 Q1382.8125,667.0963 1383.5,668.1744 Q1384.1875,669.2369 1385.5313,669.2369 Q1386.1563,669.2369 1386.75,668.9713 Q1387.3438,668.69 1387.9688,668.1119 L1387.9688,670.8306 Z " fill="#000000"/><text fill="#000000" font-family="sans-serif" font-size="14" lengthAdjust="spacing" textLength="132" x="1399" y="670.0367">Float64ArgEncoder</text><line style="stroke:#181818;stroke-width:0.5;" x1="1371" x2="1533" y1="681.19" y2="681.19"/><line style="stroke:#181818;stroke-width:0.5;" x1="1371" x2="1533" y1="689.19" y2="689.19"/></g><!--class StringArgEncoder--><g id="elem_StringArgEncoder"><rect codeLine="53" fill="#F1F1F1" height="48" id="StringArgEncoder" rx="2.5" ry="2.5" style="stroke:#181818;stroke-width:0.5;" width="153" x="1569.5" y="649.19"/><ellipse cx="1584.5" cy="665.19" fill="#ADD1B2" rx="11" ry="11" style="stroke:#181818;stroke-width:1.0;"/><path d="M1587.4688,670.8306 Q1586.8906,671.1275 1586.25,671.2681 Q1585.6094,671.4244 1584.9063,671.4244 Q1582.4063,671.4244 1581.0781,669.7838 Q1579.7656,668.1275 1579.7656,665.0025 Q1579.7656,661.8775 1581.0781,660.2213 Q1582.4063,658.565 1584.9063,658.565 Q1585.6094,658.565 1586.25,658.7213 Q1586.9063,658.8775 1587.4688,659.1744 L1587.4688,661.8931 Q1586.8438,661.315 1586.25,661.0494 Q1585.6563,660.7681 1585.0313,660.7681 Q1583.6875,660.7681 1583,661.8463 Q1582.3125,662.9088 1582.3125,665.0025 Q1582.3125,667.0963 1583,668.1744 Q1583.6875,669.2369 1585.0313,669.2369 Q1585.6563,669.2369 1586.25,668.9713 Q1586.8438,668.69 1587.4688,668.1119 L1587.4688,670.8306 Z " fill="#000000"/><text fill="#000000" font-family="sans-serif" font-size="14" lengthAdjust="spacing" textLength="121" x="1598.5" y="670.0367">StringArgEncoder</text><line style="stroke:#181818;stroke-width:0.5;" x1="1570.5" x2="1721.5" y1="681.19" y2="681.19"/><line style="stroke:#181818;stroke-width:0.5;" x1="1570.5" x2="1721.5" y1="689.19" y2="689.19"/></g><!--class RawArgEncoder--><g id="elem_RawArgEncoder"><rect codeLine="54" fill="#F1F1F1" height="48" id="RawArgEncoder" rx="2.5" ry="2.5" style="stroke:#181818;stroke-width:0.5;" width="142" x="994" y="649.19"/><ellipse cx="1009" cy="665.19" fill="#ADD1B2" rx="11" ry="11" style="stroke:#181818;stroke-width:1.0;"/><path d="M1011.9688,670.8306 Q1011.3906,671.1275 1010.75,671.2681 Q1010.1094,671.4244 1009.4063,671.4244 Q1006.9063,671.4244 1005.5781,669.7838 Q1004.2656,668.1275 1004.2656,665.0025 Q1004.2656,661.8775 1005.5781,660.2213 Q1006.9063,658.565 1009.4063,658.565 Q1010.1094,658.565 1010.75,658.7213 Q1011.4063,658.8775 1011.9688,659.1744 L1011.9688,661.8931 Q1011.3438,661.315 1010.75,661.0494 Q1010.1563,660.7681 1009.5313,660.7681 Q1008.1875,660.7681 1007.5,661.8463 Q1006.8125,662.9088 1006.8125,665.0025 Q1006.8125,667.0963 1007.5,668.1744 Q1008.1875,669.2369 1009.5313,669.2369 Q1010.1563,669.2369 1010.75,668.9713 Q1011.3438,668.69 1011.9688,668.1119 L1011.9688,670.8306 Z " fill="#000000"/><text fill="#000000" font-family="sans-serif" font-size="14" lengthAdjust="spacing" textLength="110" x="1023" y="670.0367">RawArgEncoder</text><line style="stroke:#181818;stroke-width:0.5;" x1="995" x2="1135" y1="681.19" y2="681.19"/><line style="stroke:#181818;stroke-width:0.5;" x1="995" x2="1135" y1="689.19" y2="689.19"/></g><!--class NonVerboseArgEncoder--><g id="elem_NonVerboseArgEncoder"><rect codeLine="55" fill="#F1F1F1" height="48" id="NonVerboseArgEncoder" rx="2.5" ry="2.5" style="stroke:#181818;stroke-width:0.5;" width="199" x="760.5" y="649.19"/><ellipse cx="775.5" cy="665.19" fill="#ADD1B2" rx="11" ry="11" style="stroke:#181818;stroke-width:1.0;"/><path d="M778.4688,670.8306 Q777.8906,671.1275 777.25,671.2681 Q776.6094,671.4244 775.9063,671.4244 Q773.4063,671.4244 772.0781,669.7838 Q770.7656,668.1275 770.7656,665.0025 Q770.7656,661.8775 772.0781,660.2213 Q773.4063,658.565 775.9063,658.565 Q776.6094,658.565 777.25,658.7213 Q777.9063,658.8775 778.4688,659.1744 L778.4688,661.8931 Q777.8438,661.315 777.25,661.0494 Q776.6563,660.7681 776.0313,660.7681 Q774.6875,660.7681 774,661.8463 Q773.3125,662.9088 773.3125,665.0025 Q773.3125,667.0963 774,668.1744 Q774.6875,669.2369 776.0313,669.2369 Q776.6563,669.2369 777.25,668.9713 Q777.8438,668.69 778.4688,668.1119 L778.4688,670.8306 Z " fill="#000000"/><text fill="#000000" font-family="sans-serif" font-size="14" lengthAdjust="spacing" textLength="167" x="789.5" y="670.0367">NonVerboseArgEncoder</text><line style="stroke:#181818;stroke-width:0.5;" x1="761.5" x2="958.5" y1="681.19" y2="681.19"/><line style="stroke:#181818;stroke-width:0.5;" x1="761.5" x2="958.5" y1="689.19" y2="689.19"/></g><!--class UnknownVerboseArgEncoder--><g id="elem_UnknownVerboseArgEncoder"><rect codeLine="56" fill="#F1F1F1" height="48" id="UnknownVerboseArgEncoder" rx="2.5" ry="2.5" style="stroke:#181818;stroke-width:0.5;" width="236" x="489" y="649.19"/><ellipse cx="504" cy="665.19" fill="#ADD1B2" rx="11" ry="11" style="stroke:#181818;stroke-width:1.0;"/><path d="M506.9688,670.8306 Q506.3906,671.1275 505.75,671.2681 Q505.1094,671.4244 504.4063,671.4244 Q501.9063,671.4244 500.5781,669.7838 Q499.2656,668.1275 499.2656,665.0025 Q499.2656,661.8775 500.5781,660.2213 Q501.9063,658.565 504.4063,658.565 Q505.1094,658.565 505.75,658.7213 Q506.4063,658.8775 506.9688,659.1744 L506.9688,661.8931 Q506.3438,661.315 505.75,661.0494 Q505.1563,660.7681 504.5313,660.7681 Q503.1875,660.7681 502.5,661.8463 Q501.8125,662.9088 501.8125,665.0025 Q501.8125,667.0963 502.5,668.1744 Q503.1875,669.2369 504.5313,669.2369 Q505.1563,669.2369 505.75,668.9713 Q506.3438,668.69 506.9688,668.1119 L506.9688,670.8306 Z " fill="#000000"/><text fill="#000000" font-family="sans-serif" font-size="14" lengthAdjust="spacing" textLength="204" x="518" y="670.0367">UnknownVerboseArgEncoder</text><line style="stroke:#181818;stroke-width:0.5;" x1="490" x2="724" y1="681.19" y2="681.19"/><line style="stroke:#181818;stroke-width:0.5;" x1="490" x2="724" y1="689.19" y2="689.19"/></g><!--class BinaryIntDltArg--><g id="elem_BinaryIntDltArg"><rect fill="#F1F1F1" height="48" id="BinaryIntDltArg" rx="2.5" ry="2.5" style="stroke:#181818;stroke-width:0.5;" width="133" x="2187.5" y="789.19"/><ellipse cx="2202.5" cy="805.19" fill="#ADD1B2" rx="11" ry="11" style="stroke:#181818;stroke-width:1.0;"/><path d="M2205.4688,810.8306 Q2204.8906,811.1275 2204.25,811.2681 Q2203.6094,811.4244 2202.9063,811.4244 Q2200.4063,811.4244 2199.0781,809.7838 Q2197.7656,808.1275 2197.7656,805.0025 Q2197.7656,801.8775 2199.0781,800.2213 Q2200.4063,798.565 2202.9063,798.565 Q2203.6094,798.565 2204.25,798.7213 Q2204.9063,798.8775 2205.4688,799.1744 L2205.4688,801.8931 Q2204.8438,801.315 2204.25,801.0494 Q2203.6563,800.7681 2203.0313,800.7681 Q2201.6875,800.7681 2201,801.8463 Q2200.3125,802.9088 2200.3125,805.0025 Q2200.3125,807.0963 2201,808.1744 Q2201.6875,809.2369 2203.0313,809.2369 Q2203.6563,809.2369 2204.25,808.9713 Q2204.8438,808.69 2205.4688,808.1119 L2205.4688,810.8306 Z " fill="#000000"/><text fill="#000000" font-family="sans-serif" font-size="14" lengthAdjust="spacing" textLength="101" x="2216.5" y="810.0367">BinaryIntDltArg</text><line style="stroke:#181818;stroke-width:0.5;" x1="2188.5" x2="2319.5" y1="821.19" y2="821.19"/><line style="stroke:#181818;stroke-width:0.5;" x1="2188.5" x2="2319.5" y1="829.19" y2="829.19"/></g><!--class HexIntDltArg--><g id="elem_HexIntDltArg"><rect fill="#F1F1F1" height="48" id="HexIntDltArg" rx="2.5" ry="2.5" style="stroke:#181818;stroke-width:0.5;" width="117" x="2394.5" y="789.19"/><ellipse cx="2409.5" cy="805.19" fill="#ADD1B2" rx="11" ry="11" style="stroke:#181818;stroke-width:1.0;"/><path d="M2412.4688,810.8306 Q2411.8906,811.1275 2411.25,811.2681 Q2410.6094,811.4244 2409.9063,811.4244 Q2407.4063,811.4244 2406.0781,809.7838 Q2404.7656,808.1275 2404.7656,805.0025 Q2404.7656,801.8775 2406.0781,800.2213 Q2407.4063,798.565 2409.9063,798.565 Q2410.6094,798.565 2411.25,798.7213 Q2411.9063,798.8775 2412.4688,799.1744 L2412.4688,801.8931 Q2411.8438,801.315 2411.25,801.0494 Q2410.6563,800.7681 2410.0313,800.7681 Q2408.6875,800.7681 2408,801.8463 Q2407.3125,802.9088 2407.3125,805.0025 Q2407.3125,807.0963 2408,808.1744 Q2408.6875,809.2369 2410.0313,809.2369 Q2410.6563,809.2369 2411.25,808.9713 Q2411.8438,808.69 2412.4688,808.1119 L2412.4688,810.8306 Z " fill="#000000"/><text fill="#000000" font-family="sans-serif" font-size="14" lengthAdjust="spacing" textLength="85" x="2423.5" y="810.0367">HexIntDltArg</text><line style="stroke:#181818;stroke-width:0.5;" x1="2395.5" x2="2510.5" y1="821.19" y2="821.19"/><line style="stroke:#181818;stroke-width:0.5;" x1="2395.5" x2="2510.5" y1="829.19" y2="829.19"/></g><!--class SignedIntDltArg--><g id="elem_SignedIntDltArg"><rect fill="#F1F1F1" height="48" id="SignedIntDltArg" rx="2.5" ry="2.5" style="stroke:#181818;stroke-width:0.5;" width="139" x="2585.5" y="789.19"/><ellipse cx="2600.5" cy="805.19" fill="#ADD1B2" rx="11" ry="11" style="stroke:#181818;stroke-width:1.0;"/><path d="M2603.4688,810.8306 Q2602.8906,811.1275 2602.25,811.2681 Q2601.6094,811.4244 2600.9063,811.4244 Q2598.4063,811.4244 2597.0781,809.7838 Q2595.7656,808.1275 2595.7656,805.0025 Q2595.7656,801.8775 2597.0781,800.2213 Q2598.4063,798.565 2600.9063,798.565 Q2601.6094,798.565 2602.25,798.7213 Q2602.9063,798.8775 2603.4688,799.1744 L2603.4688,801.8931 Q2602.8438,801.315 2602.25,801.0494 Q2601.6563,800.7681 2601.0313,800.7681 Q2599.6875,800.7681 2599,801.8463 Q2598.3125,802.9088 2598.3125,805.0025 Q2598.3125,807.0963 2599,808.1744 Q2599.6875,809.2369 2601.0313,809.2369 Q2601.6563,809.2369 2602.25,808.9713 Q2602.8438,808.69 2603.4688,808.1119 L2603.4688,810.8306 Z " fill="#000000"/><text fill="#000000" font-family="sans-serif" font-size="14" lengthAdjust="spacing" textLength="107" x="2614.5" y="810.0367">SignedIntDltArg</text><line style="stroke:#181818;stroke-width:0.5;" x1="2586.5" x2="2723.5" y1="821.19" y2="821.19"/><line style="stroke:#181818;stroke-width:0.5;" x1="2586.5" x2="2723.5" y1="829.19" y2="829.19"/></g><!--class UnsignedIntDltArg--><g id="elem_UnsignedIntDltArg"><rect fill="#F1F1F1" height="48" id="UnsignedIntDltArg" rx="2.5" ry="2.5" style="stroke:#181818;stroke-width:0.5;" width="157" x="1956.5" y="789.19"/><ellipse cx="1971.5" cy="805.19" fill="#ADD1B2" rx="11" ry="11" style="stroke:#181818;stroke-width:1.0;"/><path d="M1974.4688,810.8306 Q1973.8906,811.1275 1973.25,811.2681 Q1972.6094,811.4244 1971.9063,811.4244 Q1969.4063,811.4244 1968.0781,809.7838 Q1966.7656,808.1275 1966.7656,805.0025 Q1966.7656,801.8775 1968.0781,800.2213 Q1969.4063,798.565 1971.9063,798.565 Q1972.6094,798.565 1973.25,798.7213 Q1973.9063,798.8775 1974.4688,799.1744 L1974.4688,801.8931 Q1973.8438,801.315 1973.25,801.0494 Q1972.6563,800.7681 1972.0313,800.7681 Q1970.6875,800.7681 1970,801.8463 Q1969.3125,802.9088 1969.3125,805.0025 Q1969.3125,807.0963 1970,808.1744 Q1970.6875,809.2369 1972.0313,809.2369 Q1972.6563,809.2369 1973.25,808.9713 Q1973.8438,808.69 1974.4688,808.1119 L1974.4688,810.8306 Z " fill="#000000"/><text fill="#000000" font-family="sans-serif" font-size="14" lengthAdjust="spacing" textLength="125" x="1985.5" y="810.0367">UnsignedIntDltArg</text><line style="stroke:#181818;stroke-width:0.5;" x1="1957.5" x2="2112.5" y1="821.19" y2="821.19"/><line style="stroke:#181818;stroke-width:0.5;" x1="1957.5" x2="2112.5" y1="829.19" y2="829.19"/></g><!--class BoolDltArg--><g id="elem_BoolDltArg"><rect fill="#F1F1F1" height="48" id="BoolDltArg" rx="2.5" ry="2.5" style="stroke:#181818;stroke-width:0.5;" width="105" x="1777.5" y="789.19"/><ellipse cx="1792.5" cy="805.19" fill="#ADD1B2" rx="11" ry="11" style="stroke:#181818;stroke-width:1.0;"/><path d="M1795.4688,810.8306 Q1794.8906,811.1275 1794.25,811.2681 Q1793.6094,811.4244 1792.9063,811.4244 Q1790.4063,811.4244 1789.0781,809.7838 Q1787.7656,808.1275 1787.7656,805.0025 Q1787.7656,801.8775 1789.0781,800.2213 Q1790.4063,798.565 1792.9063,798.565 Q1793.6094,798.565 1794.25,798.7213 Q1794.9063,798.8775 1795.4688,799.1744 L1795.4688,801.8931 Q1794.8438,801.315 1794.25,801.0494 Q1793.6563,800.7681 1793.0313,800.7681 Q1791.6875,800.7681 1791,801.8463 Q1790.3125,802.9088 1790.3125,805.0025 Q1790.3125,807.0963 1791,808.1744 Q1791.6875,809.2369 1793.0313,809.2369 Q1793.6563,809.2369 1794.25,808.9713 Q1794.8438,808.69 1795.4688,808.1119 L1795.4688,810.8306 Z " fill="#000000"/><text fill="#000000" font-family="sans-serif" font-size="14" lengthAdjust="spacing" textLength="73" x="1806.5" y="810.0367">BoolDltArg</text><line style="stroke:#181818;stroke-width:0.5;" x1="1778.5" x2="1881.5" y1="821.19" y2="821.19"/><line style="stroke:#181818;stroke-width:0.5;" x1="1778.5" x2="1881.5" y1="829.19" y2="829.19"/></g><!--class Float32DltArg--><g id="elem_Float32DltArg"><rect fill="#F1F1F1" height="48" id="Float32DltArg" rx="2.5" ry="2.5" style="stroke:#181818;stroke-width:0.5;" width="125" x="1197.5" y="789.19"/><ellipse cx="1212.5" cy="805.19" fill="#ADD1B2" rx="11" ry="11" style="stroke:#181818;stroke-width:1.0;"/><path d="M1215.4688,810.8306 Q1214.8906,811.1275 1214.25,811.2681 Q1213.6094,811.4244 1212.9063,811.4244 Q1210.4063,811.4244 1209.0781,809.7838 Q1207.7656,808.1275 1207.7656,805.0025 Q1207.7656,801.8775 1209.0781,800.2213 Q1210.4063,798.565 1212.9063,798.565 Q1213.6094,798.565 1214.25,798.7213 Q1214.9063,798.8775 1215.4688,799.1744 L1215.4688,801.8931 Q1214.8438,801.315 1214.25,801.0494 Q1213.6563,800.7681 1213.0313,800.7681 Q1211.6875,800.7681 1211,801.8463 Q1210.3125,802.9088 1210.3125,805.0025 Q1210.3125,807.0963 1211,808.1744 Q1211.6875,809.2369 1213.0313,809.2369 Q1213.6563,809.2369 1214.25,808.9713 Q1214.8438,808.69 1215.4688,808.1119 L1215.4688,810.8306 Z " fill="#000000"/><text fill="#000000" font-family="sans-serif" font-size="14" lengthAdjust="spacing" textLength="93" x="1226.5" y="810.0367">Float32DltArg</text><line style="stroke:#181818;stroke-width:0.5;" x1="1198.5" x2="1321.5" y1="821.19" y2="821.19"/><line style="stroke:#181818;stroke-width:0.5;" x1="1198.5" x2="1321.5" y1="829.19" y2="829.19"/></g><!--class Float64DltArg--><g id="elem_Float64DltArg"><rect fill="#F1F1F1" height="48" id="Float64DltArg" rx="2.5" ry="2.5" style="stroke:#181818;stroke-width:0.5;" width="125" x="1389.5" y="789.19"/><ellipse cx="1404.5" cy="805.19" fill="#ADD1B2" rx="11" ry="11" style="stroke:#181818;stroke-width:1.0;"/><path d="M1407.4688,810.8306 Q1406.8906,811.1275 1406.25,811.2681 Q1405.6094,811.4244 1404.9063,811.4244 Q1402.4063,811.4244 1401.0781,809.7838 Q1399.7656,808.1275 1399.7656,805.0025 Q1399.7656,801.8775 1401.0781,800.2213 Q1402.4063,798.565 1404.9063,798.565 Q1405.6094,798.565 1406.25,798.7213 Q1406.9063,798.8775 1407.4688,799.1744 L1407.4688,801.8931 Q1406.8438,801.315 1406.25,801.0494 Q1405.6563,800.7681 1405.0313,800.7681 Q1403.6875,800.7681 1403,801.8463 Q1402.3125,802.9088 1402.3125,805.0025 Q1402.3125,807.0963 1403,808.1744 Q1403.6875,809.2369 1405.0313,809.2369 Q1405.6563,809.2369 1406.25,808.9713 Q1406.8438,808.69 1407.4688,808.1119 L1407.4688,810.8306 Z " fill="#000000"/><text fill="#000000" font-family="sans-serif" font-size="14" lengthAdjust="spacing" textLength="93" x="1418.5" y="810.0367">Float64DltArg</text><line style="stroke:#181818;stroke-width:0.5;" x1="1390.5" x2="1513.5" y1="821.19" y2="821.19"/><line style="stroke:#181818;stroke-width:0.5;" x1="1390.5" x2="1513.5" y1="829.19" y2="829.19"/></g><!--class StringDltArg--><g id="elem_StringDltArg"><rect fill="#F1F1F1" height="48" id="StringDltArg" rx="2.5" ry="2.5" style="stroke:#181818;stroke-width:0.5;" width="114" x="1589" y="789.19"/><ellipse cx="1604" cy="805.19" fill="#ADD1B2" rx="11" ry="11" style="stroke:#181818;stroke-width:1.0;"/><path d="M1606.9688,810.8306 Q1606.3906,811.1275 1605.75,811.2681 Q1605.1094,811.4244 1604.4063,811.4244 Q1601.9063,811.4244 1600.5781,809.7838 Q1599.2656,808.1275 1599.2656,805.0025 Q1599.2656,801.8775 1600.5781,800.2213 Q1601.9063,798.565 1604.4063,798.565 Q1605.1094,798.565 1605.75,798.7213 Q1606.4063,798.8775 1606.9688,799.1744 L1606.9688,801.8931 Q1606.3438,801.315 1605.75,801.0494 Q1605.1563,800.7681 1604.5313,800.7681 Q1603.1875,800.7681 1602.5,801.8463 Q1601.8125,802.9088 1601.8125,805.0025 Q1601.8125,807.0963 1602.5,808.1744 Q1603.1875,809.2369 1604.5313,809.2369 Q1605.1563,809.2369 1605.75,808.9713 Q1606.3438,808.69 1606.9688,808.1119 L1606.9688,810.8306 Z " fill="#000000"/><text fill="#000000" font-family="sans-serif" font-size="14" lengthAdjust="spacing" textLength="82" x="1618" y="810.0367">StringDltArg</text><line style="stroke:#181818;stroke-width:0.5;" x1="1590" x2="1702" y1="821.19" y2="821.19"/><line style="stroke:#181818;stroke-width:0.5;" x1="1590" x2="1702" y1="829.19" y2="829.19"/></g><!--class RawDltArg--><g id="elem_RawDltArg"><rect fill="#F1F1F1" height="48" id="RawDltArg" rx="2.5" ry="2.5" style="stroke:#181818;stroke-width:0.5;" width="103" x="832.5" y="789.19"/><ellipse cx="847.5" cy="805.19" fill="#ADD1B2" rx="11" ry="11" style="stroke:#181818;stroke-width:1.0;"/><path d="M850.4688,810.8306 Q849.8906,811.1275 849.25,811.2681 Q848.6094,811.4244 847.9063,811.4244 Q845.4063,811.4244 844.0781,809.7838 Q842.7656,808.1275 842.7656,805.0025 Q842.7656,801.8775 844.0781,800.2213 Q845.4063,798.565 847.9063,798.565 Q848.6094,798.565 849.25,798.7213 Q849.9063,798.8775 850.4688,799.1744 L850.4688,801.8931 Q849.8438,801.315 849.25,801.0494 Q848.6563,800.7681 848.0313,800.7681 Q846.6875,800.7681 846,801.8463 Q845.3125,802.9088 845.3125,805.0025 Q845.3125,807.0963 846,808.1744 Q846.6875,809.2369 848.0313,809.2369 Q848.6563,809.2369 849.25,808.9713 Q849.8438,808.69 850.4688,808.1119 L850.4688,810.8306 Z " fill="#000000"/><text fill="#000000" font-family="sans-serif" font-size="14" lengthAdjust="spacing" textLength="71" x="861.5" y="810.0367">RawDltArg</text><line style="stroke:#181818;stroke-width:0.5;" x1="833.5" x2="934.5" y1="821.19" y2="821.19"/><line style="stroke:#181818;stroke-width:0.5;" x1="833.5" x2="934.5" y1="829.19" y2="829.19"/></g><!--class NonVerboseDltArg--><g id="elem_NonVerboseDltArg"><rect fill="#F1F1F1" height="48" id="NonVerboseDltArg" rx="2.5" ry="2.5" style="stroke:#181818;stroke-width:0.5;" width="160" x="1003" y="789.19"/><ellipse cx="1018" cy="805.19" fill="#ADD1B2" rx="11" ry="11" style="stroke:#181818;stroke-width:1.0;"/><path d="M1020.9688,810.8306 Q1020.3906,811.1275 1019.75,811.2681 Q1019.1094,811.4244 1018.4063,811.4244 Q1015.9063,811.4244 1014.5781,809.7838 Q1013.2656,808.1275 1013.2656,805.0025 Q1013.2656,801.8775 1014.5781,800.2213 Q1015.9063,798.565 1018.4063,798.565 Q1019.1094,798.565 1019.75,798.7213 Q1020.4063,798.8775 1020.9688,799.1744 L1020.9688,801.8931 Q1020.3438,801.315 1019.75,801.0494 Q1019.1563,800.7681 1018.5313,800.7681 Q1017.1875,800.7681 1016.5,801.8463 Q1015.8125,802.9088 1015.8125,805.0025 Q1015.8125,807.0963 1016.5,808.1744 Q1017.1875,809.2369 1018.5313,809.2369 Q1019.1563,809.2369 1019.75,808.9713 Q1020.3438,808.69 1020.9688,808.1119 L1020.9688,810.8306 Z " fill="#000000"/><text fill="#000000" font-family="sans-serif" font-size="14" lengthAdjust="spacing" textLength="128" x="1032" y="810.0367">NonVerboseDltArg</text><line style="stroke:#181818;stroke-width:0.5;" x1="1004" x2="1162" y1="821.19" y2="821.19"/><line style="stroke:#181818;stroke-width:0.5;" x1="1004" x2="1162" y1="829.19" y2="829.19"/></g><!--class UnknownVerboseDltArg--><g id="elem_UnknownVerboseDltArg"><rect fill="#F1F1F1" height="48" id="UnknownVerboseDltArg" rx="2.5" ry="2.5" style="stroke:#181818;stroke-width:0.5;" width="197" x="581.5" y="789.19"/><ellipse cx="596.5" cy="805.19" fill="#ADD1B2" rx="11" ry="11" style="stroke:#181818;stroke-width:1.0;"/><path d="M599.4688,810.8306 Q598.8906,811.1275 598.25,811.2681 Q597.6094,811.4244 596.9063,811.4244 Q594.4063,811.4244 593.0781,809.7838 Q591.7656,808.1275 591.7656,805.0025 Q591.7656,801.8775 593.0781,800.2213 Q594.4063,798.565 596.9063,798.565 Q597.6094,798.565 598.25,798.7213 Q598.9063,798.8775 599.4688,799.1744 L599.4688,801.8931 Q598.8438,801.315 598.25,801.0494 Q597.6563,800.7681 597.0313,800.7681 Q595.6875,800.7681 595,801.8463 Q594.3125,802.9088 594.3125,805.0025 Q594.3125,807.0963 595,808.1744 Q595.6875,809.2369 597.0313,809.2369 Q597.6563,809.2369 598.25,808.9713 Q598.8438,808.69 599.4688,808.1119 L599.4688,810.8306 Z " fill="#000000"/><text fill="#000000" font-family="sans-serif" font-size="14" lengthAdjust="spacing" textLength="165" x="610.5" y="810.0367">UnknownVerboseDltArg</text><line style="stroke:#181818;stroke-width:0.5;" x1="582.5" x2="777.5" y1="821.19" y2="821.19"/><line style="stroke:#181818;stroke-width:0.5;" x1="582.5" x2="777.5" y1="829.19" y2="829.19"/></g><!--reverse link IDisposable to ITraceEncoder--><g id="link_IDisposable_ITraceEncoder"><path codeLine="6" d="M695,76.01 C695,89.19 695,103.38 695,115.59 " fill="none" id="IDisposable-backto-ITraceEncoder" style="stroke:#181818;stroke-width:1.0;stroke-dasharray:7.0,7.0;"/><polygon fill="none" points="688,76.3,695,56.3,702,76.3,688,76.3" style="stroke:#181818;stroke-width:1.0;"/></g><!--reverse link ITraceEncoderFactory to DltTraceEncoderFactory--><g id="link_ITraceEncoderFactory_DltTraceEncoderFactory"><path codeLine="15" d="M180,201.51 C180,220.17 180,240.6 180,256.96 " fill="none" id="ITraceEncoderFactory-backto-DltTraceEncoderFactory" style="stroke:#181818;stroke-width:1.0;stroke-dasharray:7.0,7.0;"/><polygon fill="none" points="173,201.76,180,181.76,187,201.76,173,201.76" style="stroke:#181818;stroke-width:1.0;"/><text fill="#000000" font-family="sans-serif" font-size="13" lengthAdjust="spacing" textLength="168" x="181" y="223.3669">TLine -&gt; DltTraceLineBase</text></g><!--reverse link ITraceEncoder to DltTraceEncoder--><g id="link_ITraceEncoder_DltTraceEncoder"><path codeLine="20" d="M695,201.51 C695,220.17 695,240.6 695,256.96 " fill="none" id="ITraceEncoder-backto-DltTraceEncoder" style="stroke:#181818;stroke-width:1.0;stroke-dasharray:7.0,7.0;"/><polygon fill="none" points="688,201.76,695,181.76,702,201.76,688,201.76" style="stroke:#181818;stroke-width:1.0;"/><text fill="#000000" font-family="sans-serif" font-size="13" lengthAdjust="spacing" textLength="168" x="696" y="223.3669">TLine -&gt; DltTraceLineBase</text></g><!--link DltTraceEncoderFactory to DltTraceEncoder--><g id="link_DltTraceEncoderFactory_DltTraceEncoder"><path codeLine="21" d="M353.28,289.45 C383.53,289.45 415.52,289.45 447.31,289.45 " fill="none" id="DltTraceEncoderFactory-to-DltTraceEncoder" style="stroke:#181818;stroke-width:1.0;"/><polygon fill="#181818" points="452.25,289.45,443.25,285.45,447.25,289.45,443.25,293.45,452.25,289.45" style="stroke:#181818;stroke-width:1.0;"/><text fill="#000000" font-family="sans-serif" font-size="13" lengthAdjust="spacing" textLength="64" x="371.25" y="282.5169">&#171;creates&#187;</text></g><!--reverse link IDltEncoder to VerboseDltEncoder--><g id="link_IDltEncoder_VerboseDltEncoder"><path codeLine="30" d="M695,468.1 C695,486.76 695,507.19 695,523.56 " fill="none" id="IDltEncoder-backto-VerboseDltEncoder" style="stroke:#181818;stroke-width:1.0;stroke-dasharray:7.0,7.0;"/><polygon fill="none" points="688,468.35,695,448.35,702,468.35,688,468.35" style="stroke:#181818;stroke-width:1.0;"/><text fill="#000000" font-family="sans-serif" font-size="13" lengthAdjust="spacing" textLength="136" x="696" y="489.9569">TLine -&gt; DltTraceLine</text></g><!--reverse link IArgEncoder to DltArgEncoder--><g id="link_IArgEncoder_DltArgEncoder"><path codeLine="39" d="M1541.11,457.54 C1578.68,478.73 1623.56,504.04 1658.17,523.56 " fill="none" id="IArgEncoder-backto-DltArgEncoder" style="stroke:#181818;stroke-width:1.0;stroke-dasharray:7.0,7.0;"/><polygon fill="none" points="1538.03,463.28,1524.05,447.35,1544.91,451.08,1538.03,463.28" style="stroke:#181818;stroke-width:1.0;"/></g><!--reverse link VerboseDltEncoder to DltArgEncoder--><g id="link_VerboseDltEncoder_DltArgEncoder"><path codeLine="40" d="M933.2,556.04 C1096.86,556.04 1260.52,556.04 1424.17,556.04 " fill="none" id="VerboseDltEncoder-backto-DltArgEncoder" style="stroke:#181818;stroke-width:1.0;"/><polygon fill="#181818" points="920.4,556.04,926.4,560.04,932.4,556.04,926.4,552.04,920.4,556.04" style="stroke:#181818;stroke-width:1.0;"/></g><!--reverse link IArgEncoder to BinaryIntArgEncoder--><g id="link_IArgEncoder_BinaryIntArgEncoder"><path codeLine="57" d="M1777.72,433.2 C1881.79,442.53 1983.23,456.45 2030,476.89 C2120.53,516.48 2200.96,606.12 2235.75,648.78 " fill="none" id="IArgEncoder-backto-BinaryIntArgEncoder" style="stroke:#181818;stroke-width:1.0;stroke-dasharray:7.0,7.0;"/><polygon fill="none" points="1777.21,440.1,1757.88,431.4,1778.41,426.15,1777.21,440.1" style="stroke:#181818;stroke-width:1.0;"/></g><!--reverse link IArgEncoder to HexIntArgEncoder--><g id="link_IArgEncoder_HexIntArgEncoder"><path codeLine="58" d="M1777.69,426.76 C1873.06,435.57 1977.48,450.8 2071,476.89 C2117.92,489.98 2126.42,502.14 2170,523.89 C2255.61,566.63 2354.34,619.1 2409.64,648.79 " fill="none" id="IArgEncoder-backto-HexIntArgEncoder" style="stroke:#181818;stroke-width:1.0;stroke-dasharray:7.0,7.0;"/><polygon fill="none" points="1777.16,433.65,1757.86,424.93,1778.39,419.71,1777.16,433.65" style="stroke:#181818;stroke-width:1.0;"/></g><!--reverse link IArgEncoder to SignedIntArgEncoder--><g id="link_IArgEncoder_SignedIntArgEncoder"><path codeLine="59" d="M1777.72,429.95 C1886.51,438.85 2008.94,453.33 2119,476.89 C2182.36,490.46 2195.97,502.14 2257,523.89 C2376.81,566.61 2515.87,619.09 2593.83,648.78 " fill="none" id="IArgEncoder-backto-SignedIntArgEncoder" style="stroke:#181818;stroke-width:1.0;stroke-dasharray:7.0,7.0;"/><polygon fill="none" points="1777.25,436.85,1757.87,428.3,1778.36,422.9,1777.25,436.85" style="stroke:#181818;stroke-width:1.0;"/></g><!--reverse link IArgEncoder to UnsignedIntArgEncoder--><g id="link_IArgEncoder_UnsignedIntArgEncoder"><path codeLine="60" d="M1777.39,440.5 C1862.97,449.99 1943.2,462.16 1983,476.89 C2018.14,489.91 2035.37,490.82 2053,523.89 C2074.29,563.83 2058.19,618.23 2045.78,648.81 " fill="none" id="IArgEncoder-backto-UnsignedIntArgEncoder" style="stroke:#181818;stroke-width:1.0;stroke-dasharray:7.0,7.0;"/><polygon fill="none" points="1776.85,447.38,1757.72,438.27,1778.36,433.46,1776.85,447.38" style="stroke:#181818;stroke-width:1.0;"/></g><!--reverse link IArgEncoder to BoolArgEncoder--><g id="link_IArgEncoder_BoolArgEncoder"><path codeLine="61" d="M1777.41,441.84 C1885.24,457.85 1987.64,483.39 2021,523.89 C2039.17,545.95 2036.62,564.26 2021,588.19 C2013.33,599.95 1944.93,628.26 1892.15,648.77 " fill="none" id="IArgEncoder-backto-BoolArgEncoder" style="stroke:#181818;stroke-width:1.0;stroke-dasharray:7.0,7.0;"/><polygon fill="none" points="1776.68,448.66,1757.86,438.91,1778.65,434.8,1776.68,448.66" style="stroke:#181818;stroke-width:1.0;"/></g><!--reverse link IArgEncoder to Float32ArgEncoder--><g id="link_IArgEncoder_Float32ArgEncoder"><path codeLine="62" d="M1349.33,458.13 C1341.22,463.68 1333.64,469.91 1327,476.89 C1279.89,526.41 1262.03,608.89 1255.89,648.94 " fill="none" id="IArgEncoder-backto-Float32ArgEncoder" style="stroke:#181818;stroke-width:1.0;stroke-dasharray:7.0,7.0;"/><polygon fill="none" points="1345.45,451.69,1366.19,447.35,1352.68,463.68,1345.45,451.69" style="stroke:#181818;stroke-width:1.0;"/></g><!--reverse link IArgEncoder to Float64ArgEncoder--><g id="link_IArgEncoder_Float64ArgEncoder"><path codeLine="63" d="M1358.71,460.09 C1353.47,465.13 1348.82,470.71 1345,476.89 C1319.02,518.98 1323.37,543.71 1345,588.19 C1357.65,614.21 1382.7,634.56 1405.38,648.71 " fill="none" id="IArgEncoder-backto-Float64ArgEncoder" style="stroke:#181818;stroke-width:1.0;stroke-dasharray:7.0,7.0;"/><polygon fill="none" points="1353.78,454.28,1373.8,447.32,1362.49,465.24,1353.78,454.28" style="stroke:#181818;stroke-width:1.0;"/></g><!--reverse link IArgEncoder to RawArgEncoder--><g id="link_IArgEncoder_RawArgEncoder"><path codeLine="64" d="M1348.53,455.34 C1333.53,461.83 1318.67,469.03 1305,476.89 C1217.46,527.25 1129.06,608.97 1088.27,648.83 " fill="none" id="IArgEncoder-backto-RawArgEncoder" style="stroke:#181818;stroke-width:1.0;stroke-dasharray:7.0,7.0;"/><polygon fill="none" points="1345.72,448.51,1366.88,447.36,1351.05,461.46,1345.72,448.51" style="stroke:#181818;stroke-width:1.0;"/></g><!--reverse link IArgEncoder to StringArgEncoder--><g id="link_IArgEncoder_StringArgEncoder"><path codeLine="65" d="M1427.69,464.14 C1403.04,500.71 1380.52,550.82 1407,588.19 C1409.6,591.86 1506.66,625.21 1576.28,648.76 " fill="none" id="IArgEncoder-backto-StringArgEncoder" style="stroke:#181818;stroke-width:1.0;stroke-dasharray:7.0,7.0;"/><polygon fill="none" points="1422.57,460.27,1439.94,448.14,1433.92,468.45,1422.57,460.27" style="stroke:#181818;stroke-width:1.0;"/></g><!--reverse link IArgEncoder to NonVerboseArgEncoder--><g id="link_IArgEncoder_NonVerboseArgEncoder"><path codeLine="66" d="M1340.23,453.49 C1316.47,460.96 1291.91,468.95 1269,476.89 C1214.1,495.92 1198.85,497.66 1147,523.89 C1076.86,559.38 1068.16,583.74 998,619.19 C976.24,630.19 951.62,640.32 929.27,648.72 " fill="none" id="IArgEncoder-backto-NonVerboseArgEncoder" style="stroke:#181818;stroke-width:1.0;stroke-dasharray:7.0,7.0;"/><polygon fill="none" points="1337.78,446.61,1358.95,447.34,1341.94,459.97,1337.78,446.61" style="stroke:#181818;stroke-width:1.0;"/></g><!--reverse link IArgEncoder to UnknownVerboseArgEncoder--><g id="link_IArgEncoder_UnknownVerboseArgEncoder"><path codeLine="67" d="M1309.44,452.16 C1276.52,460.07 1242.08,468.57 1210,476.89 C1135.37,496.27 1113.79,493.32 1043,523.89 C992.07,545.89 987.2,566.81 936,588.19 C914.48,597.18 793.84,627.15 704.86,648.73 " fill="none" id="IArgEncoder-backto-UnknownVerboseArgEncoder" style="stroke:#181818;stroke-width:1.0;stroke-dasharray:7.0,7.0;"/><polygon fill="none" points="1307.62,445.16,1328.7,447.32,1310.87,458.78,1307.62,445.16" style="stroke:#181818;stroke-width:1.0;"/></g><!--reverse link DltArgEncoder to BinaryIntArgEncoder--><g id="link_DltArgEncoder_BinaryIntArgEncoder"><path codeLine="69" d="M1912.79,591.12 C1987.52,605.05 2073.01,622.33 2150,641.19 C2159.24,643.45 2168.88,646.03 2178.41,648.71 " fill="none" id="DltArgEncoder-backto-BinaryIntArgEncoder" style="stroke:#181818;stroke-width:1.0;"/><polygon fill="#181818" points="1900.45,588.64,1905.6199,593.6671,1912.2488,590.8284,1907.0788,585.8013,1900.45,588.64" style="stroke:#181818;stroke-width:1.0;"/></g><!--reverse link DltArgEncoder to HexIntArgEncoder--><g id="link_DltArgEncoder_HexIntArgEncoder"><path codeLine="70" d="M2017.54,584.97 C2125.77,598.01 2248.06,616.3 2358,641.19 C2367.31,643.3 2377,645.93 2386.48,648.76 " fill="none" id="DltArgEncoder-backto-HexIntArgEncoder" style="stroke:#181818;stroke-width:1.0;"/><polygon fill="#181818" points="2004.74,583.33,2010.2276,588.0082,2016.6566,584.742,2011.169,580.0638,2004.74,583.33" style="stroke:#181818;stroke-width:1.0;"/></g><!--reverse link DltArgEncoder to SignedIntArgEncoder--><g id="link_DltArgEncoder_SignedIntArgEncoder"><path codeLine="71" d="M2017.64,574.14 C2176.89,586.5 2374.61,607.2 2549,641.19 C2559.54,643.24 2570.54,645.88 2581.3,648.75 " fill="none" id="DltArgEncoder-backto-SignedIntArgEncoder" style="stroke:#181818;stroke-width:1.0;"/><polygon fill="#181818" points="2004.81,573.08,2010.4893,577.5236,2016.7754,573.9903,2011.0961,569.5467,2004.81,573.08" style="stroke:#181818;stroke-width:1.0;"/></g><!--reverse link DltArgEncoder to UnsignedIntArgEncoder--><g id="link_DltArgEncoder_UnsignedIntArgEncoder"><path codeLine="72" d="M1815.11,593.31 C1865.63,611.43 1925.29,632.84 1969.72,648.77 " fill="none" id="DltArgEncoder-backto-UnsignedIntArgEncoder" style="stroke:#181818;stroke-width:1.0;"/><polygon fill="#181818" points="1803.14,588.66,1807.4374,594.4507,1814.4355,592.7111,1810.1381,586.9204,1803.14,588.66" style="stroke:#181818;stroke-width:1.0;"/></g><!--reverse link DltArgEncoder to BoolArgEncoder--><g id="link_DltArgEncoder_BoolArgEncoder"><path codeLine="73" d="M1755.48,598.22 C1772.6,615.21 1791.81,634.28 1806.44,648.8 " fill="none" id="DltArgEncoder-backto-BoolArgEncoder" style="stroke:#181818;stroke-width:1.0;"/><polygon fill="#181818" points="1746.7,589.51,1748.1362,596.5766,1755.2116,597.9688,1753.7754,590.9022,1746.7,589.51" style="stroke:#181818;stroke-width:1.0;"/></g><!--reverse link DltArgEncoder to Float32ArgEncoder--><g id="link_DltArgEncoder_Float32ArgEncoder"><path codeLine="74" d="M1553.44,591.64 C1490.38,605.94 1417.53,623.34 1352,641.19 C1343.49,643.51 1334.6,646.08 1325.81,648.71 " fill="none" id="DltArgEncoder-backto-Float32ArgEncoder" style="stroke:#181818;stroke-width:1.0;"/><polygon fill="#181818" points="1565.74,588.64,1559.0077,586.0561,1554.0332,591.2767,1560.7655,593.8606,1565.74,588.64" style="stroke:#181818;stroke-width:1.0;"/></g><!--reverse link DltArgEncoder to Float64ArgEncoder--><g id="link_DltArgEncoder_Float64ArgEncoder"><path codeLine="75" d="M1629.34,594.25 C1588.49,612.2 1540.73,633.19 1505.08,648.86 " fill="none" id="DltArgEncoder-backto-Float64ArgEncoder" style="stroke:#181818;stroke-width:1.0;"/><polygon fill="#181818" points="1641.06,588.66,1633.9578,587.4115,1630.0737,593.4871,1637.1759,594.7357,1641.06,588.66" style="stroke:#181818;stroke-width:1.0;"/></g><!--reverse link DltArgEncoder to RawArgEncoder--><g id="link_DltArgEncoder_RawArgEncoder"><path codeLine="76" d="M1422.41,590.68 C1335.71,603.43 1240.95,620.1 1155,641.19 C1146.33,643.32 1137.32,645.92 1128.49,648.72 " fill="none" id="DltArgEncoder-backto-RawArgEncoder" style="stroke:#181818;stroke-width:1.0;"/><polygon fill="#181818" points="1435.25,588.67,1428.7364,585.5759,1423.3751,590.3985,1429.8887,593.4925,1435.25,588.67" style="stroke:#181818;stroke-width:1.0;"/></g><!--reverse link DltArgEncoder to StringArgEncoder--><g id="link_DltArgEncoder_StringArgEncoder"><path codeLine="77" d="M1688.55,600.13 C1678.81,616.63 1668.07,634.82 1659.81,648.8 " fill="none" id="DltArgEncoder-backto-StringArgEncoder" style="stroke:#181818;stroke-width:1.0;"/><polygon fill="#181818" points="1695.42,589.51,1688.9277,592.6485,1689.3277,599.8485,1695.82,596.71,1695.42,589.51" style="stroke:#181818;stroke-width:1.0;"/></g><!--reverse link DltArgEncoder to NonVerboseArgEncoder--><g id="link_DltArgEncoder_NonVerboseArgEncoder"><path codeLine="78" d="M1410.54,581.68 C1276.92,595.09 1118.47,614.52 977,641.19 C965.75,643.31 953.98,645.94 942.43,648.75 " fill="none" id="DltArgEncoder-backto-NonVerboseArgEncoder" style="stroke:#181818;stroke-width:1.0;"/><polygon fill="#181818" points="1423.22,580.31,1416.854,576.9227,1411.2788,581.4962,1417.6448,584.8835,1423.22,580.31" style="stroke:#181818;stroke-width:1.0;"/></g><!--reverse link DltArgEncoder to UnknownVerboseArgEncoder--><g id="link_DltArgEncoder_UnknownVerboseArgEncoder"><path codeLine="79" d="M1410.32,583.11 C1128.59,607.34 751.36,639.88 743,641.19 C729.72,643.27 715.81,645.9 702.16,648.75 " fill="none" id="DltArgEncoder-backto-UnknownVerboseArgEncoder" style="stroke:#181818;stroke-width:1.0;"/><polygon fill="#181818" points="1423.08,581.93,1416.7593,578.4588,1411.1241,582.9582,1417.4448,586.4294,1423.08,581.93" style="stroke:#181818;stroke-width:1.0;"/></g><!--reverse link DltTraceEncoder to IDltEncoder--><g id="link_DltTraceEncoder_IDltEncoder"><path codeLine="81" d="M695,335.6 C695,351.13 695,368.18 695,382.37 " fill="none" id="DltTraceEncoder-backto-IDltEncoder" style="stroke:#181818;stroke-width:1.0;"/><polygon fill="#181818" points="695,322.88,691,328.88,695,334.88,699,328.88,695,322.88" style="stroke:#181818;stroke-width:1.0;"/></g><!--link BinaryIntArgEncoder to BinaryIntDltArg--><g id="link_BinaryIntArgEncoder_BinaryIntDltArg"><path codeLine="83" d="M2254,697.6 C2254,721.24 2254,757.79 2254,783.23 " fill="none" id="BinaryIntArgEncoder-to-BinaryIntDltArg" style="stroke:#181818;stroke-width:1.0;"/><polygon fill="#181818" points="2254,788.13,2258,779.13,2254,783.13,2250,779.13,2254,788.13" style="stroke:#181818;stroke-width:1.0;"/><text fill="#000000" font-family="sans-serif" font-size="13" lengthAdjust="spacing" textLength="70" x="2255" y="747.7569">&#171;encodes&#187;</text></g><!--link HexIntArgEncoder to HexIntDltArg--><g id="link_HexIntArgEncoder_HexIntDltArg"><path codeLine="84" d="M2453,697.6 C2453,721.24 2453,757.79 2453,783.23 " fill="none" id="HexIntArgEncoder-to-HexIntDltArg" style="stroke:#181818;stroke-width:1.0;"/><polygon fill="#181818" points="2453,788.13,2457,779.13,2453,783.13,2449,779.13,2453,788.13" style="stroke:#181818;stroke-width:1.0;"/><text fill="#000000" font-family="sans-serif" font-size="13" lengthAdjust="spacing" textLength="70" x="2454" y="747.7569">&#171;encodes&#187;</text></g><!--link SignedIntArgEncoder to SignedIntDltArg--><g id="link_SignedIntArgEncoder_SignedIntDltArg"><path codeLine="85" d="M2655,697.6 C2655,721.24 2655,757.79 2655,783.23 " fill="none" id="SignedIntArgEncoder-to-SignedIntDltArg" style="stroke:#181818;stroke-width:1.0;"/><polygon fill="#181818" points="2655,788.13,2659,779.13,2655,783.13,2651,779.13,2655,788.13" style="stroke:#181818;stroke-width:1.0;"/><text fill="#000000" font-family="sans-serif" font-size="13" lengthAdjust="spacing" textLength="70" x="2656" y="747.7569">&#171;encodes&#187;</text></g><!--link UnsignedIntArgEncoder to UnsignedIntDltArg--><g id="link_UnsignedIntArgEncoder_UnsignedIntDltArg"><path codeLine="86" d="M2035,697.6 C2035,721.24 2035,757.79 2035,783.23 " fill="none" id="UnsignedIntArgEncoder-to-UnsignedIntDltArg" style="stroke:#181818;stroke-width:1.0;"/><polygon fill="#181818" points="2035,788.13,2039,779.13,2035,783.13,2031,779.13,2035,788.13" style="stroke:#181818;stroke-width:1.0;"/><text fill="#000000" font-family="sans-serif" font-size="13" lengthAdjust="spacing" textLength="70" x="2036" y="747.7569">&#171;encodes&#187;</text></g><!--link BoolArgEncoder to BoolDltArg--><g id="link_BoolArgEncoder_BoolDltArg"><path codeLine="87" d="M1830,697.6 C1830,721.24 1830,757.79 1830,783.23 " fill="none" id="BoolArgEncoder-to-BoolDltArg" style="stroke:#181818;stroke-width:1.0;"/><polygon fill="#181818" points="1830,788.13,1834,779.13,1830,783.13,1826,779.13,1830,788.13" style="stroke:#181818;stroke-width:1.0;"/><text fill="#000000" font-family="sans-serif" font-size="13" lengthAdjust="spacing" textLength="70" x="1831" y="747.7569">&#171;encodes&#187;</text></g><!--link Float32ArgEncoder to Float32DltArg--><g id="link_Float32ArgEncoder_Float32DltArg"><path codeLine="88" d="M1254.19,697.6 C1255.39,721.24 1257.24,757.79 1258.53,783.23 " fill="none" id="Float32ArgEncoder-to-Float32DltArg" style="stroke:#181818;stroke-width:1.0;"/><polygon fill="#181818" points="1258.83,788.13,1262.3611,778.9359,1258.5725,783.1366,1254.3717,779.348,1258.83,788.13" style="stroke:#181818;stroke-width:1.0;"/><text fill="#000000" font-family="sans-serif" font-size="13" lengthAdjust="spacing" textLength="70" x="1258" y="747.7569">&#171;encodes&#187;</text></g><!--link Float64ArgEncoder to Float64DltArg--><g id="link_Float64ArgEncoder_Float64DltArg"><path codeLine="89" d="M1452,697.6 C1452,721.24 1452,757.79 1452,783.23 " fill="none" id="Float64ArgEncoder-to-Float64DltArg" style="stroke:#181818;stroke-width:1.0;"/><polygon fill="#181818" points="1452,788.13,1456,779.13,1452,783.13,1448,779.13,1452,788.13" style="stroke:#181818;stroke-width:1.0;"/><text fill="#000000" font-family="sans-serif" font-size="13" lengthAdjust="spacing" textLength="70" x="1453" y="747.7569">&#171;encodes&#187;</text></g><!--link StringArgEncoder to StringDltArg--><g id="link_StringArgEncoder_StringDltArg"><path codeLine="90" d="M1646,697.6 C1646,721.24 1646,757.79 1646,783.23 " fill="none" id="StringArgEncoder-to-StringDltArg" style="stroke:#181818;stroke-width:1.0;"/><polygon fill="#181818" points="1646,788.13,1650,779.13,1646,783.13,1642,779.13,1646,788.13" style="stroke:#181818;stroke-width:1.0;"/><text fill="#000000" font-family="sans-serif" font-size="13" lengthAdjust="spacing" textLength="70" x="1647" y="747.7569">&#171;encodes&#187;</text></g><!--link RawArgEncoder to RawDltArg--><g id="link_RawArgEncoder_RawDltArg"><path codeLine="91" d="M1015.93,697.43 C1000.03,705.88 982.71,716.1 968,727.19 C955.73,736.44 929.53,763.44 909.64,784.56 " fill="none" id="RawArgEncoder-to-RawDltArg" style="stroke:#181818;stroke-width:1.0;"/><polygon fill="#181818" points="906.75,787.69,915.8311,783.8777,910.1768,784.049,910.0055,778.3947,906.75,787.69" style="stroke:#181818;stroke-width:1.0;"/><text fill="#000000" font-family="sans-serif" font-size="13" lengthAdjust="spacing" textLength="70" x="969" y="747.7569">&#171;encodes&#187;</text></g><!--link NonVerboseArgEncoder to RawDltArg--><g id="link_NonVerboseArgEncoder_RawDltArg"><path codeLine="92" d="M852.38,697.34 C847.84,714.67 844.02,738.8 850,759.19 C852.55,767.88 857,776.49 861.87,784.17 " fill="none" id="NonVerboseArgEncoder-to-RawDltArg" style="stroke:#181818;stroke-width:1.0;"/><polygon fill="#181818" points="864.94,787.82,863.3144,778.1062,862.183,783.6488,856.6404,782.5174,864.94,787.82" style="stroke:#181818;stroke-width:1.0;"/><text fill="#000000" font-family="sans-serif" font-size="13" lengthAdjust="spacing" textLength="76" x="851" y="740.2569">&lt;&lt;encodes</text><text fill="#000000" font-family="sans-serif" font-size="13" lengthAdjust="spacing" textLength="73" x="852.5" y="755.3897">verbose&gt;&gt;</text></g><!--link NonVerboseArgEncoder to NonVerboseDltArg--><g id="link_NonVerboseArgEncoder_NonVerboseDltArg"><path codeLine="93" d="M947.39,697.65 C992.88,710.16 1039.92,723.68 1044,727.19 C1060.73,741.59 1070.69,764.66 1076.35,783.14 " fill="none" id="NonVerboseArgEncoder-to-NonVerboseDltArg" style="stroke:#181818;stroke-width:1.0;"/><polygon fill="#181818" points="1077.97,787.71,1079.29,777.95,1076.57,782.91,1071.61,780.19,1077.97,787.71" style="stroke:#181818;stroke-width:1.0;"/><text fill="#000000" font-family="sans-serif" font-size="13" lengthAdjust="spacing" textLength="76" x="1078.5" y="740.2569">&lt;&lt;encodes</text><text fill="#000000" font-family="sans-serif" font-size="13" lengthAdjust="spacing" textLength="97" x="1068" y="755.3897">nonverbose&gt;&gt;</text></g><!--link NonVerboseArgEncoder to UnknownVerboseDltArg--><g id="link_NonVerboseArgEncoder_UnknownVerboseDltArg"><path codeLine="94" d="M813.6,697.57 C798.23,706.1 781.4,716.34 767,727.19 C744.3,744.3 721.42,766.91 704.83,784.51 " fill="none" id="NonVerboseArgEncoder-to-UnknownVerboseDltArg" style="stroke:#181818;stroke-width:1.0;"/><polygon fill="#181818" points="701.75,787.87,710.8231,784.0387,705.1692,784.2219,704.9861,778.568,701.75,787.87" style="stroke:#181818;stroke-width:1.0;"/><text fill="#000000" font-family="sans-serif" font-size="13" lengthAdjust="spacing" textLength="70" x="768" y="747.7569">&#171;encodes&#187;</text></g><!--link UnknownVerboseArgEncoder to UnknownVerboseDltArg--><g id="link_UnknownVerboseArgEncoder_UnknownVerboseDltArg"><path codeLine="95" d="M607.11,697.53 C608.11,715.41 611.53,740.15 622,759.19 C627.21,768.67 634.76,777.36 642.7,784.85 " fill="none" id="UnknownVerboseArgEncoder-to-UnknownVerboseDltArg" style="stroke:#181818;stroke-width:1.0;"/><polygon fill="#181818" points="646.14,787.88,642.1626,778.87,642.4371,784.5202,636.7869,784.7947,646.14,787.88" style="stroke:#181818;stroke-width:1.0;"/><text fill="#000000" font-family="sans-serif" font-size="13" lengthAdjust="spacing" textLength="70" x="623" y="747.7569">&#171;encodes&#187;</text></g><!--SRC=[jLNBRjim4BppAtXCqZY7DiZ140GqIOC6A7h8ewTSA9bMXQfaG39DZJR_NafaB58SoaQ0-c9xTsOVCskh5OQhDQivlRvizQFKhEeu8UqOlbFsxPEevOghukvBA_ZInVgF9Vr3g7szSu23wcczvcf9Rn-PAAgDuUKnxNeA7PY7Ith3zLDd2jkW92yaQ4gBloUhaxXVTf0hLXkfDlbvBXHdXX_OXc21lZEfEwOrlUnClkvhilzopdHQdKxB9un-Hz30BukxKwyMNPHqMZ0pzww1TzepPQPEXUtm-BDpPrPTg00yrYcAUf1ObsLq0nQvryPllKUlxZUkAgdvRBUtQGj-0TicNjMaUKxNI9cFgdc5xvwhahAZlrmV_-sdhjR7bAbcEQXio-N4STd_tInSQ7jjOuoaAXtPMvg0_CJdjcSGDRBXvljsTezf1LERQn7In-nd_ZkNkcqRmLUvxBtG8F-2PxZg93CVtiD2G-xiD2hY1p2g5KsGSE4Rzfp4lahXTKjIz-A7aCyWFJ6YTm9f1M29Q023r0CmB2CQBROQ85AHSw18RG2A5KRBJPq166W9L23Z3ub_ZqUBrG8Q1629GG23308mR10QBJO885A3Sg38802A3KBBJGq266WGL636eEZnDi23_tr2W5_KWihHIDTmU3Bo0T0_6QV-EOwBGW8mqt6s2KY3vZfYa8BKs6w_b8r1SEAym_jmdXBUGK0vEyKYJ4pt2WnHI8ZEoA5j24BHiSmm7eH_BivInmog8EHUHUBppDYCBtZV0ly0]--></g></svg>