<?xml version="1.0" encoding="UTF-8" standalone="no"?><svg xmlns="http://www.w3.org/2000/svg" xmlns:xlink="http://www.w3.org/1999/xlink" contentScriptType="application/ecmascript" contentStyleType="text/css" height="665px" preserveAspectRatio="none" style="width:1974px;height:665px;background:#FFFFFF;" version="1.1" viewBox="0 0 1974 665" width="1974px" zoomAndPan="magnify"><defs><filter height="300%" id="f19lo2egsjde1y" width="300%" x="-1" y="-1"><feGaussianBlur result="blurOut" stdDeviation="2.0"/><feColorMatrix in="blurOut" result="blurOut2" type="matrix" values="0 0 0 0 0 0 0 0 0 0 0 0 0 0 0 0 0 0 .4 0"/><feOffset dx="4.0" dy="4.0" in="blurOut2" result="blurOut3"/><feBlend in="SourceGraphic" in2="blurOut3" mode="normal"/></filter></defs><g><!--MD5=[6f2c01f075f91ebcd3347acc367829c7]
class BinaryIntArgEncoder--><rect codeLine="31" fill="#FEFECE" filter="url(#f19lo2egsjde1y)" height="48" id="BinaryIntArgEncoder" style="stroke:#A80036;stroke-width:1.5;" width="143" x="1469" y="459"/><ellipse cx="1484" cy="475" fill="#ADD1B2" rx="11" ry="11" style="stroke:#A80036;stroke-width:1.0;"/><path d="M1486.7656,470.875 Q1486.9219,470.6563 1487.1094,470.5469 Q1487.2969,470.4375 1487.5156,470.4375 Q1487.8906,470.4375 1488.125,470.6953 Q1488.3594,470.9531 1488.3594,471.5625 L1488.3594,473.0156 Q1488.3594,473.625 1488.125,473.8906 Q1487.8906,474.1563 1487.5156,474.1563 Q1487.1719,474.1563 1486.9688,473.9531 Q1486.7656,473.7656 1486.6563,473.25 Q1486.6094,472.8906 1486.4219,472.7031 Q1486.0938,472.3281 1485.4844,472.1094 Q1484.875,471.8906 1484.25,471.8906 Q1483.4844,471.8906 1482.8516,472.2188 Q1482.2188,472.5469 1481.7266,473.2969 Q1481.2344,474.0469 1481.2344,475.0781 L1481.2344,476.1719 Q1481.2344,477.4063 1482.125,478.2266 Q1483.0156,479.0469 1484.6094,479.0469 Q1485.5469,479.0469 1486.2031,478.7969 Q1486.5938,478.6406 1487.0156,478.2031 Q1487.2813,477.9375 1487.4297,477.8594 Q1487.5781,477.7813 1487.7813,477.7813 Q1488.1094,477.7813 1488.3672,478.0391 Q1488.625,478.2969 1488.625,478.6406 Q1488.625,478.9844 1488.2813,479.3906 Q1487.7813,479.9688 1486.9844,480.2969 Q1485.9063,480.75 1484.6094,480.75 Q1483.0938,480.75 1481.8906,480.125 Q1480.9063,479.625 1480.2188,478.5547 Q1479.5313,477.4844 1479.5313,476.2031 L1479.5313,475.0469 Q1479.5313,473.7188 1480.1484,472.5703 Q1480.7656,471.4219 1481.8594,470.8047 Q1482.9531,470.1875 1484.1875,470.1875 Q1484.9219,470.1875 1485.5703,470.3516 Q1486.2188,470.5156 1486.7656,470.875 Z " fill="#000000"/><text fill="#000000" font-family="sans-serif" font-size="12" lengthAdjust="spacing" textLength="111" x="1498" y="479.9102">BinaryIntArgEncoder</text><line style="stroke:#A80036;stroke-width:1.5;" x1="1470" x2="1611" y1="491" y2="491"/><line style="stroke:#A80036;stroke-width:1.5;" x1="1470" x2="1611" y1="499" y2="499"/><!--MD5=[5ca4af4ba27db3c1fa37640d811cae7a]
class HexIntArgEncoder--><rect codeLine="32" fill="#FEFECE" filter="url(#f19lo2egsjde1y)" height="48" id="HexIntArgEncoder" style="stroke:#A80036;stroke-width:1.5;" width="130" x="1647.5" y="459"/><ellipse cx="1662.5" cy="475" fill="#ADD1B2" rx="11" ry="11" style="stroke:#A80036;stroke-width:1.0;"/><path d="M1665.2656,470.875 Q1665.4219,470.6563 1665.6094,470.5469 Q1665.7969,470.4375 1666.0156,470.4375 Q1666.3906,470.4375 1666.625,470.6953 Q1666.8594,470.9531 1666.8594,471.5625 L1666.8594,473.0156 Q1666.8594,473.625 1666.625,473.8906 Q1666.3906,474.1563 1666.0156,474.1563 Q1665.6719,474.1563 1665.4688,473.9531 Q1665.2656,473.7656 1665.1563,473.25 Q1665.1094,472.8906 1664.9219,472.7031 Q1664.5938,472.3281 1663.9844,472.1094 Q1663.375,471.8906 1662.75,471.8906 Q1661.9844,471.8906 1661.3516,472.2188 Q1660.7188,472.5469 1660.2266,473.2969 Q1659.7344,474.0469 1659.7344,475.0781 L1659.7344,476.1719 Q1659.7344,477.4063 1660.625,478.2266 Q1661.5156,479.0469 1663.1094,479.0469 Q1664.0469,479.0469 1664.7031,478.7969 Q1665.0938,478.6406 1665.5156,478.2031 Q1665.7813,477.9375 1665.9297,477.8594 Q1666.0781,477.7813 1666.2813,477.7813 Q1666.6094,477.7813 1666.8672,478.0391 Q1667.125,478.2969 1667.125,478.6406 Q1667.125,478.9844 1666.7813,479.3906 Q1666.2813,479.9688 1665.4844,480.2969 Q1664.4063,480.75 1663.1094,480.75 Q1661.5938,480.75 1660.3906,480.125 Q1659.4063,479.625 1658.7188,478.5547 Q1658.0313,477.4844 1658.0313,476.2031 L1658.0313,475.0469 Q1658.0313,473.7188 1658.6484,472.5703 Q1659.2656,471.4219 1660.3594,470.8047 Q1661.4531,470.1875 1662.6875,470.1875 Q1663.4219,470.1875 1664.0703,470.3516 Q1664.7188,470.5156 1665.2656,470.875 Z " fill="#000000"/><text fill="#000000" font-family="sans-serif" font-size="12" lengthAdjust="spacing" textLength="98" x="1676.5" y="479.9102">HexIntArgEncoder</text><line style="stroke:#A80036;stroke-width:1.5;" x1="1648.5" x2="1776.5" y1="491" y2="491"/><line style="stroke:#A80036;stroke-width:1.5;" x1="1648.5" x2="1776.5" y1="499" y2="499"/><!--MD5=[f7a8f7cec189c8925c70c6dfe84b8abb]
class SignedIntArgEncoder--><rect codeLine="33" fill="#FEFECE" filter="url(#f19lo2egsjde1y)" height="48" id="SignedIntArgEncoder" style="stroke:#A80036;stroke-width:1.5;" width="148" x="1812.5" y="459"/><ellipse cx="1827.5" cy="475" fill="#ADD1B2" rx="11" ry="11" style="stroke:#A80036;stroke-width:1.0;"/><path d="M1830.2656,470.875 Q1830.4219,470.6563 1830.6094,470.5469 Q1830.7969,470.4375 1831.0156,470.4375 Q1831.3906,470.4375 1831.625,470.6953 Q1831.8594,470.9531 1831.8594,471.5625 L1831.8594,473.0156 Q1831.8594,473.625 1831.625,473.8906 Q1831.3906,474.1563 1831.0156,474.1563 Q1830.6719,474.1563 1830.4688,473.9531 Q1830.2656,473.7656 1830.1563,473.25 Q1830.1094,472.8906 1829.9219,472.7031 Q1829.5938,472.3281 1828.9844,472.1094 Q1828.375,471.8906 1827.75,471.8906 Q1826.9844,471.8906 1826.3516,472.2188 Q1825.7188,472.5469 1825.2266,473.2969 Q1824.7344,474.0469 1824.7344,475.0781 L1824.7344,476.1719 Q1824.7344,477.4063 1825.625,478.2266 Q1826.5156,479.0469 1828.1094,479.0469 Q1829.0469,479.0469 1829.7031,478.7969 Q1830.0938,478.6406 1830.5156,478.2031 Q1830.7813,477.9375 1830.9297,477.8594 Q1831.0781,477.7813 1831.2813,477.7813 Q1831.6094,477.7813 1831.8672,478.0391 Q1832.125,478.2969 1832.125,478.6406 Q1832.125,478.9844 1831.7813,479.3906 Q1831.2813,479.9688 1830.4844,480.2969 Q1829.4063,480.75 1828.1094,480.75 Q1826.5938,480.75 1825.3906,480.125 Q1824.4063,479.625 1823.7188,478.5547 Q1823.0313,477.4844 1823.0313,476.2031 L1823.0313,475.0469 Q1823.0313,473.7188 1823.6484,472.5703 Q1824.2656,471.4219 1825.3594,470.8047 Q1826.4531,470.1875 1827.6875,470.1875 Q1828.4219,470.1875 1829.0703,470.3516 Q1829.7188,470.5156 1830.2656,470.875 Z " fill="#000000"/><text fill="#000000" font-family="sans-serif" font-size="12" lengthAdjust="spacing" textLength="116" x="1841.5" y="479.9102">SignedIntArgEncoder</text><line style="stroke:#A80036;stroke-width:1.5;" x1="1813.5" x2="1959.5" y1="491" y2="491"/><line style="stroke:#A80036;stroke-width:1.5;" x1="1813.5" x2="1959.5" y1="499" y2="499"/><!--MD5=[f544327efaf49fb6f83b6e7d8b5dce23]
class UnsignedIntArgEncoder--><rect codeLine="34" fill="#FEFECE" filter="url(#f19lo2egsjde1y)" height="48" id="UnsignedIntArgEncoder" style="stroke:#A80036;stroke-width:1.5;" width="163" x="1271" y="459"/><ellipse cx="1286" cy="475" fill="#ADD1B2" rx="11" ry="11" style="stroke:#A80036;stroke-width:1.0;"/><path d="M1288.7656,470.875 Q1288.9219,470.6563 1289.1094,470.5469 Q1289.2969,470.4375 1289.5156,470.4375 Q1289.8906,470.4375 1290.125,470.6953 Q1290.3594,470.9531 1290.3594,471.5625 L1290.3594,473.0156 Q1290.3594,473.625 1290.125,473.8906 Q1289.8906,474.1563 1289.5156,474.1563 Q1289.1719,474.1563 1288.9688,473.9531 Q1288.7656,473.7656 1288.6563,473.25 Q1288.6094,472.8906 1288.4219,472.7031 Q1288.0938,472.3281 1287.4844,472.1094 Q1286.875,471.8906 1286.25,471.8906 Q1285.4844,471.8906 1284.8516,472.2188 Q1284.2188,472.5469 1283.7266,473.2969 Q1283.2344,474.0469 1283.2344,475.0781 L1283.2344,476.1719 Q1283.2344,477.4063 1284.125,478.2266 Q1285.0156,479.0469 1286.6094,479.0469 Q1287.5469,479.0469 1288.2031,478.7969 Q1288.5938,478.6406 1289.0156,478.2031 Q1289.2813,477.9375 1289.4297,477.8594 Q1289.5781,477.7813 1289.7813,477.7813 Q1290.1094,477.7813 1290.3672,478.0391 Q1290.625,478.2969 1290.625,478.6406 Q1290.625,478.9844 1290.2813,479.3906 Q1289.7813,479.9688 1288.9844,480.2969 Q1287.9063,480.75 1286.6094,480.75 Q1285.0938,480.75 1283.8906,480.125 Q1282.9063,479.625 1282.2188,478.5547 Q1281.5313,477.4844 1281.5313,476.2031 L1281.5313,475.0469 Q1281.5313,473.7188 1282.1484,472.5703 Q1282.7656,471.4219 1283.8594,470.8047 Q1284.9531,470.1875 1286.1875,470.1875 Q1286.9219,470.1875 1287.5703,470.3516 Q1288.2188,470.5156 1288.7656,470.875 Z " fill="#000000"/><text fill="#000000" font-family="sans-serif" font-size="12" lengthAdjust="spacing" textLength="131" x="1300" y="479.9102">UnsignedIntArgEncoder</text><line style="stroke:#A80036;stroke-width:1.5;" x1="1272" x2="1433" y1="491" y2="491"/><line style="stroke:#A80036;stroke-width:1.5;" x1="1272" x2="1433" y1="499" y2="499"/><!--MD5=[1f239973d255d0f438452ad301ebce4a]
class Float32ArgEncoder--><rect codeLine="37" fill="#FEFECE" filter="url(#f19lo2egsjde1y)" height="48" id="Float32ArgEncoder" style="stroke:#A80036;stroke-width:1.5;" width="137" x="607" y="459"/><ellipse cx="622" cy="475" fill="#ADD1B2" rx="11" ry="11" style="stroke:#A80036;stroke-width:1.0;"/><path d="M624.7656,470.875 Q624.9219,470.6563 625.1094,470.5469 Q625.2969,470.4375 625.5156,470.4375 Q625.8906,470.4375 626.125,470.6953 Q626.3594,470.9531 626.3594,471.5625 L626.3594,473.0156 Q626.3594,473.625 626.125,473.8906 Q625.8906,474.1563 625.5156,474.1563 Q625.1719,474.1563 624.9688,473.9531 Q624.7656,473.7656 624.6563,473.25 Q624.6094,472.8906 624.4219,472.7031 Q624.0938,472.3281 623.4844,472.1094 Q622.875,471.8906 622.25,471.8906 Q621.4844,471.8906 620.8516,472.2188 Q620.2188,472.5469 619.7266,473.2969 Q619.2344,474.0469 619.2344,475.0781 L619.2344,476.1719 Q619.2344,477.4063 620.125,478.2266 Q621.0156,479.0469 622.6094,479.0469 Q623.5469,479.0469 624.2031,478.7969 Q624.5938,478.6406 625.0156,478.2031 Q625.2813,477.9375 625.4297,477.8594 Q625.5781,477.7813 625.7813,477.7813 Q626.1094,477.7813 626.3672,478.0391 Q626.625,478.2969 626.625,478.6406 Q626.625,478.9844 626.2813,479.3906 Q625.7813,479.9688 624.9844,480.2969 Q623.9063,480.75 622.6094,480.75 Q621.0938,480.75 619.8906,480.125 Q618.9063,479.625 618.2188,478.5547 Q617.5313,477.4844 617.5313,476.2031 L617.5313,475.0469 Q617.5313,473.7188 618.1484,472.5703 Q618.7656,471.4219 619.8594,470.8047 Q620.9531,470.1875 622.1875,470.1875 Q622.9219,470.1875 623.5703,470.3516 Q624.2188,470.5156 624.7656,470.875 Z " fill="#000000"/><text fill="#000000" font-family="sans-serif" font-size="12" lengthAdjust="spacing" textLength="105" x="636" y="479.9102">Float32ArgEncoder</text><line style="stroke:#A80036;stroke-width:1.5;" x1="608" x2="743" y1="491" y2="491"/><line style="stroke:#A80036;stroke-width:1.5;" x1="608" x2="743" y1="499" y2="499"/><!--MD5=[5662824aabed64f61a3b769880bc971b]
class Float64ArgEncoder--><rect codeLine="38" fill="#FEFECE" filter="url(#f19lo2egsjde1y)" height="48" id="Float64ArgEncoder" style="stroke:#A80036;stroke-width:1.5;" width="137" x="779" y="459"/><ellipse cx="794" cy="475" fill="#ADD1B2" rx="11" ry="11" style="stroke:#A80036;stroke-width:1.0;"/><path d="M796.7656,470.875 Q796.9219,470.6563 797.1094,470.5469 Q797.2969,470.4375 797.5156,470.4375 Q797.8906,470.4375 798.125,470.6953 Q798.3594,470.9531 798.3594,471.5625 L798.3594,473.0156 Q798.3594,473.625 798.125,473.8906 Q797.8906,474.1563 797.5156,474.1563 Q797.1719,474.1563 796.9688,473.9531 Q796.7656,473.7656 796.6563,473.25 Q796.6094,472.8906 796.4219,472.7031 Q796.0938,472.3281 795.4844,472.1094 Q794.875,471.8906 794.25,471.8906 Q793.4844,471.8906 792.8516,472.2188 Q792.2188,472.5469 791.7266,473.2969 Q791.2344,474.0469 791.2344,475.0781 L791.2344,476.1719 Q791.2344,477.4063 792.125,478.2266 Q793.0156,479.0469 794.6094,479.0469 Q795.5469,479.0469 796.2031,478.7969 Q796.5938,478.6406 797.0156,478.2031 Q797.2813,477.9375 797.4297,477.8594 Q797.5781,477.7813 797.7813,477.7813 Q798.1094,477.7813 798.3672,478.0391 Q798.625,478.2969 798.625,478.6406 Q798.625,478.9844 798.2813,479.3906 Q797.7813,479.9688 796.9844,480.2969 Q795.9063,480.75 794.6094,480.75 Q793.0938,480.75 791.8906,480.125 Q790.9063,479.625 790.2188,478.5547 Q789.5313,477.4844 789.5313,476.2031 L789.5313,475.0469 Q789.5313,473.7188 790.1484,472.5703 Q790.7656,471.4219 791.8594,470.8047 Q792.9531,470.1875 794.1875,470.1875 Q794.9219,470.1875 795.5703,470.3516 Q796.2188,470.5156 796.7656,470.875 Z " fill="#000000"/><text fill="#000000" font-family="sans-serif" font-size="12" lengthAdjust="spacing" textLength="105" x="808" y="479.9102">Float64ArgEncoder</text><line style="stroke:#A80036;stroke-width:1.5;" x1="780" x2="915" y1="491" y2="491"/><line style="stroke:#A80036;stroke-width:1.5;" x1="780" x2="915" y1="499" y2="499"/><!--MD5=[6f6d608e6fcd45a869ad33795209fe26]
class ITraceEncoder--><rect codeLine="1" fill="#FEFECE" filter="url(#f19lo2egsjde1y)" height="48" id="ITraceEncoder" style="stroke:#A80036;stroke-width:1.5;" width="113" x="447" y="7"/><ellipse cx="462" cy="23" fill="#B4A7E5" rx="11" ry="11" style="stroke:#A80036;stroke-width:1.0;"/><path d="M462.9531,19.6406 L462.9531,26.2969 L464.6719,26.2969 Q465.2813,26.2969 465.5469,26.5313 Q465.8125,26.7656 465.8125,27.1563 Q465.8125,27.5313 465.5469,27.7656 Q465.2813,28 464.6719,28 L459.5313,28 Q458.9219,28 458.6563,27.7656 Q458.3906,27.5313 458.3906,27.1406 Q458.3906,26.7656 458.6563,26.5313 Q458.9219,26.2969 459.5313,26.2969 L461.25,26.2969 L461.25,19.6406 L459.5313,19.6406 Q458.9219,19.6406 458.6563,19.4063 Q458.3906,19.1719 458.3906,18.7813 Q458.3906,18.4063 458.6563,18.1719 Q458.9219,17.9375 459.5313,17.9375 L464.6719,17.9375 Q465.2813,17.9375 465.5469,18.1719 Q465.8125,18.4063 465.8125,18.7813 Q465.8125,19.1719 465.5469,19.4063 Q465.2813,19.6406 464.6719,19.6406 L462.9531,19.6406 Z " fill="#000000"/><text fill="#000000" font-family="sans-serif" font-size="12" font-style="italic" lengthAdjust="spacing" textLength="81" x="476" y="27.9102">ITraceEncoder</text><line style="stroke:#A80036;stroke-width:1.5;" x1="448" x2="559" y1="39" y2="39"/><line style="stroke:#A80036;stroke-width:1.5;" x1="448" x2="559" y1="47" y2="47"/><!--MD5=[3d4b20d523844a7742bcfaf38f4a7853]
class ITraceEncoderFactory--><rect codeLine="2" fill="#FEFECE" filter="url(#f19lo2egsjde1y)" height="48" id="ITraceEncoderFactory" style="stroke:#A80036;stroke-width:1.5;" width="153" x="233" y="7"/><ellipse cx="248" cy="23" fill="#B4A7E5" rx="11" ry="11" style="stroke:#A80036;stroke-width:1.0;"/><path d="M248.9531,19.6406 L248.9531,26.2969 L250.6719,26.2969 Q251.2813,26.2969 251.5469,26.5313 Q251.8125,26.7656 251.8125,27.1563 Q251.8125,27.5313 251.5469,27.7656 Q251.2813,28 250.6719,28 L245.5313,28 Q244.9219,28 244.6563,27.7656 Q244.3906,27.5313 244.3906,27.1406 Q244.3906,26.7656 244.6563,26.5313 Q244.9219,26.2969 245.5313,26.2969 L247.25,26.2969 L247.25,19.6406 L245.5313,19.6406 Q244.9219,19.6406 244.6563,19.4063 Q244.3906,19.1719 244.3906,18.7813 Q244.3906,18.4063 244.6563,18.1719 Q244.9219,17.9375 245.5313,17.9375 L250.6719,17.9375 Q251.2813,17.9375 251.5469,18.1719 Q251.8125,18.4063 251.8125,18.7813 Q251.8125,19.1719 251.5469,19.4063 Q251.2813,19.6406 250.6719,19.6406 L248.9531,19.6406 Z " fill="#000000"/><text fill="#000000" font-family="sans-serif" font-size="12" font-style="italic" lengthAdjust="spacing" textLength="121" x="262" y="27.9102">ITraceEncoderFactory</text><line style="stroke:#A80036;stroke-width:1.5;" x1="234" x2="385" y1="39" y2="39"/><line style="stroke:#A80036;stroke-width:1.5;" x1="234" x2="385" y1="47" y2="47"/><!--MD5=[4aada09f93d0b6e7ebd03dfdc6a2603a]
class DltTraceEncoderFactory--><rect codeLine="6" fill="#FEFECE" filter="url(#f19lo2egsjde1y)" height="48" id="DltTraceEncoderFactory" style="stroke:#A80036;stroke-width:1.5;" width="299" x="7" y="116"/><ellipse cx="22" cy="132" fill="#ADD1B2" rx="11" ry="11" style="stroke:#A80036;stroke-width:1.0;"/><path d="M24.7656,127.875 Q24.9219,127.6563 25.1094,127.5469 Q25.2969,127.4375 25.5156,127.4375 Q25.8906,127.4375 26.125,127.6953 Q26.3594,127.9531 26.3594,128.5625 L26.3594,130.0156 Q26.3594,130.625 26.125,130.8906 Q25.8906,131.1563 25.5156,131.1563 Q25.1719,131.1563 24.9688,130.9531 Q24.7656,130.7656 24.6563,130.25 Q24.6094,129.8906 24.4219,129.7031 Q24.0938,129.3281 23.4844,129.1094 Q22.875,128.8906 22.25,128.8906 Q21.4844,128.8906 20.8516,129.2188 Q20.2188,129.5469 19.7266,130.2969 Q19.2344,131.0469 19.2344,132.0781 L19.2344,133.1719 Q19.2344,134.4063 20.125,135.2266 Q21.0156,136.0469 22.6094,136.0469 Q23.5469,136.0469 24.2031,135.7969 Q24.5938,135.6406 25.0156,135.2031 Q25.2813,134.9375 25.4297,134.8594 Q25.5781,134.7813 25.7813,134.7813 Q26.1094,134.7813 26.3672,135.0391 Q26.625,135.2969 26.625,135.6406 Q26.625,135.9844 26.2813,136.3906 Q25.7813,136.9688 24.9844,137.2969 Q23.9063,137.75 22.6094,137.75 Q21.0938,137.75 19.8906,137.125 Q18.9063,136.625 18.2188,135.5547 Q17.5313,134.4844 17.5313,133.2031 L17.5313,132.0469 Q17.5313,130.7188 18.1484,129.5703 Q18.7656,128.4219 19.8594,127.8047 Q20.9531,127.1875 22.1875,127.1875 Q22.9219,127.1875 23.5703,127.3516 Q24.2188,127.5156 24.7656,127.875 Z " fill="#000000"/><text fill="#000000" font-family="sans-serif" font-size="12" lengthAdjust="spacing" textLength="131" x="36" y="136.9102">DltTraceEncoderFactory</text><rect fill="#FFFFFF" height="17.0938" style="stroke:#000000;stroke-width:1.0;stroke-dasharray:2.0,2.0;" width="134" x="175" y="113"/><text fill="#000000" font-family="sans-serif" font-size="12" font-style="italic" lengthAdjust="spacing" textLength="132" x="176" y="126.457">TLine:DltTraceLineBase</text><line style="stroke:#A80036;stroke-width:1.5;" x1="8" x2="305" y1="148" y2="148"/><line style="stroke:#A80036;stroke-width:1.5;" x1="8" x2="305" y1="156" y2="156"/><!--MD5=[11363600cc92b2fece27b28de66320bf]
class DltTraceEncoder--><rect codeLine="9" fill="#FEFECE" filter="url(#f19lo2egsjde1y)" height="48" id="DltTraceEncoder" style="stroke:#A80036;stroke-width:1.5;" width="260" x="399.5" y="116"/><ellipse cx="414.5" cy="132" fill="#ADD1B2" rx="11" ry="11" style="stroke:#A80036;stroke-width:1.0;"/><path d="M417.2656,127.875 Q417.4219,127.6563 417.6094,127.5469 Q417.7969,127.4375 418.0156,127.4375 Q418.3906,127.4375 418.625,127.6953 Q418.8594,127.9531 418.8594,128.5625 L418.8594,130.0156 Q418.8594,130.625 418.625,130.8906 Q418.3906,131.1563 418.0156,131.1563 Q417.6719,131.1563 417.4688,130.9531 Q417.2656,130.7656 417.1563,130.25 Q417.1094,129.8906 416.9219,129.7031 Q416.5938,129.3281 415.9844,129.1094 Q415.375,128.8906 414.75,128.8906 Q413.9844,128.8906 413.3516,129.2188 Q412.7188,129.5469 412.2266,130.2969 Q411.7344,131.0469 411.7344,132.0781 L411.7344,133.1719 Q411.7344,134.4063 412.625,135.2266 Q413.5156,136.0469 415.1094,136.0469 Q416.0469,136.0469 416.7031,135.7969 Q417.0938,135.6406 417.5156,135.2031 Q417.7813,134.9375 417.9297,134.8594 Q418.0781,134.7813 418.2813,134.7813 Q418.6094,134.7813 418.8672,135.0391 Q419.125,135.2969 419.125,135.6406 Q419.125,135.9844 418.7813,136.3906 Q418.2813,136.9688 417.4844,137.2969 Q416.4063,137.75 415.1094,137.75 Q413.5938,137.75 412.3906,137.125 Q411.4063,136.625 410.7188,135.5547 Q410.0313,134.4844 410.0313,133.2031 L410.0313,132.0469 Q410.0313,130.7188 410.6484,129.5703 Q411.2656,128.4219 412.3594,127.8047 Q413.4531,127.1875 414.6875,127.1875 Q415.4219,127.1875 416.0703,127.3516 Q416.7188,127.5156 417.2656,127.875 Z " fill="#000000"/><text fill="#000000" font-family="sans-serif" font-size="12" lengthAdjust="spacing" textLength="92" x="428.5" y="136.9102">DltTraceEncoder</text><rect fill="#FFFFFF" height="17.0938" style="stroke:#000000;stroke-width:1.0;stroke-dasharray:2.0,2.0;" width="134" x="528.5" y="113"/><text fill="#000000" font-family="sans-serif" font-size="12" font-style="italic" lengthAdjust="spacing" textLength="132" x="529.5" y="126.457">TLine:DltTraceLineBase</text><line style="stroke:#A80036;stroke-width:1.5;" x1="400.5" x2="658.5" y1="148" y2="148"/><line style="stroke:#A80036;stroke-width:1.5;" x1="400.5" x2="658.5" y1="156" y2="156"/><!--MD5=[48f8e76aba46043221db20ac9879cbe3]
class IVerboseDltEncoder--><rect codeLine="14" fill="#FEFECE" filter="url(#f19lo2egsjde1y)" height="61.8359" id="IVerboseDltEncoder" style="stroke:#A80036;stroke-width:1.5;" width="294" x="382.5" y="225"/><ellipse cx="469.25" cy="241" fill="#B4A7E5" rx="11" ry="11" style="stroke:#A80036;stroke-width:1.0;"/><path d="M470.2031,237.6406 L470.2031,244.2969 L471.9219,244.2969 Q472.5313,244.2969 472.7969,244.5313 Q473.0625,244.7656 473.0625,245.1563 Q473.0625,245.5313 472.7969,245.7656 Q472.5313,246 471.9219,246 L466.7813,246 Q466.1719,246 465.9063,245.7656 Q465.6406,245.5313 465.6406,245.1406 Q465.6406,244.7656 465.9063,244.5313 Q466.1719,244.2969 466.7813,244.2969 L468.5,244.2969 L468.5,237.6406 L466.7813,237.6406 Q466.1719,237.6406 465.9063,237.4063 Q465.6406,237.1719 465.6406,236.7813 Q465.6406,236.4063 465.9063,236.1719 Q466.1719,235.9375 466.7813,235.9375 L471.9219,235.9375 Q472.5313,235.9375 472.7969,236.1719 Q473.0625,236.4063 473.0625,236.7813 Q473.0625,237.1719 472.7969,237.4063 Q472.5313,237.6406 471.9219,237.6406 L470.2031,237.6406 Z " fill="#000000"/><text fill="#000000" font-family="sans-serif" font-size="12" font-style="italic" lengthAdjust="spacing" textLength="112" x="489.75" y="245.9102">IVerboseDltEncoder</text><line style="stroke:#A80036;stroke-width:1.5;" x1="383.5" x2="675.5" y1="257" y2="257"/><line style="stroke:#A80036;stroke-width:1.5;" x1="383.5" x2="675.5" y1="265" y2="265"/><ellipse cx="393.5" cy="276" fill="#84BE84" rx="3" ry="3" style="stroke:#038048;stroke-width:1.0;"/><text fill="#000000" font-family="sans-serif" font-size="11" lengthAdjust="spacing" textLength="268" x="402.5" y="280.4189">Encode(buffer: Span&lt;byte&gt;, line: DltTraceLineBase): int</text><!--MD5=[05a54f20826aaf197f67c85105285274]
class VerboseDltEncoder--><rect codeLine="17" fill="#FEFECE" filter="url(#f19lo2egsjde1y)" height="48" id="VerboseDltEncoder" style="stroke:#A80036;stroke-width:1.5;" width="139" x="334" y="348"/><ellipse cx="349" cy="364" fill="#ADD1B2" rx="11" ry="11" style="stroke:#A80036;stroke-width:1.0;"/><path d="M351.7656,359.875 Q351.9219,359.6563 352.1094,359.5469 Q352.2969,359.4375 352.5156,359.4375 Q352.8906,359.4375 353.125,359.6953 Q353.3594,359.9531 353.3594,360.5625 L353.3594,362.0156 Q353.3594,362.625 353.125,362.8906 Q352.8906,363.1563 352.5156,363.1563 Q352.1719,363.1563 351.9688,362.9531 Q351.7656,362.7656 351.6563,362.25 Q351.6094,361.8906 351.4219,361.7031 Q351.0938,361.3281 350.4844,361.1094 Q349.875,360.8906 349.25,360.8906 Q348.4844,360.8906 347.8516,361.2188 Q347.2188,361.5469 346.7266,362.2969 Q346.2344,363.0469 346.2344,364.0781 L346.2344,365.1719 Q346.2344,366.4063 347.125,367.2266 Q348.0156,368.0469 349.6094,368.0469 Q350.5469,368.0469 351.2031,367.7969 Q351.5938,367.6406 352.0156,367.2031 Q352.2813,366.9375 352.4297,366.8594 Q352.5781,366.7813 352.7813,366.7813 Q353.1094,366.7813 353.3672,367.0391 Q353.625,367.2969 353.625,367.6406 Q353.625,367.9844 353.2813,368.3906 Q352.7813,368.9688 351.9844,369.2969 Q350.9063,369.75 349.6094,369.75 Q348.0938,369.75 346.8906,369.125 Q345.9063,368.625 345.2188,367.5547 Q344.5313,366.4844 344.5313,365.2031 L344.5313,364.0469 Q344.5313,362.7188 345.1484,361.5703 Q345.7656,360.4219 346.8594,359.8047 Q347.9531,359.1875 349.1875,359.1875 Q349.9219,359.1875 350.5703,359.3516 Q351.2188,359.5156 351.7656,359.875 Z " fill="#000000"/><text fill="#000000" font-family="sans-serif" font-size="12" lengthAdjust="spacing" textLength="107" x="363" y="368.9102">VerboseDltEncoder</text><line style="stroke:#A80036;stroke-width:1.5;" x1="335" x2="472" y1="380" y2="380"/><line style="stroke:#A80036;stroke-width:1.5;" x1="335" x2="472" y1="388" y2="388"/><!--MD5=[358dd04dd0fac196fcd8d983e2abb37d]
class IArgEncoder--><rect codeLine="20" fill="#FEFECE" filter="url(#f19lo2egsjde1y)" height="61.8359" id="IArgEncoder" style="stroke:#A80036;stroke-width:1.5;" width="363" x="755" y="225"/><ellipse cx="897.75" cy="241" fill="#B4A7E5" rx="11" ry="11" style="stroke:#A80036;stroke-width:1.0;"/><path d="M898.7031,237.6406 L898.7031,244.2969 L900.4219,244.2969 Q901.0313,244.2969 901.2969,244.5313 Q901.5625,244.7656 901.5625,245.1563 Q901.5625,245.5313 901.2969,245.7656 Q901.0313,246 900.4219,246 L895.2813,246 Q894.6719,246 894.4063,245.7656 Q894.1406,245.5313 894.1406,245.1406 Q894.1406,244.7656 894.4063,244.5313 Q894.6719,244.2969 895.2813,244.2969 L897,244.2969 L897,237.6406 L895.2813,237.6406 Q894.6719,237.6406 894.4063,237.4063 Q894.1406,237.1719 894.1406,236.7813 Q894.1406,236.4063 894.4063,236.1719 Q894.6719,235.9375 895.2813,235.9375 L900.4219,235.9375 Q901.0313,235.9375 901.2969,236.1719 Q901.5625,236.4063 901.5625,236.7813 Q901.5625,237.1719 901.2969,237.4063 Q901.0313,237.6406 900.4219,237.6406 L898.7031,237.6406 Z " fill="#000000"/><text fill="#000000" font-family="sans-serif" font-size="12" font-style="italic" lengthAdjust="spacing" textLength="69" x="918.25" y="245.9102">IArgEncoder</text><line style="stroke:#A80036;stroke-width:1.5;" x1="756" x2="1117" y1="257" y2="257"/><line style="stroke:#A80036;stroke-width:1.5;" x1="756" x2="1117" y1="265" y2="265"/><ellipse cx="766" cy="276" fill="#84BE84" rx="3" ry="3" style="stroke:#038048;stroke-width:1.0;"/><text fill="#000000" font-family="sans-serif" font-size="11" lengthAdjust="spacing" textLength="337" x="775" y="280.4189">Encode(buffer: Span&lt;byte&gt;, bool verbose, bool msbf, arg: IDltArg): int</text><!--MD5=[4897523d3375529ead9aa56cb33cfe69]
class DltArgEncoder--><rect codeLine="23" fill="#FEFECE" filter="url(#f19lo2egsjde1y)" height="48" id="DltArgEncoder" style="stroke:#A80036;stroke-width:1.5;" width="111" x="990" y="348"/><ellipse cx="1005" cy="364" fill="#ADD1B2" rx="11" ry="11" style="stroke:#A80036;stroke-width:1.0;"/><path d="M1007.7656,359.875 Q1007.9219,359.6563 1008.1094,359.5469 Q1008.2969,359.4375 1008.5156,359.4375 Q1008.8906,359.4375 1009.125,359.6953 Q1009.3594,359.9531 1009.3594,360.5625 L1009.3594,362.0156 Q1009.3594,362.625 1009.125,362.8906 Q1008.8906,363.1563 1008.5156,363.1563 Q1008.1719,363.1563 1007.9688,362.9531 Q1007.7656,362.7656 1007.6563,362.25 Q1007.6094,361.8906 1007.4219,361.7031 Q1007.0938,361.3281 1006.4844,361.1094 Q1005.875,360.8906 1005.25,360.8906 Q1004.4844,360.8906 1003.8516,361.2188 Q1003.2188,361.5469 1002.7266,362.2969 Q1002.2344,363.0469 1002.2344,364.0781 L1002.2344,365.1719 Q1002.2344,366.4063 1003.125,367.2266 Q1004.0156,368.0469 1005.6094,368.0469 Q1006.5469,368.0469 1007.2031,367.7969 Q1007.5938,367.6406 1008.0156,367.2031 Q1008.2813,366.9375 1008.4297,366.8594 Q1008.5781,366.7813 1008.7813,366.7813 Q1009.1094,366.7813 1009.3672,367.0391 Q1009.625,367.2969 1009.625,367.6406 Q1009.625,367.9844 1009.2813,368.3906 Q1008.7813,368.9688 1007.9844,369.2969 Q1006.9063,369.75 1005.6094,369.75 Q1004.0938,369.75 1002.8906,369.125 Q1001.9063,368.625 1001.2188,367.5547 Q1000.5313,366.4844 1000.5313,365.2031 L1000.5313,364.0469 Q1000.5313,362.7188 1001.1484,361.5703 Q1001.7656,360.4219 1002.8594,359.8047 Q1003.9531,359.1875 1005.1875,359.1875 Q1005.9219,359.1875 1006.5703,359.3516 Q1007.2188,359.5156 1007.7656,359.875 Z " fill="#000000"/><text fill="#000000" font-family="sans-serif" font-size="12" lengthAdjust="spacing" textLength="79" x="1019" y="368.9102">DltArgEncoder</text><line style="stroke:#A80036;stroke-width:1.5;" x1="991" x2="1100" y1="380" y2="380"/><line style="stroke:#A80036;stroke-width:1.5;" x1="991" x2="1100" y1="388" y2="388"/><!--MD5=[e04e017feeb2dd5dd390d83656173fba]
class BoolArgEncoder--><rect codeLine="29" fill="#FEFECE" filter="url(#f19lo2egsjde1y)" height="48" id="BoolArgEncoder" style="stroke:#A80036;stroke-width:1.5;" width="121" x="1115" y="459"/><ellipse cx="1130" cy="475" fill="#ADD1B2" rx="11" ry="11" style="stroke:#A80036;stroke-width:1.0;"/><path d="M1132.7656,470.875 Q1132.9219,470.6563 1133.1094,470.5469 Q1133.2969,470.4375 1133.5156,470.4375 Q1133.8906,470.4375 1134.125,470.6953 Q1134.3594,470.9531 1134.3594,471.5625 L1134.3594,473.0156 Q1134.3594,473.625 1134.125,473.8906 Q1133.8906,474.1563 1133.5156,474.1563 Q1133.1719,474.1563 1132.9688,473.9531 Q1132.7656,473.7656 1132.6563,473.25 Q1132.6094,472.8906 1132.4219,472.7031 Q1132.0938,472.3281 1131.4844,472.1094 Q1130.875,471.8906 1130.25,471.8906 Q1129.4844,471.8906 1128.8516,472.2188 Q1128.2188,472.5469 1127.7266,473.2969 Q1127.2344,474.0469 1127.2344,475.0781 L1127.2344,476.1719 Q1127.2344,477.4063 1128.125,478.2266 Q1129.0156,479.0469 1130.6094,479.0469 Q1131.5469,479.0469 1132.2031,478.7969 Q1132.5938,478.6406 1133.0156,478.2031 Q1133.2813,477.9375 1133.4297,477.8594 Q1133.5781,477.7813 1133.7813,477.7813 Q1134.1094,477.7813 1134.3672,478.0391 Q1134.625,478.2969 1134.625,478.6406 Q1134.625,478.9844 1134.2813,479.3906 Q1133.7813,479.9688 1132.9844,480.2969 Q1131.9063,480.75 1130.6094,480.75 Q1129.0938,480.75 1127.8906,480.125 Q1126.9063,479.625 1126.2188,478.5547 Q1125.5313,477.4844 1125.5313,476.2031 L1125.5313,475.0469 Q1125.5313,473.7188 1126.1484,472.5703 Q1126.7656,471.4219 1127.8594,470.8047 Q1128.9531,470.1875 1130.1875,470.1875 Q1130.9219,470.1875 1131.5703,470.3516 Q1132.2188,470.5156 1132.7656,470.875 Z " fill="#000000"/><text fill="#000000" font-family="sans-serif" font-size="12" lengthAdjust="spacing" textLength="89" x="1144" y="479.9102">BoolArgEncoder</text><line style="stroke:#A80036;stroke-width:1.5;" x1="1116" x2="1235" y1="491" y2="491"/><line style="stroke:#A80036;stroke-width:1.5;" x1="1116" x2="1235" y1="499" y2="499"/><!--MD5=[17ad35bfc48752a1c7c5373cb1f71222]
class StringArgEncoder--><rect codeLine="40" fill="#FEFECE" filter="url(#f19lo2egsjde1y)" height="48" id="StringArgEncoder" style="stroke:#A80036;stroke-width:1.5;" width="128" x="951.5" y="459"/><ellipse cx="966.5" cy="475" fill="#ADD1B2" rx="11" ry="11" style="stroke:#A80036;stroke-width:1.0;"/><path d="M969.2656,470.875 Q969.4219,470.6563 969.6094,470.5469 Q969.7969,470.4375 970.0156,470.4375 Q970.3906,470.4375 970.625,470.6953 Q970.8594,470.9531 970.8594,471.5625 L970.8594,473.0156 Q970.8594,473.625 970.625,473.8906 Q970.3906,474.1563 970.0156,474.1563 Q969.6719,474.1563 969.4688,473.9531 Q969.2656,473.7656 969.1563,473.25 Q969.1094,472.8906 968.9219,472.7031 Q968.5938,472.3281 967.9844,472.1094 Q967.375,471.8906 966.75,471.8906 Q965.9844,471.8906 965.3516,472.2188 Q964.7188,472.5469 964.2266,473.2969 Q963.7344,474.0469 963.7344,475.0781 L963.7344,476.1719 Q963.7344,477.4063 964.625,478.2266 Q965.5156,479.0469 967.1094,479.0469 Q968.0469,479.0469 968.7031,478.7969 Q969.0938,478.6406 969.5156,478.2031 Q969.7813,477.9375 969.9297,477.8594 Q970.0781,477.7813 970.2813,477.7813 Q970.6094,477.7813 970.8672,478.0391 Q971.125,478.2969 971.125,478.6406 Q971.125,478.9844 970.7813,479.3906 Q970.2813,479.9688 969.4844,480.2969 Q968.4063,480.75 967.1094,480.75 Q965.5938,480.75 964.3906,480.125 Q963.4063,479.625 962.7188,478.5547 Q962.0313,477.4844 962.0313,476.2031 L962.0313,475.0469 Q962.0313,473.7188 962.6484,472.5703 Q963.2656,471.4219 964.3594,470.8047 Q965.4531,470.1875 966.6875,470.1875 Q967.4219,470.1875 968.0703,470.3516 Q968.7188,470.5156 969.2656,470.875 Z " fill="#000000"/><text fill="#000000" font-family="sans-serif" font-size="12" lengthAdjust="spacing" textLength="96" x="980.5" y="479.9102">StringArgEncoder</text><line style="stroke:#A80036;stroke-width:1.5;" x1="952.5" x2="1078.5" y1="491" y2="491"/><line style="stroke:#A80036;stroke-width:1.5;" x1="952.5" x2="1078.5" y1="499" y2="499"/><!--MD5=[0746544628c1c6fdce9c9fa0b183308f]
class RawArgEncoder--><rect codeLine="41" fill="#FEFECE" filter="url(#f19lo2egsjde1y)" height="48" id="RawArgEncoder" style="stroke:#A80036;stroke-width:1.5;" width="121" x="451" y="459"/><ellipse cx="466" cy="475" fill="#ADD1B2" rx="11" ry="11" style="stroke:#A80036;stroke-width:1.0;"/><path d="M468.7656,470.875 Q468.9219,470.6563 469.1094,470.5469 Q469.2969,470.4375 469.5156,470.4375 Q469.8906,470.4375 470.125,470.6953 Q470.3594,470.9531 470.3594,471.5625 L470.3594,473.0156 Q470.3594,473.625 470.125,473.8906 Q469.8906,474.1563 469.5156,474.1563 Q469.1719,474.1563 468.9688,473.9531 Q468.7656,473.7656 468.6563,473.25 Q468.6094,472.8906 468.4219,472.7031 Q468.0938,472.3281 467.4844,472.1094 Q466.875,471.8906 466.25,471.8906 Q465.4844,471.8906 464.8516,472.2188 Q464.2188,472.5469 463.7266,473.2969 Q463.2344,474.0469 463.2344,475.0781 L463.2344,476.1719 Q463.2344,477.4063 464.125,478.2266 Q465.0156,479.0469 466.6094,479.0469 Q467.5469,479.0469 468.2031,478.7969 Q468.5938,478.6406 469.0156,478.2031 Q469.2813,477.9375 469.4297,477.8594 Q469.5781,477.7813 469.7813,477.7813 Q470.1094,477.7813 470.3672,478.0391 Q470.625,478.2969 470.625,478.6406 Q470.625,478.9844 470.2813,479.3906 Q469.7813,479.9688 468.9844,480.2969 Q467.9063,480.75 466.6094,480.75 Q465.0938,480.75 463.8906,480.125 Q462.9063,479.625 462.2188,478.5547 Q461.5313,477.4844 461.5313,476.2031 L461.5313,475.0469 Q461.5313,473.7188 462.1484,472.5703 Q462.7656,471.4219 463.8594,470.8047 Q464.9531,470.1875 466.1875,470.1875 Q466.9219,470.1875 467.5703,470.3516 Q468.2188,470.5156 468.7656,470.875 Z " fill="#000000"/><text fill="#000000" font-family="sans-serif" font-size="12" lengthAdjust="spacing" textLength="89" x="480" y="479.9102">RawArgEncoder</text><line style="stroke:#A80036;stroke-width:1.5;" x1="452" x2="571" y1="491" y2="491"/><line style="stroke:#A80036;stroke-width:1.5;" x1="452" x2="571" y1="499" y2="499"/><!--MD5=[67c441653a918cc89ed76fa9bbc8d3f1]
class NonVerboseArgEncoder--><rect codeLine="42" fill="#FEFECE" filter="url(#f19lo2egsjde1y)" height="48" id="NonVerboseArgEncoder" style="stroke:#A80036;stroke-width:1.5;" width="165" x="251" y="459"/><ellipse cx="266" cy="475" fill="#ADD1B2" rx="11" ry="11" style="stroke:#A80036;stroke-width:1.0;"/><path d="M268.7656,470.875 Q268.9219,470.6563 269.1094,470.5469 Q269.2969,470.4375 269.5156,470.4375 Q269.8906,470.4375 270.125,470.6953 Q270.3594,470.9531 270.3594,471.5625 L270.3594,473.0156 Q270.3594,473.625 270.125,473.8906 Q269.8906,474.1563 269.5156,474.1563 Q269.1719,474.1563 268.9688,473.9531 Q268.7656,473.7656 268.6563,473.25 Q268.6094,472.8906 268.4219,472.7031 Q268.0938,472.3281 267.4844,472.1094 Q266.875,471.8906 266.25,471.8906 Q265.4844,471.8906 264.8516,472.2188 Q264.2188,472.5469 263.7266,473.2969 Q263.2344,474.0469 263.2344,475.0781 L263.2344,476.1719 Q263.2344,477.4063 264.125,478.2266 Q265.0156,479.0469 266.6094,479.0469 Q267.5469,479.0469 268.2031,478.7969 Q268.5938,478.6406 269.0156,478.2031 Q269.2813,477.9375 269.4297,477.8594 Q269.5781,477.7813 269.7813,477.7813 Q270.1094,477.7813 270.3672,478.0391 Q270.625,478.2969 270.625,478.6406 Q270.625,478.9844 270.2813,479.3906 Q269.7813,479.9688 268.9844,480.2969 Q267.9063,480.75 266.6094,480.75 Q265.0938,480.75 263.8906,480.125 Q262.9063,479.625 262.2188,478.5547 Q261.5313,477.4844 261.5313,476.2031 L261.5313,475.0469 Q261.5313,473.7188 262.1484,472.5703 Q262.7656,471.4219 263.8594,470.8047 Q264.9531,470.1875 266.1875,470.1875 Q266.9219,470.1875 267.5703,470.3516 Q268.2188,470.5156 268.7656,470.875 Z " fill="#000000"/><text fill="#000000" font-family="sans-serif" font-size="12" lengthAdjust="spacing" textLength="133" x="280" y="479.9102">NonVerboseArgEncoder</text><line style="stroke:#A80036;stroke-width:1.5;" x1="252" x2="415" y1="491" y2="491"/><line style="stroke:#A80036;stroke-width:1.5;" x1="252" x2="415" y1="499" y2="499"/><!--MD5=[b95d21ec3c3da8c1b5931f72b23f66a9]
class UnknownVerboseArgEncoder--><rect codeLine="43" fill="#FEFECE" filter="url(#f19lo2egsjde1y)" height="48" id="UnknownVerboseArgEncoder" style="stroke:#A80036;stroke-width:1.5;" width="194" x="21.5" y="459"/><ellipse cx="36.5" cy="475" fill="#ADD1B2" rx="11" ry="11" style="stroke:#A80036;stroke-width:1.0;"/><path d="M39.2656,470.875 Q39.4219,470.6563 39.6094,470.5469 Q39.7969,470.4375 40.0156,470.4375 Q40.3906,470.4375 40.625,470.6953 Q40.8594,470.9531 40.8594,471.5625 L40.8594,473.0156 Q40.8594,473.625 40.625,473.8906 Q40.3906,474.1563 40.0156,474.1563 Q39.6719,474.1563 39.4688,473.9531 Q39.2656,473.7656 39.1563,473.25 Q39.1094,472.8906 38.9219,472.7031 Q38.5938,472.3281 37.9844,472.1094 Q37.375,471.8906 36.75,471.8906 Q35.9844,471.8906 35.3516,472.2188 Q34.7188,472.5469 34.2266,473.2969 Q33.7344,474.0469 33.7344,475.0781 L33.7344,476.1719 Q33.7344,477.4063 34.625,478.2266 Q35.5156,479.0469 37.1094,479.0469 Q38.0469,479.0469 38.7031,478.7969 Q39.0938,478.6406 39.5156,478.2031 Q39.7813,477.9375 39.9297,477.8594 Q40.0781,477.7813 40.2813,477.7813 Q40.6094,477.7813 40.8672,478.0391 Q41.125,478.2969 41.125,478.6406 Q41.125,478.9844 40.7813,479.3906 Q40.2813,479.9688 39.4844,480.2969 Q38.4063,480.75 37.1094,480.75 Q35.5938,480.75 34.3906,480.125 Q33.4063,479.625 32.7188,478.5547 Q32.0313,477.4844 32.0313,476.2031 L32.0313,475.0469 Q32.0313,473.7188 32.6484,472.5703 Q33.2656,471.4219 34.3594,470.8047 Q35.4531,470.1875 36.6875,470.1875 Q37.4219,470.1875 38.0703,470.3516 Q38.7188,470.5156 39.2656,470.875 Z " fill="#000000"/><text fill="#000000" font-family="sans-serif" font-size="12" lengthAdjust="spacing" textLength="162" x="50.5" y="479.9102">UnknownVerboseArgEncoder</text><line style="stroke:#A80036;stroke-width:1.5;" x1="22.5" x2="214.5" y1="491" y2="491"/><line style="stroke:#A80036;stroke-width:1.5;" x1="22.5" x2="214.5" y1="499" y2="499"/><!--MD5=[584669a0ed286870cad57e16f4431256]
class BinaryIntDltArg--><rect fill="#FEFECE" filter="url(#f19lo2egsjde1y)" height="48" id="BinaryIntDltArg" style="stroke:#A80036;stroke-width:1.5;" width="112" x="1484.5" y="603"/><ellipse cx="1499.5" cy="619" fill="#ADD1B2" rx="11" ry="11" style="stroke:#A80036;stroke-width:1.0;"/><path d="M1502.2656,614.875 Q1502.4219,614.6563 1502.6094,614.5469 Q1502.7969,614.4375 1503.0156,614.4375 Q1503.3906,614.4375 1503.625,614.6953 Q1503.8594,614.9531 1503.8594,615.5625 L1503.8594,617.0156 Q1503.8594,617.625 1503.625,617.8906 Q1503.3906,618.1563 1503.0156,618.1563 Q1502.6719,618.1563 1502.4688,617.9531 Q1502.2656,617.7656 1502.1563,617.25 Q1502.1094,616.8906 1501.9219,616.7031 Q1501.5938,616.3281 1500.9844,616.1094 Q1500.375,615.8906 1499.75,615.8906 Q1498.9844,615.8906 1498.3516,616.2188 Q1497.7188,616.5469 1497.2266,617.2969 Q1496.7344,618.0469 1496.7344,619.0781 L1496.7344,620.1719 Q1496.7344,621.4063 1497.625,622.2266 Q1498.5156,623.0469 1500.1094,623.0469 Q1501.0469,623.0469 1501.7031,622.7969 Q1502.0938,622.6406 1502.5156,622.2031 Q1502.7813,621.9375 1502.9297,621.8594 Q1503.0781,621.7813 1503.2813,621.7813 Q1503.6094,621.7813 1503.8672,622.0391 Q1504.125,622.2969 1504.125,622.6406 Q1504.125,622.9844 1503.7813,623.3906 Q1503.2813,623.9688 1502.4844,624.2969 Q1501.4063,624.75 1500.1094,624.75 Q1498.5938,624.75 1497.3906,624.125 Q1496.4063,623.625 1495.7188,622.5547 Q1495.0313,621.4844 1495.0313,620.2031 L1495.0313,619.0469 Q1495.0313,617.7188 1495.6484,616.5703 Q1496.2656,615.4219 1497.3594,614.8047 Q1498.4531,614.1875 1499.6875,614.1875 Q1500.4219,614.1875 1501.0703,614.3516 Q1501.7188,614.5156 1502.2656,614.875 Z " fill="#000000"/><text fill="#000000" font-family="sans-serif" font-size="12" lengthAdjust="spacing" textLength="80" x="1513.5" y="623.9102">BinaryIntDltArg</text><line style="stroke:#A80036;stroke-width:1.5;" x1="1485.5" x2="1595.5" y1="635" y2="635"/><line style="stroke:#A80036;stroke-width:1.5;" x1="1485.5" x2="1595.5" y1="643" y2="643"/><!--MD5=[5b44a63c92af40190428db9752e4a224]
class HexIntDltArg--><rect fill="#FEFECE" filter="url(#f19lo2egsjde1y)" height="48" id="HexIntDltArg" style="stroke:#A80036;stroke-width:1.5;" width="99" x="1663" y="603"/><ellipse cx="1678" cy="619" fill="#ADD1B2" rx="11" ry="11" style="stroke:#A80036;stroke-width:1.0;"/><path d="M1680.7656,614.875 Q1680.9219,614.6563 1681.1094,614.5469 Q1681.2969,614.4375 1681.5156,614.4375 Q1681.8906,614.4375 1682.125,614.6953 Q1682.3594,614.9531 1682.3594,615.5625 L1682.3594,617.0156 Q1682.3594,617.625 1682.125,617.8906 Q1681.8906,618.1563 1681.5156,618.1563 Q1681.1719,618.1563 1680.9688,617.9531 Q1680.7656,617.7656 1680.6563,617.25 Q1680.6094,616.8906 1680.4219,616.7031 Q1680.0938,616.3281 1679.4844,616.1094 Q1678.875,615.8906 1678.25,615.8906 Q1677.4844,615.8906 1676.8516,616.2188 Q1676.2188,616.5469 1675.7266,617.2969 Q1675.2344,618.0469 1675.2344,619.0781 L1675.2344,620.1719 Q1675.2344,621.4063 1676.125,622.2266 Q1677.0156,623.0469 1678.6094,623.0469 Q1679.5469,623.0469 1680.2031,622.7969 Q1680.5938,622.6406 1681.0156,622.2031 Q1681.2813,621.9375 1681.4297,621.8594 Q1681.5781,621.7813 1681.7813,621.7813 Q1682.1094,621.7813 1682.3672,622.0391 Q1682.625,622.2969 1682.625,622.6406 Q1682.625,622.9844 1682.2813,623.3906 Q1681.7813,623.9688 1680.9844,624.2969 Q1679.9063,624.75 1678.6094,624.75 Q1677.0938,624.75 1675.8906,624.125 Q1674.9063,623.625 1674.2188,622.5547 Q1673.5313,621.4844 1673.5313,620.2031 L1673.5313,619.0469 Q1673.5313,617.7188 1674.1484,616.5703 Q1674.7656,615.4219 1675.8594,614.8047 Q1676.9531,614.1875 1678.1875,614.1875 Q1678.9219,614.1875 1679.5703,614.3516 Q1680.2188,614.5156 1680.7656,614.875 Z " fill="#000000"/><text fill="#000000" font-family="sans-serif" font-size="12" lengthAdjust="spacing" textLength="67" x="1692" y="623.9102">HexIntDltArg</text><line style="stroke:#A80036;stroke-width:1.5;" x1="1664" x2="1761" y1="635" y2="635"/><line style="stroke:#A80036;stroke-width:1.5;" x1="1664" x2="1761" y1="643" y2="643"/><!--MD5=[530b5da5bd258ad0d6915bceb12a6485]
class SignedIntDltArg--><rect fill="#FEFECE" filter="url(#f19lo2egsjde1y)" height="48" id="SignedIntDltArg" style="stroke:#A80036;stroke-width:1.5;" width="117" x="1828" y="603"/><ellipse cx="1843" cy="619" fill="#ADD1B2" rx="11" ry="11" style="stroke:#A80036;stroke-width:1.0;"/><path d="M1845.7656,614.875 Q1845.9219,614.6563 1846.1094,614.5469 Q1846.2969,614.4375 1846.5156,614.4375 Q1846.8906,614.4375 1847.125,614.6953 Q1847.3594,614.9531 1847.3594,615.5625 L1847.3594,617.0156 Q1847.3594,617.625 1847.125,617.8906 Q1846.8906,618.1563 1846.5156,618.1563 Q1846.1719,618.1563 1845.9688,617.9531 Q1845.7656,617.7656 1845.6563,617.25 Q1845.6094,616.8906 1845.4219,616.7031 Q1845.0938,616.3281 1844.4844,616.1094 Q1843.875,615.8906 1843.25,615.8906 Q1842.4844,615.8906 1841.8516,616.2188 Q1841.2188,616.5469 1840.7266,617.2969 Q1840.2344,618.0469 1840.2344,619.0781 L1840.2344,620.1719 Q1840.2344,621.4063 1841.125,622.2266 Q1842.0156,623.0469 1843.6094,623.0469 Q1844.5469,623.0469 1845.2031,622.7969 Q1845.5938,622.6406 1846.0156,622.2031 Q1846.2813,621.9375 1846.4297,621.8594 Q1846.5781,621.7813 1846.7813,621.7813 Q1847.1094,621.7813 1847.3672,622.0391 Q1847.625,622.2969 1847.625,622.6406 Q1847.625,622.9844 1847.2813,623.3906 Q1846.7813,623.9688 1845.9844,624.2969 Q1844.9063,624.75 1843.6094,624.75 Q1842.0938,624.75 1840.8906,624.125 Q1839.9063,623.625 1839.2188,622.5547 Q1838.5313,621.4844 1838.5313,620.2031 L1838.5313,619.0469 Q1838.5313,617.7188 1839.1484,616.5703 Q1839.7656,615.4219 1840.8594,614.8047 Q1841.9531,614.1875 1843.1875,614.1875 Q1843.9219,614.1875 1844.5703,614.3516 Q1845.2188,614.5156 1845.7656,614.875 Z " fill="#000000"/><text fill="#000000" font-family="sans-serif" font-size="12" lengthAdjust="spacing" textLength="85" x="1857" y="623.9102">SignedIntDltArg</text><line style="stroke:#A80036;stroke-width:1.5;" x1="1829" x2="1944" y1="635" y2="635"/><line style="stroke:#A80036;stroke-width:1.5;" x1="1829" x2="1944" y1="643" y2="643"/><!--MD5=[15300c896cacb1acf95f152b7691e7f6]
class UnsignedIntDltArg--><rect fill="#FEFECE" filter="url(#f19lo2egsjde1y)" height="48" id="UnsignedIntDltArg" style="stroke:#A80036;stroke-width:1.5;" width="132" x="1286.5" y="603"/><ellipse cx="1301.5" cy="619" fill="#ADD1B2" rx="11" ry="11" style="stroke:#A80036;stroke-width:1.0;"/><path d="M1304.2656,614.875 Q1304.4219,614.6563 1304.6094,614.5469 Q1304.7969,614.4375 1305.0156,614.4375 Q1305.3906,614.4375 1305.625,614.6953 Q1305.8594,614.9531 1305.8594,615.5625 L1305.8594,617.0156 Q1305.8594,617.625 1305.625,617.8906 Q1305.3906,618.1563 1305.0156,618.1563 Q1304.6719,618.1563 1304.4688,617.9531 Q1304.2656,617.7656 1304.1563,617.25 Q1304.1094,616.8906 1303.9219,616.7031 Q1303.5938,616.3281 1302.9844,616.1094 Q1302.375,615.8906 1301.75,615.8906 Q1300.9844,615.8906 1300.3516,616.2188 Q1299.7188,616.5469 1299.2266,617.2969 Q1298.7344,618.0469 1298.7344,619.0781 L1298.7344,620.1719 Q1298.7344,621.4063 1299.625,622.2266 Q1300.5156,623.0469 1302.1094,623.0469 Q1303.0469,623.0469 1303.7031,622.7969 Q1304.0938,622.6406 1304.5156,622.2031 Q1304.7813,621.9375 1304.9297,621.8594 Q1305.0781,621.7813 1305.2813,621.7813 Q1305.6094,621.7813 1305.8672,622.0391 Q1306.125,622.2969 1306.125,622.6406 Q1306.125,622.9844 1305.7813,623.3906 Q1305.2813,623.9688 1304.4844,624.2969 Q1303.4063,624.75 1302.1094,624.75 Q1300.5938,624.75 1299.3906,624.125 Q1298.4063,623.625 1297.7188,622.5547 Q1297.0313,621.4844 1297.0313,620.2031 L1297.0313,619.0469 Q1297.0313,617.7188 1297.6484,616.5703 Q1298.2656,615.4219 1299.3594,614.8047 Q1300.4531,614.1875 1301.6875,614.1875 Q1302.4219,614.1875 1303.0703,614.3516 Q1303.7188,614.5156 1304.2656,614.875 Z " fill="#000000"/><text fill="#000000" font-family="sans-serif" font-size="12" lengthAdjust="spacing" textLength="100" x="1315.5" y="623.9102">UnsignedIntDltArg</text><line style="stroke:#A80036;stroke-width:1.5;" x1="1287.5" x2="1417.5" y1="635" y2="635"/><line style="stroke:#A80036;stroke-width:1.5;" x1="1287.5" x2="1417.5" y1="643" y2="643"/><!--MD5=[9304c627579e6c09a83b65d2b6fe9ffa]
class BoolDltArg--><rect fill="#FEFECE" filter="url(#f19lo2egsjde1y)" height="48" id="BoolDltArg" style="stroke:#A80036;stroke-width:1.5;" width="90" x="1130.5" y="603"/><ellipse cx="1145.5" cy="619" fill="#ADD1B2" rx="11" ry="11" style="stroke:#A80036;stroke-width:1.0;"/><path d="M1148.2656,614.875 Q1148.4219,614.6563 1148.6094,614.5469 Q1148.7969,614.4375 1149.0156,614.4375 Q1149.3906,614.4375 1149.625,614.6953 Q1149.8594,614.9531 1149.8594,615.5625 L1149.8594,617.0156 Q1149.8594,617.625 1149.625,617.8906 Q1149.3906,618.1563 1149.0156,618.1563 Q1148.6719,618.1563 1148.4688,617.9531 Q1148.2656,617.7656 1148.1563,617.25 Q1148.1094,616.8906 1147.9219,616.7031 Q1147.5938,616.3281 1146.9844,616.1094 Q1146.375,615.8906 1145.75,615.8906 Q1144.9844,615.8906 1144.3516,616.2188 Q1143.7188,616.5469 1143.2266,617.2969 Q1142.7344,618.0469 1142.7344,619.0781 L1142.7344,620.1719 Q1142.7344,621.4063 1143.625,622.2266 Q1144.5156,623.0469 1146.1094,623.0469 Q1147.0469,623.0469 1147.7031,622.7969 Q1148.0938,622.6406 1148.5156,622.2031 Q1148.7813,621.9375 1148.9297,621.8594 Q1149.0781,621.7813 1149.2813,621.7813 Q1149.6094,621.7813 1149.8672,622.0391 Q1150.125,622.2969 1150.125,622.6406 Q1150.125,622.9844 1149.7813,623.3906 Q1149.2813,623.9688 1148.4844,624.2969 Q1147.4063,624.75 1146.1094,624.75 Q1144.5938,624.75 1143.3906,624.125 Q1142.4063,623.625 1141.7188,622.5547 Q1141.0313,621.4844 1141.0313,620.2031 L1141.0313,619.0469 Q1141.0313,617.7188 1141.6484,616.5703 Q1142.2656,615.4219 1143.3594,614.8047 Q1144.4531,614.1875 1145.6875,614.1875 Q1146.4219,614.1875 1147.0703,614.3516 Q1147.7188,614.5156 1148.2656,614.875 Z " fill="#000000"/><text fill="#000000" font-family="sans-serif" font-size="12" lengthAdjust="spacing" textLength="58" x="1159.5" y="623.9102">BoolDltArg</text><line style="stroke:#A80036;stroke-width:1.5;" x1="1131.5" x2="1219.5" y1="635" y2="635"/><line style="stroke:#A80036;stroke-width:1.5;" x1="1131.5" x2="1219.5" y1="643" y2="643"/><!--MD5=[bd995735bdc22093cef67c0a3dd15675]
class Float32DltArg--><rect fill="#FEFECE" filter="url(#f19lo2egsjde1y)" height="48" id="Float32DltArg" style="stroke:#A80036;stroke-width:1.5;" width="106" x="645.5" y="603"/><ellipse cx="660.5" cy="619" fill="#ADD1B2" rx="11" ry="11" style="stroke:#A80036;stroke-width:1.0;"/><path d="M663.2656,614.875 Q663.4219,614.6563 663.6094,614.5469 Q663.7969,614.4375 664.0156,614.4375 Q664.3906,614.4375 664.625,614.6953 Q664.8594,614.9531 664.8594,615.5625 L664.8594,617.0156 Q664.8594,617.625 664.625,617.8906 Q664.3906,618.1563 664.0156,618.1563 Q663.6719,618.1563 663.4688,617.9531 Q663.2656,617.7656 663.1563,617.25 Q663.1094,616.8906 662.9219,616.7031 Q662.5938,616.3281 661.9844,616.1094 Q661.375,615.8906 660.75,615.8906 Q659.9844,615.8906 659.3516,616.2188 Q658.7188,616.5469 658.2266,617.2969 Q657.7344,618.0469 657.7344,619.0781 L657.7344,620.1719 Q657.7344,621.4063 658.625,622.2266 Q659.5156,623.0469 661.1094,623.0469 Q662.0469,623.0469 662.7031,622.7969 Q663.0938,622.6406 663.5156,622.2031 Q663.7813,621.9375 663.9297,621.8594 Q664.0781,621.7813 664.2813,621.7813 Q664.6094,621.7813 664.8672,622.0391 Q665.125,622.2969 665.125,622.6406 Q665.125,622.9844 664.7813,623.3906 Q664.2813,623.9688 663.4844,624.2969 Q662.4063,624.75 661.1094,624.75 Q659.5938,624.75 658.3906,624.125 Q657.4063,623.625 656.7188,622.5547 Q656.0313,621.4844 656.0313,620.2031 L656.0313,619.0469 Q656.0313,617.7188 656.6484,616.5703 Q657.2656,615.4219 658.3594,614.8047 Q659.4531,614.1875 660.6875,614.1875 Q661.4219,614.1875 662.0703,614.3516 Q662.7188,614.5156 663.2656,614.875 Z " fill="#000000"/><text fill="#000000" font-family="sans-serif" font-size="12" lengthAdjust="spacing" textLength="74" x="674.5" y="623.9102">Float32DltArg</text><line style="stroke:#A80036;stroke-width:1.5;" x1="646.5" x2="750.5" y1="635" y2="635"/><line style="stroke:#A80036;stroke-width:1.5;" x1="646.5" x2="750.5" y1="643" y2="643"/><!--MD5=[4f58334fec0bd3ff1f53f8383a615e86]
class Float64DltArg--><rect fill="#FEFECE" filter="url(#f19lo2egsjde1y)" height="48" id="Float64DltArg" style="stroke:#A80036;stroke-width:1.5;" width="106" x="794.5" y="603"/><ellipse cx="809.5" cy="619" fill="#ADD1B2" rx="11" ry="11" style="stroke:#A80036;stroke-width:1.0;"/><path d="M812.2656,614.875 Q812.4219,614.6563 812.6094,614.5469 Q812.7969,614.4375 813.0156,614.4375 Q813.3906,614.4375 813.625,614.6953 Q813.8594,614.9531 813.8594,615.5625 L813.8594,617.0156 Q813.8594,617.625 813.625,617.8906 Q813.3906,618.1563 813.0156,618.1563 Q812.6719,618.1563 812.4688,617.9531 Q812.2656,617.7656 812.1563,617.25 Q812.1094,616.8906 811.9219,616.7031 Q811.5938,616.3281 810.9844,616.1094 Q810.375,615.8906 809.75,615.8906 Q808.9844,615.8906 808.3516,616.2188 Q807.7188,616.5469 807.2266,617.2969 Q806.7344,618.0469 806.7344,619.0781 L806.7344,620.1719 Q806.7344,621.4063 807.625,622.2266 Q808.5156,623.0469 810.1094,623.0469 Q811.0469,623.0469 811.7031,622.7969 Q812.0938,622.6406 812.5156,622.2031 Q812.7813,621.9375 812.9297,621.8594 Q813.0781,621.7813 813.2813,621.7813 Q813.6094,621.7813 813.8672,622.0391 Q814.125,622.2969 814.125,622.6406 Q814.125,622.9844 813.7813,623.3906 Q813.2813,623.9688 812.4844,624.2969 Q811.4063,624.75 810.1094,624.75 Q808.5938,624.75 807.3906,624.125 Q806.4063,623.625 805.7188,622.5547 Q805.0313,621.4844 805.0313,620.2031 L805.0313,619.0469 Q805.0313,617.7188 805.6484,616.5703 Q806.2656,615.4219 807.3594,614.8047 Q808.4531,614.1875 809.6875,614.1875 Q810.4219,614.1875 811.0703,614.3516 Q811.7188,614.5156 812.2656,614.875 Z " fill="#000000"/><text fill="#000000" font-family="sans-serif" font-size="12" lengthAdjust="spacing" textLength="74" x="823.5" y="623.9102">Float64DltArg</text><line style="stroke:#A80036;stroke-width:1.5;" x1="795.5" x2="899.5" y1="635" y2="635"/><line style="stroke:#A80036;stroke-width:1.5;" x1="795.5" x2="899.5" y1="643" y2="643"/><!--MD5=[9384f9af5873042c459e7cb65aa0b775]
class StringDltArg--><rect fill="#FEFECE" filter="url(#f19lo2egsjde1y)" height="48" id="StringDltArg" style="stroke:#A80036;stroke-width:1.5;" width="97" x="967" y="603"/><ellipse cx="982" cy="619" fill="#ADD1B2" rx="11" ry="11" style="stroke:#A80036;stroke-width:1.0;"/><path d="M984.7656,614.875 Q984.9219,614.6563 985.1094,614.5469 Q985.2969,614.4375 985.5156,614.4375 Q985.8906,614.4375 986.125,614.6953 Q986.3594,614.9531 986.3594,615.5625 L986.3594,617.0156 Q986.3594,617.625 986.125,617.8906 Q985.8906,618.1563 985.5156,618.1563 Q985.1719,618.1563 984.9688,617.9531 Q984.7656,617.7656 984.6563,617.25 Q984.6094,616.8906 984.4219,616.7031 Q984.0938,616.3281 983.4844,616.1094 Q982.875,615.8906 982.25,615.8906 Q981.4844,615.8906 980.8516,616.2188 Q980.2188,616.5469 979.7266,617.2969 Q979.2344,618.0469 979.2344,619.0781 L979.2344,620.1719 Q979.2344,621.4063 980.125,622.2266 Q981.0156,623.0469 982.6094,623.0469 Q983.5469,623.0469 984.2031,622.7969 Q984.5938,622.6406 985.0156,622.2031 Q985.2813,621.9375 985.4297,621.8594 Q985.5781,621.7813 985.7813,621.7813 Q986.1094,621.7813 986.3672,622.0391 Q986.625,622.2969 986.625,622.6406 Q986.625,622.9844 986.2813,623.3906 Q985.7813,623.9688 984.9844,624.2969 Q983.9063,624.75 982.6094,624.75 Q981.0938,624.75 979.8906,624.125 Q978.9063,623.625 978.2188,622.5547 Q977.5313,621.4844 977.5313,620.2031 L977.5313,619.0469 Q977.5313,617.7188 978.1484,616.5703 Q978.7656,615.4219 979.8594,614.8047 Q980.9531,614.1875 982.1875,614.1875 Q982.9219,614.1875 983.5703,614.3516 Q984.2188,614.5156 984.7656,614.875 Z " fill="#000000"/><text fill="#000000" font-family="sans-serif" font-size="12" lengthAdjust="spacing" textLength="65" x="996" y="623.9102">StringDltArg</text><line style="stroke:#A80036;stroke-width:1.5;" x1="968" x2="1063" y1="635" y2="635"/><line style="stroke:#A80036;stroke-width:1.5;" x1="968" x2="1063" y1="643" y2="643"/><!--MD5=[751ce3d3b962032c2311a8f3a883c70d]
class RawDltArg--><rect fill="#FEFECE" filter="url(#f19lo2egsjde1y)" height="48" id="RawDltArg" style="stroke:#A80036;stroke-width:1.5;" width="90" x="318.5" y="603"/><ellipse cx="333.5" cy="619" fill="#ADD1B2" rx="11" ry="11" style="stroke:#A80036;stroke-width:1.0;"/><path d="M336.2656,614.875 Q336.4219,614.6563 336.6094,614.5469 Q336.7969,614.4375 337.0156,614.4375 Q337.3906,614.4375 337.625,614.6953 Q337.8594,614.9531 337.8594,615.5625 L337.8594,617.0156 Q337.8594,617.625 337.625,617.8906 Q337.3906,618.1563 337.0156,618.1563 Q336.6719,618.1563 336.4688,617.9531 Q336.2656,617.7656 336.1563,617.25 Q336.1094,616.8906 335.9219,616.7031 Q335.5938,616.3281 334.9844,616.1094 Q334.375,615.8906 333.75,615.8906 Q332.9844,615.8906 332.3516,616.2188 Q331.7188,616.5469 331.2266,617.2969 Q330.7344,618.0469 330.7344,619.0781 L330.7344,620.1719 Q330.7344,621.4063 331.625,622.2266 Q332.5156,623.0469 334.1094,623.0469 Q335.0469,623.0469 335.7031,622.7969 Q336.0938,622.6406 336.5156,622.2031 Q336.7813,621.9375 336.9297,621.8594 Q337.0781,621.7813 337.2813,621.7813 Q337.6094,621.7813 337.8672,622.0391 Q338.125,622.2969 338.125,622.6406 Q338.125,622.9844 337.7813,623.3906 Q337.2813,623.9688 336.4844,624.2969 Q335.4063,624.75 334.1094,624.75 Q332.5938,624.75 331.3906,624.125 Q330.4063,623.625 329.7188,622.5547 Q329.0313,621.4844 329.0313,620.2031 L329.0313,619.0469 Q329.0313,617.7188 329.6484,616.5703 Q330.2656,615.4219 331.3594,614.8047 Q332.4531,614.1875 333.6875,614.1875 Q334.4219,614.1875 335.0703,614.3516 Q335.7188,614.5156 336.2656,614.875 Z " fill="#000000"/><text fill="#000000" font-family="sans-serif" font-size="12" lengthAdjust="spacing" textLength="58" x="347.5" y="623.9102">RawDltArg</text><line style="stroke:#A80036;stroke-width:1.5;" x1="319.5" x2="407.5" y1="635" y2="635"/><line style="stroke:#A80036;stroke-width:1.5;" x1="319.5" x2="407.5" y1="643" y2="643"/><!--MD5=[c8aecec8061000234456f93801020997]
class NonVerboseDltArg--><rect fill="#FEFECE" filter="url(#f19lo2egsjde1y)" height="48" id="NonVerboseDltArg" style="stroke:#A80036;stroke-width:1.5;" width="134" x="476.5" y="603"/><ellipse cx="491.5" cy="619" fill="#ADD1B2" rx="11" ry="11" style="stroke:#A80036;stroke-width:1.0;"/><path d="M494.2656,614.875 Q494.4219,614.6563 494.6094,614.5469 Q494.7969,614.4375 495.0156,614.4375 Q495.3906,614.4375 495.625,614.6953 Q495.8594,614.9531 495.8594,615.5625 L495.8594,617.0156 Q495.8594,617.625 495.625,617.8906 Q495.3906,618.1563 495.0156,618.1563 Q494.6719,618.1563 494.4688,617.9531 Q494.2656,617.7656 494.1563,617.25 Q494.1094,616.8906 493.9219,616.7031 Q493.5938,616.3281 492.9844,616.1094 Q492.375,615.8906 491.75,615.8906 Q490.9844,615.8906 490.3516,616.2188 Q489.7188,616.5469 489.2266,617.2969 Q488.7344,618.0469 488.7344,619.0781 L488.7344,620.1719 Q488.7344,621.4063 489.625,622.2266 Q490.5156,623.0469 492.1094,623.0469 Q493.0469,623.0469 493.7031,622.7969 Q494.0938,622.6406 494.5156,622.2031 Q494.7813,621.9375 494.9297,621.8594 Q495.0781,621.7813 495.2813,621.7813 Q495.6094,621.7813 495.8672,622.0391 Q496.125,622.2969 496.125,622.6406 Q496.125,622.9844 495.7813,623.3906 Q495.2813,623.9688 494.4844,624.2969 Q493.4063,624.75 492.1094,624.75 Q490.5938,624.75 489.3906,624.125 Q488.4063,623.625 487.7188,622.5547 Q487.0313,621.4844 487.0313,620.2031 L487.0313,619.0469 Q487.0313,617.7188 487.6484,616.5703 Q488.2656,615.4219 489.3594,614.8047 Q490.4531,614.1875 491.6875,614.1875 Q492.4219,614.1875 493.0703,614.3516 Q493.7188,614.5156 494.2656,614.875 Z " fill="#000000"/><text fill="#000000" font-family="sans-serif" font-size="12" lengthAdjust="spacing" textLength="102" x="505.5" y="623.9102">NonVerboseDltArg</text><line style="stroke:#A80036;stroke-width:1.5;" x1="477.5" x2="609.5" y1="635" y2="635"/><line style="stroke:#A80036;stroke-width:1.5;" x1="477.5" x2="609.5" y1="643" y2="643"/><!--MD5=[5604cc107f2bd7e22425b88332a60917]
class UnknownVerboseDltArg--><rect fill="#FEFECE" filter="url(#f19lo2egsjde1y)" height="48" id="UnknownVerboseDltArg" style="stroke:#A80036;stroke-width:1.5;" width="163" x="96" y="603"/><ellipse cx="111" cy="619" fill="#ADD1B2" rx="11" ry="11" style="stroke:#A80036;stroke-width:1.0;"/><path d="M113.7656,614.875 Q113.9219,614.6563 114.1094,614.5469 Q114.2969,614.4375 114.5156,614.4375 Q114.8906,614.4375 115.125,614.6953 Q115.3594,614.9531 115.3594,615.5625 L115.3594,617.0156 Q115.3594,617.625 115.125,617.8906 Q114.8906,618.1563 114.5156,618.1563 Q114.1719,618.1563 113.9688,617.9531 Q113.7656,617.7656 113.6563,617.25 Q113.6094,616.8906 113.4219,616.7031 Q113.0938,616.3281 112.4844,616.1094 Q111.875,615.8906 111.25,615.8906 Q110.4844,615.8906 109.8516,616.2188 Q109.2188,616.5469 108.7266,617.2969 Q108.2344,618.0469 108.2344,619.0781 L108.2344,620.1719 Q108.2344,621.4063 109.125,622.2266 Q110.0156,623.0469 111.6094,623.0469 Q112.5469,623.0469 113.2031,622.7969 Q113.5938,622.6406 114.0156,622.2031 Q114.2813,621.9375 114.4297,621.8594 Q114.5781,621.7813 114.7813,621.7813 Q115.1094,621.7813 115.3672,622.0391 Q115.625,622.2969 115.625,622.6406 Q115.625,622.9844 115.2813,623.3906 Q114.7813,623.9688 113.9844,624.2969 Q112.9063,624.75 111.6094,624.75 Q110.0938,624.75 108.8906,624.125 Q107.9063,623.625 107.2188,622.5547 Q106.5313,621.4844 106.5313,620.2031 L106.5313,619.0469 Q106.5313,617.7188 107.1484,616.5703 Q107.7656,615.4219 108.8594,614.8047 Q109.9531,614.1875 111.1875,614.1875 Q111.9219,614.1875 112.5703,614.3516 Q113.2188,614.5156 113.7656,614.875 Z " fill="#000000"/><text fill="#000000" font-family="sans-serif" font-size="12" lengthAdjust="spacing" textLength="131" x="125" y="623.9102">UnknownVerboseDltArg</text><line style="stroke:#A80036;stroke-width:1.5;" x1="97" x2="258" y1="635" y2="635"/><line style="stroke:#A80036;stroke-width:1.5;" x1="97" x2="258" y1="643" y2="643"/><!--MD5=[295f392fa186f32cdcba9e09c1255c9c]
link ITraceEncoderFactory to ITraceEncoder--><path codeLine="4" d="M386.04,31 C406.23,31 426.42,31 446.6,31 " fill="none" id="ITraceEncoderFactory-ITraceEncoder" style="stroke:#A80036;stroke-width:1.0;"/><!--MD5=[743f4453b45b18e879bfa4d4b4711942]
reverse link ITraceEncoderFactory to DltTraceEncoderFactory--><path codeLine="7" d="M259.63,66.88 C236.67,82.93 210.07,101.54 189.63,115.83 " fill="none" id="ITraceEncoderFactory-backto-DltTraceEncoderFactory" style="stroke:#A80036;stroke-width:1.0;stroke-dasharray:7.0,7.0;"/><polygon fill="none" points="255.9,60.94,276.3,55.22,263.92,72.42,255.9,60.94" style="stroke:#A80036;stroke-width:1.0;"/><!--MD5=[f059986529b2b4c81376e873afa2327e]
reverse link ITraceEncoder to DltTraceEncoder--><path codeLine="10" d="M513.97,75.09 C517.35,89.01 520.98,103.92 523.87,115.83 " fill="none" id="ITraceEncoder-backto-DltTraceEncoder" style="stroke:#A80036;stroke-width:1.0;stroke-dasharray:7.0,7.0;"/><polygon fill="none" points="507.06,76.3,509.14,55.22,520.67,73,507.06,76.3" style="stroke:#A80036;stroke-width:1.0;"/><!--MD5=[5520f4b9bfd96b2e3a03ee9f851472ca]
link DltTraceEncoderFactory to DltTraceEncoder--><path codeLine="12" d="M306.06,140 C335.16,140 365.51,140 394.12,140 " fill="none" id="DltTraceEncoderFactory-to-DltTraceEncoder" style="stroke:#A80036;stroke-width:1.0;"/><polygon fill="#A80036" points="399.44,140,390.44,136,394.44,140,390.44,144,399.44,140" style="stroke:#A80036;stroke-width:1.0;"/><text fill="#000000" font-family="sans-serif" font-size="13" lengthAdjust="spacing" textLength="57" x="324.25" y="133.4951">creates</text><!--MD5=[5d48c31a730162187cd8aab12cd06aea]
reverse link IVerboseDltEncoder to VerboseDltEncoder--><path codeLine="18" d="M481.07,300.82 C463.36,316.84 444.03,334.33 429.09,347.84 " fill="none" id="IVerboseDltEncoder-backto-VerboseDltEncoder" style="stroke:#A80036;stroke-width:1.0;stroke-dasharray:7.0,7.0;"/><polygon fill="none" points="476.54,295.48,496.07,287.25,485.93,305.86,476.54,295.48" style="stroke:#A80036;stroke-width:1.0;"/><!--MD5=[c10ba2a4c2206f86f093c5724762e2d9]
reverse link IArgEncoder to DltArgEncoder--><path codeLine="24" d="M979.32,301.79 C994.39,317.54 1010.7,334.6 1023.36,347.84 " fill="none" id="IArgEncoder-backto-DltArgEncoder" style="stroke:#A80036;stroke-width:1.0;stroke-dasharray:7.0,7.0;"/><polygon fill="none" points="974.19,306.54,965.42,287.25,984.3,296.87,974.19,306.54" style="stroke:#A80036;stroke-width:1.0;"/><!--MD5=[c00cf507059481e068d00f0fd522b082]
reverse link IVerboseDltEncoder to IArgEncoder--><path codeLine="26" d="M689.74,256 C711.49,256 733.24,256 755,256 " fill="none" id="IVerboseDltEncoder-backto-IArgEncoder" style="stroke:#A80036;stroke-width:1.0;"/><polygon fill="#A80036" points="676.56,256,682.56,260,688.56,256,682.56,252,676.56,256" style="stroke:#A80036;stroke-width:1.0;"/><!--MD5=[ae2cd070edd2cab09bb115bb88e0196a]
reverse link VerboseDltEncoder to DltArgEncoder--><path codeLine="27" d="M486.21,372 C654.1,372 821.99,372 989.88,372 " fill="none" id="VerboseDltEncoder-backto-DltArgEncoder" style="stroke:#A80036;stroke-width:1.0;"/><polygon fill="#A80036" points="473.09,372,479.09,376,485.09,372,479.09,368,473.09,372" style="stroke:#A80036;stroke-width:1.0;"/><!--MD5=[ba8209c47a24740eb77ae852ac41f942]
reverse link IArgEncoder to BinaryIntArgEncoder--><path codeLine="44" d="M1076.3,292.36 C1181.86,321.56 1328.83,367.64 1450.5,426 C1470.08,435.39 1490.73,448.02 1507.31,458.91 " fill="none" id="IArgEncoder-backto-BinaryIntArgEncoder" style="stroke:#A80036;stroke-width:1.0;stroke-dasharray:7.0,7.0;"/><polygon fill="none" points="1074.2,299.04,1056.75,287.01,1077.89,285.54,1074.2,299.04" style="stroke:#A80036;stroke-width:1.0;"/><!--MD5=[5aed64833bc03253cb953b13dfeec736]
reverse link IArgEncoder to HexIntArgEncoder--><path codeLine="45" d="M1138.27,286.9 C1278.82,312.4 1468.34,356.24 1624.5,426 C1644.34,434.86 1664.92,447.72 1681.18,458.88 " fill="none" id="IArgEncoder-backto-HexIntArgEncoder" style="stroke:#A80036;stroke-width:1.0;stroke-dasharray:7.0,7.0;"/><polygon fill="none" points="1136.79,293.75,1118.33,283.35,1139.25,279.97,1136.79,293.75" style="stroke:#A80036;stroke-width:1.0;"/><!--MD5=[b159b959a3b3231b4941514ba210291c]
reverse link IArgEncoder to SignedIntArgEncoder--><path codeLine="46" d="M1138.36,275.48 C1314.18,296.61 1573.29,340.06 1784.5,426 C1806.77,435.06 1830.37,447.8 1849.26,458.84 " fill="none" id="IArgEncoder-backto-SignedIntArgEncoder" style="stroke:#A80036;stroke-width:1.0;stroke-dasharray:7.0,7.0;"/><polygon fill="none" points="1137.46,282.42,1118.42,273.13,1139.1,268.52,1137.46,282.42" style="stroke:#A80036;stroke-width:1.0;"/><!--MD5=[e0ad61f3839ecee07e81b6026d41820b]
reverse link IArgEncoder to UnsignedIntArgEncoder--><path codeLine="47" d="M1051.9,293.93 C1070.74,300.97 1089.85,308.75 1107.5,317 C1192.27,356.65 1280.69,423.62 1324.47,458.81 " fill="none" id="IArgEncoder-backto-UnsignedIntArgEncoder" style="stroke:#A80036;stroke-width:1.0;stroke-dasharray:7.0,7.0;"/><polygon fill="none" points="1049.23,300.41,1032.82,287.01,1054.01,287.25,1049.23,300.41" style="stroke:#A80036;stroke-width:1.0;"/><!--MD5=[be5df2e6cf675927e88dc03fea03e238]
reverse link IArgEncoder to BoolArgEncoder--><path codeLine="48" d="M1044.96,295.72 C1071.53,309.11 1098.15,326.36 1118.5,348 C1148.46,379.86 1163.96,429.86 1170.86,458.92 " fill="none" id="IArgEncoder-backto-BoolArgEncoder" style="stroke:#A80036;stroke-width:1.0;stroke-dasharray:7.0,7.0;"/><polygon fill="none" points="1041.72,301.93,1026.64,287.05,1047.71,289.28,1041.72,301.93" style="stroke:#A80036;stroke-width:1.0;"/><!--MD5=[6e9e10a4ecdb160f909aeea27bc53efa]
reverse link IArgEncoder to Float32ArgEncoder--><path codeLine="49" d="M886.3,300.28 C831.42,347.59 745.56,421.61 702.31,458.89 " fill="none" id="IArgEncoder-backto-Float32ArgEncoder" style="stroke:#A80036;stroke-width:1.0;stroke-dasharray:7.0,7.0;"/><polygon fill="none" points="881.85,294.87,901.57,287.11,890.99,305.47,881.85,294.87" style="stroke:#A80036;stroke-width:1.0;"/><!--MD5=[69c8e910a7d48f264de2bb7b867a146c]
reverse link IArgEncoder to Float64ArgEncoder--><path codeLine="50" d="M917.07,306.13 C898.32,353.52 870.77,423.18 856.62,458.95 " fill="none" id="IArgEncoder-backto-Float64ArgEncoder" style="stroke:#A80036;stroke-width:1.0;stroke-dasharray:7.0,7.0;"/><polygon fill="none" points="910.63,303.37,924.5,287.34,923.65,308.52,910.63,303.37" style="stroke:#A80036;stroke-width:1.0;"/><!--MD5=[420101715a094d5329c3e5e0da1a4c77]
reverse link IArgEncoder to RawArgEncoder--><path codeLine="51" d="M861.4,296.57 C831.97,312.3 798,330.74 767.5,348 C707.66,381.86 698.9,402.91 634.5,427 C615.88,433.96 609.11,428.03 590.5,435 C574.51,440.99 558.08,450.18 544.38,458.85 " fill="none" id="IArgEncoder-backto-RawArgEncoder" style="stroke:#A80036;stroke-width:1.0;stroke-dasharray:7.0,7.0;"/><polygon fill="none" points="858.12,290.38,879.07,287.16,864.71,302.74,858.12,290.38" style="stroke:#A80036;stroke-width:1.0;"/><!--MD5=[7a25e60677257f397e352321cda11e14]
reverse link IArgEncoder to StringArgEncoder--><path codeLine="52" d="M946.77,307 C952.94,333.81 961.7,367.17 972.5,396 C980.76,418.04 992.96,441.89 1002.26,458.87 " fill="none" id="IArgEncoder-backto-StringArgEncoder" style="stroke:#A80036;stroke-width:1.0;stroke-dasharray:7.0,7.0;"/><polygon fill="none" points="939.85,308.15,942.38,287.12,953.53,305.14,939.85,308.15" style="stroke:#A80036;stroke-width:1.0;"/><!--MD5=[1660fd670621efaea9754d500fa7eed1]
reverse link IArgEncoder to NonVerboseArgEncoder--><path codeLine="53" d="M823.03,293.65 C779.89,308.82 730.75,327.64 687.5,348 C624.6,377.61 618.95,406.57 552.5,427 C501.83,442.58 484.82,421.72 433.5,435 C412.89,440.33 391.35,449.88 373.56,458.98 " fill="none" id="IArgEncoder-backto-NonVerboseArgEncoder" style="stroke:#A80036;stroke-width:1.0;stroke-dasharray:7.0,7.0;"/><polygon fill="none" points="820.87,286.99,842.06,287.05,825.46,300.21,820.87,286.99" style="stroke:#A80036;stroke-width:1.0;"/><!--MD5=[e4349916ad7f106c9c8b4f3bd069f5ee]
reverse link IArgEncoder to UnknownVerboseArgEncoder--><path codeLine="54" d="M794.07,292.16 C735.47,307.69 667.23,327.15 606.5,348 C553.73,366.12 544.25,381.04 490.5,396 C379.2,426.98 344.87,404.26 233.5,435 C211.36,441.11 187.74,450.27 167.7,458.89 " fill="none" id="IArgEncoder-backto-UnknownVerboseArgEncoder" style="stroke:#A80036;stroke-width:1.0;stroke-dasharray:7.0,7.0;"/><polygon fill="none" points="792.43,285.36,813.55,287.05,795.98,298.9,792.43,285.36" style="stroke:#A80036;stroke-width:1.0;"/><!--MD5=[098c45412a9c1d03d1bc81c351972dcf]
reverse link DltArgEncoder to BinaryIntArgEncoder--><path codeLine="56" d="M1114.18,376.5 C1196.25,382.26 1336.85,397.17 1451.5,435 C1469.42,440.91 1488.06,450.2 1503.62,458.97 " fill="none" id="DltArgEncoder-backto-BinaryIntArgEncoder" style="stroke:#A80036;stroke-width:1.0;"/><polygon fill="#A80036" points="1101.03,375.62,1106.7484,380.0132,1113.003,376.4244,1107.2846,372.0312,1101.03,375.62" style="stroke:#A80036;stroke-width:1.0;"/><!--MD5=[be1650883a861717cfbca76afeff7504]
reverse link DltArgEncoder to HexIntArgEncoder--><path codeLine="57" d="M1114.43,376.79 C1247.54,384.69 1535.17,404.73 1629.5,435 C1646.69,440.52 1664.29,449.85 1678.83,458.76 " fill="none" id="DltArgEncoder-backto-HexIntArgEncoder" style="stroke:#A80036;stroke-width:1.0;"/><polygon fill="#A80036" points="1101.28,376.02,1107.0367,380.3628,1113.2596,376.7193,1107.5029,372.3764,1101.28,376.02" style="stroke:#A80036;stroke-width:1.0;"/><!--MD5=[c7d2bb61df93976d8ca7d1782a810c98]
reverse link DltArgEncoder to SignedIntArgEncoder--><path codeLine="58" d="M1114.63,375.25 C1275.07,381.04 1668.67,398.58 1795.5,435 C1814.3,440.4 1833.75,449.83 1849.81,458.84 " fill="none" id="DltArgEncoder-backto-SignedIntArgEncoder" style="stroke:#A80036;stroke-width:1.0;"/><polygon fill="#A80036" points="1101.21,374.78,1107.0656,378.9886,1113.2026,375.2022,1107.347,370.9936,1101.21,374.78" style="stroke:#A80036;stroke-width:1.0;"/><!--MD5=[e27aa9fe50fa026be79814fed7f0b268]
reverse link DltArgEncoder to UnsignedIntArgEncoder--><path codeLine="59" d="M1113.62,390.46 C1154.67,401.68 1207.69,417.42 1253.5,435 C1271.62,441.95 1291.01,450.83 1307.79,458.99 " fill="none" id="DltArgEncoder-backto-UnsignedIntArgEncoder" style="stroke:#A80036;stroke-width:1.0;"/><polygon fill="#A80036" points="1101.01,387.05,1105.7618,392.474,1112.5962,390.1739,1107.8444,384.7499,1101.01,387.05" style="stroke:#A80036;stroke-width:1.0;"/><!--MD5=[9c5c391c20cf0528fda8190fba60fc98]
reverse link DltArgEncoder to BoolArgEncoder--><path codeLine="60" d="M1083.13,404.55 C1103.85,421.92 1129.11,443.1 1147.97,458.92 " fill="none" id="DltArgEncoder-backto-BoolArgEncoder" style="stroke:#A80036;stroke-width:1.0;"/><polygon fill="#A80036" points="1073.07,396.12,1075.105,403.038,1082.2735,403.8204,1080.2385,396.9023,1073.07,396.12" style="stroke:#A80036;stroke-width:1.0;"/><!--MD5=[93530887ecf35726129a1c3ed19aad4d]
reverse link DltArgEncoder to Float32ArgEncoder--><path codeLine="61" d="M976.68,387.51 C895.93,404.62 771.65,431.21 761.5,435 C744.76,441.25 727.29,450.28 712.5,458.76 " fill="none" id="DltArgEncoder-backto-Float32ArgEncoder" style="stroke:#A80036;stroke-width:1.0;"/><polygon fill="#A80036" points="989.74,384.75,983.0428,382.0764,977.9991,387.2301,984.6962,389.9037,989.74,384.75" style="stroke:#A80036;stroke-width:1.0;"/><!--MD5=[c4239a2ca3e629a5fba9213ae5f5a008]
reverse link DltArgEncoder to Float64ArgEncoder--><path codeLine="62" d="M992.04,402.43 C959.81,420.17 919.34,442.45 889.43,458.92 " fill="none" id="DltArgEncoder-backto-Float64ArgEncoder" style="stroke:#A80036;stroke-width:1.0;"/><polygon fill="#A80036" points="1003.51,396.12,996.3246,395.5111,992.999,401.9096,1000.1844,402.5185,1003.51,396.12" style="stroke:#A80036;stroke-width:1.0;"/><!--MD5=[d2bd62cb63a46eeaffa8402f0a0a622e]
reverse link DltArgEncoder to RawArgEncoder--><path codeLine="63" d="M976.82,385.94 C909.09,398.25 802.51,416.42 709.5,427 C656.83,432.99 641.11,419.24 590.5,435 C573.59,440.27 556.49,449.8 542.54,458.92 " fill="none" id="DltArgEncoder-backto-RawArgEncoder" style="stroke:#A80036;stroke-width:1.0;"/><polygon fill="#A80036" points="989.83,383.56,983.2104,380.6998,978.0242,385.7101,984.6438,388.5703,989.83,383.56" style="stroke:#A80036;stroke-width:1.0;"/><!--MD5=[59b2260dbc3e2eb8b73192ed5cc8896d]
reverse link DltArgEncoder to StringArgEncoder--><path codeLine="64" d="M1035.69,408.66 C1031.14,425.18 1025.87,444.33 1021.85,458.92 " fill="none" id="DltArgEncoder-backto-StringArgEncoder" style="stroke:#A80036;stroke-width:1.0;"/><polygon fill="#A80036" points="1039.14,396.12,1033.6881,400.8398,1035.948,407.6877,1041.3999,402.9678,1039.14,396.12" style="stroke:#A80036;stroke-width:1.0;"/><!--MD5=[968ebb00f3e7a5a62315db99a97420df]
reverse link DltArgEncoder to NonVerboseArgEncoder--><path codeLine="65" d="M976.91,383.73 C894.26,396.22 751.08,416.49 627.5,427 C584.51,430.66 475.41,424.73 433.5,435 C412.63,440.11 390.88,449.75 373.02,458.97 " fill="none" id="DltArgEncoder-backto-NonVerboseArgEncoder" style="stroke:#A80036;stroke-width:1.0;"/><polygon fill="#A80036" points="989.89,381.76,983.3564,378.7085,978.0267,383.5659,984.5603,386.6174,989.89,381.76" style="stroke:#A80036;stroke-width:1.0;"/><!--MD5=[c03aa9d5f87cf6cdb828b0de8b5ec905]
reverse link DltArgEncoder to UnknownVerboseArgEncoder--><path codeLine="66" d="M976.76,382.23 C880.51,394.74 700.05,416.69 545.5,427 C476.3,431.62 301.38,420.76 233.5,435 C209.75,439.98 184.67,449.66 164.01,458.95 " fill="none" id="DltArgEncoder-backto-UnknownVerboseArgEncoder" style="stroke:#A80036;stroke-width:1.0;"/><polygon fill="#A80036" points="989.77,380.53,983.3018,377.3421,977.8714,382.0866,984.3396,385.2745,989.77,380.53" style="stroke:#A80036;stroke-width:1.0;"/><!--MD5=[86e25be5f845f6c03c8cbfd132908a17]
reverse link DltTraceEncoder to IVerboseDltEncoder--><path codeLine="68" d="M529.5,177.28 C529.5,192.52 529.5,210.06 529.5,224.61 " fill="none" id="DltTraceEncoder-backto-IVerboseDltEncoder" style="stroke:#A80036;stroke-width:1.0;"/><polygon fill="#A80036" points="529.5,164.07,525.5,170.07,529.5,176.07,533.5,170.07,529.5,164.07" style="stroke:#A80036;stroke-width:1.0;"/><!--MD5=[43257a1e25a63e64490f186f2d5177f1]
link BinaryIntArgEncoder to BinaryIntDltArg--><path codeLine="70" d="M1540.5,507.13 C1540.5,531.89 1540.5,571.17 1540.5,597.74 " fill="none" id="BinaryIntArgEncoder-to-BinaryIntDltArg" style="stroke:#A80036;stroke-width:1.0;"/><polygon fill="#A80036" points="1540.5,602.88,1544.5,593.88,1540.5,597.88,1536.5,593.88,1540.5,602.88" style="stroke:#A80036;stroke-width:1.0;"/><text fill="#000000" font-family="sans-serif" font-size="13" lengthAdjust="spacing" textLength="63" x="1541.5" y="561.4951">encodes</text><!--MD5=[721f28771af9c2ebadd1c79524ff9ef7]
link HexIntArgEncoder to HexIntDltArg--><path codeLine="71" d="M1712.5,507.13 C1712.5,531.89 1712.5,571.17 1712.5,597.74 " fill="none" id="HexIntArgEncoder-to-HexIntDltArg" style="stroke:#A80036;stroke-width:1.0;"/><polygon fill="#A80036" points="1712.5,602.88,1716.5,593.88,1712.5,597.88,1708.5,593.88,1712.5,602.88" style="stroke:#A80036;stroke-width:1.0;"/><text fill="#000000" font-family="sans-serif" font-size="13" lengthAdjust="spacing" textLength="63" x="1713.5" y="561.4951">encodes</text><!--MD5=[7fb6b0d9cc9b3285c2dd8a0cd0900751]
link SignedIntArgEncoder to SignedIntDltArg--><path codeLine="72" d="M1886.5,507.13 C1886.5,531.89 1886.5,571.17 1886.5,597.74 " fill="none" id="SignedIntArgEncoder-to-SignedIntDltArg" style="stroke:#A80036;stroke-width:1.0;"/><polygon fill="#A80036" points="1886.5,602.88,1890.5,593.88,1886.5,597.88,1882.5,593.88,1886.5,602.88" style="stroke:#A80036;stroke-width:1.0;"/><text fill="#000000" font-family="sans-serif" font-size="13" lengthAdjust="spacing" textLength="63" x="1887.5" y="561.4951">encodes</text><!--MD5=[4f4a3b0d5c8508ec5cbab0a116584dfc]
link UnsignedIntArgEncoder to UnsignedIntDltArg--><path codeLine="73" d="M1352.5,507.13 C1352.5,531.89 1352.5,571.17 1352.5,597.74 " fill="none" id="UnsignedIntArgEncoder-to-UnsignedIntDltArg" style="stroke:#A80036;stroke-width:1.0;"/><polygon fill="#A80036" points="1352.5,602.88,1356.5,593.88,1352.5,597.88,1348.5,593.88,1352.5,602.88" style="stroke:#A80036;stroke-width:1.0;"/><text fill="#000000" font-family="sans-serif" font-size="13" lengthAdjust="spacing" textLength="63" x="1353.5" y="561.4951">encodes</text><!--MD5=[7e9a0a83af909b0720f00a075c2f32e2]
link BoolArgEncoder to BoolDltArg--><path codeLine="74" d="M1175.5,507.13 C1175.5,531.89 1175.5,571.17 1175.5,597.74 " fill="none" id="BoolArgEncoder-to-BoolDltArg" style="stroke:#A80036;stroke-width:1.0;"/><polygon fill="#A80036" points="1175.5,602.88,1179.5,593.88,1175.5,597.88,1171.5,593.88,1175.5,602.88" style="stroke:#A80036;stroke-width:1.0;"/><text fill="#000000" font-family="sans-serif" font-size="13" lengthAdjust="spacing" textLength="63" x="1176.5" y="561.4951">encodes</text><!--MD5=[2d74c3d6efd32684781399015a291b59]
link Float32ArgEncoder to Float32DltArg--><path codeLine="75" d="M679.25,507.13 C683.26,531.89 689.62,571.17 693.92,597.74 " fill="none" id="Float32ArgEncoder-to-Float32DltArg" style="stroke:#A80036;stroke-width:1.0;"/><polygon fill="#A80036" points="694.76,602.88,697.2663,593.3554,693.9589,597.9446,689.3697,594.6372,694.76,602.88" style="stroke:#A80036;stroke-width:1.0;"/><text fill="#000000" font-family="sans-serif" font-size="13" lengthAdjust="spacing" textLength="63" x="690.5" y="561.4951">encodes</text><!--MD5=[3663330a6e4b4a4690bab89813248697]
link Float64ArgEncoder to Float64DltArg--><path codeLine="76" d="M847.5,507.13 C847.5,531.89 847.5,571.17 847.5,597.74 " fill="none" id="Float64ArgEncoder-to-Float64DltArg" style="stroke:#A80036;stroke-width:1.0;"/><polygon fill="#A80036" points="847.5,602.88,851.5,593.88,847.5,597.88,843.5,593.88,847.5,602.88" style="stroke:#A80036;stroke-width:1.0;"/><text fill="#000000" font-family="sans-serif" font-size="13" lengthAdjust="spacing" textLength="63" x="848.5" y="561.4951">encodes</text><!--MD5=[358a230eacceb6582849cccffb7705da]
link StringArgEncoder to StringDltArg--><path codeLine="77" d="M1015.5,507.13 C1015.5,531.89 1015.5,571.17 1015.5,597.74 " fill="none" id="StringArgEncoder-to-StringDltArg" style="stroke:#A80036;stroke-width:1.0;"/><polygon fill="#A80036" points="1015.5,602.88,1019.5,593.88,1015.5,597.88,1011.5,593.88,1015.5,602.88" style="stroke:#A80036;stroke-width:1.0;"/><text fill="#000000" font-family="sans-serif" font-size="13" lengthAdjust="spacing" textLength="63" x="1016.5" y="561.4951">encodes</text><!--MD5=[2034f1e70fbab9c14e61f7b7ebc1293f]
link RawArgEncoder to RawDltArg--><path codeLine="78" d="M475.63,507.16 C462.43,516.38 447.74,527.53 435.5,539 C416.11,557.17 397.08,580.48 383.45,598.4 " fill="none" id="RawArgEncoder-to-RawDltArg" style="stroke:#A80036;stroke-width:1.0;"/><polygon fill="#A80036" points="380.11,602.83,388.7291,598.0645,383.126,598.842,382.3484,593.2389,380.11,602.83" style="stroke:#A80036;stroke-width:1.0;"/><text fill="#000000" font-family="sans-serif" font-size="13" lengthAdjust="spacing" textLength="63" x="436.5" y="561.4951">encodes</text><!--MD5=[2af069c3c1368b6bfcf4cc181dea35a7]
link NonVerboseArgEncoder to RawDltArg--><path codeLine="79" d="M327.92,507.19 C324.54,525.46 322,551.36 328.5,573 C331.2,582 335.99,590.88 341.16,598.72 " fill="none" id="NonVerboseArgEncoder-to-RawDltArg" style="stroke:#A80036;stroke-width:1.0;"/><polygon fill="#A80036" points="344.07,602.97,342.3059,593.2804,341.2538,598.8386,335.6956,597.7864,344.07,602.97" style="stroke:#A80036;stroke-width:1.0;"/><text fill="#000000" font-family="sans-serif" font-size="13" lengthAdjust="spacing" textLength="65" x="329.5" y="553.4951">&lt;&lt;encodes</text><text fill="#000000" font-family="sans-serif" font-size="13" lengthAdjust="spacing" textLength="60" x="332" y="569.8467">verbose&gt;&gt;</text><!--MD5=[9a887051fa88c2a06a6e48a255772f5b]
link NonVerboseArgEncoder to NonVerboseDltArg--><path codeLine="80" d="M374.65,507.06 C392.27,515.94 413.38,525.31 433.5,531 C448.78,535.32 491.68,529.64 504.5,539 C523.48,552.86 533.4,578.1 538.48,597.84 " fill="none" id="NonVerboseArgEncoder-to-NonVerboseDltArg" style="stroke:#A80036;stroke-width:1.0;"/><polygon fill="#A80036" points="539.66,602.73,541.4115,593.0381,538.4742,597.8726,533.6397,594.9354,539.66,602.73" style="stroke:#A80036;stroke-width:1.0;"/><text fill="#000000" font-family="sans-serif" font-size="13" lengthAdjust="spacing" textLength="65" x="538.5" y="553.4951">&lt;&lt;encodes</text><text fill="#000000" font-family="sans-serif" font-size="13" lengthAdjust="spacing" textLength="81" x="530.5" y="569.8467">nonverbose&gt;&gt;</text><!--MD5=[81ab0216c3dbf594c6a73c9136589686]
link NonVerboseArgEncoder to UnknownVerboseDltArg--><path codeLine="81" d="M294.34,507.13 C280.22,516.27 264.55,527.36 251.5,539 C231.28,557.04 211.56,580.61 197.57,598.67 " fill="none" id="NonVerboseArgEncoder-to-UnknownVerboseDltArg" style="stroke:#A80036;stroke-width:1.0;"/><polygon fill="#A80036" points="194.49,602.67,203.1389,597.9587,197.531,598.701,196.7886,593.0931,194.49,602.67" style="stroke:#A80036;stroke-width:1.0;"/><text fill="#000000" font-family="sans-serif" font-size="13" lengthAdjust="spacing" textLength="63" x="252.5" y="561.4951">encodes</text><!--MD5=[a6c4398af25b435b5b8850da81df18a6]
link UnknownVerboseArgEncoder to UnknownVerboseDltArg--><path codeLine="82" d="M113.1,507.02 C109.9,525.66 108.1,552.15 117.5,573 C122.02,583.02 129.47,591.9 137.61,599.4 " fill="none" id="UnknownVerboseArgEncoder-to-UnknownVerboseDltArg" style="stroke:#A80036;stroke-width:1.0;"/><polygon fill="#A80036" points="141.65,602.97,137.5638,594.0088,137.9067,599.6553,132.2602,599.9982,141.65,602.97" style="stroke:#A80036;stroke-width:1.0;"/><text fill="#000000" font-family="sans-serif" font-size="13" lengthAdjust="spacing" textLength="63" x="118.5" y="561.4951">encodes</text><!--MD5=[c20a857b8069b59dcdac8a2d5a166e6a]
@startuml DLT.WriterEncoder
interface ITraceEncoder
interface ITraceEncoderFactory

ITraceEncoderFactory -r- ITraceEncoder

class DltTraceEncoderFactory<TLine:DltTraceLineBase>
ITraceEncoderFactory <|.d. DltTraceEncoderFactory

class DltTraceEncoder<TLine:DltTraceLineBase>
ITraceEncoder <|.d. DltTraceEncoder

DltTraceEncoderFactory -r-> DltTraceEncoder : <<creates>>

interface IVerboseDltEncoder {
    +Encode(buffer: Span<byte>, line: DltTraceLineBase): int
}
class VerboseDltEncoder
IVerboseDltEncoder <|.d. VerboseDltEncoder

interface IArgEncoder {
    +Encode(buffer: Span<byte>, bool verbose, bool msbf, arg: IDltArg): int
}
class DltArgEncoder
IArgEncoder <|.d. DltArgEncoder

IVerboseDltEncoder *-r- IArgEncoder
VerboseDltEncoder *-r- DltArgEncoder

class BoolArgEncoder
together {
  class BinaryIntArgEncoder
  class HexIntArgEncoder
  class SignedIntArgEncoder
  class UnsignedIntArgEncoder
}
together {
  class Float32ArgEncoder
  class Float64ArgEncoder
}
class StringArgEncoder
class RawArgEncoder
class NonVerboseArgEncoder
class UnknownVerboseArgEncoder
IArgEncoder <|..d. BinaryIntArgEncoder
IArgEncoder <|..d. HexIntArgEncoder
IArgEncoder <|..d. SignedIntArgEncoder
IArgEncoder <|..d. UnsignedIntArgEncoder
IArgEncoder <|..d. BoolArgEncoder
IArgEncoder <|..d. Float32ArgEncoder
IArgEncoder <|..d. Float64ArgEncoder
IArgEncoder <|..d. RawArgEncoder
IArgEncoder <|..d. StringArgEncoder
IArgEncoder <|..d. NonVerboseArgEncoder
IArgEncoder <|..d. UnknownVerboseArgEncoder

DltArgEncoder *-d- BinaryIntArgEncoder
DltArgEncoder *-d- HexIntArgEncoder
DltArgEncoder *-d- SignedIntArgEncoder
DltArgEncoder *-d- UnsignedIntArgEncoder
DltArgEncoder *-d- BoolArgEncoder
DltArgEncoder *-d- Float32ArgEncoder
DltArgEncoder *-d- Float64ArgEncoder
DltArgEncoder *-d- RawArgEncoder
DltArgEncoder *-d- StringArgEncoder
DltArgEncoder *-d- NonVerboseArgEncoder
DltArgEncoder *-d- UnknownVerboseArgEncoder

DltTraceEncoder *-d- IVerboseDltEncoder

BinaryIntArgEncoder -d-> BinaryIntDltArg : <<encodes>>
HexIntArgEncoder -d-> HexIntDltArg : <<encodes>>
SignedIntArgEncoder -d-> SignedIntDltArg : <<encodes>>
UnsignedIntArgEncoder -d-> UnsignedIntDltArg : <<encodes>>
BoolArgEncoder -d-> BoolDltArg : <<encodes>>
Float32ArgEncoder -d-> Float32DltArg : <<encodes>>
Float64ArgEncoder -d-> Float64DltArg : <<encodes>>
StringArgEncoder -d-> StringDltArg : <<encodes>>
RawArgEncoder -d-> RawDltArg : <<encodes>>
NonVerboseArgEncoder -d-> RawDltArg : <<encodes\nverbose>>
NonVerboseArgEncoder -d-> NonVerboseDltArg : <<encodes\nnonverbose>>
NonVerboseArgEncoder -d-> UnknownVerboseDltArg : <<encodes>>
UnknownVerboseArgEncoder -d-> UnknownVerboseDltArg : <<encodes>>
@enduml

PlantUML version 1.2022.1(Tue Feb 01 19:19:58 CET 2022)
(GPL source distribution)
Java Runtime: Java(TM) SE Runtime Environment
JVM: Java HotSpot(TM) Client VM
Default Encoding: Cp1252
Language: en
Country: US
--></g></svg>