<?xml version="1.0" encoding="UTF-8" standalone="no"?><svg xmlns="http://www.w3.org/2000/svg" xmlns:xlink="http://www.w3.org/1999/xlink" contentScriptType="application/ecmascript" contentStyleType="text/css" height="645px" preserveAspectRatio="none" style="width:1707px;height:645px;background:#FFFFFF;" version="1.1" viewBox="0 0 1707 645" width="1707px" zoomAndPan="magnify"><defs><filter height="300%" id="fe94a8cg9w58o" width="300%" x="-1" y="-1"><feGaussianBlur result="blurOut" stdDeviation="2.0"/><feColorMatrix in="blurOut" result="blurOut2" type="matrix" values="0 0 0 0 0 0 0 0 0 0 0 0 0 0 0 0 0 0 .4 0"/><feOffset dx="4.0" dy="4.0" in="blurOut2" result="blurOut3"/><feBlend in="SourceGraphic" in2="blurOut3" mode="normal"/></filter></defs><g><!--MD5=[6f6d608e6fcd45a869ad33795209fe26]
class ITraceEncoder--><rect codeLine="1" fill="#FEFECE" filter="url(#fe94a8cg9w58o)" height="48" id="ITraceEncoder" style="stroke:#A80036;stroke-width:1.5;" width="113" x="447" y="7"/><ellipse cx="462" cy="23" fill="#B4A7E5" rx="11" ry="11" style="stroke:#A80036;stroke-width:1.0;"/><path d="M462.9531,19.6406 L462.9531,26.2969 L464.6719,26.2969 Q465.2813,26.2969 465.5469,26.5313 Q465.8125,26.7656 465.8125,27.1563 Q465.8125,27.5313 465.5469,27.7656 Q465.2813,28 464.6719,28 L459.5313,28 Q458.9219,28 458.6563,27.7656 Q458.3906,27.5313 458.3906,27.1406 Q458.3906,26.7656 458.6563,26.5313 Q458.9219,26.2969 459.5313,26.2969 L461.25,26.2969 L461.25,19.6406 L459.5313,19.6406 Q458.9219,19.6406 458.6563,19.4063 Q458.3906,19.1719 458.3906,18.7813 Q458.3906,18.4063 458.6563,18.1719 Q458.9219,17.9375 459.5313,17.9375 L464.6719,17.9375 Q465.2813,17.9375 465.5469,18.1719 Q465.8125,18.4063 465.8125,18.7813 Q465.8125,19.1719 465.5469,19.4063 Q465.2813,19.6406 464.6719,19.6406 L462.9531,19.6406 Z " fill="#000000"/><text fill="#000000" font-family="sans-serif" font-size="12" font-style="italic" lengthAdjust="spacing" textLength="81" x="476" y="27.9102">ITraceEncoder</text><line style="stroke:#A80036;stroke-width:1.5;" x1="448" x2="559" y1="39" y2="39"/><line style="stroke:#A80036;stroke-width:1.5;" x1="448" x2="559" y1="47" y2="47"/><!--MD5=[3d4b20d523844a7742bcfaf38f4a7853]
class ITraceEncoderFactory--><rect codeLine="2" fill="#FEFECE" filter="url(#fe94a8cg9w58o)" height="48" id="ITraceEncoderFactory" style="stroke:#A80036;stroke-width:1.5;" width="153" x="233" y="7"/><ellipse cx="248" cy="23" fill="#B4A7E5" rx="11" ry="11" style="stroke:#A80036;stroke-width:1.0;"/><path d="M248.9531,19.6406 L248.9531,26.2969 L250.6719,26.2969 Q251.2813,26.2969 251.5469,26.5313 Q251.8125,26.7656 251.8125,27.1563 Q251.8125,27.5313 251.5469,27.7656 Q251.2813,28 250.6719,28 L245.5313,28 Q244.9219,28 244.6563,27.7656 Q244.3906,27.5313 244.3906,27.1406 Q244.3906,26.7656 244.6563,26.5313 Q244.9219,26.2969 245.5313,26.2969 L247.25,26.2969 L247.25,19.6406 L245.5313,19.6406 Q244.9219,19.6406 244.6563,19.4063 Q244.3906,19.1719 244.3906,18.7813 Q244.3906,18.4063 244.6563,18.1719 Q244.9219,17.9375 245.5313,17.9375 L250.6719,17.9375 Q251.2813,17.9375 251.5469,18.1719 Q251.8125,18.4063 251.8125,18.7813 Q251.8125,19.1719 251.5469,19.4063 Q251.2813,19.6406 250.6719,19.6406 L248.9531,19.6406 Z " fill="#000000"/><text fill="#000000" font-family="sans-serif" font-size="12" font-style="italic" lengthAdjust="spacing" textLength="121" x="262" y="27.9102">ITraceEncoderFactory</text><line style="stroke:#A80036;stroke-width:1.5;" x1="234" x2="385" y1="39" y2="39"/><line style="stroke:#A80036;stroke-width:1.5;" x1="234" x2="385" y1="47" y2="47"/><!--MD5=[4aada09f93d0b6e7ebd03dfdc6a2603a]
class DltTraceEncoderFactory--><rect codeLine="6" fill="#FEFECE" filter="url(#fe94a8cg9w58o)" height="48" id="DltTraceEncoderFactory" style="stroke:#A80036;stroke-width:1.5;" width="299" x="7" y="116"/><ellipse cx="22" cy="132" fill="#ADD1B2" rx="11" ry="11" style="stroke:#A80036;stroke-width:1.0;"/><path d="M24.7656,127.875 Q24.9219,127.6563 25.1094,127.5469 Q25.2969,127.4375 25.5156,127.4375 Q25.8906,127.4375 26.125,127.6953 Q26.3594,127.9531 26.3594,128.5625 L26.3594,130.0156 Q26.3594,130.625 26.125,130.8906 Q25.8906,131.1563 25.5156,131.1563 Q25.1719,131.1563 24.9688,130.9531 Q24.7656,130.7656 24.6563,130.25 Q24.6094,129.8906 24.4219,129.7031 Q24.0938,129.3281 23.4844,129.1094 Q22.875,128.8906 22.25,128.8906 Q21.4844,128.8906 20.8516,129.2188 Q20.2188,129.5469 19.7266,130.2969 Q19.2344,131.0469 19.2344,132.0781 L19.2344,133.1719 Q19.2344,134.4063 20.125,135.2266 Q21.0156,136.0469 22.6094,136.0469 Q23.5469,136.0469 24.2031,135.7969 Q24.5938,135.6406 25.0156,135.2031 Q25.2813,134.9375 25.4297,134.8594 Q25.5781,134.7813 25.7813,134.7813 Q26.1094,134.7813 26.3672,135.0391 Q26.625,135.2969 26.625,135.6406 Q26.625,135.9844 26.2813,136.3906 Q25.7813,136.9688 24.9844,137.2969 Q23.9063,137.75 22.6094,137.75 Q21.0938,137.75 19.8906,137.125 Q18.9063,136.625 18.2188,135.5547 Q17.5313,134.4844 17.5313,133.2031 L17.5313,132.0469 Q17.5313,130.7188 18.1484,129.5703 Q18.7656,128.4219 19.8594,127.8047 Q20.9531,127.1875 22.1875,127.1875 Q22.9219,127.1875 23.5703,127.3516 Q24.2188,127.5156 24.7656,127.875 Z " fill="#000000"/><text fill="#000000" font-family="sans-serif" font-size="12" lengthAdjust="spacing" textLength="131" x="36" y="136.9102">DltTraceEncoderFactory</text><rect fill="#FFFFFF" height="17.0938" style="stroke:#000000;stroke-width:1.0;stroke-dasharray:2.0,2.0;" width="134" x="175" y="113"/><text fill="#000000" font-family="sans-serif" font-size="12" font-style="italic" lengthAdjust="spacing" textLength="132" x="176" y="126.457">TLine:DltTraceLineBase</text><line style="stroke:#A80036;stroke-width:1.5;" x1="8" x2="305" y1="148" y2="148"/><line style="stroke:#A80036;stroke-width:1.5;" x1="8" x2="305" y1="156" y2="156"/><!--MD5=[11363600cc92b2fece27b28de66320bf]
class DltTraceEncoder--><rect codeLine="9" fill="#FEFECE" filter="url(#fe94a8cg9w58o)" height="48" id="DltTraceEncoder" style="stroke:#A80036;stroke-width:1.5;" width="260" x="399.5" y="116"/><ellipse cx="414.5" cy="132" fill="#ADD1B2" rx="11" ry="11" style="stroke:#A80036;stroke-width:1.0;"/><path d="M417.2656,127.875 Q417.4219,127.6563 417.6094,127.5469 Q417.7969,127.4375 418.0156,127.4375 Q418.3906,127.4375 418.625,127.6953 Q418.8594,127.9531 418.8594,128.5625 L418.8594,130.0156 Q418.8594,130.625 418.625,130.8906 Q418.3906,131.1563 418.0156,131.1563 Q417.6719,131.1563 417.4688,130.9531 Q417.2656,130.7656 417.1563,130.25 Q417.1094,129.8906 416.9219,129.7031 Q416.5938,129.3281 415.9844,129.1094 Q415.375,128.8906 414.75,128.8906 Q413.9844,128.8906 413.3516,129.2188 Q412.7188,129.5469 412.2266,130.2969 Q411.7344,131.0469 411.7344,132.0781 L411.7344,133.1719 Q411.7344,134.4063 412.625,135.2266 Q413.5156,136.0469 415.1094,136.0469 Q416.0469,136.0469 416.7031,135.7969 Q417.0938,135.6406 417.5156,135.2031 Q417.7813,134.9375 417.9297,134.8594 Q418.0781,134.7813 418.2813,134.7813 Q418.6094,134.7813 418.8672,135.0391 Q419.125,135.2969 419.125,135.6406 Q419.125,135.9844 418.7813,136.3906 Q418.2813,136.9688 417.4844,137.2969 Q416.4063,137.75 415.1094,137.75 Q413.5938,137.75 412.3906,137.125 Q411.4063,136.625 410.7188,135.5547 Q410.0313,134.4844 410.0313,133.2031 L410.0313,132.0469 Q410.0313,130.7188 410.6484,129.5703 Q411.2656,128.4219 412.3594,127.8047 Q413.4531,127.1875 414.6875,127.1875 Q415.4219,127.1875 416.0703,127.3516 Q416.7188,127.5156 417.2656,127.875 Z " fill="#000000"/><text fill="#000000" font-family="sans-serif" font-size="12" lengthAdjust="spacing" textLength="92" x="428.5" y="136.9102">DltTraceEncoder</text><rect fill="#FFFFFF" height="17.0938" style="stroke:#000000;stroke-width:1.0;stroke-dasharray:2.0,2.0;" width="134" x="528.5" y="113"/><text fill="#000000" font-family="sans-serif" font-size="12" font-style="italic" lengthAdjust="spacing" textLength="132" x="529.5" y="126.457">TLine:DltTraceLineBase</text><line style="stroke:#A80036;stroke-width:1.5;" x1="400.5" x2="658.5" y1="148" y2="148"/><line style="stroke:#A80036;stroke-width:1.5;" x1="400.5" x2="658.5" y1="156" y2="156"/><!--MD5=[48f8e76aba46043221db20ac9879cbe3]
class IVerboseDltEncoder--><rect codeLine="14" fill="#FEFECE" filter="url(#fe94a8cg9w58o)" height="61.8359" id="IVerboseDltEncoder" style="stroke:#A80036;stroke-width:1.5;" width="294" x="382.5" y="225"/><ellipse cx="469.25" cy="241" fill="#B4A7E5" rx="11" ry="11" style="stroke:#A80036;stroke-width:1.0;"/><path d="M470.2031,237.6406 L470.2031,244.2969 L471.9219,244.2969 Q472.5313,244.2969 472.7969,244.5313 Q473.0625,244.7656 473.0625,245.1563 Q473.0625,245.5313 472.7969,245.7656 Q472.5313,246 471.9219,246 L466.7813,246 Q466.1719,246 465.9063,245.7656 Q465.6406,245.5313 465.6406,245.1406 Q465.6406,244.7656 465.9063,244.5313 Q466.1719,244.2969 466.7813,244.2969 L468.5,244.2969 L468.5,237.6406 L466.7813,237.6406 Q466.1719,237.6406 465.9063,237.4063 Q465.6406,237.1719 465.6406,236.7813 Q465.6406,236.4063 465.9063,236.1719 Q466.1719,235.9375 466.7813,235.9375 L471.9219,235.9375 Q472.5313,235.9375 472.7969,236.1719 Q473.0625,236.4063 473.0625,236.7813 Q473.0625,237.1719 472.7969,237.4063 Q472.5313,237.6406 471.9219,237.6406 L470.2031,237.6406 Z " fill="#000000"/><text fill="#000000" font-family="sans-serif" font-size="12" font-style="italic" lengthAdjust="spacing" textLength="112" x="489.75" y="245.9102">IVerboseDltEncoder</text><line style="stroke:#A80036;stroke-width:1.5;" x1="383.5" x2="675.5" y1="257" y2="257"/><line style="stroke:#A80036;stroke-width:1.5;" x1="383.5" x2="675.5" y1="265" y2="265"/><ellipse cx="393.5" cy="276" fill="#84BE84" rx="3" ry="3" style="stroke:#038048;stroke-width:1.0;"/><text fill="#000000" font-family="sans-serif" font-size="11" lengthAdjust="spacing" textLength="268" x="402.5" y="280.4189">Encode(buffer: Span&lt;byte&gt;, line: DltTraceLineBase): int</text><!--MD5=[05a54f20826aaf197f67c85105285274]
class VerboseDltEncoder--><rect codeLine="17" fill="#FEFECE" filter="url(#fe94a8cg9w58o)" height="48" id="VerboseDltEncoder" style="stroke:#A80036;stroke-width:1.5;" width="139" x="449" y="348"/><ellipse cx="464" cy="364" fill="#ADD1B2" rx="11" ry="11" style="stroke:#A80036;stroke-width:1.0;"/><path d="M466.7656,359.875 Q466.9219,359.6563 467.1094,359.5469 Q467.2969,359.4375 467.5156,359.4375 Q467.8906,359.4375 468.125,359.6953 Q468.3594,359.9531 468.3594,360.5625 L468.3594,362.0156 Q468.3594,362.625 468.125,362.8906 Q467.8906,363.1563 467.5156,363.1563 Q467.1719,363.1563 466.9688,362.9531 Q466.7656,362.7656 466.6563,362.25 Q466.6094,361.8906 466.4219,361.7031 Q466.0938,361.3281 465.4844,361.1094 Q464.875,360.8906 464.25,360.8906 Q463.4844,360.8906 462.8516,361.2188 Q462.2188,361.5469 461.7266,362.2969 Q461.2344,363.0469 461.2344,364.0781 L461.2344,365.1719 Q461.2344,366.4063 462.125,367.2266 Q463.0156,368.0469 464.6094,368.0469 Q465.5469,368.0469 466.2031,367.7969 Q466.5938,367.6406 467.0156,367.2031 Q467.2813,366.9375 467.4297,366.8594 Q467.5781,366.7813 467.7813,366.7813 Q468.1094,366.7813 468.3672,367.0391 Q468.625,367.2969 468.625,367.6406 Q468.625,367.9844 468.2813,368.3906 Q467.7813,368.9688 466.9844,369.2969 Q465.9063,369.75 464.6094,369.75 Q463.0938,369.75 461.8906,369.125 Q460.9063,368.625 460.2188,367.5547 Q459.5313,366.4844 459.5313,365.2031 L459.5313,364.0469 Q459.5313,362.7188 460.1484,361.5703 Q460.7656,360.4219 461.8594,359.8047 Q462.9531,359.1875 464.1875,359.1875 Q464.9219,359.1875 465.5703,359.3516 Q466.2188,359.5156 466.7656,359.875 Z " fill="#000000"/><text fill="#000000" font-family="sans-serif" font-size="12" lengthAdjust="spacing" textLength="107" x="478" y="368.9102">VerboseDltEncoder</text><line style="stroke:#A80036;stroke-width:1.5;" x1="450" x2="587" y1="380" y2="380"/><line style="stroke:#A80036;stroke-width:1.5;" x1="450" x2="587" y1="388" y2="388"/><!--MD5=[1ada5c8c1c24328e5b785220312f9c3f]
class IVerboseArgEncoder--><rect codeLine="20" fill="#FEFECE" filter="url(#fe94a8cg9w58o)" height="61.8359" id="IVerboseArgEncoder" style="stroke:#A80036;stroke-width:1.5;" width="241" x="716" y="225"/><ellipse cx="774.25" cy="241" fill="#B4A7E5" rx="11" ry="11" style="stroke:#A80036;stroke-width:1.0;"/><path d="M775.2031,237.6406 L775.2031,244.2969 L776.9219,244.2969 Q777.5313,244.2969 777.7969,244.5313 Q778.0625,244.7656 778.0625,245.1563 Q778.0625,245.5313 777.7969,245.7656 Q777.5313,246 776.9219,246 L771.7813,246 Q771.1719,246 770.9063,245.7656 Q770.6406,245.5313 770.6406,245.1406 Q770.6406,244.7656 770.9063,244.5313 Q771.1719,244.2969 771.7813,244.2969 L773.5,244.2969 L773.5,237.6406 L771.7813,237.6406 Q771.1719,237.6406 770.9063,237.4063 Q770.6406,237.1719 770.6406,236.7813 Q770.6406,236.4063 770.9063,236.1719 Q771.1719,235.9375 771.7813,235.9375 L776.9219,235.9375 Q777.5313,235.9375 777.7969,236.1719 Q778.0625,236.4063 778.0625,236.7813 Q778.0625,237.1719 777.7969,237.4063 Q777.5313,237.6406 776.9219,237.6406 L775.2031,237.6406 Z " fill="#000000"/><text fill="#000000" font-family="sans-serif" font-size="12" font-style="italic" lengthAdjust="spacing" textLength="116" x="794.75" y="245.9102">IVerboseArgEncoder</text><line style="stroke:#A80036;stroke-width:1.5;" x1="717" x2="956" y1="257" y2="257"/><line style="stroke:#A80036;stroke-width:1.5;" x1="717" x2="956" y1="265" y2="265"/><ellipse cx="727" cy="276" fill="#84BE84" rx="3" ry="3" style="stroke:#038048;stroke-width:1.0;"/><text fill="#000000" font-family="sans-serif" font-size="11" lengthAdjust="spacing" textLength="215" x="736" y="280.4189">Encode(buffer: Span&lt;byte&gt;, arg: IDltArg): int</text><!--MD5=[94bc7284ec485dd80e470d2453addd79]
class VerboseArgEncoder--><rect codeLine="23" fill="#FEFECE" filter="url(#fe94a8cg9w58o)" height="48" id="VerboseArgEncoder" style="stroke:#A80036;stroke-width:1.5;" width="142" x="765.5" y="348"/><ellipse cx="780.5" cy="364" fill="#ADD1B2" rx="11" ry="11" style="stroke:#A80036;stroke-width:1.0;"/><path d="M783.2656,359.875 Q783.4219,359.6563 783.6094,359.5469 Q783.7969,359.4375 784.0156,359.4375 Q784.3906,359.4375 784.625,359.6953 Q784.8594,359.9531 784.8594,360.5625 L784.8594,362.0156 Q784.8594,362.625 784.625,362.8906 Q784.3906,363.1563 784.0156,363.1563 Q783.6719,363.1563 783.4688,362.9531 Q783.2656,362.7656 783.1563,362.25 Q783.1094,361.8906 782.9219,361.7031 Q782.5938,361.3281 781.9844,361.1094 Q781.375,360.8906 780.75,360.8906 Q779.9844,360.8906 779.3516,361.2188 Q778.7188,361.5469 778.2266,362.2969 Q777.7344,363.0469 777.7344,364.0781 L777.7344,365.1719 Q777.7344,366.4063 778.625,367.2266 Q779.5156,368.0469 781.1094,368.0469 Q782.0469,368.0469 782.7031,367.7969 Q783.0938,367.6406 783.5156,367.2031 Q783.7813,366.9375 783.9297,366.8594 Q784.0781,366.7813 784.2813,366.7813 Q784.6094,366.7813 784.8672,367.0391 Q785.125,367.2969 785.125,367.6406 Q785.125,367.9844 784.7813,368.3906 Q784.2813,368.9688 783.4844,369.2969 Q782.4063,369.75 781.1094,369.75 Q779.5938,369.75 778.3906,369.125 Q777.4063,368.625 776.7188,367.5547 Q776.0313,366.4844 776.0313,365.2031 L776.0313,364.0469 Q776.0313,362.7188 776.6484,361.5703 Q777.2656,360.4219 778.3594,359.8047 Q779.4531,359.1875 780.6875,359.1875 Q781.4219,359.1875 782.0703,359.3516 Q782.7188,359.5156 783.2656,359.875 Z " fill="#000000"/><text fill="#000000" font-family="sans-serif" font-size="12" lengthAdjust="spacing" textLength="110" x="794.5" y="368.9102">VerboseArgEncoder</text><line style="stroke:#A80036;stroke-width:1.5;" x1="766.5" x2="906.5" y1="380" y2="380"/><line style="stroke:#A80036;stroke-width:1.5;" x1="766.5" x2="906.5" y1="388" y2="388"/><!--MD5=[015e64df3acfe1860d87c9290b90604c]
class IntArgEncoder--><rect codeLine="29" fill="#FEFECE" filter="url(#fe94a8cg9w58o)" height="48" id="IntArgEncoder" style="stroke:#A80036;stroke-width:1.5;" width="109" x="988" y="457"/><ellipse cx="1003" cy="473" fill="#ADD1B2" rx="11" ry="11" style="stroke:#A80036;stroke-width:1.0;"/><path d="M1005.7656,468.875 Q1005.9219,468.6563 1006.1094,468.5469 Q1006.2969,468.4375 1006.5156,468.4375 Q1006.8906,468.4375 1007.125,468.6953 Q1007.3594,468.9531 1007.3594,469.5625 L1007.3594,471.0156 Q1007.3594,471.625 1007.125,471.8906 Q1006.8906,472.1563 1006.5156,472.1563 Q1006.1719,472.1563 1005.9688,471.9531 Q1005.7656,471.7656 1005.6563,471.25 Q1005.6094,470.8906 1005.4219,470.7031 Q1005.0938,470.3281 1004.4844,470.1094 Q1003.875,469.8906 1003.25,469.8906 Q1002.4844,469.8906 1001.8516,470.2188 Q1001.2188,470.5469 1000.7266,471.2969 Q1000.2344,472.0469 1000.2344,473.0781 L1000.2344,474.1719 Q1000.2344,475.4063 1001.125,476.2266 Q1002.0156,477.0469 1003.6094,477.0469 Q1004.5469,477.0469 1005.2031,476.7969 Q1005.5938,476.6406 1006.0156,476.2031 Q1006.2813,475.9375 1006.4297,475.8594 Q1006.5781,475.7813 1006.7813,475.7813 Q1007.1094,475.7813 1007.3672,476.0391 Q1007.625,476.2969 1007.625,476.6406 Q1007.625,476.9844 1007.2813,477.3906 Q1006.7813,477.9688 1005.9844,478.2969 Q1004.9063,478.75 1003.6094,478.75 Q1002.0938,478.75 1000.8906,478.125 Q999.9063,477.625 999.2188,476.5547 Q998.5313,475.4844 998.5313,474.2031 L998.5313,473.0469 Q998.5313,471.7188 999.1484,470.5703 Q999.7656,469.4219 1000.8594,468.8047 Q1001.9531,468.1875 1003.1875,468.1875 Q1003.9219,468.1875 1004.5703,468.3516 Q1005.2188,468.5156 1005.7656,468.875 Z " fill="#000000"/><text fill="#000000" font-family="sans-serif" font-size="12" lengthAdjust="spacing" textLength="77" x="1017" y="477.9102">IntArgEncoder</text><line style="stroke:#A80036;stroke-width:1.5;" x1="989" x2="1096" y1="489" y2="489"/><line style="stroke:#A80036;stroke-width:1.5;" x1="989" x2="1096" y1="497" y2="497"/><!--MD5=[e04e017feeb2dd5dd390d83656173fba]
class BoolArgEncoder--><rect codeLine="30" fill="#FEFECE" filter="url(#fe94a8cg9w58o)" height="48" id="BoolArgEncoder" style="stroke:#A80036;stroke-width:1.5;" width="121" x="496" y="457"/><ellipse cx="511" cy="473" fill="#ADD1B2" rx="11" ry="11" style="stroke:#A80036;stroke-width:1.0;"/><path d="M513.7656,468.875 Q513.9219,468.6563 514.1094,468.5469 Q514.2969,468.4375 514.5156,468.4375 Q514.8906,468.4375 515.125,468.6953 Q515.3594,468.9531 515.3594,469.5625 L515.3594,471.0156 Q515.3594,471.625 515.125,471.8906 Q514.8906,472.1563 514.5156,472.1563 Q514.1719,472.1563 513.9688,471.9531 Q513.7656,471.7656 513.6563,471.25 Q513.6094,470.8906 513.4219,470.7031 Q513.0938,470.3281 512.4844,470.1094 Q511.875,469.8906 511.25,469.8906 Q510.4844,469.8906 509.8516,470.2188 Q509.2188,470.5469 508.7266,471.2969 Q508.2344,472.0469 508.2344,473.0781 L508.2344,474.1719 Q508.2344,475.4063 509.125,476.2266 Q510.0156,477.0469 511.6094,477.0469 Q512.5469,477.0469 513.2031,476.7969 Q513.5938,476.6406 514.0156,476.2031 Q514.2813,475.9375 514.4297,475.8594 Q514.5781,475.7813 514.7813,475.7813 Q515.1094,475.7813 515.3672,476.0391 Q515.625,476.2969 515.625,476.6406 Q515.625,476.9844 515.2813,477.3906 Q514.7813,477.9688 513.9844,478.2969 Q512.9063,478.75 511.6094,478.75 Q510.0938,478.75 508.8906,478.125 Q507.9063,477.625 507.2188,476.5547 Q506.5313,475.4844 506.5313,474.2031 L506.5313,473.0469 Q506.5313,471.7188 507.1484,470.5703 Q507.7656,469.4219 508.8594,468.8047 Q509.9531,468.1875 511.1875,468.1875 Q511.9219,468.1875 512.5703,468.3516 Q513.2188,468.5156 513.7656,468.875 Z " fill="#000000"/><text fill="#000000" font-family="sans-serif" font-size="12" lengthAdjust="spacing" textLength="89" x="525" y="477.9102">BoolArgEncoder</text><line style="stroke:#A80036;stroke-width:1.5;" x1="497" x2="616" y1="489" y2="489"/><line style="stroke:#A80036;stroke-width:1.5;" x1="497" x2="616" y1="497" y2="497"/><!--MD5=[bee3e6f195d682fe82e74f0876846650]
class FloatArgEncoder--><rect codeLine="31" fill="#FEFECE" filter="url(#fe94a8cg9w58o)" height="48" id="FloatArgEncoder" style="stroke:#A80036;stroke-width:1.5;" width="123" x="1285" y="457"/><ellipse cx="1300" cy="473" fill="#ADD1B2" rx="11" ry="11" style="stroke:#A80036;stroke-width:1.0;"/><path d="M1302.7656,468.875 Q1302.9219,468.6563 1303.1094,468.5469 Q1303.2969,468.4375 1303.5156,468.4375 Q1303.8906,468.4375 1304.125,468.6953 Q1304.3594,468.9531 1304.3594,469.5625 L1304.3594,471.0156 Q1304.3594,471.625 1304.125,471.8906 Q1303.8906,472.1563 1303.5156,472.1563 Q1303.1719,472.1563 1302.9688,471.9531 Q1302.7656,471.7656 1302.6563,471.25 Q1302.6094,470.8906 1302.4219,470.7031 Q1302.0938,470.3281 1301.4844,470.1094 Q1300.875,469.8906 1300.25,469.8906 Q1299.4844,469.8906 1298.8516,470.2188 Q1298.2188,470.5469 1297.7266,471.2969 Q1297.2344,472.0469 1297.2344,473.0781 L1297.2344,474.1719 Q1297.2344,475.4063 1298.125,476.2266 Q1299.0156,477.0469 1300.6094,477.0469 Q1301.5469,477.0469 1302.2031,476.7969 Q1302.5938,476.6406 1303.0156,476.2031 Q1303.2813,475.9375 1303.4297,475.8594 Q1303.5781,475.7813 1303.7813,475.7813 Q1304.1094,475.7813 1304.3672,476.0391 Q1304.625,476.2969 1304.625,476.6406 Q1304.625,476.9844 1304.2813,477.3906 Q1303.7813,477.9688 1302.9844,478.2969 Q1301.9063,478.75 1300.6094,478.75 Q1299.0938,478.75 1297.8906,478.125 Q1296.9063,477.625 1296.2188,476.5547 Q1295.5313,475.4844 1295.5313,474.2031 L1295.5313,473.0469 Q1295.5313,471.7188 1296.1484,470.5703 Q1296.7656,469.4219 1297.8594,468.8047 Q1298.9531,468.1875 1300.1875,468.1875 Q1300.9219,468.1875 1301.5703,468.3516 Q1302.2188,468.5156 1302.7656,468.875 Z " fill="#000000"/><text fill="#000000" font-family="sans-serif" font-size="12" lengthAdjust="spacing" textLength="91" x="1314" y="477.9102">FloatArgEncoder</text><line style="stroke:#A80036;stroke-width:1.5;" x1="1286" x2="1407" y1="489" y2="489"/><line style="stroke:#A80036;stroke-width:1.5;" x1="1286" x2="1407" y1="497" y2="497"/><!--MD5=[0746544628c1c6fdce9c9fa0b183308f]
class RawArgEncoder--><rect codeLine="32" fill="#FEFECE" filter="url(#fe94a8cg9w58o)" height="48" id="RawArgEncoder" style="stroke:#A80036;stroke-width:1.5;" width="121" x="652" y="457"/><ellipse cx="667" cy="473" fill="#ADD1B2" rx="11" ry="11" style="stroke:#A80036;stroke-width:1.0;"/><path d="M669.7656,468.875 Q669.9219,468.6563 670.1094,468.5469 Q670.2969,468.4375 670.5156,468.4375 Q670.8906,468.4375 671.125,468.6953 Q671.3594,468.9531 671.3594,469.5625 L671.3594,471.0156 Q671.3594,471.625 671.125,471.8906 Q670.8906,472.1563 670.5156,472.1563 Q670.1719,472.1563 669.9688,471.9531 Q669.7656,471.7656 669.6563,471.25 Q669.6094,470.8906 669.4219,470.7031 Q669.0938,470.3281 668.4844,470.1094 Q667.875,469.8906 667.25,469.8906 Q666.4844,469.8906 665.8516,470.2188 Q665.2188,470.5469 664.7266,471.2969 Q664.2344,472.0469 664.2344,473.0781 L664.2344,474.1719 Q664.2344,475.4063 665.125,476.2266 Q666.0156,477.0469 667.6094,477.0469 Q668.5469,477.0469 669.2031,476.7969 Q669.5938,476.6406 670.0156,476.2031 Q670.2813,475.9375 670.4297,475.8594 Q670.5781,475.7813 670.7813,475.7813 Q671.1094,475.7813 671.3672,476.0391 Q671.625,476.2969 671.625,476.6406 Q671.625,476.9844 671.2813,477.3906 Q670.7813,477.9688 669.9844,478.2969 Q668.9063,478.75 667.6094,478.75 Q666.0938,478.75 664.8906,478.125 Q663.9063,477.625 663.2188,476.5547 Q662.5313,475.4844 662.5313,474.2031 L662.5313,473.0469 Q662.5313,471.7188 663.1484,470.5703 Q663.7656,469.4219 664.8594,468.8047 Q665.9531,468.1875 667.1875,468.1875 Q667.9219,468.1875 668.5703,468.3516 Q669.2188,468.5156 669.7656,468.875 Z " fill="#000000"/><text fill="#000000" font-family="sans-serif" font-size="12" lengthAdjust="spacing" textLength="89" x="681" y="477.9102">RawArgEncoder</text><line style="stroke:#A80036;stroke-width:1.5;" x1="653" x2="772" y1="489" y2="489"/><line style="stroke:#A80036;stroke-width:1.5;" x1="653" x2="772" y1="497" y2="497"/><!--MD5=[17ad35bfc48752a1c7c5373cb1f71222]
class StringArgEncoder--><rect codeLine="33" fill="#FEFECE" filter="url(#fe94a8cg9w58o)" height="48" id="StringArgEncoder" style="stroke:#A80036;stroke-width:1.5;" width="128" x="808.5" y="457"/><ellipse cx="823.5" cy="473" fill="#ADD1B2" rx="11" ry="11" style="stroke:#A80036;stroke-width:1.0;"/><path d="M826.2656,468.875 Q826.4219,468.6563 826.6094,468.5469 Q826.7969,468.4375 827.0156,468.4375 Q827.3906,468.4375 827.625,468.6953 Q827.8594,468.9531 827.8594,469.5625 L827.8594,471.0156 Q827.8594,471.625 827.625,471.8906 Q827.3906,472.1563 827.0156,472.1563 Q826.6719,472.1563 826.4688,471.9531 Q826.2656,471.7656 826.1563,471.25 Q826.1094,470.8906 825.9219,470.7031 Q825.5938,470.3281 824.9844,470.1094 Q824.375,469.8906 823.75,469.8906 Q822.9844,469.8906 822.3516,470.2188 Q821.7188,470.5469 821.2266,471.2969 Q820.7344,472.0469 820.7344,473.0781 L820.7344,474.1719 Q820.7344,475.4063 821.625,476.2266 Q822.5156,477.0469 824.1094,477.0469 Q825.0469,477.0469 825.7031,476.7969 Q826.0938,476.6406 826.5156,476.2031 Q826.7813,475.9375 826.9297,475.8594 Q827.0781,475.7813 827.2813,475.7813 Q827.6094,475.7813 827.8672,476.0391 Q828.125,476.2969 828.125,476.6406 Q828.125,476.9844 827.7813,477.3906 Q827.2813,477.9688 826.4844,478.2969 Q825.4063,478.75 824.1094,478.75 Q822.5938,478.75 821.3906,478.125 Q820.4063,477.625 819.7188,476.5547 Q819.0313,475.4844 819.0313,474.2031 L819.0313,473.0469 Q819.0313,471.7188 819.6484,470.5703 Q820.2656,469.4219 821.3594,468.8047 Q822.4531,468.1875 823.6875,468.1875 Q824.4219,468.1875 825.0703,468.3516 Q825.7188,468.5156 826.2656,468.875 Z " fill="#000000"/><text fill="#000000" font-family="sans-serif" font-size="12" lengthAdjust="spacing" textLength="96" x="837.5" y="477.9102">StringArgEncoder</text><line style="stroke:#A80036;stroke-width:1.5;" x1="809.5" x2="935.5" y1="489" y2="489"/><line style="stroke:#A80036;stroke-width:1.5;" x1="809.5" x2="935.5" y1="497" y2="497"/><!--MD5=[584669a0ed286870cad57e16f4431256]
class BinaryIntDltArg--><rect fill="#FEFECE" filter="url(#fe94a8cg9w58o)" height="48" id="BinaryIntDltArg" style="stroke:#A80036;stroke-width:1.5;" width="112" x="845.5" y="583"/><ellipse cx="860.5" cy="599" fill="#ADD1B2" rx="11" ry="11" style="stroke:#A80036;stroke-width:1.0;"/><path d="M863.2656,594.875 Q863.4219,594.6563 863.6094,594.5469 Q863.7969,594.4375 864.0156,594.4375 Q864.3906,594.4375 864.625,594.6953 Q864.8594,594.9531 864.8594,595.5625 L864.8594,597.0156 Q864.8594,597.625 864.625,597.8906 Q864.3906,598.1563 864.0156,598.1563 Q863.6719,598.1563 863.4688,597.9531 Q863.2656,597.7656 863.1563,597.25 Q863.1094,596.8906 862.9219,596.7031 Q862.5938,596.3281 861.9844,596.1094 Q861.375,595.8906 860.75,595.8906 Q859.9844,595.8906 859.3516,596.2188 Q858.7188,596.5469 858.2266,597.2969 Q857.7344,598.0469 857.7344,599.0781 L857.7344,600.1719 Q857.7344,601.4063 858.625,602.2266 Q859.5156,603.0469 861.1094,603.0469 Q862.0469,603.0469 862.7031,602.7969 Q863.0938,602.6406 863.5156,602.2031 Q863.7813,601.9375 863.9297,601.8594 Q864.0781,601.7813 864.2813,601.7813 Q864.6094,601.7813 864.8672,602.0391 Q865.125,602.2969 865.125,602.6406 Q865.125,602.9844 864.7813,603.3906 Q864.2813,603.9688 863.4844,604.2969 Q862.4063,604.75 861.1094,604.75 Q859.5938,604.75 858.3906,604.125 Q857.4063,603.625 856.7188,602.5547 Q856.0313,601.4844 856.0313,600.2031 L856.0313,599.0469 Q856.0313,597.7188 856.6484,596.5703 Q857.2656,595.4219 858.3594,594.8047 Q859.4531,594.1875 860.6875,594.1875 Q861.4219,594.1875 862.0703,594.3516 Q862.7188,594.5156 863.2656,594.875 Z " fill="#000000"/><text fill="#000000" font-family="sans-serif" font-size="12" lengthAdjust="spacing" textLength="80" x="874.5" y="603.9102">BinaryIntDltArg</text><line style="stroke:#A80036;stroke-width:1.5;" x1="846.5" x2="956.5" y1="615" y2="615"/><line style="stroke:#A80036;stroke-width:1.5;" x1="846.5" x2="956.5" y1="623" y2="623"/><!--MD5=[5b44a63c92af40190428db9752e4a224]
class HexIntDltArg--><rect fill="#FEFECE" filter="url(#fe94a8cg9w58o)" height="48" id="HexIntDltArg" style="stroke:#A80036;stroke-width:1.5;" width="99" x="993" y="583"/><ellipse cx="1008" cy="599" fill="#ADD1B2" rx="11" ry="11" style="stroke:#A80036;stroke-width:1.0;"/><path d="M1010.7656,594.875 Q1010.9219,594.6563 1011.1094,594.5469 Q1011.2969,594.4375 1011.5156,594.4375 Q1011.8906,594.4375 1012.125,594.6953 Q1012.3594,594.9531 1012.3594,595.5625 L1012.3594,597.0156 Q1012.3594,597.625 1012.125,597.8906 Q1011.8906,598.1563 1011.5156,598.1563 Q1011.1719,598.1563 1010.9688,597.9531 Q1010.7656,597.7656 1010.6563,597.25 Q1010.6094,596.8906 1010.4219,596.7031 Q1010.0938,596.3281 1009.4844,596.1094 Q1008.875,595.8906 1008.25,595.8906 Q1007.4844,595.8906 1006.8516,596.2188 Q1006.2188,596.5469 1005.7266,597.2969 Q1005.2344,598.0469 1005.2344,599.0781 L1005.2344,600.1719 Q1005.2344,601.4063 1006.125,602.2266 Q1007.0156,603.0469 1008.6094,603.0469 Q1009.5469,603.0469 1010.2031,602.7969 Q1010.5938,602.6406 1011.0156,602.2031 Q1011.2813,601.9375 1011.4297,601.8594 Q1011.5781,601.7813 1011.7813,601.7813 Q1012.1094,601.7813 1012.3672,602.0391 Q1012.625,602.2969 1012.625,602.6406 Q1012.625,602.9844 1012.2813,603.3906 Q1011.7813,603.9688 1010.9844,604.2969 Q1009.9063,604.75 1008.6094,604.75 Q1007.0938,604.75 1005.8906,604.125 Q1004.9063,603.625 1004.2188,602.5547 Q1003.5313,601.4844 1003.5313,600.2031 L1003.5313,599.0469 Q1003.5313,597.7188 1004.1484,596.5703 Q1004.7656,595.4219 1005.8594,594.8047 Q1006.9531,594.1875 1008.1875,594.1875 Q1008.9219,594.1875 1009.5703,594.3516 Q1010.2188,594.5156 1010.7656,594.875 Z " fill="#000000"/><text fill="#000000" font-family="sans-serif" font-size="12" lengthAdjust="spacing" textLength="67" x="1022" y="603.9102">HexIntDltArg</text><line style="stroke:#A80036;stroke-width:1.5;" x1="994" x2="1091" y1="615" y2="615"/><line style="stroke:#A80036;stroke-width:1.5;" x1="994" x2="1091" y1="623" y2="623"/><!--MD5=[530b5da5bd258ad0d6915bceb12a6485]
class SignedIntDltArg--><rect fill="#FEFECE" filter="url(#fe94a8cg9w58o)" height="48" id="SignedIntDltArg" style="stroke:#A80036;stroke-width:1.5;" width="117" x="1127" y="583"/><ellipse cx="1142" cy="599" fill="#ADD1B2" rx="11" ry="11" style="stroke:#A80036;stroke-width:1.0;"/><path d="M1144.7656,594.875 Q1144.9219,594.6563 1145.1094,594.5469 Q1145.2969,594.4375 1145.5156,594.4375 Q1145.8906,594.4375 1146.125,594.6953 Q1146.3594,594.9531 1146.3594,595.5625 L1146.3594,597.0156 Q1146.3594,597.625 1146.125,597.8906 Q1145.8906,598.1563 1145.5156,598.1563 Q1145.1719,598.1563 1144.9688,597.9531 Q1144.7656,597.7656 1144.6563,597.25 Q1144.6094,596.8906 1144.4219,596.7031 Q1144.0938,596.3281 1143.4844,596.1094 Q1142.875,595.8906 1142.25,595.8906 Q1141.4844,595.8906 1140.8516,596.2188 Q1140.2188,596.5469 1139.7266,597.2969 Q1139.2344,598.0469 1139.2344,599.0781 L1139.2344,600.1719 Q1139.2344,601.4063 1140.125,602.2266 Q1141.0156,603.0469 1142.6094,603.0469 Q1143.5469,603.0469 1144.2031,602.7969 Q1144.5938,602.6406 1145.0156,602.2031 Q1145.2813,601.9375 1145.4297,601.8594 Q1145.5781,601.7813 1145.7813,601.7813 Q1146.1094,601.7813 1146.3672,602.0391 Q1146.625,602.2969 1146.625,602.6406 Q1146.625,602.9844 1146.2813,603.3906 Q1145.7813,603.9688 1144.9844,604.2969 Q1143.9063,604.75 1142.6094,604.75 Q1141.0938,604.75 1139.8906,604.125 Q1138.9063,603.625 1138.2188,602.5547 Q1137.5313,601.4844 1137.5313,600.2031 L1137.5313,599.0469 Q1137.5313,597.7188 1138.1484,596.5703 Q1138.7656,595.4219 1139.8594,594.8047 Q1140.9531,594.1875 1142.1875,594.1875 Q1142.9219,594.1875 1143.5703,594.3516 Q1144.2188,594.5156 1144.7656,594.875 Z " fill="#000000"/><text fill="#000000" font-family="sans-serif" font-size="12" lengthAdjust="spacing" textLength="85" x="1156" y="603.9102">SignedIntDltArg</text><line style="stroke:#A80036;stroke-width:1.5;" x1="1128" x2="1243" y1="615" y2="615"/><line style="stroke:#A80036;stroke-width:1.5;" x1="1128" x2="1243" y1="623" y2="623"/><!--MD5=[15300c896cacb1acf95f152b7691e7f6]
class UnsignedIntDltArg--><rect fill="#FEFECE" filter="url(#fe94a8cg9w58o)" height="48" id="UnsignedIntDltArg" style="stroke:#A80036;stroke-width:1.5;" width="132" x="1279.5" y="583"/><ellipse cx="1294.5" cy="599" fill="#ADD1B2" rx="11" ry="11" style="stroke:#A80036;stroke-width:1.0;"/><path d="M1297.2656,594.875 Q1297.4219,594.6563 1297.6094,594.5469 Q1297.7969,594.4375 1298.0156,594.4375 Q1298.3906,594.4375 1298.625,594.6953 Q1298.8594,594.9531 1298.8594,595.5625 L1298.8594,597.0156 Q1298.8594,597.625 1298.625,597.8906 Q1298.3906,598.1563 1298.0156,598.1563 Q1297.6719,598.1563 1297.4688,597.9531 Q1297.2656,597.7656 1297.1563,597.25 Q1297.1094,596.8906 1296.9219,596.7031 Q1296.5938,596.3281 1295.9844,596.1094 Q1295.375,595.8906 1294.75,595.8906 Q1293.9844,595.8906 1293.3516,596.2188 Q1292.7188,596.5469 1292.2266,597.2969 Q1291.7344,598.0469 1291.7344,599.0781 L1291.7344,600.1719 Q1291.7344,601.4063 1292.625,602.2266 Q1293.5156,603.0469 1295.1094,603.0469 Q1296.0469,603.0469 1296.7031,602.7969 Q1297.0938,602.6406 1297.5156,602.2031 Q1297.7813,601.9375 1297.9297,601.8594 Q1298.0781,601.7813 1298.2813,601.7813 Q1298.6094,601.7813 1298.8672,602.0391 Q1299.125,602.2969 1299.125,602.6406 Q1299.125,602.9844 1298.7813,603.3906 Q1298.2813,603.9688 1297.4844,604.2969 Q1296.4063,604.75 1295.1094,604.75 Q1293.5938,604.75 1292.3906,604.125 Q1291.4063,603.625 1290.7188,602.5547 Q1290.0313,601.4844 1290.0313,600.2031 L1290.0313,599.0469 Q1290.0313,597.7188 1290.6484,596.5703 Q1291.2656,595.4219 1292.3594,594.8047 Q1293.4531,594.1875 1294.6875,594.1875 Q1295.4219,594.1875 1296.0703,594.3516 Q1296.7188,594.5156 1297.2656,594.875 Z " fill="#000000"/><text fill="#000000" font-family="sans-serif" font-size="12" lengthAdjust="spacing" textLength="100" x="1308.5" y="603.9102">UnsignedIntDltArg</text><line style="stroke:#A80036;stroke-width:1.5;" x1="1280.5" x2="1410.5" y1="615" y2="615"/><line style="stroke:#A80036;stroke-width:1.5;" x1="1280.5" x2="1410.5" y1="623" y2="623"/><!--MD5=[9304c627579e6c09a83b65d2b6fe9ffa]
class BoolDltArg--><rect fill="#FEFECE" filter="url(#fe94a8cg9w58o)" height="48" id="BoolDltArg" style="stroke:#A80036;stroke-width:1.5;" width="90" x="462.5" y="583"/><ellipse cx="477.5" cy="599" fill="#ADD1B2" rx="11" ry="11" style="stroke:#A80036;stroke-width:1.0;"/><path d="M480.2656,594.875 Q480.4219,594.6563 480.6094,594.5469 Q480.7969,594.4375 481.0156,594.4375 Q481.3906,594.4375 481.625,594.6953 Q481.8594,594.9531 481.8594,595.5625 L481.8594,597.0156 Q481.8594,597.625 481.625,597.8906 Q481.3906,598.1563 481.0156,598.1563 Q480.6719,598.1563 480.4688,597.9531 Q480.2656,597.7656 480.1563,597.25 Q480.1094,596.8906 479.9219,596.7031 Q479.5938,596.3281 478.9844,596.1094 Q478.375,595.8906 477.75,595.8906 Q476.9844,595.8906 476.3516,596.2188 Q475.7188,596.5469 475.2266,597.2969 Q474.7344,598.0469 474.7344,599.0781 L474.7344,600.1719 Q474.7344,601.4063 475.625,602.2266 Q476.5156,603.0469 478.1094,603.0469 Q479.0469,603.0469 479.7031,602.7969 Q480.0938,602.6406 480.5156,602.2031 Q480.7813,601.9375 480.9297,601.8594 Q481.0781,601.7813 481.2813,601.7813 Q481.6094,601.7813 481.8672,602.0391 Q482.125,602.2969 482.125,602.6406 Q482.125,602.9844 481.7813,603.3906 Q481.2813,603.9688 480.4844,604.2969 Q479.4063,604.75 478.1094,604.75 Q476.5938,604.75 475.3906,604.125 Q474.4063,603.625 473.7188,602.5547 Q473.0313,601.4844 473.0313,600.2031 L473.0313,599.0469 Q473.0313,597.7188 473.6484,596.5703 Q474.2656,595.4219 475.3594,594.8047 Q476.4531,594.1875 477.6875,594.1875 Q478.4219,594.1875 479.0703,594.3516 Q479.7188,594.5156 480.2656,594.875 Z " fill="#000000"/><text fill="#000000" font-family="sans-serif" font-size="12" lengthAdjust="spacing" textLength="58" x="491.5" y="603.9102">BoolDltArg</text><line style="stroke:#A80036;stroke-width:1.5;" x1="463.5" x2="551.5" y1="615" y2="615"/><line style="stroke:#A80036;stroke-width:1.5;" x1="463.5" x2="551.5" y1="623" y2="623"/><!--MD5=[bd995735bdc22093cef67c0a3dd15675]
class Float32DltArg--><rect fill="#FEFECE" filter="url(#fe94a8cg9w58o)" height="48" id="Float32DltArg" style="stroke:#A80036;stroke-width:1.5;" width="106" x="1587.5" y="583"/><ellipse cx="1602.5" cy="599" fill="#ADD1B2" rx="11" ry="11" style="stroke:#A80036;stroke-width:1.0;"/><path d="M1605.2656,594.875 Q1605.4219,594.6563 1605.6094,594.5469 Q1605.7969,594.4375 1606.0156,594.4375 Q1606.3906,594.4375 1606.625,594.6953 Q1606.8594,594.9531 1606.8594,595.5625 L1606.8594,597.0156 Q1606.8594,597.625 1606.625,597.8906 Q1606.3906,598.1563 1606.0156,598.1563 Q1605.6719,598.1563 1605.4688,597.9531 Q1605.2656,597.7656 1605.1563,597.25 Q1605.1094,596.8906 1604.9219,596.7031 Q1604.5938,596.3281 1603.9844,596.1094 Q1603.375,595.8906 1602.75,595.8906 Q1601.9844,595.8906 1601.3516,596.2188 Q1600.7188,596.5469 1600.2266,597.2969 Q1599.7344,598.0469 1599.7344,599.0781 L1599.7344,600.1719 Q1599.7344,601.4063 1600.625,602.2266 Q1601.5156,603.0469 1603.1094,603.0469 Q1604.0469,603.0469 1604.7031,602.7969 Q1605.0938,602.6406 1605.5156,602.2031 Q1605.7813,601.9375 1605.9297,601.8594 Q1606.0781,601.7813 1606.2813,601.7813 Q1606.6094,601.7813 1606.8672,602.0391 Q1607.125,602.2969 1607.125,602.6406 Q1607.125,602.9844 1606.7813,603.3906 Q1606.2813,603.9688 1605.4844,604.2969 Q1604.4063,604.75 1603.1094,604.75 Q1601.5938,604.75 1600.3906,604.125 Q1599.4063,603.625 1598.7188,602.5547 Q1598.0313,601.4844 1598.0313,600.2031 L1598.0313,599.0469 Q1598.0313,597.7188 1598.6484,596.5703 Q1599.2656,595.4219 1600.3594,594.8047 Q1601.4531,594.1875 1602.6875,594.1875 Q1603.4219,594.1875 1604.0703,594.3516 Q1604.7188,594.5156 1605.2656,594.875 Z " fill="#000000"/><text fill="#000000" font-family="sans-serif" font-size="12" lengthAdjust="spacing" textLength="74" x="1616.5" y="603.9102">Float32DltArg</text><line style="stroke:#A80036;stroke-width:1.5;" x1="1588.5" x2="1692.5" y1="615" y2="615"/><line style="stroke:#A80036;stroke-width:1.5;" x1="1588.5" x2="1692.5" y1="623" y2="623"/><!--MD5=[4f58334fec0bd3ff1f53f8383a615e86]
class Float64DltArg--><rect fill="#FEFECE" filter="url(#fe94a8cg9w58o)" height="48" id="Float64DltArg" style="stroke:#A80036;stroke-width:1.5;" width="106" x="1446.5" y="583"/><ellipse cx="1461.5" cy="599" fill="#ADD1B2" rx="11" ry="11" style="stroke:#A80036;stroke-width:1.0;"/><path d="M1464.2656,594.875 Q1464.4219,594.6563 1464.6094,594.5469 Q1464.7969,594.4375 1465.0156,594.4375 Q1465.3906,594.4375 1465.625,594.6953 Q1465.8594,594.9531 1465.8594,595.5625 L1465.8594,597.0156 Q1465.8594,597.625 1465.625,597.8906 Q1465.3906,598.1563 1465.0156,598.1563 Q1464.6719,598.1563 1464.4688,597.9531 Q1464.2656,597.7656 1464.1563,597.25 Q1464.1094,596.8906 1463.9219,596.7031 Q1463.5938,596.3281 1462.9844,596.1094 Q1462.375,595.8906 1461.75,595.8906 Q1460.9844,595.8906 1460.3516,596.2188 Q1459.7188,596.5469 1459.2266,597.2969 Q1458.7344,598.0469 1458.7344,599.0781 L1458.7344,600.1719 Q1458.7344,601.4063 1459.625,602.2266 Q1460.5156,603.0469 1462.1094,603.0469 Q1463.0469,603.0469 1463.7031,602.7969 Q1464.0938,602.6406 1464.5156,602.2031 Q1464.7813,601.9375 1464.9297,601.8594 Q1465.0781,601.7813 1465.2813,601.7813 Q1465.6094,601.7813 1465.8672,602.0391 Q1466.125,602.2969 1466.125,602.6406 Q1466.125,602.9844 1465.7813,603.3906 Q1465.2813,603.9688 1464.4844,604.2969 Q1463.4063,604.75 1462.1094,604.75 Q1460.5938,604.75 1459.3906,604.125 Q1458.4063,603.625 1457.7188,602.5547 Q1457.0313,601.4844 1457.0313,600.2031 L1457.0313,599.0469 Q1457.0313,597.7188 1457.6484,596.5703 Q1458.2656,595.4219 1459.3594,594.8047 Q1460.4531,594.1875 1461.6875,594.1875 Q1462.4219,594.1875 1463.0703,594.3516 Q1463.7188,594.5156 1464.2656,594.875 Z " fill="#000000"/><text fill="#000000" font-family="sans-serif" font-size="12" lengthAdjust="spacing" textLength="74" x="1475.5" y="603.9102">Float64DltArg</text><line style="stroke:#A80036;stroke-width:1.5;" x1="1447.5" x2="1551.5" y1="615" y2="615"/><line style="stroke:#A80036;stroke-width:1.5;" x1="1447.5" x2="1551.5" y1="623" y2="623"/><!--MD5=[751ce3d3b962032c2311a8f3a883c70d]
class RawDltArg--><rect fill="#FEFECE" filter="url(#fe94a8cg9w58o)" height="48" id="RawDltArg" style="stroke:#A80036;stroke-width:1.5;" width="90" x="587.5" y="583"/><ellipse cx="602.5" cy="599" fill="#ADD1B2" rx="11" ry="11" style="stroke:#A80036;stroke-width:1.0;"/><path d="M605.2656,594.875 Q605.4219,594.6563 605.6094,594.5469 Q605.7969,594.4375 606.0156,594.4375 Q606.3906,594.4375 606.625,594.6953 Q606.8594,594.9531 606.8594,595.5625 L606.8594,597.0156 Q606.8594,597.625 606.625,597.8906 Q606.3906,598.1563 606.0156,598.1563 Q605.6719,598.1563 605.4688,597.9531 Q605.2656,597.7656 605.1563,597.25 Q605.1094,596.8906 604.9219,596.7031 Q604.5938,596.3281 603.9844,596.1094 Q603.375,595.8906 602.75,595.8906 Q601.9844,595.8906 601.3516,596.2188 Q600.7188,596.5469 600.2266,597.2969 Q599.7344,598.0469 599.7344,599.0781 L599.7344,600.1719 Q599.7344,601.4063 600.625,602.2266 Q601.5156,603.0469 603.1094,603.0469 Q604.0469,603.0469 604.7031,602.7969 Q605.0938,602.6406 605.5156,602.2031 Q605.7813,601.9375 605.9297,601.8594 Q606.0781,601.7813 606.2813,601.7813 Q606.6094,601.7813 606.8672,602.0391 Q607.125,602.2969 607.125,602.6406 Q607.125,602.9844 606.7813,603.3906 Q606.2813,603.9688 605.4844,604.2969 Q604.4063,604.75 603.1094,604.75 Q601.5938,604.75 600.3906,604.125 Q599.4063,603.625 598.7188,602.5547 Q598.0313,601.4844 598.0313,600.2031 L598.0313,599.0469 Q598.0313,597.7188 598.6484,596.5703 Q599.2656,595.4219 600.3594,594.8047 Q601.4531,594.1875 602.6875,594.1875 Q603.4219,594.1875 604.0703,594.3516 Q604.7188,594.5156 605.2656,594.875 Z " fill="#000000"/><text fill="#000000" font-family="sans-serif" font-size="12" lengthAdjust="spacing" textLength="58" x="616.5" y="603.9102">RawDltArg</text><line style="stroke:#A80036;stroke-width:1.5;" x1="588.5" x2="676.5" y1="615" y2="615"/><line style="stroke:#A80036;stroke-width:1.5;" x1="588.5" x2="676.5" y1="623" y2="623"/><!--MD5=[9384f9af5873042c459e7cb65aa0b775]
class StringDltArg--><rect fill="#FEFECE" filter="url(#fe94a8cg9w58o)" height="48" id="StringDltArg" style="stroke:#A80036;stroke-width:1.5;" width="97" x="713" y="583"/><ellipse cx="728" cy="599" fill="#ADD1B2" rx="11" ry="11" style="stroke:#A80036;stroke-width:1.0;"/><path d="M730.7656,594.875 Q730.9219,594.6563 731.1094,594.5469 Q731.2969,594.4375 731.5156,594.4375 Q731.8906,594.4375 732.125,594.6953 Q732.3594,594.9531 732.3594,595.5625 L732.3594,597.0156 Q732.3594,597.625 732.125,597.8906 Q731.8906,598.1563 731.5156,598.1563 Q731.1719,598.1563 730.9688,597.9531 Q730.7656,597.7656 730.6563,597.25 Q730.6094,596.8906 730.4219,596.7031 Q730.0938,596.3281 729.4844,596.1094 Q728.875,595.8906 728.25,595.8906 Q727.4844,595.8906 726.8516,596.2188 Q726.2188,596.5469 725.7266,597.2969 Q725.2344,598.0469 725.2344,599.0781 L725.2344,600.1719 Q725.2344,601.4063 726.125,602.2266 Q727.0156,603.0469 728.6094,603.0469 Q729.5469,603.0469 730.2031,602.7969 Q730.5938,602.6406 731.0156,602.2031 Q731.2813,601.9375 731.4297,601.8594 Q731.5781,601.7813 731.7813,601.7813 Q732.1094,601.7813 732.3672,602.0391 Q732.625,602.2969 732.625,602.6406 Q732.625,602.9844 732.2813,603.3906 Q731.7813,603.9688 730.9844,604.2969 Q729.9063,604.75 728.6094,604.75 Q727.0938,604.75 725.8906,604.125 Q724.9063,603.625 724.2188,602.5547 Q723.5313,601.4844 723.5313,600.2031 L723.5313,599.0469 Q723.5313,597.7188 724.1484,596.5703 Q724.7656,595.4219 725.8594,594.8047 Q726.9531,594.1875 728.1875,594.1875 Q728.9219,594.1875 729.5703,594.3516 Q730.2188,594.5156 730.7656,594.875 Z " fill="#000000"/><text fill="#000000" font-family="sans-serif" font-size="12" lengthAdjust="spacing" textLength="65" x="742" y="603.9102">StringDltArg</text><line style="stroke:#A80036;stroke-width:1.5;" x1="714" x2="809" y1="615" y2="615"/><line style="stroke:#A80036;stroke-width:1.5;" x1="714" x2="809" y1="623" y2="623"/><!--MD5=[295f392fa186f32cdcba9e09c1255c9c]
link ITraceEncoderFactory to ITraceEncoder--><path codeLine="4" d="M386.04,31 C406.23,31 426.42,31 446.6,31 " fill="none" id="ITraceEncoderFactory-ITraceEncoder" style="stroke:#A80036;stroke-width:1.0;"/><!--MD5=[743f4453b45b18e879bfa4d4b4711942]
reverse link ITraceEncoderFactory to DltTraceEncoderFactory--><path codeLine="7" d="M259.63,66.88 C236.67,82.93 210.07,101.54 189.63,115.83 " fill="none" id="ITraceEncoderFactory-backto-DltTraceEncoderFactory" style="stroke:#A80036;stroke-width:1.0;stroke-dasharray:7.0,7.0;"/><polygon fill="none" points="255.9,60.94,276.3,55.22,263.92,72.42,255.9,60.94" style="stroke:#A80036;stroke-width:1.0;"/><!--MD5=[f059986529b2b4c81376e873afa2327e]
reverse link ITraceEncoder to DltTraceEncoder--><path codeLine="10" d="M513.97,75.09 C517.35,89.01 520.98,103.92 523.87,115.83 " fill="none" id="ITraceEncoder-backto-DltTraceEncoder" style="stroke:#A80036;stroke-width:1.0;stroke-dasharray:7.0,7.0;"/><polygon fill="none" points="507.06,76.3,509.14,55.22,520.67,73,507.06,76.3" style="stroke:#A80036;stroke-width:1.0;"/><!--MD5=[5520f4b9bfd96b2e3a03ee9f851472ca]
link DltTraceEncoderFactory to DltTraceEncoder--><path codeLine="12" d="M306.06,140 C335.16,140 365.51,140 394.12,140 " fill="none" id="DltTraceEncoderFactory-to-DltTraceEncoder" style="stroke:#A80036;stroke-width:1.0;"/><polygon fill="#A80036" points="399.44,140,390.44,136,394.44,140,390.44,144,399.44,140" style="stroke:#A80036;stroke-width:1.0;"/><text fill="#000000" font-family="sans-serif" font-size="13" lengthAdjust="spacing" textLength="57" x="324.25" y="133.4951">«creates»</text><!--MD5=[5d48c31a730162187cd8aab12cd06aea]
reverse link IVerboseDltEncoder to VerboseDltEncoder--><path codeLine="18" d="M524.66,307.19 C523.29,321.36 521.87,336.11 520.73,347.84 " fill="none" id="IVerboseDltEncoder-backto-VerboseDltEncoder" style="stroke:#A80036;stroke-width:1.0;stroke-dasharray:7.0,7.0;"/><polygon fill="none" points="517.69,306.49,526.58,287.25,531.63,307.83,517.69,306.49" style="stroke:#A80036;stroke-width:1.0;"/><!--MD5=[a4d8811da35e87731c96254a88142893]
reverse link IVerboseArgEncoder to VerboseArgEncoder--><path codeLine="24" d="M836.5,307.69 C836.5,321.71 836.5,336.24 836.5,347.84 " fill="none" id="IVerboseArgEncoder-backto-VerboseArgEncoder" style="stroke:#A80036;stroke-width:1.0;stroke-dasharray:7.0,7.0;"/><polygon fill="none" points="829.5,307.25,836.5,287.25,843.5,307.25,829.5,307.25" style="stroke:#A80036;stroke-width:1.0;"/><!--MD5=[c9cf74bf03549fba5f4f27755c9692c5]
reverse link IVerboseDltEncoder to IVerboseArgEncoder--><path codeLine="26" d="M689.81,256 C698.45,256 707.08,256 715.72,256 " fill="none" id="IVerboseDltEncoder-backto-IVerboseArgEncoder" style="stroke:#A80036;stroke-width:1.0;"/><polygon fill="#A80036" points="676.7,256,682.7,260,688.7,256,682.7,252,676.7,256" style="stroke:#A80036;stroke-width:1.0;"/><!--MD5=[b6f026bfdc1f921bfd088b935df7fb0f]
reverse link VerboseDltEncoder to VerboseArgEncoder--><path codeLine="27" d="M601.21,372 C655.86,372 710.52,372 765.17,372 " fill="none" id="VerboseDltEncoder-backto-VerboseArgEncoder" style="stroke:#A80036;stroke-width:1.0;"/><polygon fill="#A80036" points="588.06,372,594.06,376,600.06,372,594.06,368,588.06,372" style="stroke:#A80036;stroke-width:1.0;"/><!--MD5=[9f100a942cc7b538f3940a6293233430]
reverse link IVerboseArgEncoder to IntArgEncoder--><path codeLine="34" d="M910,298.36 C917.96,304.15 925.65,310.4 932.5,317 C976.87,359.76 1013.36,423.26 1031.02,456.99 " fill="none" id="IVerboseArgEncoder-backto-IntArgEncoder" style="stroke:#A80036;stroke-width:1.0;stroke-dasharray:7.0,7.0;"/><polygon fill="none" points="906.06,304.15,893.43,287.13,913.91,292.56,906.06,304.15" style="stroke:#A80036;stroke-width:1.0;"/><!--MD5=[035b2fe8a1f8218aeabf644b1fe7c3dc]
reverse link IVerboseArgEncoder to BoolArgEncoder--><path codeLine="35" d="M782.03,299.5 C762.57,314.75 740.52,332.09 720.5,348 C672.71,385.97 617.48,430.58 584.86,457 " fill="none" id="IVerboseArgEncoder-backto-BoolArgEncoder" style="stroke:#A80036;stroke-width:1.0;stroke-dasharray:7.0,7.0;"/><polygon fill="none" points="777.94,293.82,798,287.01,786.57,304.84,777.94,293.82" style="stroke:#A80036;stroke-width:1.0;"/><!--MD5=[87070148d5359961ba65927d63a83902]
reverse link IVerboseArgEncoder to FloatArgEncoder--><path codeLine="36" d="M923.64,295.1 C1029.96,341.59 1206.34,418.72 1293.88,456.99 " fill="none" id="IVerboseArgEncoder-backto-FloatArgEncoder" style="stroke:#A80036;stroke-width:1.0;stroke-dasharray:7.0,7.0;"/><polygon fill="none" points="920.8,301.5,905.28,287.07,926.41,288.67,920.8,301.5" style="stroke:#A80036;stroke-width:1.0;"/><!--MD5=[3d2edd708e7b8c8971c825946873b055]
reverse link IVerboseArgEncoder to RawArgEncoder--><path codeLine="37" d="M784.96,301.36 C771.49,315.14 758.08,331.17 748.5,348 C728.64,382.89 719.31,429.24 715.27,456.71 " fill="none" id="IVerboseArgEncoder-backto-RawArgEncoder" style="stroke:#A80036;stroke-width:1.0;stroke-dasharray:7.0,7.0;"/><polygon fill="none" points="780.19,296.24,799.43,287.35,789.93,306.3,780.19,296.24" style="stroke:#A80036;stroke-width:1.0;"/><!--MD5=[4535f979853842df1a7ac87d388d3dd2]
reverse link IVerboseArgEncoder to StringArgEncoder--><path codeLine="38" d="M893.08,301.28 C906.21,314.73 918.41,330.6 925.5,348 C940.98,385.96 914.1,430.19 893.28,456.6 " fill="none" id="IVerboseArgEncoder-backto-StringArgEncoder" style="stroke:#A80036;stroke-width:1.0;stroke-dasharray:7.0,7.0;"/><polygon fill="none" points="887.86,305.98,878.09,287.18,897.45,295.78,887.86,305.98" style="stroke:#A80036;stroke-width:1.0;"/><!--MD5=[b122527ff0fbd1f02739a917a5615c79]
reverse link VerboseArgEncoder to IntArgEncoder--><path codeLine="40" d="M892.76,402.22 C925.92,419.45 967.29,440.93 998.13,456.96 " fill="none" id="VerboseArgEncoder-backto-IntArgEncoder" style="stroke:#A80036;stroke-width:1.0;"/><polygon fill="#A80036" points="880.95,396.09,884.4289,402.4064,891.5975,401.6246,888.1186,395.3081,880.95,396.09" style="stroke:#A80036;stroke-width:1.0;"/><!--MD5=[21a199b9ea0c81264702a545853479f9]
reverse link VerboseArgEncoder to BoolArgEncoder--><path codeLine="41" d="M763.86,400.76 C718.18,418.22 659.93,440.48 616.8,456.96 " fill="none" id="VerboseArgEncoder-backto-BoolArgEncoder" style="stroke:#A80036;stroke-width:1.0;"/><polygon fill="#A80036" points="776.09,396.09,769.0571,394.4966,764.8814,400.3756,771.9142,401.969,776.09,396.09" style="stroke:#A80036;stroke-width:1.0;"/><!--MD5=[cd3fcae1b3813aedad9fc9397eca4db4]
reverse link VerboseArgEncoder to FloatArgEncoder--><path codeLine="42" d="M920.43,390.61 C1022.82,412.09 1193.49,447.9 1284.65,467.02 " fill="none" id="VerboseArgEncoder-backto-FloatArgEncoder" style="stroke:#A80036;stroke-width:1.0;"/><polygon fill="#A80036" points="907.68,387.93,912.7305,393.0771,919.4241,390.3948,914.3737,385.2477,907.68,387.93" style="stroke:#A80036;stroke-width:1.0;"/><!--MD5=[1e8320804bb1a041bf6104023c230a2c]
reverse link VerboseArgEncoder to RawArgEncoder--><path codeLine="43" d="M815.05,406.98 C809.78,414.03 803.82,421.09 797.5,427 C785.43,438.28 770.61,448.49 756.75,456.86 " fill="none" id="VerboseArgEncoder-backto-RawArgEncoder" style="stroke:#A80036;stroke-width:1.0;"/><polygon fill="#A80036" points="822.71,396.1,815.9871,398.7082,815.809,405.9171,822.5319,403.3089,822.71,396.1" style="stroke:#A80036;stroke-width:1.0;"/><!--MD5=[2a01ca06a10a6cbc66f1c110e5bd2805]
reverse link VerboseArgEncoder to StringArgEncoder--><path codeLine="44" d="M848.55,408.83 C853.88,424.66 859.99,442.82 864.7,456.83 " fill="none" id="VerboseArgEncoder-backto-StringArgEncoder" style="stroke:#A80036;stroke-width:1.0;"/><polygon fill="#A80036" points="844.31,396.22,842.4296,403.1816,848.1324,407.5949,850.0128,400.6333,844.31,396.22" style="stroke:#A80036;stroke-width:1.0;"/><!--MD5=[86e25be5f845f6c03c8cbfd132908a17]
reverse link DltTraceEncoder to IVerboseDltEncoder--><path codeLine="47" d="M529.5,177.28 C529.5,192.52 529.5,210.06 529.5,224.61 " fill="none" id="DltTraceEncoder-backto-IVerboseDltEncoder" style="stroke:#A80036;stroke-width:1.0;"/><polygon fill="#A80036" points="529.5,164.07,525.5,170.07,529.5,176.07,533.5,170.07,529.5,164.07" style="stroke:#A80036;stroke-width:1.0;"/><!--MD5=[d643a277b44a12a40df6080136127f91]
link IntArgEncoder to BinaryIntDltArg--><path codeLine="49" d="M1008.1,505.06 C995.57,513.95 981.54,524.5 969.5,535 C952.4,549.93 934.71,568.51 921.66,582.92 " fill="none" id="IntArgEncoder-BinaryIntDltArg" style="stroke:#A80036;stroke-width:1.0;"/><text fill="#000000" font-family="sans-serif" font-size="13" lengthAdjust="spacing" textLength="63" x="970.5" y="549.4951">«encodes»</text><!--MD5=[74b66334fb1b789d1f67e697f25f56d5]
link IntArgEncoder to HexIntDltArg--><path codeLine="50" d="M1042.5,505.03 C1042.5,527.17 1042.5,560.44 1042.5,582.67 " fill="none" id="IntArgEncoder-HexIntDltArg" style="stroke:#A80036;stroke-width:1.0;"/><text fill="#000000" font-family="sans-serif" font-size="13" lengthAdjust="spacing" textLength="63" x="1043.5" y="549.4951">«encodes»</text><!--MD5=[60ea00ebbcb58eecaffeb3a05b0a3219]
link IntArgEncoder to SignedIntDltArg--><path codeLine="51" d="M1076.82,505.16 C1089.34,514.05 1103.39,524.58 1115.5,535 C1132.96,550.01 1151.17,568.59 1164.64,582.97 " fill="none" id="IntArgEncoder-SignedIntDltArg" style="stroke:#A80036;stroke-width:1.0;"/><text fill="#000000" font-family="sans-serif" font-size="13" lengthAdjust="spacing" textLength="63" x="1134.5" y="549.4951">«encodes»</text><!--MD5=[00efb45549ea749bf639e432aca7494c]
link IntArgEncoder to UnsignedIntDltArg--><path codeLine="52" d="M1097.21,497.29 C1129.47,506.9 1170.83,520.24 1206.5,535 C1240.43,549.04 1277.38,568.11 1304.65,582.95 " fill="none" id="IntArgEncoder-UnsignedIntDltArg" style="stroke:#A80036;stroke-width:1.0;"/><text fill="#000000" font-family="sans-serif" font-size="13" lengthAdjust="spacing" textLength="63" x="1246.5" y="549.4951">«encodes»</text><!--MD5=[7e9a0a83af909b0720f00a075c2f32e2]
link BoolArgEncoder to BoolDltArg--><path codeLine="53" d="M540.37,505.19 C534.7,514.18 528.7,524.76 524.5,535 C518.2,550.36 513.9,568.59 511.2,582.74 " fill="none" id="BoolArgEncoder-BoolDltArg" style="stroke:#A80036;stroke-width:1.0;"/><text fill="#000000" font-family="sans-serif" font-size="13" lengthAdjust="spacing" textLength="63" x="525.5" y="549.4951">«encodes»</text><!--MD5=[7ae41f1c35c7a0d30d90e9e1cf850b21]
link FloatArgEncoder to Float32DltArg--><path codeLine="54" d="M1408.26,498.76 C1439.7,508.07 1478.21,520.65 1511.5,535 C1543.43,548.76 1577.84,567.94 1603.08,582.9 " fill="none" id="FloatArgEncoder-Float32DltArg" style="stroke:#A80036;stroke-width:1.0;"/><text fill="#000000" font-family="sans-serif" font-size="13" lengthAdjust="spacing" textLength="63" x="1548.5" y="549.4951">«encodes»</text><!--MD5=[033e7ed70bcddd632e2c6686e0239f5d]
link FloatArgEncoder to Float64DltArg--><path codeLine="55" d="M1379.2,505.17 C1391.68,514.24 1405.92,524.89 1418.5,535 C1437.59,550.35 1458.36,568.58 1474.08,582.73 " fill="none" id="FloatArgEncoder-Float64DltArg" style="stroke:#A80036;stroke-width:1.0;"/><text fill="#000000" font-family="sans-serif" font-size="13" lengthAdjust="spacing" textLength="63" x="1439.5" y="549.4951">«encodes»</text><!--MD5=[2034f1e70fbab9c14e61f7b7ebc1293f]
link RawArgEncoder to RawDltArg--><path codeLine="56" d="M680.44,505.13 C670.62,513.58 660.56,523.82 653.5,535 C644.3,549.56 638.98,568.33 636,582.92 " fill="none" id="RawArgEncoder-RawDltArg" style="stroke:#A80036;stroke-width:1.0;"/><text fill="#000000" font-family="sans-serif" font-size="13" lengthAdjust="spacing" textLength="63" x="654.5" y="549.4951">«encodes»</text><!--MD5=[358a230eacceb6582849cccffb7705da]
link StringArgEncoder to StringDltArg--><path codeLine="57" d="M828.85,505.1 C816.27,513.29 803.31,523.39 793.5,535 C781.72,548.94 773.46,567.92 768.29,582.75 " fill="none" id="StringArgEncoder-StringDltArg" style="stroke:#A80036;stroke-width:1.0;"/><text fill="#000000" font-family="sans-serif" font-size="13" lengthAdjust="spacing" textLength="63" x="794.5" y="549.4951">«encodes»</text><!--MD5=[5002f42bb0ee23d8d81c316b8fd6e614]
@startuml DLT.WriterEncoder
interface ITraceEncoder
interface ITraceEncoderFactory

ITraceEncoderFactory -r- ITraceEncoder

class DltTraceEncoderFactory<TLine:DltTraceLineBase>
ITraceEncoderFactory <|.d. DltTraceEncoderFactory

class DltTraceEncoder<TLine:DltTraceLineBase>
ITraceEncoder <|.d. DltTraceEncoder

DltTraceEncoderFactory -r-> DltTraceEncoder : <<creates>>

interface IVerboseDltEncoder {
    +Encode(buffer: Span<byte>, line: DltTraceLineBase): int
}
class VerboseDltEncoder
IVerboseDltEncoder <|.d. VerboseDltEncoder

interface IVerboseArgEncoder {
    +Encode(buffer: Span<byte>, arg: IDltArg): int
}
class VerboseArgEncoder
IVerboseArgEncoder <|.d. VerboseArgEncoder

IVerboseDltEncoder *-r- IVerboseArgEncoder
VerboseDltEncoder *-r- VerboseArgEncoder

class IntArgEncoder
class BoolArgEncoder
class FloatArgEncoder
class RawArgEncoder
class StringArgEncoder
IVerboseArgEncoder <|..d. IntArgEncoder
IVerboseArgEncoder <|..d. BoolArgEncoder
IVerboseArgEncoder <|..d. FloatArgEncoder
IVerboseArgEncoder <|..d. RawArgEncoder
IVerboseArgEncoder <|..d. StringArgEncoder

VerboseArgEncoder *-d- IntArgEncoder
VerboseArgEncoder *-d- BoolArgEncoder
VerboseArgEncoder *-d- FloatArgEncoder
VerboseArgEncoder *-d- RawArgEncoder
VerboseArgEncoder *-d- StringArgEncoder


DltTraceEncoder *-d- IVerboseDltEncoder

IntArgEncoder -d- BinaryIntDltArg : <<encodes>>
IntArgEncoder -d- HexIntDltArg : <<encodes>>
IntArgEncoder -d- SignedIntDltArg : <<encodes>>
IntArgEncoder -d- UnsignedIntDltArg : <<encodes>>
BoolArgEncoder -d- BoolDltArg : <<encodes>>
FloatArgEncoder -d- Float32DltArg : <<encodes>>
FloatArgEncoder -d- Float64DltArg : <<encodes>>
RawArgEncoder -d- RawDltArg : <<encodes>>
StringArgEncoder -d- StringDltArg : <<encodes>>
@enduml

PlantUML version 1.2022.1(Tue Feb 01 19:19:58 CET 2022)
(GPL source distribution)
Java Runtime: Java(TM) SE Runtime Environment
JVM: Java HotSpot(TM) Client VM
Default Encoding: Cp1252
Language: en
Country: US
--></g></svg>