<?xml version="1.0" encoding="UTF-8" standalone="no"?><svg xmlns="http://www.w3.org/2000/svg" xmlns:xlink="http://www.w3.org/1999/xlink" contentScriptType="application/ecmascript" contentStyleType="text/css" height="850px" preserveAspectRatio="none" style="width:2331px;height:850px;background:#FFFFFF;" version="1.1" viewBox="0 0 2331 850" width="2331px" zoomAndPan="magnify"><defs><filter height="300%" id="f1ijzb113pedwl" width="300%" x="-1" y="-1"><feGaussianBlur result="blurOut" stdDeviation="2.0"/><feColorMatrix in="blurOut" result="blurOut2" type="matrix" values="0 0 0 0 0 0 0 0 0 0 0 0 0 0 0 0 0 0 .4 0"/><feOffset dx="4.0" dy="4.0" in="blurOut2" result="blurOut3"/><feBlend in="SourceGraphic" in2="blurOut3" mode="normal"/></filter></defs><g><!--MD5=[6f2c01f075f91ebcd3347acc367829c7]
class BinaryIntArgEncoder--><rect codeLine="44" fill="#FEFECE" filter="url(#f1ijzb113pedwl)" height="48" id="BinaryIntArgEncoder" style="stroke:#A80036;stroke-width:1.5;" width="143" x="1826" y="644"/><ellipse cx="1841" cy="660" fill="#ADD1B2" rx="11" ry="11" style="stroke:#A80036;stroke-width:1.0;"/><path d="M1843.7656,655.875 Q1843.9219,655.6563 1844.1094,655.5469 Q1844.2969,655.4375 1844.5156,655.4375 Q1844.8906,655.4375 1845.125,655.6953 Q1845.3594,655.9531 1845.3594,656.5625 L1845.3594,658.0156 Q1845.3594,658.625 1845.125,658.8906 Q1844.8906,659.1563 1844.5156,659.1563 Q1844.1719,659.1563 1843.9688,658.9531 Q1843.7656,658.7656 1843.6563,658.25 Q1843.6094,657.8906 1843.4219,657.7031 Q1843.0938,657.3281 1842.4844,657.1094 Q1841.875,656.8906 1841.25,656.8906 Q1840.4844,656.8906 1839.8516,657.2188 Q1839.2188,657.5469 1838.7266,658.2969 Q1838.2344,659.0469 1838.2344,660.0781 L1838.2344,661.1719 Q1838.2344,662.4063 1839.125,663.2266 Q1840.0156,664.0469 1841.6094,664.0469 Q1842.5469,664.0469 1843.2031,663.7969 Q1843.5938,663.6406 1844.0156,663.2031 Q1844.2813,662.9375 1844.4297,662.8594 Q1844.5781,662.7813 1844.7813,662.7813 Q1845.1094,662.7813 1845.3672,663.0391 Q1845.625,663.2969 1845.625,663.6406 Q1845.625,663.9844 1845.2813,664.3906 Q1844.7813,664.9688 1843.9844,665.2969 Q1842.9063,665.75 1841.6094,665.75 Q1840.0938,665.75 1838.8906,665.125 Q1837.9063,664.625 1837.2188,663.5547 Q1836.5313,662.4844 1836.5313,661.2031 L1836.5313,660.0469 Q1836.5313,658.7188 1837.1484,657.5703 Q1837.7656,656.4219 1838.8594,655.8047 Q1839.9531,655.1875 1841.1875,655.1875 Q1841.9219,655.1875 1842.5703,655.3516 Q1843.2188,655.5156 1843.7656,655.875 Z " fill="#000000"/><text fill="#000000" font-family="sans-serif" font-size="12" lengthAdjust="spacing" textLength="111" x="1855" y="664.9102">BinaryIntArgEncoder</text><line style="stroke:#A80036;stroke-width:1.5;" x1="1827" x2="1968" y1="676" y2="676"/><line style="stroke:#A80036;stroke-width:1.5;" x1="1827" x2="1968" y1="684" y2="684"/><!--MD5=[5ca4af4ba27db3c1fa37640d811cae7a]
class HexIntArgEncoder--><rect codeLine="45" fill="#FEFECE" filter="url(#f1ijzb113pedwl)" height="48" id="HexIntArgEncoder" style="stroke:#A80036;stroke-width:1.5;" width="130" x="2004.5" y="644"/><ellipse cx="2019.5" cy="660" fill="#ADD1B2" rx="11" ry="11" style="stroke:#A80036;stroke-width:1.0;"/><path d="M2022.2656,655.875 Q2022.4219,655.6563 2022.6094,655.5469 Q2022.7969,655.4375 2023.0156,655.4375 Q2023.3906,655.4375 2023.625,655.6953 Q2023.8594,655.9531 2023.8594,656.5625 L2023.8594,658.0156 Q2023.8594,658.625 2023.625,658.8906 Q2023.3906,659.1563 2023.0156,659.1563 Q2022.6719,659.1563 2022.4688,658.9531 Q2022.2656,658.7656 2022.1563,658.25 Q2022.1094,657.8906 2021.9219,657.7031 Q2021.5938,657.3281 2020.9844,657.1094 Q2020.375,656.8906 2019.75,656.8906 Q2018.9844,656.8906 2018.3516,657.2188 Q2017.7188,657.5469 2017.2266,658.2969 Q2016.7344,659.0469 2016.7344,660.0781 L2016.7344,661.1719 Q2016.7344,662.4063 2017.625,663.2266 Q2018.5156,664.0469 2020.1094,664.0469 Q2021.0469,664.0469 2021.7031,663.7969 Q2022.0938,663.6406 2022.5156,663.2031 Q2022.7813,662.9375 2022.9297,662.8594 Q2023.0781,662.7813 2023.2813,662.7813 Q2023.6094,662.7813 2023.8672,663.0391 Q2024.125,663.2969 2024.125,663.6406 Q2024.125,663.9844 2023.7813,664.3906 Q2023.2813,664.9688 2022.4844,665.2969 Q2021.4063,665.75 2020.1094,665.75 Q2018.5938,665.75 2017.3906,665.125 Q2016.4063,664.625 2015.7188,663.5547 Q2015.0313,662.4844 2015.0313,661.2031 L2015.0313,660.0469 Q2015.0313,658.7188 2015.6484,657.5703 Q2016.2656,656.4219 2017.3594,655.8047 Q2018.4531,655.1875 2019.6875,655.1875 Q2020.4219,655.1875 2021.0703,655.3516 Q2021.7188,655.5156 2022.2656,655.875 Z " fill="#000000"/><text fill="#000000" font-family="sans-serif" font-size="12" lengthAdjust="spacing" textLength="98" x="2033.5" y="664.9102">HexIntArgEncoder</text><line style="stroke:#A80036;stroke-width:1.5;" x1="2005.5" x2="2133.5" y1="676" y2="676"/><line style="stroke:#A80036;stroke-width:1.5;" x1="2005.5" x2="2133.5" y1="684" y2="684"/><!--MD5=[f7a8f7cec189c8925c70c6dfe84b8abb]
class SignedIntArgEncoder--><rect codeLine="46" fill="#FEFECE" filter="url(#f1ijzb113pedwl)" height="48" id="SignedIntArgEncoder" style="stroke:#A80036;stroke-width:1.5;" width="148" x="2169.5" y="644"/><ellipse cx="2184.5" cy="660" fill="#ADD1B2" rx="11" ry="11" style="stroke:#A80036;stroke-width:1.0;"/><path d="M2187.2656,655.875 Q2187.4219,655.6563 2187.6094,655.5469 Q2187.7969,655.4375 2188.0156,655.4375 Q2188.3906,655.4375 2188.625,655.6953 Q2188.8594,655.9531 2188.8594,656.5625 L2188.8594,658.0156 Q2188.8594,658.625 2188.625,658.8906 Q2188.3906,659.1563 2188.0156,659.1563 Q2187.6719,659.1563 2187.4688,658.9531 Q2187.2656,658.7656 2187.1563,658.25 Q2187.1094,657.8906 2186.9219,657.7031 Q2186.5938,657.3281 2185.9844,657.1094 Q2185.375,656.8906 2184.75,656.8906 Q2183.9844,656.8906 2183.3516,657.2188 Q2182.7188,657.5469 2182.2266,658.2969 Q2181.7344,659.0469 2181.7344,660.0781 L2181.7344,661.1719 Q2181.7344,662.4063 2182.625,663.2266 Q2183.5156,664.0469 2185.1094,664.0469 Q2186.0469,664.0469 2186.7031,663.7969 Q2187.0938,663.6406 2187.5156,663.2031 Q2187.7813,662.9375 2187.9297,662.8594 Q2188.0781,662.7813 2188.2813,662.7813 Q2188.6094,662.7813 2188.8672,663.0391 Q2189.125,663.2969 2189.125,663.6406 Q2189.125,663.9844 2188.7813,664.3906 Q2188.2813,664.9688 2187.4844,665.2969 Q2186.4063,665.75 2185.1094,665.75 Q2183.5938,665.75 2182.3906,665.125 Q2181.4063,664.625 2180.7188,663.5547 Q2180.0313,662.4844 2180.0313,661.2031 L2180.0313,660.0469 Q2180.0313,658.7188 2180.6484,657.5703 Q2181.2656,656.4219 2182.3594,655.8047 Q2183.4531,655.1875 2184.6875,655.1875 Q2185.4219,655.1875 2186.0703,655.3516 Q2186.7188,655.5156 2187.2656,655.875 Z " fill="#000000"/><text fill="#000000" font-family="sans-serif" font-size="12" lengthAdjust="spacing" textLength="116" x="2198.5" y="664.9102">SignedIntArgEncoder</text><line style="stroke:#A80036;stroke-width:1.5;" x1="2170.5" x2="2316.5" y1="676" y2="676"/><line style="stroke:#A80036;stroke-width:1.5;" x1="2170.5" x2="2316.5" y1="684" y2="684"/><!--MD5=[f544327efaf49fb6f83b6e7d8b5dce23]
class UnsignedIntArgEncoder--><rect codeLine="47" fill="#FEFECE" filter="url(#f1ijzb113pedwl)" height="48" id="UnsignedIntArgEncoder" style="stroke:#A80036;stroke-width:1.5;" width="163" x="1628" y="644"/><ellipse cx="1643" cy="660" fill="#ADD1B2" rx="11" ry="11" style="stroke:#A80036;stroke-width:1.0;"/><path d="M1645.7656,655.875 Q1645.9219,655.6563 1646.1094,655.5469 Q1646.2969,655.4375 1646.5156,655.4375 Q1646.8906,655.4375 1647.125,655.6953 Q1647.3594,655.9531 1647.3594,656.5625 L1647.3594,658.0156 Q1647.3594,658.625 1647.125,658.8906 Q1646.8906,659.1563 1646.5156,659.1563 Q1646.1719,659.1563 1645.9688,658.9531 Q1645.7656,658.7656 1645.6563,658.25 Q1645.6094,657.8906 1645.4219,657.7031 Q1645.0938,657.3281 1644.4844,657.1094 Q1643.875,656.8906 1643.25,656.8906 Q1642.4844,656.8906 1641.8516,657.2188 Q1641.2188,657.5469 1640.7266,658.2969 Q1640.2344,659.0469 1640.2344,660.0781 L1640.2344,661.1719 Q1640.2344,662.4063 1641.125,663.2266 Q1642.0156,664.0469 1643.6094,664.0469 Q1644.5469,664.0469 1645.2031,663.7969 Q1645.5938,663.6406 1646.0156,663.2031 Q1646.2813,662.9375 1646.4297,662.8594 Q1646.5781,662.7813 1646.7813,662.7813 Q1647.1094,662.7813 1647.3672,663.0391 Q1647.625,663.2969 1647.625,663.6406 Q1647.625,663.9844 1647.2813,664.3906 Q1646.7813,664.9688 1645.9844,665.2969 Q1644.9063,665.75 1643.6094,665.75 Q1642.0938,665.75 1640.8906,665.125 Q1639.9063,664.625 1639.2188,663.5547 Q1638.5313,662.4844 1638.5313,661.2031 L1638.5313,660.0469 Q1638.5313,658.7188 1639.1484,657.5703 Q1639.7656,656.4219 1640.8594,655.8047 Q1641.9531,655.1875 1643.1875,655.1875 Q1643.9219,655.1875 1644.5703,655.3516 Q1645.2188,655.5156 1645.7656,655.875 Z " fill="#000000"/><text fill="#000000" font-family="sans-serif" font-size="12" lengthAdjust="spacing" textLength="131" x="1657" y="664.9102">UnsignedIntArgEncoder</text><line style="stroke:#A80036;stroke-width:1.5;" x1="1629" x2="1790" y1="676" y2="676"/><line style="stroke:#A80036;stroke-width:1.5;" x1="1629" x2="1790" y1="684" y2="684"/><!--MD5=[1f239973d255d0f438452ad301ebce4a]
class Float32ArgEncoder--><rect codeLine="50" fill="#FEFECE" filter="url(#f1ijzb113pedwl)" height="48" id="Float32ArgEncoder" style="stroke:#A80036;stroke-width:1.5;" width="137" x="964" y="644"/><ellipse cx="979" cy="660" fill="#ADD1B2" rx="11" ry="11" style="stroke:#A80036;stroke-width:1.0;"/><path d="M981.7656,655.875 Q981.9219,655.6563 982.1094,655.5469 Q982.2969,655.4375 982.5156,655.4375 Q982.8906,655.4375 983.125,655.6953 Q983.3594,655.9531 983.3594,656.5625 L983.3594,658.0156 Q983.3594,658.625 983.125,658.8906 Q982.8906,659.1563 982.5156,659.1563 Q982.1719,659.1563 981.9688,658.9531 Q981.7656,658.7656 981.6563,658.25 Q981.6094,657.8906 981.4219,657.7031 Q981.0938,657.3281 980.4844,657.1094 Q979.875,656.8906 979.25,656.8906 Q978.4844,656.8906 977.8516,657.2188 Q977.2188,657.5469 976.7266,658.2969 Q976.2344,659.0469 976.2344,660.0781 L976.2344,661.1719 Q976.2344,662.4063 977.125,663.2266 Q978.0156,664.0469 979.6094,664.0469 Q980.5469,664.0469 981.2031,663.7969 Q981.5938,663.6406 982.0156,663.2031 Q982.2813,662.9375 982.4297,662.8594 Q982.5781,662.7813 982.7813,662.7813 Q983.1094,662.7813 983.3672,663.0391 Q983.625,663.2969 983.625,663.6406 Q983.625,663.9844 983.2813,664.3906 Q982.7813,664.9688 981.9844,665.2969 Q980.9063,665.75 979.6094,665.75 Q978.0938,665.75 976.8906,665.125 Q975.9063,664.625 975.2188,663.5547 Q974.5313,662.4844 974.5313,661.2031 L974.5313,660.0469 Q974.5313,658.7188 975.1484,657.5703 Q975.7656,656.4219 976.8594,655.8047 Q977.9531,655.1875 979.1875,655.1875 Q979.9219,655.1875 980.5703,655.3516 Q981.2188,655.5156 981.7656,655.875 Z " fill="#000000"/><text fill="#000000" font-family="sans-serif" font-size="12" lengthAdjust="spacing" textLength="105" x="993" y="664.9102">Float32ArgEncoder</text><line style="stroke:#A80036;stroke-width:1.5;" x1="965" x2="1100" y1="676" y2="676"/><line style="stroke:#A80036;stroke-width:1.5;" x1="965" x2="1100" y1="684" y2="684"/><!--MD5=[5662824aabed64f61a3b769880bc971b]
class Float64ArgEncoder--><rect codeLine="51" fill="#FEFECE" filter="url(#f1ijzb113pedwl)" height="48" id="Float64ArgEncoder" style="stroke:#A80036;stroke-width:1.5;" width="137" x="1136" y="644"/><ellipse cx="1151" cy="660" fill="#ADD1B2" rx="11" ry="11" style="stroke:#A80036;stroke-width:1.0;"/><path d="M1153.7656,655.875 Q1153.9219,655.6563 1154.1094,655.5469 Q1154.2969,655.4375 1154.5156,655.4375 Q1154.8906,655.4375 1155.125,655.6953 Q1155.3594,655.9531 1155.3594,656.5625 L1155.3594,658.0156 Q1155.3594,658.625 1155.125,658.8906 Q1154.8906,659.1563 1154.5156,659.1563 Q1154.1719,659.1563 1153.9688,658.9531 Q1153.7656,658.7656 1153.6563,658.25 Q1153.6094,657.8906 1153.4219,657.7031 Q1153.0938,657.3281 1152.4844,657.1094 Q1151.875,656.8906 1151.25,656.8906 Q1150.4844,656.8906 1149.8516,657.2188 Q1149.2188,657.5469 1148.7266,658.2969 Q1148.2344,659.0469 1148.2344,660.0781 L1148.2344,661.1719 Q1148.2344,662.4063 1149.125,663.2266 Q1150.0156,664.0469 1151.6094,664.0469 Q1152.5469,664.0469 1153.2031,663.7969 Q1153.5938,663.6406 1154.0156,663.2031 Q1154.2813,662.9375 1154.4297,662.8594 Q1154.5781,662.7813 1154.7813,662.7813 Q1155.1094,662.7813 1155.3672,663.0391 Q1155.625,663.2969 1155.625,663.6406 Q1155.625,663.9844 1155.2813,664.3906 Q1154.7813,664.9688 1153.9844,665.2969 Q1152.9063,665.75 1151.6094,665.75 Q1150.0938,665.75 1148.8906,665.125 Q1147.9063,664.625 1147.2188,663.5547 Q1146.5313,662.4844 1146.5313,661.2031 L1146.5313,660.0469 Q1146.5313,658.7188 1147.1484,657.5703 Q1147.7656,656.4219 1148.8594,655.8047 Q1149.9531,655.1875 1151.1875,655.1875 Q1151.9219,655.1875 1152.5703,655.3516 Q1153.2188,655.5156 1153.7656,655.875 Z " fill="#000000"/><text fill="#000000" font-family="sans-serif" font-size="12" lengthAdjust="spacing" textLength="105" x="1165" y="664.9102">Float64ArgEncoder</text><line style="stroke:#A80036;stroke-width:1.5;" x1="1137" x2="1272" y1="676" y2="676"/><line style="stroke:#A80036;stroke-width:1.5;" x1="1137" x2="1272" y1="684" y2="684"/><!--MD5=[fe50a4f6767356ff4dcdadb85ef8cbdd]
class IDisposable--><rect codeLine="1" fill="#FEFECE" filter="url(#f1ijzb113pedwl)" height="48" id="IDisposable" style="stroke:#A80036;stroke-width:1.5;" width="99" x="518" y="7"/><ellipse cx="533" cy="23" fill="#B4A7E5" rx="11" ry="11" style="stroke:#A80036;stroke-width:1.0;"/><path d="M533.9531,19.6406 L533.9531,26.2969 L535.6719,26.2969 Q536.2813,26.2969 536.5469,26.5313 Q536.8125,26.7656 536.8125,27.1563 Q536.8125,27.5313 536.5469,27.7656 Q536.2813,28 535.6719,28 L530.5313,28 Q529.9219,28 529.6563,27.7656 Q529.3906,27.5313 529.3906,27.1406 Q529.3906,26.7656 529.6563,26.5313 Q529.9219,26.2969 530.5313,26.2969 L532.25,26.2969 L532.25,19.6406 L530.5313,19.6406 Q529.9219,19.6406 529.6563,19.4063 Q529.3906,19.1719 529.3906,18.7813 Q529.3906,18.4063 529.6563,18.1719 Q529.9219,17.9375 530.5313,17.9375 L535.6719,17.9375 Q536.2813,17.9375 536.5469,18.1719 Q536.8125,18.4063 536.8125,18.7813 Q536.8125,19.1719 536.5469,19.4063 Q536.2813,19.6406 535.6719,19.6406 L533.9531,19.6406 Z " fill="#000000"/><text fill="#000000" font-family="sans-serif" font-size="12" font-style="italic" lengthAdjust="spacing" textLength="67" x="547" y="27.9102">IDisposable</text><line style="stroke:#A80036;stroke-width:1.5;" x1="519" x2="616" y1="39" y2="39"/><line style="stroke:#A80036;stroke-width:1.5;" x1="519" x2="616" y1="47" y2="47"/><!--MD5=[6f6d608e6fcd45a869ad33795209fe26]
class ITraceEncoder--><rect codeLine="3" fill="#FEFECE" filter="url(#f1ijzb113pedwl)" height="61.8359" id="ITraceEncoder" style="stroke:#A80036;stroke-width:1.5;" width="277" x="429" y="116"/><ellipse cx="474.25" cy="132" fill="#B4A7E5" rx="11" ry="11" style="stroke:#A80036;stroke-width:1.0;"/><path d="M475.2031,128.6406 L475.2031,135.2969 L476.9219,135.2969 Q477.5313,135.2969 477.7969,135.5313 Q478.0625,135.7656 478.0625,136.1563 Q478.0625,136.5313 477.7969,136.7656 Q477.5313,137 476.9219,137 L471.7813,137 Q471.1719,137 470.9063,136.7656 Q470.6406,136.5313 470.6406,136.1406 Q470.6406,135.7656 470.9063,135.5313 Q471.1719,135.2969 471.7813,135.2969 L473.5,135.2969 L473.5,128.6406 L471.7813,128.6406 Q471.1719,128.6406 470.9063,128.4063 Q470.6406,128.1719 470.6406,127.7813 Q470.6406,127.4063 470.9063,127.1719 Q471.1719,126.9375 471.7813,126.9375 L476.9219,126.9375 Q477.5313,126.9375 477.7969,127.1719 Q478.0625,127.4063 478.0625,127.7813 Q478.0625,128.1719 477.7969,128.4063 Q477.5313,128.6406 476.9219,128.6406 L475.2031,128.6406 Z " fill="#000000"/><text fill="#000000" font-family="sans-serif" font-size="12" font-style="italic" lengthAdjust="spacing" textLength="81" x="494.75" y="136.9102">ITraceEncoder</text><rect fill="#FFFFFF" height="17.0938" style="stroke:#000000;stroke-width:1.0;stroke-dasharray:2.0,2.0;" width="95" x="614" y="113"/><text fill="#000000" font-family="sans-serif" font-size="12" font-style="italic" lengthAdjust="spacing" textLength="93" x="615" y="126.457">TLine:ITraceLine</text><line style="stroke:#A80036;stroke-width:1.5;" x1="430" x2="705" y1="148" y2="148"/><line style="stroke:#A80036;stroke-width:1.5;" x1="430" x2="705" y1="156" y2="156"/><ellipse cx="440" cy="167" fill="#84BE84" rx="3" ry="3" style="stroke:#038048;stroke-width:1.0;"/><text fill="#000000" font-family="sans-serif" font-size="11" lengthAdjust="spacing" textLength="251" x="449" y="171.4189">Encode(buffer: Span&lt;byte&gt;, line: TLine): Result&lt;int&gt;</text><!--MD5=[3d4b20d523844a7742bcfaf38f4a7853]
class ITraceEncoderFactory--><rect codeLine="8" fill="#FEFECE" filter="url(#f1ijzb113pedwl)" height="61.8359" id="ITraceEncoderFactory" style="stroke:#A80036;stroke-width:1.5;" width="250" x="31.5" y="116"/><ellipse cx="46.5" cy="132" fill="#B4A7E5" rx="11" ry="11" style="stroke:#A80036;stroke-width:1.0;"/><path d="M47.4531,128.6406 L47.4531,135.2969 L49.1719,135.2969 Q49.7813,135.2969 50.0469,135.5313 Q50.3125,135.7656 50.3125,136.1563 Q50.3125,136.5313 50.0469,136.7656 Q49.7813,137 49.1719,137 L44.0313,137 Q43.4219,137 43.1563,136.7656 Q42.8906,136.5313 42.8906,136.1406 Q42.8906,135.7656 43.1563,135.5313 Q43.4219,135.2969 44.0313,135.2969 L45.75,135.2969 L45.75,128.6406 L44.0313,128.6406 Q43.4219,128.6406 43.1563,128.4063 Q42.8906,128.1719 42.8906,127.7813 Q42.8906,127.4063 43.1563,127.1719 Q43.4219,126.9375 44.0313,126.9375 L49.1719,126.9375 Q49.7813,126.9375 50.0469,127.1719 Q50.3125,127.4063 50.3125,127.7813 Q50.3125,128.1719 50.0469,128.4063 Q49.7813,128.6406 49.1719,128.6406 L47.4531,128.6406 Z " fill="#000000"/><text fill="#000000" font-family="sans-serif" font-size="12" font-style="italic" lengthAdjust="spacing" textLength="121" x="60.5" y="136.9102">ITraceEncoderFactory</text><rect fill="#FFFFFF" height="17.0938" style="stroke:#000000;stroke-width:1.0;stroke-dasharray:2.0,2.0;" width="95" x="189.5" y="113"/><text fill="#000000" font-family="sans-serif" font-size="12" font-style="italic" lengthAdjust="spacing" textLength="93" x="190.5" y="126.457">TLine:ITraceLine</text><line style="stroke:#A80036;stroke-width:1.5;" x1="32.5" x2="280.5" y1="148" y2="148"/><line style="stroke:#A80036;stroke-width:1.5;" x1="32.5" x2="280.5" y1="156" y2="156"/><ellipse cx="42.5" cy="167" fill="#84BE84" rx="3" ry="3" style="stroke:#038048;stroke-width:1.0;"/><text fill="#000000" font-family="sans-serif" font-size="11" lengthAdjust="spacing" textLength="154" x="51.5" y="171.4189">Create(): ITraceEncoder&lt;TLine&gt;</text><!--MD5=[4aada09f93d0b6e7ebd03dfdc6a2603a]
class DltTraceEncoderFactory--><rect codeLine="12" fill="#FEFECE" filter="url(#f1ijzb113pedwl)" height="61.8359" id="DltTraceEncoderFactory" style="stroke:#A80036;stroke-width:1.5;" width="299" x="7" y="256"/><ellipse cx="22" cy="272" fill="#ADD1B2" rx="11" ry="11" style="stroke:#A80036;stroke-width:1.0;"/><path d="M24.7656,267.875 Q24.9219,267.6563 25.1094,267.5469 Q25.2969,267.4375 25.5156,267.4375 Q25.8906,267.4375 26.125,267.6953 Q26.3594,267.9531 26.3594,268.5625 L26.3594,270.0156 Q26.3594,270.625 26.125,270.8906 Q25.8906,271.1563 25.5156,271.1563 Q25.1719,271.1563 24.9688,270.9531 Q24.7656,270.7656 24.6563,270.25 Q24.6094,269.8906 24.4219,269.7031 Q24.0938,269.3281 23.4844,269.1094 Q22.875,268.8906 22.25,268.8906 Q21.4844,268.8906 20.8516,269.2188 Q20.2188,269.5469 19.7266,270.2969 Q19.2344,271.0469 19.2344,272.0781 L19.2344,273.1719 Q19.2344,274.4063 20.125,275.2266 Q21.0156,276.0469 22.6094,276.0469 Q23.5469,276.0469 24.2031,275.7969 Q24.5938,275.6406 25.0156,275.2031 Q25.2813,274.9375 25.4297,274.8594 Q25.5781,274.7813 25.7813,274.7813 Q26.1094,274.7813 26.3672,275.0391 Q26.625,275.2969 26.625,275.6406 Q26.625,275.9844 26.2813,276.3906 Q25.7813,276.9688 24.9844,277.2969 Q23.9063,277.75 22.6094,277.75 Q21.0938,277.75 19.8906,277.125 Q18.9063,276.625 18.2188,275.5547 Q17.5313,274.4844 17.5313,273.2031 L17.5313,272.0469 Q17.5313,270.7188 18.1484,269.5703 Q18.7656,268.4219 19.8594,267.8047 Q20.9531,267.1875 22.1875,267.1875 Q22.9219,267.1875 23.5703,267.3516 Q24.2188,267.5156 24.7656,267.875 Z " fill="#000000"/><text fill="#000000" font-family="sans-serif" font-size="12" lengthAdjust="spacing" textLength="131" x="36" y="276.9102">DltTraceEncoderFactory</text><rect fill="#FFFFFF" height="17.0938" style="stroke:#000000;stroke-width:1.0;stroke-dasharray:2.0,2.0;" width="134" x="175" y="253"/><text fill="#000000" font-family="sans-serif" font-size="12" font-style="italic" lengthAdjust="spacing" textLength="132" x="176" y="266.457">TLine:DltTraceLineBase</text><line style="stroke:#A80036;stroke-width:1.5;" x1="8" x2="305" y1="288" y2="288"/><line style="stroke:#A80036;stroke-width:1.5;" x1="8" x2="305" y1="296" y2="296"/><ellipse cx="18" cy="307" fill="#84BE84" rx="3" ry="3" style="stroke:#038048;stroke-width:1.0;"/><text fill="#000000" font-family="sans-serif" font-size="11" lengthAdjust="spacing" textLength="216" x="27" y="311.4189">Create() : ITraceEncoder&lt;DltTraceLineBase&gt;</text><!--MD5=[11363600cc92b2fece27b28de66320bf]
class DltTraceEncoder--><rect codeLine="17" fill="#FEFECE" filter="url(#f1ijzb113pedwl)" height="61.8359" id="DltTraceEncoder" style="stroke:#A80036;stroke-width:1.5;" width="336" x="399.5" y="256"/><ellipse cx="449.25" cy="272" fill="#ADD1B2" rx="11" ry="11" style="stroke:#A80036;stroke-width:1.0;"/><path d="M452.0156,267.875 Q452.1719,267.6563 452.3594,267.5469 Q452.5469,267.4375 452.7656,267.4375 Q453.1406,267.4375 453.375,267.6953 Q453.6094,267.9531 453.6094,268.5625 L453.6094,270.0156 Q453.6094,270.625 453.375,270.8906 Q453.1406,271.1563 452.7656,271.1563 Q452.4219,271.1563 452.2188,270.9531 Q452.0156,270.7656 451.9063,270.25 Q451.8594,269.8906 451.6719,269.7031 Q451.3438,269.3281 450.7344,269.1094 Q450.125,268.8906 449.5,268.8906 Q448.7344,268.8906 448.1016,269.2188 Q447.4688,269.5469 446.9766,270.2969 Q446.4844,271.0469 446.4844,272.0781 L446.4844,273.1719 Q446.4844,274.4063 447.375,275.2266 Q448.2656,276.0469 449.8594,276.0469 Q450.7969,276.0469 451.4531,275.7969 Q451.8438,275.6406 452.2656,275.2031 Q452.5313,274.9375 452.6797,274.8594 Q452.8281,274.7813 453.0313,274.7813 Q453.3594,274.7813 453.6172,275.0391 Q453.875,275.2969 453.875,275.6406 Q453.875,275.9844 453.5313,276.3906 Q453.0313,276.9688 452.2344,277.2969 Q451.1563,277.75 449.8594,277.75 Q448.3438,277.75 447.1406,277.125 Q446.1563,276.625 445.4688,275.5547 Q444.7813,274.4844 444.7813,273.2031 L444.7813,272.0469 Q444.7813,270.7188 445.3984,269.5703 Q446.0156,268.4219 447.1094,267.8047 Q448.2031,267.1875 449.4375,267.1875 Q450.1719,267.1875 450.8203,267.3516 Q451.4688,267.5156 452.0156,267.875 Z " fill="#000000"/><text fill="#000000" font-family="sans-serif" font-size="12" lengthAdjust="spacing" textLength="92" x="469.75" y="276.9102">DltTraceEncoder</text><rect fill="#FFFFFF" height="17.0938" style="stroke:#000000;stroke-width:1.0;stroke-dasharray:2.0,2.0;" width="134" x="604.5" y="253"/><text fill="#000000" font-family="sans-serif" font-size="12" font-style="italic" lengthAdjust="spacing" textLength="132" x="605.5" y="266.457">TLine:DltTraceLineBase</text><line style="stroke:#A80036;stroke-width:1.5;" x1="400.5" x2="734.5" y1="288" y2="288"/><line style="stroke:#A80036;stroke-width:1.5;" x1="400.5" x2="734.5" y1="296" y2="296"/><ellipse cx="410.5" cy="307" fill="#84BE84" rx="3" ry="3" style="stroke:#038048;stroke-width:1.0;"/><text fill="#000000" font-family="sans-serif" font-size="11" lengthAdjust="spacing" textLength="310" x="419.5" y="311.4189">Encode(buffer: Span&lt;byte&gt;, line: DltTraceLineBase): Result&lt;int&gt;</text><!--MD5=[41fead8911a9e917d46f3318ccce8e3a]
class IDltEncoder--><rect codeLine="23" fill="#FEFECE" filter="url(#f1ijzb113pedwl)" height="61.8359" id="IDltEncoder" style="stroke:#A80036;stroke-width:1.5;" width="277" x="429" y="379"/><ellipse cx="463.8" cy="395" fill="#B4A7E5" rx="11" ry="11" style="stroke:#A80036;stroke-width:1.0;"/><path d="M464.7531,391.6406 L464.7531,398.2969 L466.4719,398.2969 Q467.0813,398.2969 467.3469,398.5313 Q467.6125,398.7656 467.6125,399.1563 Q467.6125,399.5313 467.3469,399.7656 Q467.0813,400 466.4719,400 L461.3313,400 Q460.7219,400 460.4563,399.7656 Q460.1906,399.5313 460.1906,399.1406 Q460.1906,398.7656 460.4563,398.5313 Q460.7219,398.2969 461.3313,398.2969 L463.05,398.2969 L463.05,391.6406 L461.3313,391.6406 Q460.7219,391.6406 460.4563,391.4063 Q460.1906,391.1719 460.1906,390.7813 Q460.1906,390.4063 460.4563,390.1719 Q460.7219,389.9375 461.3313,389.9375 L466.4719,389.9375 Q467.0813,389.9375 467.3469,390.1719 Q467.6125,390.4063 467.6125,390.7813 Q467.6125,391.1719 467.3469,391.4063 Q467.0813,391.6406 466.4719,391.6406 L464.7531,391.6406 Z " fill="#000000"/><text fill="#000000" font-family="sans-serif" font-size="12" font-style="italic" lengthAdjust="spacing" textLength="65" x="482.2" y="399.9102">IDltEncoder</text><rect fill="#FFFFFF" height="17.0938" style="stroke:#000000;stroke-width:1.0;stroke-dasharray:2.0,2.0;" width="134" x="575" y="376"/><text fill="#000000" font-family="sans-serif" font-size="12" font-style="italic" lengthAdjust="spacing" textLength="132" x="576" y="389.457">TLine:DltTraceLineBase</text><line style="stroke:#A80036;stroke-width:1.5;" x1="430" x2="705" y1="411" y2="411"/><line style="stroke:#A80036;stroke-width:1.5;" x1="430" x2="705" y1="419" y2="419"/><ellipse cx="440" cy="430" fill="#84BE84" rx="3" ry="3" style="stroke:#038048;stroke-width:1.0;"/><text fill="#000000" font-family="sans-serif" font-size="11" lengthAdjust="spacing" textLength="251" x="449" y="434.4189">Encode(buffer: Span&lt;byte&gt;, line: TLine): Result&lt;int&gt;</text><!--MD5=[05a54f20826aaf197f67c85105285274]
class VerboseDltEncoder--><rect codeLine="27" fill="#FEFECE" filter="url(#f1ijzb113pedwl)" height="61.8359" id="VerboseDltEncoder" style="stroke:#A80036;stroke-width:1.5;" width="311" x="412" y="519"/><ellipse cx="455.8" cy="535" fill="#ADD1B2" rx="11" ry="11" style="stroke:#A80036;stroke-width:1.0;"/><path d="M458.5656,530.875 Q458.7219,530.6563 458.9094,530.5469 Q459.0969,530.4375 459.3156,530.4375 Q459.6906,530.4375 459.925,530.6953 Q460.1594,530.9531 460.1594,531.5625 L460.1594,533.0156 Q460.1594,533.625 459.925,533.8906 Q459.6906,534.1563 459.3156,534.1563 Q458.9719,534.1563 458.7688,533.9531 Q458.5656,533.7656 458.4563,533.25 Q458.4094,532.8906 458.2219,532.7031 Q457.8938,532.3281 457.2844,532.1094 Q456.675,531.8906 456.05,531.8906 Q455.2844,531.8906 454.6516,532.2188 Q454.0188,532.5469 453.5266,533.2969 Q453.0344,534.0469 453.0344,535.0781 L453.0344,536.1719 Q453.0344,537.4063 453.925,538.2266 Q454.8156,539.0469 456.4094,539.0469 Q457.3469,539.0469 458.0031,538.7969 Q458.3938,538.6406 458.8156,538.2031 Q459.0813,537.9375 459.2297,537.8594 Q459.3781,537.7813 459.5813,537.7813 Q459.9094,537.7813 460.1672,538.0391 Q460.425,538.2969 460.425,538.6406 Q460.425,538.9844 460.0813,539.3906 Q459.5813,539.9688 458.7844,540.2969 Q457.7063,540.75 456.4094,540.75 Q454.8938,540.75 453.6906,540.125 Q452.7063,539.625 452.0188,538.5547 Q451.3313,537.4844 451.3313,536.2031 L451.3313,535.0469 Q451.3313,533.7188 451.9484,532.5703 Q452.5656,531.4219 453.6594,530.8047 Q454.7531,530.1875 455.9875,530.1875 Q456.7219,530.1875 457.3703,530.3516 Q458.0188,530.5156 458.5656,530.875 Z " fill="#000000"/><text fill="#000000" font-family="sans-serif" font-size="12" lengthAdjust="spacing" textLength="107" x="476.2" y="539.9102">VerboseDltEncoder</text><rect fill="#FFFFFF" height="17.0938" style="stroke:#000000;stroke-width:1.0;stroke-dasharray:2.0,2.0;" width="106" x="620" y="516"/><text fill="#000000" font-family="sans-serif" font-size="12" font-style="italic" lengthAdjust="spacing" textLength="104" x="621" y="529.457">TLine:DltTraceLine</text><line style="stroke:#A80036;stroke-width:1.5;" x1="413" x2="722" y1="551" y2="551"/><line style="stroke:#A80036;stroke-width:1.5;" x1="413" x2="722" y1="559" y2="559"/><ellipse cx="423" cy="570" fill="#84BE84" rx="3" ry="3" style="stroke:#038048;stroke-width:1.0;"/><text fill="#000000" font-family="sans-serif" font-size="11" lengthAdjust="spacing" textLength="285" x="432" y="574.4189">Encode(buffer: Span&lt;byte&gt;, line: DltTraceLine): Result&lt;int&gt;</text><!--MD5=[358dd04dd0fac196fcd8d983e2abb37d]
class IArgEncoder--><rect codeLine="32" fill="#FEFECE" filter="url(#f1ijzb113pedwl)" height="61.8359" id="IArgEncoder" style="stroke:#A80036;stroke-width:1.5;" width="405" x="1101" y="379"/><ellipse cx="1264.75" cy="395" fill="#B4A7E5" rx="11" ry="11" style="stroke:#A80036;stroke-width:1.0;"/><path d="M1265.7031,391.6406 L1265.7031,398.2969 L1267.4219,398.2969 Q1268.0313,398.2969 1268.2969,398.5313 Q1268.5625,398.7656 1268.5625,399.1563 Q1268.5625,399.5313 1268.2969,399.7656 Q1268.0313,400 1267.4219,400 L1262.2813,400 Q1261.6719,400 1261.4063,399.7656 Q1261.1406,399.5313 1261.1406,399.1406 Q1261.1406,398.7656 1261.4063,398.5313 Q1261.6719,398.2969 1262.2813,398.2969 L1264,398.2969 L1264,391.6406 L1262.2813,391.6406 Q1261.6719,391.6406 1261.4063,391.4063 Q1261.1406,391.1719 1261.1406,390.7813 Q1261.1406,390.4063 1261.4063,390.1719 Q1261.6719,389.9375 1262.2813,389.9375 L1267.4219,389.9375 Q1268.0313,389.9375 1268.2969,390.1719 Q1268.5625,390.4063 1268.5625,390.7813 Q1268.5625,391.1719 1268.2969,391.4063 Q1268.0313,391.6406 1267.4219,391.6406 L1265.7031,391.6406 Z " fill="#000000"/><text fill="#000000" font-family="sans-serif" font-size="12" font-style="italic" lengthAdjust="spacing" textLength="69" x="1285.25" y="399.9102">IArgEncoder</text><line style="stroke:#A80036;stroke-width:1.5;" x1="1102" x2="1505" y1="411" y2="411"/><line style="stroke:#A80036;stroke-width:1.5;" x1="1102" x2="1505" y1="419" y2="419"/><ellipse cx="1112" cy="430" fill="#84BE84" rx="3" ry="3" style="stroke:#038048;stroke-width:1.0;"/><text fill="#000000" font-family="sans-serif" font-size="11" lengthAdjust="spacing" textLength="379" x="1121" y="434.4189">Encode(buffer: Span&lt;byte&gt;, bool verbose, bool msbf, arg: IDltArg): Result&lt;int&gt;</text><!--MD5=[4897523d3375529ead9aa56cb33cfe69]
class DltArgEncoder--><rect codeLine="36" fill="#FEFECE" filter="url(#f1ijzb113pedwl)" height="61.8359" id="DltArgEncoder" style="stroke:#A80036;stroke-width:1.5;" width="405" x="1229" y="519"/><ellipse cx="1387.75" cy="535" fill="#ADD1B2" rx="11" ry="11" style="stroke:#A80036;stroke-width:1.0;"/><path d="M1390.5156,530.875 Q1390.6719,530.6563 1390.8594,530.5469 Q1391.0469,530.4375 1391.2656,530.4375 Q1391.6406,530.4375 1391.875,530.6953 Q1392.1094,530.9531 1392.1094,531.5625 L1392.1094,533.0156 Q1392.1094,533.625 1391.875,533.8906 Q1391.6406,534.1563 1391.2656,534.1563 Q1390.9219,534.1563 1390.7188,533.9531 Q1390.5156,533.7656 1390.4063,533.25 Q1390.3594,532.8906 1390.1719,532.7031 Q1389.8438,532.3281 1389.2344,532.1094 Q1388.625,531.8906 1388,531.8906 Q1387.2344,531.8906 1386.6016,532.2188 Q1385.9688,532.5469 1385.4766,533.2969 Q1384.9844,534.0469 1384.9844,535.0781 L1384.9844,536.1719 Q1384.9844,537.4063 1385.875,538.2266 Q1386.7656,539.0469 1388.3594,539.0469 Q1389.2969,539.0469 1389.9531,538.7969 Q1390.3438,538.6406 1390.7656,538.2031 Q1391.0313,537.9375 1391.1797,537.8594 Q1391.3281,537.7813 1391.5313,537.7813 Q1391.8594,537.7813 1392.1172,538.0391 Q1392.375,538.2969 1392.375,538.6406 Q1392.375,538.9844 1392.0313,539.3906 Q1391.5313,539.9688 1390.7344,540.2969 Q1389.6563,540.75 1388.3594,540.75 Q1386.8438,540.75 1385.6406,540.125 Q1384.6563,539.625 1383.9688,538.5547 Q1383.2813,537.4844 1383.2813,536.2031 L1383.2813,535.0469 Q1383.2813,533.7188 1383.8984,532.5703 Q1384.5156,531.4219 1385.6094,530.8047 Q1386.7031,530.1875 1387.9375,530.1875 Q1388.6719,530.1875 1389.3203,530.3516 Q1389.9688,530.5156 1390.5156,530.875 Z " fill="#000000"/><text fill="#000000" font-family="sans-serif" font-size="12" lengthAdjust="spacing" textLength="79" x="1408.25" y="539.9102">DltArgEncoder</text><line style="stroke:#A80036;stroke-width:1.5;" x1="1230" x2="1633" y1="551" y2="551"/><line style="stroke:#A80036;stroke-width:1.5;" x1="1230" x2="1633" y1="559" y2="559"/><ellipse cx="1240" cy="570" fill="#84BE84" rx="3" ry="3" style="stroke:#038048;stroke-width:1.0;"/><text fill="#000000" font-family="sans-serif" font-size="11" lengthAdjust="spacing" textLength="379" x="1249" y="574.4189">Encode(buffer: Span&lt;byte&gt;, bool verbose, bool msbf, arg: IDltArg): Result&lt;int&gt;</text><!--MD5=[e04e017feeb2dd5dd390d83656173fba]
class BoolArgEncoder--><rect codeLine="42" fill="#FEFECE" filter="url(#f1ijzb113pedwl)" height="48" id="BoolArgEncoder" style="stroke:#A80036;stroke-width:1.5;" width="121" x="1472" y="644"/><ellipse cx="1487" cy="660" fill="#ADD1B2" rx="11" ry="11" style="stroke:#A80036;stroke-width:1.0;"/><path d="M1489.7656,655.875 Q1489.9219,655.6563 1490.1094,655.5469 Q1490.2969,655.4375 1490.5156,655.4375 Q1490.8906,655.4375 1491.125,655.6953 Q1491.3594,655.9531 1491.3594,656.5625 L1491.3594,658.0156 Q1491.3594,658.625 1491.125,658.8906 Q1490.8906,659.1563 1490.5156,659.1563 Q1490.1719,659.1563 1489.9688,658.9531 Q1489.7656,658.7656 1489.6563,658.25 Q1489.6094,657.8906 1489.4219,657.7031 Q1489.0938,657.3281 1488.4844,657.1094 Q1487.875,656.8906 1487.25,656.8906 Q1486.4844,656.8906 1485.8516,657.2188 Q1485.2188,657.5469 1484.7266,658.2969 Q1484.2344,659.0469 1484.2344,660.0781 L1484.2344,661.1719 Q1484.2344,662.4063 1485.125,663.2266 Q1486.0156,664.0469 1487.6094,664.0469 Q1488.5469,664.0469 1489.2031,663.7969 Q1489.5938,663.6406 1490.0156,663.2031 Q1490.2813,662.9375 1490.4297,662.8594 Q1490.5781,662.7813 1490.7813,662.7813 Q1491.1094,662.7813 1491.3672,663.0391 Q1491.625,663.2969 1491.625,663.6406 Q1491.625,663.9844 1491.2813,664.3906 Q1490.7813,664.9688 1489.9844,665.2969 Q1488.9063,665.75 1487.6094,665.75 Q1486.0938,665.75 1484.8906,665.125 Q1483.9063,664.625 1483.2188,663.5547 Q1482.5313,662.4844 1482.5313,661.2031 L1482.5313,660.0469 Q1482.5313,658.7188 1483.1484,657.5703 Q1483.7656,656.4219 1484.8594,655.8047 Q1485.9531,655.1875 1487.1875,655.1875 Q1487.9219,655.1875 1488.5703,655.3516 Q1489.2188,655.5156 1489.7656,655.875 Z " fill="#000000"/><text fill="#000000" font-family="sans-serif" font-size="12" lengthAdjust="spacing" textLength="89" x="1501" y="664.9102">BoolArgEncoder</text><line style="stroke:#A80036;stroke-width:1.5;" x1="1473" x2="1592" y1="676" y2="676"/><line style="stroke:#A80036;stroke-width:1.5;" x1="1473" x2="1592" y1="684" y2="684"/><!--MD5=[17ad35bfc48752a1c7c5373cb1f71222]
class StringArgEncoder--><rect codeLine="53" fill="#FEFECE" filter="url(#f1ijzb113pedwl)" height="48" id="StringArgEncoder" style="stroke:#A80036;stroke-width:1.5;" width="128" x="1308.5" y="644"/><ellipse cx="1323.5" cy="660" fill="#ADD1B2" rx="11" ry="11" style="stroke:#A80036;stroke-width:1.0;"/><path d="M1326.2656,655.875 Q1326.4219,655.6563 1326.6094,655.5469 Q1326.7969,655.4375 1327.0156,655.4375 Q1327.3906,655.4375 1327.625,655.6953 Q1327.8594,655.9531 1327.8594,656.5625 L1327.8594,658.0156 Q1327.8594,658.625 1327.625,658.8906 Q1327.3906,659.1563 1327.0156,659.1563 Q1326.6719,659.1563 1326.4688,658.9531 Q1326.2656,658.7656 1326.1563,658.25 Q1326.1094,657.8906 1325.9219,657.7031 Q1325.5938,657.3281 1324.9844,657.1094 Q1324.375,656.8906 1323.75,656.8906 Q1322.9844,656.8906 1322.3516,657.2188 Q1321.7188,657.5469 1321.2266,658.2969 Q1320.7344,659.0469 1320.7344,660.0781 L1320.7344,661.1719 Q1320.7344,662.4063 1321.625,663.2266 Q1322.5156,664.0469 1324.1094,664.0469 Q1325.0469,664.0469 1325.7031,663.7969 Q1326.0938,663.6406 1326.5156,663.2031 Q1326.7813,662.9375 1326.9297,662.8594 Q1327.0781,662.7813 1327.2813,662.7813 Q1327.6094,662.7813 1327.8672,663.0391 Q1328.125,663.2969 1328.125,663.6406 Q1328.125,663.9844 1327.7813,664.3906 Q1327.2813,664.9688 1326.4844,665.2969 Q1325.4063,665.75 1324.1094,665.75 Q1322.5938,665.75 1321.3906,665.125 Q1320.4063,664.625 1319.7188,663.5547 Q1319.0313,662.4844 1319.0313,661.2031 L1319.0313,660.0469 Q1319.0313,658.7188 1319.6484,657.5703 Q1320.2656,656.4219 1321.3594,655.8047 Q1322.4531,655.1875 1323.6875,655.1875 Q1324.4219,655.1875 1325.0703,655.3516 Q1325.7188,655.5156 1326.2656,655.875 Z " fill="#000000"/><text fill="#000000" font-family="sans-serif" font-size="12" lengthAdjust="spacing" textLength="96" x="1337.5" y="664.9102">StringArgEncoder</text><line style="stroke:#A80036;stroke-width:1.5;" x1="1309.5" x2="1435.5" y1="676" y2="676"/><line style="stroke:#A80036;stroke-width:1.5;" x1="1309.5" x2="1435.5" y1="684" y2="684"/><!--MD5=[0746544628c1c6fdce9c9fa0b183308f]
class RawArgEncoder--><rect codeLine="54" fill="#FEFECE" filter="url(#f1ijzb113pedwl)" height="48" id="RawArgEncoder" style="stroke:#A80036;stroke-width:1.5;" width="121" x="808" y="644"/><ellipse cx="823" cy="660" fill="#ADD1B2" rx="11" ry="11" style="stroke:#A80036;stroke-width:1.0;"/><path d="M825.7656,655.875 Q825.9219,655.6563 826.1094,655.5469 Q826.2969,655.4375 826.5156,655.4375 Q826.8906,655.4375 827.125,655.6953 Q827.3594,655.9531 827.3594,656.5625 L827.3594,658.0156 Q827.3594,658.625 827.125,658.8906 Q826.8906,659.1563 826.5156,659.1563 Q826.1719,659.1563 825.9688,658.9531 Q825.7656,658.7656 825.6563,658.25 Q825.6094,657.8906 825.4219,657.7031 Q825.0938,657.3281 824.4844,657.1094 Q823.875,656.8906 823.25,656.8906 Q822.4844,656.8906 821.8516,657.2188 Q821.2188,657.5469 820.7266,658.2969 Q820.2344,659.0469 820.2344,660.0781 L820.2344,661.1719 Q820.2344,662.4063 821.125,663.2266 Q822.0156,664.0469 823.6094,664.0469 Q824.5469,664.0469 825.2031,663.7969 Q825.5938,663.6406 826.0156,663.2031 Q826.2813,662.9375 826.4297,662.8594 Q826.5781,662.7813 826.7813,662.7813 Q827.1094,662.7813 827.3672,663.0391 Q827.625,663.2969 827.625,663.6406 Q827.625,663.9844 827.2813,664.3906 Q826.7813,664.9688 825.9844,665.2969 Q824.9063,665.75 823.6094,665.75 Q822.0938,665.75 820.8906,665.125 Q819.9063,664.625 819.2188,663.5547 Q818.5313,662.4844 818.5313,661.2031 L818.5313,660.0469 Q818.5313,658.7188 819.1484,657.5703 Q819.7656,656.4219 820.8594,655.8047 Q821.9531,655.1875 823.1875,655.1875 Q823.9219,655.1875 824.5703,655.3516 Q825.2188,655.5156 825.7656,655.875 Z " fill="#000000"/><text fill="#000000" font-family="sans-serif" font-size="12" lengthAdjust="spacing" textLength="89" x="837" y="664.9102">RawArgEncoder</text><line style="stroke:#A80036;stroke-width:1.5;" x1="809" x2="928" y1="676" y2="676"/><line style="stroke:#A80036;stroke-width:1.5;" x1="809" x2="928" y1="684" y2="684"/><!--MD5=[67c441653a918cc89ed76fa9bbc8d3f1]
class NonVerboseArgEncoder--><rect codeLine="55" fill="#FEFECE" filter="url(#f1ijzb113pedwl)" height="48" id="NonVerboseArgEncoder" style="stroke:#A80036;stroke-width:1.5;" width="165" x="608" y="644"/><ellipse cx="623" cy="660" fill="#ADD1B2" rx="11" ry="11" style="stroke:#A80036;stroke-width:1.0;"/><path d="M625.7656,655.875 Q625.9219,655.6563 626.1094,655.5469 Q626.2969,655.4375 626.5156,655.4375 Q626.8906,655.4375 627.125,655.6953 Q627.3594,655.9531 627.3594,656.5625 L627.3594,658.0156 Q627.3594,658.625 627.125,658.8906 Q626.8906,659.1563 626.5156,659.1563 Q626.1719,659.1563 625.9688,658.9531 Q625.7656,658.7656 625.6563,658.25 Q625.6094,657.8906 625.4219,657.7031 Q625.0938,657.3281 624.4844,657.1094 Q623.875,656.8906 623.25,656.8906 Q622.4844,656.8906 621.8516,657.2188 Q621.2188,657.5469 620.7266,658.2969 Q620.2344,659.0469 620.2344,660.0781 L620.2344,661.1719 Q620.2344,662.4063 621.125,663.2266 Q622.0156,664.0469 623.6094,664.0469 Q624.5469,664.0469 625.2031,663.7969 Q625.5938,663.6406 626.0156,663.2031 Q626.2813,662.9375 626.4297,662.8594 Q626.5781,662.7813 626.7813,662.7813 Q627.1094,662.7813 627.3672,663.0391 Q627.625,663.2969 627.625,663.6406 Q627.625,663.9844 627.2813,664.3906 Q626.7813,664.9688 625.9844,665.2969 Q624.9063,665.75 623.6094,665.75 Q622.0938,665.75 620.8906,665.125 Q619.9063,664.625 619.2188,663.5547 Q618.5313,662.4844 618.5313,661.2031 L618.5313,660.0469 Q618.5313,658.7188 619.1484,657.5703 Q619.7656,656.4219 620.8594,655.8047 Q621.9531,655.1875 623.1875,655.1875 Q623.9219,655.1875 624.5703,655.3516 Q625.2188,655.5156 625.7656,655.875 Z " fill="#000000"/><text fill="#000000" font-family="sans-serif" font-size="12" lengthAdjust="spacing" textLength="133" x="637" y="664.9102">NonVerboseArgEncoder</text><line style="stroke:#A80036;stroke-width:1.5;" x1="609" x2="772" y1="676" y2="676"/><line style="stroke:#A80036;stroke-width:1.5;" x1="609" x2="772" y1="684" y2="684"/><!--MD5=[b95d21ec3c3da8c1b5931f72b23f66a9]
class UnknownVerboseArgEncoder--><rect codeLine="56" fill="#FEFECE" filter="url(#f1ijzb113pedwl)" height="48" id="UnknownVerboseArgEncoder" style="stroke:#A80036;stroke-width:1.5;" width="194" x="378.5" y="644"/><ellipse cx="393.5" cy="660" fill="#ADD1B2" rx="11" ry="11" style="stroke:#A80036;stroke-width:1.0;"/><path d="M396.2656,655.875 Q396.4219,655.6563 396.6094,655.5469 Q396.7969,655.4375 397.0156,655.4375 Q397.3906,655.4375 397.625,655.6953 Q397.8594,655.9531 397.8594,656.5625 L397.8594,658.0156 Q397.8594,658.625 397.625,658.8906 Q397.3906,659.1563 397.0156,659.1563 Q396.6719,659.1563 396.4688,658.9531 Q396.2656,658.7656 396.1563,658.25 Q396.1094,657.8906 395.9219,657.7031 Q395.5938,657.3281 394.9844,657.1094 Q394.375,656.8906 393.75,656.8906 Q392.9844,656.8906 392.3516,657.2188 Q391.7188,657.5469 391.2266,658.2969 Q390.7344,659.0469 390.7344,660.0781 L390.7344,661.1719 Q390.7344,662.4063 391.625,663.2266 Q392.5156,664.0469 394.1094,664.0469 Q395.0469,664.0469 395.7031,663.7969 Q396.0938,663.6406 396.5156,663.2031 Q396.7813,662.9375 396.9297,662.8594 Q397.0781,662.7813 397.2813,662.7813 Q397.6094,662.7813 397.8672,663.0391 Q398.125,663.2969 398.125,663.6406 Q398.125,663.9844 397.7813,664.3906 Q397.2813,664.9688 396.4844,665.2969 Q395.4063,665.75 394.1094,665.75 Q392.5938,665.75 391.3906,665.125 Q390.4063,664.625 389.7188,663.5547 Q389.0313,662.4844 389.0313,661.2031 L389.0313,660.0469 Q389.0313,658.7188 389.6484,657.5703 Q390.2656,656.4219 391.3594,655.8047 Q392.4531,655.1875 393.6875,655.1875 Q394.4219,655.1875 395.0703,655.3516 Q395.7188,655.5156 396.2656,655.875 Z " fill="#000000"/><text fill="#000000" font-family="sans-serif" font-size="12" lengthAdjust="spacing" textLength="162" x="407.5" y="664.9102">UnknownVerboseArgEncoder</text><line style="stroke:#A80036;stroke-width:1.5;" x1="379.5" x2="571.5" y1="676" y2="676"/><line style="stroke:#A80036;stroke-width:1.5;" x1="379.5" x2="571.5" y1="684" y2="684"/><!--MD5=[584669a0ed286870cad57e16f4431256]
class BinaryIntDltArg--><rect fill="#FEFECE" filter="url(#f1ijzb113pedwl)" height="48" id="BinaryIntDltArg" style="stroke:#A80036;stroke-width:1.5;" width="112" x="1841.5" y="788"/><ellipse cx="1856.5" cy="804" fill="#ADD1B2" rx="11" ry="11" style="stroke:#A80036;stroke-width:1.0;"/><path d="M1859.2656,799.875 Q1859.4219,799.6563 1859.6094,799.5469 Q1859.7969,799.4375 1860.0156,799.4375 Q1860.3906,799.4375 1860.625,799.6953 Q1860.8594,799.9531 1860.8594,800.5625 L1860.8594,802.0156 Q1860.8594,802.625 1860.625,802.8906 Q1860.3906,803.1563 1860.0156,803.1563 Q1859.6719,803.1563 1859.4688,802.9531 Q1859.2656,802.7656 1859.1563,802.25 Q1859.1094,801.8906 1858.9219,801.7031 Q1858.5938,801.3281 1857.9844,801.1094 Q1857.375,800.8906 1856.75,800.8906 Q1855.9844,800.8906 1855.3516,801.2188 Q1854.7188,801.5469 1854.2266,802.2969 Q1853.7344,803.0469 1853.7344,804.0781 L1853.7344,805.1719 Q1853.7344,806.4063 1854.625,807.2266 Q1855.5156,808.0469 1857.1094,808.0469 Q1858.0469,808.0469 1858.7031,807.7969 Q1859.0938,807.6406 1859.5156,807.2031 Q1859.7813,806.9375 1859.9297,806.8594 Q1860.0781,806.7813 1860.2813,806.7813 Q1860.6094,806.7813 1860.8672,807.0391 Q1861.125,807.2969 1861.125,807.6406 Q1861.125,807.9844 1860.7813,808.3906 Q1860.2813,808.9688 1859.4844,809.2969 Q1858.4063,809.75 1857.1094,809.75 Q1855.5938,809.75 1854.3906,809.125 Q1853.4063,808.625 1852.7188,807.5547 Q1852.0313,806.4844 1852.0313,805.2031 L1852.0313,804.0469 Q1852.0313,802.7188 1852.6484,801.5703 Q1853.2656,800.4219 1854.3594,799.8047 Q1855.4531,799.1875 1856.6875,799.1875 Q1857.4219,799.1875 1858.0703,799.3516 Q1858.7188,799.5156 1859.2656,799.875 Z " fill="#000000"/><text fill="#000000" font-family="sans-serif" font-size="12" lengthAdjust="spacing" textLength="80" x="1870.5" y="808.9102">BinaryIntDltArg</text><line style="stroke:#A80036;stroke-width:1.5;" x1="1842.5" x2="1952.5" y1="820" y2="820"/><line style="stroke:#A80036;stroke-width:1.5;" x1="1842.5" x2="1952.5" y1="828" y2="828"/><!--MD5=[5b44a63c92af40190428db9752e4a224]
class HexIntDltArg--><rect fill="#FEFECE" filter="url(#f1ijzb113pedwl)" height="48" id="HexIntDltArg" style="stroke:#A80036;stroke-width:1.5;" width="99" x="2020" y="788"/><ellipse cx="2035" cy="804" fill="#ADD1B2" rx="11" ry="11" style="stroke:#A80036;stroke-width:1.0;"/><path d="M2037.7656,799.875 Q2037.9219,799.6563 2038.1094,799.5469 Q2038.2969,799.4375 2038.5156,799.4375 Q2038.8906,799.4375 2039.125,799.6953 Q2039.3594,799.9531 2039.3594,800.5625 L2039.3594,802.0156 Q2039.3594,802.625 2039.125,802.8906 Q2038.8906,803.1563 2038.5156,803.1563 Q2038.1719,803.1563 2037.9688,802.9531 Q2037.7656,802.7656 2037.6563,802.25 Q2037.6094,801.8906 2037.4219,801.7031 Q2037.0938,801.3281 2036.4844,801.1094 Q2035.875,800.8906 2035.25,800.8906 Q2034.4844,800.8906 2033.8516,801.2188 Q2033.2188,801.5469 2032.7266,802.2969 Q2032.2344,803.0469 2032.2344,804.0781 L2032.2344,805.1719 Q2032.2344,806.4063 2033.125,807.2266 Q2034.0156,808.0469 2035.6094,808.0469 Q2036.5469,808.0469 2037.2031,807.7969 Q2037.5938,807.6406 2038.0156,807.2031 Q2038.2813,806.9375 2038.4297,806.8594 Q2038.5781,806.7813 2038.7813,806.7813 Q2039.1094,806.7813 2039.3672,807.0391 Q2039.625,807.2969 2039.625,807.6406 Q2039.625,807.9844 2039.2813,808.3906 Q2038.7813,808.9688 2037.9844,809.2969 Q2036.9063,809.75 2035.6094,809.75 Q2034.0938,809.75 2032.8906,809.125 Q2031.9063,808.625 2031.2188,807.5547 Q2030.5313,806.4844 2030.5313,805.2031 L2030.5313,804.0469 Q2030.5313,802.7188 2031.1484,801.5703 Q2031.7656,800.4219 2032.8594,799.8047 Q2033.9531,799.1875 2035.1875,799.1875 Q2035.9219,799.1875 2036.5703,799.3516 Q2037.2188,799.5156 2037.7656,799.875 Z " fill="#000000"/><text fill="#000000" font-family="sans-serif" font-size="12" lengthAdjust="spacing" textLength="67" x="2049" y="808.9102">HexIntDltArg</text><line style="stroke:#A80036;stroke-width:1.5;" x1="2021" x2="2118" y1="820" y2="820"/><line style="stroke:#A80036;stroke-width:1.5;" x1="2021" x2="2118" y1="828" y2="828"/><!--MD5=[530b5da5bd258ad0d6915bceb12a6485]
class SignedIntDltArg--><rect fill="#FEFECE" filter="url(#f1ijzb113pedwl)" height="48" id="SignedIntDltArg" style="stroke:#A80036;stroke-width:1.5;" width="117" x="2185" y="788"/><ellipse cx="2200" cy="804" fill="#ADD1B2" rx="11" ry="11" style="stroke:#A80036;stroke-width:1.0;"/><path d="M2202.7656,799.875 Q2202.9219,799.6563 2203.1094,799.5469 Q2203.2969,799.4375 2203.5156,799.4375 Q2203.8906,799.4375 2204.125,799.6953 Q2204.3594,799.9531 2204.3594,800.5625 L2204.3594,802.0156 Q2204.3594,802.625 2204.125,802.8906 Q2203.8906,803.1563 2203.5156,803.1563 Q2203.1719,803.1563 2202.9688,802.9531 Q2202.7656,802.7656 2202.6563,802.25 Q2202.6094,801.8906 2202.4219,801.7031 Q2202.0938,801.3281 2201.4844,801.1094 Q2200.875,800.8906 2200.25,800.8906 Q2199.4844,800.8906 2198.8516,801.2188 Q2198.2188,801.5469 2197.7266,802.2969 Q2197.2344,803.0469 2197.2344,804.0781 L2197.2344,805.1719 Q2197.2344,806.4063 2198.125,807.2266 Q2199.0156,808.0469 2200.6094,808.0469 Q2201.5469,808.0469 2202.2031,807.7969 Q2202.5938,807.6406 2203.0156,807.2031 Q2203.2813,806.9375 2203.4297,806.8594 Q2203.5781,806.7813 2203.7813,806.7813 Q2204.1094,806.7813 2204.3672,807.0391 Q2204.625,807.2969 2204.625,807.6406 Q2204.625,807.9844 2204.2813,808.3906 Q2203.7813,808.9688 2202.9844,809.2969 Q2201.9063,809.75 2200.6094,809.75 Q2199.0938,809.75 2197.8906,809.125 Q2196.9063,808.625 2196.2188,807.5547 Q2195.5313,806.4844 2195.5313,805.2031 L2195.5313,804.0469 Q2195.5313,802.7188 2196.1484,801.5703 Q2196.7656,800.4219 2197.8594,799.8047 Q2198.9531,799.1875 2200.1875,799.1875 Q2200.9219,799.1875 2201.5703,799.3516 Q2202.2188,799.5156 2202.7656,799.875 Z " fill="#000000"/><text fill="#000000" font-family="sans-serif" font-size="12" lengthAdjust="spacing" textLength="85" x="2214" y="808.9102">SignedIntDltArg</text><line style="stroke:#A80036;stroke-width:1.5;" x1="2186" x2="2301" y1="820" y2="820"/><line style="stroke:#A80036;stroke-width:1.5;" x1="2186" x2="2301" y1="828" y2="828"/><!--MD5=[15300c896cacb1acf95f152b7691e7f6]
class UnsignedIntDltArg--><rect fill="#FEFECE" filter="url(#f1ijzb113pedwl)" height="48" id="UnsignedIntDltArg" style="stroke:#A80036;stroke-width:1.5;" width="132" x="1643.5" y="788"/><ellipse cx="1658.5" cy="804" fill="#ADD1B2" rx="11" ry="11" style="stroke:#A80036;stroke-width:1.0;"/><path d="M1661.2656,799.875 Q1661.4219,799.6563 1661.6094,799.5469 Q1661.7969,799.4375 1662.0156,799.4375 Q1662.3906,799.4375 1662.625,799.6953 Q1662.8594,799.9531 1662.8594,800.5625 L1662.8594,802.0156 Q1662.8594,802.625 1662.625,802.8906 Q1662.3906,803.1563 1662.0156,803.1563 Q1661.6719,803.1563 1661.4688,802.9531 Q1661.2656,802.7656 1661.1563,802.25 Q1661.1094,801.8906 1660.9219,801.7031 Q1660.5938,801.3281 1659.9844,801.1094 Q1659.375,800.8906 1658.75,800.8906 Q1657.9844,800.8906 1657.3516,801.2188 Q1656.7188,801.5469 1656.2266,802.2969 Q1655.7344,803.0469 1655.7344,804.0781 L1655.7344,805.1719 Q1655.7344,806.4063 1656.625,807.2266 Q1657.5156,808.0469 1659.1094,808.0469 Q1660.0469,808.0469 1660.7031,807.7969 Q1661.0938,807.6406 1661.5156,807.2031 Q1661.7813,806.9375 1661.9297,806.8594 Q1662.0781,806.7813 1662.2813,806.7813 Q1662.6094,806.7813 1662.8672,807.0391 Q1663.125,807.2969 1663.125,807.6406 Q1663.125,807.9844 1662.7813,808.3906 Q1662.2813,808.9688 1661.4844,809.2969 Q1660.4063,809.75 1659.1094,809.75 Q1657.5938,809.75 1656.3906,809.125 Q1655.4063,808.625 1654.7188,807.5547 Q1654.0313,806.4844 1654.0313,805.2031 L1654.0313,804.0469 Q1654.0313,802.7188 1654.6484,801.5703 Q1655.2656,800.4219 1656.3594,799.8047 Q1657.4531,799.1875 1658.6875,799.1875 Q1659.4219,799.1875 1660.0703,799.3516 Q1660.7188,799.5156 1661.2656,799.875 Z " fill="#000000"/><text fill="#000000" font-family="sans-serif" font-size="12" lengthAdjust="spacing" textLength="100" x="1672.5" y="808.9102">UnsignedIntDltArg</text><line style="stroke:#A80036;stroke-width:1.5;" x1="1644.5" x2="1774.5" y1="820" y2="820"/><line style="stroke:#A80036;stroke-width:1.5;" x1="1644.5" x2="1774.5" y1="828" y2="828"/><!--MD5=[9304c627579e6c09a83b65d2b6fe9ffa]
class BoolDltArg--><rect fill="#FEFECE" filter="url(#f1ijzb113pedwl)" height="48" id="BoolDltArg" style="stroke:#A80036;stroke-width:1.5;" width="90" x="1487.5" y="788"/><ellipse cx="1502.5" cy="804" fill="#ADD1B2" rx="11" ry="11" style="stroke:#A80036;stroke-width:1.0;"/><path d="M1505.2656,799.875 Q1505.4219,799.6563 1505.6094,799.5469 Q1505.7969,799.4375 1506.0156,799.4375 Q1506.3906,799.4375 1506.625,799.6953 Q1506.8594,799.9531 1506.8594,800.5625 L1506.8594,802.0156 Q1506.8594,802.625 1506.625,802.8906 Q1506.3906,803.1563 1506.0156,803.1563 Q1505.6719,803.1563 1505.4688,802.9531 Q1505.2656,802.7656 1505.1563,802.25 Q1505.1094,801.8906 1504.9219,801.7031 Q1504.5938,801.3281 1503.9844,801.1094 Q1503.375,800.8906 1502.75,800.8906 Q1501.9844,800.8906 1501.3516,801.2188 Q1500.7188,801.5469 1500.2266,802.2969 Q1499.7344,803.0469 1499.7344,804.0781 L1499.7344,805.1719 Q1499.7344,806.4063 1500.625,807.2266 Q1501.5156,808.0469 1503.1094,808.0469 Q1504.0469,808.0469 1504.7031,807.7969 Q1505.0938,807.6406 1505.5156,807.2031 Q1505.7813,806.9375 1505.9297,806.8594 Q1506.0781,806.7813 1506.2813,806.7813 Q1506.6094,806.7813 1506.8672,807.0391 Q1507.125,807.2969 1507.125,807.6406 Q1507.125,807.9844 1506.7813,808.3906 Q1506.2813,808.9688 1505.4844,809.2969 Q1504.4063,809.75 1503.1094,809.75 Q1501.5938,809.75 1500.3906,809.125 Q1499.4063,808.625 1498.7188,807.5547 Q1498.0313,806.4844 1498.0313,805.2031 L1498.0313,804.0469 Q1498.0313,802.7188 1498.6484,801.5703 Q1499.2656,800.4219 1500.3594,799.8047 Q1501.4531,799.1875 1502.6875,799.1875 Q1503.4219,799.1875 1504.0703,799.3516 Q1504.7188,799.5156 1505.2656,799.875 Z " fill="#000000"/><text fill="#000000" font-family="sans-serif" font-size="12" lengthAdjust="spacing" textLength="58" x="1516.5" y="808.9102">BoolDltArg</text><line style="stroke:#A80036;stroke-width:1.5;" x1="1488.5" x2="1576.5" y1="820" y2="820"/><line style="stroke:#A80036;stroke-width:1.5;" x1="1488.5" x2="1576.5" y1="828" y2="828"/><!--MD5=[bd995735bdc22093cef67c0a3dd15675]
class Float32DltArg--><rect fill="#FEFECE" filter="url(#f1ijzb113pedwl)" height="48" id="Float32DltArg" style="stroke:#A80036;stroke-width:1.5;" width="106" x="1002.5" y="788"/><ellipse cx="1017.5" cy="804" fill="#ADD1B2" rx="11" ry="11" style="stroke:#A80036;stroke-width:1.0;"/><path d="M1020.2656,799.875 Q1020.4219,799.6563 1020.6094,799.5469 Q1020.7969,799.4375 1021.0156,799.4375 Q1021.3906,799.4375 1021.625,799.6953 Q1021.8594,799.9531 1021.8594,800.5625 L1021.8594,802.0156 Q1021.8594,802.625 1021.625,802.8906 Q1021.3906,803.1563 1021.0156,803.1563 Q1020.6719,803.1563 1020.4688,802.9531 Q1020.2656,802.7656 1020.1563,802.25 Q1020.1094,801.8906 1019.9219,801.7031 Q1019.5938,801.3281 1018.9844,801.1094 Q1018.375,800.8906 1017.75,800.8906 Q1016.9844,800.8906 1016.3516,801.2188 Q1015.7188,801.5469 1015.2266,802.2969 Q1014.7344,803.0469 1014.7344,804.0781 L1014.7344,805.1719 Q1014.7344,806.4063 1015.625,807.2266 Q1016.5156,808.0469 1018.1094,808.0469 Q1019.0469,808.0469 1019.7031,807.7969 Q1020.0938,807.6406 1020.5156,807.2031 Q1020.7813,806.9375 1020.9297,806.8594 Q1021.0781,806.7813 1021.2813,806.7813 Q1021.6094,806.7813 1021.8672,807.0391 Q1022.125,807.2969 1022.125,807.6406 Q1022.125,807.9844 1021.7813,808.3906 Q1021.2813,808.9688 1020.4844,809.2969 Q1019.4063,809.75 1018.1094,809.75 Q1016.5938,809.75 1015.3906,809.125 Q1014.4063,808.625 1013.7188,807.5547 Q1013.0313,806.4844 1013.0313,805.2031 L1013.0313,804.0469 Q1013.0313,802.7188 1013.6484,801.5703 Q1014.2656,800.4219 1015.3594,799.8047 Q1016.4531,799.1875 1017.6875,799.1875 Q1018.4219,799.1875 1019.0703,799.3516 Q1019.7188,799.5156 1020.2656,799.875 Z " fill="#000000"/><text fill="#000000" font-family="sans-serif" font-size="12" lengthAdjust="spacing" textLength="74" x="1031.5" y="808.9102">Float32DltArg</text><line style="stroke:#A80036;stroke-width:1.5;" x1="1003.5" x2="1107.5" y1="820" y2="820"/><line style="stroke:#A80036;stroke-width:1.5;" x1="1003.5" x2="1107.5" y1="828" y2="828"/><!--MD5=[4f58334fec0bd3ff1f53f8383a615e86]
class Float64DltArg--><rect fill="#FEFECE" filter="url(#f1ijzb113pedwl)" height="48" id="Float64DltArg" style="stroke:#A80036;stroke-width:1.5;" width="106" x="1151.5" y="788"/><ellipse cx="1166.5" cy="804" fill="#ADD1B2" rx="11" ry="11" style="stroke:#A80036;stroke-width:1.0;"/><path d="M1169.2656,799.875 Q1169.4219,799.6563 1169.6094,799.5469 Q1169.7969,799.4375 1170.0156,799.4375 Q1170.3906,799.4375 1170.625,799.6953 Q1170.8594,799.9531 1170.8594,800.5625 L1170.8594,802.0156 Q1170.8594,802.625 1170.625,802.8906 Q1170.3906,803.1563 1170.0156,803.1563 Q1169.6719,803.1563 1169.4688,802.9531 Q1169.2656,802.7656 1169.1563,802.25 Q1169.1094,801.8906 1168.9219,801.7031 Q1168.5938,801.3281 1167.9844,801.1094 Q1167.375,800.8906 1166.75,800.8906 Q1165.9844,800.8906 1165.3516,801.2188 Q1164.7188,801.5469 1164.2266,802.2969 Q1163.7344,803.0469 1163.7344,804.0781 L1163.7344,805.1719 Q1163.7344,806.4063 1164.625,807.2266 Q1165.5156,808.0469 1167.1094,808.0469 Q1168.0469,808.0469 1168.7031,807.7969 Q1169.0938,807.6406 1169.5156,807.2031 Q1169.7813,806.9375 1169.9297,806.8594 Q1170.0781,806.7813 1170.2813,806.7813 Q1170.6094,806.7813 1170.8672,807.0391 Q1171.125,807.2969 1171.125,807.6406 Q1171.125,807.9844 1170.7813,808.3906 Q1170.2813,808.9688 1169.4844,809.2969 Q1168.4063,809.75 1167.1094,809.75 Q1165.5938,809.75 1164.3906,809.125 Q1163.4063,808.625 1162.7188,807.5547 Q1162.0313,806.4844 1162.0313,805.2031 L1162.0313,804.0469 Q1162.0313,802.7188 1162.6484,801.5703 Q1163.2656,800.4219 1164.3594,799.8047 Q1165.4531,799.1875 1166.6875,799.1875 Q1167.4219,799.1875 1168.0703,799.3516 Q1168.7188,799.5156 1169.2656,799.875 Z " fill="#000000"/><text fill="#000000" font-family="sans-serif" font-size="12" lengthAdjust="spacing" textLength="74" x="1180.5" y="808.9102">Float64DltArg</text><line style="stroke:#A80036;stroke-width:1.5;" x1="1152.5" x2="1256.5" y1="820" y2="820"/><line style="stroke:#A80036;stroke-width:1.5;" x1="1152.5" x2="1256.5" y1="828" y2="828"/><!--MD5=[9384f9af5873042c459e7cb65aa0b775]
class StringDltArg--><rect fill="#FEFECE" filter="url(#f1ijzb113pedwl)" height="48" id="StringDltArg" style="stroke:#A80036;stroke-width:1.5;" width="97" x="1324" y="788"/><ellipse cx="1339" cy="804" fill="#ADD1B2" rx="11" ry="11" style="stroke:#A80036;stroke-width:1.0;"/><path d="M1341.7656,799.875 Q1341.9219,799.6563 1342.1094,799.5469 Q1342.2969,799.4375 1342.5156,799.4375 Q1342.8906,799.4375 1343.125,799.6953 Q1343.3594,799.9531 1343.3594,800.5625 L1343.3594,802.0156 Q1343.3594,802.625 1343.125,802.8906 Q1342.8906,803.1563 1342.5156,803.1563 Q1342.1719,803.1563 1341.9688,802.9531 Q1341.7656,802.7656 1341.6563,802.25 Q1341.6094,801.8906 1341.4219,801.7031 Q1341.0938,801.3281 1340.4844,801.1094 Q1339.875,800.8906 1339.25,800.8906 Q1338.4844,800.8906 1337.8516,801.2188 Q1337.2188,801.5469 1336.7266,802.2969 Q1336.2344,803.0469 1336.2344,804.0781 L1336.2344,805.1719 Q1336.2344,806.4063 1337.125,807.2266 Q1338.0156,808.0469 1339.6094,808.0469 Q1340.5469,808.0469 1341.2031,807.7969 Q1341.5938,807.6406 1342.0156,807.2031 Q1342.2813,806.9375 1342.4297,806.8594 Q1342.5781,806.7813 1342.7813,806.7813 Q1343.1094,806.7813 1343.3672,807.0391 Q1343.625,807.2969 1343.625,807.6406 Q1343.625,807.9844 1343.2813,808.3906 Q1342.7813,808.9688 1341.9844,809.2969 Q1340.9063,809.75 1339.6094,809.75 Q1338.0938,809.75 1336.8906,809.125 Q1335.9063,808.625 1335.2188,807.5547 Q1334.5313,806.4844 1334.5313,805.2031 L1334.5313,804.0469 Q1334.5313,802.7188 1335.1484,801.5703 Q1335.7656,800.4219 1336.8594,799.8047 Q1337.9531,799.1875 1339.1875,799.1875 Q1339.9219,799.1875 1340.5703,799.3516 Q1341.2188,799.5156 1341.7656,799.875 Z " fill="#000000"/><text fill="#000000" font-family="sans-serif" font-size="12" lengthAdjust="spacing" textLength="65" x="1353" y="808.9102">StringDltArg</text><line style="stroke:#A80036;stroke-width:1.5;" x1="1325" x2="1420" y1="820" y2="820"/><line style="stroke:#A80036;stroke-width:1.5;" x1="1325" x2="1420" y1="828" y2="828"/><!--MD5=[751ce3d3b962032c2311a8f3a883c70d]
class RawDltArg--><rect fill="#FEFECE" filter="url(#f1ijzb113pedwl)" height="48" id="RawDltArg" style="stroke:#A80036;stroke-width:1.5;" width="90" x="675.5" y="788"/><ellipse cx="690.5" cy="804" fill="#ADD1B2" rx="11" ry="11" style="stroke:#A80036;stroke-width:1.0;"/><path d="M693.2656,799.875 Q693.4219,799.6563 693.6094,799.5469 Q693.7969,799.4375 694.0156,799.4375 Q694.3906,799.4375 694.625,799.6953 Q694.8594,799.9531 694.8594,800.5625 L694.8594,802.0156 Q694.8594,802.625 694.625,802.8906 Q694.3906,803.1563 694.0156,803.1563 Q693.6719,803.1563 693.4688,802.9531 Q693.2656,802.7656 693.1563,802.25 Q693.1094,801.8906 692.9219,801.7031 Q692.5938,801.3281 691.9844,801.1094 Q691.375,800.8906 690.75,800.8906 Q689.9844,800.8906 689.3516,801.2188 Q688.7188,801.5469 688.2266,802.2969 Q687.7344,803.0469 687.7344,804.0781 L687.7344,805.1719 Q687.7344,806.4063 688.625,807.2266 Q689.5156,808.0469 691.1094,808.0469 Q692.0469,808.0469 692.7031,807.7969 Q693.0938,807.6406 693.5156,807.2031 Q693.7813,806.9375 693.9297,806.8594 Q694.0781,806.7813 694.2813,806.7813 Q694.6094,806.7813 694.8672,807.0391 Q695.125,807.2969 695.125,807.6406 Q695.125,807.9844 694.7813,808.3906 Q694.2813,808.9688 693.4844,809.2969 Q692.4063,809.75 691.1094,809.75 Q689.5938,809.75 688.3906,809.125 Q687.4063,808.625 686.7188,807.5547 Q686.0313,806.4844 686.0313,805.2031 L686.0313,804.0469 Q686.0313,802.7188 686.6484,801.5703 Q687.2656,800.4219 688.3594,799.8047 Q689.4531,799.1875 690.6875,799.1875 Q691.4219,799.1875 692.0703,799.3516 Q692.7188,799.5156 693.2656,799.875 Z " fill="#000000"/><text fill="#000000" font-family="sans-serif" font-size="12" lengthAdjust="spacing" textLength="58" x="704.5" y="808.9102">RawDltArg</text><line style="stroke:#A80036;stroke-width:1.5;" x1="676.5" x2="764.5" y1="820" y2="820"/><line style="stroke:#A80036;stroke-width:1.5;" x1="676.5" x2="764.5" y1="828" y2="828"/><!--MD5=[c8aecec8061000234456f93801020997]
class NonVerboseDltArg--><rect fill="#FEFECE" filter="url(#f1ijzb113pedwl)" height="48" id="NonVerboseDltArg" style="stroke:#A80036;stroke-width:1.5;" width="134" x="833.5" y="788"/><ellipse cx="848.5" cy="804" fill="#ADD1B2" rx="11" ry="11" style="stroke:#A80036;stroke-width:1.0;"/><path d="M851.2656,799.875 Q851.4219,799.6563 851.6094,799.5469 Q851.7969,799.4375 852.0156,799.4375 Q852.3906,799.4375 852.625,799.6953 Q852.8594,799.9531 852.8594,800.5625 L852.8594,802.0156 Q852.8594,802.625 852.625,802.8906 Q852.3906,803.1563 852.0156,803.1563 Q851.6719,803.1563 851.4688,802.9531 Q851.2656,802.7656 851.1563,802.25 Q851.1094,801.8906 850.9219,801.7031 Q850.5938,801.3281 849.9844,801.1094 Q849.375,800.8906 848.75,800.8906 Q847.9844,800.8906 847.3516,801.2188 Q846.7188,801.5469 846.2266,802.2969 Q845.7344,803.0469 845.7344,804.0781 L845.7344,805.1719 Q845.7344,806.4063 846.625,807.2266 Q847.5156,808.0469 849.1094,808.0469 Q850.0469,808.0469 850.7031,807.7969 Q851.0938,807.6406 851.5156,807.2031 Q851.7813,806.9375 851.9297,806.8594 Q852.0781,806.7813 852.2813,806.7813 Q852.6094,806.7813 852.8672,807.0391 Q853.125,807.2969 853.125,807.6406 Q853.125,807.9844 852.7813,808.3906 Q852.2813,808.9688 851.4844,809.2969 Q850.4063,809.75 849.1094,809.75 Q847.5938,809.75 846.3906,809.125 Q845.4063,808.625 844.7188,807.5547 Q844.0313,806.4844 844.0313,805.2031 L844.0313,804.0469 Q844.0313,802.7188 844.6484,801.5703 Q845.2656,800.4219 846.3594,799.8047 Q847.4531,799.1875 848.6875,799.1875 Q849.4219,799.1875 850.0703,799.3516 Q850.7188,799.5156 851.2656,799.875 Z " fill="#000000"/><text fill="#000000" font-family="sans-serif" font-size="12" lengthAdjust="spacing" textLength="102" x="862.5" y="808.9102">NonVerboseDltArg</text><line style="stroke:#A80036;stroke-width:1.5;" x1="834.5" x2="966.5" y1="820" y2="820"/><line style="stroke:#A80036;stroke-width:1.5;" x1="834.5" x2="966.5" y1="828" y2="828"/><!--MD5=[5604cc107f2bd7e22425b88332a60917]
class UnknownVerboseDltArg--><rect fill="#FEFECE" filter="url(#f1ijzb113pedwl)" height="48" id="UnknownVerboseDltArg" style="stroke:#A80036;stroke-width:1.5;" width="163" x="453" y="788"/><ellipse cx="468" cy="804" fill="#ADD1B2" rx="11" ry="11" style="stroke:#A80036;stroke-width:1.0;"/><path d="M470.7656,799.875 Q470.9219,799.6563 471.1094,799.5469 Q471.2969,799.4375 471.5156,799.4375 Q471.8906,799.4375 472.125,799.6953 Q472.3594,799.9531 472.3594,800.5625 L472.3594,802.0156 Q472.3594,802.625 472.125,802.8906 Q471.8906,803.1563 471.5156,803.1563 Q471.1719,803.1563 470.9688,802.9531 Q470.7656,802.7656 470.6563,802.25 Q470.6094,801.8906 470.4219,801.7031 Q470.0938,801.3281 469.4844,801.1094 Q468.875,800.8906 468.25,800.8906 Q467.4844,800.8906 466.8516,801.2188 Q466.2188,801.5469 465.7266,802.2969 Q465.2344,803.0469 465.2344,804.0781 L465.2344,805.1719 Q465.2344,806.4063 466.125,807.2266 Q467.0156,808.0469 468.6094,808.0469 Q469.5469,808.0469 470.2031,807.7969 Q470.5938,807.6406 471.0156,807.2031 Q471.2813,806.9375 471.4297,806.8594 Q471.5781,806.7813 471.7813,806.7813 Q472.1094,806.7813 472.3672,807.0391 Q472.625,807.2969 472.625,807.6406 Q472.625,807.9844 472.2813,808.3906 Q471.7813,808.9688 470.9844,809.2969 Q469.9063,809.75 468.6094,809.75 Q467.0938,809.75 465.8906,809.125 Q464.9063,808.625 464.2188,807.5547 Q463.5313,806.4844 463.5313,805.2031 L463.5313,804.0469 Q463.5313,802.7188 464.1484,801.5703 Q464.7656,800.4219 465.8594,799.8047 Q466.9531,799.1875 468.1875,799.1875 Q468.9219,799.1875 469.5703,799.3516 Q470.2188,799.5156 470.7656,799.875 Z " fill="#000000"/><text fill="#000000" font-family="sans-serif" font-size="12" lengthAdjust="spacing" textLength="131" x="482" y="808.9102">UnknownVerboseDltArg</text><line style="stroke:#A80036;stroke-width:1.5;" x1="454" x2="615" y1="820" y2="820"/><line style="stroke:#A80036;stroke-width:1.5;" x1="454" x2="615" y1="828" y2="828"/><!--MD5=[c22323dd1c4151d1a00f36187bcb54c9]
reverse link IDisposable to ITraceEncoder--><path codeLine="6" d="M567.5,75.42 C567.5,88.82 567.5,103.28 567.5,115.61 " fill="none" id="IDisposable-backto-ITraceEncoder" style="stroke:#A80036;stroke-width:1.0;stroke-dasharray:7.0,7.0;"/><polygon fill="none" points="560.5,75.07,567.5,55.07,574.5,75.07,560.5,75.07" style="stroke:#A80036;stroke-width:1.0;"/><!--MD5=[743f4453b45b18e879bfa4d4b4711942]
reverse link ITraceEncoderFactory to DltTraceEncoderFactory--><path codeLine="15" d="M156.5,198.41 C156.5,217.66 156.5,238.99 156.5,255.79 " fill="none" id="ITraceEncoderFactory-backto-DltTraceEncoderFactory" style="stroke:#A80036;stroke-width:1.0;stroke-dasharray:7.0,7.0;"/><polygon fill="none" points="149.5,198.28,156.5,178.28,163.5,198.28,149.5,198.28" style="stroke:#A80036;stroke-width:1.0;"/><text fill="#000000" font-family="sans-serif" font-size="13" lengthAdjust="spacing" textLength="153" x="157.5" y="222.4951">TLine -&gt; DltTraceLineBase</text><!--MD5=[f059986529b2b4c81376e873afa2327e]
reverse link ITraceEncoder to DltTraceEncoder--><path codeLine="20" d="M567.5,198.41 C567.5,217.66 567.5,238.99 567.5,255.79 " fill="none" id="ITraceEncoder-backto-DltTraceEncoder" style="stroke:#A80036;stroke-width:1.0;stroke-dasharray:7.0,7.0;"/><polygon fill="none" points="560.5,198.28,567.5,178.28,574.5,198.28,560.5,198.28" style="stroke:#A80036;stroke-width:1.0;"/><text fill="#000000" font-family="sans-serif" font-size="13" lengthAdjust="spacing" textLength="153" x="568.5" y="222.4951">TLine -&gt; DltTraceLineBase</text><!--MD5=[5520f4b9bfd96b2e3a03ee9f851472ca]
link DltTraceEncoderFactory to DltTraceEncoder--><path codeLine="21" d="M306.04,287 C334.68,287 364.89,287 394.21,287 " fill="none" id="DltTraceEncoderFactory-to-DltTraceEncoder" style="stroke:#A80036;stroke-width:1.0;"/><polygon fill="#A80036" points="399.28,287,390.28,283,394.28,287,390.28,291,399.28,287" style="stroke:#A80036;stroke-width:1.0;"/><text fill="#000000" font-family="sans-serif" font-size="13" lengthAdjust="spacing" textLength="57" x="324.25" y="280.4951">creates</text><!--MD5=[65d3f88fcc55ae65339fe5f668783dc8]
reverse link IDltEncoder to VerboseDltEncoder--><path codeLine="30" d="M567.5,461.41 C567.5,480.66 567.5,501.99 567.5,518.79 " fill="none" id="IDltEncoder-backto-VerboseDltEncoder" style="stroke:#A80036;stroke-width:1.0;stroke-dasharray:7.0,7.0;"/><polygon fill="none" points="560.5,461.28,567.5,441.28,574.5,461.28,560.5,461.28" style="stroke:#A80036;stroke-width:1.0;"/><text fill="#000000" font-family="sans-serif" font-size="13" lengthAdjust="spacing" textLength="123" x="568.5" y="485.4951">TLine -&gt; DltTraceLine</text><!--MD5=[c10ba2a4c2206f86f093c5724762e2d9]
reverse link IArgEncoder to DltArgEncoder--><path codeLine="39" d="M1345.44,456.21 C1364.48,476.74 1386.48,500.46 1403.48,518.79 " fill="none" id="IArgEncoder-backto-DltArgEncoder" style="stroke:#A80036;stroke-width:1.0;stroke-dasharray:7.0,7.0;"/><polygon fill="none" points="1340.06,460.71,1331.59,441.28,1350.32,451.19,1340.06,460.71" style="stroke:#A80036;stroke-width:1.0;"/><!--MD5=[ae2cd070edd2cab09bb115bb88e0196a]
reverse link VerboseDltEncoder to DltArgEncoder--><path codeLine="40" d="M736.5,550 C900.61,550 1064.72,550 1228.82,550 " fill="none" id="VerboseDltEncoder-backto-DltArgEncoder" style="stroke:#A80036;stroke-width:1.0;"/><polygon fill="#A80036" points="723.17,550,729.17,554,735.17,550,729.17,546,723.17,550" style="stroke:#A80036;stroke-width:1.0;"/><!--MD5=[ba8209c47a24740eb77ae852ac41f942]
reverse link IArgEncoder to BinaryIntArgEncoder--><path codeLine="57" d="M1526.15,430.69 C1571.54,439.59 1618.05,452.44 1659.5,471 C1753.06,512.88 1839.82,601.78 1877.61,643.92 " fill="none" id="IArgEncoder-backto-BinaryIntArgEncoder" style="stroke:#A80036;stroke-width:1.0;stroke-dasharray:7.0,7.0;"/><polygon fill="none" points="1524.84,437.56,1506.45,427.05,1527.39,423.8,1524.84,437.56" style="stroke:#A80036;stroke-width:1.0;"/><!--MD5=[5aed64833bc03253cb953b13dfeec736]
reverse link IArgEncoder to HexIntArgEncoder--><path codeLine="58" d="M1526.03,433.07 C1583.89,441.92 1645.65,454.16 1701.5,471 C1749.85,485.58 1759.14,496.79 1804.5,519 C1884.83,558.34 1906.14,566.09 1983.5,611 C2001.07,621.2 2020.04,633.42 2035.69,643.84 " fill="none" id="IArgEncoder-backto-HexIntArgEncoder" style="stroke:#A80036;stroke-width:1.0;stroke-dasharray:7.0,7.0;"/><polygon fill="none" points="1524.92,439.99,1506.16,430.14,1526.97,426.14,1524.92,439.99" style="stroke:#A80036;stroke-width:1.0;"/><!--MD5=[b159b959a3b3231b4941514ba210291c]
reverse link IArgEncoder to SignedIntArgEncoder--><path codeLine="59" d="M1526.21,432.33 C1598.31,441.51 1678.28,454.11 1750.5,471 C1822.43,487.82 2130.36,605.44 2142.5,611 C2163.65,620.68 2186.37,633.09 2204.89,643.76 " fill="none" id="IArgEncoder-backto-SignedIntArgEncoder" style="stroke:#A80036;stroke-width:1.0;stroke-dasharray:7.0,7.0;"/><polygon fill="none" points="1525.08,439.24,1506.1,429.83,1526.81,425.35,1525.08,439.24" style="stroke:#A80036;stroke-width:1.0;"/><!--MD5=[e0ad61f3839ecee07e81b6026d41820b]
reverse link IArgEncoder to UnsignedIntArgEncoder--><path codeLine="60" d="M1525.77,441.87 C1556.21,449.54 1586.56,459.1 1614.5,471 C1648.54,485.5 1662.59,487.82 1682.5,519 C1707.17,557.63 1710.7,612.85 1710.49,643.76 " fill="none" id="IArgEncoder-backto-UnsignedIntArgEncoder" style="stroke:#A80036;stroke-width:1.0;stroke-dasharray:7.0,7.0;"/><polygon fill="none" points="1524.14,448.68,1506.32,437.22,1527.4,435.06,1524.14,448.68" style="stroke:#A80036;stroke-width:1.0;"/><!--MD5=[be5df2e6cf675927e88dc03fea03e238]
reverse link IArgEncoder to BoolArgEncoder--><path codeLine="61" d="M1481.7,445.9 C1555.8,464.36 1629.67,489.37 1651.5,519 C1667.84,541.19 1664.04,556.46 1651.5,581 C1642.77,598.08 1603.18,624.8 1572.03,643.92 " fill="none" id="IArgEncoder-backto-BoolArgEncoder" style="stroke:#A80036;stroke-width:1.0;stroke-dasharray:7.0,7.0;"/><polygon fill="none" points="1479.66,452.61,1461.86,441.11,1482.95,439,1479.66,452.61" style="stroke:#A80036;stroke-width:1.0;"/><!--MD5=[6e9e10a4ecdb160f909aeea27bc53efa]
reverse link IArgEncoder to Float32ArgEncoder--><path codeLine="62" d="M1222.82,451.4 C1213.25,457.45 1203.91,464.03 1195.5,471 C1131.61,523.95 1073.87,604.48 1047.54,643.78 " fill="none" id="IArgEncoder-backto-Float32ArgEncoder" style="stroke:#A80036;stroke-width:1.0;stroke-dasharray:7.0,7.0;"/><polygon fill="none" points="1219.37,445.31,1240.13,441.08,1226.53,457.33,1219.37,445.31" style="stroke:#A80036;stroke-width:1.0;"/><!--MD5=[69c8e910a7d48f264de2bb7b867a146c]
reverse link IArgEncoder to Float64ArgEncoder--><path codeLine="63" d="M1235.42,453.48 C1228.97,458.95 1222.85,464.81 1217.5,471 C1201.91,489.05 1198.98,495.79 1193.5,519 C1183.29,562.26 1191.83,614.42 1198.49,643.84 " fill="none" id="IArgEncoder-backto-Float64ArgEncoder" style="stroke:#A80036;stroke-width:1.0;stroke-dasharray:7.0,7.0;"/><polygon fill="none" points="1231.29,447.83,1251.4,441.14,1239.85,458.91,1231.29,447.83" style="stroke:#A80036;stroke-width:1.0;"/><!--MD5=[420101715a094d5329c3e5e0da1a4c77]
reverse link IArgEncoder to RawArgEncoder--><path codeLine="64" d="M1211.81,449.3 C1196.53,456.21 1180.95,463.59 1166.5,471 C1063.19,523.98 951.35,604.5 898.9,643.79 " fill="none" id="IArgEncoder-backto-RawArgEncoder" style="stroke:#A80036;stroke-width:1.0;stroke-dasharray:7.0,7.0;"/><polygon fill="none" points="1209.08,442.85,1230.2,441.13,1214.77,455.65,1209.08,442.85" style="stroke:#A80036;stroke-width:1.0;"/><!--MD5=[7a25e60677257f397e352321cda11e14]
reverse link IArgEncoder to StringArgEncoder--><path codeLine="65" d="M1252.51,455.48 C1219.05,490.25 1185.83,539.47 1211.5,581 C1231.88,613.97 1255.29,601.78 1289.5,620 C1303.68,627.55 1319.03,636.13 1332.63,643.87 " fill="none" id="IArgEncoder-backto-StringArgEncoder" style="stroke:#A80036;stroke-width:1.0;stroke-dasharray:7.0,7.0;"/><polygon fill="none" points="1248.01,450.08,1267.19,441.07,1257.82,460.07,1248.01,450.08" style="stroke:#A80036;stroke-width:1.0;"/><!--MD5=[1660fd670621efaea9754d500fa7eed1]
reverse link IArgEncoder to NonVerboseArgEncoder--><path codeLine="66" d="M1179.69,447.09 C1118.56,466.21 1044.23,491.42 979.5,519 C897.75,553.83 881.72,571.74 802.5,612 C781.55,622.65 758.24,634.15 738.33,643.87 " fill="none" id="IArgEncoder-backto-NonVerboseArgEncoder" style="stroke:#A80036;stroke-width:1.0;stroke-dasharray:7.0,7.0;"/><polygon fill="none" points="1177.86,440.33,1199.04,441.1,1182,453.7,1177.86,440.33" style="stroke:#A80036;stroke-width:1.0;"/><!--MD5=[e4349916ad7f106c9c8b4f3bd069f5ee]
reverse link IArgEncoder to UnknownVerboseArgEncoder--><path codeLine="67" d="M1154.98,445.71 C1120.04,453.94 1082.95,462.73 1048.5,471 C961.29,491.94 936.02,486.33 852.5,519 C799.51,539.73 793.34,559.9 740.5,581 C676.53,606.55 655.86,598.25 590.5,620 C569.63,626.94 547.13,635.82 527.62,643.98 " fill="none" id="IArgEncoder-backto-UnknownVerboseArgEncoder" style="stroke:#A80036;stroke-width:1.0;stroke-dasharray:7.0,7.0;"/><polygon fill="none" points="1153.63,438.83,1174.7,441.07,1156.84,452.46,1153.63,438.83" style="stroke:#A80036;stroke-width:1.0;"/><!--MD5=[098c45412a9c1d03d1bc81c351972dcf]
reverse link DltArgEncoder to BinaryIntArgEncoder--><path codeLine="69" d="M1647.29,578.83 C1700.8,588.9 1757.42,602.31 1808.5,620 C1826.17,626.12 1844.61,635.33 1860.1,643.99 " fill="none" id="DltArgEncoder-backto-BinaryIntArgEncoder" style="stroke:#A80036;stroke-width:1.0;"/><polygon fill="#A80036" points="1634.49,576.47,1639.6654,581.4915,1646.2911,578.6456,1641.1158,573.6241,1634.49,576.47" style="stroke:#A80036;stroke-width:1.0;"/><!--MD5=[be1650883a861717cfbca76afeff7504]
reverse link DltArgEncoder to HexIntArgEncoder--><path codeLine="70" d="M1647.06,558.2 C1751.66,566.59 1877.88,584.07 1986.5,620 C2003.64,625.67 2021.23,635.03 2035.78,643.91 " fill="none" id="DltArgEncoder-backto-HexIntArgEncoder" style="stroke:#A80036;stroke-width:1.0;"/><polygon fill="#A80036" points="1634.09,557.2,1639.7648,561.6494,1646.0545,558.1224,1640.3797,553.673,1634.09,557.2" style="stroke:#A80036;stroke-width:1.0;"/><!--MD5=[c7d2bb61df93976d8ca7d1782a810c98]
reverse link DltArgEncoder to SignedIntArgEncoder--><path codeLine="71" d="M1647.44,562.62 C1824.75,573.84 2061,593.08 2152.5,620 C2171.26,625.52 2190.7,634.97 2206.78,643.96 " fill="none" id="DltArgEncoder-backto-SignedIntArgEncoder" style="stroke:#A80036;stroke-width:1.0;"/><polygon fill="#A80036" points="1634.24,561.8,1639.9776,566.1681,1646.2164,562.5518,1640.4788,558.1838,1634.24,561.8" style="stroke:#A80036;stroke-width:1.0;"/><!--MD5=[e27aa9fe50fa026be79814fed7f0b268]
reverse link DltArgEncoder to UnsignedIntArgEncoder--><path codeLine="72" d="M1525.97,585.89 C1553.41,596.43 1583.3,608.32 1610.5,620 C1627.63,627.36 1646.16,635.97 1662.5,643.8 " fill="none" id="DltArgEncoder-backto-UnsignedIntArgEncoder" style="stroke:#A80036;stroke-width:1.0;"/><polygon fill="#A80036" points="1513.56,581.15,1517.7358,587.029,1524.7686,585.4356,1520.5929,579.5566,1513.56,581.15" style="stroke:#A80036;stroke-width:1.0;"/><!--MD5=[9c5c391c20cf0528fda8190fba60fc98]
reverse link DltArgEncoder to BoolArgEncoder--><path codeLine="73" d="M1466.51,591.22 C1481.86,608.84 1499.32,628.89 1512.42,643.94 " fill="none" id="DltArgEncoder-backto-BoolArgEncoder" style="stroke:#A80036;stroke-width:1.0;"/><polygon fill="#A80036" points="1457.77,581.17,1458.6974,588.3212,1465.6552,590.2156,1464.7278,583.0644,1457.77,581.17" style="stroke:#A80036;stroke-width:1.0;"/><!--MD5=[93530887ecf35726129a1c3ed19aad4d]
reverse link DltArgEncoder to Float32ArgEncoder--><path codeLine="74" d="M1241.2,583.92 C1200.1,593.52 1157.34,605.44 1118.5,620 C1101.77,626.27 1084.3,635.3 1069.5,643.78 " fill="none" id="DltArgEncoder-backto-Float32ArgEncoder" style="stroke:#A80036;stroke-width:1.0;"/><polygon fill="#A80036" points="1253.89,581.01,1247.1488,578.4494,1242.1924,583.6871,1248.9336,586.2477,1253.89,581.01" style="stroke:#A80036;stroke-width:1.0;"/><!--MD5=[c4239a2ca3e629a5fba9213ae5f5a008]
reverse link DltArgEncoder to Float64ArgEncoder--><path codeLine="75" d="M1357.26,586.95 C1335.95,597.44 1312.73,609.04 1291.5,620 C1276.7,627.64 1260.63,636.24 1246.37,643.97 " fill="none" id="DltArgEncoder-backto-Float64ArgEncoder" style="stroke:#A80036;stroke-width:1.0;"/><polygon fill="#A80036" points="1369.22,581.07,1362.0714,580.1229,1358.4476,586.3573,1365.5962,587.3044,1369.22,581.07" style="stroke:#A80036;stroke-width:1.0;"/><!--MD5=[d2bd62cb63a46eeaffa8402f0a0a622e]
reverse link DltArgEncoder to RawArgEncoder--><path codeLine="76" d="M1215.82,563.4 C1130.45,573 1032.58,589.99 947.5,620 C931.25,625.73 914.65,634.99 900.88,643.79 " fill="none" id="DltArgEncoder-backto-RawArgEncoder" style="stroke:#A80036;stroke-width:1.0;"/><polygon fill="#A80036" points="1228.86,561.98,1222.4642,558.6492,1216.9297,563.2719,1223.3255,566.6027,1228.86,561.98" style="stroke:#A80036;stroke-width:1.0;"/><!--MD5=[59b2260dbc3e2eb8b73192ed5cc8896d]
reverse link DltArgEncoder to StringArgEncoder--><path codeLine="77" d="M1410.04,593.2 C1401.32,610.33 1391.6,629.45 1384.23,643.94 " fill="none" id="DltArgEncoder-backto-StringArgEncoder" style="stroke:#A80036;stroke-width:1.0;"/><polygon fill="#A80036" points="1416.15,581.17,1409.8663,584.7076,1410.7149,591.8686,1416.9987,588.331,1416.15,581.17" style="stroke:#A80036;stroke-width:1.0;"/><!--MD5=[968ebb00f3e7a5a62315db99a97420df]
reverse link DltArgEncoder to NonVerboseArgEncoder--><path codeLine="78" d="M1215.96,575.64 C1113.47,587.13 989.21,600.71 877.5,612 C838.87,615.9 827.97,609.81 790.5,620 C770.14,625.54 748.81,634.99 731.11,643.98 " fill="none" id="DltArgEncoder-backto-NonVerboseArgEncoder" style="stroke:#A80036;stroke-width:1.0;"/><polygon fill="#A80036" points="1228.98,574.18,1222.573,570.8709,1217.0542,575.5124,1223.4612,578.8215,1228.98,574.18" style="stroke:#A80036;stroke-width:1.0;"/><!--MD5=[c03aa9d5f87cf6cdb828b0de8b5ec905]
reverse link DltArgEncoder to UnknownVerboseArgEncoder--><path codeLine="79" d="M1215.43,574.79 C1092.47,587.55 935.52,602.56 795.5,612 C750.01,615.07 635.06,610.34 590.5,620 C566.89,625.12 541.93,634.75 521.32,643.97 " fill="none" id="DltArgEncoder-backto-UnknownVerboseArgEncoder" style="stroke:#A80036;stroke-width:1.0;"/><polygon fill="#A80036" points="1228.73,573.4,1222.3489,570.0413,1216.7942,574.6397,1223.1754,577.9985,1228.73,573.4" style="stroke:#A80036;stroke-width:1.0;"/><!--MD5=[bbf974fc5bfcceb4b72382435f28bfa0]
reverse link DltTraceEncoder to IDltEncoder--><path codeLine="81" d="M567.5,331.45 C567.5,347.12 567.5,364.45 567.5,378.74 " fill="none" id="DltTraceEncoder-backto-IDltEncoder" style="stroke:#A80036;stroke-width:1.0;"/><polygon fill="#A80036" points="567.5,318.22,563.5,324.22,567.5,330.22,571.5,324.22,567.5,318.22" style="stroke:#A80036;stroke-width:1.0;"/><!--MD5=[43257a1e25a63e64490f186f2d5177f1]
link BinaryIntArgEncoder to BinaryIntDltArg--><path codeLine="83" d="M1897.5,692.13 C1897.5,716.89 1897.5,756.17 1897.5,782.74 " fill="none" id="BinaryIntArgEncoder-to-BinaryIntDltArg" style="stroke:#A80036;stroke-width:1.0;"/><polygon fill="#A80036" points="1897.5,787.88,1901.5,778.88,1897.5,782.88,1893.5,778.88,1897.5,787.88" style="stroke:#A80036;stroke-width:1.0;"/><text fill="#000000" font-family="sans-serif" font-size="13" lengthAdjust="spacing" textLength="63" x="1898.5" y="746.4951">encodes</text><!--MD5=[721f28771af9c2ebadd1c79524ff9ef7]
link HexIntArgEncoder to HexIntDltArg--><path codeLine="84" d="M2069.5,692.13 C2069.5,716.89 2069.5,756.17 2069.5,782.74 " fill="none" id="HexIntArgEncoder-to-HexIntDltArg" style="stroke:#A80036;stroke-width:1.0;"/><polygon fill="#A80036" points="2069.5,787.88,2073.5,778.88,2069.5,782.88,2065.5,778.88,2069.5,787.88" style="stroke:#A80036;stroke-width:1.0;"/><text fill="#000000" font-family="sans-serif" font-size="13" lengthAdjust="spacing" textLength="63" x="2070.5" y="746.4951">encodes</text><!--MD5=[7fb6b0d9cc9b3285c2dd8a0cd0900751]
link SignedIntArgEncoder to SignedIntDltArg--><path codeLine="85" d="M2243.5,692.13 C2243.5,716.89 2243.5,756.17 2243.5,782.74 " fill="none" id="SignedIntArgEncoder-to-SignedIntDltArg" style="stroke:#A80036;stroke-width:1.0;"/><polygon fill="#A80036" points="2243.5,787.88,2247.5,778.88,2243.5,782.88,2239.5,778.88,2243.5,787.88" style="stroke:#A80036;stroke-width:1.0;"/><text fill="#000000" font-family="sans-serif" font-size="13" lengthAdjust="spacing" textLength="63" x="2244.5" y="746.4951">encodes</text><!--MD5=[4f4a3b0d5c8508ec5cbab0a116584dfc]
link UnsignedIntArgEncoder to UnsignedIntDltArg--><path codeLine="86" d="M1709.5,692.13 C1709.5,716.89 1709.5,756.17 1709.5,782.74 " fill="none" id="UnsignedIntArgEncoder-to-UnsignedIntDltArg" style="stroke:#A80036;stroke-width:1.0;"/><polygon fill="#A80036" points="1709.5,787.88,1713.5,778.88,1709.5,782.88,1705.5,778.88,1709.5,787.88" style="stroke:#A80036;stroke-width:1.0;"/><text fill="#000000" font-family="sans-serif" font-size="13" lengthAdjust="spacing" textLength="63" x="1710.5" y="746.4951">encodes</text><!--MD5=[7e9a0a83af909b0720f00a075c2f32e2]
link BoolArgEncoder to BoolDltArg--><path codeLine="87" d="M1532.5,692.13 C1532.5,716.89 1532.5,756.17 1532.5,782.74 " fill="none" id="BoolArgEncoder-to-BoolDltArg" style="stroke:#A80036;stroke-width:1.0;"/><polygon fill="#A80036" points="1532.5,787.88,1536.5,778.88,1532.5,782.88,1528.5,778.88,1532.5,787.88" style="stroke:#A80036;stroke-width:1.0;"/><text fill="#000000" font-family="sans-serif" font-size="13" lengthAdjust="spacing" textLength="63" x="1533.5" y="746.4951">encodes</text><!--MD5=[2d74c3d6efd32684781399015a291b59]
link Float32ArgEncoder to Float32DltArg--><path codeLine="88" d="M1036.25,692.13 C1040.26,716.89 1046.62,756.17 1050.92,782.74 " fill="none" id="Float32ArgEncoder-to-Float32DltArg" style="stroke:#A80036;stroke-width:1.0;"/><polygon fill="#A80036" points="1051.76,787.88,1054.2663,778.3554,1050.9589,782.9446,1046.3697,779.6372,1051.76,787.88" style="stroke:#A80036;stroke-width:1.0;"/><text fill="#000000" font-family="sans-serif" font-size="13" lengthAdjust="spacing" textLength="63" x="1047.5" y="746.4951">encodes</text><!--MD5=[3663330a6e4b4a4690bab89813248697]
link Float64ArgEncoder to Float64DltArg--><path codeLine="89" d="M1204.5,692.13 C1204.5,716.89 1204.5,756.17 1204.5,782.74 " fill="none" id="Float64ArgEncoder-to-Float64DltArg" style="stroke:#A80036;stroke-width:1.0;"/><polygon fill="#A80036" points="1204.5,787.88,1208.5,778.88,1204.5,782.88,1200.5,778.88,1204.5,787.88" style="stroke:#A80036;stroke-width:1.0;"/><text fill="#000000" font-family="sans-serif" font-size="13" lengthAdjust="spacing" textLength="63" x="1205.5" y="746.4951">encodes</text><!--MD5=[358a230eacceb6582849cccffb7705da]
link StringArgEncoder to StringDltArg--><path codeLine="90" d="M1372.5,692.13 C1372.5,716.89 1372.5,756.17 1372.5,782.74 " fill="none" id="StringArgEncoder-to-StringDltArg" style="stroke:#A80036;stroke-width:1.0;"/><polygon fill="#A80036" points="1372.5,787.88,1376.5,778.88,1372.5,782.88,1368.5,778.88,1372.5,787.88" style="stroke:#A80036;stroke-width:1.0;"/><text fill="#000000" font-family="sans-serif" font-size="13" lengthAdjust="spacing" textLength="63" x="1373.5" y="746.4951">encodes</text><!--MD5=[2034f1e70fbab9c14e61f7b7ebc1293f]
link RawArgEncoder to RawDltArg--><path codeLine="91" d="M832.63,692.16 C819.43,701.38 804.74,712.53 792.5,724 C773.11,742.17 754.08,765.48 740.45,783.4 " fill="none" id="RawArgEncoder-to-RawDltArg" style="stroke:#A80036;stroke-width:1.0;"/><polygon fill="#A80036" points="737.11,787.83,745.7291,783.0645,740.126,783.842,739.3484,778.2389,737.11,787.83" style="stroke:#A80036;stroke-width:1.0;"/><text fill="#000000" font-family="sans-serif" font-size="13" lengthAdjust="spacing" textLength="63" x="793.5" y="746.4951">encodes</text><!--MD5=[2af069c3c1368b6bfcf4cc181dea35a7]
link NonVerboseArgEncoder to RawDltArg--><path codeLine="92" d="M684.92,692.19 C681.54,710.46 679,736.36 685.5,758 C688.2,767 692.99,775.88 698.16,783.72 " fill="none" id="NonVerboseArgEncoder-to-RawDltArg" style="stroke:#A80036;stroke-width:1.0;"/><polygon fill="#A80036" points="701.07,787.97,699.3059,778.2804,698.2538,783.8386,692.6956,782.7864,701.07,787.97" style="stroke:#A80036;stroke-width:1.0;"/><text fill="#000000" font-family="sans-serif" font-size="13" lengthAdjust="spacing" textLength="65" x="686.5" y="738.4951">&lt;&lt;encodes</text><text fill="#000000" font-family="sans-serif" font-size="13" lengthAdjust="spacing" textLength="60" x="689" y="754.8467">verbose&gt;&gt;</text><!--MD5=[9a887051fa88c2a06a6e48a255772f5b]
link NonVerboseArgEncoder to NonVerboseDltArg--><path codeLine="93" d="M731.65,692.06 C749.27,700.94 770.38,710.31 790.5,716 C805.78,720.32 848.68,714.64 861.5,724 C880.48,737.86 890.4,763.1 895.48,782.84 " fill="none" id="NonVerboseArgEncoder-to-NonVerboseDltArg" style="stroke:#A80036;stroke-width:1.0;"/><polygon fill="#A80036" points="896.66,787.73,898.4115,778.0381,895.4742,782.8726,890.6397,779.9354,896.66,787.73" style="stroke:#A80036;stroke-width:1.0;"/><text fill="#000000" font-family="sans-serif" font-size="13" lengthAdjust="spacing" textLength="65" x="895.5" y="738.4951">&lt;&lt;encodes</text><text fill="#000000" font-family="sans-serif" font-size="13" lengthAdjust="spacing" textLength="81" x="887.5" y="754.8467">nonverbose&gt;&gt;</text><!--MD5=[81ab0216c3dbf594c6a73c9136589686]
link NonVerboseArgEncoder to UnknownVerboseDltArg--><path codeLine="94" d="M651.34,692.13 C637.22,701.27 621.55,712.36 608.5,724 C588.28,742.04 568.56,765.61 554.57,783.67 " fill="none" id="NonVerboseArgEncoder-to-UnknownVerboseDltArg" style="stroke:#A80036;stroke-width:1.0;"/><polygon fill="#A80036" points="551.49,787.67,560.1389,782.9587,554.531,783.701,553.7886,778.0931,551.49,787.67" style="stroke:#A80036;stroke-width:1.0;"/><text fill="#000000" font-family="sans-serif" font-size="13" lengthAdjust="spacing" textLength="63" x="609.5" y="746.4951">encodes</text><!--MD5=[a6c4398af25b435b5b8850da81df18a6]
link UnknownVerboseArgEncoder to UnknownVerboseDltArg--><path codeLine="95" d="M470.1,692.02 C466.9,710.66 465.1,737.15 474.5,758 C479.02,768.02 486.47,776.9 494.61,784.4 " fill="none" id="UnknownVerboseArgEncoder-to-UnknownVerboseDltArg" style="stroke:#A80036;stroke-width:1.0;"/><polygon fill="#A80036" points="498.65,787.97,494.5638,779.0088,494.9067,784.6553,489.2602,784.9982,498.65,787.97" style="stroke:#A80036;stroke-width:1.0;"/><text fill="#000000" font-family="sans-serif" font-size="13" lengthAdjust="spacing" textLength="63" x="475.5" y="746.4951">encodes</text><!--MD5=[580529990c3ae9e81a54b0963a2713f8]
@startuml DLT.WriterEncoder
interface IDisposable

interface ITraceEncoder<TLine:ITraceLine> {
    +Encode(buffer: Span<byte>, line: TLine): Result<int>
}
IDisposable <|.d. ITraceEncoder

interface ITraceEncoderFactory<TLine:ITraceLine> {
    +Create(): ITraceEncoder<TLine>
}

class DltTraceEncoderFactory<TLine:DltTraceLineBase> {
    +Create() : ITraceEncoder<DltTraceLineBase>
}
ITraceEncoderFactory <|.d. DltTraceEncoderFactory : TLine -> DltTraceLineBase

class DltTraceEncoder<TLine:DltTraceLineBase> {
    +Encode(buffer: Span<byte>, line: DltTraceLineBase): Result<int>
}
ITraceEncoder <|.d. DltTraceEncoder : TLine -> DltTraceLineBase
DltTraceEncoderFactory -r-> DltTraceEncoder : <<creates>>

interface IDltEncoder<TLine:DltTraceLineBase> {
   +Encode(buffer: Span<byte>, line: TLine): Result<int>
}

class VerboseDltEncoder<TLine:DltTraceLine> {
    +Encode(buffer: Span<byte>, line: DltTraceLine): Result<int>
}
IDltEncoder <|.d. VerboseDltEncoder : TLine -> DltTraceLine

interface IArgEncoder {
    +Encode(buffer: Span<byte>, bool verbose, bool msbf, arg: IDltArg): Result<int>
}

class DltArgEncoder {
    +Encode(buffer: Span<byte>, bool verbose, bool msbf, arg: IDltArg): Result<int>
}
IArgEncoder <|.d. DltArgEncoder
VerboseDltEncoder *-r- DltArgEncoder

class BoolArgEncoder
together {
    class BinaryIntArgEncoder
    class HexIntArgEncoder
    class SignedIntArgEncoder
    class UnsignedIntArgEncoder
}
together {
    class Float32ArgEncoder
    class Float64ArgEncoder
}
class StringArgEncoder
class RawArgEncoder
class NonVerboseArgEncoder
class UnknownVerboseArgEncoder
IArgEncoder <|..d. BinaryIntArgEncoder
IArgEncoder <|..d. HexIntArgEncoder
IArgEncoder <|..d. SignedIntArgEncoder
IArgEncoder <|..d. UnsignedIntArgEncoder
IArgEncoder <|..d. BoolArgEncoder
IArgEncoder <|..d. Float32ArgEncoder
IArgEncoder <|..d. Float64ArgEncoder
IArgEncoder <|..d. RawArgEncoder
IArgEncoder <|..d. StringArgEncoder
IArgEncoder <|..d. NonVerboseArgEncoder
IArgEncoder <|..d. UnknownVerboseArgEncoder

DltArgEncoder *-d- BinaryIntArgEncoder
DltArgEncoder *-d- HexIntArgEncoder
DltArgEncoder *-d- SignedIntArgEncoder
DltArgEncoder *-d- UnsignedIntArgEncoder
DltArgEncoder *-d- BoolArgEncoder
DltArgEncoder *-d- Float32ArgEncoder
DltArgEncoder *-d- Float64ArgEncoder
DltArgEncoder *-d- RawArgEncoder
DltArgEncoder *-d- StringArgEncoder
DltArgEncoder *-d- NonVerboseArgEncoder
DltArgEncoder *-d- UnknownVerboseArgEncoder

DltTraceEncoder *-d- IDltEncoder

BinaryIntArgEncoder -d-> BinaryIntDltArg : <<encodes>>
HexIntArgEncoder -d-> HexIntDltArg : <<encodes>>
SignedIntArgEncoder -d-> SignedIntDltArg : <<encodes>>
UnsignedIntArgEncoder -d-> UnsignedIntDltArg : <<encodes>>
BoolArgEncoder -d-> BoolDltArg : <<encodes>>
Float32ArgEncoder -d-> Float32DltArg : <<encodes>>
Float64ArgEncoder -d-> Float64DltArg : <<encodes>>
StringArgEncoder -d-> StringDltArg : <<encodes>>
RawArgEncoder -d-> RawDltArg : <<encodes>>
NonVerboseArgEncoder -d-> RawDltArg : <<encodes\nverbose>>
NonVerboseArgEncoder -d-> NonVerboseDltArg : <<encodes\nnonverbose>>
NonVerboseArgEncoder -d-> UnknownVerboseDltArg : <<encodes>>
UnknownVerboseArgEncoder -d-> UnknownVerboseDltArg : <<encodes>>
@enduml

PlantUML version 1.2022.1(Tue Feb 01 19:19:58 CET 2022)
(GPL source distribution)
Java Runtime: Java(TM) SE Runtime Environment
JVM: Java HotSpot(TM) Client VM
Default Encoding: Cp1252
Language: en
Country: US
--></g></svg>