<?xml version="1.0" encoding="UTF-8" standalone="no"?><svg xmlns="http://www.w3.org/2000/svg" xmlns:xlink="http://www.w3.org/1999/xlink" contentScriptType="application/ecmascript" contentStyleType="text/css" height="850px" preserveAspectRatio="none" style="width:2273px;height:850px;background:#FFFFFF;" version="1.1" viewBox="0 0 2273 850" width="2273px" zoomAndPan="magnify"><defs><filter height="300%" id="f1a1t5xtw8f1dt" width="300%" x="-1" y="-1"><feGaussianBlur result="blurOut" stdDeviation="2.0"/><feColorMatrix in="blurOut" result="blurOut2" type="matrix" values="0 0 0 0 0 0 0 0 0 0 0 0 0 0 0 0 0 0 .4 0"/><feOffset dx="4.0" dy="4.0" in="blurOut2" result="blurOut3"/><feBlend in="SourceGraphic" in2="blurOut3" mode="normal"/></filter></defs><g><!--MD5=[6f2c01f075f91ebcd3347acc367829c7]
class BinaryIntArgEncoder--><rect codeLine="44" fill="#FEFECE" filter="url(#f1a1t5xtw8f1dt)" height="48" id="BinaryIntArgEncoder" style="stroke:#A80036;stroke-width:1.5;" width="143" x="1768" y="644"/><ellipse cx="1783" cy="660" fill="#ADD1B2" rx="11" ry="11" style="stroke:#A80036;stroke-width:1.0;"/><path d="M1785.7656,655.875 Q1785.9219,655.6563 1786.1094,655.5469 Q1786.2969,655.4375 1786.5156,655.4375 Q1786.8906,655.4375 1787.125,655.6953 Q1787.3594,655.9531 1787.3594,656.5625 L1787.3594,658.0156 Q1787.3594,658.625 1787.125,658.8906 Q1786.8906,659.1563 1786.5156,659.1563 Q1786.1719,659.1563 1785.9688,658.9531 Q1785.7656,658.7656 1785.6563,658.25 Q1785.6094,657.8906 1785.4219,657.7031 Q1785.0938,657.3281 1784.4844,657.1094 Q1783.875,656.8906 1783.25,656.8906 Q1782.4844,656.8906 1781.8516,657.2188 Q1781.2188,657.5469 1780.7266,658.2969 Q1780.2344,659.0469 1780.2344,660.0781 L1780.2344,661.1719 Q1780.2344,662.4063 1781.125,663.2266 Q1782.0156,664.0469 1783.6094,664.0469 Q1784.5469,664.0469 1785.2031,663.7969 Q1785.5938,663.6406 1786.0156,663.2031 Q1786.2813,662.9375 1786.4297,662.8594 Q1786.5781,662.7813 1786.7813,662.7813 Q1787.1094,662.7813 1787.3672,663.0391 Q1787.625,663.2969 1787.625,663.6406 Q1787.625,663.9844 1787.2813,664.3906 Q1786.7813,664.9688 1785.9844,665.2969 Q1784.9063,665.75 1783.6094,665.75 Q1782.0938,665.75 1780.8906,665.125 Q1779.9063,664.625 1779.2188,663.5547 Q1778.5313,662.4844 1778.5313,661.2031 L1778.5313,660.0469 Q1778.5313,658.7188 1779.1484,657.5703 Q1779.7656,656.4219 1780.8594,655.8047 Q1781.9531,655.1875 1783.1875,655.1875 Q1783.9219,655.1875 1784.5703,655.3516 Q1785.2188,655.5156 1785.7656,655.875 Z " fill="#000000"/><text fill="#000000" font-family="sans-serif" font-size="12" lengthAdjust="spacing" textLength="111" x="1797" y="664.9102">BinaryIntArgEncoder</text><line style="stroke:#A80036;stroke-width:1.5;" x1="1769" x2="1910" y1="676" y2="676"/><line style="stroke:#A80036;stroke-width:1.5;" x1="1769" x2="1910" y1="684" y2="684"/><!--MD5=[5ca4af4ba27db3c1fa37640d811cae7a]
class HexIntArgEncoder--><rect codeLine="45" fill="#FEFECE" filter="url(#f1a1t5xtw8f1dt)" height="48" id="HexIntArgEncoder" style="stroke:#A80036;stroke-width:1.5;" width="130" x="1946.5" y="644"/><ellipse cx="1961.5" cy="660" fill="#ADD1B2" rx="11" ry="11" style="stroke:#A80036;stroke-width:1.0;"/><path d="M1964.2656,655.875 Q1964.4219,655.6563 1964.6094,655.5469 Q1964.7969,655.4375 1965.0156,655.4375 Q1965.3906,655.4375 1965.625,655.6953 Q1965.8594,655.9531 1965.8594,656.5625 L1965.8594,658.0156 Q1965.8594,658.625 1965.625,658.8906 Q1965.3906,659.1563 1965.0156,659.1563 Q1964.6719,659.1563 1964.4688,658.9531 Q1964.2656,658.7656 1964.1563,658.25 Q1964.1094,657.8906 1963.9219,657.7031 Q1963.5938,657.3281 1962.9844,657.1094 Q1962.375,656.8906 1961.75,656.8906 Q1960.9844,656.8906 1960.3516,657.2188 Q1959.7188,657.5469 1959.2266,658.2969 Q1958.7344,659.0469 1958.7344,660.0781 L1958.7344,661.1719 Q1958.7344,662.4063 1959.625,663.2266 Q1960.5156,664.0469 1962.1094,664.0469 Q1963.0469,664.0469 1963.7031,663.7969 Q1964.0938,663.6406 1964.5156,663.2031 Q1964.7813,662.9375 1964.9297,662.8594 Q1965.0781,662.7813 1965.2813,662.7813 Q1965.6094,662.7813 1965.8672,663.0391 Q1966.125,663.2969 1966.125,663.6406 Q1966.125,663.9844 1965.7813,664.3906 Q1965.2813,664.9688 1964.4844,665.2969 Q1963.4063,665.75 1962.1094,665.75 Q1960.5938,665.75 1959.3906,665.125 Q1958.4063,664.625 1957.7188,663.5547 Q1957.0313,662.4844 1957.0313,661.2031 L1957.0313,660.0469 Q1957.0313,658.7188 1957.6484,657.5703 Q1958.2656,656.4219 1959.3594,655.8047 Q1960.4531,655.1875 1961.6875,655.1875 Q1962.4219,655.1875 1963.0703,655.3516 Q1963.7188,655.5156 1964.2656,655.875 Z " fill="#000000"/><text fill="#000000" font-family="sans-serif" font-size="12" lengthAdjust="spacing" textLength="98" x="1975.5" y="664.9102">HexIntArgEncoder</text><line style="stroke:#A80036;stroke-width:1.5;" x1="1947.5" x2="2075.5" y1="676" y2="676"/><line style="stroke:#A80036;stroke-width:1.5;" x1="1947.5" x2="2075.5" y1="684" y2="684"/><!--MD5=[f7a8f7cec189c8925c70c6dfe84b8abb]
class SignedIntArgEncoder--><rect codeLine="46" fill="#FEFECE" filter="url(#f1a1t5xtw8f1dt)" height="48" id="SignedIntArgEncoder" style="stroke:#A80036;stroke-width:1.5;" width="148" x="2111.5" y="644"/><ellipse cx="2126.5" cy="660" fill="#ADD1B2" rx="11" ry="11" style="stroke:#A80036;stroke-width:1.0;"/><path d="M2129.2656,655.875 Q2129.4219,655.6563 2129.6094,655.5469 Q2129.7969,655.4375 2130.0156,655.4375 Q2130.3906,655.4375 2130.625,655.6953 Q2130.8594,655.9531 2130.8594,656.5625 L2130.8594,658.0156 Q2130.8594,658.625 2130.625,658.8906 Q2130.3906,659.1563 2130.0156,659.1563 Q2129.6719,659.1563 2129.4688,658.9531 Q2129.2656,658.7656 2129.1563,658.25 Q2129.1094,657.8906 2128.9219,657.7031 Q2128.5938,657.3281 2127.9844,657.1094 Q2127.375,656.8906 2126.75,656.8906 Q2125.9844,656.8906 2125.3516,657.2188 Q2124.7188,657.5469 2124.2266,658.2969 Q2123.7344,659.0469 2123.7344,660.0781 L2123.7344,661.1719 Q2123.7344,662.4063 2124.625,663.2266 Q2125.5156,664.0469 2127.1094,664.0469 Q2128.0469,664.0469 2128.7031,663.7969 Q2129.0938,663.6406 2129.5156,663.2031 Q2129.7813,662.9375 2129.9297,662.8594 Q2130.0781,662.7813 2130.2813,662.7813 Q2130.6094,662.7813 2130.8672,663.0391 Q2131.125,663.2969 2131.125,663.6406 Q2131.125,663.9844 2130.7813,664.3906 Q2130.2813,664.9688 2129.4844,665.2969 Q2128.4063,665.75 2127.1094,665.75 Q2125.5938,665.75 2124.3906,665.125 Q2123.4063,664.625 2122.7188,663.5547 Q2122.0313,662.4844 2122.0313,661.2031 L2122.0313,660.0469 Q2122.0313,658.7188 2122.6484,657.5703 Q2123.2656,656.4219 2124.3594,655.8047 Q2125.4531,655.1875 2126.6875,655.1875 Q2127.4219,655.1875 2128.0703,655.3516 Q2128.7188,655.5156 2129.2656,655.875 Z " fill="#000000"/><text fill="#000000" font-family="sans-serif" font-size="12" lengthAdjust="spacing" textLength="116" x="2140.5" y="664.9102">SignedIntArgEncoder</text><line style="stroke:#A80036;stroke-width:1.5;" x1="2112.5" x2="2258.5" y1="676" y2="676"/><line style="stroke:#A80036;stroke-width:1.5;" x1="2112.5" x2="2258.5" y1="684" y2="684"/><!--MD5=[f544327efaf49fb6f83b6e7d8b5dce23]
class UnsignedIntArgEncoder--><rect codeLine="47" fill="#FEFECE" filter="url(#f1a1t5xtw8f1dt)" height="48" id="UnsignedIntArgEncoder" style="stroke:#A80036;stroke-width:1.5;" width="163" x="1570" y="644"/><ellipse cx="1585" cy="660" fill="#ADD1B2" rx="11" ry="11" style="stroke:#A80036;stroke-width:1.0;"/><path d="M1587.7656,655.875 Q1587.9219,655.6563 1588.1094,655.5469 Q1588.2969,655.4375 1588.5156,655.4375 Q1588.8906,655.4375 1589.125,655.6953 Q1589.3594,655.9531 1589.3594,656.5625 L1589.3594,658.0156 Q1589.3594,658.625 1589.125,658.8906 Q1588.8906,659.1563 1588.5156,659.1563 Q1588.1719,659.1563 1587.9688,658.9531 Q1587.7656,658.7656 1587.6563,658.25 Q1587.6094,657.8906 1587.4219,657.7031 Q1587.0938,657.3281 1586.4844,657.1094 Q1585.875,656.8906 1585.25,656.8906 Q1584.4844,656.8906 1583.8516,657.2188 Q1583.2188,657.5469 1582.7266,658.2969 Q1582.2344,659.0469 1582.2344,660.0781 L1582.2344,661.1719 Q1582.2344,662.4063 1583.125,663.2266 Q1584.0156,664.0469 1585.6094,664.0469 Q1586.5469,664.0469 1587.2031,663.7969 Q1587.5938,663.6406 1588.0156,663.2031 Q1588.2813,662.9375 1588.4297,662.8594 Q1588.5781,662.7813 1588.7813,662.7813 Q1589.1094,662.7813 1589.3672,663.0391 Q1589.625,663.2969 1589.625,663.6406 Q1589.625,663.9844 1589.2813,664.3906 Q1588.7813,664.9688 1587.9844,665.2969 Q1586.9063,665.75 1585.6094,665.75 Q1584.0938,665.75 1582.8906,665.125 Q1581.9063,664.625 1581.2188,663.5547 Q1580.5313,662.4844 1580.5313,661.2031 L1580.5313,660.0469 Q1580.5313,658.7188 1581.1484,657.5703 Q1581.7656,656.4219 1582.8594,655.8047 Q1583.9531,655.1875 1585.1875,655.1875 Q1585.9219,655.1875 1586.5703,655.3516 Q1587.2188,655.5156 1587.7656,655.875 Z " fill="#000000"/><text fill="#000000" font-family="sans-serif" font-size="12" lengthAdjust="spacing" textLength="131" x="1599" y="664.9102">UnsignedIntArgEncoder</text><line style="stroke:#A80036;stroke-width:1.5;" x1="1571" x2="1732" y1="676" y2="676"/><line style="stroke:#A80036;stroke-width:1.5;" x1="1571" x2="1732" y1="684" y2="684"/><!--MD5=[1f239973d255d0f438452ad301ebce4a]
class Float32ArgEncoder--><rect codeLine="50" fill="#FEFECE" filter="url(#f1a1t5xtw8f1dt)" height="48" id="Float32ArgEncoder" style="stroke:#A80036;stroke-width:1.5;" width="137" x="906" y="644"/><ellipse cx="921" cy="660" fill="#ADD1B2" rx="11" ry="11" style="stroke:#A80036;stroke-width:1.0;"/><path d="M923.7656,655.875 Q923.9219,655.6563 924.1094,655.5469 Q924.2969,655.4375 924.5156,655.4375 Q924.8906,655.4375 925.125,655.6953 Q925.3594,655.9531 925.3594,656.5625 L925.3594,658.0156 Q925.3594,658.625 925.125,658.8906 Q924.8906,659.1563 924.5156,659.1563 Q924.1719,659.1563 923.9688,658.9531 Q923.7656,658.7656 923.6563,658.25 Q923.6094,657.8906 923.4219,657.7031 Q923.0938,657.3281 922.4844,657.1094 Q921.875,656.8906 921.25,656.8906 Q920.4844,656.8906 919.8516,657.2188 Q919.2188,657.5469 918.7266,658.2969 Q918.2344,659.0469 918.2344,660.0781 L918.2344,661.1719 Q918.2344,662.4063 919.125,663.2266 Q920.0156,664.0469 921.6094,664.0469 Q922.5469,664.0469 923.2031,663.7969 Q923.5938,663.6406 924.0156,663.2031 Q924.2813,662.9375 924.4297,662.8594 Q924.5781,662.7813 924.7813,662.7813 Q925.1094,662.7813 925.3672,663.0391 Q925.625,663.2969 925.625,663.6406 Q925.625,663.9844 925.2813,664.3906 Q924.7813,664.9688 923.9844,665.2969 Q922.9063,665.75 921.6094,665.75 Q920.0938,665.75 918.8906,665.125 Q917.9063,664.625 917.2188,663.5547 Q916.5313,662.4844 916.5313,661.2031 L916.5313,660.0469 Q916.5313,658.7188 917.1484,657.5703 Q917.7656,656.4219 918.8594,655.8047 Q919.9531,655.1875 921.1875,655.1875 Q921.9219,655.1875 922.5703,655.3516 Q923.2188,655.5156 923.7656,655.875 Z " fill="#000000"/><text fill="#000000" font-family="sans-serif" font-size="12" lengthAdjust="spacing" textLength="105" x="935" y="664.9102">Float32ArgEncoder</text><line style="stroke:#A80036;stroke-width:1.5;" x1="907" x2="1042" y1="676" y2="676"/><line style="stroke:#A80036;stroke-width:1.5;" x1="907" x2="1042" y1="684" y2="684"/><!--MD5=[5662824aabed64f61a3b769880bc971b]
class Float64ArgEncoder--><rect codeLine="51" fill="#FEFECE" filter="url(#f1a1t5xtw8f1dt)" height="48" id="Float64ArgEncoder" style="stroke:#A80036;stroke-width:1.5;" width="137" x="1078" y="644"/><ellipse cx="1093" cy="660" fill="#ADD1B2" rx="11" ry="11" style="stroke:#A80036;stroke-width:1.0;"/><path d="M1095.7656,655.875 Q1095.9219,655.6563 1096.1094,655.5469 Q1096.2969,655.4375 1096.5156,655.4375 Q1096.8906,655.4375 1097.125,655.6953 Q1097.3594,655.9531 1097.3594,656.5625 L1097.3594,658.0156 Q1097.3594,658.625 1097.125,658.8906 Q1096.8906,659.1563 1096.5156,659.1563 Q1096.1719,659.1563 1095.9688,658.9531 Q1095.7656,658.7656 1095.6563,658.25 Q1095.6094,657.8906 1095.4219,657.7031 Q1095.0938,657.3281 1094.4844,657.1094 Q1093.875,656.8906 1093.25,656.8906 Q1092.4844,656.8906 1091.8516,657.2188 Q1091.2188,657.5469 1090.7266,658.2969 Q1090.2344,659.0469 1090.2344,660.0781 L1090.2344,661.1719 Q1090.2344,662.4063 1091.125,663.2266 Q1092.0156,664.0469 1093.6094,664.0469 Q1094.5469,664.0469 1095.2031,663.7969 Q1095.5938,663.6406 1096.0156,663.2031 Q1096.2813,662.9375 1096.4297,662.8594 Q1096.5781,662.7813 1096.7813,662.7813 Q1097.1094,662.7813 1097.3672,663.0391 Q1097.625,663.2969 1097.625,663.6406 Q1097.625,663.9844 1097.2813,664.3906 Q1096.7813,664.9688 1095.9844,665.2969 Q1094.9063,665.75 1093.6094,665.75 Q1092.0938,665.75 1090.8906,665.125 Q1089.9063,664.625 1089.2188,663.5547 Q1088.5313,662.4844 1088.5313,661.2031 L1088.5313,660.0469 Q1088.5313,658.7188 1089.1484,657.5703 Q1089.7656,656.4219 1090.8594,655.8047 Q1091.9531,655.1875 1093.1875,655.1875 Q1093.9219,655.1875 1094.5703,655.3516 Q1095.2188,655.5156 1095.7656,655.875 Z " fill="#000000"/><text fill="#000000" font-family="sans-serif" font-size="12" lengthAdjust="spacing" textLength="105" x="1107" y="664.9102">Float64ArgEncoder</text><line style="stroke:#A80036;stroke-width:1.5;" x1="1079" x2="1214" y1="676" y2="676"/><line style="stroke:#A80036;stroke-width:1.5;" x1="1079" x2="1214" y1="684" y2="684"/><!--MD5=[fe50a4f6767356ff4dcdadb85ef8cbdd]
class IDisposable--><rect codeLine="1" fill="#FEFECE" filter="url(#f1a1t5xtw8f1dt)" height="48" id="IDisposable" style="stroke:#A80036;stroke-width:1.5;" width="99" x="497" y="7"/><ellipse cx="512" cy="23" fill="#B4A7E5" rx="11" ry="11" style="stroke:#A80036;stroke-width:1.0;"/><path d="M512.9531,19.6406 L512.9531,26.2969 L514.6719,26.2969 Q515.2813,26.2969 515.5469,26.5313 Q515.8125,26.7656 515.8125,27.1563 Q515.8125,27.5313 515.5469,27.7656 Q515.2813,28 514.6719,28 L509.5313,28 Q508.9219,28 508.6563,27.7656 Q508.3906,27.5313 508.3906,27.1406 Q508.3906,26.7656 508.6563,26.5313 Q508.9219,26.2969 509.5313,26.2969 L511.25,26.2969 L511.25,19.6406 L509.5313,19.6406 Q508.9219,19.6406 508.6563,19.4063 Q508.3906,19.1719 508.3906,18.7813 Q508.3906,18.4063 508.6563,18.1719 Q508.9219,17.9375 509.5313,17.9375 L514.6719,17.9375 Q515.2813,17.9375 515.5469,18.1719 Q515.8125,18.4063 515.8125,18.7813 Q515.8125,19.1719 515.5469,19.4063 Q515.2813,19.6406 514.6719,19.6406 L512.9531,19.6406 Z " fill="#000000"/><text fill="#000000" font-family="sans-serif" font-size="12" font-style="italic" lengthAdjust="spacing" textLength="67" x="526" y="27.9102">IDisposable</text><line style="stroke:#A80036;stroke-width:1.5;" x1="498" x2="595" y1="39" y2="39"/><line style="stroke:#A80036;stroke-width:1.5;" x1="498" x2="595" y1="47" y2="47"/><!--MD5=[6f6d608e6fcd45a869ad33795209fe26]
class ITraceEncoder--><rect codeLine="3" fill="#FEFECE" filter="url(#f1a1t5xtw8f1dt)" height="61.8359" id="ITraceEncoder" style="stroke:#A80036;stroke-width:1.5;" width="235" x="429" y="116"/><ellipse cx="455.25" cy="132" fill="#B4A7E5" rx="11" ry="11" style="stroke:#A80036;stroke-width:1.0;"/><path d="M456.2031,128.6406 L456.2031,135.2969 L457.9219,135.2969 Q458.5313,135.2969 458.7969,135.5313 Q459.0625,135.7656 459.0625,136.1563 Q459.0625,136.5313 458.7969,136.7656 Q458.5313,137 457.9219,137 L452.7813,137 Q452.1719,137 451.9063,136.7656 Q451.6406,136.5313 451.6406,136.1406 Q451.6406,135.7656 451.9063,135.5313 Q452.1719,135.2969 452.7813,135.2969 L454.5,135.2969 L454.5,128.6406 L452.7813,128.6406 Q452.1719,128.6406 451.9063,128.4063 Q451.6406,128.1719 451.6406,127.7813 Q451.6406,127.4063 451.9063,127.1719 Q452.1719,126.9375 452.7813,126.9375 L457.9219,126.9375 Q458.5313,126.9375 458.7969,127.1719 Q459.0625,127.4063 459.0625,127.7813 Q459.0625,128.1719 458.7969,128.4063 Q458.5313,128.6406 457.9219,128.6406 L456.2031,128.6406 Z " fill="#000000"/><text fill="#000000" font-family="sans-serif" font-size="12" font-style="italic" lengthAdjust="spacing" textLength="81" x="471.75" y="136.9102">ITraceEncoder</text><rect fill="#FFFFFF" height="17.0938" style="stroke:#000000;stroke-width:1.0;stroke-dasharray:2.0,2.0;" width="95" x="572" y="113"/><text fill="#000000" font-family="sans-serif" font-size="12" font-style="italic" lengthAdjust="spacing" textLength="93" x="573" y="126.457">TLine:ITraceLine</text><line style="stroke:#A80036;stroke-width:1.5;" x1="430" x2="663" y1="148" y2="148"/><line style="stroke:#A80036;stroke-width:1.5;" x1="430" x2="663" y1="156" y2="156"/><ellipse cx="440" cy="167" fill="#84BE84" rx="3" ry="3" style="stroke:#038048;stroke-width:1.0;"/><text fill="#000000" font-family="sans-serif" font-size="11" lengthAdjust="spacing" textLength="209" x="449" y="171.4189">Encode(buffer: Span&lt;byte&gt;, line: TLine): int</text><!--MD5=[3d4b20d523844a7742bcfaf38f4a7853]
class ITraceEncoderFactory--><rect codeLine="8" fill="#FEFECE" filter="url(#f1a1t5xtw8f1dt)" height="61.8359" id="ITraceEncoderFactory" style="stroke:#A80036;stroke-width:1.5;" width="250" x="31.5" y="116"/><ellipse cx="46.5" cy="132" fill="#B4A7E5" rx="11" ry="11" style="stroke:#A80036;stroke-width:1.0;"/><path d="M47.4531,128.6406 L47.4531,135.2969 L49.1719,135.2969 Q49.7813,135.2969 50.0469,135.5313 Q50.3125,135.7656 50.3125,136.1563 Q50.3125,136.5313 50.0469,136.7656 Q49.7813,137 49.1719,137 L44.0313,137 Q43.4219,137 43.1563,136.7656 Q42.8906,136.5313 42.8906,136.1406 Q42.8906,135.7656 43.1563,135.5313 Q43.4219,135.2969 44.0313,135.2969 L45.75,135.2969 L45.75,128.6406 L44.0313,128.6406 Q43.4219,128.6406 43.1563,128.4063 Q42.8906,128.1719 42.8906,127.7813 Q42.8906,127.4063 43.1563,127.1719 Q43.4219,126.9375 44.0313,126.9375 L49.1719,126.9375 Q49.7813,126.9375 50.0469,127.1719 Q50.3125,127.4063 50.3125,127.7813 Q50.3125,128.1719 50.0469,128.4063 Q49.7813,128.6406 49.1719,128.6406 L47.4531,128.6406 Z " fill="#000000"/><text fill="#000000" font-family="sans-serif" font-size="12" font-style="italic" lengthAdjust="spacing" textLength="121" x="60.5" y="136.9102">ITraceEncoderFactory</text><rect fill="#FFFFFF" height="17.0938" style="stroke:#000000;stroke-width:1.0;stroke-dasharray:2.0,2.0;" width="95" x="189.5" y="113"/><text fill="#000000" font-family="sans-serif" font-size="12" font-style="italic" lengthAdjust="spacing" textLength="93" x="190.5" y="126.457">TLine:ITraceLine</text><line style="stroke:#A80036;stroke-width:1.5;" x1="32.5" x2="280.5" y1="148" y2="148"/><line style="stroke:#A80036;stroke-width:1.5;" x1="32.5" x2="280.5" y1="156" y2="156"/><ellipse cx="42.5" cy="167" fill="#84BE84" rx="3" ry="3" style="stroke:#038048;stroke-width:1.0;"/><text fill="#000000" font-family="sans-serif" font-size="11" lengthAdjust="spacing" textLength="154" x="51.5" y="171.4189">Create(): ITraceEncoder&lt;TLine&gt;</text><!--MD5=[4aada09f93d0b6e7ebd03dfdc6a2603a]
class DltTraceEncoderFactory--><rect codeLine="12" fill="#FEFECE" filter="url(#f1a1t5xtw8f1dt)" height="61.8359" id="DltTraceEncoderFactory" style="stroke:#A80036;stroke-width:1.5;" width="299" x="7" y="256"/><ellipse cx="22" cy="272" fill="#ADD1B2" rx="11" ry="11" style="stroke:#A80036;stroke-width:1.0;"/><path d="M24.7656,267.875 Q24.9219,267.6563 25.1094,267.5469 Q25.2969,267.4375 25.5156,267.4375 Q25.8906,267.4375 26.125,267.6953 Q26.3594,267.9531 26.3594,268.5625 L26.3594,270.0156 Q26.3594,270.625 26.125,270.8906 Q25.8906,271.1563 25.5156,271.1563 Q25.1719,271.1563 24.9688,270.9531 Q24.7656,270.7656 24.6563,270.25 Q24.6094,269.8906 24.4219,269.7031 Q24.0938,269.3281 23.4844,269.1094 Q22.875,268.8906 22.25,268.8906 Q21.4844,268.8906 20.8516,269.2188 Q20.2188,269.5469 19.7266,270.2969 Q19.2344,271.0469 19.2344,272.0781 L19.2344,273.1719 Q19.2344,274.4063 20.125,275.2266 Q21.0156,276.0469 22.6094,276.0469 Q23.5469,276.0469 24.2031,275.7969 Q24.5938,275.6406 25.0156,275.2031 Q25.2813,274.9375 25.4297,274.8594 Q25.5781,274.7813 25.7813,274.7813 Q26.1094,274.7813 26.3672,275.0391 Q26.625,275.2969 26.625,275.6406 Q26.625,275.9844 26.2813,276.3906 Q25.7813,276.9688 24.9844,277.2969 Q23.9063,277.75 22.6094,277.75 Q21.0938,277.75 19.8906,277.125 Q18.9063,276.625 18.2188,275.5547 Q17.5313,274.4844 17.5313,273.2031 L17.5313,272.0469 Q17.5313,270.7188 18.1484,269.5703 Q18.7656,268.4219 19.8594,267.8047 Q20.9531,267.1875 22.1875,267.1875 Q22.9219,267.1875 23.5703,267.3516 Q24.2188,267.5156 24.7656,267.875 Z " fill="#000000"/><text fill="#000000" font-family="sans-serif" font-size="12" lengthAdjust="spacing" textLength="131" x="36" y="276.9102">DltTraceEncoderFactory</text><rect fill="#FFFFFF" height="17.0938" style="stroke:#000000;stroke-width:1.0;stroke-dasharray:2.0,2.0;" width="134" x="175" y="253"/><text fill="#000000" font-family="sans-serif" font-size="12" font-style="italic" lengthAdjust="spacing" textLength="132" x="176" y="266.457">TLine:DltTraceLineBase</text><line style="stroke:#A80036;stroke-width:1.5;" x1="8" x2="305" y1="288" y2="288"/><line style="stroke:#A80036;stroke-width:1.5;" x1="8" x2="305" y1="296" y2="296"/><ellipse cx="18" cy="307" fill="#84BE84" rx="3" ry="3" style="stroke:#038048;stroke-width:1.0;"/><text fill="#000000" font-family="sans-serif" font-size="11" lengthAdjust="spacing" textLength="216" x="27" y="311.4189">Create() : ITraceEncoder&lt;DltTraceLineBase&gt;</text><!--MD5=[11363600cc92b2fece27b28de66320bf]
class DltTraceEncoder--><rect codeLine="17" fill="#FEFECE" filter="url(#f1a1t5xtw8f1dt)" height="61.8359" id="DltTraceEncoder" style="stroke:#A80036;stroke-width:1.5;" width="294" x="399.5" y="256"/><ellipse cx="429.8" cy="272" fill="#ADD1B2" rx="11" ry="11" style="stroke:#A80036;stroke-width:1.0;"/><path d="M432.5656,267.875 Q432.7219,267.6563 432.9094,267.5469 Q433.0969,267.4375 433.3156,267.4375 Q433.6906,267.4375 433.925,267.6953 Q434.1594,267.9531 434.1594,268.5625 L434.1594,270.0156 Q434.1594,270.625 433.925,270.8906 Q433.6906,271.1563 433.3156,271.1563 Q432.9719,271.1563 432.7688,270.9531 Q432.5656,270.7656 432.4563,270.25 Q432.4094,269.8906 432.2219,269.7031 Q431.8938,269.3281 431.2844,269.1094 Q430.675,268.8906 430.05,268.8906 Q429.2844,268.8906 428.6516,269.2188 Q428.0188,269.5469 427.5266,270.2969 Q427.0344,271.0469 427.0344,272.0781 L427.0344,273.1719 Q427.0344,274.4063 427.925,275.2266 Q428.8156,276.0469 430.4094,276.0469 Q431.3469,276.0469 432.0031,275.7969 Q432.3938,275.6406 432.8156,275.2031 Q433.0813,274.9375 433.2297,274.8594 Q433.3781,274.7813 433.5813,274.7813 Q433.9094,274.7813 434.1672,275.0391 Q434.425,275.2969 434.425,275.6406 Q434.425,275.9844 434.0813,276.3906 Q433.5813,276.9688 432.7844,277.2969 Q431.7063,277.75 430.4094,277.75 Q428.8938,277.75 427.6906,277.125 Q426.7063,276.625 426.0188,275.5547 Q425.3313,274.4844 425.3313,273.2031 L425.3313,272.0469 Q425.3313,270.7188 425.9484,269.5703 Q426.5656,268.4219 427.6594,267.8047 Q428.7531,267.1875 429.9875,267.1875 Q430.7219,267.1875 431.3703,267.3516 Q432.0188,267.5156 432.5656,267.875 Z " fill="#000000"/><text fill="#000000" font-family="sans-serif" font-size="12" lengthAdjust="spacing" textLength="92" x="447.2" y="276.9102">DltTraceEncoder</text><rect fill="#FFFFFF" height="17.0938" style="stroke:#000000;stroke-width:1.0;stroke-dasharray:2.0,2.0;" width="134" x="562.5" y="253"/><text fill="#000000" font-family="sans-serif" font-size="12" font-style="italic" lengthAdjust="spacing" textLength="132" x="563.5" y="266.457">TLine:DltTraceLineBase</text><line style="stroke:#A80036;stroke-width:1.5;" x1="400.5" x2="692.5" y1="288" y2="288"/><line style="stroke:#A80036;stroke-width:1.5;" x1="400.5" x2="692.5" y1="296" y2="296"/><ellipse cx="410.5" cy="307" fill="#84BE84" rx="3" ry="3" style="stroke:#038048;stroke-width:1.0;"/><text fill="#000000" font-family="sans-serif" font-size="11" lengthAdjust="spacing" textLength="268" x="419.5" y="311.4189">Encode(buffer: Span&lt;byte&gt;, line: DltTraceLineBase): int</text><!--MD5=[41fead8911a9e917d46f3318ccce8e3a]
class IDltEncoder--><rect codeLine="23" fill="#FEFECE" filter="url(#f1a1t5xtw8f1dt)" height="61.8359" id="IDltEncoder" style="stroke:#A80036;stroke-width:1.5;" width="235" x="429" y="379"/><ellipse cx="444.9" cy="395" fill="#B4A7E5" rx="11" ry="11" style="stroke:#A80036;stroke-width:1.0;"/><path d="M445.8531,391.6406 L445.8531,398.2969 L447.5719,398.2969 Q448.1813,398.2969 448.4469,398.5313 Q448.7125,398.7656 448.7125,399.1563 Q448.7125,399.5313 448.4469,399.7656 Q448.1813,400 447.5719,400 L442.4313,400 Q441.8219,400 441.5563,399.7656 Q441.2906,399.5313 441.2906,399.1406 Q441.2906,398.7656 441.5563,398.5313 Q441.8219,398.2969 442.4313,398.2969 L444.15,398.2969 L444.15,391.6406 L442.4313,391.6406 Q441.8219,391.6406 441.5563,391.4063 Q441.2906,391.1719 441.2906,390.7813 Q441.2906,390.4063 441.5563,390.1719 Q441.8219,389.9375 442.4313,389.9375 L447.5719,389.9375 Q448.1813,389.9375 448.4469,390.1719 Q448.7125,390.4063 448.7125,390.7813 Q448.7125,391.1719 448.4469,391.4063 Q448.1813,391.6406 447.5719,391.6406 L445.8531,391.6406 Z " fill="#000000"/><text fill="#000000" font-family="sans-serif" font-size="12" font-style="italic" lengthAdjust="spacing" textLength="65" x="459.1" y="399.9102">IDltEncoder</text><rect fill="#FFFFFF" height="17.0938" style="stroke:#000000;stroke-width:1.0;stroke-dasharray:2.0,2.0;" width="134" x="533" y="376"/><text fill="#000000" font-family="sans-serif" font-size="12" font-style="italic" lengthAdjust="spacing" textLength="132" x="534" y="389.457">TLine:DltTraceLineBase</text><line style="stroke:#A80036;stroke-width:1.5;" x1="430" x2="663" y1="411" y2="411"/><line style="stroke:#A80036;stroke-width:1.5;" x1="430" x2="663" y1="419" y2="419"/><ellipse cx="440" cy="430" fill="#84BE84" rx="3" ry="3" style="stroke:#038048;stroke-width:1.0;"/><text fill="#000000" font-family="sans-serif" font-size="11" lengthAdjust="spacing" textLength="209" x="449" y="434.4189">Encode(buffer: Span&lt;byte&gt;, line: TLine): int</text><!--MD5=[05a54f20826aaf197f67c85105285274]
class VerboseDltEncoder--><rect codeLine="27" fill="#FEFECE" filter="url(#f1a1t5xtw8f1dt)" height="61.8359" id="VerboseDltEncoder" style="stroke:#A80036;stroke-width:1.5;" width="269" x="412" y="519"/><ellipse cx="436.9" cy="535" fill="#ADD1B2" rx="11" ry="11" style="stroke:#A80036;stroke-width:1.0;"/><path d="M439.6656,530.875 Q439.8219,530.6563 440.0094,530.5469 Q440.1969,530.4375 440.4156,530.4375 Q440.7906,530.4375 441.025,530.6953 Q441.2594,530.9531 441.2594,531.5625 L441.2594,533.0156 Q441.2594,533.625 441.025,533.8906 Q440.7906,534.1563 440.4156,534.1563 Q440.0719,534.1563 439.8688,533.9531 Q439.6656,533.7656 439.5563,533.25 Q439.5094,532.8906 439.3219,532.7031 Q438.9938,532.3281 438.3844,532.1094 Q437.775,531.8906 437.15,531.8906 Q436.3844,531.8906 435.7516,532.2188 Q435.1188,532.5469 434.6266,533.2969 Q434.1344,534.0469 434.1344,535.0781 L434.1344,536.1719 Q434.1344,537.4063 435.025,538.2266 Q435.9156,539.0469 437.5094,539.0469 Q438.4469,539.0469 439.1031,538.7969 Q439.4938,538.6406 439.9156,538.2031 Q440.1813,537.9375 440.3297,537.8594 Q440.4781,537.7813 440.6813,537.7813 Q441.0094,537.7813 441.2672,538.0391 Q441.525,538.2969 441.525,538.6406 Q441.525,538.9844 441.1813,539.3906 Q440.6813,539.9688 439.8844,540.2969 Q438.8063,540.75 437.5094,540.75 Q435.9938,540.75 434.7906,540.125 Q433.8063,539.625 433.1188,538.5547 Q432.4313,537.4844 432.4313,536.2031 L432.4313,535.0469 Q432.4313,533.7188 433.0484,532.5703 Q433.6656,531.4219 434.7594,530.8047 Q435.8531,530.1875 437.0875,530.1875 Q437.8219,530.1875 438.4703,530.3516 Q439.1188,530.5156 439.6656,530.875 Z " fill="#000000"/><text fill="#000000" font-family="sans-serif" font-size="12" lengthAdjust="spacing" textLength="107" x="453.1" y="539.9102">VerboseDltEncoder</text><rect fill="#FFFFFF" height="17.0938" style="stroke:#000000;stroke-width:1.0;stroke-dasharray:2.0,2.0;" width="106" x="578" y="516"/><text fill="#000000" font-family="sans-serif" font-size="12" font-style="italic" lengthAdjust="spacing" textLength="104" x="579" y="529.457">TLine:DltTraceLine</text><line style="stroke:#A80036;stroke-width:1.5;" x1="413" x2="680" y1="551" y2="551"/><line style="stroke:#A80036;stroke-width:1.5;" x1="413" x2="680" y1="559" y2="559"/><ellipse cx="423" cy="570" fill="#84BE84" rx="3" ry="3" style="stroke:#038048;stroke-width:1.0;"/><text fill="#000000" font-family="sans-serif" font-size="11" lengthAdjust="spacing" textLength="243" x="432" y="574.4189">Encode(buffer: Span&lt;byte&gt;, line: DltTraceLine): int</text><!--MD5=[358dd04dd0fac196fcd8d983e2abb37d]
class IArgEncoder--><rect codeLine="32" fill="#FEFECE" filter="url(#f1a1t5xtw8f1dt)" height="61.8359" id="IArgEncoder" style="stroke:#A80036;stroke-width:1.5;" width="363" x="1021" y="379"/><ellipse cx="1163.75" cy="395" fill="#B4A7E5" rx="11" ry="11" style="stroke:#A80036;stroke-width:1.0;"/><path d="M1164.7031,391.6406 L1164.7031,398.2969 L1166.4219,398.2969 Q1167.0313,398.2969 1167.2969,398.5313 Q1167.5625,398.7656 1167.5625,399.1563 Q1167.5625,399.5313 1167.2969,399.7656 Q1167.0313,400 1166.4219,400 L1161.2813,400 Q1160.6719,400 1160.4063,399.7656 Q1160.1406,399.5313 1160.1406,399.1406 Q1160.1406,398.7656 1160.4063,398.5313 Q1160.6719,398.2969 1161.2813,398.2969 L1163,398.2969 L1163,391.6406 L1161.2813,391.6406 Q1160.6719,391.6406 1160.4063,391.4063 Q1160.1406,391.1719 1160.1406,390.7813 Q1160.1406,390.4063 1160.4063,390.1719 Q1160.6719,389.9375 1161.2813,389.9375 L1166.4219,389.9375 Q1167.0313,389.9375 1167.2969,390.1719 Q1167.5625,390.4063 1167.5625,390.7813 Q1167.5625,391.1719 1167.2969,391.4063 Q1167.0313,391.6406 1166.4219,391.6406 L1164.7031,391.6406 Z " fill="#000000"/><text fill="#000000" font-family="sans-serif" font-size="12" font-style="italic" lengthAdjust="spacing" textLength="69" x="1184.25" y="399.9102">IArgEncoder</text><line style="stroke:#A80036;stroke-width:1.5;" x1="1022" x2="1383" y1="411" y2="411"/><line style="stroke:#A80036;stroke-width:1.5;" x1="1022" x2="1383" y1="419" y2="419"/><ellipse cx="1032" cy="430" fill="#84BE84" rx="3" ry="3" style="stroke:#038048;stroke-width:1.0;"/><text fill="#000000" font-family="sans-serif" font-size="11" lengthAdjust="spacing" textLength="337" x="1041" y="434.4189">Encode(buffer: Span&lt;byte&gt;, bool verbose, bool msbf, arg: IDltArg): int</text><!--MD5=[4897523d3375529ead9aa56cb33cfe69]
class DltArgEncoder--><rect codeLine="36" fill="#FEFECE" filter="url(#f1a1t5xtw8f1dt)" height="61.8359" id="DltArgEncoder" style="stroke:#A80036;stroke-width:1.5;" width="363" x="1187" y="519"/><ellipse cx="1324.75" cy="535" fill="#ADD1B2" rx="11" ry="11" style="stroke:#A80036;stroke-width:1.0;"/><path d="M1327.5156,530.875 Q1327.6719,530.6563 1327.8594,530.5469 Q1328.0469,530.4375 1328.2656,530.4375 Q1328.6406,530.4375 1328.875,530.6953 Q1329.1094,530.9531 1329.1094,531.5625 L1329.1094,533.0156 Q1329.1094,533.625 1328.875,533.8906 Q1328.6406,534.1563 1328.2656,534.1563 Q1327.9219,534.1563 1327.7188,533.9531 Q1327.5156,533.7656 1327.4063,533.25 Q1327.3594,532.8906 1327.1719,532.7031 Q1326.8438,532.3281 1326.2344,532.1094 Q1325.625,531.8906 1325,531.8906 Q1324.2344,531.8906 1323.6016,532.2188 Q1322.9688,532.5469 1322.4766,533.2969 Q1321.9844,534.0469 1321.9844,535.0781 L1321.9844,536.1719 Q1321.9844,537.4063 1322.875,538.2266 Q1323.7656,539.0469 1325.3594,539.0469 Q1326.2969,539.0469 1326.9531,538.7969 Q1327.3438,538.6406 1327.7656,538.2031 Q1328.0313,537.9375 1328.1797,537.8594 Q1328.3281,537.7813 1328.5313,537.7813 Q1328.8594,537.7813 1329.1172,538.0391 Q1329.375,538.2969 1329.375,538.6406 Q1329.375,538.9844 1329.0313,539.3906 Q1328.5313,539.9688 1327.7344,540.2969 Q1326.6563,540.75 1325.3594,540.75 Q1323.8438,540.75 1322.6406,540.125 Q1321.6563,539.625 1320.9688,538.5547 Q1320.2813,537.4844 1320.2813,536.2031 L1320.2813,535.0469 Q1320.2813,533.7188 1320.8984,532.5703 Q1321.5156,531.4219 1322.6094,530.8047 Q1323.7031,530.1875 1324.9375,530.1875 Q1325.6719,530.1875 1326.3203,530.3516 Q1326.9688,530.5156 1327.5156,530.875 Z " fill="#000000"/><text fill="#000000" font-family="sans-serif" font-size="12" lengthAdjust="spacing" textLength="79" x="1345.25" y="539.9102">DltArgEncoder</text><line style="stroke:#A80036;stroke-width:1.5;" x1="1188" x2="1549" y1="551" y2="551"/><line style="stroke:#A80036;stroke-width:1.5;" x1="1188" x2="1549" y1="559" y2="559"/><ellipse cx="1198" cy="570" fill="#84BE84" rx="3" ry="3" style="stroke:#038048;stroke-width:1.0;"/><text fill="#000000" font-family="sans-serif" font-size="11" lengthAdjust="spacing" textLength="337" x="1207" y="574.4189">Encode(buffer: Span&lt;byte&gt;, bool verbose, bool msbf, arg: IDltArg): int</text><!--MD5=[e04e017feeb2dd5dd390d83656173fba]
class BoolArgEncoder--><rect codeLine="42" fill="#FEFECE" filter="url(#f1a1t5xtw8f1dt)" height="48" id="BoolArgEncoder" style="stroke:#A80036;stroke-width:1.5;" width="121" x="1414" y="644"/><ellipse cx="1429" cy="660" fill="#ADD1B2" rx="11" ry="11" style="stroke:#A80036;stroke-width:1.0;"/><path d="M1431.7656,655.875 Q1431.9219,655.6563 1432.1094,655.5469 Q1432.2969,655.4375 1432.5156,655.4375 Q1432.8906,655.4375 1433.125,655.6953 Q1433.3594,655.9531 1433.3594,656.5625 L1433.3594,658.0156 Q1433.3594,658.625 1433.125,658.8906 Q1432.8906,659.1563 1432.5156,659.1563 Q1432.1719,659.1563 1431.9688,658.9531 Q1431.7656,658.7656 1431.6563,658.25 Q1431.6094,657.8906 1431.4219,657.7031 Q1431.0938,657.3281 1430.4844,657.1094 Q1429.875,656.8906 1429.25,656.8906 Q1428.4844,656.8906 1427.8516,657.2188 Q1427.2188,657.5469 1426.7266,658.2969 Q1426.2344,659.0469 1426.2344,660.0781 L1426.2344,661.1719 Q1426.2344,662.4063 1427.125,663.2266 Q1428.0156,664.0469 1429.6094,664.0469 Q1430.5469,664.0469 1431.2031,663.7969 Q1431.5938,663.6406 1432.0156,663.2031 Q1432.2813,662.9375 1432.4297,662.8594 Q1432.5781,662.7813 1432.7813,662.7813 Q1433.1094,662.7813 1433.3672,663.0391 Q1433.625,663.2969 1433.625,663.6406 Q1433.625,663.9844 1433.2813,664.3906 Q1432.7813,664.9688 1431.9844,665.2969 Q1430.9063,665.75 1429.6094,665.75 Q1428.0938,665.75 1426.8906,665.125 Q1425.9063,664.625 1425.2188,663.5547 Q1424.5313,662.4844 1424.5313,661.2031 L1424.5313,660.0469 Q1424.5313,658.7188 1425.1484,657.5703 Q1425.7656,656.4219 1426.8594,655.8047 Q1427.9531,655.1875 1429.1875,655.1875 Q1429.9219,655.1875 1430.5703,655.3516 Q1431.2188,655.5156 1431.7656,655.875 Z " fill="#000000"/><text fill="#000000" font-family="sans-serif" font-size="12" lengthAdjust="spacing" textLength="89" x="1443" y="664.9102">BoolArgEncoder</text><line style="stroke:#A80036;stroke-width:1.5;" x1="1415" x2="1534" y1="676" y2="676"/><line style="stroke:#A80036;stroke-width:1.5;" x1="1415" x2="1534" y1="684" y2="684"/><!--MD5=[17ad35bfc48752a1c7c5373cb1f71222]
class StringArgEncoder--><rect codeLine="53" fill="#FEFECE" filter="url(#f1a1t5xtw8f1dt)" height="48" id="StringArgEncoder" style="stroke:#A80036;stroke-width:1.5;" width="128" x="1250.5" y="644"/><ellipse cx="1265.5" cy="660" fill="#ADD1B2" rx="11" ry="11" style="stroke:#A80036;stroke-width:1.0;"/><path d="M1268.2656,655.875 Q1268.4219,655.6563 1268.6094,655.5469 Q1268.7969,655.4375 1269.0156,655.4375 Q1269.3906,655.4375 1269.625,655.6953 Q1269.8594,655.9531 1269.8594,656.5625 L1269.8594,658.0156 Q1269.8594,658.625 1269.625,658.8906 Q1269.3906,659.1563 1269.0156,659.1563 Q1268.6719,659.1563 1268.4688,658.9531 Q1268.2656,658.7656 1268.1563,658.25 Q1268.1094,657.8906 1267.9219,657.7031 Q1267.5938,657.3281 1266.9844,657.1094 Q1266.375,656.8906 1265.75,656.8906 Q1264.9844,656.8906 1264.3516,657.2188 Q1263.7188,657.5469 1263.2266,658.2969 Q1262.7344,659.0469 1262.7344,660.0781 L1262.7344,661.1719 Q1262.7344,662.4063 1263.625,663.2266 Q1264.5156,664.0469 1266.1094,664.0469 Q1267.0469,664.0469 1267.7031,663.7969 Q1268.0938,663.6406 1268.5156,663.2031 Q1268.7813,662.9375 1268.9297,662.8594 Q1269.0781,662.7813 1269.2813,662.7813 Q1269.6094,662.7813 1269.8672,663.0391 Q1270.125,663.2969 1270.125,663.6406 Q1270.125,663.9844 1269.7813,664.3906 Q1269.2813,664.9688 1268.4844,665.2969 Q1267.4063,665.75 1266.1094,665.75 Q1264.5938,665.75 1263.3906,665.125 Q1262.4063,664.625 1261.7188,663.5547 Q1261.0313,662.4844 1261.0313,661.2031 L1261.0313,660.0469 Q1261.0313,658.7188 1261.6484,657.5703 Q1262.2656,656.4219 1263.3594,655.8047 Q1264.4531,655.1875 1265.6875,655.1875 Q1266.4219,655.1875 1267.0703,655.3516 Q1267.7188,655.5156 1268.2656,655.875 Z " fill="#000000"/><text fill="#000000" font-family="sans-serif" font-size="12" lengthAdjust="spacing" textLength="96" x="1279.5" y="664.9102">StringArgEncoder</text><line style="stroke:#A80036;stroke-width:1.5;" x1="1251.5" x2="1377.5" y1="676" y2="676"/><line style="stroke:#A80036;stroke-width:1.5;" x1="1251.5" x2="1377.5" y1="684" y2="684"/><!--MD5=[0746544628c1c6fdce9c9fa0b183308f]
class RawArgEncoder--><rect codeLine="54" fill="#FEFECE" filter="url(#f1a1t5xtw8f1dt)" height="48" id="RawArgEncoder" style="stroke:#A80036;stroke-width:1.5;" width="121" x="750" y="644"/><ellipse cx="765" cy="660" fill="#ADD1B2" rx="11" ry="11" style="stroke:#A80036;stroke-width:1.0;"/><path d="M767.7656,655.875 Q767.9219,655.6563 768.1094,655.5469 Q768.2969,655.4375 768.5156,655.4375 Q768.8906,655.4375 769.125,655.6953 Q769.3594,655.9531 769.3594,656.5625 L769.3594,658.0156 Q769.3594,658.625 769.125,658.8906 Q768.8906,659.1563 768.5156,659.1563 Q768.1719,659.1563 767.9688,658.9531 Q767.7656,658.7656 767.6563,658.25 Q767.6094,657.8906 767.4219,657.7031 Q767.0938,657.3281 766.4844,657.1094 Q765.875,656.8906 765.25,656.8906 Q764.4844,656.8906 763.8516,657.2188 Q763.2188,657.5469 762.7266,658.2969 Q762.2344,659.0469 762.2344,660.0781 L762.2344,661.1719 Q762.2344,662.4063 763.125,663.2266 Q764.0156,664.0469 765.6094,664.0469 Q766.5469,664.0469 767.2031,663.7969 Q767.5938,663.6406 768.0156,663.2031 Q768.2813,662.9375 768.4297,662.8594 Q768.5781,662.7813 768.7813,662.7813 Q769.1094,662.7813 769.3672,663.0391 Q769.625,663.2969 769.625,663.6406 Q769.625,663.9844 769.2813,664.3906 Q768.7813,664.9688 767.9844,665.2969 Q766.9063,665.75 765.6094,665.75 Q764.0938,665.75 762.8906,665.125 Q761.9063,664.625 761.2188,663.5547 Q760.5313,662.4844 760.5313,661.2031 L760.5313,660.0469 Q760.5313,658.7188 761.1484,657.5703 Q761.7656,656.4219 762.8594,655.8047 Q763.9531,655.1875 765.1875,655.1875 Q765.9219,655.1875 766.5703,655.3516 Q767.2188,655.5156 767.7656,655.875 Z " fill="#000000"/><text fill="#000000" font-family="sans-serif" font-size="12" lengthAdjust="spacing" textLength="89" x="779" y="664.9102">RawArgEncoder</text><line style="stroke:#A80036;stroke-width:1.5;" x1="751" x2="870" y1="676" y2="676"/><line style="stroke:#A80036;stroke-width:1.5;" x1="751" x2="870" y1="684" y2="684"/><!--MD5=[67c441653a918cc89ed76fa9bbc8d3f1]
class NonVerboseArgEncoder--><rect codeLine="55" fill="#FEFECE" filter="url(#f1a1t5xtw8f1dt)" height="48" id="NonVerboseArgEncoder" style="stroke:#A80036;stroke-width:1.5;" width="165" x="550" y="644"/><ellipse cx="565" cy="660" fill="#ADD1B2" rx="11" ry="11" style="stroke:#A80036;stroke-width:1.0;"/><path d="M567.7656,655.875 Q567.9219,655.6563 568.1094,655.5469 Q568.2969,655.4375 568.5156,655.4375 Q568.8906,655.4375 569.125,655.6953 Q569.3594,655.9531 569.3594,656.5625 L569.3594,658.0156 Q569.3594,658.625 569.125,658.8906 Q568.8906,659.1563 568.5156,659.1563 Q568.1719,659.1563 567.9688,658.9531 Q567.7656,658.7656 567.6563,658.25 Q567.6094,657.8906 567.4219,657.7031 Q567.0938,657.3281 566.4844,657.1094 Q565.875,656.8906 565.25,656.8906 Q564.4844,656.8906 563.8516,657.2188 Q563.2188,657.5469 562.7266,658.2969 Q562.2344,659.0469 562.2344,660.0781 L562.2344,661.1719 Q562.2344,662.4063 563.125,663.2266 Q564.0156,664.0469 565.6094,664.0469 Q566.5469,664.0469 567.2031,663.7969 Q567.5938,663.6406 568.0156,663.2031 Q568.2813,662.9375 568.4297,662.8594 Q568.5781,662.7813 568.7813,662.7813 Q569.1094,662.7813 569.3672,663.0391 Q569.625,663.2969 569.625,663.6406 Q569.625,663.9844 569.2813,664.3906 Q568.7813,664.9688 567.9844,665.2969 Q566.9063,665.75 565.6094,665.75 Q564.0938,665.75 562.8906,665.125 Q561.9063,664.625 561.2188,663.5547 Q560.5313,662.4844 560.5313,661.2031 L560.5313,660.0469 Q560.5313,658.7188 561.1484,657.5703 Q561.7656,656.4219 562.8594,655.8047 Q563.9531,655.1875 565.1875,655.1875 Q565.9219,655.1875 566.5703,655.3516 Q567.2188,655.5156 567.7656,655.875 Z " fill="#000000"/><text fill="#000000" font-family="sans-serif" font-size="12" lengthAdjust="spacing" textLength="133" x="579" y="664.9102">NonVerboseArgEncoder</text><line style="stroke:#A80036;stroke-width:1.5;" x1="551" x2="714" y1="676" y2="676"/><line style="stroke:#A80036;stroke-width:1.5;" x1="551" x2="714" y1="684" y2="684"/><!--MD5=[b95d21ec3c3da8c1b5931f72b23f66a9]
class UnknownVerboseArgEncoder--><rect codeLine="56" fill="#FEFECE" filter="url(#f1a1t5xtw8f1dt)" height="48" id="UnknownVerboseArgEncoder" style="stroke:#A80036;stroke-width:1.5;" width="194" x="320.5" y="644"/><ellipse cx="335.5" cy="660" fill="#ADD1B2" rx="11" ry="11" style="stroke:#A80036;stroke-width:1.0;"/><path d="M338.2656,655.875 Q338.4219,655.6563 338.6094,655.5469 Q338.7969,655.4375 339.0156,655.4375 Q339.3906,655.4375 339.625,655.6953 Q339.8594,655.9531 339.8594,656.5625 L339.8594,658.0156 Q339.8594,658.625 339.625,658.8906 Q339.3906,659.1563 339.0156,659.1563 Q338.6719,659.1563 338.4688,658.9531 Q338.2656,658.7656 338.1563,658.25 Q338.1094,657.8906 337.9219,657.7031 Q337.5938,657.3281 336.9844,657.1094 Q336.375,656.8906 335.75,656.8906 Q334.9844,656.8906 334.3516,657.2188 Q333.7188,657.5469 333.2266,658.2969 Q332.7344,659.0469 332.7344,660.0781 L332.7344,661.1719 Q332.7344,662.4063 333.625,663.2266 Q334.5156,664.0469 336.1094,664.0469 Q337.0469,664.0469 337.7031,663.7969 Q338.0938,663.6406 338.5156,663.2031 Q338.7813,662.9375 338.9297,662.8594 Q339.0781,662.7813 339.2813,662.7813 Q339.6094,662.7813 339.8672,663.0391 Q340.125,663.2969 340.125,663.6406 Q340.125,663.9844 339.7813,664.3906 Q339.2813,664.9688 338.4844,665.2969 Q337.4063,665.75 336.1094,665.75 Q334.5938,665.75 333.3906,665.125 Q332.4063,664.625 331.7188,663.5547 Q331.0313,662.4844 331.0313,661.2031 L331.0313,660.0469 Q331.0313,658.7188 331.6484,657.5703 Q332.2656,656.4219 333.3594,655.8047 Q334.4531,655.1875 335.6875,655.1875 Q336.4219,655.1875 337.0703,655.3516 Q337.7188,655.5156 338.2656,655.875 Z " fill="#000000"/><text fill="#000000" font-family="sans-serif" font-size="12" lengthAdjust="spacing" textLength="162" x="349.5" y="664.9102">UnknownVerboseArgEncoder</text><line style="stroke:#A80036;stroke-width:1.5;" x1="321.5" x2="513.5" y1="676" y2="676"/><line style="stroke:#A80036;stroke-width:1.5;" x1="321.5" x2="513.5" y1="684" y2="684"/><!--MD5=[584669a0ed286870cad57e16f4431256]
class BinaryIntDltArg--><rect fill="#FEFECE" filter="url(#f1a1t5xtw8f1dt)" height="48" id="BinaryIntDltArg" style="stroke:#A80036;stroke-width:1.5;" width="112" x="1783.5" y="788"/><ellipse cx="1798.5" cy="804" fill="#ADD1B2" rx="11" ry="11" style="stroke:#A80036;stroke-width:1.0;"/><path d="M1801.2656,799.875 Q1801.4219,799.6563 1801.6094,799.5469 Q1801.7969,799.4375 1802.0156,799.4375 Q1802.3906,799.4375 1802.625,799.6953 Q1802.8594,799.9531 1802.8594,800.5625 L1802.8594,802.0156 Q1802.8594,802.625 1802.625,802.8906 Q1802.3906,803.1563 1802.0156,803.1563 Q1801.6719,803.1563 1801.4688,802.9531 Q1801.2656,802.7656 1801.1563,802.25 Q1801.1094,801.8906 1800.9219,801.7031 Q1800.5938,801.3281 1799.9844,801.1094 Q1799.375,800.8906 1798.75,800.8906 Q1797.9844,800.8906 1797.3516,801.2188 Q1796.7188,801.5469 1796.2266,802.2969 Q1795.7344,803.0469 1795.7344,804.0781 L1795.7344,805.1719 Q1795.7344,806.4063 1796.625,807.2266 Q1797.5156,808.0469 1799.1094,808.0469 Q1800.0469,808.0469 1800.7031,807.7969 Q1801.0938,807.6406 1801.5156,807.2031 Q1801.7813,806.9375 1801.9297,806.8594 Q1802.0781,806.7813 1802.2813,806.7813 Q1802.6094,806.7813 1802.8672,807.0391 Q1803.125,807.2969 1803.125,807.6406 Q1803.125,807.9844 1802.7813,808.3906 Q1802.2813,808.9688 1801.4844,809.2969 Q1800.4063,809.75 1799.1094,809.75 Q1797.5938,809.75 1796.3906,809.125 Q1795.4063,808.625 1794.7188,807.5547 Q1794.0313,806.4844 1794.0313,805.2031 L1794.0313,804.0469 Q1794.0313,802.7188 1794.6484,801.5703 Q1795.2656,800.4219 1796.3594,799.8047 Q1797.4531,799.1875 1798.6875,799.1875 Q1799.4219,799.1875 1800.0703,799.3516 Q1800.7188,799.5156 1801.2656,799.875 Z " fill="#000000"/><text fill="#000000" font-family="sans-serif" font-size="12" lengthAdjust="spacing" textLength="80" x="1812.5" y="808.9102">BinaryIntDltArg</text><line style="stroke:#A80036;stroke-width:1.5;" x1="1784.5" x2="1894.5" y1="820" y2="820"/><line style="stroke:#A80036;stroke-width:1.5;" x1="1784.5" x2="1894.5" y1="828" y2="828"/><!--MD5=[5b44a63c92af40190428db9752e4a224]
class HexIntDltArg--><rect fill="#FEFECE" filter="url(#f1a1t5xtw8f1dt)" height="48" id="HexIntDltArg" style="stroke:#A80036;stroke-width:1.5;" width="99" x="1962" y="788"/><ellipse cx="1977" cy="804" fill="#ADD1B2" rx="11" ry="11" style="stroke:#A80036;stroke-width:1.0;"/><path d="M1979.7656,799.875 Q1979.9219,799.6563 1980.1094,799.5469 Q1980.2969,799.4375 1980.5156,799.4375 Q1980.8906,799.4375 1981.125,799.6953 Q1981.3594,799.9531 1981.3594,800.5625 L1981.3594,802.0156 Q1981.3594,802.625 1981.125,802.8906 Q1980.8906,803.1563 1980.5156,803.1563 Q1980.1719,803.1563 1979.9688,802.9531 Q1979.7656,802.7656 1979.6563,802.25 Q1979.6094,801.8906 1979.4219,801.7031 Q1979.0938,801.3281 1978.4844,801.1094 Q1977.875,800.8906 1977.25,800.8906 Q1976.4844,800.8906 1975.8516,801.2188 Q1975.2188,801.5469 1974.7266,802.2969 Q1974.2344,803.0469 1974.2344,804.0781 L1974.2344,805.1719 Q1974.2344,806.4063 1975.125,807.2266 Q1976.0156,808.0469 1977.6094,808.0469 Q1978.5469,808.0469 1979.2031,807.7969 Q1979.5938,807.6406 1980.0156,807.2031 Q1980.2813,806.9375 1980.4297,806.8594 Q1980.5781,806.7813 1980.7813,806.7813 Q1981.1094,806.7813 1981.3672,807.0391 Q1981.625,807.2969 1981.625,807.6406 Q1981.625,807.9844 1981.2813,808.3906 Q1980.7813,808.9688 1979.9844,809.2969 Q1978.9063,809.75 1977.6094,809.75 Q1976.0938,809.75 1974.8906,809.125 Q1973.9063,808.625 1973.2188,807.5547 Q1972.5313,806.4844 1972.5313,805.2031 L1972.5313,804.0469 Q1972.5313,802.7188 1973.1484,801.5703 Q1973.7656,800.4219 1974.8594,799.8047 Q1975.9531,799.1875 1977.1875,799.1875 Q1977.9219,799.1875 1978.5703,799.3516 Q1979.2188,799.5156 1979.7656,799.875 Z " fill="#000000"/><text fill="#000000" font-family="sans-serif" font-size="12" lengthAdjust="spacing" textLength="67" x="1991" y="808.9102">HexIntDltArg</text><line style="stroke:#A80036;stroke-width:1.5;" x1="1963" x2="2060" y1="820" y2="820"/><line style="stroke:#A80036;stroke-width:1.5;" x1="1963" x2="2060" y1="828" y2="828"/><!--MD5=[530b5da5bd258ad0d6915bceb12a6485]
class SignedIntDltArg--><rect fill="#FEFECE" filter="url(#f1a1t5xtw8f1dt)" height="48" id="SignedIntDltArg" style="stroke:#A80036;stroke-width:1.5;" width="117" x="2127" y="788"/><ellipse cx="2142" cy="804" fill="#ADD1B2" rx="11" ry="11" style="stroke:#A80036;stroke-width:1.0;"/><path d="M2144.7656,799.875 Q2144.9219,799.6563 2145.1094,799.5469 Q2145.2969,799.4375 2145.5156,799.4375 Q2145.8906,799.4375 2146.125,799.6953 Q2146.3594,799.9531 2146.3594,800.5625 L2146.3594,802.0156 Q2146.3594,802.625 2146.125,802.8906 Q2145.8906,803.1563 2145.5156,803.1563 Q2145.1719,803.1563 2144.9688,802.9531 Q2144.7656,802.7656 2144.6563,802.25 Q2144.6094,801.8906 2144.4219,801.7031 Q2144.0938,801.3281 2143.4844,801.1094 Q2142.875,800.8906 2142.25,800.8906 Q2141.4844,800.8906 2140.8516,801.2188 Q2140.2188,801.5469 2139.7266,802.2969 Q2139.2344,803.0469 2139.2344,804.0781 L2139.2344,805.1719 Q2139.2344,806.4063 2140.125,807.2266 Q2141.0156,808.0469 2142.6094,808.0469 Q2143.5469,808.0469 2144.2031,807.7969 Q2144.5938,807.6406 2145.0156,807.2031 Q2145.2813,806.9375 2145.4297,806.8594 Q2145.5781,806.7813 2145.7813,806.7813 Q2146.1094,806.7813 2146.3672,807.0391 Q2146.625,807.2969 2146.625,807.6406 Q2146.625,807.9844 2146.2813,808.3906 Q2145.7813,808.9688 2144.9844,809.2969 Q2143.9063,809.75 2142.6094,809.75 Q2141.0938,809.75 2139.8906,809.125 Q2138.9063,808.625 2138.2188,807.5547 Q2137.5313,806.4844 2137.5313,805.2031 L2137.5313,804.0469 Q2137.5313,802.7188 2138.1484,801.5703 Q2138.7656,800.4219 2139.8594,799.8047 Q2140.9531,799.1875 2142.1875,799.1875 Q2142.9219,799.1875 2143.5703,799.3516 Q2144.2188,799.5156 2144.7656,799.875 Z " fill="#000000"/><text fill="#000000" font-family="sans-serif" font-size="12" lengthAdjust="spacing" textLength="85" x="2156" y="808.9102">SignedIntDltArg</text><line style="stroke:#A80036;stroke-width:1.5;" x1="2128" x2="2243" y1="820" y2="820"/><line style="stroke:#A80036;stroke-width:1.5;" x1="2128" x2="2243" y1="828" y2="828"/><!--MD5=[15300c896cacb1acf95f152b7691e7f6]
class UnsignedIntDltArg--><rect fill="#FEFECE" filter="url(#f1a1t5xtw8f1dt)" height="48" id="UnsignedIntDltArg" style="stroke:#A80036;stroke-width:1.5;" width="132" x="1585.5" y="788"/><ellipse cx="1600.5" cy="804" fill="#ADD1B2" rx="11" ry="11" style="stroke:#A80036;stroke-width:1.0;"/><path d="M1603.2656,799.875 Q1603.4219,799.6563 1603.6094,799.5469 Q1603.7969,799.4375 1604.0156,799.4375 Q1604.3906,799.4375 1604.625,799.6953 Q1604.8594,799.9531 1604.8594,800.5625 L1604.8594,802.0156 Q1604.8594,802.625 1604.625,802.8906 Q1604.3906,803.1563 1604.0156,803.1563 Q1603.6719,803.1563 1603.4688,802.9531 Q1603.2656,802.7656 1603.1563,802.25 Q1603.1094,801.8906 1602.9219,801.7031 Q1602.5938,801.3281 1601.9844,801.1094 Q1601.375,800.8906 1600.75,800.8906 Q1599.9844,800.8906 1599.3516,801.2188 Q1598.7188,801.5469 1598.2266,802.2969 Q1597.7344,803.0469 1597.7344,804.0781 L1597.7344,805.1719 Q1597.7344,806.4063 1598.625,807.2266 Q1599.5156,808.0469 1601.1094,808.0469 Q1602.0469,808.0469 1602.7031,807.7969 Q1603.0938,807.6406 1603.5156,807.2031 Q1603.7813,806.9375 1603.9297,806.8594 Q1604.0781,806.7813 1604.2813,806.7813 Q1604.6094,806.7813 1604.8672,807.0391 Q1605.125,807.2969 1605.125,807.6406 Q1605.125,807.9844 1604.7813,808.3906 Q1604.2813,808.9688 1603.4844,809.2969 Q1602.4063,809.75 1601.1094,809.75 Q1599.5938,809.75 1598.3906,809.125 Q1597.4063,808.625 1596.7188,807.5547 Q1596.0313,806.4844 1596.0313,805.2031 L1596.0313,804.0469 Q1596.0313,802.7188 1596.6484,801.5703 Q1597.2656,800.4219 1598.3594,799.8047 Q1599.4531,799.1875 1600.6875,799.1875 Q1601.4219,799.1875 1602.0703,799.3516 Q1602.7188,799.5156 1603.2656,799.875 Z " fill="#000000"/><text fill="#000000" font-family="sans-serif" font-size="12" lengthAdjust="spacing" textLength="100" x="1614.5" y="808.9102">UnsignedIntDltArg</text><line style="stroke:#A80036;stroke-width:1.5;" x1="1586.5" x2="1716.5" y1="820" y2="820"/><line style="stroke:#A80036;stroke-width:1.5;" x1="1586.5" x2="1716.5" y1="828" y2="828"/><!--MD5=[9304c627579e6c09a83b65d2b6fe9ffa]
class BoolDltArg--><rect fill="#FEFECE" filter="url(#f1a1t5xtw8f1dt)" height="48" id="BoolDltArg" style="stroke:#A80036;stroke-width:1.5;" width="90" x="1429.5" y="788"/><ellipse cx="1444.5" cy="804" fill="#ADD1B2" rx="11" ry="11" style="stroke:#A80036;stroke-width:1.0;"/><path d="M1447.2656,799.875 Q1447.4219,799.6563 1447.6094,799.5469 Q1447.7969,799.4375 1448.0156,799.4375 Q1448.3906,799.4375 1448.625,799.6953 Q1448.8594,799.9531 1448.8594,800.5625 L1448.8594,802.0156 Q1448.8594,802.625 1448.625,802.8906 Q1448.3906,803.1563 1448.0156,803.1563 Q1447.6719,803.1563 1447.4688,802.9531 Q1447.2656,802.7656 1447.1563,802.25 Q1447.1094,801.8906 1446.9219,801.7031 Q1446.5938,801.3281 1445.9844,801.1094 Q1445.375,800.8906 1444.75,800.8906 Q1443.9844,800.8906 1443.3516,801.2188 Q1442.7188,801.5469 1442.2266,802.2969 Q1441.7344,803.0469 1441.7344,804.0781 L1441.7344,805.1719 Q1441.7344,806.4063 1442.625,807.2266 Q1443.5156,808.0469 1445.1094,808.0469 Q1446.0469,808.0469 1446.7031,807.7969 Q1447.0938,807.6406 1447.5156,807.2031 Q1447.7813,806.9375 1447.9297,806.8594 Q1448.0781,806.7813 1448.2813,806.7813 Q1448.6094,806.7813 1448.8672,807.0391 Q1449.125,807.2969 1449.125,807.6406 Q1449.125,807.9844 1448.7813,808.3906 Q1448.2813,808.9688 1447.4844,809.2969 Q1446.4063,809.75 1445.1094,809.75 Q1443.5938,809.75 1442.3906,809.125 Q1441.4063,808.625 1440.7188,807.5547 Q1440.0313,806.4844 1440.0313,805.2031 L1440.0313,804.0469 Q1440.0313,802.7188 1440.6484,801.5703 Q1441.2656,800.4219 1442.3594,799.8047 Q1443.4531,799.1875 1444.6875,799.1875 Q1445.4219,799.1875 1446.0703,799.3516 Q1446.7188,799.5156 1447.2656,799.875 Z " fill="#000000"/><text fill="#000000" font-family="sans-serif" font-size="12" lengthAdjust="spacing" textLength="58" x="1458.5" y="808.9102">BoolDltArg</text><line style="stroke:#A80036;stroke-width:1.5;" x1="1430.5" x2="1518.5" y1="820" y2="820"/><line style="stroke:#A80036;stroke-width:1.5;" x1="1430.5" x2="1518.5" y1="828" y2="828"/><!--MD5=[bd995735bdc22093cef67c0a3dd15675]
class Float32DltArg--><rect fill="#FEFECE" filter="url(#f1a1t5xtw8f1dt)" height="48" id="Float32DltArg" style="stroke:#A80036;stroke-width:1.5;" width="106" x="944.5" y="788"/><ellipse cx="959.5" cy="804" fill="#ADD1B2" rx="11" ry="11" style="stroke:#A80036;stroke-width:1.0;"/><path d="M962.2656,799.875 Q962.4219,799.6563 962.6094,799.5469 Q962.7969,799.4375 963.0156,799.4375 Q963.3906,799.4375 963.625,799.6953 Q963.8594,799.9531 963.8594,800.5625 L963.8594,802.0156 Q963.8594,802.625 963.625,802.8906 Q963.3906,803.1563 963.0156,803.1563 Q962.6719,803.1563 962.4688,802.9531 Q962.2656,802.7656 962.1563,802.25 Q962.1094,801.8906 961.9219,801.7031 Q961.5938,801.3281 960.9844,801.1094 Q960.375,800.8906 959.75,800.8906 Q958.9844,800.8906 958.3516,801.2188 Q957.7188,801.5469 957.2266,802.2969 Q956.7344,803.0469 956.7344,804.0781 L956.7344,805.1719 Q956.7344,806.4063 957.625,807.2266 Q958.5156,808.0469 960.1094,808.0469 Q961.0469,808.0469 961.7031,807.7969 Q962.0938,807.6406 962.5156,807.2031 Q962.7813,806.9375 962.9297,806.8594 Q963.0781,806.7813 963.2813,806.7813 Q963.6094,806.7813 963.8672,807.0391 Q964.125,807.2969 964.125,807.6406 Q964.125,807.9844 963.7813,808.3906 Q963.2813,808.9688 962.4844,809.2969 Q961.4063,809.75 960.1094,809.75 Q958.5938,809.75 957.3906,809.125 Q956.4063,808.625 955.7188,807.5547 Q955.0313,806.4844 955.0313,805.2031 L955.0313,804.0469 Q955.0313,802.7188 955.6484,801.5703 Q956.2656,800.4219 957.3594,799.8047 Q958.4531,799.1875 959.6875,799.1875 Q960.4219,799.1875 961.0703,799.3516 Q961.7188,799.5156 962.2656,799.875 Z " fill="#000000"/><text fill="#000000" font-family="sans-serif" font-size="12" lengthAdjust="spacing" textLength="74" x="973.5" y="808.9102">Float32DltArg</text><line style="stroke:#A80036;stroke-width:1.5;" x1="945.5" x2="1049.5" y1="820" y2="820"/><line style="stroke:#A80036;stroke-width:1.5;" x1="945.5" x2="1049.5" y1="828" y2="828"/><!--MD5=[4f58334fec0bd3ff1f53f8383a615e86]
class Float64DltArg--><rect fill="#FEFECE" filter="url(#f1a1t5xtw8f1dt)" height="48" id="Float64DltArg" style="stroke:#A80036;stroke-width:1.5;" width="106" x="1093.5" y="788"/><ellipse cx="1108.5" cy="804" fill="#ADD1B2" rx="11" ry="11" style="stroke:#A80036;stroke-width:1.0;"/><path d="M1111.2656,799.875 Q1111.4219,799.6563 1111.6094,799.5469 Q1111.7969,799.4375 1112.0156,799.4375 Q1112.3906,799.4375 1112.625,799.6953 Q1112.8594,799.9531 1112.8594,800.5625 L1112.8594,802.0156 Q1112.8594,802.625 1112.625,802.8906 Q1112.3906,803.1563 1112.0156,803.1563 Q1111.6719,803.1563 1111.4688,802.9531 Q1111.2656,802.7656 1111.1563,802.25 Q1111.1094,801.8906 1110.9219,801.7031 Q1110.5938,801.3281 1109.9844,801.1094 Q1109.375,800.8906 1108.75,800.8906 Q1107.9844,800.8906 1107.3516,801.2188 Q1106.7188,801.5469 1106.2266,802.2969 Q1105.7344,803.0469 1105.7344,804.0781 L1105.7344,805.1719 Q1105.7344,806.4063 1106.625,807.2266 Q1107.5156,808.0469 1109.1094,808.0469 Q1110.0469,808.0469 1110.7031,807.7969 Q1111.0938,807.6406 1111.5156,807.2031 Q1111.7813,806.9375 1111.9297,806.8594 Q1112.0781,806.7813 1112.2813,806.7813 Q1112.6094,806.7813 1112.8672,807.0391 Q1113.125,807.2969 1113.125,807.6406 Q1113.125,807.9844 1112.7813,808.3906 Q1112.2813,808.9688 1111.4844,809.2969 Q1110.4063,809.75 1109.1094,809.75 Q1107.5938,809.75 1106.3906,809.125 Q1105.4063,808.625 1104.7188,807.5547 Q1104.0313,806.4844 1104.0313,805.2031 L1104.0313,804.0469 Q1104.0313,802.7188 1104.6484,801.5703 Q1105.2656,800.4219 1106.3594,799.8047 Q1107.4531,799.1875 1108.6875,799.1875 Q1109.4219,799.1875 1110.0703,799.3516 Q1110.7188,799.5156 1111.2656,799.875 Z " fill="#000000"/><text fill="#000000" font-family="sans-serif" font-size="12" lengthAdjust="spacing" textLength="74" x="1122.5" y="808.9102">Float64DltArg</text><line style="stroke:#A80036;stroke-width:1.5;" x1="1094.5" x2="1198.5" y1="820" y2="820"/><line style="stroke:#A80036;stroke-width:1.5;" x1="1094.5" x2="1198.5" y1="828" y2="828"/><!--MD5=[9384f9af5873042c459e7cb65aa0b775]
class StringDltArg--><rect fill="#FEFECE" filter="url(#f1a1t5xtw8f1dt)" height="48" id="StringDltArg" style="stroke:#A80036;stroke-width:1.5;" width="97" x="1266" y="788"/><ellipse cx="1281" cy="804" fill="#ADD1B2" rx="11" ry="11" style="stroke:#A80036;stroke-width:1.0;"/><path d="M1283.7656,799.875 Q1283.9219,799.6563 1284.1094,799.5469 Q1284.2969,799.4375 1284.5156,799.4375 Q1284.8906,799.4375 1285.125,799.6953 Q1285.3594,799.9531 1285.3594,800.5625 L1285.3594,802.0156 Q1285.3594,802.625 1285.125,802.8906 Q1284.8906,803.1563 1284.5156,803.1563 Q1284.1719,803.1563 1283.9688,802.9531 Q1283.7656,802.7656 1283.6563,802.25 Q1283.6094,801.8906 1283.4219,801.7031 Q1283.0938,801.3281 1282.4844,801.1094 Q1281.875,800.8906 1281.25,800.8906 Q1280.4844,800.8906 1279.8516,801.2188 Q1279.2188,801.5469 1278.7266,802.2969 Q1278.2344,803.0469 1278.2344,804.0781 L1278.2344,805.1719 Q1278.2344,806.4063 1279.125,807.2266 Q1280.0156,808.0469 1281.6094,808.0469 Q1282.5469,808.0469 1283.2031,807.7969 Q1283.5938,807.6406 1284.0156,807.2031 Q1284.2813,806.9375 1284.4297,806.8594 Q1284.5781,806.7813 1284.7813,806.7813 Q1285.1094,806.7813 1285.3672,807.0391 Q1285.625,807.2969 1285.625,807.6406 Q1285.625,807.9844 1285.2813,808.3906 Q1284.7813,808.9688 1283.9844,809.2969 Q1282.9063,809.75 1281.6094,809.75 Q1280.0938,809.75 1278.8906,809.125 Q1277.9063,808.625 1277.2188,807.5547 Q1276.5313,806.4844 1276.5313,805.2031 L1276.5313,804.0469 Q1276.5313,802.7188 1277.1484,801.5703 Q1277.7656,800.4219 1278.8594,799.8047 Q1279.9531,799.1875 1281.1875,799.1875 Q1281.9219,799.1875 1282.5703,799.3516 Q1283.2188,799.5156 1283.7656,799.875 Z " fill="#000000"/><text fill="#000000" font-family="sans-serif" font-size="12" lengthAdjust="spacing" textLength="65" x="1295" y="808.9102">StringDltArg</text><line style="stroke:#A80036;stroke-width:1.5;" x1="1267" x2="1362" y1="820" y2="820"/><line style="stroke:#A80036;stroke-width:1.5;" x1="1267" x2="1362" y1="828" y2="828"/><!--MD5=[751ce3d3b962032c2311a8f3a883c70d]
class RawDltArg--><rect fill="#FEFECE" filter="url(#f1a1t5xtw8f1dt)" height="48" id="RawDltArg" style="stroke:#A80036;stroke-width:1.5;" width="90" x="617.5" y="788"/><ellipse cx="632.5" cy="804" fill="#ADD1B2" rx="11" ry="11" style="stroke:#A80036;stroke-width:1.0;"/><path d="M635.2656,799.875 Q635.4219,799.6563 635.6094,799.5469 Q635.7969,799.4375 636.0156,799.4375 Q636.3906,799.4375 636.625,799.6953 Q636.8594,799.9531 636.8594,800.5625 L636.8594,802.0156 Q636.8594,802.625 636.625,802.8906 Q636.3906,803.1563 636.0156,803.1563 Q635.6719,803.1563 635.4688,802.9531 Q635.2656,802.7656 635.1563,802.25 Q635.1094,801.8906 634.9219,801.7031 Q634.5938,801.3281 633.9844,801.1094 Q633.375,800.8906 632.75,800.8906 Q631.9844,800.8906 631.3516,801.2188 Q630.7188,801.5469 630.2266,802.2969 Q629.7344,803.0469 629.7344,804.0781 L629.7344,805.1719 Q629.7344,806.4063 630.625,807.2266 Q631.5156,808.0469 633.1094,808.0469 Q634.0469,808.0469 634.7031,807.7969 Q635.0938,807.6406 635.5156,807.2031 Q635.7813,806.9375 635.9297,806.8594 Q636.0781,806.7813 636.2813,806.7813 Q636.6094,806.7813 636.8672,807.0391 Q637.125,807.2969 637.125,807.6406 Q637.125,807.9844 636.7813,808.3906 Q636.2813,808.9688 635.4844,809.2969 Q634.4063,809.75 633.1094,809.75 Q631.5938,809.75 630.3906,809.125 Q629.4063,808.625 628.7188,807.5547 Q628.0313,806.4844 628.0313,805.2031 L628.0313,804.0469 Q628.0313,802.7188 628.6484,801.5703 Q629.2656,800.4219 630.3594,799.8047 Q631.4531,799.1875 632.6875,799.1875 Q633.4219,799.1875 634.0703,799.3516 Q634.7188,799.5156 635.2656,799.875 Z " fill="#000000"/><text fill="#000000" font-family="sans-serif" font-size="12" lengthAdjust="spacing" textLength="58" x="646.5" y="808.9102">RawDltArg</text><line style="stroke:#A80036;stroke-width:1.5;" x1="618.5" x2="706.5" y1="820" y2="820"/><line style="stroke:#A80036;stroke-width:1.5;" x1="618.5" x2="706.5" y1="828" y2="828"/><!--MD5=[c8aecec8061000234456f93801020997]
class NonVerboseDltArg--><rect fill="#FEFECE" filter="url(#f1a1t5xtw8f1dt)" height="48" id="NonVerboseDltArg" style="stroke:#A80036;stroke-width:1.5;" width="134" x="775.5" y="788"/><ellipse cx="790.5" cy="804" fill="#ADD1B2" rx="11" ry="11" style="stroke:#A80036;stroke-width:1.0;"/><path d="M793.2656,799.875 Q793.4219,799.6563 793.6094,799.5469 Q793.7969,799.4375 794.0156,799.4375 Q794.3906,799.4375 794.625,799.6953 Q794.8594,799.9531 794.8594,800.5625 L794.8594,802.0156 Q794.8594,802.625 794.625,802.8906 Q794.3906,803.1563 794.0156,803.1563 Q793.6719,803.1563 793.4688,802.9531 Q793.2656,802.7656 793.1563,802.25 Q793.1094,801.8906 792.9219,801.7031 Q792.5938,801.3281 791.9844,801.1094 Q791.375,800.8906 790.75,800.8906 Q789.9844,800.8906 789.3516,801.2188 Q788.7188,801.5469 788.2266,802.2969 Q787.7344,803.0469 787.7344,804.0781 L787.7344,805.1719 Q787.7344,806.4063 788.625,807.2266 Q789.5156,808.0469 791.1094,808.0469 Q792.0469,808.0469 792.7031,807.7969 Q793.0938,807.6406 793.5156,807.2031 Q793.7813,806.9375 793.9297,806.8594 Q794.0781,806.7813 794.2813,806.7813 Q794.6094,806.7813 794.8672,807.0391 Q795.125,807.2969 795.125,807.6406 Q795.125,807.9844 794.7813,808.3906 Q794.2813,808.9688 793.4844,809.2969 Q792.4063,809.75 791.1094,809.75 Q789.5938,809.75 788.3906,809.125 Q787.4063,808.625 786.7188,807.5547 Q786.0313,806.4844 786.0313,805.2031 L786.0313,804.0469 Q786.0313,802.7188 786.6484,801.5703 Q787.2656,800.4219 788.3594,799.8047 Q789.4531,799.1875 790.6875,799.1875 Q791.4219,799.1875 792.0703,799.3516 Q792.7188,799.5156 793.2656,799.875 Z " fill="#000000"/><text fill="#000000" font-family="sans-serif" font-size="12" lengthAdjust="spacing" textLength="102" x="804.5" y="808.9102">NonVerboseDltArg</text><line style="stroke:#A80036;stroke-width:1.5;" x1="776.5" x2="908.5" y1="820" y2="820"/><line style="stroke:#A80036;stroke-width:1.5;" x1="776.5" x2="908.5" y1="828" y2="828"/><!--MD5=[5604cc107f2bd7e22425b88332a60917]
class UnknownVerboseDltArg--><rect fill="#FEFECE" filter="url(#f1a1t5xtw8f1dt)" height="48" id="UnknownVerboseDltArg" style="stroke:#A80036;stroke-width:1.5;" width="163" x="395" y="788"/><ellipse cx="410" cy="804" fill="#ADD1B2" rx="11" ry="11" style="stroke:#A80036;stroke-width:1.0;"/><path d="M412.7656,799.875 Q412.9219,799.6563 413.1094,799.5469 Q413.2969,799.4375 413.5156,799.4375 Q413.8906,799.4375 414.125,799.6953 Q414.3594,799.9531 414.3594,800.5625 L414.3594,802.0156 Q414.3594,802.625 414.125,802.8906 Q413.8906,803.1563 413.5156,803.1563 Q413.1719,803.1563 412.9688,802.9531 Q412.7656,802.7656 412.6563,802.25 Q412.6094,801.8906 412.4219,801.7031 Q412.0938,801.3281 411.4844,801.1094 Q410.875,800.8906 410.25,800.8906 Q409.4844,800.8906 408.8516,801.2188 Q408.2188,801.5469 407.7266,802.2969 Q407.2344,803.0469 407.2344,804.0781 L407.2344,805.1719 Q407.2344,806.4063 408.125,807.2266 Q409.0156,808.0469 410.6094,808.0469 Q411.5469,808.0469 412.2031,807.7969 Q412.5938,807.6406 413.0156,807.2031 Q413.2813,806.9375 413.4297,806.8594 Q413.5781,806.7813 413.7813,806.7813 Q414.1094,806.7813 414.3672,807.0391 Q414.625,807.2969 414.625,807.6406 Q414.625,807.9844 414.2813,808.3906 Q413.7813,808.9688 412.9844,809.2969 Q411.9063,809.75 410.6094,809.75 Q409.0938,809.75 407.8906,809.125 Q406.9063,808.625 406.2188,807.5547 Q405.5313,806.4844 405.5313,805.2031 L405.5313,804.0469 Q405.5313,802.7188 406.1484,801.5703 Q406.7656,800.4219 407.8594,799.8047 Q408.9531,799.1875 410.1875,799.1875 Q410.9219,799.1875 411.5703,799.3516 Q412.2188,799.5156 412.7656,799.875 Z " fill="#000000"/><text fill="#000000" font-family="sans-serif" font-size="12" lengthAdjust="spacing" textLength="131" x="424" y="808.9102">UnknownVerboseDltArg</text><line style="stroke:#A80036;stroke-width:1.5;" x1="396" x2="557" y1="820" y2="820"/><line style="stroke:#A80036;stroke-width:1.5;" x1="396" x2="557" y1="828" y2="828"/><!--MD5=[c22323dd1c4151d1a00f36187bcb54c9]
reverse link IDisposable to ITraceEncoder--><path codeLine="6" d="M546.5,75.42 C546.5,88.82 546.5,103.28 546.5,115.61 " fill="none" id="IDisposable-backto-ITraceEncoder" style="stroke:#A80036;stroke-width:1.0;stroke-dasharray:7.0,7.0;"/><polygon fill="none" points="539.5,75.07,546.5,55.07,553.5,75.07,539.5,75.07" style="stroke:#A80036;stroke-width:1.0;"/><!--MD5=[743f4453b45b18e879bfa4d4b4711942]
reverse link ITraceEncoderFactory to DltTraceEncoderFactory--><path codeLine="15" d="M156.5,198.41 C156.5,217.66 156.5,238.99 156.5,255.79 " fill="none" id="ITraceEncoderFactory-backto-DltTraceEncoderFactory" style="stroke:#A80036;stroke-width:1.0;stroke-dasharray:7.0,7.0;"/><polygon fill="none" points="149.5,198.28,156.5,178.28,163.5,198.28,149.5,198.28" style="stroke:#A80036;stroke-width:1.0;"/><text fill="#000000" font-family="sans-serif" font-size="13" lengthAdjust="spacing" textLength="153" x="157.5" y="222.4951">TLine -&gt; DltTraceLineBase</text><!--MD5=[f059986529b2b4c81376e873afa2327e]
reverse link ITraceEncoder to DltTraceEncoder--><path codeLine="20" d="M546.5,198.41 C546.5,217.66 546.5,238.99 546.5,255.79 " fill="none" id="ITraceEncoder-backto-DltTraceEncoder" style="stroke:#A80036;stroke-width:1.0;stroke-dasharray:7.0,7.0;"/><polygon fill="none" points="539.5,198.28,546.5,178.28,553.5,198.28,539.5,198.28" style="stroke:#A80036;stroke-width:1.0;"/><text fill="#000000" font-family="sans-serif" font-size="13" lengthAdjust="spacing" textLength="153" x="547.5" y="222.4951">TLine -&gt; DltTraceLineBase</text><!--MD5=[5520f4b9bfd96b2e3a03ee9f851472ca]
link DltTraceEncoderFactory to DltTraceEncoder--><path codeLine="21" d="M306.17,287 C335.11,287 365.45,287 394.46,287 " fill="none" id="DltTraceEncoderFactory-to-DltTraceEncoder" style="stroke:#A80036;stroke-width:1.0;"/><polygon fill="#A80036" points="399.48,287,390.48,283,394.48,287,390.48,291,399.48,287" style="stroke:#A80036;stroke-width:1.0;"/><text fill="#000000" font-family="sans-serif" font-size="13" lengthAdjust="spacing" textLength="57" x="324.25" y="280.4951">creates</text><!--MD5=[65d3f88fcc55ae65339fe5f668783dc8]
reverse link IDltEncoder to VerboseDltEncoder--><path codeLine="30" d="M546.5,461.41 C546.5,480.66 546.5,501.99 546.5,518.79 " fill="none" id="IDltEncoder-backto-VerboseDltEncoder" style="stroke:#A80036;stroke-width:1.0;stroke-dasharray:7.0,7.0;"/><polygon fill="none" points="539.5,461.28,546.5,441.28,553.5,461.28,539.5,461.28" style="stroke:#A80036;stroke-width:1.0;"/><text fill="#000000" font-family="sans-serif" font-size="13" lengthAdjust="spacing" textLength="123" x="547.5" y="485.4951">TLine -&gt; DltTraceLine</text><!--MD5=[c10ba2a4c2206f86f093c5724762e2d9]
reverse link IArgEncoder to DltArgEncoder--><path codeLine="39" d="M1254.36,454.11 C1279.61,475.11 1309.36,499.84 1332.16,518.79 " fill="none" id="IArgEncoder-backto-DltArgEncoder" style="stroke:#A80036;stroke-width:1.0;stroke-dasharray:7.0,7.0;"/><polygon fill="none" points="1249.83,459.45,1238.93,441.28,1258.78,448.69,1249.83,459.45" style="stroke:#A80036;stroke-width:1.0;"/><!--MD5=[ae2cd070edd2cab09bb115bb88e0196a]
reverse link VerboseDltEncoder to DltArgEncoder--><path codeLine="40" d="M694.69,550 C858.79,550 1022.89,550 1186.98,550 " fill="none" id="VerboseDltEncoder-backto-DltArgEncoder" style="stroke:#A80036;stroke-width:1.0;"/><polygon fill="#A80036" points="681.36,550,687.36,554,693.36,550,687.36,546,681.36,550" style="stroke:#A80036;stroke-width:1.0;"/><!--MD5=[ba8209c47a24740eb77ae852ac41f942]
reverse link IArgEncoder to BinaryIntArgEncoder--><path codeLine="57" d="M1404.07,425.74 C1460.74,434.59 1521.36,448.66 1574.5,471 C1675.25,513.36 1773.18,601.62 1816.41,643.7 " fill="none" id="IArgEncoder-backto-BinaryIntArgEncoder" style="stroke:#A80036;stroke-width:1.0;stroke-dasharray:7.0,7.0;"/><polygon fill="none" points="1402.98,432.66,1384.21,422.83,1405.02,418.81,1402.98,432.66" style="stroke:#A80036;stroke-width:1.0;"/><!--MD5=[5aed64833bc03253cb953b13dfeec736]
reverse link IArgEncoder to HexIntArgEncoder--><path codeLine="58" d="M1404.15,429.54 C1472.66,438.63 1549.14,451.89 1617.5,471 C1670.05,485.69 1680.68,496.74 1730.5,519 C1818.36,558.26 1842.55,563.96 1926.5,611 C1944.23,620.93 1963.18,633.24 1978.68,643.79 " fill="none" id="IArgEncoder-backto-HexIntArgEncoder" style="stroke:#A80036;stroke-width:1.0;stroke-dasharray:7.0,7.0;"/><polygon fill="none" points="1403.06,436.46,1384.11,426.97,1404.84,422.57,1403.06,436.46" style="stroke:#A80036;stroke-width:1.0;"/><!--MD5=[b159b959a3b3231b4941514ba210291c]
reverse link IArgEncoder to SignedIntArgEncoder--><path codeLine="59" d="M1404.18,429.45 C1486.66,438.94 1582.68,452.49 1668.5,471 C1859.2,512.12 1906.68,530.78 2084.5,611 C2105.88,620.65 2128.82,633.17 2147.42,643.93 " fill="none" id="IArgEncoder-backto-SignedIntArgEncoder" style="stroke:#A80036;stroke-width:1.0;stroke-dasharray:7.0,7.0;"/><polygon fill="none" points="1403.15,436.38,1384.06,427.19,1404.72,422.47,1403.15,436.38" style="stroke:#A80036;stroke-width:1.0;"/><!--MD5=[e0ad61f3839ecee07e81b6026d41820b]
reverse link IArgEncoder to UnsignedIntArgEncoder--><path codeLine="60" d="M1403.91,433.63 C1446.71,442.33 1490.9,454.36 1530.5,471 C1564.6,485.33 1576.11,489.55 1598.5,519 C1627.57,557.24 1641.72,612.85 1647.72,643.88 " fill="none" id="IArgEncoder-backto-UnsignedIntArgEncoder" style="stroke:#A80036;stroke-width:1.0;stroke-dasharray:7.0,7.0;"/><polygon fill="none" points="1402.34,440.46,1384.03,429.8,1404.99,426.71,1402.34,440.46" style="stroke:#A80036;stroke-width:1.0;"/><!--MD5=[be5df2e6cf675927e88dc03fea03e238]
reverse link IArgEncoder to BoolArgEncoder--><path codeLine="61" d="M1392,445.49 C1468.79,463.67 1544.76,488.56 1567.5,519 C1583.99,541.08 1578.54,555.75 1567.5,581 C1556.13,606.99 1532.61,628.63 1512.06,643.69 " fill="none" id="IArgEncoder-backto-BoolArgEncoder" style="stroke:#A80036;stroke-width:1.0;stroke-dasharray:7.0,7.0;"/><polygon fill="none" points="1390.42,452.31,1372.5,441.01,1393.56,438.67,1390.42,452.31" style="stroke:#A80036;stroke-width:1.0;"/><!--MD5=[6e9e10a4ecdb160f909aeea27bc53efa]
reverse link IArgEncoder to Float32ArgEncoder--><path codeLine="62" d="M1116,451.58 C1107.24,457.45 1098.87,463.93 1091.5,471 C1037.71,522.55 999.82,604.09 983.49,643.77 " fill="none" id="IArgEncoder-backto-Float32ArgEncoder" style="stroke:#A80036;stroke-width:1.0;stroke-dasharray:7.0,7.0;"/><polygon fill="none" points="1112.45,445.54,1133.16,441.03,1119.79,457.46,1112.45,445.54" style="stroke:#A80036;stroke-width:1.0;"/><!--MD5=[69c8e910a7d48f264de2bb7b867a146c]
reverse link IArgEncoder to Float64ArgEncoder--><path codeLine="63" d="M1120.16,454.11 C1115.23,459.21 1110.9,464.83 1107.5,471 C1076.35,527.52 1111.05,605.37 1132.36,643.73 " fill="none" id="IArgEncoder-backto-Float64ArgEncoder" style="stroke:#A80036;stroke-width:1.0;stroke-dasharray:7.0,7.0;"/><polygon fill="none" points="1115.63,448.77,1135.36,441.06,1124.75,459.39,1115.63,448.77" style="stroke:#A80036;stroke-width:1.0;"/><!--MD5=[420101715a094d5329c3e5e0da1a4c77]
reverse link IArgEncoder to RawArgEncoder--><path codeLine="64" d="M1106.46,449.5 C1092.44,456.13 1078.4,463.37 1065.5,471 C975.38,524.29 880.48,604.66 836.15,643.86 " fill="none" id="IArgEncoder-backto-RawArgEncoder" style="stroke:#A80036;stroke-width:1.0;stroke-dasharray:7.0,7.0;"/><polygon fill="none" points="1103.68,443.07,1124.78,441.14,1109.49,455.81,1103.68,443.07" style="stroke:#A80036;stroke-width:1.0;"/><!--MD5=[7a25e60677257f397e352321cda11e14]
reverse link IArgEncoder to StringArgEncoder--><path codeLine="65" d="M1176.32,459.59 C1160.94,495.25 1148.28,543.75 1169.5,581 C1172.48,586.23 1231.5,620.25 1273.31,643.9 " fill="none" id="IArgEncoder-backto-StringArgEncoder" style="stroke:#A80036;stroke-width:1.0;stroke-dasharray:7.0,7.0;"/><polygon fill="none" points="1170.1,456.38,1184.94,441.26,1182.76,462.34,1170.1,456.38" style="stroke:#A80036;stroke-width:1.0;"/><!--MD5=[1660fd670621efaea9754d500fa7eed1]
reverse link IArgEncoder to NonVerboseArgEncoder--><path codeLine="66" d="M1094.41,447.62 C1072.55,455.21 1049.75,463.26 1028.5,471 C972.58,491.37 956.51,491.96 903.5,519 C835.96,553.45 829.49,580.57 760.5,612 C748.72,617.37 744.62,615.45 732.5,620 C714.18,626.87 694.58,635.73 677.64,643.9 " fill="none" id="IArgEncoder-backto-NonVerboseArgEncoder" style="stroke:#A80036;stroke-width:1.0;stroke-dasharray:7.0,7.0;"/><polygon fill="none" points="1092.14,441,1113.33,441.09,1096.71,454.24,1092.14,441" style="stroke:#A80036;stroke-width:1.0;"/><!--MD5=[e4349916ad7f106c9c8b4f3bd069f5ee]
reverse link IArgEncoder to UnknownVerboseArgEncoder--><path codeLine="67" d="M1061.32,446.03 C1030.34,454 997.76,462.6 967.5,471 C895.96,490.85 875.76,489.79 807.5,519 C756.26,540.92 750.38,560.64 698.5,581 C627.95,608.69 604.69,596.93 532.5,620 C511.34,626.76 488.59,635.69 468.96,643.95 " fill="none" id="IArgEncoder-backto-UnknownVerboseArgEncoder" style="stroke:#A80036;stroke-width:1.0;stroke-dasharray:7.0,7.0;"/><polygon fill="none" points="1059.77,439.2,1080.88,441.03,1063.24,452.77,1059.77,439.2" style="stroke:#A80036;stroke-width:1.0;"/><!--MD5=[098c45412a9c1d03d1bc81c351972dcf]
reverse link DltArgEncoder to BinaryIntArgEncoder--><path codeLine="69" d="M1563.12,574.31 C1624.12,584.75 1691.02,599.48 1750.5,620 C1768.17,626.1 1786.62,635.31 1802.11,643.97 " fill="none" id="DltArgEncoder-backto-BinaryIntArgEncoder" style="stroke:#A80036;stroke-width:1.0;"/><polygon fill="#A80036" points="1550.2,572.15,1555.4527,577.0905,1562.0335,574.142,1556.7808,569.2015,1550.2,572.15" style="stroke:#A80036;stroke-width:1.0;"/><!--MD5=[be1650883a861717cfbca76afeff7504]
reverse link DltArgEncoder to HexIntArgEncoder--><path codeLine="70" d="M1563.45,556.3 C1673.01,563.88 1810.96,581.19 1928.5,620 C1945.64,625.66 1963.23,635.02 1977.78,643.9 " fill="none" id="DltArgEncoder-backto-HexIntArgEncoder" style="stroke:#A80036;stroke-width:1.0;"/><polygon fill="#A80036" points="1550.23,555.43,1555.9532,559.8169,1562.2039,556.2212,1556.4807,551.8343,1550.23,555.43" style="stroke:#A80036;stroke-width:1.0;"/><!--MD5=[c7d2bb61df93976d8ca7d1782a810c98]
reverse link DltArgEncoder to SignedIntArgEncoder--><path codeLine="71" d="M1563.19,561.15 C1743.69,572.07 1998.38,591.76 2094.5,620 C2113.27,625.51 2132.71,634.97 2148.78,643.96 " fill="none" id="DltArgEncoder-backto-SignedIntArgEncoder" style="stroke:#A80036;stroke-width:1.0;"/><polygon fill="#A80036" points="1550.05,560.36,1555.802,564.7091,1562.0288,561.0724,1556.2769,556.7233,1550.05,560.36" style="stroke:#A80036;stroke-width:1.0;"/><!--MD5=[e27aa9fe50fa026be79814fed7f0b268]
reverse link DltArgEncoder to UnsignedIntArgEncoder--><path codeLine="72" d="M1465.7,585.7 C1493.89,596.24 1524.59,608.17 1552.5,620 C1569.84,627.35 1588.58,636.05 1605.03,643.95 " fill="none" id="DltArgEncoder-backto-UnsignedIntArgEncoder" style="stroke:#A80036;stroke-width:1.0;"/><polygon fill="#A80036" points="1453.36,581.12,1457.5968,586.9552,1464.6127,585.2886,1460.3759,579.4534,1453.36,581.12" style="stroke:#A80036;stroke-width:1.0;"/><!--MD5=[9c5c391c20cf0528fda8190fba60fc98]
reverse link DltArgEncoder to BoolArgEncoder--><path codeLine="73" d="M1405.25,591.22 C1421.35,608.84 1439.67,628.89 1453.43,643.94 " fill="none" id="DltArgEncoder-backto-BoolArgEncoder" style="stroke:#A80036;stroke-width:1.0;"/><polygon fill="#A80036" points="1396.07,581.17,1397.1642,588.2976,1404.1644,590.029,1403.0702,582.9014,1396.07,581.17" style="stroke:#A80036;stroke-width:1.0;"/><!--MD5=[93530887ecf35726129a1c3ed19aad4d]
reverse link DltArgEncoder to Float32ArgEncoder--><path codeLine="74" d="M1181.72,584.04 C1141.13,593.64 1098.87,605.54 1060.5,620 C1043.78,626.3 1026.31,635.34 1011.52,643.81 " fill="none" id="DltArgEncoder-backto-Float32ArgEncoder" style="stroke:#A80036;stroke-width:1.0;"/><polygon fill="#A80036" points="1194.54,581.07,1187.7907,578.531,1182.8511,583.7847,1189.6004,586.3236,1194.54,581.07" style="stroke:#A80036;stroke-width:1.0;"/><!--MD5=[c4239a2ca3e629a5fba9213ae5f5a008]
reverse link DltArgEncoder to Float64ArgEncoder--><path codeLine="75" d="M1297.01,587.15 C1276.46,597.65 1254.05,609.2 1233.5,620 C1218.91,627.67 1203.03,636.19 1188.88,643.86 " fill="none" id="DltArgEncoder-backto-Float64ArgEncoder" style="stroke:#A80036;stroke-width:1.0;"/><polygon fill="#A80036" points="1308.87,581.11,1301.7074,580.2753,1298.1821,586.566,1305.3447,587.4006,1308.87,581.11" style="stroke:#A80036;stroke-width:1.0;"/><!--MD5=[d2bd62cb63a46eeaffa8402f0a0a622e]
reverse link DltArgEncoder to RawArgEncoder--><path codeLine="76" d="M1173.72,575.4 C1053.35,591.12 916.77,610.36 889.5,620 C873.25,625.75 856.65,635.01 842.89,643.8 " fill="none" id="DltArgEncoder-backto-RawArgEncoder" style="stroke:#A80036;stroke-width:1.0;"/><polygon fill="#A80036" points="1186.81,573.69,1180.3418,570.5021,1174.9114,575.2466,1181.3796,578.4345,1186.81,573.69" style="stroke:#A80036;stroke-width:1.0;"/><!--MD5=[59b2260dbc3e2eb8b73192ed5cc8896d]
reverse link DltArgEncoder to StringArgEncoder--><path codeLine="77" d="M1348.85,593.2 C1340.88,610.33 1331.98,629.45 1325.24,643.94 " fill="none" id="DltArgEncoder-backto-StringArgEncoder" style="stroke:#A80036;stroke-width:1.0;"/><polygon fill="#A80036" points="1354.45,581.17,1348.2917,584.9217,1349.3862,592.0492,1355.5445,588.2976,1354.45,581.17" style="stroke:#A80036;stroke-width:1.0;"/><!--MD5=[968ebb00f3e7a5a62315db99a97420df]
reverse link DltArgEncoder to NonVerboseArgEncoder--><path codeLine="78" d="M1173.62,575.03 C1072.78,587.02 947.63,601.23 835.5,612 C789.79,616.39 776.89,608.27 732.5,620 C712.1,625.39 690.77,634.83 673.07,643.84 " fill="none" id="DltArgEncoder-backto-NonVerboseArgEncoder" style="stroke:#A80036;stroke-width:1.0;"/><polygon fill="#A80036" points="1186.74,573.46,1180.3079,570.2,1174.8247,574.8835,1181.2569,578.1435,1186.74,573.46" style="stroke:#A80036;stroke-width:1.0;"/><!--MD5=[c03aa9d5f87cf6cdb828b0de8b5ec905]
reverse link DltArgEncoder to UnknownVerboseArgEncoder--><path codeLine="79" d="M1173.71,573.47 C1052.89,586.63 894.36,602.47 753.5,612 C704.47,615.32 580.54,609.66 532.5,620 C508.88,625.08 483.92,634.72 463.31,643.94 " fill="none" id="DltArgEncoder-backto-UnknownVerboseArgEncoder" style="stroke:#A80036;stroke-width:1.0;"/><polygon fill="#A80036" points="1186.77,572.04,1180.3706,568.7162,1174.8412,573.3449,1181.2406,576.6687,1186.77,572.04" style="stroke:#A80036;stroke-width:1.0;"/><!--MD5=[bbf974fc5bfcceb4b72382435f28bfa0]
reverse link DltTraceEncoder to IDltEncoder--><path codeLine="81" d="M546.5,331.45 C546.5,347.12 546.5,364.45 546.5,378.74 " fill="none" id="DltTraceEncoder-backto-IDltEncoder" style="stroke:#A80036;stroke-width:1.0;"/><polygon fill="#A80036" points="546.5,318.22,542.5,324.22,546.5,330.22,550.5,324.22,546.5,318.22" style="stroke:#A80036;stroke-width:1.0;"/><!--MD5=[43257a1e25a63e64490f186f2d5177f1]
link BinaryIntArgEncoder to BinaryIntDltArg--><path codeLine="83" d="M1839.5,692.13 C1839.5,716.89 1839.5,756.17 1839.5,782.74 " fill="none" id="BinaryIntArgEncoder-to-BinaryIntDltArg" style="stroke:#A80036;stroke-width:1.0;"/><polygon fill="#A80036" points="1839.5,787.88,1843.5,778.88,1839.5,782.88,1835.5,778.88,1839.5,787.88" style="stroke:#A80036;stroke-width:1.0;"/><text fill="#000000" font-family="sans-serif" font-size="13" lengthAdjust="spacing" textLength="63" x="1840.5" y="746.4951">encodes</text><!--MD5=[721f28771af9c2ebadd1c79524ff9ef7]
link HexIntArgEncoder to HexIntDltArg--><path codeLine="84" d="M2011.5,692.13 C2011.5,716.89 2011.5,756.17 2011.5,782.74 " fill="none" id="HexIntArgEncoder-to-HexIntDltArg" style="stroke:#A80036;stroke-width:1.0;"/><polygon fill="#A80036" points="2011.5,787.88,2015.5,778.88,2011.5,782.88,2007.5,778.88,2011.5,787.88" style="stroke:#A80036;stroke-width:1.0;"/><text fill="#000000" font-family="sans-serif" font-size="13" lengthAdjust="spacing" textLength="63" x="2012.5" y="746.4951">encodes</text><!--MD5=[7fb6b0d9cc9b3285c2dd8a0cd0900751]
link SignedIntArgEncoder to SignedIntDltArg--><path codeLine="85" d="M2185.5,692.13 C2185.5,716.89 2185.5,756.17 2185.5,782.74 " fill="none" id="SignedIntArgEncoder-to-SignedIntDltArg" style="stroke:#A80036;stroke-width:1.0;"/><polygon fill="#A80036" points="2185.5,787.88,2189.5,778.88,2185.5,782.88,2181.5,778.88,2185.5,787.88" style="stroke:#A80036;stroke-width:1.0;"/><text fill="#000000" font-family="sans-serif" font-size="13" lengthAdjust="spacing" textLength="63" x="2186.5" y="746.4951">encodes</text><!--MD5=[4f4a3b0d5c8508ec5cbab0a116584dfc]
link UnsignedIntArgEncoder to UnsignedIntDltArg--><path codeLine="86" d="M1651.5,692.13 C1651.5,716.89 1651.5,756.17 1651.5,782.74 " fill="none" id="UnsignedIntArgEncoder-to-UnsignedIntDltArg" style="stroke:#A80036;stroke-width:1.0;"/><polygon fill="#A80036" points="1651.5,787.88,1655.5,778.88,1651.5,782.88,1647.5,778.88,1651.5,787.88" style="stroke:#A80036;stroke-width:1.0;"/><text fill="#000000" font-family="sans-serif" font-size="13" lengthAdjust="spacing" textLength="63" x="1652.5" y="746.4951">encodes</text><!--MD5=[7e9a0a83af909b0720f00a075c2f32e2]
link BoolArgEncoder to BoolDltArg--><path codeLine="87" d="M1474.5,692.13 C1474.5,716.89 1474.5,756.17 1474.5,782.74 " fill="none" id="BoolArgEncoder-to-BoolDltArg" style="stroke:#A80036;stroke-width:1.0;"/><polygon fill="#A80036" points="1474.5,787.88,1478.5,778.88,1474.5,782.88,1470.5,778.88,1474.5,787.88" style="stroke:#A80036;stroke-width:1.0;"/><text fill="#000000" font-family="sans-serif" font-size="13" lengthAdjust="spacing" textLength="63" x="1475.5" y="746.4951">encodes</text><!--MD5=[2d74c3d6efd32684781399015a291b59]
link Float32ArgEncoder to Float32DltArg--><path codeLine="88" d="M978.25,692.13 C982.26,716.89 988.62,756.17 992.92,782.74 " fill="none" id="Float32ArgEncoder-to-Float32DltArg" style="stroke:#A80036;stroke-width:1.0;"/><polygon fill="#A80036" points="993.76,787.88,996.2663,778.3554,992.9589,782.9446,988.3697,779.6372,993.76,787.88" style="stroke:#A80036;stroke-width:1.0;"/><text fill="#000000" font-family="sans-serif" font-size="13" lengthAdjust="spacing" textLength="63" x="989.5" y="746.4951">encodes</text><!--MD5=[3663330a6e4b4a4690bab89813248697]
link Float64ArgEncoder to Float64DltArg--><path codeLine="89" d="M1146.5,692.13 C1146.5,716.89 1146.5,756.17 1146.5,782.74 " fill="none" id="Float64ArgEncoder-to-Float64DltArg" style="stroke:#A80036;stroke-width:1.0;"/><polygon fill="#A80036" points="1146.5,787.88,1150.5,778.88,1146.5,782.88,1142.5,778.88,1146.5,787.88" style="stroke:#A80036;stroke-width:1.0;"/><text fill="#000000" font-family="sans-serif" font-size="13" lengthAdjust="spacing" textLength="63" x="1147.5" y="746.4951">encodes</text><!--MD5=[358a230eacceb6582849cccffb7705da]
link StringArgEncoder to StringDltArg--><path codeLine="90" d="M1314.5,692.13 C1314.5,716.89 1314.5,756.17 1314.5,782.74 " fill="none" id="StringArgEncoder-to-StringDltArg" style="stroke:#A80036;stroke-width:1.0;"/><polygon fill="#A80036" points="1314.5,787.88,1318.5,778.88,1314.5,782.88,1310.5,778.88,1314.5,787.88" style="stroke:#A80036;stroke-width:1.0;"/><text fill="#000000" font-family="sans-serif" font-size="13" lengthAdjust="spacing" textLength="63" x="1315.5" y="746.4951">encodes</text><!--MD5=[2034f1e70fbab9c14e61f7b7ebc1293f]
link RawArgEncoder to RawDltArg--><path codeLine="91" d="M774.63,692.16 C761.43,701.38 746.74,712.53 734.5,724 C715.11,742.17 696.08,765.48 682.45,783.4 " fill="none" id="RawArgEncoder-to-RawDltArg" style="stroke:#A80036;stroke-width:1.0;"/><polygon fill="#A80036" points="679.11,787.83,687.7291,783.0645,682.126,783.842,681.3484,778.2389,679.11,787.83" style="stroke:#A80036;stroke-width:1.0;"/><text fill="#000000" font-family="sans-serif" font-size="13" lengthAdjust="spacing" textLength="63" x="735.5" y="746.4951">encodes</text><!--MD5=[2af069c3c1368b6bfcf4cc181dea35a7]
link NonVerboseArgEncoder to RawDltArg--><path codeLine="92" d="M626.92,692.19 C623.54,710.46 621,736.36 627.5,758 C630.2,767 634.99,775.88 640.16,783.72 " fill="none" id="NonVerboseArgEncoder-to-RawDltArg" style="stroke:#A80036;stroke-width:1.0;"/><polygon fill="#A80036" points="643.07,787.97,641.3059,778.2804,640.2538,783.8386,634.6956,782.7864,643.07,787.97" style="stroke:#A80036;stroke-width:1.0;"/><text fill="#000000" font-family="sans-serif" font-size="13" lengthAdjust="spacing" textLength="65" x="628.5" y="738.4951">&lt;&lt;encodes</text><text fill="#000000" font-family="sans-serif" font-size="13" lengthAdjust="spacing" textLength="60" x="631" y="754.8467">verbose&gt;&gt;</text><!--MD5=[9a887051fa88c2a06a6e48a255772f5b]
link NonVerboseArgEncoder to NonVerboseDltArg--><path codeLine="93" d="M673.65,692.06 C691.27,700.94 712.38,710.31 732.5,716 C747.78,720.32 790.68,714.64 803.5,724 C822.48,737.86 832.4,763.1 837.48,782.84 " fill="none" id="NonVerboseArgEncoder-to-NonVerboseDltArg" style="stroke:#A80036;stroke-width:1.0;"/><polygon fill="#A80036" points="838.66,787.73,840.4115,778.0381,837.4742,782.8726,832.6397,779.9354,838.66,787.73" style="stroke:#A80036;stroke-width:1.0;"/><text fill="#000000" font-family="sans-serif" font-size="13" lengthAdjust="spacing" textLength="65" x="837.5" y="738.4951">&lt;&lt;encodes</text><text fill="#000000" font-family="sans-serif" font-size="13" lengthAdjust="spacing" textLength="81" x="829.5" y="754.8467">nonverbose&gt;&gt;</text><!--MD5=[81ab0216c3dbf594c6a73c9136589686]
link NonVerboseArgEncoder to UnknownVerboseDltArg--><path codeLine="94" d="M593.34,692.13 C579.22,701.27 563.55,712.36 550.5,724 C530.28,742.04 510.56,765.61 496.57,783.67 " fill="none" id="NonVerboseArgEncoder-to-UnknownVerboseDltArg" style="stroke:#A80036;stroke-width:1.0;"/><polygon fill="#A80036" points="493.49,787.67,502.1389,782.9587,496.531,783.701,495.7886,778.0931,493.49,787.67" style="stroke:#A80036;stroke-width:1.0;"/><text fill="#000000" font-family="sans-serif" font-size="13" lengthAdjust="spacing" textLength="63" x="551.5" y="746.4951">encodes</text><!--MD5=[a6c4398af25b435b5b8850da81df18a6]
link UnknownVerboseArgEncoder to UnknownVerboseDltArg--><path codeLine="95" d="M412.1,692.02 C408.9,710.66 407.1,737.15 416.5,758 C421.02,768.02 428.47,776.9 436.61,784.4 " fill="none" id="UnknownVerboseArgEncoder-to-UnknownVerboseDltArg" style="stroke:#A80036;stroke-width:1.0;"/><polygon fill="#A80036" points="440.65,787.97,436.5638,779.0088,436.9067,784.6553,431.2602,784.9982,440.65,787.97" style="stroke:#A80036;stroke-width:1.0;"/><text fill="#000000" font-family="sans-serif" font-size="13" lengthAdjust="spacing" textLength="63" x="417.5" y="746.4951">encodes</text><!--MD5=[b99952e7913f1765f7a27a1f880df400]
@startuml DLT.WriterEncoder
interface IDisposable

interface ITraceEncoder<TLine:ITraceLine> {
    +Encode(buffer: Span<byte>, line: TLine): int
}
IDisposable <|.d. ITraceEncoder

interface ITraceEncoderFactory<TLine:ITraceLine> {
    +Create(): ITraceEncoder<TLine>
}

class DltTraceEncoderFactory<TLine:DltTraceLineBase> {
    +Create() : ITraceEncoder<DltTraceLineBase>
}
ITraceEncoderFactory <|.d. DltTraceEncoderFactory : TLine -> DltTraceLineBase

class DltTraceEncoder<TLine:DltTraceLineBase> {
    +Encode(buffer: Span<byte>, line: DltTraceLineBase): int
}
ITraceEncoder <|.d. DltTraceEncoder : TLine -> DltTraceLineBase
DltTraceEncoderFactory -r-> DltTraceEncoder : <<creates>>

interface IDltEncoder<TLine:DltTraceLineBase> {
   +Encode(buffer: Span<byte>, line: TLine): int
}

class VerboseDltEncoder<TLine:DltTraceLine> {
    +Encode(buffer: Span<byte>, line: DltTraceLine): int
}
IDltEncoder <|.d. VerboseDltEncoder : TLine -> DltTraceLine

interface IArgEncoder {
    +Encode(buffer: Span<byte>, bool verbose, bool msbf, arg: IDltArg): int
}

class DltArgEncoder {
    +Encode(buffer: Span<byte>, bool verbose, bool msbf, arg: IDltArg): int
}
IArgEncoder <|.d. DltArgEncoder
VerboseDltEncoder *-r- DltArgEncoder

class BoolArgEncoder
together {
    class BinaryIntArgEncoder
    class HexIntArgEncoder
    class SignedIntArgEncoder
    class UnsignedIntArgEncoder
}
together {
    class Float32ArgEncoder
    class Float64ArgEncoder
}
class StringArgEncoder
class RawArgEncoder
class NonVerboseArgEncoder
class UnknownVerboseArgEncoder
IArgEncoder <|..d. BinaryIntArgEncoder
IArgEncoder <|..d. HexIntArgEncoder
IArgEncoder <|..d. SignedIntArgEncoder
IArgEncoder <|..d. UnsignedIntArgEncoder
IArgEncoder <|..d. BoolArgEncoder
IArgEncoder <|..d. Float32ArgEncoder
IArgEncoder <|..d. Float64ArgEncoder
IArgEncoder <|..d. RawArgEncoder
IArgEncoder <|..d. StringArgEncoder
IArgEncoder <|..d. NonVerboseArgEncoder
IArgEncoder <|..d. UnknownVerboseArgEncoder

DltArgEncoder *-d- BinaryIntArgEncoder
DltArgEncoder *-d- HexIntArgEncoder
DltArgEncoder *-d- SignedIntArgEncoder
DltArgEncoder *-d- UnsignedIntArgEncoder
DltArgEncoder *-d- BoolArgEncoder
DltArgEncoder *-d- Float32ArgEncoder
DltArgEncoder *-d- Float64ArgEncoder
DltArgEncoder *-d- RawArgEncoder
DltArgEncoder *-d- StringArgEncoder
DltArgEncoder *-d- NonVerboseArgEncoder
DltArgEncoder *-d- UnknownVerboseArgEncoder

DltTraceEncoder *-d- IDltEncoder

BinaryIntArgEncoder -d-> BinaryIntDltArg : <<encodes>>
HexIntArgEncoder -d-> HexIntDltArg : <<encodes>>
SignedIntArgEncoder -d-> SignedIntDltArg : <<encodes>>
UnsignedIntArgEncoder -d-> UnsignedIntDltArg : <<encodes>>
BoolArgEncoder -d-> BoolDltArg : <<encodes>>
Float32ArgEncoder -d-> Float32DltArg : <<encodes>>
Float64ArgEncoder -d-> Float64DltArg : <<encodes>>
StringArgEncoder -d-> StringDltArg : <<encodes>>
RawArgEncoder -d-> RawDltArg : <<encodes>>
NonVerboseArgEncoder -d-> RawDltArg : <<encodes\nverbose>>
NonVerboseArgEncoder -d-> NonVerboseDltArg : <<encodes\nnonverbose>>
NonVerboseArgEncoder -d-> UnknownVerboseDltArg : <<encodes>>
UnknownVerboseArgEncoder -d-> UnknownVerboseDltArg : <<encodes>>
@enduml

PlantUML version 1.2022.1(Tue Feb 01 19:19:58 CET 2022)
(GPL source distribution)
Java Runtime: Java(TM) SE Runtime Environment
JVM: Java HotSpot(TM) Client VM
Default Encoding: Cp1252
Language: en
Country: US
--></g></svg>