<?xml version="1.0" encoding="us-ascii" standalone="no"?><svg xmlns="http://www.w3.org/2000/svg" xmlns:xlink="http://www.w3.org/1999/xlink" contentStyleType="text/css" height="482px" preserveAspectRatio="none" style="width:1180px;height:482px;background:#FFFFFF;" version="1.1" viewBox="0 0 1180 482" width="1180px" zoomAndPan="magnify"><defs/><g><!--cluster Decoder--><g id="cluster_Decoder"><path d="M618.17,6 L686.17,6 A3.75,3.75 0 0 1 688.67,8.5 L695.67,28.2969 L1171.17,28.2969 A2.5,2.5 0 0 1 1173.67,30.7969 L1173.67,473.28 A2.5,2.5 0 0 1 1171.17,475.78 L618.17,475.78 A2.5,2.5 0 0 1 615.67,473.28 L615.67,8.5 A2.5,2.5 0 0 1 618.17,6 " fill="none" style="stroke:#000000;stroke-width:1.5;"/><line style="stroke:#000000;stroke-width:1.5;" x1="615.67" x2="695.67" y1="28.2969" y2="28.2969"/><text fill="#000000" font-family="sans-serif" font-size="14" font-weight="bold" lengthAdjust="spacing" textLength="67" x="619.67" y="20.9951">Decoder</text></g><!--class ITraceDecoder--><g id="elem_ITraceDecoder"><rect codeLine="4" fill="#F1F1F1" height="48" id="ITraceDecoder" rx="2.5" ry="2.5" style="stroke:#181818;stroke-width:0.5;" width="220" x="784.67" y="41"/><ellipse cx="799.67" cy="57" fill="#B4A7E5" rx="11" ry="11" style="stroke:#181818;stroke-width:1.0;"/><path d="M795.5919,52.7656 L795.5919,50.6094 L802.9825,50.6094 L802.9825,52.7656 L800.5138,52.7656 L800.5138,60.8438 L802.9825,60.8438 L802.9825,63 L795.5919,63 L795.5919,60.8438 L798.0606,60.8438 L798.0606,52.7656 L795.5919,52.7656 Z " fill="#000000"/><text fill="#000000" font-family="sans-serif" font-size="14" font-style="italic" lengthAdjust="spacing" textLength="102" x="813.67" y="61.8467">ITraceDecoder</text><rect fill="#FFFFFF" height="15.9688" style="stroke:#181818;stroke-width:1.0;stroke-dasharray:2.0,2.0;" width="84" x="923.67" y="38"/><text fill="#000000" font-family="sans-serif" font-size="12" font-style="italic" lengthAdjust="spacing" textLength="82" x="924.67" y="50.1387">T : ITraceLine</text><line style="stroke:#181818;stroke-width:0.5;" x1="785.67" x2="1003.67" y1="73" y2="73"/><line style="stroke:#181818;stroke-width:0.5;" x1="785.67" x2="1003.67" y1="81" y2="81"/></g><!--class TextDecoderBase--><g id="elem_TextDecoderBase"><rect codeLine="5" fill="#F1F1F1" height="153.7813" id="TextDecoderBase" rx="2.5" ry="2.5" style="stroke:#181818;stroke-width:0.5;" width="525" x="632.17" y="166"/><ellipse cx="784.92" cy="182" fill="#A9DCDF" rx="11" ry="11" style="stroke:#181818;stroke-width:1.0;"/><path d="M785.0294,177.3438 L783.8731,182.4219 L786.2013,182.4219 L785.0294,177.3438 Z M783.545,175.1094 L786.5294,175.1094 L789.8888,187.5 L787.4356,187.5 L786.67,184.4375 L783.3888,184.4375 L782.6388,187.5 L780.2013,187.5 L783.545,175.1094 Z " fill="#000000"/><text fill="#000000" font-family="sans-serif" font-size="14" font-style="italic" lengthAdjust="spacing" textLength="125" x="805.42" y="186.8467">TextDecoderBase</text><rect fill="#FFFFFF" height="15.9688" style="stroke:#181818;stroke-width:1.0;stroke-dasharray:2.0,2.0;" width="84" x="1076.17" y="163"/><text fill="#000000" font-family="sans-serif" font-size="12" font-style="italic" lengthAdjust="spacing" textLength="82" x="1077.17" y="175.1387">T : ITraceLine</text><line style="stroke:#181818;stroke-width:0.5;" x1="633.17" x2="1156.17" y1="198" y2="198"/><polygon fill="#FFFF44" points="643.17,206.6484,647.17,210.6484,643.17,214.6484,639.17,210.6484" style="stroke:#B38D22;stroke-width:1.0;"/><text fill="#000000" font-family="sans-serif" font-size="14" lengthAdjust="spacing" textLength="135" x="652.17" y="214.9951">TextDecoderBase()</text><polygon fill="#FFFF44" points="643.17,222.9453,647.17,226.9453,643.17,230.9453,639.17,226.9453" style="stroke:#B38D22;stroke-width:1.0;"/><text fill="#000000" font-family="sans-serif" font-size="14" lengthAdjust="spacing" textLength="274" x="652.17" y="231.292">TextDecoderBase(encoding: Encoding)</text><line style="stroke:#181818;stroke-width:1.0;stroke-dasharray:1.0,2.0;" x1="633.17" x2="1156.17" y1="238.5938" y2="238.5938"/><ellipse cx="643.17" cy="252.2422" fill="none" rx="3" ry="3" style="stroke:#038048;stroke-width:1.0;"/><text fill="#000000" font-family="sans-serif" font-size="14" lengthAdjust="spacing" textLength="139" x="652.17" y="255.5889">Encoding: Encoding</text><line style="stroke:#181818;stroke-width:1.0;stroke-dasharray:1.0,2.0;" x1="633.17" x2="1156.17" y1="262.8906" y2="262.8906"/><ellipse cx="643.17" cy="276.5391" fill="#84BE84" rx="3" ry="3" style="stroke:#038048;stroke-width:1.0;"/><text fill="#000000" font-family="sans-serif" font-size="14" lengthAdjust="spacing" textLength="499" x="652.17" y="279.8857">Decode(buffer: ReadOnlySpan&lt;byte&gt;, position: long): IEnumerable&lt;T&gt;</text><ellipse cx="643.17" cy="292.8359" fill="#84BE84" rx="3" ry="3" style="stroke:#038048;stroke-width:1.0;"/><text fill="#000000" font-family="sans-serif" font-size="14" lengthAdjust="spacing" textLength="175" x="652.17" y="296.1826">Flush(): IEnumerable&lt;T&gt;</text><polygon fill="#FFFF44" points="643.17,304.1328,647.17,308.1328,643.17,312.1328,639.17,308.1328" style="stroke:#B38D22;stroke-width:1.0;"/><text fill="#000000" font-family="sans-serif" font-size="14" lengthAdjust="spacing" textLength="305" x="652.17" y="312.4795">GetLine(line: Span&lt;char&gt;, position: long): T</text></g><!--class TextDecoder--><g id="elem_TextDecoder"><rect codeLine="16" fill="#F1F1F1" height="48" id="TextDecoder" rx="2.5" ry="2.5" style="stroke:#181818;stroke-width:0.5;" width="122" x="831.67" y="411.78"/><ellipse cx="846.67" cy="427.78" fill="#ADD1B2" rx="11" ry="11" style="stroke:#181818;stroke-width:1.0;"/><path d="M849.6388,433.4206 Q849.0606,433.7175 848.42,433.8581 Q847.7794,434.0144 847.0763,434.0144 Q844.5763,434.0144 843.2481,432.3738 Q841.9356,430.7175 841.9356,427.5925 Q841.9356,424.4675 843.2481,422.8113 Q844.5763,421.155 847.0763,421.155 Q847.7794,421.155 848.42,421.3113 Q849.0763,421.4675 849.6388,421.7644 L849.6388,424.4831 Q849.0138,423.905 848.42,423.6394 Q847.8263,423.3581 847.2013,423.3581 Q845.8575,423.3581 845.17,424.4363 Q844.4825,425.4988 844.4825,427.5925 Q844.4825,429.6863 845.17,430.7644 Q845.8575,431.8269 847.2013,431.8269 Q847.8263,431.8269 848.42,431.5613 Q849.0138,431.28 849.6388,430.7019 L849.6388,433.4206 Z " fill="#000000"/><text fill="#000000" font-family="sans-serif" font-size="14" lengthAdjust="spacing" textLength="90" x="860.67" y="432.6267">TextDecoder</text><line style="stroke:#181818;stroke-width:0.5;" x1="832.67" x2="952.67" y1="443.78" y2="443.78"/><line style="stroke:#181818;stroke-width:0.5;" x1="832.67" x2="952.67" y1="451.78" y2="451.78"/></g><!--class TeraTermDecoder--><g id="elem_TeraTermDecoder"><rect codeLine="17" fill="#F1F1F1" height="48" id="TeraTermDecoder" rx="2.5" ry="2.5" style="stroke:#181818;stroke-width:0.5;" width="159" x="634.17" y="411.78"/><ellipse cx="649.17" cy="427.78" fill="#ADD1B2" rx="11" ry="11" style="stroke:#181818;stroke-width:1.0;"/><path d="M652.1388,433.4206 Q651.5606,433.7175 650.92,433.8581 Q650.2794,434.0144 649.5763,434.0144 Q647.0763,434.0144 645.7481,432.3738 Q644.4356,430.7175 644.4356,427.5925 Q644.4356,424.4675 645.7481,422.8113 Q647.0763,421.155 649.5763,421.155 Q650.2794,421.155 650.92,421.3113 Q651.5763,421.4675 652.1388,421.7644 L652.1388,424.4831 Q651.5138,423.905 650.92,423.6394 Q650.3263,423.3581 649.7013,423.3581 Q648.3575,423.3581 647.67,424.4363 Q646.9825,425.4988 646.9825,427.5925 Q646.9825,429.6863 647.67,430.7644 Q648.3575,431.8269 649.7013,431.8269 Q650.3263,431.8269 650.92,431.5613 Q651.5138,431.28 652.1388,430.7019 L652.1388,433.4206 Z " fill="#000000"/><text fill="#000000" font-family="sans-serif" font-size="14" lengthAdjust="spacing" textLength="127" x="663.17" y="432.6267">TeraTermDecoder</text><line style="stroke:#181818;stroke-width:0.5;" x1="635.17" x2="792.17" y1="443.78" y2="443.78"/><line style="stroke:#181818;stroke-width:0.5;" x1="635.17" x2="792.17" y1="451.78" y2="451.78"/></g><!--class Main--><g id="elem_Main"><rect codeLine="1" fill="#F1F1F1" height="48" id="Main" rx="2.5" ry="2.5" style="stroke:#181818;stroke-width:0.5;" width="64" x="60.67" y="41"/><ellipse cx="75.67" cy="57" fill="#ADD1B2" rx="11" ry="11" style="stroke:#181818;stroke-width:1.0;"/><path d="M78.6388,62.6406 Q78.0606,62.9375 77.42,63.0781 Q76.7794,63.2344 76.0763,63.2344 Q73.5763,63.2344 72.2481,61.5938 Q70.9356,59.9375 70.9356,56.8125 Q70.9356,53.6875 72.2481,52.0313 Q73.5763,50.375 76.0763,50.375 Q76.7794,50.375 77.42,50.5313 Q78.0763,50.6875 78.6388,50.9844 L78.6388,53.7031 Q78.0138,53.125 77.42,52.8594 Q76.8263,52.5781 76.2013,52.5781 Q74.8575,52.5781 74.17,53.6563 Q73.4825,54.7188 73.4825,56.8125 Q73.4825,58.9063 74.17,59.9844 Q74.8575,61.0469 76.2013,61.0469 Q76.8263,61.0469 77.42,60.7813 Q78.0138,60.5 78.6388,59.9219 L78.6388,62.6406 Z " fill="#000000"/><text fill="#000000" font-family="sans-serif" font-size="14" lengthAdjust="spacing" textLength="32" x="89.67" y="61.8467">Main</text><line style="stroke:#181818;stroke-width:0.5;" x1="61.67" x2="123.67" y1="73" y2="73"/><line style="stroke:#181818;stroke-width:0.5;" x1="61.67" x2="123.67" y1="81" y2="81"/></g><!--class TraceReaderFactory--><g id="elem_TraceReaderFactory"><rect codeLine="24" fill="#F1F1F1" height="48" id="TraceReaderFactory" rx="2.5" ry="2.5" style="stroke:#181818;stroke-width:0.5;" width="257" x="286.17" y="41"/><ellipse cx="301.17" cy="57" fill="#A9DCDF" rx="11" ry="11" style="stroke:#181818;stroke-width:1.0;"/><path d="M301.2794,52.3438 L300.1231,57.4219 L302.4513,57.4219 L301.2794,52.3438 Z M299.795,50.1094 L302.7794,50.1094 L306.1388,62.5 L303.6856,62.5 L302.92,59.4375 L299.6388,59.4375 L298.8888,62.5 L296.4513,62.5 L299.795,50.1094 Z " fill="#000000"/><text fill="#000000" font-family="sans-serif" font-size="14" font-style="italic" lengthAdjust="spacing" textLength="139" x="315.17" y="61.8467">TraceReaderFactory</text><rect fill="#FFFFFF" height="15.9688" style="stroke:#181818;stroke-width:1.0;stroke-dasharray:2.0,2.0;" width="84" x="462.17" y="38"/><text fill="#000000" font-family="sans-serif" font-size="12" font-style="italic" lengthAdjust="spacing" textLength="82" x="463.17" y="50.1387">T : ITraceLine</text><line style="stroke:#181818;stroke-width:0.5;" x1="287.17" x2="542.17" y1="73" y2="73"/><line style="stroke:#181818;stroke-width:0.5;" x1="287.17" x2="542.17" y1="81" y2="81"/></g><!--class TraceReader--><g id="elem_TraceReader"><rect codeLine="25" fill="#F1F1F1" height="48" id="TraceReader" rx="2.5" ry="2.5" style="stroke:#181818;stroke-width:0.5;" width="207" x="92.17" y="411.78"/><ellipse cx="107.17" cy="427.78" fill="#ADD1B2" rx="11" ry="11" style="stroke:#181818;stroke-width:1.0;"/><path d="M110.1388,433.4206 Q109.5606,433.7175 108.92,433.8581 Q108.2794,434.0144 107.5763,434.0144 Q105.0763,434.0144 103.7481,432.3738 Q102.4356,430.7175 102.4356,427.5925 Q102.4356,424.4675 103.7481,422.8113 Q105.0763,421.155 107.5763,421.155 Q108.2794,421.155 108.92,421.3113 Q109.5763,421.4675 110.1388,421.7644 L110.1388,424.4831 Q109.5138,423.905 108.92,423.6394 Q108.3263,423.3581 107.7013,423.3581 Q106.3575,423.3581 105.67,424.4363 Q104.9825,425.4988 104.9825,427.5925 Q104.9825,429.6863 105.67,430.7644 Q106.3575,431.8269 107.7013,431.8269 Q108.3263,431.8269 108.92,431.5613 Q109.5138,431.28 110.1388,430.7019 L110.1388,433.4206 Z " fill="#000000"/><text fill="#000000" font-family="sans-serif" font-size="14" lengthAdjust="spacing" textLength="89" x="121.17" y="432.6267">TraceReader</text><rect fill="#FFFFFF" height="15.9688" style="stroke:#181818;stroke-width:1.0;stroke-dasharray:2.0,2.0;" width="84" x="218.17" y="408.78"/><text fill="#000000" font-family="sans-serif" font-size="12" font-style="italic" lengthAdjust="spacing" textLength="82" x="219.17" y="420.9187">T : ITraceLine</text><line style="stroke:#181818;stroke-width:0.5;" x1="93.17" x2="298.17" y1="443.78" y2="443.78"/><line style="stroke:#181818;stroke-width:0.5;" x1="93.17" x2="298.17" y1="451.78" y2="451.78"/></g><!--class TeraTermTraceReaderFactory--><g id="elem_TeraTermTraceReaderFactory"><rect codeLine="26" fill="#F1F1F1" height="48" id="TeraTermTraceReaderFactory" rx="2.5" ry="2.5" style="stroke:#181818;stroke-width:0.5;" width="238" x="105.67" y="218.89"/><ellipse cx="120.67" cy="234.89" fill="#ADD1B2" rx="11" ry="11" style="stroke:#181818;stroke-width:1.0;"/><path d="M123.6388,240.5306 Q123.0606,240.8275 122.42,240.9681 Q121.7794,241.1244 121.0763,241.1244 Q118.5763,241.1244 117.2481,239.4838 Q115.9356,237.8275 115.9356,234.7025 Q115.9356,231.5775 117.2481,229.9213 Q118.5763,228.265 121.0763,228.265 Q121.7794,228.265 122.42,228.4213 Q123.0763,228.5775 123.6388,228.8744 L123.6388,231.5931 Q123.0138,231.015 122.42,230.7494 Q121.8263,230.4681 121.2013,230.4681 Q119.8575,230.4681 119.17,231.5463 Q118.4825,232.6088 118.4825,234.7025 Q118.4825,236.7963 119.17,237.8744 Q119.8575,238.9369 121.2013,238.9369 Q121.8263,238.9369 122.42,238.6713 Q123.0138,238.39 123.6388,237.8119 L123.6388,240.5306 Z " fill="#000000"/><text fill="#000000" font-family="sans-serif" font-size="14" lengthAdjust="spacing" textLength="206" x="134.67" y="239.7367">TeraTermTraceReaderFactory</text><line style="stroke:#181818;stroke-width:0.5;" x1="106.67" x2="342.67" y1="250.89" y2="250.89"/><line style="stroke:#181818;stroke-width:0.5;" x1="106.67" x2="342.67" y1="258.89" y2="258.89"/></g><!--class TextTraceReaderFactory--><g id="elem_TextTraceReaderFactory"><rect codeLine="27" fill="#F1F1F1" height="48" id="TextTraceReaderFactory" rx="2.5" ry="2.5" style="stroke:#181818;stroke-width:0.5;" width="201" x="388.17" y="218.89"/><ellipse cx="403.17" cy="234.89" fill="#ADD1B2" rx="11" ry="11" style="stroke:#181818;stroke-width:1.0;"/><path d="M406.1387,240.5306 Q405.5606,240.8275 404.92,240.9681 Q404.2794,241.1244 403.5762,241.1244 Q401.0762,241.1244 399.7481,239.4838 Q398.4356,237.8275 398.4356,234.7025 Q398.4356,231.5775 399.7481,229.9213 Q401.0762,228.265 403.5762,228.265 Q404.2794,228.265 404.92,228.4213 Q405.5762,228.5775 406.1387,228.8744 L406.1387,231.5931 Q405.5137,231.015 404.92,230.7494 Q404.3262,230.4681 403.7012,230.4681 Q402.3575,230.4681 401.67,231.5463 Q400.9825,232.6088 400.9825,234.7025 Q400.9825,236.7963 401.67,237.8744 Q402.3575,238.9369 403.7012,238.9369 Q404.3262,238.9369 404.92,238.6713 Q405.5137,238.39 406.1387,237.8119 L406.1387,240.5306 Z " fill="#000000"/><text fill="#000000" font-family="sans-serif" font-size="14" lengthAdjust="spacing" textLength="169" x="417.17" y="239.7367">TextTraceReaderFactory</text><line style="stroke:#181818;stroke-width:0.5;" x1="389.17" x2="588.17" y1="250.89" y2="250.89"/><line style="stroke:#181818;stroke-width:0.5;" x1="389.17" x2="588.17" y1="258.89" y2="258.89"/></g><!--reverse link ITraceDecoder to TextDecoderBase--><g id="link_ITraceDecoder_TextDecoderBase"><path codeLine="20" d="M894.67,110.21 C894.67,127.07 894.67,146.79 894.67,165.77 " fill="none" id="ITraceDecoder-backto-TextDecoderBase" style="stroke:#181818;stroke-width:1.0;stroke-dasharray:7.0,7.0;"/><polygon fill="none" points="887.67,110.36,894.67,90.36,901.67,110.36,887.67,110.36" style="stroke:#181818;stroke-width:1.0;"/></g><!--reverse link TextDecoderBase to TextDecoder--><g id="link_TextDecoderBase_TextDecoder"><path codeLine="21" d="M893.65,340.8 C893.38,367.3 893.1,393.65 892.91,411.68 " fill="none" id="TextDecoderBase-backto-TextDecoder" style="stroke:#181818;stroke-width:1.0;"/><polygon fill="none" points="886.66,341.08,893.87,321.16,900.66,341.23,886.66,341.08" style="stroke:#181818;stroke-width:1.0;"/><text fill="#000000" font-family="sans-serif" font-size="13" lengthAdjust="spacing" textLength="87" x="893.67" y="370.3469">T &gt; TraceLine</text></g><!--reverse link TextDecoderBase to TeraTermDecoder--><g id="link_TextDecoderBase_TeraTermDecoder"><path codeLine="22" d="M786.76,334.82 C781.89,339.77 777.16,344.77 772.67,349.78 C755.27,369.17 738.65,393.86 727.51,411.63 " fill="none" id="TextDecoderBase-backto-TeraTermDecoder" style="stroke:#181818;stroke-width:1.0;"/><polygon fill="none" points="781.54,330.15,800.73,321.16,791.34,340.16,781.54,330.15" style="stroke:#181818;stroke-width:1.0;"/><text fill="#000000" font-family="sans-serif" font-size="13" lengthAdjust="spacing" textLength="110" x="773.67" y="370.3469">T &gt; LogTraceLine</text></g><!--reverse link TraceReaderFactory to TextTraceReaderFactory--><g id="link_TraceReaderFactory_TextTraceReaderFactory"><path codeLine="29" d="M461.54,103.97 C465.43,108.68 468.92,113.72 471.67,119 C488.17,150.72 490.42,192.97 489.96,218.76 " fill="none" id="TraceReaderFactory-backto-TextTraceReaderFactory" style="stroke:#181818;stroke-width:1.0;"/><polygon fill="none" points="457.16,109.48,448.22,90.27,467.19,99.71,457.16,109.48" style="stroke:#181818;stroke-width:1.0;"/><text fill="#000000" font-family="sans-serif" font-size="13" lengthAdjust="spacing" textLength="87" x="479.67" y="132.0669">T &gt; TraceLine</text></g><!--reverse link TraceReaderFactory to TeraTermTraceReaderFactory--><g id="link_TraceReaderFactory_TeraTermTraceReaderFactory"><path codeLine="30" d="M370.3,102.66 C363.98,108.07 357.62,113.63 351.67,119 C314.31,152.71 272.7,193.66 247.61,218.74 " fill="none" id="TraceReaderFactory-backto-TeraTermTraceReaderFactory" style="stroke:#181818;stroke-width:1.0;"/><polygon fill="none" points="365.29,96.89,385.08,89.33,374.32,107.58,365.29,96.89" style="stroke:#181818;stroke-width:1.0;"/><text fill="#000000" font-family="sans-serif" font-size="13" lengthAdjust="spacing" textLength="110" x="352.67" y="132.0669">T &gt; LogTraceLine</text></g><!--link TextTraceReaderFactory to TextDecoder--><g id="link_TextTraceReaderFactory_TextDecoder"><path codeLine="32" d="M507.94,267.18 C535.31,298.59 588.62,353.79 646.67,381.78 C713.42,413.96 738.47,395.09 810.67,411.78 C815.64,412.93 820.76,414.19 825.9,415.5 " fill="none" id="TextTraceReaderFactory-to-TextDecoder" style="stroke:#181818;stroke-width:1.0;"/><polygon fill="#181818" points="830.48,416.95,822.7738,410.817,825.6404,415.6937,820.7637,418.5603,830.48,416.95" style="stroke:#181818;stroke-width:1.0;"/><text fill="#000000" font-family="sans-serif" font-size="13" lengthAdjust="spacing" textLength="91" x="647.67" y="370.3469">&#171;instantiates&#187;</text></g><!--link TextTraceReaderFactory to TraceReader--><g id="link_TextTraceReaderFactory_TraceReader"><path codeLine="33" d="M487.51,267.2 C484.67,298.11 474.92,352.19 441.67,381.78 C421.04,400.14 360.8,413.29 305.11,421.9 " fill="none" id="TextTraceReaderFactory-to-TraceReader" style="stroke:#181818;stroke-width:1.0;"/><polygon fill="#181818" points="300.38,422.77,309.8819,425.3612,305.3224,422.0129,308.6706,417.4534,300.38,422.77" style="stroke:#181818;stroke-width:1.0;"/><text fill="#000000" font-family="sans-serif" font-size="13" lengthAdjust="spacing" textLength="62" x="479.17" y="362.8469">&#171;returns&#187;</text><text fill="#000000" font-family="sans-serif" font-size="13" lengthAdjust="spacing" textLength="87" x="466.67" y="377.9797">T &gt; TraceLine</text></g><!--link TeraTermTraceReaderFactory to TeraTermDecoder--><g id="link_TeraTermTraceReaderFactory_TeraTermDecoder"><path codeLine="35" d="M242.85,267.3 C272.18,304.76 327.91,374.71 340.67,381.78 C388.57,408.34 533.46,422.83 627.92,429.68 " fill="none" id="TeraTermTraceReaderFactory-to-TeraTermDecoder" style="stroke:#181818;stroke-width:1.0;"/><polygon fill="#181818" points="632.79,430.1,624.0988,425.4672,627.8028,429.7427,623.5272,433.4467,632.79,430.1" style="stroke:#181818;stroke-width:1.0;"/><text fill="#000000" font-family="sans-serif" font-size="13" lengthAdjust="spacing" textLength="91" x="341.67" y="370.3469">&#171;instantiates&#187;</text></g><!--link TeraTermTraceReaderFactory to TraceReader--><g id="link_TeraTermTraceReaderFactory_TraceReader"><path codeLine="36" d="M215.54,266.99 C207.69,288.15 196.99,320.52 192.67,349.78 C190.59,363.85 192.27,367.56 192.67,381.78 C192.89,389.49 193.28,397.82 193.72,405.54 " fill="none" id="TeraTermTraceReaderFactory-to-TraceReader" style="stroke:#181818;stroke-width:1.0;"/><polygon fill="#181818" points="194.05,410.31,197.5285,401.0959,193.7639,405.3182,189.5416,401.5536,194.05,410.31" style="stroke:#181818;stroke-width:1.0;"/><text fill="#000000" font-family="sans-serif" font-size="13" lengthAdjust="spacing" textLength="62" x="217.67" y="362.8469">&#171;returns&#187;</text><text fill="#000000" font-family="sans-serif" font-size="13" lengthAdjust="spacing" textLength="110" x="193.67" y="377.9797">T &gt; LogTraceLine</text></g><!--link Main to TeraTermTraceReaderFactory--><g id="link_Main_TeraTermTraceReaderFactory"><path codeLine="38" d="M86.29,89.2 C83.66,103.4 82.64,121.56 89.67,136 C106.61,170.81 141.15,197.57 171.05,215.48 " fill="none" id="Main-to-TeraTermTraceReaderFactory" style="stroke:#181818;stroke-width:1.0;"/><polygon fill="#181818" points="175.19,218.5,169.4479,210.4982,170.8763,215.9718,165.4027,217.4001,175.19,218.5" style="stroke:#181818;stroke-width:1.0;"/><text fill="#000000" font-family="sans-serif" font-size="13" lengthAdjust="spacing" textLength="91" x="90.67" y="132.0669">&#171;instantiates&#187;</text></g><!--link Main to TextTraceReaderFactory--><g id="link_Main_TextTraceReaderFactory"><path codeLine="39" d="M125.05,84.77 C153.04,100.32 194.97,122.07 233.67,136 C288.65,155.79 307.5,144.09 361.67,166 C393.48,178.87 426.67,198.97 451.15,215.26 " fill="none" id="Main-to-TextTraceReaderFactory" style="stroke:#181818;stroke-width:1.0;"/><polygon fill="#181818" points="454.92,218.46,449.6701,210.127,450.7663,215.6766,445.2167,216.7728,454.92,218.46" style="stroke:#181818;stroke-width:1.0;"/><text fill="#000000" font-family="sans-serif" font-size="13" lengthAdjust="spacing" textLength="91" x="234.67" y="132.0669">&#171;instantiates&#187;</text></g><!--link TraceReader to Main--><g id="link_TraceReader_Main"><path codeLine="41" d="M163.76,411.39 C138.13,390.54 103.83,357.55 87.67,319.78 C6,128.84 68.86,182.5 77.67,119 C78.42,113.61 79.57,108 80.92,102.53 " fill="none" id="TraceReader-to-Main" style="stroke:#181818;stroke-width:1.0;"/><polygon fill="#181818" points="84.53,90.45,79.0781,95.1698,81.338,102.0177,86.7899,97.2978,84.53,90.45" style="stroke:#181818;stroke-width:1.0;"/></g><!--SRC=[ZLHTQuCm57tFhmZqOQwR_W0H7yRQCUWOR3xk9ThRDc1ZIIAiRFllkwPfhIPn4zHmxpddVXongfbIz8LnGOXWUr07LW5zXAfPWwHVXEB5XGQvwUBFXSINpMO5JMranGNa1ijAfJ6YQMM42_ZK5lx058mfja1tpKRGw3QS0e5dBhOfNTXJ3qwIo_5kuU2yi9DqLBQR3SYKlW5Rluhw-7vW8YkF6l9xUcWKrxmHAQqRh8P3B4Ix1ydA6eVAUwrbtQfT50RCda1teqSrFb9gQbGx9dqr2iFw8URbx7CGbGpl_Jc357jC1exHx3j9pkOcewsIG1n9SUmZePK5pUd5pVyA37gr8gjcs-kGyKVKPJfNG2unsiYZy-avm132LdSbIRzWJvAuiTDOVhopcZ0zr8ztCO5gSPm73CeoBfHcGdEcGUNvbC9Ls30bw5OA97s8uJ1aekjXAsEhFUrCAltHqd0vtK_in9fQgjF25IrWfKEvCPnvvr-Fl_OOzURcf_eB]--></g></svg>