<?xml version="1.0" encoding="UTF-8" standalone="no"?><svg xmlns="http://www.w3.org/2000/svg" xmlns:xlink="http://www.w3.org/1999/xlink" contentScriptType="application/ecmascript" contentStyleType="text/css" height="472px" preserveAspectRatio="none" style="width:952px;height:472px;background:#FFFFFF;" version="1.1" viewBox="0 0 952 472" width="952px" zoomAndPan="magnify"><defs><filter height="300%" id="fagx7zktq2qey" width="300%" x="-1" y="-1"><feGaussianBlur result="blurOut" stdDeviation="2.0"/><feColorMatrix in="blurOut" result="blurOut2" type="matrix" values="0 0 0 0 0 0 0 0 0 0 0 0 0 0 0 0 0 0 .4 0"/><feOffset dx="4.0" dy="4.0" in="blurOut2" result="blurOut3"/><feBlend in="SourceGraphic" in2="blurOut3" mode="normal"/></filter></defs><g><!--MD5=[ed91694a592f3aac5e9358cf4ee71e66]
cluster Decoder--><polygon fill="#FFFFFF" filter="url(#fagx7zktq2qey)" points="539.07,6,605.07,6,612.07,29.6094,935.07,29.6094,935.07,465,539.07,465,539.07,6" style="stroke:#000000;stroke-width:1.5;"/><line style="stroke:#000000;stroke-width:1.5;" x1="539.07" x2="612.07" y1="29.6094" y2="29.6094"/><text fill="#000000" font-family="sans-serif" font-size="14" font-weight="bold" lengthAdjust="spacing" textLength="60" x="543.07" y="22.5332">Decoder</text><!--MD5=[92716554cdca33324447caa63a970a5d]
class Decoder.ITraceDecoder--><rect codeLine="4" fill="#FEFECE" filter="url(#fagx7zktq2qey)" height="48" id="Decoder.ITraceDecoder" style="stroke:#A80036;stroke-width:1.5;" width="193" x="640.57" y="42"/><ellipse cx="655.57" cy="58" fill="#B4A7E5" rx="11" ry="11" style="stroke:#A80036;stroke-width:1.0;"/><path d="M656.5231,54.6406 L656.5231,61.2969 L658.2419,61.2969 Q658.8513,61.2969 659.1169,61.5313 Q659.3825,61.7656 659.3825,62.1563 Q659.3825,62.5313 659.1169,62.7656 Q658.8513,63 658.2419,63 L653.1013,63 Q652.4919,63 652.2263,62.7656 Q651.9606,62.5313 651.9606,62.1406 Q651.9606,61.7656 652.2263,61.5313 Q652.4919,61.2969 653.1013,61.2969 L654.82,61.2969 L654.82,54.6406 L653.1013,54.6406 Q652.4919,54.6406 652.2263,54.4063 Q651.9606,54.1719 651.9606,53.7813 Q651.9606,53.4063 652.2263,53.1719 Q652.4919,52.9375 653.1013,52.9375 L658.2419,52.9375 Q658.8513,52.9375 659.1169,53.1719 Q659.3825,53.4063 659.3825,53.7813 Q659.3825,54.1719 659.1169,54.4063 Q658.8513,54.6406 658.2419,54.6406 L656.5231,54.6406 Z " fill="#000000"/><text fill="#000000" font-family="sans-serif" font-size="12" font-style="italic" lengthAdjust="spacing" textLength="82" x="669.57" y="62.9102">ITraceDecoder</text><rect fill="#FFFFFF" height="17.0938" style="stroke:#000000;stroke-width:1.0;stroke-dasharray:2.0,2.0;" width="77" x="759.57" y="39"/><text fill="#000000" font-family="sans-serif" font-size="12" font-style="italic" lengthAdjust="spacing" textLength="75" x="760.57" y="52.457">T : ITraceLine</text><line style="stroke:#A80036;stroke-width:1.5;" x1="641.57" x2="832.57" y1="74" y2="74"/><line style="stroke:#A80036;stroke-width:1.5;" x1="641.57" x2="832.57" y1="82" y2="82"/><!--MD5=[9740392a898521799e5be9b841ebc02f]
class Decoder.TextDecoderBase--><rect codeLine="5" fill="#FEFECE" filter="url(#fagx7zktq2qey)" height="139.0156" id="Decoder.TextDecoderBase" style="stroke:#A80036;stroke-width:1.5;" width="363" x="555.57" y="168"/><ellipse cx="644.32" cy="184" fill="#A9DCDF" rx="11" ry="11" style="stroke:#A80036;stroke-width:1.0;"/><path d="M646.5075,185.7656 L642.3669,185.7656 L641.945,186.7969 L642.3669,186.7969 Q642.9763,186.7969 643.2419,187.0313 Q643.5075,187.2656 643.5075,187.6563 Q643.5075,188.0313 643.2419,188.2656 Q642.9763,188.5 642.3669,188.5 L640.07,188.5 Q639.4606,188.5 639.2028,188.2656 Q638.945,188.0313 638.945,187.6406 Q638.945,187.2656 639.2184,187.0234 Q639.4919,186.7813 640.1169,186.7969 L642.7888,180.1406 L641.6794,180.1406 Q641.07,180.1406 640.8044,179.9063 Q640.5388,179.6719 640.5388,179.2813 Q640.5388,178.9063 640.8044,178.6719 Q641.07,178.4375 641.6794,178.4375 L645.3513,178.4375 L648.7419,186.7969 Q649.3356,186.7969 649.5231,186.9375 Q649.9138,187.2031 649.9138,187.6563 Q649.9138,188.0313 649.6559,188.2656 Q649.3981,188.5 648.7888,188.5 L646.4919,188.5 Q645.8825,188.5 645.6169,188.2656 Q645.3513,188.0313 645.3513,187.6406 Q645.3513,187.2656 645.6169,187.0313 Q645.8825,186.7969 646.4919,186.7969 L646.9138,186.7969 L646.5075,185.7656 Z M645.7888,184.0625 L644.4294,180.6875 L643.0544,184.0625 L645.7888,184.0625 Z " fill="#000000"/><text fill="#000000" font-family="sans-serif" font-size="12" font-style="italic" lengthAdjust="spacing" textLength="98" x="664.82" y="188.9102">TextDecoderBase</text><rect fill="#FFFFFF" height="17.0938" style="stroke:#000000;stroke-width:1.0;stroke-dasharray:2.0,2.0;" width="77" x="844.57" y="165"/><text fill="#000000" font-family="sans-serif" font-size="12" font-style="italic" lengthAdjust="spacing" textLength="75" x="845.57" y="178.457">T : ITraceLine</text><line style="stroke:#A80036;stroke-width:1.5;" x1="556.57" x2="917.57" y1="200" y2="200"/><polygon fill="#FFFF44" points="566.57,206,570.57,210,566.57,214,562.57,210" style="stroke:#B38D22;stroke-width:1.0;"/><text fill="#000000" font-family="sans-serif" font-size="11" lengthAdjust="spacing" textLength="95" x="575.57" y="215.4189">TextDecoderBase()</text><polygon fill="#FFFF44" points="566.57,219.8359,570.57,223.8359,566.57,227.8359,562.57,223.8359" style="stroke:#B38D22;stroke-width:1.0;"/><text fill="#000000" font-family="sans-serif" font-size="11" lengthAdjust="spacing" textLength="189" x="575.57" y="229.2549">TextDecoderBase(encoding: Encoding)</text><line style="stroke:#A80036;stroke-width:1.0;stroke-dasharray:1.0,2.0;" x1="556.57" x2="917.57" y1="235.6719" y2="235.6719"/><ellipse cx="566.57" cy="246.6719" fill="none" rx="3" ry="3" style="stroke:#038048;stroke-width:1.0;"/><text fill="#000000" font-family="sans-serif" font-size="11" lengthAdjust="spacing" textLength="94" x="575.57" y="251.0908">Encoding: Encoding</text><line style="stroke:#A80036;stroke-width:1.0;stroke-dasharray:1.0,2.0;" x1="556.57" x2="917.57" y1="257.5078" y2="257.5078"/><ellipse cx="566.57" cy="268.5078" fill="#84BE84" rx="3" ry="3" style="stroke:#038048;stroke-width:1.0;"/><text fill="#000000" font-family="sans-serif" font-size="11" lengthAdjust="spacing" textLength="337" x="575.57" y="272.9268">Decode(buffer: ReadOnlySpan&lt;byte&gt;, position: long): IEnumerable&lt;T&gt;</text><ellipse cx="566.57" cy="282.3438" fill="#84BE84" rx="3" ry="3" style="stroke:#038048;stroke-width:1.0;"/><text fill="#000000" font-family="sans-serif" font-size="11" lengthAdjust="spacing" textLength="116" x="575.57" y="286.7627">Flush(): IEnumerable&lt;T&gt;</text><polygon fill="#FFFF44" points="566.57,291.1797,570.57,295.1797,566.57,299.1797,562.57,295.1797" style="stroke:#B38D22;stroke-width:1.0;"/><text fill="#000000" font-family="sans-serif" font-size="11" lengthAdjust="spacing" textLength="207" x="575.57" y="300.5986">GetLine(line: Span&lt;char&gt;, position: long): T</text><!--MD5=[5366416aa285582efa25b0a184fe8d11]
class Decoder.TextDecoder--><rect codeLine="16" fill="#FEFECE" filter="url(#fagx7zktq2qey)" height="48" id="Decoder.TextDecoder" style="stroke:#A80036;stroke-width:1.5;" width="101" x="723.57" y="401"/><ellipse cx="738.57" cy="417" fill="#ADD1B2" rx="11" ry="11" style="stroke:#A80036;stroke-width:1.0;"/><path d="M741.3356,412.875 Q741.4919,412.6563 741.6794,412.5469 Q741.8669,412.4375 742.0856,412.4375 Q742.4606,412.4375 742.695,412.6953 Q742.9294,412.9531 742.9294,413.5625 L742.9294,415.0156 Q742.9294,415.625 742.695,415.8906 Q742.4606,416.1563 742.0856,416.1563 Q741.7419,416.1563 741.5388,415.9531 Q741.3356,415.7656 741.2263,415.25 Q741.1794,414.8906 740.9919,414.7031 Q740.6638,414.3281 740.0544,414.1094 Q739.445,413.8906 738.82,413.8906 Q738.0544,413.8906 737.4216,414.2188 Q736.7888,414.5469 736.2966,415.2969 Q735.8044,416.0469 735.8044,417.0781 L735.8044,418.1719 Q735.8044,419.4063 736.695,420.2266 Q737.5856,421.0469 739.1794,421.0469 Q740.1169,421.0469 740.7731,420.7969 Q741.1638,420.6406 741.5856,420.2031 Q741.8513,419.9375 741.9997,419.8594 Q742.1481,419.7813 742.3513,419.7813 Q742.6794,419.7813 742.9372,420.0391 Q743.195,420.2969 743.195,420.6406 Q743.195,420.9844 742.8513,421.3906 Q742.3513,421.9688 741.5544,422.2969 Q740.4763,422.75 739.1794,422.75 Q737.6638,422.75 736.4606,422.125 Q735.4763,421.625 734.7888,420.5547 Q734.1013,419.4844 734.1013,418.2031 L734.1013,417.0469 Q734.1013,415.7188 734.7184,414.5703 Q735.3356,413.4219 736.4294,412.8047 Q737.5231,412.1875 738.7575,412.1875 Q739.4919,412.1875 740.1403,412.3516 Q740.7888,412.5156 741.3356,412.875 Z " fill="#000000"/><text fill="#000000" font-family="sans-serif" font-size="12" lengthAdjust="spacing" textLength="69" x="752.57" y="421.9102">TextDecoder</text><line style="stroke:#A80036;stroke-width:1.5;" x1="724.57" x2="823.57" y1="433" y2="433"/><line style="stroke:#A80036;stroke-width:1.5;" x1="724.57" x2="823.57" y1="441" y2="441"/><!--MD5=[dc3e9cf5105f90cec75218d8598a890f]
class Decoder.TeraTermDecoder--><rect codeLine="17" fill="#FEFECE" filter="url(#fagx7zktq2qey)" height="48" id="Decoder.TeraTermDecoder" style="stroke:#A80036;stroke-width:1.5;" width="133" x="555.57" y="401"/><ellipse cx="570.57" cy="417" fill="#ADD1B2" rx="11" ry="11" style="stroke:#A80036;stroke-width:1.0;"/><path d="M573.3356,412.875 Q573.4919,412.6563 573.6794,412.5469 Q573.8669,412.4375 574.0856,412.4375 Q574.4606,412.4375 574.695,412.6953 Q574.9294,412.9531 574.9294,413.5625 L574.9294,415.0156 Q574.9294,415.625 574.695,415.8906 Q574.4606,416.1563 574.0856,416.1563 Q573.7419,416.1563 573.5388,415.9531 Q573.3356,415.7656 573.2263,415.25 Q573.1794,414.8906 572.9919,414.7031 Q572.6638,414.3281 572.0544,414.1094 Q571.445,413.8906 570.82,413.8906 Q570.0544,413.8906 569.4216,414.2188 Q568.7888,414.5469 568.2966,415.2969 Q567.8044,416.0469 567.8044,417.0781 L567.8044,418.1719 Q567.8044,419.4063 568.695,420.2266 Q569.5856,421.0469 571.1794,421.0469 Q572.1169,421.0469 572.7731,420.7969 Q573.1638,420.6406 573.5856,420.2031 Q573.8513,419.9375 573.9997,419.8594 Q574.1481,419.7813 574.3513,419.7813 Q574.6794,419.7813 574.9372,420.0391 Q575.195,420.2969 575.195,420.6406 Q575.195,420.9844 574.8513,421.3906 Q574.3513,421.9688 573.5544,422.2969 Q572.4763,422.75 571.1794,422.75 Q569.6638,422.75 568.4606,422.125 Q567.4763,421.625 566.7888,420.5547 Q566.1013,419.4844 566.1013,418.2031 L566.1013,417.0469 Q566.1013,415.7188 566.7184,414.5703 Q567.3356,413.4219 568.4294,412.8047 Q569.5231,412.1875 570.7575,412.1875 Q571.4919,412.1875 572.1403,412.3516 Q572.7888,412.5156 573.3356,412.875 Z " fill="#000000"/><text fill="#000000" font-family="sans-serif" font-size="12" lengthAdjust="spacing" textLength="101" x="584.57" y="421.9102">TeraTermDecoder</text><line style="stroke:#A80036;stroke-width:1.5;" x1="556.57" x2="687.57" y1="433" y2="433"/><line style="stroke:#A80036;stroke-width:1.5;" x1="556.57" x2="687.57" y1="441" y2="441"/><!--MD5=[84718776d214be480e4c259efcb737fc]
class Main--><rect codeLine="1" fill="#FEFECE" filter="url(#fagx7zktq2qey)" height="48" id="Main" style="stroke:#A80036;stroke-width:1.5;" width="58" x="25.07" y="42"/><ellipse cx="40.07" cy="58" fill="#ADD1B2" rx="11" ry="11" style="stroke:#A80036;stroke-width:1.0;"/><path d="M42.8356,53.875 Q42.9919,53.6563 43.1794,53.5469 Q43.3669,53.4375 43.5856,53.4375 Q43.9606,53.4375 44.195,53.6953 Q44.4294,53.9531 44.4294,54.5625 L44.4294,56.0156 Q44.4294,56.625 44.195,56.8906 Q43.9606,57.1563 43.5856,57.1563 Q43.2419,57.1563 43.0388,56.9531 Q42.8356,56.7656 42.7263,56.25 Q42.6794,55.8906 42.4919,55.7031 Q42.1638,55.3281 41.5544,55.1094 Q40.945,54.8906 40.32,54.8906 Q39.5544,54.8906 38.9216,55.2188 Q38.2888,55.5469 37.7966,56.2969 Q37.3044,57.0469 37.3044,58.0781 L37.3044,59.1719 Q37.3044,60.4063 38.195,61.2266 Q39.0856,62.0469 40.6794,62.0469 Q41.6169,62.0469 42.2731,61.7969 Q42.6638,61.6406 43.0856,61.2031 Q43.3513,60.9375 43.4997,60.8594 Q43.6481,60.7813 43.8513,60.7813 Q44.1794,60.7813 44.4372,61.0391 Q44.695,61.2969 44.695,61.6406 Q44.695,61.9844 44.3513,62.3906 Q43.8513,62.9688 43.0544,63.2969 Q41.9763,63.75 40.6794,63.75 Q39.1638,63.75 37.9606,63.125 Q36.9763,62.625 36.2888,61.5547 Q35.6013,60.4844 35.6013,59.2031 L35.6013,58.0469 Q35.6013,56.7188 36.2184,55.5703 Q36.8356,54.4219 37.9294,53.8047 Q39.0231,53.1875 40.2575,53.1875 Q40.9919,53.1875 41.6403,53.3516 Q42.2888,53.5156 42.8356,53.875 Z " fill="#000000"/><text fill="#000000" font-family="sans-serif" font-size="12" lengthAdjust="spacing" textLength="26" x="54.07" y="62.9102">Main</text><line style="stroke:#A80036;stroke-width:1.5;" x1="26.07" x2="82.07" y1="74" y2="74"/><line style="stroke:#A80036;stroke-width:1.5;" x1="26.07" x2="82.07" y1="82" y2="82"/><!--MD5=[f4288dffdb2ee17e8277a82c8664138f]
class TraceReaderFactory--><rect codeLine="24" fill="#FEFECE" filter="url(#fagx7zktq2qey)" height="48" id="TraceReaderFactory" style="stroke:#A80036;stroke-width:1.5;" width="223" x="243.57" y="42"/><ellipse cx="258.57" cy="58" fill="#A9DCDF" rx="11" ry="11" style="stroke:#A80036;stroke-width:1.0;"/><path d="M260.7575,59.7656 L256.6169,59.7656 L256.195,60.7969 L256.6169,60.7969 Q257.2263,60.7969 257.4919,61.0313 Q257.7575,61.2656 257.7575,61.6563 Q257.7575,62.0313 257.4919,62.2656 Q257.2263,62.5 256.6169,62.5 L254.32,62.5 Q253.7106,62.5 253.4528,62.2656 Q253.195,62.0313 253.195,61.6406 Q253.195,61.2656 253.4684,61.0234 Q253.7419,60.7813 254.3669,60.7969 L257.0388,54.1406 L255.9294,54.1406 Q255.32,54.1406 255.0544,53.9063 Q254.7888,53.6719 254.7888,53.2813 Q254.7888,52.9063 255.0544,52.6719 Q255.32,52.4375 255.9294,52.4375 L259.6013,52.4375 L262.9919,60.7969 Q263.5856,60.7969 263.7731,60.9375 Q264.1638,61.2031 264.1638,61.6563 Q264.1638,62.0313 263.9059,62.2656 Q263.6481,62.5 263.0388,62.5 L260.7419,62.5 Q260.1325,62.5 259.8669,62.2656 Q259.6013,62.0313 259.6013,61.6406 Q259.6013,61.2656 259.8669,61.0313 Q260.1325,60.7969 260.7419,60.7969 L261.1638,60.7969 L260.7575,59.7656 Z M260.0388,58.0625 L258.6794,54.6875 L257.3044,58.0625 L260.0388,58.0625 Z " fill="#000000"/><text fill="#000000" font-family="sans-serif" font-size="12" font-style="italic" lengthAdjust="spacing" textLength="112" x="272.57" y="62.9102">TraceReaderFactory</text><rect fill="#FFFFFF" height="17.0938" style="stroke:#000000;stroke-width:1.0;stroke-dasharray:2.0,2.0;" width="77" x="392.57" y="39"/><text fill="#000000" font-family="sans-serif" font-size="12" font-style="italic" lengthAdjust="spacing" textLength="75" x="393.57" y="52.457">T : ITraceLine</text><line style="stroke:#A80036;stroke-width:1.5;" x1="244.57" x2="465.57" y1="74" y2="74"/><line style="stroke:#A80036;stroke-width:1.5;" x1="244.57" x2="465.57" y1="82" y2="82"/><!--MD5=[9c1ec34ffd665f2ab66be7570fe1ffdc]
class TraceReader--><rect codeLine="25" fill="#FEFECE" filter="url(#fagx7zktq2qey)" height="48" id="TraceReader" style="stroke:#A80036;stroke-width:1.5;" width="183" x="31.57" y="401"/><ellipse cx="46.57" cy="417" fill="#ADD1B2" rx="11" ry="11" style="stroke:#A80036;stroke-width:1.0;"/><path d="M49.3356,412.875 Q49.4919,412.6563 49.6794,412.5469 Q49.8669,412.4375 50.0856,412.4375 Q50.4606,412.4375 50.695,412.6953 Q50.9294,412.9531 50.9294,413.5625 L50.9294,415.0156 Q50.9294,415.625 50.695,415.8906 Q50.4606,416.1563 50.0856,416.1563 Q49.7419,416.1563 49.5388,415.9531 Q49.3356,415.7656 49.2263,415.25 Q49.1794,414.8906 48.9919,414.7031 Q48.6638,414.3281 48.0544,414.1094 Q47.445,413.8906 46.82,413.8906 Q46.0544,413.8906 45.4216,414.2188 Q44.7888,414.5469 44.2966,415.2969 Q43.8044,416.0469 43.8044,417.0781 L43.8044,418.1719 Q43.8044,419.4063 44.695,420.2266 Q45.5856,421.0469 47.1794,421.0469 Q48.1169,421.0469 48.7731,420.7969 Q49.1638,420.6406 49.5856,420.2031 Q49.8513,419.9375 49.9997,419.8594 Q50.1481,419.7813 50.3513,419.7813 Q50.6794,419.7813 50.9372,420.0391 Q51.195,420.2969 51.195,420.6406 Q51.195,420.9844 50.8513,421.3906 Q50.3513,421.9688 49.5544,422.2969 Q48.4763,422.75 47.1794,422.75 Q45.6638,422.75 44.4606,422.125 Q43.4763,421.625 42.7888,420.5547 Q42.1013,419.4844 42.1013,418.2031 L42.1013,417.0469 Q42.1013,415.7188 42.7184,414.5703 Q43.3356,413.4219 44.4294,412.8047 Q45.5231,412.1875 46.7575,412.1875 Q47.4919,412.1875 48.1403,412.3516 Q48.7888,412.5156 49.3356,412.875 Z " fill="#000000"/><text fill="#000000" font-family="sans-serif" font-size="12" lengthAdjust="spacing" textLength="72" x="60.57" y="421.9102">TraceReader</text><rect fill="#FFFFFF" height="17.0938" style="stroke:#000000;stroke-width:1.0;stroke-dasharray:2.0,2.0;" width="77" x="140.57" y="398"/><text fill="#000000" font-family="sans-serif" font-size="12" font-style="italic" lengthAdjust="spacing" textLength="75" x="141.57" y="411.457">T : ITraceLine</text><line style="stroke:#A80036;stroke-width:1.5;" x1="32.57" x2="213.57" y1="433" y2="433"/><line style="stroke:#A80036;stroke-width:1.5;" x1="32.57" x2="213.57" y1="441" y2="441"/><!--MD5=[3e2b29e372ad2afe27fa50c3c0e9f6ae]
class TeraTermTraceReaderFactory--><rect codeLine="26" fill="#FEFECE" filter="url(#fagx7zktq2qey)" height="48" id="TeraTermTraceReaderFactory" style="stroke:#A80036;stroke-width:1.5;" width="197" x="74.57" y="213.5"/><ellipse cx="89.57" cy="229.5" fill="#ADD1B2" rx="11" ry="11" style="stroke:#A80036;stroke-width:1.0;"/><path d="M92.3356,225.375 Q92.4919,225.1563 92.6794,225.0469 Q92.8669,224.9375 93.0856,224.9375 Q93.4606,224.9375 93.695,225.1953 Q93.9294,225.4531 93.9294,226.0625 L93.9294,227.5156 Q93.9294,228.125 93.695,228.3906 Q93.4606,228.6563 93.0856,228.6563 Q92.7419,228.6563 92.5388,228.4531 Q92.3356,228.2656 92.2263,227.75 Q92.1794,227.3906 91.9919,227.2031 Q91.6638,226.8281 91.0544,226.6094 Q90.445,226.3906 89.82,226.3906 Q89.0544,226.3906 88.4216,226.7188 Q87.7888,227.0469 87.2966,227.7969 Q86.8044,228.5469 86.8044,229.5781 L86.8044,230.6719 Q86.8044,231.9063 87.695,232.7266 Q88.5856,233.5469 90.1794,233.5469 Q91.1169,233.5469 91.7731,233.2969 Q92.1638,233.1406 92.5856,232.7031 Q92.8513,232.4375 92.9997,232.3594 Q93.1481,232.2813 93.3513,232.2813 Q93.6794,232.2813 93.9372,232.5391 Q94.195,232.7969 94.195,233.1406 Q94.195,233.4844 93.8513,233.8906 Q93.3513,234.4688 92.5544,234.7969 Q91.4763,235.25 90.1794,235.25 Q88.6638,235.25 87.4606,234.625 Q86.4763,234.125 85.7888,233.0547 Q85.1013,231.9844 85.1013,230.7031 L85.1013,229.5469 Q85.1013,228.2188 85.7184,227.0703 Q86.3356,225.9219 87.4294,225.3047 Q88.5231,224.6875 89.7575,224.6875 Q90.4919,224.6875 91.1403,224.8516 Q91.7888,225.0156 92.3356,225.375 Z " fill="#000000"/><text fill="#000000" font-family="sans-serif" font-size="12" lengthAdjust="spacing" textLength="165" x="103.57" y="234.4102">TeraTermTraceReaderFactory</text><line style="stroke:#A80036;stroke-width:1.5;" x1="75.57" x2="270.57" y1="245.5" y2="245.5"/><line style="stroke:#A80036;stroke-width:1.5;" x1="75.57" x2="270.57" y1="253.5" y2="253.5"/><!--MD5=[7c7fb5f7afc898ad76124a041b09b012]
class TextTraceReaderFactory--><rect codeLine="27" fill="#FEFECE" filter="url(#fagx7zktq2qey)" height="48" id="TextTraceReaderFactory" style="stroke:#A80036;stroke-width:1.5;" width="165" x="330.57" y="213.5"/><ellipse cx="345.57" cy="229.5" fill="#ADD1B2" rx="11" ry="11" style="stroke:#A80036;stroke-width:1.0;"/><path d="M348.3356,225.375 Q348.4919,225.1563 348.6794,225.0469 Q348.8669,224.9375 349.0856,224.9375 Q349.4606,224.9375 349.695,225.1953 Q349.9294,225.4531 349.9294,226.0625 L349.9294,227.5156 Q349.9294,228.125 349.695,228.3906 Q349.4606,228.6563 349.0856,228.6563 Q348.7419,228.6563 348.5388,228.4531 Q348.3356,228.2656 348.2263,227.75 Q348.1794,227.3906 347.9919,227.2031 Q347.6638,226.8281 347.0544,226.6094 Q346.445,226.3906 345.82,226.3906 Q345.0544,226.3906 344.4216,226.7188 Q343.7888,227.0469 343.2966,227.7969 Q342.8044,228.5469 342.8044,229.5781 L342.8044,230.6719 Q342.8044,231.9063 343.695,232.7266 Q344.5856,233.5469 346.1794,233.5469 Q347.1169,233.5469 347.7731,233.2969 Q348.1638,233.1406 348.5856,232.7031 Q348.8513,232.4375 348.9997,232.3594 Q349.1481,232.2813 349.3513,232.2813 Q349.6794,232.2813 349.9372,232.5391 Q350.195,232.7969 350.195,233.1406 Q350.195,233.4844 349.8513,233.8906 Q349.3513,234.4688 348.5544,234.7969 Q347.4763,235.25 346.1794,235.25 Q344.6638,235.25 343.4606,234.625 Q342.4763,234.125 341.7888,233.0547 Q341.1013,231.9844 341.1013,230.7031 L341.1013,229.5469 Q341.1013,228.2188 341.7184,227.0703 Q342.3356,225.9219 343.4294,225.3047 Q344.5231,224.6875 345.7575,224.6875 Q346.4919,224.6875 347.1403,224.8516 Q347.7888,225.0156 348.3356,225.375 Z " fill="#000000"/><text fill="#000000" font-family="sans-serif" font-size="12" lengthAdjust="spacing" textLength="133" x="359.57" y="234.4102">TextTraceReaderFactory</text><line style="stroke:#A80036;stroke-width:1.5;" x1="331.57" x2="494.57" y1="245.5" y2="245.5"/><line style="stroke:#A80036;stroke-width:1.5;" x1="331.57" x2="494.57" y1="253.5" y2="253.5"/><!--MD5=[71d755b3385b4b6d3075fdc76e04b9e2]
reverse link Decoder.ITraceDecoder to Decoder.TextDecoderBase--><path codeLine="20" d="M737.07,110.37 C737.07,127.85 737.07,148.45 737.07,167.87 " fill="none" id="Decoder.ITraceDecoder-backto-Decoder.TextDecoderBase" style="stroke:#A80036;stroke-width:1.0;stroke-dasharray:7.0,7.0;"/><polygon fill="none" points="730.07,110.21,737.07,90.21,744.07,110.21,730.07,110.21" style="stroke:#A80036;stroke-width:1.0;"/><!--MD5=[6ad47a767f8599bf23ff8ea3d5f76c70]
reverse link Decoder.TextDecoderBase to Decoder.TextDecoder--><path codeLine="21" d="M754.68,326.76 C760.14,354.16 765.71,382.08 769.47,400.93 " fill="none" id="Decoder.TextDecoderBase-backto-Decoder.TextDecoder" style="stroke:#A80036;stroke-width:1.0;"/><polygon fill="none" points="747.79,328.03,750.74,307.05,761.52,325.29,747.79,328.03" style="stroke:#A80036;stroke-width:1.0;"/><text fill="#000000" font-family="sans-serif" font-size="13" lengthAdjust="spacing" textLength="79" x="764.07" y="359.4951">T &gt; TraceLine</text><!--MD5=[d54ea54c5f87abc5496d81c51e648b58]
reverse link Decoder.TextDecoderBase to Decoder.TeraTermDecoder--><path codeLine="22" d="M655.22,323.74 C652.31,328.1 649.57,332.53 647.07,337 C635.87,357.02 629.31,382.51 625.75,400.71 " fill="none" id="Decoder.TextDecoderBase-backto-Decoder.TeraTermDecoder" style="stroke:#A80036;stroke-width:1.0;"/><polygon fill="none" points="649.79,319.31,667.24,307.28,661.1,327.56,649.79,319.31" style="stroke:#A80036;stroke-width:1.0;"/><text fill="#000000" font-family="sans-serif" font-size="13" lengthAdjust="spacing" textLength="100" x="648.07" y="359.4951">T &gt; LogTraceLine</text><!--MD5=[31c1a7a8a29b6be62b9f2f91efb7f42c]
reverse link TraceReaderFactory to TextTraceReaderFactory--><path codeLine="29" d="M394.83,105.55 C398.05,110.15 400.89,115 403.07,120 C416.2,150.15 416.72,188.79 415.33,213.11 " fill="none" id="TraceReaderFactory-backto-TextTraceReaderFactory" style="stroke:#A80036;stroke-width:1.0;"/><polygon fill="none" points="389.44,110.02,382.05,90.16,400.21,101.08,389.44,110.02" style="stroke:#A80036;stroke-width:1.0;"/><text fill="#000000" font-family="sans-serif" font-size="13" lengthAdjust="spacing" textLength="79" x="411.07" y="134.4951">T &gt; TraceLine</text><!--MD5=[1f753dd87c7c159725656565729551b3]
reverse link TraceReaderFactory to TeraTermTraceReaderFactory--><path codeLine="30" d="M311.88,103.31 C305.51,108.84 299.08,114.52 293.07,120 C258.51,151.49 219.96,189.45 196.11,213.28 " fill="none" id="TraceReaderFactory-backto-TeraTermTraceReaderFactory" style="stroke:#A80036;stroke-width:1.0;"/><polygon fill="none" points="307.54,97.81,327.28,90.11,316.65,108.44,307.54,97.81" style="stroke:#A80036;stroke-width:1.0;"/><text fill="#000000" font-family="sans-serif" font-size="13" lengthAdjust="spacing" textLength="100" x="294.07" y="134.4951">T &gt; LogTraceLine</text><!--MD5=[12483fa10bab3f0712a4d7de611c53cf]
link TextTraceReaderFactory to Decoder.TextDecoder--><path codeLine="32" d="M428.57,261.7 C450.18,292.06 492.35,344.49 542.07,371 C607.45,405.86 634.34,382.41 706.07,401 C710.15,402.06 714.33,403.23 718.52,404.48 " fill="none" id="TextTraceReaderFactory-to-Decoder.TextDecoder" style="stroke:#A80036;stroke-width:1.0;"/><polygon fill="#A80036" points="723.44,405.98,715.9953,399.532,718.6568,404.5236,713.6651,407.1851,723.44,405.98" style="stroke:#A80036;stroke-width:1.0;"/><text fill="#000000" font-family="sans-serif" font-size="13" lengthAdjust="spacing" textLength="81" x="543.07" y="359.4951">«instantiates»</text><!--MD5=[356a9498c23b048a5971c570da0581c9]
link TextTraceReaderFactory to TraceReader--><path codeLine="33" d="M408.38,261.5 C401.05,291.39 383.96,343.04 349.07,371 C312.73,400.12 263.16,413.75 219.69,419.94 " fill="none" id="TextTraceReaderFactory-to-TraceReader" style="stroke:#A80036;stroke-width:1.0;"/><polygon fill="#A80036" points="214.7,420.62,224.1554,423.3758,219.6548,419.9489,223.0817,415.4482,214.7,420.62" style="stroke:#A80036;stroke-width:1.0;"/><text fill="#000000" font-family="sans-serif" font-size="13" lengthAdjust="spacing" textLength="54" x="391.57" y="351.4951">«returns»</text><text fill="#000000" font-family="sans-serif" font-size="13" lengthAdjust="spacing" textLength="79" x="379.07" y="367.8467">T &gt; TraceLine</text><!--MD5=[bb02f243cb45992d09f378d29a67a74d]
link TeraTermTraceReaderFactory to Decoder.TeraTermDecoder--><path codeLine="35" d="M184.88,261.65 C202.84,295.9 237.11,357.49 258.07,371 C305.09,401.3 458.22,414.95 550.21,420.55 " fill="none" id="TeraTermTraceReaderFactory-to-Decoder.TeraTermDecoder" style="stroke:#A80036;stroke-width:1.0;"/><polygon fill="#A80036" points="555.36,420.86,546.6157,416.3282,550.369,420.5605,546.1366,424.3138,555.36,420.86" style="stroke:#A80036;stroke-width:1.0;"/><text fill="#000000" font-family="sans-serif" font-size="13" lengthAdjust="spacing" textLength="81" x="259.07" y="359.4951">«instantiates»</text><!--MD5=[b3050e33e3beb2f1d534ffe00fcdec56]
link TeraTermTraceReaderFactory to TraceReader--><path codeLine="36" d="M156.22,261.81 C143.48,280.95 127.04,309.32 120.07,337 C115.25,356.12 116.13,378.36 118.14,395.56 " fill="none" id="TeraTermTraceReaderFactory-to-TraceReader" style="stroke:#A80036;stroke-width:1.0;"/><polygon fill="#A80036" points="118.8,400.73,121.6361,391.2983,118.171,395.7697,113.6996,392.3047,118.8,400.73" style="stroke:#A80036;stroke-width:1.0;"/><text fill="#000000" font-family="sans-serif" font-size="13" lengthAdjust="spacing" textLength="54" x="144.07" y="351.4951">«returns»</text><text fill="#000000" font-family="sans-serif" font-size="13" lengthAdjust="spacing" textLength="100" x="121.07" y="367.8467">T &gt; LogTraceLine</text><!--MD5=[5a4c0c790afc5c1230f4612ff0074c10]
link Main to TeraTermTraceReaderFactory--><path codeLine="38" d="M47.76,90.17 C45.08,104.61 44,123.19 51.07,138 C65.99,169.23 96.19,193.73 122.8,210.49 " fill="none" id="Main-to-TeraTermTraceReaderFactory" style="stroke:#A80036;stroke-width:1.0;"/><polygon fill="#A80036" points="127.38,213.32,121.8359,205.1798,123.1296,210.6867,117.6227,211.9805,127.38,213.32" style="stroke:#A80036;stroke-width:1.0;"/><text fill="#000000" font-family="sans-serif" font-size="13" lengthAdjust="spacing" textLength="81" x="52.07" y="134.4951">«instantiates»</text><!--MD5=[0c842cce593c83d1878462c64ae69f46]
link Main to TextTraceReaderFactory--><path codeLine="39" d="M83.09,84.91 C109.27,100.51 149.22,122.92 186.07,138 C230.2,156.06 245.04,149.69 289.07,168 C317.82,179.96 348.47,196.84 372.1,210.86 " fill="none" id="Main-to-TextTraceReaderFactory" style="stroke:#A80036;stroke-width:1.0;"/><polygon fill="#A80036" points="376.43,213.44,370.7508,205.3935,372.1362,210.8781,366.6517,212.2635,376.43,213.44" style="stroke:#A80036;stroke-width:1.0;"/><text fill="#000000" font-family="sans-serif" font-size="13" lengthAdjust="spacing" textLength="81" x="187.07" y="134.4951">«instantiates»</text><!--MD5=[6a4c4fe2a1783cf96a990f96324ed433]
link TraceReader to Main--><path codeLine="41" d="M106.1,400.69 C90.53,377.98 68.23,341.87 57.07,307 C6,147.49 31.03,177.93 39.07,120 C39.85,114.41 41.06,108.57 42.48,102.91 " fill="none" id="TraceReader-to-Main" style="stroke:#A80036;stroke-width:1.0;"/><polygon fill="#A80036" points="46.01,90.18,40.5467,94.8867,42.7901,101.7399,48.2534,97.0333,46.01,90.18" style="stroke:#A80036;stroke-width:1.0;"/><!--MD5=[c4791d25d504dbcb7506ebe1e2713f0e]
@startuml TextDecoder
class Main

namespace Decoder {
    interface ITraceDecoder<T : ITraceLine>
    abstract class TextDecoderBase<T : ITraceLine> {
        #TextDecoderBase()
        #TextDecoderBase(encoding: Encoding)
        ..
        +Encoding: Encoding
        ..
        +Decode(buffer: ReadOnlySpan<byte>, position: long): IEnumerable<T>
        +Flush(): IEnumerable<T>
        #GetLine(line: Span<char>, position: long): T
    }

    class TextDecoder
    class TeraTermDecoder
}

Decoder.ITraceDecoder <|.. Decoder.TextDecoderBase
Decoder.TextDecoderBase <|- - Decoder.TextDecoder : T > TraceLine
Decoder.TextDecoderBase <|- - Decoder.TeraTermDecoder : T > LogTraceLine

abstract class TraceReaderFactory<T : ITraceLine>
class TraceReader<T : ITraceLine>
class TeraTermTraceReaderFactory
class TextTraceReaderFactory

TraceReaderFactory <|- - TextTraceReaderFactory : T > TraceLine
TraceReaderFactory <|- - TeraTermTraceReaderFactory : T > LogTraceLine

TextTraceReaderFactory - -> Decoder.TextDecoder : <<instantiates>>
TextTraceReaderFactory - -> TraceReader : <<returns>>\nT > TraceLine

TeraTermTraceReaderFactory - -> Decoder.TeraTermDecoder : <<instantiates>>
TeraTermTraceReaderFactory - -> TraceReader : <<returns>>\nT > LogTraceLine

Main - -> TeraTermTraceReaderFactory : <<instantiates>>
Main - -> TextTraceReaderFactory : <<instantiates>>
'Main *- - TraceReader
TraceReader - -* Main
@enduml

@startuml TextDecoder
class Main

namespace Decoder {
    interface ITraceDecoder<T : ITraceLine>
    abstract class TextDecoderBase<T : ITraceLine> {
        #TextDecoderBase()
        #TextDecoderBase(encoding: Encoding)
        ..
        +Encoding: Encoding
        ..
        +Decode(buffer: ReadOnlySpan<byte>, position: long): IEnumerable<T>
        +Flush(): IEnumerable<T>
        #GetLine(line: Span<char>, position: long): T
    }

    class TextDecoder
    class TeraTermDecoder
}

Decoder.ITraceDecoder <|.. Decoder.TextDecoderBase
Decoder.TextDecoderBase <|- - Decoder.TextDecoder : T > TraceLine
Decoder.TextDecoderBase <|- - Decoder.TeraTermDecoder : T > LogTraceLine

abstract class TraceReaderFactory<T : ITraceLine>
class TraceReader<T : ITraceLine>
class TeraTermTraceReaderFactory
class TextTraceReaderFactory

TraceReaderFactory <|- - TextTraceReaderFactory : T > TraceLine
TraceReaderFactory <|- - TeraTermTraceReaderFactory : T > LogTraceLine

TextTraceReaderFactory - -> Decoder.TextDecoder : <<instantiates>>
TextTraceReaderFactory - -> TraceReader : <<returns>>\nT > TraceLine

TeraTermTraceReaderFactory - -> Decoder.TeraTermDecoder : <<instantiates>>
TeraTermTraceReaderFactory - -> TraceReader : <<returns>>\nT > LogTraceLine

Main - -> TeraTermTraceReaderFactory : <<instantiates>>
Main - -> TextTraceReaderFactory : <<instantiates>>
TraceReader - -* Main
@enduml

PlantUML version 1.2022.1(Tue Feb 01 19:19:58 CET 2022)
(GPL source distribution)
Java Runtime: Java(TM) SE Runtime Environment
JVM: Java HotSpot(TM) 64-Bit Server VM
Default Encoding: Cp1252
Language: en
Country: GB
--></g></svg>