<?xml version="1.0" encoding="UTF-8" standalone="no"?><svg xmlns="http://www.w3.org/2000/svg" xmlns:xlink="http://www.w3.org/1999/xlink" contentScriptType="application/ecmascript" contentStyleType="text/css" height="573px" preserveAspectRatio="none" style="width:416px;height:573px;background:#FFFFFF;" version="1.1" viewBox="0 0 416 573" width="416px" zoomAndPan="magnify"><defs><filter height="300%" id="f1l2tj069laxay" width="300%" x="-1" y="-1"><feGaussianBlur result="blurOut" stdDeviation="2.0"/><feColorMatrix in="blurOut" result="blurOut2" type="matrix" values="0 0 0 0 0 0 0 0 0 0 0 0 0 0 0 0 0 0 .4 0"/><feOffset dx="4.0" dy="4.0" in="blurOut2" result="blurOut3"/><feBlend in="SourceGraphic" in2="blurOut3" mode="normal"/></filter></defs><g><!--MD5=[e320b41f2d43b11d6de1346cab4ea5fc]
cluster View--><polygon fill="#FFFFFF" filter="url(#f1l2tj069laxay)" points="87,6,126,6,133,29.6094,367,29.6094,367,232,87,232,87,6" style="stroke:#000000;stroke-width:1.5;"/><line style="stroke:#000000;stroke-width:1.5;" x1="87" x2="133" y1="29.6094" y2="29.6094"/><text fill="#000000" font-family="sans-serif" font-size="14" font-weight="bold" lengthAdjust="spacing" textLength="33" x="91" y="22.5332">View</text><!--MD5=[d64883541e3d62e3241c4d12decf100d]
cluster Application--><polygon fill="#FFFFFF" filter="url(#f1l2tj069laxay)" points="16,309,100,309,107,332.6094,215,332.6094,215,409,16,409,16,309" style="stroke:#000000;stroke-width:1.5;"/><line style="stroke:#000000;stroke-width:1.5;" x1="16" x2="107" y1="332.6094" y2="332.6094"/><text fill="#000000" font-family="sans-serif" font-size="14" font-weight="bold" lengthAdjust="spacing" textLength="78" x="20" y="325.5332">Application</text><!--MD5=[9ddaf8ee8bcae11a9a9232f969198262]
cluster Infrastructure--><polygon fill="#FFFFFF" filter="url(#f1l2tj069laxay)" points="30,466,133,466,140,489.6094,143,489.6094,143,566,30,566,30,466" style="stroke:#000000;stroke-width:1.5;"/><line style="stroke:#000000;stroke-width:1.5;" x1="30" x2="140" y1="489.6094" y2="489.6094"/><text fill="#000000" font-family="sans-serif" font-size="14" font-weight="bold" lengthAdjust="spacing" textLength="97" x="34" y="482.5332">Infrastructure</text><!--MD5=[a3db38b29c3436960cdd3b658ea5cf84]
cluster Framework--><polygon fill="#FFFFFF" filter="url(#f1l2tj069laxay)" points="239,265,323,265,330,288.6094,399,288.6094,399,433,239,433,239,265" style="stroke:#000000;stroke-width:1.5;"/><line style="stroke:#000000;stroke-width:1.5;" x1="239" x2="330" y1="288.6094" y2="288.6094"/><text fill="#000000" font-family="sans-serif" font-size="14" font-weight="bold" lengthAdjust="spacing" textLength="78" x="243" y="281.5332">Framework</text><!--MD5=[9bb2fe35fa6a319bf9ddec4191578fed]
cluster Framework.System--><polygon fill="#FFFFFF" filter="url(#f1l2tj069laxay)" points="263,309,319,309,326,332.6094,375,332.6094,375,409,263,409,263,309" style="stroke:#000000;stroke-width:1.5;"/><line style="stroke:#000000;stroke-width:1.5;" x1="263" x2="326" y1="332.6094" y2="332.6094"/><text fill="#000000" font-family="sans-serif" font-size="14" font-weight="bold" lengthAdjust="spacing" textLength="50" x="267" y="325.5332">System</text><!--MD5=[5cbf0e0c9e584acdcd75316a3ed38df0]
class View.CommandFactory--><rect codeLine="3" fill="#FEFECE" filter="url(#f1l2tj069laxay)" height="48" id="View.CommandFactory" style="stroke:#A80036;stroke-width:1.5;" width="130" x="103" y="42"/><ellipse cx="118" cy="58" fill="#ADD1B2" rx="11" ry="11" style="stroke:#A80036;stroke-width:1.0;"/><path d="M120.7656,53.875 Q120.9219,53.6563 121.1094,53.5469 Q121.2969,53.4375 121.5156,53.4375 Q121.8906,53.4375 122.125,53.6953 Q122.3594,53.9531 122.3594,54.5625 L122.3594,56.0156 Q122.3594,56.625 122.125,56.8906 Q121.8906,57.1563 121.5156,57.1563 Q121.1719,57.1563 120.9688,56.9531 Q120.7656,56.7656 120.6563,56.25 Q120.6094,55.8906 120.4219,55.7031 Q120.0938,55.3281 119.4844,55.1094 Q118.875,54.8906 118.25,54.8906 Q117.4844,54.8906 116.8516,55.2188 Q116.2188,55.5469 115.7266,56.2969 Q115.2344,57.0469 115.2344,58.0781 L115.2344,59.1719 Q115.2344,60.4063 116.125,61.2266 Q117.0156,62.0469 118.6094,62.0469 Q119.5469,62.0469 120.2031,61.7969 Q120.5938,61.6406 121.0156,61.2031 Q121.2813,60.9375 121.4297,60.8594 Q121.5781,60.7813 121.7813,60.7813 Q122.1094,60.7813 122.3672,61.0391 Q122.625,61.2969 122.625,61.6406 Q122.625,61.9844 122.2813,62.3906 Q121.7813,62.9688 120.9844,63.2969 Q119.9063,63.75 118.6094,63.75 Q117.0938,63.75 115.8906,63.125 Q114.9063,62.625 114.2188,61.5547 Q113.5313,60.4844 113.5313,59.2031 L113.5313,58.0469 Q113.5313,56.7188 114.1484,55.5703 Q114.7656,54.4219 115.8594,53.8047 Q116.9531,53.1875 118.1875,53.1875 Q118.9219,53.1875 119.5703,53.3516 Q120.2188,53.5156 120.7656,53.875 Z " fill="#000000"/><text fill="#000000" font-family="sans-serif" font-size="12" lengthAdjust="spacing" textLength="98" x="132" y="62.9102">CommandFactory</text><line style="stroke:#A80036;stroke-width:1.5;" x1="104" x2="232" y1="74" y2="74"/><line style="stroke:#A80036;stroke-width:1.5;" x1="104" x2="232" y1="82" y2="82"/><!--MD5=[2092deacab3d021e8fbebc0eebd009ce]
class View.ICommand--><rect codeLine="5" fill="#FEFECE" filter="url(#f1l2tj069laxay)" height="48" id="View.ICommand" style="stroke:#A80036;stroke-width:1.5;" width="95" x="255.5" y="168"/><ellipse cx="270.5" cy="184" fill="#B4A7E5" rx="11" ry="11" style="stroke:#A80036;stroke-width:1.0;"/><path d="M271.4531,180.6406 L271.4531,187.2969 L273.1719,187.2969 Q273.7813,187.2969 274.0469,187.5313 Q274.3125,187.7656 274.3125,188.1563 Q274.3125,188.5313 274.0469,188.7656 Q273.7813,189 273.1719,189 L268.0313,189 Q267.4219,189 267.1563,188.7656 Q266.8906,188.5313 266.8906,188.1406 Q266.8906,187.7656 267.1563,187.5313 Q267.4219,187.2969 268.0313,187.2969 L269.75,187.2969 L269.75,180.6406 L268.0313,180.6406 Q267.4219,180.6406 267.1563,180.4063 Q266.8906,180.1719 266.8906,179.7813 Q266.8906,179.4063 267.1563,179.1719 Q267.4219,178.9375 268.0313,178.9375 L273.1719,178.9375 Q273.7813,178.9375 274.0469,179.1719 Q274.3125,179.4063 274.3125,179.7813 Q274.3125,180.1719 274.0469,180.4063 Q273.7813,180.6406 273.1719,180.6406 L271.4531,180.6406 Z " fill="#000000"/><text fill="#000000" font-family="sans-serif" font-size="12" font-style="italic" lengthAdjust="spacing" textLength="63" x="284.5" y="188.9102">ICommand</text><line style="stroke:#A80036;stroke-width:1.5;" x1="256.5" x2="349.5" y1="200" y2="200"/><line style="stroke:#A80036;stroke-width:1.5;" x1="256.5" x2="349.5" y1="208" y2="208"/><!--MD5=[538c3518dc8338788ab3fd68cdfeb2fa]
class View.HelpCommand--><rect codeLine="6" fill="#FEFECE" filter="url(#f1l2tj069laxay)" height="48" id="View.HelpCommand" style="stroke:#A80036;stroke-width:1.5;" width="117" x="103.5" y="168"/><ellipse cx="118.5" cy="184" fill="#ADD1B2" rx="11" ry="11" style="stroke:#A80036;stroke-width:1.0;"/><path d="M121.2656,179.875 Q121.4219,179.6563 121.6094,179.5469 Q121.7969,179.4375 122.0156,179.4375 Q122.3906,179.4375 122.625,179.6953 Q122.8594,179.9531 122.8594,180.5625 L122.8594,182.0156 Q122.8594,182.625 122.625,182.8906 Q122.3906,183.1563 122.0156,183.1563 Q121.6719,183.1563 121.4688,182.9531 Q121.2656,182.7656 121.1563,182.25 Q121.1094,181.8906 120.9219,181.7031 Q120.5938,181.3281 119.9844,181.1094 Q119.375,180.8906 118.75,180.8906 Q117.9844,180.8906 117.3516,181.2188 Q116.7188,181.5469 116.2266,182.2969 Q115.7344,183.0469 115.7344,184.0781 L115.7344,185.1719 Q115.7344,186.4063 116.625,187.2266 Q117.5156,188.0469 119.1094,188.0469 Q120.0469,188.0469 120.7031,187.7969 Q121.0938,187.6406 121.5156,187.2031 Q121.7813,186.9375 121.9297,186.8594 Q122.0781,186.7813 122.2813,186.7813 Q122.6094,186.7813 122.8672,187.0391 Q123.125,187.2969 123.125,187.6406 Q123.125,187.9844 122.7813,188.3906 Q122.2813,188.9688 121.4844,189.2969 Q120.4063,189.75 119.1094,189.75 Q117.5938,189.75 116.3906,189.125 Q115.4063,188.625 114.7188,187.5547 Q114.0313,186.4844 114.0313,185.2031 L114.0313,184.0469 Q114.0313,182.7188 114.6484,181.5703 Q115.2656,180.4219 116.3594,179.8047 Q117.4531,179.1875 118.6875,179.1875 Q119.4219,179.1875 120.0703,179.3516 Q120.7188,179.5156 121.2656,179.875 Z " fill="#000000"/><text fill="#000000" font-family="sans-serif" font-size="12" lengthAdjust="spacing" textLength="85" x="132.5" y="188.9102">HelpCommand</text><line style="stroke:#A80036;stroke-width:1.5;" x1="104.5" x2="219.5" y1="200" y2="200"/><line style="stroke:#A80036;stroke-width:1.5;" x1="104.5" x2="219.5" y1="208" y2="208"/><!--MD5=[1582ba576ef223efe9d8713b1e400c79]
class Application.Help--><rect codeLine="19" fill="#FEFECE" filter="url(#f1l2tj069laxay)" height="48" id="Application.Help" style="stroke:#A80036;stroke-width:1.5;" width="58" x="32" y="345"/><ellipse cx="47" cy="361" fill="#ADD1B2" rx="11" ry="11" style="stroke:#A80036;stroke-width:1.0;"/><path d="M49.7656,356.875 Q49.9219,356.6563 50.1094,356.5469 Q50.2969,356.4375 50.5156,356.4375 Q50.8906,356.4375 51.125,356.6953 Q51.3594,356.9531 51.3594,357.5625 L51.3594,359.0156 Q51.3594,359.625 51.125,359.8906 Q50.8906,360.1563 50.5156,360.1563 Q50.1719,360.1563 49.9688,359.9531 Q49.7656,359.7656 49.6563,359.25 Q49.6094,358.8906 49.4219,358.7031 Q49.0938,358.3281 48.4844,358.1094 Q47.875,357.8906 47.25,357.8906 Q46.4844,357.8906 45.8516,358.2188 Q45.2188,358.5469 44.7266,359.2969 Q44.2344,360.0469 44.2344,361.0781 L44.2344,362.1719 Q44.2344,363.4063 45.125,364.2266 Q46.0156,365.0469 47.6094,365.0469 Q48.5469,365.0469 49.2031,364.7969 Q49.5938,364.6406 50.0156,364.2031 Q50.2813,363.9375 50.4297,363.8594 Q50.5781,363.7813 50.7813,363.7813 Q51.1094,363.7813 51.3672,364.0391 Q51.625,364.2969 51.625,364.6406 Q51.625,364.9844 51.2813,365.3906 Q50.7813,365.9688 49.9844,366.2969 Q48.9063,366.75 47.6094,366.75 Q46.0938,366.75 44.8906,366.125 Q43.9063,365.625 43.2188,364.5547 Q42.5313,363.4844 42.5313,362.2031 L42.5313,361.0469 Q42.5313,359.7188 43.1484,358.5703 Q43.7656,357.4219 44.8594,356.8047 Q45.9531,356.1875 47.1875,356.1875 Q47.9219,356.1875 48.5703,356.3516 Q49.2188,356.5156 49.7656,356.875 Z " fill="#000000"/><text fill="#000000" font-family="sans-serif" font-size="12" lengthAdjust="spacing" textLength="26" x="61" y="365.9102">Help</text><line style="stroke:#A80036;stroke-width:1.5;" x1="33" x2="89" y1="377" y2="377"/><line style="stroke:#A80036;stroke-width:1.5;" x1="33" x2="89" y1="385" y2="385"/><!--MD5=[2309d0fdbbd736e8c1b525d8d6c47882]
class Application.Version--><rect codeLine="20" fill="#FEFECE" filter="url(#f1l2tj069laxay)" height="48" id="Application.Version" style="stroke:#A80036;stroke-width:1.5;" width="74" x="125" y="345"/><ellipse cx="140" cy="361" fill="#ADD1B2" rx="11" ry="11" style="stroke:#A80036;stroke-width:1.0;"/><path d="M142.7656,356.875 Q142.9219,356.6563 143.1094,356.5469 Q143.2969,356.4375 143.5156,356.4375 Q143.8906,356.4375 144.125,356.6953 Q144.3594,356.9531 144.3594,357.5625 L144.3594,359.0156 Q144.3594,359.625 144.125,359.8906 Q143.8906,360.1563 143.5156,360.1563 Q143.1719,360.1563 142.9688,359.9531 Q142.7656,359.7656 142.6563,359.25 Q142.6094,358.8906 142.4219,358.7031 Q142.0938,358.3281 141.4844,358.1094 Q140.875,357.8906 140.25,357.8906 Q139.4844,357.8906 138.8516,358.2188 Q138.2188,358.5469 137.7266,359.2969 Q137.2344,360.0469 137.2344,361.0781 L137.2344,362.1719 Q137.2344,363.4063 138.125,364.2266 Q139.0156,365.0469 140.6094,365.0469 Q141.5469,365.0469 142.2031,364.7969 Q142.5938,364.6406 143.0156,364.2031 Q143.2813,363.9375 143.4297,363.8594 Q143.5781,363.7813 143.7813,363.7813 Q144.1094,363.7813 144.3672,364.0391 Q144.625,364.2969 144.625,364.6406 Q144.625,364.9844 144.2813,365.3906 Q143.7813,365.9688 142.9844,366.2969 Q141.9063,366.75 140.6094,366.75 Q139.0938,366.75 137.8906,366.125 Q136.9063,365.625 136.2188,364.5547 Q135.5313,363.4844 135.5313,362.2031 L135.5313,361.0469 Q135.5313,359.7188 136.1484,358.5703 Q136.7656,357.4219 137.8594,356.8047 Q138.9531,356.1875 140.1875,356.1875 Q140.9219,356.1875 141.5703,356.3516 Q142.2188,356.5156 142.7656,356.875 Z " fill="#000000"/><text fill="#000000" font-family="sans-serif" font-size="12" lengthAdjust="spacing" textLength="42" x="154" y="365.9102">Version</text><line style="stroke:#A80036;stroke-width:1.5;" x1="126" x2="198" y1="377" y2="377"/><line style="stroke:#A80036;stroke-width:1.5;" x1="126" x2="198" y1="385" y2="385"/><!--MD5=[34cbecfaad1876f6cf3faa32d8a9922d]
class Infrastructure.Version--><rect codeLine="27" fill="#FEFECE" filter="url(#f1l2tj069laxay)" height="48" id="Infrastructure.Version" style="stroke:#A80036;stroke-width:1.5;" width="74" x="49" y="502"/><ellipse cx="64" cy="518" fill="#ADD1B2" rx="11" ry="11" style="stroke:#A80036;stroke-width:1.0;"/><path d="M66.7656,513.875 Q66.9219,513.6563 67.1094,513.5469 Q67.2969,513.4375 67.5156,513.4375 Q67.8906,513.4375 68.125,513.6953 Q68.3594,513.9531 68.3594,514.5625 L68.3594,516.0156 Q68.3594,516.625 68.125,516.8906 Q67.8906,517.1563 67.5156,517.1563 Q67.1719,517.1563 66.9688,516.9531 Q66.7656,516.7656 66.6563,516.25 Q66.6094,515.8906 66.4219,515.7031 Q66.0938,515.3281 65.4844,515.1094 Q64.875,514.8906 64.25,514.8906 Q63.4844,514.8906 62.8516,515.2188 Q62.2188,515.5469 61.7266,516.2969 Q61.2344,517.0469 61.2344,518.0781 L61.2344,519.1719 Q61.2344,520.4063 62.125,521.2266 Q63.0156,522.0469 64.6094,522.0469 Q65.5469,522.0469 66.2031,521.7969 Q66.5938,521.6406 67.0156,521.2031 Q67.2813,520.9375 67.4297,520.8594 Q67.5781,520.7813 67.7813,520.7813 Q68.1094,520.7813 68.3672,521.0391 Q68.625,521.2969 68.625,521.6406 Q68.625,521.9844 68.2813,522.3906 Q67.7813,522.9688 66.9844,523.2969 Q65.9063,523.75 64.6094,523.75 Q63.0938,523.75 61.8906,523.125 Q60.9063,522.625 60.2188,521.5547 Q59.5313,520.4844 59.5313,519.2031 L59.5313,518.0469 Q59.5313,516.7188 60.1484,515.5703 Q60.7656,514.4219 61.8594,513.8047 Q62.9531,513.1875 64.1875,513.1875 Q64.9219,513.1875 65.5703,513.3516 Q66.2188,513.5156 66.7656,513.875 Z " fill="#000000"/><text fill="#000000" font-family="sans-serif" font-size="12" lengthAdjust="spacing" textLength="42" x="78" y="522.9102">Version</text><line style="stroke:#A80036;stroke-width:1.5;" x1="50" x2="122" y1="534" y2="534"/><line style="stroke:#A80036;stroke-width:1.5;" x1="50" x2="122" y1="542" y2="542"/><!--MD5=[2dcd65ad340c05af1a809e5c32468bbe]
class Framework.System.Console--><rect codeLine="32" fill="#FEFECE" filter="url(#f1l2tj069laxay)" height="48" id="Framework.System.Console" style="stroke:#A80036;stroke-width:1.5;" width="79" x="279.5" y="345"/><ellipse cx="294.5" cy="361" fill="#ADD1B2" rx="11" ry="11" style="stroke:#A80036;stroke-width:1.0;"/><path d="M297.2656,356.875 Q297.4219,356.6563 297.6094,356.5469 Q297.7969,356.4375 298.0156,356.4375 Q298.3906,356.4375 298.625,356.6953 Q298.8594,356.9531 298.8594,357.5625 L298.8594,359.0156 Q298.8594,359.625 298.625,359.8906 Q298.3906,360.1563 298.0156,360.1563 Q297.6719,360.1563 297.4688,359.9531 Q297.2656,359.7656 297.1563,359.25 Q297.1094,358.8906 296.9219,358.7031 Q296.5938,358.3281 295.9844,358.1094 Q295.375,357.8906 294.75,357.8906 Q293.9844,357.8906 293.3516,358.2188 Q292.7188,358.5469 292.2266,359.2969 Q291.7344,360.0469 291.7344,361.0781 L291.7344,362.1719 Q291.7344,363.4063 292.625,364.2266 Q293.5156,365.0469 295.1094,365.0469 Q296.0469,365.0469 296.7031,364.7969 Q297.0938,364.6406 297.5156,364.2031 Q297.7813,363.9375 297.9297,363.8594 Q298.0781,363.7813 298.2813,363.7813 Q298.6094,363.7813 298.8672,364.0391 Q299.125,364.2969 299.125,364.6406 Q299.125,364.9844 298.7813,365.3906 Q298.2813,365.9688 297.4844,366.2969 Q296.4063,366.75 295.1094,366.75 Q293.5938,366.75 292.3906,366.125 Q291.4063,365.625 290.7188,364.5547 Q290.0313,363.4844 290.0313,362.2031 L290.0313,361.0469 Q290.0313,359.7188 290.6484,358.5703 Q291.2656,357.4219 292.3594,356.8047 Q293.4531,356.1875 294.6875,356.1875 Q295.4219,356.1875 296.0703,356.3516 Q296.7188,356.5156 297.2656,356.875 Z " fill="#000000"/><text fill="#000000" font-family="sans-serif" font-size="12" lengthAdjust="spacing" textLength="47" x="308.5" y="365.9102">Console</text><line style="stroke:#A80036;stroke-width:1.5;" x1="280.5" x2="357.5" y1="377" y2="377"/><line style="stroke:#A80036;stroke-width:1.5;" x1="280.5" x2="357.5" y1="385" y2="385"/><!--MD5=[c2f356ee102a9eb97b2adc9b3d84ec9a]
link View.HelpCommand to View.ICommand--><path codeLine="8" d="M220.66,192 C225.54,192 230.43,192 235.31,192 " fill="none" id="View.HelpCommand-to-View.ICommand" style="stroke:#A80036;stroke-width:1.0;stroke-dasharray:7.0,7.0;"/><polygon fill="none" points="235.4,185,255.4,192,235.4,199,235.4,185" style="stroke:#A80036;stroke-width:1.0;"/><!--MD5=[c7b917dbc6d926f8a92ece9360ab7180]
link View.CommandFactory to View.HelpCommand--><path codeLine="10" d="M166.89,90.03 C165.89,110.52 164.44,140.56 163.38,162.55 " fill="none" id="View.CommandFactory-to-View.HelpCommand" style="stroke:#A80036;stroke-width:1.0;"/><polygon fill="#A80036" points="163.13,167.67,167.5619,158.8747,163.3726,162.6759,159.5713,158.4865,163.13,167.67" style="stroke:#A80036;stroke-width:1.0;"/><text fill="#000000" font-family="sans-serif" font-size="13" lengthAdjust="spacing" textLength="81" x="166" y="134.4951">«instantiates»</text><!--MD5=[9d74b5beb568c6481f669e62a3aae0ae]
link View.HelpCommand to Application.Help--><path codeLine="12" d="M138.91,216.2 C128.24,227.78 115.98,242.4 107,257 C90.68,283.54 77.74,316.9 69.8,340.09 " fill="none" id="View.HelpCommand-to-Application.Help" style="stroke:#A80036;stroke-width:1.0;"/><polygon fill="#A80036" points="68.18,344.87,74.847,337.6208,69.7783,340.1323,67.2667,335.0636,68.18,344.87" style="stroke:#A80036;stroke-width:1.0;"/><!--MD5=[3d0be271ea95dbe4920c6a765b42f622]
link View.HelpCommand to Application.Version--><path codeLine="13" d="M162,216.24 C162,248.1 162,305.29 162,339.64 " fill="none" id="View.HelpCommand-to-Application.Version" style="stroke:#A80036;stroke-width:1.0;"/><polygon fill="#A80036" points="162,344.94,166,335.94,162,339.94,158,335.94,162,344.94" style="stroke:#A80036;stroke-width:1.0;"/><!--MD5=[71440744bc003faf38447d58153ad8de]
link Application.Help to Infrastructure.Version--><path codeLine="22" d="M64.74,393.21 C69.21,420.91 76.68,467.21 81.47,496.91 " fill="none" id="Application.Help-to-Infrastructure.Version" style="stroke:#A80036;stroke-width:1.0;"/><polygon fill="#A80036" points="82.27,501.89,84.7763,492.3654,81.4689,496.9546,76.8797,493.6472,82.27,501.89" style="stroke:#A80036;stroke-width:1.0;"/><!--MD5=[993d2d648121a5a02227a70a95c2dd47]
link Application.Version to Infrastructure.Version--><path codeLine="23" d="M150.62,393.21 C136.98,421.02 114.15,467.59 99.59,497.28 " fill="none" id="Application.Version-to-Infrastructure.Version" style="stroke:#A80036;stroke-width:1.0;"/><polygon fill="#A80036" points="97.33,501.89,104.8844,495.5709,99.5317,497.4008,97.7017,492.0482,97.33,501.89" style="stroke:#A80036;stroke-width:1.0;"/><!--MD5=[519dd20c57f5e83a1b136fb70c75bdb5]
link View.HelpCommand to Framework.System.Console--><path codeLine="34" d="M182.85,216.24 C211.78,248.49 264.01,306.71 294.68,340.9 " fill="none" id="View.HelpCommand-to-Framework.System.Console" style="stroke:#A80036;stroke-width:1.0;"/><polygon fill="#A80036" points="298.32,344.94,295.2904,335.5687,294.9823,341.2172,289.3338,340.9091,298.32,344.94" style="stroke:#A80036;stroke-width:1.0;"/><!--MD5=[aa58d231eda806a69c6b71980e10396b]
@startuml App.Help

namespace View {
    class CommandFactory

    interface ICommand
    class HelpCommand

    ICommand <|.l.HelpCommand

    CommandFactory - -> HelpCommand : <<instantiates>>

    HelpCommand - -> Application.Help
    HelpCommand - -> Application.Version
}

'View.HelpCommand - -> Framework.System.Console

namespace Application {
    class Help
    class Version

    Help - -> Infrastructure.Version
    Version - -> Infrastructure.Version
}

namespace Infrastructure {
    class Version
}

namespace Framework {
    namespace System {
        class Console

        View.HelpCommand - -> Console
    }
}

@enduml

@startuml App.Help

namespace View {
    class CommandFactory

    interface ICommand
    class HelpCommand

    ICommand <|.l.HelpCommand

    CommandFactory - -> HelpCommand : <<instantiates>>

    HelpCommand - -> Application.Help
    HelpCommand - -> Application.Version
}


namespace Application {
    class Help
    class Version

    Help - -> Infrastructure.Version
    Version - -> Infrastructure.Version
}

namespace Infrastructure {
    class Version
}

namespace Framework {
    namespace System {
        class Console

        View.HelpCommand - -> Console
    }
}

@enduml

PlantUML version 1.2022.0(Tue Jan 11 17:16:42 CET 2022)
(GPL source distribution)
Java Runtime: Java(TM) SE Runtime Environment
JVM: Java HotSpot(TM) Client VM
Default Encoding: Cp1252
Language: en
Country: US
--></g></svg>