<?xml version="1.0" encoding="us-ascii" standalone="no"?><svg xmlns="http://www.w3.org/2000/svg" xmlns:xlink="http://www.w3.org/1999/xlink" contentStyleType="text/css" height="483px" preserveAspectRatio="none" style="width:709px;height:483px;background:#FFFFFF;" version="1.1" viewBox="0 0 709 483" width="709px" zoomAndPan="magnify"><defs/><g><!--cluster View--><g id="cluster_View"><path d="M8.5,6 L48.5,6 A3.75,3.75 0 0 1 51,8.5 L58,28.2969 L310.5,28.2969 A2.5,2.5 0 0 1 313,30.7969 L313,473.5 A2.5,2.5 0 0 1 310.5,476 L8.5,476 A2.5,2.5 0 0 1 6,473.5 L6,8.5 A2.5,2.5 0 0 1 8.5,6 " fill="none" style="stroke:#000000;stroke-width:1.5;"/><line style="stroke:#000000;stroke-width:1.5;" x1="6" x2="58" y1="28.2969" y2="28.2969"/><text fill="#000000" font-family="sans-serif" font-size="14" font-weight="bold" lengthAdjust="spacing" textLength="39" x="10" y="20.9951">View</text></g><!--cluster Application--><g id="cluster_Application"><path d="M34.5,353 L122.5,353 A3.75,3.75 0 0 1 125,355.5 L132,375.2969 L244.5,375.2969 A2.5,2.5 0 0 1 247,377.7969 L247,449.5 A2.5,2.5 0 0 1 244.5,452 L34.5,452 A2.5,2.5 0 0 1 32,449.5 L32,355.5 A2.5,2.5 0 0 1 34.5,353 " fill="none" style="stroke:#000000;stroke-width:1.5;"/><line style="stroke:#000000;stroke-width:1.5;" x1="32" x2="132" y1="375.2969" y2="375.2969"/><text fill="#000000" font-family="sans-serif" font-size="14" font-weight="bold" lengthAdjust="spacing" textLength="87" x="36" y="367.9951">Application</text></g><!--cluster Application--><g id="cluster_Application"><path d="M339.5,6 L427.5,6 A3.75,3.75 0 0 1 430,8.5 L437,28.2969 L549.5,28.2969 A2.5,2.5 0 0 1 552,30.7969 L552,274.5 A2.5,2.5 0 0 1 549.5,277 L339.5,277 A2.5,2.5 0 0 1 337,274.5 L337,8.5 A2.5,2.5 0 0 1 339.5,6 " fill="none" style="stroke:#000000;stroke-width:1.5;"/><line style="stroke:#000000;stroke-width:1.5;" x1="337" x2="437" y1="28.2969" y2="28.2969"/><text fill="#000000" font-family="sans-serif" font-size="14" font-weight="bold" lengthAdjust="spacing" textLength="87" x="341" y="20.9951">Application</text></g><!--cluster Infrastructure--><g id="cluster_Infrastructure"><path d="M383.5,154 L494.5,154 A3.75,3.75 0 0 1 497,156.5 L504,176.2969 L504.5,176.2969 A2.5,2.5 0 0 1 507,178.7969 L507,250.5 A2.5,2.5 0 0 1 504.5,253 L383.5,253 A2.5,2.5 0 0 1 381,250.5 L381,156.5 A2.5,2.5 0 0 1 383.5,154 " fill="none" style="stroke:#000000;stroke-width:1.5;"/><line style="stroke:#000000;stroke-width:1.5;" x1="381" x2="504" y1="176.2969" y2="176.2969"/><text fill="#000000" font-family="sans-serif" font-size="14" font-weight="bold" lengthAdjust="spacing" textLength="110" x="385" y="168.9951">Infrastructure</text></g><!--cluster Infrastructure--><g id="cluster_Infrastructure"><path d="M578.5,6 L689.5,6 A3.75,3.75 0 0 1 692,8.5 L699,28.2969 L699.5,28.2969 A2.5,2.5 0 0 1 702,30.7969 L702,102.5 A2.5,2.5 0 0 1 699.5,105 L578.5,105 A2.5,2.5 0 0 1 576,102.5 L576,8.5 A2.5,2.5 0 0 1 578.5,6 " fill="none" style="stroke:#000000;stroke-width:1.5;"/><line style="stroke:#000000;stroke-width:1.5;" x1="576" x2="699" y1="28.2969" y2="28.2969"/><text fill="#000000" font-family="sans-serif" font-size="14" font-weight="bold" lengthAdjust="spacing" textLength="110" x="580" y="20.9951">Infrastructure</text></g><!--cluster Framework--><g id="cluster_Framework"><path d="M339.5,310 L429.5,310 A3.75,3.75 0 0 1 432,312.5 L439,332.2969 L502.5,332.2969 A2.5,2.5 0 0 1 505,334.7969 L505,473.5 A2.5,2.5 0 0 1 502.5,476 L339.5,476 A2.5,2.5 0 0 1 337,473.5 L337,312.5 A2.5,2.5 0 0 1 339.5,310 " fill="none" style="stroke:#000000;stroke-width:1.5;"/><line style="stroke:#000000;stroke-width:1.5;" x1="337" x2="439" y1="332.2969" y2="332.2969"/><text fill="#000000" font-family="sans-serif" font-size="14" font-weight="bold" lengthAdjust="spacing" textLength="89" x="341" y="324.9951">Framework</text></g><!--cluster System--><g id="cluster_System"><path d="M363.5,353 L422.5,353 A3.75,3.75 0 0 1 425,355.5 L432,375.2969 L478.5,375.2969 A2.5,2.5 0 0 1 481,377.7969 L481,449.5 A2.5,2.5 0 0 1 478.5,452 L363.5,452 A2.5,2.5 0 0 1 361,449.5 L361,355.5 A2.5,2.5 0 0 1 363.5,353 " fill="none" style="stroke:#000000;stroke-width:1.5;"/><line style="stroke:#000000;stroke-width:1.5;" x1="361" x2="432" y1="375.2969" y2="375.2969"/><text fill="#000000" font-family="sans-serif" font-size="14" font-weight="bold" lengthAdjust="spacing" textLength="58" x="365" y="367.9951">System</text></g><!--class CommandFactory--><g id="elem_CommandFactory"><rect codeLine="3" fill="#F1F1F1" height="48" id="CommandFactory" rx="2.5" ry="2.5" style="stroke:#181818;stroke-width:0.5;" width="153" x="22.5" y="41"/><ellipse cx="37.5" cy="57" fill="#ADD1B2" rx="11" ry="11" style="stroke:#181818;stroke-width:1.0;"/><path d="M40.4688,62.6406 Q39.8906,62.9375 39.25,63.0781 Q38.6094,63.2344 37.9063,63.2344 Q35.4063,63.2344 34.0781,61.5938 Q32.7656,59.9375 32.7656,56.8125 Q32.7656,53.6875 34.0781,52.0313 Q35.4063,50.375 37.9063,50.375 Q38.6094,50.375 39.25,50.5313 Q39.9063,50.6875 40.4688,50.9844 L40.4688,53.7031 Q39.8438,53.125 39.25,52.8594 Q38.6563,52.5781 38.0313,52.5781 Q36.6875,52.5781 36,53.6563 Q35.3125,54.7188 35.3125,56.8125 Q35.3125,58.9063 36,59.9844 Q36.6875,61.0469 38.0313,61.0469 Q38.6563,61.0469 39.25,60.7813 Q39.8438,60.5 40.4688,59.9219 L40.4688,62.6406 Z " fill="#000000"/><text fill="#000000" font-family="sans-serif" font-size="14" lengthAdjust="spacing" textLength="121" x="51.5" y="61.8467">CommandFactory</text><line style="stroke:#181818;stroke-width:0.5;" x1="23.5" x2="174.5" y1="73" y2="73"/><line style="stroke:#181818;stroke-width:0.5;" x1="23.5" x2="174.5" y1="81" y2="81"/></g><!--class ICommand--><g id="elem_ICommand"><rect codeLine="5" fill="#F1F1F1" height="48" id="ICommand" rx="2.5" ry="2.5" style="stroke:#181818;stroke-width:0.5;" width="106" x="191" y="189"/><ellipse cx="206" cy="205" fill="#B4A7E5" rx="11" ry="11" style="stroke:#181818;stroke-width:1.0;"/><path d="M201.9219,200.7656 L201.9219,198.6094 L209.3125,198.6094 L209.3125,200.7656 L206.8438,200.7656 L206.8438,208.8438 L209.3125,208.8438 L209.3125,211 L201.9219,211 L201.9219,208.8438 L204.3906,208.8438 L204.3906,200.7656 L201.9219,200.7656 Z " fill="#000000"/><text fill="#000000" font-family="sans-serif" font-size="14" font-style="italic" lengthAdjust="spacing" textLength="74" x="220" y="209.8467">ICommand</text><line style="stroke:#181818;stroke-width:0.5;" x1="192" x2="296" y1="221" y2="221"/><line style="stroke:#181818;stroke-width:0.5;" x1="192" x2="296" y1="229" y2="229"/></g><!--class HelpCommand--><g id="elem_HelpCommand"><rect codeLine="6" fill="#F1F1F1" height="48" id="HelpCommand" rx="2.5" ry="2.5" style="stroke:#181818;stroke-width:0.5;" width="134" x="22" y="189"/><ellipse cx="37" cy="205" fill="#ADD1B2" rx="11" ry="11" style="stroke:#181818;stroke-width:1.0;"/><path d="M39.9688,210.6406 Q39.3906,210.9375 38.75,211.0781 Q38.1094,211.2344 37.4063,211.2344 Q34.9063,211.2344 33.5781,209.5938 Q32.2656,207.9375 32.2656,204.8125 Q32.2656,201.6875 33.5781,200.0313 Q34.9063,198.375 37.4063,198.375 Q38.1094,198.375 38.75,198.5313 Q39.4063,198.6875 39.9688,198.9844 L39.9688,201.7031 Q39.3438,201.125 38.75,200.8594 Q38.1563,200.5781 37.5313,200.5781 Q36.1875,200.5781 35.5,201.6563 Q34.8125,202.7188 34.8125,204.8125 Q34.8125,206.9063 35.5,207.9844 Q36.1875,209.0469 37.5313,209.0469 Q38.1563,209.0469 38.75,208.7813 Q39.3438,208.5 39.9688,207.9219 L39.9688,210.6406 Z " fill="#000000"/><text fill="#000000" font-family="sans-serif" font-size="14" lengthAdjust="spacing" textLength="102" x="51" y="209.8467">HelpCommand</text><line style="stroke:#181818;stroke-width:0.5;" x1="23" x2="155" y1="221" y2="221"/><line style="stroke:#181818;stroke-width:0.5;" x1="23" x2="155" y1="229" y2="229"/></g><!--class Help--><g id="elem_Help"><rect fill="#F1F1F1" height="48" id="Help" rx="2.5" ry="2.5" style="stroke:#181818;stroke-width:0.5;" width="63" x="48.5" y="388"/><ellipse cx="63.5" cy="404" fill="#ADD1B2" rx="11" ry="11" style="stroke:#181818;stroke-width:1.0;"/><path d="M66.4688,409.6406 Q65.8906,409.9375 65.25,410.0781 Q64.6094,410.2344 63.9063,410.2344 Q61.4063,410.2344 60.0781,408.5938 Q58.7656,406.9375 58.7656,403.8125 Q58.7656,400.6875 60.0781,399.0313 Q61.4063,397.375 63.9063,397.375 Q64.6094,397.375 65.25,397.5313 Q65.9063,397.6875 66.4688,397.9844 L66.4688,400.7031 Q65.8438,400.125 65.25,399.8594 Q64.6563,399.5781 64.0313,399.5781 Q62.6875,399.5781 62,400.6563 Q61.3125,401.7188 61.3125,403.8125 Q61.3125,405.9063 62,406.9844 Q62.6875,408.0469 64.0313,408.0469 Q64.6563,408.0469 65.25,407.7813 Q65.8438,407.5 66.4688,406.9219 L66.4688,409.6406 Z " fill="#000000"/><text fill="#000000" font-family="sans-serif" font-size="14" lengthAdjust="spacing" textLength="31" x="77.5" y="408.8467">Help</text><line style="stroke:#181818;stroke-width:0.5;" x1="49.5" x2="110.5" y1="420" y2="420"/><line style="stroke:#181818;stroke-width:0.5;" x1="49.5" x2="110.5" y1="428" y2="428"/></g><!--class Version--><g id="elem_Version"><rect fill="#F1F1F1" height="48" id="Version" rx="2.5" ry="2.5" style="stroke:#181818;stroke-width:0.5;" width="84" x="147" y="388"/><ellipse cx="162" cy="404" fill="#ADD1B2" rx="11" ry="11" style="stroke:#181818;stroke-width:1.0;"/><path d="M164.9688,409.6406 Q164.3906,409.9375 163.75,410.0781 Q163.1094,410.2344 162.4063,410.2344 Q159.9063,410.2344 158.5781,408.5938 Q157.2656,406.9375 157.2656,403.8125 Q157.2656,400.6875 158.5781,399.0313 Q159.9063,397.375 162.4063,397.375 Q163.1094,397.375 163.75,397.5313 Q164.4063,397.6875 164.9688,397.9844 L164.9688,400.7031 Q164.3438,400.125 163.75,399.8594 Q163.1563,399.5781 162.5313,399.5781 Q161.1875,399.5781 160.5,400.6563 Q159.8125,401.7188 159.8125,403.8125 Q159.8125,405.9063 160.5,406.9844 Q161.1875,408.0469 162.5313,408.0469 Q163.1563,408.0469 163.75,407.7813 Q164.3438,407.5 164.9688,406.9219 L164.9688,409.6406 Z " fill="#000000"/><text fill="#000000" font-family="sans-serif" font-size="14" lengthAdjust="spacing" textLength="52" x="176" y="408.8467">Version</text><line style="stroke:#181818;stroke-width:0.5;" x1="148" x2="230" y1="420" y2="420"/><line style="stroke:#181818;stroke-width:0.5;" x1="148" x2="230" y1="428" y2="428"/></g><!--class Help--><g id="elem_Help"><rect codeLine="19" fill="#F1F1F1" height="48" id="Help" rx="2.5" ry="2.5" style="stroke:#181818;stroke-width:0.5;" width="63" x="472.5" y="41"/><ellipse cx="487.5" cy="57" fill="#ADD1B2" rx="11" ry="11" style="stroke:#181818;stroke-width:1.0;"/><path d="M490.4688,62.6406 Q489.8906,62.9375 489.25,63.0781 Q488.6094,63.2344 487.9063,63.2344 Q485.4063,63.2344 484.0781,61.5938 Q482.7656,59.9375 482.7656,56.8125 Q482.7656,53.6875 484.0781,52.0313 Q485.4063,50.375 487.9063,50.375 Q488.6094,50.375 489.25,50.5313 Q489.9063,50.6875 490.4688,50.9844 L490.4688,53.7031 Q489.8438,53.125 489.25,52.8594 Q488.6563,52.5781 488.0313,52.5781 Q486.6875,52.5781 486,53.6563 Q485.3125,54.7188 485.3125,56.8125 Q485.3125,58.9063 486,59.9844 Q486.6875,61.0469 488.0313,61.0469 Q488.6563,61.0469 489.25,60.7813 Q489.8438,60.5 490.4688,59.9219 L490.4688,62.6406 Z " fill="#000000"/><text fill="#000000" font-family="sans-serif" font-size="14" lengthAdjust="spacing" textLength="31" x="501.5" y="61.8467">Help</text><line style="stroke:#181818;stroke-width:0.5;" x1="473.5" x2="534.5" y1="73" y2="73"/><line style="stroke:#181818;stroke-width:0.5;" x1="473.5" x2="534.5" y1="81" y2="81"/></g><!--class Version--><g id="elem_Version"><rect codeLine="20" fill="#F1F1F1" height="48" id="Version" rx="2.5" ry="2.5" style="stroke:#181818;stroke-width:0.5;" width="84" x="353" y="41"/><ellipse cx="368" cy="57" fill="#ADD1B2" rx="11" ry="11" style="stroke:#181818;stroke-width:1.0;"/><path d="M370.9688,62.6406 Q370.3906,62.9375 369.75,63.0781 Q369.1094,63.2344 368.4063,63.2344 Q365.9063,63.2344 364.5781,61.5938 Q363.2656,59.9375 363.2656,56.8125 Q363.2656,53.6875 364.5781,52.0313 Q365.9063,50.375 368.4063,50.375 Q369.1094,50.375 369.75,50.5313 Q370.4063,50.6875 370.9688,50.9844 L370.9688,53.7031 Q370.3438,53.125 369.75,52.8594 Q369.1563,52.5781 368.5313,52.5781 Q367.1875,52.5781 366.5,53.6563 Q365.8125,54.7188 365.8125,56.8125 Q365.8125,58.9063 366.5,59.9844 Q367.1875,61.0469 368.5313,61.0469 Q369.1563,61.0469 369.75,60.7813 Q370.3438,60.5 370.9688,59.9219 L370.9688,62.6406 Z " fill="#000000"/><text fill="#000000" font-family="sans-serif" font-size="14" lengthAdjust="spacing" textLength="52" x="382" y="61.8467">Version</text><line style="stroke:#181818;stroke-width:0.5;" x1="354" x2="436" y1="73" y2="73"/><line style="stroke:#181818;stroke-width:0.5;" x1="354" x2="436" y1="81" y2="81"/></g><!--class Version--><g id="elem_Version"><rect fill="#F1F1F1" height="48" id="Version" rx="2.5" ry="2.5" style="stroke:#181818;stroke-width:0.5;" width="84" x="402" y="189"/><ellipse cx="417" cy="205" fill="#ADD1B2" rx="11" ry="11" style="stroke:#181818;stroke-width:1.0;"/><path d="M419.9688,210.6406 Q419.3906,210.9375 418.75,211.0781 Q418.1094,211.2344 417.4063,211.2344 Q414.9063,211.2344 413.5781,209.5938 Q412.2656,207.9375 412.2656,204.8125 Q412.2656,201.6875 413.5781,200.0313 Q414.9063,198.375 417.4063,198.375 Q418.1094,198.375 418.75,198.5313 Q419.4063,198.6875 419.9688,198.9844 L419.9688,201.7031 Q419.3438,201.125 418.75,200.8594 Q418.1563,200.5781 417.5313,200.5781 Q416.1875,200.5781 415.5,201.6563 Q414.8125,202.7188 414.8125,204.8125 Q414.8125,206.9063 415.5,207.9844 Q416.1875,209.0469 417.5313,209.0469 Q418.1563,209.0469 418.75,208.7813 Q419.3438,208.5 419.9688,207.9219 L419.9688,210.6406 Z " fill="#000000"/><text fill="#000000" font-family="sans-serif" font-size="14" lengthAdjust="spacing" textLength="52" x="431" y="209.8467">Version</text><line style="stroke:#181818;stroke-width:0.5;" x1="403" x2="485" y1="221" y2="221"/><line style="stroke:#181818;stroke-width:0.5;" x1="403" x2="485" y1="229" y2="229"/></g><!--class Version--><g id="elem_Version"><rect codeLine="27" fill="#F1F1F1" height="48" id="Version" rx="2.5" ry="2.5" style="stroke:#181818;stroke-width:0.5;" width="84" x="597" y="41"/><ellipse cx="612" cy="57" fill="#ADD1B2" rx="11" ry="11" style="stroke:#181818;stroke-width:1.0;"/><path d="M614.9688,62.6406 Q614.3906,62.9375 613.75,63.0781 Q613.1094,63.2344 612.4063,63.2344 Q609.9063,63.2344 608.5781,61.5938 Q607.2656,59.9375 607.2656,56.8125 Q607.2656,53.6875 608.5781,52.0313 Q609.9063,50.375 612.4063,50.375 Q613.1094,50.375 613.75,50.5313 Q614.4063,50.6875 614.9688,50.9844 L614.9688,53.7031 Q614.3438,53.125 613.75,52.8594 Q613.1563,52.5781 612.5313,52.5781 Q611.1875,52.5781 610.5,53.6563 Q609.8125,54.7188 609.8125,56.8125 Q609.8125,58.9063 610.5,59.9844 Q611.1875,61.0469 612.5313,61.0469 Q613.1563,61.0469 613.75,60.7813 Q614.3438,60.5 614.9688,59.9219 L614.9688,62.6406 Z " fill="#000000"/><text fill="#000000" font-family="sans-serif" font-size="14" lengthAdjust="spacing" textLength="52" x="626" y="61.8467">Version</text><line style="stroke:#181818;stroke-width:0.5;" x1="598" x2="680" y1="73" y2="73"/><line style="stroke:#181818;stroke-width:0.5;" x1="598" x2="680" y1="81" y2="81"/></g><!--class Console--><g id="elem_Console"><rect codeLine="32" fill="#F1F1F1" height="48" id="Console" rx="2.5" ry="2.5" style="stroke:#181818;stroke-width:0.5;" width="89" x="376.5" y="388"/><ellipse cx="391.5" cy="404" fill="#ADD1B2" rx="11" ry="11" style="stroke:#181818;stroke-width:1.0;"/><path d="M394.4688,409.6406 Q393.8906,409.9375 393.25,410.0781 Q392.6094,410.2344 391.9063,410.2344 Q389.4063,410.2344 388.0781,408.5938 Q386.7656,406.9375 386.7656,403.8125 Q386.7656,400.6875 388.0781,399.0313 Q389.4063,397.375 391.9063,397.375 Q392.6094,397.375 393.25,397.5313 Q393.9063,397.6875 394.4688,397.9844 L394.4688,400.7031 Q393.8438,400.125 393.25,399.8594 Q392.6563,399.5781 392.0313,399.5781 Q390.6875,399.5781 390,400.6563 Q389.3125,401.7188 389.3125,403.8125 Q389.3125,405.9063 390,406.9844 Q390.6875,408.0469 392.0313,408.0469 Q392.6563,408.0469 393.25,407.7813 Q393.8438,407.5 394.4688,406.9219 L394.4688,409.6406 Z " fill="#000000"/><text fill="#000000" font-family="sans-serif" font-size="14" lengthAdjust="spacing" textLength="57" x="405.5" y="408.8467">Console</text><line style="stroke:#181818;stroke-width:0.5;" x1="377.5" x2="464.5" y1="420" y2="420"/><line style="stroke:#181818;stroke-width:0.5;" x1="377.5" x2="464.5" y1="428" y2="428"/></g><!--link HelpCommand to ICommand--><g id="link_HelpCommand_ICommand"><path codeLine="8" d="M156.21,213 C160.67,213 165.14,213 169.6,213 " fill="none" id="HelpCommand-to-ICommand" style="stroke:#181818;stroke-width:1.0;stroke-dasharray:7.0,7.0;"/><polygon fill="none" points="169.5,206,189.5,213,169.5,220,169.5,206" style="stroke:#181818;stroke-width:1.0;"/></g><!--link CommandFactory to HelpCommand--><g id="link_CommandFactory_HelpCommand"><path codeLine="10" d="M97.39,89.46 C95.65,114.89 92.87,155.52 90.99,182.96 " fill="none" id="CommandFactory-to-HelpCommand" style="stroke:#181818;stroke-width:1.0;"/><polygon fill="#181818" points="90.6,187.6,95.208,178.8956,90.943,182.6118,87.2269,178.3468,90.6,187.6" style="stroke:#181818;stroke-width:1.0;"/><text fill="#000000" font-family="sans-serif" font-size="13" lengthAdjust="spacing" textLength="91" x="96" y="134.0669">&#171;instantiates&#187;</text></g><!--link HelpCommand to Help--><g id="link_HelpCommand_Help"><path codeLine="12" d="M87.93,237.37 C86.28,273.51 83.11,342.86 81.32,382.1 " fill="none" id="HelpCommand-to-Help" style="stroke:#181818;stroke-width:1.0;"/><polygon fill="#181818" points="81.07,386.66,85.478,377.8526,81.299,381.6652,77.4864,377.4863,81.07,386.66" style="stroke:#181818;stroke-width:1.0;"/></g><!--link HelpCommand to Version--><g id="link_HelpCommand_Version"><path codeLine="13" d="M100.86,237.37 C119.28,273.66 154.7,343.43 174.57,382.58 " fill="none" id="HelpCommand-to-Version" style="stroke:#181818;stroke-width:1.0;"/><polygon fill="#181818" points="177.15,386.66,176.6525,376.8237,174.8911,382.1994,169.5154,380.438,177.15,386.66" style="stroke:#181818;stroke-width:1.0;"/></g><!--link Help to Version--><g id="link_Help_Version"><path codeLine="22" d="M494.36,89.46 C483.86,115 467.07,155.86 455.79,183.3 " fill="none" id="Help-to-Version" style="stroke:#181818;stroke-width:1.0;"/><polygon fill="#181818" points="453.62,187.6,460.7381,180.7932,455.5187,182.9745,453.3373,177.7552,453.62,187.6" style="stroke:#181818;stroke-width:1.0;"/></g><!--link Version to Version--><g id="link_Version_Version"><path codeLine="23" d="M402.87,89.46 C411.41,114.89 425.05,155.52 434.25,182.96 " fill="none" id="Version-to-Version" style="stroke:#181818;stroke-width:1.0;"/><polygon fill="#181818" points="436.15,187.6,437.0543,177.7927,434.5474,182.8638,429.4764,180.3569,436.15,187.6" style="stroke:#181818;stroke-width:1.0;"/></g><!--link HelpCommand to Console--><g id="link_HelpCommand_Console"><path codeLine="34" d="M111.05,237.46 C127.08,253.17 150.08,273.08 174,285 C203.82,299.86 216.24,289.21 247,302 C298.66,323.49 352.38,359.6 386.21,384.33 " fill="none" id="HelpCommand-to-Console" style="stroke:#181818;stroke-width:1.0;"/><polygon fill="#181818" points="389.65,387.59,384.7814,379.0286,385.6262,384.6221,380.0327,385.4668,389.65,387.59" style="stroke:#181818;stroke-width:1.0;"/></g><!--SRC=[XPB1QiCm38RlVWhVTgeVO8J0A9JrFEXTU2gOENAmL4hfykwB4zjpjhBvOblwvF-NCC60F895VN9urNUbvsKzCEjz60QWzmDO2V6cbemZmNXE-36dcu9Nz6E9Bk72wExJUFChlHNGkrtVFg6VTTSvOW4I1uBSzsjPowIQbt7qpeAuG8l6lz098y-xcfHwIbsRd_0XpbEvXlXXtcuiE9Xz80uUbQ8whkR1pTIgW_LQjAgfHU18vmWiyMBb4h4QIam-_uLDhOyjix7oaA-zPVGxi_QQm-qtoBsNyCEH5Ie1qwpu1G00]--></g></svg>