<?xml version="1.0" encoding="us-ascii" standalone="no"?><svg xmlns="http://www.w3.org/2000/svg" xmlns:xlink="http://www.w3.org/1999/xlink" contentStyleType="text/css" height="986px" preserveAspectRatio="none" style="width:1613px;height:986px;background:#FFFFFF;" version="1.1" viewBox="0 0 1613 986" width="1613px" zoomAndPan="magnify"><defs/><g><g id="elem_StorageHeader"><rect fill="#F1F1F1" height="81.1875" style="stroke:#181818;stroke-width:0.5;" width="223" x="15.5" y="95.68"/><text fill="#000000" font-family="sans-serif" font-size="14" lengthAdjust="spacing" textLength="179" x="37.5" y="110.6751">Storage Header (Optional)</text><line style="stroke:#181818;stroke-width:1.0;" x1="15.5" x2="238.5" y1="115.9769" y2="115.9769"/><text fill="#000000" font-family="sans-serif" font-size="14" lengthAdjust="spacing" textLength="26" x="29.5" y="130.972">0..3</text><text fill="#000000" font-family="sans-serif" font-size="14" lengthAdjust="spacing" textLength="126" x="74.5" y="130.972">DLT Pattern DLT\1</text><line style="stroke:#181818;stroke-width:1.0;" x1="69.5" x2="69.5" y1="115.9769" y2="136.2737"/><line style="stroke:#181818;stroke-width:1.0;" x1="15.5" x2="238.5" y1="136.2737" y2="136.2737"/><text fill="#000000" font-family="sans-serif" font-size="14" lengthAdjust="spacing" textLength="35" x="25" y="151.2689">4..11</text><text fill="#000000" font-family="sans-serif" font-size="14" lengthAdjust="spacing" textLength="159" x="74.5" y="151.2689">Real-Clock Time Stamp</text><line style="stroke:#181818;stroke-width:1.0;" x1="69.5" x2="69.5" y1="136.2737" y2="156.5706"/><line style="stroke:#181818;stroke-width:1.0;" x1="15.5" x2="238.5" y1="156.5706" y2="156.5706"/><text fill="#000000" font-family="sans-serif" font-size="14" lengthAdjust="spacing" textLength="44" x="20.5" y="171.5657">12..15</text><text fill="#000000" font-family="sans-serif" font-size="14" lengthAdjust="spacing" textLength="47" x="74.5" y="171.5657">ECU ID</text><line style="stroke:#181818;stroke-width:1.0;" x1="69.5" x2="69.5" y1="156.5706" y2="176.8675"/></g><g id="elem_StandardHeader"><rect fill="#F1F1F1" height="142.0781" style="stroke:#181818;stroke-width:0.5;" width="315" x="289.5" y="65.18"/><text fill="#000000" font-family="sans-serif" font-size="14" lengthAdjust="spacing" textLength="204" x="345" y="80.1751">Standard Header (4-16 bytes)</text><line style="stroke:#181818;stroke-width:1.0;" x1="289.5" x2="604.5" y1="85.4769" y2="85.4769"/><text fill="#000000" font-family="sans-serif" font-size="14" lengthAdjust="spacing" textLength="9" x="312" y="100.472">0</text><text fill="#000000" font-family="sans-serif" font-size="14" lengthAdjust="spacing" textLength="139" x="348.5" y="100.472">Header Type (HTYP)</text><line style="stroke:#181818;stroke-width:1.0;" x1="343.5" x2="343.5" y1="85.4769" y2="105.7737"/><line style="stroke:#181818;stroke-width:1.0;" x1="289.5" x2="604.5" y1="105.7737" y2="105.7737"/><text fill="#000000" font-family="sans-serif" font-size="14" lengthAdjust="spacing" textLength="9" x="312" y="120.7689">1</text><text fill="#000000" font-family="sans-serif" font-size="14" lengthAdjust="spacing" textLength="178" x="348.5" y="120.7689">Message Counter (MCNT)</text><line style="stroke:#181818;stroke-width:1.0;" x1="343.5" x2="343.5" y1="105.7737" y2="126.0706"/><line style="stroke:#181818;stroke-width:1.0;" x1="289.5" x2="604.5" y1="126.0706" y2="126.0706"/><text fill="#000000" font-family="sans-serif" font-size="14" lengthAdjust="spacing" textLength="26" x="303.5" y="141.0657">2..3</text><text fill="#000000" font-family="sans-serif" font-size="14" lengthAdjust="spacing" textLength="88" x="348.5" y="141.0657">Length (LEN)</text><line style="stroke:#181818;stroke-width:1.0;" x1="343.5" x2="343.5" y1="126.0706" y2="146.3675"/><line style="stroke:#181818;stroke-width:1.0;" x1="289.5" x2="604.5" y1="146.3675" y2="146.3675"/><text fill="#000000" font-family="sans-serif" font-size="14" lengthAdjust="spacing" textLength="26" x="303.5" y="161.3626">4..7</text><text fill="#000000" font-family="sans-serif" font-size="14" lengthAdjust="spacing" textLength="155" x="348.5" y="161.3626">ECU ID (ECU, Optional)</text><line style="stroke:#181818;stroke-width:1.0;" x1="343.5" x2="343.5" y1="146.3675" y2="166.6644"/><line style="stroke:#181818;stroke-width:1.0;" x1="289.5" x2="604.5" y1="166.6644" y2="166.6644"/><text fill="#000000" font-family="sans-serif" font-size="14" lengthAdjust="spacing" textLength="35" x="299" y="181.6595">8..11</text><text fill="#000000" font-family="sans-serif" font-size="14" lengthAdjust="spacing" textLength="184" x="348.5" y="181.6595">Session ID (SEID, Optional)</text><line style="stroke:#181818;stroke-width:1.0;" x1="343.5" x2="343.5" y1="166.6644" y2="186.9612"/><line style="stroke:#181818;stroke-width:1.0;" x1="289.5" x2="604.5" y1="186.9612" y2="186.9612"/><text fill="#000000" font-family="sans-serif" font-size="14" lengthAdjust="spacing" textLength="44" x="294.5" y="201.9564">12..15</text><text fill="#000000" font-family="sans-serif" font-size="14" lengthAdjust="spacing" textLength="251" x="348.5" y="201.9564">Device Time Stamp (TMSP, Optional)</text><line style="stroke:#181818;stroke-width:1.0;" x1="343.5" x2="343.5" y1="186.9612" y2="207.2581"/></g><g id="elem_HeaderType"><rect fill="#F1F1F1" height="142.0781" style="stroke:#181818;stroke-width:0.5;" width="293" x="299.5" y="275.18"/><text fill="#000000" font-family="sans-serif" font-size="14" lengthAdjust="spacing" textLength="145" x="373.5" y="290.1751">Header Type (1 byte)</text><line style="stroke:#181818;stroke-width:1.0;" x1="299.5" x2="592.5" y1="295.4769" y2="295.4769"/><text fill="#000000" font-family="sans-serif" font-size="14" lengthAdjust="spacing" textLength="18" x="317.5" y="310.472">b0</text><text fill="#000000" font-family="sans-serif" font-size="14" lengthAdjust="spacing" textLength="194" x="358.5" y="310.472">Use Extended Header (UEH)</text><line style="stroke:#181818;stroke-width:1.0;" x1="353.5" x2="353.5" y1="295.4769" y2="315.7737"/><line style="stroke:#181818;stroke-width:1.0;" x1="299.5" x2="592.5" y1="315.7737" y2="315.7737"/><text fill="#000000" font-family="sans-serif" font-size="14" lengthAdjust="spacing" textLength="18" x="317.5" y="330.7689">b1</text><text fill="#000000" font-family="sans-serif" font-size="14" lengthAdjust="spacing" textLength="229" x="358.5" y="330.7689">Most Significant Byte First (MSBF)</text><line style="stroke:#181818;stroke-width:1.0;" x1="353.5" x2="353.5" y1="315.7737" y2="336.0706"/><line style="stroke:#181818;stroke-width:1.0;" x1="299.5" x2="592.5" y1="336.0706" y2="336.0706"/><text fill="#000000" font-family="sans-serif" font-size="14" lengthAdjust="spacing" textLength="18" x="317.5" y="351.0657">b2</text><text fill="#000000" font-family="sans-serif" font-size="14" lengthAdjust="spacing" textLength="131" x="358.5" y="351.0657">With ECU ID (WEID)</text><line style="stroke:#181818;stroke-width:1.0;" x1="353.5" x2="353.5" y1="336.0706" y2="356.3675"/><line style="stroke:#181818;stroke-width:1.0;" x1="299.5" x2="592.5" y1="356.3675" y2="356.3675"/><text fill="#000000" font-family="sans-serif" font-size="14" lengthAdjust="spacing" textLength="18" x="317.5" y="371.3626">b3</text><text fill="#000000" font-family="sans-serif" font-size="14" lengthAdjust="spacing" textLength="157" x="358.5" y="371.3626">With Session ID (WSID)</text><line style="stroke:#181818;stroke-width:1.0;" x1="353.5" x2="353.5" y1="356.3675" y2="376.6644"/><line style="stroke:#181818;stroke-width:1.0;" x1="299.5" x2="592.5" y1="376.6644" y2="376.6644"/><text fill="#000000" font-family="sans-serif" font-size="14" lengthAdjust="spacing" textLength="18" x="317.5" y="391.6595">b4</text><text fill="#000000" font-family="sans-serif" font-size="14" lengthAdjust="spacing" textLength="173" x="358.5" y="391.6595">With Time Stamp (WTMS)</text><line style="stroke:#181818;stroke-width:1.0;" x1="353.5" x2="353.5" y1="376.6644" y2="396.9612"/><line style="stroke:#181818;stroke-width:1.0;" x1="299.5" x2="592.5" y1="396.9612" y2="396.9612"/><text fill="#000000" font-family="sans-serif" font-size="14" lengthAdjust="spacing" textLength="44" x="304.5" y="411.9564">b5..b7</text><text fill="#000000" font-family="sans-serif" font-size="14" lengthAdjust="spacing" textLength="166" x="358.5" y="411.9564">Version Identifier (VERS)</text><line style="stroke:#181818;stroke-width:1.0;" x1="353.5" x2="353.5" y1="396.9612" y2="417.2581"/></g><g id="elem_ExtendedHeader"><rect fill="#F1F1F1" height="101.4844" style="stroke:#181818;stroke-width:0.5;" width="214" x="658" y="85.68"/><text fill="#000000" font-family="sans-serif" font-size="14" lengthAdjust="spacing" textLength="191" x="669.5" y="100.6751">Extended Header (Optional)</text><line style="stroke:#181818;stroke-width:1.0;" x1="658" x2="872" y1="105.9769" y2="105.9769"/><text fill="#000000" font-family="sans-serif" font-size="14" lengthAdjust="spacing" textLength="9" x="671.5" y="120.972">0</text><text fill="#000000" font-family="sans-serif" font-size="14" lengthAdjust="spacing" textLength="140" x="699" y="120.972">Message Info (MSIN)</text><line style="stroke:#181818;stroke-width:1.0;" x1="694" x2="694" y1="105.9769" y2="126.2737"/><line style="stroke:#181818;stroke-width:1.0;" x1="658" x2="872" y1="126.2737" y2="126.2737"/><text fill="#000000" font-family="sans-serif" font-size="14" lengthAdjust="spacing" textLength="9" x="671.5" y="141.2689">1</text><text fill="#000000" font-family="sans-serif" font-size="14" lengthAdjust="spacing" textLength="168" x="699" y="141.2689">Argument Count (NOAR)</text><line style="stroke:#181818;stroke-width:1.0;" x1="694" x2="694" y1="126.2737" y2="146.5706"/><line style="stroke:#181818;stroke-width:1.0;" x1="658" x2="872" y1="146.5706" y2="146.5706"/><text fill="#000000" font-family="sans-serif" font-size="14" lengthAdjust="spacing" textLength="26" x="663" y="161.5657">2..5</text><text fill="#000000" font-family="sans-serif" font-size="14" lengthAdjust="spacing" textLength="139" x="699" y="161.5657">Application ID (APID)</text><line style="stroke:#181818;stroke-width:1.0;" x1="694" x2="694" y1="146.5706" y2="166.8675"/><line style="stroke:#181818;stroke-width:1.0;" x1="658" x2="872" y1="166.8675" y2="166.8675"/><text fill="#000000" font-family="sans-serif" font-size="14" lengthAdjust="spacing" textLength="26" x="663" y="181.8626">6..9</text><text fill="#000000" font-family="sans-serif" font-size="14" lengthAdjust="spacing" textLength="119" x="699" y="181.8626">Context ID (CTID)</text><line style="stroke:#181818;stroke-width:1.0;" x1="694" x2="694" y1="166.8675" y2="187.1644"/></g><g id="elem_MessageInfo"><rect fill="#F1F1F1" height="81.1875" style="stroke:#181818;stroke-width:0.5;" width="242" x="644" y="305.68"/><text fill="#000000" font-family="sans-serif" font-size="14" lengthAdjust="spacing" textLength="149" x="690.5" y="320.6751">Message Info (1 byte)</text><line style="stroke:#181818;stroke-width:1.0;" x1="644" x2="886" y1="325.9769" y2="325.9769"/><text fill="#000000" font-family="sans-serif" font-size="14" lengthAdjust="spacing" textLength="18" x="662" y="340.972">b0</text><text fill="#000000" font-family="sans-serif" font-size="14" lengthAdjust="spacing" textLength="110" x="703" y="340.972">Verbose (VERB)</text><line style="stroke:#181818;stroke-width:1.0;" x1="698" x2="698" y1="325.9769" y2="346.2737"/><line style="stroke:#181818;stroke-width:1.0;" x1="644" x2="886" y1="346.2737" y2="346.2737"/><text fill="#000000" font-family="sans-serif" font-size="14" lengthAdjust="spacing" textLength="44" x="649" y="361.2689">b1..b3</text><text fill="#000000" font-family="sans-serif" font-size="14" lengthAdjust="spacing" textLength="154" x="703" y="361.2689">Message Type (MSTP)</text><line style="stroke:#181818;stroke-width:1.0;" x1="698" x2="698" y1="346.2737" y2="366.5706"/><line style="stroke:#181818;stroke-width:1.0;" x1="644" x2="886" y1="366.5706" y2="366.5706"/><text fill="#000000" font-family="sans-serif" font-size="14" lengthAdjust="spacing" textLength="44" x="649" y="381.5657">b4..b7</text><text fill="#000000" font-family="sans-serif" font-size="14" lengthAdjust="spacing" textLength="178" x="703" y="381.5657">Message Type Info (MTIN)</text><line style="stroke:#181818;stroke-width:1.0;" x1="698" x2="698" y1="366.5706" y2="386.8675"/></g><g id="elem_DLT_TYPE_LOG"><rect fill="#F1F1F1" height="142.0781" style="stroke:#181818;stroke-width:0.5;" width="232" x="7" y="556.18"/><text fill="#000000" font-family="sans-serif" font-size="14" lengthAdjust="spacing" textLength="218" x="14" y="571.1751">MTIN DLT_TYPE_LOG (MSTP=0)</text><line style="stroke:#181818;stroke-width:1.0;" x1="7" x2="239" y1="576.4769" y2="576.4769"/><text fill="#000000" font-family="sans-serif" font-size="14" lengthAdjust="spacing" textLength="9" x="12" y="591.472">1</text><text fill="#000000" font-family="sans-serif" font-size="14" lengthAdjust="spacing" textLength="112" x="31" y="591.472">DLT_LOG_FATAL</text><line style="stroke:#181818;stroke-width:1.0;" x1="26" x2="26" y1="576.4769" y2="596.7738"/><line style="stroke:#181818;stroke-width:1.0;" x1="7" x2="239" y1="596.7738" y2="596.7738"/><text fill="#000000" font-family="sans-serif" font-size="14" lengthAdjust="spacing" textLength="9" x="12" y="611.7689">2</text><text fill="#000000" font-family="sans-serif" font-size="14" lengthAdjust="spacing" textLength="120" x="31" y="611.7689">DLT_LOG_ERROR</text><line style="stroke:#181818;stroke-width:1.0;" x1="26" x2="26" y1="596.7738" y2="617.0706"/><line style="stroke:#181818;stroke-width:1.0;" x1="7" x2="239" y1="617.0706" y2="617.0706"/><text fill="#000000" font-family="sans-serif" font-size="14" lengthAdjust="spacing" textLength="9" x="12" y="632.0657">3</text><text fill="#000000" font-family="sans-serif" font-size="14" lengthAdjust="spacing" textLength="112" x="31" y="632.0657">DLT_LOG_WARN</text><line style="stroke:#181818;stroke-width:1.0;" x1="26" x2="26" y1="617.0706" y2="637.3675"/><line style="stroke:#181818;stroke-width:1.0;" x1="7" x2="239" y1="637.3675" y2="637.3675"/><text fill="#000000" font-family="sans-serif" font-size="14" lengthAdjust="spacing" textLength="9" x="12" y="652.3626">4</text><text fill="#000000" font-family="sans-serif" font-size="14" lengthAdjust="spacing" textLength="102" x="31" y="652.3626">DLT_LOG_INFO</text><line style="stroke:#181818;stroke-width:1.0;" x1="26" x2="26" y1="637.3675" y2="657.6644"/><line style="stroke:#181818;stroke-width:1.0;" x1="7" x2="239" y1="657.6644" y2="657.6644"/><text fill="#000000" font-family="sans-serif" font-size="14" lengthAdjust="spacing" textLength="9" x="12" y="672.6595">5</text><text fill="#000000" font-family="sans-serif" font-size="14" lengthAdjust="spacing" textLength="121" x="31" y="672.6595">DLT_LOG_DEBUG</text><line style="stroke:#181818;stroke-width:1.0;" x1="26" x2="26" y1="657.6644" y2="677.9613"/><line style="stroke:#181818;stroke-width:1.0;" x1="7" x2="239" y1="677.9613" y2="677.9613"/><text fill="#000000" font-family="sans-serif" font-size="14" lengthAdjust="spacing" textLength="9" x="12" y="692.9564">6</text><text fill="#000000" font-family="sans-serif" font-size="14" lengthAdjust="spacing" textLength="137" x="31" y="692.9564">DLT_LOG_VERBOSE</text><line style="stroke:#181818;stroke-width:1.0;" x1="26" x2="26" y1="677.9613" y2="698.2581"/></g><g id="elem_DLT_TYPE_APP_TRACE"><rect fill="#F1F1F1" height="121.7813" style="stroke:#181818;stroke-width:0.5;" width="284" x="290" y="566.68"/><text fill="#000000" font-family="sans-serif" font-size="14" lengthAdjust="spacing" textLength="270" x="297" y="581.6751">MTIN DLT_TYPE_APP_TRACE (MSTP=1)</text><line style="stroke:#181818;stroke-width:1.0;" x1="290" x2="574" y1="586.9769" y2="586.9769"/><text fill="#000000" font-family="sans-serif" font-size="14" lengthAdjust="spacing" textLength="9" x="295" y="601.972">1</text><text fill="#000000" font-family="sans-serif" font-size="14" lengthAdjust="spacing" textLength="154" x="314" y="601.972">DLT_TRACE_VARIABLE</text><line style="stroke:#181818;stroke-width:1.0;" x1="309" x2="309" y1="586.9769" y2="607.2738"/><line style="stroke:#181818;stroke-width:1.0;" x1="290" x2="574" y1="607.2738" y2="607.2738"/><text fill="#000000" font-family="sans-serif" font-size="14" lengthAdjust="spacing" textLength="9" x="295" y="622.2689">2</text><text fill="#000000" font-family="sans-serif" font-size="14" lengthAdjust="spacing" textLength="179" x="314" y="622.2689">DLT_TRACE_FUNCTION_IN</text><line style="stroke:#181818;stroke-width:1.0;" x1="309" x2="309" y1="607.2738" y2="627.5706"/><line style="stroke:#181818;stroke-width:1.0;" x1="290" x2="574" y1="627.5706" y2="627.5706"/><text fill="#000000" font-family="sans-serif" font-size="14" lengthAdjust="spacing" textLength="9" x="295" y="642.5657">3</text><text fill="#000000" font-family="sans-serif" font-size="14" lengthAdjust="spacing" textLength="196" x="314" y="642.5657">DLT_TRACE_FUNCTION_OUT</text><line style="stroke:#181818;stroke-width:1.0;" x1="309" x2="309" y1="627.5706" y2="647.8675"/><line style="stroke:#181818;stroke-width:1.0;" x1="290" x2="574" y1="647.8675" y2="647.8675"/><text fill="#000000" font-family="sans-serif" font-size="14" lengthAdjust="spacing" textLength="9" x="295" y="662.8626">4</text><text fill="#000000" font-family="sans-serif" font-size="14" lengthAdjust="spacing" textLength="133" x="314" y="662.8626">DLT_TRACE_STATE</text><line style="stroke:#181818;stroke-width:1.0;" x1="309" x2="309" y1="647.8675" y2="668.1644"/><line style="stroke:#181818;stroke-width:1.0;" x1="290" x2="574" y1="668.1644" y2="668.1644"/><text fill="#000000" font-family="sans-serif" font-size="14" lengthAdjust="spacing" textLength="9" x="295" y="683.1595">5</text><text fill="#000000" font-family="sans-serif" font-size="14" lengthAdjust="spacing" textLength="115" x="314" y="683.1595">DLT_TRACE_VFB</text><line style="stroke:#181818;stroke-width:1.0;" x1="309" x2="309" y1="668.1644" y2="688.4613"/></g><g id="elem_DLT_TYPE_NW_TRACE"><rect fill="#F1F1F1" height="162.375" style="stroke:#181818;stroke-width:0.5;" width="280" x="625" y="546.18"/><text fill="#000000" font-family="sans-serif" font-size="14" lengthAdjust="spacing" textLength="266" x="632" y="561.1751">MTIN DLT_TYPE_NW_TRACE (MSTP=2)</text><line style="stroke:#181818;stroke-width:1.0;" x1="625" x2="905" y1="566.4769" y2="566.4769"/><text fill="#000000" font-family="sans-serif" font-size="14" lengthAdjust="spacing" textLength="9" x="643" y="581.472">1</text><text fill="#000000" font-family="sans-serif" font-size="14" lengthAdjust="spacing" textLength="140" x="675" y="581.472">DLT_NW_TRACE_IPC</text><line style="stroke:#181818;stroke-width:1.0;" x1="670" x2="670" y1="566.4769" y2="586.7738"/><line style="stroke:#181818;stroke-width:1.0;" x1="625" x2="905" y1="586.7738" y2="586.7738"/><text fill="#000000" font-family="sans-serif" font-size="14" lengthAdjust="spacing" textLength="9" x="643" y="601.7689">2</text><text fill="#000000" font-family="sans-serif" font-size="14" lengthAdjust="spacing" textLength="147" x="675" y="601.7689">DLT_NW_TRACE_CAN</text><line style="stroke:#181818;stroke-width:1.0;" x1="670" x2="670" y1="586.7738" y2="607.0706"/><line style="stroke:#181818;stroke-width:1.0;" x1="625" x2="905" y1="607.0706" y2="607.0706"/><text fill="#000000" font-family="sans-serif" font-size="14" lengthAdjust="spacing" textLength="9" x="643" y="622.0657">3</text><text fill="#000000" font-family="sans-serif" font-size="14" lengthAdjust="spacing" textLength="179" x="675" y="622.0657">DLT_NW_TRACE_FLEXRAY</text><line style="stroke:#181818;stroke-width:1.0;" x1="670" x2="670" y1="607.0706" y2="627.3675"/><line style="stroke:#181818;stroke-width:1.0;" x1="625" x2="905" y1="627.3675" y2="627.3675"/><text fill="#000000" font-family="sans-serif" font-size="14" lengthAdjust="spacing" textLength="9" x="643" y="642.3626">4</text><text fill="#000000" font-family="sans-serif" font-size="14" lengthAdjust="spacing" textLength="159" x="675" y="642.3626">DLT_NW_TRACE_MOST</text><line style="stroke:#181818;stroke-width:1.0;" x1="670" x2="670" y1="627.3675" y2="647.6644"/><line style="stroke:#181818;stroke-width:1.0;" x1="625" x2="905" y1="647.6644" y2="647.6644"/><text fill="#000000" font-family="sans-serif" font-size="14" lengthAdjust="spacing" textLength="9" x="643" y="662.6595">5</text><text fill="#000000" font-family="sans-serif" font-size="14" lengthAdjust="spacing" textLength="193" x="675" y="662.6595">DLT_NW_TRACE_ETHERNET</text><line style="stroke:#181818;stroke-width:1.0;" x1="670" x2="670" y1="647.6644" y2="667.9613"/><line style="stroke:#181818;stroke-width:1.0;" x1="625" x2="905" y1="667.9613" y2="667.9613"/><text fill="#000000" font-family="sans-serif" font-size="14" lengthAdjust="spacing" textLength="9" x="643" y="682.9564">6</text><text fill="#000000" font-family="sans-serif" font-size="14" lengthAdjust="spacing" textLength="171" x="675" y="682.9564">DLT_NW_TRACE_SOMEIP</text><line style="stroke:#181818;stroke-width:1.0;" x1="670" x2="670" y1="667.9613" y2="688.2581"/><line style="stroke:#181818;stroke-width:1.0;" x1="625" x2="905" y1="688.2581" y2="688.2581"/><text fill="#000000" font-family="sans-serif" font-size="14" lengthAdjust="spacing" textLength="35" x="630" y="703.2532">7..15</text><text fill="#000000" font-family="sans-serif" font-size="14" lengthAdjust="spacing" textLength="90" x="675" y="703.2532">User Defined</text><line style="stroke:#181818;stroke-width:1.0;" x1="670" x2="670" y1="688.2581" y2="708.555"/></g><g id="elem_DLT_TYPE_CONTROL"><rect fill="#F1F1F1" height="81.1875" style="stroke:#181818;stroke-width:0.5;" width="271" x="956.5" y="586.68"/><text fill="#000000" font-family="sans-serif" font-size="14" lengthAdjust="spacing" textLength="257" x="963.5" y="601.6751">MTIN DLT_TYPE_CONTROL (MSTP=3)</text><line style="stroke:#181818;stroke-width:1.0;" x1="956.5" x2="1227.5" y1="606.9769" y2="606.9769"/><text fill="#000000" font-family="sans-serif" font-size="14" lengthAdjust="spacing" textLength="9" x="961.5" y="621.972">1</text><text fill="#000000" font-family="sans-serif" font-size="14" lengthAdjust="spacing" textLength="176" x="980.5" y="621.972">DLT_CONTROL_REQUEST</text><line style="stroke:#181818;stroke-width:1.0;" x1="975.5" x2="975.5" y1="606.9769" y2="627.2738"/><line style="stroke:#181818;stroke-width:1.0;" x1="956.5" x2="1227.5" y1="627.2738" y2="627.2738"/><text fill="#000000" font-family="sans-serif" font-size="14" lengthAdjust="spacing" textLength="9" x="961.5" y="642.2689">2</text><text fill="#000000" font-family="sans-serif" font-size="14" lengthAdjust="spacing" textLength="185" x="980.5" y="642.2689">DLT_CONTROL_RESPONSE</text><line style="stroke:#181818;stroke-width:1.0;" x1="975.5" x2="975.5" y1="627.2738" y2="647.5706"/><line style="stroke:#181818;stroke-width:1.0;" x1="956.5" x2="1227.5" y1="647.5706" y2="647.5706"/><text fill="#000000" font-family="sans-serif" font-size="14" lengthAdjust="spacing" textLength="9" x="961.5" y="662.5657">3</text><text fill="#000000" font-family="sans-serif" font-size="14" lengthAdjust="spacing" textLength="142" x="980.5" y="662.5657">DLT_CONTROL_TIME</text><line style="stroke:#181818;stroke-width:1.0;" x1="975.5" x2="975.5" y1="647.5706" y2="667.8675"/></g><g id="elem_Payload"><rect fill="#F1F1F1" height="77.1875" style="stroke:#181818;stroke-width:0.5;" width="129" x="1190.5" y="97.59"/><text fill="#000000" font-family="sans-serif" font-size="14" lengthAdjust="spacing" textLength="115" x="1197.5" y="112.5851">Verbose Payload</text><line style="stroke:#181818;stroke-width:0.5;" x1="1191.5" x2="1318.5" y1="117.8869" y2="117.8869"/><text fill="#000000" font-family="sans-serif" font-size="14" lengthAdjust="spacing" textLength="36" x="1196.5" y="134.882">Arg 1</text><text fill="#000000" font-family="sans-serif" font-size="14" lengthAdjust="spacing" textLength="36" x="1196.5" y="151.1789">Arg 2</text><text fill="#000000" font-family="sans-serif" font-size="14" lengthAdjust="spacing" textLength="36" x="1196.5" y="167.4757">Arg n</text></g><g id="elem_NonVerbosePayload"><rect fill="#F1F1F1" height="60.8906" style="stroke:#181818;stroke-width:0.5;" width="172" x="923" y="106.18"/><text fill="#000000" font-family="sans-serif" font-size="14" lengthAdjust="spacing" textLength="146" x="936" y="121.1751">Non-verbose Payload</text><line style="stroke:#181818;stroke-width:1.0;" x1="923" x2="1095" y1="126.4769" y2="126.4769"/><text fill="#000000" font-family="sans-serif" font-size="14" lengthAdjust="spacing" textLength="26" x="928" y="141.472">0..3</text><text fill="#000000" font-family="sans-serif" font-size="14" lengthAdjust="spacing" textLength="126" x="964" y="141.472">Message Identifier</text><line style="stroke:#181818;stroke-width:1.0;" x1="959" x2="959" y1="126.4769" y2="146.7737"/><line style="stroke:#181818;stroke-width:1.0;" x1="923" x2="1095" y1="146.7737" y2="146.7737"/><text fill="#000000" font-family="sans-serif" font-size="14" lengthAdjust="spacing" textLength="17" x="932.5" y="161.7689">4..</text><text fill="#000000" font-family="sans-serif" font-size="14" lengthAdjust="spacing" textLength="95" x="964" y="161.7689">Dynamic Data</text><line style="stroke:#181818;stroke-width:1.0;" x1="959" x2="959" y1="146.7737" y2="167.0706"/></g><g id="elem_Argument"><rect fill="#F1F1F1" height="81.1875" style="stroke:#181818;stroke-width:0.5;" width="212" x="1201" y="305.68"/><text fill="#000000" font-family="sans-serif" font-size="14" lengthAdjust="spacing" textLength="68" x="1273" y="320.6751">Argument</text><line style="stroke:#181818;stroke-width:1.0;" x1="1201" x2="1413" y1="325.9769" y2="325.9769"/><text fill="#000000" font-family="sans-serif" font-size="14" lengthAdjust="spacing" textLength="26" x="1212" y="340.972">0..3</text><text fill="#000000" font-family="sans-serif" font-size="14" lengthAdjust="spacing" textLength="63" x="1254" y="340.972">Type Info</text><line style="stroke:#181818;stroke-width:1.0;" x1="1249" x2="1249" y1="325.9769" y2="346.2737"/><line style="stroke:#181818;stroke-width:1.0;" x1="1201" x2="1413" y1="346.2737" y2="346.2737"/><text fill="#000000" font-family="sans-serif" font-size="14" lengthAdjust="spacing" textLength="26" x="1212" y="361.2689">4..n</text><text fill="#000000" font-family="sans-serif" font-size="14" lengthAdjust="spacing" textLength="154" x="1254" y="361.2689">Variable Info (Optional)</text><line style="stroke:#181818;stroke-width:1.0;" x1="1249" x2="1249" y1="346.2737" y2="366.5706"/><line style="stroke:#181818;stroke-width:1.0;" x1="1201" x2="1413" y1="366.5706" y2="366.5706"/><text fill="#000000" font-family="sans-serif" font-size="14" lengthAdjust="spacing" textLength="38" x="1206" y="381.5657">n+1..</text><text fill="#000000" font-family="sans-serif" font-size="14" lengthAdjust="spacing" textLength="53" x="1254" y="381.5657">Payload</text><line style="stroke:#181818;stroke-width:1.0;" x1="1249" x2="1249" y1="366.5706" y2="386.8675"/></g><g id="elem_TypeInfo"><rect fill="#F1F1F1" height="284.1563" style="stroke:#181818;stroke-width:0.5;" width="262" x="1279" y="485.18"/><text fill="#000000" font-family="sans-serif" font-size="14" lengthAdjust="spacing" textLength="128" x="1346" y="500.1751">Type Info (4 bytes)</text><line style="stroke:#181818;stroke-width:1.0;" x1="1279" x2="1541" y1="505.4769" y2="505.4769"/><text fill="#000000" font-family="sans-serif" font-size="14" lengthAdjust="spacing" textLength="44" x="1293" y="520.472">b0..b3</text><text fill="#000000" font-family="sans-serif" font-size="14" lengthAdjust="spacing" textLength="134" x="1356" y="520.472">Type Length (TYLE)</text><line style="stroke:#181818;stroke-width:1.0;" x1="1351" x2="1351" y1="505.4769" y2="525.7738"/><line style="stroke:#181818;stroke-width:1.0;" x1="1279" x2="1541" y1="525.7738" y2="525.7738"/><text fill="#000000" font-family="sans-serif" font-size="14" lengthAdjust="spacing" textLength="18" x="1306" y="540.7689">b4</text><text fill="#000000" font-family="sans-serif" font-size="14" lengthAdjust="spacing" textLength="110" x="1356" y="540.7689">Boolean (BOOL)</text><line style="stroke:#181818;stroke-width:1.0;" x1="1351" x2="1351" y1="525.7738" y2="546.0706"/><line style="stroke:#181818;stroke-width:1.0;" x1="1279" x2="1541" y1="546.0706" y2="546.0706"/><text fill="#000000" font-family="sans-serif" font-size="14" lengthAdjust="spacing" textLength="18" x="1306" y="561.0657">b5</text><text fill="#000000" font-family="sans-serif" font-size="14" lengthAdjust="spacing" textLength="114" x="1356" y="561.0657">Signed Int (SINT)</text><line style="stroke:#181818;stroke-width:1.0;" x1="1351" x2="1351" y1="546.0706" y2="566.3675"/><line style="stroke:#181818;stroke-width:1.0;" x1="1279" x2="1541" y1="566.3675" y2="566.3675"/><text fill="#000000" font-family="sans-serif" font-size="14" lengthAdjust="spacing" textLength="18" x="1306" y="581.3626">b6</text><text fill="#000000" font-family="sans-serif" font-size="14" lengthAdjust="spacing" textLength="133" x="1356" y="581.3626">Unsigned Int (UINT)</text><line style="stroke:#181818;stroke-width:1.0;" x1="1351" x2="1351" y1="566.3675" y2="586.6644"/><line style="stroke:#181818;stroke-width:1.0;" x1="1279" x2="1541" y1="586.6644" y2="586.6644"/><text fill="#000000" font-family="sans-serif" font-size="14" lengthAdjust="spacing" textLength="18" x="1306" y="601.6595">b7</text><text fill="#000000" font-family="sans-serif" font-size="14" lengthAdjust="spacing" textLength="82" x="1356" y="601.6595">Float (FLOA)</text><line style="stroke:#181818;stroke-width:1.0;" x1="1351" x2="1351" y1="586.6644" y2="606.9613"/><line style="stroke:#181818;stroke-width:1.0;" x1="1279" x2="1541" y1="606.9613" y2="606.9613"/><text fill="#000000" font-family="sans-serif" font-size="14" lengthAdjust="spacing" textLength="18" x="1306" y="621.9564">b8</text><text fill="#000000" font-family="sans-serif" font-size="14" lengthAdjust="spacing" textLength="85" x="1356" y="621.9564">Array (ARAY)</text><line style="stroke:#181818;stroke-width:1.0;" x1="1351" x2="1351" y1="606.9613" y2="627.2581"/><line style="stroke:#181818;stroke-width:1.0;" x1="1279" x2="1541" y1="627.2581" y2="627.2581"/><text fill="#000000" font-family="sans-serif" font-size="14" lengthAdjust="spacing" textLength="18" x="1306" y="642.2532">b9</text><text fill="#000000" font-family="sans-serif" font-size="14" lengthAdjust="spacing" textLength="93" x="1356" y="642.2532">String (STRG)</text><line style="stroke:#181818;stroke-width:1.0;" x1="1351" x2="1351" y1="627.2581" y2="647.555"/><line style="stroke:#181818;stroke-width:1.0;" x1="1279" x2="1541" y1="647.555" y2="647.555"/><text fill="#000000" font-family="sans-serif" font-size="14" lengthAdjust="spacing" textLength="27" x="1301.5" y="662.5501">b10</text><text fill="#000000" font-family="sans-serif" font-size="14" lengthAdjust="spacing" textLength="86" x="1356" y="662.5501">Raw (RAWD)</text><line style="stroke:#181818;stroke-width:1.0;" x1="1351" x2="1351" y1="647.555" y2="667.8519"/><line style="stroke:#181818;stroke-width:1.0;" x1="1279" x2="1541" y1="667.8519" y2="667.8519"/><text fill="#000000" font-family="sans-serif" font-size="14" lengthAdjust="spacing" textLength="27" x="1301.5" y="682.847">b11</text><text fill="#000000" font-family="sans-serif" font-size="14" lengthAdjust="spacing" textLength="180" x="1356" y="682.847">Variable Information (VARI)</text><line style="stroke:#181818;stroke-width:1.0;" x1="1351" x2="1351" y1="667.8519" y2="688.1488"/><line style="stroke:#181818;stroke-width:1.0;" x1="1279" x2="1541" y1="688.1488" y2="688.1488"/><text fill="#000000" font-family="sans-serif" font-size="14" lengthAdjust="spacing" textLength="27" x="1301.5" y="703.1439">b12</text><text fill="#000000" font-family="sans-serif" font-size="14" lengthAdjust="spacing" textLength="118" x="1356" y="703.1439">Fixed Point (FIXP)</text><line style="stroke:#181818;stroke-width:1.0;" x1="1351" x2="1351" y1="688.1488" y2="708.4456"/><line style="stroke:#181818;stroke-width:1.0;" x1="1279" x2="1541" y1="708.4456" y2="708.4456"/><text fill="#000000" font-family="sans-serif" font-size="14" lengthAdjust="spacing" textLength="27" x="1301.5" y="723.4407">b13</text><text fill="#000000" font-family="sans-serif" font-size="14" lengthAdjust="spacing" textLength="165" x="1356" y="723.4407">Trace Information (TRAI)</text><line style="stroke:#181818;stroke-width:1.0;" x1="1351" x2="1351" y1="708.4456" y2="728.7425"/><line style="stroke:#181818;stroke-width:1.0;" x1="1279" x2="1541" y1="728.7425" y2="728.7425"/><text fill="#000000" font-family="sans-serif" font-size="14" lengthAdjust="spacing" textLength="27" x="1301.5" y="743.7376">b14</text><text fill="#000000" font-family="sans-serif" font-size="14" lengthAdjust="spacing" textLength="93" x="1356" y="743.7376">Struct (STRU)</text><line style="stroke:#181818;stroke-width:1.0;" x1="1351" x2="1351" y1="728.7425" y2="749.0394"/><line style="stroke:#181818;stroke-width:1.0;" x1="1279" x2="1541" y1="749.0394" y2="749.0394"/><text fill="#000000" font-family="sans-serif" font-size="14" lengthAdjust="spacing" textLength="62" x="1284" y="764.0345">b15..b17</text><text fill="#000000" font-family="sans-serif" font-size="14" lengthAdjust="spacing" textLength="164" x="1356" y="764.0345">String encoding (SCOD)</text><line style="stroke:#181818;stroke-width:1.0;" x1="1351" x2="1351" y1="749.0394" y2="769.3363"/></g><g id="elem_TypeLength"><rect fill="#F1F1F1" height="142.0781" style="stroke:#181818;stroke-width:0.5;" width="148" x="1229" y="837.18"/><text fill="#000000" font-family="sans-serif" font-size="14" lengthAdjust="spacing" textLength="134" x="1236" y="852.1751">Type Length (TYLE)</text><line style="stroke:#181818;stroke-width:1.0;" x1="1229" x2="1377" y1="857.4769" y2="857.4769"/><text fill="#000000" font-family="sans-serif" font-size="14" lengthAdjust="spacing" textLength="9" x="1234" y="872.472">0</text><text fill="#000000" font-family="sans-serif" font-size="14" lengthAdjust="spacing" textLength="71" x="1253" y="872.472">Undefined</text><line style="stroke:#181818;stroke-width:1.0;" x1="1248" x2="1248" y1="857.4769" y2="877.7738"/><line style="stroke:#181818;stroke-width:1.0;" x1="1229" x2="1377" y1="877.7738" y2="877.7738"/><text fill="#000000" font-family="sans-serif" font-size="14" lengthAdjust="spacing" textLength="9" x="1234" y="892.7689">1</text><text fill="#000000" font-family="sans-serif" font-size="14" lengthAdjust="spacing" textLength="31" x="1253" y="892.7689">8-bit</text><line style="stroke:#181818;stroke-width:1.0;" x1="1248" x2="1248" y1="877.7738" y2="898.0706"/><line style="stroke:#181818;stroke-width:1.0;" x1="1229" x2="1377" y1="898.0706" y2="898.0706"/><text fill="#000000" font-family="sans-serif" font-size="14" lengthAdjust="spacing" textLength="9" x="1234" y="913.0657">2</text><text fill="#000000" font-family="sans-serif" font-size="14" lengthAdjust="spacing" textLength="40" x="1253" y="913.0657">16-bit</text><line style="stroke:#181818;stroke-width:1.0;" x1="1248" x2="1248" y1="898.0706" y2="918.3675"/><line style="stroke:#181818;stroke-width:1.0;" x1="1229" x2="1377" y1="918.3675" y2="918.3675"/><text fill="#000000" font-family="sans-serif" font-size="14" lengthAdjust="spacing" textLength="9" x="1234" y="933.3626">3</text><text fill="#000000" font-family="sans-serif" font-size="14" lengthAdjust="spacing" textLength="40" x="1253" y="933.3626">32-bit</text><line style="stroke:#181818;stroke-width:1.0;" x1="1248" x2="1248" y1="918.3675" y2="938.6644"/><line style="stroke:#181818;stroke-width:1.0;" x1="1229" x2="1377" y1="938.6644" y2="938.6644"/><text fill="#000000" font-family="sans-serif" font-size="14" lengthAdjust="spacing" textLength="9" x="1234" y="953.6595">4</text><text fill="#000000" font-family="sans-serif" font-size="14" lengthAdjust="spacing" textLength="40" x="1253" y="953.6595">64-bit</text><line style="stroke:#181818;stroke-width:1.0;" x1="1248" x2="1248" y1="938.6644" y2="958.9613"/><line style="stroke:#181818;stroke-width:1.0;" x1="1229" x2="1377" y1="958.9613" y2="958.9613"/><text fill="#000000" font-family="sans-serif" font-size="14" lengthAdjust="spacing" textLength="9" x="1234" y="973.9564">5</text><text fill="#000000" font-family="sans-serif" font-size="14" lengthAdjust="spacing" textLength="49" x="1253" y="973.9564">128-bit</text><line style="stroke:#181818;stroke-width:1.0;" x1="1248" x2="1248" y1="958.9613" y2="979.2581"/></g><g id="elem_StringCoding"><rect fill="#F1F1F1" height="60.8906" style="stroke:#181818;stroke-width:0.5;" width="178" x="1428" y="878.18"/><text fill="#000000" font-family="sans-serif" font-size="14" lengthAdjust="spacing" textLength="164" x="1435" y="893.1751">String encoding (SCOD)</text><line style="stroke:#181818;stroke-width:1.0;" x1="1428" x2="1606" y1="898.4769" y2="898.4769"/><text fill="#000000" font-family="sans-serif" font-size="14" lengthAdjust="spacing" textLength="9" x="1433" y="913.472">0</text><text fill="#000000" font-family="sans-serif" font-size="14" lengthAdjust="spacing" textLength="34" x="1452" y="913.472">ASCII</text><line style="stroke:#181818;stroke-width:1.0;" x1="1447" x2="1447" y1="898.4769" y2="918.7738"/><line style="stroke:#181818;stroke-width:1.0;" x1="1428" x2="1606" y1="918.7738" y2="918.7738"/><text fill="#000000" font-family="sans-serif" font-size="14" lengthAdjust="spacing" textLength="9" x="1433" y="933.7689">1</text><text fill="#000000" font-family="sans-serif" font-size="14" lengthAdjust="spacing" textLength="41" x="1452" y="933.7689">UTF-8</text><line style="stroke:#181818;stroke-width:1.0;" x1="1447" x2="1447" y1="918.7738" y2="939.0706"/></g><!--link StorageHeader to StandardHeader--><g id="link_StorageHeader_StandardHeader"><path codeLine="118" d="M246.38,136.18 C258.13,136.18 269.89,136.18 281.64,136.18 " fill="none" id="StorageHeader-StandardHeader" style="stroke:#181818;stroke-width:1.0;"/></g><!--link StandardHeader to ExtendedHeader--><g id="link_StandardHeader_ExtendedHeader"><path codeLine="119" d="M612.21,136.18 C624.84,136.18 637.48,136.18 650.11,136.18 " fill="none" id="StandardHeader-ExtendedHeader" style="stroke:#181818;stroke-width:1.0;"/></g><!--link StandardHeader to HeaderType--><g id="link_StandardHeader_HeaderType"><path codeLine="120" d="M446.64,211.1 C446.55,230.72 446.45,251.9 446.35,271.5 " fill="none" id="StandardHeader-HeaderType" style="stroke:#181818;stroke-width:1.0;"/></g><!--link ExtendedHeader to Payload--><g id="link_ExtendedHeader_Payload"><path codeLine="121" d="M824.38,81.83 C850.13,61.8 881.84,41.5 914.5,31.18 C994.17,6 1022.71,6.37 1102.5,31.18 C1144.24,44.16 1184.68,72.98 1213.41,97.15 " fill="none" id="ExtendedHeader-Payload" style="stroke:#181818;stroke-width:1.0;"/></g><!--link ExtendedHeader to NonVerbosePayload--><g id="link_ExtendedHeader_NonVerbosePayload"><path codeLine="122" d="M879.85,136.18 C891.62,136.18 903.39,136.18 915.17,136.18 " fill="none" id="ExtendedHeader-NonVerbosePayload" style="stroke:#181818;stroke-width:1.0;"/></g><!--link ExtendedHeader to MessageInfo--><g id="link_ExtendedHeader_MessageInfo"><path codeLine="123" d="M765,190.48 C765,225.02 765,269.45 765,301.82 " fill="none" id="ExtendedHeader-MessageInfo" style="stroke:#181818;stroke-width:1.0;"/></g><!--link MessageInfo to DLT_TYPE_LOG--><g id="link_MessageInfo_DLT_TYPE_LOG"><path codeLine="124" d="M689.41,390.64 C667.01,402.02 642.03,413.29 618,421.18 C466.38,470.94 405.28,406.98 264,481.18 C231.36,498.32 201.77,525.8 178.23,552.24 " fill="none" id="MessageInfo-DLT_TYPE_LOG" style="stroke:#181818;stroke-width:1.0;"/></g><!--link MessageInfo to DLT_TYPE_APP_TRACE--><g id="link_MessageInfo_DLT_TYPE_APP_TRACE"><path codeLine="125" d="M710.4,390.45 C677.82,416.46 635.77,450.39 599,481.18 C567.5,507.56 533.16,537.21 503.85,562.8 " fill="none" id="MessageInfo-DLT_TYPE_APP_TRACE" style="stroke:#181818;stroke-width:1.0;"/></g><!--link MessageInfo to DLT_TYPE_NW_TRACE--><g id="link_MessageInfo_DLT_TYPE_NW_TRACE"><path codeLine="126" d="M765,390.47 C765,430.88 765,492.28 765,542.29 " fill="none" id="MessageInfo-DLT_TYPE_NW_TRACE" style="stroke:#181818;stroke-width:1.0;"/></g><!--link MessageInfo to DLT_TYPE_CONTROL--><g id="link_MessageInfo_DLT_TYPE_CONTROL"><path codeLine="127" d="M819.79,390.59 C852.16,416.51 893.78,450.29 930,481.18 C969.2,514.61 1012.66,553.62 1044.68,582.74 " fill="none" id="MessageInfo-DLT_TYPE_CONTROL" style="stroke:#181818;stroke-width:1.0;"/></g><!--link Payload to Argument--><g id="link_Payload_Argument"><path codeLine="128" d="M1264.42,174.85 C1273.37,210.67 1286.83,264.52 1296.22,302.04 " fill="none" id="Payload-Argument" style="stroke:#181818;stroke-width:1.0;"/><text fill="#000000" font-family="sans-serif" font-size="13" lengthAdjust="spacing" textLength="23" x="1241.0625" y="194.8631">0..*</text></g><!--link Argument to TypeInfo--><g id="link_Argument_TypeInfo"><path codeLine="129" d="M1322.98,390.47 C1332.16,415.34 1344.28,448.17 1356.55,481.4 " fill="none" id="Argument-TypeInfo" style="stroke:#181818;stroke-width:1.0;"/></g><!--link TypeInfo to TypeLength--><g id="link_TypeInfo_TypeLength"><path codeLine="130" d="M1354.46,772.99 C1346.42,793.96 1338.44,814.76 1331.25,833.51 " fill="none" id="TypeInfo-TypeLength" style="stroke:#181818;stroke-width:1.0;"/></g><!--link TypeInfo to StringCoding--><g id="link_TypeInfo_StringCoding"><path codeLine="131" d="M1465.54,772.99 C1480.14,811.07 1494.54,848.62 1504.38,874.28 " fill="none" id="TypeInfo-StringCoding" style="stroke:#181818;stroke-width:1.0;"/></g><!--SRC=[TLPTR-8u57tdLrXzIdSNr03zs8TPAGIdZHIIREAKgRGICk2osOK4XNIcQBJ_VVqTEmnzAJddvkQSQ_jU7_0HtEHjtU0T0Iy4Rqa3dEJObdM5zxSt09-0P2NvOm3etzreD05V_W3p284KjorfAlRxBvUpqz78THcT4RmV-ljwyoz0vO7GLFXmv27kcCRSinZe5o2S3_uR30v22wwskDbgCTEX-m3MvvQSb1mHOEjXcII2paS2d1VqbjwAJp5kGKudPj6lFwgMfLtuCHByM7g9IBLh_mPE1EDRPUEnKmWS-lyte6l3GvwKqvpcfpYFos4uxmTsVkVaMxaXHZs0WnPvQhwWQc4PSdaHH0q4mN7XVyqBK9m8W9yjgRQagry1NuI4jIX4VMf1NkwgyhtSuAe5CveL16L3OMUHpm8PF6R1ov8MHDbVKbkId6ZIzBtCTS1K1vW-bzIe3BWVZTQykA-a4Gcsf6gf9YRv5MPvLuKBH_RsLFJbVb1h7bRlDVCMniQ6y9hTnu5-Kkm8uCI9b-dzm1VAEnxtj4IjikUbojx3QFGxY_1hkfS-MyxwYB5Ai_rfS-aammbpxMWTrZLTFsP-fXQC5cbYEX4xOP6ZLDLPbT6Aa8OHCwmLqITsH5VqNC1Lb3oBF5_kX2oB-T6LYU4KMWKUyY9H7XE6MPPa79wOyDBBOd64J3ICWuIZzoOwXxFYMPJLX5aPaXnUqU-bwGfbdW-b2xVdekDxNZYuUlMoq9j5q3OakA28wLecCPLh6-lHIO5iYuBFaOUWxL9-CvXTCHClBI_ZdXTD6rOuguXLcFgT4vloFSE5JGKH_9fvRvq9cruaEUfys1n4Bp2B8UgMpURpP073bBEFgk_HvjJGvlTULcHxfH1-4gCiYMGT9hqwABQteX9UPV3F0ah9uqioJvCuX_QAAXQ52xxHwlK_PDE26tKMKtpUrtZBPSZVykkqUm1N_nhhNvLs5jVLyDjFyb1SfhSpgecgEuVkXseMSTNd2X_A3PZZ5gjFwKvc9zATGBrVyJQ3cnAlzwf7s4Eg-jKLdv7Ij1cZgqpDMSpmhfEjxrI_ul5gdgAt2FByOYhCwdfFS0MSMP940kVxWyqaskH3renfgnR3USqtLr6T3BBG9Ezy0LLAqI1AF84-YVRUu3FjsNI32vGtxBnjocf7ywFiMS0kRxuP_WwSp5lE9UXUbAevY47WiDOXe_Wk2yfFAYojIoOj2B-caXHrQF2czpuz8EhzgPJqiMcvf4BYR3QwZuPUKctghH3k9yQKkIopNXM96jEme4DI73vzV9w6wxBj3epxe9-v-ibOFtEf3rFzp5VC7Oi4tTNjPshbfOrHli0DKLxkXs4dg431y8dbi- -SmzwbRz2x0mvxbu0BVcZSc0Qz2yDGx_OBukAiNeGCpNa-C6SxfSoPUfNJa-fgXEggLmDa6nkeXd93p-4lDon4jOQ1xX4KL8Tse4-l1CMUiM1ptVu7]--></g></svg>