<?xml version="1.0" encoding="UTF-8" standalone="no"?><svg xmlns="http://www.w3.org/2000/svg" xmlns:xlink="http://www.w3.org/1999/xlink" contentScriptType="application/ecmascript" contentStyleType="text/css" height="304px" preserveAspectRatio="none" style="width:324px;height:304px;background:#FFFFFF;" version="1.1" viewBox="0 0 324 304" width="324px" zoomAndPan="magnify"><defs><filter height="300%" id="ftl1t50ch68o1" width="300%" x="-1" y="-1"><feGaussianBlur result="blurOut" stdDeviation="2.0"/><feColorMatrix in="blurOut" result="blurOut2" type="matrix" values="0 0 0 0 0 0 0 0 0 0 0 0 0 0 0 0 0 0 .4 0"/><feOffset dx="4.0" dy="4.0" in="blurOut2" result="blurOut3"/><feBlend in="SourceGraphic" in2="blurOut3" mode="normal"/></filter></defs><g><!--MD5=[88ea6b0307e645c9893f60c417406741]
class ITraceLine--><rect codeLine="1" fill="#FEFECE" filter="url(#ftl1t50ch68o1)" height="48" id="ITraceLine" style="stroke:#A80036;stroke-width:1.5;" width="91" x="26.5" y="7"/><ellipse cx="41.5" cy="23" fill="#B4A7E5" rx="11" ry="11" style="stroke:#A80036;stroke-width:1.0;"/><path d="M42.4531,19.6406 L42.4531,26.2969 L44.1719,26.2969 Q44.7813,26.2969 45.0469,26.5313 Q45.3125,26.7656 45.3125,27.1563 Q45.3125,27.5313 45.0469,27.7656 Q44.7813,28 44.1719,28 L39.0313,28 Q38.4219,28 38.1563,27.7656 Q37.8906,27.5313 37.8906,27.1406 Q37.8906,26.7656 38.1563,26.5313 Q38.4219,26.2969 39.0313,26.2969 L40.75,26.2969 L40.75,19.6406 L39.0313,19.6406 Q38.4219,19.6406 38.1563,19.4063 Q37.8906,19.1719 37.8906,18.7813 Q37.8906,18.4063 38.1563,18.1719 Q38.4219,17.9375 39.0313,17.9375 L44.1719,17.9375 Q44.7813,17.9375 45.0469,18.1719 Q45.3125,18.4063 45.3125,18.7813 Q45.3125,19.1719 45.0469,19.4063 Q44.7813,19.6406 44.1719,19.6406 L42.4531,19.6406 Z " fill="#000000"/><text fill="#000000" font-family="sans-serif" font-size="12" font-style="italic" lengthAdjust="spacing" textLength="59" x="55.5" y="27.9102">ITraceLine</text><line style="stroke:#A80036;stroke-width:1.5;" x1="27.5" x2="116.5" y1="39" y2="39"/><line style="stroke:#A80036;stroke-width:1.5;" x1="27.5" x2="116.5" y1="47" y2="47"/><!--MD5=[28873638bd7ece8d7fabdc75a6b629e1]
class DltTraceLineBase--><rect codeLine="2" fill="#FEFECE" filter="url(#ftl1t50ch68o1)" height="48" id="DltTraceLineBase" style="stroke:#A80036;stroke-width:1.5;" width="130" x="7" y="116"/><ellipse cx="22" cy="132" fill="#A9DCDF" rx="11" ry="11" style="stroke:#A80036;stroke-width:1.0;"/><path d="M24.1875,133.7656 L20.0469,133.7656 L19.625,134.7969 L20.0469,134.7969 Q20.6563,134.7969 20.9219,135.0313 Q21.1875,135.2656 21.1875,135.6563 Q21.1875,136.0313 20.9219,136.2656 Q20.6563,136.5 20.0469,136.5 L17.75,136.5 Q17.1406,136.5 16.8828,136.2656 Q16.625,136.0313 16.625,135.6406 Q16.625,135.2656 16.8984,135.0234 Q17.1719,134.7813 17.7969,134.7969 L20.4688,128.1406 L19.3594,128.1406 Q18.75,128.1406 18.4844,127.9063 Q18.2188,127.6719 18.2188,127.2813 Q18.2188,126.9063 18.4844,126.6719 Q18.75,126.4375 19.3594,126.4375 L23.0313,126.4375 L26.4219,134.7969 Q27.0156,134.7969 27.2031,134.9375 Q27.5938,135.2031 27.5938,135.6563 Q27.5938,136.0313 27.3359,136.2656 Q27.0781,136.5 26.4688,136.5 L24.1719,136.5 Q23.5625,136.5 23.2969,136.2656 Q23.0313,136.0313 23.0313,135.6406 Q23.0313,135.2656 23.2969,135.0313 Q23.5625,134.7969 24.1719,134.7969 L24.5938,134.7969 L24.1875,133.7656 Z M23.4688,132.0625 L22.1094,128.6875 L20.7344,132.0625 L23.4688,132.0625 Z " fill="#000000"/><text fill="#000000" font-family="sans-serif" font-size="12" font-style="italic" lengthAdjust="spacing" textLength="98" x="36" y="136.9102">DltTraceLineBase</text><line style="stroke:#A80036;stroke-width:1.5;" x1="8" x2="136" y1="148" y2="148"/><line style="stroke:#A80036;stroke-width:1.5;" x1="8" x2="136" y1="156" y2="156"/><!--MD5=[6f1f7af0f816c5ab9c19ebe26aa0942c]
class DltTraceLine--><rect codeLine="3" fill="#FEFECE" filter="url(#ftl1t50ch68o1)" height="48" id="DltTraceLine" style="stroke:#A80036;stroke-width:1.5;" width="102" x="21" y="242"/><ellipse cx="36" cy="258" fill="#ADD1B2" rx="11" ry="11" style="stroke:#A80036;stroke-width:1.0;"/><path d="M38.7656,253.875 Q38.9219,253.6563 39.1094,253.5469 Q39.2969,253.4375 39.5156,253.4375 Q39.8906,253.4375 40.125,253.6953 Q40.3594,253.9531 40.3594,254.5625 L40.3594,256.0156 Q40.3594,256.625 40.125,256.8906 Q39.8906,257.1563 39.5156,257.1563 Q39.1719,257.1563 38.9688,256.9531 Q38.7656,256.7656 38.6563,256.25 Q38.6094,255.8906 38.4219,255.7031 Q38.0938,255.3281 37.4844,255.1094 Q36.875,254.8906 36.25,254.8906 Q35.4844,254.8906 34.8516,255.2188 Q34.2188,255.5469 33.7266,256.2969 Q33.2344,257.0469 33.2344,258.0781 L33.2344,259.1719 Q33.2344,260.4063 34.125,261.2266 Q35.0156,262.0469 36.6094,262.0469 Q37.5469,262.0469 38.2031,261.7969 Q38.5938,261.6406 39.0156,261.2031 Q39.2813,260.9375 39.4297,260.8594 Q39.5781,260.7813 39.7813,260.7813 Q40.1094,260.7813 40.3672,261.0391 Q40.625,261.2969 40.625,261.6406 Q40.625,261.9844 40.2813,262.3906 Q39.7813,262.9688 38.9844,263.2969 Q37.9063,263.75 36.6094,263.75 Q35.0938,263.75 33.8906,263.125 Q32.9063,262.625 32.2188,261.5547 Q31.5313,260.4844 31.5313,259.2031 L31.5313,258.0469 Q31.5313,256.7188 32.1484,255.5703 Q32.7656,254.4219 33.8594,253.8047 Q34.9531,253.1875 36.1875,253.1875 Q36.9219,253.1875 37.5703,253.3516 Q38.2188,253.5156 38.7656,253.875 Z " fill="#000000"/><text fill="#000000" font-family="sans-serif" font-size="12" lengthAdjust="spacing" textLength="70" x="50" y="262.9102">DltTraceLine</text><line style="stroke:#A80036;stroke-width:1.5;" x1="22" x2="122" y1="274" y2="274"/><line style="stroke:#A80036;stroke-width:1.5;" x1="22" x2="122" y1="282" y2="282"/><!--MD5=[37007402d8704c107906c2af5e5f7177]
class DltControlTraceLine--><rect codeLine="4" fill="#FEFECE" filter="url(#ftl1t50ch68o1)" height="48" id="DltControlTraceLine" style="stroke:#A80036;stroke-width:1.5;" width="142" x="168" y="242"/><ellipse cx="183" cy="258" fill="#ADD1B2" rx="11" ry="11" style="stroke:#A80036;stroke-width:1.0;"/><path d="M185.7656,253.875 Q185.9219,253.6563 186.1094,253.5469 Q186.2969,253.4375 186.5156,253.4375 Q186.8906,253.4375 187.125,253.6953 Q187.3594,253.9531 187.3594,254.5625 L187.3594,256.0156 Q187.3594,256.625 187.125,256.8906 Q186.8906,257.1563 186.5156,257.1563 Q186.1719,257.1563 185.9688,256.9531 Q185.7656,256.7656 185.6563,256.25 Q185.6094,255.8906 185.4219,255.7031 Q185.0938,255.3281 184.4844,255.1094 Q183.875,254.8906 183.25,254.8906 Q182.4844,254.8906 181.8516,255.2188 Q181.2188,255.5469 180.7266,256.2969 Q180.2344,257.0469 180.2344,258.0781 L180.2344,259.1719 Q180.2344,260.4063 181.125,261.2266 Q182.0156,262.0469 183.6094,262.0469 Q184.5469,262.0469 185.2031,261.7969 Q185.5938,261.6406 186.0156,261.2031 Q186.2813,260.9375 186.4297,260.8594 Q186.5781,260.7813 186.7813,260.7813 Q187.1094,260.7813 187.3672,261.0391 Q187.625,261.2969 187.625,261.6406 Q187.625,261.9844 187.2813,262.3906 Q186.7813,262.9688 185.9844,263.2969 Q184.9063,263.75 183.6094,263.75 Q182.0938,263.75 180.8906,263.125 Q179.9063,262.625 179.2188,261.5547 Q178.5313,260.4844 178.5313,259.2031 L178.5313,258.0469 Q178.5313,256.7188 179.1484,255.5703 Q179.7656,254.4219 180.8594,253.8047 Q181.9531,253.1875 183.1875,253.1875 Q183.9219,253.1875 184.5703,253.3516 Q185.2188,253.5156 185.7656,253.875 Z " fill="#000000"/><text fill="#000000" font-family="sans-serif" font-size="12" lengthAdjust="spacing" textLength="110" x="197" y="262.9102">DltControlTraceLine</text><line style="stroke:#A80036;stroke-width:1.5;" x1="169" x2="309" y1="274" y2="274"/><line style="stroke:#A80036;stroke-width:1.5;" x1="169" x2="309" y1="282" y2="282"/><!--MD5=[7c8e7f92b30ab1cd55af9a0f02d033cf]
class IDltLineBuilder--><rect codeLine="10" fill="#FEFECE" filter="url(#ftl1t50ch68o1)" height="48" id="IDltLineBuilder" style="stroke:#A80036;stroke-width:1.5;" width="114" x="181" y="7"/><ellipse cx="196" cy="23" fill="#B4A7E5" rx="11" ry="11" style="stroke:#A80036;stroke-width:1.0;"/><path d="M196.9531,19.6406 L196.9531,26.2969 L198.6719,26.2969 Q199.2813,26.2969 199.5469,26.5313 Q199.8125,26.7656 199.8125,27.1563 Q199.8125,27.5313 199.5469,27.7656 Q199.2813,28 198.6719,28 L193.5313,28 Q192.9219,28 192.6563,27.7656 Q192.3906,27.5313 192.3906,27.1406 Q192.3906,26.7656 192.6563,26.5313 Q192.9219,26.2969 193.5313,26.2969 L195.25,26.2969 L195.25,19.6406 L193.5313,19.6406 Q192.9219,19.6406 192.6563,19.4063 Q192.3906,19.1719 192.3906,18.7813 Q192.3906,18.4063 192.6563,18.1719 Q192.9219,17.9375 193.5313,17.9375 L198.6719,17.9375 Q199.2813,17.9375 199.5469,18.1719 Q199.8125,18.4063 199.8125,18.7813 Q199.8125,19.1719 199.5469,19.4063 Q199.2813,19.6406 198.6719,19.6406 L196.9531,19.6406 Z " fill="#000000"/><text fill="#000000" font-family="sans-serif" font-size="12" font-style="italic" lengthAdjust="spacing" textLength="82" x="210" y="27.9102">IDltLineBuilder</text><line style="stroke:#A80036;stroke-width:1.5;" x1="182" x2="294" y1="39" y2="39"/><line style="stroke:#A80036;stroke-width:1.5;" x1="182" x2="294" y1="47" y2="47"/><!--MD5=[17a0dca7bb023985dffd4a43327c1ce2]
class DltLineBuilder--><rect codeLine="11" fill="#FEFECE" filter="url(#ftl1t50ch68o1)" height="48" id="DltLineBuilder" style="stroke:#A80036;stroke-width:1.5;" width="110" x="183" y="116"/><ellipse cx="198" cy="132" fill="#ADD1B2" rx="11" ry="11" style="stroke:#A80036;stroke-width:1.0;"/><path d="M200.7656,127.875 Q200.9219,127.6563 201.1094,127.5469 Q201.2969,127.4375 201.5156,127.4375 Q201.8906,127.4375 202.125,127.6953 Q202.3594,127.9531 202.3594,128.5625 L202.3594,130.0156 Q202.3594,130.625 202.125,130.8906 Q201.8906,131.1563 201.5156,131.1563 Q201.1719,131.1563 200.9688,130.9531 Q200.7656,130.7656 200.6563,130.25 Q200.6094,129.8906 200.4219,129.7031 Q200.0938,129.3281 199.4844,129.1094 Q198.875,128.8906 198.25,128.8906 Q197.4844,128.8906 196.8516,129.2188 Q196.2188,129.5469 195.7266,130.2969 Q195.2344,131.0469 195.2344,132.0781 L195.2344,133.1719 Q195.2344,134.4063 196.125,135.2266 Q197.0156,136.0469 198.6094,136.0469 Q199.5469,136.0469 200.2031,135.7969 Q200.5938,135.6406 201.0156,135.2031 Q201.2813,134.9375 201.4297,134.8594 Q201.5781,134.7813 201.7813,134.7813 Q202.1094,134.7813 202.3672,135.0391 Q202.625,135.2969 202.625,135.6406 Q202.625,135.9844 202.2813,136.3906 Q201.7813,136.9688 200.9844,137.2969 Q199.9063,137.75 198.6094,137.75 Q197.0938,137.75 195.8906,137.125 Q194.9063,136.625 194.2188,135.5547 Q193.5313,134.4844 193.5313,133.2031 L193.5313,132.0469 Q193.5313,130.7188 194.1484,129.5703 Q194.7656,128.4219 195.8594,127.8047 Q196.9531,127.1875 198.1875,127.1875 Q198.9219,127.1875 199.5703,127.3516 Q200.2188,127.5156 200.7656,127.875 Z " fill="#000000"/><text fill="#000000" font-family="sans-serif" font-size="12" lengthAdjust="spacing" textLength="78" x="212" y="136.9102">DltLineBuilder</text><line style="stroke:#A80036;stroke-width:1.5;" x1="184" x2="292" y1="148" y2="148"/><line style="stroke:#A80036;stroke-width:1.5;" x1="184" x2="292" y1="156" y2="156"/><!--MD5=[d37ab522f49cd96a3bb16f0397b6ef68]
reverse link ITraceLine to DltTraceLineBase--><path codeLine="6" d="M72,75.58 C72,89.36 72,104.06 72,115.83 " fill="none" id="ITraceLine-backto-DltTraceLineBase" style="stroke:#A80036;stroke-width:1.0;stroke-dasharray:7.0,7.0;"/><polygon fill="none" points="65,75.22,72,55.22,79,75.22,65,75.22" style="stroke:#A80036;stroke-width:1.0;"/><!--MD5=[26defdeb303705e83192eb3c0a558c64]
reverse link DltTraceLineBase to DltTraceLine--><path codeLine="7" d="M72,184.23 C72,203.54 72,225.52 72,241.67 " fill="none" id="DltTraceLineBase-backto-DltTraceLine" style="stroke:#A80036;stroke-width:1.0;"/><polygon fill="none" points="65,184.03,72,164.03,79,184.03,65,184.03" style="stroke:#A80036;stroke-width:1.0;"/><!--MD5=[d00812b255de2b42a8cc845ecd452d22]
reverse link DltTraceLineBase to DltControlTraceLine--><path codeLine="8" d="M103.26,179.35 C113.6,190.67 125.64,202.55 138,212 C152.87,223.36 170.52,233.56 186.88,241.9 " fill="none" id="DltTraceLineBase-backto-DltControlTraceLine" style="stroke:#A80036;stroke-width:1.0;"/><polygon fill="none" points="97.77,183.7,89.92,164.01,108.33,174.51,97.77,183.7" style="stroke:#A80036;stroke-width:1.0;"/><!--MD5=[83a2f53655fed4b266f5d8582cea2bbe]
reverse link IDltLineBuilder to DltLineBuilder--><path codeLine="13" d="M238,75.58 C238,89.36 238,104.06 238,115.83 " fill="none" id="IDltLineBuilder-backto-DltLineBuilder" style="stroke:#A80036;stroke-width:1.0;stroke-dasharray:7.0,7.0;"/><polygon fill="none" points="231,75.22,238,55.22,245,75.22,231,75.22" style="stroke:#A80036;stroke-width:1.0;"/><!--MD5=[dc620f6c4e3ea2f40afde026fa7916b3]
link DltLineBuilder to DltTraceLine--><path codeLine="14" d="M207.17,164.03 C178.84,185.19 136.87,216.54 107.23,238.68 " fill="none" id="DltLineBuilder-to-DltTraceLine" style="stroke:#A80036;stroke-width:1.0;"/><polygon fill="#A80036" points="102.95,241.88,112.555,239.702,106.9569,238.8892,107.7697,233.291,102.95,241.88" style="stroke:#A80036;stroke-width:1.0;"/><text fill="#000000" font-family="sans-serif" font-size="13" lengthAdjust="spacing" textLength="57" x="166" y="208.4951">«creates»</text><!--MD5=[df0860db76654a639348a6ab9920cf98]
link DltLineBuilder to DltControlTraceLine--><path codeLine="15" d="M238.19,164.03 C238.35,184.52 238.59,214.56 238.77,236.55 " fill="none" id="DltLineBuilder-to-DltControlTraceLine" style="stroke:#A80036;stroke-width:1.0;"/><polygon fill="#A80036" points="238.81,241.67,242.7585,232.6473,238.7814,236.6701,234.7586,232.693,238.81,241.67" style="stroke:#A80036;stroke-width:1.0;"/><text fill="#000000" font-family="sans-serif" font-size="13" lengthAdjust="spacing" textLength="57" x="239" y="208.4951">«creates»</text><!--MD5=[b219870922a633bda1a7b7c344d74840]
@startuml DLT.TraceLine
interface ITraceLine
abstract class DltTraceLineBase
class DltTraceLine
class DltControlTraceLine

ITraceLine <|.. DltTraceLineBase
DltTraceLineBase <|- - DltTraceLine
DltTraceLineBase <|- - DltControlTraceLine

interface IDltLineBuilder
class DltLineBuilder

IDltLineBuilder <|.. DltLineBuilder
DltLineBuilder - -> DltTraceLine : <<creates>>
DltLineBuilder - -> DltControlTraceLine : <<creates>>
@enduml

PlantUML version 1.2021.14(Fri Nov 12 17:46:50 CET 2021)
(GPL source distribution)
Java Runtime: Java(TM) SE Runtime Environment
JVM: Java HotSpot(TM) Client VM
Default Encoding: Cp1252
Language: en
Country: US
--></g></svg>