<?xml version="1.0" encoding="us-ascii" standalone="no"?><svg xmlns="http://www.w3.org/2000/svg" xmlns:xlink="http://www.w3.org/1999/xlink" contentStyleType="text/css" height="405px" preserveAspectRatio="none" style="width:442px;height:405px;background:#FFFFFF;" version="1.1" viewBox="0 0 442 405" width="442px" zoomAndPan="magnify"><defs/><g><!--class ITraceLine--><g id="elem_ITraceLine"><rect codeLine="1" fill="#F1F1F1" height="48" id="ITraceLine" rx="2.5" ry="2.5" style="stroke:#181818;stroke-width:0.5;" width="102" x="55" y="7"/><ellipse cx="70" cy="23" fill="#B4A7E5" rx="11" ry="11" style="stroke:#181818;stroke-width:1.0;"/><path d="M65.9219,18.7656 L65.9219,16.6094 L73.3125,16.6094 L73.3125,18.7656 L70.8438,18.7656 L70.8438,26.8438 L73.3125,26.8438 L73.3125,29 L65.9219,29 L65.9219,26.8438 L68.3906,26.8438 L68.3906,18.7656 L65.9219,18.7656 Z " fill="#000000"/><text fill="#000000" font-family="sans-serif" font-size="14" font-style="italic" lengthAdjust="spacing" textLength="70" x="84" y="27.8467">ITraceLine</text><line style="stroke:#181818;stroke-width:0.5;" x1="56" x2="156" y1="39" y2="39"/><line style="stroke:#181818;stroke-width:0.5;" x1="56" x2="156" y1="47" y2="47"/></g><!--class DltTraceLineBase--><g id="elem_DltTraceLineBase"><rect codeLine="2" fill="#F1F1F1" height="48" id="DltTraceLineBase" rx="2.5" ry="2.5" style="stroke:#181818;stroke-width:0.5;" width="153" x="29.5" y="116"/><ellipse cx="44.5" cy="132" fill="#A9DCDF" rx="11" ry="11" style="stroke:#181818;stroke-width:1.0;"/><path d="M44.6094,127.3438 L43.4531,132.4219 L45.7813,132.4219 L44.6094,127.3438 Z M43.125,125.1094 L46.1094,125.1094 L49.4688,137.5 L47.0156,137.5 L46.25,134.4375 L42.9688,134.4375 L42.2188,137.5 L39.7813,137.5 L43.125,125.1094 Z " fill="#000000"/><text fill="#000000" font-family="sans-serif" font-size="14" font-style="italic" lengthAdjust="spacing" textLength="121" x="58.5" y="136.8467">DltTraceLineBase</text><line style="stroke:#181818;stroke-width:0.5;" x1="30.5" x2="181.5" y1="148" y2="148"/><line style="stroke:#181818;stroke-width:0.5;" x1="30.5" x2="181.5" y1="156" y2="156"/></g><!--class DltTraceLine--><g id="elem_DltTraceLine"><rect codeLine="3" fill="#F1F1F1" height="48" id="DltTraceLine" rx="2.5" ry="2.5" style="stroke:#181818;stroke-width:0.5;" width="118" x="210" y="241"/><ellipse cx="225" cy="257" fill="#ADD1B2" rx="11" ry="11" style="stroke:#181818;stroke-width:1.0;"/><path d="M227.9688,262.6406 Q227.3906,262.9375 226.75,263.0781 Q226.1094,263.2344 225.4063,263.2344 Q222.9063,263.2344 221.5781,261.5938 Q220.2656,259.9375 220.2656,256.8125 Q220.2656,253.6875 221.5781,252.0313 Q222.9063,250.375 225.4063,250.375 Q226.1094,250.375 226.75,250.5313 Q227.4063,250.6875 227.9688,250.9844 L227.9688,253.7031 Q227.3438,253.125 226.75,252.8594 Q226.1563,252.5781 225.5313,252.5781 Q224.1875,252.5781 223.5,253.6563 Q222.8125,254.7188 222.8125,256.8125 Q222.8125,258.9063 223.5,259.9844 Q224.1875,261.0469 225.5313,261.0469 Q226.1563,261.0469 226.75,260.7813 Q227.3438,260.5 227.9688,259.9219 L227.9688,262.6406 Z " fill="#000000"/><text fill="#000000" font-family="sans-serif" font-size="14" lengthAdjust="spacing" textLength="86" x="239" y="261.8467">DltTraceLine</text><line style="stroke:#181818;stroke-width:0.5;" x1="211" x2="327" y1="273" y2="273"/><line style="stroke:#181818;stroke-width:0.5;" x1="211" x2="327" y1="281" y2="281"/></g><!--class DltControlTraceLine--><g id="elem_DltControlTraceLine"><rect codeLine="4" fill="#F1F1F1" height="48" id="DltControlTraceLine" rx="2.5" ry="2.5" style="stroke:#181818;stroke-width:0.5;" width="168" x="7" y="241"/><ellipse cx="22" cy="257" fill="#ADD1B2" rx="11" ry="11" style="stroke:#181818;stroke-width:1.0;"/><path d="M24.9688,262.6406 Q24.3906,262.9375 23.75,263.0781 Q23.1094,263.2344 22.4063,263.2344 Q19.9063,263.2344 18.5781,261.5938 Q17.2656,259.9375 17.2656,256.8125 Q17.2656,253.6875 18.5781,252.0313 Q19.9063,250.375 22.4063,250.375 Q23.1094,250.375 23.75,250.5313 Q24.4063,250.6875 24.9688,250.9844 L24.9688,253.7031 Q24.3438,253.125 23.75,252.8594 Q23.1563,252.5781 22.5313,252.5781 Q21.1875,252.5781 20.5,253.6563 Q19.8125,254.7188 19.8125,256.8125 Q19.8125,258.9063 20.5,259.9844 Q21.1875,261.0469 22.5313,261.0469 Q23.1563,261.0469 23.75,260.7813 Q24.3438,260.5 24.9688,259.9219 L24.9688,262.6406 Z " fill="#000000"/><text fill="#000000" font-family="sans-serif" font-size="14" lengthAdjust="spacing" textLength="136" x="36" y="261.8467">DltControlTraceLine</text><line style="stroke:#181818;stroke-width:0.5;" x1="8" x2="174" y1="273" y2="273"/><line style="stroke:#181818;stroke-width:0.5;" x1="8" x2="174" y1="281" y2="281"/></g><!--class IDltLineBuilder--><g id="elem_IDltLineBuilder"><rect codeLine="10" fill="#F1F1F1" height="48" id="IDltLineBuilder" rx="2.5" ry="2.5" style="stroke:#181818;stroke-width:0.5;" width="130" x="231" y="7"/><ellipse cx="246" cy="23" fill="#B4A7E5" rx="11" ry="11" style="stroke:#181818;stroke-width:1.0;"/><path d="M241.9219,18.7656 L241.9219,16.6094 L249.3125,16.6094 L249.3125,18.7656 L246.8438,18.7656 L246.8438,26.8438 L249.3125,26.8438 L249.3125,29 L241.9219,29 L241.9219,26.8438 L244.3906,26.8438 L244.3906,18.7656 L241.9219,18.7656 Z " fill="#000000"/><text fill="#000000" font-family="sans-serif" font-size="14" font-style="italic" lengthAdjust="spacing" textLength="98" x="260" y="27.8467">IDltLineBuilder</text><line style="stroke:#181818;stroke-width:0.5;" x1="232" x2="360" y1="39" y2="39"/><line style="stroke:#181818;stroke-width:0.5;" x1="232" x2="360" y1="47" y2="47"/></g><!--class DltLineBuilder--><g id="elem_DltLineBuilder"><rect codeLine="11" fill="#F1F1F1" height="48" id="DltLineBuilder" rx="2.5" ry="2.5" style="stroke:#181818;stroke-width:0.5;" width="127" x="232.5" y="116"/><ellipse cx="247.5" cy="132" fill="#ADD1B2" rx="11" ry="11" style="stroke:#181818;stroke-width:1.0;"/><path d="M250.4688,137.6406 Q249.8906,137.9375 249.25,138.0781 Q248.6094,138.2344 247.9063,138.2344 Q245.4063,138.2344 244.0781,136.5938 Q242.7656,134.9375 242.7656,131.8125 Q242.7656,128.6875 244.0781,127.0313 Q245.4063,125.375 247.9063,125.375 Q248.6094,125.375 249.25,125.5313 Q249.9063,125.6875 250.4688,125.9844 L250.4688,128.7031 Q249.8438,128.125 249.25,127.8594 Q248.6563,127.5781 248.0313,127.5781 Q246.6875,127.5781 246,128.6563 Q245.3125,129.7188 245.3125,131.8125 Q245.3125,133.9063 246,134.9844 Q246.6875,136.0469 248.0313,136.0469 Q248.6563,136.0469 249.25,135.7813 Q249.8438,135.5 250.4688,134.9219 L250.4688,137.6406 Z " fill="#000000"/><text fill="#000000" font-family="sans-serif" font-size="14" lengthAdjust="spacing" textLength="95" x="261.5" y="136.8467">DltLineBuilder</text><line style="stroke:#181818;stroke-width:0.5;" x1="233.5" x2="358.5" y1="148" y2="148"/><line style="stroke:#181818;stroke-width:0.5;" x1="233.5" x2="358.5" y1="156" y2="156"/></g><!--class DltSkippedTraceLine--><g id="elem_DltSkippedTraceLine"><rect codeLine="13" fill="#F1F1F1" height="48" id="DltSkippedTraceLine" rx="2.5" ry="2.5" style="stroke:#181818;stroke-width:0.5;" width="174" x="246" y="350"/><ellipse cx="261" cy="366" fill="#ADD1B2" rx="11" ry="11" style="stroke:#181818;stroke-width:1.0;"/><path d="M263.9688,371.6406 Q263.3906,371.9375 262.75,372.0781 Q262.1094,372.2344 261.4063,372.2344 Q258.9063,372.2344 257.5781,370.5938 Q256.2656,368.9375 256.2656,365.8125 Q256.2656,362.6875 257.5781,361.0313 Q258.9063,359.375 261.4063,359.375 Q262.1094,359.375 262.75,359.5313 Q263.4063,359.6875 263.9688,359.9844 L263.9688,362.7031 Q263.3438,362.125 262.75,361.8594 Q262.1563,361.5781 261.5313,361.5781 Q260.1875,361.5781 259.5,362.6563 Q258.8125,363.7188 258.8125,365.8125 Q258.8125,367.9063 259.5,368.9844 Q260.1875,370.0469 261.5313,370.0469 Q262.1563,370.0469 262.75,369.7813 Q263.3438,369.5 263.9688,368.9219 L263.9688,371.6406 Z " fill="#000000"/><text fill="#000000" font-family="sans-serif" font-size="14" lengthAdjust="spacing" textLength="142" x="275" y="370.8467">DltSkippedTraceLine</text><line style="stroke:#181818;stroke-width:0.5;" x1="247" x2="419" y1="382" y2="382"/><line style="stroke:#181818;stroke-width:0.5;" x1="247" x2="419" y1="390" y2="390"/></g><!--reverse link ITraceLine to DltTraceLineBase--><g id="link_ITraceLine_DltTraceLineBase"><path codeLine="6" d="M106,76.17 C106,89.68 106,104.01 106,115.57 " fill="none" id="ITraceLine-backto-DltTraceLineBase" style="stroke:#181818;stroke-width:1.0;stroke-dasharray:7.0,7.0;"/><polygon fill="none" points="99,76.48,106,56.48,113,76.48,99,76.48" style="stroke:#181818;stroke-width:1.0;"/></g><!--reverse link DltTraceLineBase to DltTraceLine--><g id="link_DltTraceLineBase_DltTraceLine"><path codeLine="7" d="M128.56,181.78 C135.71,192.23 144.31,202.82 154,211 C170.21,224.68 190.55,235.58 209.59,243.85 " fill="none" id="DltTraceLineBase-backto-DltTraceLine" style="stroke:#181818;stroke-width:1.0;"/><polygon fill="none" points="122.25,185.89,117.66,165.2,134.15,178.51,122.25,185.89" style="stroke:#181818;stroke-width:1.0;"/></g><!--reverse link DltTraceLineBase to DltControlTraceLine--><g id="link_DltTraceLineBase_DltControlTraceLine"><path codeLine="8" d="M100.6,185.24 C98.32,203.98 95.75,225.04 93.85,240.66 " fill="none" id="DltTraceLineBase-backto-DltControlTraceLine" style="stroke:#181818;stroke-width:1.0;"/><polygon fill="none" points="93.77,184.43,103.14,165.42,107.67,186.13,93.77,184.43" style="stroke:#181818;stroke-width:1.0;"/></g><!--reverse link DltTraceLine to DltSkippedTraceLine--><g id="link_DltTraceLine_DltSkippedTraceLine"><path codeLine="14" d="M293.67,307.25 C302.25,321.59 311.57,337.18 318.99,349.57 " fill="none" id="DltTraceLine-backto-DltSkippedTraceLine" style="stroke:#181818;stroke-width:1.0;"/><polygon fill="none" points="287.3,311.24,283.05,290.48,299.32,304.05,287.3,311.24" style="stroke:#181818;stroke-width:1.0;"/></g><!--reverse link IDltLineBuilder to DltLineBuilder--><g id="link_IDltLineBuilder_DltLineBuilder"><path codeLine="16" d="M296,76.17 C296,89.68 296,104.01 296,115.57 " fill="none" id="IDltLineBuilder-backto-DltLineBuilder" style="stroke:#181818;stroke-width:1.0;stroke-dasharray:7.0,7.0;"/><polygon fill="none" points="289,76.48,296,56.48,303,76.48,289,76.48" style="stroke:#181818;stroke-width:1.0;"/></g><!--link DltLineBuilder to DltTraceLine--><g id="link_DltLineBuilder_DltTraceLine"><path codeLine="17" d="M290.86,164.42 C286.47,184.43 280.13,213.3 275.41,234.8 " fill="none" id="DltLineBuilder-to-DltTraceLine" style="stroke:#181818;stroke-width:1.0;"/><polygon fill="#181818" points="274.12,239.66,279.9599,231.7293,275.194,234.7767,272.1466,230.0109,274.12,239.66" style="stroke:#181818;stroke-width:1.0;"/><text fill="#000000" font-family="sans-serif" font-size="13" lengthAdjust="spacing" textLength="64" x="286" y="207.0669">&#171;creates&#187;</text></g><!--link DltLineBuilder to DltControlTraceLine--><g id="link_DltLineBuilder_DltControlTraceLine"><path codeLine="18" d="M256.54,164.43 C241.08,173.63 223.2,184.29 207,194 C183.09,208.33 156.46,224.39 134.76,237.51 " fill="none" id="DltLineBuilder-to-DltControlTraceLine" style="stroke:#181818;stroke-width:1.0;"/><polygon fill="#181818" points="130.63,240.61,140.4006,239.3711,134.9073,238.0207,136.2578,232.5274,130.63,240.61" style="stroke:#181818;stroke-width:1.0;"/><text fill="#000000" font-family="sans-serif" font-size="13" lengthAdjust="spacing" textLength="64" x="208" y="207.0669">&#171;creates&#187;</text></g><!--link DltLineBuilder to DltSkippedTraceLine--><g id="link_DltLineBuilder_DltSkippedTraceLine"><path codeLine="19" d="M334.27,164.24 C344.17,172.33 353.57,182.34 359,194 C381.99,243.38 361.89,308.03 346.53,344.58 " fill="none" id="DltLineBuilder-to-DltSkippedTraceLine" style="stroke:#181818;stroke-width:1.0;"/><polygon fill="#181818" points="344.31,348.76,351.5319,342.0634,346.2796,344.1643,344.1787,338.912,344.31,348.76" style="stroke:#181818;stroke-width:1.0;"/><text fill="#000000" font-family="sans-serif" font-size="13" lengthAdjust="spacing" textLength="64" x="370" y="269.5669">&#171;creates&#187;</text></g><!--SRC=[ZKzB3i8W4DrpYha0FO0XBDIDYJkz0D9fGYIqWN7duKjSC0LiqXNXVUUvG1WdOn5kpvYVkmiep2jH_X1ORrA2gwV2dKr2qSCCNUP0SVRC20u6zHs6Fgu5iapAEdvNqjSvNfJvd-7Z_8YHRzo2Z3xURbbm_5zQ2ZkLQ6hAo6rB8v5IL_lW14hPY8OmQRsZRgSUChNdrgOL]--></g></svg>