<?xml version="1.0" encoding="UTF-8" standalone="no"?><svg xmlns="http://www.w3.org/2000/svg" xmlns:xlink="http://www.w3.org/1999/xlink" contentScriptType="application/ecmascript" contentStyleType="text/css" height="413px" preserveAspectRatio="none" style="width:399px;height:413px;background:#FFFFFF;" version="1.1" viewBox="0 0 399 413" width="399px" zoomAndPan="magnify"><defs><filter height="300%" id="f1fpj7ql4u91px" width="300%" x="-1" y="-1"><feGaussianBlur result="blurOut" stdDeviation="2.0"/><feColorMatrix in="blurOut" result="blurOut2" type="matrix" values="0 0 0 0 0 0 0 0 0 0 0 0 0 0 0 0 0 0 .4 0"/><feOffset dx="4.0" dy="4.0" in="blurOut2" result="blurOut3"/><feBlend in="SourceGraphic" in2="blurOut3" mode="normal"/></filter></defs><g><!--MD5=[88ea6b0307e645c9893f60c417406741]
class ITraceLine--><rect codeLine="1" fill="#FEFECE" filter="url(#f1fpj7ql4u91px)" height="48" id="ITraceLine" style="stroke:#A80036;stroke-width:1.5;" width="91" x="52.5" y="7"/><ellipse cx="67.5" cy="23" fill="#B4A7E5" rx="11" ry="11" style="stroke:#A80036;stroke-width:1.0;"/><path d="M68.4531,19.6406 L68.4531,26.2969 L70.1719,26.2969 Q70.7813,26.2969 71.0469,26.5313 Q71.3125,26.7656 71.3125,27.1563 Q71.3125,27.5313 71.0469,27.7656 Q70.7813,28 70.1719,28 L65.0313,28 Q64.4219,28 64.1563,27.7656 Q63.8906,27.5313 63.8906,27.1406 Q63.8906,26.7656 64.1563,26.5313 Q64.4219,26.2969 65.0313,26.2969 L66.75,26.2969 L66.75,19.6406 L65.0313,19.6406 Q64.4219,19.6406 64.1563,19.4063 Q63.8906,19.1719 63.8906,18.7813 Q63.8906,18.4063 64.1563,18.1719 Q64.4219,17.9375 65.0313,17.9375 L70.1719,17.9375 Q70.7813,17.9375 71.0469,18.1719 Q71.3125,18.4063 71.3125,18.7813 Q71.3125,19.1719 71.0469,19.4063 Q70.7813,19.6406 70.1719,19.6406 L68.4531,19.6406 Z " fill="#000000"/><text fill="#000000" font-family="sans-serif" font-size="12" font-style="italic" lengthAdjust="spacing" textLength="59" x="81.5" y="27.9102">ITraceLine</text><line style="stroke:#A80036;stroke-width:1.5;" x1="53.5" x2="142.5" y1="39" y2="39"/><line style="stroke:#A80036;stroke-width:1.5;" x1="53.5" x2="142.5" y1="47" y2="47"/><!--MD5=[28873638bd7ece8d7fabdc75a6b629e1]
class DltTraceLineBase--><rect codeLine="2" fill="#FEFECE" filter="url(#f1fpj7ql4u91px)" height="48" id="DltTraceLineBase" style="stroke:#A80036;stroke-width:1.5;" width="130" x="33" y="116"/><ellipse cx="48" cy="132" fill="#A9DCDF" rx="11" ry="11" style="stroke:#A80036;stroke-width:1.0;"/><path d="M50.1875,133.7656 L46.0469,133.7656 L45.625,134.7969 L46.0469,134.7969 Q46.6563,134.7969 46.9219,135.0313 Q47.1875,135.2656 47.1875,135.6563 Q47.1875,136.0313 46.9219,136.2656 Q46.6563,136.5 46.0469,136.5 L43.75,136.5 Q43.1406,136.5 42.8828,136.2656 Q42.625,136.0313 42.625,135.6406 Q42.625,135.2656 42.8984,135.0234 Q43.1719,134.7813 43.7969,134.7969 L46.4688,128.1406 L45.3594,128.1406 Q44.75,128.1406 44.4844,127.9063 Q44.2188,127.6719 44.2188,127.2813 Q44.2188,126.9063 44.4844,126.6719 Q44.75,126.4375 45.3594,126.4375 L49.0313,126.4375 L52.4219,134.7969 Q53.0156,134.7969 53.2031,134.9375 Q53.5938,135.2031 53.5938,135.6563 Q53.5938,136.0313 53.3359,136.2656 Q53.0781,136.5 52.4688,136.5 L50.1719,136.5 Q49.5625,136.5 49.2969,136.2656 Q49.0313,136.0313 49.0313,135.6406 Q49.0313,135.2656 49.2969,135.0313 Q49.5625,134.7969 50.1719,134.7969 L50.5938,134.7969 L50.1875,133.7656 Z M49.4688,132.0625 L48.1094,128.6875 L46.7344,132.0625 L49.4688,132.0625 Z " fill="#000000"/><text fill="#000000" font-family="sans-serif" font-size="12" font-style="italic" lengthAdjust="spacing" textLength="98" x="62" y="136.9102">DltTraceLineBase</text><line style="stroke:#A80036;stroke-width:1.5;" x1="34" x2="162" y1="148" y2="148"/><line style="stroke:#A80036;stroke-width:1.5;" x1="34" x2="162" y1="156" y2="156"/><!--MD5=[6f1f7af0f816c5ab9c19ebe26aa0942c]
class DltTraceLine--><rect codeLine="3" fill="#FEFECE" filter="url(#f1fpj7ql4u91px)" height="48" id="DltTraceLine" style="stroke:#A80036;stroke-width:1.5;" width="102" x="185" y="242"/><ellipse cx="200" cy="258" fill="#ADD1B2" rx="11" ry="11" style="stroke:#A80036;stroke-width:1.0;"/><path d="M202.7656,253.875 Q202.9219,253.6563 203.1094,253.5469 Q203.2969,253.4375 203.5156,253.4375 Q203.8906,253.4375 204.125,253.6953 Q204.3594,253.9531 204.3594,254.5625 L204.3594,256.0156 Q204.3594,256.625 204.125,256.8906 Q203.8906,257.1563 203.5156,257.1563 Q203.1719,257.1563 202.9688,256.9531 Q202.7656,256.7656 202.6563,256.25 Q202.6094,255.8906 202.4219,255.7031 Q202.0938,255.3281 201.4844,255.1094 Q200.875,254.8906 200.25,254.8906 Q199.4844,254.8906 198.8516,255.2188 Q198.2188,255.5469 197.7266,256.2969 Q197.2344,257.0469 197.2344,258.0781 L197.2344,259.1719 Q197.2344,260.4063 198.125,261.2266 Q199.0156,262.0469 200.6094,262.0469 Q201.5469,262.0469 202.2031,261.7969 Q202.5938,261.6406 203.0156,261.2031 Q203.2813,260.9375 203.4297,260.8594 Q203.5781,260.7813 203.7813,260.7813 Q204.1094,260.7813 204.3672,261.0391 Q204.625,261.2969 204.625,261.6406 Q204.625,261.9844 204.2813,262.3906 Q203.7813,262.9688 202.9844,263.2969 Q201.9063,263.75 200.6094,263.75 Q199.0938,263.75 197.8906,263.125 Q196.9063,262.625 196.2188,261.5547 Q195.5313,260.4844 195.5313,259.2031 L195.5313,258.0469 Q195.5313,256.7188 196.1484,255.5703 Q196.7656,254.4219 197.8594,253.8047 Q198.9531,253.1875 200.1875,253.1875 Q200.9219,253.1875 201.5703,253.3516 Q202.2188,253.5156 202.7656,253.875 Z " fill="#000000"/><text fill="#000000" font-family="sans-serif" font-size="12" lengthAdjust="spacing" textLength="70" x="214" y="262.9102">DltTraceLine</text><line style="stroke:#A80036;stroke-width:1.5;" x1="186" x2="286" y1="274" y2="274"/><line style="stroke:#A80036;stroke-width:1.5;" x1="186" x2="286" y1="282" y2="282"/><!--MD5=[37007402d8704c107906c2af5e5f7177]
class DltControlTraceLine--><rect codeLine="4" fill="#FEFECE" filter="url(#f1fpj7ql4u91px)" height="48" id="DltControlTraceLine" style="stroke:#A80036;stroke-width:1.5;" width="142" x="7" y="242"/><ellipse cx="22" cy="258" fill="#ADD1B2" rx="11" ry="11" style="stroke:#A80036;stroke-width:1.0;"/><path d="M24.7656,253.875 Q24.9219,253.6563 25.1094,253.5469 Q25.2969,253.4375 25.5156,253.4375 Q25.8906,253.4375 26.125,253.6953 Q26.3594,253.9531 26.3594,254.5625 L26.3594,256.0156 Q26.3594,256.625 26.125,256.8906 Q25.8906,257.1563 25.5156,257.1563 Q25.1719,257.1563 24.9688,256.9531 Q24.7656,256.7656 24.6563,256.25 Q24.6094,255.8906 24.4219,255.7031 Q24.0938,255.3281 23.4844,255.1094 Q22.875,254.8906 22.25,254.8906 Q21.4844,254.8906 20.8516,255.2188 Q20.2188,255.5469 19.7266,256.2969 Q19.2344,257.0469 19.2344,258.0781 L19.2344,259.1719 Q19.2344,260.4063 20.125,261.2266 Q21.0156,262.0469 22.6094,262.0469 Q23.5469,262.0469 24.2031,261.7969 Q24.5938,261.6406 25.0156,261.2031 Q25.2813,260.9375 25.4297,260.8594 Q25.5781,260.7813 25.7813,260.7813 Q26.1094,260.7813 26.3672,261.0391 Q26.625,261.2969 26.625,261.6406 Q26.625,261.9844 26.2813,262.3906 Q25.7813,262.9688 24.9844,263.2969 Q23.9063,263.75 22.6094,263.75 Q21.0938,263.75 19.8906,263.125 Q18.9063,262.625 18.2188,261.5547 Q17.5313,260.4844 17.5313,259.2031 L17.5313,258.0469 Q17.5313,256.7188 18.1484,255.5703 Q18.7656,254.4219 19.8594,253.8047 Q20.9531,253.1875 22.1875,253.1875 Q22.9219,253.1875 23.5703,253.3516 Q24.2188,253.5156 24.7656,253.875 Z " fill="#000000"/><text fill="#000000" font-family="sans-serif" font-size="12" lengthAdjust="spacing" textLength="110" x="36" y="262.9102">DltControlTraceLine</text><line style="stroke:#A80036;stroke-width:1.5;" x1="8" x2="148" y1="274" y2="274"/><line style="stroke:#A80036;stroke-width:1.5;" x1="8" x2="148" y1="282" y2="282"/><!--MD5=[7c8e7f92b30ab1cd55af9a0f02d033cf]
class IDltLineBuilder--><rect codeLine="10" fill="#FEFECE" filter="url(#f1fpj7ql4u91px)" height="48" id="IDltLineBuilder" style="stroke:#A80036;stroke-width:1.5;" width="114" x="218" y="7"/><ellipse cx="233" cy="23" fill="#B4A7E5" rx="11" ry="11" style="stroke:#A80036;stroke-width:1.0;"/><path d="M233.9531,19.6406 L233.9531,26.2969 L235.6719,26.2969 Q236.2813,26.2969 236.5469,26.5313 Q236.8125,26.7656 236.8125,27.1563 Q236.8125,27.5313 236.5469,27.7656 Q236.2813,28 235.6719,28 L230.5313,28 Q229.9219,28 229.6563,27.7656 Q229.3906,27.5313 229.3906,27.1406 Q229.3906,26.7656 229.6563,26.5313 Q229.9219,26.2969 230.5313,26.2969 L232.25,26.2969 L232.25,19.6406 L230.5313,19.6406 Q229.9219,19.6406 229.6563,19.4063 Q229.3906,19.1719 229.3906,18.7813 Q229.3906,18.4063 229.6563,18.1719 Q229.9219,17.9375 230.5313,17.9375 L235.6719,17.9375 Q236.2813,17.9375 236.5469,18.1719 Q236.8125,18.4063 236.8125,18.7813 Q236.8125,19.1719 236.5469,19.4063 Q236.2813,19.6406 235.6719,19.6406 L233.9531,19.6406 Z " fill="#000000"/><text fill="#000000" font-family="sans-serif" font-size="12" font-style="italic" lengthAdjust="spacing" textLength="82" x="247" y="27.9102">IDltLineBuilder</text><line style="stroke:#A80036;stroke-width:1.5;" x1="219" x2="331" y1="39" y2="39"/><line style="stroke:#A80036;stroke-width:1.5;" x1="219" x2="331" y1="47" y2="47"/><!--MD5=[17a0dca7bb023985dffd4a43327c1ce2]
class DltLineBuilder--><rect codeLine="11" fill="#FEFECE" filter="url(#f1fpj7ql4u91px)" height="48" id="DltLineBuilder" style="stroke:#A80036;stroke-width:1.5;" width="110" x="220" y="116"/><ellipse cx="235" cy="132" fill="#ADD1B2" rx="11" ry="11" style="stroke:#A80036;stroke-width:1.0;"/><path d="M237.7656,127.875 Q237.9219,127.6563 238.1094,127.5469 Q238.2969,127.4375 238.5156,127.4375 Q238.8906,127.4375 239.125,127.6953 Q239.3594,127.9531 239.3594,128.5625 L239.3594,130.0156 Q239.3594,130.625 239.125,130.8906 Q238.8906,131.1563 238.5156,131.1563 Q238.1719,131.1563 237.9688,130.9531 Q237.7656,130.7656 237.6563,130.25 Q237.6094,129.8906 237.4219,129.7031 Q237.0938,129.3281 236.4844,129.1094 Q235.875,128.8906 235.25,128.8906 Q234.4844,128.8906 233.8516,129.2188 Q233.2188,129.5469 232.7266,130.2969 Q232.2344,131.0469 232.2344,132.0781 L232.2344,133.1719 Q232.2344,134.4063 233.125,135.2266 Q234.0156,136.0469 235.6094,136.0469 Q236.5469,136.0469 237.2031,135.7969 Q237.5938,135.6406 238.0156,135.2031 Q238.2813,134.9375 238.4297,134.8594 Q238.5781,134.7813 238.7813,134.7813 Q239.1094,134.7813 239.3672,135.0391 Q239.625,135.2969 239.625,135.6406 Q239.625,135.9844 239.2813,136.3906 Q238.7813,136.9688 237.9844,137.2969 Q236.9063,137.75 235.6094,137.75 Q234.0938,137.75 232.8906,137.125 Q231.9063,136.625 231.2188,135.5547 Q230.5313,134.4844 230.5313,133.2031 L230.5313,132.0469 Q230.5313,130.7188 231.1484,129.5703 Q231.7656,128.4219 232.8594,127.8047 Q233.9531,127.1875 235.1875,127.1875 Q235.9219,127.1875 236.5703,127.3516 Q237.2188,127.5156 237.7656,127.875 Z " fill="#000000"/><text fill="#000000" font-family="sans-serif" font-size="12" lengthAdjust="spacing" textLength="78" x="249" y="136.9102">DltLineBuilder</text><line style="stroke:#A80036;stroke-width:1.5;" x1="221" x2="329" y1="148" y2="148"/><line style="stroke:#A80036;stroke-width:1.5;" x1="221" x2="329" y1="156" y2="156"/><!--MD5=[c99cac3f220e3cd829d0648a0740eedc]
class DltSkippedTraceLine--><rect codeLine="13" fill="#FEFECE" filter="url(#f1fpj7ql4u91px)" height="48" id="DltSkippedTraceLine" style="stroke:#A80036;stroke-width:1.5;" width="147" x="222.5" y="351"/><ellipse cx="237.5" cy="367" fill="#ADD1B2" rx="11" ry="11" style="stroke:#A80036;stroke-width:1.0;"/><path d="M240.2656,362.875 Q240.4219,362.6563 240.6094,362.5469 Q240.7969,362.4375 241.0156,362.4375 Q241.3906,362.4375 241.625,362.6953 Q241.8594,362.9531 241.8594,363.5625 L241.8594,365.0156 Q241.8594,365.625 241.625,365.8906 Q241.3906,366.1563 241.0156,366.1563 Q240.6719,366.1563 240.4688,365.9531 Q240.2656,365.7656 240.1563,365.25 Q240.1094,364.8906 239.9219,364.7031 Q239.5938,364.3281 238.9844,364.1094 Q238.375,363.8906 237.75,363.8906 Q236.9844,363.8906 236.3516,364.2188 Q235.7188,364.5469 235.2266,365.2969 Q234.7344,366.0469 234.7344,367.0781 L234.7344,368.1719 Q234.7344,369.4063 235.625,370.2266 Q236.5156,371.0469 238.1094,371.0469 Q239.0469,371.0469 239.7031,370.7969 Q240.0938,370.6406 240.5156,370.2031 Q240.7813,369.9375 240.9297,369.8594 Q241.0781,369.7813 241.2813,369.7813 Q241.6094,369.7813 241.8672,370.0391 Q242.125,370.2969 242.125,370.6406 Q242.125,370.9844 241.7813,371.3906 Q241.2813,371.9688 240.4844,372.2969 Q239.4063,372.75 238.1094,372.75 Q236.5938,372.75 235.3906,372.125 Q234.4063,371.625 233.7188,370.5547 Q233.0313,369.4844 233.0313,368.2031 L233.0313,367.0469 Q233.0313,365.7188 233.6484,364.5703 Q234.2656,363.4219 235.3594,362.8047 Q236.4531,362.1875 237.6875,362.1875 Q238.4219,362.1875 239.0703,362.3516 Q239.7188,362.5156 240.2656,362.875 Z " fill="#000000"/><text fill="#000000" font-family="sans-serif" font-size="12" lengthAdjust="spacing" textLength="115" x="251.5" y="371.9102">DltSkippedTraceLine</text><line style="stroke:#A80036;stroke-width:1.5;" x1="223.5" x2="368.5" y1="383" y2="383"/><line style="stroke:#A80036;stroke-width:1.5;" x1="223.5" x2="368.5" y1="391" y2="391"/><!--MD5=[d37ab522f49cd96a3bb16f0397b6ef68]
reverse link ITraceLine to DltTraceLineBase--><path codeLine="6" d="M98,75.58 C98,89.36 98,104.06 98,115.83 " fill="none" id="ITraceLine-backto-DltTraceLineBase" style="stroke:#A80036;stroke-width:1.0;stroke-dasharray:7.0,7.0;"/><polygon fill="none" points="91,75.22,98,55.22,105,75.22,91,75.22" style="stroke:#A80036;stroke-width:1.0;"/><!--MD5=[26defdeb303705e83192eb3c0a558c64]
reverse link DltTraceLineBase to DltTraceLine--><path codeLine="7" d="M117.26,181.97 C123.51,192.58 131.16,203.42 140,212 C152.84,224.46 169.2,234.92 184.75,243.16 " fill="none" id="DltTraceLineBase-backto-DltTraceLine" style="stroke:#A80036;stroke-width:1.0;"/><polygon fill="none" points="111.04,185.18,107.82,164.23,123.4,178.6,111.04,185.18" style="stroke:#A80036;stroke-width:1.0;"/><!--MD5=[d00812b255de2b42a8cc845ecd452d22]
reverse link DltTraceLineBase to DltControlTraceLine--><path codeLine="8" d="M91.08,183.92 C87.95,203.3 84.38,225.43 81.76,241.67 " fill="none" id="DltTraceLineBase-backto-DltControlTraceLine" style="stroke:#A80036;stroke-width:1.0;"/><polygon fill="none" points="84.19,182.66,94.29,164.03,98.01,184.89,84.19,182.66" style="stroke:#A80036;stroke-width:1.0;"/><!--MD5=[061f5888eb273558a6eb151d86b71ac7]
reverse link DltTraceLine to DltSkippedTraceLine--><path codeLine="14" d="M259.06,308.13 C267.18,322.6 276.01,338.36 283.01,350.83 " fill="none" id="DltTraceLine-backto-DltSkippedTraceLine" style="stroke:#A80036;stroke-width:1.0;"/><polygon fill="none" points="252.7,311.09,249.02,290.22,264.91,304.24,252.7,311.09" style="stroke:#A80036;stroke-width:1.0;"/><!--MD5=[83a2f53655fed4b266f5d8582cea2bbe]
reverse link IDltLineBuilder to DltLineBuilder--><path codeLine="16" d="M275,75.58 C275,89.36 275,104.06 275,115.83 " fill="none" id="IDltLineBuilder-backto-DltLineBuilder" style="stroke:#A80036;stroke-width:1.0;stroke-dasharray:7.0,7.0;"/><polygon fill="none" points="268,75.22,275,55.22,282,75.22,268,75.22" style="stroke:#A80036;stroke-width:1.0;"/><!--MD5=[dc620f6c4e3ea2f40afde026fa7916b3]
link DltLineBuilder to DltTraceLine--><path codeLine="17" d="M267.76,164.03 C261.28,184.61 251.78,214.81 244.86,236.82 " fill="none" id="DltLineBuilder-to-DltTraceLine" style="stroke:#A80036;stroke-width:1.0;"/><polygon fill="#A80036" points="243.34,241.67,249.8751,234.3016,244.8525,236.9042,242.2499,231.8817,243.34,241.67" style="stroke:#A80036;stroke-width:1.0;"/><text fill="#000000" font-family="sans-serif" font-size="13" lengthAdjust="spacing" textLength="57" x="259" y="208.4951">«creates»</text><!--MD5=[df0860db76654a639348a6ab9920cf98]
link DltLineBuilder to DltControlTraceLine--><path codeLine="18" d="M235.83,164.19 C220.52,173.35 202.87,184.06 187,194 C163.59,208.67 137.67,225.52 116.99,239.13 " fill="none" id="DltLineBuilder-to-DltControlTraceLine" style="stroke:#A80036;stroke-width:1.0;"/><polygon fill="#A80036" points="112.65,241.98,122.3701,240.3928,116.8321,239.2395,117.9854,233.7015,112.65,241.98" style="stroke:#A80036;stroke-width:1.0;"/><text fill="#000000" font-family="sans-serif" font-size="13" lengthAdjust="spacing" textLength="57" x="188" y="208.4951">«creates»</text><!--MD5=[cfb161a9b6fd4d3c65bc10c0bce72315]
link DltLineBuilder to DltSkippedTraceLine--><path codeLine="19" d="M303.93,164 C312.36,172.44 320.52,182.71 325,194 C345.35,245.24 324.59,310.08 309.23,346.29 " fill="none" id="DltLineBuilder-to-DltSkippedTraceLine" style="stroke:#A80036;stroke-width:1.0;"/><polygon fill="#A80036" points="307.2,350.99,314.4469,344.3205,309.1868,346.4017,307.1057,341.1416,307.2,350.99" style="stroke:#A80036;stroke-width:1.0;"/><text fill="#000000" font-family="sans-serif" font-size="13" lengthAdjust="spacing" textLength="57" x="334" y="271.4951">«creates»</text><!--MD5=[1198f2ea0ad70e871c7674bc510b8b16]
@startuml DLT.TraceLine
interface ITraceLine
abstract class DltTraceLineBase
class DltTraceLine
class DltControlTraceLine

ITraceLine <|.. DltTraceLineBase
DltTraceLineBase <|- - DltTraceLine
DltTraceLineBase <|- - DltControlTraceLine

interface IDltLineBuilder
class DltLineBuilder

class DltSkippedTraceLine
DltTraceLine <|- - DltSkippedTraceLine

IDltLineBuilder <|.. DltLineBuilder
DltLineBuilder - -> DltTraceLine : <<creates>>
DltLineBuilder - -> DltControlTraceLine : <<creates>>
DltLineBuilder - -> DltSkippedTraceLine : <<creates>>
@enduml

PlantUML version 1.2021.16(Wed Dec 08 18:25:22 CET 2021)
(GPL source distribution)
Java Runtime: Java(TM) SE Runtime Environment
JVM: Java HotSpot(TM) 64-Bit Server VM
Default Encoding: Cp1252
Language: en
Country: GB
--></g></svg>