<?xml version="1.0" encoding="us-ascii" standalone="no"?><svg xmlns="http://www.w3.org/2000/svg" xmlns:xlink="http://www.w3.org/1999/xlink" contentStyleType="text/css" height="322px" preserveAspectRatio="none" style="width:1081px;height:322px;background:#FFFFFF;" version="1.1" viewBox="0 0 1081 322" width="1081px" zoomAndPan="magnify"><defs/><g><!--class DltTraceWriterFactory--><g id="elem_DltTraceWriterFactory"><rect codeLine="1" fill="#F1F1F1" height="80.5938" id="DltTraceWriterFactory" rx="2.5" ry="2.5" style="stroke:#181818;stroke-width:0.5;" width="523" x="7" y="10"/><ellipse cx="116.25" cy="26" fill="#ADD1B2" rx="11" ry="11" style="stroke:#181818;stroke-width:1.0;"/><path d="M119.2188,31.6406 Q118.6406,31.9375 118,32.0781 Q117.3594,32.2344 116.6563,32.2344 Q114.1563,32.2344 112.8281,30.5938 Q111.5156,28.9375 111.5156,25.8125 Q111.5156,22.6875 112.8281,21.0313 Q114.1563,19.375 116.6563,19.375 Q117.3594,19.375 118,19.5313 Q118.6563,19.6875 119.2188,19.9844 L119.2188,22.7031 Q118.5938,22.125 118,21.8594 Q117.4063,21.5781 116.7813,21.5781 Q115.4375,21.5781 114.75,22.6563 Q114.0625,23.7188 114.0625,25.8125 Q114.0625,27.9063 114.75,28.9844 Q115.4375,30.0469 116.7813,30.0469 Q117.4063,30.0469 118,29.7813 Q118.5938,29.5 119.2188,28.9219 L119.2188,31.6406 Z " fill="#000000"/><text fill="#000000" font-family="sans-serif" font-size="14" lengthAdjust="spacing" textLength="148" x="136.75" y="30.8467">DltTraceWriterFactory</text><rect fill="#FFFFFF" height="15.9688" style="stroke:#181818;stroke-width:1.0;stroke-dasharray:2.0,2.0;" width="146" x="387" y="7"/><text fill="#000000" font-family="sans-serif" font-size="12" font-style="italic" lengthAdjust="spacing" textLength="144" x="388" y="19.1387">TLine:DltTraceLineBase</text><line style="stroke:#181818;stroke-width:0.5;" x1="8" x2="529" y1="42" y2="42"/><line style="stroke:#181818;stroke-width:0.5;" x1="8" x2="529" y1="50" y2="50"/><ellipse cx="18" cy="63.6484" fill="#84BE84" rx="3" ry="3" style="stroke:#038048;stroke-width:1.0;"/><text fill="#000000" font-family="sans-serif" font-size="14" lengthAdjust="spacing" textLength="496" x="27" y="66.9951">CreateAsync(stream: Stream): Task&lt;ITraceWriter&lt;DltTraceLineBase&gt;&gt;</text><ellipse cx="18" cy="79.9453" fill="#84BE84" rx="3" ry="3" style="stroke:#038048;stroke-width:1.0;"/><text fill="#000000" font-family="sans-serif" font-size="14" lengthAdjust="spacing" textLength="497" x="27" y="83.292">CreateAsync(fileName: string): Task&lt;ITraceWriter&lt;DltTraceLineBase&gt;&gt;</text></g><!--class DltTraceEncoder--><g id="elem_DltTraceEncoder"><rect codeLine="6" fill="#F1F1F1" height="64.2969" id="DltTraceEncoder" rx="2.5" ry="2.5" style="stroke:#181818;stroke-width:0.5;" width="483" x="587" y="18.15"/><ellipse cx="692.25" cy="34.15" fill="#ADD1B2" rx="11" ry="11" style="stroke:#181818;stroke-width:1.0;"/><path d="M695.2188,39.7906 Q694.6406,40.0875 694,40.2281 Q693.3594,40.3844 692.6563,40.3844 Q690.1563,40.3844 688.8281,38.7438 Q687.5156,37.0875 687.5156,33.9625 Q687.5156,30.8375 688.8281,29.1813 Q690.1563,27.525 692.6563,27.525 Q693.3594,27.525 694,27.6813 Q694.6563,27.8375 695.2188,28.1344 L695.2188,30.8531 Q694.5938,30.275 694,30.0094 Q693.4063,29.7281 692.7813,29.7281 Q691.4375,29.7281 690.75,30.8063 Q690.0625,31.8688 690.0625,33.9625 Q690.0625,36.0563 690.75,37.1344 Q691.4375,38.1969 692.7813,38.1969 Q693.4063,38.1969 694,37.9313 Q694.5938,37.65 695.2188,37.0719 L695.2188,39.7906 Z " fill="#000000"/><text fill="#000000" font-family="sans-serif" font-size="14" lengthAdjust="spacing" textLength="116" x="712.75" y="38.9967">DltTraceEncoder</text><rect fill="#FFFFFF" height="15.9688" style="stroke:#181818;stroke-width:1.0;stroke-dasharray:2.0,2.0;" width="146" x="927" y="15.15"/><text fill="#000000" font-family="sans-serif" font-size="12" font-style="italic" lengthAdjust="spacing" textLength="144" x="928" y="27.2887">TLine:DltTraceLineBase</text><line style="stroke:#181818;stroke-width:0.5;" x1="588" x2="1069" y1="50.15" y2="50.15"/><line style="stroke:#181818;stroke-width:0.5;" x1="588" x2="1069" y1="58.15" y2="58.15"/><ellipse cx="598" cy="71.7984" fill="#84BE84" rx="3" ry="3" style="stroke:#038048;stroke-width:1.0;"/><text fill="#000000" font-family="sans-serif" font-size="14" lengthAdjust="spacing" textLength="457" x="607" y="75.1451">Encode(buffer: Span&lt;byte&gt;, line: DltTraceLineBase): Result&lt;int&gt;</text></g><!--class DltFileTraceWriterFactory--><g id="elem_DltFileTraceWriterFactory"><rect codeLine="10" fill="#F1F1F1" height="48" id="DltFileTraceWriterFactory" rx="2.5" ry="2.5" style="stroke:#181818;stroke-width:0.5;" width="203" x="102" y="151.59"/><ellipse cx="117" cy="167.59" fill="#ADD1B2" rx="11" ry="11" style="stroke:#181818;stroke-width:1.0;"/><path d="M119.9688,173.2306 Q119.3906,173.5275 118.75,173.6681 Q118.1094,173.8244 117.4063,173.8244 Q114.9063,173.8244 113.5781,172.1838 Q112.2656,170.5275 112.2656,167.4025 Q112.2656,164.2775 113.5781,162.6213 Q114.9063,160.965 117.4063,160.965 Q118.1094,160.965 118.75,161.1213 Q119.4063,161.2775 119.9688,161.5744 L119.9688,164.2931 Q119.3438,163.715 118.75,163.4494 Q118.1563,163.1681 117.5313,163.1681 Q116.1875,163.1681 115.5,164.2463 Q114.8125,165.3088 114.8125,167.4025 Q114.8125,169.4963 115.5,170.5744 Q116.1875,171.6369 117.5313,171.6369 Q118.1563,171.6369 118.75,171.3713 Q119.3438,171.09 119.9688,170.5119 L119.9688,173.2306 Z " fill="#000000"/><text fill="#000000" font-family="sans-serif" font-size="14" lengthAdjust="spacing" textLength="171" x="131" y="172.4367">DltFileTraceWriterFactory</text><line style="stroke:#181818;stroke-width:0.5;" x1="103" x2="304" y1="183.59" y2="183.59"/><line style="stroke:#181818;stroke-width:0.5;" x1="103" x2="304" y1="191.59" y2="191.59"/></g><g id="elem_GMN5"><path d="M90,260.59 L90,315.9884 A0,0 0 0 0 90,315.9884 L317,315.9884 A0,0 0 0 0 317,315.9884 L317,270.59 L307,260.59 L207.5,260.59 L203.5,200.07 L199.5,260.59 L90,260.59 A0,0 0 0 0 90,260.59 " fill="#FEFFDD" style="stroke:#181818;stroke-width:0.5;"/><path d="M307,260.59 L307,270.59 L317,270.59 L307,260.59 " fill="#FEFFDD" style="stroke:#181818;stroke-width:0.5;"/><text fill="#000000" font-family="sans-serif" font-size="13" lengthAdjust="spacing" textLength="201" x="96" y="277.6569">Gives DltTraceWriterFactory the</text><text fill="#000000" font-family="sans-serif" font-size="13" lengthAdjust="spacing" textLength="206" x="96" y="292.7897">DltFileTraceEncoderFactory. This</text><text fill="#000000" font-family="sans-serif" font-size="13" lengthAdjust="spacing" textLength="148" x="96" y="307.9225">is just a very thin class.</text></g><!--class DltFileTraceEncoderFactory--><g id="elem_DltFileTraceEncoderFactory"><rect codeLine="18" fill="#F1F1F1" height="48" id="DltFileTraceEncoderFactory" rx="2.5" ry="2.5" style="stroke:#181818;stroke-width:0.5;" width="221" x="422" y="151.59"/><ellipse cx="437" cy="167.59" fill="#ADD1B2" rx="11" ry="11" style="stroke:#181818;stroke-width:1.0;"/><path d="M439.9688,173.2306 Q439.3906,173.5275 438.75,173.6681 Q438.1094,173.8244 437.4063,173.8244 Q434.9063,173.8244 433.5781,172.1838 Q432.2656,170.5275 432.2656,167.4025 Q432.2656,164.2775 433.5781,162.6213 Q434.9063,160.965 437.4063,160.965 Q438.1094,160.965 438.75,161.1213 Q439.4063,161.2775 439.9688,161.5744 L439.9688,164.2931 Q439.3438,163.715 438.75,163.4494 Q438.1563,163.1681 437.5313,163.1681 Q436.1875,163.1681 435.5,164.2463 Q434.8125,165.3088 434.8125,167.4025 Q434.8125,169.4963 435.5,170.5744 Q436.1875,171.6369 437.5313,171.6369 Q438.1563,171.6369 438.75,171.3713 Q439.3438,171.09 439.9688,170.5119 L439.9688,173.2306 Z " fill="#000000"/><text fill="#000000" font-family="sans-serif" font-size="14" lengthAdjust="spacing" textLength="189" x="451" y="172.4367">DltFileTraceEncoderFactory</text><line style="stroke:#181818;stroke-width:0.5;" x1="423" x2="642" y1="183.59" y2="183.59"/><line style="stroke:#181818;stroke-width:0.5;" x1="423" x2="642" y1="191.59" y2="191.59"/></g><g id="elem_GMN10"><path d="M428.5,268.16 L428.5,308.4256 A0,0 0 0 0 428.5,308.4256 L636.5,308.4256 A0,0 0 0 0 636.5,308.4256 L636.5,278.16 L626.5,268.16 L536.5,268.16 L532.5,200.07 L528.5,268.16 L428.5,268.16 A0,0 0 0 0 428.5,268.16 " fill="#FEFFDD" style="stroke:#181818;stroke-width:0.5;"/><path d="M626.5,268.16 L626.5,278.16 L636.5,278.16 L626.5,268.16 " fill="#FEFFDD" style="stroke:#181818;stroke-width:0.5;"/><text fill="#000000" font-family="sans-serif" font-size="13" lengthAdjust="spacing" textLength="187" x="434.5" y="285.2269">Just knows only how to create</text><text fill="#000000" font-family="sans-serif" font-size="13" lengthAdjust="spacing" textLength="151" x="434.5" y="300.3597">the DltFileTraceEncoder</text></g><!--class DltFileTraceEncoder--><g id="elem_DltFileTraceEncoder"><rect codeLine="26" fill="#F1F1F1" height="48" id="DltFileTraceEncoder" rx="2.5" ry="2.5" style="stroke:#181818;stroke-width:0.5;" width="171" x="743" y="151.59"/><ellipse cx="758" cy="167.59" fill="#ADD1B2" rx="11" ry="11" style="stroke:#181818;stroke-width:1.0;"/><path d="M760.9688,173.2306 Q760.3906,173.5275 759.75,173.6681 Q759.1094,173.8244 758.4063,173.8244 Q755.9063,173.8244 754.5781,172.1838 Q753.2656,170.5275 753.2656,167.4025 Q753.2656,164.2775 754.5781,162.6213 Q755.9063,160.965 758.4063,160.965 Q759.1094,160.965 759.75,161.1213 Q760.4063,161.2775 760.9688,161.5744 L760.9688,164.2931 Q760.3438,163.715 759.75,163.4494 Q759.1563,163.1681 758.5313,163.1681 Q757.1875,163.1681 756.5,164.2463 Q755.8125,165.3088 755.8125,167.4025 Q755.8125,169.4963 756.5,170.5744 Q757.1875,171.6369 758.5313,171.6369 Q759.1563,171.6369 759.75,171.3713 Q760.3438,171.09 760.9688,170.5119 L760.9688,173.2306 Z " fill="#000000"/><text fill="#000000" font-family="sans-serif" font-size="14" lengthAdjust="spacing" textLength="139" x="772" y="172.4367">DltFileTraceEncoder</text><line style="stroke:#181818;stroke-width:0.5;" x1="744" x2="913" y1="183.59" y2="183.59"/><line style="stroke:#181818;stroke-width:0.5;" x1="744" x2="913" y1="191.59" y2="191.59"/></g><g id="elem_GMN16"><path d="M710.5,260.59 L710.5,315.9884 A0,0 0 0 0 710.5,315.9884 L946.5,315.9884 A0,0 0 0 0 946.5,315.9884 L946.5,270.59 L936.5,260.59 L832.5,260.59 L828.5,200.07 L824.5,260.59 L710.5,260.59 A0,0 0 0 0 710.5,260.59 " fill="#FEFFDD" style="stroke:#181818;stroke-width:0.5;"/><path d="M936.5,260.59 L936.5,270.59 L946.5,270.59 L936.5,260.59 " fill="#FEFFDD" style="stroke:#181818;stroke-width:0.5;"/><text fill="#000000" font-family="sans-serif" font-size="13" lengthAdjust="spacing" textLength="215" x="716.5" y="277.6569">Knows how to encode the storage</text><text fill="#000000" font-family="sans-serif" font-size="13" lengthAdjust="spacing" textLength="192" x="716.5" y="292.7897">header, and leaves the rest of</text><text fill="#000000" font-family="sans-serif" font-size="13" lengthAdjust="spacing" textLength="209" x="716.5" y="307.9225">the encoding to DltTraceEncoder</text></g><!--reverse link DltTraceWriterFactory to DltFileTraceWriterFactory--><g id="link_DltTraceWriterFactory_DltFileTraceWriterFactory"><path codeLine="16" d="M237.9,109.33 C230.1,124.14 222.15,139.22 215.86,151.15 " fill="none" id="DltTraceWriterFactory-backto-DltFileTraceWriterFactory" style="stroke:#181818;stroke-width:1.0;"/><polygon fill="none" points="232.06,106.41,247.58,91.99,244.44,112.94,232.06,106.41" style="stroke:#181818;stroke-width:1.0;"/></g><!--link DltFileTraceWriterFactory to DltFileTraceEncoderFactory--><g id="link_DltFileTraceWriterFactory_DltFileTraceEncoderFactory"><path codeLine="23" d="M305.34,175.59 C340.37,175.59 379.84,175.59 415.94,175.59 " fill="none" id="DltFileTraceWriterFactory-to-DltFileTraceEncoderFactory" style="stroke:#181818;stroke-width:1.0;"/><polygon fill="#181818" points="420.7,175.59,411.7,171.59,415.7,175.59,411.7,179.59,420.7,175.59" style="stroke:#181818;stroke-width:1.0;"/><text fill="#000000" font-family="sans-serif" font-size="13" lengthAdjust="spacing" textLength="81" x="323" y="168.6569">&lt;&lt;creates&gt;</text></g><!--reverse link DltTraceWriterFactory to DltFileTraceEncoderFactory--><g id="link_DltTraceWriterFactory_DltFileTraceEncoderFactory"><path codeLine="24" d="M366.13,96.89 C405.62,115.34 449.53,135.84 482.31,151.15 " fill="none" id="DltTraceWriterFactory-backto-DltFileTraceEncoderFactory" style="stroke:#181818;stroke-width:1.0;"/><polygon fill="none" points="354.48,90.99,358.2256,97.152,365.3542,96.0646,361.6086,89.9026,354.48,90.99" style="stroke:#181818;stroke-width:1.0;"/></g><!--link DltFileTraceEncoderFactory to DltFileTraceEncoder--><g id="link_DltFileTraceEncoderFactory_DltFileTraceEncoder"><path codeLine="33" d="M643.14,175.59 C674.08,175.59 707.36,175.59 737.06,175.59 " fill="none" id="DltFileTraceEncoderFactory-to-DltFileTraceEncoder" style="stroke:#181818;stroke-width:1.0;"/><polygon fill="#181818" points="741.95,175.59,732.95,171.59,736.95,175.59,732.95,179.59,741.95,175.59" style="stroke:#181818;stroke-width:1.0;"/><text fill="#000000" font-family="sans-serif" font-size="13" lengthAdjust="spacing" textLength="64" x="661" y="168.6569">&#171;creates&#187;</text></g><!--reverse link DltTraceEncoder to DltFileTraceEncoder--><g id="link_DltTraceEncoder_DltFileTraceEncoder"><path codeLine="34" d="M828.5,103.67 C828.5,120.32 828.5,137.9 828.5,151.39 " fill="none" id="DltTraceEncoder-backto-DltFileTraceEncoder" style="stroke:#181818;stroke-width:1.0;"/><polygon fill="none" points="821.5,103.73,828.5,83.73,835.5,103.73,821.5,103.73" style="stroke:#181818;stroke-width:1.0;"/></g><!--SRC=[ZPBBJiCm44Nt_efP5j7q0o8h4eyMyH0BYCJQTIUDgMiZssqL0V-ExQQqUHMoYIBVkNFFTRXariAjTBbX7D-CS6XcZ3jjAfe_2ONfuInyN3EB6NmIyC_bZK7cyCfMYe-iyn_h55xZ-oA5dDaLlJynfHsVh6jJ28dFR8qfU4EXblyr-YQ4Dq2cYkk5r_w1i9UDvfkYGEFJVp15vvN3R0mo349xqWTwGRkHZWhbcdjdFdktHAAqGvXhv_GwxhmJMnme75o9KNFgLfFKaWdafR1H92oyRwm31bkCiq9133CXg1OGzfB-DVGhMIHd8lSmDLDqe1v2a9NIEmjQoGfAlGEdWSUhZGgFrcVOYDeV1nAJP6V2G0gKxZVPR81Oju5RFCF47TJ7I5a3OXH5EEkDs78FMoBpesDW7auY2nSU90PzIxhuxIDE-xyyEBL-t6Clv0pvK3EDIewT74wxzr-V_000]--></g></svg>