<?xml version="1.0" encoding="UTF-8" standalone="no"?><svg xmlns="http://www.w3.org/2000/svg" xmlns:xlink="http://www.w3.org/1999/xlink" contentScriptType="application/ecmascript" contentStyleType="text/css" height="630px" preserveAspectRatio="none" style="width:992px;height:630px;background:#FFFFFF;" version="1.1" viewBox="0 0 992 630" width="992px" zoomAndPan="magnify"><defs><filter height="300%" id="fltfn31t0strj" width="300%" x="-1" y="-1"><feGaussianBlur result="blurOut" stdDeviation="2.0"/><feColorMatrix in="blurOut" result="blurOut2" type="matrix" values="0 0 0 0 0 0 0 0 0 0 0 0 0 0 0 0 0 0 .4 0"/><feOffset dx="4.0" dy="4.0" in="blurOut2" result="blurOut3"/><feBlend in="SourceGraphic" in2="blurOut3" mode="normal"/></filter></defs><g><!--MD5=[684d20bac0edec56e0afdb1190bcbf55]
class ITraceReader--><rect codeLine="3" fill="#FEFECE" filter="url(#fltfn31t0strj)" height="53.8359" id="ITraceReader" style="stroke:#A80036;stroke-width:1.5;" width="187" x="349" y="153"/><ellipse cx="364" cy="169" fill="#B4A7E5" rx="11" ry="11" style="stroke:#A80036;stroke-width:1.0;"/><path d="M364.9531,165.6406 L364.9531,172.2969 L366.6719,172.2969 Q367.2813,172.2969 367.5469,172.5313 Q367.8125,172.7656 367.8125,173.1563 Q367.8125,173.5313 367.5469,173.7656 Q367.2813,174 366.6719,174 L361.5313,174 Q360.9219,174 360.6563,173.7656 Q360.3906,173.5313 360.3906,173.1406 Q360.3906,172.7656 360.6563,172.5313 Q360.9219,172.2969 361.5313,172.2969 L363.25,172.2969 L363.25,165.6406 L361.5313,165.6406 Q360.9219,165.6406 360.6563,165.4063 Q360.3906,165.1719 360.3906,164.7813 Q360.3906,164.4063 360.6563,164.1719 Q360.9219,163.9375 361.5313,163.9375 L366.6719,163.9375 Q367.2813,163.9375 367.5469,164.1719 Q367.8125,164.4063 367.8125,164.7813 Q367.8125,165.1719 367.5469,165.4063 Q367.2813,165.6406 366.6719,165.6406 L364.9531,165.6406 Z " fill="#000000"/><text fill="#000000" font-family="sans-serif" font-size="12" font-style="italic" lengthAdjust="spacing" textLength="76" x="378" y="173.9102">ITraceReader</text><rect fill="#FFFFFF" height="17.0938" style="stroke:#000000;stroke-width:1.0;stroke-dasharray:2.0,2.0;" width="77" x="462" y="150"/><text fill="#000000" font-family="sans-serif" font-size="12" font-style="italic" lengthAdjust="spacing" textLength="75" x="463" y="163.457">T : ITraceLine</text><line style="stroke:#A80036;stroke-width:1.5;" x1="350" x2="535" y1="185" y2="185"/><text fill="#000000" font-family="sans-serif" font-size="11" lengthAdjust="spacing" textLength="92" x="355" y="200.4189">GetLineAsync() : T</text><!--MD5=[9c1ec34ffd665f2ab66be7570fe1ffdc]
class TraceReader--><rect codeLine="7" fill="#FEFECE" filter="url(#fltfn31t0strj)" height="75.6719" id="TraceReader" style="stroke:#A80036;stroke-width:1.5;" width="297" x="294" y="315"/><ellipse cx="362.75" cy="331" fill="#ADD1B2" rx="11" ry="11" style="stroke:#A80036;stroke-width:1.0;"/><path d="M365.5156,326.875 Q365.6719,326.6563 365.8594,326.5469 Q366.0469,326.4375 366.2656,326.4375 Q366.6406,326.4375 366.875,326.6953 Q367.1094,326.9531 367.1094,327.5625 L367.1094,329.0156 Q367.1094,329.625 366.875,329.8906 Q366.6406,330.1563 366.2656,330.1563 Q365.9219,330.1563 365.7188,329.9531 Q365.5156,329.7656 365.4063,329.25 Q365.3594,328.8906 365.1719,328.7031 Q364.8438,328.3281 364.2344,328.1094 Q363.625,327.8906 363,327.8906 Q362.2344,327.8906 361.6016,328.2188 Q360.9688,328.5469 360.4766,329.2969 Q359.9844,330.0469 359.9844,331.0781 L359.9844,332.1719 Q359.9844,333.4063 360.875,334.2266 Q361.7656,335.0469 363.3594,335.0469 Q364.2969,335.0469 364.9531,334.7969 Q365.3438,334.6406 365.7656,334.2031 Q366.0313,333.9375 366.1797,333.8594 Q366.3281,333.7813 366.5313,333.7813 Q366.8594,333.7813 367.1172,334.0391 Q367.375,334.2969 367.375,334.6406 Q367.375,334.9844 367.0313,335.3906 Q366.5313,335.9688 365.7344,336.2969 Q364.6563,336.75 363.3594,336.75 Q361.8438,336.75 360.6406,336.125 Q359.6563,335.625 358.9688,334.5547 Q358.2813,333.4844 358.2813,332.2031 L358.2813,331.0469 Q358.2813,329.7188 358.8984,328.5703 Q359.5156,327.4219 360.6094,326.8047 Q361.7031,326.1875 362.9375,326.1875 Q363.6719,326.1875 364.3203,326.3516 Q364.9688,326.5156 365.5156,326.875 Z " fill="#000000"/><text fill="#000000" font-family="sans-serif" font-size="12" lengthAdjust="spacing" textLength="72" x="383.25" y="335.9102">TraceReader</text><rect fill="#FFFFFF" height="17.0938" style="stroke:#000000;stroke-width:1.0;stroke-dasharray:2.0,2.0;" width="77" x="517" y="312"/><text fill="#000000" font-family="sans-serif" font-size="12" font-style="italic" lengthAdjust="spacing" textLength="75" x="518" y="325.457">T : ITraceLine</text><line style="stroke:#A80036;stroke-width:1.5;" x1="295" x2="590" y1="347" y2="347"/><text fill="#000000" font-family="sans-serif" font-size="11" lengthAdjust="spacing" textLength="285" x="300" y="362.4189">TraceReader(stream: Stream, decoder: ITraceDecoder&lt;T&gt;)</text><line style="stroke:#A80036;stroke-width:1.0;stroke-dasharray:1.0,2.0;" x1="295" x2="590" y1="368.8359" y2="368.8359"/><text fill="#000000" font-family="sans-serif" font-size="11" lengthAdjust="spacing" textLength="92" x="300" y="384.2549">GetLineAsync() : T</text><!--MD5=[a6fb610bc0c1ad93080ac34ca45d146b]
class ITraceReaderFactory--><rect codeLine="13" fill="#FEFECE" filter="url(#fltfn31t0strj)" height="67.6719" id="ITraceReaderFactory" style="stroke:#A80036;stroke-width:1.5;" width="250" x="53.5" y="10"/><ellipse cx="78.85" cy="26" fill="#B4A7E5" rx="11" ry="11" style="stroke:#A80036;stroke-width:1.0;"/><path d="M79.8031,22.6406 L79.8031,29.2969 L81.5219,29.2969 Q82.1313,29.2969 82.3969,29.5313 Q82.6625,29.7656 82.6625,30.1563 Q82.6625,30.5313 82.3969,30.7656 Q82.1313,31 81.5219,31 L76.3813,31 Q75.7719,31 75.5063,30.7656 Q75.2406,30.5313 75.2406,30.1406 Q75.2406,29.7656 75.5063,29.5313 Q75.7719,29.2969 76.3813,29.2969 L78.1,29.2969 L78.1,22.6406 L76.3813,22.6406 Q75.7719,22.6406 75.5063,22.4063 Q75.2406,22.1719 75.2406,21.7813 Q75.2406,21.4063 75.5063,21.1719 Q75.7719,20.9375 76.3813,20.9375 L81.5219,20.9375 Q82.1313,20.9375 82.3969,21.1719 Q82.6625,21.4063 82.6625,21.7813 Q82.6625,22.1719 82.3969,22.4063 Q82.1313,22.6406 81.5219,22.6406 L79.8031,22.6406 Z " fill="#000000"/><text fill="#000000" font-family="sans-serif" font-size="12" font-style="italic" lengthAdjust="spacing" textLength="116" x="95.15" y="30.9102">ITraceReaderFactory</text><rect fill="#FFFFFF" height="17.0938" style="stroke:#000000;stroke-width:1.0;stroke-dasharray:2.0,2.0;" width="77" x="229.5" y="7"/><text fill="#000000" font-family="sans-serif" font-size="12" font-style="italic" lengthAdjust="spacing" textLength="75" x="230.5" y="20.457">T : ITraceLine</text><line style="stroke:#A80036;stroke-width:1.5;" x1="54.5" x2="302.5" y1="42" y2="42"/><text fill="#000000" font-family="sans-serif" font-size="11" lengthAdjust="spacing" textLength="237" x="59.5" y="57.4189">CreateAsync(stream: Stream) : ITraceReader&lt;T&gt;</text><text fill="#000000" font-family="sans-serif" font-size="11" lengthAdjust="spacing" textLength="238" x="59.5" y="71.2549">CreateAsync(fileName: string) : ITraceReader&lt;T&gt;</text><!--MD5=[f4288dffdb2ee17e8277a82c8664138f]
class TraceReaderFactory--><rect codeLine="18" fill="#FEFECE" filter="url(#fltfn31t0strj)" height="81.5078" id="TraceReaderFactory" style="stroke:#A80036;stroke-width:1.5;" width="231" x="63" y="139"/><ellipse cx="81.6" cy="155" fill="#A9DCDF" rx="11" ry="11" style="stroke:#A80036;stroke-width:1.0;"/><path d="M83.7875,156.7656 L79.6469,156.7656 L79.225,157.7969 L79.6469,157.7969 Q80.2563,157.7969 80.5219,158.0313 Q80.7875,158.2656 80.7875,158.6563 Q80.7875,159.0313 80.5219,159.2656 Q80.2563,159.5 79.6469,159.5 L77.35,159.5 Q76.7406,159.5 76.4828,159.2656 Q76.225,159.0313 76.225,158.6406 Q76.225,158.2656 76.4984,158.0234 Q76.7719,157.7813 77.3969,157.7969 L80.0688,151.1406 L78.9594,151.1406 Q78.35,151.1406 78.0844,150.9063 Q77.8188,150.6719 77.8188,150.2813 Q77.8188,149.9063 78.0844,149.6719 Q78.35,149.4375 78.9594,149.4375 L82.6313,149.4375 L86.0219,157.7969 Q86.6156,157.7969 86.8031,157.9375 Q87.1938,158.2031 87.1938,158.6563 Q87.1938,159.0313 86.9359,159.2656 Q86.6781,159.5 86.0688,159.5 L83.7719,159.5 Q83.1625,159.5 82.8969,159.2656 Q82.6313,159.0313 82.6313,158.6406 Q82.6313,158.2656 82.8969,158.0313 Q83.1625,157.7969 83.7719,157.7969 L84.1938,157.7969 L83.7875,156.7656 Z M83.0688,155.0625 L81.7094,151.6875 L80.3344,155.0625 L83.0688,155.0625 Z " fill="#000000"/><text fill="#000000" font-family="sans-serif" font-size="12" font-style="italic" lengthAdjust="spacing" textLength="112" x="96.4" y="159.9102">TraceReaderFactory</text><rect fill="#FFFFFF" height="17.0938" style="stroke:#000000;stroke-width:1.0;stroke-dasharray:2.0,2.0;" width="77" x="220" y="136"/><text fill="#000000" font-family="sans-serif" font-size="12" font-style="italic" lengthAdjust="spacing" textLength="75" x="221" y="149.457">T : ITraceLine</text><line style="stroke:#A80036;stroke-width:1.5;" x1="64" x2="293" y1="171" y2="171"/><ellipse cx="74" cy="182" fill="#84BE84" rx="3" ry="3" style="stroke:#038048;stroke-width:1.0;"/><text fill="#000000" font-family="sans-serif" font-size="11" lengthAdjust="spacing" textLength="197" x="83" y="186.4189">CreateAsync(stream) : ITraceReader&lt;T&gt;</text><ellipse cx="74" cy="195.8359" fill="#84BE84" rx="3" ry="3" style="stroke:#038048;stroke-width:1.0;"/><text fill="#000000" font-family="sans-serif" font-size="11" lengthAdjust="spacing" textLength="205" x="83" y="200.2549">CreateAsync(fileName) : ITraceReader&lt;T&gt;</text><polygon fill="#FFFF44" points="74,204.6719,78,208.6719,74,212.6719,70,208.6719" style="stroke:#B38D22;stroke-width:1.0;"/><text fill="#000000" font-family="sans-serif" font-size="11" lengthAdjust="spacing" textLength="164" x="83" y="214.0908">GetDecoder() : ITraceDecoder&lt;T&gt;</text><!--MD5=[17ad13915665cf8f3fec41c9fe5dcee4]
class MyTraceReaderFactory--><rect codeLine="24" fill="#FEFECE" filter="url(#fltfn31t0strj)" height="53.8359" id="MyTraceReaderFactory" style="stroke:#A80036;stroke-width:1.5;" width="246" x="12.5" y="326"/><ellipse cx="68.75" cy="342" fill="#ADD1B2" rx="11" ry="11" style="stroke:#A80036;stroke-width:1.0;"/><path d="M71.5156,337.875 Q71.6719,337.6563 71.8594,337.5469 Q72.0469,337.4375 72.2656,337.4375 Q72.6406,337.4375 72.875,337.6953 Q73.1094,337.9531 73.1094,338.5625 L73.1094,340.0156 Q73.1094,340.625 72.875,340.8906 Q72.6406,341.1563 72.2656,341.1563 Q71.9219,341.1563 71.7188,340.9531 Q71.5156,340.7656 71.4063,340.25 Q71.3594,339.8906 71.1719,339.7031 Q70.8438,339.3281 70.2344,339.1094 Q69.625,338.8906 69,338.8906 Q68.2344,338.8906 67.6016,339.2188 Q66.9688,339.5469 66.4766,340.2969 Q65.9844,341.0469 65.9844,342.0781 L65.9844,343.1719 Q65.9844,344.4063 66.875,345.2266 Q67.7656,346.0469 69.3594,346.0469 Q70.2969,346.0469 70.9531,345.7969 Q71.3438,345.6406 71.7656,345.2031 Q72.0313,344.9375 72.1797,344.8594 Q72.3281,344.7813 72.5313,344.7813 Q72.8594,344.7813 73.1172,345.0391 Q73.375,345.2969 73.375,345.6406 Q73.375,345.9844 73.0313,346.3906 Q72.5313,346.9688 71.7344,347.2969 Q70.6563,347.75 69.3594,347.75 Q67.8438,347.75 66.6406,347.125 Q65.6563,346.625 64.9688,345.5547 Q64.2813,344.4844 64.2813,343.2031 L64.2813,342.0469 Q64.2813,340.7188 64.8984,339.5703 Q65.5156,338.4219 66.6094,337.8047 Q67.7031,337.1875 68.9375,337.1875 Q69.6719,337.1875 70.3203,337.3516 Q70.9688,337.5156 71.5156,337.875 Z " fill="#000000"/><text fill="#000000" font-family="sans-serif" font-size="12" lengthAdjust="spacing" textLength="125" x="89.25" y="346.9102">MyTraceReaderFactory</text><line style="stroke:#A80036;stroke-width:1.5;" x1="13.5" x2="257.5" y1="358" y2="358"/><polygon fill="#FFFF44" points="23.5,364,27.5,368,23.5,372,19.5,368" style="stroke:#B38D22;stroke-width:1.0;"/><text fill="#000000" font-family="sans-serif" font-size="11" lengthAdjust="spacing" textLength="220" x="32.5" y="373.4189">GetDecoder() : ITraceDecoder&lt;MyTraceLine&gt;</text><path d="M6,474.5 L6,517.2031 A0,0 0 0 0 6,517.2031 L185,517.2031 A0,0 0 0 0 185,517.2031 L185,484.5 L175,474.5 L105.33,474.5 L128.07,380.19 L97.33,474.5 L6,474.5 A0,0 0 0 0 6,474.5 " fill="#FBFB77" filter="url(#fltfn31t0strj)" style="stroke:#A80036;stroke-width:1.0;"/><path d="M175,474.5 L175,484.5 L185,484.5 L175,474.5 " fill="#FBFB77" style="stroke:#A80036;stroke-width:1.0;"/><text fill="#000000" font-family="sans-serif" font-size="13" lengthAdjust="spacing" textLength="158" x="12" y="492.9951">User instantiates this class</text><text fill="#000000" font-family="sans-serif" font-size="13" lengthAdjust="spacing" textLength="55" x="12" y="509.3467">to get the</text><text fill="#000000" font-family="sans-serif" font-size="13" font-weight="bold" lengthAdjust="spacing" textLength="82" x="71" y="509.3467">TraceReader</text><text fill="#000000" font-family="sans-serif" font-size="13" lengthAdjust="spacing" textLength="4" x="153" y="509.3467">.</text><!--MD5=[4784c301fe13507917f315be539ce5d6]
class ITraceDecoder--><rect codeLine="32" fill="#FEFECE" filter="url(#fltfn31t0strj)" height="67.6719" id="ITraceDecoder" style="stroke:#A80036;stroke-width:1.5;" width="352" x="626.5" y="319"/><ellipse cx="717.75" cy="335" fill="#B4A7E5" rx="11" ry="11" style="stroke:#A80036;stroke-width:1.0;"/><path d="M718.7031,331.6406 L718.7031,338.2969 L720.4219,338.2969 Q721.0313,338.2969 721.2969,338.5313 Q721.5625,338.7656 721.5625,339.1563 Q721.5625,339.5313 721.2969,339.7656 Q721.0313,340 720.4219,340 L715.2813,340 Q714.6719,340 714.4063,339.7656 Q714.1406,339.5313 714.1406,339.1406 Q714.1406,338.7656 714.4063,338.5313 Q714.6719,338.2969 715.2813,338.2969 L717,338.2969 L717,331.6406 L715.2813,331.6406 Q714.6719,331.6406 714.4063,331.4063 Q714.1406,331.1719 714.1406,330.7813 Q714.1406,330.4063 714.4063,330.1719 Q714.6719,329.9375 715.2813,329.9375 L720.4219,329.9375 Q721.0313,329.9375 721.2969,330.1719 Q721.5625,330.4063 721.5625,330.7813 Q721.5625,331.1719 721.2969,331.4063 Q721.0313,331.6406 720.4219,331.6406 L718.7031,331.6406 Z " fill="#000000"/><text fill="#000000" font-family="sans-serif" font-size="12" font-style="italic" lengthAdjust="spacing" textLength="82" x="738.25" y="339.9102">ITraceDecoder</text><rect fill="#FFFFFF" height="17.0938" style="stroke:#000000;stroke-width:1.0;stroke-dasharray:2.0,2.0;" width="77" x="904.5" y="316"/><text fill="#000000" font-family="sans-serif" font-size="12" font-style="italic" lengthAdjust="spacing" textLength="75" x="905.5" y="329.457">T : ITraceLine</text><line style="stroke:#A80036;stroke-width:1.5;" x1="627.5" x2="977.5" y1="351" y2="351"/><text fill="#000000" font-family="sans-serif" font-size="11" lengthAdjust="spacing" textLength="340" x="632.5" y="366.4189">Decode(buffer: ReadOnlySpan&lt;byte&gt;, position: long) : IEnumerable&lt;T&gt;</text><text fill="#000000" font-family="sans-serif" font-size="11" lengthAdjust="spacing" textLength="119" x="632.5" y="380.2549">Flush() : IEnumerable&lt;T&gt;</text><!--MD5=[6f5b3af168009bdc1d98980b769d3111]
class MyTraceDecoder--><rect codeLine="37" fill="#FEFECE" filter="url(#fltfn31t0strj)" height="53.8359" id="MyTraceDecoder" style="stroke:#A80036;stroke-width:1.5;" width="271" x="346" y="469"/><ellipse cx="431.25" cy="485" fill="#ADD1B2" rx="11" ry="11" style="stroke:#A80036;stroke-width:1.0;"/><path d="M434.0156,480.875 Q434.1719,480.6563 434.3594,480.5469 Q434.5469,480.4375 434.7656,480.4375 Q435.1406,480.4375 435.375,480.6953 Q435.6094,480.9531 435.6094,481.5625 L435.6094,483.0156 Q435.6094,483.625 435.375,483.8906 Q435.1406,484.1563 434.7656,484.1563 Q434.4219,484.1563 434.2188,483.9531 Q434.0156,483.7656 433.9063,483.25 Q433.8594,482.8906 433.6719,482.7031 Q433.3438,482.3281 432.7344,482.1094 Q432.125,481.8906 431.5,481.8906 Q430.7344,481.8906 430.1016,482.2188 Q429.4688,482.5469 428.9766,483.2969 Q428.4844,484.0469 428.4844,485.0781 L428.4844,486.1719 Q428.4844,487.4063 429.375,488.2266 Q430.2656,489.0469 431.8594,489.0469 Q432.7969,489.0469 433.4531,488.7969 Q433.8438,488.6406 434.2656,488.2031 Q434.5313,487.9375 434.6797,487.8594 Q434.8281,487.7813 435.0313,487.7813 Q435.3594,487.7813 435.6172,488.0391 Q435.875,488.2969 435.875,488.6406 Q435.875,488.9844 435.5313,489.3906 Q435.0313,489.9688 434.2344,490.2969 Q433.1563,490.75 431.8594,490.75 Q430.3438,490.75 429.1406,490.125 Q428.1563,489.625 427.4688,488.5547 Q426.7813,487.4844 426.7813,486.2031 L426.7813,485.0469 Q426.7813,483.7188 427.3984,482.5703 Q428.0156,481.4219 429.1094,480.8047 Q430.2031,480.1875 431.4375,480.1875 Q432.1719,480.1875 432.8203,480.3516 Q433.4688,480.5156 434.0156,480.875 Z " fill="#000000"/><text fill="#000000" font-family="sans-serif" font-size="12" lengthAdjust="spacing" textLength="92" x="451.75" y="489.9102">MyTraceDecoder</text><line style="stroke:#A80036;stroke-width:1.5;" x1="347" x2="616" y1="501" y2="501"/><text fill="#000000" font-family="sans-serif" font-size="11" lengthAdjust="spacing" textLength="259" x="352" y="516.4189">Decode(buffer, position) : IEnumerable&lt;MyTraceLine&gt;</text><!--MD5=[612feb5ef88a529284c51dc6790674bf]
class MyTraceLine--><rect codeLine="42" fill="#FEFECE" filter="url(#fltfn31t0strj)" height="32" id="MyTraceLine" style="stroke:#A80036;stroke-width:1.5;" width="101" x="272" y="584"/><ellipse cx="287" cy="600" fill="#ADD1B2" rx="11" ry="11" style="stroke:#A80036;stroke-width:1.0;"/><path d="M289.7656,595.875 Q289.9219,595.6563 290.1094,595.5469 Q290.2969,595.4375 290.5156,595.4375 Q290.8906,595.4375 291.125,595.6953 Q291.3594,595.9531 291.3594,596.5625 L291.3594,598.0156 Q291.3594,598.625 291.125,598.8906 Q290.8906,599.1563 290.5156,599.1563 Q290.1719,599.1563 289.9688,598.9531 Q289.7656,598.7656 289.6563,598.25 Q289.6094,597.8906 289.4219,597.7031 Q289.0938,597.3281 288.4844,597.1094 Q287.875,596.8906 287.25,596.8906 Q286.4844,596.8906 285.8516,597.2188 Q285.2188,597.5469 284.7266,598.2969 Q284.2344,599.0469 284.2344,600.0781 L284.2344,601.1719 Q284.2344,602.4063 285.125,603.2266 Q286.0156,604.0469 287.6094,604.0469 Q288.5469,604.0469 289.2031,603.7969 Q289.5938,603.6406 290.0156,603.2031 Q290.2813,602.9375 290.4297,602.8594 Q290.5781,602.7813 290.7813,602.7813 Q291.1094,602.7813 291.3672,603.0391 Q291.625,603.2969 291.625,603.6406 Q291.625,603.9844 291.2813,604.3906 Q290.7813,604.9688 289.9844,605.2969 Q288.9063,605.75 287.6094,605.75 Q286.0938,605.75 284.8906,605.125 Q283.9063,604.625 283.2188,603.5547 Q282.5313,602.4844 282.5313,601.2031 L282.5313,600.0469 Q282.5313,598.7188 283.1484,597.5703 Q283.7656,596.4219 284.8594,595.8047 Q285.9531,595.1875 287.1875,595.1875 Q287.9219,595.1875 288.5703,595.3516 Q289.2188,595.5156 289.7656,595.875 Z " fill="#000000"/><text fill="#000000" font-family="sans-serif" font-size="12" lengthAdjust="spacing" textLength="69" x="301" y="604.9102">MyTraceLine</text><!--MD5=[ab3e052e36d2315fba9344c9ac98d0b6]
class MyTraceLine2--><rect codeLine="43" fill="#FEFECE" filter="url(#fltfn31t0strj)" height="32" id="MyTraceLine2" style="stroke:#A80036;stroke-width:1.5;" width="108" x="417.5" y="584"/><ellipse cx="432.5" cy="600" fill="#ADD1B2" rx="11" ry="11" style="stroke:#A80036;stroke-width:1.0;"/><path d="M435.2656,595.875 Q435.4219,595.6563 435.6094,595.5469 Q435.7969,595.4375 436.0156,595.4375 Q436.3906,595.4375 436.625,595.6953 Q436.8594,595.9531 436.8594,596.5625 L436.8594,598.0156 Q436.8594,598.625 436.625,598.8906 Q436.3906,599.1563 436.0156,599.1563 Q435.6719,599.1563 435.4688,598.9531 Q435.2656,598.7656 435.1563,598.25 Q435.1094,597.8906 434.9219,597.7031 Q434.5938,597.3281 433.9844,597.1094 Q433.375,596.8906 432.75,596.8906 Q431.9844,596.8906 431.3516,597.2188 Q430.7188,597.5469 430.2266,598.2969 Q429.7344,599.0469 429.7344,600.0781 L429.7344,601.1719 Q429.7344,602.4063 430.625,603.2266 Q431.5156,604.0469 433.1094,604.0469 Q434.0469,604.0469 434.7031,603.7969 Q435.0938,603.6406 435.5156,603.2031 Q435.7813,602.9375 435.9297,602.8594 Q436.0781,602.7813 436.2813,602.7813 Q436.6094,602.7813 436.8672,603.0391 Q437.125,603.2969 437.125,603.6406 Q437.125,603.9844 436.7813,604.3906 Q436.2813,604.9688 435.4844,605.2969 Q434.4063,605.75 433.1094,605.75 Q431.5938,605.75 430.3906,605.125 Q429.4063,604.625 428.7188,603.5547 Q428.0313,602.4844 428.0313,601.2031 L428.0313,600.0469 Q428.0313,598.7188 428.6484,597.5703 Q429.2656,596.4219 430.3594,595.8047 Q431.4531,595.1875 432.6875,595.1875 Q433.4219,595.1875 434.0703,595.3516 Q434.7188,595.5156 435.2656,595.875 Z " fill="#000000"/><text fill="#000000" font-family="sans-serif" font-size="12" lengthAdjust="spacing" textLength="76" x="446.5" y="604.9102">MyTraceLine2</text><ellipse cx="802.5" cy="180" fill="#FEFECE" filter="url(#fltfn31t0strj)" rx="5" ry="5" style="stroke:#A80036;stroke-width:1.5;"/><text fill="#000000" font-family="sans-serif" font-size="12" lengthAdjust="spacing" textLength="67" x="769" y="197.457">IDisposable</text><ellipse cx="442.5" cy="44" fill="#FEFECE" filter="url(#fltfn31t0strj)" rx="5" ry="5" style="stroke:#A80036;stroke-width:1.5;"/><text fill="#000000" font-family="sans-serif" font-size="12" lengthAdjust="spacing" textLength="67" x="409" y="61.457">IDisposable</text><!--MD5=[88ea6b0307e645c9893f60c417406741]
class ITraceLine--><rect fill="#FEFECE" filter="url(#fltfn31t0strj)" height="32" id="ITraceLine" style="stroke:#A80036;stroke-width:1.5;" width="90" x="220.5" y="480"/><ellipse cx="235.5" cy="496" fill="#ADD1B2" rx="11" ry="11" style="stroke:#A80036;stroke-width:1.0;"/><path d="M238.2656,491.875 Q238.4219,491.6563 238.6094,491.5469 Q238.7969,491.4375 239.0156,491.4375 Q239.3906,491.4375 239.625,491.6953 Q239.8594,491.9531 239.8594,492.5625 L239.8594,494.0156 Q239.8594,494.625 239.625,494.8906 Q239.3906,495.1563 239.0156,495.1563 Q238.6719,495.1563 238.4688,494.9531 Q238.2656,494.7656 238.1563,494.25 Q238.1094,493.8906 237.9219,493.7031 Q237.5938,493.3281 236.9844,493.1094 Q236.375,492.8906 235.75,492.8906 Q234.9844,492.8906 234.3516,493.2188 Q233.7188,493.5469 233.2266,494.2969 Q232.7344,495.0469 232.7344,496.0781 L232.7344,497.1719 Q232.7344,498.4063 233.625,499.2266 Q234.5156,500.0469 236.1094,500.0469 Q237.0469,500.0469 237.7031,499.7969 Q238.0938,499.6406 238.5156,499.2031 Q238.7813,498.9375 238.9297,498.8594 Q239.0781,498.7813 239.2813,498.7813 Q239.6094,498.7813 239.8672,499.0391 Q240.125,499.2969 240.125,499.6406 Q240.125,499.9844 239.7813,500.3906 Q239.2813,500.9688 238.4844,501.2969 Q237.4063,501.75 236.1094,501.75 Q234.5938,501.75 233.3906,501.125 Q232.4063,500.625 231.7188,499.5547 Q231.0313,498.4844 231.0313,497.2031 L231.0313,496.0469 Q231.0313,494.7188 231.6484,493.5703 Q232.2656,492.4219 233.3594,491.8047 Q234.4531,491.1875 235.6875,491.1875 Q236.4219,491.1875 237.0703,491.3516 Q237.7188,491.5156 238.2656,491.875 Z " fill="#000000"/><text fill="#000000" font-family="sans-serif" font-size="12" lengthAdjust="spacing" textLength="58" x="249.5" y="500.9102">ITraceLine</text><!--MD5=[9789acc532e4f356010e571209ac232d]
link ITraceDecoderlol14 to ITraceDecoder--><path d="M802.5,185.23 C802.5,203.38 802.5,275.78 802.5,318.99 " fill="none" id="ITraceDecoderlol14-ITraceDecoder" style="stroke:#A80036;stroke-width:1.0;"/><!--MD5=[a835807103ab5fde517ef369c8f8e20d]
link ITraceReaderlol17 to ITraceReader--><path d="M442.5,49.16 C442.5,64.62 442.5,119.62 442.5,152.87 " fill="none" id="ITraceReaderlol17-ITraceReader" style="stroke:#A80036;stroke-width:1.0;"/><!--MD5=[27ed5caa1ed27d56ca19a618277602bb]
reverse link ITraceLine to MyTraceLine--><path codeLine="47" d="M283.7,529.56 C293.88,547.78 306.09,569.63 314.05,583.89 " fill="none" id="ITraceLine-backto-MyTraceLine" style="stroke:#A80036;stroke-width:1.0;stroke-dasharray:7.0,7.0;"/><polygon fill="none" points="277.56,532.92,273.91,512.05,289.78,526.09,277.56,532.92" style="stroke:#A80036;stroke-width:1.0;"/><!--MD5=[0112e22bd76f9d3f137d7fd2f976f8fb]
reverse link ITraceLine to MyTraceLine2--><path codeLine="48" d="M313.84,520.94 C353.17,540.41 407.46,567.29 440.98,583.89 " fill="none" id="ITraceLine-backto-MyTraceLine2" style="stroke:#A80036;stroke-width:1.0;stroke-dasharray:7.0,7.0;"/><polygon fill="none" points="310.71,527.2,295.9,512.05,316.93,514.65,310.71,527.2" style="stroke:#A80036;stroke-width:1.0;"/><!--MD5=[6580599906a264bb26cd3a56238f2922]
reverse link ITraceReaderFactory to TraceReaderFactory--><path codeLine="50" d="M178.5,98.28 C178.5,111.71 178.5,125.92 178.5,138.61 " fill="none" id="ITraceReaderFactory-backto-TraceReaderFactory" style="stroke:#A80036;stroke-width:1.0;stroke-dasharray:7.0,7.0;"/><polygon fill="none" points="171.5,98.12,178.5,78.12,185.5,98.12,171.5,98.12" style="stroke:#A80036;stroke-width:1.0;"/><!--MD5=[6e8fa670199032deccab61fc06deaf6b]
reverse link TraceReaderFactory to MyTraceReaderFactory--><path codeLine="51" d="M163.46,240.83 C156.14,269.94 147.71,303.43 142.04,325.98 " fill="none" id="TraceReaderFactory-backto-MyTraceReaderFactory" style="stroke:#A80036;stroke-width:1.0;"/><polygon fill="none" points="156.75,238.78,168.42,221.09,170.33,242.2,156.75,238.78" style="stroke:#A80036;stroke-width:1.0;"/><text fill="#000000" font-family="sans-serif" font-size="13" lengthAdjust="spacing" textLength="97" x="162.5" y="273.4951">T &gt; MyTraceLine</text><!--MD5=[667e7e310718127647b44cce0084aabb]
reverse link ITraceReader to TraceReader--><path codeLine="52" d="M442.5,227.59 C442.5,255.01 442.5,289.23 442.5,314.83 " fill="none" id="ITraceReader-backto-TraceReader" style="stroke:#A80036;stroke-width:1.0;stroke-dasharray:7.0,7.0;"/><polygon fill="none" points="435.5,227.34,442.5,207.34,449.5,227.34,435.5,227.34" style="stroke:#A80036;stroke-width:1.0;"/><!--MD5=[5f8e1eac2347f2da26dc5a2daf23c9bf]
reverse link ITraceDecoder to MyTraceDecoder--><path codeLine="53" d="M708.62,395.24 C654.38,419.06 587.79,448.31 540.78,468.96 " fill="none" id="ITraceDecoder-backto-MyTraceDecoder" style="stroke:#A80036;stroke-width:1.0;stroke-dasharray:7.0,7.0;"/><polygon fill="none" points="706.11,388.69,727.24,387.06,711.74,401.51,706.11,388.69" style="stroke:#A80036;stroke-width:1.0;"/><text fill="#000000" font-family="sans-serif" font-size="13" lengthAdjust="spacing" textLength="97" x="642.5" y="435.4951">T &gt; MyTraceLine</text><!--MD5=[751afa7a6b3334bb4d59e1354bef03f6]
reverse link TraceReader to MyTraceDecoder--><path codeLine="55" d="M456.22,403.59 C462.3,425.6 469.22,450.6 474.28,468.88 " fill="none" id="TraceReader-backto-MyTraceDecoder" style="stroke:#A80036;stroke-width:1.0;"/><polygon fill="#A80036" points="452.75,391.05,450.4974,397.9002,455.9542,402.6143,458.2069,395.7641,452.75,391.05" style="stroke:#A80036;stroke-width:1.0;"/><!--MD5=[9a7294813826c7a8f4d9bf7eaa5bf520]
link MyTraceReaderFactory to MyTraceDecoder--><path codeLine="56" d="M199.36,380.03 C261.46,405.33 355.26,443.55 417.42,468.89 " fill="none" id="MyTraceReaderFactory-MyTraceDecoder" style="stroke:#A80036;stroke-width:1.0;stroke-dasharray:7.0,7.0;"/><text fill="#000000" font-family="sans-serif" font-size="13" lengthAdjust="spacing" textLength="81" x="340.5" y="435.4951">«instantiates»</text><!--MD5=[1e68ad13d981454debad58ed585053e7]
link TraceReaderFactory to TraceReader--><path codeLine="57" d="M238.28,221.12 C267.48,240.58 303.2,264.2 335.5,285 C350.7,294.79 367.22,305.23 382.62,314.88 " fill="none" id="TraceReaderFactory-TraceReader" style="stroke:#A80036;stroke-width:1.0;stroke-dasharray:7.0,7.0;"/><text fill="#000000" font-family="sans-serif" font-size="13" lengthAdjust="spacing" textLength="54" x="358" y="265.4951">«returns»</text><text fill="#000000" font-family="sans-serif" font-size="13" lengthAdjust="spacing" textLength="97" x="336.5" y="281.8467">T &gt; MyTraceLine</text><!--MD5=[8a013901b45f6904f879037e8c6b2d62]
link MyTraceDecoder to MyTraceLine--><path codeLine="58" d="M440.97,523 C410.97,542.24 371.15,567.79 346.17,583.82 " fill="none" id="MyTraceDecoder-MyTraceLine" style="stroke:#A80036;stroke-width:1.0;stroke-dasharray:7.0,7.0;"/><!--MD5=[f1c7565bc8f6424bbdefac3210016f6a]
link MyTraceDecoder to MyTraceLine2--><path codeLine="59" d="M478.95,523 C477.06,542.24 474.56,567.79 472.99,583.82 " fill="none" id="MyTraceDecoder-MyTraceLine2" style="stroke:#A80036;stroke-width:1.0;stroke-dasharray:7.0,7.0;"/><!--MD5=[750bf598a4e49b63471cbf67b5abbb9a]
@startuml ITraceDecoder
hide empty members

interface ITraceReader<T : ITraceLine> {
    GetLineAsync() : T
}

class TraceReader<T : ITraceLine> {
    TraceReader(stream: Stream, decoder: ITraceDecoder<T>)
    ..
    GetLineAsync() : T
}

interface ITraceReaderFactory<T : ITraceLine> {
    CreateAsync(stream: Stream) : ITraceReader<T>
    CreateAsync(fileName: string) : ITraceReader<T>
}

abstract class TraceReaderFactory<T : ITraceLine> {
    +CreateAsync(stream) : ITraceReader<T>
    +CreateAsync(fileName) : ITraceReader<T>
    #GetDecoder() : ITraceDecoder<T>
}

class MyTraceReaderFactory {
    #GetDecoder() : ITraceDecoder<MyTraceLine>
}
note bottom
    User instantiates this class
    to get the <b>TraceReader</b>.
end note

interface ITraceDecoder<T : ITraceLine> {
    Decode(buffer: ReadOnlySpan<byte>, position: long) : IEnumerable<T>
    Flush() : IEnumerable<T>
}

class MyTraceDecoder {
    Decode(buffer, position) : IEnumerable<MyTraceLine>
}

'interface ITraceLine
class MyTraceLine
class MyTraceLine2

IDisposable ()- - ITraceDecoder
IDisposable ()- - ITraceReader
ITraceLine <|.. MyTraceLine
ITraceLine <|.. MyTraceLine2
'ITraceReaderFactory . ITraceReader
ITraceReaderFactory <|.. TraceReaderFactory
TraceReaderFactory <|- - MyTraceReaderFactory : T > MyTraceLine
ITraceReader <|.. TraceReader
ITraceDecoder <|.. MyTraceDecoder : T > MyTraceLine

TraceReader *- - MyTraceDecoder
MyTraceReaderFactory .. MyTraceDecoder : <<instantiates>>
TraceReaderFactory .. TraceReader : <<returns>>\nT > MyTraceLine
MyTraceDecoder .. MyTraceLine
MyTraceDecoder .. MyTraceLine2
@enduml

@startuml ITraceDecoder
hide empty members

interface ITraceReader<T : ITraceLine> {
    GetLineAsync() : T
}

class TraceReader<T : ITraceLine> {
    TraceReader(stream: Stream, decoder: ITraceDecoder<T>)
    ..
    GetLineAsync() : T
}

interface ITraceReaderFactory<T : ITraceLine> {
    CreateAsync(stream: Stream) : ITraceReader<T>
    CreateAsync(fileName: string) : ITraceReader<T>
}

abstract class TraceReaderFactory<T : ITraceLine> {
    +CreateAsync(stream) : ITraceReader<T>
    +CreateAsync(fileName) : ITraceReader<T>
    #GetDecoder() : ITraceDecoder<T>
}

class MyTraceReaderFactory {
    #GetDecoder() : ITraceDecoder<MyTraceLine>
}
note bottom
    User instantiates this class
    to get the <b>TraceReader</b>.
end note

interface ITraceDecoder<T : ITraceLine> {
    Decode(buffer: ReadOnlySpan<byte>, position: long) : IEnumerable<T>
    Flush() : IEnumerable<T>
}

class MyTraceDecoder {
    Decode(buffer, position) : IEnumerable<MyTraceLine>
}

class MyTraceLine
class MyTraceLine2

IDisposable ()- - ITraceDecoder
IDisposable ()- - ITraceReader
ITraceLine <|.. MyTraceLine
ITraceLine <|.. MyTraceLine2
ITraceReaderFactory <|.. TraceReaderFactory
TraceReaderFactory <|- - MyTraceReaderFactory : T > MyTraceLine
ITraceReader <|.. TraceReader
ITraceDecoder <|.. MyTraceDecoder : T > MyTraceLine

TraceReader *- - MyTraceDecoder
MyTraceReaderFactory .. MyTraceDecoder : <<instantiates>>
TraceReaderFactory .. TraceReader : <<returns>>\nT > MyTraceLine
MyTraceDecoder .. MyTraceLine
MyTraceDecoder .. MyTraceLine2
@enduml

PlantUML version 1.2021.14(Fri Nov 12 17:46:50 CET 2021)
(GPL source distribution)
Java Runtime: Java(TM) SE Runtime Environment
JVM: Java HotSpot(TM) Client VM
Default Encoding: Cp1252
Language: en
Country: US
--></g></svg>