<?xml version="1.0" encoding="us-ascii" standalone="no"?><svg xmlns="http://www.w3.org/2000/svg" xmlns:xlink="http://www.w3.org/1999/xlink" contentStyleType="text/css" height="505px" preserveAspectRatio="none" style="width:1707px;height:505px;background:#FFFFFF;" version="1.1" viewBox="0 0 1707 505" width="1707px" zoomAndPan="magnify"><defs/><g><!--class ITraceReader--><g id="elem_ITraceReader"><rect codeLine="3" fill="#F1F1F1" height="56.2969" id="ITraceReader" rx="2.5" ry="2.5" style="stroke:#181818;stroke-width:0.5;" width="210" x="827.5" y="18.15"/><ellipse cx="842.5" cy="34.15" fill="#B4A7E5" rx="11" ry="11" style="stroke:#181818;stroke-width:1.0;"/><path d="M838.4219,29.9156 L838.4219,27.7594 L845.8125,27.7594 L845.8125,29.9156 L843.3438,29.9156 L843.3438,37.9938 L845.8125,37.9938 L845.8125,40.15 L838.4219,40.15 L838.4219,37.9938 L840.8906,37.9938 L840.8906,29.9156 L838.4219,29.9156 Z " fill="#000000"/><text fill="#000000" font-family="sans-serif" font-size="14" font-style="italic" lengthAdjust="spacing" textLength="92" x="856.5" y="38.9967">ITraceReader</text><rect fill="#FFFFFF" height="15.9688" style="stroke:#181818;stroke-width:1.0;stroke-dasharray:2.0,2.0;" width="84" x="956.5" y="15.15"/><text fill="#000000" font-family="sans-serif" font-size="12" font-style="italic" lengthAdjust="spacing" textLength="82" x="957.5" y="27.2887">T : ITraceLine</text><line style="stroke:#181818;stroke-width:0.5;" x1="828.5" x2="1036.5" y1="50.15" y2="50.15"/><text fill="#000000" font-family="sans-serif" font-size="14" lengthAdjust="spacing" textLength="126" x="833.5" y="67.1451">GetLineAsync() : T</text></g><!--class ITraceDecoderFactory--><g id="elem_ITraceDecoderFactory"><rect codeLine="7" fill="#F1F1F1" height="56.2969" id="ITraceDecoderFactory" rx="2.5" ry="2.5" style="stroke:#181818;stroke-width:0.5;" width="270" x="413.5" y="190.89"/><ellipse cx="428.5" cy="206.89" fill="#B4A7E5" rx="11" ry="11" style="stroke:#181818;stroke-width:1.0;"/><path d="M424.4219,202.6556 L424.4219,200.4994 L431.8125,200.4994 L431.8125,202.6556 L429.3438,202.6556 L429.3438,210.7338 L431.8125,210.7338 L431.8125,212.89 L424.4219,212.89 L424.4219,210.7338 L426.8906,210.7338 L426.8906,202.6556 L424.4219,202.6556 Z " fill="#000000"/><text fill="#000000" font-family="sans-serif" font-size="14" font-style="italic" lengthAdjust="spacing" textLength="152" x="442.5" y="211.7367">ITraceDecoderFactory</text><rect fill="#FFFFFF" height="15.9688" style="stroke:#181818;stroke-width:1.0;stroke-dasharray:2.0,2.0;" width="84" x="602.5" y="187.89"/><text fill="#000000" font-family="sans-serif" font-size="12" font-style="italic" lengthAdjust="spacing" textLength="82" x="603.5" y="200.0287">T : ITraceLine</text><line style="stroke:#181818;stroke-width:0.5;" x1="414.5" x2="682.5" y1="222.89" y2="222.89"/><text fill="#000000" font-family="sans-serif" font-size="14" lengthAdjust="spacing" textLength="204" x="419.5" y="239.8851">Create() : ITraceDecoder&lt;T&gt;</text></g><!--class ITraceReaderFactory--><g id="elem_ITraceReaderFactory"><rect codeLine="11" fill="#F1F1F1" height="72.5938" id="ITraceReaderFactory" rx="2.5" ry="2.5" style="stroke:#181818;stroke-width:0.5;" width="354" x="16.5" y="10"/><ellipse cx="75.25" cy="26" fill="#B4A7E5" rx="11" ry="11" style="stroke:#181818;stroke-width:1.0;"/><path d="M71.1719,21.7656 L71.1719,19.6094 L78.5625,19.6094 L78.5625,21.7656 L76.0938,21.7656 L76.0938,29.8438 L78.5625,29.8438 L78.5625,32 L71.1719,32 L71.1719,29.8438 L73.6406,29.8438 L73.6406,21.7656 L71.1719,21.7656 Z " fill="#000000"/><text fill="#000000" font-family="sans-serif" font-size="14" font-style="italic" lengthAdjust="spacing" textLength="142" x="95.75" y="30.8467">ITraceReaderFactory</text><rect fill="#FFFFFF" height="15.9688" style="stroke:#181818;stroke-width:1.0;stroke-dasharray:2.0,2.0;" width="84" x="289.5" y="7"/><text fill="#000000" font-family="sans-serif" font-size="12" font-style="italic" lengthAdjust="spacing" textLength="82" x="290.5" y="19.1387">T : ITraceLine</text><line style="stroke:#181818;stroke-width:0.5;" x1="17.5" x2="369.5" y1="42" y2="42"/><text fill="#000000" font-family="sans-serif" font-size="14" lengthAdjust="spacing" textLength="341" x="22.5" y="58.9951">CreateAsync(stream: Stream) : ITraceReader&lt;T&gt;</text><text fill="#000000" font-family="sans-serif" font-size="14" lengthAdjust="spacing" textLength="342" x="22.5" y="75.292">CreateAsync(fileName: string) : ITraceReader&lt;T&gt;</text></g><!--class ITraceDecoder--><g id="elem_ITraceDecoder"><rect codeLine="16" fill="#F1F1F1" height="72.5938" id="ITraceDecoder" rx="2.5" ry="2.5" style="stroke:#181818;stroke-width:0.5;" width="515" x="1181" y="182.75"/><ellipse cx="1340.25" cy="198.75" fill="#B4A7E5" rx="11" ry="11" style="stroke:#181818;stroke-width:1.0;"/><path d="M1336.1719,194.5156 L1336.1719,192.3594 L1343.5625,192.3594 L1343.5625,194.5156 L1341.0938,194.5156 L1341.0938,202.5938 L1343.5625,202.5938 L1343.5625,204.75 L1336.1719,204.75 L1336.1719,202.5938 L1338.6406,202.5938 L1338.6406,194.5156 L1336.1719,194.5156 Z " fill="#000000"/><text fill="#000000" font-family="sans-serif" font-size="14" font-style="italic" lengthAdjust="spacing" textLength="102" x="1360.75" y="203.5967">ITraceDecoder</text><rect fill="#FFFFFF" height="15.9688" style="stroke:#181818;stroke-width:1.0;stroke-dasharray:2.0,2.0;" width="84" x="1615" y="179.75"/><text fill="#000000" font-family="sans-serif" font-size="12" font-style="italic" lengthAdjust="spacing" textLength="82" x="1616" y="191.8887">T : ITraceLine</text><line style="stroke:#181818;stroke-width:0.5;" x1="1182" x2="1695" y1="214.75" y2="214.75"/><text fill="#000000" font-family="sans-serif" font-size="14" lengthAdjust="spacing" textLength="503" x="1187" y="231.7451">Decode(buffer: ReadOnlySpan&lt;byte&gt;, position: long) : IEnumerable&lt;T&gt;</text><text fill="#000000" font-family="sans-serif" font-size="14" lengthAdjust="spacing" textLength="179" x="1187" y="248.042">Flush() : IEnumerable&lt;T&gt;</text></g><!--class TraceReaderFactory--><g id="elem_TraceReaderFactory"><rect codeLine="21" fill="#F1F1F1" height="88.8906" id="TraceReaderFactory" rx="2.5" ry="2.5" style="stroke:#181818;stroke-width:0.5;" width="369" x="9" y="174.6"/><ellipse cx="76.75" cy="190.6" fill="#ADD1B2" rx="11" ry="11" style="stroke:#181818;stroke-width:1.0;"/><path d="M79.7188,196.2406 Q79.1406,196.5375 78.5,196.6781 Q77.8594,196.8344 77.1563,196.8344 Q74.6563,196.8344 73.3281,195.1938 Q72.0156,193.5375 72.0156,190.4125 Q72.0156,187.2875 73.3281,185.6313 Q74.6563,183.975 77.1563,183.975 Q77.8594,183.975 78.5,184.1313 Q79.1563,184.2875 79.7188,184.5844 L79.7188,187.3031 Q79.0938,186.725 78.5,186.4594 Q77.9063,186.1781 77.2813,186.1781 Q75.9375,186.1781 75.25,187.2563 Q74.5625,188.3188 74.5625,190.4125 Q74.5625,192.5063 75.25,193.5844 Q75.9375,194.6469 77.2813,194.6469 Q77.9063,194.6469 78.5,194.3813 Q79.0938,194.1 79.7188,193.5219 L79.7188,196.2406 Z " fill="#000000"/><text fill="#000000" font-family="sans-serif" font-size="14" lengthAdjust="spacing" textLength="139" x="97.25" y="195.4467">TraceReaderFactory</text><rect fill="#FFFFFF" height="15.9688" style="stroke:#181818;stroke-width:1.0;stroke-dasharray:2.0,2.0;" width="84" x="297" y="171.6"/><text fill="#000000" font-family="sans-serif" font-size="12" font-style="italic" lengthAdjust="spacing" textLength="82" x="298" y="183.7387">T : ITraceLine</text><line style="stroke:#181818;stroke-width:0.5;" x1="10" x2="377" y1="206.6" y2="206.6"/><polygon fill="#FFFF44" points="20,215.2484,24,219.2484,20,223.2484,16,219.2484" style="stroke:#B38D22;stroke-width:1.0;"/><text fill="#000000" font-family="sans-serif" font-size="14" lengthAdjust="spacing" textLength="343" x="29" y="223.5951">.ctor(decoderFactory: ITraceDecoderFactory&lt;T&gt;)</text><ellipse cx="20" cy="236.5453" fill="#84BE84" rx="3" ry="3" style="stroke:#038048;stroke-width:1.0;"/><text fill="#000000" font-family="sans-serif" font-size="14" lengthAdjust="spacing" textLength="341" x="29" y="239.892">CreateAsync(stream: Stream) : ITraceReader&lt;T&gt;</text><ellipse cx="20" cy="252.8422" fill="#84BE84" rx="3" ry="3" style="stroke:#038048;stroke-width:1.0;"/><text fill="#000000" font-family="sans-serif" font-size="14" lengthAdjust="spacing" textLength="342" x="29" y="256.1889">CreateAsync(fileName: string) : ITraceReader&lt;T&gt;</text></g><!--class TraceReader--><g id="elem_TraceReader"><rect codeLine="27" fill="#F1F1F1" height="80.5938" id="TraceReader" rx="2.5" ry="2.5" style="stroke:#181818;stroke-width:0.5;" width="427" x="719" y="178.75"/><ellipse cx="840.75" cy="194.75" fill="#ADD1B2" rx="11" ry="11" style="stroke:#181818;stroke-width:1.0;"/><path d="M843.7188,200.3906 Q843.1406,200.6875 842.5,200.8281 Q841.8594,200.9844 841.1563,200.9844 Q838.6563,200.9844 837.3281,199.3438 Q836.0156,197.6875 836.0156,194.5625 Q836.0156,191.4375 837.3281,189.7813 Q838.6563,188.125 841.1563,188.125 Q841.8594,188.125 842.5,188.2813 Q843.1563,188.4375 843.7188,188.7344 L843.7188,191.4531 Q843.0938,190.875 842.5,190.6094 Q841.9063,190.3281 841.2813,190.3281 Q839.9375,190.3281 839.25,191.4063 Q838.5625,192.4688 838.5625,194.5625 Q838.5625,196.6563 839.25,197.7344 Q839.9375,198.7969 841.2813,198.7969 Q841.9063,198.7969 842.5,198.5313 Q843.0938,198.25 843.7188,197.6719 L843.7188,200.3906 Z " fill="#000000"/><text fill="#000000" font-family="sans-serif" font-size="14" lengthAdjust="spacing" textLength="89" x="861.25" y="199.5967">TraceReader</text><rect fill="#FFFFFF" height="15.9688" style="stroke:#181818;stroke-width:1.0;stroke-dasharray:2.0,2.0;" width="84" x="1065" y="175.75"/><text fill="#000000" font-family="sans-serif" font-size="12" font-style="italic" lengthAdjust="spacing" textLength="82" x="1066" y="187.8887">T : ITraceLine</text><line style="stroke:#181818;stroke-width:0.5;" x1="720" x2="1145" y1="210.75" y2="210.75"/><text fill="#000000" font-family="sans-serif" font-size="14" lengthAdjust="spacing" textLength="415" x="725" y="227.7451">TraceReader(stream: Stream, decoder: ITraceDecoder&lt;T&gt;)</text><line style="stroke:#181818;stroke-width:1.0;stroke-dasharray:1.0,2.0;" x1="720" x2="1145" y1="235.0469" y2="235.0469"/><text fill="#000000" font-family="sans-serif" font-size="14" lengthAdjust="spacing" textLength="126" x="725" y="252.042">GetLineAsync() : T</text></g><!--class MyTraceReaderFactory--><g id="elem_MyTraceReaderFactory"><rect codeLine="38" fill="#F1F1F1" height="32" id="MyTraceReaderFactory" rx="2.5" ry="2.5" style="stroke:#181818;stroke-width:0.5;" width="190" x="98.5" y="352.64"/><ellipse cx="113.5" cy="368.64" fill="#ADD1B2" rx="11" ry="11" style="stroke:#181818;stroke-width:1.0;"/><path d="M116.4688,374.2806 Q115.8906,374.5775 115.25,374.7181 Q114.6094,374.8744 113.9063,374.8744 Q111.4063,374.8744 110.0781,373.2338 Q108.7656,371.5775 108.7656,368.4525 Q108.7656,365.3275 110.0781,363.6713 Q111.4063,362.015 113.9063,362.015 Q114.6094,362.015 115.25,362.1713 Q115.9063,362.3275 116.4688,362.6244 L116.4688,365.3431 Q115.8438,364.765 115.25,364.4994 Q114.6563,364.2181 114.0313,364.2181 Q112.6875,364.2181 112,365.2963 Q111.3125,366.3588 111.3125,368.4525 Q111.3125,370.5463 112,371.6244 Q112.6875,372.6869 114.0313,372.6869 Q114.6563,372.6869 115.25,372.4213 Q115.8438,372.14 116.4688,371.5619 L116.4688,374.2806 Z " fill="#000000"/><text fill="#000000" font-family="sans-serif" font-size="14" lengthAdjust="spacing" textLength="158" x="127.5" y="373.4867">MyTraceReaderFactory</text></g><g id="elem_GMN13"><path d="M97,457.78 L97,498.0456 A0,0 0 0 0 97,498.0456 L290,498.0456 A0,0 0 0 0 290,498.0456 L290,467.78 L280,457.78 L197.5,457.78 L193.5,385.01 L189.5,457.78 L97,457.78 A0,0 0 0 0 97,457.78 " fill="#FEFFDD" style="stroke:#181818;stroke-width:0.5;"/><path d="M280,457.78 L280,467.78 L290,467.78 L280,457.78 " fill="#FEFFDD" style="stroke:#181818;stroke-width:0.5;"/><text fill="#000000" font-family="sans-serif" font-size="13" lengthAdjust="spacing" textLength="172" x="103" y="474.8469">User instantiates this class</text><text fill="#000000" font-family="sans-serif" font-size="13" lengthAdjust="spacing" textLength="63" x="103" y="489.9797">to get the</text><text fill="#000000" font-family="sans-serif" font-size="13" font-weight="bold" lengthAdjust="spacing" textLength="93" x="170" y="489.9797">TraceReader</text><text fill="#000000" font-family="sans-serif" font-size="13" lengthAdjust="spacing" textLength="4" x="263" y="489.9797">.</text></g><!--class MyTraceDecoderFactory--><g id="elem_MyTraceDecoderFactory"><rect codeLine="44" fill="#F1F1F1" height="56.2969" id="MyTraceDecoderFactory" rx="2.5" ry="2.5" style="stroke:#181818;stroke-width:0.5;" width="303" x="323" y="340.49"/><ellipse cx="386.25" cy="356.49" fill="#ADD1B2" rx="11" ry="11" style="stroke:#181818;stroke-width:1.0;"/><path d="M389.2188,362.1306 Q388.6406,362.4275 388,362.5681 Q387.3594,362.7244 386.6563,362.7244 Q384.1563,362.7244 382.8281,361.0838 Q381.5156,359.4275 381.5156,356.3025 Q381.5156,353.1775 382.8281,351.5213 Q384.1563,349.865 386.6563,349.865 Q387.3594,349.865 388,350.0213 Q388.6563,350.1775 389.2188,350.4744 L389.2188,353.1931 Q388.5938,352.615 388,352.3494 Q387.4063,352.0681 386.7813,352.0681 Q385.4375,352.0681 384.75,353.1463 Q384.0625,354.2088 384.0625,356.3025 Q384.0625,358.3963 384.75,359.4744 Q385.4375,360.5369 386.7813,360.5369 Q387.4063,360.5369 388,360.2713 Q388.5938,359.99 389.2188,359.4119 L389.2188,362.1306 Z " fill="#000000"/><text fill="#000000" font-family="sans-serif" font-size="14" lengthAdjust="spacing" textLength="168" x="406.75" y="361.3367">MyTraceDecoderFactory</text><line style="stroke:#181818;stroke-width:0.5;" x1="324" x2="625" y1="372.49" y2="372.49"/><ellipse cx="334" cy="386.1384" fill="#84BE84" rx="3" ry="3" style="stroke:#038048;stroke-width:1.0;"/><text fill="#000000" font-family="sans-serif" font-size="14" lengthAdjust="spacing" textLength="277" x="343" y="389.4851">Create(): ITraceDecoder&lt;MyTraceLine&gt;</text></g><!--class MyTraceDecoder--><g id="elem_MyTraceDecoder"><rect codeLine="51" fill="#F1F1F1" height="56.2969" id="MyTraceDecoder" rx="2.5" ry="2.5" style="stroke:#181818;stroke-width:0.5;" width="389" x="753" y="340.49"/><ellipse cx="884.25" cy="356.49" fill="#ADD1B2" rx="11" ry="11" style="stroke:#181818;stroke-width:1.0;"/><path d="M887.2188,362.1306 Q886.6406,362.4275 886,362.5681 Q885.3594,362.7244 884.6563,362.7244 Q882.1563,362.7244 880.8281,361.0838 Q879.5156,359.4275 879.5156,356.3025 Q879.5156,353.1775 880.8281,351.5213 Q882.1563,349.865 884.6563,349.865 Q885.3594,349.865 886,350.0213 Q886.6563,350.1775 887.2188,350.4744 L887.2188,353.1931 Q886.5938,352.615 886,352.3494 Q885.4063,352.0681 884.7813,352.0681 Q883.4375,352.0681 882.75,353.1463 Q882.0625,354.2088 882.0625,356.3025 Q882.0625,358.3963 882.75,359.4744 Q883.4375,360.5369 884.7813,360.5369 Q885.4063,360.5369 886,360.2713 Q886.5938,359.99 887.2188,359.4119 L887.2188,362.1306 Z " fill="#000000"/><text fill="#000000" font-family="sans-serif" font-size="14" lengthAdjust="spacing" textLength="118" x="904.75" y="361.3367">MyTraceDecoder</text><line style="stroke:#181818;stroke-width:0.5;" x1="754" x2="1141" y1="372.49" y2="372.49"/><text fill="#000000" font-family="sans-serif" font-size="14" lengthAdjust="spacing" textLength="377" x="759" y="389.4851">Decode(buffer, position) : IEnumerable&lt;MyTraceLine&gt;</text></g><!--reverse link ITraceReaderFactory to TraceReaderFactory--><g id="link_ITraceReaderFactory_TraceReaderFactory"><path codeLine="33" d="M193.5,103.81 C193.5,126.68 193.5,152.69 193.5,174.11 " fill="none" id="ITraceReaderFactory-backto-TraceReaderFactory" style="stroke:#181818;stroke-width:1.0;stroke-dasharray:7.0,7.0;"/><polygon fill="none" points="186.5,104.09,193.5,84.09,200.5,104.09,186.5,104.09" style="stroke:#181818;stroke-width:1.0;"/></g><!--reverse link ITraceReader to TraceReader--><g id="link_ITraceReader_TraceReader"><path codeLine="35" d="M932.5,95.47 C932.5,121.62 932.5,153.55 932.5,178.26 " fill="none" id="ITraceReader-backto-TraceReader" style="stroke:#181818;stroke-width:1.0;stroke-dasharray:7.0,7.0;"/><polygon fill="none" points="925.5,95.73,932.5,75.73,939.5,95.73,925.5,95.73" style="stroke:#181818;stroke-width:1.0;"/></g><!--link TraceReaderFactory to TraceReader--><g id="link_TraceReaderFactory_TraceReader"><path codeLine="36" d="M312.31,174.21 C367.08,155.85 433.46,136.79 495,127.67 C610.22,110.6 740.73,144.96 829,176.31 " fill="none" id="TraceReaderFactory-to-TraceReader" style="stroke:#181818;stroke-width:1.0;"/><polygon fill="#181818" points="833.49,178.27,826.3623,171.4733,828.7819,176.5865,823.6687,179.0062,833.49,178.27" style="stroke:#181818;stroke-width:1.0;"/><text fill="#000000" font-family="sans-serif" font-size="13" lengthAdjust="spacing" textLength="62" x="517.5" y="125.6669">&#171;returns&#187;</text><text fill="#000000" font-family="sans-serif" font-size="13" lengthAdjust="spacing" textLength="105" x="496" y="140.7997">T &gt; MyTraceLine</text></g><!--reverse link ITraceDecoderFactory to MyTraceDecoderFactory--><g id="link_ITraceDecoderFactory_MyTraceDecoderFactory"><path codeLine="48" d="M525.42,266.07 C513.24,290.36 498.71,319.34 488.3,340.12 " fill="none" id="ITraceDecoderFactory-backto-MyTraceDecoderFactory" style="stroke:#181818;stroke-width:1.0;stroke-dasharray:7.0,7.0;"/><polygon fill="none" points="519.53,263.2,534.75,248.46,532.05,269.47,519.53,263.2" style="stroke:#181818;stroke-width:1.0;"/><text fill="#000000" font-family="sans-serif" font-size="13" lengthAdjust="spacing" textLength="105" x="512.5" y="306.5569">T &gt; MyTraceLine</text></g><!--link MyTraceDecoderFactory to MyTraceDecoder--><g id="link_MyTraceDecoderFactory_MyTraceDecoder"><path codeLine="49" d="M626.44,368.64 C664.8,368.64 706.59,368.64 746.94,368.64 " fill="none" id="MyTraceDecoderFactory-to-MyTraceDecoder" style="stroke:#181818;stroke-width:1.0;"/><polygon fill="#181818" points="751.88,368.64,742.88,364.64,746.88,368.64,742.88,372.64,751.88,368.64" style="stroke:#181818;stroke-width:1.0;"/><text fill="#000000" font-family="sans-serif" font-size="13" lengthAdjust="spacing" textLength="91" x="644" y="361.7069">&#171;instantiates&#187;</text></g><!--reverse link ITraceDecoder to MyTraceDecoder--><g id="link_ITraceDecoder_MyTraceDecoder"><path codeLine="55" d="M1299.72,261.76 C1216.27,286.84 1112.39,318.07 1039.13,340.09 " fill="none" id="ITraceDecoder-backto-MyTraceDecoder" style="stroke:#181818;stroke-width:1.0;stroke-dasharray:7.0,7.0;"/><polygon fill="none" points="1297.47,254.82,1318.64,255.77,1301.5,268.23,1297.47,254.82" style="stroke:#181818;stroke-width:1.0;"/><text fill="#000000" font-family="sans-serif" font-size="13" lengthAdjust="spacing" textLength="105" x="1193.5" y="306.5569">T &gt; MyTraceLine</text></g><!--reverse link TraceReader to MyTraceDecoder--><g id="link_TraceReader_MyTraceDecoder"><path codeLine="56" d="M937.91,273.25 C940.21,295.9 942.8,321.36 944.7,340.13 " fill="none" id="TraceReader-backto-MyTraceDecoder" style="stroke:#181818;stroke-width:1.0;"/><polygon fill="none" points="936.52,260.59,933.1473,266.9638,937.7336,272.5285,941.1063,266.1547,936.52,260.59" style="stroke:#181818;stroke-width:1.0;"/></g><!--reverse link TraceReaderFactory to MyTraceReaderFactory--><g id="link_TraceReaderFactory_MyTraceReaderFactory"><path codeLine="58" d="M193.5,284.8 C193.5,309.82 193.5,336.25 193.5,352.34 " fill="none" id="TraceReaderFactory-backto-MyTraceReaderFactory" style="stroke:#181818;stroke-width:1.0;"/><polygon fill="none" points="186.5,284.93,193.5,264.93,200.5,284.93,186.5,284.93" style="stroke:#181818;stroke-width:1.0;"/><text fill="#000000" font-family="sans-serif" font-size="13" lengthAdjust="spacing" textLength="105" x="194.5" y="306.5569">T &gt; MyTraceLine</text></g><!--reverse link MyTraceReaderFactory to MyTraceDecoderFactory--><g id="link_MyTraceReaderFactory_MyTraceDecoderFactory"><path codeLine="59" d="M302.95,368.64 C309.53,368.64 316.11,368.64 322.69,368.64 " fill="none" id="MyTraceReaderFactory-backto-MyTraceDecoderFactory" style="stroke:#181818;stroke-width:1.0;"/><polygon fill="#181818" points="290,368.64,296,372.64,302,368.64,296,364.64,290,368.64" style="stroke:#181818;stroke-width:1.0;"/></g><!--reverse link TraceReaderFactory to MyTraceDecoderFactory--><g id="link_TraceReaderFactory_MyTraceDecoderFactory"><path codeLine="60" d="M289.4,270.41 C333.86,293.77 384.97,320.61 422.21,340.17 " fill="none" id="TraceReaderFactory-backto-MyTraceDecoderFactory" style="stroke:#181818;stroke-width:1.0;"/><polygon fill="none" points="278.05,263.93,281.504,270.2601,288.6756,269.5065,285.2216,263.1764,278.05,263.93" style="stroke:#181818;stroke-width:1.0;"/></g><!--SRC=[dLDBJyCm3BxdLrZYCXWjzwgAX7W9YOV4oerBsdaiKfjCYNkeOF-TBEjOswKmw2Mg7v_zVRQNSew0rOeQgB3AqLZ6f28q2r4Wt6V6FIyevcZI39BMy20LSlXWuBuxfCtlfMrKCJbr8HbR7q9SOw4TngqeI9jc1EhAe23q8BsiDECXp6rRnq1kcxFaVge4PlxTLzdHumSP2rdYawWm0PShrNiePvpiI4jRxoIl5miq2MoGdbNPp5P2fNb3oCzXfQqagLK2fMwhtgYwGYFo4dUDtfQrNKu2JjTHKGfhuMYLJkADTpBl3IaP6Hq_zJdJlqix_OUs1qn6A7GY1jsSGylhSAksJEBuXqKEh1gadt4S49UnZWtYElxaFKOi01MPY7UXNDaqDKYrKPRpDvK1XyVcc-rEZzRKn_g0DLEQ479Df2jFwjKwJAai2KNIQM-1bjA2H_41fE4ToLaHqfntTRx8USnGpM63EIZStubs1DFT_Gw5xX3mCms3T0KRkDmi1Zg48RoQVPSNj2i0vs4keUlSN-Bmp7wc5EBoAmc8waXtTu6nuEv5KNZye_Zzi3CdKdYCeN9w9FOB]--></g></svg>