<?xml version="1.0" encoding="UTF-8" standalone="no"?><svg xmlns="http://www.w3.org/2000/svg" xmlns:xlink="http://www.w3.org/1999/xlink" contentScriptType="application/ecmascript" contentStyleType="text/css" height="301px" preserveAspectRatio="none" style="width:750px;height:301px;background:#FFFFFF;" version="1.1" viewBox="0 0 750 301" width="750px" zoomAndPan="magnify"><defs><filter height="300%" id="f1swtkfrryy50g" width="300%" x="-1" y="-1"><feGaussianBlur result="blurOut" stdDeviation="2.0"/><feColorMatrix in="blurOut" result="blurOut2" type="matrix" values="0 0 0 0 0 0 0 0 0 0 0 0 0 0 0 0 0 0 .4 0"/><feOffset dx="4.0" dy="4.0" in="blurOut2" result="blurOut3"/><feBlend in="SourceGraphic" in2="blurOut3" mode="normal"/></filter></defs><g><!--MD5=[362837878af92ba71ae40d034f8eec69]
class DltTraceDecoderBase--><rect codeLine="1" fill="#FEFECE" filter="url(#f1swtkfrryy50g)" height="48" id="DltTraceDecoderBase" style="stroke:#A80036;stroke-width:1.5;" width="154" x="147" y="14"/><ellipse cx="162" cy="30" fill="#ADD1B2" rx="11" ry="11" style="stroke:#A80036;stroke-width:1.0;"/><path d="M164.7656,25.875 Q164.9219,25.6563 165.1094,25.5469 Q165.2969,25.4375 165.5156,25.4375 Q165.8906,25.4375 166.125,25.6953 Q166.3594,25.9531 166.3594,26.5625 L166.3594,28.0156 Q166.3594,28.625 166.125,28.8906 Q165.8906,29.1563 165.5156,29.1563 Q165.1719,29.1563 164.9688,28.9531 Q164.7656,28.7656 164.6563,28.25 Q164.6094,27.8906 164.4219,27.7031 Q164.0938,27.3281 163.4844,27.1094 Q162.875,26.8906 162.25,26.8906 Q161.4844,26.8906 160.8516,27.2188 Q160.2188,27.5469 159.7266,28.2969 Q159.2344,29.0469 159.2344,30.0781 L159.2344,31.1719 Q159.2344,32.4063 160.125,33.2266 Q161.0156,34.0469 162.6094,34.0469 Q163.5469,34.0469 164.2031,33.7969 Q164.5938,33.6406 165.0156,33.2031 Q165.2813,32.9375 165.4297,32.8594 Q165.5781,32.7813 165.7813,32.7813 Q166.1094,32.7813 166.3672,33.0391 Q166.625,33.2969 166.625,33.6406 Q166.625,33.9844 166.2813,34.3906 Q165.7813,34.9688 164.9844,35.2969 Q163.9063,35.75 162.6094,35.75 Q161.0938,35.75 159.8906,35.125 Q158.9063,34.625 158.2188,33.5547 Q157.5313,32.4844 157.5313,31.2031 L157.5313,30.0469 Q157.5313,28.7188 158.1484,27.5703 Q158.7656,26.4219 159.8594,25.8047 Q160.9531,25.1875 162.1875,25.1875 Q162.9219,25.1875 163.5703,25.3516 Q164.2188,25.5156 164.7656,25.875 Z " fill="#000000"/><text fill="#000000" font-family="sans-serif" font-size="12" lengthAdjust="spacing" textLength="122" x="176" y="34.9102">DltTraceDecoderBase</text><line style="stroke:#A80036;stroke-width:1.5;" x1="148" x2="300" y1="46" y2="46"/><line style="stroke:#A80036;stroke-width:1.5;" x1="148" x2="300" y1="54" y2="54"/><!--MD5=[6148756aade145b82c5ac4593e9694ca]
class INonVerboseDltDecoder--><rect codeLine="5" fill="#FEFECE" filter="url(#f1swtkfrryy50g)" height="61.8359" id="INonVerboseDltDecoder" style="stroke:#A80036;stroke-width:1.5;" width="357" x="379.5" y="7"/><ellipse cx="485.75" cy="23" fill="#B4A7E5" rx="11" ry="11" style="stroke:#A80036;stroke-width:1.0;"/><path d="M486.7031,19.6406 L486.7031,26.2969 L488.4219,26.2969 Q489.0313,26.2969 489.2969,26.5313 Q489.5625,26.7656 489.5625,27.1563 Q489.5625,27.5313 489.2969,27.7656 Q489.0313,28 488.4219,28 L483.2813,28 Q482.6719,28 482.4063,27.7656 Q482.1406,27.5313 482.1406,27.1406 Q482.1406,26.7656 482.4063,26.5313 Q482.6719,26.2969 483.2813,26.2969 L485,26.2969 L485,19.6406 L483.2813,19.6406 Q482.6719,19.6406 482.4063,19.4063 Q482.1406,19.1719 482.1406,18.7813 Q482.1406,18.4063 482.4063,18.1719 Q482.6719,17.9375 483.2813,17.9375 L488.4219,17.9375 Q489.0313,17.9375 489.2969,18.1719 Q489.5625,18.4063 489.5625,18.7813 Q489.5625,19.1719 489.2969,19.4063 Q489.0313,19.6406 488.4219,19.6406 L486.7031,19.6406 Z " fill="#000000"/><text fill="#000000" font-family="sans-serif" font-size="12" font-style="italic" lengthAdjust="spacing" textLength="136" x="506.25" y="27.9102">INonVerboseDltDecoder</text><line style="stroke:#A80036;stroke-width:1.5;" x1="380.5" x2="735.5" y1="39" y2="39"/><line style="stroke:#A80036;stroke-width:1.5;" x1="380.5" x2="735.5" y1="47" y2="47"/><ellipse cx="390.5" cy="58" fill="#84BE84" rx="3" ry="3" style="stroke:#038048;stroke-width:1.0;"/><text fill="#000000" font-family="sans-serif" font-size="11" lengthAdjust="spacing" textLength="331" x="399.5" y="62.4189">Decode(buffer: ReadOnlySpan&lt;byte&gt;, lineBuilder: IDltLineBuilder): int</text><!--MD5=[a6ea36c68b67c24cd5ad3f116f1b39c6]
class NonVerboseDltDecoder--><rect codeLine="16" fill="#FEFECE" filter="url(#f1swtkfrryy50g)" height="48" id="NonVerboseDltDecoder" style="stroke:#A80036;stroke-width:1.5;" width="163" x="274.5" y="130"/><ellipse cx="289.5" cy="146" fill="#ADD1B2" rx="11" ry="11" style="stroke:#A80036;stroke-width:1.0;"/><path d="M292.2656,141.875 Q292.4219,141.6563 292.6094,141.5469 Q292.7969,141.4375 293.0156,141.4375 Q293.3906,141.4375 293.625,141.6953 Q293.8594,141.9531 293.8594,142.5625 L293.8594,144.0156 Q293.8594,144.625 293.625,144.8906 Q293.3906,145.1563 293.0156,145.1563 Q292.6719,145.1563 292.4688,144.9531 Q292.2656,144.7656 292.1563,144.25 Q292.1094,143.8906 291.9219,143.7031 Q291.5938,143.3281 290.9844,143.1094 Q290.375,142.8906 289.75,142.8906 Q288.9844,142.8906 288.3516,143.2188 Q287.7188,143.5469 287.2266,144.2969 Q286.7344,145.0469 286.7344,146.0781 L286.7344,147.1719 Q286.7344,148.4063 287.625,149.2266 Q288.5156,150.0469 290.1094,150.0469 Q291.0469,150.0469 291.7031,149.7969 Q292.0938,149.6406 292.5156,149.2031 Q292.7813,148.9375 292.9297,148.8594 Q293.0781,148.7813 293.2813,148.7813 Q293.6094,148.7813 293.8672,149.0391 Q294.125,149.2969 294.125,149.6406 Q294.125,149.9844 293.7813,150.3906 Q293.2813,150.9688 292.4844,151.2969 Q291.4063,151.75 290.1094,151.75 Q288.5938,151.75 287.3906,151.125 Q286.4063,150.625 285.7188,149.5547 Q285.0313,148.4844 285.0313,147.2031 L285.0313,146.0469 Q285.0313,144.7188 285.6484,143.5703 Q286.2656,142.4219 287.3594,141.8047 Q288.4531,141.1875 289.6875,141.1875 Q290.4219,141.1875 291.0703,141.3516 Q291.7188,141.5156 292.2656,141.875 Z " fill="#000000"/><text fill="#000000" font-family="sans-serif" font-size="12" lengthAdjust="spacing" textLength="131" x="303.5" y="150.9102">NonVerboseDltDecoder</text><line style="stroke:#A80036;stroke-width:1.5;" x1="275.5" x2="436.5" y1="162" y2="162"/><line style="stroke:#A80036;stroke-width:1.5;" x1="275.5" x2="436.5" y1="170" y2="170"/><!--MD5=[7e528b9e47efd3cc60a79db55f58b6ae]
class NonVerboseByteDecoder--><rect codeLine="9" fill="#FEFECE" filter="url(#f1swtkfrryy50g)" height="48" id="NonVerboseByteDecoder" style="stroke:#A80036;stroke-width:1.5;" width="171" x="472.5" y="130"/><ellipse cx="487.5" cy="146" fill="#ADD1B2" rx="11" ry="11" style="stroke:#A80036;stroke-width:1.0;"/><path d="M490.2656,141.875 Q490.4219,141.6563 490.6094,141.5469 Q490.7969,141.4375 491.0156,141.4375 Q491.3906,141.4375 491.625,141.6953 Q491.8594,141.9531 491.8594,142.5625 L491.8594,144.0156 Q491.8594,144.625 491.625,144.8906 Q491.3906,145.1563 491.0156,145.1563 Q490.6719,145.1563 490.4688,144.9531 Q490.2656,144.7656 490.1563,144.25 Q490.1094,143.8906 489.9219,143.7031 Q489.5938,143.3281 488.9844,143.1094 Q488.375,142.8906 487.75,142.8906 Q486.9844,142.8906 486.3516,143.2188 Q485.7188,143.5469 485.2266,144.2969 Q484.7344,145.0469 484.7344,146.0781 L484.7344,147.1719 Q484.7344,148.4063 485.625,149.2266 Q486.5156,150.0469 488.1094,150.0469 Q489.0469,150.0469 489.7031,149.7969 Q490.0938,149.6406 490.5156,149.2031 Q490.7813,148.9375 490.9297,148.8594 Q491.0781,148.7813 491.2813,148.7813 Q491.6094,148.7813 491.8672,149.0391 Q492.125,149.2969 492.125,149.6406 Q492.125,149.9844 491.7813,150.3906 Q491.2813,150.9688 490.4844,151.2969 Q489.4063,151.75 488.1094,151.75 Q486.5938,151.75 485.3906,151.125 Q484.4063,150.625 483.7188,149.5547 Q483.0313,148.4844 483.0313,147.2031 L483.0313,146.0469 Q483.0313,144.7188 483.6484,143.5703 Q484.2656,142.4219 485.3594,141.8047 Q486.4531,141.1875 487.6875,141.1875 Q488.4219,141.1875 489.0703,141.3516 Q489.7188,141.5156 490.2656,141.875 Z " fill="#000000"/><text fill="#000000" font-family="sans-serif" font-size="12" lengthAdjust="spacing" textLength="139" x="501.5" y="150.9102">NonVerboseByteDecoder</text><line style="stroke:#A80036;stroke-width:1.5;" x1="473.5" x2="642.5" y1="162" y2="162"/><line style="stroke:#A80036;stroke-width:1.5;" x1="473.5" x2="642.5" y1="170" y2="170"/><!--MD5=[036264de158f92bb7e563a0642b9a679]
class IFrameMap--><rect codeLine="12" fill="#FEFECE" filter="url(#f1swtkfrryy50g)" height="48" id="IFrameMap" style="stroke:#A80036;stroke-width:1.5;" width="95" x="308.5" y="239"/><ellipse cx="323.5" cy="255" fill="#B4A7E5" rx="11" ry="11" style="stroke:#A80036;stroke-width:1.0;"/><path d="M324.4531,251.6406 L324.4531,258.2969 L326.1719,258.2969 Q326.7813,258.2969 327.0469,258.5313 Q327.3125,258.7656 327.3125,259.1563 Q327.3125,259.5313 327.0469,259.7656 Q326.7813,260 326.1719,260 L321.0313,260 Q320.4219,260 320.1563,259.7656 Q319.8906,259.5313 319.8906,259.1406 Q319.8906,258.7656 320.1563,258.5313 Q320.4219,258.2969 321.0313,258.2969 L322.75,258.2969 L322.75,251.6406 L321.0313,251.6406 Q320.4219,251.6406 320.1563,251.4063 Q319.8906,251.1719 319.8906,250.7813 Q319.8906,250.4063 320.1563,250.1719 Q320.4219,249.9375 321.0313,249.9375 L326.1719,249.9375 Q326.7813,249.9375 327.0469,250.1719 Q327.3125,250.4063 327.3125,250.7813 Q327.3125,251.1719 327.0469,251.4063 Q326.7813,251.6406 326.1719,251.6406 L324.4531,251.6406 Z " fill="#000000"/><text fill="#000000" font-family="sans-serif" font-size="12" font-style="italic" lengthAdjust="spacing" textLength="63" x="337.5" y="259.9102">IFrameMap</text><line style="stroke:#A80036;stroke-width:1.5;" x1="309.5" x2="402.5" y1="271" y2="271"/><line style="stroke:#A80036;stroke-width:1.5;" x1="309.5" x2="402.5" y1="279" y2="279"/><!--MD5=[5ce1b2d944a285fd676395ee66609b4a]
class FrameMap--><rect codeLine="13" fill="#FEFECE" filter="url(#f1swtkfrryy50g)" height="48" id="FrameMap" style="stroke:#A80036;stroke-width:1.5;" width="91" x="182.5" y="239"/><ellipse cx="197.5" cy="255" fill="#ADD1B2" rx="11" ry="11" style="stroke:#A80036;stroke-width:1.0;"/><path d="M200.2656,250.875 Q200.4219,250.6563 200.6094,250.5469 Q200.7969,250.4375 201.0156,250.4375 Q201.3906,250.4375 201.625,250.6953 Q201.8594,250.9531 201.8594,251.5625 L201.8594,253.0156 Q201.8594,253.625 201.625,253.8906 Q201.3906,254.1563 201.0156,254.1563 Q200.6719,254.1563 200.4688,253.9531 Q200.2656,253.7656 200.1563,253.25 Q200.1094,252.8906 199.9219,252.7031 Q199.5938,252.3281 198.9844,252.1094 Q198.375,251.8906 197.75,251.8906 Q196.9844,251.8906 196.3516,252.2188 Q195.7188,252.5469 195.2266,253.2969 Q194.7344,254.0469 194.7344,255.0781 L194.7344,256.1719 Q194.7344,257.4063 195.625,258.2266 Q196.5156,259.0469 198.1094,259.0469 Q199.0469,259.0469 199.7031,258.7969 Q200.0938,258.6406 200.5156,258.2031 Q200.7813,257.9375 200.9297,257.8594 Q201.0781,257.7813 201.2813,257.7813 Q201.6094,257.7813 201.8672,258.0391 Q202.125,258.2969 202.125,258.6406 Q202.125,258.9844 201.7813,259.3906 Q201.2813,259.9688 200.4844,260.2969 Q199.4063,260.75 198.1094,260.75 Q196.5938,260.75 195.3906,260.125 Q194.4063,259.625 193.7188,258.5547 Q193.0313,257.4844 193.0313,256.2031 L193.0313,255.0469 Q193.0313,253.7188 193.6484,252.5703 Q194.2656,251.4219 195.3594,250.8047 Q196.4531,250.1875 197.6875,250.1875 Q198.4219,250.1875 199.0703,250.3516 Q199.7188,250.5156 200.2656,250.875 Z " fill="#000000"/><text fill="#000000" font-family="sans-serif" font-size="12" lengthAdjust="spacing" textLength="59" x="211.5" y="259.9102">FrameMap</text><line style="stroke:#A80036;stroke-width:1.5;" x1="183.5" x2="272.5" y1="271" y2="271"/><line style="stroke:#A80036;stroke-width:1.5;" x1="183.5" x2="272.5" y1="279" y2="279"/><!--MD5=[84718776d214be480e4c259efcb737fc]
class Main--><rect codeLine="21" fill="#FEFECE" filter="url(#f1swtkfrryy50g)" height="48" id="Main" style="stroke:#A80036;stroke-width:1.5;" width="58" x="7" y="239"/><ellipse cx="22" cy="255" fill="#ADD1B2" rx="11" ry="11" style="stroke:#A80036;stroke-width:1.0;"/><path d="M24.7656,250.875 Q24.9219,250.6563 25.1094,250.5469 Q25.2969,250.4375 25.5156,250.4375 Q25.8906,250.4375 26.125,250.6953 Q26.3594,250.9531 26.3594,251.5625 L26.3594,253.0156 Q26.3594,253.625 26.125,253.8906 Q25.8906,254.1563 25.5156,254.1563 Q25.1719,254.1563 24.9688,253.9531 Q24.7656,253.7656 24.6563,253.25 Q24.6094,252.8906 24.4219,252.7031 Q24.0938,252.3281 23.4844,252.1094 Q22.875,251.8906 22.25,251.8906 Q21.4844,251.8906 20.8516,252.2188 Q20.2188,252.5469 19.7266,253.2969 Q19.2344,254.0469 19.2344,255.0781 L19.2344,256.1719 Q19.2344,257.4063 20.125,258.2266 Q21.0156,259.0469 22.6094,259.0469 Q23.5469,259.0469 24.2031,258.7969 Q24.5938,258.6406 25.0156,258.2031 Q25.2813,257.9375 25.4297,257.8594 Q25.5781,257.7813 25.7813,257.7813 Q26.1094,257.7813 26.3672,258.0391 Q26.625,258.2969 26.625,258.6406 Q26.625,258.9844 26.2813,259.3906 Q25.7813,259.9688 24.9844,260.2969 Q23.9063,260.75 22.6094,260.75 Q21.0938,260.75 19.8906,260.125 Q18.9063,259.625 18.2188,258.5547 Q17.5313,257.4844 17.5313,256.2031 L17.5313,255.0469 Q17.5313,253.7188 18.1484,252.5703 Q18.7656,251.4219 19.8594,250.8047 Q20.9531,250.1875 22.1875,250.1875 Q22.9219,250.1875 23.5703,250.3516 Q24.2188,250.5156 24.7656,250.875 Z " fill="#000000"/><text fill="#000000" font-family="sans-serif" font-size="12" lengthAdjust="spacing" textLength="26" x="36" y="259.9102">Main</text><line style="stroke:#A80036;stroke-width:1.5;" x1="8" x2="64" y1="271" y2="271"/><line style="stroke:#A80036;stroke-width:1.5;" x1="8" x2="64" y1="279" y2="279"/><!--MD5=[1ad67f2996b030afc2324a3ac0cde6f8]
link DltTraceDecoderBase to INonVerboseDltDecoder--><path codeLine="2" d="M301.05,38 C323.26,38 348.5,38 374.28,38 " fill="none" id="DltTraceDecoderBase-to-INonVerboseDltDecoder" style="stroke:#A80036;stroke-width:1.0;"/><polygon fill="#A80036" points="379.44,38,370.44,34,374.44,38,370.44,42,379.44,38" style="stroke:#A80036;stroke-width:1.0;"/><text fill="#000000" font-family="sans-serif" font-size="13" lengthAdjust="spacing" textLength="42" x="319.25" y="31.4951">«uses»</text><!--MD5=[e2e58719434cdb0f193a2851083145d7]
reverse link DltTraceDecoderBase to NonVerboseDltDecoder--><path codeLine="3" d="M260.61,70.62 C282.4,89.44 309.57,112.9 329.33,129.96 " fill="none" id="DltTraceDecoderBase-backto-NonVerboseDltDecoder" style="stroke:#A80036;stroke-width:1.0;"/><polygon fill="none" points="250.71,62.07,252.6425,69.0173,259.7987,69.9055,257.8662,62.9582,250.71,62.07" style="stroke:#A80036;stroke-width:1.0;"/><!--MD5=[978d333d9e5246ad18a3c5246ed80ee3]
reverse link INonVerboseDltDecoder to NonVerboseByteDecoder--><path codeLine="10" d="M558,89.69 C558,103.71 558,118.24 558,129.84 " fill="none" id="INonVerboseDltDecoder-backto-NonVerboseByteDecoder" style="stroke:#A80036;stroke-width:1.0;stroke-dasharray:7.0,7.0;"/><polygon fill="none" points="551,89.25,558,69.25,565,89.25,551,89.25" style="stroke:#A80036;stroke-width:1.0;"/><!--MD5=[d980745119669e853e4fcb444b240b49]
link FrameMap to IFrameMap--><path codeLine="14" d="M274,263 C278.73,263 283.46,263 288.19,263 " fill="none" id="FrameMap-to-IFrameMap" style="stroke:#A80036;stroke-width:1.0;stroke-dasharray:7.0,7.0;"/><polygon fill="none" points="288.27,256,308.27,263,288.27,270,288.27,256" style="stroke:#A80036;stroke-width:1.0;"/><!--MD5=[c821e2978d74fc8a62e1612424dec82c]
reverse link INonVerboseDltDecoder to NonVerboseDltDecoder--><path codeLine="17" d="M486.96,79.09 C456.77,96.13 422.65,115.38 396.81,129.97 " fill="none" id="INonVerboseDltDecoder-backto-NonVerboseDltDecoder" style="stroke:#A80036;stroke-width:1.0;stroke-dasharray:7.0,7.0;"/><polygon fill="none" points="483.8,72.83,504.66,69.1,490.69,85.03,483.8,72.83" style="stroke:#A80036;stroke-width:1.0;"/><!--MD5=[4f8c2874c56db5bbd877d2ff2fd85947]
reverse link NonVerboseDltDecoder to NonVerboseByteDecoder--><path codeLine="18" d="M450.71,154 C457.96,154 465.2,154 472.45,154 " fill="none" id="NonVerboseDltDecoder-backto-NonVerboseByteDecoder" style="stroke:#A80036;stroke-width:1.0;"/><polygon fill="#A80036" points="437.67,154,443.67,158,449.67,154,443.67,150,437.67,154" style="stroke:#A80036;stroke-width:1.0;"/><!--MD5=[020495a87293b0981a099cc107e55a72]
reverse link NonVerboseDltDecoder to IFrameMap--><path codeLine="19" d="M356,191.3 C356,207.02 356,224.96 356,238.83 " fill="none" id="NonVerboseDltDecoder-backto-IFrameMap" style="stroke:#A80036;stroke-width:1.0;"/><polygon fill="none" points="356,178.22,352,184.22,356,190.22,360,184.22,356,178.22" style="stroke:#A80036;stroke-width:1.0;"/><!--MD5=[75f3a3dcd4846bddd0e1859e186c4c18]
link Main to FrameMap--><path codeLine="22" d="M65.16,263 C96.32,263 146.12,263 182.45,263 " fill="none" id="Main-FrameMap" style="stroke:#A80036;stroke-width:1.0;stroke-dasharray:7.0,7.0;"/><text fill="#000000" font-family="sans-serif" font-size="13" lengthAdjust="spacing" textLength="81" x="83.25" y="256.4951">«instantiates»</text><!--MD5=[6db3dc9c234d3082746904ca20ff4d38]
@startuml DLT.DecoderNonVerbose
class DltTraceDecoderBase
DltTraceDecoderBase -r-> INonVerboseDltDecoder : <<uses>>
DltTraceDecoderBase o-d- NonVerboseDltDecoder

interface INonVerboseDltDecoder {
    +Decode(buffer: ReadOnlySpan<byte>, lineBuilder: IDltLineBuilder): int
}

class NonVerboseByteDecoder
INonVerboseDltDecoder <|.d. NonVerboseByteDecoder

interface IFrameMap
class FrameMap
IFrameMap <|.l. FrameMap

class NonVerboseDltDecoder
INonVerboseDltDecoder <|.d. NonVerboseDltDecoder
NonVerboseDltDecoder *-r- NonVerboseByteDecoder
NonVerboseDltDecoder o-d- IFrameMap

class Main
Main .r. FrameMap : <<instantiates>>

@enduml

PlantUML version 1.2022.1(Tue Feb 01 19:19:58 CET 2022)
(GPL source distribution)
Java Runtime: Java(TM) SE Runtime Environment
JVM: Java HotSpot(TM) 64-Bit Server VM
Default Encoding: Cp1252
Language: en
Country: GB
--></g></svg>