<?xml version="1.0" encoding="us-ascii" standalone="no"?><svg xmlns="http://www.w3.org/2000/svg" xmlns:xlink="http://www.w3.org/1999/xlink" contentStyleType="text/css" height="296px" preserveAspectRatio="none" style="width:923px;height:296px;background:#FFFFFF;" version="1.1" viewBox="0 0 923 296" width="923px" zoomAndPan="magnify"><defs/><g><!--class DltTraceDecoderBase--><g id="elem_DltTraceDecoderBase"><rect codeLine="1" fill="#F1F1F1" height="48" id="DltTraceDecoderBase" rx="2.5" ry="2.5" style="stroke:#181818;stroke-width:0.5;" width="185" x="72.5" y="15.15"/><ellipse cx="87.5" cy="31.15" fill="#ADD1B2" rx="11" ry="11" style="stroke:#181818;stroke-width:1.0;"/><path d="M90.4688,36.7906 Q89.8906,37.0875 89.25,37.2281 Q88.6094,37.3844 87.9063,37.3844 Q85.4063,37.3844 84.0781,35.7438 Q82.7656,34.0875 82.7656,30.9625 Q82.7656,27.8375 84.0781,26.1813 Q85.4063,24.525 87.9063,24.525 Q88.6094,24.525 89.25,24.6813 Q89.9063,24.8375 90.4688,25.1344 L90.4688,27.8531 Q89.8438,27.275 89.25,27.0094 Q88.6563,26.7281 88.0313,26.7281 Q86.6875,26.7281 86,27.8063 Q85.3125,28.8688 85.3125,30.9625 Q85.3125,33.0563 86,34.1344 Q86.6875,35.1969 88.0313,35.1969 Q88.6563,35.1969 89.25,34.9313 Q89.8438,34.65 90.4688,34.0719 L90.4688,36.7906 Z " fill="#000000"/><text fill="#000000" font-family="sans-serif" font-size="14" lengthAdjust="spacing" textLength="153" x="101.5" y="35.9967">DltTraceDecoderBase</text><line style="stroke:#181818;stroke-width:0.5;" x1="73.5" x2="256.5" y1="47.15" y2="47.15"/><line style="stroke:#181818;stroke-width:0.5;" x1="73.5" x2="256.5" y1="55.15" y2="55.15"/></g><!--class INonVerboseDltDecoder--><g id="elem_INonVerboseDltDecoder"><rect codeLine="5" fill="#F1F1F1" height="64.2969" id="INonVerboseDltDecoder" rx="2.5" ry="2.5" style="stroke:#181818;stroke-width:0.5;" width="576" x="340" y="7"/><ellipse cx="539.75" cy="23" fill="#B4A7E5" rx="11" ry="11" style="stroke:#181818;stroke-width:1.0;"/><path d="M535.6719,18.7656 L535.6719,16.6094 L543.0625,16.6094 L543.0625,18.7656 L540.5938,18.7656 L540.5938,26.8438 L543.0625,26.8438 L543.0625,29 L535.6719,29 L535.6719,26.8438 L538.1406,26.8438 L538.1406,18.7656 L535.6719,18.7656 Z " fill="#000000"/><text fill="#000000" font-family="sans-serif" font-size="14" font-style="italic" lengthAdjust="spacing" textLength="168" x="560.25" y="27.8467">INonVerboseDltDecoder</text><line style="stroke:#181818;stroke-width:0.5;" x1="341" x2="915" y1="39" y2="39"/><line style="stroke:#181818;stroke-width:0.5;" x1="341" x2="915" y1="47" y2="47"/><ellipse cx="351" cy="60.6484" fill="#84BE84" rx="3" ry="3" style="stroke:#038048;stroke-width:1.0;"/><text fill="#000000" font-family="sans-serif" font-size="14" lengthAdjust="spacing" textLength="550" x="360" y="63.9951">Decode(buffer: ReadOnlySpan&lt;byte&gt;, lineBuilder: IDltLineBuilder): Result&lt;int&gt;</text></g><!--class NonVerboseDltDecoder--><g id="elem_NonVerboseDltDecoder"><rect codeLine="16" fill="#F1F1F1" height="48" id="NonVerboseDltDecoder" rx="2.5" ry="2.5" style="stroke:#181818;stroke-width:0.5;" width="197" x="291.5" y="132.3"/><ellipse cx="306.5" cy="148.3" fill="#ADD1B2" rx="11" ry="11" style="stroke:#181818;stroke-width:1.0;"/><path d="M309.4688,153.9406 Q308.8906,154.2375 308.25,154.3781 Q307.6094,154.5344 306.9063,154.5344 Q304.4063,154.5344 303.0781,152.8938 Q301.7656,151.2375 301.7656,148.1125 Q301.7656,144.9875 303.0781,143.3313 Q304.4063,141.675 306.9063,141.675 Q307.6094,141.675 308.25,141.8313 Q308.9063,141.9875 309.4688,142.2844 L309.4688,145.0031 Q308.8438,144.425 308.25,144.1594 Q307.6563,143.8781 307.0313,143.8781 Q305.6875,143.8781 305,144.9563 Q304.3125,146.0188 304.3125,148.1125 Q304.3125,150.2063 305,151.2844 Q305.6875,152.3469 307.0313,152.3469 Q307.6563,152.3469 308.25,152.0813 Q308.8438,151.8 309.4688,151.2219 L309.4688,153.9406 Z " fill="#000000"/><text fill="#000000" font-family="sans-serif" font-size="14" lengthAdjust="spacing" textLength="165" x="320.5" y="153.1467">NonVerboseDltDecoder</text><line style="stroke:#181818;stroke-width:0.5;" x1="292.5" x2="487.5" y1="164.3" y2="164.3"/><line style="stroke:#181818;stroke-width:0.5;" x1="292.5" x2="487.5" y1="172.3" y2="172.3"/></g><!--class NonVerboseByteDecoder--><g id="elem_NonVerboseByteDecoder"><rect codeLine="9" fill="#F1F1F1" height="48" id="NonVerboseByteDecoder" rx="2.5" ry="2.5" style="stroke:#181818;stroke-width:0.5;" width="209" x="523.5" y="132.3"/><ellipse cx="538.5" cy="148.3" fill="#ADD1B2" rx="11" ry="11" style="stroke:#181818;stroke-width:1.0;"/><path d="M541.4688,153.9406 Q540.8906,154.2375 540.25,154.3781 Q539.6094,154.5344 538.9063,154.5344 Q536.4063,154.5344 535.0781,152.8938 Q533.7656,151.2375 533.7656,148.1125 Q533.7656,144.9875 535.0781,143.3313 Q536.4063,141.675 538.9063,141.675 Q539.6094,141.675 540.25,141.8313 Q540.9063,141.9875 541.4688,142.2844 L541.4688,145.0031 Q540.8438,144.425 540.25,144.1594 Q539.6563,143.8781 539.0313,143.8781 Q537.6875,143.8781 537,144.9563 Q536.3125,146.0188 536.3125,148.1125 Q536.3125,150.2063 537,151.2844 Q537.6875,152.3469 539.0313,152.3469 Q539.6563,152.3469 540.25,152.0813 Q540.8438,151.8 541.4688,151.2219 L541.4688,153.9406 Z " fill="#000000"/><text fill="#000000" font-family="sans-serif" font-size="14" lengthAdjust="spacing" textLength="177" x="552.5" y="153.1467">NonVerboseByteDecoder</text><line style="stroke:#181818;stroke-width:0.5;" x1="524.5" x2="731.5" y1="164.3" y2="164.3"/><line style="stroke:#181818;stroke-width:0.5;" x1="524.5" x2="731.5" y1="172.3" y2="172.3"/></g><!--class IFrameMap--><g id="elem_IFrameMap"><rect codeLine="12" fill="#F1F1F1" height="48" id="IFrameMap" rx="2.5" ry="2.5" style="stroke:#181818;stroke-width:0.5;" width="107" x="336.5" y="241.3"/><ellipse cx="351.5" cy="257.3" fill="#B4A7E5" rx="11" ry="11" style="stroke:#181818;stroke-width:1.0;"/><path d="M347.4219,253.0656 L347.4219,250.9094 L354.8125,250.9094 L354.8125,253.0656 L352.3438,253.0656 L352.3438,261.1438 L354.8125,261.1438 L354.8125,263.3 L347.4219,263.3 L347.4219,261.1438 L349.8906,261.1438 L349.8906,253.0656 L347.4219,253.0656 Z " fill="#000000"/><text fill="#000000" font-family="sans-serif" font-size="14" font-style="italic" lengthAdjust="spacing" textLength="75" x="365.5" y="262.1467">IFrameMap</text><line style="stroke:#181818;stroke-width:0.5;" x1="337.5" x2="442.5" y1="273.3" y2="273.3"/><line style="stroke:#181818;stroke-width:0.5;" x1="337.5" x2="442.5" y1="281.3" y2="281.3"/></g><!--class FrameMap--><g id="elem_FrameMap"><rect codeLine="13" fill="#F1F1F1" height="48" id="FrameMap" rx="2.5" ry="2.5" style="stroke:#181818;stroke-width:0.5;" width="104" x="198" y="241.3"/><ellipse cx="213" cy="257.3" fill="#ADD1B2" rx="11" ry="11" style="stroke:#181818;stroke-width:1.0;"/><path d="M215.9688,262.9406 Q215.3906,263.2375 214.75,263.3781 Q214.1094,263.5344 213.4063,263.5344 Q210.9063,263.5344 209.5781,261.8938 Q208.2656,260.2375 208.2656,257.1125 Q208.2656,253.9875 209.5781,252.3313 Q210.9063,250.675 213.4063,250.675 Q214.1094,250.675 214.75,250.8313 Q215.4063,250.9875 215.9688,251.2844 L215.9688,254.0031 Q215.3438,253.425 214.75,253.1594 Q214.1563,252.8781 213.5313,252.8781 Q212.1875,252.8781 211.5,253.9563 Q210.8125,255.0188 210.8125,257.1125 Q210.8125,259.2063 211.5,260.2844 Q212.1875,261.3469 213.5313,261.3469 Q214.1563,261.3469 214.75,261.0813 Q215.3438,260.8 215.9688,260.2219 L215.9688,262.9406 Z " fill="#000000"/><text fill="#000000" font-family="sans-serif" font-size="14" lengthAdjust="spacing" textLength="72" x="227" y="262.1467">FrameMap</text><line style="stroke:#181818;stroke-width:0.5;" x1="199" x2="301" y1="273.3" y2="273.3"/><line style="stroke:#181818;stroke-width:0.5;" x1="199" x2="301" y1="281.3" y2="281.3"/></g><!--class Main--><g id="elem_Main"><rect codeLine="21" fill="#F1F1F1" height="48" id="Main" rx="2.5" ry="2.5" style="stroke:#181818;stroke-width:0.5;" width="64" x="7" y="241.3"/><ellipse cx="22" cy="257.3" fill="#ADD1B2" rx="11" ry="11" style="stroke:#181818;stroke-width:1.0;"/><path d="M24.9688,262.9406 Q24.3906,263.2375 23.75,263.3781 Q23.1094,263.5344 22.4063,263.5344 Q19.9063,263.5344 18.5781,261.8938 Q17.2656,260.2375 17.2656,257.1125 Q17.2656,253.9875 18.5781,252.3313 Q19.9063,250.675 22.4063,250.675 Q23.1094,250.675 23.75,250.8313 Q24.4063,250.9875 24.9688,251.2844 L24.9688,254.0031 Q24.3438,253.425 23.75,253.1594 Q23.1563,252.8781 22.5313,252.8781 Q21.1875,252.8781 20.5,253.9563 Q19.8125,255.0188 19.8125,257.1125 Q19.8125,259.2063 20.5,260.2844 Q21.1875,261.3469 22.5313,261.3469 Q23.1563,261.3469 23.75,261.0813 Q24.3438,260.8 24.9688,260.2219 L24.9688,262.9406 Z " fill="#000000"/><text fill="#000000" font-family="sans-serif" font-size="14" lengthAdjust="spacing" textLength="32" x="36" y="262.1467">Main</text><line style="stroke:#181818;stroke-width:0.5;" x1="8" x2="70" y1="273.3" y2="273.3"/><line style="stroke:#181818;stroke-width:0.5;" x1="8" x2="70" y1="281.3" y2="281.3"/></g><!--link DltTraceDecoderBase to INonVerboseDltDecoder--><g id="link_DltTraceDecoderBase_INonVerboseDltDecoder"><path codeLine="2" d="M257.86,39.15 C280.9,39.15 306.85,39.15 334.04,39.15 " fill="none" id="DltTraceDecoderBase-to-INonVerboseDltDecoder" style="stroke:#181818;stroke-width:1.0;"/><polygon fill="#181818" points="338.86,39.15,329.86,35.15,333.86,39.15,329.86,43.15,338.86,39.15" style="stroke:#181818;stroke-width:1.0;"/><text fill="#000000" font-family="sans-serif" font-size="13" lengthAdjust="spacing" textLength="46" x="275.75" y="32.2169">&#171;uses&#187;</text></g><!--reverse link DltTraceDecoderBase to NonVerboseDltDecoder--><g id="link_DltTraceDecoderBase_NonVerboseDltDecoder"><path codeLine="3" d="M223.15,69.91 C260.86,89.21 309.3,114 344.26,131.89 " fill="none" id="DltTraceDecoderBase-backto-NonVerboseDltDecoder" style="stroke:#181818;stroke-width:1.0;"/><polygon fill="none" points="211.8,63.59,215.3192,69.8841,222.4826,69.0564,218.9634,62.7624,211.8,63.59" style="stroke:#181818;stroke-width:1.0;"/></g><!--reverse link INonVerboseDltDecoder to NonVerboseByteDecoder--><g id="link_INonVerboseDltDecoder_NonVerboseByteDecoder"><path codeLine="10" d="M628,92.51 C628,106.31 628,120.51 628,131.91 " fill="none" id="INonVerboseDltDecoder-backto-NonVerboseByteDecoder" style="stroke:#181818;stroke-width:1.0;stroke-dasharray:7.0,7.0;"/><polygon fill="none" points="621,92.62,628,72.62,635,92.62,621,92.62" style="stroke:#181818;stroke-width:1.0;"/></g><!--link FrameMap to IFrameMap--><g id="link_FrameMap_IFrameMap"><path codeLine="14" d="M302.23,265.3 C306.56,265.3 310.89,265.3 315.22,265.3 " fill="none" id="FrameMap-to-IFrameMap" style="stroke:#181818;stroke-width:1.0;stroke-dasharray:7.0,7.0;"/><polygon fill="none" points="315.17,258.3,335.17,265.3,315.17,272.3,315.17,258.3" style="stroke:#181818;stroke-width:1.0;"/></g><!--reverse link INonVerboseDltDecoder to NonVerboseDltDecoder--><g id="link_INonVerboseDltDecoder_NonVerboseDltDecoder"><path codeLine="17" d="M544.06,80.76 C508.6,97.92 468.58,117.28 438.22,131.97 " fill="none" id="INonVerboseDltDecoder-backto-NonVerboseDltDecoder" style="stroke:#181818;stroke-width:1.0;stroke-dasharray:7.0,7.0;"/><polygon fill="none" points="540.6,74.18,561.65,71.77,546.7,86.78,540.6,74.18" style="stroke:#181818;stroke-width:1.0;"/></g><!--reverse link NonVerboseDltDecoder to NonVerboseByteDecoder--><g id="link_NonVerboseDltDecoder_NonVerboseByteDecoder"><path codeLine="18" d="M502.33,156.3 C509.27,156.3 516.2,156.3 523.14,156.3 " fill="none" id="NonVerboseDltDecoder-backto-NonVerboseByteDecoder" style="stroke:#181818;stroke-width:1.0;"/><polygon fill="#181818" points="489.55,156.3,495.55,160.3,501.55,156.3,495.55,152.3,489.55,156.3" style="stroke:#181818;stroke-width:1.0;"/></g><!--reverse link NonVerboseDltDecoder to IFrameMap--><g id="link_NonVerboseDltDecoder_IFrameMap"><path codeLine="19" d="M390,194.71 C390,210.07 390,227.36 390,240.87 " fill="none" id="NonVerboseDltDecoder-backto-IFrameMap" style="stroke:#181818;stroke-width:1.0;"/><polygon fill="none" points="390,181.78,386,187.78,390,193.78,394,187.78,390,181.78" style="stroke:#181818;stroke-width:1.0;"/></g><!--link Main to FrameMap--><g id="link_Main_FrameMap"><path codeLine="22" d="M71.05,265.3 C104.59,265.3 157.82,265.3 197.51,265.3 " fill="none" id="Main-FrameMap" style="stroke:#181818;stroke-width:1.0;stroke-dasharray:7.0,7.0;"/><text fill="#000000" font-family="sans-serif" font-size="13" lengthAdjust="spacing" textLength="91" x="89" y="258.3669">&#171;instantiates&#187;</text></g><!--SRC=[ZLBBYiCm3BpxAtHiTvjyG34-XB8Gw0EwI-zAh831TOhj74hRVryxVIHq7LWV399cHYFBjKRdOANzZyMQLbItaco1ZbWY1vdD19JRrXp8LgsZW7cKOGcSTuwS44bccyaCKaJ6bF5acu2VKBum2EVp7iwghcd8Bc5FA7T6dxzFQ7XrzYGMe9MXebDQHa0P9DP3OXufhjEUXtw2tHYh-z67baKGUPfAE-7NNEOJZF4ONnQFjC7JeyKhV1MYaiw7mXyle_VvdvKH8Od_2AkRS9x4z_igtmrkK1aMByZjOB_VlJBEe_4AVVm3lm00]--></g></svg>