<?xml version="1.0" encoding="us-ascii" standalone="no"?><svg xmlns="http://www.w3.org/2000/svg" xmlns:xlink="http://www.w3.org/1999/xlink" contentStyleType="text/css" height="500px" preserveAspectRatio="none" style="width:1335px;height:500px;background:#FFFFFF;" version="1.1" viewBox="0 0 1335 500" width="1335px" zoomAndPan="magnify"><defs/><g><!--class IControlDltDecoder--><g id="elem_IControlDltDecoder"><rect codeLine="1" fill="#F1F1F1" height="64.2969" id="IControlDltDecoder" rx="2.5" ry="2.5" style="stroke:#181818;stroke-width:0.5;" width="576" x="451" y="9.11"/><ellipse cx="668.75" cy="25.11" fill="#B4A7E5" rx="11" ry="11" style="stroke:#181818;stroke-width:1.0;"/><path d="M664.6719,20.8756 L664.6719,18.7194 L672.0625,18.7194 L672.0625,20.8756 L669.5938,20.8756 L669.5938,28.9538 L672.0625,28.9538 L672.0625,31.11 L664.6719,31.11 L664.6719,28.9538 L667.1406,28.9538 L667.1406,20.8756 L664.6719,20.8756 Z " fill="#000000"/><text fill="#000000" font-family="sans-serif" font-size="14" font-style="italic" lengthAdjust="spacing" textLength="132" x="689.25" y="29.9567">IControlDltDecoder</text><line style="stroke:#181818;stroke-width:0.5;" x1="452" x2="1026" y1="41.11" y2="41.11"/><line style="stroke:#181818;stroke-width:0.5;" x1="452" x2="1026" y1="49.11" y2="49.11"/><ellipse cx="462" cy="62.7584" fill="#84BE84" rx="3" ry="3" style="stroke:#038048;stroke-width:1.0;"/><text fill="#000000" font-family="sans-serif" font-size="14" lengthAdjust="spacing" textLength="550" x="471" y="66.1051">Decode(buffer: ReadOnlySpan&lt;byte&gt;, lineBuilder: IDltLineBuilder): Result&lt;int&gt;</text></g><g id="elem_GMN3"><path d="M1062.5,6 L1062.5,37.26 L1027.48,41.26 L1062.5,45.26 L1062.5,76.5313 A0,0 0 0 0 1062.5,76.5313 L1317.5,76.5313 A0,0 0 0 0 1317.5,76.5313 L1317.5,16 L1307.5,6 L1062.5,6 A0,0 0 0 0 1062.5,6 " fill="#FEFFDD" style="stroke:#181818;stroke-width:0.5;"/><path d="M1307.5,6 L1307.5,16 L1317.5,16 L1307.5,6 " fill="#FEFFDD" style="stroke:#181818;stroke-width:0.5;"/><text fill="#000000" font-family="sans-serif" font-size="13" lengthAdjust="spacing" textLength="234" x="1068.5" y="23.0669">Defines the general interface on how</text><text fill="#000000" font-family="sans-serif" font-size="13" lengthAdjust="spacing" textLength="228" x="1068.5" y="38.1997">to decode all control responses and</text><text fill="#000000" font-family="sans-serif" font-size="13" lengthAdjust="spacing" textLength="209" x="1068.5" y="53.3325">requests. The buffer is where the</text><text fill="#000000" font-family="sans-serif" font-size="13" lengthAdjust="spacing" textLength="143" x="1068.5" y="68.4653">control payload starts.</text></g><!--class DltTraceDecoderBase--><g id="elem_DltTraceDecoderBase"><rect codeLine="11" fill="#F1F1F1" height="48" id="DltTraceDecoderBase" rx="2.5" ry="2.5" style="stroke:#181818;stroke-width:0.5;" width="185" x="183.5" y="17.26"/><ellipse cx="198.5" cy="33.26" fill="#ADD1B2" rx="11" ry="11" style="stroke:#181818;stroke-width:1.0;"/><path d="M201.4688,38.9006 Q200.8906,39.1975 200.25,39.3381 Q199.6094,39.4944 198.9063,39.4944 Q196.4063,39.4944 195.0781,37.8537 Q193.7656,36.1975 193.7656,33.0725 Q193.7656,29.9475 195.0781,28.2912 Q196.4063,26.635 198.9063,26.635 Q199.6094,26.635 200.25,26.7912 Q200.9063,26.9475 201.4688,27.2444 L201.4688,29.9631 Q200.8438,29.385 200.25,29.1194 Q199.6563,28.8381 199.0313,28.8381 Q197.6875,28.8381 197,29.9162 Q196.3125,30.9787 196.3125,33.0725 Q196.3125,35.1662 197,36.2444 Q197.6875,37.3069 199.0313,37.3069 Q199.6563,37.3069 200.25,37.0412 Q200.8438,36.76 201.4688,36.1819 L201.4688,38.9006 Z " fill="#000000"/><text fill="#000000" font-family="sans-serif" font-size="14" lengthAdjust="spacing" textLength="153" x="212.5" y="38.1067">DltTraceDecoderBase</text><line style="stroke:#181818;stroke-width:0.5;" x1="184.5" x2="367.5" y1="49.26" y2="49.26"/><line style="stroke:#181818;stroke-width:0.5;" x1="184.5" x2="367.5" y1="57.26" y2="57.26"/></g><!--class ControlDltDecoder--><g id="elem_ControlDltDecoder"><rect codeLine="12" fill="#F1F1F1" height="48" id="ControlDltDecoder" rx="2.5" ry="2.5" style="stroke:#181818;stroke-width:0.5;" width="161" x="658.5" y="163.93"/><ellipse cx="673.5" cy="179.93" fill="#ADD1B2" rx="11" ry="11" style="stroke:#181818;stroke-width:1.0;"/><path d="M676.4688,185.5706 Q675.8906,185.8675 675.25,186.0081 Q674.6094,186.1644 673.9063,186.1644 Q671.4063,186.1644 670.0781,184.5238 Q668.7656,182.8675 668.7656,179.7425 Q668.7656,176.6175 670.0781,174.9613 Q671.4063,173.305 673.9063,173.305 Q674.6094,173.305 675.25,173.4613 Q675.9063,173.6175 676.4688,173.9144 L676.4688,176.6331 Q675.8438,176.055 675.25,175.7894 Q674.6563,175.5081 674.0313,175.5081 Q672.6875,175.5081 672,176.5863 Q671.3125,177.6488 671.3125,179.7425 Q671.3125,181.8363 672,182.9144 Q672.6875,183.9769 674.0313,183.9769 Q674.6563,183.9769 675.25,183.7113 Q675.8438,183.43 676.4688,182.8519 L676.4688,185.5706 Z " fill="#000000"/><text fill="#000000" font-family="sans-serif" font-size="14" lengthAdjust="spacing" textLength="129" x="687.5" y="184.7767">ControlDltDecoder</text><line style="stroke:#181818;stroke-width:0.5;" x1="659.5" x2="818.5" y1="195.93" y2="195.93"/><line style="stroke:#181818;stroke-width:0.5;" x1="659.5" x2="818.5" y1="203.93" y2="203.93"/></g><g id="elem_GMN8"><path d="M322,137.53 L322,238.3269 A0,0 0 0 0 322,238.3269 L624,238.3269 A0,0 0 0 0 624,238.3269 L624,191.93 L658,187.93 L624,183.93 L624,147.53 L614,137.53 L322,137.53 A0,0 0 0 0 322,137.53 " fill="#FEFFDD" style="stroke:#181818;stroke-width:0.5;"/><path d="M614,137.53 L614,147.53 L624,147.53 L614,137.53 " fill="#FEFFDD" style="stroke:#181818;stroke-width:0.5;"/><text fill="#000000" font-family="sans-serif" font-size="13" lengthAdjust="spacing" textLength="281" x="328" y="154.5969">Checks the `lineBuilder` to know the type of</text><text fill="#000000" font-family="sans-serif" font-size="13" lengthAdjust="spacing" textLength="268" x="328" y="169.7297">Dlt Message, which is then used to know if</text><text fill="#000000" font-family="sans-serif" font-size="13" lengthAdjust="spacing" textLength="267" x="328" y="184.8625">this is a request or a response. It gets the</text><text fill="#000000" font-family="sans-serif" font-size="13" lengthAdjust="spacing" textLength="273" x="328" y="199.9953">control payload `IControlArg` and sets this</text><text fill="#000000" font-family="sans-serif" font-size="13" lengthAdjust="spacing" textLength="271" x="328" y="215.1281">to `lineBuilder` that it knows how to return</text><text fill="#000000" font-family="sans-serif" font-size="13" lengthAdjust="spacing" textLength="92" x="328" y="230.261">the entire line.</text></g><!--class IControlArg--><g id="elem_IControlArg"><rect codeLine="25" fill="#F1F1F1" height="64.2969" id="IControlArg" rx="2.5" ry="2.5" style="stroke:#181818;stroke-width:0.5;" width="161" x="1167.5" y="419.01"/><ellipse cx="1206.35" cy="435.01" fill="#B4A7E5" rx="11" ry="11" style="stroke:#181818;stroke-width:1.0;"/><path d="M1202.2719,430.7756 L1202.2719,428.6194 L1209.6625,428.6194 L1209.6625,430.7756 L1207.1938,430.7756 L1207.1938,438.8538 L1209.6625,438.8538 L1209.6625,441.01 L1202.2719,441.01 L1202.2719,438.8538 L1204.7406,438.8538 L1204.7406,430.7756 L1202.2719,430.7756 Z " fill="#000000"/><text fill="#000000" font-family="sans-serif" font-size="14" font-style="italic" lengthAdjust="spacing" textLength="76" x="1225.65" y="439.8567">IControlArg</text><line style="stroke:#181818;stroke-width:0.5;" x1="1168.5" x2="1327.5" y1="451.01" y2="451.01"/><text fill="#000000" font-family="sans-serif" font-size="14" lengthAdjust="spacing" textLength="149" x="1173.5" y="468.0051">DefaultType : DltType</text><line style="stroke:#181818;stroke-width:0.5;" x1="1168.5" x2="1327.5" y1="475.3069" y2="475.3069"/></g><!--class IControlArgDecoder--><g id="elem_IControlArgDecoder"><rect codeLine="29" fill="#F1F1F1" height="64.2969" id="IControlArgDecoder" rx="2.5" ry="2.5" style="stroke:#181818;stroke-width:0.5;" width="656" x="411" y="419.01"/><ellipse cx="666.75" cy="435.01" fill="#B4A7E5" rx="11" ry="11" style="stroke:#181818;stroke-width:1.0;"/><path d="M662.6719,430.7756 L662.6719,428.6194 L670.0625,428.6194 L670.0625,430.7756 L667.5938,430.7756 L667.5938,438.8538 L670.0625,438.8538 L670.0625,441.01 L662.6719,441.01 L662.6719,438.8538 L665.1406,438.8538 L665.1406,430.7756 L662.6719,430.7756 Z " fill="#000000"/><text fill="#000000" font-family="sans-serif" font-size="14" font-style="italic" lengthAdjust="spacing" textLength="136" x="687.25" y="439.8567">IControlArgDecoder</text><line style="stroke:#181818;stroke-width:0.5;" x1="412" x2="1066" y1="451.01" y2="451.01"/><line style="stroke:#181818;stroke-width:0.5;" x1="412" x2="1066" y1="459.01" y2="459.01"/><text fill="#000000" font-family="sans-serif" font-size="14" lengthAdjust="spacing" textLength="644" x="417" y="476.0051">Decode(serviceId: int, buffer: ReadOnlySpan&lt;byte&gt;, [out] service: IControlArg*): Result&lt;int&gt;</text></g><g id="elem_GMN16"><path d="M6,408.33 L6,493.9941 A0,0 0 0 0 6,493.9941 L376,493.9941 A0,0 0 0 0 376,493.9941 L376,455.16 L410.78,451.16 L376,447.16 L376,418.33 L366,408.33 L6,408.33 A0,0 0 0 0 6,408.33 " fill="#FEFFDD" style="stroke:#181818;stroke-width:0.5;"/><path d="M366,408.33 L366,418.33 L376,418.33 L366,408.33 " fill="#FEFFDD" style="stroke:#181818;stroke-width:0.5;"/><text fill="#000000" font-family="sans-serif" font-size="13" lengthAdjust="spacing" textLength="330" x="12" y="425.3969">Each instance knows how to decode a single control</text><text fill="#000000" font-family="sans-serif" font-size="13" lengthAdjust="spacing" textLength="90" x="12" y="440.5297">message. The</text><text fill="#000000" font-family="sans-serif" font-size="13" font-style="italic" lengthAdjust="spacing" textLength="56" x="106" y="440.5297">serviceId</text><text fill="#000000" font-family="sans-serif" font-size="13" lengthAdjust="spacing" textLength="176" x="166" y="440.5297">is already known to find this</text><text fill="#000000" font-family="sans-serif" font-size="13" lengthAdjust="spacing" textLength="349" x="12" y="455.6625">instance. On return it provides a new control message.</text><text fill="#000000" font-family="sans-serif" font-size="13" lengthAdjust="spacing" textLength="59" x="12" y="470.7953">The input</text><text fill="#000000" font-family="sans-serif" font-size="13" font-style="italic" lengthAdjust="spacing" textLength="37" x="75" y="470.7953">buffer</text><text fill="#000000" font-family="sans-serif" font-size="13" lengthAdjust="spacing" textLength="224" x="116" y="470.7953">points to the payload of the control</text><text fill="#000000" font-family="sans-serif" font-size="13" lengthAdjust="spacing" textLength="63" x="12" y="485.9281">message.</text></g><!--class ControlRequestDecoder--><g id="elem_ControlRequestDecoder"><rect codeLine="40" fill="#F1F1F1" height="48" id="ControlRequestDecoder" rx="2.5" ry="2.5" style="stroke:#181818;stroke-width:0.5;" width="201" x="493.5" y="299.33"/><ellipse cx="508.5" cy="315.33" fill="#ADD1B2" rx="11" ry="11" style="stroke:#181818;stroke-width:1.0;"/><path d="M511.4688,320.9706 Q510.8906,321.2675 510.25,321.4081 Q509.6094,321.5644 508.9063,321.5644 Q506.4063,321.5644 505.0781,319.9238 Q503.7656,318.2675 503.7656,315.1425 Q503.7656,312.0175 505.0781,310.3613 Q506.4063,308.705 508.9063,308.705 Q509.6094,308.705 510.25,308.8613 Q510.9063,309.0175 511.4688,309.3144 L511.4688,312.0331 Q510.8438,311.455 510.25,311.1894 Q509.6563,310.9081 509.0313,310.9081 Q507.6875,310.9081 507,311.9863 Q506.3125,313.0488 506.3125,315.1425 Q506.3125,317.2363 507,318.3144 Q507.6875,319.3769 509.0313,319.3769 Q509.6563,319.3769 510.25,319.1113 Q510.8438,318.83 511.4688,318.2519 L511.4688,320.9706 Z " fill="#000000"/><text fill="#000000" font-family="sans-serif" font-size="14" lengthAdjust="spacing" textLength="169" x="522.5" y="320.1767">ControlRequestDecoder</text><line style="stroke:#181818;stroke-width:0.5;" x1="494.5" x2="693.5" y1="331.33" y2="331.33"/><line style="stroke:#181818;stroke-width:0.5;" x1="494.5" x2="693.5" y1="339.33" y2="339.33"/></g><!--class ControlResponseDecoder--><g id="elem_ControlResponseDecoder"><rect codeLine="41" fill="#F1F1F1" height="48" id="ControlResponseDecoder" rx="2.5" ry="2.5" style="stroke:#181818;stroke-width:0.5;" width="213" x="729.5" y="299.33"/><ellipse cx="744.5" cy="315.33" fill="#ADD1B2" rx="11" ry="11" style="stroke:#181818;stroke-width:1.0;"/><path d="M747.4688,320.9706 Q746.8906,321.2675 746.25,321.4081 Q745.6094,321.5644 744.9063,321.5644 Q742.4063,321.5644 741.0781,319.9238 Q739.7656,318.2675 739.7656,315.1425 Q739.7656,312.0175 741.0781,310.3613 Q742.4063,308.705 744.9063,308.705 Q745.6094,308.705 746.25,308.8613 Q746.9063,309.0175 747.4688,309.3144 L747.4688,312.0331 Q746.8438,311.455 746.25,311.1894 Q745.6563,310.9081 745.0313,310.9081 Q743.6875,310.9081 743,311.9863 Q742.3125,313.0488 742.3125,315.1425 Q742.3125,317.2363 743,318.3144 Q743.6875,319.3769 745.0313,319.3769 Q745.6563,319.3769 746.25,319.1113 Q746.8438,318.83 747.4688,318.2519 L747.4688,320.9706 Z " fill="#000000"/><text fill="#000000" font-family="sans-serif" font-size="14" lengthAdjust="spacing" textLength="181" x="758.5" y="320.1767">ControlResponseDecoder</text><line style="stroke:#181818;stroke-width:0.5;" x1="730.5" x2="941.5" y1="331.33" y2="331.33"/><line style="stroke:#181818;stroke-width:0.5;" x1="730.5" x2="941.5" y1="339.33" y2="339.33"/></g><!--link DltTraceDecoderBase to IControlDltDecoder--><g id="link_DltTraceDecoderBase_IControlDltDecoder"><path codeLine="22" d="M368.86,41.26 C391.9,41.26 417.85,41.26 445.04,41.26 " fill="none" id="DltTraceDecoderBase-to-IControlDltDecoder" style="stroke:#181818;stroke-width:1.0;"/><polygon fill="#181818" points="449.86,41.26,440.86,37.26,444.86,41.26,440.86,45.26,449.86,41.26" style="stroke:#181818;stroke-width:1.0;"/><text fill="#000000" font-family="sans-serif" font-size="13" lengthAdjust="spacing" textLength="46" x="386.75" y="34.3269">&#171;uses&#187;</text></g><!--reverse link IControlDltDecoder to ControlDltDecoder--><g id="link_IControlDltDecoder_ControlDltDecoder"><path codeLine="23" d="M739,94.62 C739,118.3 739,145.07 739,163.67 " fill="none" id="IControlDltDecoder-backto-ControlDltDecoder" style="stroke:#181818;stroke-width:1.0;stroke-dasharray:7.0,7.0;"/><polygon fill="none" points="732,94.65,739,74.65,746,94.65,732,94.65" style="stroke:#181818;stroke-width:1.0;"/></g><!--reverse link ControlRequestDecoder to IControlArgDecoder--><g id="link_ControlRequestDecoder_IControlArgDecoder"><path codeLine="43" d="M631.5,356.87 C653.41,375.88 680.93,399.77 702.64,418.61 " fill="none" id="ControlRequestDecoder-backto-IControlArgDecoder" style="stroke:#181818;stroke-width:1.0;"/><polygon fill="#181818" points="621.93,347.7,623.846,354.6519,631,355.5572,629.0841,348.6052,621.93,347.7" style="stroke:#181818;stroke-width:1.0;"/><text fill="#000000" font-family="sans-serif" font-size="13" lengthAdjust="spacing" textLength="8" x="618.5192" y="367.5514">1</text><text fill="#000000" font-family="sans-serif" font-size="13" lengthAdjust="spacing" textLength="23" x="670.5167" y="408.0553">1..*</text></g><!--reverse link ControlResponseDecoder to IControlArgDecoder--><g id="link_ControlResponseDecoder_IControlArgDecoder"><path codeLine="44" d="M809.46,358.75 C794.99,377.52 777.22,400.58 763.14,418.84 " fill="none" id="ControlResponseDecoder-backto-IControlArgDecoder" style="stroke:#181818;stroke-width:1.0;"/><polygon fill="#181818" points="817.98,348.7,811.1505,351.0146,810.6603,358.209,817.4898,355.8944,817.98,348.7" style="stroke:#181818;stroke-width:1.0;"/><text fill="#000000" font-family="sans-serif" font-size="13" lengthAdjust="spacing" textLength="8" x="804.6126" y="367.5514">1</text><text fill="#000000" font-family="sans-serif" font-size="13" lengthAdjust="spacing" textLength="23" x="742.747" y="407.708">1..*</text></g><!--reverse link ControlDltDecoder to ControlRequestDecoder--><g id="link_ControlDltDecoder_ControlRequestDecoder"><path codeLine="46" d="M703.53,221.56 C677.5,245.5 642.77,277.46 619.45,298.91 " fill="none" id="ControlDltDecoder-backto-ControlRequestDecoder" style="stroke:#181818;stroke-width:1.0;"/><polygon fill="#181818" points="712.74,213.16,705.6167,214.2816,703.9122,221.2884,711.0356,220.1668,712.74,213.16" style="stroke:#181818;stroke-width:1.0;"/></g><!--reverse link ControlDltDecoder to ControlResponseDecoder--><g id="link_ControlDltDecoder_ControlResponseDecoder"><path codeLine="47" d="M763.9,223.17 C781.17,246.92 803.72,277.94 818.97,298.91 " fill="none" id="ControlDltDecoder-backto-ControlResponseDecoder" style="stroke:#181818;stroke-width:1.0;"/><polygon fill="#181818" points="755.9,213.16,756.1923,220.3652,762.9557,222.8665,762.6634,215.6614,755.9,213.16" style="stroke:#181818;stroke-width:1.0;"/></g><!--link IControlArgDecoder to IControlArg--><g id="link_IControlArgDecoder_IControlArg"><path codeLine="49" d="M1067.47,451.16 C1101.72,451.16 1134.01,451.16 1161.55,451.16 " fill="none" id="IControlArgDecoder-to-IControlArg" style="stroke:#181818;stroke-width:1.0;stroke-dasharray:7.0,7.0;"/><polygon fill="#181818" points="1166.35,451.16,1157.35,447.16,1161.35,451.16,1157.35,455.16,1166.35,451.16" style="stroke:#181818;stroke-width:1.0;"/><text fill="#000000" font-family="sans-serif" font-size="13" lengthAdjust="spacing" textLength="64" x="1085.25" y="444.2269">&#171;creates&#187;</text></g><!--SRC=[ZLDDRzim3BtxLn0zRLdYOTSWCB0sEmJOKA3BRHWGrQ9ZePhaINI3ODj_7oNPRZwq3yC7o-8Z7nyVbI5qZQWHDdVMaBDwhMcDjPNeu4S1_Bn9nrUFVTEWMy832dblzF5p9ypgyKXOpK4hWxUzqZ84R3Z5nvSVhmF4zvfMob1L_2gC9GIdzYt5_6jiEDW3jGXxDEY41ZNHiWPQUuY1P456AY2qXZhH1OU-iyPp0c5aZ7FulKTFleGjfqoqGNaujEWmb8bH8xuJHss514_2CQP08o4mB8fQ2- -1czawPZA8SYiy3ZTNWgNED3QfiRiMwwVKr-v4e5revCdOGxoXOyTDDaa9JV09lHTxd3DRLRU1DaSPw3tA2QTIEBLyowyOEmRhuY49KiA6M53oVsnvDyxylTllWdpWKxZoe-0Nn5j1e2Yoy64k8SGXzSuCZ13Ga6AP0-vKp8oCi72BAkUx9QnMtB2lgkBwikpBdpbKKQWhBtDVWudPP88jk0rgB-DC-Okzc0UTBy3WVu_kMTMuaSjWppdyRH- -s9w-me1OdgQUvTTXCiq74QPks8s6EPq9FPeVl39xZUCu8-nRiaso_4fL4zdLMrL5asZ7F8ynemdPUEdaowZ7YYNScs6YOT2TiyzAXjq2WuV9G6Er20qLbUbw2dMJAB5ePxb17qe5MuoUiqqyvhXVhTwWsaDozpZdYxjazia4MGpSlBk1sK8k-ACiPpUPMHVvXF-3p9Wq8lBq_nLyqK_6bQKhgpEBXtsfURmKLkOt]--></g></svg>