<?xml version="1.0" encoding="us-ascii" standalone="no"?><svg xmlns="http://www.w3.org/2000/svg" xmlns:xlink="http://www.w3.org/1999/xlink" contentStyleType="text/css" height="551px" preserveAspectRatio="none" style="width:1029px;height:551px;background:#FFFFFF;" version="1.1" viewBox="0 0 1029 551" width="1029px" zoomAndPan="magnify"><defs/><g><g id="cluster_##5"><rect fill="none" height="80" rx="2.5" ry="2.5" style="stroke:#181818;stroke-width:1.0;" width="364" x="7" y="134.59"/></g><g id="cluster_##11"><rect fill="none" height="298" rx="2.5" ry="2.5" style="stroke:#181818;stroke-width:1.0;" width="396" x="254" y="247.59"/></g><!--class FibexOptions--><g id="elem_FibexOptions"><rect codeLine="17" fill="#F1F1F1" height="48" id="FibexOptions" rx="2.5" ry="2.5" style="stroke:#181818;stroke-width:0.5;" width="122" x="23" y="150.59"/><ellipse cx="38" cy="166.59" fill="#ADD1B2" rx="11" ry="11" style="stroke:#181818;stroke-width:1.0;"/><path d="M40.9688,172.2306 Q40.3906,172.5275 39.75,172.6681 Q39.1094,172.8244 38.4063,172.8244 Q35.9063,172.8244 34.5781,171.1838 Q33.2656,169.5275 33.2656,166.4025 Q33.2656,163.2775 34.5781,161.6213 Q35.9063,159.965 38.4063,159.965 Q39.1094,159.965 39.75,160.1213 Q40.4063,160.2775 40.9688,160.5744 L40.9688,163.2931 Q40.3438,162.715 39.75,162.4494 Q39.1563,162.1681 38.5313,162.1681 Q37.1875,162.1681 36.5,163.2463 Q35.8125,164.3088 35.8125,166.4025 Q35.8125,168.4963 36.5,169.5744 Q37.1875,170.6369 38.5313,170.6369 Q39.1563,170.6369 39.75,170.3713 Q40.3438,170.09 40.9688,169.5119 L40.9688,172.2306 Z " fill="#000000"/><text fill="#000000" font-family="sans-serif" font-size="14" lengthAdjust="spacing" textLength="90" x="52" y="171.4367">FibexOptions</text><line style="stroke:#181818;stroke-width:0.5;" x1="24" x2="144" y1="182.59" y2="182.59"/><line style="stroke:#181818;stroke-width:0.5;" x1="24" x2="144" y1="190.59" y2="190.59"/></g><!--class FibexFile--><g id="elem_FibexFile"><rect codeLine="18" fill="#F1F1F1" height="48" id="FibexFile" rx="2.5" ry="2.5" style="stroke:#181818;stroke-width:0.5;" width="91" x="263.5" y="150.59"/><ellipse cx="278.5" cy="166.59" fill="#ADD1B2" rx="11" ry="11" style="stroke:#181818;stroke-width:1.0;"/><path d="M281.4688,172.2306 Q280.8906,172.5275 280.25,172.6681 Q279.6094,172.8244 278.9063,172.8244 Q276.4063,172.8244 275.0781,171.1838 Q273.7656,169.5275 273.7656,166.4025 Q273.7656,163.2775 275.0781,161.6213 Q276.4063,159.965 278.9063,159.965 Q279.6094,159.965 280.25,160.1213 Q280.9063,160.2775 281.4688,160.5744 L281.4688,163.2931 Q280.8438,162.715 280.25,162.4494 Q279.6563,162.1681 279.0313,162.1681 Q277.6875,162.1681 277,163.2463 Q276.3125,164.3088 276.3125,166.4025 Q276.3125,168.4963 277,169.5744 Q277.6875,170.6369 279.0313,170.6369 Q279.6563,170.6369 280.25,170.3713 Q280.8438,170.09 281.4688,169.5119 L281.4688,172.2306 Z " fill="#000000"/><text fill="#000000" font-family="sans-serif" font-size="14" lengthAdjust="spacing" textLength="59" x="292.5" y="171.4367">FibexFile</text><line style="stroke:#181818;stroke-width:0.5;" x1="264.5" x2="353.5" y1="182.59" y2="182.59"/><line style="stroke:#181818;stroke-width:0.5;" x1="264.5" x2="353.5" y1="190.59" y2="190.59"/></g><!--class FrameMapSimple--><g id="elem_FrameMapSimple"><rect codeLine="24" fill="#F1F1F1" height="48" id="FrameMapSimple" rx="2.5" ry="2.5" style="stroke:#181818;stroke-width:0.5;" width="150" x="324" y="481.59"/><ellipse cx="339" cy="497.59" fill="#ADD1B2" rx="11" ry="11" style="stroke:#181818;stroke-width:1.0;"/><path d="M341.9688,503.2306 Q341.3906,503.5275 340.75,503.6681 Q340.1094,503.8244 339.4063,503.8244 Q336.9063,503.8244 335.5781,502.1838 Q334.2656,500.5275 334.2656,497.4025 Q334.2656,494.2775 335.5781,492.6213 Q336.9063,490.965 339.4063,490.965 Q340.1094,490.965 340.75,491.1213 Q341.4063,491.2775 341.9688,491.5744 L341.9688,494.2931 Q341.3438,493.715 340.75,493.4494 Q340.1563,493.1681 339.5313,493.1681 Q338.1875,493.1681 337.5,494.2463 Q336.8125,495.3088 336.8125,497.4025 Q336.8125,499.4963 337.5,500.5744 Q338.1875,501.6369 339.5313,501.6369 Q340.1563,501.6369 340.75,501.3713 Q341.3438,501.09 341.9688,500.5119 L341.9688,503.2306 Z " fill="#000000"/><text fill="#000000" font-family="sans-serif" font-size="14" lengthAdjust="spacing" textLength="118" x="353" y="502.4367">FrameMapSimple</text><line style="stroke:#181818;stroke-width:0.5;" x1="325" x2="473" y1="513.59" y2="513.59"/><line style="stroke:#181818;stroke-width:0.5;" x1="325" x2="473" y1="521.59" y2="521.59"/></g><!--class FrameMapDefault--><g id="elem_FrameMapDefault"><rect codeLine="27" fill="#F1F1F1" height="48" id="FrameMapDefault" rx="2.5" ry="2.5" style="stroke:#181818;stroke-width:0.5;" width="153" x="270.5" y="372.59"/><ellipse cx="285.5" cy="388.59" fill="#ADD1B2" rx="11" ry="11" style="stroke:#181818;stroke-width:1.0;"/><path d="M288.4688,394.2306 Q287.8906,394.5275 287.25,394.6681 Q286.6094,394.8244 285.9063,394.8244 Q283.4063,394.8244 282.0781,393.1838 Q280.7656,391.5275 280.7656,388.4025 Q280.7656,385.2775 282.0781,383.6213 Q283.4063,381.965 285.9063,381.965 Q286.6094,381.965 287.25,382.1213 Q287.9063,382.2775 288.4688,382.5744 L288.4688,385.2931 Q287.8438,384.715 287.25,384.4494 Q286.6563,384.1681 286.0313,384.1681 Q284.6875,384.1681 284,385.2463 Q283.3125,386.3088 283.3125,388.4025 Q283.3125,390.4963 284,391.5744 Q284.6875,392.6369 286.0313,392.6369 Q286.6563,392.6369 287.25,392.3713 Q287.8438,392.09 288.4688,391.5119 L288.4688,394.2306 Z " fill="#000000"/><text fill="#000000" font-family="sans-serif" font-size="14" lengthAdjust="spacing" textLength="121" x="299.5" y="393.4367">FrameMapDefault</text><line style="stroke:#181818;stroke-width:0.5;" x1="271.5" x2="422.5" y1="404.59" y2="404.59"/><line style="stroke:#181818;stroke-width:0.5;" x1="271.5" x2="422.5" y1="412.59" y2="412.59"/></g><!--class FrameMapEcu--><g id="elem_FrameMapEcu"><rect codeLine="31" fill="#F1F1F1" height="48" id="FrameMapEcu" rx="2.5" ry="2.5" style="stroke:#181818;stroke-width:0.5;" width="130" x="362" y="263.59"/><ellipse cx="377" cy="279.59" fill="#ADD1B2" rx="11" ry="11" style="stroke:#181818;stroke-width:1.0;"/><path d="M379.9688,285.2306 Q379.3906,285.5275 378.75,285.6681 Q378.1094,285.8244 377.4063,285.8244 Q374.9063,285.8244 373.5781,284.1838 Q372.2656,282.5275 372.2656,279.4025 Q372.2656,276.2775 373.5781,274.6213 Q374.9063,272.965 377.4063,272.965 Q378.1094,272.965 378.75,273.1213 Q379.4063,273.2775 379.9688,273.5744 L379.9688,276.2931 Q379.3438,275.715 378.75,275.4494 Q378.1563,275.1681 377.5313,275.1681 Q376.1875,275.1681 375.5,276.2463 Q374.8125,277.3088 374.8125,279.4025 Q374.8125,281.4963 375.5,282.5744 Q376.1875,283.6369 377.5313,283.6369 Q378.1563,283.6369 378.75,283.3713 Q379.3438,283.09 379.9688,282.5119 L379.9688,285.2306 Z " fill="#000000"/><text fill="#000000" font-family="sans-serif" font-size="14" lengthAdjust="spacing" textLength="98" x="391" y="284.4367">FrameMapEcu</text><line style="stroke:#181818;stroke-width:0.5;" x1="363" x2="491" y1="295.59" y2="295.59"/><line style="stroke:#181818;stroke-width:0.5;" x1="363" x2="491" y1="303.59" y2="303.59"/></g><!--class FrameMapEcuSimple--><g id="elem_FrameMapEcuSimple"><rect codeLine="35" fill="#F1F1F1" height="48" id="FrameMapEcuSimple" rx="2.5" ry="2.5" style="stroke:#181818;stroke-width:0.5;" width="176" x="458" y="372.59"/><ellipse cx="473" cy="388.59" fill="#ADD1B2" rx="11" ry="11" style="stroke:#181818;stroke-width:1.0;"/><path d="M475.9688,394.2306 Q475.3906,394.5275 474.75,394.6681 Q474.1094,394.8244 473.4063,394.8244 Q470.9063,394.8244 469.5781,393.1838 Q468.2656,391.5275 468.2656,388.4025 Q468.2656,385.2775 469.5781,383.6213 Q470.9063,381.965 473.4063,381.965 Q474.1094,381.965 474.75,382.1213 Q475.4063,382.2775 475.9688,382.5744 L475.9688,385.2931 Q475.3438,384.715 474.75,384.4494 Q474.1563,384.1681 473.5313,384.1681 Q472.1875,384.1681 471.5,385.2463 Q470.8125,386.3088 470.8125,388.4025 Q470.8125,390.4963 471.5,391.5744 Q472.1875,392.6369 473.5313,392.6369 Q474.1563,392.6369 474.75,392.3713 Q475.3438,392.09 475.9688,391.5119 L475.9688,394.2306 Z " fill="#000000"/><text fill="#000000" font-family="sans-serif" font-size="14" lengthAdjust="spacing" textLength="144" x="487" y="393.4367">FrameMapEcuSimple</text><line style="stroke:#181818;stroke-width:0.5;" x1="459" x2="633" y1="404.59" y2="404.59"/><line style="stroke:#181818;stroke-width:0.5;" x1="459" x2="633" y1="412.59" y2="412.59"/></g><!--class IFrame--><g id="elem_IFrame"><rect codeLine="3" fill="#F1F1F1" height="48" id="IFrame" rx="2.5" ry="2.5" style="stroke:#181818;stroke-width:0.5;" width="78" x="944" y="23.29"/><ellipse cx="959" cy="39.29" fill="#B4A7E5" rx="11" ry="11" style="stroke:#181818;stroke-width:1.0;"/><path d="M954.9219,35.0556 L954.9219,32.8994 L962.3125,32.8994 L962.3125,35.0556 L959.8438,35.0556 L959.8438,43.1338 L962.3125,43.1338 L962.3125,45.29 L954.9219,45.29 L954.9219,43.1338 L957.3906,43.1338 L957.3906,35.0556 L954.9219,35.0556 Z " fill="#000000"/><text fill="#000000" font-family="sans-serif" font-size="14" font-style="italic" lengthAdjust="spacing" textLength="46" x="973" y="44.1367">IFrame</text><line style="stroke:#181818;stroke-width:0.5;" x1="945" x2="1021" y1="55.29" y2="55.29"/><line style="stroke:#181818;stroke-width:0.5;" x1="945" x2="1021" y1="63.29" y2="63.29"/></g><!--class IFrameMap--><g id="elem_IFrameMap"><rect codeLine="4" fill="#F1F1F1" height="80.5938" id="IFrameMap" rx="2.5" ry="2.5" style="stroke:#181818;stroke-width:0.5;" width="602" x="244" y="7"/><ellipse cx="503.25" cy="23" fill="#B4A7E5" rx="11" ry="11" style="stroke:#181818;stroke-width:1.0;"/><path d="M499.1719,18.7656 L499.1719,16.6094 L506.5625,16.6094 L506.5625,18.7656 L504.0938,18.7656 L504.0938,26.8438 L506.5625,26.8438 L506.5625,29 L499.1719,29 L499.1719,26.8438 L501.6406,26.8438 L501.6406,18.7656 L499.1719,18.7656 Z " fill="#000000"/><text fill="#000000" font-family="sans-serif" font-size="14" font-style="italic" lengthAdjust="spacing" textLength="75" x="523.75" y="27.8467">IFrameMap</text><line style="stroke:#181818;stroke-width:0.5;" x1="245" x2="845" y1="39" y2="39"/><line style="stroke:#181818;stroke-width:0.5;" x1="245" x2="845" y1="47" y2="47"/><ellipse cx="255" cy="60.6484" fill="#84BE84" rx="3" ry="3" style="stroke:#038048;stroke-width:1.0;"/><text fill="#000000" font-family="sans-serif" font-size="14" lengthAdjust="spacing" textLength="447" x="264" y="63.9951">GetFrame(id: int, appId: string, ctxId: string, ecuId: string): IFrame</text><ellipse cx="255" cy="76.9453" fill="#84BE84" rx="3" ry="3" style="stroke:#038048;stroke-width:1.0;"/><text fill="#000000" font-family="sans-serif" font-size="14" lengthAdjust="spacing" textLength="576" x="264" y="80.292">TryGetFrame(id: int, appId: string, ctxId: string, ecuId: string, out IFrame frame): bool</text></g><!--link IFrameMap to IFrame--><g id="link_IFrameMap_IFrame"><path codeLine="9" d="M846.22,47.29 C884.59,47.29 919.02,47.29 943.74,47.29 " fill="none" id="IFrameMap-IFrame" style="stroke:#181818;stroke-width:1.0;"/><text fill="#000000" font-family="sans-serif" font-size="13" lengthAdjust="spacing" textLength="62" x="864" y="40.3569">&#171;returns&#187;</text></g><!--reverse link IFrameMap to FibexFile--><g id="link_IFrameMap_FibexFile"><path codeLine="19" d="M452.25,97.54 C418.05,115.69 380.88,135.43 352.97,150.24 " fill="none" id="IFrameMap-backto-FibexFile" style="stroke:#181818;stroke-width:1.0;stroke-dasharray:7.0,7.0;"/><polygon fill="none" points="448.38,91.13,469.33,87.94,454.95,103.5,448.38,91.13" style="stroke:#181818;stroke-width:1.0;"/></g><!--link FibexOptions to FibexFile--><g id="link_FibexOptions_FibexFile"><path codeLine="20" d="M145.48,174.59 C180.66,174.59 224.28,174.59 257.62,174.59 " fill="none" id="FibexOptions-to-FibexFile" style="stroke:#181818;stroke-width:1.0;"/><polygon fill="#181818" points="262.3,174.59,253.3,170.59,257.3,174.59,253.3,178.59,262.3,174.59" style="stroke:#181818;stroke-width:1.0;"/><text fill="#000000" font-family="sans-serif" font-size="13" lengthAdjust="spacing" textLength="82" x="163.25" y="167.6569">&#171;configures&#187;</text></g><!--reverse link IFrameMap to FrameMapSimple--><g id="link_IFrameMap_FrameMapSimple"><path codeLine="25" d="M646.24,100.32 C669.22,119.41 687,143.8 687,173.59 C687,173.59 687,173.59 687,397.59 C687,443 559.62,475.33 474.29,491.9 " fill="none" id="IFrameMap-backto-FrameMapSimple" style="stroke:#181818;stroke-width:1.0;stroke-dasharray:7.0,7.0;"/><polygon fill="none" points="642.5,105.52,630.65,87.95,650.87,94.3,642.5,105.52" style="stroke:#181818;stroke-width:1.0;"/></g><!--reverse link IFrameMap to FrameMapDefault--><g id="link_IFrameMap_FrameMapDefault"><path codeLine="28" d="M552.02,108.88 C555.43,166.25 551.81,252.21 510,311.59 C489.38,340.87 455.4,360.64 423.79,373.6 " fill="none" id="IFrameMap-backto-FrameMapDefault" style="stroke:#181818;stroke-width:1.0;stroke-dasharray:7.0,7.0;"/><polygon fill="none" points="544.97,109.52,550.39,89.04,558.93,108.43,544.97,109.52" style="stroke:#181818;stroke-width:1.0;"/></g><!--reverse link FrameMapDefault to FrameMapSimple--><g id="link_FrameMapDefault_FrameMapSimple"><path codeLine="29" d="M364.49,433.59 C372.12,449.28 380.85,467.24 387.61,481.16 " fill="none" id="FrameMapDefault-backto-FrameMapSimple" style="stroke:#181818;stroke-width:1.0;"/><polygon fill="#181818" points="358.41,422.07,357.4277,429.2139,363.6443,432.8682,364.6266,425.7243,358.41,422.07" style="stroke:#181818;stroke-width:1.0;"/></g><!--reverse link IFrameMap to FrameMapEcu--><g id="link_IFrameMap_FrameMapEcu"><path codeLine="32" d="M516.2,106.46 C491.26,156.82 456.46,227.09 438.6,263.17 " fill="none" id="IFrameMap-backto-FrameMapEcu" style="stroke:#181818;stroke-width:1.0;stroke-dasharray:7.0,7.0;"/><polygon fill="none" points="510.23,103.73,525.38,88.91,522.78,109.94,510.23,103.73" style="stroke:#181818;stroke-width:1.0;"/></g><!--reverse link FrameMapEcu to FrameMapDefault--><g id="link_FrameMapEcu_FrameMapDefault"><path codeLine="33" d="M401.14,323.18 C389.16,339.2 375.24,357.82 364.52,372.16 " fill="none" id="FrameMapEcu-backto-FrameMapDefault" style="stroke:#181818;stroke-width:1.0;"/><polygon fill="#181818" points="409.44,313.07,402.6421,315.476,402.2484,322.6763,409.0463,320.2703,409.44,313.07" style="stroke:#181818;stroke-width:1.0;"/></g><!--reverse link IFrameMap to FrameMapEcuSimple--><g id="link_IFrameMap_FrameMapEcuSimple"><path codeLine="36" d="M568.85,107.79 C569.68,111.07 570.41,114.35 571,117.59 C588.85,215.98 592.86,245.01 571,342.59 C568.73,352.72 564.3,363.19 559.79,372.12 " fill="none" id="IFrameMap-backto-FrameMapEcuSimple" style="stroke:#181818;stroke-width:1.0;stroke-dasharray:7.0,7.0;"/><polygon fill="none" points="561.92,110.08,562.63,88.91,575.28,105.91,561.92,110.08" style="stroke:#181818;stroke-width:1.0;"/></g><!--reverse link FrameMapEcuSimple to FrameMapSimple--><g id="link_FrameMapEcuSimple_FrameMapSimple"><path codeLine="37" d="M502.6,429.18 C479.72,445.83 452.14,465.91 431.18,481.16 " fill="none" id="FrameMapEcuSimple-backto-FrameMapSimple" style="stroke:#181818;stroke-width:1.0;"/><polygon fill="#181818" points="512.74,421.07,505.5351,421.3687,503.0397,428.1343,510.2446,427.8356,512.74,421.07" style="stroke:#181818;stroke-width:1.0;"/></g><!--reverse link FibexFile to FrameMapDefault--><g id="link_FibexFile_FrameMapDefault"><path codeLine="40" d="M289.43,211.19 C286.77,217.48 284.46,224.1 283,230.59 C272.1,279.16 261.82,297.54 283,342.59 C288.46,354.21 297.86,364.15 307.8,372.19 " fill="none" id="FibexFile-backto-FrameMapDefault" style="stroke:#181818;stroke-width:1.0;"/><polygon fill="#181818" points="295.21,199.86,289.0425,203.5966,290.1195,210.7268,296.287,206.9902,295.21,199.86" style="stroke:#181818;stroke-width:1.0;"/></g><!--reverse link FibexFile to FrameMapSimple--><g id="link_FibexFile_FrameMapSimple"><path codeLine="41" d="M278.48,209.77 C271.93,218.88 265.83,229.12 262,239.59 C234.34,315.24 212.68,350.87 253,420.59 C269.18,448.56 298.59,468.04 326.8,481.14 " fill="none" id="FibexFile-backto-FrameMapSimple" style="stroke:#181818;stroke-width:1.0;"/><polygon fill="#181818" points="286.89,199.9,280.0569,202.2041,279.5556,209.3977,286.3887,207.0937,286.89,199.9" style="stroke:#181818;stroke-width:1.0;"/></g><!--reverse link FibexFile to FrameMapEcu--><g id="link_FibexFile_FrameMapEcu"><path codeLine="42" d="M343.71,208.24 C362.52,225.93 385.31,247.37 402.3,263.35 " fill="none" id="FibexFile-backto-FrameMapEcu" style="stroke:#181818;stroke-width:1.0;"/><polygon fill="#181818" points="334.74,199.86,336.3734,206.8837,343.485,208.0774,341.8516,201.0537,334.74,199.86" style="stroke:#181818;stroke-width:1.0;"/></g><!--reverse link FibexFile to FrameMapEcuSimple--><g id="link_FibexFile_FrameMapEcuSimple"><path codeLine="43" d="M309.75,212.56 C312.24,242.52 320.19,284.12 344,311.59 C373.05,345.09 417.61,365.51 457.5,377.81 " fill="none" id="FibexFile-backto-FrameMapEcuSimple" style="stroke:#181818;stroke-width:1.0;"/><polygon fill="#181818" points="308.93,199.9,305.2997,206.1306,309.6547,211.8781,313.2851,205.6475,308.93,199.9" style="stroke:#181818;stroke-width:1.0;"/></g><!--SRC=[fL7DKeCm4BxdAVRcN-41c0udhTE3uq5V80rBpPWcp2QPubZVtOIcKYZeGGuCkzz-FxjmfSn-9rkfjun9xP1gBX3MA-8xl6WyyGO-6OJdxX5TrxgMLG5XRW6yQTRXspeAOWiGhZqlKVY-l2bE3ftMAttyIsu1nhka27Ly1uEDCOfzCTOdpoWx3HMmN18wJzgM9MFsNUg61mG8XUDwgp3jURKnL249emo18wvjc4FjEj2-yShiGm2ekR8OtSPyeRYri98RR9yR9ussu_PAgkCP-g3BGrxb8_HS8cvIzdYtZJ2wbbjF61UQ3v8iNkIkEGaFMf3xF3-KVHWsmRx7cdlb1lJKk-HF3TrcLJQACc7p8Fo07UhVvUD0bBu8EYq-SOIVxfz6QMnWbmJ3zVj_Cvbd1axy6JIUOnuwShy1]--></g></svg>