<?xml version="1.0" encoding="UTF-8" standalone="no"?><svg xmlns="http://www.w3.org/2000/svg" xmlns:xlink="http://www.w3.org/1999/xlink" contentScriptType="application/ecmascript" contentStyleType="text/css" height="764px" preserveAspectRatio="none" style="width:1680px;height:764px;background:#FFFFFF;" version="1.1" viewBox="0 0 1680 764" width="1680px" zoomAndPan="magnify"><defs><filter height="300%" id="fdquckbqtjbao" width="300%" x="-1" y="-1"><feGaussianBlur result="blurOut" stdDeviation="2.0"/><feColorMatrix in="blurOut" result="blurOut2" type="matrix" values="0 0 0 0 0 0 0 0 0 0 0 0 0 0 0 0 0 0 .4 0"/><feOffset dx="4.0" dy="4.0" in="blurOut2" result="blurOut3"/><feBlend in="SourceGraphic" in2="blurOut3" mode="normal"/></filter></defs><g><!--MD5=[fe7b3ef51e0cd6a8ec610beb9768dea6]
cluster Arguments--><polygon fill="#FFFFFF" filter="url(#fdquckbqtjbao)" points="16,463.21,98,463.21,105,486.8194,1663,486.8194,1663,757.21,16,757.21,16,463.21" style="stroke:#000000;stroke-width:1.5;"/><line style="stroke:#000000;stroke-width:1.5;" x1="16" x2="105" y1="486.8194" y2="486.8194"/><text fill="#000000" font-family="sans-serif" font-size="14" font-weight="bold" lengthAdjust="spacing" textLength="76" x="20" y="479.7432">Arguments</text><rect fill="#FEFECE" filter="url(#fdquckbqtjbao)" height="52.25" style="stroke:#A80036;stroke-width:1.5;" width="129" x="1236.5" y="670.21"/><text fill="#000000" font-family="sans-serif" font-size="12" lengthAdjust="spacing" textLength="18" x="1292" y="684.667">Var</text><line style="stroke:#A80036;stroke-width:1.0;" x1="1236.5" x2="1365.5" y1="689.3038" y2="689.3038"/><text fill="#000000" font-family="sans-serif" font-size="10" lengthAdjust="spacing" textLength="18" x="1241.5" y="701.6846">0..1</text><text fill="#000000" font-family="sans-serif" font-size="10" lengthAdjust="spacing" textLength="64" x="1269.5" y="701.6846">Name Length</text><line style="stroke:#A80036;stroke-width:1.0;" x1="1264.5" x2="1264.5" y1="689.3038" y2="705.8819"/><line style="stroke:#A80036;stroke-width:1.0;" x1="1236.5" x2="1365.5" y1="705.8819" y2="705.8819"/><text fill="#000000" font-family="sans-serif" font-size="10" lengthAdjust="spacing" textLength="18" x="1241.5" y="718.2627">2..n</text><text fill="#000000" font-family="sans-serif" font-size="10" lengthAdjust="spacing" textLength="91" x="1269.5" y="718.2627">Name: string + NUL</text><line style="stroke:#A80036;stroke-width:1.0;" x1="1264.5" x2="1264.5" y1="705.8819" y2="722.46"/><rect fill="#FEFECE" filter="url(#fdquckbqtjbao)" height="85.4063" style="stroke:#A80036;stroke-width:1.5;" width="132" x="437" y="654.21"/><text fill="#000000" font-family="sans-serif" font-size="12" lengthAdjust="spacing" textLength="58" x="474" y="668.667">Var w/ Unit</text><line style="stroke:#A80036;stroke-width:1.0;" x1="437" x2="569" y1="673.3038" y2="673.3038"/><text fill="#000000" font-family="sans-serif" font-size="10" lengthAdjust="spacing" textLength="18" x="443.5" y="685.6846">0..1</text><text fill="#000000" font-family="sans-serif" font-size="10" lengthAdjust="spacing" textLength="64" x="473" y="685.6846">Name Length</text><line style="stroke:#A80036;stroke-width:1.0;" x1="468" x2="468" y1="673.3038" y2="689.8819"/><line style="stroke:#A80036;stroke-width:1.0;" x1="437" x2="569" y1="689.8819" y2="689.8819"/><text fill="#000000" font-family="sans-serif" font-size="10" lengthAdjust="spacing" textLength="18" x="443.5" y="702.2627">2..3</text><text fill="#000000" font-family="sans-serif" font-size="10" lengthAdjust="spacing" textLength="55" x="473" y="702.2627">Unit Length</text><line style="stroke:#A80036;stroke-width:1.0;" x1="468" x2="468" y1="689.8819" y2="706.46"/><line style="stroke:#A80036;stroke-width:1.0;" x1="437" x2="569" y1="706.46" y2="706.46"/><text fill="#000000" font-family="sans-serif" font-size="10" lengthAdjust="spacing" textLength="18" x="443.5" y="718.8409">4..n</text><text fill="#000000" font-family="sans-serif" font-size="10" lengthAdjust="spacing" textLength="91" x="473" y="718.8409">Name: string + NUL</text><line style="stroke:#A80036;stroke-width:1.0;" x1="468" x2="468" y1="706.46" y2="723.0381"/><line style="stroke:#A80036;stroke-width:1.0;" x1="437" x2="569" y1="723.0381" y2="723.0381"/><text fill="#000000" font-family="sans-serif" font-size="10" lengthAdjust="spacing" textLength="21" x="442" y="735.419">n..m</text><text fill="#000000" font-family="sans-serif" font-size="10" lengthAdjust="spacing" textLength="82" x="473" y="735.419">Unit: string + NUL</text><line style="stroke:#A80036;stroke-width:1.0;" x1="468" x2="468" y1="723.0381" y2="739.6163"/><rect fill="#FEFECE" filter="url(#fdquckbqtjbao)" height="52.25" style="stroke:#A80036;stroke-width:1.5;" width="146" x="916" y="519.21"/><text fill="#000000" font-family="sans-serif" font-size="12" lengthAdjust="spacing" textLength="33" x="972.5" y="533.667">BOOL</text><line style="stroke:#A80036;stroke-width:1.0;" x1="916" x2="1062" y1="538.3038" y2="538.3038"/><text fill="#000000" font-family="sans-serif" font-size="10" lengthAdjust="spacing" textLength="44" x="921" y="550.6846">variname</text><text fill="#000000" font-family="sans-serif" font-size="10" lengthAdjust="spacing" textLength="39" x="975" y="550.6846">optional</text><line style="stroke:#A80036;stroke-width:1.0;" x1="970" x2="970" y1="538.3038" y2="554.8819"/><line style="stroke:#A80036;stroke-width:1.0;" x1="916" x2="1062" y1="554.8819" y2="554.8819"/><text fill="#000000" font-family="sans-serif" font-size="10" lengthAdjust="spacing" textLength="29" x="928.5" y="567.2627">1 byte</text><text fill="#000000" font-family="sans-serif" font-size="10" lengthAdjust="spacing" textLength="82" x="975" y="567.2627">0 = false; 1 = true</text><line style="stroke:#A80036;stroke-width:1.0;" x1="970" x2="970" y1="554.8819" y2="571.46"/><rect fill="#FEFECE" filter="url(#fdquckbqtjbao)" height="52.25" style="stroke:#A80036;stroke-width:1.5;" width="140" x="245" y="519.21"/><text fill="#000000" font-family="sans-serif" font-size="12" lengthAdjust="spacing" textLength="61" x="284.5" y="533.667">SINT, UINT</text><line style="stroke:#A80036;stroke-width:1.0;" x1="245" x2="385" y1="538.3038" y2="538.3038"/><text fill="#000000" font-family="sans-serif" font-size="10" lengthAdjust="spacing" textLength="35" x="273" y="550.6846">variunit</text><text fill="#000000" font-family="sans-serif" font-size="10" lengthAdjust="spacing" textLength="39" x="341" y="550.6846">optional</text><line style="stroke:#A80036;stroke-width:1.0;" x1="336" x2="336" y1="538.3038" y2="554.8819"/><line style="stroke:#A80036;stroke-width:1.0;" x1="245" x2="385" y1="554.8819" y2="554.8819"/><text fill="#000000" font-family="sans-serif" font-size="10" lengthAdjust="spacing" textLength="81" x="250" y="567.2627">1, 2, 3, 4, 5 bytes</text><text fill="#000000" font-family="sans-serif" font-size="10" lengthAdjust="spacing" textLength="33" x="341" y="567.2627">Integer</text><line style="stroke:#A80036;stroke-width:1.0;" x1="336" x2="336" y1="554.8819" y2="571.46"/><rect fill="#FEFECE" filter="url(#fdquckbqtjbao)" height="52.25" style="stroke:#A80036;stroke-width:1.5;" width="134" x="436" y="519.21"/><text fill="#000000" font-family="sans-serif" font-size="12" lengthAdjust="spacing" textLength="37" x="484.5" y="533.667">FLOAT</text><line style="stroke:#A80036;stroke-width:1.0;" x1="436" x2="570" y1="538.3038" y2="538.3038"/><text fill="#000000" font-family="sans-serif" font-size="10" lengthAdjust="spacing" textLength="35" x="458" y="550.6846">variunit</text><text fill="#000000" font-family="sans-serif" font-size="10" lengthAdjust="spacing" textLength="39" x="520" y="550.6846">optional</text><line style="stroke:#A80036;stroke-width:1.0;" x1="515" x2="515" y1="538.3038" y2="554.8819"/><line style="stroke:#A80036;stroke-width:1.0;" x1="436" x2="570" y1="554.8819" y2="554.8819"/><text fill="#000000" font-family="sans-serif" font-size="10" lengthAdjust="spacing" textLength="69" x="441" y="567.2627">2, 3, 4, 5 bytes</text><text fill="#000000" font-family="sans-serif" font-size="10" lengthAdjust="spacing" textLength="45" x="520" y="567.2627">IEEE 768</text><line style="stroke:#A80036;stroke-width:1.0;" x1="515" x2="515" y1="554.8819" y2="571.46"/><rect fill="#FEFECE" filter="url(#fdquckbqtjbao)" height="68.8281" style="stroke:#A80036;stroke-width:1.5;" width="165" x="1113.5" y="511.21"/><text fill="#000000" font-family="sans-serif" font-size="12" lengthAdjust="spacing" textLength="45" x="1173.5" y="525.667">STRING</text><line style="stroke:#A80036;stroke-width:1.0;" x1="1113.5" x2="1278.5" y1="530.3038" y2="530.3038"/><text fill="#000000" font-family="sans-serif" font-size="10" lengthAdjust="spacing" textLength="33" x="1124" y="542.6846">2 bytes</text><text fill="#000000" font-family="sans-serif" font-size="10" lengthAdjust="spacing" textLength="33" x="1172.5" y="542.6846">Length</text><line style="stroke:#A80036;stroke-width:1.0;" x1="1167.5" x2="1167.5" y1="530.3038" y2="546.8819"/><line style="stroke:#A80036;stroke-width:1.0;" x1="1113.5" x2="1278.5" y1="546.8819" y2="546.8819"/><text fill="#000000" font-family="sans-serif" font-size="10" lengthAdjust="spacing" textLength="44" x="1118.5" y="559.2627">variname</text><text fill="#000000" font-family="sans-serif" font-size="10" lengthAdjust="spacing" textLength="39" x="1172.5" y="559.2627">optional</text><line style="stroke:#A80036;stroke-width:1.0;" x1="1167.5" x2="1167.5" y1="546.8819" y2="563.46"/><line style="stroke:#A80036;stroke-width:1.0;" x1="1113.5" x2="1278.5" y1="563.46" y2="563.46"/><text fill="#000000" font-family="sans-serif" font-size="10" lengthAdjust="spacing" textLength="33" x="1124" y="575.8409">n bytes</text><text fill="#000000" font-family="sans-serif" font-size="10" lengthAdjust="spacing" textLength="101" x="1172.5" y="575.8409">payload: string + NUL</text><line style="stroke:#A80036;stroke-width:1.0;" x1="1167.5" x2="1167.5" y1="563.46" y2="580.0381"/><rect fill="#FEFECE" filter="url(#fdquckbqtjbao)" height="85.4063" style="stroke:#A80036;stroke-width:1.5;" width="243" x="621.5" y="503.21"/><text fill="#000000" font-family="sans-serif" font-size="12" lengthAdjust="spacing" textLength="30" x="728" y="517.667">ARAY</text><line style="stroke:#A80036;stroke-width:1.0;" x1="621.5" x2="864.5" y1="522.3038" y2="522.3038"/><text fill="#000000" font-family="sans-serif" font-size="10" lengthAdjust="spacing" textLength="33" x="631.5" y="534.6846">2 bytes</text><text fill="#000000" font-family="sans-serif" font-size="10" lengthAdjust="spacing" textLength="50" x="679.5" y="534.6846">Dimension</text><line style="stroke:#A80036;stroke-width:1.0;" x1="674.5" x2="674.5" y1="522.3038" y2="538.8819"/><line style="stroke:#A80036;stroke-width:1.0;" x1="621.5" x2="864.5" y1="538.8819" y2="538.8819"/><text fill="#000000" font-family="sans-serif" font-size="10" lengthAdjust="spacing" textLength="43" x="626.5" y="551.2627">2*d bytes</text><text fill="#000000" font-family="sans-serif" font-size="10" lengthAdjust="spacing" textLength="74" x="679.5" y="551.2627">Row Dimensons</text><line style="stroke:#A80036;stroke-width:1.0;" x1="674.5" x2="674.5" y1="538.8819" y2="555.46"/><line style="stroke:#A80036;stroke-width:1.0;" x1="621.5" x2="864.5" y1="555.46" y2="555.46"/><text fill="#000000" font-family="sans-serif" font-size="10" lengthAdjust="spacing" textLength="35" x="630.5" y="567.8409">variunit</text><text fill="#000000" font-family="sans-serif" font-size="10" lengthAdjust="spacing" textLength="39" x="679.5" y="567.8409">optional</text><line style="stroke:#A80036;stroke-width:1.0;" x1="674.5" x2="674.5" y1="555.46" y2="572.0381"/><line style="stroke:#A80036;stroke-width:1.0;" x1="621.5" x2="864.5" y1="572.0381" y2="572.0381"/><text fill="#000000" font-family="sans-serif" font-size="10" lengthAdjust="spacing" textLength="40" x="628" y="584.419">l*e bytes</text><text fill="#000000" font-family="sans-serif" font-size="10" lengthAdjust="spacing" textLength="180" x="679.5" y="584.419">Payload (l = type size; e = # elements)</text><line style="stroke:#A80036;stroke-width:1.0;" x1="674.5" x2="674.5" y1="572.0381" y2="588.6163"/><rect fill="#FEFECE" filter="url(#fdquckbqtjbao)" height="85.4063" style="stroke:#A80036;stroke-width:1.5;" width="154" x="1330" y="503.21"/><text fill="#000000" font-family="sans-serif" font-size="12" lengthAdjust="spacing" textLength="33" x="1390.5" y="517.667">STRU</text><line style="stroke:#A80036;stroke-width:1.0;" x1="1330" x2="1484" y1="522.3038" y2="522.3038"/><text fill="#000000" font-family="sans-serif" font-size="10" lengthAdjust="spacing" textLength="33" x="1340.5" y="534.6846">2 bytes</text><text fill="#000000" font-family="sans-serif" font-size="10" lengthAdjust="spacing" textLength="31" x="1389" y="534.6846">entries</text><line style="stroke:#A80036;stroke-width:1.0;" x1="1384" x2="1384" y1="522.3038" y2="538.8819"/><line style="stroke:#A80036;stroke-width:1.0;" x1="1330" x2="1484" y1="538.8819" y2="538.8819"/><text fill="#000000" font-family="sans-serif" font-size="10" lengthAdjust="spacing" textLength="44" x="1335" y="551.2627">variname</text><text fill="#000000" font-family="sans-serif" font-size="10" lengthAdjust="spacing" textLength="39" x="1389" y="551.2627">optional</text><line style="stroke:#A80036;stroke-width:1.0;" x1="1384" x2="1384" y1="538.8819" y2="555.46"/><line style="stroke:#A80036;stroke-width:1.0;" x1="1330" x2="1484" y1="555.46" y2="555.46"/><text fill="#000000" font-family="sans-serif" font-size="10" lengthAdjust="spacing" textLength="30" x="1342" y="567.8409">4 + e1</text><text fill="#000000" font-family="sans-serif" font-size="10" lengthAdjust="spacing" textLength="90" x="1389" y="567.8409">Type Info + Entry 1</text><line style="stroke:#A80036;stroke-width:1.0;" x1="1384" x2="1384" y1="555.46" y2="572.0381"/><line style="stroke:#A80036;stroke-width:1.0;" x1="1330" x2="1484" y1="572.0381" y2="572.0381"/><text fill="#000000" font-family="sans-serif" font-size="10" lengthAdjust="spacing" textLength="30" x="1342" y="584.419">4 + e2</text><text fill="#000000" font-family="sans-serif" font-size="10" lengthAdjust="spacing" textLength="90" x="1389" y="584.419">Type Info + Entry 2</text><line style="stroke:#A80036;stroke-width:1.0;" x1="1384" x2="1384" y1="572.0381" y2="588.6163"/><rect fill="#FEFECE" filter="url(#fdquckbqtjbao)" height="68.8281" style="stroke:#A80036;stroke-width:1.5;" width="103" x="1535.5" y="511.21"/><text fill="#000000" font-family="sans-serif" font-size="12" lengthAdjust="spacing" textLength="36" x="1569" y="525.667">RAWD</text><line style="stroke:#A80036;stroke-width:1.0;" x1="1535.5" x2="1638.5" y1="530.3038" y2="530.3038"/><text fill="#000000" font-family="sans-serif" font-size="10" lengthAdjust="spacing" textLength="33" x="1546" y="542.6846">2 bytes</text><text fill="#000000" font-family="sans-serif" font-size="10" lengthAdjust="spacing" textLength="33" x="1594.5" y="542.6846">Length</text><line style="stroke:#A80036;stroke-width:1.0;" x1="1589.5" x2="1589.5" y1="530.3038" y2="546.8819"/><line style="stroke:#A80036;stroke-width:1.0;" x1="1535.5" x2="1638.5" y1="546.8819" y2="546.8819"/><text fill="#000000" font-family="sans-serif" font-size="10" lengthAdjust="spacing" textLength="44" x="1540.5" y="559.2627">variname</text><text fill="#000000" font-family="sans-serif" font-size="10" lengthAdjust="spacing" textLength="39" x="1594.5" y="559.2627">optional</text><line style="stroke:#A80036;stroke-width:1.0;" x1="1589.5" x2="1589.5" y1="546.8819" y2="563.46"/><line style="stroke:#A80036;stroke-width:1.0;" x1="1535.5" x2="1638.5" y1="563.46" y2="563.46"/><text fill="#000000" font-family="sans-serif" font-size="10" lengthAdjust="spacing" textLength="30" x="1547.5" y="575.8409">l bytes</text><text fill="#000000" font-family="sans-serif" font-size="10" lengthAdjust="spacing" textLength="39" x="1594.5" y="575.8409">Payload</text><line style="stroke:#A80036;stroke-width:1.0;" x1="1589.5" x2="1589.5" y1="563.46" y2="580.0381"/><rect fill="#FEFECE" filter="url(#fdquckbqtjbao)" height="52.25" style="stroke:#A80036;stroke-width:1.5;" width="154" x="40" y="519.21"/><text fill="#000000" font-family="sans-serif" font-size="12" lengthAdjust="spacing" textLength="26" x="104" y="533.667">TRAI</text><line style="stroke:#A80036;stroke-width:1.0;" x1="40" x2="194" y1="538.3038" y2="538.3038"/><text fill="#000000" font-family="sans-serif" font-size="10" lengthAdjust="spacing" textLength="33" x="45" y="550.6846">2 bytes</text><text fill="#000000" font-family="sans-serif" font-size="10" lengthAdjust="spacing" textLength="33" x="88" y="550.6846">Length</text><line style="stroke:#A80036;stroke-width:1.0;" x1="83" x2="83" y1="538.3038" y2="554.8819"/><line style="stroke:#A80036;stroke-width:1.0;" x1="40" x2="194" y1="554.8819" y2="554.8819"/><text fill="#000000" font-family="sans-serif" font-size="10" lengthAdjust="spacing" textLength="33" x="45" y="567.2627">n bytes</text><text fill="#000000" font-family="sans-serif" font-size="10" lengthAdjust="spacing" textLength="101" x="88" y="567.2627">payload: string + NUL</text><line style="stroke:#A80036;stroke-width:1.0;" x1="83" x2="83" y1="554.8819" y2="571.46"/><rect fill="#FEFECE" filter="url(#fdquckbqtjbao)" height="68.8281" style="stroke:#A80036;stroke-width:1.5;" width="155" x="788.5" y="368.21"/><text fill="#000000" font-family="sans-serif" font-size="12" lengthAdjust="spacing" textLength="53" x="839.5" y="382.667">Argument</text><line style="stroke:#A80036;stroke-width:1.0;" x1="788.5" x2="943.5" y1="387.3038" y2="387.3038"/><text fill="#000000" font-family="sans-serif" font-size="10" lengthAdjust="spacing" textLength="18" x="796.5" y="399.6846">0..3</text><text fill="#000000" font-family="sans-serif" font-size="10" lengthAdjust="spacing" textLength="45" x="827.5" y="399.6846">Type Info</text><line style="stroke:#A80036;stroke-width:1.0;" x1="822.5" x2="822.5" y1="387.3038" y2="403.8819"/><line style="stroke:#A80036;stroke-width:1.0;" x1="788.5" x2="943.5" y1="403.8819" y2="403.8819"/><text fill="#000000" font-family="sans-serif" font-size="10" lengthAdjust="spacing" textLength="18" x="796.5" y="416.2627">4..n</text><text fill="#000000" font-family="sans-serif" font-size="10" lengthAdjust="spacing" textLength="111" x="827.5" y="416.2627">Variable Info (Optional)</text><line style="stroke:#A80036;stroke-width:1.0;" x1="822.5" x2="822.5" y1="403.8819" y2="420.46"/><line style="stroke:#A80036;stroke-width:1.0;" x1="788.5" x2="943.5" y1="420.46" y2="420.46"/><text fill="#000000" font-family="sans-serif" font-size="10" lengthAdjust="spacing" textLength="24" x="793.5" y="432.8409">n+1..</text><text fill="#000000" font-family="sans-serif" font-size="10" lengthAdjust="spacing" textLength="39" x="827.5" y="432.8409">Payload</text><line style="stroke:#A80036;stroke-width:1.0;" x1="822.5" x2="822.5" y1="420.46" y2="437.0381"/><rect fill="#FEFECE" filter="url(#fdquckbqtjbao)" height="234.6094" style="stroke:#A80036;stroke-width:1.5;" width="192" x="770" y="73.21"/><text fill="#000000" font-family="sans-serif" font-size="12" lengthAdjust="spacing" textLength="170" x="781" y="87.667">Type Info (4 bytes) Little Endian</text><line style="stroke:#A80036;stroke-width:1.0;" x1="770" x2="962" y1="92.3038" y2="92.3038"/><text fill="#000000" font-family="sans-serif" font-size="10" lengthAdjust="spacing" textLength="30" x="781" y="104.6846">b0..b3</text><text fill="#000000" font-family="sans-serif" font-size="10" lengthAdjust="spacing" textLength="96" x="827" y="104.6846">Type Length (TYLE)</text><line style="stroke:#A80036;stroke-width:1.0;" x1="822" x2="822" y1="92.3038" y2="108.8819"/><line style="stroke:#A80036;stroke-width:1.0;" x1="770" x2="962" y1="108.8819" y2="108.8819"/><text fill="#000000" font-family="sans-serif" font-size="10" lengthAdjust="spacing" textLength="12" x="790" y="121.2627">b4</text><text fill="#000000" font-family="sans-serif" font-size="10" lengthAdjust="spacing" textLength="78" x="827" y="121.2627">Boolean (BOOL)</text><line style="stroke:#A80036;stroke-width:1.0;" x1="822" x2="822" y1="108.8819" y2="125.46"/><line style="stroke:#A80036;stroke-width:1.0;" x1="770" x2="962" y1="125.46" y2="125.46"/><text fill="#000000" font-family="sans-serif" font-size="10" lengthAdjust="spacing" textLength="12" x="790" y="137.8409">b5</text><text fill="#000000" font-family="sans-serif" font-size="10" lengthAdjust="spacing" textLength="82" x="827" y="137.8409">Signed Int (SINT)</text><line style="stroke:#A80036;stroke-width:1.0;" x1="822" x2="822" y1="125.46" y2="142.0381"/><line style="stroke:#A80036;stroke-width:1.0;" x1="770" x2="962" y1="142.0381" y2="142.0381"/><text fill="#000000" font-family="sans-serif" font-size="10" lengthAdjust="spacing" textLength="12" x="790" y="154.419">b6</text><text fill="#000000" font-family="sans-serif" font-size="10" lengthAdjust="spacing" textLength="92" x="827" y="154.419">Unsigned Int (UINT)</text><line style="stroke:#A80036;stroke-width:1.0;" x1="822" x2="822" y1="142.0381" y2="158.6163"/><line style="stroke:#A80036;stroke-width:1.0;" x1="770" x2="962" y1="158.6163" y2="158.6163"/><text fill="#000000" font-family="sans-serif" font-size="10" lengthAdjust="spacing" textLength="12" x="790" y="170.9971">b7</text><text fill="#000000" font-family="sans-serif" font-size="10" lengthAdjust="spacing" textLength="60" x="827" y="170.9971">Float (FLOA)</text><line style="stroke:#A80036;stroke-width:1.0;" x1="822" x2="822" y1="158.6163" y2="175.1944"/><line style="stroke:#A80036;stroke-width:1.0;" x1="770" x2="962" y1="175.1944" y2="175.1944"/><text fill="#000000" font-family="sans-serif" font-size="10" lengthAdjust="spacing" textLength="12" x="790" y="187.5752">b8</text><text fill="#000000" font-family="sans-serif" font-size="10" lengthAdjust="spacing" textLength="61" x="827" y="187.5752">Array (ARAY)</text><line style="stroke:#A80036;stroke-width:1.0;" x1="822" x2="822" y1="175.1944" y2="191.7725"/><line style="stroke:#A80036;stroke-width:1.0;" x1="770" x2="962" y1="191.7725" y2="191.7725"/><text fill="#000000" font-family="sans-serif" font-size="10" lengthAdjust="spacing" textLength="12" x="790" y="204.1534">b9</text><text fill="#000000" font-family="sans-serif" font-size="10" lengthAdjust="spacing" textLength="66" x="827" y="204.1534">String (STRG)</text><line style="stroke:#A80036;stroke-width:1.0;" x1="822" x2="822" y1="191.7725" y2="208.3506"/><line style="stroke:#A80036;stroke-width:1.0;" x1="770" x2="962" y1="208.3506" y2="208.3506"/><text fill="#000000" font-family="sans-serif" font-size="10" lengthAdjust="spacing" textLength="18" x="787" y="220.7315">b10</text><text fill="#000000" font-family="sans-serif" font-size="10" lengthAdjust="spacing" textLength="59" x="827" y="220.7315">Raw (RAWD)</text><line style="stroke:#A80036;stroke-width:1.0;" x1="822" x2="822" y1="208.3506" y2="224.9288"/><line style="stroke:#A80036;stroke-width:1.0;" x1="770" x2="962" y1="224.9288" y2="224.9288"/><text fill="#000000" font-family="sans-serif" font-size="10" lengthAdjust="spacing" textLength="18" x="787" y="237.3096">b11</text><text fill="#000000" font-family="sans-serif" font-size="10" lengthAdjust="spacing" textLength="130" x="827" y="237.3096">Variable Information (VARI)</text><line style="stroke:#A80036;stroke-width:1.0;" x1="822" x2="822" y1="224.9288" y2="241.5069"/><line style="stroke:#A80036;stroke-width:1.0;" x1="770" x2="962" y1="241.5069" y2="241.5069"/><text fill="#000000" font-family="sans-serif" font-size="10" lengthAdjust="spacing" textLength="18" x="787" y="253.8877">b12</text><text fill="#000000" font-family="sans-serif" font-size="10" lengthAdjust="spacing" textLength="86" x="827" y="253.8877">Fixed Point (FIXP)</text><line style="stroke:#A80036;stroke-width:1.0;" x1="822" x2="822" y1="241.5069" y2="258.085"/><line style="stroke:#A80036;stroke-width:1.0;" x1="770" x2="962" y1="258.085" y2="258.085"/><text fill="#000000" font-family="sans-serif" font-size="10" lengthAdjust="spacing" textLength="18" x="787" y="270.4659">b13</text><text fill="#000000" font-family="sans-serif" font-size="10" lengthAdjust="spacing" textLength="118" x="827" y="270.4659">Trace Information (TRAI)</text><line style="stroke:#A80036;stroke-width:1.0;" x1="822" x2="822" y1="258.085" y2="274.6631"/><line style="stroke:#A80036;stroke-width:1.0;" x1="770" x2="962" y1="274.6631" y2="274.6631"/><text fill="#000000" font-family="sans-serif" font-size="10" lengthAdjust="spacing" textLength="18" x="787" y="287.044">b14</text><text fill="#000000" font-family="sans-serif" font-size="10" lengthAdjust="spacing" textLength="65" x="827" y="287.044">Struct (STRU)</text><line style="stroke:#A80036;stroke-width:1.0;" x1="822" x2="822" y1="274.6631" y2="291.2413"/><line style="stroke:#A80036;stroke-width:1.0;" x1="770" x2="962" y1="291.2413" y2="291.2413"/><text fill="#000000" font-family="sans-serif" font-size="10" lengthAdjust="spacing" textLength="42" x="775" y="303.6221">b15..b17</text><text fill="#000000" font-family="sans-serif" font-size="10" lengthAdjust="spacing" textLength="114" x="827" y="303.6221">String encoding (SCOD)</text><line style="stroke:#A80036;stroke-width:1.0;" x1="822" x2="822" y1="291.2413" y2="307.8194"/><rect fill="#FEFECE" filter="url(#fdquckbqtjbao)" height="118.5625" style="stroke:#A80036;stroke-width:1.5;" width="121" x="1210.5" y="129.21"/><text fill="#000000" font-family="sans-serif" font-size="12" lengthAdjust="spacing" textLength="107" x="1217.5" y="143.667">Type Length (TYLE)</text><line style="stroke:#A80036;stroke-width:1.0;" x1="1210.5" x2="1331.5" y1="148.3038" y2="148.3038"/><text fill="#000000" font-family="sans-serif" font-size="10" lengthAdjust="spacing" textLength="6" x="1215.5" y="160.6846">0</text><text fill="#000000" font-family="sans-serif" font-size="10" lengthAdjust="spacing" textLength="49" x="1231.5" y="160.6846">Undefined</text><line style="stroke:#A80036;stroke-width:1.0;" x1="1226.5" x2="1226.5" y1="148.3038" y2="164.8819"/><line style="stroke:#A80036;stroke-width:1.0;" x1="1210.5" x2="1331.5" y1="164.8819" y2="164.8819"/><text fill="#000000" font-family="sans-serif" font-size="10" lengthAdjust="spacing" textLength="6" x="1215.5" y="177.2627">1</text><text fill="#000000" font-family="sans-serif" font-size="10" lengthAdjust="spacing" textLength="21" x="1231.5" y="177.2627">8-bit</text><line style="stroke:#A80036;stroke-width:1.0;" x1="1226.5" x2="1226.5" y1="164.8819" y2="181.46"/><line style="stroke:#A80036;stroke-width:1.0;" x1="1210.5" x2="1331.5" y1="181.46" y2="181.46"/><text fill="#000000" font-family="sans-serif" font-size="10" lengthAdjust="spacing" textLength="6" x="1215.5" y="193.8409">2</text><text fill="#000000" font-family="sans-serif" font-size="10" lengthAdjust="spacing" textLength="27" x="1231.5" y="193.8409">16-bit</text><line style="stroke:#A80036;stroke-width:1.0;" x1="1226.5" x2="1226.5" y1="181.46" y2="198.0381"/><line style="stroke:#A80036;stroke-width:1.0;" x1="1210.5" x2="1331.5" y1="198.0381" y2="198.0381"/><text fill="#000000" font-family="sans-serif" font-size="10" lengthAdjust="spacing" textLength="6" x="1215.5" y="210.419">3</text><text fill="#000000" font-family="sans-serif" font-size="10" lengthAdjust="spacing" textLength="27" x="1231.5" y="210.419">32-bit</text><line style="stroke:#A80036;stroke-width:1.0;" x1="1226.5" x2="1226.5" y1="198.0381" y2="214.6163"/><line style="stroke:#A80036;stroke-width:1.0;" x1="1210.5" x2="1331.5" y1="214.6163" y2="214.6163"/><text fill="#000000" font-family="sans-serif" font-size="10" lengthAdjust="spacing" textLength="6" x="1215.5" y="226.9971">4</text><text fill="#000000" font-family="sans-serif" font-size="10" lengthAdjust="spacing" textLength="27" x="1231.5" y="226.9971">64-bit</text><line style="stroke:#A80036;stroke-width:1.0;" x1="1226.5" x2="1226.5" y1="214.6163" y2="231.1944"/><line style="stroke:#A80036;stroke-width:1.0;" x1="1210.5" x2="1331.5" y1="231.1944" y2="231.1944"/><text fill="#000000" font-family="sans-serif" font-size="10" lengthAdjust="spacing" textLength="6" x="1215.5" y="243.5752">5</text><text fill="#000000" font-family="sans-serif" font-size="10" lengthAdjust="spacing" textLength="33" x="1231.5" y="243.5752">128-bit</text><line style="stroke:#A80036;stroke-width:1.0;" x1="1226.5" x2="1226.5" y1="231.1944" y2="247.7725"/><rect fill="#FEFECE" filter="url(#fdquckbqtjbao)" height="52.25" style="stroke:#A80036;stroke-width:1.5;" width="146" x="1013" y="161.21"/><text fill="#000000" font-family="sans-serif" font-size="12" lengthAdjust="spacing" textLength="132" x="1020" y="175.667">String encoding (SCOD)</text><line style="stroke:#A80036;stroke-width:1.0;" x1="1013" x2="1159" y1="180.3038" y2="180.3038"/><text fill="#000000" font-family="sans-serif" font-size="10" lengthAdjust="spacing" textLength="6" x="1018" y="192.6846">0</text><text fill="#000000" font-family="sans-serif" font-size="10" lengthAdjust="spacing" textLength="27" x="1034" y="192.6846">ASCII</text><line style="stroke:#A80036;stroke-width:1.0;" x1="1029" x2="1029" y1="180.3038" y2="196.8819"/><line style="stroke:#A80036;stroke-width:1.0;" x1="1013" x2="1159" y1="196.8819" y2="196.8819"/><text fill="#000000" font-family="sans-serif" font-size="10" lengthAdjust="spacing" textLength="6" x="1018" y="209.2627">1</text><text fill="#000000" font-family="sans-serif" font-size="10" lengthAdjust="spacing" textLength="29" x="1034" y="209.2627">UTF-8</text><line style="stroke:#A80036;stroke-width:1.0;" x1="1029" x2="1029" y1="196.8819" y2="213.46"/><!--MD5=[aeb6c68127f512463c89a3783ea2ae15]
link TypeInfo to Argument--><path codeLine="37" d="M866,304.49 C866,326 866,346.95 866,363.78 " fill="none" id="TypeInfo-Argument" style="stroke:#A80036;stroke-width:1.0;"/><!--MD5=[beab473c85ab4353482b5c5d1b4509e3]
link TypeInfo to TypeLength--><path codeLine="38" d="M958.09,69.15 C972.61,57.05 988.5,46.53 1005.5,39.21 C1071.63,10.73 1103.62,6 1167.5,39.21 C1202.33,57.32 1227.89,93.12 1244.89,124.92 " fill="none" id="TypeInfo-TypeLength" style="stroke:#A80036;stroke-width:1.0;"/><!--MD5=[6be3b4a678114fc24f67193cb850de1b]
link TypeInfo to StringCoding--><path codeLine="39" d="M970.41,186.71 C981.85,186.71 993.29,186.71 1004.73,186.71 " fill="none" id="TypeInfo-StringCoding" style="stroke:#A80036;stroke-width:1.0;"/><!--MD5=[522e939823358040ba3539e29d78e017]
reverse link bool to variname--><path codeLine="100" d="M1060.83,580.01 C1115.45,606.1 1189.72,641.57 1241.15,666.13 " fill="none" id="bool-backto-variname" style="stroke:#A80036;stroke-width:1.0;"/><polygon fill="#A80036" points="1048.79,574.26,1052.481,580.4549,1059.619,579.4305,1055.928,573.2356,1048.79,574.26" style="stroke:#A80036;stroke-width:1.0;"/><!--MD5=[a54a1c4235855d67f0d8bfe2af229fd7]
reverse link int to variunit--><path codeLine="101" d="M361.48,582.55 C387.2,602.93 419.36,628.42 446.51,649.94 " fill="none" id="int-backto-variunit" style="stroke:#A80036;stroke-width:1.0;"/><polygon fill="#A80036" points="351.25,574.44,353.4683,581.3014,360.6551,581.8928,358.4368,575.0314,351.25,574.44" style="stroke:#A80036;stroke-width:1.0;"/><!--MD5=[894544b71cf962a22d45c619cc4aa631]
reverse link float to variunit--><path codeLine="102" d="M503,587.53 C503,606.98 503,630.14 503,649.94 " fill="none" id="float-backto-variunit" style="stroke:#A80036;stroke-width:1.0;"/><polygon fill="#A80036" points="503,574.44,499,580.44,503,586.44,507,580.44,503,574.44" style="stroke:#A80036;stroke-width:1.0;"/><!--MD5=[9cbd3a9af80997c98049f7321219ca2c]
reverse link string to variname--><path codeLine="103" d="M1229.67,593.48 C1246.43,617.27 1266.15,645.26 1280.6,665.76 " fill="none" id="string-backto-variname" style="stroke:#A80036;stroke-width:1.0;"/><polygon fill="#A80036" points="1221.96,582.54,1222.1446,589.7487,1228.8698,592.3509,1228.6852,585.1422,1221.96,582.54" style="stroke:#A80036;stroke-width:1.0;"/><!--MD5=[dea6acaf8a2d089f5d15eecc45ace615]
reverse link array to variunit--><path codeLine="104" d="M660.03,597.22 C632.26,614.46 601.56,633.52 574.73,650.18 " fill="none" id="array-backto-variunit" style="stroke:#A80036;stroke-width:1.0;"/><polygon fill="#A80036" points="671.32,590.21,664.1128,589.9728,661.1219,596.5344,668.3291,596.7716,671.32,590.21" style="stroke:#A80036;stroke-width:1.0;"/><!--MD5=[25507d9da2a715137dd7ec8893edd80f]
reverse link struct to variname--><path codeLine="105" d="M1367.65,601.03 C1351.94,623.11 1334.51,647.61 1321.41,666.02 " fill="none" id="struct-backto-variname" style="stroke:#A80036;stroke-width:1.0;"/><polygon fill="#A80036" points="1375.2,590.41,1368.4622,592.9795,1368.2426,600.1873,1374.9804,597.6178,1375.2,590.41" style="stroke:#A80036;stroke-width:1.0;"/><!--MD5=[26656de6af37b34de24fd620f1f73e4f]
reverse link raw to variname--><path codeLine="106" d="M1515.54,587.2 C1513.68,588.22 1511.83,589.23 1510,590.21 C1460.17,617.03 1402.59,645.66 1360.5,666.15 " fill="none" id="raw-backto-variname" style="stroke:#A80036;stroke-width:1.0;"/><polygon fill="#A80036" points="1527.09,580.8,1519.9029,580.2126,1516.5964,586.621,1523.7835,587.2084,1527.09,580.8" style="stroke:#A80036;stroke-width:1.0;"/><!--MD5=[883f3c6ef6a5ede2b6eedd94fc40dcf1]
reverse link Argument to bool--><path codeLine="109" d="M906.69,449.36 C925.53,470.96 947.33,495.94 963.76,514.77 " fill="none" id="Argument-backto-bool" style="stroke:#A80036;stroke-width:1.0;"/><polygon fill="#A80036" points="898,439.39,898.9333,446.5404,905.8927,448.4291,904.9594,441.2786,898,439.39" style="stroke:#A80036;stroke-width:1.0;"/><!--MD5=[13bb8ef0befe32999457f9480c1284a7]
reverse link Argument to int--><path codeLine="110" d="M766.81,406.99 C652.45,413.17 472.36,427.08 411,455.21 C381.53,468.72 355.03,494.75 337.38,515.1 " fill="none" id="Argument-backto-int" style="stroke:#A80036;stroke-width:1.0;"/><polygon fill="#A80036" points="780.07,406.29,773.8674,402.612,768.0867,406.9228,774.2893,410.6008,780.07,406.29" style="stroke:#A80036;stroke-width:1.0;"/><!--MD5=[82af2e5d1b4152501f8232dea30fbcd7]
reverse link Argument to float--><path codeLine="111" d="M767.23,408.47 C714.09,414.8 648.81,427.96 596,455.21 C568.07,469.62 542.7,495 525.53,514.9 " fill="none" id="Argument-backto-float" style="stroke:#A80036;stroke-width:1.0;"/><polygon fill="#A80036" points="780.46,407,774.0566,403.6839,768.5328,408.3194,774.9362,411.6354,780.46,407" style="stroke:#A80036;stroke-width:1.0;"/><!--MD5=[81f1cc00f65cfde91fb0e70b78c1dfda]
reverse link Argument to string--><path codeLine="112" d="M964.56,416.09 C1004.31,423.98 1049.72,436.28 1088,455.21 C1114.51,468.32 1140.28,489.04 1159.99,507.13 " fill="none" id="Argument-backto-string" style="stroke:#A80036;stroke-width:1.0;"/><polygon fill="#A80036" points="951.59,413.63,956.7426,418.6749,963.3812,415.859,958.2286,410.8141,951.59,413.63" style="stroke:#A80036;stroke-width:1.0;"/><!--MD5=[6e11d36cd681ccaa70fcee5f8d0f44d4]
reverse link Argument to array--><path codeLine="113" d="M825.11,449.59 C811.17,465.57 795.63,483.38 781.85,499.17 " fill="none" id="Argument-backto-array" style="stroke:#A80036;stroke-width:1.0;"/><polygon fill="#A80036" points="834,439.39,827.0406,441.2786,826.1073,448.4291,833.0667,446.5404,834,439.39" style="stroke:#A80036;stroke-width:1.0;"/><!--MD5=[632762e2702ad22b1e8cc40a16f2c8f1]
reverse link Argument to struct--><path codeLine="114" d="M964.96,407.88 C1075.04,414.8 1245.14,429.31 1304,455.21 C1327.09,465.37 1348.87,482.5 1366.41,498.99 " fill="none" id="Argument-backto-struct" style="stroke:#A80036;stroke-width:1.0;"/><polygon fill="#A80036" points="951.85,407.07,957.5924,411.4318,963.8272,407.8087,958.0848,403.4469,951.85,407.07" style="stroke:#A80036;stroke-width:1.0;"/><!--MD5=[7c9f89dbf8ef472ac593a61e0ed0d716]
reverse link Argument to raw--><path codeLine="115" d="M964.88,401.78 C1121.21,401.8 1417.22,408.31 1510,455.21 C1532.72,466.7 1551.61,488.06 1564.99,506.93 " fill="none" id="Argument-backto-raw" style="stroke:#A80036;stroke-width:1.0;"/><polygon fill="#A80036" points="951.58,401.8,957.5844,405.7934,963.58,401.7868,957.5756,397.7934,951.58,401.8" style="stroke:#A80036;stroke-width:1.0;"/><!--MD5=[ec4d57f096e6de64519438f632500903]
reverse link Argument to traceinfo--><path codeLine="116" d="M767.23,403.32 C611.36,405.53 316.17,415.06 220,455.21 C188.89,468.2 160.4,494.29 141.3,514.79 " fill="none" id="Argument-backto-traceinfo" style="stroke:#A80036;stroke-width:1.0;"/><polygon fill="#A80036" points="780.49,403.15,774.4378,399.2295,768.491,403.3082,774.5433,407.2288,780.49,403.15" style="stroke:#A80036;stroke-width:1.0;"/><!--MD5=[22350469d1ca0d51426db5fe58b6d4c3]
@startuml DLT.FormatVerbose
map Argument {
    0..3 => Type Info
    4..n => Variable Info (Optional)
    n+1.. => Payload
}

map "Type Info (4 bytes) Little Endian" as TypeInfo {
   b0..b3 => Type Length (TYLE)
   b4 => Boolean (BOOL)
   b5 => Signed Int (SINT)
   b6 => Unsigned Int (UINT)
   b7 => Float (FLOA)
   b8 => Array (ARAY)
   b9 => String (STRG)
   b10 => Raw (RAWD)
   b11 => Variable Information (VARI)
   b12 => Fixed Point (FIXP)
   b13 => Trace Information (TRAI)
   b14 => Struct (STRU)
   b15..b17 => String encoding (SCOD)
}

map "Type Length (TYLE)" as TypeLength {
    0 => Undefined
    1 => 8-bit
    2 => 16-bit
    3 => 32-bit
    4 => 64-bit
    5 => 128-bit
}

map "String encoding (SCOD)" as StringCoding {
    0 => ASCII
    1 => UTF-8
}

Argument -u- TypeInfo
TypeInfo -r- TypeLength
TypeInfo -r- StringCoding

package Arguments {
    map "Var" as variname {
        0..1 => Name Length
        2..n => Name: string + NUL
    }

    map "Var w/ Unit" as variunit {
        0..1 => Name Length
        2..3 => Unit Length
        4..n => Name: string + NUL
        n..m => Unit: string + NUL
    }

    map "BOOL" as bool {
        variname => optional
        1 byte => 0 = false; 1 = true
    }

    map "SINT, UINT" as int {
        variunit => optional
        1, 2, 3, 4, 5 bytes => Integer
    }

    map "FLOAT" as float {
        variunit => optional
        2, 3, 4, 5 bytes => IEEE 768
    }

    map "STRING" as string {
        2 bytes => Length
        variname => optional
        n bytes => payload: string + NUL
    }

    map "ARAY" as array {
        2 bytes => Dimension
        2*d bytes => Row Dimensons
        variunit => optional
        l*e bytes => Payload (l = type size; e = # elements)
    }

    map "STRU" as struct {
        2 bytes => entries
        variname => optional
        4 + e1 => Type Info + Entry 1
        4 + e2 => Type Info + Entry 2
    }

    map "RAWD" as raw {
        2 bytes => Length
        variname => optional
        l bytes => Payload
    }

    map "TRAI" as traceinfo {
        2 bytes => Length
        n bytes => payload: string + NUL
    }

    variname -u-* bool
    variunit -u-* int
    variunit -u-* float
    variname -u-* string
    variunit -u-* array
    variname -u-* struct
    variname -u-* raw
}

Argument *- - bool
Argument *- - int
Argument *- - float
Argument *- - string
Argument *- - array
Argument *- - struct
Argument *- - raw
Argument *- - traceinfo
@enduml

PlantUML version 1.2021.16(Wed Dec 08 18:25:22 CET 2021)
(GPL source distribution)
Java Runtime: Java(TM) SE Runtime Environment
JVM: Java HotSpot(TM) Client VM
Default Encoding: Cp1252
Language: en
Country: US
--></g></svg>