<?xml version="1.0" encoding="us-ascii" standalone="no"?><svg xmlns="http://www.w3.org/2000/svg" xmlns:xlink="http://www.w3.org/1999/xlink" contentStyleType="text/css" height="878px" preserveAspectRatio="none" style="width:2165px;height:878px;background:#FFFFFF;" version="1.1" viewBox="0 0 2165 878" width="2165px" zoomAndPan="magnify"><defs/><g><!--cluster Arguments--><g id="cluster_Arguments"><path d="M8.5,542.81 L96.5,542.81 A3.75,3.75 0 0 1 99,545.31 L106,565.1069 L2155.5,565.1069 A2.5,2.5 0 0 1 2158,567.6069 L2158,869.31 A2.5,2.5 0 0 1 2155.5,871.81 L8.5,871.81 A2.5,2.5 0 0 1 6,869.31 L6,545.31 A2.5,2.5 0 0 1 8.5,542.81 " fill="none" style="stroke:#000000;stroke-width:1.5;"/><line style="stroke:#000000;stroke-width:1.5;" x1="6" x2="106" y1="565.1069" y2="565.1069"/><text fill="#000000" font-family="sans-serif" font-size="14" font-weight="bold" lengthAdjust="spacing" textLength="87" x="10" y="557.8051">Arguments</text></g><g id="elem_variname"><rect fill="#F1F1F1" height="60.8906" style="stroke:#181818;stroke-width:0.5;" width="181" x="1611.5" y="771.31"/><text fill="#000000" font-family="sans-serif" font-size="14" lengthAdjust="spacing" textLength="22" x="1691" y="786.3051">Var</text><line style="stroke:#181818;stroke-width:1.0;" x1="1611.5" x2="1792.5" y1="791.6069" y2="791.6069"/><text fill="#000000" font-family="sans-serif" font-size="14" lengthAdjust="spacing" textLength="26" x="1616.5" y="806.602">0..1</text><text fill="#000000" font-family="sans-serif" font-size="14" lengthAdjust="spacing" textLength="92" x="1652.5" y="806.602">Name Length</text><line style="stroke:#181818;stroke-width:1.0;" x1="1647.5" x2="1647.5" y1="791.6069" y2="811.9038"/><line style="stroke:#181818;stroke-width:1.0;" x1="1611.5" x2="1792.5" y1="811.9038" y2="811.9038"/><text fill="#000000" font-family="sans-serif" font-size="14" lengthAdjust="spacing" textLength="26" x="1616.5" y="826.8989">2..n</text><text fill="#000000" font-family="sans-serif" font-size="14" lengthAdjust="spacing" textLength="135" x="1652.5" y="826.8989">Name: string + NUL</text><line style="stroke:#181818;stroke-width:1.0;" x1="1647.5" x2="1647.5" y1="811.9038" y2="832.2006"/></g><g id="elem_variunit"><rect fill="#F1F1F1" height="101.4844" style="stroke:#181818;stroke-width:0.5;" width="185" x="545.5" y="750.81"/><text fill="#000000" font-family="sans-serif" font-size="14" lengthAdjust="spacing" textLength="73" x="601.5" y="765.8051">Var w/ Unit</text><line style="stroke:#181818;stroke-width:1.0;" x1="545.5" x2="730.5" y1="771.1069" y2="771.1069"/><text fill="#000000" font-family="sans-serif" font-size="14" lengthAdjust="spacing" textLength="26" x="552.5" y="786.102">0..1</text><text fill="#000000" font-family="sans-serif" font-size="14" lengthAdjust="spacing" textLength="92" x="590.5" y="786.102">Name Length</text><line style="stroke:#181818;stroke-width:1.0;" x1="585.5" x2="585.5" y1="771.1069" y2="791.4038"/><line style="stroke:#181818;stroke-width:1.0;" x1="545.5" x2="730.5" y1="791.4038" y2="791.4038"/><text fill="#000000" font-family="sans-serif" font-size="14" lengthAdjust="spacing" textLength="26" x="552.5" y="806.3989">2..3</text><text fill="#000000" font-family="sans-serif" font-size="14" lengthAdjust="spacing" textLength="79" x="590.5" y="806.3989">Unit Length</text><line style="stroke:#181818;stroke-width:1.0;" x1="585.5" x2="585.5" y1="791.4038" y2="811.7006"/><line style="stroke:#181818;stroke-width:1.0;" x1="545.5" x2="730.5" y1="811.7006" y2="811.7006"/><text fill="#000000" font-family="sans-serif" font-size="14" lengthAdjust="spacing" textLength="26" x="552.5" y="826.6957">4..n</text><text fill="#000000" font-family="sans-serif" font-size="14" lengthAdjust="spacing" textLength="135" x="590.5" y="826.6957">Name: string + NUL</text><line style="stroke:#181818;stroke-width:1.0;" x1="585.5" x2="585.5" y1="811.7006" y2="831.9975"/><line style="stroke:#181818;stroke-width:1.0;" x1="545.5" x2="730.5" y1="831.9975" y2="831.9975"/><text fill="#000000" font-family="sans-serif" font-size="14" lengthAdjust="spacing" textLength="30" x="550.5" y="846.9926">n..m</text><text fill="#000000" font-family="sans-serif" font-size="14" lengthAdjust="spacing" textLength="122" x="590.5" y="846.9926">Unit: string + NUL</text><line style="stroke:#181818;stroke-width:1.0;" x1="585.5" x2="585.5" y1="831.9975" y2="852.2944"/></g><g id="elem_bool"><rect fill="#F1F1F1" height="60.8906" style="stroke:#181818;stroke-width:0.5;" width="209" x="1190.5" y="602.31"/><text fill="#000000" font-family="sans-serif" font-size="14" lengthAdjust="spacing" textLength="39" x="1275.5" y="617.3051">BOOL</text><line style="stroke:#181818;stroke-width:1.0;" x1="1190.5" x2="1399.5" y1="622.6069" y2="622.6069"/><text fill="#000000" font-family="sans-serif" font-size="14" lengthAdjust="spacing" textLength="62" x="1195.5" y="637.602">variname</text><text fill="#000000" font-family="sans-serif" font-size="14" lengthAdjust="spacing" textLength="55" x="1267.5" y="637.602">optional</text><line style="stroke:#181818;stroke-width:1.0;" x1="1262.5" x2="1262.5" y1="622.6069" y2="642.9038"/><line style="stroke:#181818;stroke-width:1.0;" x1="1190.5" x2="1399.5" y1="642.9038" y2="642.9038"/><text fill="#000000" font-family="sans-serif" font-size="14" lengthAdjust="spacing" textLength="43" x="1205" y="657.8989">1 byte</text><text fill="#000000" font-family="sans-serif" font-size="14" lengthAdjust="spacing" textLength="127" x="1267.5" y="657.8989">0 = false; 1 = true</text><line style="stroke:#181818;stroke-width:1.0;" x1="1262.5" x2="1262.5" y1="642.9038" y2="663.2006"/></g><g id="elem_int"><rect fill="#F1F1F1" height="60.8906" style="stroke:#181818;stroke-width:0.5;" width="194" x="301" y="602.31"/><text fill="#000000" font-family="sans-serif" font-size="14" lengthAdjust="spacing" textLength="71" x="362.5" y="617.3051">SINT, UINT</text><line style="stroke:#181818;stroke-width:1.0;" x1="301" x2="495" y1="622.6069" y2="622.6069"/><text fill="#000000" font-family="sans-serif" font-size="14" lengthAdjust="spacing" textLength="49" x="341" y="637.602">variunit</text><text fill="#000000" font-family="sans-serif" font-size="14" lengthAdjust="spacing" textLength="55" x="435" y="637.602">optional</text><line style="stroke:#181818;stroke-width:1.0;" x1="430" x2="430" y1="622.6069" y2="642.9038"/><line style="stroke:#181818;stroke-width:1.0;" x1="301" x2="495" y1="642.9038" y2="642.9038"/><text fill="#000000" font-family="sans-serif" font-size="14" lengthAdjust="spacing" textLength="119" x="306" y="657.8989">1, 2, 3, 4, 5 bytes</text><text fill="#000000" font-family="sans-serif" font-size="14" lengthAdjust="spacing" textLength="49" x="435" y="657.8989">Integer</text><line style="stroke:#181818;stroke-width:1.0;" x1="430" x2="430" y1="642.9038" y2="663.2006"/></g><g id="elem_float"><rect fill="#F1F1F1" height="60.8906" style="stroke:#181818;stroke-width:0.5;" width="183" x="546.5" y="602.31"/><text fill="#000000" font-family="sans-serif" font-size="14" lengthAdjust="spacing" textLength="44" x="616" y="617.3051">FLOAT</text><line style="stroke:#181818;stroke-width:1.0;" x1="546.5" x2="729.5" y1="622.6069" y2="622.6069"/><text fill="#000000" font-family="sans-serif" font-size="14" lengthAdjust="spacing" textLength="49" x="578" y="637.602">variunit</text><text fill="#000000" font-family="sans-serif" font-size="14" lengthAdjust="spacing" textLength="55" x="663.5" y="637.602">optional</text><line style="stroke:#181818;stroke-width:1.0;" x1="658.5" x2="658.5" y1="622.6069" y2="642.9038"/><line style="stroke:#181818;stroke-width:1.0;" x1="546.5" x2="729.5" y1="642.9038" y2="642.9038"/><text fill="#000000" font-family="sans-serif" font-size="14" lengthAdjust="spacing" textLength="102" x="551.5" y="657.8989">2, 3, 4, 5 bytes</text><text fill="#000000" font-family="sans-serif" font-size="14" lengthAdjust="spacing" textLength="61" x="663.5" y="657.8989">IEEE 768</text><line style="stroke:#181818;stroke-width:1.0;" x1="658.5" x2="658.5" y1="642.9038" y2="663.2006"/></g><g id="elem_string"><rect fill="#F1F1F1" height="81.1875" style="stroke:#181818;stroke-width:0.5;" width="230" x="1451" y="591.81"/><text fill="#000000" font-family="sans-serif" font-size="14" lengthAdjust="spacing" textLength="52" x="1540" y="606.8051">STRING</text><line style="stroke:#181818;stroke-width:1.0;" x1="1451" x2="1681" y1="612.1069" y2="612.1069"/><text fill="#000000" font-family="sans-serif" font-size="14" lengthAdjust="spacing" textLength="51" x="1461.5" y="627.102">2 bytes</text><text fill="#000000" font-family="sans-serif" font-size="14" lengthAdjust="spacing" textLength="48" x="1528" y="627.102">Length</text><line style="stroke:#181818;stroke-width:1.0;" x1="1523" x2="1523" y1="612.1069" y2="632.4038"/><line style="stroke:#181818;stroke-width:1.0;" x1="1451" x2="1681" y1="632.4038" y2="632.4038"/><text fill="#000000" font-family="sans-serif" font-size="14" lengthAdjust="spacing" textLength="62" x="1456" y="647.3989">variname</text><text fill="#000000" font-family="sans-serif" font-size="14" lengthAdjust="spacing" textLength="55" x="1528" y="647.3989">optional</text><line style="stroke:#181818;stroke-width:1.0;" x1="1523" x2="1523" y1="632.4038" y2="652.7006"/><line style="stroke:#181818;stroke-width:1.0;" x1="1451" x2="1681" y1="652.7006" y2="652.7006"/><text fill="#000000" font-family="sans-serif" font-size="14" lengthAdjust="spacing" textLength="51" x="1461.5" y="667.6957">n bytes</text><text fill="#000000" font-family="sans-serif" font-size="14" lengthAdjust="spacing" textLength="148" x="1528" y="667.6957">payload: string + NUL</text><line style="stroke:#181818;stroke-width:1.0;" x1="1523" x2="1523" y1="652.7006" y2="672.9975"/></g><g id="elem_array"><rect fill="#F1F1F1" height="101.4844" style="stroke:#181818;stroke-width:0.5;" width="358" x="781" y="581.81"/><text fill="#000000" font-family="sans-serif" font-size="14" lengthAdjust="spacing" textLength="37" x="941.5" y="596.8051">ARAY</text><line style="stroke:#181818;stroke-width:1.0;" x1="781" x2="1139" y1="602.1069" y2="602.1069"/><text fill="#000000" font-family="sans-serif" font-size="14" lengthAdjust="spacing" textLength="51" x="794" y="617.102">2 bytes</text><text fill="#000000" font-family="sans-serif" font-size="14" lengthAdjust="spacing" textLength="74" x="863" y="617.102">Dimension</text><line style="stroke:#181818;stroke-width:1.0;" x1="858" x2="858" y1="602.1069" y2="622.4038"/><line style="stroke:#181818;stroke-width:1.0;" x1="781" x2="1139" y1="622.4038" y2="622.4038"/><text fill="#000000" font-family="sans-serif" font-size="14" lengthAdjust="spacing" textLength="67" x="786" y="637.3989">2*d bytes</text><text fill="#000000" font-family="sans-serif" font-size="14" lengthAdjust="spacing" textLength="113" x="863" y="637.3989">Row Dimensons</text><line style="stroke:#181818;stroke-width:1.0;" x1="858" x2="858" y1="622.4038" y2="642.7006"/><line style="stroke:#181818;stroke-width:1.0;" x1="781" x2="1139" y1="642.7006" y2="642.7006"/><text fill="#000000" font-family="sans-serif" font-size="14" lengthAdjust="spacing" textLength="49" x="795" y="657.6957">variunit</text><text fill="#000000" font-family="sans-serif" font-size="14" lengthAdjust="spacing" textLength="55" x="863" y="657.6957">optional</text><line style="stroke:#181818;stroke-width:1.0;" x1="858" x2="858" y1="642.7006" y2="662.9975"/><line style="stroke:#181818;stroke-width:1.0;" x1="781" x2="1139" y1="662.9975" y2="662.9975"/><text fill="#000000" font-family="sans-serif" font-size="14" lengthAdjust="spacing" textLength="61" x="789" y="677.9926">l*e bytes</text><text fill="#000000" font-family="sans-serif" font-size="14" lengthAdjust="spacing" textLength="271" x="863" y="677.9926">Payload (l = type size; e = # elements)</text><line style="stroke:#181818;stroke-width:1.0;" x1="858" x2="858" y1="662.9975" y2="683.2944"/></g><g id="elem_struct"><rect fill="#F1F1F1" height="101.4844" style="stroke:#181818;stroke-width:0.5;" width="213" x="1732.5" y="581.81"/><text fill="#000000" font-family="sans-serif" font-size="14" lengthAdjust="spacing" textLength="38" x="1820" y="596.8051">STRU</text><line style="stroke:#181818;stroke-width:1.0;" x1="1732.5" x2="1945.5" y1="602.1069" y2="602.1069"/><text fill="#000000" font-family="sans-serif" font-size="14" lengthAdjust="spacing" textLength="51" x="1743" y="617.102">2 bytes</text><text fill="#000000" font-family="sans-serif" font-size="14" lengthAdjust="spacing" textLength="48" x="1809.5" y="617.102">entries</text><line style="stroke:#181818;stroke-width:1.0;" x1="1804.5" x2="1804.5" y1="602.1069" y2="622.4038"/><line style="stroke:#181818;stroke-width:1.0;" x1="1732.5" x2="1945.5" y1="622.4038" y2="622.4038"/><text fill="#000000" font-family="sans-serif" font-size="14" lengthAdjust="spacing" textLength="62" x="1737.5" y="637.3989">variname</text><text fill="#000000" font-family="sans-serif" font-size="14" lengthAdjust="spacing" textLength="55" x="1809.5" y="637.3989">optional</text><line style="stroke:#181818;stroke-width:1.0;" x1="1804.5" x2="1804.5" y1="622.4038" y2="642.7006"/><line style="stroke:#181818;stroke-width:1.0;" x1="1732.5" x2="1945.5" y1="642.7006" y2="642.7006"/><text fill="#000000" font-family="sans-serif" font-size="14" lengthAdjust="spacing" textLength="47" x="1745" y="657.6957">4 + e1</text><text fill="#000000" font-family="sans-serif" font-size="14" lengthAdjust="spacing" textLength="131" x="1809.5" y="657.6957">Type Info + Entry 1</text><line style="stroke:#181818;stroke-width:1.0;" x1="1804.5" x2="1804.5" y1="642.7006" y2="662.9975"/><line style="stroke:#181818;stroke-width:1.0;" x1="1732.5" x2="1945.5" y1="662.9975" y2="662.9975"/><text fill="#000000" font-family="sans-serif" font-size="14" lengthAdjust="spacing" textLength="47" x="1745" y="677.9926">4 + e2</text><text fill="#000000" font-family="sans-serif" font-size="14" lengthAdjust="spacing" textLength="131" x="1809.5" y="677.9926">Type Info + Entry 2</text><line style="stroke:#181818;stroke-width:1.0;" x1="1804.5" x2="1804.5" y1="662.9975" y2="683.2944"/></g><g id="elem_raw"><rect fill="#F1F1F1" height="81.1875" style="stroke:#181818;stroke-width:0.5;" width="137" x="1996.5" y="591.81"/><text fill="#000000" font-family="sans-serif" font-size="14" lengthAdjust="spacing" textLength="43" x="2043.5" y="606.8051">RAWD</text><line style="stroke:#181818;stroke-width:1.0;" x1="1996.5" x2="2133.5" y1="612.1069" y2="612.1069"/><text fill="#000000" font-family="sans-serif" font-size="14" lengthAdjust="spacing" textLength="51" x="2007" y="627.102">2 bytes</text><text fill="#000000" font-family="sans-serif" font-size="14" lengthAdjust="spacing" textLength="48" x="2073.5" y="627.102">Length</text><line style="stroke:#181818;stroke-width:1.0;" x1="2068.5" x2="2068.5" y1="612.1069" y2="632.4038"/><line style="stroke:#181818;stroke-width:1.0;" x1="1996.5" x2="2133.5" y1="632.4038" y2="632.4038"/><text fill="#000000" font-family="sans-serif" font-size="14" lengthAdjust="spacing" textLength="62" x="2001.5" y="647.3989">variname</text><text fill="#000000" font-family="sans-serif" font-size="14" lengthAdjust="spacing" textLength="55" x="2073.5" y="647.3989">optional</text><line style="stroke:#181818;stroke-width:1.0;" x1="2068.5" x2="2068.5" y1="632.4038" y2="652.7006"/><line style="stroke:#181818;stroke-width:1.0;" x1="1996.5" x2="2133.5" y1="652.7006" y2="652.7006"/><text fill="#000000" font-family="sans-serif" font-size="14" lengthAdjust="spacing" textLength="45" x="2010" y="667.6957">l bytes</text><text fill="#000000" font-family="sans-serif" font-size="14" lengthAdjust="spacing" textLength="53" x="2073.5" y="667.6957">Payload</text><line style="stroke:#181818;stroke-width:1.0;" x1="2068.5" x2="2068.5" y1="652.7006" y2="672.9975"/></g><g id="elem_traceinfo"><rect fill="#F1F1F1" height="60.8906" style="stroke:#181818;stroke-width:0.5;" width="219" x="30.5" y="602.31"/><text fill="#000000" font-family="sans-serif" font-size="14" lengthAdjust="spacing" textLength="31" x="124.5" y="617.3051">TRAI</text><line style="stroke:#181818;stroke-width:1.0;" x1="30.5" x2="249.5" y1="622.6069" y2="622.6069"/><text fill="#000000" font-family="sans-serif" font-size="14" lengthAdjust="spacing" textLength="51" x="35.5" y="637.602">2 bytes</text><text fill="#000000" font-family="sans-serif" font-size="14" lengthAdjust="spacing" textLength="48" x="96.5" y="637.602">Length</text><line style="stroke:#181818;stroke-width:1.0;" x1="91.5" x2="91.5" y1="622.6069" y2="642.9038"/><line style="stroke:#181818;stroke-width:1.0;" x1="30.5" x2="249.5" y1="642.9038" y2="642.9038"/><text fill="#000000" font-family="sans-serif" font-size="14" lengthAdjust="spacing" textLength="51" x="35.5" y="657.8989">n bytes</text><text fill="#000000" font-family="sans-serif" font-size="14" lengthAdjust="spacing" textLength="148" x="96.5" y="657.8989">payload: string + NUL</text><line style="stroke:#181818;stroke-width:1.0;" x1="91.5" x2="91.5" y1="642.9038" y2="663.2006"/></g><g id="elem_Argument"><rect fill="#F1F1F1" height="81.1875" style="stroke:#181818;stroke-width:0.5;" width="212" x="1021" y="432.81"/><text fill="#000000" font-family="sans-serif" font-size="14" lengthAdjust="spacing" textLength="68" x="1093" y="447.8051">Argument</text><line style="stroke:#181818;stroke-width:1.0;" x1="1021" x2="1233" y1="453.1069" y2="453.1069"/><text fill="#000000" font-family="sans-serif" font-size="14" lengthAdjust="spacing" textLength="26" x="1032" y="468.102">0..3</text><text fill="#000000" font-family="sans-serif" font-size="14" lengthAdjust="spacing" textLength="63" x="1074" y="468.102">Type Info</text><line style="stroke:#181818;stroke-width:1.0;" x1="1069" x2="1069" y1="453.1069" y2="473.4037"/><line style="stroke:#181818;stroke-width:1.0;" x1="1021" x2="1233" y1="473.4037" y2="473.4037"/><text fill="#000000" font-family="sans-serif" font-size="14" lengthAdjust="spacing" textLength="26" x="1032" y="488.3989">4..n</text><text fill="#000000" font-family="sans-serif" font-size="14" lengthAdjust="spacing" textLength="154" x="1074" y="488.3989">Variable Info (Optional)</text><line style="stroke:#181818;stroke-width:1.0;" x1="1069" x2="1069" y1="473.4037" y2="493.7006"/><line style="stroke:#181818;stroke-width:1.0;" x1="1021" x2="1233" y1="493.7006" y2="493.7006"/><text fill="#000000" font-family="sans-serif" font-size="14" lengthAdjust="spacing" textLength="38" x="1026" y="508.6957">n+1..</text><text fill="#000000" font-family="sans-serif" font-size="14" lengthAdjust="spacing" textLength="53" x="1074" y="508.6957">Payload</text><line style="stroke:#181818;stroke-width:1.0;" x1="1069" x2="1069" y1="493.7006" y2="513.9975"/></g><g id="elem_TypeInfo"><rect fill="#F1F1F1" height="284.1563" style="stroke:#181818;stroke-width:0.5;" width="262" x="996" y="80.81"/><text fill="#000000" font-family="sans-serif" font-size="14" lengthAdjust="spacing" textLength="215" x="1019.5" y="95.8051">Type Info (4 bytes) Little Endian</text><line style="stroke:#181818;stroke-width:1.0;" x1="996" x2="1258" y1="101.1069" y2="101.1069"/><text fill="#000000" font-family="sans-serif" font-size="14" lengthAdjust="spacing" textLength="44" x="1010" y="116.102">b0..b3</text><text fill="#000000" font-family="sans-serif" font-size="14" lengthAdjust="spacing" textLength="134" x="1073" y="116.102">Type Length (TYLE)</text><line style="stroke:#181818;stroke-width:1.0;" x1="1068" x2="1068" y1="101.1069" y2="121.4037"/><line style="stroke:#181818;stroke-width:1.0;" x1="996" x2="1258" y1="121.4037" y2="121.4037"/><text fill="#000000" font-family="sans-serif" font-size="14" lengthAdjust="spacing" textLength="18" x="1023" y="136.3989">b4</text><text fill="#000000" font-family="sans-serif" font-size="14" lengthAdjust="spacing" textLength="110" x="1073" y="136.3989">Boolean (BOOL)</text><line style="stroke:#181818;stroke-width:1.0;" x1="1068" x2="1068" y1="121.4037" y2="141.7006"/><line style="stroke:#181818;stroke-width:1.0;" x1="996" x2="1258" y1="141.7006" y2="141.7006"/><text fill="#000000" font-family="sans-serif" font-size="14" lengthAdjust="spacing" textLength="18" x="1023" y="156.6957">b5</text><text fill="#000000" font-family="sans-serif" font-size="14" lengthAdjust="spacing" textLength="114" x="1073" y="156.6957">Signed Int (SINT)</text><line style="stroke:#181818;stroke-width:1.0;" x1="1068" x2="1068" y1="141.7006" y2="161.9975"/><line style="stroke:#181818;stroke-width:1.0;" x1="996" x2="1258" y1="161.9975" y2="161.9975"/><text fill="#000000" font-family="sans-serif" font-size="14" lengthAdjust="spacing" textLength="18" x="1023" y="176.9926">b6</text><text fill="#000000" font-family="sans-serif" font-size="14" lengthAdjust="spacing" textLength="133" x="1073" y="176.9926">Unsigned Int (UINT)</text><line style="stroke:#181818;stroke-width:1.0;" x1="1068" x2="1068" y1="161.9975" y2="182.2944"/><line style="stroke:#181818;stroke-width:1.0;" x1="996" x2="1258" y1="182.2944" y2="182.2944"/><text fill="#000000" font-family="sans-serif" font-size="14" lengthAdjust="spacing" textLength="18" x="1023" y="197.2895">b7</text><text fill="#000000" font-family="sans-serif" font-size="14" lengthAdjust="spacing" textLength="82" x="1073" y="197.2895">Float (FLOA)</text><line style="stroke:#181818;stroke-width:1.0;" x1="1068" x2="1068" y1="182.2944" y2="202.5912"/><line style="stroke:#181818;stroke-width:1.0;" x1="996" x2="1258" y1="202.5912" y2="202.5912"/><text fill="#000000" font-family="sans-serif" font-size="14" lengthAdjust="spacing" textLength="18" x="1023" y="217.5864">b8</text><text fill="#000000" font-family="sans-serif" font-size="14" lengthAdjust="spacing" textLength="85" x="1073" y="217.5864">Array (ARAY)</text><line style="stroke:#181818;stroke-width:1.0;" x1="1068" x2="1068" y1="202.5912" y2="222.8881"/><line style="stroke:#181818;stroke-width:1.0;" x1="996" x2="1258" y1="222.8881" y2="222.8881"/><text fill="#000000" font-family="sans-serif" font-size="14" lengthAdjust="spacing" textLength="18" x="1023" y="237.8832">b9</text><text fill="#000000" font-family="sans-serif" font-size="14" lengthAdjust="spacing" textLength="93" x="1073" y="237.8832">String (STRG)</text><line style="stroke:#181818;stroke-width:1.0;" x1="1068" x2="1068" y1="222.8881" y2="243.185"/><line style="stroke:#181818;stroke-width:1.0;" x1="996" x2="1258" y1="243.185" y2="243.185"/><text fill="#000000" font-family="sans-serif" font-size="14" lengthAdjust="spacing" textLength="27" x="1018.5" y="258.1801">b10</text><text fill="#000000" font-family="sans-serif" font-size="14" lengthAdjust="spacing" textLength="86" x="1073" y="258.1801">Raw (RAWD)</text><line style="stroke:#181818;stroke-width:1.0;" x1="1068" x2="1068" y1="243.185" y2="263.4819"/><line style="stroke:#181818;stroke-width:1.0;" x1="996" x2="1258" y1="263.4819" y2="263.4819"/><text fill="#000000" font-family="sans-serif" font-size="14" lengthAdjust="spacing" textLength="27" x="1018.5" y="278.477">b11</text><text fill="#000000" font-family="sans-serif" font-size="14" lengthAdjust="spacing" textLength="180" x="1073" y="278.477">Variable Information (VARI)</text><line style="stroke:#181818;stroke-width:1.0;" x1="1068" x2="1068" y1="263.4819" y2="283.7787"/><line style="stroke:#181818;stroke-width:1.0;" x1="996" x2="1258" y1="283.7787" y2="283.7787"/><text fill="#000000" font-family="sans-serif" font-size="14" lengthAdjust="spacing" textLength="27" x="1018.5" y="298.7739">b12</text><text fill="#000000" font-family="sans-serif" font-size="14" lengthAdjust="spacing" textLength="118" x="1073" y="298.7739">Fixed Point (FIXP)</text><line style="stroke:#181818;stroke-width:1.0;" x1="1068" x2="1068" y1="283.7787" y2="304.0756"/><line style="stroke:#181818;stroke-width:1.0;" x1="996" x2="1258" y1="304.0756" y2="304.0756"/><text fill="#000000" font-family="sans-serif" font-size="14" lengthAdjust="spacing" textLength="27" x="1018.5" y="319.0707">b13</text><text fill="#000000" font-family="sans-serif" font-size="14" lengthAdjust="spacing" textLength="165" x="1073" y="319.0707">Trace Information (TRAI)</text><line style="stroke:#181818;stroke-width:1.0;" x1="1068" x2="1068" y1="304.0756" y2="324.3725"/><line style="stroke:#181818;stroke-width:1.0;" x1="996" x2="1258" y1="324.3725" y2="324.3725"/><text fill="#000000" font-family="sans-serif" font-size="14" lengthAdjust="spacing" textLength="27" x="1018.5" y="339.3676">b14</text><text fill="#000000" font-family="sans-serif" font-size="14" lengthAdjust="spacing" textLength="93" x="1073" y="339.3676">Struct (STRU)</text><line style="stroke:#181818;stroke-width:1.0;" x1="1068" x2="1068" y1="324.3725" y2="344.6694"/><line style="stroke:#181818;stroke-width:1.0;" x1="996" x2="1258" y1="344.6694" y2="344.6694"/><text fill="#000000" font-family="sans-serif" font-size="14" lengthAdjust="spacing" textLength="62" x="1001" y="359.6645">b15..b17</text><text fill="#000000" font-family="sans-serif" font-size="14" lengthAdjust="spacing" textLength="164" x="1073" y="359.6645">String encoding (SCOD)</text><line style="stroke:#181818;stroke-width:1.0;" x1="1068" x2="1068" y1="344.6694" y2="364.9662"/></g><g id="elem_TypeLength"><rect fill="#F1F1F1" height="142.0781" style="stroke:#181818;stroke-width:0.5;" width="148" x="1538" y="151.81"/><text fill="#000000" font-family="sans-serif" font-size="14" lengthAdjust="spacing" textLength="134" x="1545" y="166.8051">Type Length (TYLE)</text><line style="stroke:#181818;stroke-width:1.0;" x1="1538" x2="1686" y1="172.1069" y2="172.1069"/><text fill="#000000" font-family="sans-serif" font-size="14" lengthAdjust="spacing" textLength="9" x="1543" y="187.102">0</text><text fill="#000000" font-family="sans-serif" font-size="14" lengthAdjust="spacing" textLength="71" x="1562" y="187.102">Undefined</text><line style="stroke:#181818;stroke-width:1.0;" x1="1557" x2="1557" y1="172.1069" y2="192.4037"/><line style="stroke:#181818;stroke-width:1.0;" x1="1538" x2="1686" y1="192.4037" y2="192.4037"/><text fill="#000000" font-family="sans-serif" font-size="14" lengthAdjust="spacing" textLength="9" x="1543" y="207.3989">1</text><text fill="#000000" font-family="sans-serif" font-size="14" lengthAdjust="spacing" textLength="31" x="1562" y="207.3989">8-bit</text><line style="stroke:#181818;stroke-width:1.0;" x1="1557" x2="1557" y1="192.4037" y2="212.7006"/><line style="stroke:#181818;stroke-width:1.0;" x1="1538" x2="1686" y1="212.7006" y2="212.7006"/><text fill="#000000" font-family="sans-serif" font-size="14" lengthAdjust="spacing" textLength="9" x="1543" y="227.6957">2</text><text fill="#000000" font-family="sans-serif" font-size="14" lengthAdjust="spacing" textLength="40" x="1562" y="227.6957">16-bit</text><line style="stroke:#181818;stroke-width:1.0;" x1="1557" x2="1557" y1="212.7006" y2="232.9975"/><line style="stroke:#181818;stroke-width:1.0;" x1="1538" x2="1686" y1="232.9975" y2="232.9975"/><text fill="#000000" font-family="sans-serif" font-size="14" lengthAdjust="spacing" textLength="9" x="1543" y="247.9926">3</text><text fill="#000000" font-family="sans-serif" font-size="14" lengthAdjust="spacing" textLength="40" x="1562" y="247.9926">32-bit</text><line style="stroke:#181818;stroke-width:1.0;" x1="1557" x2="1557" y1="232.9975" y2="253.2944"/><line style="stroke:#181818;stroke-width:1.0;" x1="1538" x2="1686" y1="253.2944" y2="253.2944"/><text fill="#000000" font-family="sans-serif" font-size="14" lengthAdjust="spacing" textLength="9" x="1543" y="268.2895">4</text><text fill="#000000" font-family="sans-serif" font-size="14" lengthAdjust="spacing" textLength="40" x="1562" y="268.2895">64-bit</text><line style="stroke:#181818;stroke-width:1.0;" x1="1557" x2="1557" y1="253.2944" y2="273.5912"/><line style="stroke:#181818;stroke-width:1.0;" x1="1538" x2="1686" y1="273.5912" y2="273.5912"/><text fill="#000000" font-family="sans-serif" font-size="14" lengthAdjust="spacing" textLength="9" x="1543" y="288.5864">5</text><text fill="#000000" font-family="sans-serif" font-size="14" lengthAdjust="spacing" textLength="49" x="1562" y="288.5864">128-bit</text><line style="stroke:#181818;stroke-width:1.0;" x1="1557" x2="1557" y1="273.5912" y2="293.8881"/></g><g id="elem_StringCoding"><rect fill="#F1F1F1" height="60.8906" style="stroke:#181818;stroke-width:0.5;" width="178" x="1309" y="192.81"/><text fill="#000000" font-family="sans-serif" font-size="14" lengthAdjust="spacing" textLength="164" x="1316" y="207.8051">String encoding (SCOD)</text><line style="stroke:#181818;stroke-width:1.0;" x1="1309" x2="1487" y1="213.1069" y2="213.1069"/><text fill="#000000" font-family="sans-serif" font-size="14" lengthAdjust="spacing" textLength="9" x="1314" y="228.102">0</text><text fill="#000000" font-family="sans-serif" font-size="14" lengthAdjust="spacing" textLength="34" x="1333" y="228.102">ASCII</text><line style="stroke:#181818;stroke-width:1.0;" x1="1328" x2="1328" y1="213.1069" y2="233.4037"/><line style="stroke:#181818;stroke-width:1.0;" x1="1309" x2="1487" y1="233.4037" y2="233.4037"/><text fill="#000000" font-family="sans-serif" font-size="14" lengthAdjust="spacing" textLength="9" x="1314" y="248.3989">1</text><text fill="#000000" font-family="sans-serif" font-size="14" lengthAdjust="spacing" textLength="41" x="1333" y="248.3989">UTF-8</text><line style="stroke:#181818;stroke-width:1.0;" x1="1328" x2="1328" y1="233.4037" y2="253.7006"/></g><!--link TypeInfo to Argument--><g id="link_TypeInfo_Argument"><path codeLine="37" d="M1127,368.72 C1127,390.66 1127,411.71 1127,429.04 " fill="none" id="TypeInfo-Argument" style="stroke:#181818;stroke-width:1.0;"/></g><!--link TypeInfo to TypeLength--><g id="link_TypeInfo_TypeLength"><path codeLine="38" d="M1250,76.99 C1266.08,64.87 1283.33,54.38 1301.5,46.81 C1381.09,13.64 1419.55,6 1495.5,46.81 C1535.53,68.32 1564.11,110.28 1582.95,147.84 " fill="none" id="TypeInfo-TypeLength" style="stroke:#181818;stroke-width:1.0;"/></g><!--link TypeInfo to StringCoding--><g id="link_TypeInfo_StringCoding"><path codeLine="39" d="M1265.94,222.81 C1277.63,222.81 1289.33,222.81 1301.02,222.81 " fill="none" id="TypeInfo-StringCoding" style="stroke:#181818;stroke-width:1.0;"/></g><!--reverse link bool to variname--><g id="link_bool_variname"><path codeLine="100" d="M1388.27,671.58 C1458.8,700.52 1554.63,739.84 1621.76,767.38 " fill="none" id="bool-backto-variname" style="stroke:#181818;stroke-width:1.0;"/><polygon fill="#181818" points="1376.41,666.3,1380.4454,672.2762,1387.514,670.8498,1383.4786,664.8735,1376.41,666.3" style="stroke:#181818;stroke-width:1.0;"/></g><!--reverse link int to variunit--><g id="link_int_variunit"><path codeLine="101" d="M456.66,674.13 C488.2,696.08 527.47,723.4 561.4,747.01 " fill="none" id="int-backto-variunit" style="stroke:#181818;stroke-width:1.0;"/><polygon fill="#181818" points="446.42,666.3,449.0591,673.0108,456.2687,673.1559,453.6296,666.445,446.42,666.3" style="stroke:#181818;stroke-width:1.0;"/></g><!--reverse link float to variunit--><g id="link_float_variunit"><path codeLine="102" d="M638,680.02 C638,700.84 638,725.47 638,747.01 " fill="none" id="float-backto-variunit" style="stroke:#181818;stroke-width:1.0;"/><polygon fill="#181818" points="638,667.3,634,673.3,638,679.3,642,673.3,638,667.3" style="stroke:#181818;stroke-width:1.0;"/></g><!--reverse link string to variname--><g id="link_string_variname"><path codeLine="103" d="M1610.02,687.36 C1631.49,713.72 1656.61,744.58 1675.18,767.37 " fill="none" id="string-backto-variname" style="stroke:#181818;stroke-width:1.0;"/><polygon fill="#181818" points="1601.38,677.75,1602.0664,684.9284,1608.9565,687.0557,1608.2702,679.8773,1601.38,677.75" style="stroke:#181818;stroke-width:1.0;"/></g><!--reverse link array to variunit--><g id="link_array_variunit"><path codeLine="104" d="M845.05,692.93 C810.21,711 772.23,730.7 738.42,748.23 " fill="none" id="array-backto-variunit" style="stroke:#181818;stroke-width:1.0;"/><polygon fill="#181818" points="856.23,686.61,849.0618,685.8248,845.5799,692.1396,852.7482,692.9248,856.23,686.61" style="stroke:#181818;stroke-width:1.0;"/></g><!--reverse link struct to variname--><g id="link_struct_variname"><path codeLine="105" d="M1786.42,697.4 C1766.82,721.3 1745.37,747.44 1729,767.4 " fill="none" id="struct-backto-variname" style="stroke:#181818;stroke-width:1.0;"/><polygon fill="#181818" points="1795.28,687.61,1788.3812,689.7091,1787.6654,696.8846,1794.5642,694.7855,1795.28,687.61" style="stroke:#181818;stroke-width:1.0;"/></g><!--reverse link raw to variname--><g id="link_raw_variname"><path codeLine="106" d="M1978.26,683.16 C1975.82,684.41 1973.4,685.63 1971,686.81 C1910.66,716.58 1840.56,746 1787.06,767.42 " fill="none" id="raw-backto-variname" style="stroke:#181818;stroke-width:1.0;"/><polygon fill="#181818" points="1989.52,676.76,1982.3491,675.9994,1978.889,682.3261,1986.0599,683.0867,1989.52,676.76" style="stroke:#181818;stroke-width:1.0;"/></g><!--reverse link Argument to bool--><g id="link_Argument_bool"><path codeLine="109" d="M1183.53,527.14 C1208.74,550.7 1237.66,577.72 1259.72,598.34 " fill="none" id="Argument-backto-bool" style="stroke:#181818;stroke-width:1.0;"/><polygon fill="#181818" points="1174.35,518.63,1175.9995,525.6499,1183.1139,526.8272,1181.4643,519.8073,1174.35,518.63" style="stroke:#181818;stroke-width:1.0;"/></g><!--reverse link Argument to int--><g id="link_Argument_int"><path codeLine="110" d="M999.1,478.72 C847.53,485.39 604.95,501.05 521,534.81 C485.75,548.99 452.26,576.52 429.16,598.56 " fill="none" id="Argument-backto-int" style="stroke:#181818;stroke-width:1.0;"/><polygon fill="#181818" points="1012.02,478.12,1005.8541,474.3809,1000.031,478.6344,1006.197,482.3735,1012.02,478.12" style="stroke:#181818;stroke-width:1.0;"/></g><!--reverse link Argument to float--><g id="link_Argument_float"><path codeLine="111" d="M999.48,478.73 C925.63,485.23 832.45,500.34 756,534.81 C722.47,549.93 690.56,577.08 668.4,598.74 " fill="none" id="Argument-backto-float" style="stroke:#181818;stroke-width:1.0;"/><polygon fill="#181818" points="1012.04,477.62,1005.7346,474.1212,1000.0797,478.5958,1006.3851,482.0947,1012.04,477.62" style="stroke:#181818;stroke-width:1.0;"/></g><!--reverse link Argument to string--><g id="link_Argument_string"><path codeLine="112" d="M1254.46,488.72 C1308.53,497.73 1371.33,512.1 1425,534.81 C1456.42,548.1 1488.06,568.92 1513.39,587.83 " fill="none" id="Argument-backto-string" style="stroke:#181818;stroke-width:1.0;"/><polygon fill="#181818" points="1241.91,486.55,1247.1957,491.4553,1253.7566,488.4629,1248.4709,483.5576,1241.91,486.55" style="stroke:#181818;stroke-width:1.0;"/></g><!--reverse link Argument to array--><g id="link_Argument_array"><path codeLine="113" d="M1070.87,527.07 C1053.41,543.5 1034.14,561.61 1016.64,578.06 " fill="none" id="Argument-backto-array" style="stroke:#181818;stroke-width:1.0;"/><polygon fill="#181818" points="1079.92,518.63,1072.8084,519.8237,1071.175,526.8474,1078.2866,525.6537,1079.92,518.63" style="stroke:#181818;stroke-width:1.0;"/></g><!--reverse link Argument to struct--><g id="link_Argument_struct"><path codeLine="114" d="M1254.65,479.86 C1399.84,487.54 1627.14,504.06 1707,534.81 C1732.96,544.81 1758.39,561.29 1779.89,577.83 " fill="none" id="Argument-backto-struct" style="stroke:#181818;stroke-width:1.0;"/><polygon fill="#181818" points="1241.86,479.15,1247.6455,483.4545,1253.844,479.7696,1248.0585,475.4652,1241.86,479.15" style="stroke:#181818;stroke-width:1.0;"/></g><!--reverse link Argument to raw--><g id="link_Argument_raw"><path codeLine="115" d="M1254.86,478.48 C1474.91,486.38 1907.83,505.45 1971,534.81 C1996.24,546.54 2018.33,568.22 2034.74,588.06 " fill="none" id="Argument-backto-raw" style="stroke:#181818;stroke-width:1.0;"/><polygon fill="#181818" points="1242,477.98,1247.8556,482.1886,1253.9926,478.4022,1248.137,474.1936,1242,477.98" style="stroke:#181818;stroke-width:1.0;"/></g><!--reverse link Argument to traceinfo--><g id="link_Argument_traceinfo"><path codeLine="116" d="M999.52,474.99 C795.54,477.48 405.57,488.38 276,534.81 C237.71,548.53 200.48,576.26 174.69,598.48 " fill="none" id="Argument-backto-traceinfo" style="stroke:#181818;stroke-width:1.0;"/><polygon fill="#181818" points="1012.28,474.83,1006.2321,470.9028,1000.2809,474.975,1006.3288,478.9022,1012.28,474.83" style="stroke:#181818;stroke-width:1.0;"/></g><!--SRC=[fLLDRzf04BtxLupQYqEm6nk7q5Qjv2GG8I6874YRum8BjMhMo3PDQTN_tjdPPOt1IgZgcz_Cx7ixNxjYQmYpvMR5HG6_BS3lmdLRyEapZBTh3dsnI0aDN5T8z95bCPicoWBsQ5t4gM396Jc9SyzrfTSzsoOfcrj_B6k536_CMM07CDqMF3-3GLmKU4vNp6CctW3BYP6SICWKXKnB9GCkbiKtiCTFWownJGDfkqxJX3C1zlLeD53ufSGVugNWS-Gim7xe3yVAr9QcYSZtZ1DZl9B67kf6j3SOXGhjI3JCChO5Eup29uM-9uuYYyKIpnz7TmhsBYGUiMUme_3BhGQzeyHbAoRp1lPZ6FMrbq_qyKyKTf_6Kbgl__LU6rKUCZOxY1z7uIu-q98siu8aJJH-YMdqhlRqSZ5BvqhupGWrLefKIREfYaPrWwWaplaYnYmIH3ViEDEue5-wYjSs_wI-vPj_ajeEp3zLpFFL0JivzMf9aZBTA7nFLFXmq- -NWYRZdjEHvvaETpQEwJBBj9kJENkthEBxL9QrPhFlRCdDoEIQdGHZXKdT3woqO2kkRNgcID5GmffcP_FrP4dR1yZLhSzXE1cG2yhVPu3dTvZxk31C6_mvdQcbQeSX1xRWPHKqtQwxseM_8bGE8ocSudZkgJEfmMDIlJgCqQFD84rOJ5Ym9ESVPI41UveVKSYXReASNYAAHN70GucfvMc2tuHM4u8cTXvj8-c7su0lUNP495U1ubZGRZYHfPQYs-t2LRjpV9bnr1_U4OdEQydYb_47DNincw8CMwjj_4hDv78Z1OoMNQs0snYxFaUYqjYOb-OeVTOkgSXFIrFIu6MyVZR0JcJLvJhAur_O17X3U0iyuJHpPtNfc-oI9zTVhNOCpMAUdvQz09F4lSepY4WNZzY2L_Nowxty8vNoHI2L6RuF_rtVv2XjHuJoSI32GZuSiNbPNw7zbyun4d6pDcZQhKh92SRPh45fcceEKLGr0TINzG5Oz1e3vhco_HkEeoHM4Ack0YXX5KXhgc1Apg6RL5B1f8WAO8hn5m00]--></g></svg>