<?xml version="1.0" encoding="us-ascii" standalone="no"?><svg xmlns="http://www.w3.org/2000/svg" xmlns:xlink="http://www.w3.org/1999/xlink" contentStyleType="text/css" height="192px" preserveAspectRatio="none" style="width:1122px;height:192px;background:#FFFFFF;" version="1.1" viewBox="0 0 1122 192" width="1122px" zoomAndPan="magnify"><defs/><g><!--class ITraceDecoder--><g id="elem_ITraceDecoder"><rect codeLine="2" fill="#F1F1F1" height="48" id="ITraceDecoder" rx="2.5" ry="2.5" style="stroke:#181818;stroke-width:0.5;" width="246" x="865.5" y="17.26"/><ellipse cx="880.5" cy="33.26" fill="#B4A7E5" rx="11" ry="11" style="stroke:#181818;stroke-width:1.0;"/><path d="M876.4219,29.0256 L876.4219,26.8694 L883.8125,26.8694 L883.8125,29.0256 L881.3438,29.0256 L881.3438,37.1037 L883.8125,37.1037 L883.8125,39.26 L876.4219,39.26 L876.4219,37.1037 L878.8906,37.1037 L878.8906,29.0256 L876.4219,29.0256 Z " fill="#000000"/><text fill="#000000" font-family="sans-serif" font-size="14" font-style="italic" lengthAdjust="spacing" textLength="102" x="894.5" y="38.1067">ITraceDecoder</text><rect fill="#FFFFFF" height="15.9688" style="stroke:#181818;stroke-width:1.0;stroke-dasharray:2.0,2.0;" width="110" x="1004.5" y="14.26"/><text fill="#000000" font-family="sans-serif" font-size="12" font-style="italic" lengthAdjust="spacing" textLength="108" x="1005.5" y="26.3987">DltTraceLineBase</text><line style="stroke:#181818;stroke-width:0.5;" x1="866.5" x2="1110.5" y1="49.26" y2="49.26"/><line style="stroke:#181818;stroke-width:0.5;" x1="866.5" x2="1110.5" y1="57.26" y2="57.26"/></g><!--class DltPcapTraceDecoder--><g id="elem_DltPcapTraceDecoder"><rect codeLine="3" fill="#F1F1F1" height="48" id="DltPcapTraceDecoder" rx="2.5" ry="2.5" style="stroke:#181818;stroke-width:0.5;" width="184" x="896.5" y="137.53"/><ellipse cx="911.5" cy="153.53" fill="#ADD1B2" rx="11" ry="11" style="stroke:#181818;stroke-width:1.0;"/><path d="M914.4688,159.1706 Q913.8906,159.4675 913.25,159.6081 Q912.6094,159.7644 911.9063,159.7644 Q909.4063,159.7644 908.0781,158.1238 Q906.7656,156.4675 906.7656,153.3425 Q906.7656,150.2175 908.0781,148.5613 Q909.4063,146.905 911.9063,146.905 Q912.6094,146.905 913.25,147.0613 Q913.9063,147.2175 914.4688,147.5144 L914.4688,150.2331 Q913.8438,149.655 913.25,149.3894 Q912.6563,149.1081 912.0313,149.1081 Q910.6875,149.1081 910,150.1863 Q909.3125,151.2488 909.3125,153.3425 Q909.3125,155.4363 910,156.5144 Q910.6875,157.5769 912.0313,157.5769 Q912.6563,157.5769 913.25,157.3113 Q913.8438,157.03 914.4688,156.4519 L914.4688,159.1706 Z " fill="#000000"/><text fill="#000000" font-family="sans-serif" font-size="14" lengthAdjust="spacing" textLength="152" x="925.5" y="158.3767">DltPcapTraceDecoder</text><line style="stroke:#181818;stroke-width:0.5;" x1="897.5" x2="1079.5" y1="169.53" y2="169.53"/><line style="stroke:#181818;stroke-width:0.5;" x1="897.5" x2="1079.5" y1="177.53" y2="177.53"/></g><!--class TraceReader--><g id="elem_TraceReader"><rect codeLine="10" fill="#F1F1F1" height="48" id="TraceReader" rx="2.5" ry="2.5" style="stroke:#181818;stroke-width:0.5;" width="233" x="628" y="137.53"/><ellipse cx="643" cy="153.53" fill="#ADD1B2" rx="11" ry="11" style="stroke:#181818;stroke-width:1.0;"/><path d="M645.9688,159.1706 Q645.3906,159.4675 644.75,159.6081 Q644.1094,159.7644 643.4063,159.7644 Q640.9063,159.7644 639.5781,158.1238 Q638.2656,156.4675 638.2656,153.3425 Q638.2656,150.2175 639.5781,148.5613 Q640.9063,146.905 643.4063,146.905 Q644.1094,146.905 644.75,147.0613 Q645.4063,147.2175 645.9688,147.5144 L645.9688,150.2331 Q645.3438,149.655 644.75,149.3894 Q644.1563,149.1081 643.5313,149.1081 Q642.1875,149.1081 641.5,150.1863 Q640.8125,151.2488 640.8125,153.3425 Q640.8125,155.4363 641.5,156.5144 Q642.1875,157.5769 643.5313,157.5769 Q644.1563,157.5769 644.75,157.3113 Q645.3438,157.03 645.9688,156.4519 L645.9688,159.1706 Z " fill="#000000"/><text fill="#000000" font-family="sans-serif" font-size="14" lengthAdjust="spacing" textLength="89" x="657" y="158.3767">TraceReader</text><rect fill="#FFFFFF" height="15.9688" style="stroke:#181818;stroke-width:1.0;stroke-dasharray:2.0,2.0;" width="110" x="754" y="134.53"/><text fill="#000000" font-family="sans-serif" font-size="12" font-style="italic" lengthAdjust="spacing" textLength="108" x="755" y="146.6687">DltTraceLineBase</text><line style="stroke:#181818;stroke-width:0.5;" x1="629" x2="860" y1="169.53" y2="169.53"/><line style="stroke:#181818;stroke-width:0.5;" x1="629" x2="860" y1="177.53" y2="177.53"/></g><!--class TraceReaderFactory--><g id="elem_TraceReaderFactory"><rect codeLine="8" fill="#F1F1F1" height="48" id="TraceReaderFactory" rx="2.5" ry="2.5" style="stroke:#181818;stroke-width:0.5;" width="171" x="303" y="17.26"/><ellipse cx="318" cy="33.26" fill="#ADD1B2" rx="11" ry="11" style="stroke:#181818;stroke-width:1.0;"/><path d="M320.9688,38.9006 Q320.3906,39.1975 319.75,39.3381 Q319.1094,39.4944 318.4063,39.4944 Q315.9063,39.4944 314.5781,37.8537 Q313.2656,36.1975 313.2656,33.0725 Q313.2656,29.9475 314.5781,28.2912 Q315.9063,26.635 318.4063,26.635 Q319.1094,26.635 319.75,26.7912 Q320.4063,26.9475 320.9688,27.2444 L320.9688,29.9631 Q320.3438,29.385 319.75,29.1194 Q319.1563,28.8381 318.5313,28.8381 Q317.1875,28.8381 316.5,29.9162 Q315.8125,30.9787 315.8125,33.0725 Q315.8125,35.1662 316.5,36.2444 Q317.1875,37.3069 318.5313,37.3069 Q319.1563,37.3069 319.75,37.0412 Q320.3438,36.76 320.9688,36.1819 L320.9688,38.9006 Z " fill="#000000"/><text fill="#000000" font-family="sans-serif" font-size="14" lengthAdjust="spacing" textLength="139" x="332" y="38.1067">TraceReaderFactory</text><line style="stroke:#181818;stroke-width:0.5;" x1="304" x2="473" y1="49.26" y2="49.26"/><line style="stroke:#181818;stroke-width:0.5;" x1="304" x2="473" y1="57.26" y2="57.26"/></g><!--class DltPcapTraceReaderFactory--><g id="elem_DltPcapTraceReaderFactory"><rect codeLine="9" fill="#F1F1F1" height="48" id="DltPcapTraceReaderFactory" rx="2.5" ry="2.5" style="stroke:#181818;stroke-width:0.5;" width="224" x="276.5" y="137.53"/><ellipse cx="291.5" cy="153.53" fill="#ADD1B2" rx="11" ry="11" style="stroke:#181818;stroke-width:1.0;"/><path d="M294.4688,159.1706 Q293.8906,159.4675 293.25,159.6081 Q292.6094,159.7644 291.9063,159.7644 Q289.4063,159.7644 288.0781,158.1238 Q286.7656,156.4675 286.7656,153.3425 Q286.7656,150.2175 288.0781,148.5613 Q289.4063,146.905 291.9063,146.905 Q292.6094,146.905 293.25,147.0613 Q293.9063,147.2175 294.4688,147.5144 L294.4688,150.2331 Q293.8438,149.655 293.25,149.3894 Q292.6563,149.1081 292.0313,149.1081 Q290.6875,149.1081 290,150.1863 Q289.3125,151.2488 289.3125,153.3425 Q289.3125,155.4363 290,156.5144 Q290.6875,157.5769 292.0313,157.5769 Q292.6563,157.5769 293.25,157.3113 Q293.8438,157.03 294.4688,156.4519 L294.4688,159.1706 Z " fill="#000000"/><text fill="#000000" font-family="sans-serif" font-size="14" lengthAdjust="spacing" textLength="192" x="305.5" y="158.3767">DltPcapTraceReaderFactory</text><line style="stroke:#181818;stroke-width:0.5;" x1="277.5" x2="499.5" y1="169.53" y2="169.53"/><line style="stroke:#181818;stroke-width:0.5;" x1="277.5" x2="499.5" y1="177.53" y2="177.53"/></g><!--class DltDumpTraceReaderFactory--><g id="elem_DltDumpTraceReaderFactory"><rect codeLine="17" fill="#F1F1F1" height="48" id="DltDumpTraceReaderFactory" rx="2.5" ry="2.5" style="stroke:#181818;stroke-width:0.5;" width="232" x="9.5" y="137.53"/><ellipse cx="24.5" cy="153.53" fill="#ADD1B2" rx="11" ry="11" style="stroke:#181818;stroke-width:1.0;"/><path d="M27.4688,159.1706 Q26.8906,159.4675 26.25,159.6081 Q25.6094,159.7644 24.9063,159.7644 Q22.4063,159.7644 21.0781,158.1238 Q19.7656,156.4675 19.7656,153.3425 Q19.7656,150.2175 21.0781,148.5613 Q22.4063,146.905 24.9063,146.905 Q25.6094,146.905 26.25,147.0613 Q26.9063,147.2175 27.4688,147.5144 L27.4688,150.2331 Q26.8438,149.655 26.25,149.3894 Q25.6563,149.1081 25.0313,149.1081 Q23.6875,149.1081 23,150.1863 Q22.3125,151.2488 22.3125,153.3425 Q22.3125,155.4363 23,156.5144 Q23.6875,157.5769 25.0313,157.5769 Q25.6563,157.5769 26.25,157.3113 Q26.8438,157.03 27.4688,156.4519 L27.4688,159.1706 Z " fill="#000000"/><text fill="#000000" font-family="sans-serif" font-size="14" lengthAdjust="spacing" textLength="200" x="38.5" y="158.3767">DltDumpTraceReaderFactory</text><line style="stroke:#181818;stroke-width:0.5;" x1="10.5" x2="240.5" y1="169.53" y2="169.53"/><line style="stroke:#181818;stroke-width:0.5;" x1="10.5" x2="240.5" y1="177.53" y2="177.53"/></g><g id="elem_GMN14"><path d="M6,6 L6,76.5313 A0,0 0 0 0 6,76.5313 L121.5,76.5313 L125.5,137.38 L129.5,76.5313 L245,76.5313 A0,0 0 0 0 245,76.5313 L245,16 L235,6 L6,6 A0,0 0 0 0 6,6 " fill="#FEFFDD" style="stroke:#181818;stroke-width:0.5;"/><path d="M235,6 L235,16 L245,16 L235,6 " fill="#FEFFDD" style="stroke:#181818;stroke-width:0.5;"/><text fill="#000000" font-family="sans-serif" font-size="13" lengthAdjust="spacing" textLength="217" x="12" y="23.0669">The FilterApp sets the appropriate</text><text fill="#000000" font-family="sans-serif" font-size="13" lengthAdjust="spacing" textLength="217" x="12" y="38.1997">fields, which decides based on the</text><text fill="#000000" font-family="sans-serif" font-size="13" lengthAdjust="spacing" textLength="218" x="12" y="53.3325">input format to instantiate a PCAP</text><text fill="#000000" font-family="sans-serif" font-size="13" lengthAdjust="spacing" textLength="56" x="12" y="68.4653">decoder.</text></g><!--reverse link ITraceDecoder to DltPcapTraceDecoder--><g id="link_ITraceDecoder_DltPcapTraceDecoder"><path codeLine="5" d="M988.5,86.38 C988.5,103.64 988.5,122.73 988.5,137.21 " fill="none" id="ITraceDecoder-backto-DltPcapTraceDecoder" style="stroke:#181818;stroke-width:1.0;stroke-dasharray:7.0,7.0;"/><polygon fill="none" points="981.5,86.63,988.5,66.63,995.5,86.63,981.5,86.63" style="stroke:#181818;stroke-width:1.0;"/></g><!--reverse link TraceReader to DltPcapTraceDecoder--><g id="link_TraceReader_DltPcapTraceDecoder"><path codeLine="12" d="M875.12,161.53 C882.1,161.53 889.07,161.53 896.05,161.53 " fill="none" id="TraceReader-backto-DltPcapTraceDecoder" style="stroke:#181818;stroke-width:1.0;"/><polygon fill="#181818" points="862.26,161.53,868.26,165.53,874.26,161.53,868.26,157.53,862.26,161.53" style="stroke:#181818;stroke-width:1.0;"/></g><!--reverse link TraceReaderFactory to DltPcapTraceReaderFactory--><g id="link_TraceReaderFactory_DltPcapTraceReaderFactory"><path codeLine="14" d="M388.5,86.38 C388.5,103.64 388.5,122.73 388.5,137.21 " fill="none" id="TraceReaderFactory-backto-DltPcapTraceReaderFactory" style="stroke:#181818;stroke-width:1.0;"/><polygon fill="none" points="381.5,86.63,388.5,66.63,395.5,86.63,381.5,86.63" style="stroke:#181818;stroke-width:1.0;"/></g><!--link DltPcapTraceReaderFactory to TraceReader--><g id="link_DltPcapTraceReaderFactory_TraceReader"><path codeLine="15" d="M500.65,161.53 C539.21,161.53 582.57,161.53 621.92,161.53 " fill="none" id="DltPcapTraceReaderFactory-to-TraceReader" style="stroke:#181818;stroke-width:1.0;"/><polygon fill="#181818" points="626.69,161.53,617.69,157.53,621.69,161.53,617.69,165.53,626.69,161.53" style="stroke:#181818;stroke-width:1.0;"/><text fill="#000000" font-family="sans-serif" font-size="13" lengthAdjust="spacing" textLength="91" x="518.75" y="154.5969">&#171;instantiates&#187;</text></g><!--link DltDumpTraceReaderFactory to DltPcapTraceReaderFactory--><g id="link_DltDumpTraceReaderFactory_DltPcapTraceReaderFactory"><path codeLine="25" d="M241.85,161.53 C251.33,161.53 260.82,161.53 270.31,161.53 " fill="none" id="DltDumpTraceReaderFactory-to-DltPcapTraceReaderFactory" style="stroke:#181818;stroke-width:1.0;"/><polygon fill="#181818" points="275.22,161.53,266.22,157.53,270.22,161.53,266.22,165.53,275.22,161.53" style="stroke:#181818;stroke-width:1.0;"/></g><!--SRC=[XL7HIiGm47pFLyops7w0bC9fEH3keSZzm9fikK0l2SaM4VnuqvnWYr7p4Z8xkpEpiKuuJgGPp-UOhu6rDnoxOPRoFbd7ZvIuLtgcb93nKLFOSfMgW6YNzgFV3rLVCmhsmhH2Fv0ZQV7nlI9NgsyA5SjgKyPT4vl_xUz4q2nD3b5H_wCbDhiEFA3hh4j2JYm9fxvNt-66vLeBvxmmn0U5VCuNnj7E-PyE8I2n94Y6A8JeGrnd5jfaUJRf7cyNgoymhAtXXDUy20FlrfP2iouiWid7AqcMmCOQ2EFJOImqSrjEgzWPh7RAckfsRvb__wfF]--></g></svg>