<?xml version="1.0" encoding="UTF-8" standalone="no"?><svg xmlns="http://www.w3.org/2000/svg" xmlns:xlink="http://www.w3.org/1999/xlink" contentScriptType="application/ecmascript" contentStyleType="text/css" height="204px" preserveAspectRatio="none" style="width:991px;height:204px;background:#FFFFFF;" version="1.1" viewBox="0 0 991 204" width="991px" zoomAndPan="magnify"><defs><filter height="300%" id="f176hlo0hf3nw1" width="300%" x="-1" y="-1"><feGaussianBlur result="blurOut" stdDeviation="2.0"/><feColorMatrix in="blurOut" result="blurOut2" type="matrix" values="0 0 0 0 0 0 0 0 0 0 0 0 0 0 0 0 0 0 .4 0"/><feOffset dx="4.0" dy="4.0" in="blurOut2" result="blurOut3"/><feBlend in="SourceGraphic" in2="blurOut3" mode="normal"/></filter></defs><g><!--MD5=[4784c301fe13507917f315be539ce5d6]
class ITraceDecoder--><rect codeLine="2" fill="#FEFECE" filter="url(#f176hlo0hf3nw1)" height="48" id="ITraceDecoder" style="stroke:#A80036;stroke-width:1.5;" width="216" x="761" y="19.5"/><ellipse cx="776" cy="35.5" fill="#B4A7E5" rx="11" ry="11" style="stroke:#A80036;stroke-width:1.0;"/><path d="M776.9531,32.1406 L776.9531,38.7969 L778.6719,38.7969 Q779.2813,38.7969 779.5469,39.0313 Q779.8125,39.2656 779.8125,39.6563 Q779.8125,40.0313 779.5469,40.2656 Q779.2813,40.5 778.6719,40.5 L773.5313,40.5 Q772.9219,40.5 772.6563,40.2656 Q772.3906,40.0313 772.3906,39.6406 Q772.3906,39.2656 772.6563,39.0313 Q772.9219,38.7969 773.5313,38.7969 L775.25,38.7969 L775.25,32.1406 L773.5313,32.1406 Q772.9219,32.1406 772.6563,31.9063 Q772.3906,31.6719 772.3906,31.2813 Q772.3906,30.9063 772.6563,30.6719 Q772.9219,30.4375 773.5313,30.4375 L778.6719,30.4375 Q779.2813,30.4375 779.5469,30.6719 Q779.8125,30.9063 779.8125,31.2813 Q779.8125,31.6719 779.5469,31.9063 Q779.2813,32.1406 778.6719,32.1406 L776.9531,32.1406 Z " fill="#000000"/><text fill="#000000" font-family="sans-serif" font-size="12" font-style="italic" lengthAdjust="spacing" textLength="82" x="790" y="40.4102">ITraceDecoder</text><rect fill="#FFFFFF" height="17.0938" style="stroke:#000000;stroke-width:1.0;stroke-dasharray:2.0,2.0;" width="100" x="880" y="16.5"/><text fill="#000000" font-family="sans-serif" font-size="12" font-style="italic" lengthAdjust="spacing" textLength="98" x="881" y="29.957">DltTraceLineBase</text><line style="stroke:#A80036;stroke-width:1.5;" x1="762" x2="976" y1="51.5" y2="51.5"/><line style="stroke:#A80036;stroke-width:1.5;" x1="762" x2="976" y1="59.5" y2="59.5"/><!--MD5=[62e81ff6d8c508371a161574ed6ef67d]
class DltPcapTraceDecoder--><rect codeLine="3" fill="#FEFECE" filter="url(#f176hlo0hf3nw1)" height="48" id="DltPcapTraceDecoder" style="stroke:#A80036;stroke-width:1.5;" width="153" x="792.5" y="142"/><ellipse cx="807.5" cy="158" fill="#ADD1B2" rx="11" ry="11" style="stroke:#A80036;stroke-width:1.0;"/><path d="M810.2656,153.875 Q810.4219,153.6563 810.6094,153.5469 Q810.7969,153.4375 811.0156,153.4375 Q811.3906,153.4375 811.625,153.6953 Q811.8594,153.9531 811.8594,154.5625 L811.8594,156.0156 Q811.8594,156.625 811.625,156.8906 Q811.3906,157.1563 811.0156,157.1563 Q810.6719,157.1563 810.4688,156.9531 Q810.2656,156.7656 810.1563,156.25 Q810.1094,155.8906 809.9219,155.7031 Q809.5938,155.3281 808.9844,155.1094 Q808.375,154.8906 807.75,154.8906 Q806.9844,154.8906 806.3516,155.2188 Q805.7188,155.5469 805.2266,156.2969 Q804.7344,157.0469 804.7344,158.0781 L804.7344,159.1719 Q804.7344,160.4063 805.625,161.2266 Q806.5156,162.0469 808.1094,162.0469 Q809.0469,162.0469 809.7031,161.7969 Q810.0938,161.6406 810.5156,161.2031 Q810.7813,160.9375 810.9297,160.8594 Q811.0781,160.7813 811.2813,160.7813 Q811.6094,160.7813 811.8672,161.0391 Q812.125,161.2969 812.125,161.6406 Q812.125,161.9844 811.7813,162.3906 Q811.2813,162.9688 810.4844,163.2969 Q809.4063,163.75 808.1094,163.75 Q806.5938,163.75 805.3906,163.125 Q804.4063,162.625 803.7188,161.5547 Q803.0313,160.4844 803.0313,159.2031 L803.0313,158.0469 Q803.0313,156.7188 803.6484,155.5703 Q804.2656,154.4219 805.3594,153.8047 Q806.4531,153.1875 807.6875,153.1875 Q808.4219,153.1875 809.0703,153.3516 Q809.7188,153.5156 810.2656,153.875 Z " fill="#000000"/><text fill="#000000" font-family="sans-serif" font-size="12" lengthAdjust="spacing" textLength="121" x="821.5" y="162.9102">DltPcapTraceDecoder</text><line style="stroke:#A80036;stroke-width:1.5;" x1="793.5" x2="944.5" y1="174" y2="174"/><line style="stroke:#A80036;stroke-width:1.5;" x1="793.5" x2="944.5" y1="182" y2="182"/><!--MD5=[9c1ec34ffd665f2ab66be7570fe1ffdc]
class TraceReader--><rect codeLine="10" fill="#FEFECE" filter="url(#f176hlo0hf3nw1)" height="48" id="TraceReader" style="stroke:#A80036;stroke-width:1.5;" width="206" x="551" y="142"/><ellipse cx="566" cy="158" fill="#ADD1B2" rx="11" ry="11" style="stroke:#A80036;stroke-width:1.0;"/><path d="M568.7656,153.875 Q568.9219,153.6563 569.1094,153.5469 Q569.2969,153.4375 569.5156,153.4375 Q569.8906,153.4375 570.125,153.6953 Q570.3594,153.9531 570.3594,154.5625 L570.3594,156.0156 Q570.3594,156.625 570.125,156.8906 Q569.8906,157.1563 569.5156,157.1563 Q569.1719,157.1563 568.9688,156.9531 Q568.7656,156.7656 568.6563,156.25 Q568.6094,155.8906 568.4219,155.7031 Q568.0938,155.3281 567.4844,155.1094 Q566.875,154.8906 566.25,154.8906 Q565.4844,154.8906 564.8516,155.2188 Q564.2188,155.5469 563.7266,156.2969 Q563.2344,157.0469 563.2344,158.0781 L563.2344,159.1719 Q563.2344,160.4063 564.125,161.2266 Q565.0156,162.0469 566.6094,162.0469 Q567.5469,162.0469 568.2031,161.7969 Q568.5938,161.6406 569.0156,161.2031 Q569.2813,160.9375 569.4297,160.8594 Q569.5781,160.7813 569.7813,160.7813 Q570.1094,160.7813 570.3672,161.0391 Q570.625,161.2969 570.625,161.6406 Q570.625,161.9844 570.2813,162.3906 Q569.7813,162.9688 568.9844,163.2969 Q567.9063,163.75 566.6094,163.75 Q565.0938,163.75 563.8906,163.125 Q562.9063,162.625 562.2188,161.5547 Q561.5313,160.4844 561.5313,159.2031 L561.5313,158.0469 Q561.5313,156.7188 562.1484,155.5703 Q562.7656,154.4219 563.8594,153.8047 Q564.9531,153.1875 566.1875,153.1875 Q566.9219,153.1875 567.5703,153.3516 Q568.2188,153.5156 568.7656,153.875 Z " fill="#000000"/><text fill="#000000" font-family="sans-serif" font-size="12" lengthAdjust="spacing" textLength="72" x="580" y="162.9102">TraceReader</text><rect fill="#FFFFFF" height="17.0938" style="stroke:#000000;stroke-width:1.0;stroke-dasharray:2.0,2.0;" width="100" x="660" y="139"/><text fill="#000000" font-family="sans-serif" font-size="12" font-style="italic" lengthAdjust="spacing" textLength="98" x="661" y="152.457">DltTraceLineBase</text><line style="stroke:#A80036;stroke-width:1.5;" x1="552" x2="756" y1="174" y2="174"/><line style="stroke:#A80036;stroke-width:1.5;" x1="552" x2="756" y1="182" y2="182"/><!--MD5=[f4288dffdb2ee17e8277a82c8664138f]
class TraceReaderFactory--><rect codeLine="8" fill="#FEFECE" filter="url(#f176hlo0hf3nw1)" height="48" id="TraceReaderFactory" style="stroke:#A80036;stroke-width:1.5;" width="143" x="268.5" y="19.5"/><ellipse cx="283.5" cy="35.5" fill="#ADD1B2" rx="11" ry="11" style="stroke:#A80036;stroke-width:1.0;"/><path d="M286.2656,31.375 Q286.4219,31.1563 286.6094,31.0469 Q286.7969,30.9375 287.0156,30.9375 Q287.3906,30.9375 287.625,31.1953 Q287.8594,31.4531 287.8594,32.0625 L287.8594,33.5156 Q287.8594,34.125 287.625,34.3906 Q287.3906,34.6563 287.0156,34.6563 Q286.6719,34.6563 286.4688,34.4531 Q286.2656,34.2656 286.1563,33.75 Q286.1094,33.3906 285.9219,33.2031 Q285.5938,32.8281 284.9844,32.6094 Q284.375,32.3906 283.75,32.3906 Q282.9844,32.3906 282.3516,32.7188 Q281.7188,33.0469 281.2266,33.7969 Q280.7344,34.5469 280.7344,35.5781 L280.7344,36.6719 Q280.7344,37.9063 281.625,38.7266 Q282.5156,39.5469 284.1094,39.5469 Q285.0469,39.5469 285.7031,39.2969 Q286.0938,39.1406 286.5156,38.7031 Q286.7813,38.4375 286.9297,38.3594 Q287.0781,38.2813 287.2813,38.2813 Q287.6094,38.2813 287.8672,38.5391 Q288.125,38.7969 288.125,39.1406 Q288.125,39.4844 287.7813,39.8906 Q287.2813,40.4688 286.4844,40.7969 Q285.4063,41.25 284.1094,41.25 Q282.5938,41.25 281.3906,40.625 Q280.4063,40.125 279.7188,39.0547 Q279.0313,37.9844 279.0313,36.7031 L279.0313,35.5469 Q279.0313,34.2188 279.6484,33.0703 Q280.2656,31.9219 281.3594,31.3047 Q282.4531,30.6875 283.6875,30.6875 Q284.4219,30.6875 285.0703,30.8516 Q285.7188,31.0156 286.2656,31.375 Z " fill="#000000"/><text fill="#000000" font-family="sans-serif" font-size="12" lengthAdjust="spacing" textLength="111" x="297.5" y="40.4102">TraceReaderFactory</text><line style="stroke:#A80036;stroke-width:1.5;" x1="269.5" x2="410.5" y1="51.5" y2="51.5"/><line style="stroke:#A80036;stroke-width:1.5;" x1="269.5" x2="410.5" y1="59.5" y2="59.5"/><!--MD5=[c7e5383e3344b999098d947b2665d481]
class DltPcapTraceReaderFactory--><rect codeLine="9" fill="#FEFECE" filter="url(#f176hlo0hf3nw1)" height="48" id="DltPcapTraceReaderFactory" style="stroke:#A80036;stroke-width:1.5;" width="186" x="247" y="142"/><ellipse cx="262" cy="158" fill="#ADD1B2" rx="11" ry="11" style="stroke:#A80036;stroke-width:1.0;"/><path d="M264.7656,153.875 Q264.9219,153.6563 265.1094,153.5469 Q265.2969,153.4375 265.5156,153.4375 Q265.8906,153.4375 266.125,153.6953 Q266.3594,153.9531 266.3594,154.5625 L266.3594,156.0156 Q266.3594,156.625 266.125,156.8906 Q265.8906,157.1563 265.5156,157.1563 Q265.1719,157.1563 264.9688,156.9531 Q264.7656,156.7656 264.6563,156.25 Q264.6094,155.8906 264.4219,155.7031 Q264.0938,155.3281 263.4844,155.1094 Q262.875,154.8906 262.25,154.8906 Q261.4844,154.8906 260.8516,155.2188 Q260.2188,155.5469 259.7266,156.2969 Q259.2344,157.0469 259.2344,158.0781 L259.2344,159.1719 Q259.2344,160.4063 260.125,161.2266 Q261.0156,162.0469 262.6094,162.0469 Q263.5469,162.0469 264.2031,161.7969 Q264.5938,161.6406 265.0156,161.2031 Q265.2813,160.9375 265.4297,160.8594 Q265.5781,160.7813 265.7813,160.7813 Q266.1094,160.7813 266.3672,161.0391 Q266.625,161.2969 266.625,161.6406 Q266.625,161.9844 266.2813,162.3906 Q265.7813,162.9688 264.9844,163.2969 Q263.9063,163.75 262.6094,163.75 Q261.0938,163.75 259.8906,163.125 Q258.9063,162.625 258.2188,161.5547 Q257.5313,160.4844 257.5313,159.2031 L257.5313,158.0469 Q257.5313,156.7188 258.1484,155.5703 Q258.7656,154.4219 259.8594,153.8047 Q260.9531,153.1875 262.1875,153.1875 Q262.9219,153.1875 263.5703,153.3516 Q264.2188,153.5156 264.7656,153.875 Z " fill="#000000"/><text fill="#000000" font-family="sans-serif" font-size="12" lengthAdjust="spacing" textLength="154" x="276" y="162.9102">DltPcapTraceReaderFactory</text><line style="stroke:#A80036;stroke-width:1.5;" x1="248" x2="432" y1="174" y2="174"/><line style="stroke:#A80036;stroke-width:1.5;" x1="248" x2="432" y1="182" y2="182"/><!--MD5=[fa510785f788c26069a163b459991a96]
class DltDumpTraceReaderFactory--><rect codeLine="17" fill="#FEFECE" filter="url(#f176hlo0hf3nw1)" height="48" id="DltDumpTraceReaderFactory" style="stroke:#A80036;stroke-width:1.5;" width="192" x="20" y="142"/><ellipse cx="35" cy="158" fill="#ADD1B2" rx="11" ry="11" style="stroke:#A80036;stroke-width:1.0;"/><path d="M37.7656,153.875 Q37.9219,153.6563 38.1094,153.5469 Q38.2969,153.4375 38.5156,153.4375 Q38.8906,153.4375 39.125,153.6953 Q39.3594,153.9531 39.3594,154.5625 L39.3594,156.0156 Q39.3594,156.625 39.125,156.8906 Q38.8906,157.1563 38.5156,157.1563 Q38.1719,157.1563 37.9688,156.9531 Q37.7656,156.7656 37.6563,156.25 Q37.6094,155.8906 37.4219,155.7031 Q37.0938,155.3281 36.4844,155.1094 Q35.875,154.8906 35.25,154.8906 Q34.4844,154.8906 33.8516,155.2188 Q33.2188,155.5469 32.7266,156.2969 Q32.2344,157.0469 32.2344,158.0781 L32.2344,159.1719 Q32.2344,160.4063 33.125,161.2266 Q34.0156,162.0469 35.6094,162.0469 Q36.5469,162.0469 37.2031,161.7969 Q37.5938,161.6406 38.0156,161.2031 Q38.2813,160.9375 38.4297,160.8594 Q38.5781,160.7813 38.7813,160.7813 Q39.1094,160.7813 39.3672,161.0391 Q39.625,161.2969 39.625,161.6406 Q39.625,161.9844 39.2813,162.3906 Q38.7813,162.9688 37.9844,163.2969 Q36.9063,163.75 35.6094,163.75 Q34.0938,163.75 32.8906,163.125 Q31.9063,162.625 31.2188,161.5547 Q30.5313,160.4844 30.5313,159.2031 L30.5313,158.0469 Q30.5313,156.7188 31.1484,155.5703 Q31.7656,154.4219 32.8594,153.8047 Q33.9531,153.1875 35.1875,153.1875 Q35.9219,153.1875 36.5703,153.3516 Q37.2188,153.5156 37.7656,153.875 Z " fill="#000000"/><text fill="#000000" font-family="sans-serif" font-size="12" lengthAdjust="spacing" textLength="160" x="49" y="162.9102">DltDumpTraceReaderFactory</text><line style="stroke:#A80036;stroke-width:1.5;" x1="21" x2="211" y1="174" y2="174"/><line style="stroke:#A80036;stroke-width:1.5;" x1="21" x2="211" y1="182" y2="182"/><path d="M6,6 L6,81.4063 A0,0 0 0 0 6,81.4063 L112,81.4063 L116,141.69 L120,81.4063 L226,81.4063 A0,0 0 0 0 226,81.4063 L226,16 L216,6 L6,6 A0,0 0 0 0 6,6 " fill="#FBFB77" filter="url(#f176hlo0hf3nw1)" style="stroke:#A80036;stroke-width:1.0;"/><path d="M216,6 L216,16 L226,16 L216,6 " fill="#FBFB77" style="stroke:#A80036;stroke-width:1.0;"/><text fill="#000000" font-family="sans-serif" font-size="13" lengthAdjust="spacing" textLength="196" x="12" y="24.4951">The FilterApp sets the appropriate</text><text fill="#000000" font-family="sans-serif" font-size="13" lengthAdjust="spacing" textLength="199" x="12" y="40.8467">fields, which decides based on the</text><text fill="#000000" font-family="sans-serif" font-size="13" lengthAdjust="spacing" textLength="198" x="12" y="57.1982">input format to instantiate a PCAP</text><text fill="#000000" font-family="sans-serif" font-size="13" lengthAdjust="spacing" textLength="50" x="12" y="73.5498">decoder.</text><!--MD5=[5d39f8528f8c683515eb99192f67e99c]
reverse link ITraceDecoder to DltPcapTraceDecoder--><path codeLine="5" d="M869,87.98 C869,106.18 869,126.6 869,141.84 " fill="none" id="ITraceDecoder-backto-DltPcapTraceDecoder" style="stroke:#A80036;stroke-width:1.0;stroke-dasharray:7.0,7.0;"/><polygon fill="none" points="862,87.73,869,67.73,876,87.73,862,87.73" style="stroke:#A80036;stroke-width:1.0;"/><!--MD5=[04f289a1cdae3e08dbcb23390efdc9b2]
reverse link TraceReader to DltPcapTraceDecoder--><path codeLine="12" d="M770.39,166 C777.66,166 784.93,166 792.21,166 " fill="none" id="TraceReader-backto-DltPcapTraceDecoder" style="stroke:#A80036;stroke-width:1.0;"/><polygon fill="#A80036" points="757.3,166,763.3,170,769.3,166,763.3,162,757.3,166" style="stroke:#A80036;stroke-width:1.0;"/><!--MD5=[b5fef9ec97997632edc9f6396845610b]
reverse link TraceReaderFactory to DltPcapTraceReaderFactory--><path codeLine="14" d="M340,87.98 C340,106.18 340,126.6 340,141.84 " fill="none" id="TraceReaderFactory-backto-DltPcapTraceReaderFactory" style="stroke:#A80036;stroke-width:1.0;"/><polygon fill="none" points="333,87.73,340,67.73,347,87.73,333,87.73" style="stroke:#A80036;stroke-width:1.0;"/><!--MD5=[a5956c452fb5c25baf8e1f94d41a67c1]
link DltPcapTraceReaderFactory to TraceReader--><path codeLine="15" d="M433.36,166 C468.6,166 508.98,166 545.49,166 " fill="none" id="DltPcapTraceReaderFactory-to-TraceReader" style="stroke:#A80036;stroke-width:1.0;"/><polygon fill="#A80036" points="550.84,166,541.84,162,545.84,166,541.84,170,550.84,166" style="stroke:#A80036;stroke-width:1.0;"/><text fill="#000000" font-family="sans-serif" font-size="13" lengthAdjust="spacing" textLength="81" x="451.5" y="159.4951">«instantiates»</text><!--MD5=[0b48e3930bcd29d223c418cdab797add]
link DltDumpTraceReaderFactory to DltPcapTraceReaderFactory--><path codeLine="25" d="M212.25,166 C222.02,166 231.8,166 241.57,166 " fill="none" id="DltDumpTraceReaderFactory-to-DltPcapTraceReaderFactory" style="stroke:#A80036;stroke-width:1.0;"/><polygon fill="#A80036" points="246.68,166,237.68,162,241.68,166,237.68,170,246.68,166" style="stroke:#A80036;stroke-width:1.0;"/><!--MD5=[96592c36ede938f29071c807a371d5db]
@startuml DltPcapTraceReaderFactory

interface ITraceDecoder<DltTraceLineBase>
class DltPcapTraceDecoder

DltPcapTraceDecoder .u.|> ITraceDecoder

class TraceReader
class TraceReaderFactory
class DltPcapTraceReaderFactory
class TraceReader<DltTraceLineBase>

TraceReader *-r- DltPcapTraceDecoder

DltPcapTraceReaderFactory -u-|> TraceReaderFactory
DltPcapTraceReaderFactory -r-> TraceReader : <<instantiates>>

class DltDumpTraceReaderFactory
note top
    The FilterApp sets the appropriate
    fields, which decides based on the
    input format to instantiate a PCAP
    decoder.
end note

DltDumpTraceReaderFactory -r-> DltPcapTraceReaderFactory

@enduml

PlantUML version 1.2022.0(Tue Jan 11 17:16:42 CET 2022)
(GPL source distribution)
Java Runtime: Java(TM) SE Runtime Environment
JVM: Java HotSpot(TM) Client VM
Default Encoding: Cp1252
Language: en
Country: US
--></g></svg>