<?xml version="1.0" encoding="UTF-8" standalone="no"?><svg xmlns="http://www.w3.org/2000/svg" xmlns:xlink="http://www.w3.org/1999/xlink" contentScriptType="application/ecmascript" contentStyleType="text/css" height="853px" preserveAspectRatio="none" style="width:970px;height:853px;background:#FFFFFF;" version="1.1" viewBox="0 0 970 853" width="970px" zoomAndPan="magnify"><defs><filter height="300%" id="fhv4naxrcet67" width="300%" x="-1" y="-1"><feGaussianBlur result="blurOut" stdDeviation="2.0"/><feColorMatrix in="blurOut" result="blurOut2" type="matrix" values="0 0 0 0 0 0 0 0 0 0 0 0 0 0 0 0 0 0 .4 0"/><feOffset dx="4.0" dy="4.0" in="blurOut2" result="blurOut3"/><feBlend in="SourceGraphic" in2="blurOut3" mode="normal"/></filter></defs><g><!--MD5=[fe50a4f6767356ff4dcdadb85ef8cbdd]
class IDisposable--><rect codeLine="2" fill="#FEFECE" filter="url(#fhv4naxrcet67)" height="48" id="IDisposable" style="stroke:#A80036;stroke-width:1.5;" width="99" x="789" y="205.5"/><ellipse cx="804" cy="221.5" fill="#B4A7E5" rx="11" ry="11" style="stroke:#A80036;stroke-width:1.0;"/><path d="M804.9531,218.1406 L804.9531,224.7969 L806.6719,224.7969 Q807.2813,224.7969 807.5469,225.0313 Q807.8125,225.2656 807.8125,225.6563 Q807.8125,226.0313 807.5469,226.2656 Q807.2813,226.5 806.6719,226.5 L801.5313,226.5 Q800.9219,226.5 800.6563,226.2656 Q800.3906,226.0313 800.3906,225.6406 Q800.3906,225.2656 800.6563,225.0313 Q800.9219,224.7969 801.5313,224.7969 L803.25,224.7969 L803.25,218.1406 L801.5313,218.1406 Q800.9219,218.1406 800.6563,217.9063 Q800.3906,217.6719 800.3906,217.2813 Q800.3906,216.9063 800.6563,216.6719 Q800.9219,216.4375 801.5313,216.4375 L806.6719,216.4375 Q807.2813,216.4375 807.5469,216.6719 Q807.8125,216.9063 807.8125,217.2813 Q807.8125,217.6719 807.5469,217.9063 Q807.2813,218.1406 806.6719,218.1406 L804.9531,218.1406 Z " fill="#000000"/><text fill="#000000" font-family="sans-serif" font-size="12" font-style="italic" lengthAdjust="spacing" textLength="67" x="818" y="226.4102">IDisposable</text><line style="stroke:#A80036;stroke-width:1.5;" x1="790" x2="887" y1="237.5" y2="237.5"/><line style="stroke:#A80036;stroke-width:1.5;" x1="790" x2="887" y1="245.5" y2="245.5"/><!--MD5=[fff694c79fbdf8758366e54d9ba99b12]
class OutputFormat--><rect codeLine="4" fill="#FEFECE" filter="url(#fhv4naxrcet67)" height="103.3438" id="OutputFormat" style="stroke:#A80036;stroke-width:1.5;" width="107" x="112" y="7"/><ellipse cx="127" cy="23" fill="#EB937F" rx="11" ry="11" style="stroke:#A80036;stroke-width:1.0;"/><path d="M125.8594,23.7969 L125.8594,26.2969 L130.1875,26.2969 L130.1875,25.375 Q130.1875,24.7656 130.4297,24.5 Q130.6719,24.2344 131.0469,24.2344 Q131.4219,24.2344 131.6563,24.5 Q131.8906,24.7656 131.8906,25.375 L131.8906,28 L123.8906,28 Q123.2656,28 123.0078,27.7656 Q122.75,27.5313 122.75,27.1406 Q122.75,26.7656 123.0156,26.5313 Q123.2813,26.2969 123.8906,26.2969 L124.1563,26.2969 L124.1563,19.6406 L123.8906,19.6406 Q123.2656,19.6406 123.0078,19.4063 Q122.75,19.1719 122.75,18.7813 Q122.75,18.4063 123.0078,18.1719 Q123.2656,17.9375 123.8906,17.9375 L131.5156,17.9375 L131.5156,20.5313 Q131.5156,21.1406 131.2891,21.3984 Q131.0625,21.6563 130.6719,21.6563 Q130.2969,21.6563 130.0625,21.3984 Q129.8281,21.1406 129.8281,20.5313 L129.8281,19.6406 L125.8594,19.6406 L125.8594,22.0938 L127.3438,22.0938 Q127.3438,21.4375 127.4688,21.25 Q127.7344,20.8438 128.2031,20.8438 Q128.5781,20.8438 128.8125,21.1016 Q129.0469,21.3594 129.0469,21.9688 L129.0469,23.9375 Q129.0469,24.4844 128.9219,24.6719 Q128.6563,25.0625 128.2031,25.0625 Q127.7344,25.0625 127.4688,24.6563 Q127.3438,24.4688 127.3438,23.7969 L125.8594,23.7969 Z " fill="#000000"/><text fill="#000000" font-family="sans-serif" font-size="12" lengthAdjust="spacing" textLength="75" x="141" y="27.9102">OutputFormat</text><line style="stroke:#A80036;stroke-width:1.5;" x1="113" x2="218" y1="39" y2="39"/><text fill="#000000" font-family="sans-serif" font-size="11" lengthAdjust="spacing" textLength="48" x="118" y="54.4189">Automatic</text><text fill="#000000" font-family="sans-serif" font-size="11" lengthAdjust="spacing" textLength="39" x="118" y="68.2549">Console</text><text fill="#000000" font-family="sans-serif" font-size="11" lengthAdjust="spacing" textLength="21" x="118" y="82.0908">Text</text><text fill="#000000" font-family="sans-serif" font-size="11" lengthAdjust="spacing" textLength="12" x="118" y="95.9268">Dlt</text><line style="stroke:#A80036;stroke-width:1.5;" x1="113" x2="218" y1="102.3438" y2="102.3438"/><!--MD5=[beca3dd8bd567bab187711d1678d166d]
class IOutputStreamFactory--><rect codeLine="11" fill="#FEFECE" filter="url(#fhv4naxrcet67)" height="89.5078" id="IOutputStreamFactory" style="stroke:#A80036;stroke-width:1.5;" width="317" x="7" y="184.5"/><ellipse cx="101.25" cy="200.5" fill="#B4A7E5" rx="11" ry="11" style="stroke:#A80036;stroke-width:1.0;"/><path d="M102.2031,197.1406 L102.2031,203.7969 L103.9219,203.7969 Q104.5313,203.7969 104.7969,204.0313 Q105.0625,204.2656 105.0625,204.6563 Q105.0625,205.0313 104.7969,205.2656 Q104.5313,205.5 103.9219,205.5 L98.7813,205.5 Q98.1719,205.5 97.9063,205.2656 Q97.6406,205.0313 97.6406,204.6406 Q97.6406,204.2656 97.9063,204.0313 Q98.1719,203.7969 98.7813,203.7969 L100.5,203.7969 L100.5,197.1406 L98.7813,197.1406 Q98.1719,197.1406 97.9063,196.9063 Q97.6406,196.6719 97.6406,196.2813 Q97.6406,195.9063 97.9063,195.6719 Q98.1719,195.4375 98.7813,195.4375 L103.9219,195.4375 Q104.5313,195.4375 104.7969,195.6719 Q105.0625,195.9063 105.0625,196.2813 Q105.0625,196.6719 104.7969,196.9063 Q104.5313,197.1406 103.9219,197.1406 L102.2031,197.1406 Z " fill="#000000"/><text fill="#000000" font-family="sans-serif" font-size="12" font-style="italic" lengthAdjust="spacing" textLength="120" x="121.75" y="205.4102">IOutputStreamFactory</text><line style="stroke:#A80036;stroke-width:1.5;" x1="8" x2="323" y1="216.5" y2="216.5"/><text fill="#000000" font-family="sans-serif" font-size="11" lengthAdjust="spacing" textLength="37" x="13" y="231.9189">Split: int</text><text fill="#000000" font-family="sans-serif" font-size="11" lengthAdjust="spacing" textLength="54" x="13" y="245.7549">Force: bool</text><line style="stroke:#A80036;stroke-width:1.5;" x1="8" x2="323" y1="252.1719" y2="252.1719"/><text fill="#000000" font-family="sans-serif" font-size="11" lengthAdjust="spacing" textLength="305" x="13" y="267.5908">Create(fileType: OutputFormat, string outputFile): IOutputStream</text><!--MD5=[68222db4f1ce9d952837e6862cb8a846]
class OutputStreamFactory--><rect codeLine="23" fill="#FEFECE" filter="url(#fhv4naxrcet67)" height="48" id="OutputStreamFactory" style="stroke:#A80036;stroke-width:1.5;" width="147" x="92" y="366"/><ellipse cx="107" cy="382" fill="#ADD1B2" rx="11" ry="11" style="stroke:#A80036;stroke-width:1.0;"/><path d="M109.7656,377.875 Q109.9219,377.6563 110.1094,377.5469 Q110.2969,377.4375 110.5156,377.4375 Q110.8906,377.4375 111.125,377.6953 Q111.3594,377.9531 111.3594,378.5625 L111.3594,380.0156 Q111.3594,380.625 111.125,380.8906 Q110.8906,381.1563 110.5156,381.1563 Q110.1719,381.1563 109.9688,380.9531 Q109.7656,380.7656 109.6563,380.25 Q109.6094,379.8906 109.4219,379.7031 Q109.0938,379.3281 108.4844,379.1094 Q107.875,378.8906 107.25,378.8906 Q106.4844,378.8906 105.8516,379.2188 Q105.2188,379.5469 104.7266,380.2969 Q104.2344,381.0469 104.2344,382.0781 L104.2344,383.1719 Q104.2344,384.4063 105.125,385.2266 Q106.0156,386.0469 107.6094,386.0469 Q108.5469,386.0469 109.2031,385.7969 Q109.5938,385.6406 110.0156,385.2031 Q110.2813,384.9375 110.4297,384.8594 Q110.5781,384.7813 110.7813,384.7813 Q111.1094,384.7813 111.3672,385.0391 Q111.625,385.2969 111.625,385.6406 Q111.625,385.9844 111.2813,386.3906 Q110.7813,386.9688 109.9844,387.2969 Q108.9063,387.75 107.6094,387.75 Q106.0938,387.75 104.8906,387.125 Q103.9063,386.625 103.2188,385.5547 Q102.5313,384.4844 102.5313,383.2031 L102.5313,382.0469 Q102.5313,380.7188 103.1484,379.5703 Q103.7656,378.4219 104.8594,377.8047 Q105.9531,377.1875 107.1875,377.1875 Q107.9219,377.1875 108.5703,377.3516 Q109.2188,377.5156 109.7656,377.875 Z " fill="#000000"/><text fill="#000000" font-family="sans-serif" font-size="12" lengthAdjust="spacing" textLength="115" x="121" y="386.9102">OutputStreamFactory</text><line style="stroke:#A80036;stroke-width:1.5;" x1="93" x2="238" y1="398" y2="398"/><line style="stroke:#A80036;stroke-width:1.5;" x1="93" x2="238" y1="406" y2="406"/><!--MD5=[89ed551d67da514006980794a3951a64]
class DltOutput--><rect codeLine="42" fill="#FEFECE" filter="url(#fhv4naxrcet67)" height="48" id="DltOutput" style="stroke:#A80036;stroke-width:1.5;" width="83" x="632" y="366"/><ellipse cx="647" cy="382" fill="#ADD1B2" rx="11" ry="11" style="stroke:#A80036;stroke-width:1.0;"/><path d="M649.7656,377.875 Q649.9219,377.6563 650.1094,377.5469 Q650.2969,377.4375 650.5156,377.4375 Q650.8906,377.4375 651.125,377.6953 Q651.3594,377.9531 651.3594,378.5625 L651.3594,380.0156 Q651.3594,380.625 651.125,380.8906 Q650.8906,381.1563 650.5156,381.1563 Q650.1719,381.1563 649.9688,380.9531 Q649.7656,380.7656 649.6563,380.25 Q649.6094,379.8906 649.4219,379.7031 Q649.0938,379.3281 648.4844,379.1094 Q647.875,378.8906 647.25,378.8906 Q646.4844,378.8906 645.8516,379.2188 Q645.2188,379.5469 644.7266,380.2969 Q644.2344,381.0469 644.2344,382.0781 L644.2344,383.1719 Q644.2344,384.4063 645.125,385.2266 Q646.0156,386.0469 647.6094,386.0469 Q648.5469,386.0469 649.2031,385.7969 Q649.5938,385.6406 650.0156,385.2031 Q650.2813,384.9375 650.4297,384.8594 Q650.5781,384.7813 650.7813,384.7813 Q651.1094,384.7813 651.3672,385.0391 Q651.625,385.2969 651.625,385.6406 Q651.625,385.9844 651.2813,386.3906 Q650.7813,386.9688 649.9844,387.2969 Q648.9063,387.75 647.6094,387.75 Q646.0938,387.75 644.8906,387.125 Q643.9063,386.625 643.2188,385.5547 Q642.5313,384.4844 642.5313,383.2031 L642.5313,382.0469 Q642.5313,380.7188 643.1484,379.5703 Q643.7656,378.4219 644.8594,377.8047 Q645.9531,377.1875 647.1875,377.1875 Q647.9219,377.1875 648.5703,377.3516 Q649.2188,377.5156 649.7656,377.875 Z " fill="#000000"/><text fill="#000000" font-family="sans-serif" font-size="12" lengthAdjust="spacing" textLength="51" x="661" y="386.9102">DltOutput</text><line style="stroke:#A80036;stroke-width:1.5;" x1="633" x2="714" y1="398" y2="398"/><line style="stroke:#A80036;stroke-width:1.5;" x1="633" x2="714" y1="406" y2="406"/><!--MD5=[e5bac9b14f9256e0c91b048de8a90e34]
class TextOutput--><rect codeLine="39" fill="#FEFECE" filter="url(#fhv4naxrcet67)" height="48" id="TextOutput" style="stroke:#A80036;stroke-width:1.5;" width="90" x="356.5" y="366"/><ellipse cx="371.5" cy="382" fill="#ADD1B2" rx="11" ry="11" style="stroke:#A80036;stroke-width:1.0;"/><path d="M374.2656,377.875 Q374.4219,377.6563 374.6094,377.5469 Q374.7969,377.4375 375.0156,377.4375 Q375.3906,377.4375 375.625,377.6953 Q375.8594,377.9531 375.8594,378.5625 L375.8594,380.0156 Q375.8594,380.625 375.625,380.8906 Q375.3906,381.1563 375.0156,381.1563 Q374.6719,381.1563 374.4688,380.9531 Q374.2656,380.7656 374.1563,380.25 Q374.1094,379.8906 373.9219,379.7031 Q373.5938,379.3281 372.9844,379.1094 Q372.375,378.8906 371.75,378.8906 Q370.9844,378.8906 370.3516,379.2188 Q369.7188,379.5469 369.2266,380.2969 Q368.7344,381.0469 368.7344,382.0781 L368.7344,383.1719 Q368.7344,384.4063 369.625,385.2266 Q370.5156,386.0469 372.1094,386.0469 Q373.0469,386.0469 373.7031,385.7969 Q374.0938,385.6406 374.5156,385.2031 Q374.7813,384.9375 374.9297,384.8594 Q375.0781,384.7813 375.2813,384.7813 Q375.6094,384.7813 375.8672,385.0391 Q376.125,385.2969 376.125,385.6406 Q376.125,385.9844 375.7813,386.3906 Q375.2813,386.9688 374.4844,387.2969 Q373.4063,387.75 372.1094,387.75 Q370.5938,387.75 369.3906,387.125 Q368.4063,386.625 367.7188,385.5547 Q367.0313,384.4844 367.0313,383.2031 L367.0313,382.0469 Q367.0313,380.7188 367.6484,379.5703 Q368.2656,378.4219 369.3594,377.8047 Q370.4531,377.1875 371.6875,377.1875 Q372.4219,377.1875 373.0703,377.3516 Q373.7188,377.5156 374.2656,377.875 Z " fill="#000000"/><text fill="#000000" font-family="sans-serif" font-size="12" lengthAdjust="spacing" textLength="58" x="385.5" y="386.9102">TextOutput</text><line style="stroke:#A80036;stroke-width:1.5;" x1="357.5" x2="445.5" y1="398" y2="398"/><line style="stroke:#A80036;stroke-width:1.5;" x1="357.5" x2="445.5" y1="406" y2="406"/><!--MD5=[80616c26e067ad62f755179ae93657dc]
class ConsoleOutput--><rect codeLine="36" fill="#FEFECE" filter="url(#fhv4naxrcet67)" height="48" id="ConsoleOutput" style="stroke:#A80036;stroke-width:1.5;" width="115" x="482" y="366"/><ellipse cx="497" cy="382" fill="#ADD1B2" rx="11" ry="11" style="stroke:#A80036;stroke-width:1.0;"/><path d="M499.7656,377.875 Q499.9219,377.6563 500.1094,377.5469 Q500.2969,377.4375 500.5156,377.4375 Q500.8906,377.4375 501.125,377.6953 Q501.3594,377.9531 501.3594,378.5625 L501.3594,380.0156 Q501.3594,380.625 501.125,380.8906 Q500.8906,381.1563 500.5156,381.1563 Q500.1719,381.1563 499.9688,380.9531 Q499.7656,380.7656 499.6563,380.25 Q499.6094,379.8906 499.4219,379.7031 Q499.0938,379.3281 498.4844,379.1094 Q497.875,378.8906 497.25,378.8906 Q496.4844,378.8906 495.8516,379.2188 Q495.2188,379.5469 494.7266,380.2969 Q494.2344,381.0469 494.2344,382.0781 L494.2344,383.1719 Q494.2344,384.4063 495.125,385.2266 Q496.0156,386.0469 497.6094,386.0469 Q498.5469,386.0469 499.2031,385.7969 Q499.5938,385.6406 500.0156,385.2031 Q500.2813,384.9375 500.4297,384.8594 Q500.5781,384.7813 500.7813,384.7813 Q501.1094,384.7813 501.3672,385.0391 Q501.625,385.2969 501.625,385.6406 Q501.625,385.9844 501.2813,386.3906 Q500.7813,386.9688 499.9844,387.2969 Q498.9063,387.75 497.6094,387.75 Q496.0938,387.75 494.8906,387.125 Q493.9063,386.625 493.2188,385.5547 Q492.5313,384.4844 492.5313,383.2031 L492.5313,382.0469 Q492.5313,380.7188 493.1484,379.5703 Q493.7656,378.4219 494.8594,377.8047 Q495.9531,377.1875 497.1875,377.1875 Q497.9219,377.1875 498.5703,377.3516 Q499.2188,377.5156 499.7656,377.875 Z " fill="#000000"/><text fill="#000000" font-family="sans-serif" font-size="12" lengthAdjust="spacing" textLength="83" x="511" y="386.9102">ConsoleOutput</text><line style="stroke:#A80036;stroke-width:1.5;" x1="483" x2="596" y1="398" y2="398"/><line style="stroke:#A80036;stroke-width:1.5;" x1="483" x2="596" y1="406" y2="406"/><!--MD5=[52a3332067f4ff29b03ab00f619de69b]
class IOutputStream--><rect codeLine="26" fill="#FEFECE" filter="url(#fhv4naxrcet67)" height="117.1797" id="IOutputStream" style="stroke:#A80036;stroke-width:1.5;" width="301" x="452" y="171"/><ellipse cx="558.25" cy="187" fill="#B4A7E5" rx="11" ry="11" style="stroke:#A80036;stroke-width:1.0;"/><path d="M559.2031,183.6406 L559.2031,190.2969 L560.9219,190.2969 Q561.5313,190.2969 561.7969,190.5313 Q562.0625,190.7656 562.0625,191.1563 Q562.0625,191.5313 561.7969,191.7656 Q561.5313,192 560.9219,192 L555.7813,192 Q555.1719,192 554.9063,191.7656 Q554.6406,191.5313 554.6406,191.1406 Q554.6406,190.7656 554.9063,190.5313 Q555.1719,190.2969 555.7813,190.2969 L557.5,190.2969 L557.5,183.6406 L555.7813,183.6406 Q555.1719,183.6406 554.9063,183.4063 Q554.6406,183.1719 554.6406,182.7813 Q554.6406,182.4063 554.9063,182.1719 Q555.1719,181.9375 555.7813,181.9375 L560.9219,181.9375 Q561.5313,181.9375 561.7969,182.1719 Q562.0625,182.4063 562.0625,182.7813 Q562.0625,183.1719 561.7969,183.4063 Q561.5313,183.6406 560.9219,183.6406 L559.2031,183.6406 Z " fill="#000000"/><text fill="#000000" font-family="sans-serif" font-size="12" font-style="italic" lengthAdjust="spacing" textLength="80" x="578.75" y="191.9102">IOutputStream</text><line style="stroke:#A80036;stroke-width:1.5;" x1="453" x2="752" y1="203" y2="203"/><text fill="#000000" font-family="sans-serif" font-size="11" lengthAdjust="spacing" textLength="101" x="458" y="218.4189">SupportsBinary: bool</text><line style="stroke:#A80036;stroke-width:1.5;" x1="453" x2="752" y1="224.8359" y2="224.8359"/><text fill="#000000" font-family="sans-serif" font-size="11" lengthAdjust="spacing" textLength="245" x="458" y="240.2549">SetInput(fileName: string, inputFormat: InputFormat)</text><text fill="#000000" font-family="sans-serif" font-size="11" lengthAdjust="spacing" textLength="140" x="458" y="254.0908">Write(line: DltTraceLineBase)</text><text fill="#000000" font-family="sans-serif" font-size="11" lengthAdjust="spacing" textLength="289" x="458" y="267.9268">Write(line: DltTraceLineBase, packet: ReadOnlySpan&lt;byte&gt;)</text><text fill="#000000" font-family="sans-serif" font-size="11" lengthAdjust="spacing" textLength="34" x="458" y="281.7627">Flush()</text><!--MD5=[6ffbffb37df54f2e313e29802ee7153c]
class OutputBase--><rect codeLine="45" fill="#FEFECE" filter="url(#fhv4naxrcet67)" height="158.6875" id="OutputBase" style="stroke:#A80036;stroke-width:1.5;" width="442" x="344.5" y="475"/><ellipse cx="528.75" cy="491" fill="#ADD1B2" rx="11" ry="11" style="stroke:#A80036;stroke-width:1.0;"/><path d="M531.5156,486.875 Q531.6719,486.6563 531.8594,486.5469 Q532.0469,486.4375 532.2656,486.4375 Q532.6406,486.4375 532.875,486.6953 Q533.1094,486.9531 533.1094,487.5625 L533.1094,489.0156 Q533.1094,489.625 532.875,489.8906 Q532.6406,490.1563 532.2656,490.1563 Q531.9219,490.1563 531.7188,489.9531 Q531.5156,489.7656 531.4063,489.25 Q531.3594,488.8906 531.1719,488.7031 Q530.8438,488.3281 530.2344,488.1094 Q529.625,487.8906 529,487.8906 Q528.2344,487.8906 527.6016,488.2188 Q526.9688,488.5469 526.4766,489.2969 Q525.9844,490.0469 525.9844,491.0781 L525.9844,492.1719 Q525.9844,493.4063 526.875,494.2266 Q527.7656,495.0469 529.3594,495.0469 Q530.2969,495.0469 530.9531,494.7969 Q531.3438,494.6406 531.7656,494.2031 Q532.0313,493.9375 532.1797,493.8594 Q532.3281,493.7813 532.5313,493.7813 Q532.8594,493.7813 533.1172,494.0391 Q533.375,494.2969 533.375,494.6406 Q533.375,494.9844 533.0313,495.3906 Q532.5313,495.9688 531.7344,496.2969 Q530.6563,496.75 529.3594,496.75 Q527.8438,496.75 526.6406,496.125 Q525.6563,495.625 524.9688,494.5547 Q524.2813,493.4844 524.2813,492.2031 L524.2813,491.0469 Q524.2813,489.7188 524.8984,488.5703 Q525.5156,487.4219 526.6094,486.8047 Q527.7031,486.1875 528.9375,486.1875 Q529.6719,486.1875 530.3203,486.3516 Q530.9688,486.5156 531.5156,486.875 Z " fill="#000000"/><text fill="#000000" font-family="sans-serif" font-size="12" lengthAdjust="spacing" textLength="65" x="549.25" y="495.9102">OutputBase</text><line style="stroke:#A80036;stroke-width:1.5;" x1="345.5" x2="785.5" y1="507" y2="507"/><text fill="#000000" font-family="sans-serif" font-size="11" lengthAdjust="spacing" textLength="54" x="350.5" y="522.4189">Force: bool</text><text fill="#000000" font-family="sans-serif" font-size="11" lengthAdjust="spacing" textLength="37" x="350.5" y="536.2549">Split: int</text><line style="stroke:#A80036;stroke-width:1.5;" x1="345.5" x2="785.5" y1="542.6719" y2="542.6719"/><text fill="#000000" font-family="sans-serif" font-size="11" lengthAdjust="spacing" textLength="121" x="350.5" y="558.0908">SetInput(fileName: string)</text><text fill="#000000" font-family="sans-serif" font-size="11" lengthAdjust="spacing" textLength="187" x="350.5" y="571.9268">Write(timeStamp: DateTime, line: string)</text><text fill="#000000" font-family="sans-serif" font-size="11" lengthAdjust="spacing" textLength="279" x="350.5" y="585.7627">Write(timeStamp: DateTime, buffer: ReadOnlySpan&lt;byte&gt;)</text><text fill="#000000" font-family="sans-serif" font-size="11" lengthAdjust="spacing" textLength="430" x="350.5" y="599.5986">Write(timeStamp: DateTime, header: ReadOnlySpan&lt;byte&gt;, buffer: ReadOnlySpan&lt;byte&gt;)</text><text fill="#000000" font-family="sans-serif" font-size="11" lengthAdjust="spacing" textLength="34" x="350.5" y="613.4346">Flush()</text><text fill="#000000" font-family="sans-serif" font-size="11" lengthAdjust="spacing" textLength="47" x="350.5" y="627.2705">Dispose()</text><!--MD5=[9a56b0943e532f4b3b4d058433ac8edf]
class OutputWriter--><rect codeLine="56" fill="#FEFECE" filter="url(#fhv4naxrcet67)" height="144.8516" id="OutputWriter" style="stroke:#A80036;stroke-width:1.5;" width="200" x="629.5" y="695"/><ellipse cx="691.25" cy="711" fill="#ADD1B2" rx="11" ry="11" style="stroke:#A80036;stroke-width:1.0;"/><path d="M694.0156,706.875 Q694.1719,706.6563 694.3594,706.5469 Q694.5469,706.4375 694.7656,706.4375 Q695.1406,706.4375 695.375,706.6953 Q695.6094,706.9531 695.6094,707.5625 L695.6094,709.0156 Q695.6094,709.625 695.375,709.8906 Q695.1406,710.1563 694.7656,710.1563 Q694.4219,710.1563 694.2188,709.9531 Q694.0156,709.7656 693.9063,709.25 Q693.8594,708.8906 693.6719,708.7031 Q693.3438,708.3281 692.7344,708.1094 Q692.125,707.8906 691.5,707.8906 Q690.7344,707.8906 690.1016,708.2188 Q689.4688,708.5469 688.9766,709.2969 Q688.4844,710.0469 688.4844,711.0781 L688.4844,712.1719 Q688.4844,713.4063 689.375,714.2266 Q690.2656,715.0469 691.8594,715.0469 Q692.7969,715.0469 693.4531,714.7969 Q693.8438,714.6406 694.2656,714.2031 Q694.5313,713.9375 694.6797,713.8594 Q694.8281,713.7813 695.0313,713.7813 Q695.3594,713.7813 695.6172,714.0391 Q695.875,714.2969 695.875,714.6406 Q695.875,714.9844 695.5313,715.3906 Q695.0313,715.9688 694.2344,716.2969 Q693.1563,716.75 691.8594,716.75 Q690.3438,716.75 689.1406,716.125 Q688.1563,715.625 687.4688,714.5547 Q686.7813,713.4844 686.7813,712.2031 L686.7813,711.0469 Q686.7813,709.7188 687.3984,708.5703 Q688.0156,707.4219 689.1094,706.8047 Q690.2031,706.1875 691.4375,706.1875 Q692.1719,706.1875 692.8203,706.3516 Q693.4688,706.5156 694.0156,706.875 Z " fill="#000000"/><text fill="#000000" font-family="sans-serif" font-size="12" lengthAdjust="spacing" textLength="68" x="711.75" y="715.9102">OutputWriter</text><line style="stroke:#A80036;stroke-width:1.5;" x1="630.5" x2="828.5" y1="727" y2="727"/><text fill="#000000" font-family="sans-serif" font-size="11" lengthAdjust="spacing" textLength="59" x="635.5" y="742.4189">Length: long</text><text fill="#000000" font-family="sans-serif" font-size="11" lengthAdjust="spacing" textLength="60" x="635.5" y="756.2549">IsOpen: bool</text><line style="stroke:#A80036;stroke-width:1.5;" x1="630.5" x2="828.5" y1="762.6719" y2="762.6719"/><text fill="#000000" font-family="sans-serif" font-size="11" lengthAdjust="spacing" textLength="188" x="635.5" y="778.0908">Open(fileName: string, mode: FileMode)</text><text fill="#000000" font-family="sans-serif" font-size="11" lengthAdjust="spacing" textLength="174" x="635.5" y="791.9268">Write(buffer: ReadOnlySpan&lt;byte&gt;)</text><text fill="#000000" font-family="sans-serif" font-size="11" lengthAdjust="spacing" textLength="34" x="635.5" y="805.7627">Flush()</text><text fill="#000000" font-family="sans-serif" font-size="11" lengthAdjust="spacing" textLength="35" x="635.5" y="819.5986">Close()</text><text fill="#000000" font-family="sans-serif" font-size="11" lengthAdjust="spacing" textLength="47" x="635.5" y="833.4346">Dispose()</text><!--MD5=[5c44e1ab4299c7702a5d11d33e744f39]
class FileStream--><rect fill="#FEFECE" filter="url(#fhv4naxrcet67)" height="48" id="FileStream" style="stroke:#A80036;stroke-width:1.5;" width="92" x="864.5" y="743.5"/><ellipse cx="879.5" cy="759.5" fill="#ADD1B2" rx="11" ry="11" style="stroke:#A80036;stroke-width:1.0;"/><path d="M882.2656,755.375 Q882.4219,755.1563 882.6094,755.0469 Q882.7969,754.9375 883.0156,754.9375 Q883.3906,754.9375 883.625,755.1953 Q883.8594,755.4531 883.8594,756.0625 L883.8594,757.5156 Q883.8594,758.125 883.625,758.3906 Q883.3906,758.6563 883.0156,758.6563 Q882.6719,758.6563 882.4688,758.4531 Q882.2656,758.2656 882.1563,757.75 Q882.1094,757.3906 881.9219,757.2031 Q881.5938,756.8281 880.9844,756.6094 Q880.375,756.3906 879.75,756.3906 Q878.9844,756.3906 878.3516,756.7188 Q877.7188,757.0469 877.2266,757.7969 Q876.7344,758.5469 876.7344,759.5781 L876.7344,760.6719 Q876.7344,761.9063 877.625,762.7266 Q878.5156,763.5469 880.1094,763.5469 Q881.0469,763.5469 881.7031,763.2969 Q882.0938,763.1406 882.5156,762.7031 Q882.7813,762.4375 882.9297,762.3594 Q883.0781,762.2813 883.2813,762.2813 Q883.6094,762.2813 883.8672,762.5391 Q884.125,762.7969 884.125,763.1406 Q884.125,763.4844 883.7813,763.8906 Q883.2813,764.4688 882.4844,764.7969 Q881.4063,765.25 880.1094,765.25 Q878.5938,765.25 877.3906,764.625 Q876.4063,764.125 875.7188,763.0547 Q875.0313,761.9844 875.0313,760.7031 L875.0313,759.5469 Q875.0313,758.2188 875.6484,757.0703 Q876.2656,755.9219 877.3594,755.3047 Q878.4531,754.6875 879.6875,754.6875 Q880.4219,754.6875 881.0703,754.8516 Q881.7188,755.0156 882.2656,755.375 Z " fill="#000000"/><text fill="#000000" font-family="sans-serif" font-size="12" lengthAdjust="spacing" textLength="60" x="893.5" y="764.4102">FileStream</text><line style="stroke:#A80036;stroke-width:1.5;" x1="865.5" x2="955.5" y1="775.5" y2="775.5"/><line style="stroke:#A80036;stroke-width:1.5;" x1="865.5" x2="955.5" y1="783.5" y2="783.5"/><!--MD5=[d5b14181e3fdc926fa4496aec8b8cf00]
link OutputStreamFactory to DltOutput--><path codeLine="17" d="M239.26,371.3 C339.56,347.16 513.51,310.26 575,328 C599.01,334.93 622.8,349.63 640.99,362.97 " fill="none" id="OutputStreamFactory-to-DltOutput" style="stroke:#A80036;stroke-width:1.0;"/><polygon fill="#A80036" points="645.02,365.97,640.1857,357.3893,641.008,362.986,635.4113,363.8084,645.02,365.97" style="stroke:#A80036;stroke-width:1.0;"/><text fill="#000000" font-family="sans-serif" font-size="13" lengthAdjust="spacing" textLength="81" x="493" y="332.4951">«instantiates»</text><!--MD5=[3adcb00c89725c00ff4d516d9d388ba4]
link OutputStreamFactory to TextOutput--><path codeLine="18" d="M239.2,390 C275.66,390 318.72,390 351.32,390 " fill="none" id="OutputStreamFactory-to-TextOutput" style="stroke:#A80036;stroke-width:1.0;"/><polygon fill="#A80036" points="356.46,390,347.46,386,351.46,390,347.46,394,356.46,390" style="stroke:#A80036;stroke-width:1.0;"/><text fill="#000000" font-family="sans-serif" font-size="13" lengthAdjust="spacing" textLength="81" x="257.25" y="383.4951">«instantiates»</text><!--MD5=[8561f87a216647bbc678bef1701b3bdf]
link OutputStreamFactory to ConsoleOutput--><path codeLine="19" d="M238.13,365.95 C317.52,341.38 439.15,309.3 482,328 C497.96,334.96 511.47,348.78 521.38,361.61 " fill="none" id="OutputStreamFactory-to-ConsoleOutput" style="stroke:#A80036;stroke-width:1.0;"/><polygon fill="#A80036" points="524.6,365.91,522.4,356.31,521.6,361.91,516,361.11,524.6,365.91" style="stroke:#A80036;stroke-width:1.0;"/><text fill="#000000" font-family="sans-serif" font-size="13" lengthAdjust="spacing" textLength="81" x="400" y="332.4951">«instantiates»</text><!--MD5=[989c3690bb8f0f844ffa0a07ef9cad78]
link OutputFormat to IOutputStreamFactory--><path codeLine="21" d="M165.5,110.21 C165.5,133.83 165.5,161.68 165.5,184.42 " fill="none" id="OutputFormat-IOutputStreamFactory" style="stroke:#A80036;stroke-width:1.0;"/><!--MD5=[f6d92e2632fe37ccffb8aeb78c125836]
reverse link IOutputStreamFactory to OutputStreamFactory--><path codeLine="24" d="M165.5,294.94 C165.5,319.95 165.5,346.99 165.5,365.63 " fill="none" id="IOutputStreamFactory-backto-OutputStreamFactory" style="stroke:#A80036;stroke-width:1.0;stroke-dasharray:7.0,7.0;"/><polygon fill="none" points="158.5,294.65,165.5,274.65,172.5,294.65,158.5,294.65" style="stroke:#A80036;stroke-width:1.0;"/><!--MD5=[aa1ac7d1c69783f781d182dba0f452a2]
link IOutputStream to IDisposable--><path codeLine="34" d="M753.23,229.5 C758.42,229.5 763.62,229.5 768.82,229.5 " fill="none" id="IOutputStream-to-IDisposable" style="stroke:#A80036;stroke-width:1.0;stroke-dasharray:7.0,7.0;"/><polygon fill="none" points="768.87,222.5,788.87,229.5,768.87,236.5,768.87,222.5" style="stroke:#A80036;stroke-width:1.0;"/><!--MD5=[5c7fef017e3427f4cb79067736c4141b]
reverse link IOutputStream to ConsoleOutput--><path codeLine="37" d="M589.71,307.86 C586.93,317.55 583.57,327.15 579.5,336 C574.64,346.58 567.39,357.06 560.39,365.88 " fill="none" id="IOutputStream-backto-ConsoleOutput" style="stroke:#A80036;stroke-width:1.0;stroke-dasharray:7.0,7.0;"/><polygon fill="none" points="583,305.8,594.62,288.08,596.59,309.18,583,305.8" style="stroke:#A80036;stroke-width:1.0;"/><!--MD5=[93a6142abcef53e46ba696273825009f]
reverse link IOutputStream to TextOutput--><path codeLine="40" d="M434.74,280.58 C420.19,290.83 407.3,303.16 397.5,318 C388.31,331.91 389.93,350.89 393.51,365.73 " fill="none" id="IOutputStream-backto-TextOutput" style="stroke:#A80036;stroke-width:1.0;stroke-dasharray:7.0,7.0;"/><polygon fill="none" points="431.14,274.58,451.8,269.88,438.58,286.44,431.14,274.58" style="stroke:#A80036;stroke-width:1.0;"/><!--MD5=[79d83a403629f27ad6ff094a7fe160e3]
reverse link IOutputStream to DltOutput--><path codeLine="43" d="M636.56,306.53 C646.25,328.16 656.08,350.11 663.16,365.92 " fill="none" id="IOutputStream-backto-DltOutput" style="stroke:#A80036;stroke-width:1.0;stroke-dasharray:7.0,7.0;"/><polygon fill="none" points="630.12,309.28,628.33,288.17,642.9,303.56,630.12,309.28" style="stroke:#A80036;stroke-width:1.0;"/><!--MD5=[3619bbfa0f58880be2cb67db89c52871]
reverse link IDisposable to OutputWriter--><path codeLine="65" d="M840.62,274.04 C842.99,349.26 842.3,507.63 803.5,634 C797.16,654.65 787.29,675.67 776.8,694.7 " fill="none" id="IDisposable-backto-OutputWriter" style="stroke:#A80036;stroke-width:1.0;stroke-dasharray:7.0,7.0;"/><polygon fill="none" points="833.62,274.15,839.84,253.9,847.61,273.61,833.62,274.15" style="stroke:#A80036;stroke-width:1.0;"/><!--MD5=[86fd2a4cb07d00d566b491675399653b]
reverse link IDisposable to OutputBase--><path codeLine="66" d="M819.9,271.74 C801.15,310.76 769.69,369.78 732.5,414 C714.5,435.39 692.96,456.07 671.42,474.67 " fill="none" id="IDisposable-backto-OutputBase" style="stroke:#A80036;stroke-width:1.0;stroke-dasharray:7.0,7.0;"/><polygon fill="none" points="813.58,268.73,828.4,253.59,826.26,274.67,813.58,268.73" style="stroke:#A80036;stroke-width:1.0;"/><!--MD5=[f785e15707326aaaf76019741b9ac83a]
link TextOutput to OutputBase--><path codeLine="68" d="M425,414.28 C437.72,426.89 454.37,443.39 471.74,460.6 " fill="none" id="TextOutput-to-OutputBase" style="stroke:#A80036;stroke-width:1.0;"/><polygon fill="none" points="476.81,455.77,486.09,474.82,466.96,465.71,476.81,455.77" style="stroke:#A80036;stroke-width:1.0;"/><!--MD5=[0ca43c7aafc3431074ac2ea252aa194f]
link DltOutput to OutputBase--><path codeLine="69" d="M658.03,414.28 C650.06,426.26 639.77,441.76 628.95,458.03 " fill="none" id="DltOutput-to-OutputBase" style="stroke:#A80036;stroke-width:1.0;"/><polygon fill="none" points="634.69,462.04,617.79,474.82,623.03,454.29,634.69,462.04" style="stroke:#A80036;stroke-width:1.0;"/><!--MD5=[33683bc23793ba6ae3c67a985e97943b]
reverse link OutputBase to OutputWriter--><path codeLine="71" d="M634.63,644.45 C647.7,661.25 661.21,678.64 673.8,694.84 " fill="none" id="OutputBase-backto-OutputWriter" style="stroke:#A80036;stroke-width:1.0;"/><polygon fill="#A80036" points="626.57,634.07,627.0948,641.262,633.9355,643.5436,633.4106,636.3517,626.57,634.07" style="stroke:#A80036;stroke-width:1.0;"/><!--MD5=[01490e1ad14a4a27d3d4b4fa90a04b65]
reverse link OutputWriter to FileStream--><path codeLine="72" d="M842.59,767.5 C849.84,767.5 857.08,767.5 864.33,767.5 " fill="none" id="OutputWriter-backto-FileStream" style="stroke:#A80036;stroke-width:1.0;"/><polygon fill="#A80036" points="829.54,767.5,835.54,771.5,841.54,767.5,835.54,763.5,829.54,767.5" style="stroke:#A80036;stroke-width:1.0;"/><!--MD5=[3c24c929e878330ea647112023672aad]
reverse link IDisposable to FileStream--><path codeLine="73" d="M853.4,272.75 C857.91,286.97 862.47,303.03 865.5,318 C898.01,478.69 907.45,676.74 909.8,743.39 " fill="none" id="IDisposable-backto-FileStream" style="stroke:#A80036;stroke-width:1.0;stroke-dasharray:7.0,7.0;"/><polygon fill="none" points="846.69,274.76,847,253.57,859.97,270.33,846.69,274.76" style="stroke:#A80036;stroke-width:1.0;"/><!--MD5=[bda6353de308528e349ed4db55e72dd6]
@startuml Domain.OutputStreamFactory

interface IDisposable

enum OutputFormat {
    Automatic
    Console
    Text
    Dlt
}

interface IOutputStreamFactory {
    Split: int
    Force: bool
    Create(fileType: OutputFormat, string outputFile): IOutputStream
}

OutputStreamFactory -r-> DltOutput : <<instantiates>>
OutputStreamFactory -r-> TextOutput : <<instantiates>>
OutputStreamFactory -r-> ConsoleOutput : <<instantiates>>

IOutputStreamFactory -u- OutputFormat

class OutputStreamFactory
IOutputStreamFactory <|.d. OutputStreamFactory

interface IOutputStream {
    SupportsBinary: bool
    SetInput(fileName: string, inputFormat: InputFormat)
    Write(line: DltTraceLineBase)
    Write(line: DltTraceLineBase, packet: ReadOnlySpan<byte>)
    Flush()
}

IOutputStream .r.|> IDisposable

class ConsoleOutput
IOutputStream <|.d. ConsoleOutput

class TextOutput
IOutputStream <|.d. TextOutput

class DltOutput
IOutputStream <|.d. DltOutput

class OutputBase {
    Force: bool
    Split: int
    SetInput(fileName: string)
    Write(timeStamp: DateTime, line: string)
    Write(timeStamp: DateTime, buffer: ReadOnlySpan<byte>)
    Write(timeStamp: DateTime, header: ReadOnlySpan<byte>, buffer: ReadOnlySpan<byte>)
    Flush()
    Dispose()
}

class OutputWriter {
    Length: long
    IsOpen: bool
    Open(fileName: string, mode: FileMode)
    Write(buffer: ReadOnlySpan<byte>)
    Flush()
    Close()
    Dispose()
}
OutputWriter .u.|> IDisposable
OutputBase .u.|> IDisposable

TextOutput -d-|> OutputBase
DltOutput -d-|> OutputBase

OutputBase *-d- OutputWriter
OutputWriter *-r- FileStream
FileStream .u.|> IDisposable

@enduml

PlantUML version 1.2022.0(Tue Jan 11 17:16:42 CET 2022)
(GPL source distribution)
Java Runtime: Java(TM) SE Runtime Environment
JVM: Java HotSpot(TM) Client VM
Default Encoding: Cp1252
Language: en
Country: US
--></g></svg>