<?xml version="1.0" encoding="us-ascii" standalone="no"?><svg xmlns="http://www.w3.org/2000/svg" xmlns:xlink="http://www.w3.org/1999/xlink" contentStyleType="text/css" height="1315px" preserveAspectRatio="none" style="width:1436px;height:1315px;background:#FFFFFF;" version="1.1" viewBox="0 0 1436 1315" width="1436px" zoomAndPan="magnify"><defs/><g><!--class OutputFormat--><g id="elem_OutputFormat"><rect codeLine="4" fill="#F1F1F1" height="113.1875" id="OutputFormat" rx="2.5" ry="2.5" style="stroke:#181818;stroke-width:0.5;" width="128" x="959" y="7"/><ellipse cx="974" cy="23" fill="#EB937F" rx="11" ry="11" style="stroke:#181818;stroke-width:1.0;"/><path d="M978.1094,29 L970.3906,29 L970.3906,16.6094 L978.1094,16.6094 L978.1094,18.7656 L972.8438,18.7656 L972.8438,21.4375 L977.6094,21.4375 L977.6094,23.5938 L972.8438,23.5938 L972.8438,26.8438 L978.1094,26.8438 L978.1094,29 Z " fill="#000000"/><text fill="#000000" font-family="sans-serif" font-size="14" lengthAdjust="spacing" textLength="96" x="988" y="27.8467">OutputFormat</text><line style="stroke:#181818;stroke-width:0.5;" x1="960" x2="1086" y1="39" y2="39"/><text fill="#000000" font-family="sans-serif" font-size="14" lengthAdjust="spacing" textLength="69" x="965" y="55.9951">Automatic</text><text fill="#000000" font-family="sans-serif" font-size="14" lengthAdjust="spacing" textLength="57" x="965" y="72.292">Console</text><text fill="#000000" font-family="sans-serif" font-size="14" lengthAdjust="spacing" textLength="30" x="965" y="88.5889">Text</text><text fill="#000000" font-family="sans-serif" font-size="14" lengthAdjust="spacing" textLength="19" x="965" y="104.8857">Dlt</text><line style="stroke:#181818;stroke-width:0.5;" x1="960" x2="1086" y1="112.1875" y2="112.1875"/></g><!--class IOutputStreamFactory--><g id="elem_IOutputStreamFactory"><rect codeLine="11" fill="#F1F1F1" height="129.4844" id="IOutputStreamFactory" rx="2.5" ry="2.5" style="stroke:#181818;stroke-width:0.5;" width="455" x="795.5" y="181.19"/><ellipse cx="943.75" cy="197.19" fill="#B4A7E5" rx="11" ry="11" style="stroke:#181818;stroke-width:1.0;"/><path d="M939.6719,192.9556 L939.6719,190.7994 L947.0625,190.7994 L947.0625,192.9556 L944.5938,192.9556 L944.5938,201.0338 L947.0625,201.0338 L947.0625,203.19 L939.6719,203.19 L939.6719,201.0338 L942.1406,201.0338 L942.1406,192.9556 L939.6719,192.9556 Z " fill="#000000"/><text fill="#000000" font-family="sans-serif" font-size="14" font-style="italic" lengthAdjust="spacing" textLength="150" x="964.25" y="202.0367">IOutputStreamFactory</text><line style="stroke:#181818;stroke-width:0.5;" x1="796.5" x2="1249.5" y1="213.19" y2="213.19"/><text fill="#000000" font-family="sans-serif" font-size="14" lengthAdjust="spacing" textLength="55" x="801.5" y="230.1851">Split: int</text><text fill="#000000" font-family="sans-serif" font-size="14" lengthAdjust="spacing" textLength="78" x="801.5" y="246.482">Force: bool</text><text fill="#000000" font-family="sans-serif" font-size="14" lengthAdjust="spacing" textLength="179" x="801.5" y="262.7789">ConvertNonVerbose: bool</text><text fill="#000000" font-family="sans-serif" font-size="14" lengthAdjust="spacing" textLength="141" x="801.5" y="279.0757">InputFiles: InputFiles</text><line style="stroke:#181818;stroke-width:0.5;" x1="796.5" x2="1249.5" y1="286.3775" y2="286.3775"/><text fill="#000000" font-family="sans-serif" font-size="14" lengthAdjust="spacing" textLength="443" x="801.5" y="303.3726">Create(fileType: OutputFormat, string outputFile): IOutputStream</text></g><!--class OutputStreamFactory--><g id="elem_OutputStreamFactory"><rect codeLine="29" fill="#F1F1F1" height="129.4844" id="OutputStreamFactory" rx="2.5" ry="2.5" style="stroke:#181818;stroke-width:0.5;" width="455" x="669.5" y="371.67"/><ellipse cx="819.25" cy="387.67" fill="#ADD1B2" rx="11" ry="11" style="stroke:#181818;stroke-width:1.0;"/><path d="M822.2188,393.3106 Q821.6406,393.6075 821,393.7481 Q820.3594,393.9044 819.6563,393.9044 Q817.1563,393.9044 815.8281,392.2638 Q814.5156,390.6075 814.5156,387.4825 Q814.5156,384.3575 815.8281,382.7013 Q817.1563,381.045 819.6563,381.045 Q820.3594,381.045 821,381.2013 Q821.6563,381.3575 822.2188,381.6544 L822.2188,384.3731 Q821.5938,383.795 821,383.5294 Q820.4063,383.2481 819.7813,383.2481 Q818.4375,383.2481 817.75,384.3263 Q817.0625,385.3888 817.0625,387.4825 Q817.0625,389.5763 817.75,390.6544 Q818.4375,391.7169 819.7813,391.7169 Q820.4063,391.7169 821,391.4513 Q821.5938,391.17 822.2188,390.5919 L822.2188,393.3106 Z " fill="#000000"/><text fill="#000000" font-family="sans-serif" font-size="14" lengthAdjust="spacing" textLength="147" x="839.75" y="392.5167">OutputStreamFactory</text><line style="stroke:#181818;stroke-width:0.5;" x1="670.5" x2="1123.5" y1="403.67" y2="403.67"/><text fill="#000000" font-family="sans-serif" font-size="14" lengthAdjust="spacing" textLength="55" x="675.5" y="420.6651">Split: int</text><text fill="#000000" font-family="sans-serif" font-size="14" lengthAdjust="spacing" textLength="78" x="675.5" y="436.962">Force: bool</text><text fill="#000000" font-family="sans-serif" font-size="14" lengthAdjust="spacing" textLength="179" x="675.5" y="453.2589">ConvertNonVerbose: bool</text><text fill="#000000" font-family="sans-serif" font-size="14" lengthAdjust="spacing" textLength="141" x="675.5" y="469.5557">InputFiles: InputFiles</text><line style="stroke:#181818;stroke-width:0.5;" x1="670.5" x2="1123.5" y1="476.8575" y2="476.8575"/><text fill="#000000" font-family="sans-serif" font-size="14" lengthAdjust="spacing" textLength="443" x="675.5" y="493.8526">Create(fileType: OutputFormat, string outputFile): IOutputStream</text></g><!--class DltOutput--><g id="elem_DltOutput"><rect codeLine="63" fill="#F1F1F1" height="129.4844" id="DltOutput" rx="2.5" ry="2.5" style="stroke:#181818;stroke-width:0.5;" width="479" x="657.5" y="578.16"/><ellipse cx="859.25" cy="594.16" fill="#ADD1B2" rx="11" ry="11" style="stroke:#181818;stroke-width:1.0;"/><path d="M862.2188,599.8006 Q861.6406,600.0975 861,600.2381 Q860.3594,600.3944 859.6563,600.3944 Q857.1563,600.3944 855.8281,598.7538 Q854.5156,597.0975 854.5156,593.9725 Q854.5156,590.8475 855.8281,589.1913 Q857.1563,587.535 859.6563,587.535 Q860.3594,587.535 861,587.6913 Q861.6563,587.8475 862.2188,588.1444 L862.2188,590.8631 Q861.5938,590.285 861,590.0194 Q860.4063,589.7381 859.7813,589.7381 Q858.4375,589.7381 857.75,590.8163 Q857.0625,591.8788 857.0625,593.9725 Q857.0625,596.0663 857.75,597.1444 Q858.4375,598.2069 859.7813,598.2069 Q860.4063,598.2069 861,597.9413 Q861.5938,597.66 862.2188,597.0819 L862.2188,599.8006 Z " fill="#000000"/><text fill="#000000" font-family="sans-serif" font-size="14" lengthAdjust="spacing" textLength="67" x="879.75" y="599.0067">DltOutput</text><line style="stroke:#181818;stroke-width:0.5;" x1="658.5" x2="1135.5" y1="610.16" y2="610.16"/><text fill="#000000" font-family="sans-serif" font-size="14" lengthAdjust="spacing" textLength="184" x="663.5" y="627.1551">DltOutput(fileName: string)</text><text fill="#000000" font-family="sans-serif" font-size="14" lengthAdjust="spacing" textLength="266" x="663.5" y="643.452">DltOutput(fileName: string, force: bool)</text><text fill="#000000" font-family="sans-serif" font-size="14" lengthAdjust="spacing" textLength="341" x="663.5" y="659.7489">DltOutput(fileName: string, split: long, force: bool)</text><text fill="#000000" font-family="sans-serif" font-size="14" lengthAdjust="spacing" textLength="467" x="663.5" y="676.0457">DltOutput(fileName: string, inputs: InputFiles, split: long, force: bool)</text><line style="stroke:#181818;stroke-width:1.0;stroke-dasharray:1.0,2.0;" x1="658.5" x2="1135.5" y1="683.3475" y2="683.3475"/><text fill="#000000" font-family="sans-serif" font-size="14" lengthAdjust="spacing" textLength="179" x="663.5" y="700.3426">ConvertNonVerbose: bool</text></g><!--class TextOutput--><g id="elem_TextOutput"><rect codeLine="55" fill="#F1F1F1" height="113.1875" id="TextOutput" rx="2.5" ry="2.5" style="stroke:#181818;stroke-width:0.5;" width="490" x="132" y="586.31"/><ellipse cx="333.75" cy="602.31" fill="#ADD1B2" rx="11" ry="11" style="stroke:#181818;stroke-width:1.0;"/><path d="M336.7188,607.9506 Q336.1406,608.2475 335.5,608.3881 Q334.8594,608.5444 334.1563,608.5444 Q331.6563,608.5444 330.3281,606.9038 Q329.0156,605.2475 329.0156,602.1225 Q329.0156,598.9975 330.3281,597.3413 Q331.6563,595.685 334.1563,595.685 Q334.8594,595.685 335.5,595.8413 Q336.1563,595.9975 336.7188,596.2944 L336.7188,599.0131 Q336.0938,598.435 335.5,598.1694 Q334.9063,597.8881 334.2813,597.8881 Q332.9375,597.8881 332.25,598.9663 Q331.5625,600.0288 331.5625,602.1225 Q331.5625,604.2163 332.25,605.2944 Q332.9375,606.3569 334.2813,606.3569 Q334.9063,606.3569 335.5,606.0913 Q336.0938,605.81 336.7188,605.2319 L336.7188,607.9506 Z " fill="#000000"/><text fill="#000000" font-family="sans-serif" font-size="14" lengthAdjust="spacing" textLength="78" x="354.25" y="607.1567">TextOutput</text><line style="stroke:#181818;stroke-width:0.5;" x1="133" x2="621" y1="618.31" y2="618.31"/><line style="stroke:#181818;stroke-width:0.5;" x1="133" x2="621" y1="626.31" y2="626.31"/><text fill="#000000" font-family="sans-serif" font-size="14" lengthAdjust="spacing" textLength="195" x="138" y="643.3051">TextOutput(fileName: string)</text><text fill="#000000" font-family="sans-serif" font-size="14" lengthAdjust="spacing" textLength="277" x="138" y="659.602">TextOutput(fileName: string, force: bool)</text><text fill="#000000" font-family="sans-serif" font-size="14" lengthAdjust="spacing" textLength="352" x="138" y="675.8989">TextOutput(fileName: string, split: long, force: bool)</text><text fill="#000000" font-family="sans-serif" font-size="14" lengthAdjust="spacing" textLength="478" x="138" y="692.1957">TextOutput(fileName: string, inputs: InputFiles, split: long, force: bool)</text></g><!--class ConsoleOutput--><g id="elem_ConsoleOutput"><rect codeLine="49" fill="#F1F1F1" height="80.5938" id="ConsoleOutput" rx="2.5" ry="2.5" style="stroke:#181818;stroke-width:0.5;" width="258" x="1171" y="602.6"/><ellipse cx="1243.25" cy="618.6" fill="#ADD1B2" rx="11" ry="11" style="stroke:#181818;stroke-width:1.0;"/><path d="M1246.2188,624.2406 Q1245.6406,624.5375 1245,624.6781 Q1244.3594,624.8344 1243.6563,624.8344 Q1241.1563,624.8344 1239.8281,623.1938 Q1238.5156,621.5375 1238.5156,618.4125 Q1238.5156,615.2875 1239.8281,613.6313 Q1241.1563,611.975 1243.6563,611.975 Q1244.3594,611.975 1245,612.1313 Q1245.6563,612.2875 1246.2188,612.5844 L1246.2188,615.3031 Q1245.5938,614.725 1245,614.4594 Q1244.4063,614.1781 1243.7813,614.1781 Q1242.4375,614.1781 1241.75,615.2563 Q1241.0625,616.3188 1241.0625,618.4125 Q1241.0625,620.5063 1241.75,621.5844 Q1242.4375,622.6469 1243.7813,622.6469 Q1244.4063,622.6469 1245,622.3813 Q1245.5938,622.1 1246.2188,621.5219 L1246.2188,624.2406 Z " fill="#000000"/><text fill="#000000" font-family="sans-serif" font-size="14" lengthAdjust="spacing" textLength="105" x="1263.75" y="623.4467">ConsoleOutput</text><line style="stroke:#181818;stroke-width:0.5;" x1="1172" x2="1428" y1="634.6" y2="634.6"/><line style="stroke:#181818;stroke-width:0.5;" x1="1172" x2="1428" y1="642.6" y2="642.6"/><text fill="#000000" font-family="sans-serif" font-size="14" lengthAdjust="spacing" textLength="115" x="1177" y="659.5951">ConsoleOutput()</text><text fill="#000000" font-family="sans-serif" font-size="14" lengthAdjust="spacing" textLength="246" x="1177" y="675.892">ConsoleOutput(showPosition: bool)</text></g><!--class InputFiles--><g id="elem_InputFiles"><rect codeLine="25" fill="#F1F1F1" height="80.5938" id="InputFiles" rx="2.5" ry="2.5" style="stroke:#181818;stroke-width:0.5;" width="270" x="7" y="396.12"/><ellipse cx="104.75" cy="412.12" fill="#ADD1B2" rx="11" ry="11" style="stroke:#181818;stroke-width:1.0;"/><path d="M107.7188,417.7606 Q107.1406,418.0575 106.5,418.1981 Q105.8594,418.3544 105.1563,418.3544 Q102.6563,418.3544 101.3281,416.7138 Q100.0156,415.0575 100.0156,411.9325 Q100.0156,408.8075 101.3281,407.1513 Q102.6563,405.495 105.1563,405.495 Q105.8594,405.495 106.5,405.6513 Q107.1563,405.8075 107.7188,406.1044 L107.7188,408.8231 Q107.0938,408.245 106.5,407.9794 Q105.9063,407.6981 105.2813,407.6981 Q103.9375,407.6981 103.25,408.7763 Q102.5625,409.8388 102.5625,411.9325 Q102.5625,414.0263 103.25,415.1044 Q103.9375,416.1669 105.2813,416.1669 Q105.9063,416.1669 106.5,415.9013 Q107.0938,415.62 107.7188,415.0419 L107.7188,417.7606 Z " fill="#000000"/><text fill="#000000" font-family="sans-serif" font-size="14" lengthAdjust="spacing" textLength="66" x="125.25" y="416.9667">InputFiles</text><line style="stroke:#181818;stroke-width:0.5;" x1="8" x2="276" y1="428.12" y2="428.12"/><line style="stroke:#181818;stroke-width:0.5;" x1="8" x2="276" y1="436.12" y2="436.12"/><text fill="#000000" font-family="sans-serif" font-size="14" lengthAdjust="spacing" textLength="235" x="13" y="453.1151">AddProtectedFile(fileName: string)</text><text fill="#000000" font-family="sans-serif" font-size="14" lengthAdjust="spacing" textLength="258" x="13" y="469.412">IsProtectedFile(fileName: string): bool</text></g><!--class IOutputStream--><g id="elem_IOutputStream"><rect codeLine="39" fill="#F1F1F1" height="129.4844" id="IOutputStream" rx="2.5" ry="2.5" style="stroke:#181818;stroke-width:0.5;" width="430" x="331" y="181.19"/><ellipse cx="491.75" cy="197.19" fill="#B4A7E5" rx="11" ry="11" style="stroke:#181818;stroke-width:1.0;"/><path d="M487.6719,192.9556 L487.6719,190.7994 L495.0625,190.7994 L495.0625,192.9556 L492.5938,192.9556 L492.5938,201.0338 L495.0625,201.0338 L495.0625,203.19 L487.6719,203.19 L487.6719,201.0338 L490.1406,201.0338 L490.1406,192.9556 L487.6719,192.9556 Z " fill="#000000"/><text fill="#000000" font-family="sans-serif" font-size="14" font-style="italic" lengthAdjust="spacing" textLength="100" x="512.25" y="202.0367">IOutputStream</text><line style="stroke:#181818;stroke-width:0.5;" x1="332" x2="760" y1="213.19" y2="213.19"/><text fill="#000000" font-family="sans-serif" font-size="14" lengthAdjust="spacing" textLength="144" x="337" y="230.1851">SupportsBinary: bool</text><line style="stroke:#181818;stroke-width:0.5;" x1="332" x2="760" y1="237.4869" y2="237.4869"/><text fill="#000000" font-family="sans-serif" font-size="14" lengthAdjust="spacing" textLength="358" x="337" y="254.482">SetInput(fileName: string, inputFormat: InputFormat)</text><text fill="#000000" font-family="sans-serif" font-size="14" lengthAdjust="spacing" textLength="199" x="337" y="270.7789">Write(line: DltTraceLineBase)</text><text fill="#000000" font-family="sans-serif" font-size="14" lengthAdjust="spacing" textLength="418" x="337" y="287.0757">Write(line: DltTraceLineBase, packet: ReadOnlySpan&lt;byte&gt;)</text><text fill="#000000" font-family="sans-serif" font-size="14" lengthAdjust="spacing" textLength="47" x="337" y="303.3726">Flush()</text></g><!--class OutputBase--><g id="elem_OutputBase"><rect codeLine="73" fill="#F1F1F1" height="316.75" id="OutputBase" rx="2.5" ry="2.5" style="stroke:#181818;stroke-width:0.5;" width="654" x="50" y="768.64"/><ellipse cx="331.25" cy="784.64" fill="#A9DCDF" rx="11" ry="11" style="stroke:#181818;stroke-width:1.0;"/><path d="M331.3594,779.9838 L330.2031,785.0619 L332.5313,785.0619 L331.3594,779.9838 Z M329.875,777.7494 L332.8594,777.7494 L336.2188,790.14 L333.7656,790.14 L333,787.0775 L329.7188,787.0775 L328.9688,790.14 L326.5313,790.14 L329.875,777.7494 Z " fill="#000000"/><text fill="#000000" font-family="sans-serif" font-size="14" font-style="italic" lengthAdjust="spacing" textLength="83" x="351.75" y="789.4867">OutputBase</text><line style="stroke:#181818;stroke-width:0.5;" x1="51" x2="703" y1="800.64" y2="800.64"/><polygon fill="#FFFF44" points="61,809.2884,65,813.2884,61,817.2884,57,813.2884" style="stroke:#B38D22;stroke-width:1.0;"/><text fill="#000000" font-family="sans-serif" font-size="14" lengthAdjust="spacing" textLength="200" x="70" y="817.6351">OutputBase(fileName: string)</text><polygon fill="#FFFF44" points="61,825.5853,65,829.5853,61,833.5853,57,829.5853" style="stroke:#B38D22;stroke-width:1.0;"/><text fill="#000000" font-family="sans-serif" font-size="14" lengthAdjust="spacing" textLength="282" x="70" y="833.932">OutputBase(fileName: string, force: bool)</text><polygon fill="#FFFF44" points="61,841.8822,65,845.8822,61,849.8822,57,845.8822" style="stroke:#B38D22;stroke-width:1.0;"/><text fill="#000000" font-family="sans-serif" font-size="14" lengthAdjust="spacing" textLength="357" x="70" y="850.2289">OutputBase(fileName: string, split: long, force: bool)</text><polygon fill="#FFFF44" points="61,858.1791,65,862.1791,61,866.1791,57,862.1791" style="stroke:#B38D22;stroke-width:1.0;"/><text fill="#000000" font-family="sans-serif" font-size="14" lengthAdjust="spacing" textLength="483" x="70" y="866.5257">OutputBase(fileName: string, inputs: InputFiles, split: long, force: bool)</text><line style="stroke:#181818;stroke-width:1.0;stroke-dasharray:1.0,2.0;" x1="51" x2="703" y1="873.8275" y2="873.8275"/><rect fill="none" height="6" style="stroke:#C82930;stroke-width:1.0;" width="6" x="58" y="884.4759"/><text fill="#000000" font-family="sans-serif" font-size="14" lengthAdjust="spacing" textLength="161" x="70" y="890.8226">m_InputFiles: InputFiles</text><ellipse cx="61" cy="903.7728" fill="none" rx="3" ry="3" style="stroke:#038048;stroke-width:1.0;"/><text fill="#000000" font-family="sans-serif" font-size="14" lengthAdjust="spacing" textLength="78" x="70" y="907.1195">Force: bool</text><ellipse cx="61" cy="920.0697" fill="none" rx="3" ry="3" style="stroke:#038048;stroke-width:1.0;"/><text fill="#000000" font-family="sans-serif" font-size="14" lengthAdjust="spacing" textLength="55" x="70" y="923.4164">Split: int</text><ellipse cx="61" cy="936.3666" fill="none" rx="3" ry="3" style="stroke:#038048;stroke-width:1.0;"/><text fill="#000000" font-family="sans-serif" font-size="14" lengthAdjust="spacing" textLength="139" x="70" y="939.7132">Encoding: Encoding</text><ellipse cx="61" cy="952.6634" fill="none" rx="3" ry="3" style="stroke:#038048;stroke-width:1.0;"/><text fill="#000000" font-family="sans-serif" font-size="14" lengthAdjust="spacing" textLength="139" x="70" y="956.0101">AutoFlushPeriod: int</text><line style="stroke:#181818;stroke-width:1.0;stroke-dasharray:1.0,2.0;" x1="51" x2="703" y1="963.3119" y2="963.3119"/><polygon fill="#FFFF44" points="61,971.9603,65,975.9603,61,979.9603,57,975.9603" style="stroke:#B38D22;stroke-width:1.0;"/><text fill="#000000" font-family="sans-serif" font-size="14" lengthAdjust="spacing" textLength="175" x="70" y="980.307">SetInput(fileName: string)</text><polygon fill="#FFFF44" points="61,988.2572,65,992.2572,61,996.2572,57,992.2572" style="stroke:#B38D22;stroke-width:1.0;"/><text fill="#000000" font-family="sans-serif" font-size="14" lengthAdjust="spacing" textLength="275" x="70" y="996.6039">Write(timeStamp: DateTime, line: string)</text><polygon fill="#FFFF44" points="61,1004.5541,65,1008.5541,61,1012.5541,57,1008.5541" style="stroke:#B38D22;stroke-width:1.0;"/><text fill="#000000" font-family="sans-serif" font-size="14" lengthAdjust="spacing" textLength="407" x="70" y="1012.9007">Write(timeStamp: DateTime, buffer: ReadOnlySpan&lt;byte&gt;)</text><polygon fill="#FFFF44" points="61,1020.8509,65,1024.8509,61,1028.8509,57,1024.8509" style="stroke:#B38D22;stroke-width:1.0;"/><text fill="#000000" font-family="sans-serif" font-size="14" lengthAdjust="spacing" textLength="628" x="70" y="1029.1976">Write(timeStamp: DateTime, header: ReadOnlySpan&lt;byte&gt;, buffer: ReadOnlySpan&lt;byte&gt;)</text><ellipse cx="61" cy="1042.1478" fill="#84BE84" rx="3" ry="3" style="stroke:#038048;stroke-width:1.0;"/><text fill="#000000" font-family="sans-serif" font-size="14" lengthAdjust="spacing" textLength="47" x="70" y="1045.4945">Flush()</text><ellipse cx="61" cy="1058.4447" fill="#84BE84" rx="3" ry="3" style="stroke:#038048;stroke-width:1.0;"/><text fill="#000000" font-family="sans-serif" font-size="14" lengthAdjust="spacing" textLength="67" x="70" y="1061.7914">Dispose()</text><polygon fill="#FFFF44" points="61,1069.7416,65,1073.7416,61,1077.7416,57,1073.7416" style="stroke:#B38D22;stroke-width:1.0;"/><text fill="#000000" font-family="sans-serif" font-size="14" lengthAdjust="spacing" textLength="173" x="70" y="1078.0882">Dispose(disposing: bool)</text></g><!--class OutputWriter--><g id="elem_OutputWriter"><rect codeLine="94" fill="#F1F1F1" height="162.0781" id="OutputWriter" rx="2.5" ry="2.5" style="stroke:#181818;stroke-width:0.5;" width="286" x="234" y="1146.39"/><ellipse cx="328.75" cy="1162.39" fill="#ADD1B2" rx="11" ry="11" style="stroke:#181818;stroke-width:1.0;"/><path d="M331.7188,1168.0306 Q331.1406,1168.3275 330.5,1168.4681 Q329.8594,1168.6244 329.1563,1168.6244 Q326.6563,1168.6244 325.3281,1166.9838 Q324.0156,1165.3275 324.0156,1162.2025 Q324.0156,1159.0775 325.3281,1157.4213 Q326.6563,1155.765 329.1563,1155.765 Q329.8594,1155.765 330.5,1155.9213 Q331.1563,1156.0775 331.7188,1156.3744 L331.7188,1159.0931 Q331.0938,1158.515 330.5,1158.2494 Q329.9063,1157.9681 329.2813,1157.9681 Q327.9375,1157.9681 327.25,1159.0463 Q326.5625,1160.1088 326.5625,1162.2025 Q326.5625,1164.2963 327.25,1165.3744 Q327.9375,1166.4369 329.2813,1166.4369 Q329.9063,1166.4369 330.5,1166.1713 Q331.0938,1165.89 331.7188,1165.3119 L331.7188,1168.0306 Z " fill="#000000"/><text fill="#000000" font-family="sans-serif" font-size="14" lengthAdjust="spacing" textLength="88" x="349.25" y="1167.2367">OutputWriter</text><line style="stroke:#181818;stroke-width:0.5;" x1="235" x2="519" y1="1178.39" y2="1178.39"/><text fill="#000000" font-family="sans-serif" font-size="14" lengthAdjust="spacing" textLength="87" x="240" y="1195.3851">Length: long</text><text fill="#000000" font-family="sans-serif" font-size="14" lengthAdjust="spacing" textLength="88" x="240" y="1211.682">IsOpen: bool</text><line style="stroke:#181818;stroke-width:0.5;" x1="235" x2="519" y1="1218.9838" y2="1218.9838"/><text fill="#000000" font-family="sans-serif" font-size="14" lengthAdjust="spacing" textLength="274" x="240" y="1235.9789">Open(fileName: string, mode: FileMode)</text><text fill="#000000" font-family="sans-serif" font-size="14" lengthAdjust="spacing" textLength="249" x="240" y="1252.2757">Write(buffer: ReadOnlySpan&lt;byte&gt;)</text><text fill="#000000" font-family="sans-serif" font-size="14" lengthAdjust="spacing" textLength="47" x="240" y="1268.5726">Flush()</text><text fill="#000000" font-family="sans-serif" font-size="14" lengthAdjust="spacing" textLength="49" x="240" y="1284.8695">Close()</text><text fill="#000000" font-family="sans-serif" font-size="14" lengthAdjust="spacing" textLength="67" x="240" y="1301.1664">Dispose()</text></g><!--class FileStream--><g id="elem_FileStream"><rect fill="#F1F1F1" height="48" id="FileStream" rx="2.5" ry="2.5" style="stroke:#181818;stroke-width:0.5;" width="104" x="555" y="1203.43"/><ellipse cx="570" cy="1219.43" fill="#ADD1B2" rx="11" ry="11" style="stroke:#181818;stroke-width:1.0;"/><path d="M572.9688,1225.0706 Q572.3906,1225.3675 571.75,1225.5081 Q571.1094,1225.6644 570.4063,1225.6644 Q567.9063,1225.6644 566.5781,1224.0238 Q565.2656,1222.3675 565.2656,1219.2425 Q565.2656,1216.1175 566.5781,1214.4613 Q567.9063,1212.805 570.4063,1212.805 Q571.1094,1212.805 571.75,1212.9613 Q572.4063,1213.1175 572.9688,1213.4144 L572.9688,1216.1331 Q572.3438,1215.555 571.75,1215.2894 Q571.1563,1215.0081 570.5313,1215.0081 Q569.1875,1215.0081 568.5,1216.0863 Q567.8125,1217.1488 567.8125,1219.2425 Q567.8125,1221.3363 568.5,1222.4144 Q569.1875,1223.4769 570.5313,1223.4769 Q571.1563,1223.4769 571.75,1223.2113 Q572.3438,1222.93 572.9688,1222.3519 L572.9688,1225.0706 Z " fill="#000000"/><text fill="#000000" font-family="sans-serif" font-size="14" lengthAdjust="spacing" textLength="72" x="584" y="1224.2767">FileStream</text><line style="stroke:#181818;stroke-width:0.5;" x1="556" x2="658" y1="1235.43" y2="1235.43"/><line style="stroke:#181818;stroke-width:0.5;" x1="556" x2="658" y1="1243.43" y2="1243.43"/></g><!--link OutputStreamFactory to DltOutput--><g id="link_OutputStreamFactory_DltOutput"><path codeLine="19" d="M897,501.55 C897,524.01 897,549.33 897,572.22 " fill="none" id="OutputStreamFactory-to-DltOutput" style="stroke:#181818;stroke-width:1.0;"/><polygon fill="#181818" points="897,576.99,901,567.99,897,571.99,893,567.99,897,576.99" style="stroke:#181818;stroke-width:1.0;"/><text fill="#000000" font-family="sans-serif" font-size="13" lengthAdjust="spacing" textLength="91" x="898" y="544.2269">&#171;instantiates&#187;</text></g><!--link OutputStreamFactory to TextOutput--><g id="link_OutputStreamFactory_TextOutput"><path codeLine="20" d="M733.9,501.55 C666.97,527.87 590.06,558.12 524.81,583.78 " fill="none" id="OutputStreamFactory-to-TextOutput" style="stroke:#181818;stroke-width:1.0;"/><polygon fill="#181818" points="520.33,585.93,530.1693,586.364,524.9841,584.1026,527.2455,578.9174,520.33,585.93" style="stroke:#181818;stroke-width:1.0;"/><text fill="#000000" font-family="sans-serif" font-size="13" lengthAdjust="spacing" textLength="91" x="653" y="544.2269">&#171;instantiates&#187;</text></g><!--link OutputStreamFactory to ConsoleOutput--><g id="link_OutputStreamFactory_ConsoleOutput"><path codeLine="21" d="M1023.41,501.55 C1086.35,533.5 1160.71,571.23 1216.47,599.52 " fill="none" id="OutputStreamFactory-to-ConsoleOutput" style="stroke:#181818;stroke-width:1.0;"/><polygon fill="#181818" points="1220.81,602.22,1214.588,594.5854,1216.3494,599.9611,1210.9737,601.7225,1220.81,602.22" style="stroke:#181818;stroke-width:1.0;"/><text fill="#000000" font-family="sans-serif" font-size="13" lengthAdjust="spacing" textLength="91" x="1111" y="544.2269">&#171;instantiates&#187;</text></g><!--link OutputFormat to IOutputStreamFactory--><g id="link_OutputFormat_IOutputStreamFactory"><path codeLine="23" d="M1023,120.67 C1023,139.69 1023,161.09 1023,180.7 " fill="none" id="OutputFormat-IOutputStreamFactory" style="stroke:#181818;stroke-width:1.0;"/></g><!--link InputFiles to OutputStreamFactory--><g id="link_InputFiles_OutputStreamFactory"><path codeLine="36" d="M277.3,436.42 C403.32,436.42 529.35,436.42 655.37,436.42 " fill="none" id="InputFiles-to-OutputStreamFactory" style="stroke:#181818;stroke-width:1.0;"/><polygon fill="#181818" points="668.15,436.42,662.15,432.42,656.15,436.42,662.15,440.42,668.15,436.42" style="stroke:#181818;stroke-width:1.0;"/></g><!--reverse link IOutputStreamFactory to OutputStreamFactory--><g id="link_IOutputStreamFactory_OutputStreamFactory"><path codeLine="37" d="M968.65,328.24 C959.04,342.6 949.16,357.38 939.93,371.2 " fill="none" id="IOutputStreamFactory-backto-OutputStreamFactory" style="stroke:#181818;stroke-width:1.0;stroke-dasharray:7.0,7.0;"/><polygon fill="none" points="963.23,324.74,980.17,312.01,974.87,332.52,963.23,324.74" style="stroke:#181818;stroke-width:1.0;"/></g><!--reverse link IOutputStream to ConsoleOutput--><g id="link_IOutputStream_ConsoleOutput"><path codeLine="53" d="M781.55,311 C943.66,340.98 1012.25,282.17 1142,371.67 C1223.86,428.15 1269.43,541.97 1288.75,602.29 " fill="none" id="IOutputStream-backto-ConsoleOutput" style="stroke:#181818;stroke-width:1.0;stroke-dasharray:7.0,7.0;"/><polygon fill="none" points="780.52,317.73,762.31,306.89,783.3,304.01,780.52,317.73" style="stroke:#181818;stroke-width:1.0;"/></g><!--reverse link IOutputStream to TextOutput--><g id="link_IOutputStream_TextOutput"><path codeLine="61" d="M510.43,330.07 C477.5,407.03 429.44,519.34 400.88,586.08 " fill="none" id="IOutputStream-backto-TextOutput" style="stroke:#181818;stroke-width:1.0;stroke-dasharray:7.0,7.0;"/><polygon fill="none" points="504.36,327.46,518.66,311.83,517.23,332.97,504.36,327.46" style="stroke:#181818;stroke-width:1.0;"/></g><!--reverse link IOutputStream to DltOutput--><g id="link_IOutputStream_DltOutput"><path codeLine="71" d="M566.08,331.25 C582.21,384.74 609.35,452.74 652,501.16 C678.91,531.71 714.13,557.24 749.43,577.8 " fill="none" id="IOutputStream-backto-DltOutput" style="stroke:#181818;stroke-width:1.0;stroke-dasharray:7.0,7.0;"/><polygon fill="none" points="559.11,333.32,560.33,312.16,572.57,329.46,559.11,333.32" style="stroke:#181818;stroke-width:1.0;"/></g><!--link InputFiles to OutputBase--><g id="link_InputFiles_OutputBase"><path codeLine="105" d="M125.51,477.14 C105.49,531.82 78.52,632.07 114,707.64 C122.25,725.21 132.68,741.85 144.6,757.52 " fill="none" id="InputFiles-to-OutputBase" style="stroke:#181818;stroke-width:1.0;"/><polygon fill="none" points="153.09,767.21,152.4924,760.0237,145.6291,757.8113,146.2267,764.9976,153.09,767.21" style="stroke:#181818;stroke-width:1.0;"/></g><!--link TextOutput to OutputBase--><g id="link_TextOutput_OutputBase"><path codeLine="107" d="M377,699.97 C377,714.25 377,730.39 377,747.3 " fill="none" id="TextOutput-to-OutputBase" style="stroke:#181818;stroke-width:1.0;"/><polygon fill="none" points="384,747.24,377,767.24,370,747.24,384,747.24" style="stroke:#181818;stroke-width:1.0;"/></g><!--link DltOutput to OutputBase--><g id="link_DltOutput_OutputBase"><path codeLine="108" d="M778.68,708.09 C750.36,723.46 718.81,740.58 686.18,758.27 " fill="none" id="DltOutput-to-OutputBase" style="stroke:#181818;stroke-width:1.0;"/><polygon fill="none" points="689.88,764.78,668.96,768.16,683.2,752.47,689.88,764.78" style="stroke:#181818;stroke-width:1.0;"/></g><!--reverse link OutputBase to OutputWriter--><g id="link_OutputBase_OutputWriter"><path codeLine="110" d="M377,1099.27 C377,1115.55 377,1131.47 377,1146.24 " fill="none" id="OutputBase-backto-OutputWriter" style="stroke:#181818;stroke-width:1.0;"/><polygon fill="#181818" points="377,1086.53,373,1092.53,377,1098.53,381,1092.53,377,1086.53" style="stroke:#181818;stroke-width:1.0;"/></g><!--reverse link OutputWriter to FileStream--><g id="link_OutputWriter_FileStream"><path codeLine="111" d="M534.2,1227.43 C540.97,1227.43 547.74,1227.43 554.51,1227.43 " fill="none" id="OutputWriter-backto-FileStream" style="stroke:#181818;stroke-width:1.0;"/><polygon fill="#181818" points="521.3,1227.43,527.3,1231.43,533.3,1227.43,527.3,1223.43,521.3,1227.43" style="stroke:#181818;stroke-width:1.0;"/></g><!--SRC=[rLRTRjem5BxtKrZg1L187W0XfBKTKgMkL0DjbvL9JB6Ms97jR4EqxxvZEo4E9ARjtRZ1npw_tpd-d07ZciejIIY-lsEg48fiCeeGvMMEbwKkIhqGCYSQ7n26tvTI2v1OOgLRmPK0TRDUqx_QBkuoZTuGyXmxFoijASaN9D52xYjtgo9ZUef1rueGAg5Jl14Yg_t_fb8_2lw3oerG_jazDxcnZAgfjtPc44ZJuHOsrli2ZFn29bXfoVWB5cuJb4RJTeuc_QwSepIQc_BS6PxYsOnnfGdN3EAf-RpVog3p2RCAu7vBr0bkL4QjcX5ACgAKXrFTpZHzaaBJHDFKx5lC7aaEc3cKHWvhTK6hwijR5US_R7XNojTH5lcXEh6UlSPft5LnxnMeeIYBGaYjRXWdSkyLkgBQ1Zs3UGAu7SkgGR22QzDFoG25Z76mW35TImZz0D8DKVIonWGN9Fb5mV5tIj8bp_QhWl3PPg_ft5alibBjXYDpFGRjYc8PlyxR3E8ceJt01vyrtDvmrB6dTkBFar1CCy4TC2PeEwJ5FMuRrb6zstOuabFbktl20meJl6scz1tQoeru9ZvkQjlR6k-Gknv4cWWr70rb7Mg63eBHVzvHK4Wv34N8ycD866zn76IG7h2EEI14DX0ShYxsESnSZ0grgsQd1xUGHaV6OVLmjM7RJwCNvSy1cXsVqlNuXCx7NtaYKaXXYkkLspUV3POzdgXa8cqighXNlPnNbUk8IxEShZJ92s0l8FmrY1FisEozsfjokwMod-D2jZkmwRQzx7TSawSL757IIhognTJ-M_pgAzvwKMrkifh71yfVzCvrj7gbbmNbNdkCs34TkKX1Cctz1Yl_ORXKX5_3RTOKq9JpXWQjLEFoz64OU1Vh_DGx5EOhnfj0vB4wV1o1OQEC6eexE_9zNiDf2qlKolOwaf45flei63JhZbp_0G00]--></g></svg>