<?xml version="1.0" encoding="us-ascii" standalone="no"?><svg xmlns="http://www.w3.org/2000/svg" xmlns:xlink="http://www.w3.org/1999/xlink" contentStyleType="text/css" height="905px" preserveAspectRatio="none" style="width:1154px;height:905px;background:#FFFFFF;" version="1.1" viewBox="0 0 1154 905" width="1154px" zoomAndPan="magnify"><defs/><g><!--class IDisposable--><g id="elem_IDisposable"><rect codeLine="2" fill="#F1F1F1" height="48" id="IDisposable" rx="2.5" ry="2.5" style="stroke:#181818;stroke-width:0.5;" width="112" x="968.5" y="221.93"/><ellipse cx="983.5" cy="237.93" fill="#B4A7E5" rx="11" ry="11" style="stroke:#181818;stroke-width:1.0;"/><path d="M979.4219,233.6956 L979.4219,231.5394 L986.8125,231.5394 L986.8125,233.6956 L984.3438,233.6956 L984.3438,241.7737 L986.8125,241.7737 L986.8125,243.93 L979.4219,243.93 L979.4219,241.7737 L981.8906,241.7737 L981.8906,233.6956 L979.4219,233.6956 Z " fill="#000000"/><text fill="#000000" font-family="sans-serif" font-size="14" font-style="italic" lengthAdjust="spacing" textLength="80" x="997.5" y="242.7767">IDisposable</text><line style="stroke:#181818;stroke-width:0.5;" x1="969.5" x2="1079.5" y1="253.93" y2="253.93"/><line style="stroke:#181818;stroke-width:0.5;" x1="969.5" x2="1079.5" y1="261.93" y2="261.93"/></g><!--class OutputFormat--><g id="elem_OutputFormat"><rect codeLine="4" fill="#F1F1F1" height="113.1875" id="OutputFormat" rx="2.5" ry="2.5" style="stroke:#181818;stroke-width:0.5;" width="128" x="170.5" y="7"/><ellipse cx="185.5" cy="23" fill="#EB937F" rx="11" ry="11" style="stroke:#181818;stroke-width:1.0;"/><path d="M189.6094,29 L181.8906,29 L181.8906,16.6094 L189.6094,16.6094 L189.6094,18.7656 L184.3438,18.7656 L184.3438,21.4375 L189.1094,21.4375 L189.1094,23.5938 L184.3438,23.5938 L184.3438,26.8438 L189.6094,26.8438 L189.6094,29 Z " fill="#000000"/><text fill="#000000" font-family="sans-serif" font-size="14" lengthAdjust="spacing" textLength="96" x="199.5" y="27.8467">OutputFormat</text><line style="stroke:#181818;stroke-width:0.5;" x1="171.5" x2="297.5" y1="39" y2="39"/><text fill="#000000" font-family="sans-serif" font-size="14" lengthAdjust="spacing" textLength="69" x="176.5" y="55.9951">Automatic</text><text fill="#000000" font-family="sans-serif" font-size="14" lengthAdjust="spacing" textLength="57" x="176.5" y="72.292">Console</text><text fill="#000000" font-family="sans-serif" font-size="14" lengthAdjust="spacing" textLength="30" x="176.5" y="88.5889">Text</text><text fill="#000000" font-family="sans-serif" font-size="14" lengthAdjust="spacing" textLength="19" x="176.5" y="104.8857">Dlt</text><line style="stroke:#181818;stroke-width:0.5;" x1="171.5" x2="297.5" y1="112.1875" y2="112.1875"/></g><!--class IOutputStreamFactory--><g id="elem_IOutputStreamFactory"><rect codeLine="11" fill="#F1F1F1" height="96.8906" id="IOutputStreamFactory" rx="2.5" ry="2.5" style="stroke:#181818;stroke-width:0.5;" width="455" x="7" y="197.49"/><ellipse cx="155.25" cy="213.49" fill="#B4A7E5" rx="11" ry="11" style="stroke:#181818;stroke-width:1.0;"/><path d="M151.1719,209.2556 L151.1719,207.0994 L158.5625,207.0994 L158.5625,209.2556 L156.0938,209.2556 L156.0938,217.3338 L158.5625,217.3338 L158.5625,219.49 L151.1719,219.49 L151.1719,217.3338 L153.6406,217.3338 L153.6406,209.2556 L151.1719,209.2556 Z " fill="#000000"/><text fill="#000000" font-family="sans-serif" font-size="14" font-style="italic" lengthAdjust="spacing" textLength="150" x="175.75" y="218.3367">IOutputStreamFactory</text><line style="stroke:#181818;stroke-width:0.5;" x1="8" x2="461" y1="229.49" y2="229.49"/><text fill="#000000" font-family="sans-serif" font-size="14" lengthAdjust="spacing" textLength="55" x="13" y="246.4851">Split: int</text><text fill="#000000" font-family="sans-serif" font-size="14" lengthAdjust="spacing" textLength="78" x="13" y="262.782">Force: bool</text><line style="stroke:#181818;stroke-width:0.5;" x1="8" x2="461" y1="270.0838" y2="270.0838"/><text fill="#000000" font-family="sans-serif" font-size="14" lengthAdjust="spacing" textLength="443" x="13" y="287.0789">Create(fileType: OutputFormat, string outputFile): IOutputStream</text></g><!--class OutputStreamFactory--><g id="elem_OutputStreamFactory"><rect codeLine="23" fill="#F1F1F1" height="48" id="OutputStreamFactory" rx="2.5" ry="2.5" style="stroke:#181818;stroke-width:0.5;" width="179" x="145" y="387.68"/><ellipse cx="160" cy="403.68" fill="#ADD1B2" rx="11" ry="11" style="stroke:#181818;stroke-width:1.0;"/><path d="M162.9688,409.3206 Q162.3906,409.6175 161.75,409.7581 Q161.1094,409.9144 160.4063,409.9144 Q157.9063,409.9144 156.5781,408.2738 Q155.2656,406.6175 155.2656,403.4925 Q155.2656,400.3675 156.5781,398.7113 Q157.9063,397.055 160.4063,397.055 Q161.1094,397.055 161.75,397.2113 Q162.4063,397.3675 162.9688,397.6644 L162.9688,400.3831 Q162.3438,399.805 161.75,399.5394 Q161.1563,399.2581 160.5313,399.2581 Q159.1875,399.2581 158.5,400.3363 Q157.8125,401.3988 157.8125,403.4925 Q157.8125,405.5863 158.5,406.6644 Q159.1875,407.7269 160.5313,407.7269 Q161.1563,407.7269 161.75,407.4613 Q162.3438,407.18 162.9688,406.6019 L162.9688,409.3206 Z " fill="#000000"/><text fill="#000000" font-family="sans-serif" font-size="14" lengthAdjust="spacing" textLength="147" x="174" y="408.5267">OutputStreamFactory</text><line style="stroke:#181818;stroke-width:0.5;" x1="146" x2="323" y1="419.68" y2="419.68"/><line style="stroke:#181818;stroke-width:0.5;" x1="146" x2="323" y1="427.68" y2="427.68"/></g><!--class DltOutput--><g id="elem_DltOutput"><rect codeLine="42" fill="#F1F1F1" height="48" id="DltOutput" rx="2.5" ry="2.5" style="stroke:#181818;stroke-width:0.5;" width="99" x="769" y="387.68"/><ellipse cx="784" cy="403.68" fill="#ADD1B2" rx="11" ry="11" style="stroke:#181818;stroke-width:1.0;"/><path d="M786.9688,409.3206 Q786.3906,409.6175 785.75,409.7581 Q785.1094,409.9144 784.4063,409.9144 Q781.9063,409.9144 780.5781,408.2738 Q779.2656,406.6175 779.2656,403.4925 Q779.2656,400.3675 780.5781,398.7113 Q781.9063,397.055 784.4063,397.055 Q785.1094,397.055 785.75,397.2113 Q786.4063,397.3675 786.9688,397.6644 L786.9688,400.3831 Q786.3438,399.805 785.75,399.5394 Q785.1563,399.2581 784.5313,399.2581 Q783.1875,399.2581 782.5,400.3363 Q781.8125,401.3988 781.8125,403.4925 Q781.8125,405.5863 782.5,406.6644 Q783.1875,407.7269 784.5313,407.7269 Q785.1563,407.7269 785.75,407.4613 Q786.3438,407.18 786.9688,406.6019 L786.9688,409.3206 Z " fill="#000000"/><text fill="#000000" font-family="sans-serif" font-size="14" lengthAdjust="spacing" textLength="67" x="798" y="408.5267">DltOutput</text><line style="stroke:#181818;stroke-width:0.5;" x1="770" x2="867" y1="419.68" y2="419.68"/><line style="stroke:#181818;stroke-width:0.5;" x1="770" x2="867" y1="427.68" y2="427.68"/></g><!--class TextOutput--><g id="elem_TextOutput"><rect codeLine="39" fill="#F1F1F1" height="48" id="TextOutput" rx="2.5" ry="2.5" style="stroke:#181818;stroke-width:0.5;" width="110" x="451.5" y="387.68"/><ellipse cx="466.5" cy="403.68" fill="#ADD1B2" rx="11" ry="11" style="stroke:#181818;stroke-width:1.0;"/><path d="M469.4688,409.3206 Q468.8906,409.6175 468.25,409.7581 Q467.6094,409.9144 466.9063,409.9144 Q464.4063,409.9144 463.0781,408.2738 Q461.7656,406.6175 461.7656,403.4925 Q461.7656,400.3675 463.0781,398.7113 Q464.4063,397.055 466.9063,397.055 Q467.6094,397.055 468.25,397.2113 Q468.9063,397.3675 469.4688,397.6644 L469.4688,400.3831 Q468.8438,399.805 468.25,399.5394 Q467.6563,399.2581 467.0313,399.2581 Q465.6875,399.2581 465,400.3363 Q464.3125,401.3988 464.3125,403.4925 Q464.3125,405.5863 465,406.6644 Q465.6875,407.7269 467.0313,407.7269 Q467.6563,407.7269 468.25,407.4613 Q468.8438,407.18 469.4688,406.6019 L469.4688,409.3206 Z " fill="#000000"/><text fill="#000000" font-family="sans-serif" font-size="14" lengthAdjust="spacing" textLength="78" x="480.5" y="408.5267">TextOutput</text><line style="stroke:#181818;stroke-width:0.5;" x1="452.5" x2="560.5" y1="419.68" y2="419.68"/><line style="stroke:#181818;stroke-width:0.5;" x1="452.5" x2="560.5" y1="427.68" y2="427.68"/></g><!--class ConsoleOutput--><g id="elem_ConsoleOutput"><rect codeLine="36" fill="#F1F1F1" height="48" id="ConsoleOutput" rx="2.5" ry="2.5" style="stroke:#181818;stroke-width:0.5;" width="137" x="597" y="387.68"/><ellipse cx="612" cy="403.68" fill="#ADD1B2" rx="11" ry="11" style="stroke:#181818;stroke-width:1.0;"/><path d="M614.9688,409.3206 Q614.3906,409.6175 613.75,409.7581 Q613.1094,409.9144 612.4063,409.9144 Q609.9063,409.9144 608.5781,408.2738 Q607.2656,406.6175 607.2656,403.4925 Q607.2656,400.3675 608.5781,398.7113 Q609.9063,397.055 612.4063,397.055 Q613.1094,397.055 613.75,397.2113 Q614.4063,397.3675 614.9688,397.6644 L614.9688,400.3831 Q614.3438,399.805 613.75,399.5394 Q613.1563,399.2581 612.5313,399.2581 Q611.1875,399.2581 610.5,400.3363 Q609.8125,401.3988 609.8125,403.4925 Q609.8125,405.5863 610.5,406.6644 Q611.1875,407.7269 612.5313,407.7269 Q613.1563,407.7269 613.75,407.4613 Q614.3438,407.18 614.9688,406.6019 L614.9688,409.3206 Z " fill="#000000"/><text fill="#000000" font-family="sans-serif" font-size="14" lengthAdjust="spacing" textLength="105" x="626" y="408.5267">ConsoleOutput</text><line style="stroke:#181818;stroke-width:0.5;" x1="598" x2="733" y1="419.68" y2="419.68"/><line style="stroke:#181818;stroke-width:0.5;" x1="598" x2="733" y1="427.68" y2="427.68"/></g><!--class IOutputStream--><g id="elem_IOutputStream"><rect codeLine="26" fill="#F1F1F1" height="129.4844" id="IOutputStream" rx="2.5" ry="2.5" style="stroke:#181818;stroke-width:0.5;" width="430" x="503.5" y="181.19"/><ellipse cx="664.25" cy="197.19" fill="#B4A7E5" rx="11" ry="11" style="stroke:#181818;stroke-width:1.0;"/><path d="M660.1719,192.9556 L660.1719,190.7994 L667.5625,190.7994 L667.5625,192.9556 L665.0938,192.9556 L665.0938,201.0337 L667.5625,201.0337 L667.5625,203.19 L660.1719,203.19 L660.1719,201.0337 L662.6406,201.0337 L662.6406,192.9556 L660.1719,192.9556 Z " fill="#000000"/><text fill="#000000" font-family="sans-serif" font-size="14" font-style="italic" lengthAdjust="spacing" textLength="100" x="684.75" y="202.0367">IOutputStream</text><line style="stroke:#181818;stroke-width:0.5;" x1="504.5" x2="932.5" y1="213.19" y2="213.19"/><text fill="#000000" font-family="sans-serif" font-size="14" lengthAdjust="spacing" textLength="144" x="509.5" y="230.1851">SupportsBinary: bool</text><line style="stroke:#181818;stroke-width:0.5;" x1="504.5" x2="932.5" y1="237.4869" y2="237.4869"/><text fill="#000000" font-family="sans-serif" font-size="14" lengthAdjust="spacing" textLength="358" x="509.5" y="254.482">SetInput(fileName: string, inputFormat: InputFormat)</text><text fill="#000000" font-family="sans-serif" font-size="14" lengthAdjust="spacing" textLength="199" x="509.5" y="270.7789">Write(line: DltTraceLineBase)</text><text fill="#000000" font-family="sans-serif" font-size="14" lengthAdjust="spacing" textLength="418" x="509.5" y="287.0757">Write(line: DltTraceLineBase, packet: ReadOnlySpan&lt;byte&gt;)</text><text fill="#000000" font-family="sans-serif" font-size="14" lengthAdjust="spacing" textLength="47" x="509.5" y="303.3726">Flush()</text></g><!--class OutputBase--><g id="elem_OutputBase"><rect codeLine="45" fill="#F1F1F1" height="178.375" id="OutputBase" rx="2.5" ry="2.5" style="stroke:#181818;stroke-width:0.5;" width="640" x="331.5" y="496.68"/><ellipse cx="605.75" cy="512.68" fill="#ADD1B2" rx="11" ry="11" style="stroke:#181818;stroke-width:1.0;"/><path d="M608.7188,518.3206 Q608.1406,518.6175 607.5,518.7581 Q606.8594,518.9144 606.1563,518.9144 Q603.6563,518.9144 602.3281,517.2738 Q601.0156,515.6175 601.0156,512.4925 Q601.0156,509.3675 602.3281,507.7113 Q603.6563,506.055 606.1563,506.055 Q606.8594,506.055 607.5,506.2113 Q608.1563,506.3675 608.7188,506.6644 L608.7188,509.3831 Q608.0938,508.805 607.5,508.5394 Q606.9063,508.2581 606.2813,508.2581 Q604.9375,508.2581 604.25,509.3363 Q603.5625,510.3988 603.5625,512.4925 Q603.5625,514.5863 604.25,515.6644 Q604.9375,516.7269 606.2813,516.7269 Q606.9063,516.7269 607.5,516.4613 Q608.0938,516.18 608.7188,515.6019 L608.7188,518.3206 Z " fill="#000000"/><text fill="#000000" font-family="sans-serif" font-size="14" lengthAdjust="spacing" textLength="83" x="626.25" y="517.5267">OutputBase</text><line style="stroke:#181818;stroke-width:0.5;" x1="332.5" x2="970.5" y1="528.68" y2="528.68"/><text fill="#000000" font-family="sans-serif" font-size="14" lengthAdjust="spacing" textLength="78" x="337.5" y="545.6751">Force: bool</text><text fill="#000000" font-family="sans-serif" font-size="14" lengthAdjust="spacing" textLength="55" x="337.5" y="561.972">Split: int</text><line style="stroke:#181818;stroke-width:0.5;" x1="332.5" x2="970.5" y1="569.2738" y2="569.2738"/><text fill="#000000" font-family="sans-serif" font-size="14" lengthAdjust="spacing" textLength="175" x="337.5" y="586.2689">SetInput(fileName: string)</text><text fill="#000000" font-family="sans-serif" font-size="14" lengthAdjust="spacing" textLength="275" x="337.5" y="602.5657">Write(timeStamp: DateTime, line: string)</text><text fill="#000000" font-family="sans-serif" font-size="14" lengthAdjust="spacing" textLength="407" x="337.5" y="618.8626">Write(timeStamp: DateTime, buffer: ReadOnlySpan&lt;byte&gt;)</text><text fill="#000000" font-family="sans-serif" font-size="14" lengthAdjust="spacing" textLength="628" x="337.5" y="635.1595">Write(timeStamp: DateTime, header: ReadOnlySpan&lt;byte&gt;, buffer: ReadOnlySpan&lt;byte&gt;)</text><text fill="#000000" font-family="sans-serif" font-size="14" lengthAdjust="spacing" textLength="47" x="337.5" y="651.4564">Flush()</text><text fill="#000000" font-family="sans-serif" font-size="14" lengthAdjust="spacing" textLength="67" x="337.5" y="667.7532">Dispose()</text></g><!--class OutputWriter--><g id="elem_OutputWriter"><rect codeLine="56" fill="#F1F1F1" height="162.0781" id="OutputWriter" rx="2.5" ry="2.5" style="stroke:#181818;stroke-width:0.5;" width="286" x="722.5" y="736.05"/><ellipse cx="817.25" cy="752.05" fill="#ADD1B2" rx="11" ry="11" style="stroke:#181818;stroke-width:1.0;"/><path d="M820.2188,757.6906 Q819.6406,757.9875 819,758.1281 Q818.3594,758.2844 817.6563,758.2844 Q815.1563,758.2844 813.8281,756.6438 Q812.5156,754.9875 812.5156,751.8625 Q812.5156,748.7375 813.8281,747.0813 Q815.1563,745.425 817.6563,745.425 Q818.3594,745.425 819,745.5813 Q819.6563,745.7375 820.2188,746.0344 L820.2188,748.7531 Q819.5938,748.175 819,747.9094 Q818.4063,747.6281 817.7813,747.6281 Q816.4375,747.6281 815.75,748.7063 Q815.0625,749.7688 815.0625,751.8625 Q815.0625,753.9563 815.75,755.0344 Q816.4375,756.0969 817.7813,756.0969 Q818.4063,756.0969 819,755.8313 Q819.5938,755.55 820.2188,754.9719 L820.2188,757.6906 Z " fill="#000000"/><text fill="#000000" font-family="sans-serif" font-size="14" lengthAdjust="spacing" textLength="88" x="837.75" y="756.8967">OutputWriter</text><line style="stroke:#181818;stroke-width:0.5;" x1="723.5" x2="1007.5" y1="768.05" y2="768.05"/><text fill="#000000" font-family="sans-serif" font-size="14" lengthAdjust="spacing" textLength="87" x="728.5" y="785.0451">Length: long</text><text fill="#000000" font-family="sans-serif" font-size="14" lengthAdjust="spacing" textLength="88" x="728.5" y="801.342">IsOpen: bool</text><line style="stroke:#181818;stroke-width:0.5;" x1="723.5" x2="1007.5" y1="808.6438" y2="808.6438"/><text fill="#000000" font-family="sans-serif" font-size="14" lengthAdjust="spacing" textLength="274" x="728.5" y="825.6389">Open(fileName: string, mode: FileMode)</text><text fill="#000000" font-family="sans-serif" font-size="14" lengthAdjust="spacing" textLength="249" x="728.5" y="841.9357">Write(buffer: ReadOnlySpan&lt;byte&gt;)</text><text fill="#000000" font-family="sans-serif" font-size="14" lengthAdjust="spacing" textLength="47" x="728.5" y="858.2326">Flush()</text><text fill="#000000" font-family="sans-serif" font-size="14" lengthAdjust="spacing" textLength="49" x="728.5" y="874.5295">Close()</text><text fill="#000000" font-family="sans-serif" font-size="14" lengthAdjust="spacing" textLength="67" x="728.5" y="890.8264">Dispose()</text></g><!--class FileStream--><g id="elem_FileStream"><rect fill="#F1F1F1" height="48" id="FileStream" rx="2.5" ry="2.5" style="stroke:#181818;stroke-width:0.5;" width="104" x="1043.5" y="793.09"/><ellipse cx="1058.5" cy="809.09" fill="#ADD1B2" rx="11" ry="11" style="stroke:#181818;stroke-width:1.0;"/><path d="M1061.4688,814.7306 Q1060.8906,815.0275 1060.25,815.1681 Q1059.6094,815.3244 1058.9063,815.3244 Q1056.4063,815.3244 1055.0781,813.6838 Q1053.7656,812.0275 1053.7656,808.9025 Q1053.7656,805.7775 1055.0781,804.1213 Q1056.4063,802.465 1058.9063,802.465 Q1059.6094,802.465 1060.25,802.6213 Q1060.9063,802.7775 1061.4688,803.0744 L1061.4688,805.7931 Q1060.8438,805.215 1060.25,804.9494 Q1059.6563,804.6681 1059.0313,804.6681 Q1057.6875,804.6681 1057,805.7463 Q1056.3125,806.8088 1056.3125,808.9025 Q1056.3125,810.9963 1057,812.0744 Q1057.6875,813.1369 1059.0313,813.1369 Q1059.6563,813.1369 1060.25,812.8713 Q1060.8438,812.59 1061.4688,812.0119 L1061.4688,814.7306 Z " fill="#000000"/><text fill="#000000" font-family="sans-serif" font-size="14" lengthAdjust="spacing" textLength="72" x="1072.5" y="813.9367">FileStream</text><line style="stroke:#181818;stroke-width:0.5;" x1="1044.5" x2="1146.5" y1="825.09" y2="825.09"/><line style="stroke:#181818;stroke-width:0.5;" x1="1044.5" x2="1146.5" y1="833.09" y2="833.09"/></g><!--link OutputStreamFactory to DltOutput--><g id="link_OutputStreamFactory_DltOutput"><path codeLine="17" d="M324.45,392.23 C437.94,369.02 626.56,335.21 695,351.09 C723.12,357.62 752.21,371.49 775.09,384.31 " fill="none" id="OutputStreamFactory-to-DltOutput" style="stroke:#181818;stroke-width:1.0;"/><polygon fill="#181818" points="779.18,387.2,773.3251,379.2804,774.8309,384.7331,769.3781,386.2389,779.18,387.2" style="stroke:#181818;stroke-width:1.0;"/><text fill="#000000" font-family="sans-serif" font-size="13" lengthAdjust="spacing" textLength="91" x="603" y="353.7469">&#171;instantiates&#187;</text></g><!--link OutputStreamFactory to TextOutput--><g id="link_OutputStreamFactory_TextOutput"><path codeLine="18" d="M324.32,411.68 C364.12,411.68 409.92,411.68 445.64,411.68 " fill="none" id="OutputStreamFactory-to-TextOutput" style="stroke:#181818;stroke-width:1.0;"/><polygon fill="#181818" points="450.28,411.68,441.28,407.68,445.28,411.68,441.28,415.68,450.28,411.68" style="stroke:#181818;stroke-width:1.0;"/><text fill="#000000" font-family="sans-serif" font-size="13" lengthAdjust="spacing" textLength="91" x="342.25" y="404.7469">&#171;instantiates&#187;</text></g><!--link OutputStreamFactory to ConsoleOutput--><g id="link_OutputStreamFactory_ConsoleOutput"><path codeLine="19" d="M320.28,387.19 C411,363.1 547.7,332.42 597,351.09 C614.34,357.66 630.12,370.85 642.15,383.24 " fill="none" id="OutputStreamFactory-to-ConsoleOutput" style="stroke:#181818;stroke-width:1.0;"/><polygon fill="#181818" points="645.08,386.41,641.8245,377.1147,641.6532,382.769,635.9989,382.5977,645.08,386.41" style="stroke:#181818;stroke-width:1.0;"/><text fill="#000000" font-family="sans-serif" font-size="13" lengthAdjust="spacing" textLength="91" x="505" y="353.7469">&#171;instantiates&#187;</text></g><!--link OutputFormat to IOutputStreamFactory--><g id="link_OutputFormat_IOutputStreamFactory"><path codeLine="21" d="M234.5,120.67 C234.5,145.17 234.5,173.62 234.5,197.11 " fill="none" id="OutputFormat-IOutputStreamFactory" style="stroke:#181818;stroke-width:1.0;"/></g><!--reverse link IOutputStreamFactory to OutputStreamFactory--><g id="link_IOutputStreamFactory_OutputStreamFactory"><path codeLine="24" d="M234.5,315.55 C234.5,341.1 234.5,368.41 234.5,387.19 " fill="none" id="IOutputStreamFactory-backto-OutputStreamFactory" style="stroke:#181818;stroke-width:1.0;stroke-dasharray:7.0,7.0;"/><polygon fill="none" points="227.5,315.74,234.5,295.74,241.5,315.74,227.5,315.74" style="stroke:#181818;stroke-width:1.0;"/></g><!--link IOutputStream to IDisposable--><g id="link_IOutputStream_IDisposable"><path codeLine="34" d="M933.96,245.93 C938.42,245.93 942.89,245.93 947.36,245.93 " fill="none" id="IOutputStream-to-IDisposable" style="stroke:#181818;stroke-width:1.0;stroke-dasharray:7.0,7.0;"/><polygon fill="none" points="947.26,238.93,967.26,245.93,947.26,252.93,947.26,238.93" style="stroke:#181818;stroke-width:1.0;"/></g><!--reverse link IOutputStream to ConsoleOutput--><g id="link_IOutputStream_ConsoleOutput"><path codeLine="37" d="M704.82,331.27 C702.45,340.31 699.69,349.26 696.5,357.68 C692.64,367.84 686.94,378.32 681.47,387.25 " fill="none" id="IOutputStream-backto-ConsoleOutput" style="stroke:#181818;stroke-width:1.0;stroke-dasharray:7.0,7.0;"/><polygon fill="none" points="698.21,329.81,709.55,311.91,711.84,332.98,698.21,329.81" style="stroke:#181818;stroke-width:1.0;"/></g><!--reverse link IOutputStream to TextOutput--><g id="link_IOutputStream_TextOutput"><path codeLine="40" d="M514.18,325.44 C509.94,330.22 506.03,335.3 502.5,340.68 C493.55,354.31 495.07,372.85 498.54,387.43 " fill="none" id="IOutputStream-backto-TextOutput" style="stroke:#181818;stroke-width:1.0;stroke-dasharray:7.0,7.0;"/><polygon fill="none" points="508.56,321.16,527.73,312.13,518.38,331.14,508.56,321.16" style="stroke:#181818;stroke-width:1.0;"/></g><!--reverse link IOutputStream to DltOutput--><g id="link_IOutputStream_DltOutput"><path codeLine="43" d="M768.21,328.33 C781.42,349.96 794.65,371.63 804.23,387.31 " fill="none" id="IOutputStream-backto-DltOutput" style="stroke:#181818;stroke-width:1.0;stroke-dasharray:7.0,7.0;"/><polygon fill="none" points="761.9,332.43,757.45,311.71,773.85,325.13,761.9,332.43" style="stroke:#181818;stroke-width:1.0;"/></g><!--reverse link IDisposable to OutputWriter--><g id="link_IDisposable_OutputWriter"><path codeLine="65" d="M1029.71,291.08 C1037.29,371.2 1044.98,544.33 989.5,675.05 C980.33,696.66 966.51,717.27 951.38,735.74 " fill="none" id="IDisposable-backto-OutputWriter" style="stroke:#181818;stroke-width:1.0;stroke-dasharray:7.0,7.0;"/><polygon fill="none" points="1022.67,292.04,1027.55,271.42,1036.59,290.58,1022.67,292.04" style="stroke:#181818;stroke-width:1.0;"/></g><!--reverse link IDisposable to OutputBase--><g id="link_IDisposable_OutputBase"><path codeLine="66" d="M1000.48,288.06 C975.35,328.77 933,391.27 885.5,435.68 C862.27,457.39 835.47,477.83 808.48,496.2 " fill="none" id="IDisposable-backto-OutputBase" style="stroke:#181818;stroke-width:1.0;stroke-dasharray:7.0,7.0;"/><polygon fill="none" points="994.9,284.77,1011.23,271.26,1006.88,292,994.9,284.77" style="stroke:#181818;stroke-width:1.0;"/></g><!--link TextOutput to OutputBase--><g id="link_TextOutput_OutputBase"><path codeLine="68" d="M526.06,435.9 C536.24,448 549.49,463.73 563.56,480.44 " fill="none" id="TextOutput-to-OutputBase" style="stroke:#181818;stroke-width:1.0;"/><polygon fill="none" points="569.4,475.51,576.93,495.31,558.69,484.52,569.4,475.51" style="stroke:#181818;stroke-width:1.0;"/></g><!--link DltOutput to OutputBase--><g id="link_DltOutput_OutputBase"><path codeLine="69" d="M795.98,435.9 C784,448.24 768.35,464.38 751.78,481.47 " fill="none" id="DltOutput-to-OutputBase" style="stroke:#181818;stroke-width:1.0;"/><polygon fill="none" points="757.33,485.83,738.38,495.31,747.28,476.08,757.33,485.83" style="stroke:#181818;stroke-width:1.0;"/></g><!--reverse link OutputBase to OutputWriter--><g id="link_OutputBase_OutputWriter"><path codeLine="71" d="M743.4,685.3 C759.06,702.08 775.16,719.33 790.33,735.57 " fill="none" id="OutputBase-backto-OutputWriter" style="stroke:#181818;stroke-width:1.0;"/><polygon fill="#181818" points="735.24,676.49,736.4063,683.6062,743.4236,685.2666,742.2573,678.1504,735.24,676.49" style="stroke:#181818;stroke-width:1.0;"/></g><!--reverse link OutputWriter to FileStream--><g id="link_OutputWriter_FileStream"><path codeLine="72" d="M1022.7,817.09 C1029.47,817.09 1036.24,817.09 1043.01,817.09 " fill="none" id="OutputWriter-backto-FileStream" style="stroke:#181818;stroke-width:1.0;"/><polygon fill="#181818" points="1009.8,817.09,1015.8,821.09,1021.8,817.09,1015.8,813.09,1009.8,817.09" style="stroke:#181818;stroke-width:1.0;"/></g><!--reverse link IDisposable to FileStream--><g id="link_IDisposable_FileStream"><path codeLine="73" d="M1038.22,290.21 C1042.75,305.96 1047.42,323.99 1050.5,340.68 C1082.17,512.3 1092.18,723.12 1094.74,792.64 " fill="none" id="IDisposable-backto-FileStream" style="stroke:#181818;stroke-width:1.0;stroke-dasharray:7.0,7.0;"/><polygon fill="none" points="1031.25,292.34,1032.18,271.17,1044.65,288.3,1031.25,292.34" style="stroke:#181818;stroke-width:1.0;"/></g><!--SRC=[dLJRRjim37tNL-YnAU9yW14OM5i42D0jm1nWpugZ9C9aIP1eOCQwVnyjkRNaokksF8ac3o_dC1GAkBsmXjFzat16EtQId12kkfOUEZ0TxBHj6T2VXEBlKmSQBT5uwr4hfp5yU1_v3_2F9mda5o5YIXpor60vQtUi0MtxCLrjf82IOgmtiLJ3IthIMeRyY01-Tn6I7tk3dhYZDNLWXRfI7JvYqAfCYmrzv8eNjgY6FeEFbdIx5Se1Ko2mdgkgPTGmvd_0HgQMaIJBKj4LoSo4D98vHpEn-GJRbyrvamrV4kXLcSuORS4z2CLi7sbISzWhZFQgV64jgX9qMAECRusY49Enyi1lLg2MKYX48FT7YwMVqNfWZdySiQQ6DTyv9lxAsVcWP5yRfhQd7dWLq3lPkTlTQj0y7MXZDozLkjw1nKIK6IWGbqQCi6a5ifZ8FGBUDYqRFtaJSOUXHotcVulPlsPHaPXL42slWRK6gSMLEwAvfe7glmm-TPSBjyly_m5wGqWU-d7QLrdzQV4IyY1oJ9QlRKUwdhcwmgsaKgkh_x1t1yDLHE1WPlQtrMUqXaFo6L_nLF_IvACCBSuRJZhTTFETZ5H_xoJHsIdE1NgdS38TidUkEEizUXEwqexkyKxvsSVJEJqp_Vm6]--></g></svg>