<?xml version="1.0" encoding="UTF-8" standalone="no"?><svg xmlns="http://www.w3.org/2000/svg" xmlns:xlink="http://www.w3.org/1999/xlink" contentScriptType="application/ecmascript" contentStyleType="text/css" height="592px" preserveAspectRatio="none" style="width:758px;height:592px;background:#FFFFFF;" version="1.1" viewBox="0 0 758 592" width="758px" zoomAndPan="magnify"><defs><filter height="300%" id="fpu8vltewk1tp" width="300%" x="-1" y="-1"><feGaussianBlur result="blurOut" stdDeviation="2.0"/><feColorMatrix in="blurOut" result="blurOut2" type="matrix" values="0 0 0 0 0 0 0 0 0 0 0 0 0 0 0 0 0 0 .4 0"/><feOffset dx="4.0" dy="4.0" in="blurOut2" result="blurOut3"/><feBlend in="SourceGraphic" in2="blurOut3" mode="normal"/></filter></defs><g><!--MD5=[fff694c79fbdf8758366e54d9ba99b12]
class OutputFormat--><rect codeLine="2" fill="#FEFECE" filter="url(#fpu8vltewk1tp)" height="103.3438" id="OutputFormat" style="stroke:#A80036;stroke-width:1.5;" width="107" x="112" y="7"/><ellipse cx="127" cy="23" fill="#EB937F" rx="11" ry="11" style="stroke:#A80036;stroke-width:1.0;"/><path d="M125.8594,23.7969 L125.8594,26.2969 L130.1875,26.2969 L130.1875,25.375 Q130.1875,24.7656 130.4297,24.5 Q130.6719,24.2344 131.0469,24.2344 Q131.4219,24.2344 131.6563,24.5 Q131.8906,24.7656 131.8906,25.375 L131.8906,28 L123.8906,28 Q123.2656,28 123.0078,27.7656 Q122.75,27.5313 122.75,27.1406 Q122.75,26.7656 123.0156,26.5313 Q123.2813,26.2969 123.8906,26.2969 L124.1563,26.2969 L124.1563,19.6406 L123.8906,19.6406 Q123.2656,19.6406 123.0078,19.4063 Q122.75,19.1719 122.75,18.7813 Q122.75,18.4063 123.0078,18.1719 Q123.2656,17.9375 123.8906,17.9375 L131.5156,17.9375 L131.5156,20.5313 Q131.5156,21.1406 131.2891,21.3984 Q131.0625,21.6563 130.6719,21.6563 Q130.2969,21.6563 130.0625,21.3984 Q129.8281,21.1406 129.8281,20.5313 L129.8281,19.6406 L125.8594,19.6406 L125.8594,22.0938 L127.3438,22.0938 Q127.3438,21.4375 127.4688,21.25 Q127.7344,20.8438 128.2031,20.8438 Q128.5781,20.8438 128.8125,21.1016 Q129.0469,21.3594 129.0469,21.9688 L129.0469,23.9375 Q129.0469,24.4844 128.9219,24.6719 Q128.6563,25.0625 128.2031,25.0625 Q127.7344,25.0625 127.4688,24.6563 Q127.3438,24.4688 127.3438,23.7969 L125.8594,23.7969 Z " fill="#000000"/><text fill="#000000" font-family="sans-serif" font-size="12" lengthAdjust="spacing" textLength="75" x="141" y="27.9102">OutputFormat</text><line style="stroke:#A80036;stroke-width:1.5;" x1="113" x2="218" y1="39" y2="39"/><text fill="#000000" font-family="sans-serif" font-size="11" lengthAdjust="spacing" textLength="48" x="118" y="54.4189">Automatic</text><text fill="#000000" font-family="sans-serif" font-size="11" lengthAdjust="spacing" textLength="39" x="118" y="68.2549">Console</text><text fill="#000000" font-family="sans-serif" font-size="11" lengthAdjust="spacing" textLength="21" x="118" y="82.0908">Text</text><text fill="#000000" font-family="sans-serif" font-size="11" lengthAdjust="spacing" textLength="12" x="118" y="95.9268">Dlt</text><line style="stroke:#A80036;stroke-width:1.5;" x1="113" x2="218" y1="102.3438" y2="102.3438"/><!--MD5=[beca3dd8bd567bab187711d1678d166d]
class IOutputStreamFactory--><rect codeLine="9" fill="#FEFECE" filter="url(#fpu8vltewk1tp)" height="89.5078" id="IOutputStreamFactory" style="stroke:#A80036;stroke-width:1.5;" width="317" x="7" y="177.5"/><ellipse cx="101.25" cy="193.5" fill="#B4A7E5" rx="11" ry="11" style="stroke:#A80036;stroke-width:1.0;"/><path d="M102.2031,190.1406 L102.2031,196.7969 L103.9219,196.7969 Q104.5313,196.7969 104.7969,197.0313 Q105.0625,197.2656 105.0625,197.6563 Q105.0625,198.0313 104.7969,198.2656 Q104.5313,198.5 103.9219,198.5 L98.7813,198.5 Q98.1719,198.5 97.9063,198.2656 Q97.6406,198.0313 97.6406,197.6406 Q97.6406,197.2656 97.9063,197.0313 Q98.1719,196.7969 98.7813,196.7969 L100.5,196.7969 L100.5,190.1406 L98.7813,190.1406 Q98.1719,190.1406 97.9063,189.9063 Q97.6406,189.6719 97.6406,189.2813 Q97.6406,188.9063 97.9063,188.6719 Q98.1719,188.4375 98.7813,188.4375 L103.9219,188.4375 Q104.5313,188.4375 104.7969,188.6719 Q105.0625,188.9063 105.0625,189.2813 Q105.0625,189.6719 104.7969,189.9063 Q104.5313,190.1406 103.9219,190.1406 L102.2031,190.1406 Z " fill="#000000"/><text fill="#000000" font-family="sans-serif" font-size="12" font-style="italic" lengthAdjust="spacing" textLength="120" x="121.75" y="198.4102">IOutputStreamFactory</text><line style="stroke:#A80036;stroke-width:1.5;" x1="8" x2="323" y1="209.5" y2="209.5"/><text fill="#000000" font-family="sans-serif" font-size="11" lengthAdjust="spacing" textLength="37" x="13" y="224.9189">Split: int</text><text fill="#000000" font-family="sans-serif" font-size="11" lengthAdjust="spacing" textLength="54" x="13" y="238.7549">Force: bool</text><line style="stroke:#A80036;stroke-width:1.5;" x1="8" x2="323" y1="245.1719" y2="245.1719"/><text fill="#000000" font-family="sans-serif" font-size="11" lengthAdjust="spacing" textLength="305" x="13" y="260.5908">Create(fileType: OutputFormat, string outputFile): IOutputStream</text><!--MD5=[68222db4f1ce9d952837e6862cb8a846]
class OutputStreamFactory--><rect codeLine="21" fill="#FEFECE" filter="url(#fpu8vltewk1tp)" height="48" id="OutputStreamFactory" style="stroke:#A80036;stroke-width:1.5;" width="147" x="92" y="352"/><ellipse cx="107" cy="368" fill="#ADD1B2" rx="11" ry="11" style="stroke:#A80036;stroke-width:1.0;"/><path d="M109.7656,363.875 Q109.9219,363.6563 110.1094,363.5469 Q110.2969,363.4375 110.5156,363.4375 Q110.8906,363.4375 111.125,363.6953 Q111.3594,363.9531 111.3594,364.5625 L111.3594,366.0156 Q111.3594,366.625 111.125,366.8906 Q110.8906,367.1563 110.5156,367.1563 Q110.1719,367.1563 109.9688,366.9531 Q109.7656,366.7656 109.6563,366.25 Q109.6094,365.8906 109.4219,365.7031 Q109.0938,365.3281 108.4844,365.1094 Q107.875,364.8906 107.25,364.8906 Q106.4844,364.8906 105.8516,365.2188 Q105.2188,365.5469 104.7266,366.2969 Q104.2344,367.0469 104.2344,368.0781 L104.2344,369.1719 Q104.2344,370.4063 105.125,371.2266 Q106.0156,372.0469 107.6094,372.0469 Q108.5469,372.0469 109.2031,371.7969 Q109.5938,371.6406 110.0156,371.2031 Q110.2813,370.9375 110.4297,370.8594 Q110.5781,370.7813 110.7813,370.7813 Q111.1094,370.7813 111.3672,371.0391 Q111.625,371.2969 111.625,371.6406 Q111.625,371.9844 111.2813,372.3906 Q110.7813,372.9688 109.9844,373.2969 Q108.9063,373.75 107.6094,373.75 Q106.0938,373.75 104.8906,373.125 Q103.9063,372.625 103.2188,371.5547 Q102.5313,370.4844 102.5313,369.2031 L102.5313,368.0469 Q102.5313,366.7188 103.1484,365.5703 Q103.7656,364.4219 104.8594,363.8047 Q105.9531,363.1875 107.1875,363.1875 Q107.9219,363.1875 108.5703,363.3516 Q109.2188,363.5156 109.7656,363.875 Z " fill="#000000"/><text fill="#000000" font-family="sans-serif" font-size="12" lengthAdjust="spacing" textLength="115" x="121" y="372.9102">OutputStreamFactory</text><line style="stroke:#A80036;stroke-width:1.5;" x1="93" x2="238" y1="384" y2="384"/><line style="stroke:#A80036;stroke-width:1.5;" x1="93" x2="238" y1="392" y2="392"/><!--MD5=[89ed551d67da514006980794a3951a64]
class DltOutput--><rect codeLine="39" fill="#FEFECE" filter="url(#fpu8vltewk1tp)" height="48" id="DltOutput" style="stroke:#A80036;stroke-width:1.5;" width="83" x="632" y="352"/><ellipse cx="647" cy="368" fill="#ADD1B2" rx="11" ry="11" style="stroke:#A80036;stroke-width:1.0;"/><path d="M649.7656,363.875 Q649.9219,363.6563 650.1094,363.5469 Q650.2969,363.4375 650.5156,363.4375 Q650.8906,363.4375 651.125,363.6953 Q651.3594,363.9531 651.3594,364.5625 L651.3594,366.0156 Q651.3594,366.625 651.125,366.8906 Q650.8906,367.1563 650.5156,367.1563 Q650.1719,367.1563 649.9688,366.9531 Q649.7656,366.7656 649.6563,366.25 Q649.6094,365.8906 649.4219,365.7031 Q649.0938,365.3281 648.4844,365.1094 Q647.875,364.8906 647.25,364.8906 Q646.4844,364.8906 645.8516,365.2188 Q645.2188,365.5469 644.7266,366.2969 Q644.2344,367.0469 644.2344,368.0781 L644.2344,369.1719 Q644.2344,370.4063 645.125,371.2266 Q646.0156,372.0469 647.6094,372.0469 Q648.5469,372.0469 649.2031,371.7969 Q649.5938,371.6406 650.0156,371.2031 Q650.2813,370.9375 650.4297,370.8594 Q650.5781,370.7813 650.7813,370.7813 Q651.1094,370.7813 651.3672,371.0391 Q651.625,371.2969 651.625,371.6406 Q651.625,371.9844 651.2813,372.3906 Q650.7813,372.9688 649.9844,373.2969 Q648.9063,373.75 647.6094,373.75 Q646.0938,373.75 644.8906,373.125 Q643.9063,372.625 643.2188,371.5547 Q642.5313,370.4844 642.5313,369.2031 L642.5313,368.0469 Q642.5313,366.7188 643.1484,365.5703 Q643.7656,364.4219 644.8594,363.8047 Q645.9531,363.1875 647.1875,363.1875 Q647.9219,363.1875 648.5703,363.3516 Q649.2188,363.5156 649.7656,363.875 Z " fill="#000000"/><text fill="#000000" font-family="sans-serif" font-size="12" lengthAdjust="spacing" textLength="51" x="661" y="372.9102">DltOutput</text><line style="stroke:#A80036;stroke-width:1.5;" x1="633" x2="714" y1="384" y2="384"/><line style="stroke:#A80036;stroke-width:1.5;" x1="633" x2="714" y1="392" y2="392"/><!--MD5=[e5bac9b14f9256e0c91b048de8a90e34]
class TextOutput--><rect codeLine="36" fill="#FEFECE" filter="url(#fpu8vltewk1tp)" height="48" id="TextOutput" style="stroke:#A80036;stroke-width:1.5;" width="90" x="356.5" y="352"/><ellipse cx="371.5" cy="368" fill="#ADD1B2" rx="11" ry="11" style="stroke:#A80036;stroke-width:1.0;"/><path d="M374.2656,363.875 Q374.4219,363.6563 374.6094,363.5469 Q374.7969,363.4375 375.0156,363.4375 Q375.3906,363.4375 375.625,363.6953 Q375.8594,363.9531 375.8594,364.5625 L375.8594,366.0156 Q375.8594,366.625 375.625,366.8906 Q375.3906,367.1563 375.0156,367.1563 Q374.6719,367.1563 374.4688,366.9531 Q374.2656,366.7656 374.1563,366.25 Q374.1094,365.8906 373.9219,365.7031 Q373.5938,365.3281 372.9844,365.1094 Q372.375,364.8906 371.75,364.8906 Q370.9844,364.8906 370.3516,365.2188 Q369.7188,365.5469 369.2266,366.2969 Q368.7344,367.0469 368.7344,368.0781 L368.7344,369.1719 Q368.7344,370.4063 369.625,371.2266 Q370.5156,372.0469 372.1094,372.0469 Q373.0469,372.0469 373.7031,371.7969 Q374.0938,371.6406 374.5156,371.2031 Q374.7813,370.9375 374.9297,370.8594 Q375.0781,370.7813 375.2813,370.7813 Q375.6094,370.7813 375.8672,371.0391 Q376.125,371.2969 376.125,371.6406 Q376.125,371.9844 375.7813,372.3906 Q375.2813,372.9688 374.4844,373.2969 Q373.4063,373.75 372.1094,373.75 Q370.5938,373.75 369.3906,373.125 Q368.4063,372.625 367.7188,371.5547 Q367.0313,370.4844 367.0313,369.2031 L367.0313,368.0469 Q367.0313,366.7188 367.6484,365.5703 Q368.2656,364.4219 369.3594,363.8047 Q370.4531,363.1875 371.6875,363.1875 Q372.4219,363.1875 373.0703,363.3516 Q373.7188,363.5156 374.2656,363.875 Z " fill="#000000"/><text fill="#000000" font-family="sans-serif" font-size="12" lengthAdjust="spacing" textLength="58" x="385.5" y="372.9102">TextOutput</text><line style="stroke:#A80036;stroke-width:1.5;" x1="357.5" x2="445.5" y1="384" y2="384"/><line style="stroke:#A80036;stroke-width:1.5;" x1="357.5" x2="445.5" y1="392" y2="392"/><!--MD5=[80616c26e067ad62f755179ae93657dc]
class ConsoleOutput--><rect codeLine="33" fill="#FEFECE" filter="url(#fpu8vltewk1tp)" height="48" id="ConsoleOutput" style="stroke:#A80036;stroke-width:1.5;" width="115" x="482" y="352"/><ellipse cx="497" cy="368" fill="#ADD1B2" rx="11" ry="11" style="stroke:#A80036;stroke-width:1.0;"/><path d="M499.7656,363.875 Q499.9219,363.6563 500.1094,363.5469 Q500.2969,363.4375 500.5156,363.4375 Q500.8906,363.4375 501.125,363.6953 Q501.3594,363.9531 501.3594,364.5625 L501.3594,366.0156 Q501.3594,366.625 501.125,366.8906 Q500.8906,367.1563 500.5156,367.1563 Q500.1719,367.1563 499.9688,366.9531 Q499.7656,366.7656 499.6563,366.25 Q499.6094,365.8906 499.4219,365.7031 Q499.0938,365.3281 498.4844,365.1094 Q497.875,364.8906 497.25,364.8906 Q496.4844,364.8906 495.8516,365.2188 Q495.2188,365.5469 494.7266,366.2969 Q494.2344,367.0469 494.2344,368.0781 L494.2344,369.1719 Q494.2344,370.4063 495.125,371.2266 Q496.0156,372.0469 497.6094,372.0469 Q498.5469,372.0469 499.2031,371.7969 Q499.5938,371.6406 500.0156,371.2031 Q500.2813,370.9375 500.4297,370.8594 Q500.5781,370.7813 500.7813,370.7813 Q501.1094,370.7813 501.3672,371.0391 Q501.625,371.2969 501.625,371.6406 Q501.625,371.9844 501.2813,372.3906 Q500.7813,372.9688 499.9844,373.2969 Q498.9063,373.75 497.6094,373.75 Q496.0938,373.75 494.8906,373.125 Q493.9063,372.625 493.2188,371.5547 Q492.5313,370.4844 492.5313,369.2031 L492.5313,368.0469 Q492.5313,366.7188 493.1484,365.5703 Q493.7656,364.4219 494.8594,363.8047 Q495.9531,363.1875 497.1875,363.1875 Q497.9219,363.1875 498.5703,363.3516 Q499.2188,363.5156 499.7656,363.875 Z " fill="#000000"/><text fill="#000000" font-family="sans-serif" font-size="12" lengthAdjust="spacing" textLength="83" x="511" y="372.9102">ConsoleOutput</text><line style="stroke:#A80036;stroke-width:1.5;" x1="483" x2="596" y1="384" y2="384"/><line style="stroke:#A80036;stroke-width:1.5;" x1="483" x2="596" y1="392" y2="392"/><!--MD5=[52a3332067f4ff29b03ab00f619de69b]
class IOutputStream--><rect codeLine="24" fill="#FEFECE" filter="url(#fpu8vltewk1tp)" height="103.3438" id="IOutputStream" style="stroke:#A80036;stroke-width:1.5;" width="301" x="443" y="171"/><ellipse cx="549.25" cy="187" fill="#B4A7E5" rx="11" ry="11" style="stroke:#A80036;stroke-width:1.0;"/><path d="M550.2031,183.6406 L550.2031,190.2969 L551.9219,190.2969 Q552.5313,190.2969 552.7969,190.5313 Q553.0625,190.7656 553.0625,191.1563 Q553.0625,191.5313 552.7969,191.7656 Q552.5313,192 551.9219,192 L546.7813,192 Q546.1719,192 545.9063,191.7656 Q545.6406,191.5313 545.6406,191.1406 Q545.6406,190.7656 545.9063,190.5313 Q546.1719,190.2969 546.7813,190.2969 L548.5,190.2969 L548.5,183.6406 L546.7813,183.6406 Q546.1719,183.6406 545.9063,183.4063 Q545.6406,183.1719 545.6406,182.7813 Q545.6406,182.4063 545.9063,182.1719 Q546.1719,181.9375 546.7813,181.9375 L551.9219,181.9375 Q552.5313,181.9375 552.7969,182.1719 Q553.0625,182.4063 553.0625,182.7813 Q553.0625,183.1719 552.7969,183.4063 Q552.5313,183.6406 551.9219,183.6406 L550.2031,183.6406 Z " fill="#000000"/><text fill="#000000" font-family="sans-serif" font-size="12" font-style="italic" lengthAdjust="spacing" textLength="80" x="569.75" y="191.9102">IOutputStream</text><line style="stroke:#A80036;stroke-width:1.5;" x1="444" x2="743" y1="203" y2="203"/><text fill="#000000" font-family="sans-serif" font-size="11" lengthAdjust="spacing" textLength="101" x="449" y="218.4189">SupportsBinary: bool</text><line style="stroke:#A80036;stroke-width:1.5;" x1="444" x2="743" y1="224.8359" y2="224.8359"/><text fill="#000000" font-family="sans-serif" font-size="11" lengthAdjust="spacing" textLength="140" x="449" y="240.2549">Write(line: DltTraceLineBase)</text><text fill="#000000" font-family="sans-serif" font-size="11" lengthAdjust="spacing" textLength="289" x="449" y="254.0908">Write(line: DltTraceLineBase, packet: ReadOnlySpan&lt;byte&gt;)</text><text fill="#000000" font-family="sans-serif" font-size="11" lengthAdjust="spacing" textLength="245" x="449" y="267.9268">SetInput(fileName: string, inputFormat: InputFormat)</text><!--MD5=[85daf1fa2c4e3781eec58b1d9c360d63]
class IDispose--><rect fill="#FEFECE" filter="url(#fpu8vltewk1tp)" height="48" id="IDispose" style="stroke:#A80036;stroke-width:1.5;" width="82" x="552.5" y="34.5"/><ellipse cx="567.5" cy="50.5" fill="#ADD1B2" rx="11" ry="11" style="stroke:#A80036;stroke-width:1.0;"/><path d="M570.2656,46.375 Q570.4219,46.1563 570.6094,46.0469 Q570.7969,45.9375 571.0156,45.9375 Q571.3906,45.9375 571.625,46.1953 Q571.8594,46.4531 571.8594,47.0625 L571.8594,48.5156 Q571.8594,49.125 571.625,49.3906 Q571.3906,49.6563 571.0156,49.6563 Q570.6719,49.6563 570.4688,49.4531 Q570.2656,49.2656 570.1563,48.75 Q570.1094,48.3906 569.9219,48.2031 Q569.5938,47.8281 568.9844,47.6094 Q568.375,47.3906 567.75,47.3906 Q566.9844,47.3906 566.3516,47.7188 Q565.7188,48.0469 565.2266,48.7969 Q564.7344,49.5469 564.7344,50.5781 L564.7344,51.6719 Q564.7344,52.9063 565.625,53.7266 Q566.5156,54.5469 568.1094,54.5469 Q569.0469,54.5469 569.7031,54.2969 Q570.0938,54.1406 570.5156,53.7031 Q570.7813,53.4375 570.9297,53.3594 Q571.0781,53.2813 571.2813,53.2813 Q571.6094,53.2813 571.8672,53.5391 Q572.125,53.7969 572.125,54.1406 Q572.125,54.4844 571.7813,54.8906 Q571.2813,55.4688 570.4844,55.7969 Q569.4063,56.25 568.1094,56.25 Q566.5938,56.25 565.3906,55.625 Q564.4063,55.125 563.7188,54.0547 Q563.0313,52.9844 563.0313,51.7031 L563.0313,50.5469 Q563.0313,49.2188 563.6484,48.0703 Q564.2656,46.9219 565.3594,46.3047 Q566.4531,45.6875 567.6875,45.6875 Q568.4219,45.6875 569.0703,45.8516 Q569.7188,46.0156 570.2656,46.375 Z " fill="#000000"/><text fill="#000000" font-family="sans-serif" font-size="12" lengthAdjust="spacing" textLength="50" x="581.5" y="55.4102">IDispose</text><line style="stroke:#A80036;stroke-width:1.5;" x1="553.5" x2="633.5" y1="66.5" y2="66.5"/><line style="stroke:#A80036;stroke-width:1.5;" x1="553.5" x2="633.5" y1="74.5" y2="74.5"/><!--MD5=[bb6cb1e0259adcba932d723ffd143015]
class OutputStream--><rect codeLine="42" fill="#FEFECE" filter="url(#fpu8vltewk1tp)" height="117.1797" id="OutputStream" style="stroke:#A80036;stroke-width:1.5;" width="225" x="453" y="461"/><ellipse cx="523.25" cy="477" fill="#ADD1B2" rx="11" ry="11" style="stroke:#A80036;stroke-width:1.0;"/><path d="M526.0156,472.875 Q526.1719,472.6563 526.3594,472.5469 Q526.5469,472.4375 526.7656,472.4375 Q527.1406,472.4375 527.375,472.6953 Q527.6094,472.9531 527.6094,473.5625 L527.6094,475.0156 Q527.6094,475.625 527.375,475.8906 Q527.1406,476.1563 526.7656,476.1563 Q526.4219,476.1563 526.2188,475.9531 Q526.0156,475.7656 525.9063,475.25 Q525.8594,474.8906 525.6719,474.7031 Q525.3438,474.3281 524.7344,474.1094 Q524.125,473.8906 523.5,473.8906 Q522.7344,473.8906 522.1016,474.2188 Q521.4688,474.5469 520.9766,475.2969 Q520.4844,476.0469 520.4844,477.0781 L520.4844,478.1719 Q520.4844,479.4063 521.375,480.2266 Q522.2656,481.0469 523.8594,481.0469 Q524.7969,481.0469 525.4531,480.7969 Q525.8438,480.6406 526.2656,480.2031 Q526.5313,479.9375 526.6797,479.8594 Q526.8281,479.7813 527.0313,479.7813 Q527.3594,479.7813 527.6172,480.0391 Q527.875,480.2969 527.875,480.6406 Q527.875,480.9844 527.5313,481.3906 Q527.0313,481.9688 526.2344,482.2969 Q525.1563,482.75 523.8594,482.75 Q522.3438,482.75 521.1406,482.125 Q520.1563,481.625 519.4688,480.5547 Q518.7813,479.4844 518.7813,478.2031 L518.7813,477.0469 Q518.7813,475.7188 519.3984,474.5703 Q520.0156,473.4219 521.1094,472.8047 Q522.2031,472.1875 523.4375,472.1875 Q524.1719,472.1875 524.8203,472.3516 Q525.4688,472.5156 526.0156,472.875 Z " fill="#000000"/><text fill="#000000" font-family="sans-serif" font-size="12" lengthAdjust="spacing" textLength="76" x="543.75" y="481.9102">OutputStream</text><line style="stroke:#A80036;stroke-width:1.5;" x1="454" x2="677" y1="493" y2="493"/><text fill="#000000" font-family="sans-serif" font-size="11" lengthAdjust="spacing" textLength="37" x="459" y="508.4189">Split: int</text><text fill="#000000" font-family="sans-serif" font-size="11" lengthAdjust="spacing" textLength="54" x="459" y="522.2549">Force: bool</text><line style="stroke:#A80036;stroke-width:1.5;" x1="454" x2="677" y1="528.6719" y2="528.6719"/><text fill="#000000" font-family="sans-serif" font-size="11" lengthAdjust="spacing" textLength="213" x="459" y="544.0908">Open(fileName: string, timeStamp: DateTime)</text><text fill="#000000" font-family="sans-serif" font-size="11" lengthAdjust="spacing" textLength="54" x="459" y="557.9268">Split(): bool</text><text fill="#000000" font-family="sans-serif" font-size="11" lengthAdjust="spacing" textLength="35" x="459" y="571.7627">Close()</text><!--MD5=[d71ee11ede0e83c966e8ef97d9465fe6]
class Stream--><rect fill="#FEFECE" filter="url(#fpu8vltewk1tp)" height="48" id="Stream" style="stroke:#A80036;stroke-width:1.5;" width="72" x="345.5" y="495.5"/><ellipse cx="360.5" cy="511.5" fill="#ADD1B2" rx="11" ry="11" style="stroke:#A80036;stroke-width:1.0;"/><path d="M363.2656,507.375 Q363.4219,507.1563 363.6094,507.0469 Q363.7969,506.9375 364.0156,506.9375 Q364.3906,506.9375 364.625,507.1953 Q364.8594,507.4531 364.8594,508.0625 L364.8594,509.5156 Q364.8594,510.125 364.625,510.3906 Q364.3906,510.6563 364.0156,510.6563 Q363.6719,510.6563 363.4688,510.4531 Q363.2656,510.2656 363.1563,509.75 Q363.1094,509.3906 362.9219,509.2031 Q362.5938,508.8281 361.9844,508.6094 Q361.375,508.3906 360.75,508.3906 Q359.9844,508.3906 359.3516,508.7188 Q358.7188,509.0469 358.2266,509.7969 Q357.7344,510.5469 357.7344,511.5781 L357.7344,512.6719 Q357.7344,513.9063 358.625,514.7266 Q359.5156,515.5469 361.1094,515.5469 Q362.0469,515.5469 362.7031,515.2969 Q363.0938,515.1406 363.5156,514.7031 Q363.7813,514.4375 363.9297,514.3594 Q364.0781,514.2813 364.2813,514.2813 Q364.6094,514.2813 364.8672,514.5391 Q365.125,514.7969 365.125,515.1406 Q365.125,515.4844 364.7813,515.8906 Q364.2813,516.4688 363.4844,516.7969 Q362.4063,517.25 361.1094,517.25 Q359.5938,517.25 358.3906,516.625 Q357.4063,516.125 356.7188,515.0547 Q356.0313,513.9844 356.0313,512.7031 L356.0313,511.5469 Q356.0313,510.2188 356.6484,509.0703 Q357.2656,507.9219 358.3594,507.3047 Q359.4531,506.6875 360.6875,506.6875 Q361.4219,506.6875 362.0703,506.8516 Q362.7188,507.0156 363.2656,507.375 Z " fill="#000000"/><text fill="#000000" font-family="sans-serif" font-size="12" lengthAdjust="spacing" textLength="40" x="374.5" y="516.4102">Stream</text><line style="stroke:#A80036;stroke-width:1.5;" x1="346.5" x2="416.5" y1="527.5" y2="527.5"/><line style="stroke:#A80036;stroke-width:1.5;" x1="346.5" x2="416.5" y1="535.5" y2="535.5"/><!--MD5=[d5b14181e3fdc926fa4496aec8b8cf00]
link OutputStreamFactory to DltOutput--><path codeLine="15" d="M239.14,357.34 C338.27,333.5 509.23,297.19 570,314 C594.96,320.9 619.96,335.6 639.13,348.96 " fill="none" id="OutputStreamFactory-to-DltOutput" style="stroke:#A80036;stroke-width:1.0;"/><polygon fill="#A80036" points="643.38,351.96,638.3363,343.5006,639.296,349.0755,633.7211,350.0351,643.38,351.96" style="stroke:#A80036;stroke-width:1.0;"/><text fill="#000000" font-family="sans-serif" font-size="13" lengthAdjust="spacing" textLength="81" x="488" y="318.4951">«instantiates»</text><!--MD5=[3adcb00c89725c00ff4d516d9d388ba4]
link OutputStreamFactory to TextOutput--><path codeLine="16" d="M239.2,376 C275.66,376 318.72,376 351.32,376 " fill="none" id="OutputStreamFactory-to-TextOutput" style="stroke:#A80036;stroke-width:1.0;"/><polygon fill="#A80036" points="356.46,376,347.46,372,351.46,376,347.46,380,356.46,376" style="stroke:#A80036;stroke-width:1.0;"/><text fill="#000000" font-family="sans-serif" font-size="13" lengthAdjust="spacing" textLength="81" x="257.25" y="369.4951">«instantiates»</text><!--MD5=[8561f87a216647bbc678bef1701b3bdf]
link OutputStreamFactory to ConsoleOutput--><path codeLine="17" d="M238.13,351.95 C317.52,327.38 439.15,295.3 482,314 C497.96,320.96 511.47,334.78 521.38,347.61 " fill="none" id="OutputStreamFactory-to-ConsoleOutput" style="stroke:#A80036;stroke-width:1.0;"/><polygon fill="#A80036" points="524.6,351.91,522.4,342.31,521.6,347.91,516,347.11,524.6,351.91" style="stroke:#A80036;stroke-width:1.0;"/><text fill="#000000" font-family="sans-serif" font-size="13" lengthAdjust="spacing" textLength="81" x="400" y="318.4951">«instantiates»</text><!--MD5=[989c3690bb8f0f844ffa0a07ef9cad78]
link OutputFormat to IOutputStreamFactory--><path codeLine="19" d="M165.5,110.31 C165.5,131.84 165.5,156.69 165.5,177.43 " fill="none" id="OutputFormat-IOutputStreamFactory" style="stroke:#A80036;stroke-width:1.0;"/><!--MD5=[f6d92e2632fe37ccffb8aeb78c125836]
reverse link IOutputStreamFactory to OutputStreamFactory--><path codeLine="22" d="M165.5,287.88 C165.5,310.5 165.5,334.51 165.5,351.58 " fill="none" id="IOutputStreamFactory-backto-OutputStreamFactory" style="stroke:#A80036;stroke-width:1.0;stroke-dasharray:7.0,7.0;"/><polygon fill="none" points="158.5,287.73,165.5,267.73,172.5,287.73,158.5,287.73" style="stroke:#A80036;stroke-width:1.0;"/><!--MD5=[cec90c8b0a7f87950869f07c7ebcc581]
reverse link IDispose to IOutputStream--><path codeLine="31" d="M593.5,103.01 C593.5,123.94 593.5,149.16 593.5,170.94 " fill="none" id="IDispose-backto-IOutputStream" style="stroke:#A80036;stroke-width:1.0;stroke-dasharray:7.0,7.0;"/><polygon fill="none" points="586.5,102.71,593.5,82.71,600.5,102.71,586.5,102.71" style="stroke:#A80036;stroke-width:1.0;"/><!--MD5=[5c7fef017e3427f4cb79067736c4141b]
reverse link IOutputStream to ConsoleOutput--><path codeLine="34" d="M580.78,293.66 C578.17,303.33 575.1,313.02 571.5,322 C567.38,332.28 561.39,342.86 555.71,351.85 " fill="none" id="IOutputStream-backto-ConsoleOutput" style="stroke:#A80036;stroke-width:1.0;stroke-dasharray:7.0,7.0;"/><polygon fill="none" points="574.01,291.87,585.48,274.05,587.62,295.13,574.01,291.87" style="stroke:#A80036;stroke-width:1.0;"/><!--MD5=[93a6142abcef53e46ba696273825009f]
reverse link IOutputStream to TextOutput--><path codeLine="37" d="M425.78,274.2 C414.88,282.65 405.21,292.5 397.5,304 C388.22,317.84 389.84,336.83 393.44,351.69 " fill="none" id="IOutputStream-backto-TextOutput" style="stroke:#A80036;stroke-width:1.0;stroke-dasharray:7.0,7.0;"/><polygon fill="none" points="422.06,268.26,442.54,262.8,429.94,279.84,422.06,268.26" style="stroke:#A80036;stroke-width:1.0;"/><!--MD5=[79d83a403629f27ad6ff094a7fe160e3]
reverse link IOutputStream to DltOutput--><path codeLine="40" d="M629.84,292.33 C641.09,313.62 652.72,335.65 661.15,351.61 " fill="none" id="IOutputStream-backto-DltOutput" style="stroke:#A80036;stroke-width:1.0;stroke-dasharray:7.0,7.0;"/><polygon fill="none" points="623.51,295.32,620.36,274.37,635.89,288.79,623.51,295.32" style="stroke:#A80036;stroke-width:1.0;"/><!--MD5=[bf2a32677bd5e22f6b056efe5c964754]
reverse link TextOutput to OutputStream--><path codeLine="50" d="M438.21,408.67 C456.07,424.08 478.11,443.1 498.8,460.95 " fill="none" id="TextOutput-backto-OutputStream" style="stroke:#A80036;stroke-width:1.0;"/><polygon fill="#A80036" points="428.21,400.05,430.1367,406.9989,437.2922,407.8931,435.3655,400.9442,428.21,400.05" style="stroke:#A80036;stroke-width:1.0;"/><!--MD5=[16f548e4adc59fc63eebb5272052d325]
reverse link DltOutput to OutputStream--><path codeLine="52" d="M648,410.41 C636.48,425.5 622.54,443.77 609.42,460.95 " fill="none" id="DltOutput-backto-OutputStream" style="stroke:#A80036;stroke-width:1.0;"/><polygon fill="#A80036" points="655.91,400.05,649.0912,402.3961,648.6343,409.5928,655.4531,407.2466,655.91,400.05" style="stroke:#A80036;stroke-width:1.0;"/><!--MD5=[d0b9f6962867481a0184dee2315a8788]
link Stream to OutputStream--><path codeLine="54" d="M417.8,519.5 C425.13,519.5 432.46,519.5 439.79,519.5 " fill="none" id="Stream-to-OutputStream" style="stroke:#A80036;stroke-width:1.0;"/><polygon fill="#A80036" points="452.99,519.5,446.99,515.5,440.99,519.5,446.99,523.5,452.99,519.5" style="stroke:#A80036;stroke-width:1.0;"/><!--MD5=[78f03e5c85fd0c05b107ae8e8404d612]
@startuml Domain.OutputStreamFactory

enum OutputFormat {
    Automatic
    Console
    Text
    Dlt
}

interface IOutputStreamFactory {
    Split: int
    Force: bool
    Create(fileType: OutputFormat, string outputFile): IOutputStream
}

OutputStreamFactory -r-> DltOutput : <<instantiates>>
OutputStreamFactory -r-> TextOutput : <<instantiates>>
OutputStreamFactory -r-> ConsoleOutput : <<instantiates>>

IOutputStreamFactory -u- OutputFormat

class OutputStreamFactory
IOutputStreamFactory <|.d. OutputStreamFactory

interface IOutputStream {
    SupportsBinary: bool
    Write(line: DltTraceLineBase)
    Write(line: DltTraceLineBase, packet: ReadOnlySpan<byte>)
    SetInput(fileName: string, inputFormat: InputFormat)
}

IOutputStream .u.|> IDispose

class ConsoleOutput
IOutputStream <|.d. ConsoleOutput

class TextOutput
IOutputStream <|.d. TextOutput

class DltOutput
IOutputStream <|.d. DltOutput

class OutputStream {
    Split: int
    Force: bool
    Open(fileName: string, timeStamp: DateTime)
    Split(): bool
    Close()
}

TextOutput *-d- OutputStream

DltOutput *-d- OutputStream

Stream -r-* OutputStream

@enduml

PlantUML version 1.2022.0(Tue Jan 11 17:16:42 CET 2022)
(GPL source distribution)
Java Runtime: Java(TM) SE Runtime Environment
JVM: Java HotSpot(TM) Client VM
Default Encoding: Cp1252
Language: en
Country: US
--></g></svg>