<?xml version="1.0" encoding="UTF-8" standalone="no"?><svg xmlns="http://www.w3.org/2000/svg" xmlns:xlink="http://www.w3.org/1999/xlink" contentScriptType="application/ecmascript" contentStyleType="text/css" height="312px" preserveAspectRatio="none" style="width:551px;height:312px;background:#FFFFFF;" version="1.1" viewBox="0 0 551 312" width="551px" zoomAndPan="magnify"><defs><filter height="300%" id="f2udsmaww4ey2" width="300%" x="-1" y="-1"><feGaussianBlur result="blurOut" stdDeviation="2.0"/><feColorMatrix in="blurOut" result="blurOut2" type="matrix" values="0 0 0 0 0 0 0 0 0 0 0 0 0 0 0 0 0 0 .4 0"/><feOffset dx="4.0" dy="4.0" in="blurOut2" result="blurOut3"/><feBlend in="SourceGraphic" in2="blurOut3" mode="normal"/></filter></defs><g><!--MD5=[cd674f6388ab6dc34cf60f39f6cae9f8]
cluster Console Output--><rect fill="#FFFFFF" filter="url(#f2udsmaww4ey2)" height="87" style="stroke:#000000;stroke-width:1.5;" width="224" x="315" y="7"/><text fill="#000000" font-family="sans-serif" font-size="14" font-weight="bold" lengthAdjust="spacing" textLength="110" x="372" y="23.5332">Console Output</text><!--MD5=[d23ac03d66b5e3faa05cd28d2a0e07c3]
cluster File Output--><rect fill="#FFFFFF" filter="url(#f2udsmaww4ey2)" height="182" style="stroke:#000000;stroke-width:1.5;" width="128" x="202" y="118"/><text fill="#000000" font-family="sans-serif" font-size="14" font-weight="bold" lengthAdjust="spacing" textLength="78" x="227" y="134.5332">File Output</text><rect fill="#FEFECE" filter="url(#f2udsmaww4ey2)" height="35.0938" style="stroke:#A80036;stroke-width:1.5;" width="95" x="331.5" y="43"/><text fill="#000000" font-family="sans-serif" font-size="12" lengthAdjust="spacing" textLength="81" x="338.5" y="57.457">Context + Filter</text><line style="stroke:#A80036;stroke-width:1.5;" x1="332.5" x2="425.5" y1="62.0938" y2="62.0938"/><rect fill="#FEFECE" filter="url(#f2udsmaww4ey2)" height="35.0938" style="stroke:#A80036;stroke-width:1.5;" width="61" x="461.5" y="43"/><text fill="#000000" font-family="sans-serif" font-size="12" lengthAdjust="spacing" textLength="47" x="468.5" y="57.457">Console</text><line style="stroke:#A80036;stroke-width:1.5;" x1="462.5" x2="521.5" y1="62.0938" y2="62.0938"/><rect fill="#FEFECE" filter="url(#f2udsmaww4ey2)" height="35.0938" style="stroke:#A80036;stroke-width:1.5;" width="95" x="218.5" y="154"/><text fill="#000000" font-family="sans-serif" font-size="12" lengthAdjust="spacing" textLength="81" x="225.5" y="168.457">Context + Filter</text><line style="stroke:#A80036;stroke-width:1.5;" x1="219.5" x2="312.5" y1="173.0938" y2="173.0938"/><rect fill="#FEFECE" filter="url(#f2udsmaww4ey2)" height="35.0938" style="stroke:#A80036;stroke-width:1.5;" width="83" x="224.5" y="249"/><text fill="#000000" font-family="sans-serif" font-size="12" lengthAdjust="spacing" textLength="69" x="231.5" y="263.457">Binary Writer</text><line style="stroke:#A80036;stroke-width:1.5;" x1="225.5" x2="306.5" y1="268.0938" y2="268.0938"/><rect fill="#FEFECE" filter="url(#f2udsmaww4ey2)" height="35.0938" style="stroke:#A80036;stroke-width:1.5;" width="74" x="7" y="43"/><text fill="#000000" font-family="sans-serif" font-size="12" lengthAdjust="spacing" textLength="60" x="14" y="57.457">Application</text><line style="stroke:#A80036;stroke-width:1.5;" x1="8" x2="80" y1="62.0938" y2="62.0938"/><rect fill="#FEFECE" filter="url(#f2udsmaww4ey2)" height="35.0938" style="stroke:#A80036;stroke-width:1.5;" width="84" x="116" y="43"/><text fill="#000000" font-family="sans-serif" font-size="12" lengthAdjust="spacing" textLength="70" x="123" y="57.457">Input Stream</text><line style="stroke:#A80036;stroke-width:1.5;" x1="117" x2="199" y1="62.0938" y2="62.0938"/><rect fill="#FEFECE" filter="url(#f2udsmaww4ey2)" height="35.0938" style="stroke:#A80036;stroke-width:1.5;" width="61" x="235.5" y="43"/><text fill="#000000" font-family="sans-serif" font-size="12" lengthAdjust="spacing" textLength="47" x="242.5" y="57.457">Decoder</text><line style="stroke:#A80036;stroke-width:1.5;" x1="236.5" x2="295.5" y1="62.0938" y2="62.0938"/><!--MD5=[16d9ba95f3ba3f436e96f718ef22449e]
link Application to Input--><path codeLine="16" d="M81.41,60.5 C91.17,60.5 100.94,60.5 110.71,60.5 " fill="none" id="Application-to-Input" style="stroke:#A80036;stroke-width:1.0;"/><polygon fill="#A80036" points="115.81,60.5,106.81,56.5,110.81,60.5,106.81,64.5,115.81,60.5" style="stroke:#A80036;stroke-width:1.0;"/><!--MD5=[ee14ea7c80be20d4753e5681420d4a50]
link Input to Decoder--><path codeLine="17" d="M200.19,60.5 C210.18,60.5 220.18,60.5 230.18,60.5 " fill="none" id="Input-to-Decoder" style="stroke:#A80036;stroke-width:1.0;"/><polygon fill="#A80036" points="235.41,60.5,226.41,56.5,230.41,60.5,226.41,64.5,235.41,60.5" style="stroke:#A80036;stroke-width:1.0;"/><!--MD5=[1cd1a09e36b4508877f1871747610f17]
link Decoder to PostFilter--><path codeLine="18" d="M296.9,60.5 C306.64,60.5 316.38,60.5 326.12,60.5 " fill="none" id="Decoder-to-PostFilter" style="stroke:#A80036;stroke-width:1.0;"/><polygon fill="#A80036" points="331.21,60.5,322.21,56.5,326.21,60.5,322.21,64.5,331.21,60.5" style="stroke:#A80036;stroke-width:1.0;"/><!--MD5=[eb2aa37f4a789470bd5176a6b6ec200d]
link PostFilter to Console--><path codeLine="19" d="M426.67,60.5 C436.52,60.5 446.37,60.5 456.23,60.5 " fill="none" id="PostFilter-to-Console" style="stroke:#A80036;stroke-width:1.0;"/><polygon fill="#A80036" points="461.38,60.5,452.38,56.5,456.38,60.5,452.38,64.5,461.38,60.5" style="stroke:#A80036;stroke-width:1.0;"/><!--MD5=[d6846291ac2c545afc2f0c8567d35df7]
link Decoder to DecoderFilter--><path codeLine="21" d="M266,78.05 C266,96.94 266,127.9 266,148.73 " fill="none" id="Decoder-to-DecoderFilter" style="stroke:#A80036;stroke-width:1.0;"/><polygon fill="#A80036" points="266,153.79,270,144.79,266,148.79,262,144.79,266,153.79" style="stroke:#A80036;stroke-width:1.0;"/><!--MD5=[e0dda76cef5cc08cceab4f71063a0a9e]
link DecoderFilter to Writer--><path codeLine="22" d="M266,189.13 C266,204.24 266,226.66 266,243.3 " fill="none" id="DecoderFilter-to-Writer" style="stroke:#A80036;stroke-width:1.0;"/><polygon fill="#A80036" points="266,248.7,270,239.7,266,243.7,262,239.7,266,248.7" style="stroke:#A80036;stroke-width:1.0;"/><!--MD5=[ad1e58d4603cade983749ab550927942]
@startuml AppSearch

object Application
object "Input Stream" as Input
object Decoder

rectangle "Console Output" {
    object "Context + Filter" as PostFilter
    object Console
}

rectangle "File Output" {
    object "Context + Filter" as DecoderFilter
    object "Binary Writer" as Writer
}

Application -r-> Input
Input -r-> Decoder
Decoder -r-> PostFilter
PostFilter -r-> Console

Decoder -d-> DecoderFilter
DecoderFilter -d-> Writer

@enduml

PlantUML version 1.2022.0(Tue Jan 11 17:16:42 CET 2022)
(GPL source distribution)
Java Runtime: Java(TM) SE Runtime Environment
JVM: Java HotSpot(TM) Client VM
Default Encoding: Cp1252
Language: en
Country: US
--></g></svg>