<?xml version="1.0" encoding="us-ascii" standalone="no"?><svg xmlns="http://www.w3.org/2000/svg" xmlns:xlink="http://www.w3.org/1999/xlink" contentStyleType="text/css" height="307px" preserveAspectRatio="none" style="width:626px;height:307px;background:#FFFFFF;" version="1.1" viewBox="0 0 626 307" width="626px" zoomAndPan="magnify"><defs/><g><!--cluster Console Output--><g id="cluster_Console Output"><rect fill="none" height="87.3" rx="2.5" ry="2.5" style="stroke:#181818;stroke-width:1.0;" width="259" x="361.5" y="7"/><text fill="#000000" font-family="sans-serif" font-size="14" font-weight="bold" lengthAdjust="spacing" textLength="123" x="429.5" y="21.9951">Console Output</text></g><!--cluster File Output--><g id="cluster_File Output"><rect fill="none" height="183.59" rx="2.5" ry="2.5" style="stroke:#181818;stroke-width:1.0;" width="154" x="228.5" y="118.3"/><text fill="#000000" font-family="sans-serif" font-size="14" font-weight="bold" lengthAdjust="spacing" textLength="86" x="262.5" y="133.2951">File Output</text></g><g id="elem_PostFilter"><rect fill="#F1F1F1" height="36.2969" style="stroke:#181818;stroke-width:0.5;" width="121" x="378" y="42"/><text fill="#000000" font-family="sans-serif" font-size="14" lengthAdjust="spacing" textLength="107" x="385" y="56.9951">Context + Filter</text><line style="stroke:#181818;stroke-width:0.5;" x1="379" x2="498" y1="62.2969" y2="62.2969"/></g><g id="elem_Console"><rect fill="#F1F1F1" height="36.2969" style="stroke:#181818;stroke-width:0.5;" width="71" x="534" y="42"/><text fill="#000000" font-family="sans-serif" font-size="14" lengthAdjust="spacing" textLength="57" x="541" y="56.9951">Console</text><line style="stroke:#181818;stroke-width:0.5;" x1="535" x2="604" y1="62.2969" y2="62.2969"/></g><g id="elem_DecoderFilter"><rect fill="#F1F1F1" height="36.2969" style="stroke:#181818;stroke-width:0.5;" width="121" x="245" y="153.3"/><text fill="#000000" font-family="sans-serif" font-size="14" lengthAdjust="spacing" textLength="107" x="252" y="168.2951">Context + Filter</text><line style="stroke:#181818;stroke-width:0.5;" x1="246" x2="365" y1="173.5969" y2="173.5969"/></g><g id="elem_Writer"><rect fill="#F1F1F1" height="36.2969" style="stroke:#181818;stroke-width:0.5;" width="100" x="255.5" y="249.59"/><text fill="#000000" font-family="sans-serif" font-size="14" lengthAdjust="spacing" textLength="86" x="262.5" y="264.5851">Binary Writer</text><line style="stroke:#181818;stroke-width:0.5;" x1="256.5" x2="354.5" y1="269.8869" y2="269.8869"/></g><g id="elem_Application"><rect fill="#F1F1F1" height="36.2969" style="stroke:#181818;stroke-width:0.5;" width="89" x="7" y="42"/><text fill="#000000" font-family="sans-serif" font-size="14" lengthAdjust="spacing" textLength="75" x="14" y="56.9951">Application</text><line style="stroke:#181818;stroke-width:0.5;" x1="8" x2="95" y1="62.2969" y2="62.2969"/></g><g id="elem_Input"><rect fill="#F1F1F1" height="36.2969" style="stroke:#181818;stroke-width:0.5;" width="102" x="131.5" y="42"/><text fill="#000000" font-family="sans-serif" font-size="14" lengthAdjust="spacing" textLength="88" x="138.5" y="56.9951">Input Stream</text><line style="stroke:#181818;stroke-width:0.5;" x1="132.5" x2="232.5" y1="62.2969" y2="62.2969"/></g><g id="elem_Decoder"><rect fill="#F1F1F1" height="36.2969" style="stroke:#181818;stroke-width:0.5;" width="74" x="268.5" y="42"/><text fill="#000000" font-family="sans-serif" font-size="14" lengthAdjust="spacing" textLength="60" x="275.5" y="56.9951">Decoder</text><line style="stroke:#181818;stroke-width:0.5;" x1="269.5" x2="341.5" y1="62.2969" y2="62.2969"/></g><!--link Application to Input--><g id="link_Application_Input"><path codeLine="16" d="M96.28,60.15 C106.04,60.15 115.8,60.15 125.56,60.15 " fill="none" id="Application-to-Input" style="stroke:#181818;stroke-width:1.0;"/><polygon fill="#181818" points="130.3,60.15,121.3,56.15,125.3,60.15,121.3,64.15,130.3,60.15" style="stroke:#181818;stroke-width:1.0;"/></g><!--link Input to Decoder--><g id="link_Input_Decoder"><path codeLine="17" d="M233.91,60.15 C243.33,60.15 252.75,60.15 262.16,60.15 " fill="none" id="Input-to-Decoder" style="stroke:#181818;stroke-width:1.0;"/><polygon fill="#181818" points="267.03,60.15,258.03,56.15,262.03,60.15,258.03,64.15,267.03,60.15" style="stroke:#181818;stroke-width:1.0;"/></g><!--link Decoder to PostFilter--><g id="link_Decoder_PostFilter"><path codeLine="18" d="M342.91,60.15 C352.49,60.15 362.08,60.15 371.66,60.15 " fill="none" id="Decoder-to-PostFilter" style="stroke:#181818;stroke-width:1.0;"/><polygon fill="#181818" points="376.63,60.15,367.63,56.15,371.63,60.15,367.63,64.15,376.63,60.15" style="stroke:#181818;stroke-width:1.0;"/></g><!--link PostFilter to Console--><g id="link_PostFilter_Console"><path codeLine="19" d="M499.39,60.15 C508.84,60.15 518.29,60.15 527.74,60.15 " fill="none" id="PostFilter-to-Console" style="stroke:#181818;stroke-width:1.0;"/><polygon fill="#181818" points="532.63,60.15,523.63,56.15,527.63,60.15,523.63,64.15,532.63,60.15" style="stroke:#181818;stroke-width:1.0;"/></g><!--link Decoder to DecoderFilter--><g id="link_Decoder_DecoderFilter"><path codeLine="21" d="M305.5,78.71 C305.5,97.27 305.5,126.65 305.5,147.14 " fill="none" id="Decoder-to-DecoderFilter" style="stroke:#181818;stroke-width:1.0;"/><polygon fill="#181818" points="305.5,151.93,309.5,142.93,305.5,146.93,301.5,142.93,305.5,151.93" style="stroke:#181818;stroke-width:1.0;"/></g><!--link DecoderFilter to Writer--><g id="link_DecoderFilter_Writer"><path codeLine="22" d="M305.5,189.74 C305.5,204.8 305.5,226.76 305.5,243.38 " fill="none" id="DecoderFilter-to-Writer" style="stroke:#181818;stroke-width:1.0;"/><polygon fill="#181818" points="305.5,248.24,309.5,239.24,305.5,243.24,301.5,239.24,305.5,248.24" style="stroke:#181818;stroke-width:1.0;"/></g><!--SRC=[bL1D2y8m3BttLuHUPNz1y0F1au87pxKBKfdDo39GnFzkNLgsuSbUchoylEI5BZVq0gksRO9t4YWQKiZkOziBd8JHtIsu3WQWbBVegKOsXbFcuhL1i1kA7QNWq4jYMdWPIA_efQhWGs01kz08yg1vf4uqdNApa7dFv1FlB-syug-yNOVe-0bd3eMhuNVWv1HGSRNCjlKQ0r2ivr_1YP4nr59nCpRKeqhkcMLAo2jz0000]--></g></svg>