<?xml version="1.0" encoding="UTF-8" standalone="no"?><svg xmlns="http://www.w3.org/2000/svg" xmlns:xlink="http://www.w3.org/1999/xlink" contentScriptType="application/ecmascript" contentStyleType="text/css" height="190px" preserveAspectRatio="none" style="width:1079px;height:190px;background:#FFFFFF;" version="1.1" viewBox="0 0 1079 190" width="1079px" zoomAndPan="magnify"><defs><filter height="300%" id="fq4bosvhap28q" width="300%" x="-1" y="-1"><feGaussianBlur result="blurOut" stdDeviation="2.0"/><feColorMatrix in="blurOut" result="blurOut2" type="matrix" values="0 0 0 0 0 0 0 0 0 0 0 0 0 0 0 0 0 0 .4 0"/><feOffset dx="4.0" dy="4.0" in="blurOut2" result="blurOut3"/><feBlend in="SourceGraphic" in2="blurOut3" mode="normal"/></filter></defs><g><!--MD5=[913ee34ee77be70e73f263d719355558]
cluster Root--><polygon fill="#FFFFFF" filter="url(#fq4bosvhap28q)" points="16,67.72,55,67.72,62,91.3294,157,91.3294,157,183.72,16,183.72,16,67.72" style="stroke:#000000;stroke-width:1.5;"/><line style="stroke:#000000;stroke-width:1.5;" x1="16" x2="62" y1="91.3294" y2="91.3294"/><text fill="#000000" font-family="sans-serif" font-size="14" font-weight="bold" lengthAdjust="spacing" textLength="33" x="20" y="84.2532">Root</text><!--MD5=[e320b41f2d43b11d6de1346cab4ea5fc]
cluster View--><polygon fill="#FFFFFF" filter="url(#fq4bosvhap28q)" points="197,67.72,236,67.72,243,91.3294,338,91.3294,338,183.72,197,183.72,197,67.72" style="stroke:#000000;stroke-width:1.5;"/><line style="stroke:#000000;stroke-width:1.5;" x1="197" x2="243" y1="91.3294" y2="91.3294"/><text fill="#000000" font-family="sans-serif" font-size="14" font-weight="bold" lengthAdjust="spacing" textLength="33" x="201" y="84.2532">View</text><!--MD5=[d64883541e3d62e3241c4d12decf100d]
cluster Application--><polygon fill="#FFFFFF" filter="url(#fq4bosvhap28q)" points="378,67.72,462,67.72,469,91.3294,519,91.3294,519,183.72,378,183.72,378,67.72" style="stroke:#000000;stroke-width:1.5;"/><line style="stroke:#000000;stroke-width:1.5;" x1="378" x2="469" y1="91.3294" y2="91.3294"/><text fill="#000000" font-family="sans-serif" font-size="14" font-weight="bold" lengthAdjust="spacing" textLength="78" x="382" y="84.2532">Application</text><!--MD5=[121a8bf1197281ab89ed693fab589f94]
cluster Domain--><polygon fill="#FFFFFF" filter="url(#fq4bosvhap28q)" points="559,67.72,665,67.72,672,91.3294,700,91.3294,700,183.72,559,183.72,559,67.72" style="stroke:#000000;stroke-width:1.5;"/><line style="stroke:#000000;stroke-width:1.5;" x1="559" x2="672" y1="91.3294" y2="91.3294"/><text fill="#000000" font-family="sans-serif" font-size="14" font-weight="bold" lengthAdjust="spacing" textLength="100" x="563" y="84.2532">Domain Model</text><!--MD5=[9ddaf8ee8bcae11a9a9232f969198262]
cluster Infrastructure--><polygon fill="#FFFFFF" filter="url(#fq4bosvhap28q)" points="740,67.72,843,67.72,850,91.3294,881,91.3294,881,183.72,740,183.72,740,67.72" style="stroke:#000000;stroke-width:1.5;"/><line style="stroke:#000000;stroke-width:1.5;" x1="740" x2="850" y1="91.3294" y2="91.3294"/><text fill="#000000" font-family="sans-serif" font-size="14" font-weight="bold" lengthAdjust="spacing" textLength="97" x="744" y="84.2532">Infrastructure</text><!--MD5=[a3db38b29c3436960cdd3b658ea5cf84]
cluster Framework--><polygon fill="#FFFFFF" filter="url(#fq4bosvhap28q)" points="921,67.72,1005,67.72,1012,91.3294,1062,91.3294,1062,183.72,921,183.72,921,67.72" style="stroke:#000000;stroke-width:1.5;"/><line style="stroke:#000000;stroke-width:1.5;" x1="921" x2="1012" y1="91.3294" y2="91.3294"/><text fill="#000000" font-family="sans-serif" font-size="14" font-weight="bold" lengthAdjust="spacing" textLength="78" x="925" y="84.2532">Framework</text><!--MD5=[e26579fe48ac71077db9587636c6d3c7]
class A11111--><rect codeLine="9" fill="#FEFECE" filter="url(#fq4bosvhap28q)" height="48" id="A11111" style="stroke:#A80036;stroke-width:1.5;" width="74" x="59" y="111.72"/><ellipse cx="74" cy="127.72" fill="#ADD1B2" rx="11" ry="11" style="stroke:#A80036;stroke-width:1.0;"/><path d="M76.7656,123.595 Q76.9219,123.3763 77.1094,123.2669 Q77.2969,123.1575 77.5156,123.1575 Q77.8906,123.1575 78.125,123.4153 Q78.3594,123.6731 78.3594,124.2825 L78.3594,125.7356 Q78.3594,126.345 78.125,126.6106 Q77.8906,126.8763 77.5156,126.8763 Q77.1719,126.8763 76.9688,126.6731 Q76.7656,126.4856 76.6563,125.97 Q76.6094,125.6106 76.4219,125.4231 Q76.0938,125.0481 75.4844,124.8294 Q74.875,124.6106 74.25,124.6106 Q73.4844,124.6106 72.8516,124.9388 Q72.2188,125.2669 71.7266,126.0169 Q71.2344,126.7669 71.2344,127.7981 L71.2344,128.8919 Q71.2344,130.1263 72.125,130.9466 Q73.0156,131.7669 74.6094,131.7669 Q75.5469,131.7669 76.2031,131.5169 Q76.5938,131.3606 77.0156,130.9231 Q77.2813,130.6575 77.4297,130.5794 Q77.5781,130.5013 77.7813,130.5013 Q78.1094,130.5013 78.3672,130.7591 Q78.625,131.0169 78.625,131.3606 Q78.625,131.7044 78.2813,132.1106 Q77.7813,132.6888 76.9844,133.0169 Q75.9063,133.47 74.6094,133.47 Q73.0938,133.47 71.8906,132.845 Q70.9063,132.345 70.2188,131.2747 Q69.5313,130.2044 69.5313,128.9231 L69.5313,127.7669 Q69.5313,126.4388 70.1484,125.2903 Q70.7656,124.1419 71.8594,123.5247 Q72.9531,122.9075 74.1875,122.9075 Q74.9219,122.9075 75.5703,123.0716 Q76.2188,123.2356 76.7656,123.595 Z " fill="#000000"/><line style="stroke:#A80036;stroke-width:1.5;" x1="60" x2="132" y1="143.72" y2="143.72"/><line style="stroke:#A80036;stroke-width:1.5;" x1="60" x2="132" y1="151.72" y2="151.72"/><!--MD5=[b243c680f28b263a33f481ebfa2921a3]
class A22222--><rect codeLine="13" fill="#FEFECE" filter="url(#fq4bosvhap28q)" height="48" id="A22222" style="stroke:#A80036;stroke-width:1.5;" width="74" x="240" y="111.72"/><ellipse cx="255" cy="127.72" fill="#ADD1B2" rx="11" ry="11" style="stroke:#A80036;stroke-width:1.0;"/><path d="M257.7656,123.595 Q257.9219,123.3763 258.1094,123.2669 Q258.2969,123.1575 258.5156,123.1575 Q258.8906,123.1575 259.125,123.4153 Q259.3594,123.6731 259.3594,124.2825 L259.3594,125.7356 Q259.3594,126.345 259.125,126.6106 Q258.8906,126.8763 258.5156,126.8763 Q258.1719,126.8763 257.9688,126.6731 Q257.7656,126.4856 257.6563,125.97 Q257.6094,125.6106 257.4219,125.4231 Q257.0938,125.0481 256.4844,124.8294 Q255.875,124.6106 255.25,124.6106 Q254.4844,124.6106 253.8516,124.9388 Q253.2188,125.2669 252.7266,126.0169 Q252.2344,126.7669 252.2344,127.7981 L252.2344,128.8919 Q252.2344,130.1263 253.125,130.9466 Q254.0156,131.7669 255.6094,131.7669 Q256.5469,131.7669 257.2031,131.5169 Q257.5938,131.3606 258.0156,130.9231 Q258.2813,130.6575 258.4297,130.5794 Q258.5781,130.5013 258.7813,130.5013 Q259.1094,130.5013 259.3672,130.7591 Q259.625,131.0169 259.625,131.3606 Q259.625,131.7044 259.2813,132.1106 Q258.7813,132.6888 257.9844,133.0169 Q256.9063,133.47 255.6094,133.47 Q254.0938,133.47 252.8906,132.845 Q251.9063,132.345 251.2188,131.2747 Q250.5313,130.2044 250.5313,128.9231 L250.5313,127.7669 Q250.5313,126.4388 251.1484,125.2903 Q251.7656,124.1419 252.8594,123.5247 Q253.9531,122.9075 255.1875,122.9075 Q255.9219,122.9075 256.5703,123.0716 Q257.2188,123.2356 257.7656,123.595 Z " fill="#000000"/><line style="stroke:#A80036;stroke-width:1.5;" x1="241" x2="313" y1="143.72" y2="143.72"/><line style="stroke:#A80036;stroke-width:1.5;" x1="241" x2="313" y1="151.72" y2="151.72"/><!--MD5=[b813db3346d3ff4d96c29363dd096958]
class A33333--><rect codeLine="17" fill="#FEFECE" filter="url(#fq4bosvhap28q)" height="48" id="A33333" style="stroke:#A80036;stroke-width:1.5;" width="74" x="421" y="111.72"/><ellipse cx="436" cy="127.72" fill="#ADD1B2" rx="11" ry="11" style="stroke:#A80036;stroke-width:1.0;"/><path d="M438.7656,123.595 Q438.9219,123.3763 439.1094,123.2669 Q439.2969,123.1575 439.5156,123.1575 Q439.8906,123.1575 440.125,123.4153 Q440.3594,123.6731 440.3594,124.2825 L440.3594,125.7356 Q440.3594,126.345 440.125,126.6106 Q439.8906,126.8763 439.5156,126.8763 Q439.1719,126.8763 438.9688,126.6731 Q438.7656,126.4856 438.6563,125.97 Q438.6094,125.6106 438.4219,125.4231 Q438.0938,125.0481 437.4844,124.8294 Q436.875,124.6106 436.25,124.6106 Q435.4844,124.6106 434.8516,124.9388 Q434.2188,125.2669 433.7266,126.0169 Q433.2344,126.7669 433.2344,127.7981 L433.2344,128.8919 Q433.2344,130.1263 434.125,130.9466 Q435.0156,131.7669 436.6094,131.7669 Q437.5469,131.7669 438.2031,131.5169 Q438.5938,131.3606 439.0156,130.9231 Q439.2813,130.6575 439.4297,130.5794 Q439.5781,130.5013 439.7813,130.5013 Q440.1094,130.5013 440.3672,130.7591 Q440.625,131.0169 440.625,131.3606 Q440.625,131.7044 440.2813,132.1106 Q439.7813,132.6888 438.9844,133.0169 Q437.9063,133.47 436.6094,133.47 Q435.0938,133.47 433.8906,132.845 Q432.9063,132.345 432.2188,131.2747 Q431.5313,130.2044 431.5313,128.9231 L431.5313,127.7669 Q431.5313,126.4388 432.1484,125.2903 Q432.7656,124.1419 433.8594,123.5247 Q434.9531,122.9075 436.1875,122.9075 Q436.9219,122.9075 437.5703,123.0716 Q438.2188,123.2356 438.7656,123.595 Z " fill="#000000"/><line style="stroke:#A80036;stroke-width:1.5;" x1="422" x2="494" y1="143.72" y2="143.72"/><line style="stroke:#A80036;stroke-width:1.5;" x1="422" x2="494" y1="151.72" y2="151.72"/><!--MD5=[a50559708c8b74e263ab85150331a0ba]
class A44444--><rect codeLine="21" fill="#FEFECE" filter="url(#fq4bosvhap28q)" height="48" id="A44444" style="stroke:#A80036;stroke-width:1.5;" width="74" x="602" y="111.72"/><ellipse cx="617" cy="127.72" fill="#ADD1B2" rx="11" ry="11" style="stroke:#A80036;stroke-width:1.0;"/><path d="M619.7656,123.595 Q619.9219,123.3763 620.1094,123.2669 Q620.2969,123.1575 620.5156,123.1575 Q620.8906,123.1575 621.125,123.4153 Q621.3594,123.6731 621.3594,124.2825 L621.3594,125.7356 Q621.3594,126.345 621.125,126.6106 Q620.8906,126.8763 620.5156,126.8763 Q620.1719,126.8763 619.9688,126.6731 Q619.7656,126.4856 619.6563,125.97 Q619.6094,125.6106 619.4219,125.4231 Q619.0938,125.0481 618.4844,124.8294 Q617.875,124.6106 617.25,124.6106 Q616.4844,124.6106 615.8516,124.9388 Q615.2188,125.2669 614.7266,126.0169 Q614.2344,126.7669 614.2344,127.7981 L614.2344,128.8919 Q614.2344,130.1263 615.125,130.9466 Q616.0156,131.7669 617.6094,131.7669 Q618.5469,131.7669 619.2031,131.5169 Q619.5938,131.3606 620.0156,130.9231 Q620.2813,130.6575 620.4297,130.5794 Q620.5781,130.5013 620.7813,130.5013 Q621.1094,130.5013 621.3672,130.7591 Q621.625,131.0169 621.625,131.3606 Q621.625,131.7044 621.2813,132.1106 Q620.7813,132.6888 619.9844,133.0169 Q618.9063,133.47 617.6094,133.47 Q616.0938,133.47 614.8906,132.845 Q613.9063,132.345 613.2188,131.2747 Q612.5313,130.2044 612.5313,128.9231 L612.5313,127.7669 Q612.5313,126.4388 613.1484,125.2903 Q613.7656,124.1419 614.8594,123.5247 Q615.9531,122.9075 617.1875,122.9075 Q617.9219,122.9075 618.5703,123.0716 Q619.2188,123.2356 619.7656,123.595 Z " fill="#000000"/><line style="stroke:#A80036;stroke-width:1.5;" x1="603" x2="675" y1="143.72" y2="143.72"/><line style="stroke:#A80036;stroke-width:1.5;" x1="603" x2="675" y1="151.72" y2="151.72"/><!--MD5=[57235fd97637341aa809eb8f122865db]
class A55555--><rect codeLine="25" fill="#FEFECE" filter="url(#fq4bosvhap28q)" height="48" id="A55555" style="stroke:#A80036;stroke-width:1.5;" width="74" x="783" y="111.72"/><ellipse cx="798" cy="127.72" fill="#ADD1B2" rx="11" ry="11" style="stroke:#A80036;stroke-width:1.0;"/><path d="M800.7656,123.595 Q800.9219,123.3763 801.1094,123.2669 Q801.2969,123.1575 801.5156,123.1575 Q801.8906,123.1575 802.125,123.4153 Q802.3594,123.6731 802.3594,124.2825 L802.3594,125.7356 Q802.3594,126.345 802.125,126.6106 Q801.8906,126.8763 801.5156,126.8763 Q801.1719,126.8763 800.9688,126.6731 Q800.7656,126.4856 800.6563,125.97 Q800.6094,125.6106 800.4219,125.4231 Q800.0938,125.0481 799.4844,124.8294 Q798.875,124.6106 798.25,124.6106 Q797.4844,124.6106 796.8516,124.9388 Q796.2188,125.2669 795.7266,126.0169 Q795.2344,126.7669 795.2344,127.7981 L795.2344,128.8919 Q795.2344,130.1263 796.125,130.9466 Q797.0156,131.7669 798.6094,131.7669 Q799.5469,131.7669 800.2031,131.5169 Q800.5938,131.3606 801.0156,130.9231 Q801.2813,130.6575 801.4297,130.5794 Q801.5781,130.5013 801.7813,130.5013 Q802.1094,130.5013 802.3672,130.7591 Q802.625,131.0169 802.625,131.3606 Q802.625,131.7044 802.2813,132.1106 Q801.7813,132.6888 800.9844,133.0169 Q799.9063,133.47 798.6094,133.47 Q797.0938,133.47 795.8906,132.845 Q794.9063,132.345 794.2188,131.2747 Q793.5313,130.2044 793.5313,128.9231 L793.5313,127.7669 Q793.5313,126.4388 794.1484,125.2903 Q794.7656,124.1419 795.8594,123.5247 Q796.9531,122.9075 798.1875,122.9075 Q798.9219,122.9075 799.5703,123.0716 Q800.2188,123.2356 800.7656,123.595 Z " fill="#000000"/><line style="stroke:#A80036;stroke-width:1.5;" x1="784" x2="856" y1="143.72" y2="143.72"/><line style="stroke:#A80036;stroke-width:1.5;" x1="784" x2="856" y1="151.72" y2="151.72"/><!--MD5=[ccbaf18dcaf391b8e6417ec57dbce4ad]
class A66666--><rect codeLine="29" fill="#FEFECE" filter="url(#fq4bosvhap28q)" height="48" id="A66666" style="stroke:#A80036;stroke-width:1.5;" width="74" x="964" y="111.72"/><ellipse cx="979" cy="127.72" fill="#ADD1B2" rx="11" ry="11" style="stroke:#A80036;stroke-width:1.0;"/><path d="M981.7656,123.595 Q981.9219,123.3763 982.1094,123.2669 Q982.2969,123.1575 982.5156,123.1575 Q982.8906,123.1575 983.125,123.4153 Q983.3594,123.6731 983.3594,124.2825 L983.3594,125.7356 Q983.3594,126.345 983.125,126.6106 Q982.8906,126.8763 982.5156,126.8763 Q982.1719,126.8763 981.9688,126.6731 Q981.7656,126.4856 981.6563,125.97 Q981.6094,125.6106 981.4219,125.4231 Q981.0938,125.0481 980.4844,124.8294 Q979.875,124.6106 979.25,124.6106 Q978.4844,124.6106 977.8516,124.9388 Q977.2188,125.2669 976.7266,126.0169 Q976.2344,126.7669 976.2344,127.7981 L976.2344,128.8919 Q976.2344,130.1263 977.125,130.9466 Q978.0156,131.7669 979.6094,131.7669 Q980.5469,131.7669 981.2031,131.5169 Q981.5938,131.3606 982.0156,130.9231 Q982.2813,130.6575 982.4297,130.5794 Q982.5781,130.5013 982.7813,130.5013 Q983.1094,130.5013 983.3672,130.7591 Q983.625,131.0169 983.625,131.3606 Q983.625,131.7044 983.2813,132.1106 Q982.7813,132.6888 981.9844,133.0169 Q980.9063,133.47 979.6094,133.47 Q978.0938,133.47 976.8906,132.845 Q975.9063,132.345 975.2188,131.2747 Q974.5313,130.2044 974.5313,128.9231 L974.5313,127.7669 Q974.5313,126.4388 975.1484,125.2903 Q975.7656,124.1419 976.8594,123.5247 Q977.9531,122.9075 979.1875,122.9075 Q979.9219,122.9075 980.5703,123.0716 Q981.2188,123.2356 981.7656,123.595 Z " fill="#000000"/><line style="stroke:#A80036;stroke-width:1.5;" x1="965" x2="1037" y1="143.72" y2="143.72"/><line style="stroke:#A80036;stroke-width:1.5;" x1="965" x2="1037" y1="151.72" y2="151.72"/><!--MD5=[fd33f3e117f7d7e02a83a997965077d5]
link Root to View--><path d="M29.2576,67.3006 C29.3111,67.11 29.3651,66.9195 29.4196,66.7291 C31.1619,60.6369 33.364,54.6572 36.1364,49.0413 C41.6813,37.8094 49.5075,28.0325 60.5,21.72 C87.86,6 103.79,6.62 131.5,21.72 C156.725,35.47 174.6,62.005 186.4013,86.0162 C189.3516,92.0191 191.9223,97.8641 194.1333,103.3123 C194.6861,104.6743 195.2163,106.0115 195.7245,107.3202 C195.9785,107.9746 196.227,108.6218 196.47,109.2614 C196.5915,109.5812 196.7117,109.8991 196.8304,110.215 " fill="none" id="Root-to-View" style="stroke:#A80036;stroke-width:1.0;"/><polygon fill="#A80036" points="196.8304,110.215,197.408,100.3831,195.0712,105.5347,189.9195,103.1979,196.8304,110.215" style="stroke:#A80036;stroke-width:1.0;"/><!--MD5=[86e789da1bef5efb219cea2fce063cfd]
link View to Application--><path d="M210.2576,67.3006 C210.3111,67.11 210.3651,66.9195 210.4196,66.7291 C212.1619,60.6369 214.364,54.6572 217.1364,49.0413 C222.6812,37.8094 230.5075,28.0325 241.5,21.72 C268.86,6 284.79,6.62 312.5,21.72 C337.725,35.47 355.6,62.005 367.4013,86.0162 C370.3516,92.0191 372.9223,97.8641 375.1333,103.3123 C375.6861,104.6743 376.2163,106.0115 376.7245,107.3202 C376.9785,107.9746 377.227,108.6218 377.47,109.2614 C377.5915,109.5812 377.7117,109.8991 377.8304,110.215 " fill="none" id="View-to-Application" style="stroke:#A80036;stroke-width:1.0;"/><polygon fill="#A80036" points="377.8304,110.215,378.408,100.3831,376.0712,105.5347,370.9195,103.1979,377.8304,110.215" style="stroke:#A80036;stroke-width:1.0;"/><!--MD5=[31a8011ae9e62fa2c80ea31701489b76]
link Application to Domain--><path d="M391.2576,67.3006 C391.3111,67.11 391.3651,66.9195 391.4196,66.7291 C393.1619,60.6369 395.364,54.6572 398.1364,49.0413 C403.6813,37.8094 411.5075,28.0325 422.5,21.72 C449.86,6 465.79,6.62 493.5,21.72 C518.725,35.47 536.6,62.005 548.4013,86.0162 C551.3516,92.0191 553.9223,97.8641 556.1333,103.3123 C556.6861,104.6743 557.2163,106.0115 557.7245,107.3202 C557.9785,107.9746 558.227,108.6218 558.47,109.2614 C558.5915,109.5812 558.7117,109.8991 558.8304,110.215 " fill="none" id="Application-to-Domain" style="stroke:#A80036;stroke-width:1.0;"/><polygon fill="#A80036" points="558.8304,110.215,559.408,100.3831,557.0712,105.5347,551.9195,103.1979,558.8304,110.215" style="stroke:#A80036;stroke-width:1.0;"/><!--MD5=[5cbcdfcf8f8150f8f4d861fda7bf33ae]
link Domain to Infrastructure--><path d="M572.2576,67.3006 C572.3111,67.11 572.3651,66.9195 572.4196,66.7291 C574.1619,60.6369 576.364,54.6572 579.1364,49.0413 C584.6813,37.8094 592.5075,28.0325 603.5,21.72 C630.86,6 646.79,6.62 674.5,21.72 C699.725,35.47 717.6,62.005 729.4013,86.0162 C732.3516,92.0191 734.9223,97.8641 737.1333,103.3123 C737.6861,104.6743 738.2163,106.0115 738.7245,107.3202 C738.9785,107.9746 739.227,108.6218 739.47,109.2614 C739.5915,109.5812 739.7117,109.8991 739.8304,110.215 " fill="none" id="Domain-to-Infrastructure" style="stroke:#A80036;stroke-width:1.0;"/><polygon fill="#A80036" points="739.8304,110.215,740.408,100.3831,738.0712,105.5347,732.9195,103.1979,739.8304,110.215" style="stroke:#A80036;stroke-width:1.0;"/><!--MD5=[fe547167e85aeb4136b6ad8a13a6cb7b]
link Infrastructure to Framework--><path d="M753.2576,67.3006 C753.3111,67.11 753.3651,66.9195 753.4196,66.7291 C755.1619,60.6369 757.364,54.6572 760.1364,49.0413 C765.6813,37.8094 773.5075,28.0325 784.5,21.72 C811.86,6 827.79,6.62 855.5,21.72 C880.725,35.47 898.6,62.005 910.4013,86.0162 C913.3516,92.0191 915.9223,97.8641 918.1333,103.3123 C918.6861,104.6743 919.2163,106.0115 919.7245,107.3202 C919.9785,107.9746 920.227,108.6218 920.47,109.2614 C920.5915,109.5812 920.7117,109.8991 920.8304,110.215 " fill="none" id="Infrastructure-to-Framework" style="stroke:#A80036;stroke-width:1.0;"/><polygon fill="#A80036" points="920.8304,110.215,921.408,100.3831,919.0712,105.5347,913.9195,103.1979,920.8304,110.215" style="stroke:#A80036;stroke-width:1.0;"/><!--MD5=[a8550aa019cc764084d89aead7404e0c]
@startuml Layers
allowmixing

skinparam class {
    fontColor Transparent
    stereotypeFontColor Transparent
}

package Root {
    class A11111 { }
}

package View {
    class A22222 { }
}

package Application {
    class A33333 { }
}

package "Domain Model" as Domain {
    class A44444 { }
}

package Infrastructure {
    class A55555 { }
}

package Framework {
    class A66666 { }
}

Root -> View
View -> Application
Application -> Domain
Domain -> Infrastructure
Infrastructure -> Framework
@enduml

PlantUML version 1.2022.0(Tue Jan 11 17:16:42 CET 2022)
(GPL source distribution)
Java Runtime: Java(TM) SE Runtime Environment
JVM: Java HotSpot(TM) Client VM
Default Encoding: Cp1252
Language: en
Country: US
--></g></svg>