<?xml version="1.0" encoding="us-ascii" standalone="no"?><svg xmlns="http://www.w3.org/2000/svg" xmlns:xlink="http://www.w3.org/1999/xlink" contentStyleType="text/css" height="191px" preserveAspectRatio="none" style="width:1324px;height:191px;background:#FFFFFF;" version="1.1" viewBox="0 0 1324 191" width="1324px" zoomAndPan="magnify"><defs/><g><!--cluster Root--><g id="cluster_Root"><rect fill="none" height="115" rx="2.5" ry="2.5" style="stroke:#181818;stroke-width:1.0;" width="153" x="7" y="70.37"/><text fill="#000000" font-family="sans-serif" font-size="14" font-weight="bold" lengthAdjust="spacing" textLength="36" x="65.5" y="85.3651">Root</text></g><!--cluster Application--><g id="cluster_Application"><rect fill="none" height="115" rx="2.5" ry="2.5" style="stroke:#181818;stroke-width:1.0;" width="153" x="393" y="70.37"/><text fill="#000000" font-family="sans-serif" font-size="14" font-weight="bold" lengthAdjust="spacing" textLength="87" x="426" y="85.3651">Application</text></g><!--cluster Services--><g id="cluster_Services"><rect fill="none" height="115" rx="2.5" ry="2.5" style="stroke:#181818;stroke-width:1.0;" width="153" x="586" y="70.37"/><text fill="#000000" font-family="sans-serif" font-size="14" font-weight="bold" lengthAdjust="spacing" textLength="68" x="628.5" y="85.3651">Services</text></g><!--cluster Domain--><g id="cluster_Domain"><rect fill="none" height="115" rx="2.5" ry="2.5" style="stroke:#181818;stroke-width:1.0;" width="153" x="779" y="70.37"/><text fill="#000000" font-family="sans-serif" font-size="14" font-weight="bold" lengthAdjust="spacing" textLength="110" x="800.5" y="85.3651">Domain Model</text></g><!--cluster View--><g id="cluster_View"><rect fill="none" height="115" rx="2.5" ry="2.5" style="stroke:#181818;stroke-width:1.0;" width="153" x="200" y="70.37"/><text fill="#000000" font-family="sans-serif" font-size="14" font-weight="bold" lengthAdjust="spacing" textLength="39" x="257" y="85.3651">View</text></g><!--cluster Infrastructure--><g id="cluster_Infrastructure"><rect fill="none" height="115" rx="2.5" ry="2.5" style="stroke:#181818;stroke-width:1.0;" width="153" x="972" y="70.37"/><text fill="#000000" font-family="sans-serif" font-size="14" font-weight="bold" lengthAdjust="spacing" textLength="110" x="993.5" y="85.3651">Infrastructure</text></g><!--cluster Framework--><g id="cluster_Framework"><rect fill="none" height="115" rx="2.5" ry="2.5" style="stroke:#181818;stroke-width:1.0;" width="153" x="1165" y="70.37"/><text fill="#000000" font-family="sans-serif" font-size="14" font-weight="bold" lengthAdjust="spacing" textLength="89" x="1197" y="85.3651">Framework</text></g><!--class A11111--><g id="elem_A11111"><rect codeLine="10" fill="#F1F1F1" height="48" id="A11111" rx="2.5" ry="2.5" style="stroke:#181818;stroke-width:0.5;" width="86" x="50" y="113.37"/><ellipse cx="65" cy="129.37" fill="#ADD1B2" rx="11" ry="11" style="stroke:#181818;stroke-width:1.0;"/><path d="M67.9688,135.0106 Q67.3906,135.3075 66.75,135.4481 Q66.1094,135.6044 65.4063,135.6044 Q62.9063,135.6044 61.5781,133.9638 Q60.2656,132.3075 60.2656,129.1825 Q60.2656,126.0575 61.5781,124.4013 Q62.9063,122.745 65.4063,122.745 Q66.1094,122.745 66.75,122.9013 Q67.4063,123.0575 67.9688,123.3544 L67.9688,126.0731 Q67.3438,125.495 66.75,125.2294 Q66.1563,124.9481 65.5313,124.9481 Q64.1875,124.9481 63.5,126.0263 Q62.8125,127.0888 62.8125,129.1825 Q62.8125,131.2763 63.5,132.3544 Q64.1875,133.4169 65.5313,133.4169 Q66.1563,133.4169 66.75,133.1513 Q67.3438,132.87 67.9688,132.2919 L67.9688,135.0106 Z " fill="#000000"/><line style="stroke:#181818;stroke-width:0.5;" x1="51" x2="135" y1="145.37" y2="145.37"/><line style="stroke:#181818;stroke-width:0.5;" x1="51" x2="135" y1="153.37" y2="153.37"/></g><!--class A33333--><g id="elem_A33333"><rect codeLine="14" fill="#F1F1F1" height="48" id="A33333" rx="2.5" ry="2.5" style="stroke:#181818;stroke-width:0.5;" width="86" x="436" y="113.37"/><ellipse cx="451" cy="129.37" fill="#ADD1B2" rx="11" ry="11" style="stroke:#181818;stroke-width:1.0;"/><path d="M453.9688,135.0106 Q453.3906,135.3075 452.75,135.4481 Q452.1094,135.6044 451.4063,135.6044 Q448.9063,135.6044 447.5781,133.9638 Q446.2656,132.3075 446.2656,129.1825 Q446.2656,126.0575 447.5781,124.4013 Q448.9063,122.745 451.4063,122.745 Q452.1094,122.745 452.75,122.9013 Q453.4063,123.0575 453.9688,123.3544 L453.9688,126.0731 Q453.3438,125.495 452.75,125.2294 Q452.1563,124.9481 451.5313,124.9481 Q450.1875,124.9481 449.5,126.0263 Q448.8125,127.0888 448.8125,129.1825 Q448.8125,131.2763 449.5,132.3544 Q450.1875,133.4169 451.5313,133.4169 Q452.1563,133.4169 452.75,133.1513 Q453.3438,132.87 453.9688,132.2919 L453.9688,135.0106 Z " fill="#000000"/><line style="stroke:#181818;stroke-width:0.5;" x1="437" x2="521" y1="145.37" y2="145.37"/><line style="stroke:#181818;stroke-width:0.5;" x1="437" x2="521" y1="153.37" y2="153.37"/></g><!--class A44444--><g id="elem_A44444"><rect codeLine="18" fill="#F1F1F1" height="48" id="A44444" rx="2.5" ry="2.5" style="stroke:#181818;stroke-width:0.5;" width="86" x="629" y="113.37"/><ellipse cx="644" cy="129.37" fill="#ADD1B2" rx="11" ry="11" style="stroke:#181818;stroke-width:1.0;"/><path d="M646.9688,135.0106 Q646.3906,135.3075 645.75,135.4481 Q645.1094,135.6044 644.4063,135.6044 Q641.9063,135.6044 640.5781,133.9638 Q639.2656,132.3075 639.2656,129.1825 Q639.2656,126.0575 640.5781,124.4013 Q641.9063,122.745 644.4063,122.745 Q645.1094,122.745 645.75,122.9013 Q646.4063,123.0575 646.9688,123.3544 L646.9688,126.0731 Q646.3438,125.495 645.75,125.2294 Q645.1563,124.9481 644.5313,124.9481 Q643.1875,124.9481 642.5,126.0263 Q641.8125,127.0888 641.8125,129.1825 Q641.8125,131.2763 642.5,132.3544 Q643.1875,133.4169 644.5313,133.4169 Q645.1563,133.4169 645.75,133.1513 Q646.3438,132.87 646.9688,132.2919 L646.9688,135.0106 Z " fill="#000000"/><line style="stroke:#181818;stroke-width:0.5;" x1="630" x2="714" y1="145.37" y2="145.37"/><line style="stroke:#181818;stroke-width:0.5;" x1="630" x2="714" y1="153.37" y2="153.37"/></g><!--class A55555--><g id="elem_A55555"><rect codeLine="22" fill="#F1F1F1" height="48" id="A55555" rx="2.5" ry="2.5" style="stroke:#181818;stroke-width:0.5;" width="86" x="822" y="113.37"/><ellipse cx="837" cy="129.37" fill="#ADD1B2" rx="11" ry="11" style="stroke:#181818;stroke-width:1.0;"/><path d="M839.9688,135.0106 Q839.3906,135.3075 838.75,135.4481 Q838.1094,135.6044 837.4063,135.6044 Q834.9063,135.6044 833.5781,133.9638 Q832.2656,132.3075 832.2656,129.1825 Q832.2656,126.0575 833.5781,124.4013 Q834.9063,122.745 837.4063,122.745 Q838.1094,122.745 838.75,122.9013 Q839.4063,123.0575 839.9688,123.3544 L839.9688,126.0731 Q839.3438,125.495 838.75,125.2294 Q838.1563,124.9481 837.5313,124.9481 Q836.1875,124.9481 835.5,126.0263 Q834.8125,127.0888 834.8125,129.1825 Q834.8125,131.2763 835.5,132.3544 Q836.1875,133.4169 837.5313,133.4169 Q838.1563,133.4169 838.75,133.1513 Q839.3438,132.87 839.9688,132.2919 L839.9688,135.0106 Z " fill="#000000"/><line style="stroke:#181818;stroke-width:0.5;" x1="823" x2="907" y1="145.37" y2="145.37"/><line style="stroke:#181818;stroke-width:0.5;" x1="823" x2="907" y1="153.37" y2="153.37"/></g><!--class A22222--><g id="elem_A22222"><rect codeLine="26" fill="#F1F1F1" height="48" id="A22222" rx="2.5" ry="2.5" style="stroke:#181818;stroke-width:0.5;" width="86" x="243" y="113.37"/><ellipse cx="258" cy="129.37" fill="#ADD1B2" rx="11" ry="11" style="stroke:#181818;stroke-width:1.0;"/><path d="M260.9688,135.0106 Q260.3906,135.3075 259.75,135.4481 Q259.1094,135.6044 258.4063,135.6044 Q255.9063,135.6044 254.5781,133.9638 Q253.2656,132.3075 253.2656,129.1825 Q253.2656,126.0575 254.5781,124.4013 Q255.9063,122.745 258.4063,122.745 Q259.1094,122.745 259.75,122.9013 Q260.4063,123.0575 260.9688,123.3544 L260.9688,126.0731 Q260.3438,125.495 259.75,125.2294 Q259.1563,124.9481 258.5313,124.9481 Q257.1875,124.9481 256.5,126.0263 Q255.8125,127.0888 255.8125,129.1825 Q255.8125,131.2763 256.5,132.3544 Q257.1875,133.4169 258.5313,133.4169 Q259.1563,133.4169 259.75,133.1513 Q260.3438,132.87 260.9688,132.2919 L260.9688,135.0106 Z " fill="#000000"/><line style="stroke:#181818;stroke-width:0.5;" x1="244" x2="328" y1="145.37" y2="145.37"/><line style="stroke:#181818;stroke-width:0.5;" x1="244" x2="328" y1="153.37" y2="153.37"/></g><!--class A66666--><g id="elem_A66666"><rect codeLine="30" fill="#F1F1F1" height="48" id="A66666" rx="2.5" ry="2.5" style="stroke:#181818;stroke-width:0.5;" width="86" x="1015" y="113.37"/><ellipse cx="1030" cy="129.37" fill="#ADD1B2" rx="11" ry="11" style="stroke:#181818;stroke-width:1.0;"/><path d="M1032.9688,135.0106 Q1032.3906,135.3075 1031.75,135.4481 Q1031.1094,135.6044 1030.4063,135.6044 Q1027.9063,135.6044 1026.5781,133.9638 Q1025.2656,132.3075 1025.2656,129.1825 Q1025.2656,126.0575 1026.5781,124.4013 Q1027.9063,122.745 1030.4063,122.745 Q1031.1094,122.745 1031.75,122.9013 Q1032.4063,123.0575 1032.9688,123.3544 L1032.9688,126.0731 Q1032.3438,125.495 1031.75,125.2294 Q1031.1563,124.9481 1030.5313,124.9481 Q1029.1875,124.9481 1028.5,126.0263 Q1027.8125,127.0888 1027.8125,129.1825 Q1027.8125,131.2763 1028.5,132.3544 Q1029.1875,133.4169 1030.5313,133.4169 Q1031.1563,133.4169 1031.75,133.1513 Q1032.3438,132.87 1032.9688,132.2919 L1032.9688,135.0106 Z " fill="#000000"/><line style="stroke:#181818;stroke-width:0.5;" x1="1016" x2="1100" y1="145.37" y2="145.37"/><line style="stroke:#181818;stroke-width:0.5;" x1="1016" x2="1100" y1="153.37" y2="153.37"/></g><!--class A77777--><g id="elem_A77777"><rect codeLine="34" fill="#F1F1F1" height="48" id="A77777" rx="2.5" ry="2.5" style="stroke:#181818;stroke-width:0.5;" width="86" x="1208" y="113.37"/><ellipse cx="1223" cy="129.37" fill="#ADD1B2" rx="11" ry="11" style="stroke:#181818;stroke-width:1.0;"/><path d="M1225.9688,135.0106 Q1225.3906,135.3075 1224.75,135.4481 Q1224.1094,135.6044 1223.4063,135.6044 Q1220.9063,135.6044 1219.5781,133.9638 Q1218.2656,132.3075 1218.2656,129.1825 Q1218.2656,126.0575 1219.5781,124.4013 Q1220.9063,122.745 1223.4063,122.745 Q1224.1094,122.745 1224.75,122.9013 Q1225.4063,123.0575 1225.9688,123.3544 L1225.9688,126.0731 Q1225.3438,125.495 1224.75,125.2294 Q1224.1563,124.9481 1223.5313,124.9481 Q1222.1875,124.9481 1221.5,126.0263 Q1220.8125,127.0888 1220.8125,129.1825 Q1220.8125,131.2763 1221.5,132.3544 Q1222.1875,133.4169 1223.5313,133.4169 Q1224.1563,133.4169 1224.75,133.1513 Q1225.3438,132.87 1225.9688,132.2919 L1225.9688,135.0106 Z " fill="#000000"/><line style="stroke:#181818;stroke-width:0.5;" x1="1209" x2="1293" y1="145.37" y2="145.37"/><line style="stroke:#181818;stroke-width:0.5;" x1="1209" x2="1293" y1="153.37" y2="153.37"/></g><!--link Root to View--><g id="link_Root_View"><path codeLine="37" d="M20.2601,70.1268 C20.3656,69.7485 20.4728,69.3707 20.5818,68.9933 C22.3262,62.9548 24.5255,57.0276 27.2884,51.4605 C32.8144,40.3263 40.595,30.6325 51.5,24.37 C83.49,6 102.08,6.78 134.5,24.37 C159.595,37.985 177.465,64.2875 189.2963,88.0925 C192.2541,94.0438 194.8345,99.8389 197.056,105.2407 C197.6113,106.5912 198.1443,107.917 198.6551,109.2146 C198.9105,109.8634 199.1604,110.5051 199.4047,111.1393 C199.5269,111.4564 199.6477,111.7716 199.7672,112.0848 C199.8269,112.2414 199.8863,112.3976 199.9453,112.5532 " fill="none" id="Root-to-View" style="stroke:#181818;stroke-width:1.0;"/><polygon fill="#181818" points="199.9453,112.5532,200.4937,102.7197,198.1722,107.8782,193.0136,105.5567,199.9453,112.5532" style="stroke:#181818;stroke-width:1.0;"/></g><!--link View to Application--><g id="link_View_Application"><path codeLine="38" d="M213.2601,70.1268 C213.3656,69.7485 213.4728,69.3707 213.5818,68.9933 C215.3262,62.9548 217.5255,57.0276 220.2884,51.4605 C225.8144,40.3263 233.595,30.6325 244.5,24.37 C276.49,6 295.08,6.78 327.5,24.37 C352.595,37.985 370.465,64.2875 382.2963,88.0925 C385.2541,94.0438 387.8345,99.8389 390.056,105.2407 C390.6113,106.5912 391.1443,107.917 391.6551,109.2146 C391.9105,109.8634 392.1604,110.5051 392.4047,111.1393 C392.5269,111.4564 392.6477,111.7716 392.7672,112.0848 C392.8269,112.2414 392.8863,112.3976 392.9453,112.5532 " fill="none" id="View-to-Application" style="stroke:#181818;stroke-width:1.0;"/><polygon fill="#181818" points="392.9453,112.5532,393.4937,102.7197,391.1722,107.8782,386.0136,105.5567,392.9453,112.5532" style="stroke:#181818;stroke-width:1.0;"/></g><!--link Application to Services--><g id="link_Application_Services"><path codeLine="39" d="M406.2601,70.1268 C406.3656,69.7485 406.4728,69.3707 406.5818,68.9933 C408.3262,62.9548 410.5255,57.0276 413.2884,51.4605 C418.8144,40.3263 426.595,30.6325 437.5,24.37 C469.49,6 488.08,6.78 520.5,24.37 C545.595,37.985 563.465,64.2875 575.2963,88.0925 C578.2541,94.0438 580.8345,99.8389 583.056,105.2407 C583.6113,106.5912 584.1443,107.917 584.6551,109.2146 C584.9105,109.8634 585.1604,110.5051 585.4047,111.1393 C585.5269,111.4564 585.6477,111.7716 585.7672,112.0848 C585.8269,112.2414 585.8863,112.3976 585.9453,112.5532 " fill="none" id="Application-to-Services" style="stroke:#181818;stroke-width:1.0;"/><polygon fill="#181818" points="585.9453,112.5532,586.4937,102.7197,584.1722,107.8782,579.0136,105.5567,585.9453,112.5532" style="stroke:#181818;stroke-width:1.0;"/></g><!--link Services to Domain--><g id="link_Services_Domain"><path codeLine="40" d="M599.2601,70.1268 C599.3656,69.7485 599.4728,69.3707 599.5818,68.9933 C601.3262,62.9548 603.5255,57.0276 606.2884,51.4605 C611.8144,40.3263 619.595,30.6325 630.5,24.37 C662.49,6 681.08,6.78 713.5,24.37 C738.595,37.985 756.465,64.2875 768.2963,88.0925 C771.2541,94.0438 773.8345,99.8389 776.056,105.2407 C776.6113,106.5912 777.1443,107.917 777.6551,109.2146 C777.9105,109.8634 778.1604,110.5051 778.4047,111.1393 C778.5269,111.4564 778.6477,111.7716 778.7672,112.0848 C778.8269,112.2414 778.8863,112.3976 778.9453,112.5532 " fill="none" id="Services-to-Domain" style="stroke:#181818;stroke-width:1.0;"/><polygon fill="#181818" points="778.9453,112.5532,779.4937,102.7197,777.1722,107.8782,772.0136,105.5567,778.9453,112.5532" style="stroke:#181818;stroke-width:1.0;"/></g><!--link Domain to Infrastructure--><g id="link_Domain_Infrastructure"><path codeLine="41" d="M792.2601,70.1268 C792.3656,69.7485 792.4728,69.3707 792.5818,68.9933 C794.3262,62.9548 796.5255,57.0276 799.2884,51.4605 C804.8144,40.3263 812.595,30.6325 823.5,24.37 C855.49,6 874.08,6.78 906.5,24.37 C931.595,37.985 949.465,64.2875 961.2963,88.0925 C964.2541,94.0438 966.8345,99.8389 969.056,105.2407 C969.6113,106.5912 970.1443,107.917 970.6551,109.2146 C970.9105,109.8634 971.1604,110.5051 971.4047,111.1393 C971.5269,111.4564 971.6477,111.7716 971.7672,112.0848 C971.8269,112.2414 971.8863,112.3976 971.9453,112.5532 " fill="none" id="Domain-to-Infrastructure" style="stroke:#181818;stroke-width:1.0;"/><polygon fill="#181818" points="971.9453,112.5532,972.4937,102.7197,970.1722,107.8782,965.0136,105.5567,971.9453,112.5532" style="stroke:#181818;stroke-width:1.0;"/></g><!--link Infrastructure to Framework--><g id="link_Infrastructure_Framework"><path codeLine="42" d="M985.2601,70.1268 C985.3656,69.7485 985.4728,69.3707 985.5818,68.9933 C987.3262,62.9548 989.5255,57.0276 992.2884,51.4605 C997.8144,40.3263 1005.595,30.6325 1016.5,24.37 C1048.49,6 1067.08,6.78 1099.5,24.37 C1124.595,37.985 1142.465,64.2875 1154.2963,88.0925 C1157.2541,94.0438 1159.8345,99.8389 1162.056,105.2407 C1162.6113,106.5912 1163.1443,107.917 1163.6551,109.2146 C1163.9105,109.8634 1164.1604,110.5051 1164.4047,111.1393 C1164.5269,111.4564 1164.6477,111.7716 1164.7672,112.0848 C1164.8269,112.2414 1164.8863,112.3976 1164.9453,112.5532 " fill="none" id="Infrastructure-to-Framework" style="stroke:#181818;stroke-width:1.0;"/><polygon fill="#181818" points="1164.9453,112.5532,1165.4937,102.7197,1163.1722,107.8782,1158.0136,105.5567,1164.9453,112.5532" style="stroke:#181818;stroke-width:1.0;"/></g><!--SRC=[RP3DJWCn38JlVWghznxulo5Le4eSk03YRWMtYfgrLqxAWgg-EvjqMnh2t69_4us7Gj2XyrzUrW1nuwKdemvTe1Xn1pXgfP8UDAZXcv744M19PHCJ6slwxddvBxC706ENIDQ1yKKrJLyUlbzSPE4Ezvdy1HTz7xoZv5Lg_YghvL_PFhtZMCFNMIqyUzIElE2pVd2O8KMS1fNv9girltiUQl0ogmMVP6KKasrTsXhNbjkirh8SU-T1RLFJTrb7kbGuj_bzIG8bJdcULGRdzPNbiHyu5LN6XxjXEh-CwjZmvug2d6B23m00]--></g></svg>