<?xml version="1.0" encoding="UTF-8" standalone="no"?><svg xmlns="http://www.w3.org/2000/svg" xmlns:xlink="http://www.w3.org/1999/xlink" contentScriptType="application/ecmascript" contentStyleType="text/css" height="195px" preserveAspectRatio="none" style="width:1246px;height:195px;background:#FFFFFF;" version="1.1" viewBox="0 0 1246 195" width="1246px" zoomAndPan="magnify"><defs><filter height="300%" id="f1d83p9f71me5r" width="300%" x="-1" y="-1"><feGaussianBlur result="blurOut" stdDeviation="2.0"/><feColorMatrix in="blurOut" result="blurOut2" type="matrix" values="0 0 0 0 0 0 0 0 0 0 0 0 0 0 0 0 0 0 .4 0"/><feOffset dx="4.0" dy="4.0" in="blurOut2" result="blurOut3"/><feBlend in="SourceGraphic" in2="blurOut3" mode="normal"/></filter></defs><g><!--MD5=[913ee34ee77be70e73f263d719355558]
cluster Root--><rect fill="#FFFFFF" filter="url(#f1d83p9f71me5r)" height="116" style="stroke:#000000;stroke-width:1.5;" width="141" x="7" y="67.72"/><text fill="#000000" font-family="sans-serif" font-size="14" font-weight="bold" lengthAdjust="spacing" textLength="33" x="61" y="84.2532">Root</text><!--MD5=[d64883541e3d62e3241c4d12decf100d]
cluster Application--><rect fill="#FFFFFF" filter="url(#f1d83p9f71me5r)" height="116" style="stroke:#000000;stroke-width:1.5;" width="141" x="369" y="67.72"/><text fill="#000000" font-family="sans-serif" font-size="14" font-weight="bold" lengthAdjust="spacing" textLength="78" x="400.5" y="84.2532">Application</text><!--MD5=[cdfd548b3455e70392372b1f27091970]
cluster Services--><rect fill="#FFFFFF" filter="url(#f1d83p9f71me5r)" height="116" style="stroke:#000000;stroke-width:1.5;" width="141" x="550" y="67.72"/><text fill="#000000" font-family="sans-serif" font-size="14" font-weight="bold" lengthAdjust="spacing" textLength="62" x="589.5" y="84.2532">Services</text><!--MD5=[121a8bf1197281ab89ed693fab589f94]
cluster Domain--><rect fill="#FFFFFF" filter="url(#f1d83p9f71me5r)" height="116" style="stroke:#000000;stroke-width:1.5;" width="141" x="731" y="67.72"/><text fill="#000000" font-family="sans-serif" font-size="14" font-weight="bold" lengthAdjust="spacing" textLength="100" x="751.5" y="84.2532">Domain Model</text><!--MD5=[e320b41f2d43b11d6de1346cab4ea5fc]
cluster View--><rect fill="#FFFFFF" filter="url(#f1d83p9f71me5r)" height="116" style="stroke:#000000;stroke-width:1.5;" width="141" x="188" y="67.72"/><text fill="#000000" font-family="sans-serif" font-size="14" font-weight="bold" lengthAdjust="spacing" textLength="33" x="242" y="84.2532">View</text><!--MD5=[9ddaf8ee8bcae11a9a9232f969198262]
cluster Infrastructure--><rect fill="#FFFFFF" filter="url(#f1d83p9f71me5r)" height="116" style="stroke:#000000;stroke-width:1.5;" width="141" x="912" y="67.72"/><text fill="#000000" font-family="sans-serif" font-size="14" font-weight="bold" lengthAdjust="spacing" textLength="97" x="934" y="84.2532">Infrastructure</text><!--MD5=[a3db38b29c3436960cdd3b658ea5cf84]
cluster Framework--><rect fill="#FFFFFF" filter="url(#f1d83p9f71me5r)" height="116" style="stroke:#000000;stroke-width:1.5;" width="141" x="1093" y="67.72"/><text fill="#000000" font-family="sans-serif" font-size="14" font-weight="bold" lengthAdjust="spacing" textLength="78" x="1124.5" y="84.2532">Framework</text><!--MD5=[e26579fe48ac71077db9587636c6d3c7]
class A11111--><rect codeLine="10" fill="#FEFECE" filter="url(#f1d83p9f71me5r)" height="48" id="A11111" style="stroke:#A80036;stroke-width:1.5;" width="74" x="50" y="111.72"/><ellipse cx="65" cy="127.72" fill="#ADD1B2" rx="11" ry="11" style="stroke:#A80036;stroke-width:1.0;"/><path d="M67.7656,123.595 Q67.9219,123.3763 68.1094,123.2669 Q68.2969,123.1575 68.5156,123.1575 Q68.8906,123.1575 69.125,123.4153 Q69.3594,123.6731 69.3594,124.2825 L69.3594,125.7356 Q69.3594,126.345 69.125,126.6106 Q68.8906,126.8763 68.5156,126.8763 Q68.1719,126.8763 67.9688,126.6731 Q67.7656,126.4856 67.6563,125.97 Q67.6094,125.6106 67.4219,125.4231 Q67.0938,125.0481 66.4844,124.8294 Q65.875,124.6106 65.25,124.6106 Q64.4844,124.6106 63.8516,124.9388 Q63.2188,125.2669 62.7266,126.0169 Q62.2344,126.7669 62.2344,127.7981 L62.2344,128.8919 Q62.2344,130.1263 63.125,130.9466 Q64.0156,131.7669 65.6094,131.7669 Q66.5469,131.7669 67.2031,131.5169 Q67.5938,131.3606 68.0156,130.9231 Q68.2813,130.6575 68.4297,130.5794 Q68.5781,130.5013 68.7813,130.5013 Q69.1094,130.5013 69.3672,130.7591 Q69.625,131.0169 69.625,131.3606 Q69.625,131.7044 69.2813,132.1106 Q68.7813,132.6888 67.9844,133.0169 Q66.9063,133.47 65.6094,133.47 Q64.0938,133.47 62.8906,132.845 Q61.9063,132.345 61.2188,131.2747 Q60.5313,130.2044 60.5313,128.9231 L60.5313,127.7669 Q60.5313,126.4388 61.1484,125.2903 Q61.7656,124.1419 62.8594,123.5247 Q63.9531,122.9075 65.1875,122.9075 Q65.9219,122.9075 66.5703,123.0716 Q67.2188,123.2356 67.7656,123.595 Z " fill="#000000"/><line style="stroke:#A80036;stroke-width:1.5;" x1="51" x2="123" y1="143.72" y2="143.72"/><line style="stroke:#A80036;stroke-width:1.5;" x1="51" x2="123" y1="151.72" y2="151.72"/><!--MD5=[b813db3346d3ff4d96c29363dd096958]
class A33333--><rect codeLine="14" fill="#FEFECE" filter="url(#f1d83p9f71me5r)" height="48" id="A33333" style="stroke:#A80036;stroke-width:1.5;" width="74" x="412" y="111.72"/><ellipse cx="427" cy="127.72" fill="#ADD1B2" rx="11" ry="11" style="stroke:#A80036;stroke-width:1.0;"/><path d="M429.7656,123.595 Q429.9219,123.3763 430.1094,123.2669 Q430.2969,123.1575 430.5156,123.1575 Q430.8906,123.1575 431.125,123.4153 Q431.3594,123.6731 431.3594,124.2825 L431.3594,125.7356 Q431.3594,126.345 431.125,126.6106 Q430.8906,126.8763 430.5156,126.8763 Q430.1719,126.8763 429.9688,126.6731 Q429.7656,126.4856 429.6563,125.97 Q429.6094,125.6106 429.4219,125.4231 Q429.0938,125.0481 428.4844,124.8294 Q427.875,124.6106 427.25,124.6106 Q426.4844,124.6106 425.8516,124.9388 Q425.2188,125.2669 424.7266,126.0169 Q424.2344,126.7669 424.2344,127.7981 L424.2344,128.8919 Q424.2344,130.1263 425.125,130.9466 Q426.0156,131.7669 427.6094,131.7669 Q428.5469,131.7669 429.2031,131.5169 Q429.5938,131.3606 430.0156,130.9231 Q430.2813,130.6575 430.4297,130.5794 Q430.5781,130.5013 430.7813,130.5013 Q431.1094,130.5013 431.3672,130.7591 Q431.625,131.0169 431.625,131.3606 Q431.625,131.7044 431.2813,132.1106 Q430.7813,132.6888 429.9844,133.0169 Q428.9063,133.47 427.6094,133.47 Q426.0938,133.47 424.8906,132.845 Q423.9063,132.345 423.2188,131.2747 Q422.5313,130.2044 422.5313,128.9231 L422.5313,127.7669 Q422.5313,126.4388 423.1484,125.2903 Q423.7656,124.1419 424.8594,123.5247 Q425.9531,122.9075 427.1875,122.9075 Q427.9219,122.9075 428.5703,123.0716 Q429.2188,123.2356 429.7656,123.595 Z " fill="#000000"/><line style="stroke:#A80036;stroke-width:1.5;" x1="413" x2="485" y1="143.72" y2="143.72"/><line style="stroke:#A80036;stroke-width:1.5;" x1="413" x2="485" y1="151.72" y2="151.72"/><!--MD5=[a50559708c8b74e263ab85150331a0ba]
class A44444--><rect codeLine="18" fill="#FEFECE" filter="url(#f1d83p9f71me5r)" height="48" id="A44444" style="stroke:#A80036;stroke-width:1.5;" width="74" x="593" y="111.72"/><ellipse cx="608" cy="127.72" fill="#ADD1B2" rx="11" ry="11" style="stroke:#A80036;stroke-width:1.0;"/><path d="M610.7656,123.595 Q610.9219,123.3763 611.1094,123.2669 Q611.2969,123.1575 611.5156,123.1575 Q611.8906,123.1575 612.125,123.4153 Q612.3594,123.6731 612.3594,124.2825 L612.3594,125.7356 Q612.3594,126.345 612.125,126.6106 Q611.8906,126.8763 611.5156,126.8763 Q611.1719,126.8763 610.9688,126.6731 Q610.7656,126.4856 610.6563,125.97 Q610.6094,125.6106 610.4219,125.4231 Q610.0938,125.0481 609.4844,124.8294 Q608.875,124.6106 608.25,124.6106 Q607.4844,124.6106 606.8516,124.9388 Q606.2188,125.2669 605.7266,126.0169 Q605.2344,126.7669 605.2344,127.7981 L605.2344,128.8919 Q605.2344,130.1263 606.125,130.9466 Q607.0156,131.7669 608.6094,131.7669 Q609.5469,131.7669 610.2031,131.5169 Q610.5938,131.3606 611.0156,130.9231 Q611.2813,130.6575 611.4297,130.5794 Q611.5781,130.5013 611.7813,130.5013 Q612.1094,130.5013 612.3672,130.7591 Q612.625,131.0169 612.625,131.3606 Q612.625,131.7044 612.2813,132.1106 Q611.7813,132.6888 610.9844,133.0169 Q609.9063,133.47 608.6094,133.47 Q607.0938,133.47 605.8906,132.845 Q604.9063,132.345 604.2188,131.2747 Q603.5313,130.2044 603.5313,128.9231 L603.5313,127.7669 Q603.5313,126.4388 604.1484,125.2903 Q604.7656,124.1419 605.8594,123.5247 Q606.9531,122.9075 608.1875,122.9075 Q608.9219,122.9075 609.5703,123.0716 Q610.2188,123.2356 610.7656,123.595 Z " fill="#000000"/><line style="stroke:#A80036;stroke-width:1.5;" x1="594" x2="666" y1="143.72" y2="143.72"/><line style="stroke:#A80036;stroke-width:1.5;" x1="594" x2="666" y1="151.72" y2="151.72"/><!--MD5=[57235fd97637341aa809eb8f122865db]
class A55555--><rect codeLine="22" fill="#FEFECE" filter="url(#f1d83p9f71me5r)" height="48" id="A55555" style="stroke:#A80036;stroke-width:1.5;" width="74" x="774" y="111.72"/><ellipse cx="789" cy="127.72" fill="#ADD1B2" rx="11" ry="11" style="stroke:#A80036;stroke-width:1.0;"/><path d="M791.7656,123.595 Q791.9219,123.3763 792.1094,123.2669 Q792.2969,123.1575 792.5156,123.1575 Q792.8906,123.1575 793.125,123.4153 Q793.3594,123.6731 793.3594,124.2825 L793.3594,125.7356 Q793.3594,126.345 793.125,126.6106 Q792.8906,126.8763 792.5156,126.8763 Q792.1719,126.8763 791.9688,126.6731 Q791.7656,126.4856 791.6563,125.97 Q791.6094,125.6106 791.4219,125.4231 Q791.0938,125.0481 790.4844,124.8294 Q789.875,124.6106 789.25,124.6106 Q788.4844,124.6106 787.8516,124.9388 Q787.2188,125.2669 786.7266,126.0169 Q786.2344,126.7669 786.2344,127.7981 L786.2344,128.8919 Q786.2344,130.1263 787.125,130.9466 Q788.0156,131.7669 789.6094,131.7669 Q790.5469,131.7669 791.2031,131.5169 Q791.5938,131.3606 792.0156,130.9231 Q792.2813,130.6575 792.4297,130.5794 Q792.5781,130.5013 792.7813,130.5013 Q793.1094,130.5013 793.3672,130.7591 Q793.625,131.0169 793.625,131.3606 Q793.625,131.7044 793.2813,132.1106 Q792.7813,132.6888 791.9844,133.0169 Q790.9063,133.47 789.6094,133.47 Q788.0938,133.47 786.8906,132.845 Q785.9063,132.345 785.2188,131.2747 Q784.5313,130.2044 784.5313,128.9231 L784.5313,127.7669 Q784.5313,126.4388 785.1484,125.2903 Q785.7656,124.1419 786.8594,123.5247 Q787.9531,122.9075 789.1875,122.9075 Q789.9219,122.9075 790.5703,123.0716 Q791.2188,123.2356 791.7656,123.595 Z " fill="#000000"/><line style="stroke:#A80036;stroke-width:1.5;" x1="775" x2="847" y1="143.72" y2="143.72"/><line style="stroke:#A80036;stroke-width:1.5;" x1="775" x2="847" y1="151.72" y2="151.72"/><!--MD5=[b243c680f28b263a33f481ebfa2921a3]
class A22222--><rect codeLine="26" fill="#FEFECE" filter="url(#f1d83p9f71me5r)" height="48" id="A22222" style="stroke:#A80036;stroke-width:1.5;" width="74" x="231" y="111.72"/><ellipse cx="246" cy="127.72" fill="#ADD1B2" rx="11" ry="11" style="stroke:#A80036;stroke-width:1.0;"/><path d="M248.7656,123.595 Q248.9219,123.3763 249.1094,123.2669 Q249.2969,123.1575 249.5156,123.1575 Q249.8906,123.1575 250.125,123.4153 Q250.3594,123.6731 250.3594,124.2825 L250.3594,125.7356 Q250.3594,126.345 250.125,126.6106 Q249.8906,126.8763 249.5156,126.8763 Q249.1719,126.8763 248.9688,126.6731 Q248.7656,126.4856 248.6563,125.97 Q248.6094,125.6106 248.4219,125.4231 Q248.0938,125.0481 247.4844,124.8294 Q246.875,124.6106 246.25,124.6106 Q245.4844,124.6106 244.8516,124.9388 Q244.2188,125.2669 243.7266,126.0169 Q243.2344,126.7669 243.2344,127.7981 L243.2344,128.8919 Q243.2344,130.1263 244.125,130.9466 Q245.0156,131.7669 246.6094,131.7669 Q247.5469,131.7669 248.2031,131.5169 Q248.5938,131.3606 249.0156,130.9231 Q249.2813,130.6575 249.4297,130.5794 Q249.5781,130.5013 249.7813,130.5013 Q250.1094,130.5013 250.3672,130.7591 Q250.625,131.0169 250.625,131.3606 Q250.625,131.7044 250.2813,132.1106 Q249.7813,132.6888 248.9844,133.0169 Q247.9063,133.47 246.6094,133.47 Q245.0938,133.47 243.8906,132.845 Q242.9063,132.345 242.2188,131.2747 Q241.5313,130.2044 241.5313,128.9231 L241.5313,127.7669 Q241.5313,126.4388 242.1484,125.2903 Q242.7656,124.1419 243.8594,123.5247 Q244.9531,122.9075 246.1875,122.9075 Q246.9219,122.9075 247.5703,123.0716 Q248.2188,123.2356 248.7656,123.595 Z " fill="#000000"/><line style="stroke:#A80036;stroke-width:1.5;" x1="232" x2="304" y1="143.72" y2="143.72"/><line style="stroke:#A80036;stroke-width:1.5;" x1="232" x2="304" y1="151.72" y2="151.72"/><!--MD5=[ccbaf18dcaf391b8e6417ec57dbce4ad]
class A66666--><rect codeLine="30" fill="#FEFECE" filter="url(#f1d83p9f71me5r)" height="48" id="A66666" style="stroke:#A80036;stroke-width:1.5;" width="74" x="955" y="111.72"/><ellipse cx="970" cy="127.72" fill="#ADD1B2" rx="11" ry="11" style="stroke:#A80036;stroke-width:1.0;"/><path d="M972.7656,123.595 Q972.9219,123.3763 973.1094,123.2669 Q973.2969,123.1575 973.5156,123.1575 Q973.8906,123.1575 974.125,123.4153 Q974.3594,123.6731 974.3594,124.2825 L974.3594,125.7356 Q974.3594,126.345 974.125,126.6106 Q973.8906,126.8763 973.5156,126.8763 Q973.1719,126.8763 972.9688,126.6731 Q972.7656,126.4856 972.6563,125.97 Q972.6094,125.6106 972.4219,125.4231 Q972.0938,125.0481 971.4844,124.8294 Q970.875,124.6106 970.25,124.6106 Q969.4844,124.6106 968.8516,124.9388 Q968.2188,125.2669 967.7266,126.0169 Q967.2344,126.7669 967.2344,127.7981 L967.2344,128.8919 Q967.2344,130.1263 968.125,130.9466 Q969.0156,131.7669 970.6094,131.7669 Q971.5469,131.7669 972.2031,131.5169 Q972.5938,131.3606 973.0156,130.9231 Q973.2813,130.6575 973.4297,130.5794 Q973.5781,130.5013 973.7813,130.5013 Q974.1094,130.5013 974.3672,130.7591 Q974.625,131.0169 974.625,131.3606 Q974.625,131.7044 974.2813,132.1106 Q973.7813,132.6888 972.9844,133.0169 Q971.9063,133.47 970.6094,133.47 Q969.0938,133.47 967.8906,132.845 Q966.9063,132.345 966.2188,131.2747 Q965.5313,130.2044 965.5313,128.9231 L965.5313,127.7669 Q965.5313,126.4388 966.1484,125.2903 Q966.7656,124.1419 967.8594,123.5247 Q968.9531,122.9075 970.1875,122.9075 Q970.9219,122.9075 971.5703,123.0716 Q972.2188,123.2356 972.7656,123.595 Z " fill="#000000"/><line style="stroke:#A80036;stroke-width:1.5;" x1="956" x2="1028" y1="143.72" y2="143.72"/><line style="stroke:#A80036;stroke-width:1.5;" x1="956" x2="1028" y1="151.72" y2="151.72"/><!--MD5=[a6df1592398700052adb00cee3b47255]
class A77777--><rect codeLine="34" fill="#FEFECE" filter="url(#f1d83p9f71me5r)" height="48" id="A77777" style="stroke:#A80036;stroke-width:1.5;" width="74" x="1136" y="111.72"/><ellipse cx="1151" cy="127.72" fill="#ADD1B2" rx="11" ry="11" style="stroke:#A80036;stroke-width:1.0;"/><path d="M1153.7656,123.595 Q1153.9219,123.3763 1154.1094,123.2669 Q1154.2969,123.1575 1154.5156,123.1575 Q1154.8906,123.1575 1155.125,123.4153 Q1155.3594,123.6731 1155.3594,124.2825 L1155.3594,125.7356 Q1155.3594,126.345 1155.125,126.6106 Q1154.8906,126.8763 1154.5156,126.8763 Q1154.1719,126.8763 1153.9688,126.6731 Q1153.7656,126.4856 1153.6563,125.97 Q1153.6094,125.6106 1153.4219,125.4231 Q1153.0938,125.0481 1152.4844,124.8294 Q1151.875,124.6106 1151.25,124.6106 Q1150.4844,124.6106 1149.8516,124.9388 Q1149.2188,125.2669 1148.7266,126.0169 Q1148.2344,126.7669 1148.2344,127.7981 L1148.2344,128.8919 Q1148.2344,130.1263 1149.125,130.9466 Q1150.0156,131.7669 1151.6094,131.7669 Q1152.5469,131.7669 1153.2031,131.5169 Q1153.5938,131.3606 1154.0156,130.9231 Q1154.2813,130.6575 1154.4297,130.5794 Q1154.5781,130.5013 1154.7813,130.5013 Q1155.1094,130.5013 1155.3672,130.7591 Q1155.625,131.0169 1155.625,131.3606 Q1155.625,131.7044 1155.2813,132.1106 Q1154.7813,132.6888 1153.9844,133.0169 Q1152.9063,133.47 1151.6094,133.47 Q1150.0938,133.47 1148.8906,132.845 Q1147.9063,132.345 1147.2188,131.2747 Q1146.5313,130.2044 1146.5313,128.9231 L1146.5313,127.7669 Q1146.5313,126.4388 1147.1484,125.2903 Q1147.7656,124.1419 1148.8594,123.5247 Q1149.9531,122.9075 1151.1875,122.9075 Q1151.9219,122.9075 1152.5703,123.0716 Q1153.2188,123.2356 1153.7656,123.595 Z " fill="#000000"/><line style="stroke:#A80036;stroke-width:1.5;" x1="1137" x2="1209" y1="143.72" y2="143.72"/><line style="stroke:#A80036;stroke-width:1.5;" x1="1137" x2="1209" y1="151.72" y2="151.72"/><!--MD5=[fd33f3e117f7d7e02a83a997965077d5]
link Root to View--><path d="M20.2576,67.3006 C20.3111,67.11 20.3651,66.9195 20.4196,66.7291 C22.1619,60.6369 24.364,54.6572 27.1364,49.0413 C32.6813,37.8094 40.5075,28.0325 51.5,21.72 C78.86,6 94.79,6.62 122.5,21.72 C147.725,35.47 165.6,62.005 177.4013,86.0162 C180.3516,92.0191 182.9223,97.8641 185.1333,103.3123 C185.6861,104.6743 186.2163,106.0115 186.7245,107.3202 C186.9785,107.9746 187.227,108.6218 187.47,109.2614 C187.5915,109.5812 187.7117,109.8991 187.8304,110.215 " fill="none" id="Root-to-View" style="stroke:#A80036;stroke-width:1.0;"/><polygon fill="#A80036" points="187.8304,110.215,188.408,100.3831,186.0712,105.5347,180.9195,103.1979,187.8304,110.215" style="stroke:#A80036;stroke-width:1.0;"/><!--MD5=[86e789da1bef5efb219cea2fce063cfd]
link View to Application--><path d="M201.2576,67.3006 C201.3111,67.11 201.3651,66.9195 201.4196,66.7291 C203.1619,60.6369 205.364,54.6572 208.1364,49.0413 C213.6812,37.8094 221.5075,28.0325 232.5,21.72 C259.86,6 275.79,6.62 303.5,21.72 C328.725,35.47 346.6,62.005 358.4013,86.0162 C361.3516,92.0191 363.9223,97.8641 366.1333,103.3123 C366.6861,104.6743 367.2163,106.0115 367.7245,107.3202 C367.9785,107.9746 368.227,108.6218 368.47,109.2614 C368.5915,109.5812 368.7117,109.8991 368.8304,110.215 " fill="none" id="View-to-Application" style="stroke:#A80036;stroke-width:1.0;"/><polygon fill="#A80036" points="368.8304,110.215,369.408,100.3831,367.0712,105.5347,361.9195,103.1979,368.8304,110.215" style="stroke:#A80036;stroke-width:1.0;"/><!--MD5=[76ae1288c1ce83c197be051fb34b0bc2]
link Application to Services--><path d="M382.2576,67.3006 C382.3111,67.11 382.3651,66.9195 382.4196,66.7291 C384.1619,60.6369 386.364,54.6572 389.1364,49.0413 C394.6813,37.8094 402.5075,28.0325 413.5,21.72 C440.86,6 456.79,6.62 484.5,21.72 C509.725,35.47 527.6,62.005 539.4013,86.0162 C542.3516,92.0191 544.9223,97.8641 547.1333,103.3123 C547.6861,104.6743 548.2163,106.0115 548.7245,107.3202 C548.9785,107.9746 549.227,108.6218 549.47,109.2614 C549.5915,109.5812 549.7117,109.8991 549.8304,110.215 " fill="none" id="Application-to-Services" style="stroke:#A80036;stroke-width:1.0;"/><polygon fill="#A80036" points="549.8304,110.215,550.408,100.3831,548.0712,105.5347,542.9195,103.1979,549.8304,110.215" style="stroke:#A80036;stroke-width:1.0;"/><!--MD5=[7182d3cc5b971b09911f6c84ab3521d5]
link Services to Domain--><path d="M563.2576,67.3006 C563.3111,67.11 563.3651,66.9195 563.4196,66.7291 C565.1619,60.6369 567.364,54.6572 570.1364,49.0413 C575.6813,37.8094 583.5075,28.0325 594.5,21.72 C621.86,6 637.79,6.62 665.5,21.72 C690.725,35.47 708.6,62.005 720.4013,86.0162 C723.3516,92.0191 725.9223,97.8641 728.1333,103.3123 C728.6861,104.6743 729.2163,106.0115 729.7245,107.3202 C729.9785,107.9746 730.227,108.6218 730.47,109.2614 C730.5915,109.5812 730.7117,109.8991 730.8304,110.215 " fill="none" id="Services-to-Domain" style="stroke:#A80036;stroke-width:1.0;"/><polygon fill="#A80036" points="730.8304,110.215,731.408,100.3831,729.0712,105.5347,723.9195,103.1979,730.8304,110.215" style="stroke:#A80036;stroke-width:1.0;"/><!--MD5=[5cbcdfcf8f8150f8f4d861fda7bf33ae]
link Domain to Infrastructure--><path d="M744.2576,67.3006 C744.3111,67.11 744.3651,66.9195 744.4196,66.7291 C746.1619,60.6369 748.364,54.6572 751.1364,49.0413 C756.6813,37.8094 764.5075,28.0325 775.5,21.72 C802.86,6 818.79,6.62 846.5,21.72 C871.725,35.47 889.6,62.005 901.4013,86.0162 C904.3516,92.0191 906.9223,97.8641 909.1333,103.3123 C909.6861,104.6743 910.2163,106.0115 910.7245,107.3202 C910.9785,107.9746 911.227,108.6218 911.47,109.2614 C911.5915,109.5812 911.7117,109.8991 911.8304,110.215 " fill="none" id="Domain-to-Infrastructure" style="stroke:#A80036;stroke-width:1.0;"/><polygon fill="#A80036" points="911.8304,110.215,912.408,100.3831,910.0712,105.5347,904.9195,103.1979,911.8304,110.215" style="stroke:#A80036;stroke-width:1.0;"/><!--MD5=[fe547167e85aeb4136b6ad8a13a6cb7b]
link Infrastructure to Framework--><path d="M925.2576,67.3006 C925.3111,67.11 925.3651,66.9195 925.4196,66.7291 C927.1619,60.6369 929.364,54.6572 932.1364,49.0413 C937.6813,37.8094 945.5075,28.0325 956.5,21.72 C983.86,6 999.79,6.62 1027.5,21.72 C1052.725,35.47 1070.6,62.005 1082.4013,86.0162 C1085.3516,92.0191 1087.9223,97.8641 1090.1333,103.3123 C1090.6861,104.6743 1091.2163,106.0115 1091.7245,107.3202 C1091.9785,107.9746 1092.227,108.6218 1092.47,109.2614 C1092.5915,109.5812 1092.7117,109.8991 1092.8304,110.215 " fill="none" id="Infrastructure-to-Framework" style="stroke:#A80036;stroke-width:1.0;"/><polygon fill="#A80036" points="1092.8304,110.215,1093.408,100.3831,1091.0712,105.5347,1085.9195,103.1979,1092.8304,110.215" style="stroke:#A80036;stroke-width:1.0;"/><!--MD5=[4e24ded2608ca7016f3241c09c324296]
@startuml Layers
allowmixing

skinparam class {
    fontColor Transparent
    stereotypeFontColor Transparent
}


rectangle Root {
    class A11111 { }
}

rectangle Application {
    class A33333 { }
}

rectangle Services {
    class A44444 { }
}

rectangle "Domain Model" as Domain {
    class A55555 { }
}

rectangle View {
    class A22222 { }
}

rectangle Infrastructure {
    class A66666 { }
}

rectangle Framework {
    class A77777 { }
}

Root -r-> View
View -r-> Application
Application -r-> Services
Services -r-> Domain
Domain -r-> Infrastructure
Infrastructure -r-> Framework

@enduml

PlantUML version 1.2022.0(Tue Jan 11 17:16:42 CET 2022)
(GPL source distribution)
Java Runtime: Java(TM) SE Runtime Environment
JVM: Java HotSpot(TM) Client VM
Default Encoding: Cp1252
Language: en
Country: US
--></g></svg>